<svg xmlns="http://www.w3.org/2000/svg" xml:space="preserve" viewBox="0 0 86.2 69.4"><path d="M61 63c1.4-2.6.5-3.3-1.6-3.6-2.3-.4-3.1-2.2-3.2-4.4-.1-2 .3-3.7 2.3-4.4 2.1-.8 3.4-1.8 2.2-4.2-.1-.2.2-.7.4-.9.5-.5 1-.1 1.4.3.7.6 1.2 1.4 1.9 1.9 2.1 1.6 3.3 1.1 3.9-1.6v-.5c.1-.9.1-2 1.4-1.9.8 0 1.1.8 1.1 1.6 0 .5 0 1.1.2 1.6.3.9 1.2 1.3 2 1.1.4-.1.7-.3.9-.7.7-1 1-2.3 1.6-3.4.5-.8 1.2-1.4 2.2-.9.7.3 1 1.1.7 1.8-1.4 2.4-.8 4 1.2 5.7 1.4 1.1 1.2 2.9.3 4.4-.8 1.4-3 2.1-2 4.5.3.8-.8.7-1.5.4-3.5-1.5-3.5-1.5-5.3 1.9-1 1.9-1.4 1.2-2.4 0-1.7-2.1-2.4-1.9-4 .3-.4.6-.7 1.3-1.1 1.8-.4.6-1.2.9-1.9.5-.7-.3-.9-1.1-.7-1.3m11.4-12.7c-.4 0-1.3.1-2.2.2-2.2.3-3.8 2.3-3.5 4.6 0 .3.1.7.3 1 .8 2.2 2.8.4 4.2.2 1.1-.2 2.1-.5 3.1-1 1.6-.7 4.2-.7 3.8-3.1-.4-2.3-2.9-1.5-4.6-1.9zM62.2 57c1.5.4 1.9-.8 1.8-2.2 0-1 .1-2.3-1.6-2.2-1.5.2-3 .5-3.1 2.4-.1 1.8 1.2 2 2.9 2M49.8 35.7c-1.2-.6-2 .1-2.8.8q-1.65 1.35-3.6 2.4c-1.6 1-3.1.8-4.3-.7-1.1-1.5-1.9-3.5-4.5-3-.6.1-1.1-.9-.5-1.7.3-.4.8-.7 1.2-1.1 1.7-2 1.7-2-.8-3.3-.6-.3-1.6-.2-1.6-1.1-.1-1 .9-1 1.6-1 1.2 0 2.2.1 2.3-1.5s.6-3.3-1.6-4c-.5-.1-1.1-.7-1.1-1 .1-1 1-.6 1.6-.7.9.1 1.8-.2 2.4-.8 3.4-2.8 3.4-2.8 6.7-.6.5.5 1.1.9 1.7 1.3 1.7.8 3.5-2.5 4.8-.5.8 1.4-2.2 2.1-2.3 3.9v.5c0 2.2 3.1 2.2 3 3.9-.1 1.3-2.7 1.5-2.7 3.6 0 1.7 1.3 2 2.2 2.7.4.3.9.7.7 1.3s-.8.7-1.3.6c-.5.2-.8.1-1.1 0m-3.6-8.3c.2-2.4-.2-2.7-2.3-2-.8.3-1.6.7-2.5 1-1.1.3-1.6.9-1.3 1.9.5 1.9 1 3.8 1.8 5.6.6 1.4 1.6 1.1 2.4 0 1.4-2 1.4-4.4 1.9-6.5m-4.4-4.2c1.1-.4 2.5-.7 2.2-2.3-.1-1.1-1.1-1.9-2.2-1.8-1.7.1-1.7 1.5-1.7 2.7 0 1 .7 1.5 1.7 1.4m-29.2 2.7c-1.2 0-2.5-.8-3.4.7-.5.7-.9 1.9-1.9 1.3-.8-.5-.4-1.6-.5-2.5-.2-2.7-.3-2.8-2.7-1.4-.3.2-.6.5-.9.6-.9.5-1.9 1.6-2.8.5s0-2.1.8-2.7c1.7-1.3 2.7-2.7 2.2-5.1-.3-1.9.8-3.7 2.7-4.3 2.1-.8 2.6-2.1 2.5-4.1-.2-2.9 1.2-5.3 2.9-7.4 1.4-1.9 3-1.8 4.3.3.3.4.5 1 .6 1.5.3 2.2.9 2.8 3.1 1.4 2.1-1.4 4.7-2.2 7-.1 1.5 1.4.8 4.4-1.8 7.3-1.8 1.8-3.7 3.4-5.8 4.9-.9.6-1.3 1.7-.9 2.8.9 4.9-.3 6.3-5.4 6.3m3.9-11.7c2.5-.4 7.2-4.5 8-7 .3-1-.5-1.4-1.1-1.2-3.6 1.3-5.9 4-7.7 7.2-.4.7.1 1 .8 1m-5.6-4.5c.2.7-.2 1.7.7 1.7.3 0 .9-.6 1-1.1.8-2.1 1.8-4.3 1-6.7-.1-.1-.3-.1-.4-.1-1.9 1.7-2 4-2.3 6.2m17 39.8c-.1.4-.1.7-.1 1.1.1 1.2-.9 2.5 0 3.7.8.9 2 .3 3.1.5 3.4.9 4.1 2.2 3 6-.4.8-.4 1.7-.1 2.5.4.7 1.3 1.5.4 2.4s-1.6-.1-2.4-.5c-2.4-1-3-.7-3 2.2 0 1.9-.5 2.6-2 1.2-1.1-1.1-2.2-.8-3.5-.9-2.9-.2-4-1.1-3.3-3.6.9-3.2-.2-5.1-2.3-7.1-1.7-1.7-2.8-3.9-3.2-6.2-.4-1.3.1-2.6 1.2-3.4 1-.6 2.2-.5 3 .3 2.5 2.4 3.4.9 4-1.6.2-.5.4-1 .8-1.4.6-.9 1.8-1.1 2.7-.5l.6.6c1 1.4 1.4 3.1 1.1 4.7m-9.8 1.8c-.2.3-.5.6-.5.8.1 1.6.9 3.1 2.2 4 .1.1.3.2.4.3.1-.3.4-.6.4-.9-.1-1.4-.7-2.7-1.6-3.8-.2-.1-.5-.3-.9-.4m7.3-1.3c.1-.8.3-1.7-.4-1.9-1.1-.3-.9.8-1 1.4-.2 1.4-1.5 3.4.1 3.9 1.2.3 1-2.2 1.3-3.4M67 6.6v-.8c.3-1 1.3-1.7 2.4-1.4.5 0 1.1.2 1.5.5 2.1 1.5 3.7 2 4-1.4.1-1.1.9-2.1 2.1-2.2 1.2-.3 2.5.5 3 1.7 1.2 2 1.8 4.4 1.7 6.8-.2 2.9.2 5.1 3 6.9 2.2 1.4 2 2.9-.1 4.9-.9.9-1.9 1.4-2 2.9-.2 2.1-1 1.8-2.3.4-1.9-2.1-2.6-1.9-3.7.4-.4.8-.2 2-1.5 1.9-1.2 0-1.1-1.2-1.3-2.1-.3-.8-.9-1.5-1.7-1.9-3.4-2.1-3.7-3.6-1.7-6.5.6-.9 2-1.2 1.9-2.4-.1-1.4-1.7-1.8-2.4-2.8-.2-.3-.5-.5-.8-.8-1.2-.9-2-2.4-2.1-4.1m10.7-.9c-.2.3-.3.6-.4 1 0 1.4.5 2.8 1.3 3.9.1.2.6.3.9.4 0-.2.1-.3.1-.5.3-1.6-.1-3.2-1-4.5-.1-.2-.6-.2-.9-.3m-6.3 3.9c1 .6 2.5 2.7 3.2 1.7.9-1.4-1.4-2.1-2.5-3-.4-.4-1-1.4-1.6-.4-.5.6.4 1.1.9 1.7"/></svg>