<svg xmlns="http://www.w3.org/2000/svg" viewBox="0 0 216.592 135.95"><g data-name="Layer 2"><path d="M.007 79.135C-.014 76.9 1.274 75.212 2.846 73.6 15.309 60.849 29.59 50.23 43.375 39.029q7.806-6.344 15.646-12.647a22 22 0 0 1 3.556-2.5 5.65 5.65 0 0 1 7.6 2.023 5.38 5.38 0 0 1-1.271 7.276C61.95 38.991 54.885 44.666 47.951 50.5Q34.624 61.7 21.444 73.076c-2.619 2.253-2.489 2.97.89 4.293 12.78 5 23.762 13.075 35.065 20.574 2.707 1.8 5.255 3.848 8.07 5.512a17 17 0 0 1 3.056 2.236c2.377 2.257 3.094 5.745 1.738 7.861-1.284 2-5.267 3.534-7.747 2.861a9.4 9.4 0 0 1-2.976-1.3c-6.985-4.983-14.841-8.368-22.572-11.864-6.005-2.715-10.857-7.255-17-9.668C14.042 91.252 9.02 87.189 3.321 84.4a5.19 5.19 0 0 1-3.314-5.265m153.6 33.378c13.669-10.991 27.331-22 41.845-31.875 4.93-3.354 9.312-7.483 14.708-10.186 2.141-1.073 3.548-3.1 4.947-4.993 2.3-3.107 1.9-6.525-.979-9.181a26.6 26.6 0 0 0-6.819-4.382c-5.07-2.4-10.388-4.26-15.4-6.7-10.248-4.993-21.118-8.531-31.256-13.756a4.8 4.8 0 0 0-6.349 1.238 5.09 5.09 0 0 0 1.158 6.8 58 58 0 0 0 7.033 5.111 258 258 0 0 0 29.864 15.521c3.956 1.8 3.869 1.73.777 4.538-2.153 1.955-4.426 3.712-6.738 5.465-5.052 3.831-10.053 7.747-14.845 11.9s-9.773 8.052-14.86 11.841c-4.65 3.463-9.1 7.2-13.547 10.927-2.172 1.824-2.5 4.386-1.767 6.976.561 1.976 3.12 3.277 5.789 3.276a10.4 10.4 0 0 0 6.432-2.52Zm-71.186 23.432c2.24-.058 3.132-1.39 3.946-3.121 3.775-8.036 7.648-16.026 11.382-24.081 4.036-8.707 7.71-17.591 11.983-26.179 6.608-13.286 14.8-25.7 21.619-38.9 5.565-10.767 11.2-21.507 16.751-32.284a10.8 10.8 0 0 0 1.089-6.868c-.639-3.819-4.325-5.583-7.835-3.835a8.9 8.9 0 0 0-3.864 4.4c-5.2 10.346-10.4 20.693-15.7 30.992-4.634 9.012-9.458 17.927-14.075 26.949-6.268 12.246-12.52 24.5-18.584 36.853-3.66 7.455-7.064 15.043-10.345 22.674a19.3 19.3 0 0 0-1.839 7.357c-.177 4.598 1.477 6.146 5.472 6.043" data-name="Layer 1"/></g></svg>