<svg xmlns="http://www.w3.org/2000/svg" viewBox="0 0 371.129 346.455"><g data-name="Layer 2"><path d="M289.049 340.334c-9.8-.487-19.536.469-29.3 1.138-12.139.833-24.055 3.211-36.2 4.033-9.632.652-19.221.5-28.82.643a146 146 0 0 1-18.97-1.309c-7.262-.845-14.484-.419-21.727-.091-2.9.132-5.845.6-8.691.255-8.209-.981-16.267.106-24.388.972a87 87 0 0 1-14.682.3c-12.85-.818-25.7-1.789-38.51-3.041-7.582-.74-15.091-2.2-22.652-3.19a6.38 6.38 0 0 1-5.526-4.579 20.1 20.1 0 0 1-1.259-9.1c.309-2.6-.426-5.033-.963-7.515a5.2 5.2 0 0 0-1.96-3.085 13.11 13.11 0 0 1-1.208-18.723c.976-1.068 2.17-1.933 3.19-2.963 1.745-1.761 1.257-4.067 1.09-6.127-.084-1.049-1.551-.742-2.311-.351-3.383 1.741-7.076 2.774-10.332 4.835-5.316 3.365-9.225 2.071-11.344-3.882-2.518-7.076-1.228-13.973 1.953-20.521a81 81 0 0 1 4.954-7.806 21.44 21.44 0 0 1 10.052-8.842c1.514-.61 2.367-1.434 2.372-3.178.016-5.774 3.882-9.662 7.329-13.479a55.7 55.7 0 0 1 9.951-8.419c6.315-4.325 11.772-9.684 17.279-14.952 9.581-9.164 19.7-17.71 29.767-26.322 5.779-4.945 11.581-9.863 17.26-14.921 4.33-3.856 7.7-8.678 12.2-12.382 1.158-.953 1-2.174.7-3.486-1.422-6.151-2.573-12.334-4.623-18.367-1.671-4.92-2.119-10.256-3.1-15.41-.2-1.07-.34-2.152-.529-3.224-.375-2.134-1.622-2.622-3.553-1.9a145 145 0 0 1-17.231 4.778c-9.511 2.262-18.777 5.347-28.247 7.735-8.42 2.128-16.92 3.942-25.253 6.428a52 52 0 0 1-5.791 1.434 61.7 61.7 0 0 0-13.07 3.467c-4.583 1.894-7.545.6-9.766-3.919a26 26 0 0 1-2.035-6.149c-1.7-8.128-3.637-16.207-5.553-24.287-2.257-9.52-5.09-18.878-8.033-28.2a70 70 0 0 1-1.306-6.896c-.776-3.73.587-5.847 3.746-7.4a70.5 70.5 0 0 1 13.6-5.221c10.209-2.651 20.582-4.391 30.888-6.408 8.69-1.7 17.261-4.09 26.149-4.895a54.4 54.4 0 0 0 12.678-2.754c5.226-1.8 10.7-1.808 15.99-3.05 3.288-.773 3.93-.218 5.268 2.881a161 161 0 0 1 9.61 32.173 15.5 15.5 0 0 0 .936 3.122 48.9 48.9 0 0 1 3.631 14.71c.767 7.432 3.592 14.349 5.436 21.505 2.578 10.011 4.162 20.194 6.068 30.323.367 1.948.324 4.864 1.726 5.376 1.61.587 3.137-2.011 4.811-3.046 2.917-1.8 3.024-4.353 2.636-7.427-1.238-9.831-2.234-19.692-3.322-29.542-.02-.181 0-.368-.035-.544-2.254-10.644-2.03-21.613-4.24-32.27-.548-2.64-.427-5.413-.866-8.083a165 165 0 0 0-4.764-21.752 40.7 40.7 0 0 1-1.428-8.564c-.327-3.969-.268-7.956-.693-11.939-.483-4.517.869-6.177 5.273-7.191a51 51 0 0 0 9.246-3.108 22.4 22.4 0 0 1 8.344-2.319c7.545-.2 14.605-2.556 21.789-4.408 6.139-1.582 12.5-2.446 18.526-4.157 8.16-2.317 16.346-2.8 24.65-3.371A146 146 0 0 0 233.12.124c2.532-.483 3.34.472 3.922 2.4a52.7 52.7 0 0 1 2.226 13.389c.248 6.924 2 13.605 3 20.407.229 1.564 1.123 2.072 2.549 2.259 4.312.567 8.6 1.4 12.923 1.794 12.258 1.132 24.449 3.111 36.828 2.8a35 35 0 0 1 7.546 1 53.5 53.5 0 0 0 13.543.665 22.4 22.4 0 0 1 4.325.366c1.713.238 2.343 1.229 2.331 3.019-.064 9.738.582 19.5-1.231 29.165a6 6 0 0 0-.137 1.626c.695 7.279-.546 14.465-.978 21.692a72.6 72.6 0 0 1-1.892 14.525c-.552 2.071-.422 4.32-.652 6.483-.375 3.513-1.066 4.261-4.565 4.916a15 15 0 0 1-3.232.351c-6.883-.249-13.837.26-20.625-1.053a52 52 0 0 0-14.052-.4c-7.313.568-14.416-.6-21.576-1.642a82 82 0 0 0-10.3-.786 52 52 0 0 1-11.849-1.462c-5.5-1.379-11.155-1.187-16.754-1.593-1.8-.131-2.252.708-2.4 2.106-.842 7.925-1.562 15.864-2.549 23.77-.315 2.522.711 3.771 2.79 4.547 12.265 4.579 23.478 11.364 35.286 16.908 13.435 6.307 26.732 12.94 39.556 20.507a156 156 0 0 0 18.445 9.282c7.511 3.178 14.86 6.775 22.115 10.51a65.4 65.4 0 0 1 13.585 9.956c2.861 2.581 3.507 6.157 3.6 9.923.055 2.148-.982 4.58.319 6.391 1.33 1.851 3.979 1.429 6.029 1.912a21.78 21.78 0 0 1 14.905 11.643c1.784 3.367 3.764 6.643 4.582 10.416 1.194 5.506-.226 8.059-5.4 10.282a24.3 24.3 0 0 1-7.434 1.5c-1.973.19-3.079.551-2.6 2.915a13.6 13.6 0 0 1-.411 6.472c-.839 2.894.213 4.74 2.527 6.488a27 27 0 0 1 6.605 7.857 8.5 8.5 0 0 1 .2 8.787 14.8 14.8 0 0 1-1.701 2.783c-5.376 6.551-7.3 14.514-8.73 22.513-1.016 5.673-3.935 8.565-9.427 9.587a156 156 0 0 1-19.992 2.262c-5.789.317-11.581.517-17.371.891-5.96.381-11.965.081-17.95.081m-136.586-103.58c7.97.683 15.509-.842 23.11-1.2 12.306-.577 24.582-1.8 36.871-2.738q12.732-.974 25.465-1.923c5.777-.431 11.55-.936 17.333-1.245 8.514-.456 17.064-.45 25.546-1.218 11.191-1.012 22.339-2.4 33.6-2.566a111 111 0 0 0 13.011-1.174c1.458-.195 3.631.341 4.2-1.685.543-1.928-.709-3.442-2.078-4.733-.791-.746-1.439-1.794-2.372-2.214-4.332-1.946-7.98-5.067-12.239-7.081-13.283-6.283-26.341-13.009-39.37-19.792-10.931-5.691-22.419-10.256-33.111-16.43a38 38 0 0 0-4.486-1.968c-9.376-3.887-18.779-7.709-28.113-11.692-1.765-.753-2.552-.828-2.907 1.306-1.458 8.758-3.214 17.485-2.5 26.438a9.7 9.7 0 0 1-.023 2.65c-1.545 8.3-5.473 16.088-5.438 24.744a2.42 2.42 0 0 1-.719 1.435c-1.364 1.459-2.931 1.161-4.441.281-.849-.495-1.449-1.474-.71-2.257 2.738-2.9 2.081-6.774 2.8-10.143 1.356-6.346 2.663-12.808 2.611-19.337-.065-8.2.959-16.288 1.819-24.4.408-3.838.433-3.716-3.054-5.759-5.2-3.044-10.979-4.737-16.365-7.35-7.517-3.647-15.2-5.472-23.417-1.712-4.711 2.156-5.923 3.354-5.426 8.535.691 7.211 1.689 14.393 2.414 21.6 1.106 10.983 2.9 21.907 2.98 32.981a6.54 6.54 0 0 0 .565 3.151 2.823 2.823 0 0 1-.807 3.873 4.42 4.42 0 0 1-4.637.316c-1.381-.573-2.209-1.595-1.138-2.932a6.58 6.58 0 0 0 1.15-6.14c-2.7-9.843-2.656-20.061-4.213-30.059-.36-2.315-1.085-4.56-1.051-6.976.067-4.735-1.3-9.315-1.865-13.988-.227-1.892-1.278-1.945-2.592-1-1.18.844-2.231 1.881-3.451 2.656-2.33 1.481-2.472 3.228-1.981 5.938 1.894 10.456 4.986 20.805 3.6 31.655-.3 2.358-.152 4.783 1.783 6.557 1.358 1.244.705 2.279-.172 3.257a2.914 2.914 0 0 1-3.925.673c-1.154-.679-2.149-1.517-.987-3.025 1.261-1.637 0-3.2-.388-4.645-2.026-7.519-3.794-15.091-5.476-22.692-.555-2.508-.485-5.014-.831-7.5-.205-1.476-.964-1.933-2.131-.977a56 56 0 0 0-5.256 4.728c-2.6 2.758-5.089 5.565-8.45 7.519a23 23 0 0 0-4.471 3.95c-5.2 5.273-10.236 10.721-15.561 15.867-5.083 4.914-10.722 9.273-15.623 14.353A215 215 0 0 1 61.7 228.6a79 79 0 0 0-6.332 5.987c-2.155 2.233-1.971 2.681.676 4.509 3.687 2.546 7.69 2.676 11.975 2.2 8.115-.9 16.249-1.853 24.4-2.16 13.413-.5 26.841-.631 40.248-1.406 6.702-.387 13.409-.665 19.796-.976M18.827 280.8a6 6 0 0 0 0 .862c.2 4.375 2.009 5.866 6.192 4.9a25 25 0 0 0 5.139-1.744 38.5 38.5 0 0 1 13.1-3.4 72 72 0 0 0 7.546-1.053 34.9 34.9 0 0 1 16.675.908 57 57 0 0 1 12.875 5.793c10.286 5.886 21.214 7.44 32.573 4.188 9.754-2.792 19.481-5.69 29.057-9.118 9.063-3.244 18.369-5.781 28.239-4.563 7.4.913 14.768 1.9 21.817 4.479 9.135 3.344 18.7 4.209 28.293 4.9a3.2 3.2 0 0 0 1.575-.259c3.549-1.755 7.511-2.51 10.879-4.764a45.5 45.5 0 0 1 7.229-3.745c10.965-4.763 21.992-6.652 33.789-2.379 6.594 2.389 13.719 3.309 20.6 4.89a19.46 19.46 0 0 0 13.707-1.793 63.7 63.7 0 0 1 10.6-4.261c5.2-1.6 10.526-2.876 15.573-4.862 6.649-2.615 13.431-2.579 20.336-2.224a25.4 25.4 0 0 0 5.424-.293c6.771-1.124 8.643-5.189 5.7-10.854a54 54 0 0 0-3.92-6.522c-4.9-6.864-14.107-9.434-21.194-4.984a39.7 39.7 0 0 1-10.836 4.584c-8.366 2.314-16.807 4.394-25.489 5.165a86 86 0 0 0-11.289 1.714 34.5 34.5 0 0 1-7.509 1.193c-13.084-.027-26.108 1.147-39.163 1.659-5.424.213-10.932.613-16.263.3-4.7-.277-9.521-.772-14.051-.2a162 162 0 0 1-18.761 1.443c-9.788.1-19.563 1.063-29.353 1.324-13.6.363-27.207-.292-40.812.335-5.975.275-11.971.233-17.956.166-17.953-.2-35.9-.527-53.858-.7a65.6 65.6 0 0 1-14.555-1.485 17.29 17.29 0 0 0-19.829 9.585 22.14 22.14 0 0 0-2.08 10.815M10.339 72.52c.988 6.84 1.755 14.417 3.232 21.853 2.5 12.586 6.149 24.9 9.7 37.228a1.61 1.61 0 0 0 2.44 1.212c2.512-1 4.943-2.322 7.714-2.5 9.291-.606 18.092-3.675 26.965-6 7.634-2 15.241-4.451 22.77-6.988a40.8 40.8 0 0 1 7.272-2.163c8.089-1.107 15.622-4.494 23.7-5.586a19 19 0 0 0 2.078-.634c1.624-.419 1.8-1.431 1.38-2.883-1.922-6.583-3.477-13.293-5.752-19.75a190.6 190.6 0 0 1-8.928-34.442c-.549-3.568-.685-3.867-4-3.156-6.868 1.47-13.7 3.122-20.527 4.766s-13.624 3.466-20.472 5.038c-7.214 1.655-14.727 1.945-21.673 4.863a15.3 15.3 0 0 1-3.746.522c-5.739.8-11.5 1.492-17.21 2.459-4.47.759-4.834 1.351-4.943 6.161m132.2 170.164c-7.986.057-15.969.551-23.945.593-21.971.115-43.877 1.686-65.815 2.508a29 29 0 0 0-4.876.426c-2.162.457-4.379 1.352-5.066 3.606-.8 2.638 1.432 4.309 2.863 6.114a2.98 2.98 0 0 0 1.92.811 50 50 0 0 0 8.679.508 74.7 74.7 0 0 1 13.583.311 28.8 28.8 0 0 0 5.965.365c5.821-.69 11.575.038 17.352.4 11.429.725 22.914 1.4 34.3.238 11.8-1.2 23.592-.639 35.37-.868 9.972-.194 19.883-1.206 29.863-1.3 11.764-.111 23.515-1.417 35.277-2.129 4.871-.295 9.763-.682 14.628-.514 7.479.258 14.8-1.152 22.191-1.7a169 169 0 0 0 24.2-3.155 266 266 0 0 1 34.385-5.115 27.5 27.5 0 0 0 10.934-2.961c1.846-1.017 3.838-2.468 3.634-4.979-.171-2.116-1.747-3.561-3.476-4.641-1.493-.934-3.188-.587-4.779-.227a67 67 0 0 1-11.358 1.2c-5.246.276-10.5-.06-15.755.49-12.621 1.319-25.2 3-37.91 3.567-14.658.659-29.267 2.49-43.927 3.037-10.871.405-21.651 1.808-32.537 2.023-15.239.302-30.427 2.167-45.701 1.392Zm85.384 56.659v-.583c8.892 0 17.785.024 26.677-.007 7.793-.027 15.608.645 23.367-.518 3.749-.563 7.447-1.9 11.19-1.992 14.115-.348 28.105-2.754 42.234-2.5 4.734.084 9.419-.275 14.119-.558 3.075-.185 4.1-.825 4.379-3.726.4-4.1 1.219-8.095.7-12.381-1.05-8.74-1.857-8.175-10.1-6.647a11.3 11.3 0 0 0-2.6.784C328 275.7 317.654 279.121 308 284.19c-3.732 1.961-7.936 3.1-12.115 2-8.757-2.3-17.771-3.635-26.23-7.112-4.367-1.8-8.963-3.112-13.8-2.4a45.3 45.3 0 0 0-20.1 7.84c-8.154 5.907-16.966 7.812-26.695 6.593a69.6 69.6 0 0 1-15.3-3.619c-6.814-2.492-13.669-4.865-20.845-6.118-6.279-1.1-12.564-1.947-18.829.112a139 139 0 0 0-14.309 5.156 169 169 0 0 1-23.262 9.077c-11.406 3.269-22.534 3.305-33.3-2.168-3.552-1.806-6.88-4.046-10.387-5.947-6.724-3.645-13.825-5.388-21.492-3.827-6.14 1.25-8.518 4.1-8.733 10.442-.181 5.353-.021 5.5 5.194 5.19a53 53 0 0 1 3.812-.078q25.586.321 51.171.664c7.794.107 15.6.577 23.379.315 11.422-.383 22.832-1.225 34.267-.876 5.8.177 11.588.724 17.4.479 4.711-.2 9.422-.521 14.134-.552 11.993-.071 23.978-.018 35.962-.018Zm76.1 33.51c.908 0 1.82-.061 2.722.009 11.652.9 23.169-.449 34.692-1.923a6.19 6.19 0 0 0 5.413-3.868 28 28 0 0 0 1.473-4.071c1.03-4.02-.337-5.546-4.351-4.8-3.381.629-6.7 1.581-10.094 2.139-13.8 2.27-27.735 3.164-41.673 3.966a100.6 100.6 0 0 1-21.187-.871c-6.312-.977-12.522-2.346-17.807-6.185-1.754-1.274-3.09-.891-4.871-.143-10.386 4.366-21 7.925-32.358 8.809-6.141.478-12.347.5-18.415 1.189a147.5 147.5 0 0 1-26.588.11c-8.018-.533-15.692-2.977-23.342-5.154a17.98 17.98 0 0 0-12.616.851 53.9 53.9 0 0 1-18.521 3.946c-21.461 1.047-42.7-1.364-63.911-4.179-4.152-.551-6.81 1.533-7.637 5.128-1.1 4.8 1.355 8.458 6.787 9.059 8.816.977 17.543 2.832 26.468 2.826a15 15 0 0 1 3.753.481 51.1 51.1 0 0 0 14.56 1.491c4.533-.141 9.063-.369 13.592-.587 15.581-.746 31.167-1.4 46.739-2.289 16.308-.932 32.613-1.732 48.954-1.689 19.025.051 38.042 1.065 57.027-1.847 13.598-2.082 27.422-2.273 41.192-2.398ZM224.411 88.914c5.732.886 10.694-1.2 15.808-2.276 1.547-.325 2.262-1.294 1.9-2.733-1.842-7.4-.885-15.184-3.2-22.518a35.3 35.3 0 0 1-1.1-8.037c-.465-6.148-.864-12.332-1.911-18.4-1.262-7.308-3.588-14.461-2.123-22.019a4.3 4.3 0 0 0-.054-1.085c-.082-1.1-.761-1.536-1.78-1.619-4.147-.338-8.272-.651-12.38.515-4.35 1.234-8.618 2.777-13.139 3.393-2.2.3-3.4 1.329-3.321 3.986.253 8.866.358 17.765 2.641 26.377 1.73 6.527 2.442 13.165 3.278 19.808.969 7.7 1.863 15.4 2.843 23.1.4 3.15.48 3.22 3.7 2.5 3.032-.67 6.042-1.306 8.838-.992M201.3 54.478c-.331-12.2-3.117-23.462-5.508-34.8-.552-2.622-1.767-2.894-4.111-2.878-6.629.047-12.847 2.031-19.176 3.541-3.552.848-3.626.847-3.541 4.627a84 84 0 0 0 .567 10.3c1.225 8.348 1.445 16.817 3.706 25.058 1.181 4.3 2.484 8.727 2.394 13.329-.144 7.3 2.254 14.279 2.74 21.509.128 1.91 1.345 2.558 3.471 2.068 6.35-1.464 12.749-2.73 19.153-3.949 4.555-.867 4.9-1.216 3.9-5.59-.852-3.7-2.526-7.278-2.53-11.094-.008-7.572-1.765-15.065-1.065-22.121m-28.761 40.475c-.263-7.048-1.781-13.056-2.462-19.165-.7-6.31-1.418-12.579-3.815-18.536a10.8 10.8 0 0 1-.218-2.68c-1.171-10.072-2.369-20.141-3.517-30.216-.149-1.305-.664-1.958-2.027-1.915-5.261.163-10.565.251-15.48 2.379-2.787 1.207-6.919 1.1-8.077 3.819-1.165 2.735-.134 6.346.373 9.556 1.666 10.541 3.266 21.093 4.893 31.64a15.6 15.6 0 0 1 .41 2.654c-.216 8.905 2.034 17.5 3.33 26.209.529 3.559 1.673 4.342 5.086 3.875 6.636-.906 13.228-2.133 19.842-3.2 1.554-.251 2.216-1.083 1.97-2.629-.141-.886-.304-1.768-.308-1.791M260.1 46.164c-3.983-.211-4.805.081-4.638 2.85.307 5.059-1.791 9.6-2.5 14.415-.309 2.094-.772 3.865-3.483 4.013-1.729.1-1.07 1.572-.864 2.526 1.184 5.472 1.422 11.11 3.169 16.5 1.074 3.312.589 4.735-2.152 5.8-3.176 1.234-4.221 3.063-3.41 6.281.2.818-.215 1.776-.242 2.673-.133 4.428-1.575 8.534-3.053 12.632-.461 1.276-.209 2.079 1.3 2.213a47 47 0 0 0 5.953.547c2.9-.111 6.514 1.965 8.4.077 1.656-1.656 1.364-5.322 1.8-8.121.723-4.631.553-9.353 2.313-13.883 2.038-5.25 2-5.112 7.761-5.023 8.2.127 16.078 2.559 24.234 2.9a53.2 53.2 0 0 1 12.9 1.638 10.1 10.1 0 0 0 5.915-.386c1.357-.45 2.2-1.187 2.13-2.7-.119-2.539-.233-5.079-.361-7.617-.316-6.28-.36-5.1-5.452-5.519-5.578-.457-11.164-1.019-16.686-1.911-6.8-1.1-13.5-2.716-20.473-2.4a12 12 0 0 1-4.254-.791c-2.635-.9-2.9-1.565-2.362-4.393 1.089-5.674 2.258-11.335 3.2-17.033.563-3.4.36-3.3-2.851-4.324a35 35 0 0 0-6.294-.964m-55.7 52.415a44 44 0 0 0-6.007.97c-8.913 2.526-18.167 3.286-27.209 5.168-6.356 1.324-12.686 2.822-19.025 4.244-4.476 1-4.519 1.187-3.941 5.418a113 113 0 0 0 1.8 11.792c.714 2.892.183 5.757.658 8.609.343 2.059 1.229 2.513 2.906 1.464 3.631-2.27 7.857-2.735 11.807-4.037a13.4 13.4 0 0 1 8.033-.012c7.364 2.054 14.536 4.545 20.866 9.019a60 60 0 0 0 5.591 3.371c1.259.7 2 .232 2.191-1.226.647-4.834 1.041-9.728 2.079-14.479 1.361-6.232.922-12.648 2.351-18.847.611-2.651 1.256-5.3 1.741-7.975.571-3.136.142-3.589-3.841-3.479m88.939 21.668a119 119 0 0 1 15.177.416c2 .131 3.107-.441 3.869-2.687a48.1 48.1 0 0 0 2.1-14.43c.056-2.1-.185-3-2.8-3.333-8.429-1.072-16.762-2.933-25.341-2.534a10 10 0 0 1-2.145-.256c-4.444-.789-8.9-1.513-13.319-2.428-2.1-.435-3.019.187-3.258 2.3a114 114 0 0 1-3.381 16.436c-1.058 3.986-.112 5.056 4.224 5.53 8.27.904 16.528 2.033 24.876.986ZM187.275 324.3a215 215 0 0 0 35.785-3.441 57.2 57.2 0 0 0 21.957-8.947c2.627-1.719 4.694-6.5 3.39-7.716-.442-.413-1.329-.362-2.018-.494-2.451-.469-3.9 1.009-5.593 2.5-5.95 5.238-12.833 8.093-20.927 7.081-5.917-.74-11.9-1.115-17.673-2.743a3.24 3.24 0 0 0-3.728 1.036q-7.975 7.872-16.152.287c-1.454-1.351-2.382-1.4-3.465-.02-2.54 3.242-6.027 4.6-9.933 4.932a48 48 0 0 1-11.927-.474c-4.952-.829-9.529-2.19-11.477-7.7-.815-2.306-2.9-2.963-5.313-2.773-2.6.2-3.1.886-2.217 3.466 1.356 3.956 4.484 6.1 8.106 7.5 13.81 5.36 27.898 9.306 41.185 7.506m85.013-262.735-.1-.009c-.195 1.432-.377 2.867-.591 4.3-.146.972-.073 1.846 1.062 2.118 4.908 1.179 9.769 2.729 14.747 3.393 7.64 1.021 15.476-.043 23.069 1.877a11.5 11.5 0 0 0 2.153.3c2.663.153 3.18-.222 3.413-2.892a32.5 32.5 0 0 0-.133-4.329c-.145-3.06-.426-6.095.205-9.17.911-4.437.581-4.921-3.769-4.656-5.69.345-11.123-.78-16.633-1.9-6.191-1.265-12.474-2.111-18.741-2.963-2.895-.393-3.446.246-3.714 3.178q-.491 5.369-.968 10.753m16.558 259.572c18.15-.094 34.239-2.849 50.308-5.679a39.6 39.6 0 0 0 14.646-5.6 13.08 13.08 0 0 0 6.5-10.724c.171-3.056-1.415-5.151-3.53-6.981a2.14 2.14 0 0 0-1.4-.176c-.766 2.689-4.323 3.277-4.908 5.343-1.009 3.563-3.653 5.791-5.4 8.692-2.4 3.973-5.819 6.121-10.865 5.588-5.6-.592-11.173-1.268-16.722-2.167a3.464 3.464 0 0 0-4.011 1.641c-2.466 3.409-7.854 4.5-10.511 1.542-3.625-4.039-6.463-2.408-9.786-.311-.765.483-1.6.852-2.385 1.3-4.571 2.638-9.316 2.7-14.156.908-1.866-.692-3.615-1.806-5.528-2.24-4.57-1.036-7.981-3.436-9.891-7.715a2.59 2.59 0 0 0-2.9-1.775 3.29 3.29 0 0 0-3.349 2.217c-1.53 3.794.865 8.322 5.546 10.29 9.627 4.046 19.473 6.935 28.342 5.847m-184.856 1.112c2.891 0 6.7.083 10.505-.018a77.1 77.1 0 0 0 20.873-3.13c2.206-.681 2.167-1.651.955-2.958a17.25 17.25 0 0 1-3.866-8.236 2.684 2.684 0 0 0-4.508-1.237 13 13 0 0 0-1.5 2.253c-5.255 7.649-8.1 8.8-15.759 7.023a41.1 41.1 0 0 0-12.373-1.432 11.1 11.1 0 0 1-7.558-2.593 43 43 0 0 1-3.911-2.9c-1.667-1.607-3.114-1.437-4.657.05-4.522 4.359-10.08 6.062-16.206 6.439-1.949.12-15.862-1.071-17.69-1.757-.34-.127-.68-.252-1.017-.386a16.92 16.92 0 0 1-8.978-8.277c-.739-1.425-1.488-1.326-2.146.108-1.979 4.319-.52 7.782 4.514 9.035 2.841.707 5.421 1.921 8.159 2.778 3.62 1.134 7.131 2.573 10.942 3.135a204.4 204.4 0 0 0 44.221 2.103M231.82 115.3c5.567.287 5.675.3 6.155-5.082a78.4 78.4 0 0 1 1.994-13.347c.439-1.647-.094-2.526-1.856-2.188a133 133 0 0 1-18.349 1.9c-2.155.11-3.106 1.148-3.714 3.193-.9 3.011-.911 6.07-1.231 9.126-.26 2.481.649 3.726 3.106 4.1 4.641.704 9.264 1.523 13.895 2.298M63.457 313.538a7.06 7.06 0 0 0 4-1.02 85 85 0 0 0 7.757-5.894c.894-.776.148-1.684-.988-1.717-2.716-.079-5.437-.02-8.154-.092-5.964-.16-11.952.766-17.89-.341-.866-.161-1.96-.975-2.495-.242-.482.661.4 1.649.962 2.333 1.264 1.527 2.33 3.869 3.929 4.338 3.781 1.108 7.533 2.707 12.879 2.635m269.071-7.82a22 22 0 0 1 2.172.154c4.772.7 7.9-1.814 10.563-5.3.589-.77 1.043-1.631.6-2.464-.43-.808-1.274-.163-1.947-.083-2.337.279-4.755 1.038-7 .693-5.913-.908-11.479.548-17.091 1.822-1.87.425-5.252.511-5.184 1.874.129 2.613 3.381 2.478 5.5 3.2 3.948 1.354 7.901.186 12.387.104m-60.75-2.991c-1.012.307-3.777-1-4.272.522-.621 1.913 1.454 3.85 2.8 5.515a5.2 5.2 0 0 0 1.842 1.125 22.4 22.4 0 0 0 9.413 2.4c4.469.023 8.545-1.5 11.3-5.369.732-1.031.835-2.023-.91-2.144-6.519-.45-12.92-1.957-20.173-2.049M163.885 306v-.125h-9.75c-1.385 0-2.6.4-2.71 1.981a2.854 2.854 0 0 0 1.872 3 11 11 0 0 0 2.631.6c2.863.355 5.755.519 8.594 1 4.33.736 7.206-1.468 9.813-4.425.364-.413.717-.789.59-1.372-.157-.723-.8-.639-1.292-.643-3.25-.034-6.499-.016-9.748-.016m-63.764-.924v-.22c-2.712 0-5.424-.034-8.135.02-.825.016-1.959-.421-2.383.593-.436 1.042.632 1.665 1.291 2.108 1.34.9 2.772 1.991 4.289 2.233 4.265.68 8.562 1.444 12.922 1.018a5.8 5.8 0 0 0 2.595-.677 19.5 19.5 0 0 1 7-2.69c.476-.1 1.189-.37 1.009-1.014-.077-.275-.82-.491-1.272-.515-5.77-.313-11.543-.582-17.316-.86Zm115.066-.172c-3.07 0-6.142-.041-9.211.025-.922.02-1.308.837-.64 1.427 2.307 2.04 4.761 4.057 8.088 3.774a117 117 0 0 0 12.389-1.271 13.4 13.4 0 0 0 6.643-3.38 7 7 0 0 0 .9-1.268 5 5 0 0 0-1.415-.271 116 116 0 0 1-16.754.96ZM250.88 50.623c.044-4.471.043-4.465-4-5.462-.342-.085-.636-.352-.976-.46-1.568-.5-2.012.246-1.56 1.6a39 39 0 0 1 1.473 10.128 29.6 29.6 0 0 0 1.139 5.264.808.808 0 0 0 1.509.074c.877-3.83 2.864-7.436 2.415-11.144m-60.957 254.93v.164a14 14 0 0 0-2.14.154c-1.3.291-3.275-.771-3.792.833-.459 1.426 1.309 2.376 2.381 3.238 3.46 2.784 7.19 1.982 9.438-1.965.7-1.228.19-2.2-1.078-2.374a37 37 0 0 0-4.809-.05m115.784-2.053c-2.859 0-3.986 1.488-3 4.084a7 7 0 0 0 1.4 2.27c1.287 1.351 5.008.852 5.671-.677.989-2.277-1.448-5.677-4.071-5.677M231.458 192c1.19 0 1.372-.006 1.553 0 2.153.091 4.915-.275 5.508 2.327.635 2.784-2.257 3.359-4.147 4.165-3.29 1.4-6.482 3.335-10.369 2.455-1.47-.333-2.962-.509-3.362-2.224a3.746 3.746 0 0 1 1.956-4.138 18.7 18.7 0 0 1 8.861-2.585m2.742 2.6c-.128-.142-.262-.4-.363-.386a19.5 19.5 0 0 0-5.963 1.942c-.388.186-.441.711-.14.761 1.632.265 3.055-.591 4.563-1a6 6 0 0 0 1.482-.541c.228-.128.298-.531.421-.776m-133.406 24.2c-2.533-.153-4.778.087-5.392-1.927-.584-1.913 1.6-2.667 2.877-3.422 4.081-2.418 8.35-4.195 13.274-2.481 1.094.381 2.05.7 2.212 1.979a2.44 2.44 0 0 1-1.273 2.723 8.7 8.7 0 0 1-1.894 1.01c-3.493.802-7.007 1.518-9.804 2.118m7.887-4.674c.259-.933-.56-.74-.925-.774-3.034-.282-5.489 1.271-7.973 2.66-.385.216-.564.8-.838 1.216a4.8 4.8 0 0 0 1.553.267 23.5 23.5 0 0 0 7.559-2.542c.276-.159.42-.553.624-.831Zm72.618-44.25a8.5 8.5 0 0 1-.551 1.516c-1.84 3.073-7.643 4.387-10.59 2.418-1.6-1.07-2.016-2.384-.975-4.127 1.754-2.937 7.793-4.442 10.614-2.569a3.56 3.56 0 0 1 1.503 2.758Zm-4.449-1.086a2.12 2.12 0 0 0-1.814 1.544 1.9 1.9 0 0 0 .846.391c.908 0 1.714-.284 1.73-1.381.003-.182-.488-.368-.762-.558Zm99.86 48.671a5.68 5.68 0 0 0 4.413-3.551 3.09 3.09 0 0 0-1.617-4.032c-1.7-.736-4.645.268-5.693 1.927-.349.553-.135.9.222 1.385.195.263 2.433.017.5.906-1.911.878-4.149 1.026-6.216 1.6a1.77 1.77 0 0 0-1.083 1.049c-.14.545.465.848.973.951 1.042.211 2.1.365 2.443.424 2.499-.267 4.3-.346 6.058-.663Zm-96.978 7.086c.034-1.035-.822-1.509-1.861-1.386-.969.114-1.855.654-1.826 1.611a1.55 1.55 0 0 0 1.62 1.472c1.344-.097 2.035-.807 2.067-1.701Zm-47.5 49.867c.681-.029 1.638-.3 1.9.432.42 1.166-.762 1.523-1.509 1.869a42.5 42.5 0 0 1-15.118 4.066c-1.263.086-2.529.16-3.782.328-.248.033-.443.469-.663.719.27.17.565.519.807.485 5.2-.716 10.522-.118 15.658-1.475a11.5 11.5 0 0 0 7.846-6.138c.906-1.861.265-3.318-1.743-3.709-5.143-1-10.249-2.156-15.617-1.116a81 81 0 0 1-15.029 1.86 87 87 0 0 1-12.466-.411c-2.813-.395-5.781.141-8.659.451-1.663.179-3.3.934-3.756 2.7-.519 2.032.765 3.429 2.37 4.467a7 7 0 0 0 1.978.866 73.3 73.3 0 0 0 23.2 2.035c.412-.024 1.035.074.976-.612-.012-.137-.619-.305-.957-.319-4.165-.173-8.333-.261-12.494-.5a18.46 18.46 0 0 1-8.318-2.226 2.48 2.48 0 0 1-1.211-1.682c.016-1.277 1.223-1.038 2.045-1.041 7.608-.027 15.216-.016 21.053-.016 9.01-.399 16.249-.722 23.489-1.037Zm166.037-1.541c-.885 0-3.059.092-5.219-.036a11.7 11.7 0 0 1-3.679-.8c-3.742-1.531-4.337-4.437-1.339-7.08a15.93 15.93 0 0 1 10.86-4.215 50.3 50.3 0 0 0 14.486-1.486 9.17 9.17 0 0 1 7.779 1.449c2.647 1.837 2.548 4.132-.251 5.851a65 65 0 0 1-12.215 5.78c-3.034 1.077-6.091.337-10.422.533Zm14.586-8.092c-6.744-.02-12.412 1.331-18.161 2.008a9.5 9.5 0 0 0-2.541.807c-.65.275-1.447.616-1.488 1.417-.058 1.145 1.055 1.458 1.8 1.595 7.035 1.281 14.019 1.826 20.5-2.176 1.595-.984 4.491-1.4 3.992-3.519-.282-1.227-3.263-.031-4.102-.136Zm-87.277 3.833a16.4 16.4 0 0 1 6.827 0c1.378.277 3.092.211 3.232 2.192a4.72 4.72 0 0 1-1.637 4.382 1.4 1.4 0 0 1-.475.256c-6.908 1.914-13.595 5.224-21.084 3.608a35.5 35.5 0 0 0-8.115-.341 12.96 12.96 0 0 1-6.755-1.689 1.875 1.875 0 0 1 .124-3.443 6.7 6.7 0 0 1 2.051-.674c4.467-.721 9.022-1.077 13.39-2.178 4.236-1.066 8.421-2.091 12.442-2.117Zm-9.429 9.047.011-.132c1.086 0 2.177.067 3.258-.012a26.8 26.8 0 0 0 10.342-3c.475-.243.878-.621.634-1.162-.087-.193-.654-.259-.99-.232-1.079.089-2.162.195-3.226.391-4.965.914-9.878 2.123-14.992 2.042-1.739-.028-3.6-.563-5.23.576 1.235 2.032 3.206.665 4.807.993a49 49 0 0 0 5.386.532ZM44.251 93.187c.676-2.944 1.506-7.009 2.578-11.01a10.8 10.8 0 0 1 2.139-4.349c3.815-4.258 9.3-4.445 14.388-5.071 3.937-.485 6.634 2.24 8.777 5.368 5.306 7.743 5.177 15.126-.214 24.287-2.6 4.418-5.929 8.19-11.467 9.147a7.85 7.85 0 0 1-7.018-1.614c-3.993-3.282-7.615-6.629-8.9-11.908a12.8 12.8 0 0 1-.283-4.85m25.515-6.507a8.8 8.8 0 0 0-.707-4.039c-2.4-5.457-8.227-7.189-14.162-4.352a6.7 6.7 0 0 0-4.008 6.99 39.7 39.7 0 0 0 1.889 8.926 14.3 14.3 0 0 0 3.9 6.4c2.927 2.671 5.858 2.5 8.286-.7C68 95.9 68.931 91.116 69.766 86.68" data-name="Untitled_Artwork 14 Image"/></g></svg>