<svg xmlns="http://www.w3.org/2000/svg" data-name="Layer 1" viewBox="0 0 75 75"><path d="M39.693 12.79h1.872a20.1 20.1 0 0 1 6.623.69 26.5 26.5 0 0 0 3.592.756 15 15 0 0 1 3.507 1.126 27.4 27.4 0 0 1 4.968 2.661 46 46 0 0 0 4.216 2.554 15.7 15.7 0 0 1 3.828 3.36 20 20 0 0 1 1.293 1.678 4.2 4.2 0 0 1 .532 1.107 1.41 1.41 0 0 1-.37 1.616 1.51 1.51 0 0 1-1.79.251 4.6 4.6 0 0 1-1.391-1.069c-.786-.8-1.562-1.605-2.356-2.4a5.2 5.2 0 0 0-1.537-1.169 36 36 0 0 1-4.095-2.424 39 39 0 0 0-5.138-2.7 13 13 0 0 0-1.351-.378 69 69 0 0 0-7-1.629 9.6 9.6 0 0 0-1.763-.1c-2.713-.009-5.425-.02-8.137.007a6.7 6.7 0 0 0-2.614.291 1.5 1.5 0 0 1-.525.05 35 35 0 0 0-5.867 1.035 14.4 14.4 0 0 0-3.619 1.344c-1.671.862-3.4 1.583-5.138 2.3a32.3 32.3 0 0 0-7.723 4.177 19.1 19.1 0 0 0-3.994 3.684c-.4.551-.91.743-1.17.524a1.11 1.11 0 0 1-.227-1.307 12.3 12.3 0 0 1 1.149-2.372 24 24 0 0 1 1.86-2.348 14.4 14.4 0 0 1 3.836-3.077 67 67 0 0 1 7.073-3.56 12 12 0 0 0 1.75-.831 22.1 22.1 0 0 1 7.394-2.695c1.655-.362 3.335-.6 5.02-.834a67 67 0 0 1 7.292-.318m-7.854 14.875a19.2 19.2 0 0 0-4.1.95c-1.825.644-3.587 1.467-5.365 2.238A12.75 12.75 0 0 0 16.994 35a20.5 20.5 0 0 0-1.645 2.716 2 2 0 0 0-.143 1.207.64.64 0 0 0 .954.423 4 4 0 0 0 .551-.436c.552-.533 1.076-1.1 1.643-1.613a17.2 17.2 0 0 1 4.72-3.364c1.3-.55 2.621-1.032 3.921-1.574a18.2 18.2 0 0 1 7.367-1.477 10 10 0 0 0 1.4-.109 14.7 14.7 0 0 1 3.825-.056 37.5 37.5 0 0 1 7.513 1.639 23.25 23.25 0 0 1 8.828 5.356 6 6 0 0 0 .628.622 5.3 5.3 0 0 0 1.05.635 1.29 1.29 0 0 0 1.462-.321 1.215 1.215 0 0 0 .3-1.429 3.9 3.9 0 0 0-1.126-1.755q-1.042-.939-2.111-1.848a24 24 0 0 0-5.691-3.5c-4.052-1.838-6.778-2.79-13.515-2.79a31 31 0 0 0-5.086.339M33.8 39.77c-.622.168-1.209.487-1.837.6a8.53 8.53 0 0 0-4.9 2.929 46 46 0 0 0-1.683 2.039 13.8 13.8 0 0 0-1.971 4.49 2.7 2.7 0 0 0-.032 1.054 1.6 1.6 0 0 0 .237.649.7.7 0 0 0 1.262.05c.131-.2.228-.412.341-.618a35 35 0 0 1 2.512-3.833 10.9 10.9 0 0 1 2.6-2.633 12.25 12.25 0 0 1 5.456-1.841 25 25 0 0 1 3.183-.066 5.5 5.5 0 0 1 1.4.155c.96.261 1.906.574 2.849.893a11.1 11.1 0 0 1 4.5 3 11.6 11.6 0 0 1 1.215 1.728 1.45 1.45 0 0 0 1.531.64 1.1 1.1 0 0 0 .927-1.278 3.3 3.3 0 0 0-.222-.666 9.8 9.8 0 0 0-1.823-2.8A13.4 13.4 0 0 0 44.3 40.8c-2.149-.811-4.294-1.622-6.634-1.367a11.4 11.4 0 0 0-3.866.337m1.825 13.087a3.17 3.17 0 0 0-2.121.714 2.61 2.61 0 0 0-1.091 1.735 10 10 0 0 1-.395 1.159 22 22 0 0 0-.754 2.694 5.2 5.2 0 0 0 .58 3.909 6.24 6.24 0 0 0 2.783 2.588 5.17 5.17 0 0 0 5.438-.91 7.45 7.45 0 0 0 2.562-4.855 4.7 4.7 0 0 0-.833-3.961c-1.448-1.771-3.161-3.157-5.64-3.072-.178 0-.354.009-.53-.001Zm-1.6 4.325a2.43 2.43 0 0 1 2.748-1.337A5.8 5.8 0 0 1 38.914 57a2.04 2.04 0 0 1 .8 1.685 5.42 5.42 0 0 1-2.023 4.122 2.11 2.11 0 0 1-2.019.213 3.23 3.23 0 0 1-1.787-1.357A1.3 1.3 0 0 1 33.7 61c-.027-.468-.009-.939-.009-1.409a5.5 5.5 0 0 1 .329-2.409Z"/></svg>