<svg xmlns="http://www.w3.org/2000/svg" xml:space="preserve" viewBox="0 0 445.587 600.646"><path d="M124.6 352.285c.768-.377 1.774-.57 2.612-.448 2.361.345 4.558 1.189 6.173 3.071 1.059 1.234 2.14 2.47 3.039 3.82 3.42 5.138 2.164 11.095-2.996 14.548-2.279 1.525-2.731 2.499-1.751 4.309.294.543 1.078 1.21 1.592 1.174 1.596-.112 3.187-.469 4.745-.868.676-.173 1.239-.743 1.9-1.023 1.53-.65 2.681-.405 3.386.636.709 1.046.592 2.039-.515 3.44-1.829 2.316-3.936 4.219-7.002 4.766-1.597.285-3.163.745-3.896.921-2.688.256-4.099-.587-5.029-2.001-3.224-4.906-2.893-11.842 2.693-15.17a6.2 6.2 0 0 1 1.499-.612c2.604-.717 2.856-3.063 1.817-5.278-.53-1.13-1.313-2.178-2.152-3.11-.434-.482-1.268-.915-1.872-.858-.856.081-.877.939-.688 1.689.396 1.573-.605 2.33-1.785 2.906-1.097.536-2.104.209-3.002-.549-3.718-3.141-3.088-9.245 1.232-11.363m-14.113 101.983c-1.785-.673-3.656-.516-5.033.911-.973 1.008-1.885 2.239-2.342 3.54-.65 1.851-.956 3.843-1.225 5.8-.234 1.704.459 3.162 1.711 4.364 3.02 2.9 7.461 2.127 9.634-.468 1.547-1.848 2.422-4.002 2.232-6.187.116-3.151-2.252-6.933-4.977-7.96m9.079-60.438c4.265-5.07 3.795-11.475-1.074-15.938-2.904-2.662-6.379-3.192-10.094-2.909-1.617.124-3.225.377-4.837.571l-.018-.29c-1.266 0-2.533.005-3.799-.006-.174-.001-.349-.084-.521-.136-1.154-.344-2.247-1.922-2.347-3.385-.075-1.096.679-2.205 2.251-2.548.814-.177 1.359-.239 1.28-1.113-.27-2.978-2.955-4.925-5.702-4.186-4.326 1.164-6.952 5.523-6.324 9.998.606 4.322 3.394 7.065 6.398 9.736 1.294 1.151 2.761 1.64 4.503 1.326 3.017-.544 6.043-1.045 9.067-1.552 1.417-.238 2.832-.566 4.259-.64 1.59-.083 2.248.65 2.505 2.205.585 3.536-.376 6.326-3.461 8.435-1.704 1.165-1.4 2.925.356 3.799 1.799.896 3.487.72 4.968-.602.939-.838 1.777-1.799 2.59-2.765m45.248 89.983c-1.481-2.321-2.984-2.887-5.531-2.044-2.086.69-3.994 1.696-5.478 3.388-1.675 1.909-3.486 3.709-5.038 5.712-1.662 2.144-3.845 3.135-6.37 3.823-4.028 1.097-8.033.474-11.82-.559-3.088-.843-5.93-2.761-7.574-5.834-.122-.229.03-.634.127-.934.033-.103.307-.216.438-.184.523.127 1.023.384 1.55.454 1.018.135 1.687-.414 2.169-1.271.535-.952.194-1.746-.43-2.468-.738-.854-1.651-1.489-2.825-1.375-2.462.238-4.502 1.089-5.541 3.634-1.445 3.538-1.193 6.739 1.674 9.424 1.849 1.732 3.927 3.22 5.78 4.948 2.849 2.658 6.328 3.318 10.014 3.465 3.653.018 7.164-.777 11.032-2.553 3.478-1.597 5.795-4.811 9.138-6.625.553-.3.914-1.143 1.144-1.811.816-2.365 2.329-3.569 4.903-3.301.53.055 1.094-.022 1.619-.14 1.739-.391 2.615-2.065 1.976-3.804a10 10 0 0 0-.957-1.945m19.335-56.294c.32-3.053.533-5.209.78-7.362.061-.532.139-1.096.366-1.569 1.992-4.152 5.741-4.833 8.951-2.602 1.881 1.307 3.447 3.192 4.807 5.069.663.915.654 2.398.737 3.638.312 4.657-3.702 9.561-7.43 11.028-1.868.735-3.44.491-4.972-.889-2.474-2.232-3.644-4.872-3.239-7.313m4.353-1.246c.045.546.737 1.039 1.15 1.555l1.62-1.485-1.671-1.499c-.395.478-1.136.986-1.099 1.429M54.658 249.84c-3.176-3.303-2.593-7.256 1.313-9.474.923-.524 2.058-.663 3.077-1.033 3.228-1.171 6.476-2.296 9.663-3.57 4.059-1.623 7.714-3.766 10.742-7.118 3.05-3.375 7.342-5.222 11.189-7.56 2.769-1.683 5.682-.805 7.658 1.823a36.5 36.5 0 0 1 4.978 8.977c1.286 3.367 2.837 6.633 4.232 9.96.344.821.605 1.695.764 2.569.091.5.1 1.264-.197 1.544-1.54 1.452-3.036 3.071-4.856 4.068-1.317.721-3.109.619-4.7.787-8.233.87-16.47 1.704-24.704 2.563-1.978.207-3.951.462-5.809.68-3.881-.546-7.652-1.053-11.124-2.719-.801-.383-1.618-.865-2.226-1.497m22.824-9.217c1.372 1.796 3.254.513 4.879.779.693.114 1.434-.061 2.96-.153-.09 0 .632.041 1.349-.006 7.289-.481 7.051.463 4.409-6.913-.698-1.95-1.98-2.288-3.778-1.033-2.067 1.442-4.133 2.897-6.081 4.491-1.215.994-3.15 1.036-3.738 2.835m-41.051 314.95c.246-.349.346-1.067.151-1.415-.702-1.255-1.419-2.558-2.403-3.581-.7-.727-1.837-1.032-2.659-1.462-1.067.333-1.953.54-2.784.882-4.702 1.941-9.071 4.398-12.994 7.71-4.413 3.725-8.021 8.39-13.147 11.282-.3.169-.495.522-.749.779-2.509 2.549-2.437 5.745.077 8.477.838.911 1.749 1.34 2.866.949 2.377-.831 4.839-1.544 7.047-2.717 8.716-4.63 15.564-11.586 22.468-18.449.767-.76 1.505-1.573 2.127-2.455M175.39 454.498c.281-.723.143-1.917-.299-2.557-1.848-2.678-3.62-5.492-5.909-7.761-3.597-3.565-7.53-6.804-11.442-10.033-1.627-1.343-2.155-2.667-1.535-4.716.625-2.065.893-4.238 1.317-6.363-.14-2.263-.539-4.296-1.692-6.286a44.4 44.4 0 0 0-7.3-9.444c-2.042-2.008-4.534-3.578-6.908-5.224-2.531-1.756-5.453-1.809-8.384-1.543-1.688.153-3.104.906-4.289 2.14-2.438 2.539-4.205 5.384-4.862 8.934-.733 3.961-.569 7.923-.615 11.911-.05 4.414 1.199 8.232 4.015 11.541a76 76 0 0 0 5.191 5.518c.814.782 1.517 1.486 1.691 2.653.428 2.869.858 5.74 1.39 8.591.965 5.165 1.047 10.48 2.654 15.536a19.6 19.6 0 0 0 2.907 5.741c2.287 3.141 4.926 3.902 8.474 2.833 5.13-1.546 9.578-4.3 13.536-7.785 3.389-2.984 6.576-6.212 9.682-9.494 1.08-1.14 1.8-2.704 2.378-4.192M41.091 564.006c-1.391 1.877-2.745 3.757-3.642 5.983-1.281 3.181-2.65 6.37-4.394 9.31-1.744 2.939-2.008 6.152-2.673 9.844.159.731.379 1.955.695 3.153.843 3.198 2.849 4.014 5.562 2.292.305-.193.61-.409.854-.671 2.814-3.031 5.885-5.871 7.418-9.866 1.49-3.881 2.742-7.878 4.544-11.609 1.68-3.479 1.11-6.106-1.554-8.705-2.234-2.179-4.969-2.217-6.81.269M224.898 458.67c1.417 7.218.244 14.047-2.904 20.586-1.65 3.428-3.458 6.781-5.206 10.162-3.246 6.28-6.305 12.668-9.803 18.805-4.118 7.224-8.251 14.425-15.102 19.697-4.013 3.088-7.518 6.836-12.225 8.972-3.13 1.421-6.248 2.872-9.425 4.182-3.647 1.503-7.17 3.204-10.66 5.069-6.068 3.243-12.529 5.622-19.348 6.876-2.319.426-4.616 1.071-6.954 1.276-8.895.779-17.57-.352-25.891-3.63-1.823-.718-3.449-1.973-5.1-3.08-.892-.598-1.604-1.458-2.466-2.108-2.307-1.739-4.652-3.427-6.981-5.136-2.816.357-5.187-1.042-7.711-1.897-3.319-1.125-6.122-2.895-8.655-5.375-3.796-3.717-7.358-7.635-10.794-11.661l-.022-.003c-.296-.087-.409.049-.409.049.184.224-.337.409-.579.252-.298-.09-.314-.518-.016-.429.241.157.297.089.354.021-.162-.531-.139-.658.13-.524l-.334-.391a4 4 0 0 1-.051.333c-.156.63-.453.541-.71-.044-.313-.517-.14-.717.101-.56 0 0 .241.157.298.09.085-.009.142-.013.194-.014l-.233-.276c-.134.085-.585-.058-.87-.405l.115-.133.058-.066c-.184-.224-.368-.448-.31-.513l-.022-.12c-.351-.423-.705-.844-1.054-1.269.124.217-.012.199-.289-.077-.172-.233-.464-.337-.524-.273-.18.194.166.664.458.768.06-.065.232.168.345.469.131.286.057.364-.291-.103-.173-.235-.346-.469-.405-.404-.119.131-.119.131-.466-.34q-.43-.802-.52-.706c-.06.064-.121.129-.468-.343-.408-.408-.409-.409-.121.128l.522.709c-.06.064.054.366.228.603s.349.473.115.302c-.06.065-.059.066.523.71.669.556.673.55.208 1.08-.174.198-.289.331-.419.035.058-.066-.13-.295-.304-.097-.058.066-.363-.032-.421.033q-.37-.248-.174.197c.131.297.263.594-.174.198-.253-.162-.426-.407-.368-.473.118-.132.118-.132-.059-.373l.178-.197c.296.109.178-.198.12-.568-.233-.609-.233-.609.06-.065s.469.783.469.783c.235.172.003-.873-.171-1.11 0 0-.116-.303-.056-.368l.06-.065c-.175-.238-.29-.54-.229-.604.12-.129-.054-.366-.228-.603s-.349-.474-.356-.045c-.121.128-.242.256-.418.017 0 0-.236-.175-.297-.111-.122.127-.183.19-.474-.352-.176-.239-.528-.718-.466-.781-.181-.235-.338-.488-.338-.488-.226-.186-.389-.435-.326-.497-.1-.311-.263-.559-.426-.807-.163-.249-.262-.558-.198-.619s-.035-.37-.359-.865c-.325-.496-.422-.803-.519-1.11 0 0-.162-.247-.292-.13-.065.059-.29-.132-.29-.132l-.744-1.285c-.513-.714-.513-.715-.231-.572.282.141-.095-.684-.595-1.029-.284-.145-.284-.145-.135.113.216.201.298.515.149.258-.067.057-.135.114.015.372.298.516.232.574.165.631q-.1.087.449.775c.365.458.365.458.083.317-.133.117-.132.118.234.576.144.263.316.507.316.507l-.13.118c-.164-.25-.229-.192-.359-.073-.324.295-.519.474-.618.161-.152-.262-.303-.523-.587-.668s-.219-.205-.171-.642c.066-.058.2-.175.417.028.368.463.416.026.115-.494 0 0-.084-.318-.017-.375.067-.058.067-.058-.083-.317l-.067.058c-.067.057-.134.115-.284-.145s-.368-.464-.57-.293-.336.285-.488.022l.084.32c.17.641-.402.344-.708-.186l-.458-.794c-.061.052-.236-.199-.51-.748-.138-.273-.277-.546 0-.384l.208-.166c-.138-.272-.068-.327-.068-.327l.069-.055c-.068-.326.071-.435.28-.599l.279-.218c-.003.377-.003.379.477.751.479.371.548.314.482-.008l.277-.22c.277-.221.282-.594-.06-.696q-.41-.235-.403-.796c.14-.107.14-.107-.204-.212-.204-.212-.614-.638-.89-.801-.686-.59-1.316-.878-1.539.029l-.212.156c-.137-.272-.275-.545-.346-.493-.068.05-.083.057-.252-.557-.123-.281-.173-.612-.1-.663-.05-.331.023-.381-.027-.711-.122-.279-.049-.329-.049-.329l.146-.1c.024-.378-.217-.933-.412-1.162-.268-.182-.197.851-.074 1.132.049.329.149.991-.046.761-.073.051-.195-.231-.123-.281-.05-.331-.343-1.222-.417-1.173s-.024.379.099.661l-.245-.563c-.123-.281-.294-.893-.22-.941.075-.049-.052-.327-.167-.611-.042.384-.513-.385-.759-1.297-.214-.577-.32-.865-.063-.668.151-.091.227-.137.12-.424 0 0-.106-.287-.182-.242s-.227.135-.334-.153.198-.465.561.018c.257.196.257.196-.03-.331-.288-.528-.212-.573-.135-.616.182.242.152-.088.076-.044-.105-.286-.182-.242-.258-.198-.173.097-1.018-1.149-1.196-1.741l-.181-.588c-.091-.294-.169-.253-.247-.212-.065.378-.325-.173-.35-.845-.009-.337-.2-.923-.512-1.106-.234-.222-.234-.223-.15-.601.084-.38.186-1.763.033-2.024l-.241.11c-.08.037-.241.11-.166.411 0 0 .075.301-.005.338-.16.075-.16.075.075.301s.235.225.23.564c-.089.717-.165.418-.689-1.696-.39-1.506-.487-2.122-.406-2.156.082-.034.186-.408.292-.778s.211-.738.293-.771c.222.237.222.235.174.906-.096.367-.091 1.013-.013 1.646.068.635.068.635.148.599s.161-.072.087-.371c-.105-.295-.116-2.245-.034-2.276.164-.067.164-.064-.313-1.172-.255-.873-.255-.874-.173-.905s.082-.031.025-.332c-.06-.301.032-.333.197-.393.126.272.083-.031.041-.333s-.168-.575-.251-.546l-.167.059c-.042-.304.125-.362.292-.42.334-.116.543-.502.46-1.102-.041-.3-.042-.3-.084.028q.063.451-.251.083c-.125-.273-.209-.248-.46.471-.417.78-.543.505-.544-.773l-.167-1.221c-.039-.306-.057-.613.025-.638.085-.026.17-.051.281.229.149.583.397.504.254-.078-.027-.304-.053-.608.143-.355.17-.051.201-.68-.021-1.239-.111-.28-.196-.256-.085.024.053.606-.345 1.037-.456.757-.138-.586-.295-1.641-.398-2.594-.084-.953-.077-1.804-.003-1.977.08-.174.115-.955.121-1.689-.009-.735.027-1.422-.025-1.414-.261.051-.084-.29.092-.629.174-.032.174-.032.171.273s.084.288.171.271.176-.337.263-.354c.005-.609.363-1.881.534-1.607.171.272.176-.329.008-.906-.16-.274-.057-.59.206-.628.087-.013.19-.326.206-.625.103-.312.016-.3-.247-.264-.262.036-.366.351-.397.955.072.289-.016.302-.016.302-.086.014-.179.027-.186.33 0 0-.093.013-.164-.276-.155-.276-.187.027-.013.608.081.594.079.897-.098 1.232-.089.32-.089.32-.084-.289.012-.609-.092-1.205-.227-1.787-.215-.875-.199-1.184-.008-1.512s.191-.328.016-.305c-.087.012-.159-.283.032-.61q.156-.474.049-.916c-.152-.284-.034-1.502.024-1.206l.264-.027c.029-.303.204-.32.204-.32.264-.026.292-.326.174-.916s.028-1.204.174-.914l.175-.013c.024-.302.071-.601.071-.601-.088.006-.088.006-.048-.294.08-.6-.008-.595-.184-.584-.305.318-.4-.276-.095-.593.088-.005.041-.301-.007-.599-.095-.595-.012-1.201.21-.909-.036.302.078-.005.092-.601.103-.598.154-.898.243-.9s.037.297.074.593c0 0 .14-.301.191-.599.242-.896.242-.896.154-.895 0 0-.088.001-.228.301 0 0-.088.002-.161-.595l-.124-.298.176-.001c.176-.001.228-.3.228-.3.051-.3.105-.598.196-.597.089 0 .15-.295.123-.593-.054-.595.159-1.188.273-.887-.035.594.203.3.238-.292.062-.296-.053-.596-.141-.599l-.088-.002q.225-.44.264.007l.176.005c.088.003.088.003.15-.293.033-.594.04-.593.198-.882.341-.279.356.305.005 1.185-.149.292-.149.292.379.307.44.013.528.015.677-.273.204-.581.285-.866.264-1.16-.018-.293.052-.583.367-1.151a1.56 1.56 0 0 0 .21-.867c.07-.289-.018-.295-.176-.011l-.176-.011c-.087-.006.069-.291.229-.573-.088-.006-.098-.3-.107-.594.069-.582-.019-.59-.176-.013-.078.288-.247.57-.332.565l.156-.578s.079-.288-.009-.295c-.097-.302-.097-.303.07-.585.079-.289.334-.563.422-.555s.088.008.167-.281l.175.016c.088.008.175.016.166-.28.078-.288.069-.584.158-.868.086-.285.173-.57-.001-.294-.178.275-.433.839-.508 1.13-.079.288-.079.288-.167.281 0 0-.088-.008.158-.577.076-.29.167-.574-.01-.592-.089-.304-.089-.305.175-.277.176.018.35-.258.436-.544 0 0 .174-.276.262-.266s.088.01.174-.275.173-.57-.001-.295c-.087-.01-.175-.021-.088-.306s.261-.561.348-.55c.174.022.175.022.454-.824.286-1.141.286-1.141.274-.552-.099.576-.011.587.076.599-.093.281-.18.27-.18.27-.098-.312-.798 2.257-.876 2.835-.085.869-.08.869-.412 1.427-.254.271-.166.279.009.294.175.016.097.302.019.588-.166.279-.059.872.118.885.088.007.088.007.166-.278-.01-.292.156-.57.243-.562.147.013.172.008.312-.488.238-1.355.511-2.703.805-4.045-.386.182-.375-.094.054-.598.039-.119.078-.174.115-.188a130 130 0 0 1 2.719-9.994 31.7 31.7 0 0 1 4.961-9.632c.921-1.224 1.01-2.49.305-4.058-2.239-4.982-3.572-10.255-4.62-15.616a318 318 0 0 0-3.431-15.403c-.381-1.54-1.354-2.928-2.015-4.404-.582-1.298-1.16-2.604-1.629-3.944-.157-.448-.179-1.193.087-1.5 1.598-1.843.665-3.218-.544-4.775-2.481-3.194-3.929-6.918-5.064-10.765-2.505-8.487-2.685-17.173-1.923-25.882.684-7.813 3.825-14.686 8.818-20.718 1.964-2.373 4.024-4.674 5.876-7.131 4.054-5.382 9.585-8.79 15.423-11.808 1.971-1.019 4.103-1.323 6.323-1.405 3.261-.12 6.516-.446 9.771-.712 7.931-.646 15.114 1.102 21.315 6.349 3.337 2.824 6.537 5.743 9.136 9.288 1.39 1.896 2.954 3.665 4.391 5.528 4.324 5.602 8.585 11.237 11.072 17.983.715 1.938.897 1.981 2.74 1.124 1.361-.633 2.649-.93 4.179-.8 1.988.169 3.527.966 4.548 2.575 1.741 2.744 3.447 5.521 4.983 8.383 4.546 8.473 9.104 16.936 14.302 25.035.576.898.931 2.113 2.199 2.211 2.137.164 2.967 1.777 4.065 3.231 2.064 2.736 3.485 5.902 6.228 8.202 3.206 2.689 6.346 5.344 10.233 7.064 3.978 1.76 7.865 3.741 11.72 5.76 1.919 1.005 3.875 2.091 5.476 3.52 5.404 4.823 10.878 9.575 14.561 16.026 1.538 2.695 2.973 5.41 3.815 8.351 2.098 7.324 3.848 14.722 4.559 22.352.285 3.06.431 6.097.477 9.162.027 2.138.233 4.314.647 6.422M62.936 346.609c.11 2.895.192 5.791.346 8.683.048.896.187 1.82.492 2.656.125.344.878.773 1.206.679 2.046-.586 4.281-.961 6.005-2.091a20 20 0 0 1 4.845-2.318c4.85-1.578 9.442-3.72 13.91-6.173 5.727-3.144 11.587-5.94 17.983-7.587 3.845-.99 7.538-2.575 11.284-3.936.777-.282.972-.871.601-1.704-3.601-8.1-9.289-14.699-15.388-20.928-1.706-1.742-4.123-3.286-6.464-3.817-7.258-1.643-14.461-2.214-21.864.463-6.219 2.249-9.532 6.225-10.669 12.384-1.445 7.827-2.605 15.693-2.287 23.689m11.763 133.36c.485-.393.815-1.219.852-1.866.05-.882-.271-1.78-.396-2.677-.851-6.085-1.693-12.172-2.538-18.258l.315-.055c.126-2.17.29-4.339.368-6.511.086-2.387-.327-2.609-2.334-1.656-2.442 1.16-4.931 2.227-7.431 3.259-1.3.537-3.104.542-3.881 1.461-.803.95-.666 2.715-.886 4.131-.194 1.248-.392 2.504-.45 3.763-.168 3.595-.743 7.155-.759 10.768-.024 5.5 1.697 10.674 2.775 15.968.313 1.539 1.452 1.817 2.851.735 3.864-2.986 7.717-5.99 11.514-9.062m4.706-60.277c.836-2.545 1.697-5.082 2.546-7.622-2.935-.834-5.551.849-8.35 1.058-2.836.211-4.663 1.75-5.831 4.22-.537 1.134-1.045 2.282-1.554 3.428-2.066 4.65-3.376 9.542-4.496 14.48-.598 2.639-.998 5.326-1.382 8.007-.092.643.053 1.49 1.45 1.403 2.603-.895 5.511-1.89 8.416-2.894 4.411-1.524 4.509-1.511 5.273-6.322.855-5.373 2.234-10.601 3.928-15.758m4.58-15.876c.412-.122.727-.573 1.025-.82-.188-.557-.253-.925-.425-1.234-2.376-4.277-4.767-8.547-7.155-12.818-.089-.158-.177-.318-.275-.47-.73-1.143-1.42-1.42-2.757-.856a337 337 0 0 0-9.46 4.149c-1.314.602-2.612 1.295-3.774 2.142-.457.333-.88 1.328-.711 1.808 1.446 4.115 3.253 8.071 5.892 11.585.616.821 1.48.906 2.437.649 2.273-.61 4.56-1.167 6.831-1.781 2.797-.759 5.593-1.53 8.372-2.354m-26.378-41.517c.372-.327.51-1.545.213-1.912-2.644-3.263-3.003-7.289-3.944-11.129-1.347-5.498-1.301-11.097-1.328-17.217.108-2.369.257-5.254.36-8.141.036-1.003.46-2.285-.792-2.718-.288-.1-1.157 1.197-1.611 1.941-.459.753-.767 1.605-1.083 2.435-2.267 5.966-2.853 12.237-3.375 18.524-.408 4.915.392 9.745 1.147 14.547.443 2.817 1.26 5.662 3.131 7.981.246.305 1.096.542 1.341.364 2.038-1.483 4.05-3.013 5.941-4.675m1.675 23.779c4.208-2.088 8.378-4.253 12.554-6.407.31-.16.594-.429.801-.712.206-.281.3-.644.499-1.097-.502-1.623-1.115-3.326-1.551-5.073-.982-3.936-2.107-2.991-4.47-1.533-2.76 1.703-5.303 3.755-8.009 5.552-4.224 2.805-4.573 1.767-2.583 7.747.057.172.102.348.169.516.481 1.205 1.341 1.627 2.59 1.007m37.425 126.777c-.43-.325-.789-.744-1.204-1.09-7.056-5.882-12.623-12.86-15.912-21.527a56 56 0 0 0-1.477-3.477c-.142-.309-.465-.534-.767-.867-.467.294-.969.487-1.303.839-2.988 3.143-6.035 6.202-9.691 8.609-2.691 1.772-2.821 2.612-1.12 5.12.302.445.727.804 1.061 1.229 4.702 5.988 10.055 11.36 15.638 16.513.796.735 1.604 1.467 2.472 2.111 4.938 3.664 5.136 3.659 10.368.383.612-.383 1.312-.646 1.869-1.093 3.821-3.067 4.132-3.677.066-6.75m35.518 15.017c-5.117.289-10-.936-14.765-2.58-2.707-.933-5.24-2.346-7.828-3.575-4.631-2.2-3.953-2.884-6.572 1.715-.979 1.719-2.249 3.272-3.395 4.895-.995 1.41-.806 2.587.702 3.553.876.562 2.067.762 2.747 1.476 1.829 1.921 4.165 2.804 6.541 3.65 5.502 1.959 11.314 2.276 16.585 3.131 2.716.121 3.097-.149 4.014-2.376.827-2.005 1.719-3.983 2.52-5.998.33-.829.633-1.713.695-2.59.046-.666-.225-1.358-1.244-1.301m51.206-9.202c-.336-.011-.715-.129-1.001-.014-1.673.668-3.622 1.052-4.909 2.18-1.626 1.425-3.618 1.353-5.376 2.059-4.662 1.873-9.431 3.592-14.298 4.812-5.706 1.43-11.533 2.71-17.477.919-.278-.084-.91.532-1.155.952-.25.428-.226 1.016-.228 1.026.344 2.476.592 4.443.899 6.4.217 1.382.919 1.859 2.267 1.574 1.24-.262 2.461-.612 3.702-.872 3.913-.819 7.761-1.742 11.266-3.838 4.99-2.983 10.349-5.155 15.869-6.993a24.8 24.8 0 0 0 9.257-5.555c.393-.371.812-.772 1.034-1.246.189-.403.11-.931.15-1.404m24.153-96.63c-1.885-6.83-7.799-10.212-12.394-14.729-.122-.12-.318-.187-.491-.229-4.639-1.113-8.537-3.88-12.839-5.746-4.724-2.049-8.782-5.025-12.297-8.762-2.485-2.642-4.7-5.614-7.498-7.862-2.628-2.111-4.557-4.634-6.335-7.358-3.072-4.709-6.129-9.43-9.073-14.219-3.608-5.869-7.094-11.813-10.633-17.724-.967-1.615-1.367-1.779-3.068-1.217-1.529.505-3.029 1.364-4.583 1.472-3.319.23-6.286 1.493-9.348 2.538-3.411 1.165-6.859 2.217-10.274 3.369-3.6 1.214-7.314 2.2-10.739 3.797-6.275 2.926-12.587 5.532-19.578 6.115-1.375.115-1.846 1.179-1.155 2.312 1.699 2.784 3.71 5.417 5.097 8.346 3.88 8.194 8.468 15.983 13.027 23.796.546.935 1.105 1.876 1.52 2.872.456 1.097.358 2.241-.818 2.812-2.553 1.24-3.51 3.692-4.297 6.024-1.619 4.795-2.999 9.683-4.231 14.595-1.904 7.585-2.356 15.398-3.308 23.13-.572 4.644-.536 9.33-.563 13.991-.017 2.866.161 5.985 1.282 8.538 1.213 2.764.63 5.687 1.737 8.333.07.167.145.333.211.502 1.191 3.025 2.439 6.029 3.559 9.08 1.806 4.919 4.785 8.925 9.095 11.901 3.126 2.159 6.217 4.393 9.491 6.308 5.335 3.119 11.044 5.418 17.177 6.403 5.545.89 11.111 1.691 16.696 2.262 2.865.293 5.866.411 8.675-.105 10.551-1.94 20.68-5.279 30.106-10.461 3.645-2.004 7.078-4.412 10.522-6.761 9.748-6.648 15.853-15.65 17.871-27.409a102 102 0 0 0 1.145-9.033c.278-3.41.822-6.797 1.25-10.195.175-9.269-2.527-17.947-4.939-26.686m115.831 62.774c1.528 2.73 1.784 2.711-.37 5.109-6.253 6.965-14.157 11.13-22.93 13.888-3.604 1.133-7.213 2.256-10.845 3.296-3.179.911-5.826-.584-6.597-3.843-1.618-6.842-2.891-13.674-1.237-20.78 1.162-4.994.629-10.08-.314-15.114a29 29 0 0 1-.505-5.941c.059-2.543 2.584-4.529 5.91-4.329.195.085 1.188.243 1.769.818 4.195 4.154 9.507 6.592 14.455 9.592 2.325 1.409 4.56 2.972 6.912 4.331 5.121 2.959 9.049 7.204 12.811 11.642.351.413.677.859.941 1.331m-12.263.014c-.596-.403-1.23-.752-1.86-1.101-3.149-1.74-6.254-3.571-9.473-5.17-1.834-.911-3.125-3.018-5.569-2.629.117 1.766.254 3.531.344 5.299.046.898.008 1.8.008 2.7l-.204-.002c0 2.149-.049 4.299.021 6.445.035 1.081.849 1.732 1.762 1.498 5.059-1.3 10.131-2.569 14.864-4.861.876-.426.935-1.62.107-2.179M82.787 150.526c-1.047-2.475-.27-4.39 1.29-6.456 1.698-2.249 3.58-3.497 6.499-3.345.991.368 2.065.598 2.95 1.138 1.072.654 2.04 1.512 2.955 2.384 5.498 5.24 11.423 10.03 16.46 15.76 2.505 2.849 5.198 5.531 7.768 8.324 5.965 6.484 9.596 14.435 13.821 22.016 1.096 1.966.299 3.725-.927 4.951-2.406 2.407-4.93 4.744-8.28 5.952-3.565 1.286-7.024 2.803-10.256 4.868-1.301.831-3.042 1.044-4.619 1.355-1.53.301-2.744-.295-3.782-1.559-6.186-7.529-10.848-15.814-12.685-25.483a34.7 34.7 0 0 0-2.215-7.225c-2.839-6.652-5.518-13.373-8.229-20.078-.338-.833-.401-1.777-.75-2.602m19.317 20.295c.157 1.057.35 2.118.652 3.142 1.069 3.618 2.441 7.169 3.214 10.847.762 3.628 2.146 6.821 4.454 9.683 1.35 1.675 1.487 1.763 3.558.68 1.916-1.002 3.76-2.161 5.736-3.022 3.019-1.315 3.37-1.471 1.291-4.659-1.275-1.955-2.526-4.014-4.19-5.606-3.889-3.72-8.008-7.201-12.071-10.737-.521-.453-1.258-.658-1.848-.955-.344.261-.817.48-.796.627m341.866 41.545c-1.179.723-1.613 2.222-3.404 2.405-3.885.396-3.959.659-6.744-2.039-2.995-2.901-5.786-6.013-8.684-9.015-1.633-1.692-3.163-3.525-4.993-4.974a40 40 0 0 1-6.525-6.529c-4.069-5.113-8.281-10.117-12.213-15.333-2.174-2.883-4.156-5.975-5.773-9.2-3.334-6.651-6.651-13.338-9.442-20.226-2.995-7.391-5.394-15.025-8.023-22.564-1.311-3.762-2.878-7.476-3.745-11.342-1.028-4.581-1.578-9.288-2.067-13.968-.847-8.119-1.403-16.269-2.239-24.39-.854-8.297-1.843-16.581-2.886-24.856-.43-3.41-1.093-6.795-1.771-10.167-.283-1.406-1.242-1.733-2.353-.765-4.323 3.764-9.171 2.974-13.855 1.334-4.932-1.727-8.138-5.334-8.998-10.665-.195-1.212-.3-2.521-.06-3.707.967-4.786 2.068-9.546 3.156-14.307.413-1.807.32-2.203-1.195-3.13-2.185-1.338-4.43-2.429-7.117-2.326-2.68.102-4.075 1.227-4.352 3.812-.583 5.443.768 10.433 3.572 15.079 2.622 4.346 5.473 8.575 7.796 13.075 4.313 8.354 8.479 16.744 10.379 26.142 1.971 9.751 4.665 19.354 7.017 29.029.299 1.23.458 2.496.649 3.75.628 4.122 1.565 8.162 2.565 12.219 1.817 7.369 3.146 14.885 2.805 22.561-.209 4.698-2.813 7.557-7.667 8.191-.738.096-1.842-.394-2.326-.984-1.492-1.818-2.888-3.742-4.103-5.756-4.688-7.772-9.249-15.621-13.946-23.387-2.265-3.744-4.112-7.659-5.693-11.732-2.496-6.425-5.177-12.779-7.664-19.207-2.193-5.669-6.023-9.87-11.178-12.923-4.995-2.958-9.87-6.192-15.101-8.664-8.498-4.016-17.227-7.102-26.934-7.408-10.276-.324-20.516-1.801-30.773-2.764-1.444-.136-2.896-.338-4.339-.3-3.927.105-4.38-.159-4.399 4.132-.011 2.519-.405 5.054-.84 7.545-.245 1.406-.707 2.867-1.444 4.076-2.767 4.538-6.336 8.216-11.291 10.506-1.599.739-3.178.896-4.739.819-7.015-.349-13.13-2.58-16.838-9.072-.798-1.398-1.254-2.999-1.801-4.531-.319-.893-.824-1.04-1.624-.669-3.285 1.524-5.281 4.909-4.793 8.307.098.683.384 1.437.822 1.958 2.633 3.132 5.734 5.588 9.944 6.172 8.448 1.172 16.872 2.435 25.449 2.465 8.516.029 17.03.473 25.545.73 2.176.066 4.353.155 6.53.164 14.336.058 27.607 3.742 39.607 11.68a39.5 39.5 0 0 1 5.129 4.03c7.842 7.314 15.464 14.784 21.262 23.974 2.906 4.606 5.83 9.181 8.297 14.031 1.224 2.406 1.702 5.133 3.353 7.395.965 1.321 1.847 2.599 3.147 3.671 4.461 3.675 7.219 8.572 9.346 13.843.207.514-.007 1.512-.402 1.907-4.496 4.49-7.691 4.554-11.791-.158-5.412-6.221-9.568-13.236-12.004-21.174-3.081-10.037-7.957-19.032-15.222-26.683-1.749-1.842-3.318-3.854-5.054-5.709-6.697-7.157-14.647-12.241-24.051-15.265-8.777-2.822-17.709-3.394-26.797-3.161-5.617.144-11.238.202-16.857.257-6.335.062-12.671.072-19.007.117-1.452.01-2.911-.006-4.353.131-1.688.16-2.468 1.047-2.393 2.924.307 7.715-3.333 13.475-8.783 18.474-2.873 2.635-5.896 4.581-9.897 5.187-5.379.815-13.361-1.514-16.917-5.446-.97-1.072-1.864-2.214-2.852-3.267-.135-.143-.81-.076-.916.094-1.961 3.126-3.25 6.474-2.889 10.241.184 1.92 1.336 2.973 3.214 3.034 1.266.041 2.571.072 3.8-.178 5.856-1.195 11.693-2.482 17.534-3.749 1.771-.384 3.533-.807 5.299-1.211 1.585-.362 3.274-.484 4.736-1.125 6.965-3.052 14.378-3.709 21.807-4.234 6.157-.435 12.33-.656 18.493-1.007 3.828-.218 7.584.207 11.383.708 7.75 1.023 15.392 2.432 22.925 4.539 5.603 1.567 10.434 4.381 14.091 8.807 5.318 6.437 10.581 12.954 15.352 19.796 4.227 6.062 8.464 12.25 9.878 19.8.218 1.167.583 2.511 2.009 3.045.181.068.369.57.297.786-.612 1.83 1.027 2.998 1.305 4.585.478 2.728 1.787 4.786 5.024 4.633 3.532 2.075 7.562 2.226 11.436 3.014 2.302.468 4.541 1.239 6.821 1.826 2.098.54 4.188 1.222 6.324 1.467 2.688.309 4.682 1.325 6.451 3.478 1.195 1.454 1.239 2.931 1.434 4.491.15 1.197-.717 2.117-1.915 2.167-2.501.104-5.054.478-7.495.123-2.463-.359-4.91-1.26-7.202-2.285-6.335-2.833-12.96-4.408-19.804-5.368-2.477-.347-4.836-1.471-7.28-2.125-8.234-2.205-16.277-4.977-24.244-7.992-5.761-2.18-11.687-3.979-17.289-6.504-5.317-2.397-10.849-4.065-16.336-5.902-4.321-1.446-8.831-1.971-13.382-2.166-2.293-.098-3.792.969-4.787 2.903-.414.806-.807 1.635-1.089 2.494-2.821 8.597-5.613 17.203-8.425 25.802-.278.849-.659 1.663-.955 2.507-2.39 6.805-4.927 13.563-7.091 20.439-1.136 3.612-1.787 7.405-2.353 11.161-1.131 7.509-2.176 15.035-3.019 22.58-.561 5.022-.741 10.088-1.026 15.138-.086 1.514.7 2.323 2.226 2.551.718.107 1.448.194 2.171.188 3.805-.035 6.587 1.91 8.766 4.747 7.302 9.505 10.434 20.197 8.892 32.165-.233 1.811-.619 3.562-1.784 5.045-.551.701-1.669 1.771-1.494 2.071.489.839 1.453 1.478 2.35 1.981.932.522 1.987.847 3.019 1.161 5.156 1.569 5.314 1.506 6.749-3.565.947-3.344 1.623-6.715 1.79-10.124a21.6 21.6 0 0 0-.972-7.48c-4.166-13.02-4.736-26.321-3.637-39.81.425-5.222.717-10.443 2.046-15.549a25.1 25.1 0 0 1 2.987-6.959c2.191-3.551 4.745-6.806 7.435-9.949.105-.223.145-.392.087-.406-.104-.027-.211-.054.1-.572l.22-.24c.111-.115.29-.256.337-.237.112.026.047.192-.053.396-.09.198-.243.453-.395.708q.354-.408.71-.813c.059-.109.095-.193.059-.203.149-.286.765-.978 1.342-1.414l.053-.034.334-.374c-.095.019-.133-.056-.042-.273.344-.516.346-.526.796-.983.091.054.165.103-.121.548q1.022-1.135 2.046-2.269.04-.04.08-.081c-.37.215-.585.28-.434.026.288-.483 1.238-1.193 1.404-1.056a.14.14 0 0 0 .048.028 17 17 0 0 1 2.556-1.877l.04-.086.175-.047c1.53-.897 3.189-1.596 4.909-2.183q.106-.038.212-.076c.276-.136.48-.248.435-.309-.133-.168.387-.291.519-.122l.053.068a226 226 0 0 0 3.276-1.209l-.052-.074c-.125-.173-.188-.26.703-.63 1.345-.568 4.113-1.447 4.229-1.268.06.088.121.176.559.002.33-.131.694-.211.879-.205.2-.057.404-.107.606-.163.074-.114.145-.254.204-.412.135-.612.63-.695 1.422-.337l.179.264c-.058-.089.315-.347.315-.347l1.291-.512c.371-.259.43-.171.55.006.077.114-.019.272-.164.397a58 58 0 0 1 1.542-.306 2 2 0 0 1 .206-.165c.427-.172.367-.26.247-.436-.547-.004-.547-.004.427-.172a5 5 0 0 0 .701-.183c.249-.081.49-.172.732-.264.991-.33 2.112-.685 3.024-.899.895-.24 1.553-.369 1.584-.314l.106.187c.057.097 1.669-.118 2.18-.222.986-.299 1.675-.007.7.287l-.462.196c.508-.099 1.061-.1 1.105-.003l-.505.098c-.553.001-.915.391-.769.68.027.054.046.108-.099.204.76-.053 1.521-.108 2.281-.151.102-.071.206-.138.435-.219.501-.063-.042-.107-.54-.025-1.03.098-1.138-.112.252-.671l.981-.235.039.1c.51-.067.436-.267.36-.467-.191-.499-.192-.5.369-.467.56.047 1.078.019 1.537-.226.459-.241.463-.243-.629-.267-.528.04-.002-.001 1.026-.178 2.082-.184 2.618-.174 3.157-.051.568.225 1.08.241 1.538-.057-.039-.216 1.498-.103 1.549.213.018.106.017.105.509.037l.999.1.029.212c1.042.412 2.441.185 2.401-.24-.022-.213-.033-.319.467-.148.489.065.479-.042.459-.254-.524-.383-.518-.386.466-.145.488.178.488.178.958.143-.009-.106.462-.141.942-.069l.024.319c-.948.072-.428.349.982.788.475.181.956.468.963.575.015.213.478.287.925.15l-.013-.213c-.928-.256-.934-.362.448-.138.46.075 1.387.33 1.387.33.006.106.006.106.462.179l-.024-.425-.487-.604.936.571c.467.285.942.677 1.411.962.472.387.473.387.459.174-.013-.212 1.33-.22 1.344-.008.007.106.007.106.46.175.447.067.942.144.928.037l-.484-.18c-.465-.071-.456-.069-.466-.176 0 0-.011-.107.449-.037.476.073.952.146.944.04l.469-.033c.492.286 1.444.433 1.43.22l-.014-.213c.476.071.497.297.509.507l.014.214c-.5-.306-1.445-.438-.957-.156.014.213.022.319-.453.246l-.007-.106c-.007-.106-.483-.18-.958-.253l.016.213c.483.18.49.286.49.286l.949.146.941-.054c-.007-.107.468-.127.939-.253.955-.039.957-.039.967.175.006.112.974.377 1.459.486.485.107.972.321.977.535s.007.321-.475.215l.001.039c1.772.526 3.503 1.22 5.227 1.964.712.307 1.419.63 2.129.944a6 6 0 0 0-.508-.326c-.636-.355-1.586-.729-2.536-1.051-.951-.361-1.424-.625-1.905-1.038-.964-.64-.971-.642.485-.531.484-.095 1.46-.036 1.463-.145.002-.107.492-.081.492-.081.491.027.489.134.478.455-.496.188-.496.187.482.241.97.27 1.469.195 1.469.195.006-.108.006-.108.49.056.476.271.475.271.46.485-.503.159.454.484.953.434.523-.266 2.887.99 2.341 1.266-.506.109-1.485.026-2.42-.413-.944-.375-1.775-.664-2.313-.795-.542-.11-.785-.096-.552.077-.011.213-.012.212.478.132-.005.098.466.265.939.423.945.321.935.428.925.535l-.03.32.937.32c.021-.208.967.101 1.403.491l.042-.321c.052-.428 1.014-.255 3.322.833l1.15.548 1.113.631.093-.42c.023-.105.091-.421.572-.291.504.026.506.027.913.472.405.444.404.444.482.133.051-.208.536-.073.536-.073.486.135.919.478.459.239-.487-.132-.051.198.885.589.878.55 1.317.827 1.252 1.032l-.032.103c-.436-.275-.436-.275-.405-.378 0 0-.406-.378-.437-.275-.466-.169.251.894 1.112 1.437l-.067.204c-.431-.272-.034.101.431.272 0 0 .896.444.968.244.504.074.507.075.865.55l-.037.099c.479.162.862.507 1.276.808.814.623 1.22.936 1.134 1.132-.085.197.635 1.013 1.342 1.823 1.035 1.242 2.394 2.757 2.2 2.117.052-.094.104-.188.421.251.369.345.684.783.63.874-.421-.252-.054.092.679.78q.276.26.534.526l.435.562c.268.362.486.687.621.919.54.926 1.85 2.419 1.914 2.335s-.266-.461-.595-.836c-.659-.75-.928-1.213-.868-1.302-.211-.553.181-.267.575.023.333.378.062-.088-.213-.556-.609-.848-.551-.939-.492-1.029l.059-.09c-.337-.381-.395-.29-.454-.199-.077.146-1.548-1.252-1.872-1.686l.214-.37c.24.083.454.212.842.541.194.165.431.379.737.663.294.293.621.686 1.048 1.162 1.354 1.533 2.028 2.306 2.302 2.776-.074.093.633.838.919 1.256.364.325.594.82.23.495-.429-.242-.718-.653-1.067-1.026-.334-.382-.334-.382-.398-.297.102.277.324.602.593.96.241.377.535.783.829 1.19.362.324.363.324.431.241-.295-.408-.227-.492-.159-.576.432.243.433.243 1.322 1.476.522.904.887 1.235.592.823 0 0 .07-.081.734.666.367.334.736.672.808.594.067-.076.084-.083.213.499.11.594.9 2.557 1.406 3.423.253.434.331.361.154-.148.154-.148.231-.223.486.214s.51.874.843 1.239q.5.55.763 1.315c.133.525.183 1.117.313 1.638 0 0 .212.451.591.767l.805 1.225-.167.134c-.251.2-.251.199.129.52.508.84.593.776.677.71l.128.52c.212.454.339.973.254 1.036-.211-.453-.085.064 0 0l.288.624.108.29-.087.063c-.169-.465-.271-.397-.353-.335-.076.06.088.525.262.986 0 0 .084.525-.004.586l-.176.124c.171.461.342.921.518.8.089-.061.005-.584.093-.646-.343-.923.097-1.83.443-.898 0 0 .085.528-.091.651.084.526.084.526.345.93.172.465.605 1.336.777 1.802.605 1.339.777 1.808.687 1.864-.632.401-.72 1.028-.398 1.954 0 0 .225.412.914.554.185-.11.504.253.639.727l.042.528c-.093.054-.093.054.041.527s.041.526-.052.579c-.186.106-.186.106-.146.63.267.943-.108 1.148-.24.679-.266-.94-.545-.78-.374.207q.058.78.397 1.404s.132.469.17.986c.17.984.395 1.404.452.838.018-1.086.847-.445 1.113.503l.094-.048c.103-.049.227.425.42 1.377.305 1.428.406 1.903.107.999-.396-.857-.395-.856.01 1.044l.303 1.425c-.198-.43-.294-.384-.391-.339-.193.091-.391-.337-.391-.337-.197-.428-.294-.38-1.067-.015-.19.607-.088 1.587.203 1.454.097-.045.097-.045.197.425-.097.044.197.426.488.293-.003-.516.097-.044.197.427 0 0 .2.943.397 1.372.1.472.197.43.094-.559-.003-.516-.007-1.033-.107-1.507-.201-.946.19-.609.686.728.198.431.396.864.493.82l.097-.043c.101.477.007 1.039-.09 1.081l-.194.085c.402.862.845 2.726.759 2.764-.027.525.089 2.013.402 3.425.324 1.411.592 3.352.454 3.394-.101.036-.101.036-.061.525.08.979-.123 1.047-.304.105-.102.035-.101.035-.163.557-.022 1.009-.022 1.008.323 1.396.243.422.283.912.322 1.401s.079.979.181.947c.201-.063.328 1.41.189 2.451-.2.552-.194 1.045.013.988l-.097.522c-.201.549-.201.548-.195 1.041 0 0-.098.519-.201.545-.403 1.088-.403 1.083-.086 1.501.109.467.213.443.317.418.098-.518.098-.518.109.469-.007.741.104 1.714.109 2.445.023.73.073 1.211.141.952.029-.497.105-.021.105-.021-.029.497-.163 1.015-.268 1.034 0 0-.134.516-.193 1.507-.03.496-.164 1.009-.27 1.026-.105.017-.105.017-.135.511.036.239.049.973.026 1.65-.061.675-.142 1.293-.196 1.299-.107.013-.065.493-.023.975.083.965.017 1.463-.155 1.967l.04.485c.106-.01.04.486-.066.495s-.278.513-.345 1.007c-.244 1.479-.802 2.952-.903 2.473-.114-.477-.421.499-.409 1.467.011.97.011.972.214-.005.208-.492.208-.492.315-.495l-.102.49c-.102.49-.412 1.47-.412 1.47-.102.489-.204.978-.098.978.103-.001.221.001.101.489l-.108-.001c-.108-.001-.216-.001-.566.477l-.485.956-.329 1.929-.198 1.455c-.202.313-.385.631-.603.937l-.55.921c.107.01.214.019.045.49-.169.47-.169.47-.275.459-.045-.49-.549.914-.507 1.409-.063.482.042.496.148.509.276-.459.276-.458-.17.471-.286.453-.417.939-.727 1.866-.093.475-.188.953-.294.935-.412.424-.611.88-.602 1.378.105.019.105.02-.306.44-.306.439-.515.398-.619.377.2-.456-.104-.021-.2.457l-.096.478c.099.019.115.027-.108.473-.227.444-.559.864-.663.84.017-.489-.208-.05-.349.91-.123.468-.123.469-.227.443.01-.497-.973 1.259-1.488 2.619-.648 1.313-1.656 3.028-1.506 2.567.251-.428-.102-.032-.252.428-.252.428-.605.822-.705.789-.359.388-.462.352-.101-.033.503-.853.901-1.737.651-1.311-.358.389-.338.404-1.117 1.659-.27.411-.641.786-.741.75l.269-.41.535-.822c.396-.884-.453-.651-.911-.31-.634.777-.634.776-.267.406.469-.336.47-.337.405.141-.166.443-.602 1.296-.602 1.296l-.269.408q.403-.613.301.11c.201.073.301.11.572-.302.27-.411.27-.411.371-.375l-.27.411c-.371.375-.541.823-.341.896.372-.376.372-.376.542-.825.474-.342-.241.935-.985 1.687-.375.372-.635.793-.725 1.269l-.199-.079-.199-.079c.658-.77.461-.842-.299-.119-.672.752-.67.751.086-.475.27-.41.44-.857.042-1.009l-.596-.229-.563.288.022.514c-.083.471.015.512.498.199.368-.367.486-.313.015.513-.086.474-.087.476-.854 1.182-.384.353-.953 1.14-1.523 1.928-.586.77-.889 1.145-.492.81.59-.249 1.277.054 1.074.483-.202.428-.502.813-.803 1.198 0 0-.504.814-.805 1.199-.505.816-.506.816-.397.339.204-.43.108-.475.011-.521-.396.338-.192-.093.116-.993.105-.473.208-.943.014-1.032-.292-.134-.387-.18-1.084 1.05-.497.806-.402.853.193.091.297-.38.297-.38.394-.335l.097.045c-.487.294-1.492 1.899-1.003 1.612.096.047.192.094-.114.464-.517.788-.518.789-.422.836.403-.324.499-.277.499-.277-.307.372-.71.695-.806.648q-.747.412-.286-.143l-.402.322c-.306.37-.708.692-.802.643-.047-.024-.071-.036-.159.05-.098.092-.193.239-.667.725-.44.461-.802.788-1.061.992-.254.173-.407.229-.452.201-.093-.059-.087-.059-.87.732-.438.385-.85.69-1.156.947l-.504.426c-.437.312-.359.385.246.208 1.131-.428 1.224-.369.86.022a8.7 8.7 0 0 1-1.382 1.176c-.494.329-.963.594-1.226.698-.078-.081-.525.223-.974.473 0 0-.524.177-.598.099-.151-.173-.664.061-2.528.902-.449.228-.898.456-.829.538s-.382.31-.382.31c-.449.236-.907.432-.907.432.067.084.134.167.591-.043.454-.222.453-.227.521-.143.137.163.137.166-.385.31-.068-.083-.525.127-.981.337l.067.084c.457-.21.525-.127.592-.043.068.083-1.312.717-1.901.758-.587.044-1.052.219-.46.204 1.115-.154 1.182-.08.655.05-.459.219-.926.401-.926.401.065.086-.403.28-1.457.492-.527.105-.588.018-.588.018l-.123-.174c-.462.191-.932.357-.932.357.122.177-.817.527-1.403.522-.059-.089-.526.085-.41.263a5.7 5.7 0 0 1-1.305.665c-.475.158-.476.158-.419.249l.952-.316-.419.249c-.896.407-.898.407-1.43.474-.641-.108-1.176-.072-1.496.348-.321.279-.751.336-1.002.118-1.143.399-2.296.765-3.471 1.014-.048.205-.411.344-.891.279-.103-.03-.196-.041-.291-.057-.377.069-.753.138-1.131.197-.039.024-.081.04-.118.067-.453.198-.952.298-.996.201-.015-.034.046-.082.135-.133-.262.035-.523.076-.786.106-.059.033-.166.072-.396.108-.417.065-.674.05-.775-.004a40 40 0 0 1-2.833.147c-.73.009-1.46.037-2.19.062-.975.256-1.506.277-2.581.217-.646-.023-1.082-.043-1.41-.056-.311.014-.622.023-.933.036a2 2 0 0 0-.277.102c.047.183-.488.256-2.088.09-.436-.039-.787-.072-1.075-.099-.778.01-1.556.023-2.336.005-6.799-.156-12.697-2.652-18.032-6.657-7.09-5.321-14.002-10.871-20.85-16.5a19 19 0 0 0-1.726-1.289c-3.796-2.448-7.685-4.762-11.377-7.359-2.261-1.59-4.866-1.232-7.289-1.838-.404-.101-1.429.705-1.522 1.211-.359 1.94-.585 3.927-.601 5.899-.01 1.243.4 2.498.691 3.732.694 2.939 1.502 3.64 4.584 3.007 5.39-1.107 9.556.79 13.217 4.569 2.799 2.889 5.259 6.02 7.296 9.475 1.497 2.539 2.356 5.284 2.466 8.266.136 3.706.051 7.274-3.184 9.927-.85.696-.631 1.518.279 2.201 7.208 5.408 15.263 9.211 23.919 11.422 6.188 1.58 12.615 1.133 18.904-.182 1.215-.254 1.794-1.056 1.773-2.339-.033-1.991-.048-3.986.028-5.975.071-1.873.779-3.529 2.022-4.948.991-1.131 2.882-1.116 3.772.16a10.8 10.8 0 0 1 1.436 2.875c.267.844.144 1.804.287 2.698.659 4.114.643 3.966 4.719 3.192 4.814-.915 8.765-3.018 12.159-6.647 2.448-2.618 5.538-4.641 8.371-6.893 5.672-4.509 11.725-8.615 16.941-13.599 4.815-4.6 8.782-10.096 13.044-15.262 2.536-3.074 4.909-6.283 7.385-9.407.446-.562.974-1.106 1.573-1.492 5.378-3.469 10.966-6.287 17.589-6.541 6.801-.26 13.399.846 19.906 2.576 5.465 1.452 9.71 4.79 13.104 9.251.552.725.278 1.445-.372 1.834-1.583.947-3.197 1.316-5.162.877-8.426-1.882-16.85-.97-25.318.046-5.749.69-9.988 3.628-12.941 8.103-6.563 9.943-15.31 17.773-23.829 25.859-1.576 1.496-3.364 2.837-4.657 4.549-3.781 5.007-8.535 8.843-13.772 12.171-1.224.777-2.498 1.519-3.578 2.471-8.553 7.545-18.924 11.201-29.748 13.747-4.273 1.005-8.725.394-12.984-.385-7.829-1.433-15.535-3.438-22.714-7.029-2.097-1.049-4.541-1.233-6.442-2.815-.797-.663-2.137-.679-2.918-1.352-3.571-3.078-8.08-4.715-11.677-7.718a197 197 0 0 1-6.944-6.105c-3.643-3.344-6.628-7.27-8.952-11.583-4.391-8.147-8.547-16.422-12.671-24.709-.875-1.759-1.184-3.799-1.777-5.701-.583-1.867-1.623-2.391-3.25-1.533-2.398 1.265-4.815 2.513-7.106 3.955-5.517 3.472-10.984 7.024-16.433 10.603-1.867 1.226-1.958 2.187-.595 4.036.645.875 1.429 1.651 2.038 2.547 1.945 2.864 1.863 4.273-.541 6.689-1.905 1.914-3.697 4.14-6.809 4.004-.662-.029-1.476-.112-1.942-.503-2.108-1.769-3.469-4.089-4.693-6.538-.862-1.726-1.857-1.868-3.604-.947-1.598.842-2.168 2.041-1.393 3.565.646 1.271 1.606 2.381 2.419 3.569 1.424 2.083 2.888 4.141 4.238 6.271.509.804.386 1.708-.284 2.51-2.346 2.804-4.72 3.491-8.204 2.333-5.76-1.913-9.289-6.198-11.778-11.417-1.023-2.145-1.4-4.619.371-6.68 1.391-1.618.873-3.814 1.817-5.421 1.653-2.811 3.725-5.421 6.497-7.219 5.175-3.357 10.397-6.655 15.726-9.761 6.288-3.665 12.253-7.757 17.817-12.443.834-.702 1.695-1.375 2.486-2.123 2.108-1.992 4.317-3.684 6.995-4.126-.101-.035-.177-.047-.192-.001l.025-.084c-.17-.267-.091-.517.347-.319l.051-.167-.193-.182c-.271.068-.849-.479-.794-.644 0 0 .027-.083-.191-.181-.191-.18-.188-.183-.372-.371-.394-.294-.748.013-.892.426-.029.083.1.438.1.438-.028.083-.028.083.186.19l.084-.249c-.129-.355-.129-.355.242.024.156.276.384.368.655.304.492.032.491.032.413.282-.104.333-.105.333-.493-.033-.221-.1-.22-.1-.522.049-.081.249-.135.414.088.515l-.25-.018c-.027.083-.277.064-.277.064.224.101-.03.086-.272.058-.49-.052-.491-.052-.217-.109.601-.281.626-.365.037-.854-.402-.298-.587-.488-.286-.628.029-.082.087-.247-.097-.437-.214-.107-.183-.188.329-.223.242.024.511-.035.299-.141.029-.082-.212-.106-.212-.106-.029.082-.029.082-.423-.212-.423-.212-.635-.318-.453-.13-.03.082-.06.164-.272.057l-.091.245c-.03.081-.062.166-.486-.052l-.208-.113c.176.197.389.306.116.359-.062.164-.092.246.123.354s.459.134.489.052l-.03.082q.278.285-.089.246c-.245-.026-.491-.052-.551.111-.03.082-.277.055-.277.055-.216-.109-.424-.228-.456-.145l-.211-.115.093-.245c.031-.082.094-.245-.148-.278l-.21-.115-.485-.067c-.486-.068-.486-.068-.064.163.179.197.179.197.148.278-.032.081-.032.082-.243-.034-.212-.115-.423-.231-.667-.265-.212-.116-.424-.231-.391-.312s.244.035.488.069c.212.116.647-.338.227-.567a1.7 1.7 0 0 1-.387-.31c.033-.081.032-.079-.176-.197-.205-.12-.582-.441-.548-.521-.205-.12-.239-.039-.307.122-.169.403-.926.362-1.512-.082-.172-.201-.413-.242-.449-.162-.035.08-.07.16-.278.038 0 0-.168-.206-.132-.285.072-.16.272-.031.48.088.207.121.242.041.312-.119.035-.08.035-.08-.171-.2l-.071.159c-.208-.119-.407-.249-.444-.168-.239-.047-.867-.948-.554-1.06.31-.113-.382-.85-.895-.864l-.112.237c-.037.079-.276.032-.478-.094 0 0-.237-.051-.313.107s-.275.026-.558-.471c-.32-.419-.044-.445.313-.105.358.34.434.182.115-.236-.198-.13-.318-.417-.279-.496.116-.235.117-.234-.592-.39-.473-.104-.473-.105-.315.104.395.261.357.339-.078.156-.237-.053-.277.025-.078.156.198.131.159.209.12.287l-.199-.131c-.358-.34-.199-.131-.039.078.319.418.281.497.204.654l-.316.103-.282-.498c-.16-.21-.082-.365-.082-.365.04-.078.078-.154-.318-.42-.196-.136-.351-.35-.076-.37.08-.155.355-.175.395-.253.234.057.04-.078-.195-.135-.234-.057-.51-.038-.591.117l-.081.155c-.115-.291-.114-.291-.391-.272-.041.077-.081.155.074.369.156.214-.081.155-.277.018s-.393-.273-.433-.196c-.082.154-.238-.06-.156-.214l.164-.308q-.108-.551-.587-.409c-.082.152-.086.158-.387-.281-.302-.437-.301-.437-.471-.131-.084.153-.127.23-.514-.055-.585-.419-1.654-1.446-1.562-1.606.044-.075.088-.151-.102-.299-.191-.148-.336-.372-.292-.447.134-.225-.145-.222-.516-.073-.416.222-.566.005-.479-.603l.138-.224c-.046.075-.281-.007-.281-.007l-.566-.47c-.236-.083-.189-.157-.094-.304.142-.22.61-.057.47.165 0 0 .188.156.609.393.233.081.279.006.325-.068.046-.076.045-.071.233.077.046-.076.044-.07-.141-.226 0 0-.094-.303-.048-.377s.139-.223-.046-.376q-.207-.34.14-.222c.231.079.276.004.187-.296-.136-.226-.042-.373-.042-.373.047-.073.094-.147-.222-.522-.086-.297-.219-.519.01-.442.097-.148.094-.141-.262-.45-.353-.316-.529-.474-.678-.259-.05.072.079.303.079.303.402.249.295.838-.031.902-.555-.036-.561-.021-.008.444.416.233.553.459.369.306-.047.073-.279-.007-.464-.16-.736-.626-1.148-.904-1.249-.754-.1.141.455.648.921.819.281.008.281.008.138.227-.095.146-.377.139-.612.053-.186-.167-.235-.094-.331.052.091.314.091.314-.187-.168-.138-.24-.325-.408-.511-.576l-.539-.573-.51-.599c-.304-.365-.51-.635-.483-.669l.108-.137c.056-.038-.403-.844-.627-1.115-.512-.455-.417-1.037.019-.521l.269.19c-.22-.242-.341-.594-.271-.66.056.096.115.194.182.28.147.317.529.365.699.164.055-.069.127-.116.536.229.234.14.289.07.4-.066-.118-.27-.002-.402.055-.468-.334-.392-.411-.35-.344-.002-.004.396-.164.212-.426-.372-.131-.279-.324-.493-.396-.43-.22-.201-.287-.144-.513-.356-.16-.268-.068.053.093.324.252.591.143.747-.563.062-.414-.516-.4-.528-.4-.528l.072-.052c-.119-.283-.26-.18-.41-.085-.369.247-.369.247-.408-.092-.026-.307-.102-.493-.344-.636-.239-.133-.239-.133-.141.35.087.219 0 0-.25-.396-.424-.837-.511-1.057-.522-1.32.066-.304-.02-.523-.338-.618-.153.084-.415-.579-.184-.702.077-.041.077-.041-.087-.22l-.174-.44.154-.081c.058-.561-.511-1.059-.82-.9-.155.08-.232.12-.242-.141-.087-.221-.165-.182-.319-.102-.145.341-.145.341-.242-.142-.008-.262 0-.265-.156-.45-.078.04-.232-.147-.307-.374l.235-.118c.306.373.388.068.321-.685.004-.264.087-.566.165-.604.157-.077.083-.301-.149-.449l-.157.076c.07.488-.008.527-.232-.149-.075-.225-.145-.713-.145-.713.079-.037.079-.037.005-.262l-.316.149-.32.413.166-.602c.083-.3.246-.636.33-.934.163-.334.163-.334.005-.261s-.54-.53-.381-.602c.079-.036.079-.036.005-.261s-.148-.45-.228-.414l-.005.261c.074.225.074.225-.005.261 0 0-.079.036-.154-.19-.074-.225-.149-.451-.228-.416l-.154-.19c.078-.295-.032-.755-.197-.684l-.161.07c-.062-.229.098-.299.259-.369l.161-.07c-.099.298.026.756.124.457.161-.07.241-.105.303.123l-.08.035c-.084.036-.013.262.063.487l.159-.071c.005-.26.085-.295.085-.295l.005.016a8 8 0 0 1-.133-.47l-.284-.386c-.08.035-.223-.159-.446-.318-.285-.388-.285-.389-.124-.457.081-.034.037-.525-.025-.753s-.043-.49.118-.557c.162-.066.242-.1.304.128l.162-.067c.081-.033.019-.26-.042-.487-.081.033-.062-.227.162-.066.223.159.321-1.134.138-1.81-.061-.226-.041-.483-.041-.483.081-.031.081-.031.142.194s.142.194.223.162c.02-.257.101-.288.264-.351.102-.287-.406-.836-.65-.744l-.163.062c-.061-.226-.123-.451-.203-.421-.225-.165-.305.863-.141 1.803.042.486.022.745-.159 1.07-.2.586-.2.588-.548-.033-.224-.163-.51-.557-.591-.525s-.224-.165-.224-.165c-.143-.198-.062-.23.181-.325.305.134.305.134.019-.261-.124-.458-.348-.625-.348-.625-.081.031-.081.031-.143-.198.019-.261.019-.26.182-.322.3.137.192-.323-.019-.494-.378-.11-.3-1.39.079-1.277.297.142.56.542.577 1.032.108.954.415 1.598.503 1.31.163-.062.163-.062-.061-.227.081-.031.02-.258-.042-.486-.109-.458-.02-.49.06-.52l.246-.092-.099-.458c-.164.061-.263-.399-.148-.687l-.247.089c-.329.12-.593-.282-.759-1.463l-.165-1.18-.33.112c-.083.028-.33.112-.463-.091-.215-.176-.215-.176-.1-.464.116-.287.116-.287-.133-.204-.165.055-.298-.15-.298-.15-.133-.205-.1-.465-.05-.232.133.205.166-.054-.017-.492-.105-.464-.142-.698.027-.752l.083-.027c.038.234.038.234-.044.26 0 0-.033.259.05.232.133.205.441-.391.374-.857l.167-.052c.038.232.084-.026-.038-.233 0 0-.16-.439-.327-.388-.205-.181-.205-.182-.076-.466l.084-.026c-.122-.207-.16-.441-.198-.674-.076-.466-.114-.7.053-.749.168-.049.259-.564.351-1.075.138-.768.072-1.716-.143-1.416-.084.023-.168.046-.122-.209-.038-.232.009-.487.093-.509.126.209.074-.022.019-.487-.054-.466-.022-.953.036-1.207.116-.508.01-1.437-.075-1.417s-.058.253-.031.486c.053.465-.005.719-.089.741-.143.276-.254.064-.366-.148-.027-.234-.085.021-.143.276-.031.489-.116.511-.201.533l-.085.022c.027.234.112.212.196.19.174-.044.266.892.235 1.146l-.336.091c-.211-.188-.246-.422-.376-1.596-.108-.939-.162-1.409-.104-1.665.085-.021.031-.49.004-.725-.112-.214-.054-.469.058-.255.197.194.223.428.25.663.027.234.027.234.112.214.143-.275.089-.742.036-1.21-.112-.214-.112-.214-.197-.194.027.234-.058.254-.143.274-.197-.195-.197-.195-.277-.899.031-.489-.08-.704-.053-.47 0 0-.085.019-.224-.432-.112-.216-.224-.433-.309-.415-.082.019-.091.019.065-.254.155-.273.347-1.268.314-1.739-.016-.235-.102-.218-.171.035-.171.035-.257.052-.273-.184s-.032-.472-.134-.691a1 1 0 0 1-.049-.708c.07-.253.225-.521.295-.773 0 0-.016-.235-.204-.44l-.22-.677.172-.031c.257-.046.257-.046.07-.251-.118-.457-.204-.442-.289-.427l.07-.251c-.02-.236.07-.487.153-.501.006.236.086-.015 0 0l-.012-.472.086-.014c.006.236.092.221.179.207.086-.014.08-.25.074-.485 0 0 .08-.25.167-.263l.173-.028c-.006-.235-.012-.47-.185-.443-.086.014-.167.263-.253.277.012.47-.586.807-.598.333 0 0 .08-.25.253-.278.08-.25.08-.25-.012-.472-.006-.236-.105-.695-.111-.932-.104-.696-.11-.933-.024-.945.605-.088.858-.36.846-.83 0 0-.092-.223-.616-.388-.173.024-.351-.189-.357-.426l.08-.248c.086-.012.086-.012.081-.248-.006-.236.081-.248.167-.259.175-.022.168-.023.258-.269.007-.471.354-.513.351-.279-.007.47.254.436.347-.043a.98.98 0 0 0 .01-.703s.003-.234.094-.479c.094-.478.01-.703-.167-.449-.268.499-.781.09-.774-.382l-.087.01c-.087.01-.083-.226-.076-.698.011-.708.015-.944.094-.481.166.453.166.453.181-.489l.011-.707c.083.227.17.219.257.21.174-.017.257.209.257.209.083.226.17.217.864.148.264-.259.358-.734.098-.709-.087.008-.087.008-.083-.225.087-.008-.083-.226-.343-.202-.09.242-.087.008-.083-.226 0 0 .006-.469-.075-.695.016-.233-.083-.227-.178.25-.09.242-.181.485-.185.72-.007.469-.264.26-.426-.43-.083-.228-.166-.456-.253-.448l-.087.008c.002-.236.197-.486.282-.493l.174-.015c-.149-.454-.273-1.382-.186-1.388.1-.242.225-.953.176-1.652-.049-.7.002-1.641.089-1.646s.087-.005.1-.24c.026-.47.2-.479.261-.015.087-.005.087-.005.187-.244.113-.474.111-.473-.134-.695-.154-.225-.133-.459-.112-.693s.042-.468-.045-.464c-.175.008-.111-.696.106-1.171.196-.24.217-.474.042-.469l.108-.237c.196-.24.196-.239.217-.473 0 0 .108-.236.196-.239.391-.477.391-.476.151-.703-.066-.232-.153-.23-.24-.228-.108.236-.108.236-.066-.232.054-.703.008-1.869-.099-1.633-.029.233-.087.001-.087.001.029-.233.146-.468.233-.468 0 0 .117-.234.175-.7.029-.233.146-.466.233-.467.087 0 .087 0 .117-.233-.058-.232 0-1.398.088-1.397s.029-.233-.029-.467c-.116-.468-.087-.702.03-.934l-.058-.234c-.087-.001-.058-.235.029-.233s.204-.23.233-.464c.108-.696.394-1.386.532-1.15s.299-.224.197-.691c-.102-.468-.101-.468-.175-.005-.124.229-.124.229-.211.227l.037-.232c.037-.232.197-.692.197-.692.037-.232.073-.463-.014-.466s-.174-.006-.138-.238l.087.003c.087.003.174.006.386-.219l.248-.456-.028-.933-.064-.703.339-.449.262-.45c-.087-.005-.175-.01-.131-.24s.044-.23.131-.225c.131.24.262-.449.131-.69-.044-.235-.131-.241-.218-.246-.131.225-.131.225.044-.23.131-.225.175-.454.175-.921-.043-.236-.087-.473 0-.467q.327-.327.131-.691c-.087-.006-.087-.006.131-.224a.37.37 0 0 1 .392-.204c-.044.23.087.007.044-.23l-.043-.237c-.087-.007-.087-.007-.043-.237.042-.231.176-.453.265-.445.124.242.174.015.013-.464-.037-.236-.037-.236.05-.228.124.243.412-.662.389-1.363.064-.693.266-1.608.302-1.37-.05.228.087.009.05-.228.05-.229.188-.448.274-.439.137-.219.224-.21.087.009-.101.456-.114.921-.064.693.137-.219.137-.219.288-.903.05-.228.187-.447.274-.437l-.05.228-.1.455c-.014.464.557.29.781.082.187-.445.187-.445.05-.227-.223.209-.223.209-.347-.037-.037-.236-.023-.701-.023-.701l.05-.227q-.075.342-.26-.029c-.173-.019-.26-.028-.31.2s-.05.228-.137.219l.05-.228c.137-.219.101-.456-.073-.475-.137.219-.137.219-.101.457-.221.211-.167-.488.127-.92.143-.217.2-.443.083-.691l.174.02.174.02c-.2.443-.026.463.26.03.2-.442.2-.442.117.246-.056.226-.026.462.322.502l.521.06.317-.195-.204-.255c-.117-.245-.204-.256-.434-.051-.143.215-.23.206-.204-.256-.117-.246-.117-.247.169-.677.143-.215.256-.667.368-1.118.113-.452.169-.677.026-.463-.316.192-.922.116-.952-.122s.027-.465.084-.692c0 0 .027-.465.084-.693.027-.466.027-.466.143-.216.03.239.116.25.203.262.143-.215.173.024.319.511.116.249.233.498.406.52.26.034.346.046.342-.654.026-.463-.06-.475-.173-.023-.056.226-.056.226-.143.214l-.086-.011c.229-.203.282-1.129.053-.927-.086-.012-.174-.024-.115-.25.038-.461.038-.461-.048-.474-.149.213-.236.201-.236.201.062-.225.211-.438.298-.425q.353-.3.26.037l.149-.212c.062-.224.211-.436.298-.424.086.013.086.013.211-.436.125-.448.273-.66.359-.646.086.013.086.013.124-.448.125-.448.163-.91.163-.91q.093-.336-.258-.041c-.383.408-.47.396-.493.157-.047-.477.141-1.152.289-1.363.087.014.146-.212.214-.435 0 0 .154-.209.241-.194.172.029.327-.18.685-1.056.068-.223.136-.445.05-.46s-.018-.238-.018-.238l.136-.446c-.086-.015-.172-.031-.24.193-.068.223-.068.223-.154.208-.172-.03-.172-.03-.018-.238.086.015.154-.208.222-.431l-.086-.015c-.068.223-.154.208-.24.193s.119-.686.359-.878.308-.415.068-.223c-.394.4-.48.385-.326.177l.137-.447c-.086-.016-.017-.24.291-.655.154-.208.24-.191.24-.191l.171.032.14-.445c-.172-.033-.025-.476.22-.664.086.017.159-.205-.012-.238-.012-.238-.024-.477.049-.699s.074-.222-.012-.239l-.147.444-.012-.239c.062-.461.062-.461.221-.666.331-.17.489-.374.307-.648-.097-.257.062-.462.404-.391.012.239.403-.39.306-.647-.012-.24.136-.683.306-.647.085.018.012.24-.062.461s.012.24.097.257.085.018.159-.203c.044-.702.616-1.996.781-1.959.085.019.085.019.321-.639.314-.877.314-.877.654-.799q.255.06.235-.657c-.006-.239-.091-.259-.261-.299-.248.179-.255-.06-.104-.739-.007-.478.08-.695.331-1.111.419-.851.419-.851.333-1.111-.169-.042-.086-.261.166-.916l.335-.873c.002.24.756-.284.844-.499-.085-.022-.081-.261.008-.477.088-.216.181-.671.097-.694-.169-.045-.169-.045.089-.216.261-.41.346-.387.341-.148l-.265.648c-.088.216-.088.216-.004.239 0 0 .173-.193.349-.625.177-.432.177-.432.084.023-.008.477-.008.477.084.023.177-.431.181-.67.101-.932q.252.07.517-.578c.433-.6.353-.863-.075-.502-.433.601-.518.578-.513.338.089-.216.089-.216.261-.409.257-.169.256-.169.173-.193s.005-.24.35-.625c.177-.19.354-.38.447-.594 0 0 .093-.214.177-.19l.093-.214.168.049c.159.288.159.287-.018.477-.177.189-.27.403-.27.403-.093.214-.009.238.075.262q.266-.284.252.072c.075.262.075.261.261-.165.093-.213.287-.877.296-1.115s.018-.477.111-.69c.093-.214.009-.239-.074-.264-.167-.05-.251-.075-.344.139s-.093.214-.261.164l-.167-.05c-.186.429-.354.38-.242-.314-.074-.264.02-.48.187-.43.084.025.084.025.177-.19.01-.24.187-.429.344-.139.25.076.334.101.613-.541.103-.454.27-.402.25.077-.01.24.074.265.426-.111.174-.189.442-.347.442-.347l.25.078c.253.079.398.365.131.764-.176.187-.009.238.342-.135.444-.343.831-1.182.567-1.025-.083-.026-.07-.263.027-.474l.388-.842.097-.21c.097-.21-.083-.027-.263.156s-.346.13-.429.103c.014-.238.014-.238.292-.633.18-.184.263-.156.346-.129s0 0-.18.184c-.083-.027-.18.184.083.027.331.109.414.136.138.53-.097.21-.194.421-.028.474l.332.108s.18-.183.276-.392.097-.21.179-.182c.083.027.262-.155.441-.337.277-.39.271-.393.392-.834.018-.235-.064-.263-.147-.291 0 0 .018-.236.12-.443.203-.416.386-.595.368-.359l-.019.236c.101-.207.202-.415.221-.651-.064-.265.139-.681.202-.415.063.265.228.323.311.352.266-.149.266-.149.568-.769.401-.828.438-1.057.038-.473-.201.414-.103.206-.061-.265.235-.645.236-.646.423-.82q.123.045.318-.616c.024-.236.049-.472-.033-.503.057.267-.155.677-.318.617-.082-.03-.27.145-.376.351-.082-.03-.106.206.082.03.082.03.164.06-.024.236-.106.206-.212.411-.13.441.057.264-.046.47-.291.383q-.246-.088-.55.535c-.101.208-.203.416-.285.387s-.266.15-.368.359-.305.624-.387.596c-.184.18-.102.208.064.265.165.056.064.264-.139.68-.105.206-.46.572-.543.545-.345.128-.345.128-.069-.265.192-.421.625-1.488.458-1.546 0 0-.184.18-.286.389s-.083-.028-.063-.265c.019-.237.039-.475-.063-.266-.083-.028-.204.419-.141.684-.018.237-.04.473-.138.683-.097.211-.525.312-.774.23-.166-.055-.346.13-.444.341-.181.185-.098.212-.015.239.263-.157-.029.476-.292.634 0 0-.098.212-.112.45-.112.449-.112.449-.292.634l-.25-.079c.098-.212.112-.45.029-.476-.152-.291-.152-.291-.25-.079l-.098.212c-.167-.053-.265.16.421-1.327.294-.637.49-1.062.573-1.035s.346-.13.609-.287c.371-.365.37-.364.39-.602-.063-.266-.331-.112-.536.309 0 0-.063-.266-.146-.294-.249-.083-.312-.35.101-1.195.103-.211.289-.394.371-.366l-.206.422c-.103.211-.103.211-.02.239s.145.295.042.506-.02.239.063.267l.103-.21c.103-.21.288-.393.371-.364.268-.153.268-.153.103-.21.02-.239.02-.239.205-.42s.205-.42.123-.449-.165-.058.02-.239c.267-.152.288-.392.123-.45.185-.181.267-.152.349-.123-.017.24.074.027.236-.657.133-.447.051-.477-.031-.507s-.164-.06.134-.448c.108-.209.216-.418.026-.239-.082-.03-.164-.06-.056-.27s.217-.419.135-.45-.164-.061-.055-.271.108-.21.163.061c-.053.481.274.602.408.154.027-.24.19-.178.137.301-.16.687.004.747.137.3l-.026.239c-.026.239.056.269.138.299.46-.324.781-.946.619-1.008l-.107.208-.215.416-.163-.061c.668-1.489.763-1.453.782-.946q-.038.358.244.094c.194-.174.161.062.137.301-.133.445.006.744.3.363l.326.125c.138.299.138.299.432-.08.19-.173.192-.172.11-.204 0 0-.052-.267.171-.674.171-.674.072-1.214-.183-.568-.142.44-.142.44-.355.108-.132-.301-.213-.333-.437.077-.225.41-.225.411-.081-.032q-.075-.404.337-.616c.192-.237.291-.305.361-.321-.348.322-.186.377.268.073.274-.139.386-.344.386-.344l-.161-.066c-.081-.033-.162-.066-.13-.304.144-.443-.017-.51-.323-.132-.081-.033-.355.107-.436.075-.162-.065-.243-.098-.049-.272.227-.413.307-.38.436-.074-.032.239.081.033.194-.173.233-.41.72-.206.682.03-.156.439.367.403.565.236.396-.335.513-.536.154-.438l-.081-.035h.001c.316-.37.636-.231.482.205l-.117.201c.315-.368.197-.166.161.068.163-.191.305-.248.417-.191q.555-.917 1.152-1.814c-.183.05-.273-.029-.19-.162.124-.198.168-.433-.07-.543-.159-.073-.192-.346-.067-.546l.079.037c.079.037.158.074.361-.088.079.038.125-.199-.237-.112-.237-.112-.395-.186-.269-.387.252-.403.754.102.787.376-.012.509-.012.509.281-.123.243-.397.393-.589.676-.706l.185.094c1.297-1.693 2.748-3.288 4.266-4.782 3.24-3.189 7.017-4.698 11.787-4.472 8.609.409 16.924 1.991 24.999 4.883 8.874 3.178 17.701 6.486 26.557 9.714.459.167 1.151.315 1.459.092.284-.206.342-.951.253-1.411-1.52-7.909-4.551-15.271-8.193-22.407-.578-1.131-1.525-2.195-1.713-3.383-.742-4.697-4.202-7.408-7.287-10.386-.749-.723-1.835-1.125-2.811-1.578-5.157-2.395-10.663-3.361-16.262-4.027-7.207-.858-14.376-1.31-21.647-.441-6.092.728-12.26.799-18.389 1.235-4.882.347-9.593 1.394-14.299 2.869-5.517 1.729-11.257 2.76-16.923 3.993-6.034 1.312-12.094 1.597-18.314 1.328-7.453-.323-13.809-6.425-14.008-14.451-.117-4.678.832-8.993 3.42-12.866 4.866-7.282 11.071-12.903 19.699-15.407.871-.253 1.723-.574 2.575-.888.926-.342.94-.916.396-1.639-.655-.87-1.342-1.724-1.92-2.644-3.079-4.898-3.782-9.934-1.557-15.489 1.75-4.371 4.278-7.993 8.05-10.71 3.233-2.328 6.587-4.49 9.914-6.685 3.222-2.125 6.827-3.304 10.521-4.335 2.957-.825 5.973-1.679 8.696-3.05 4.509-2.271 9.318-3.104 14.194-3.361 5.798-.306 11.623-.072 17.437-.072l.008.399c4.511-.112 9.022-.267 13.533-.319a72 72 0 0 1 6.522.24c7.416.584 14.818 1.379 22.242 1.795 5.3.297 10.431 1.024 15.338 3.144 2.327 1.005 4.754 1.781 7.138 2.655 3.798 1.392 7.126 3.576 10.279 6.062 5.464 4.309 10.189 9.293 13.794 15.27 2.338 3.877 4.573 7.816 6.861 11.723.638 1.089 1.273 2.182 1.976 3.228.142.211.588.218.894.32.096-.337.324-.7.264-1.006a49 49 0 0 0-.884-3.694c-1.17-4.194-2.38-8.376-3.547-12.571-1.56-5.602-3.491-11.032-6.105-16.269-3.237-6.488-6.045-13.193-8.98-19.829-.879-1.988-1.568-4.06-2.336-6.096-1.661-4.402-1.171-8.868-.41-13.348.349-2.055 1.479-3.689 2.759-5.24.576-.698.459-1.195-.143-1.835-.464-.493-.973-1.389.265-1.552 9.904-1.305 19.614-1.053 28.534 4.208 5.416 3.194 9.955 7.337 12.576 13.18 3.264 7.275 6.421 14.6 7.901 22.513.299 1.6.954 3.131 1.3 4.726.614 2.83 1.354 5.662 1.621 8.532.656 7.045 1.008 14.117 1.605 21.168.674 7.961 2.029 15.822 3.57 23.662 1.649 8.388 3.907 16.607 6.391 24.769a86 86 0 0 0 3.152 8.693c3.634 8.498 7.497 16.862 12.093 24.928 6.901 12.11 16.034 22.355 25.43 32.454a79 79 0 0 1 5.581 6.675c2.164 2.91 4.039 6.007 7.027 8.254 1.104.83 1.734 2.28 2.608 3.426 1.421 1.866 1.508 3.228-.586 4.513M256.485 356.388c2.009 5.846 4.859 11.297 8.064 16.553.926 1.517 2.333 2.754 3.599 4.042.288.292 1.004.479 1.344.323.424-.193.761-.752.953-1.227.196-.486.17-1.061.276-1.854-.305-8.926-5.548-14.721-13.07-18.96-.214-.121-.72-.019-.896.164-.208.217-.363.69-.27.959m1.939-75.654c.468-.77.871-1.614 1.116-2.477 1.059-3.731 3.139-6.908 5.287-10.061.918-1.348 1.876-2.688 2.62-4.133 1.975-3.834 4.973-6.665 8.523-8.972 4.585-2.98 9.579-5.113 14.639-7.146a38.4 38.4 0 0 1 12.151-2.714c8.486-.507 16.53 1.051 24.401 4.286 9.009 3.703 16.562 8.953 21.177 17.764 1.085 2.072 2.233 4.217 2.736 6.466.986 4.411 1.575 8.908.766 13.466-.316 1.779-.559 3.597-.576 5.399-.06 6.199-2.28 11.678-5.484 16.819-1.338 2.146-3.027 4.073-4.366 6.218-3.299 5.282-7.811 9.468-12.174 13.798-3.632 3.604-7.915 6.29-12.268 8.912-5.147 3.101-10.495 5.67-16.377 7.035a87 87 0 0 0-3.69.939c-.408.114-.637.501-.654.915.36.299.353.433.026.308q.055.24.215.444c.396.235.704.237.54-.058.09-.192.091-.192.755.3 1.058.588.977.786.169.615-.771-.269-.514.154.217.523.385.135.727.368.727.368.26.435.622.633 1.081.557.46-.084 1.078.543.588.729l-.107.301c.365.183.741.333 1.108.502 1.136.401 1.133.381 2.171 1.119.7.465.706.451.73.35.051-.204.785.101 1.482.624-.025.118.727.397 1.106.524.754.268.753.269.783.058-.343-.344.031-.21.402-.077.753.227 1.499.542 1.482.757 0 0 .068.04.16.089q.699.129 1.412.223c.082-.054.298-.021.578.07a31 31 0 0 0 1.622.148c3.62.223 7.262.193 10.892.128a22 22 0 0 0 2.226-.17c.144-.059.238-.116.224-.155-.039-.098.373-.183.454.012.455.012.456.013.415-.085s.373-.183.787-.267c.501.123 1.241-.282.784-.276-.044-.096-.044-.096.368-.2.823-.206 1.328-.117 1.375-.022.046.093.462-.002.875-.116.412-.121 1.236-.362 1.286-.268.46-.035.881-.13 1.646-.498 1.173-.502 1.172-.5 1.28-.317-.379.126-.404.138-.363.212.426-.151.85-.306 1.266-.474-.007-.041-.04-.078-.139-.102-.165-.277-.162-.266.349-.239.255-.034.396.007.477.05 6.174-2.644 11.323-7.012 15.81-12.118 7.136-8.122 11.715-17.837 14.114-28.431 1.879-8.295 2.287-16.768 2.468-25.247.021-10.078-1.414-19.855-5.556-29.164-1.993-4.478-4.076-8.89-6.374-13.223-3.27-6.168-8.303-10.959-12.387-16.485-.106-.143-.261-.252-.4-.368-5.315-4.46-11.065-8.148-17.954-9.63-4.456-.959-8.701-2.424-12.85-4.308-2.785-1.264-5.747-1.713-8.911-1.766-6.559-.11-12.907 1.331-19.359 1.947-5.313.507-9.971 3.009-14.824 4.959-1.933.776-3.523 1.751-4.847 3.289-3.421 3.974-6.364 8.247-8.567 13.033l.046.112c-.125.211-.241.428-.361.642-1.597 3.834-2.034 7.884-2.327 11.966-.426 5.934-1.469 11.805-1.606 17.774-.103 4.522-.745 9.036-.769 13.556-.011 2.167-.697 4.744 1.599 6.437 2.026-1.16 2.667-3.346 3.779-5.176m72.478 16.209c-.007 1.813-.166 3.625-.165 5.438 0 .384.4.769.615 1.153.263-.227.625-.402.775-.688 1.762-3.369 3.068-6.874 3.18-10.742.078-2.69.233-5.378.301-6.891 0-2.791.1-4.405-.019-6.002-.325-4.363-1.702-8.113-5.922-10.319-5.137-2.685-10.166-5.576-15.307-8.251-3.752-1.953-7.937-2.542-12.037-3.293-1.005-.184-2.127.241-3.189.421-.139.024-.284.237-.345.394-.025.065.142.265.259.315.999.43 2.01.829 3.01 1.256 3.682 1.572 7.304 3.319 10.194 6.128 7.072 6.874 13.218 14.438 16.977 23.707.965 2.381 1.683 4.797 1.673 7.374m-42.786-27.244c-1.462-.292-2.911-.396-4.207.425-3.021 1.912-5.252 4.387-5.613 8.164-.327 3.416-.535 6.859-1.142 10.227-.802 4.451.547 8.197 3.072 11.703.539.749 1.094.711 1.464-.272 1.87-4.969 5.918-8.126 9.503-11.698 2.768-2.759 6.01-3.909 8.56-3.647 2.548.177 3.82.214 5.078.363 2.277.269 4.051 1.405 5.447 3.222.775 1.009.828 1.986.103 2.968-1.193 1.617-2.602 2.946-4.467 3.863-2.094 1.029-4.028 2.38-6.067 3.528-1.575.887-3.147 1.828-4.824 2.478-3.199 1.239-6.471 2.289-9.713 3.415-1.381.48-1.504 1.198-.288 2.238 1.376 1.176 2.984 2.122 4.198 3.438 2.73 2.96 6.315 4.134 9.985 5.174 1.736.492 3.518.832 5.288 1.194 2.94.602 3.708.285 5.389-2.344 2.682-4.195 3.66-8.911 4.583-13.747.911-4.771-.044-8.989-2.367-12.964-1.637-2.8-3.481-5.56-5.664-7.942-4.918-5.365-11.221-8.368-18.318-9.786m-13.693 44.133c-4.071-5.653-7.432-11.557-8.644-18.509-.061-.352-.168-.729-.368-1.015-.246-.351-.613-.618-.927-.921-.213.287-.54.544-.622.865-.717 2.799-1.286 5.64-2.097 8.411-1.557 5.324-2.304 10.581.513 15.745-.118 3.219 2.079 4.721 4.424 6.265 2.175 1.432 4.542 2.206 7.02 2.76.872.195 1.987-.03 2.625.436 2.685 1.964 5.789 1.847 8.875 2.438 1.592-.196 3.187-.368 4.772-.608.301-.046.562-.36.841-.551-.216-.276-.374-.682-.657-.81-6.858-3.1-11.475-8.563-15.755-14.506m11.258-111.864c.08-.012.16-.019.241-.03a1 1 0 0 0-.241.03m-4.162.786.069-.016q-.006-.004-.012-.008zm-57.996-43.037c.105-.154.206-.309.313-.462-.014.007-.031.01-.043.019-.247.109-.468.428-.27.443m10.654 165.222c-.189-.278-.316-.701-.577-.812q-1.253-.534-2.505-1.072c.197.121.406.284.388.346-.024.083.136.352.312.603.37.426.573.599.014.844-.023.084-.023.084.201.173l.224.088c-.011.041.038.083.114.125.319.047.642.107.974.19.23.058.568-.313.855-.485m-21.342-50.917c.051 1.261.039 2.555.325 3.772 1.275 5.442 2.505 10.901 4.042 16.271.787 2.75 2.046 5.398 3.361 7.953.721 1.401 1.933 2.579 3.051 3.734.871.9 2.003.57 2.7-.53 1.646-2.6 1.728-5.404 1.264-7.439-.122-1.951-.141-3.039-.265-4.114-.691-6.009-2.677-11.586-5.774-16.76-1.582-2.642-3.908-4.169-7.064-4.341-1.088-.06-1.685.353-1.64 1.454M187.374 92.225c-3.837 1.031-7.422 2.794-10.566 5.304-.778.621-.824 1.424-.563 2.425.282 1.085.518 2.088 1.55 2.698 2.53 1.494 5.246 2.377 8.562 2.546.705-.175 1.774-.353 2.782-.704 4.991-1.739 7.211-5.714 8.349-10.519.465-1.962-.153-2.868-2.067-2.732-2.698.19-5.462.287-8.047.982m31.342-43.754c-3.082.984-6.195 1.89-9.223 3.019-2.348.875-4.58 2.056-6.879 3.068-1.455.641-2.397 1.704-2.375 3.292.023 1.643 1.316 2.51 2.585 3.214.774.429 1.67.711 2.545.869 1.946.351 3.913.583 5.871.863 3.039.549 4.726-1.08 6.2-3.437 1.87-2.99 2.552-6.302 3.092-9.681.148-.924-.793-1.534-1.816-1.207m144.475-14.983c-2.904-7.5-6.992-14.278-12.438-20.217-.763-.832-1.7-.623-1.965.523-1.058 4.585-1.706 9.214-1.882 13.937-.112 3.015 1.287 4.866 3.693 6.06 2.927 1.453 6.057 2.352 9.097 2.359.828-.039 1.373-.047 1.914-.094 1.662-.144 2.197-.976 1.581-2.568M72.121 576.2c-1.01-1.253-1.805-2.679-2.805-3.941-1.31-1.652-5.473-2.24-6.908-.73-1.327 1.396-2.717 3.139-3.11 4.94-1.27 5.828-1.737 11.766-.738 17.726.442 2.638 2.002 4.574 3.935 6.264.197.172.809.24.869.141.916-1.528 2.875-.563 3.735-1.348 3.337-3.04 6.482-6.313 5.933-11.451-.114-1.065.071-2.161.119-3.243l.146.002c0-1.625-.033-3.252.01-4.876.036-1.325-.34-2.436-1.186-3.484m316.278-74.637c1.353 1.971 1.204 2.536-.284 4.271-2.159 2.519-4.639 4.568-7.836 5.579-11.846 3.746-22.578 9.804-33.234 16.01-2.704 1.575-5.489 2.649-7.424 2.605-4.479-.203-5.941-1.712-6.459-4.858-.409-2.485-.165-4.618 1.67-6.469.499-.503.831-1.19 1.17-1.828 2.212-4.163 4.442-8.317 6.594-12.511 3.06-5.963 6.097-11.939 9.068-17.946 1.559-3.151 4.033-5.568 6.281-8.162.687-.793 1.696-1.396 2.67-1.832 2.576-1.151 5.178-.519 6.645 1.917 1.729 2.87 4.034 5.043 6.618 7.109 5.711 4.56 10.394 10.105 14.521 16.115m-12.262.812c-.279-.434-.531-.914-.864-1.329-3.329-4.153-8.045-6.686-11.939-10.184-.807-.725-1.351.17-1.704.679-2.982 4.3-5.716 8.777-9.176 12.734-2.137 2.444-4.309 4.86-6.356 7.379-.643.792-1.163 1.842-1.3 2.834-.106.764.313 1.762.831 2.374.216.255 1.345-.104 1.97-.383a56 56 0 0 0 4.365-2.186c6.954-3.863 14.016-7.493 21.528-10.174a12 12 0 0 0 1.956-.923c.274-.157.436-.507.689-.821m-176.533-52.914c-1.646-1.355-3.344-1.389-4.956-.138-.482.374-.617 1.195-.91 1.811.482.179.952.401 1.446.53 1.722.45 2.03.809 1.487 2.035-1.531 3.452-2.642 7.074-4.734 10.302-1.879 2.899-4.068 4.976-7.67 5.35-4.068.423-7.498 2.525-10.946 4.516-1.813 1.047-2.927 2.742-3.637 4.596-.749 1.955-.487 4.02 1.003 5.569 1.115 1.159 2.672.87 4.096.388 1.324-.448 1.691-1.555.977-2.879-1.127-2.09-.918-2.953.928-3.765 2.714-1.194 5.564-1.487 8.657-1.291 3.947 1.204 7.624-.479 10.465-2.842 4.041-3.363 7.115-7.789 8.138-13.152.853-4.477-.877-8.176-4.344-11.03m32.83-125.111-.22-.087c-.023.084.176.256.176.256.221.087.221.087.243.003.022-.085.022-.085-.199-.172m-5.306.283.057-.166s-.244-.025-.704-.159c-.735-.078-.737-.079-.087.247.649.326.649.326.734.078m-1.72-.184c.188.191.406.301.435.219s.464.136.681.245.246.026.246.026c.028-.083-.839-.517-1.706-.953-.248-.028-.279.053.344.463m-3.095-1.959c.245.034.063-.158-.347-.402l.173.202c-.034.081.174.2.174.2m-3.758-2.646c-.239-.047-.276.032-.312.112.203.126.203.126.442.173.274-.034.145-.318-.13-.285m-1.235-.157c.28-.034-.096-.356-.491-.623-.199-.131-.398-.263-.437-.184s.161.21.161.21c.199.131.199.131.161.21-.076.16.326.42.606.387m-4.725-3.282c.238.059.081-.152-.309-.429-.387-.284-.387-.285-.042.077.153.217.31.428.351.352m-5.255-4.347c.14-.221.141-.221-.096-.305-.426-.241-.427-.242-.331.063s.287.464.427.242m.851-3.489.128.231.226.086.049-.073c-.176-.157-.354-.316-.403-.244m-1.748 2.158c.048-.073.048-.073-.14-.242l-.376-.338.278.483c.14.243.189.17.238.097m-.714-.292c.099-.144.099-.144-.09-.314 0 0-.239-.098-.289-.027l.14.242c.189.172.189.172.239.099m-1.535-1.465c-.386-.389-.387-.39-.247-.125l.388.39c.053-.071.053-.071-.141-.265m-.737-1.455c.055-.069.054-.068-.182-.354 0 0-.234-.287-.293-.223l.179.357c.24.29.296.22.296.22m-2.985-5.151.011.264.088.222c.076-.042.076-.042-.011-.264zm.711.147c-.011-.263-.01-.262-.251-.399-.306.168-.306.168-.132.611.186.707.415.577.383-.212m-.918-1.379c-.231.124-.308.165-.22.387.099.486.416.581.548-.027.077-.042.143-.345.143-.345-.086-.221-.24-.139-.471-.015m-1.478-3.753-.235.116c.149.453.306.374.235-.116m-.839-9.624-.061-.226c-.204-.42-.366-.357-.305-.13.123.453.346.614.366.356m-3.386-6.489-.05-.232-.033.26.05.233c.083-.028.083-.028.033-.261m-.609-7.435c.084-.023.122.21.16.443.114.7.32.884.533.58s.176-.534-.235-.906c-.206-.186-.374-.141-.458-.117m.523-1.835-.027-.233c-.138-.445-.223-.423-.085.022.027.233.112.211.112.211m-1.374-30.651.026-.47c-.07-.23-.364.252-.374.489-.013.235.248.22.348-.019m.211-4.445c-.021.234.066.232.066.232.087-.002.087-.002.108-.237 0 0 .021-.234-.066-.232zm.27-8.891c.037-.233.074-.466-.014-.468l-.124.231.051.235zm1.181-1.37-.124.229-.037.232c.087.002.087.002.124-.229zm3.291-13.999c.087.009.087.009.137-.219l.05-.229c-.087-.009-.224.21-.224.21-.05.229-.05.229.037.238m.964-2.928.057-.227c-.087-.01-.23.206-.23.206-.057.227.03.237.03.237s.087.011.143-.216m.707-3.185c.218-.207.512-1.567.488-1.805s-.197-.263-.173-.025c-.063.225-.125.451-.212.438-.087-.012-.149.213-.212.439-.04.463-.036.464.05.475.086.012.086.012.03.239-.058.227.029.239.029.239m1.107-2.417c.235-.199.235-.199.125-.45l-.345-.052-.086-.013c.086.013.024.238-.039.463-.126.451-.039.463.345.052m-.182-.965.125-.45.063-.225c-.149.212-.149.212-.172-.027l-.172-.027c-.127.452.007.942.156.729m1.136-.527.062-.224c-.086-.014-.235.197-.235.197-.062.224.024.238.024.238s.087.013.149-.211m.018-2.577c.172.029.172.029.068-.223-.086-.015-.104-.253-.036-.476.068-.224.136-.447.05-.462s-.24.194-.24.194c-.068.224.018.238.018.238.086.015.018.238-.05.462 0 0 .104.252.19.267m2.976-9.82c-.25.183-.243.422.013.477.171.037.256.055.25-.183.079-.22.157-.44.321-.641.328-.402.485-.841.479-1.08.072-.459-.183-.517-.341-.077-.079.22.006.239.006.239.249-.182.177.277-.066.698l-.171-.038c.079-.22.072-.459-.013-.478s-.164.201-.158.44c.094.26.015.479-.32.643m1.705-2.704s.079-.22-.006-.239l-.164.2c-.079.22.006.239.006.239.086.019.086.019.164-.2m-.261-.299c-.006-.24-.006-.24-.17-.04-.085-.02-.249.181-.249.181l.17.039c.255.059.255.059.249-.18m1.067-2.605-.001-.239-.168.197c-.084.218.001.239.086.26zm2.063-5.216c.089-.216.177-.433.093-.456l-.089.217c-.089.216-.177.433-.261.41l.084.023c.085.022.085.022.173-.194m-.257.17c-.037-.01-.052-.014 0 0m1.535-3.43-.187.43c-.01.239-.103.454-.103.454-.271.405-.103.453.168.049.261-.166.448-.595.27-.405l-.168-.049c.095-.215.104-.455.02-.479m1.945-2.081c.083.026.167.052.265-.16 0 0 .098-.212.014-.238-.083-.026-.265.16-.265.16-.097.212-.014.238-.014.238m1.571-.718c.014-.237-.25-.079-.361.369l.25.079c.097-.21.097-.21.111-.448m-1.82.64c.263-.161.587-1.274.42-1.328-.083-.026-.167-.053-.068-.266 0 0 .098-.213.015-.239-.083-.027-.378.613-.211.665l-.015.239c-.267.161-.406 1.091-.141.929m4.033-2.335c.094-.21.2-.416.116-.444l-.184.18c-.098.209-.111.447-.111.447.083.026.083.026.179-.183m-.806-4.681c.105-.211.323-.628.457-1.078.351-.869.161-.689-.299.389-.353.868-.339.872-.158.689m3.441-3.939c.113-.206.113-.206.032-.239s-.081-.032-.194.174c0 0-.113.206-.032.239.081.032.194-.174.194-.174m.99-2.123c-.2.171-.358.615-.277.648s.081.033.2-.171l-.081-.034s-.081-.034.039-.239zm.034-.058c.018-.031.016-.027 0 0m.733.635c.081.034.161.068.279-.135 0 0 .038-.237-.123-.306-.08-.034-.279.135-.279.135-.118.204.043.272.123.306m-.408-1.192c-.2.171-.12.205-.039.239s.2-.17.319-.375-.16-.07-.28.136m.81 1.362c-.034-.015-.047-.02 0 0m-6.945 155.251c-.018.035-.021.041 0 0m.215-146.633c-.103.211 0 0 0 0m5.251-7.22-.025.025a.18.18 0 0 1 .106.008zm.081.033c.035.014.05.02 0 0m.179 157.722c-.035.08.207.121 0 0m2.01-161.351c.126-.202.331-.367.411-.33l.159.073c.33-.364-.349-.422-.715-.328-.286.13-.493.298-.493.298-.252.408.432.451.638.287m3.32-2.561c.127-.196.287-.386.207-.429 0 0-.233.15-.36.347-.133.196-.056.237-.056.237.076.04.076.04.209-.155M69.744 526.339c.052-.071.052-.071-.143-.285 0 0-.195-.214-.247-.143l.143.285c.195.215.247.143.247.143m-4.396-3.664s.056-.069-.129-.294l-.185-.225c-.056.068.073.363.073.363.186.225.241.156.241.156m-.687.393c.111-.138-.075-.364-.075-.364-.186-.227-.112.137-.167.206.187.227.187.227.242.158m-1.868.458c-.056.069.078.368.078.368l.112-.137.056-.069c-.191-.231-.191-.231-.246-.162m.709-1.322c.113-.135.057-.067 0 0m-.3-.092c-.245-.161-.038.5.151.73l.112-.137c-.132-.297-.075-.365.037-.501-.187-.227-.244-.16-.3-.092m.769-.02-.373-.454c-.243-.16-.243-.16-.057.068.317.522.56.681.43.386m-1.844-.059.132.298c.189.23.435.393.435.393.056-.068.056-.068-.133-.298s-.377-.46-.434-.393m.444-.975.052-.06c.546.254.545.253.172-.201l-.114.134zm.682-.796c-.358-.026-.358-.026-.229.267s.129.294.315.52c.057-.067.243.159.429.386-.057.068.186.227.057-.068-.186-.226-.072-.361-.015-.428-.242-.158-.243-.159-.371-.451.113-.134.056-.067-.186-.226m.556.677c.299.091.114-.135 0 0m-2.155 1.201c.247.164.303.096-.076-.366-.057.067-.114.134.076.366m-.076-.366c.057-.067-.19-.231 0 0m.195-1.128c-.058.067.131.296.131.296.188.229.245.162.303.095l-.188-.229s-.188-.229-.246-.162m1.201-1.815c-.184-.224-.301-.093.011.423.127.291.312.516.312.516l.058-.066c-.185-.225-.312-.516-.254-.582s.058-.066-.127-.291m-2.632 2.12c.115-.133-.074-.364-.38-.464s-.307-.101.075.364c.189.232.247.166.305.1m-2.114-.301c-.181-.246-.362-.491-.421-.426-.119.131.063.378.303.558zm.175-2.395-.06.064c-.06.065.178.242.357.485l.06-.065zm-.458-2.086c.061-.063.061-.063-.115-.303l-.238-.177.115.303c.177.24.177.24.238.177m.171.671-.531-.722c-.592-.66-.778-.474-.484.073.178.242.178.242.239.179s.061-.063.239.179c.177.241.653.596.537.291m-1.506-.146c-.122.126-.302-.118-.481-.362l-.061.063c.118.307.118.308.359.489.481.363.781.478.424-.009-.001 0-.179-.244-.241-.181m-.276-.991c-.456-.38-.52-.318-.416-.002.166.253.229.191.52.317.186-.188.186-.188-.104-.315m.587-1.001c-.164-.25-.227-.188-.353-.063-.126.124-.126.125.164.25s.415 0 .189-.187m-1.581-.514c-.394-.444-.586-.262-.42-.008.167.255.751.514.585.261zm-.443.43c.166.255.063-.061 0 0m-.27-.57c.064-.061.064-.061-.103-.315-.23-.193-.23-.194.039.376.103.316.103.316.333.509-.166-.254-.333-.509-.269-.57m-.344-1.318c.128-.12.129-.12-.166-.253-.359-.074-.424-.015-.027.434 0 0 .166.254.23.194 0-.001-.101-.315-.037-.375m1.656.473c-.1-.311-.2-.621-.234-.99l-.295-.926-.194.178c-.13.118-.031.428.133.678s.327.5.099.31-.292-.13-.292-.13c-.064.06-.064.06-.228-.191l-.328-.502c-.065.059.264.562.428.813.492.754 1.175 1.321.911.76m-3.991-7.057c.069-.055.069-.055-.066-.322s-.27-.534-.34-.48c0 0 .066.322.201.589.135.268.205.213.205.213m-2.35-.805c-.07.053-.072.435-.072.435.138.274.208.219.278.165s.002-.381.071-.435c-.137-.272-.207-.218-.277-.165m.709-1.287.066.322.206.216.07-.053c-.135-.269-.271-.538-.342-.485m.559-.048s-.206-.215-.276-.163.201.59.406.805c.205.214.21-.16-.13-.642m-.778.96c.073-.431.074-.43-.203-.595-.414-.437-.486-.386-.281.212.066.325.481.762.484.383m-3.868-5.748c.075-.048.069-.045-.037-.336 0 0-.108-.29-.183-.242s-.042.386-.042.386c.107.291.192.238.262.192m-2.479-8.028c-.103-.631-.181-.592-.248-.217-.078.04.012.337.103.633.17.257.248.215.145-.416m-1.793-7.196c.082-.032.304.206.304.206.082-.033.082-.032-.199-.575-.14-.272-.281-.545-.363-.513-.023.337.036.643.258.882m.072-1.009q.21.408.247-.094c.107-.366.107-.365-.198-.575l-.247.093c-.141-.274-.025.336.198.576m.073-1.003-.043-.305s-.043-.305-.126-.275-.041.336-.041.336c.043.306.128.275.21.244m-.883-3.223-.042-.307c-.042-.307-.08-.615-.08-.615s-.045.334-.004.642c.042.307.042.307.126.28m.355-15.853s.087-.011.104-.316l.016-.306c-.087.01-.191.327-.191.327-.016.305.071.295.071.295m.318-2.751c-.029.304.292-.328.321-.631s-.147-.29-.292.327zm.446-1.843-.265.019c-.156.613-.071.605.265-.019m2.986-11.599c-.176-.01-.247.283-.071.292.123.596.458.318.423-.273.07-.291-.018-.296-.106-.301-.07.291-.158.286-.246.282m.458-1.157c.054-.589-.368-.322-.686.254-.159.288-.159.288.193.308.528.031.528.032.493-.562m2.944-5.307h-.003l.04.005zm.106.013-.07-.008.051.006zm-.005-1.76c.088.012.093-.281 0 0m220.126-231.971c-.388.293.133.16 1.028-.222.897-.388.898-.388-.064-.086-.512.107-1.028.219-.964.308m12.525-4.766c.179.265.179.265.55.006.8-.429.8-.429.251-.435-.55-.006-.98.165-.801.429m2.865-.586c.06.088.06.088.486-.084l.939-.362-1.06.186c-.485.084-.425.172-.365.26m2.157-1.167-.553.097c-.492.186-.491.186-.429.273.125.175.125.175.614-.01.001.001.429-.272.368-.36m2.453-.945c.056.091.056.091.565-.069 1.024-.31 1.042-.282.457-.249zm3.423-.286c.049.094.047.09.576-.012 0 0 .528-.103.482-.2l-.578.007c-.533.102-.48.205-.48.205m10.587-1.355-.555-.121-.532-.016c.025.105.025.104.556.12zm-.887.701c.547.12.545.12 1.024-.073-.09-.419-.09-.42-1.148-.451-1.636-.1-1.535.202.124.524m2.963-.691c-1.062-.181-1.512.101-.405.597.02.106.567.354.567.354.511.037.478-.174.427-.49-.051-.317-.069-.423-.589-.461m8.867 1.447-.021-.319c-.938-.15-.923.064.021.319m33.239 8.838.46.238-.436-.342-.46-.238c-.024.105-.024.105.436.342m10.618 8.714c.242.618.593.967 1.542 1.276.474.157.578-.03.629-.125-.052.094-.425-.254-.799-.602-1.107-1.064-1.643-1.137-1.372-.549m4.659 4.71c-.333-.377-.391-.285-.391-.285l.333.376c.723.662.784.573.058-.091m23.437 58.29.08.978c.142.457.367-.624.326-1.116-.04-.49-.344-.385-.406.138m.608 8.809c-.104.026-.104.026-.098.52 0 0 .006.494.11.468l.098-.521c-.006-.494-.11-.467-.11-.467m-.488 20.243.21-.504-.005-.491-.108.007c-.102.496-.204.993-.097.988m-1.693 2.025.209-.494.102-.491c-.107.004-.107.004-.209.495zm-12.591 28.362-.271.413c.101.036.474-.343.474-.343.272-.414.271-.414.17-.448s-.102-.034-.373.378m-3.513 4.819-.287.397c.099.041.485-.316.485-.316.288-.398.188-.438.188-.438s-.099-.04-.386.357m-4.028 5.498c-.485.303-2.244 2.561-2.454 2.987-.213.42-.023.517.19.097.308-.372.617-.745.712-.697s.404-.325.713-.698c.521-.793.52-.792.424-.839s-.096-.046.211-.42c.301-.384.204-.43.204-.43m-5.009 4.939.372.23.093.057c-.099-.038.385-.523.854-1.008.465-.484.681-.754.597-.764-.044-.043-.39.175-.993.575-.655.363-.658.395-.923.91m-1.953 2.231c-.195.14-.175.126 0 0m.472.173c.452-.308.86-.759 1.071-1.055.212-.296.234-.451-.04-.288l-.634.527c-.175.15-.286.222-.286.222l-.452.327c.537-.26.539-.261.17.134zm-1.264-1.012-.438.314c.081.07.605-.178.605-.178.441-.317.355-.385.355-.385s-.085-.066-.522.249m-4.506 4.151s.308-.411.234-.49c-.146-.156-.145-.157-.451.253.073.084-.308.411-.764.635-.455.232-.91.462-.841.544s.597-.07.597-.07c.457-.232.386-.313.386-.313-.071-.086.386-.296.839-.559m-13.859-7.086-.402.151.459-.061.403-.151c-.058-.09-.058-.09-.46.061m-13.717 15.298c-.477.153-.479.154.075.201.037.101.593.148.593.148l-.077-.201c-.115-.301-.114-.301-.591-.148m-6.805.321.558.117c.534.011.506-.094.48-.198l-.531-.011zm-11.836-14.847c-.366-.155-.733-.308-.757-.206 0 0 .345.257.713.413s.389.052.389.052c.02-.104.02-.104-.345-.259m78.038-88.932c.033.153.039.181 0 0"/></svg>