<svg xmlns="http://www.w3.org/2000/svg" viewBox="0 0 495.882 516.777"><g data-name="Layer 2"><path d="M333.99 395.916c3.121-1.441 5.934-3.5 9.305-4.467a2.258 2.258 0 0 0 1.71-2.952c-3.086-10.968-.28-21.5 2.284-32.069a116 116 0 0 1 4.362-13.982 18.9 18.9 0 0 1 5.284-7.456c5.509-4.873 10.837-4.9 17.252-.954 8.2 5.046 13.124 12.885 18.289 20.53 1.811 2.68 4.007 5.122 5.234 8.226.6 1.516 1.882 1.866 3.577.916 7.912-4.436 16.813-5.47 25.511-7.162a45.9 45.9 0 0 1 17.293-.468 41.7 41.7 0 0 1 6.864 1.641 47.4 47.4 0 0 0 7.812 2.28c8.992 1.623 16.607 5.969 23.831 11.324 6.06 4.493 9.842 10.507 12.6 17.336a9.78 9.78 0 0 1-.077 7.374c-4.992 13.715-13.748 23.51-27.335 29.649-8.565 3.87-15.84 1.816-23.293-1.58-4.553-2.075-9.356-2.662-14.1-3.672-2.2-.468-3 .489-2.323 2.611a16.9 16.9 0 0 0 2.427 5.425c3.409 4.263 5.536 9.313 8.809 13.66a41 41 0 0 1 5.365 10.028c2.725 7.082 5.993 13.96 8.6 21.082 4.8 13.1 1.974 24.72-7.129 35.188a25.6 25.6 0 0 1-8.821 6.9c-6.323 2.851-12.342 1.083-18.123-1.649a52.6 52.6 0 0 1-13.816-9.392c-5.662-5.354-11.361-10.6-15.518-17.278-.095-.153-.27-.263-.339-.423-5.232-12.037-12.488-23.363-12.935-37.078-.088-2.71-1.32-5.281-1.082-8.058a1.4 1.4 0 0 0-1.22-1.554c-.8-.124-1.279.412-1.637 1.115-2.38 4.666-4.947 9.244-7.145 13.994-3.862 8.348-9.037 15.764-16.411 21.206-5.117 3.776-10.387 7.831-17.123 8.473-1.9.182-3.226 1.451-5.021 1.862-4.183.958-8.263.518-12.383-.081-5.369-.781-10.628-1.733-15.4-4.684-8.369-5.172-12.628-14.188-11.026-23.415a37.6 37.6 0 0 1 5.388-14.049c7.847-12.209 16.82-23.567 26.06-34.721 3.125-3.773 7-6.81 10.764-9.911a20.4 20.4 0 0 0 3.743-3.877Zm8.8 7.767-.679.552.956.162c-1.946.916-4.277 1.3-5.666 3.027a24.8 24.8 0 0 1-6.827 5.331c-7.58 4.6-13.75 10.282-18.13 18.207-3.416 6.181-6.949 12.23-9.312 18.917a19.76 19.76 0 0 0-.6 10.181c.952 5.43 3.846 7.64 9.192 8.123 9.882.893 19.053-1.457 27.793-5.783 7.268-3.6 12.535-9.692 18.245-15.194 3.517-3.389 6.73-7.1 10.268-10.46 2.767-2.631 6.172-3.24 8.385-1.655a15.3 15.3 0 0 1 5.232 5.431c2.139 4.395 4.151 8.855 6.126 13.328a40.8 40.8 0 0 0 4.678 8.547 71.4 71.4 0 0 1 7.035 10.955 37.88 37.88 0 0 0 14.99 15.9c3.121 1.808 5.858 4.235 9.409 5.357 4.618 1.459 10.857.165 13.715-4.847 3.321-5.826 5.228-11.952 4.539-18.664a77 77 0 0 0-1.969-11.783c-1.7-6.433-3.261-12.943-7.083-18.628-2.627-3.906-4.868-8.069-7.344-12.08a32 32 0 0 1-3.622-9.607c-.742-3.108.258-5.258 2.936-6.851a26.4 26.4 0 0 1 7.443-3.249c5.546-1.3 11.038-1.721 16.625.08 4.816 1.552 9.5.751 14.343-.846 7.672-2.53 12.383-8.58 17.923-13.686a3.3 3.3 0 0 0 .551-4.06c-4.013-8.1-9.094-15.3-17.708-19.037a128.5 128.5 0 0 0-19.539-6.6 24.64 24.64 0 0 0-12.4-.091c-10.712 2.825-22 4.092-30.761 12.158-3.027 2.789-6.425 1.868-8.72-1.685a47 47 0 0 1-3.471-6.1 58.4 58.4 0 0 0-16.132-20.845c-4.369-3.642-6.169-3.084-8.219 2.1-.2.5-.278 1.048-.444 1.564-1.382 4.287-2.665 8.609-4.185 12.847-1.907 5.318-3.339 10.693-3.206 16.4.06 2.535-.024 5.073.033 7.608a31.9 31.9 0 0 1-2.75 12.642c-.517 1.284-1.812 3.125-3.206 1.567-1.954-2.182-3.236-1.169-5.006-.1-1.048.633-1.916 1.734-3.319 1.71a.79.79 0 0 1-.253-.98 2.6 2.6 0 0 0 .4-.207c.061-.046.072-.161.106-.244Zm27.435-288.593c.126 15.413-5.563 27.874-16.016 37.994a29.33 29.33 0 0 1-26.546 8.074c-12.044-2.265-23.89-5.606-34.956-11.148a108 108 0 0 1-9.334-5.491 57.8 57.8 0 0 0-12.043-6.2 51.6 51.6 0 0 1-16.54-9.153c-5-4.21-11.124-6.754-16.136-10.984a221 221 0 0 1-17.6-16.1c-4.834-5.068-7.946-11.214-10.907-17.363a81.8 81.8 0 0 1-8.327-29.046 37 37 0 0 1 .237-8.626c1.148-7.3 1.678-14.7 3.354-21.932 1.432-6.185 4.525-11.061 10.053-14.142 5.84-3.254 11.707-6.526 18.4-7.823 4.792-.928 9.563-1.966 14.362-2.848a24 24 0 0 1 8.109.1c6.8 1.061 13.636 1.914 20.455 2.874A108.9 108.9 0 0 1 323.358 21.6c3.287 2.236 6.535 4.561 9.987 6.517a36.2 36.2 0 0 1 12.536 11.833 123.1 123.1 0 0 1 14.657 31.364c3.533 11.415 7.078 22.788 8.892 34.642.498 3.251.446 6.505.795 9.134m-10.848-3.965c-.438-2.914-.228-6.7-.886-10.5-1.3-7.488-2.906-14.9-4.546-22.309a119.4 119.4 0 0 0-11.288-30.836c-2.411-4.5-5.116-8.936-9.189-11.991-7.658-5.744-15.216-11.885-23.64-16.281-9.871-5.15-20.382-9.233-31.744-10.516A149 149 0 0 1 261.477 5.9a40.9 40.9 0 0 0-12.934-1.046 67 67 0 0 0-27.592 9.089c-3.737 2.162-6.088 5.109-5.776 9.648.237 3.432.578 6.858.806 10.29.39 5.859.38 5.886 5.928 3.517 6.831-2.916 13.673-5.688 21.248-6.1 3.236-.175 6.484.24 9.725-.672 6.8-1.914 13.266-.511 19.394 2.7 5.754 3.019 11.523 6.019 17.169 9.233 3.776 2.149 7.557 4.56 10.164 8.046 5.644 7.549 12.5 13.986 18.683 21.029a67 67 0 0 1 8.792 12.314c1.464 2.7 2.9 5.424 4.483 8.061 5.754 9.619 8.025 20.17 7.861 31.2-.109 7.344-2.7 13.773-9.214 18.052-2.109 1.386-4.113 2.933-6.151 4.425-.556.406-1.743.394-1.6 1.181.162.921 1.226 1.253 2.152 1.35a43 43 0 0 0 14.577-.841c5.984-1.418 10.291-4.789 13.8-9.742 5.508-7.772 7.237-16.375 6.385-26.509M247.563 36.274c-9.814-.57-18.4 3.326-26.977 7.282a3.726 3.726 0 0 0-2.24 3.974 31 31 0 0 0 1.213 5.292c.4 1.49 1.291 1.523 2.379.637 5.661-4.611 12.652-5.244 19.085-4.064 6.065 1.112 12.084 3.617 17.781 6.444a25.2 25.2 0 0 1 5.7 4.011c3.889 3.512 7.846 6.95 11.716 10.483 2.945 2.687 5.877 5.414 7.825 8.969 3.393 6.195 6.21 12.722 10.624 18.326a4.4 4.4 0 0 1 .741 1.44c1.62 5.573 3.626 11.045 4.6 16.789.927 5.483-1.227 9.6-6.19 12.006-1.626.789-3.307 1.465-4.963 2.192 1.47 1.679 3.557 2.2 5.53 2.925a60 60 0 0 0 7.2 2.46c5.859 1.327 11.926 2.414 17.622-.058 9.17-3.979 10.769-6.455 10.349-14.992a57.5 57.5 0 0 0-.808-9.155 78.56 78.56 0 0 0-16.862-34.81c-5.714-6.772-12.076-12.994-16.938-20.488a23 23 0 0 0-6.194-5.961c-5.174-3.7-10.868-6.516-16.15-10.014-6.02-3.988-12.55-5.553-19.678-3.917a20.2 20.2 0 0 1-5.365.229m42.943 76.639c.164-2.963-.679-6.062-1.507-9.242-1.266-4.856-4.723-8.605-6.259-13.183-2.826-8.425-8.212-14.751-14.88-20.243a9.8 9.8 0 0 1-1.586-1.489c-4.9-6.357-11.519-10.006-18.828-13.09a28.7 28.7 0 0 0-17.37-2.02c-6.668 1.321-9.157 6.594-5.834 12.463.711 1.255 1.317 2.569 1.955 3.864 5.154 10.457 12.021 19.788 19.173 28.912a15.7 15.7 0 0 0 4.057 3.531c7.206 4.505 14.328 9.14 21.293 14.027 4.316 3.028 9.534 3.4 14.633 3.085 5.196-.323 5.408-.819 5.153-6.615M186.6 398.1c-5.246.362-10.486.867-15.737 1.058a69.4 69.4 0 0 1-22.537-2.821c-5.545-1.655-11.248-2.65-16.178-6.026a33.8 33.8 0 0 1-7.544-7 13.91 13.91 0 0 1-.941-16.7 39 39 0 0 1 24.101-18.111 126 126 0 0 1 14.343-2.9 38.9 38.9 0 0 1 10.26-.076c8.8 1.1 17.558 2.475 26.229 4.362a4.4 4.4 0 0 1 1.582.356c4.292 3.105 6.928.518 10.1-2.3 5.336-4.728 8.449-10.838 11.5-16.945 5.5-11.007 14.555-17.558 25.6-22.07 4.025-1.646 7.43-.629 9.774 2.286 5.863 7.292 9.32 15.587 7.152 25.175-1.51 6.684-2.686 13.514-5.987 19.671-.869 1.62-.179 2.257 1.448 2.539a74.2 74.2 0 0 1 19.007 6.379 29.64 29.64 0 0 1 12.19 10.475 42 42 0 0 1 6.669 15.907c1.822 9.6-4.132 18.252-13.47 21.222-6.858 2.182-12.8.868-18.635-2.572-5.174-3.049-10.838-5.016-16.284-7.461-1.972-.885-2.569-.395-2.589 1.79a16 16 0 0 0 .265 3.791c1.406 5.933.732 11.846.388 17.838a51.74 51.74 0 0 1-8.834 25.885c-9.178 14-22.093 22.225-38.568 24.611a35.2 35.2 0 0 1-18.131-2.294c-6.473-2.67-12.9-6.264-15.514-13.988a18.6 18.6 0 0 1-.169-11.092c1.018-4.024 2.913-7.662 4.61-11.37 2.837-6.2 6.006-12.243 9.038-18.351a78 78 0 0 1 10.829-15.588c.94-1.107 1.944-2.17 2.78-3.352 1.052-1.487.646-2.21-1.309-2.308-1.807-.09-3.627-.02-5.438-.02m1.63-2.142v.031c1.994-.093 3.987-.209 5.982-.273 6.822-.221 9.186 2.987 7.04 9.553-.224.683-.551 1.332-.831 2-1.894 4.508-4.545 8.857-5.526 13.556-2.007 9.612-5.376 18.766-8.152 28.121-2.32 7.818-.362 11.117 7.465 13.161a25 25 0 0 0 2.683.466c5.648.843 11.2 0 16.624-1.386 9.8-2.511 18.1-7.371 23.237-16.471 5.864-10.4 6.43-21.741 5.375-33.256-.363-3.968-1.163-7.9-1.034-11.91.118-3.676 1.943-5.175 5.154-3.864 6.851 2.8 13.923 5.061 20.469 8.629 3.31 1.805 6.742 3.81 10.755 3.365 8.883-.987 13.272-4.265 12.627-11.685-.9-10.347-5.316-19.155-14.94-24.354-5.409-2.921-11.282-4.827-17.07-6.843-2.329-.811-4.889-1.339-7.332.361a8.3 8.3 0 0 1-3.618 1.072c-1.979.254-6.465-2.68-6.859-4.6-.408-1.99 2.051-1.6 2.766-2.808.64-1.079 1.595-1.966 2.305-3.011 3.628-5.344 4.632-11.7 6.744-17.627 2.444-6.86.272-13.153-2.23-19.427a3.52 3.52 0 0 0-3.851-2.344 12.5 12.5 0 0 0-5.2 1.433c-7.72 3.967-14.472 8.9-17.445 17.6a13 13 0 0 1-1.215 2.428c-2.062 3.406-3.515 7.194-6.288 10.153a41 41 0 0 0-6.852 9.692c-2.671 5.294-6.9 6.7-12.633 5.442-3.339-.734-6.6-1.75-9.91-2.52-5.994-1.393-12-2.863-18.223-2.95-5.331-.075-10.355 1.641-15.479 2.69a26.98 26.98 0 0 0-16 9.6c-1.784 2.206-2.974 4.628-2.191 7.527 1.127 4.169 3.287 7.677 7.17 9.827 1.894 1.049 4.011 1.708 5.867 2.811 9.926 5.9 20.7 7.338 31.989 6.362 2.865-.263 5.747-.376 8.622-.552Zm-130.58-54.25a245 245 0 0 0 8.789 31.918 63 63 0 0 0 5.325 12.413c5.617 9.356 12.568 17.7 19.328 26.188a36.04 36.04 0 0 0 12.768 9.859 8.24 8.24 0 0 0 4.683 1.159c.35-.044.9-.108.989-.322.292-.662-.426-.709-.776-1-5.658-4.745-9.561-10.76-12.677-17.375-2.544-5.4-5.128-10.79-7.856-16.1-3.58-6.97-6.509-14.124-7.692-21.943a98.5 98.5 0 0 0-2.507-12.248 182.1 182.1 0 0 1-7.071-48.8 78.8 78.8 0 0 0-1.9-18.822C67.03 278.6 61.7 273.061 55.5 268.13c-1.34-1.065-2.99-1.254-4.575-1.634-10.143-2.438-19.332.746-28.3 4.924-7.944 3.7-13.154 9.869-16.24 18.081-4.043 10.758 4.129 24.9 15.377 24.586a8.7 8.7 0 0 1 2.167.188 2.04 2.04 0 0 1 1.275.754c.278.527-.253.9-.691 1.259-2.391 1.937-4.547 4.257-7.164 5.8-6.517 3.854-10.1 9.92-12.328 16.656-3.152 9.525 1.071 15.081 8.852 17.271a24.6 24.6 0 0 0 11.345.177c2.123-.418 4.268-.725 6.4-1.083.718-.12 1.553-.323 2.039.293.665.841.183 1.75-.341 2.485-2.105 2.948-4.316 5.821-6.377 8.8-4.006 5.792-8.122 11.493-9.828 18.562a22.83 22.83 0 0 0 1.989 15.816c2.49 5.1 7.412 6.957 12.788 5.1 1.871-.648 3.583-1.741 5.4-2.557a49 49 0 0 1 6.019-2.5c4.092-1.209 5.98.168 5.772 4.4-.16 3.245-.962 6.452-1.3 9.695-.356 3.386-1.182 6.738-.308 10.21 2.825 11.225 17.825 15.354 26.612 7.195 2.54-2.358 5.274-5.063 5.381-9.058.036-1.354-.433-1.76-2.043-2.26a26.9 26.9 0 0 0-14.962-.5 44 44 0 0 1-5.391.551c-1.2.145-1.656-.5-1.742-1.5a28 28 0 0 1-.235-4.865 41.6 41.6 0 0 0-.354-8.675c-.877-7.334-4.929-10.794-12.314-10.757-1.816.01-3.632.083-5.448.111a25 25 0 0 1-2.724-.025c-3.688-.358-4.424-1.08-4.341-4.729a26.84 26.84 0 0 1 3.376-13.027 164 164 0 0 0 7.789-14.922 14.55 14.55 0 0 0 1.241-7.408 10.53 10.53 0 0 0-9.829-9.689 29.5 29.5 0 0 0-10.261.557 21.3 21.3 0 0 1-8.1.551c-1.8-.241-2.508-1.036-1.936-2.983 1.44-4.9 3.84-8.923 8.627-11.294a46.1 46.1 0 0 0 12.737-9.159c2.206-2.278 4.341-4.767 4.823-8.158 1.032-7.258-5.673-15.765-13.072-16.514-2.161-.219-4.344-.247-6.5-.52a3.37 3.37 0 0 1-3.235-3.143c-.439-5.587.077-11.168 4.619-14.971a42.6 42.6 0 0 1 14.98-8.537c9.313-2.766 19.442.935 20.821 12.574a108 108 0 0 1 1.026 15.708c-.182 6.707-1.462 13.359-1.008 18.734.113 8.613.238 15.862 1.637 23.007Zm231.174-43.264c.729-11.757-1.679-23.348-1.972-35.053-.09-3.589-1.067-7.147-1.451-10.739-1.3-12.146.631-24.239.677-36.364a28.3 28.3 0 0 1 2.16-10.034c3.225-8.422 9.143-14.657 16.632-19.446a10.8 10.8 0 0 1 4.61-1.522c7.607-.748 15.157-.643 22.5 1.979a14.45 14.45 0 0 1 8.389 7.309c3.787 7.6 7.6 15.21 10.3 23.278 2.75 8.227 2.535 16.731 1.588 25.227a82.6 82.6 0 0 1-5.71 22.5c-2.985 7.237-3.532 15.137-5.761 22.581a103.7 103.7 0 0 1-16.814 33.753c-9.647 12.584-26.222 6.944-31.689-2.385-2.857-4.876-3.066-10.32-3.435-15.724-.131-1.781-.029-3.575-.029-5.361Zm6.838-6.639.253.006c0 2.721-.187 5.458.041 8.159.393 4.66.347 9.39 2.092 13.871 1.42 3.649 4.006 5.577 7.866 5.485 4.29-.1 8.078-1.308 10.778-5.1 5.491-7.708 9.265-16.306 12.623-25.024 2.984-7.743 3.587-16.24 6.677-24.02.932-2.348 1.66-4.779 2.421-7.191 2.3-7.3 2.985-14.93 3.933-22.441 1.791-14.179-1.836-26.926-12.053-37.376a16 16 0 0 0-2.6-1.928 3.1 3.1 0 0 0-1-.246c-.074.341-.272.712-.2 1.016a18 18 0 0 0 .824 2.583 29.7 29.7 0 0 1 1.659 15.407c-.775 6.12-2.6 12.018-3.149 18.191a69.5 69.5 0 0 1-3.59 18.036c-2.567 6.959-5.054 13.959-9 20.279-3.989 6.39-7.528 7.6-14.519 5.14-1.843-.649-2.165-.13-2.237 1.586-.194 4.527-.54 9.045-.824 13.562Zm28.6-75.017a32.9 32.9 0 0 0-4.055-17.658c-3.637-6.439-10.091-5.538-14.107-1.781-2.17 2.03-2.1 2.324.494 4.656a6.8 6.8 0 0 1 1.3 1.721c1.418 2.523 2.789 5.073 4.179 7.613a19.97 19.97 0 0 1 2.323 9.918c-.012 4.513-1.7 8.559-3.294 12.555-2.131 5.33-3.939 10.987-8.82 14.706a4.39 4.39 0 0 0-1.7 3.285 43.6 43.6 0 0 0 1.477 14.537c1 3.785 4.009 4.338 6.406 1.278 5.977-7.632 10.81-16.075 13.017-25.459 1.936-8.243 2.429-16.842 2.777-25.372Zm-23.736 8.765h.261c0 4.139-.031 8.279.03 12.418.01.679.329 1.555 1.151 1.614.349.026.874-.63 1.113-1.085a80.4 80.4 0 0 0 6.389-15.523c1.869-6.616-.192-12.514-3.224-18.219a1.513 1.513 0 0 0-2.9.169c-1.194 3.932-3.285 7.625-2.872 12 .267 2.85.049 5.748.049 8.625ZM173.713 127.56c-3.312.807-5.1 3.807-7.87 5.451a32 32 0 0 0-10.933 11.16c-1.784 2.926-3.81 5.7-5.691 8.572-.392.6-.669 1.628-1.368 1.483-.9-.187-1.186-1.211-1.348-2.139a78.3 78.3 0 0 1-1.457-15.115c.264-11.761.754-23.516 1.132-35.274a7 7 0 0 0-.27-1.464c-.421.327-.978.57-1.241 1a45.4 45.4 0 0 0-5.587 11.717c-3.491 12.726-7.949 25.3-6.9 38.849.051.65.114 1.548-.813 1.785-.886.226-1.18-.517-1.592-1.109-4.239-6.09-8.511-12.157-12.747-18.248a21.1 21.1 0 0 0-5.087-5.585 2.1 2.1 0 0 0-2.48-.342 1.98 1.98 0 0 0-.933 2.313 22.8 22.8 0 0 0 2.488 8.264c2.31 3.884 4.644 7.758 7.105 11.547 2.861 4.405 5.88 8.706 8.8 13.068.582.868 1.449 1.875.613 2.882-.6.719-1.75.468-2.585.2-3.107-.982-6.211-1.986-9.257-3.136-6.143-2.32-11.412-6.263-17.146-9.342-1.4-.753-3.241-2.751-4.7-.461-1.029 1.608.7 2.862 1.8 4.008 10.734 11.094 23.127 19.374 38.178 23.625a7.36 7.36 0 0 0 8.176-2.223c1-1.028 1.794-2.366 3.062-3.01 7.789-3.961 12.184-11.168 16.834-17.96 6.3-9.207 9.226-19.867 11.714-30.618ZM9.52 207.851c4.942 4.124 10.958 6.359 16.751 8.891 3.469 1.517 6.776-.017 9.673-2.062 1.143-.807 1.515-1.934 0-3.062-5.958-4.429-11.37-9.591-17.977-13.147-5.119-2.755-6.86-7.722-8.035-12.946-.348-1.55.58-2.394 2.174-2.317a6 6 0 0 1 2.662.366c5.074 3.083 11.1 3.247 16.462 5.5 2.414 1.014 5.133 2.011 7.908.721a22.8 22.8 0 0 0 10.221-8.642 11.7 11.7 0 0 0 1.2-9.9c-1.3-4.622-4.539-7.793-7.837-10.87a142.4 142.4 0 0 0-17.7-13.529c-4.263-2.883-8.1-6.148-9.795-11.229-.88-2.635-.022-4.082 2.54-4.9a4.81 4.81 0 0 1 4.575 1.033c2.751 2.076 5.644 4.006 8.167 6.334 6.875 6.345 15.72 3.185 20.78-3.261.779-.991 1.674-2.269 1.115-3.492-1.239-2.708-3.882-4.162-6.085-5.975-.345-.284-1.1.189-1.211.743a4.03 4.03 0 0 0-.012 2.119c1 2.536-.312 3.3-2.483 3.4a19.47 19.47 0 0 1-12.31-3.565c-2.081-1.453-4.024-3.1-6.075-4.6-4.915-3.586-10.09-2.679-13.723 2.188-3.536 4.737-3.977 9.893-1.266 14.857 6.082 11.136 12.184 22.333 22.494 30.381 2.991 2.336 6.023 4.643 8.808 7.212 2.575 2.377 2.255 4.117-.563 6.024a6.6 6.6 0 0 1-5.224.88 13.65 13.65 0 0 1-6.619-3.529c-3.618-3.33-7.557-6.2-12.487-7.435-6.344-1.591-11.464.81-14.386 6.509C.007 182.987.194 185.446 0 187.984a24.94 24.94 0 0 0 9.52 19.867m102.005 53.11a48.54 48.54 0 0 1 5.521-20.689 11.4 11.4 0 0 0 .984-2.5c.287-1.187-.059-1.674-1.413-1.175-6.775 2.5-13.633 4.778-19.879 8.525a23 23 0 0 1-5.363 2.577 4.042 4.042 0 0 1-4.884-5.1 12 12 0 0 1 3.113-4.982 41.7 41.7 0 0 1 11.811-7.521c4.289-1.932 8.619-3.773 12.9-5.716.615-.279 1.591-1.05 1.508-1.344-.273-.974-1.348-.816-2.178-.879-8.5-.647-16.826-2.416-25.176-3.983-3.164-.594-6.149-1.657-8-4.855a2.2 2.2 0 0 1-.044-2.756c1.745-2.929 4.494-3.509 7.509-3.165 5.75.656 11.507 1.315 17.213 2.267 9.282 1.55 18.523 3.344 27.784 5.017 2.709.489 5.251 1.227 7.335 3.222 3.021 2.892 3.316 4.468.824 7.949a84 84 0 0 0-9.452 16.439 50 50 0 0 0-3.7 14.664c-.463 4.823-1.152 9.66-5.041 13.323-2.5 2.351-2.5 2.507-5.338.624a33.2 33.2 0 0 1-4.848-4.954c-1.372-2.461-1.372-2.461-1.186-4.988m2.194-30.105-2.379 1.367c-1.028.41-2.342-.1-3.159.989l-2.633.73c-.95.886-3.1.87-2.305 3.067-1.308-.121-2.785-1.106-3.713.726-.942-.109-1.792-.013-2.23 1a1.08 1.08 0 0 0-.9 1.405 2.5 2.5 0 0 0-.528-.006 1.3 1.3 0 0 0-.366.207l.754-.341c.584-.275 1.09-.6.921-1.378.985.2 2.048.569 2.253-1l3.787-.607c.707-1.079 2.663-1.251 2.269-3.128 1.091.456 2.231 1.066 2.571-.823 1.258.361 2.423.416 3.147-.966 1.09.228 1.514-1.041 2.476-1.1l.175-.286c.032.115.124.3.087.334-.561.462.327.28-.227-.19M89.974 62.149c.6-3.2 1.244-6.4 2.07-9.55a3.07 3.07 0 0 1 3.1-2.565c1.512.034 2.262 1.189 2.715 2.353a16.8 16.8 0 0 1 1.447 5.184 36 36 0 0 0 2.443 11.129c2.218 5.931 4.616 11.848 10.46 15.443 3.889 2.393 5.952 2.313 9.82-.074 3.191-1.97 4.391-5.185 5.816-8.21 3.506-7.441 3.906-14.939-.416-22.3-.734-1.25-1.321-2.587-2-3.867-1.964-3.674-.919-7.177 1.043-10.318a5.56 5.56 0 0 1 9.93.683c1.5 3.291 2.578 6.77 3.862 10.159a15.2 15.2 0 0 0 4.557 6.666c1.016.823 2.088 1.523 3.453.785 1.395-.755 2.4-1.962 1.961-3.521-1.854-6.645-3.61-13.378-8.82-18.417-4.9-4.736-8.237-5.1-14.129-1.7-2.144 1.236-3.41 3.183-4.625 5.232-4.527 7.633-6.34 16.136-8 24.691-.126.652.138 1.605-.946 1.541a2.17 2.17 0 0 1-1.346-.781 61 61 0 0 1-6.342-10.12c-1.895-3.517-3.814-7.009-6.892-9.674a10.715 10.715 0 0 0-15.528.949 15 15 0 0 0-2.662 4.083c-5.934 13.85-2.138 26.206 5.788 37.91a8.8 8.8 0 0 0 2.827 2.51c1.735 1.01 3.136.007 4.282-1.256.7-.765 1.522-1.551.683-2.815C90.418 80.114 90.5 72.933 89.7 66.67a40 40 0 0 1 .274-4.521m80.581 165.77c1.406-7.748 2.341-15.859 6.463-23.132 3.962-6.992 9.387-9.093 16.8-6.326a40 40 0 0 1 6.392 2.94c7.724 4.55 9.878 11.43 8.669 19.8-1.245 8.621-4.987 16.169-10.011 23.183a17.5 17.5 0 0 1-4.8 4.272c-5.192 3.44-9.511 3.195-14.348-.924-5.959-5.081-8.747-11.756-9.165-19.813m6.453-7.332c.875 5.975 1.811 11.7 5.685 16.387 2.4 2.9 4.258 3.073 6.594.182a27.8 27.8 0 0 0 5.907-12.084c.177-.9-.089-1.367-1.07-.819a18 18 0 0 0-2.808 1.625c-1.854 1.537-3.449.7-4.883-.495-3.287-2.733-2.286-7.57 1.91-9.044a50 50 0 0 1 5.814-1.333c.942-.207 1.8-.563 1.662-1.722-.3-2.612-2-4.12-4.2-5.289-2.318-1.232-4.8-2.412-7.1-.608-4.319 3.368-6.55 8.06-7.511 13.2m76.941 24.913c-.094 6.732-.954 13.02-4.743 18.793-6.41 9.765-16.391 11.4-25.277 3.341a20.4 20.4 0 0 1-5.122-6.915c-1.967-4.483-3.457-9.116-5.13-13.7-2.774-7.6 2.491-17.725 8.27-21.318 6.565-4.084 13.27-6.875 20.829-2.347 7.823 4.687 12.052 11.316 11.353 20.666-.041.547-.129 1.08-.18 1.48m-10.24 6.372c.079-3.145-.025-3.306-2.524-1.694-1.789 1.155-3.213 1.351-4.847-.07a6.12 6.12 0 0 1-1.657-6.234c.956-2.434 2.686-3.2 5.156-2.282a2.7 2.7 0 0 0 1.067.129c1.766-.093 2.424-1.115 1.86-2.941-1.577-5.11-6.229-8.44-12.312-5.3a17.164 17.164 0 0 0-3.743 28.189c5.783 5.228 12.935 3.634 15.819-3.451a17.5 17.5 0 0 0 1.181-6.342Zm12.8-74.608c-.192 1.244-.055 2.674-.631 3.7-3.309 5.918-5.819 12.328-12.424 15.9a13.15 13.15 0 0 1-11.293 1.1 23.2 23.2 0 0 1-9.207-6.575c-2.378-2.675-3.19-5.559-1.68-8.966 1.821-4.112 3.4-8.338 5.372-12.375 2.334-4.779 9.017-7.862 14.143-6.41a29.57 29.57 0 0 1 13.418 7.815 7.33 7.33 0 0 1 2.306 5.815ZM234 175.705c-2.1-.128-4.817.906-7.418 2.1a5.23 5.23 0 0 0-2.467 5.53c.64 2.278 2.746 3.345 6.077 3.48 2.941.12 1.554-2.177 2.116-3.382.075-.162.092-.352.173-.51.484-.94 1.391-1.547 1.944-.43 1.284 2.595 2.578 1.882 4.084.361s3.752-2.974 2.762-5.318c-.849-2.012-3.413-1.526-5.32-1.821a20 20 0 0 0-1.951-.01m206.844 95.566a4 4 0 0 0-.4-.986 4.5 4.5 0 0 0-.5 1.393c.016 6.438-2.647 11.7-6.426 16.806-5.773 7.8-12.722 13.2-22.741 13.776a9 9 0 0 0-1.618.195c-6.538 1.589-12.159.343-16.422-5.225-.178-.232-.688-.512-.808-.428-.411.284-.947.683-1.014 1.106a5.6 5.6 0 0 0 .054 2.669c2.442 6.782 6.832 12.134 13.611 14.5 8.362 2.912 16.455 1.4 23.432-4.257a42.4 42.4 0 0 0 5.89-6.315 37.22 37.22 0 0 0 8.3-22.027c-.402-3.309-.865-7.259-1.358-11.207m-234.495 10.8c-1.46 6.353-4.522 12.673-11.292 16.6-.156.09-.321.165-.481.248-4.628 2.4-8.551-1.059-12.757-1.783-2.407-.414-3.581-3.428-4.17-5.933a26 26 0 0 1-.5-5.34 24.55 24.55 0 0 1 7.193-18.609c4.162-4.191 9.446-4.475 14.045-.764 3.43 2.769 6.3 5.924 7.5 10.33a15 15 0 0 1 .462 5.255Zm-25.887 4.529c-.162 3.2-.021 3.894 1.244 4.454 4.17 1.845 8.857 1.472 11.31-2.961a1.9 1.9 0 0 0 .1-1.471c-.277-.645-.9-.183-1.4-.174-4.186.074-5.872-2.52-4.024-6.1a10.8 10.8 0 0 1 3.691-3.858c.879-.608 1.929-1.237 1.258-2.567-.565-1.12-1.647-1.253-2.788-1.222a5.13 5.13 0 0 0-3.712 2 20.96 20.96 0 0 0-5.679 11.899M447.509 97.186c-.111-1.986-.179-3.975-.341-5.956a36.3 36.3 0 0 0-7.83-20.452c-2.071-2.557-4.4-5.062-7.629-5.827-2.937-.7-6.081-.535-9.136-.707-7.1-.4-10.578 3.067-13.738 10.156-1.276 2.862.367 4.841 3.577 5.084a10.03 10.03 0 0 0 6.138-1.919c6.142-3.977 14.783-.183 19.094 4.424 3.274 3.5 3.911 8.04 4.775 12.43.625 3.176.7 6.472 1.854 9.534.366.968.945 2.432 1.947 2.387 1.429-.064 1.027-1.643 1.062-2.639.075-2.17.023-4.344.023-6.516Zm-29.258 78.166a2.11 2.11 0 0 0-2.076 1.466c-.254.992.335 1.681 1.223 2.154a67 67 0 0 0 6.265 3.227c4.116 1.668 5.925 5.041 6.12 9.412a3.24 3.24 0 0 1-1.423 3.286 42.3 42.3 0 0 1-12.564 4.922c-.982.213-1.977-1.73-2.767-.514a5.77 5.77 0 0 0-.372 3.7c.64 4.086 6.494 8.609 10.649 8.385 5.723-.309 9.8-3.6 13-7.86 2.964-3.943 4.489-8.034 2.635-13.539-3.131-9.294-7.966-14.186-18.087-14.8-.084.009-1.347.051-2.603.161m43.409 18.8a61.4 61.4 0 0 0-14.907-17.774c-3.02-2.413-6.719-3.526-10.517-4.192-.516-.091-1.174-.145-1.32.419-.17.657.579.815 1.02 1.06a18 18 0 0 0 1.942.914c8.582 3.549 13.527 10.593 17.581 18.433 1.769 3.419 1.287 6.553-1.48 9.457-2.665 2.8-5.349 5.343-9.317 6.17a27 27 0 0 0-4.01 1.662c-2.571 1-4.455 2.7-4.47 5.544-.016 2.893 2.33 4.229 4.488 5.615 1.763 1.132 3.506.7 5.223.137a23.3 23.3 0 0 0 12.264-9.373 31.6 31.6 0 0 0 5.375-12.842 29 29 0 0 0-1.872-5.233Zm-36.788 72.583c-.261-.467-.543-1.3-.828-1.3-.813-.015-.97.847-1.27 1.47-5.8 12.062-11.592 15.313-22.344 12.588a4 4 0 0 0-1.07-.134c-1.329.032-1.885.606-1.7 2.042 1.015 7.8 9.422 13.027 15.687 11.258 7.011-1.979 14.3-10.518 14.406-17.871.035-2.371-.437-3.696-2.881-8.056Zm-.13-175.69a11.5 11.5 0 0 0-8.658-3.894c-4.22.062-9.259 3.481-10.427 7.38a4.134 4.134 0 0 0 1.794 5.052c2.279 1.305 3.108 1.1 4.962-1.266.445-.569.78-1.226 1.237-1.785 2.047-2.507 3.949-2.907 5.7-.418 2.051 2.92 4.82 5.4 6.029 8.89 1 2.9 2.371 5.7 2.3 8.881a1.655 1.655 0 0 0 1.126 1.673c1.054.41 1.669-.269 2.282-.955 1.616-1.8 1.4-4.011 1.354-6.163.132-7.002-3.093-12.582-7.699-17.398Zm-90.753 304.871c-.388-.614.572-.236-.114-.478a.76.76 0 0 0-.362-.016c-.08.392.124.521.578.381ZM173.607 127.458l.837-.331q-.246-.222-.49-.446l-.241.879ZM404.53 410.135c-.3 4.344-.647 8.631-3.7 12.187-2.731 3.183-5.807 4.255-9.562 2.85-5.828-2.18-12.921-8.871-12.434-16.8.23-3.747-.819-7.541.546-11.277 1.935-5.3 4.442-6.951 9.9-5.745 8.958 1.98 15.557 11.41 15.25 18.785m-18.808-9.663c.173 3.608.289 7.22.536 10.823.208 3.033 1.256 3.815 5.174 4.163 3.263.29 4-.081 4.511-3.15a39 39 0 0 0 .791-7.491 12.9 12.9 0 0 0-1.91-7.22 6.78 6.78 0 0 0-7.192-2.611c-2.85.994-2.084 3.385-1.91 5.486m-175.667-15.585c-.092-4.827 6.149-13.7 10.78-15.321 3.3-1.157 5.422-.313 7.077 2.969 1.137 2.256 2.166 4.561 3.327 6.813 2.372 4.6-1.892 16.445-6.51 18.808-2.756 1.41-5.313.489-7.705-.947-3.624-2.178-6.888-8.061-6.969-12.322m6.691-4.894c.018 3.8 1.977 5.966 4.2 7.839a1.783 1.783 0 0 0 3.027-.939 78.5 78.5 0 0 0 2.852-10.371 4.586 4.586 0 0 0-2.807-4.871c-1.778-.682-3.377.576-4.655 2a10.9 10.9 0 0 0-2.617 6.342" data-name="Layer 1"/></g></svg>