<svg xmlns="http://www.w3.org/2000/svg" viewBox="0 0 75 66"><path fill-rule="nonzero" d="M50.647 60.208c1.605-.031 2.545-.65 2.773-1.64.322-1.391-.16-2.818-1.125-3.343-1.182-.643-2.715-.37-3.961.707-1.166 1.009-1.598 2.007-1.18 2.727.73 1.256 1.948 1.486 3.247 1.548.179.008.359.001.246.001m7.29-3.074c-.081 3.612-1.562 5.396-4.902 6.643-1.408.526-2.803 1.019-4.203.472-2.003-.783-4.196-1.342-5.623-3.121-.414-.514-.702-1.359-.621-1.998.4-3.173 1.673-5.835 4.586-7.565 3.832-2.275 8.902.256 10.424 3.784.278.642.273 1.407.34 1.785M29.835 55.95c-1.121-.065-2.08.654-2.427 1.778-.33 1.067.125 2.283 1.007 2.802 1.138.67 2.352.81 3.618.546.94-.196 1.742-1.306 1.776-2.428.024-.77-.284-1.378-1.003-1.721-.963-.459-1.872-1.09-2.971-.977m.31-4.674c1.878-.246 3.898.466 5.73 1.687 2.787 1.855 3.36 5.826 1.5 8.592-2.703 4.017-7.307 4.443-10.484 3.812-2.801-.555-4.686-2.769-5.012-5.646-.324-2.872.656-5.309 2.762-7.27 1.466-1.366 3.332-1.131 5.505-1.175m18.858-34.75c-7.96-.564-17.503.959-27.1 1.277-1.583.052-3.154.676-4.71 1.111-.233.065-.495.551-.493.841.006 1.765 1.3 3.145 2.903 3.159.726.005 1.454-.005 2.18-.044 5.387-.294 10.773-.682 16.165-.87 5.083-.179 10.177-.041 15.258-.245 4.69-.188 9.373-.634 14.056-.992.912-.07 1.415-1.049 1.419-2.58.003-1.077-.504-1.643-1.651-1.648-5.45-.021-10.901-.009-18.027-.009M33.81 40.079c0 .073 6.688.323 9.793.123 2.805.078 8.655-.729 13-.794 1.268-.019 2.52-.056 3.705-.688.987-.527 1.842-1.062 2.249-2.195 1.224-3.399 2.535-6.766 3.747-10.168.466-1.307-.36-2.317-1.646-1.932-3.192.956-6.447.945-9.698.778-2.153-.11-16.505.05-22.615.482-2.516.353-5.003.657-7.53.707-1.271.025-2.543-.061-3.813-.033-2.214.048-2.824.892-2.21 3.153.803 2.961 1.668 5.905 2.526 8.851.458 1.573.944 1.936 2.77 1.916 3.243-.035 6.482-.13 9.722-.2m15.029 4.875c-3.775.279-14.187.221-15.614.169-3.086-.113-6.178-.058-9.265-.127-4.218-.094-6.95-1.844-8.25-5.747-1.134-3.409-1.936-6.937-2.756-10.442-1.316-5.624-2.496-11.28-3.801-16.906-.283-1.221-.807-2.394-1.297-3.557-1-2.372-2.62-3.879-5.396-3.743-.528.026-1.148-.03-1.577-.292C.472 4.056.065 3.51.008 3.05c-.055-.449.196-1.138.55-1.403C2.734.028 5.268-.388 7.79.357c2.075.614 3.855 1.68 4.554 4.201.62 2.237 1.92 4.267 2.157 6.683.125 1.269 1 1.856 2.287 1.866 1.269.011 2.578.112 3.804-.141 6.287-1.299 12.657-.723 18.989-.965 3.793-.144 24.79-1.034 31.51-1.012 2.26.007 3.363 1.28 3.302 3.432-.041 1.446-.19 2.863-.676 4.275-2.171 6.329-4.185 12.711-6.376 19.033-1.671 4.822-5.112 7.155-10.327 7.219-2.724.033-5.45.006-8.175.006"/></svg>