<svg xmlns="http://www.w3.org/2000/svg" viewBox="0 0 445.911 490.947"><filter id="a" width="140%" height="140%" x="-20%" y="-20%" filterUnits="objectBoundingBox"><feTurbulence baseFrequency="2" numOctaves="5" result="t1" stitchTiles="stitch" type="fractalNoise"/><feColorMatrix result="t2" values="0 0 0 0 0, 0 0 0 0 0, 0 0 0 0 0, 0 0 0 -1.5 1.5"/><feComposite in="SourceGraphic" in2="t2" operator="in" result="SourceTextured"/><feTurbulence baseFrequency=".03" numOctaves="5" result="f1" seed="1" type="fractalNoise"/><feDisplacementMap in="SourceTextured" in2="f1" result="f4" scale="5" xChannelSelector="R" yChannelSelector="G"/><feTurbulence baseFrequency=".03" numOctaves="5" result="f2" seed="10" type="fractalNoise"/><feDisplacementMap in="SourceTextured" in2="f2" result="f5" scale="5" xChannelSelector="R" yChannelSelector="G"/><feTurbulence baseFrequency=".03" numOctaves="5" result="f3" seed="100" type="fractalNoise"/><feDisplacementMap in="SourceTextured" in2="f3" result="f6" scale="3" xChannelSelector="R" yChannelSelector="G"/><feBlend in="f5" in2="f4" mode="multiply" result="out1"/><feBlend in="out1" in2="f6" mode="multiply" result="out2"/></filter><g data-name="Layer 2" filter="url(#a)"><path d="M52.607 307.809c-5.629 0-11.259-.064-16.887.02-4.4.066-4.529.116-5.506 4.211-1.486 6.232-4.09 11.976-6.86 17.715a111 111 0 0 0-7.83 23.717c-3.618 15.815-5.054 31.859-5.374 48.063-.159 8.068 1.415 15.915 2.309 23.829.917 8.116 1.5 16.269 2.576 24.364 1.654 12.418 3.774 24.746 8.23 36.532a3.03 3.03 0 0 1-.612 3.469 2.886 2.886 0 0 1-3.357 1.035c-3.289-1.07-5.291-2.677-6.291-6.514-1.689-6.473-4.09-12.758-5.209-19.412-.962-5.722-1.741-11.46-2.467-17.216-1.133-8.989-1.614-18.034-2.571-27.038C1.361 407.439-.99 394.3.451 380.971A193 193 0 0 1 5.22 355.3a212 212 0 0 1 11.327-33.476c2.02-4.657 3.651-9.481 5.6-14.169 2.507-6.016 5.584-7.786 11.893-6.977 10.608 1.36 8.823 1.151 8.518-7.8a192 192 0 0 1 .535-24.991c.309-3.2-.415-6.5-.672-9.748a3.96 3.96 0 0 0-1.372-2.276 41.5 41.5 0 0 1-7.5-12.565C28.3 230.14 23.21 216.91 20.436 202.968c-1.377-6.921-2.319-13.935-3.253-20.935-1.389-10.418-3.07-20.811-3.076-31.37-.006-9.618.117-19.23 1.043-28.813.418-4.335.063-8.682.262-13.032a208 208 0 0 1 2.5-20.991 322 322 0 0 1 6.537-31.969c2.81-11.058 6.323-22.02 11.833-32.058 4.266-7.774 9.435-15.02 16.886-20.341C57.985.015 63.247-.432 68.75.3a10.19 10.19 0 0 1 7.022 4.765c3.272 4.832 6.375 9.8 6.822 15.828.3 4.032 2.141 6.475 5.928 8.2 4.434 2.016 8.4 5.044 12.735 7.3 6.17 3.211 10.312 8.375 14.531 13.662a85.1 85.1 0 0 1 15.8 32.593c2.223 8.726 2.953 9.395-6.725 9.576-4.164.078-8.24.028-12.344-1.4a8.53 8.53 0 0 1-5.831-5.78 36 36 0 0 0-1.462-3.514c-.381-.827-1-1.974-1.862-1.645-.792.3-.495 1.578-.257 2.438.291 1.049.607 2.1.988 3.116.762 2.04.721 4.051-.867 5.583-1.54 1.485-1.49 3.2-1.409 5.029.4 9.159 1.879 18.033 6.421 26.2 2.911 5.238 5.627 10.576 8.866 15.635 2.459 3.841 2.253 5.383-.9 8.63a34.5 34.5 0 0 1-5 4.194c-3.629 2.535-6.1 6.214-9.317 9.149-1.358 1.24-1.24 2.948-1.243 4.582-.01 5.634-.029 11.268 0 16.9.089 18.224-6.215 34.464-15.472 49.769-1.547 2.557-5.555 11.116-5.96 13.8-1.013 6.708-3.947 12.02-10.377 14.957-.816.373-1.472 1.1-2.287 1.47-2.024.925-2.369 2.438-1.994 4.471.824 4.461 1.693 8.925 2.218 13.426.714 6.131 1.075 12.3 1.683 18.445.414 4.181.488 4.174 4.879 4.509 4.777.364 6 1.312 7.447 5.728A28.7 28.7 0 0 1 81.839 316c.527 15.783 1 31.569 1.566 47.351.111 3.073.731 6.127.842 9.2.236 6.516-2.381 9.39-8.944 9.607-8.919.294-17.688 1.864-26.523 2.855-4.179.468-4.319.655-4.018 4.55.378 4.875-.117 9.771.937 14.646a23.6 23.6 0 0 0 6.711 12.217c11.283 11.049 22.634 22.028 33.891 33.1 2.453 2.413 4.6 5.132 6.939 7.666.7.757 1.387 1.971 2.6 1.482.8-.321 1.074-1.4 1.169-2.338.73-7.25 2.707-14.236 4.439-21.282a290 290 0 0 1 15.336-45.283c5.735-13.353 14.255-24.815 23.313-35.919a68.1 68.1 0 0 1 15.536-13.565c8.942-5.88 18.159-11.285 28.321-14.968 11.469-4.157 22.027-10.286 32.823-15.885 3.277-1.7 5.724-4.453 8.654-6.588a4.21 4.21 0 0 0 1.794-3.223c.52-7.108 3.363-13.709 4.332-20.756a117 117 0 0 0-.914-35.776c-.636-3.745-.882-7.575-2.321-11.182-.7-1.761-1.609-2.614-3.6-2.517-5.51.266-10.777-1.3-16.093-2.415-5.228-1.1-8.468-4.379-10.581-9.253-2.205-5.088-2.965-10.415-3.455-15.811-.786-8.671-1.536-17.348-1.525-26.072.009-6.9-.228-13.826 1.041-20.648.576-3.1-.269-5.261-3-6.821-1.57-.9-3.04-1.98-4.52-3.028-3.35-2.371-4.26-4.538-2.994-8.431 1.29-3.965 2.858-7.848 4.475-11.694a24.5 24.5 0 0 0 2.03-10.052c-.084-5.271.054-10.544-.015-15.815-.048-3.628-.133-3.627-3.524-4.077-7.182-.953-7.308-.948-7.585-7.951-.756-19.095 5.922-35.057 20.181-47.895a135.5 135.5 0 0 1 27.51-19.267c11.178-5.893 23.322-8.994 35.757-10.871A94.3 94.3 0 0 1 278.7 7.926a120.9 120.9 0 0 1 28.9 4.216c11.9 3.208 22.4 9.239 33.153 14.824 2.688 1.4 4.868 3.753 7.335 5.595 10.078 7.528 19.308 15.809 25.465 27.068a48.3 48.3 0 0 1 5.163 14.8c3.083 17.017-.815 32.751-8.052 48.026a194 194 0 0 0-10.317 25.17 35.1 35.1 0 0 0-1.407 12.386c.347 6.766 3.869 11.645 9.729 14.7a57.3 57.3 0 0 0 14.2 5.421 59.44 59.44 0 0 1 23.011 10.734c3.9 2.911 8.008 5.49 11.256 9.345 7.16 8.5 9.862 18.1 7.852 28.877-2 10.738-4.847 21.373-10.834 30.611-5.5 8.5-9.7 17.987-16.695 25.351-7.34 7.724-14.459 15.866-23.921 21.281-1.257.719-2.441 1.573-3.625 2.413-.979.694-1.067 1.468.186 1.876a23.6 23.6 0 0 0 4.231 1.017c5.855.754 10.994 3.194 16.248 5.814a134.5 134.5 0 0 1 19.246 11.167 61.8 61.8 0 0 1 11.054 10.323c.582.694 1.034 1.5 1.6 2.2a51.85 51.85 0 0 1 10.279 20.792c2.1 8.809 5.761 17.221 7.368 26.167a344 344 0 0 1 5.716 50.208c.283 9.085-.4 18.137-.086 27.209.137 3.937-1.48 6.038-4.006 6.014-2.371-.023-3.664-1.721-3.893-5.585-.226-3.809-.412-7.636-.29-11.444a146.3 146.3 0 0 0-1.373-23.893c-2.5-18.882-4.621-37.81-10.254-56.176-2.081-6.785-4.672-13.333-6.98-20a9.8 9.8 0 0 0-1.2-2.432 71.7 71.7 0 0 0-15.582-16.567 53 53 0 0 0-12.17-7.045c-2.089-.823-3.437-.646-4.595 1.234a38.3 38.3 0 0 1-8.831 9.555 8 8 0 0 0-1.557 1.519c-7.585 10.786-18.185 18.079-29 25.132a174.3 174.3 0 0 1-33.851 17.334 103.4 103.4 0 0 1-28.01 6.588q-7.054.565-14.073 1.541c-17.013 2.393-32.362-1.633-46.282-11.606-6.784-4.861-13.419-9.909-20.086-14.925-7.957-5.985-14.245-13.4-19.975-21.4a20 20 0 0 1-1.868-2.678c-1.042-2.134-2.176-2.319-4.225-1.012-23.152 14.772-40.86 34.618-54.665 58.177-4.731 8.074-7.421 16.931-10.195 25.746-2.339 7.43-4.542 14.922-6.338 22.5-1.293 5.451-1.81 11.085-2.69 16.635a52 52 0 0 1-1.053 5.886 6.674 6.674 0 0 1-7.6 4.466 11.27 11.27 0 0 1-6.445-3.8c-1.475-1.6-2.863-3.29-4.212-5q-16.83-21.348-35.038-41.53a36.35 36.35 0 0 1-9.879-22.416c-.363-4.884-1.421-9.712-1.217-14.648.209-5.076.779-5.862 5.751-6.992a28 28 0 0 1 6.456-.854 37.4 37.4 0 0 0 9.676-1.383 59 59 0 0 1 12.848-2.179c3.332-.1 3.606-.61 3.445-4.057-.05-1.087-.212-2.17-.358-3.25-.584-4.34-.589-4.346-4.743-4.2-1.788.063-3.8.581-4.647-1.686-.548-1.469.868-2.538 4.141-3.3 4.758-1.113 4.758-1.113 4.549-6.233-.154-3.779-.156-3.758-3.729-4.2a35 35 0 0 1-4.835-.786c-2.482-.669-2.868-2.55-1.091-4.481 1.388-1.509 3.265-1.638 5.039-1.607 5.055.09 4.476-1.7 4.335-4.863-.1-2.325.337-5.268-.888-6.791-1.387-1.723-4.39-.076-6.7-.243-2.332-.169-4.723.335-6.794-1.294-1.814-1.428-1.862-3.051-.005-4.442a8.8 8.8 0 0 1 4.064-1.454c1.433-.226 2.914-.2 4.326-.5 5.837-1.26 5.4.339 5.531-6.866a15 15 0 0 0-.137-1.629c-.383-4.108-.548-4.317-4.519-4.409-3.085-.071-6.174-.007-9.261-.006h-8.175ZM239.33 89.5v.333c1.089 0 2.18-.034 3.268.006 6.881.254 13.791-.8 20.649.464 4.359.807 5.817 2.571 5.554 7.069-.7 12 .449 23.94 1.235 35.89.118 1.8.015 3.775.726 5.348 1 2.218 3.545 1.175 5.384 1.6 6.595 1.533 11.984 6.9 11.51 12.758-.712 8.812-2.79 17.281-10.222 23.243-1.426 1.144-2.9 2.212-3.432 4.093-2.384 8.37-5.5 16.545-6.8 25.206-1.427 9.546-1.1 19.193-1.631 28.79a116.7 116.7 0 0 0 6.277 43.919c2.749 8.215 6.961 15.613 13.957 21.021a54.2 54.2 0 0 0 32.279 11.38c3.8.116 7.623.112 11.421-.092 10.395-.557 20.5-2.212 29.979-7.009a84.2 84.2 0 0 0 20.545-14.982c8.927-8.613 17.006-17.7 22.93-28.741 4.317-8.04 8.245-16.146 10.311-25.058.9-3.868 2.368-7.667 2.4-11.661.074-7.963-3.488-14.454-9.416-19.408a83.9 83.9 0 0 0-22.278-13.355c-6.18-2.517-12.613-4.5-18.161-8.538a25.55 25.55 0 0 1-10.081-13.765 38.17 38.17 0 0 1 .2-20.992 266 266 0 0 1 9.72-28.312c5.422-13.561 8.068-27.362 5.219-42.012a36.2 36.2 0 0 0-9.9-19c-6.775-6.759-14.548-12.515-21.892-18.7-6.741-5.679-14.92-8.894-22.522-13.091a31.3 31.3 0 0 0-8.229-2.785c-2.291-.526-4.6-1.032-6.832-1.75a73.4 73.4 0 0 0-20.833-3.6 99.9 99.9 0 0 0-33.242 4.884 104.3 104.3 0 0 0-26.553 13.514c-7.021 4.81-13.994 9.709-19.512 16.4-3.732 4.527-6.238 9.74-9.326 14.621-3.374 5.334-4.529 10.987-5.133 16.967-.327 3.247-.288 3.363 3.08 3.537 2.895.15 5.8.01 8.708 0 3.374-.016 3.444 0 4.269-3.473a62 62 0 0 1 4.9-13.823c.87-1.718 1.373-4.089 4.012-3.731 2.479.336 2.8 2.532 3.2 4.51a22 22 0 0 1 .41 2.69q.423 5.7.779 11.414c.246 3.885.315 4.124 4.009 4.193 6.352.118 12.709.028 19.064.028m24.578 25.55c0-3.368.213-7.378-.059-11.356-.289-4.236-1.133-4.964-5.457-5.014-6.534-.075-13.072.056-19.608.153a82.6 82.6 0 0 1-21.6-2.238c-4.407-1.116-5.194-2.228-5.385-6.83-.068-1.633-.077-3.27-.192-4.9-.05-.7-.155-1.557-.99-1.77-.929-.238-1.161.617-1.417 1.241-.621 1.51-1.568 3.012-1.7 4.573-.347 4.23-2.483 6.015-6.636 6.313-3.229.232-3.905 1.194-4.139 4.567a63 63 0 0 0-.056 7.63c.469 8.928-1.736 17.27-5.313 25.34-3.036 6.849-3.025 6.854 3.37 11.248a5 5 0 0 0 .454.3c3.363 1.847 4.5 4.563 4.458 8.485-.146 12.344.4 24.685 1.451 36.988.558 6.508 1.145 13.035 2.221 19.469.988 5.9 3.744 10.87 11.807 11.188 2.9.114 5.806.121 8.709.085 1.631-.02 3.258-.286 4.89-.341 4.137-.14 4.437.223 5.786 4.028 1.953 5.505 2.963 11.211 4.067 16.911a103.8 103.8 0 0 1 .57 34.694c-2.171 15.08-4.481 30.164-8.742 44.846-1.57 5.411-3.449 10.711-6.688 15.409-.53.769-1.16 1.537-2.176 1.245-1.438-.414-1.159-1.726-.973-2.715.964-5.151 2.022-10.284 3.06-15.42.146-.722.285-1.536-.387-1.93-.314-.184-1.022.2-1.506.423q-14.815 6.885-29.614 13.81c-2.991 1.406-3.232 1.99-1.352 4.945a98.5 98.5 0 0 0 9.679 13.113c4.764 5.3 10.656 9.233 16.09 13.736a88.4 88.4 0 0 0 33.59 17.263 48.5 48.5 0 0 0 23.166.973c4.429-.936 8.931-1.523 13.392-2.311 6.777-1.2 13.7-1.784 20.116-4.546 4.319-1.859 8.674-3.655 12.89-5.73 8.447-4.156 16.545-8.945 24.687-13.672 6.5-3.774 11.994-8.769 17.844-13.3 4.992-3.87 8.727-9.147 12.723-14.07 1.429-1.762.925-2.86-.866-3.841-.951-.521-1.756-1.32-2.723-1.8-5.31-2.627-10.717-4.379-16.646-1.9a28.4 28.4 0 0 1-10.028 2.108c-5.586.214-11.177.313-16.768.727A84.5 84.5 0 0 1 302 320.838a41.1 41.1 0 0 1-23.593-15.4 73.7 73.7 0 0 1-13.082-25.448c-2.6-9.251-5.3-18.4-6.119-28.105a482 482 0 0 1-1.31-21.184c-.443-10.856-.395-21.726 1.61-32.546 1.167-6.3 3.263-12.257 5.078-18.326.634-2.118 1.13-3.606-1.521-4.777-1.68-.742-3.785-2.268-2.844-4.547.856-2.072 3.225-1.139 4.924-1.122 8.084.079 12.423-2.833 15.231-10.434.189-.511.383-1.021.538-1.542 1.263-4.233.338-6.939-3.44-9.295a17.3 17.3 0 0 0-8.164-2.761c-4.518-.289-6.417-2.391-6.538-6.889-.034-1.269.089-2.542.141-3.812.262-6.326 1.223-12.617.997-19.597ZM49.5 181.937l-.364.029c.123 2.173.15 4.356.388 6.517.638 5.795 2.582 11.32 3.713 16.989 1.742 8.737 7.19 15.345 11.615 22.554a12.45 12.45 0 0 0 5.4 4.472c3.275 1.56 3.886 1.557 5.717-1.557a130.2 130.2 0 0 0 13.629-30.8c3.971-14.187 6.614-28.625 5.48-43.469-.3-3.921 1.135-6.456 4.4-8.489 3.224-2.006 6.138-4.506 9.271-6.67 1.8-1.246 2.21-2.338.99-4.432A97.7 97.7 0 0 1 102.656 123a113.5 113.5 0 0 1-6.219-26.443c-.27-2.1-1.1-2.789-3.156-2.566a83 83 0 0 1-11.4.907 120 120 0 0 0-26.5 1.865 15.2 15.2 0 0 1-6.489-.13c-1.783-.431-2.74.369-2.745 2.255-.011 4 .067 8-.09 11.991-.279 7.072-.515 14.15-.752 21.219-.341 10.155 1.31 20.241 2.281 30.343q.943 9.747 1.914 19.496m-12.333-66.394h.311c.271-7.25.444-14.506.833-21.751.721-13.431 1.88-26.745 7.355-39.356a75.8 75.8 0 0 0 4.914-14.975 70 70 0 0 1 3.558-10.836c2.515-6.57 8.4-9.072 14.891-6.4a32 32 0 0 0 6.312 1.623c1.706.324 1.916-.593 1.3-1.833a59.5 59.5 0 0 0-9.285-13.358 3.18 3.18 0 0 0-5.2.1c-3.975 4.694-9.558 7.735-12.766 13.3-1.707 2.963-3.384 5.962-5.123 8.916a91 91 0 0 0-11.046 28.21c-3 14.914-6 29.844-7.192 45.08a249.4 249.4 0 0 0 .146 43.492q2.541 26.277 4.507 52.6a114.5 114.5 0 0 0 16.645 52.322 12.33 12.33 0 0 1 2.1 7.14c-.086 2.54-.034 5.086-.15 7.625a304 304 0 0 0 .523 31.018c.188 3.311 1.255 3.933 5.764 3.778 2.739-.1 2.918-.388 2.862-3.9-.176-10.9-.6-21.8-.389-32.687.164-8.518-1.434-6.844 6.482-11.431 3.778-2.19 6.156-5.6 8.125-9.315 1.109-2.092 1.3-3.919-1.872-4.2a13.7 13.7 0 0 1-6.018-2.394 34.8 34.8 0 0 1-14.835-18.9c-2.878-8.6-4.492-17.564-5.855-26.527-1.527-10.043-2.791-20.126-4.144-30.2-.941-7-2.272-13.987-2.646-21.02-.458-8.682-.107-17.411-.107-26.121m48-29.1c3.557 0 6.826-.036 10.094.013 2.054.031 2.5-1.039 2.049-2.77-.274-1.05-.726-2.057-.964-3.114-.84-3.74-1.449-7.5-.512-11.325.679-2.77 3.148-3.554 5.283-1.64a12.2 12.2 0 0 1 1.691 2.131c2.821 4 6.039 7.8 8.332 12.089 2.9 5.422 7.613 5.4 12.536 5.343 1.635-.018 2.289-.995 1.58-2.567-1.269-2.812-2.5-5.648-3.909-8.39-4.242-8.251-9.123-16.035-15.653-22.762a93.7 93.7 0 0 0-22.41-17.024c-5.244-2.868-10.65-5.467-16.107-7.909-3.277-1.467-5.188-.618-6.545 2.582a82 82 0 0 0-3.74 10.219C52.9 55.85 49.125 70.422 47.9 85.53c-.391 4.821-.372 5.1 4.194 4.428a11 11 0 0 0 1.611-.273C64.08 86.5 74.817 87.1 85.165 86.442Zm260.017 359.885c-7.528-.088-12.594-4.769-12.7-11.279-.091-5.592 6.75-13.745 12.328-14.248 6.889-.621 14.8 3.55 12.946 13.081-.628 3.235-1.3 6.52-3.663 8.94a11.24 11.24 0 0 1-8.911 3.506m-1.756-8.341c1.137 0 1.5.028 1.856 0 2.384-.217 3.752-1.457 4.517-3.934a2.754 2.754 0 0 0-.946-3.367 4.89 4.89 0 0 0-5.6.013 5.1 5.1 0 0 0-1.342.895c-1.146 1.33-3.385 2.517-2.8 4.291.665 1.968 3.105 2.046 4.315 2.102m-76.173 15.038c-7.159.094-12.042-5.55-10.548-12.462a64 64 0 0 1 2.883-9.268c1.356-3.555 4.049-4.992 7.75-4.25 8.426 1.692 11.141 4.848 12.1 10.492 1.309 7.678-4.808 15.392-12.185 15.488m-5.509-12.751c-.245 4.032 1.071 5.874 4.39 6.145 3.254.265 6.477-2.937 6.585-6.544.094-3.122-2.445-5.319-6.6-5.713-2.621-.248-4.115 1.844-4.375 6.112m-72.4-10.41c2.254-.118 5.048 1.1 7.635 2.839a7.53 7.53 0 0 1 3.563 5.821c.311 5.269-1.113 10.121-4.992 13.817-2.579 2.458-5.785 3.857-9.407 2-3.512-1.8-6.236-4.153-6.249-8.645-.01-3.846.953-7.526 1.578-11.248.568-3.417 2.91-4.709 7.867-4.584Zm-4.145 11.11a15 15 0 0 0 .715 3.866c1.233 2.986 4.328 3.287 6.414.8 3.527-4.2 2.588-7.518-2.635-9.3a20 20 0 0 0-1.54-.477c-1.756-.445-2.748.15-2.777 2.061-.016.722-.086 1.438-.178 3.05Zm40.869 10.515c5.85.01 9.013 2.3 10.4 7.521s-1.028 11.1-5.578 13.5a4.9 4.9 0 0 1-1.5.614c-2.072.289-4.038 2.383-6.064 1.225-2.942-1.681-5.959-3.578-6.991-7.2a23.5 23.5 0 0 1-.808-4.246c-.744-7.946 2.495-11.427 10.536-11.414Zm3.85 10.573c-.04-2.158-3.208-4.461-6.079-4.42-2.507.035-4.45 1.633-4.558 3.748-.125 2.456 3.043 5.55 5.711 5.577a5.27 5.27 0 0 0 4.921-4.905Zm73.505-6.7a10.45 10.45 0 0 1 5.27.879c6.566 2.628 8.4 6.282 6.527 13.3-1.289 4.83-7.065 8.788-12.134 8.035a36 36 0 0 1-6.733-1.984 4.85 4.85 0 0 1-2.092-1.652c-2.929-3.981-3.144-8.454-1.425-12.834a8.67 8.67 0 0 1 8.962-5.747c.537.018 1.08.002 1.62.001Zm-1.1 17.4a7.4 7.4 0 0 0 6.5-2.759c1.8-2.281 1.428-5.615-.831-6.48a21.8 21.8 0 0 0-6.269-1.407c-2.706-.181-5.765 2.737-5.985 5.268-.171 1.977 1.61 4.075 4.276 4.921a18 18 0 0 0 2.306.453ZM320.988 72.4c.128.349.024.339-.28-.039-4.449-1.527-8.913-3.011-13.339-4.6a11.8 11.8 0 0 0-6.4-.668c-4.829.959-9.1 4.811-4.239 10.621 2.907 3.476 5.992 6.805 9.036 10.164.3.334 1.028.7 1.3.561.546-.29.309-.963.089-1.454-1.481-3.309-2.659-6.755-4.58-9.867-.424-.688-1.226-1.557-.445-2.4.7-.758 1.755-.428 2.571-.128 3.567 1.315 7.132 2.646 10.636 4.118a25.7 25.7 0 0 0 8.322 2.4c4.531.285 6.764-2.62 5.265-6.924a17 17 0 0 0-3.442-5.5 117.5 117.5 0 0 0-16.839-15.424 62.64 62.64 0 0 0-26.517-12.027 8.5 8.5 0 0 0-4.307-.115c-.738.232-1.414.688-1.467 1.415-.064.884.749 1.081 1.5 1.142a28.6 28.6 0 0 1 7.41 1.706c13.841 5 25.017 13.75 34.628 24.693.608.692 1.169 1.4.727 2.406a2.4 2.4 0 0 1 .371-.08m63.038 148.444a39 39 0 0 0-1.2-5.844c-.123-.529-.559-1.115-1.107-.882-.344.147-.565.87-.612 1.356-.07.714.116 1.448.108 2.172-.153 13.1-2.456 25.659-9.44 37.015-2.778 4.516-5.808 8.857-10.6 11.462-1.327.721-2.969 2.417-4.415 1.171-1.629-1.4-.146-3.416.3-5.065a12 12 0 0 1 1.94-3.25c.5-.751 1.175-1.4 1.651-2.163a2.193 2.193 0 0 0-.106-2.97 2.265 2.265 0 0 0-3-.041 12 12 0 0 0-2.787 2.544 17.64 17.64 0 0 0-3.639 11.184c.011 5.884 2.612 7.945 8.3 6.221a26.44 26.44 0 0 0 14.806-11.407c6.434-10.111 10.92-20.953 9.855-34.456-.002-1.603.152-4.339-.054-7.048Zm-177.04-100.187c-.668 1.462-1.569 3.264.158 4.406 1.293.855 2.186-.718 3.1-1.518a11.4 11.4 0 0 1 1.224-1.069c2.108-1.363 3.116-.853 3.326 1.65a20 20 0 0 0 .3 3.235 4.81 4.81 0 0 0 3.767 3.541c1.853.465 3.113-.6 4.143-1.964a10 10 0 0 0 1.451-2.285c.672-1.733 1.527-1.749 2.685-.5a18 18 0 0 0 1.479 1.587c1.187 1 2.589 1.571 3.96.559 1.355-1 1.313-2.538.719-3.959-2.422-5.8-9.323-10.329-15.623-10.491-3.998.587-8.437 1.88-10.689 6.808m26.648 56.164c.187-1.068.22-2.282-.868-2.9-1.37-.781-2.384.073-3.244 1.088a12.5 12.5 0 0 0-.975 1.3 18.22 18.22 0 0 1-12.248 8.143 10.3 10.3 0 0 0-3 1.124c-1.624.928-1.545 2.427.178 3.237a11.9 11.9 0 0 0 5.235 1.176c7.1.123 13.588-5.534 14.922-13.168m46.453 188.108c6.561-2.565 11.744-6.962 16.136-12.372a3 3 0 0 0 .518-.944c.223-.7.392-1.488-.371-1.924a2 2 0 0 0-1.5-.165 4.6 4.6 0 0 0-1.785 1.148c-4.951 5.436-11.285 8.948-17.472 12.668-.519.313-1.592.311-1.05 1.387.357.708 1.082.89 2.4.954a19.4 19.4 0 0 0 3.124-.752M82.413 193.267c.648-2.047-.646-3-2.322-3.634-1.352-.509-2.721-.977-4.062-1.515-.486-.2-1.115-.577-.9-1.128.139-.353.841-.619 1.322-.678 1.975-.242 3.974-.309 5.938-.61a2.027 2.027 0 0 0 .085-3.938 7.4 7.4 0 0 0-2.138-.355c-4-.064-7.935-.226-11.678-2.059-1.763-.864-3.613.377-4.064 2.39a7.45 7.45 0 0 0 .976 5.752c3.017 4.8 7.691 6.934 12.274 8.033 2.524.157 3.988-.425 4.569-2.258M61.875 124.8a2.9 2.9 0 0 0 .769 3.424 2.64 2.64 0 0 0 3.5.009c1.162-.835 2.2-1.849 3.3-2.763a33 33 0 0 1 4.618-3.687c3.511-1.951 6.931-1.427 10.095 1.045.692.54 1.564 1.049 2.414.237.776-.743.531-1.672.217-2.524-1.248-3.38-6.017-6.488-9.9-6.489-6.142-.004-13.052 5.002-15.013 10.748m17.393-58.811c-1.536-3.866-4.8-6.733-6.259-10.694-.4-1.093-1.422-.8-2 .2-1.2 2.087-.758 4.152.044 6.243.541 1.411.7 2.566-.988 3.653-2.2 1.421-2.137 2.38-.408 3.877a8.93 8.93 0 0 0 5.982 2.115c3.461-.068 4.919-2.149 3.629-5.394" data-name="Untitled_Artwork 12 Image"/></g></svg>