<svg xmlns="http://www.w3.org/2000/svg" viewBox="0 0 204 140"><g fill-rule="nonzero"><path d="M19.919 91.446c14.416-.538 28.824-1.056 43.255-.07 5.6.382 11.298-.492 16.874.028 10.022.934 20.04.087 30.059.583 12.095.6 24.251.123 36.328.914q15.324 1 30.654 1.598c.577.022 1.353.292 1.461-.409a2.03 2.03 0 0 0-.815-1.56c-6.133-4.384-12.306-8.715-18.47-13.059-1.714-1.212-3.44-2.398-5.139-3.625-1.39-1.005-2.937-2.179-1.795-4.067.956-1.581 2.668-.875 3.994-.324a78 78 0 0 1 9.17 4.137c10.493 6.068 21.613 11.012 31.586 18.034 7.809 5.498 8.515 9.014 1.134 15.019a256.4 256.4 0 0 1-37.697 26.031 34 34 0 0 1-3.958 1.91c-1.702.668-3.307.528-4.455-1.138-1.052-1.525-.291-2.989.625-4.027a48 48 0 0 1 7.06-7.124c6.704-4.976 13.662-9.61 20.511-14.393 1.202-.839 2.37-1.726 3.557-2.59.675-.49 1.733-1.064 1.373-1.853-.34-.752-1.438-.246-2.23-.083-16.49 3.315-33.164 4.421-49.965 4.773-17.605.369-35.125-1.111-52.692-1.46-12.521-.245-25.038-1.75-37.526-3.205-7.456-.868-15.014-1.234-22.527-1.838A82 82 0 0 1 9.12 101.9a18.3 18.3 0 0 1-4.087-1.552 3.7 3.7 0 0 1-2.168-3.555 3.69 3.69 0 0 1 2.808-3.752c3.227-.789 6.412-1.968 9.851-1.64 1.452.134 2.929.032 4.395.045M168.569 23.315c-9.312 0-18.641-.453-27.931.105-14.775.885-29.558.768-44.335 1.2-15.966.466-31.863 2.064-47.781 3.39q-.741.136-1.49.094c-.42-.067-1.1-.282-1.162-.592-.158-.763.519-.92.954-1.119 5.15-2.332 10.406-4.36 15.435-7.04 4.252-2.266 8.843-3.659 12.67-7.11a19 19 0 0 0 2.084-1.691c1.408-1.676 2.189-3.756 1.458-6.162C77.775 2.187 76 .81 74.103 1.004a13.1 13.1 0 0 0-3.421.656c-9.44 2.51-18.454 6.777-27.56 10.6-11.62 4.878-23.04 10.495-34.638 15.459-3.906 1.672-5.88 5.223-7.5 9.327a7.42 7.42 0 0 0-.154 4.848c.493 1.572 1.491 2.818 2.754 3.437 2.575 1.415 5.294 2.42 7.928 3.676 10.249 4.89 20.926 7.97 31.475 11.601 6.417 2.209 12.927 3.847 19.44 5.507a19.2 19.2 0 0 0 5.424.87c3.235-.124 4.35-.994 4.93-3.894.743-3.1-.352-6.426-2.631-7.987a43 43 0 0 0-6.935-3.372c-4.74-1.908-9.8-1.906-14.584-3.741-3.152-1.209-6.471-1.741-9.713-2.592-.43-.112-1.046-.114-.88-.967.132-.363.39-.631.7-.727a12.4 12.4 0 0 1 2.47-.394c14.115-.637 28.125-2.917 42.2-4.177 10.756-.963 21.527-1.648 32.288-2.526 10.935-.895 21.876-1.564 32.786-2.967 8.263-1.064 16.58-1.468 24.853-2.422 7.769-.894 15.57-1.68 23.165-4.067 1.562-.492 4.42-.18 3.93-3.282-.36-2.272-2.871-1.133-4.412-1.148-9.148-.087-18.3-.044-27.446-.044z"/></g></svg>