<svg width="300" height="100" viewBox="0 0 300 100" fill="none" xmlns="http://www.w3.org/2000/svg">
<g clip-path="url(#clip0_2295_80)">
<path d="M0 0H300V100H0V0Z" fill="black"/>
<path d="M33.3 61.3002H47V55.9002H63.3V49.3002H47V47.1002H63.3V39.7002H33.3V61.3002Z" fill="white"/>
<path fill-rule="evenodd" clip-rule="evenodd" d="M81.9 45.5998H86.3C88.7 45.5998 89.9 46.0998 89.9 47.4998C89.9 49.0998 89.2 49.8998 86.1 49.8998H81.9V45.5998ZM68.3 61.2998H81.9V54.2998H82L88.4 61.2998H104.5L95.1 52.3998C99.3 52.0998 103.5 50.3998 103.5 46.0998C103.5 41.9998 99.9 39.7998 93.8 39.7998H68.3V61.2998Z" fill="white"/>
<path d="M108.6 61.3002H139.1V55.6002H122.3V53.6002H139.1V48.6002H122.3V46.5002H139.1V39.7002H108.6V61.3002Z" fill="white"/>
<path d="M144.2 61.3002H157.8V39.7002H144.2V61.3002Z" fill="white"/>
<path d="M170.4 61.3002H184.1V48.2002H192.1V39.7002H162.4V48.2002H170.4V61.3002Z" fill="white"/>
<path fill-rule="evenodd" clip-rule="evenodd" d="M214.8 52.6002H208.9L211.7 44.7002H211.8L214.8 52.6002ZM192.5 61.3002H206.4L207.4 58.5002H216.4L217.3 61.3002H231.4L222.7 39.7002H201.1L192.5 61.3002Z" fill="white"/>
<path d="M266.5 50.3001H254V56.3001H252C248.6 56.3001 246.1 55.0001 246.1 51.6001C246.1 47.5001 250.9 47.2001 254.8 47.2001C258.2 47.2001 262.6 47.4001 265.9 47.8001V40.2001C260.2 39.5001 256.8 39.1001 250.6 39.1001C240.7 39.1001 232.4 41.8001 232.4 50.6001C232.4 58.6001 239.4 61.9001 250 61.9001C256.9 61.9001 261.3 61.3001 266.3 60.0001V50.3001H266.5Z" fill="white"/>
<path d="M280.3 43.4C280.3 46.1 278.2 48.3 275.5 48.3C272.7 48.3 270.7 46.1 270.7 43.4C270.7 40.7 272.8 38.5 275.5 38.5C278.2 38.5 280.3 40.7 280.3 43.4Z" fill="white"/>
<path d="M279.4 43.3999C279.4 41.0999 277.8 39.3999 275.5 39.3999C273.1 39.3999 271.6 41.0999 271.6 43.4999C271.6 45.7999 273.2 47.4999 275.5 47.4999C277.8 47.4999 279.4 45.6999 279.4 43.3999Z" fill="black"/>
<path d="M276.6 43.8002L277.5 45.8002H276.5L275.6 43.9002H274.6V45.8002H273.7V40.7002H275.6C276.6 40.7002 277.4 41.3002 277.4 42.3002C277.5 43.0002 277.2 43.6002 276.6 43.8002Z" fill="white"/>
<path d="M275.7 43.2001C276.2 43.2001 276.6 43.0001 276.6 42.4001C276.6 41.9001 276.2 41.6001 275.7 41.6001H274.7V43.2001H275.7Z" fill="black"/>
</g>
<defs>
<clipPath id="clip0_2295_80">
<rect width="300" height="100" fill="white"/>
</clipPath>
</defs>
</svg>
