<?xml version="1.0" encoding="UTF-8" standalone="no"?>
<!DOCTYPE svg PUBLIC "-//W3C//DTD SVG 1.1//EN" "http://www.w3.org/Graphics/SVG/1.1/DTD/svg11.dtd">
<svg width="100%" height="100%" viewBox="0 0 397 133" version="1.1" xmlns="http://www.w3.org/2000/svg" xmlns:xlink="http://www.w3.org/1999/xlink" xml:space="preserve" xmlns:serif="http://www.serif.com/" style="fill-rule:evenodd;clip-rule:evenodd;stroke-linejoin:round;stroke-miterlimit:2;">
    <g transform="matrix(1,0,0,1,-1417.43,-554.965)">
        <g transform="matrix(1.32093,0,0,1.32093,1615.57,621.011)">
            <g transform="matrix(1,0,0,1,-150,-50)">
                <g>
                    <rect x="0" y="0" width="300" height="100" style="fill-rule:nonzero;"/>
                    <path d="M33.3,61.3L47,61.3L47,55.9L63.3,55.9L63.3,49.3L47,49.3L47,47.1L63.3,47.1L63.3,39.7L33.3,39.7L33.3,61.3Z" style="fill:white;fill-rule:nonzero;"/>
                    <path d="M81.9,45.6L86.3,45.6C88.7,45.6 89.9,46.1 89.9,47.5C89.9,49.1 89.2,49.9 86.1,49.9L81.9,49.9L81.9,45.6ZM68.3,61.3L81.9,61.3L81.9,54.3L82,54.3L88.4,61.3L104.5,61.3L95.1,52.4C99.3,52.1 103.5,50.4 103.5,46.1C103.5,42 99.9,39.8 93.8,39.8L68.3,39.8L68.3,61.3Z" style="fill:white;"/>
                    <path d="M108.6,61.3L139.1,61.3L139.1,55.6L122.3,55.6L122.3,53.6L139.1,53.6L139.1,48.6L122.3,48.6L122.3,46.5L139.1,46.5L139.1,39.7L108.6,39.7L108.6,61.3Z" style="fill:white;fill-rule:nonzero;"/>
                    <rect x="144.2" y="39.7" width="13.6" height="21.6" style="fill:white;fill-rule:nonzero;"/>
                    <path d="M170.4,61.3L184.1,61.3L184.1,48.2L192.1,48.2L192.1,39.7L162.4,39.7L162.4,48.2L170.4,48.2L170.4,61.3Z" style="fill:white;fill-rule:nonzero;"/>
                    <path d="M214.8,52.6L208.9,52.6L211.7,44.7L211.8,44.7L214.8,52.6ZM192.5,61.3L206.4,61.3L207.4,58.5L216.4,58.5L217.3,61.3L231.4,61.3L222.7,39.7L201.1,39.7L192.5,61.3Z" style="fill:white;"/>
                    <path d="M266.5,50.3L254,50.3L254,56.3L252,56.3C248.6,56.3 246.1,55 246.1,51.6C246.1,47.5 250.9,47.2 254.8,47.2C258.2,47.2 262.6,47.4 265.9,47.8L265.9,40.2C260.2,39.5 256.8,39.1 250.6,39.1C240.7,39.1 232.4,41.8 232.4,50.6C232.4,58.6 239.4,61.9 250,61.9C256.9,61.9 261.3,61.3 266.3,60L266.3,50.3L266.5,50.3Z" style="fill:white;fill-rule:nonzero;"/>
                    <path d="M280.3,43.4C280.3,46.1 278.2,48.3 275.5,48.3C272.7,48.3 270.7,46.1 270.7,43.4C270.7,40.7 272.8,38.5 275.5,38.5C278.2,38.5 280.3,40.7 280.3,43.4Z" style="fill:white;fill-rule:nonzero;"/>
                    <path d="M279.4,43.4C279.4,41.1 277.8,39.4 275.5,39.4C273.1,39.4 271.6,41.1 271.6,43.5C271.6,45.8 273.2,47.5 275.5,47.5C277.8,47.5 279.4,45.7 279.4,43.4Z" style="fill-rule:nonzero;"/>
                    <path d="M276.6,43.8L277.5,45.8L276.5,45.8L275.6,43.9L274.6,43.9L274.6,45.8L273.7,45.8L273.7,40.7L275.6,40.7C276.6,40.7 277.4,41.3 277.4,42.3C277.5,43 277.2,43.6 276.6,43.8Z" style="fill:white;fill-rule:nonzero;"/>
                    <path d="M275.7,43.2C276.2,43.2 276.6,43 276.6,42.4C276.6,41.9 276.2,41.6 275.7,41.6L274.7,41.6L274.7,43.2L275.7,43.2Z" style="fill-rule:nonzero;"/>
                </g>
            </g>
        </g>
    </g>
</svg>
