<svg width="114" height="26" viewBox="0 0 114 26" fill="none" xmlns="http://www.w3.org/2000/svg">
<g clip-path="url(#clip0_2295_52)">
<path d="M22.662 0C18.076 0 14.754 6.041 14.754 13.032C14.755 20.18 18.297 26 22.662 26C27.027 26 30.601 20.18 30.601 13.032C30.57 5.82 27.027 0 22.662 0ZM25.351 24.545C24.655 25.557 23.655 25.806 22.662 25.806C21.693 25.806 20.701 25.557 20.005 24.545C18.835 22.837 18.329 20.085 18.329 13.032C18.329 6.832 18.835 3.227 20.005 1.519C20.701 0.475 21.685 0.262 22.662 0.262C23.662 0.262 24.655 0.444 25.351 1.519C26.521 3.227 27.027 6.833 27.027 13.032C27.027 20.085 26.521 22.837 25.351 24.545ZM42.495 0.696V7.908C42.495 7.971 42.4 7.971 42.4 7.908C42.4 4.65 40.755 0.796 37.719 0.828H35.315C35.22 0.828 35.157 0.86 35.157 0.955V12.572H35.568C37.529 12.572 38.921 10.281 38.921 7.877C38.921 7.814 39.016 7.814 39.016 7.877V17.461C39.016 17.524 38.921 17.524 38.921 17.461C38.921 15.089 37.529 12.766 35.568 12.766H35.157V25.048C35.157 25.143 35.22 25.175 35.315 25.175H37.466C37.467 25.175 37.467 25.178 37.467 25.178C37.515 25.182 37.554 25.229 37.554 25.289C37.554 25.35 37.515 25.397 37.466 25.401V25.402C37.465 25.402 37.463 25.403 37.462 25.403C37.461 25.403 37.46 25.402 37.459 25.402H29.634C29.633 25.402 29.632 25.403 29.631 25.403C29.63 25.403 29.629 25.402 29.628 25.402H29.621C29.62 25.402 29.62 25.398 29.619 25.397C29.575 25.389 29.539 25.346 29.539 25.289C29.539 25.232 29.574 25.191 29.618 25.182C29.619 25.181 29.62 25.175 29.621 25.175H31.772C31.899 25.175 31.93 25.143 31.93 25.048V0.954C31.93 0.859 31.867 0.827 31.772 0.827H29.634C29.633 0.827 29.632 0.828 29.631 0.828C29.63 0.828 29.629 0.827 29.628 0.827H29.621C29.566 0.827 29.54 0.773 29.539 0.717C29.539 0.716 29.538 0.715 29.538 0.714C29.538 0.657 29.566 0.6 29.62 0.6H42.43C42.463 0.601 42.495 0.664 42.495 0.696ZM11.529 8.92C11.909 8.762 12.256 8.54 12.478 8.287C13.205 7.56 13.617 6.706 13.617 5.915C13.617 5.124 13.269 4.365 12.542 3.733C12.162 3.417 11.815 2.816 11.815 2.057C11.813 0.949 12.541 0 13.458 0C14.597 0 15.166 0.981 15.198 2.594C15.198 4.555 13.458 8.351 11.56 9.078C11.497 9.109 11.497 8.951 11.529 8.92ZM13.616 17.049V25.273C13.616 25.368 13.584 25.4 13.553 25.4H0.167C0.166 25.4 0.165 25.401 0.164 25.401C0.163 25.401 0.162 25.4 0.161 25.4H0.154C0.144 25.4 0.14 25.39 0.132 25.385C0.099 25.368 0.072 25.335 0.072 25.288C0.072 25.232 0.107 25.19 0.151 25.181C0.155 25.18 0.157 25.174 0.162 25.174H2.23C2.325 25.174 2.388 25.142 2.388 25.047V0.954C2.388 0.859 2.325 0.827 2.23 0.827H0.095C0.094 0.827 0.093 0.828 0.092 0.828C0.091 0.828 0.091 0.827 0.089 0.827H0.078C0.072 0.827 0.069 0.818 0.064 0.814C0.029 0.799 0 0.764 0 0.715C0 0.667 0.027 0.634 0.061 0.617C0.067 0.612 0.071 0.601 0.079 0.601H7.923C8.063 0.601 8.063 0.827 7.923 0.827H5.772C5.677 0.827 5.614 0.859 5.614 0.954V25.047C5.614 25.142 5.677 25.174 5.772 25.174H8.208C11.909 25.174 13.522 20.624 13.522 17.05C13.521 16.985 13.616 16.985 13.616 17.049ZM76.592 16.732V25.936C76.592 25.968 76.529 25.968 76.529 25.936C76.466 25.525 76.086 24.892 75.422 24.892C74.315 24.892 72.512 25.999 71.152 25.999C66.534 25.999 63.118 19.958 63.118 13.031C63.117 6.041 66.439 0 71.057 0C72.227 0 73.746 0.949 74.853 0.949C75.517 0.949 75.992 0.475 76.055 0.095C76.055 0.032 76.15 0.032 76.15 0.095V8.287C76.15 8.35 76.055 8.35 76.055 8.287C76.055 4.808 73.43 0.259 71.026 0.259C69.919 0.259 69.033 0.474 68.337 1.518C67.167 3.226 66.692 6.832 66.692 13.031C66.692 19.199 67.166 22.836 68.337 24.544C69.033 25.556 70.045 25.805 71.152 25.805C74.125 25.805 76.529 21.318 76.529 16.731C76.529 16.669 76.592 16.669 76.592 16.732ZM55.653 0.696V7.908C55.653 7.971 55.558 7.971 55.558 7.908C55.558 4.65 53.913 0.796 50.845 0.828H48.441C48.346 0.828 48.283 0.86 48.283 0.955V12.566H48.694C50.655 12.566 52.047 10.281 52.047 7.877C52.047 7.814 52.142 7.814 52.142 7.877V17.461C52.142 17.524 52.047 17.524 52.047 17.461C52.047 15.089 50.655 12.772 48.694 12.772H48.283V25.048C48.283 25.143 48.346 25.175 48.441 25.175H50.592C50.596 25.175 50.597 25.182 50.601 25.184C50.643 25.195 50.676 25.234 50.676 25.289C50.676 25.345 50.641 25.386 50.598 25.396C50.596 25.397 50.595 25.402 50.592 25.402H50.587C50.586 25.402 50.585 25.403 50.584 25.403C50.583 25.403 50.582 25.402 50.581 25.402H42.76C42.759 25.402 42.758 25.403 42.757 25.403C42.756 25.403 42.755 25.402 42.754 25.402H42.748C42.745 25.402 42.744 25.397 42.742 25.396C42.699 25.386 42.665 25.345 42.665 25.29C42.665 25.236 42.698 25.197 42.739 25.186C42.743 25.184 42.744 25.177 42.748 25.177H44.899C45.026 25.177 45.057 25.145 45.057 25.05V0.954C45.057 0.859 44.994 0.827 44.899 0.827H42.764C42.763 0.827 42.762 0.828 42.761 0.828C42.76 0.828 42.759 0.827 42.758 0.827H42.747C42.742 0.827 42.74 0.818 42.736 0.816C42.698 0.802 42.668 0.766 42.668 0.715C42.668 0.665 42.697 0.631 42.733 0.615C42.738 0.611 42.741 0.601 42.747 0.601H55.589C55.621 0.601 55.653 0.664 55.653 0.696ZM113.061 17.08V25.304C113.061 25.367 113.061 25.399 112.998 25.399H99.54C99.539 25.399 99.538 25.4 99.537 25.4C99.536 25.4 99.535 25.399 99.534 25.399H99.524C99.519 25.399 99.517 25.391 99.513 25.388C99.475 25.374 99.445 25.338 99.445 25.286C99.445 25.236 99.474 25.201 99.51 25.186C99.515 25.182 99.518 25.172 99.524 25.172H101.675C101.77 25.172 101.833 25.14 101.833 25.045V0.954C101.833 0.859 101.77 0.827 101.675 0.827H99.531C99.53 0.827 99.529 0.828 99.528 0.828C99.527 0.828 99.526 0.827 99.525 0.827L99.523 0.826C99.475 0.822 99.436 0.775 99.436 0.715C99.436 0.656 99.474 0.611 99.52 0.605C99.522 0.605 99.522 0.601 99.524 0.601H107.368C107.372 0.601 107.373 0.612 107.376 0.617C107.41 0.634 107.437 0.667 107.437 0.715C107.437 0.763 107.409 0.797 107.375 0.813C107.372 0.817 107.371 0.827 107.368 0.827H107.348C107.347 0.827 107.346 0.828 107.345 0.828C107.344 0.828 107.343 0.827 107.342 0.827H105.217C105.122 0.827 105.059 0.859 105.059 0.954V25.047C105.059 25.142 105.122 25.174 105.217 25.174H107.652C111.353 25.174 112.966 20.656 112.966 17.081C112.967 17.017 113.061 17.017 113.061 17.08ZM99.239 17.397V25.305C99.239 25.368 99.207 25.4 99.176 25.4H99.123H85.053C85.052 25.4 85.051 25.401 85.05 25.401C85.049 25.401 85.048 25.4 85.047 25.4H85.036C85.031 25.4 85.029 25.391 85.025 25.389C84.987 25.374 84.957 25.339 84.957 25.288C84.957 25.239 84.986 25.204 85.022 25.188C85.027 25.184 85.03 25.174 85.036 25.174H87.187C87.282 25.174 87.345 25.142 87.345 25.047V0.954C87.345 0.859 87.313 0.827 87.187 0.827H85.053C85.052 0.827 85.051 0.828 85.05 0.828C85.049 0.828 85.048 0.827 85.047 0.827H85.036C85.031 0.827 85.029 0.818 85.024 0.815C84.987 0.8 84.958 0.765 84.958 0.714C84.958 0.665 84.986 0.631 85.021 0.615C85.026 0.611 85.029 0.6 85.036 0.6H97.878C97.941 0.6 97.941 0.663 97.941 0.695V7.938C97.941 8.001 97.846 8.001 97.846 7.938C97.846 4.68 96.233 0.826 93.196 0.826H90.792C90.697 0.826 90.634 0.858 90.634 0.953V12.564H91.267C93.228 12.564 94.651 10.279 94.651 7.875C94.651 7.812 94.714 7.812 94.714 7.875V17.459C94.714 17.522 94.651 17.522 94.651 17.459C94.651 15.087 93.228 12.77 91.267 12.77H90.634V25.046C90.634 25.141 90.666 25.173 90.792 25.173H93.259C97.276 25.173 99.142 21.003 99.142 17.397C99.144 17.333 99.239 17.333 99.239 17.397ZM63.853 25.287C63.853 25.337 63.824 25.371 63.788 25.387C63.786 25.39 63.785 25.4 63.782 25.4H63.764C63.763 25.4 63.762 25.401 63.761 25.401C63.76 25.401 63.759 25.4 63.758 25.4H55.954C55.953 25.4 55.952 25.401 55.951 25.401C55.95 25.401 55.949 25.4 55.948 25.4H55.938C55.933 25.4 55.931 25.392 55.927 25.389C55.889 25.375 55.859 25.339 55.859 25.288C55.859 25.238 55.888 25.204 55.924 25.188C55.929 25.184 55.932 25.174 55.938 25.174H58.089C58.184 25.174 58.247 25.142 58.247 25.047V0.954C58.247 0.859 58.184 0.827 58.089 0.827H55.95C55.949 0.827 55.948 0.828 55.947 0.828C55.946 0.828 55.945 0.827 55.944 0.827H55.938C55.935 0.827 55.934 0.821 55.931 0.82C55.889 0.81 55.854 0.769 55.854 0.714C55.854 0.66 55.887 0.622 55.928 0.61C55.932 0.608 55.933 0.6 55.938 0.6H63.782C63.786 0.6 63.788 0.611 63.79 0.617C63.823 0.634 63.849 0.667 63.849 0.714C63.849 0.761 63.822 0.794 63.789 0.811C63.786 0.815 63.785 0.826 63.782 0.826H63.76C63.759 0.826 63.758 0.827 63.757 0.827C63.756 0.827 63.755 0.826 63.754 0.826H61.631C61.536 0.826 61.473 0.858 61.473 0.953V25.046C61.473 25.141 61.536 25.173 61.631 25.173H63.782C63.785 25.173 63.787 25.183 63.789 25.188C63.824 25.203 63.853 25.238 63.853 25.287ZM84.708 25.287C84.708 25.341 84.675 25.379 84.634 25.391C84.631 25.392 84.629 25.399 84.626 25.399H84.618C84.617 25.399 84.616 25.4 84.615 25.4C84.614 25.4 84.613 25.399 84.612 25.399H76.812C76.811 25.399 76.81 25.4 76.809 25.4C76.808 25.4 76.807 25.399 76.806 25.399H76.781C76.777 25.399 76.775 25.388 76.772 25.382C76.741 25.364 76.716 25.332 76.716 25.287C76.716 25.242 76.74 25.211 76.771 25.192C76.774 25.185 76.776 25.173 76.781 25.173H78.932C79.027 25.173 79.09 25.141 79.09 25.046V0.954C79.09 0.859 79.027 0.827 78.932 0.827H76.807C76.806 0.827 76.805 0.828 76.804 0.828C76.803 0.828 76.802 0.827 76.801 0.827H76.781C76.778 0.827 76.777 0.817 76.774 0.814C76.739 0.798 76.711 0.764 76.711 0.715C76.711 0.667 76.739 0.633 76.773 0.617C76.776 0.612 76.777 0.602 76.781 0.602H84.625C84.633 0.602 84.637 0.613 84.642 0.619C84.675 0.637 84.701 0.669 84.701 0.716C84.701 0.764 84.674 0.797 84.639 0.814C84.634 0.818 84.631 0.828 84.625 0.828H84.611C84.61 0.828 84.609 0.829 84.608 0.829C84.607 0.829 84.606 0.828 84.605 0.828H82.473C82.378 0.828 82.315 0.86 82.315 0.955V25.048C82.315 25.143 82.378 25.175 82.473 25.175H84.624C84.629 25.175 84.631 25.184 84.635 25.186C84.676 25.197 84.708 25.234 84.708 25.287Z" fill="black"/>
</g>
<defs>
<clipPath id="clip0_2295_52">
<rect width="113.061" height="26" fill="white"/>
</clipPath>
</defs>
</svg>
