<?xml version="1.0" encoding="UTF-8" standalone="no"?>
<!DOCTYPE svg PUBLIC "-//W3C//DTD SVG 1.1//EN" "http://www.w3.org/Graphics/SVG/1.1/DTD/svg11.dtd">
<svg width="100%" height="100%" viewBox="0 0 462 125" version="1.1" xmlns="http://www.w3.org/2000/svg" xmlns:xlink="http://www.w3.org/1999/xlink" xml:space="preserve" xmlns:serif="http://www.serif.com/" style="fill-rule:evenodd;clip-rule:evenodd;stroke-linejoin:round;stroke-miterlimit:2;">
    <g transform="matrix(1,0,0,1,-226.173,-1975.72)">
        <g transform="matrix(0.390251,0,0,0.390251,456.812,2038.16)">
            <g transform="matrix(1,0,0,1,-591,-160)">
                <clipPath id="_clip1">
                    <rect x="0" y="0" width="1182" height="320"/>
                </clipPath>
                <g clip-path="url(#_clip1)">
                    <g transform="matrix(1.15395,0,0,1.15395,-0.0054,-0.002075)">
                        <g>
                            <g>
                                <path d="M140.803,258.904C125.399,261.609 109.724,262.42 93.509,264.58L44.051,119.724L44.051,270.797C28.647,272.418 14.594,274.58 0,276.742L0,0L41.08,0L97.292,157.021L97.292,0L140.803,0L140.803,258.904ZM225.934,101.346C242.691,101.346 268.365,100.535 283.769,100.535L283.769,143.775C264.58,143.775 242.15,143.775 225.934,144.586L225.934,208.908C251.339,207.287 276.743,205.123 302.416,204.312L302.416,245.929L182.692,255.39L182.692,0L302.416,0L302.416,43.241L225.934,43.241L225.934,101.346ZM463.218,43.242L418.356,43.242L418.356,242.15C403.762,242.15 389.168,242.15 375.117,242.689L375.117,43.242L330.255,43.242L330.255,0L463.22,0L463.218,43.242ZM533.484,98.374L592.671,98.374L592.671,141.614L533.484,141.614L533.484,239.718L491.051,239.718L491.051,0L611.859,0L611.859,43.241L533.484,43.241L533.484,98.374ZM682.125,201.881C706.719,202.42 731.581,204.315 755.635,205.664L755.635,248.365C716.989,245.931 678.342,243.502 638.885,242.689L638.885,0L682.125,0L682.125,201.881ZM792.119,251.338C805.902,252.15 820.496,252.961 834.549,254.58L834.549,0L792.119,0L792.119,251.338ZM1024,0L969.137,131.615L1024,276.742C1007.78,274.58 991.568,271.607 975.352,268.904L944.274,188.91L912.657,262.42C896.979,259.715 881.845,258.904 866.173,256.742L921.845,129.992L871.576,0L918.058,0L946.435,72.699L976.705,0L1024,0Z" style="fill-rule:nonzero;"/>
                            </g>
                        </g>
                    </g>
                </g>
            </g>
        </g>
    </g>
</svg>
