<svg width="40" height="40" viewBox="0 0 40 40" fill="none" xmlns="http://www.w3.org/2000/svg">
<rect width="40" height="40" fill="white"/>
<path d="M20 35C28.2843 35 35 28.2843 35 20C35 11.7157 28.2843 5 20 5C11.7157 5 5 11.7157 5 20C5 28.2843 11.7157 35 20 35Z" fill="fillColor"/>
<path d="M29.918 31.2533L16.5237 14H14V25.995H16.0189V16.5639L28.3332 32.4742C28.8888 32.1023 29.4182 31.6942 29.918 31.2533Z" fill="url(#paint0_linear_2552_4890)"/>
<path d="M26.1665 14H24.1665V26H26.1665V14Z" fill="url(#paint1_linear_2552_4890)"/>
<defs>
<linearGradient id="paint0_linear_2552_4890" x1="23.1667" y1="24.4167" x2="29.0833" y2="31.75" gradientUnits="userSpaceOnUse">
<stop stop-color="white"/>
<stop offset="1" stop-color="white" stop-opacity="0"/>
</linearGradient>
<linearGradient id="paint1_linear_2552_4890" x1="25.1665" y1="14" x2="25.133" y2="22.8125" gradientUnits="userSpaceOnUse">
<stop stop-color="white"/>
<stop offset="1" stop-color="white" stop-opacity="0"/>
</linearGradient>
</defs>
</svg>
