<?xml version="1.0" encoding="UTF-8" standalone="no"?>
<!DOCTYPE svg PUBLIC "-//W3C//DTD SVG 1.1//EN" "http://www.w3.org/Graphics/SVG/1.1/DTD/svg11.dtd">
<svg width="100%" height="100%" viewBox="0 0 118 36" version="1.1" xmlns="http://www.w3.org/2000/svg" xmlns:xlink="http://www.w3.org/1999/xlink" xml:space="preserve" xmlns:serif="http://www.serif.com/" style="fill-rule:evenodd;clip-rule:evenodd;stroke-linejoin:round;stroke-miterlimit:2;">
    <g transform="matrix(1,0,0,1,-1181.66,-1735.94)">
        <g transform="matrix(1,0,0,1,1181.66,1735.94)">
            <clipPath id="_clip1">
                <rect x="0" y="0" width="117" height="36"/>
            </clipPath>
            <g clip-path="url(#_clip1)">
                <g>
                    <path d="M86.49,13.49L84.826,13.49C84.646,13.485 84.484,13.604 84.435,13.777C84.353,14.023 84.291,14.187 84.27,14.29C83.613,16.302 82.605,19.341 81.29,23.386C81.209,23.608 81.12,23.828 81.022,24.043C80.975,24.143 80.856,24.188 80.755,24.145C80.711,24.122 80.676,24.086 80.652,24.043C80.554,23.828 80.465,23.608 80.385,23.386C79.364,20.263 78.357,17.135 77.363,14.003C77.333,13.937 77.312,13.868 77.301,13.797C77.248,13.627 77.089,13.51 76.911,13.51L75.266,13.51C75.041,13.51 74.856,13.695 74.856,13.92C74.856,13.962 74.862,14.004 74.875,14.044C74.889,14.101 74.91,14.156 74.937,14.208C75.965,17.123 77.507,21.483 79.562,27.287C79.565,27.303 79.572,27.317 79.583,27.328C79.614,27.407 79.614,27.495 79.583,27.574C79.583,27.594 79.583,27.594 79.563,27.615C79.542,27.698 79.501,27.8 79.48,27.882C79.187,28.686 78.423,29.227 77.568,29.237L75.841,29.237C75.616,29.237 75.431,29.422 75.431,29.647L75.431,31.024C75.431,31.25 75.614,31.434 75.841,31.434L77.568,31.434C79.239,31.432 80.759,30.439 81.433,28.909C81.452,28.844 81.48,28.782 81.515,28.724C81.536,28.663 82.749,25.234 86.799,13.921C86.812,13.887 86.819,13.85 86.819,13.813C86.819,13.685 86.736,13.571 86.614,13.531C86.552,13.51 86.532,13.489 86.491,13.489M64.576,25.171C64.967,25.301 65.377,25.363 65.789,25.356C67.011,25.339 68.182,24.854 69.058,24.001C69.699,23.361 70.048,22.484 70.024,21.578L70.024,20.51C70.024,20.509 70.024,20.508 70.024,20.506C70.024,20.405 69.941,20.321 69.839,20.321C69.825,20.321 69.811,20.323 69.798,20.326C69.592,20.346 69.49,20.346 69.49,20.346L68.194,20.51L65.624,20.9C64.247,21.126 63.404,21.68 63.137,22.543C63.071,22.75 63.037,22.962 63.034,23.179C63.058,24.106 63.685,24.915 64.576,25.171M72.326,26.075L72.326,26.896C72.326,27.121 72.141,27.306 71.916,27.306L70.579,27.306C70.354,27.306 70.169,27.121 70.169,26.896L70.147,25.541C70.144,25.519 70.137,25.498 70.127,25.479C70.108,25.459 70.082,25.448 70.055,25.448C70.028,25.448 70.002,25.459 69.983,25.479C69.903,25.549 69.828,25.624 69.757,25.705C68.687,26.773 67.228,27.306 65.337,27.306C63.98,27.306 62.87,26.936 62.007,26.218C61.143,25.5 60.732,24.493 60.732,23.221C60.716,22.612 60.842,22.007 61.102,21.455C61.322,20.99 61.662,20.593 62.088,20.305C62.455,20.045 62.856,19.837 63.281,19.689C63.662,19.552 64.053,19.45 64.453,19.381C66.447,19.094 67.516,18.95 67.722,18.909C67.886,18.889 68.544,18.806 69.675,18.642C69.749,18.627 69.825,18.62 69.901,18.622C70.003,18.606 70.081,18.519 70.086,18.416L70.086,17.841C70.086,16.979 69.86,16.301 69.407,15.829C68.955,15.357 68.112,15.11 66.899,15.11C66.343,15.1 65.788,15.176 65.255,15.336C64.848,15.46 64.485,15.695 64.206,16.014C64.019,16.251 63.866,16.514 63.754,16.794C63.734,16.856 63.713,16.917 63.692,16.999C63.694,17.022 63.687,17.044 63.672,17.061C63.632,17.255 63.458,17.394 63.26,17.389L61.718,17.389C61.497,17.37 61.326,17.181 61.328,16.959L61.328,16.876C61.344,16.745 61.364,16.615 61.39,16.486C61.492,16.089 61.651,15.709 61.862,15.356C62.108,14.963 62.422,14.616 62.787,14.33C63.277,13.996 63.819,13.746 64.391,13.591C65.177,13.392 65.985,13.296 66.796,13.304C70.518,13.304 72.326,14.782 72.326,17.78L72.326,26.075ZM102.815,13.796L102.815,26.855C102.815,27.081 102.999,27.265 103.227,27.265L104.892,27.265C104.892,27.265 104.893,27.265 104.893,27.265C105.118,27.265 105.303,27.08 105.303,26.855L105.303,13.797C105.303,13.572 105.118,13.387 104.893,13.387C104.893,13.387 104.892,13.387 104.892,13.387L103.227,13.387C103.226,13.387 103.226,13.387 103.225,13.387C103,13.387 102.815,13.572 102.815,13.797C102.815,13.797 102.815,13.797 102.815,13.797M102.815,9.65L102.815,11.313C102.815,11.54 102.999,11.723 103.227,11.723L104.892,11.723C104.892,11.723 104.893,11.723 104.893,11.723C105.118,11.723 105.303,11.538 105.303,11.313L105.303,9.65C105.303,9.425 105.118,9.24 104.893,9.24C104.893,9.24 104.892,9.24 104.892,9.24L103.227,9.24C103.226,9.24 103.226,9.24 103.225,9.24C103,9.24 102.815,9.425 102.815,9.65C102.815,9.65 102.815,9.65 102.815,9.65M113.074,15.563L116.59,15.563C116.59,15.563 116.591,15.563 116.591,15.563C116.816,15.563 117.001,15.378 117.001,15.153L117.001,13.777C117.001,13.552 116.816,13.367 116.591,13.367C116.591,13.367 116.59,13.367 116.59,13.367L113.074,13.367C113.07,13.367 113.066,13.367 113.062,13.367C112.956,13.367 112.869,13.28 112.869,13.174C112.869,13.17 112.869,13.165 112.869,13.161L112.869,9.65C112.869,9.425 112.684,9.24 112.459,9.24C112.458,9.24 112.458,9.24 112.457,9.24L110.792,9.24C110.792,9.24 110.791,9.24 110.791,9.24C110.566,9.24 110.381,9.425 110.381,9.65L110.381,13.181C110.381,13.185 110.381,13.19 110.381,13.194C110.381,13.3 110.294,13.387 110.188,13.387C110.184,13.387 110.179,13.387 110.175,13.387L108.653,13.387C108.428,13.387 108.243,13.572 108.243,13.797L108.243,15.173C108.243,15.4 108.427,15.583 108.654,15.583L110.175,15.583C110.179,15.583 110.184,15.583 110.188,15.583C110.294,15.583 110.381,15.67 110.381,15.776C110.381,15.78 110.381,15.784 110.381,15.788L110.381,23.201C110.458,25.449 112.325,27.259 114.575,27.266L116.446,27.266C116.446,27.266 116.447,27.266 116.447,27.266C116.672,27.266 116.857,27.081 116.857,26.856L116.857,25.48C116.857,25.255 116.672,25.07 116.447,25.07C116.447,25.07 116.446,25.07 116.446,25.07L114.575,25.07C113.628,25.07 112.849,24.292 112.848,23.345L112.848,15.768C112.865,15.655 112.96,15.568 113.074,15.563M58.84,14.844C58.84,11.813 56.381,9.302 53.35,9.24L45.435,9.24C45.435,9.24 45.434,9.24 45.434,9.24C45.209,9.24 45.024,9.425 45.024,9.65L45.024,26.857C45.024,27.083 45.208,27.267 45.434,27.267L47.1,27.267C47.1,27.267 47.101,27.267 47.101,27.267C47.326,27.267 47.511,27.082 47.511,26.857L47.511,20.677C47.511,20.673 47.511,20.668 47.511,20.664C47.511,20.558 47.598,20.471 47.704,20.471C47.708,20.471 47.713,20.471 47.717,20.471L53.35,20.471C56.382,20.393 58.836,17.879 58.84,14.846M56.661,14.846C56.658,16.716 55.118,18.254 53.248,18.255L47.738,18.255C47.734,18.255 47.73,18.255 47.726,18.255C47.62,18.255 47.533,18.168 47.533,18.062C47.533,18.058 47.533,18.053 47.533,18.049L47.533,11.644C47.533,11.64 47.533,11.635 47.533,11.631C47.533,11.525 47.62,11.438 47.726,11.438C47.73,11.438 47.734,11.438 47.738,11.438L53.248,11.438C55.118,11.439 56.658,12.977 56.661,14.847M91.94,20.412L98.19,20.412C98.415,20.412 98.6,20.227 98.6,20.002L98.6,18.625C98.6,18.4 98.415,18.215 98.19,18.215L91.94,18.215C91.936,18.215 91.931,18.215 91.927,18.215C91.821,18.215 91.734,18.128 91.734,18.022C91.734,18.018 91.734,18.013 91.734,18.009L91.734,11.645C91.734,11.641 91.734,11.636 91.734,11.632C91.734,11.526 91.821,11.439 91.927,11.439C91.931,11.439 91.936,11.439 91.94,11.439L99.608,11.439C99.608,11.439 99.609,11.439 99.609,11.439C99.834,11.439 100.019,11.254 100.019,11.029L100.019,9.65C100.019,9.425 99.834,9.24 99.609,9.24L89.658,9.24C89.658,9.24 89.657,9.24 89.657,9.24C89.432,9.24 89.247,9.425 89.247,9.65L89.247,26.856C89.247,27.082 89.431,27.266 89.657,27.266L91.323,27.266C91.323,27.266 91.324,27.266 91.324,27.266C91.549,27.266 91.734,27.081 91.734,26.856L91.734,20.614C91.734,20.501 91.826,20.409 91.94,20.409" style="fill-rule:nonzero;"/>
                    <path d="M18.024,36C8.068,36 0,27.941 0,18C0,8.059 8.07,0 18.024,0C27.977,0 36.047,8.059 36.047,18C36.047,27.941 27.977,36 18.024,36M17.778,24.402L17.778,20.822C17.778,20.818 17.778,20.814 17.778,20.81C17.778,20.704 17.864,20.618 17.97,20.618C17.974,20.618 17.979,20.618 17.983,20.618L22.181,20.618C25.121,20.501 27.475,18.048 27.472,15.106C27.464,12.164 25.101,9.72 22.161,9.614L11.879,9.614C11.654,9.614 11.47,9.798 11.469,10.023L11.469,24.463C11.469,26.203 12.882,27.613 14.624,27.613C14.625,27.613 14.627,27.613 14.628,27.613C16.356,27.613 17.778,26.191 17.778,24.463C17.778,24.463 17.778,24.463 17.778,24.463C17.805,24.423 17.805,24.403 17.778,24.403M17.983,15.915L21.956,15.915C21.966,15.915 21.975,15.916 21.985,15.916C22.434,15.916 22.804,15.546 22.804,15.097C22.804,14.647 22.434,14.278 21.985,14.278C21.975,14.278 21.966,14.278 21.956,14.278L16.569,14.278C16.344,14.278 16.159,14.463 16.159,14.688L16.159,24.444C16.159,25.286 15.466,25.98 14.623,25.98C13.781,25.98 13.088,25.286 13.088,24.444L13.088,11.434C13.088,11.43 13.088,11.426 13.088,11.422C13.088,11.316 13.174,11.23 13.28,11.23C13.284,11.23 13.288,11.23 13.292,11.23L21.956,11.23C23.343,11.205 24.643,11.923 25.362,13.11C26.079,14.298 26.107,15.783 25.434,16.997C24.761,18.212 23.487,18.978 22.099,19.002L17.983,19.002C17.979,19.002 17.975,19.002 17.971,19.002C17.865,19.002 17.778,18.915 17.778,18.809C17.778,18.806 17.778,18.802 17.778,18.798L17.778,16.138C17.778,16.022 17.866,15.924 17.983,15.914"/>
                </g>
            </g>
        </g>
    </g>
</svg>
