<svg width="117" height="36" viewBox="0 0 117 36" fill="none" xmlns="http://www.w3.org/2000/svg">
<g clip-path="url(#clip0_2295_54)">
<path d="M86.4907 13.4892H84.8255C84.6447 13.4845 84.4838 13.603 84.4349 13.7768C84.3526 14.0232 84.2909 14.1875 84.2704 14.2901C83.6125 16.3023 82.6051 19.341 81.2894 23.3858C81.2688 23.4474 81.1866 23.6733 81.0221 24.0428C80.9754 24.1436 80.8571 24.1891 80.7548 24.1455C80.7111 24.1223 80.6753 24.0865 80.652 24.0428C80.5081 23.7143 80.4259 23.509 80.3848 23.3858C79.0279 19.2178 78.0205 16.0901 77.3626 14.0027C77.3333 13.9372 77.3126 13.8682 77.301 13.7974C77.2473 13.6269 77.0893 13.5106 76.9103 13.5099H75.2656C75.0386 13.5099 74.8545 13.6938 74.8545 13.9206C74.8512 13.9627 74.8583 14.005 74.875 14.0437C74.8886 14.1009 74.9093 14.1561 74.9367 14.208C75.9646 17.1235 77.5066 21.4832 79.5624 27.2869C79.5639 27.3027 79.5713 27.3173 79.583 27.328C79.6138 27.4072 79.6138 27.4951 79.583 27.5743C79.583 27.5949 79.583 27.5949 79.5624 27.6154C79.5419 27.6975 79.5007 27.8002 79.4802 27.8823C79.1885 28.6883 78.4263 29.2285 77.5682 29.2374H75.8413C75.6142 29.2374 75.4301 29.4213 75.4301 29.6481V31.0237C75.4301 31.2505 75.6142 31.4344 75.8413 31.4344H77.5682C79.2439 31.4321 80.7601 30.4414 81.4333 28.9089C81.4523 28.8439 81.48 28.7818 81.5155 28.7241C81.5361 28.6625 82.749 25.2337 86.7991 13.9206C86.8286 13.8444 86.8254 13.7596 86.7904 13.6858C86.7555 13.6121 86.6917 13.5559 86.6141 13.5304C86.5524 13.5099 86.5319 13.4892 86.4907 13.4892ZM64.5751 25.1721C64.9661 25.3013 65.3762 25.3637 65.788 25.3569C67.0112 25.34 68.1813 24.8549 69.0569 24.0018C69.6972 23.3601 70.0464 22.4846 70.0232 21.579V20.5113C70.0246 20.4543 69.9996 20.3998 69.9554 20.3637C69.9111 20.3276 69.8527 20.3138 69.797 20.3265C69.5914 20.3471 69.4886 20.3471 69.4886 20.3471L68.1934 20.5113L65.6236 20.9014C64.2461 21.1273 63.4032 21.6817 63.136 22.544C63.0702 22.7499 63.0356 22.9644 63.0332 23.1805C63.0577 24.109 63.6815 24.9147 64.5751 25.1721ZM72.3257 26.0755V26.8968C72.3257 27.1236 72.1417 27.3074 71.9146 27.3074H70.5782C70.3512 27.3074 70.1671 27.1236 70.1671 26.8968L70.1465 25.5417C70.143 25.5202 70.136 25.4994 70.126 25.4801C70.1073 25.4602 70.0813 25.449 70.054 25.449C70.0267 25.449 70.0007 25.4602 69.982 25.4801C69.9015 25.5501 69.826 25.6255 69.7559 25.7059C68.6868 26.7736 67.2272 27.3074 65.3358 27.3074C63.9789 27.3074 62.8687 26.9379 62.0052 26.2192C61.1418 25.5006 60.7306 24.4945 60.7306 23.2216C60.7152 22.6123 60.8419 22.0078 61.1006 21.4558C61.3203 20.991 61.6611 20.5938 62.0875 20.306C62.4536 20.0451 62.8551 19.8377 63.2799 19.6901C63.6608 19.5537 64.0529 19.4507 64.4517 19.3821C66.4459 19.0946 67.515 18.9509 67.7206 18.9098C67.885 18.8893 68.5429 18.8072 69.6737 18.6429C69.7479 18.6268 69.8239 18.6199 69.8998 18.6224C70.0026 18.6068 70.0801 18.5208 70.0848 18.4171V17.8422C70.0848 16.9798 69.8587 16.3023 69.4064 15.83C68.9541 15.3578 68.1112 15.1114 66.8982 15.1114C66.3416 15.1013 65.7868 15.1775 65.2535 15.3373C64.8475 15.4609 64.4843 15.6956 64.205 16.0148C64.0175 16.2519 63.8652 16.5146 63.7527 16.795C63.7322 16.8566 63.7116 16.9182 63.6911 17.0004C63.6938 17.0229 63.6862 17.0455 63.6705 17.062C63.6308 17.2562 63.4578 17.3945 63.2593 17.3905H61.7174C61.4942 17.3711 61.3238 17.183 61.3268 16.9593V16.8772C61.3473 16.7129 61.3679 16.5897 61.3885 16.4871C61.4912 16.09 61.6504 15.7097 61.8613 15.3578C62.1077 14.9646 62.4208 14.6172 62.7865 14.3312C63.276 13.9972 63.818 13.7473 64.39 13.592C65.1761 13.3931 65.9846 13.2965 66.7954 13.3046C70.5166 13.3046 72.3257 14.7829 72.3257 17.7806V26.0755ZM102.814 13.7974V26.8557C102.814 27.0825 102.998 27.2664 103.226 27.2664H104.891C105.118 27.2664 105.302 27.0825 105.302 26.8557V13.7974C105.302 13.5706 105.118 13.3867 104.891 13.3867H103.226C102.998 13.3867 102.814 13.5706 102.814 13.7974ZM102.814 9.6499V11.313C102.814 11.5398 102.998 11.7236 103.226 11.7236H104.891C105.118 11.7236 105.302 11.5398 105.302 11.313V9.6499C105.302 9.42311 105.118 9.23926 104.891 9.23926H103.226C102.998 9.23926 102.814 9.42311 102.814 9.6499ZM113.073 15.5631H116.589C116.816 15.5631 117 15.3793 117 15.1525V13.7768C117 13.55 116.816 13.3662 116.589 13.3662H113.073C113.018 13.3699 112.963 13.3494 112.924 13.3101C112.884 13.2708 112.864 13.2164 112.868 13.1609V9.6499C112.868 9.42311 112.684 9.23926 112.456 9.23926H110.791C110.564 9.23926 110.38 9.42311 110.38 9.6499V13.1814C110.384 13.2369 110.363 13.2913 110.324 13.3306C110.284 13.3699 110.23 13.3904 110.174 13.3867H108.653C108.426 13.3867 108.242 13.5706 108.242 13.7974V15.173C108.242 15.3998 108.426 15.5836 108.653 15.5836H110.174C110.23 15.58 110.284 15.6004 110.324 15.6398C110.363 15.6791 110.384 15.7335 110.38 15.789V23.201C110.457 25.4614 112.309 27.2566 114.574 27.2664H116.445C116.672 27.2664 116.856 27.0825 116.856 26.8557V25.4801C116.856 25.2533 116.672 25.0694 116.445 25.0694H114.574C114.116 25.07 113.676 24.8885 113.352 24.5649C113.028 24.2413 112.847 23.8023 112.847 23.3447V15.7684C112.864 15.6552 112.959 15.5696 113.073 15.5631ZM58.8392 14.8445C58.8421 11.7954 56.4024 9.30408 53.35 9.23926H45.4349C45.2078 9.23926 45.0237 9.42311 45.0237 9.6499V26.8557C45.0237 27.0825 45.2078 27.2664 45.4349 27.2664H47.1001C47.3272 27.2664 47.5113 27.0825 47.5113 26.8557V20.6756C47.5076 20.6201 47.5281 20.5657 47.5675 20.5264C47.6069 20.487 47.6613 20.4666 47.7169 20.4703H53.35C56.4033 20.3891 58.8369 17.8949 58.8392 14.8445ZM56.66 14.8445C56.6577 16.7259 55.1311 18.2505 53.2472 18.2528H47.7374C47.6819 18.2565 47.6274 18.236 47.588 18.1967C47.5487 18.1574 47.5282 18.103 47.5319 18.0475V11.6415C47.5282 11.586 47.5487 11.5316 47.588 11.4923C47.6274 11.453 47.6819 11.4325 47.7374 11.4362H53.2472C55.1311 11.4384 56.6577 12.9631 56.66 14.8445ZM91.9388 20.4087H98.1887C98.4158 20.4087 98.5999 20.2248 98.5999 19.998V18.6224C98.5999 18.3956 98.4158 18.2117 98.1887 18.2117H91.9388C91.8832 18.2154 91.8288 18.195 91.7894 18.1556C91.75 18.1163 91.7296 18.0619 91.7332 18.0064V11.6415C91.7296 11.586 91.75 11.5316 91.7894 11.4923C91.8288 11.453 91.8832 11.4325 91.9388 11.4362H99.6072C99.8343 11.4362 100.018 11.2523 100.018 11.0255V9.6499C100.018 9.42311 99.8343 9.23926 99.6072 9.23926H89.6568C89.4297 9.23926 89.2456 9.42311 89.2456 9.6499V26.8557C89.2456 27.0825 89.4297 27.2664 89.6568 27.2664H91.3221C91.5491 27.2664 91.7332 27.0825 91.7332 26.8557V20.614C91.7332 20.5006 91.8253 20.4087 91.9388 20.4087Z" fill="black"/>
<path fill-rule="evenodd" clip-rule="evenodd" d="M18.0235 36C8.06938 36 0 27.9411 0 18C0 8.05887 8.06938 0 18.0235 0C27.9775 0 36.0469 8.05887 36.0469 18C36.0469 27.9411 27.9775 36 18.0235 36ZM17.7777 24.4023V20.8227C17.774 20.7674 17.7944 20.7133 17.8337 20.6741C17.8729 20.6349 17.9271 20.6145 17.9825 20.6182H22.1811C25.1412 20.4988 27.4777 18.0647 27.4722 15.1061C27.4667 12.1475 25.1211 9.72203 22.1607 9.61364H11.8791C11.6529 9.61364 11.4695 9.79679 11.4695 10.0227V24.4636C11.4695 26.2033 12.8816 27.6136 14.6236 27.6136C16.3655 27.6136 17.7777 26.2033 17.7777 24.4636C17.805 24.4227 17.805 24.4023 17.7777 24.4023ZM17.9825 15.9136H21.9559C22.4083 15.9136 22.7751 15.5473 22.7751 15.0955C22.7751 14.6436 22.4083 14.2773 21.9559 14.2773H16.5693C16.3431 14.2773 16.1597 14.4604 16.1597 14.6864V24.4432C16.1597 25.2904 15.4719 25.9773 14.6236 25.9773C13.7752 25.9773 13.0875 25.2904 13.0875 24.4432V11.4341C13.0838 11.3788 13.1042 11.3246 13.1435 11.2854C13.1827 11.2463 13.2369 11.2259 13.2923 11.2295H21.9559C23.3461 11.204 24.6445 11.9211 25.3618 13.1107C26.0791 14.3004 26.1064 15.7819 25.4335 16.9971C24.7605 18.2123 23.4895 18.9767 22.0992 19.0023H17.9825C17.9271 19.0059 17.8729 18.9856 17.8337 18.9464C17.7944 18.9072 17.774 18.853 17.7777 18.7977V16.1386C17.7772 16.0219 17.8661 15.9242 17.9825 15.9136Z" fill="black"/>
</g>
<defs>
<clipPath id="clip0_2295_54">
<rect width="117" height="36" fill="white"/>
</clipPath>
</defs>
</svg>
