<svg width="360" height="360" viewBox="0 0 360 360" fill="none" xmlns="http://www.w3.org/2000/svg">
<path d="M180.891 8.32031C274.97 8.32031 351.508 84.8586 351.508 178.938C351.508 273.017 274.97 349.555 180.891 349.555C86.8117 349.555 10.2734 273.017 10.2734 178.938C10.2734 84.8586 86.8117 8.32031 180.891 8.32031ZM180.891 3.82031C84.1769 3.82031 5.77344 82.2238 5.77344 178.938C5.77344 275.652 84.1769 354.055 180.891 354.055C277.605 354.055 356.008 275.652 356.008 178.938C356.008 82.2238 277.607 3.82031 180.891 3.82031Z" fill="#72788A"/>
<path d="M180.891 73.0625C239.272 73.0625 286.769 120.558 286.769 178.941C286.769 237.324 239.272 284.819 180.891 284.819C122.51 284.819 75.0127 237.322 75.0127 178.941C75.0127 120.56 122.508 73.0625 180.891 73.0625ZM180.891 68.5625C119.932 68.5625 70.5127 117.979 70.5127 178.941C70.5127 239.902 119.929 289.319 180.891 289.319C241.852 289.319 291.269 239.902 291.269 178.941C291.269 117.979 241.852 68.5625 180.891 68.5625Z" fill="#72788A"/>
<path d="M157.858 250.29V201.973H109.541V155.905H157.858V107.586H203.926V155.905H252.243V201.973H203.926V250.29H157.858Z" fill="#72788A"/>
<path d="M202.8 108.711V157.03H251.118V200.848H202.8V249.167H158.981V200.848H110.662V157.03H158.981V108.711H202.8ZM205.05 106.461H156.731V154.78H108.412V203.098H156.731V251.417H205.05V203.098H253.368V154.78H205.05V106.461Z" fill="#72788A"/>
<path d="M65.4971 131.944L62.8781 137.306L35.8623 124.112L40.0721 115.492C40.9158 113.759 41.8811 112.281 42.9611 111.055C44.0411 109.829 45.3191 109.034 46.7951 108.672C48.2688 108.312 49.9428 108.589 51.8148 109.505C53.5428 110.348 54.7376 111.521 55.4013 113.019C56.0651 114.518 56.1258 116.158 55.5836 117.94C56.3328 117.242 57.1271 116.837 57.9663 116.723C58.8056 116.61 59.9013 116.606 61.2536 116.711L72.5373 117.533L69.6551 123.432L60.5943 122.577C59.2916 122.433 58.2948 122.462 57.5996 122.663C56.9066 122.863 56.3261 123.25 55.8581 123.824C55.3901 124.397 54.8658 125.277 54.2831 126.47L65.4971 131.946V131.944ZM50.0936 124.467L51.2478 122.102C51.9183 120.732 52.1726 119.456 52.0151 118.275C51.8576 117.094 51.1241 116.185 49.8191 115.548C47.3666 114.351 45.4428 115.179 44.0478 118.037L42.6776 120.842L50.0936 124.467Z" fill="#72788A"/>
<path d="M89.3093 95.1277L85.4415 100.269L78.4598 98.1989L71.199 107.847L75.1478 113.947L71.487 118.813L54.3105 91.6334L58.2548 86.3887L89.3093 95.1277ZM73.422 96.6554L62.667 93.2692C62.4285 93.1949 61.785 92.9519 60.7365 92.5379C61.0313 92.9024 61.3305 93.2692 61.6298 93.6382C61.9313 94.0072 62.1675 94.3087 62.3385 94.5449L68.3213 103.432L73.422 96.6554Z" fill="#72788A"/>
<path d="M84.2648 59.973L88.5578 56.2402L100.503 69.9742C102.303 72.0442 103.498 74.049 104.087 75.9862C104.677 77.9235 104.625 79.8202 103.934 81.6765C103.241 83.5327 101.869 85.353 99.8146 87.1417C97.7491 88.9372 95.7443 90.0825 93.8026 90.5752C91.8608 91.068 89.9506 90.8992 88.0696 90.0622C86.1908 89.2275 84.3211 87.7402 82.4626 85.6027L70.5488 71.9002L75.0016 68.028L86.5711 81.3322C88.2091 83.2132 89.8696 84.4192 91.5571 84.9457C93.2446 85.4722 94.9636 84.9727 96.7163 83.4472C97.9223 82.3987 98.5973 81.2872 98.7458 80.1082C98.8921 78.9315 98.6761 77.7637 98.0933 76.605C97.5128 75.4462 96.7006 74.2695 95.6611 73.0747L84.2648 59.9707V59.973Z" fill="#72788A"/>
<path d="M111.658 76.5308L105.158 64.6575L102.589 66.0638L100.579 62.3963L103.149 60.99L97.2178 50.1585L103.052 46.9658C104.641 46.095 106.087 45.3705 107.395 44.7878C108.702 44.2073 110.081 43.7595 111.537 43.4468C112.99 43.1363 114.426 43.0688 115.841 43.2488C117.016 43.3748 118.125 43.6785 119.169 44.1623C120.213 44.6438 121.147 45.2333 121.975 45.9263C122.8 46.6193 123.586 47.445 124.328 48.4013C125.073 49.3575 125.734 50.37 126.322 51.4388C127.534 53.6528 128.279 55.8983 128.563 58.1798C128.844 60.459 128.515 62.628 127.575 64.68C127.06 65.8163 126.36 66.8558 125.478 67.7985C124.596 68.7413 123.619 69.585 122.548 70.3298C121.477 71.0768 120.316 71.79 119.065 72.4763L111.656 76.533L111.658 76.5308ZM114.606 69.621C114.905 69.4568 115.153 69.3263 115.344 69.2295C115.535 69.135 115.747 69.0315 115.978 68.919C117.992 67.8165 119.556 66.534 120.672 65.0693C121.788 63.6045 122.375 61.953 122.434 60.1148C122.49 58.2765 121.945 56.3078 120.798 54.2085C119.923 52.6133 118.78 51.3083 117.362 50.2935C115.945 49.2788 114.41 48.7478 112.759 48.6983C111.485 48.6263 110.272 48.8243 109.118 49.2855C107.966 49.7513 106.477 50.4645 104.647 51.432L108.326 58.1505L113.447 55.347L115.456 59.0145L110.335 61.818L114.606 69.6165V69.621Z" fill="#72788A"/>
<path d="M142.563 61.8385L137.012 63.8433L126.797 35.5653L132.35 33.5605L142.563 61.8385Z" fill="#72788A"/>
<path d="M181.186 54.6404L173.626 55.5381L162.777 44.3489C162.63 44.2049 162.099 43.6019 161.184 42.5444C161.375 43.4241 161.521 44.2994 161.625 45.1724L163.008 56.8004L157.147 57.4979L153.597 27.6426L159.458 26.9451L160.718 37.5449C160.815 38.3616 160.866 39.1604 160.873 39.9434C161.571 38.6789 161.998 37.9319 162.158 37.7069L169.907 25.7031L177.001 24.8594L166.768 40.0626L181.186 54.6404Z" fill="#72788A"/>
<path d="M188.328 55.4496L182.374 55.0131L184.575 25.0273L194.142 25.7293C196.063 25.8688 197.793 26.2153 199.337 26.7598C200.88 27.3088 202.093 28.1976 202.975 29.4328C203.855 30.6681 204.219 32.3241 204.069 34.4008C203.929 36.3178 203.286 37.8636 202.14 39.0381C200.997 40.2126 199.494 40.8786 197.64 41.0361C198.567 41.4703 199.24 42.0576 199.656 42.7956C200.073 43.5336 200.482 44.5483 200.892 45.8421L204.323 56.6218L197.775 56.1403L195.199 47.4103C194.848 46.1481 194.448 45.2323 194.004 44.6631C193.561 44.0938 192.985 43.6978 192.281 43.4773C191.574 43.2568 190.557 43.0971 189.239 43.0003L188.325 55.4473L188.328 55.4496ZM189.536 38.3676L192.159 38.5588C193.68 38.6713 194.958 38.4328 195.996 37.8478C197.033 37.2606 197.604 36.2436 197.715 34.7968C197.913 32.0743 196.428 30.5961 193.255 30.3643L190.143 30.1348L189.536 38.3676Z" fill="#72788A"/>
<path d="M235.82 50.1775C234.981 53.0507 233.685 55.4627 231.932 57.4112C230.184 59.362 228.089 60.6647 225.654 61.3195C223.22 61.9742 220.599 61.8932 217.793 61.0742C214.906 60.2305 212.607 58.8715 210.899 56.995C209.187 55.1207 208.136 52.882 207.747 50.2832C207.355 47.6845 207.591 44.9057 208.455 41.9492C209.319 38.9927 210.618 36.5357 212.346 34.5805C214.078 32.6252 216.162 31.3202 218.605 30.6655C221.046 30.0107 223.713 30.1052 226.599 30.949C228.789 31.5902 230.636 32.5352 232.143 33.784C233.649 35.035 234.778 36.511 235.527 38.2142C236.279 39.9152 236.679 41.776 236.727 43.792C236.774 45.808 236.475 47.9365 235.82 50.1752V50.1775ZM229.839 48.2942C230.206 47.041 230.422 45.7427 230.487 44.4017C230.553 43.0607 230.42 41.776 230.087 40.5475C229.754 39.319 229.196 38.2502 228.406 37.339C227.616 36.4277 226.568 35.7797 225.254 35.3972C223.528 34.8932 221.935 34.999 220.47 35.719C219.006 36.439 217.759 37.537 216.731 39.0175C215.705 40.498 214.942 42.091 214.443 43.7942C213.943 45.4997 213.732 47.2435 213.804 49.0322C213.876 50.8187 214.344 52.405 215.21 53.7887C216.076 55.1725 217.37 56.1175 219.096 56.6215C220.383 56.9972 221.604 57.0197 222.765 56.6845C223.926 56.3492 224.968 55.753 225.897 54.8935C226.827 54.034 227.623 53.0282 228.291 51.8785C228.962 50.7287 229.477 49.5317 229.839 48.2942Z" fill="#72788A"/>
<path d="M234.002 65.2373L236.995 60.7193C238.437 62.9401 240.086 64.5398 241.942 65.5208C243.142 66.1531 244.355 66.4051 245.579 66.2701C246.805 66.1373 247.727 65.4803 248.35 64.2991C248.98 63.1043 249.048 62.0536 248.551 61.1446C248.051 60.2356 247.034 58.8068 245.495 56.8583C243.956 54.9098 242.975 53.1211 242.548 51.4943C242.123 49.8676 242.447 48.0361 243.522 45.9998C244.42 44.2988 245.588 43.1018 247.028 42.4111C248.468 41.7203 250.02 41.4683 251.685 41.6596C253.352 41.8508 255.001 42.3751 256.628 43.2346C258.813 44.3866 260.687 45.8243 262.249 47.5456L259.501 51.6946C258.086 49.8203 256.536 48.4388 254.846 47.5456C253.737 46.9606 252.634 46.7063 251.536 46.7828C250.438 46.8593 249.602 47.4488 249.019 48.5536C248.465 49.6043 248.393 50.4863 248.805 51.2041C249.219 51.9196 250.256 53.3506 251.921 55.4971C253.584 57.6458 254.637 59.5516 255.078 61.2211C255.519 62.8883 255.208 64.7356 254.14 66.7583C253.379 68.2006 252.463 69.3076 251.39 70.0861C250.317 70.8646 249.145 71.3506 247.869 71.5508C246.596 71.7488 245.284 71.6993 243.932 71.4001C242.577 71.1008 241.24 70.6036 239.915 69.9038C237.818 68.7991 235.847 67.2421 234 65.2396L234.002 65.2373Z" fill="#72788A"/>
<path d="M252.607 75.3951L256.297 71.4238C257.359 73.8516 258.725 75.6988 260.397 76.9678C261.477 77.7891 262.633 78.2323 263.864 78.2998C265.095 78.3673 266.112 77.8701 266.92 76.8058C267.734 75.7303 267.973 74.7043 267.628 73.7256C267.286 72.7468 266.515 71.1718 265.313 68.9961C264.114 66.8226 263.434 64.8988 263.281 63.2248C263.126 61.5508 263.745 59.7958 265.138 57.9621C266.301 56.4298 267.646 55.4398 269.179 54.9921C270.713 54.5443 272.284 54.5488 273.899 55.0101C275.512 55.4713 277.051 56.2566 278.521 57.3703C280.487 58.8643 282.103 60.5856 283.36 62.5363L279.974 66.1836C278.887 64.1046 277.582 62.4868 276.059 61.3326C275.06 60.5743 274.012 60.1446 272.918 60.0411C271.822 59.9398 270.9 60.3831 270.146 61.3776C269.428 62.3248 269.212 63.1843 269.503 63.9561C269.795 64.7301 270.585 66.3096 271.879 68.6991C273.17 71.0886 273.897 73.1428 274.063 74.8618C274.225 76.5786 273.618 78.3493 272.234 80.1741C271.249 81.4723 270.164 82.4173 268.981 83.0091C267.797 83.6008 266.557 83.8933 265.268 83.8798C263.979 83.8663 262.69 83.6053 261.407 83.0901C260.122 82.5748 258.883 81.8661 257.69 80.9593C255.802 79.5283 254.11 77.6721 252.612 75.3951H252.607Z" fill="#72788A"/>
<path d="M273.66 93.9732L269.439 89.8467L290.457 68.3457L294.678 72.4722L273.66 93.9732Z" fill="#72788A"/>
<path d="M291.902 116.391L287.625 110.725L296.339 92.1334C296.881 90.9544 297.813 89.2421 299.131 86.9944C296.904 89.2309 294.975 90.9634 293.349 92.1941L280.791 101.68L277.414 97.2094L301.406 79.0879L305.595 84.6341L296.987 103.437C296.676 104.099 296.445 104.558 296.285 104.81C296.127 105.064 295.828 105.543 295.389 106.252C294.951 106.961 294.507 107.679 294.064 108.405C295.522 106.857 297.372 105.237 299.608 103.548L312.516 93.7984L315.894 98.2691L291.902 116.391Z" fill="#72788A"/>
<path d="M304.202 141.726L301.198 135.291L313.6 118.929C314.379 117.89 315.646 116.409 317.403 114.485C314.759 116.209 312.511 117.5 310.664 118.364L296.404 125.02L294.032 119.942L321.275 107.225L324.216 113.525L311.877 130.118C311.436 130.701 311.112 131.102 310.903 131.315C310.696 131.531 310.302 131.939 309.726 132.537C309.148 133.138 308.565 133.748 307.982 134.366C309.733 133.156 311.877 131.959 314.417 130.773L329.076 123.929L331.447 129.007L304.204 141.724L304.202 141.726Z" fill="#72788A"/>
<path d="M26.6103 199.715L25.7148 193.991L55.0413 189.398L55.9368 195.125L26.6103 199.715Z" fill="#72788A"/>
<path d="M39.3838 226.039L34.4023 227.668C33.1288 225.555 32.222 223.551 31.6843 221.652C31.0745 219.496 30.8023 217.419 30.872 215.421C30.9395 213.423 31.3783 211.558 32.1905 209.823C33.0005 208.089 34.193 206.595 35.7658 205.344C37.3385 204.09 39.287 203.136 41.618 202.479C43.9445 201.82 46.1248 201.568 48.1543 201.721C50.1838 201.872 52.0198 202.412 53.66 203.339C55.3003 204.264 56.6953 205.539 57.845 207.159C58.997 208.784 59.8903 210.712 60.5203 212.949C61.0828 214.942 61.301 217.28 61.1728 219.962L56.1553 220.902C56.6728 218.792 56.63 216.672 56.027 214.546C55.5163 212.742 54.668 211.266 53.4755 210.118C52.2853 208.971 50.8678 208.235 49.2253 207.906C47.5828 207.578 45.8255 207.679 43.958 208.208C42.0208 208.757 40.3873 209.637 39.0598 210.849C37.7323 212.062 36.8435 213.502 36.398 215.169C35.9503 216.837 35.9975 218.628 36.5398 220.54C37.055 222.36 38.0023 224.19 39.3838 226.039Z" fill="#72788A"/>
<path d="M47.5585 246.958L43.1553 248.978L35.998 233.39L62.9733 221.004L70.0608 236.439L65.617 238.477L60.9483 228.307L54.4323 231.3L58.7073 240.61L54.304 242.631L50.029 233.32L42.8223 236.63L47.5608 246.953L47.5585 246.958Z" fill="#72788A"/>
<path d="M60.0192 266.924L55.9445 269.547L46.751 255.266L71.7102 239.199L74.8467 244.07L53.9622 257.514L60.0192 266.924Z" fill="#72788A"/>
<path d="M77.0806 293.713L72.8281 289.045L76.1266 282.664L68.1459 273.9L61.5129 276.62L57.4854 272.199L86.9604 260.479L91.2961 265.24L77.0784 293.711L77.0806 293.713ZM78.5566 278.067L83.8306 268.27C83.9454 268.052 84.2986 267.474 84.8949 266.536C84.4876 266.756 84.0781 266.977 83.6641 267.202C83.2501 267.427 82.9149 267.602 82.6539 267.724L72.9474 271.909L78.5566 278.067Z" fill="#72788A"/>
<path d="M101.021 311.61L95.3865 307.508L98.3408 287.481C98.5208 286.214 98.9123 284.331 99.5198 281.833C98.0528 284.583 96.7275 286.77 95.5418 288.399L86.3933 300.956L81.9473 297.718L99.4253 273.727L104.94 277.745L102.146 297.943C102.042 298.657 101.952 299.156 101.873 299.44C101.795 299.723 101.651 300.263 101.437 301.057C101.221 301.852 101.009 302.655 100.796 303.467C101.734 301.586 103.016 299.53 104.645 297.293L114.05 284.385L118.496 287.623L101.018 311.612L101.021 311.61Z" fill="#72788A"/>
<path d="M109.265 316.374L121.381 289.277L127.341 291.944C128.963 292.668 130.39 293.37 131.621 294.047C132.849 294.727 134.019 295.541 135.126 296.495C136.231 297.452 137.135 298.536 137.833 299.753C138.429 300.75 138.848 301.801 139.088 302.908C139.329 304.015 139.421 305.102 139.37 306.164C139.316 307.228 139.133 308.337 138.825 309.491C138.515 310.648 138.116 311.773 137.624 312.871C136.607 315.146 135.288 317.072 133.67 318.649C132.053 320.226 130.145 321.261 127.946 321.754C126.781 322.026 125.568 322.103 124.304 321.981C123.039 321.86 121.797 321.603 120.58 321.209C119.36 320.813 118.112 320.33 116.834 319.758L109.265 316.374ZM116.426 314.554C116.719 314.687 116.962 314.797 117.151 314.889C117.34 314.981 117.538 315.083 117.752 315.193C119.297 315.886 120.771 316.309 122.173 316.469C123.575 316.626 124.889 316.509 126.115 316.113C127.341 315.717 128.459 315.029 129.467 314.041C130.475 313.055 131.342 311.755 132.062 310.144C132.782 308.531 133.124 306.859 133.085 305.129C133.047 303.398 132.563 301.873 131.636 300.552C131.261 299.987 130.822 299.486 130.32 299.047C129.818 298.61 129.263 298.205 128.653 297.839C128.043 297.47 127.35 297.098 126.578 296.72C125.804 296.342 125.206 296.059 124.785 295.87L116.429 314.556L116.426 314.554Z" fill="#72788A"/>
<path d="M144.227 329.654L138.645 328.106L146.583 299.504L152.165 301.054L144.227 329.654Z" fill="#72788A"/>
<path d="M173.696 328.654L173.187 333.869C170.741 334.191 168.541 334.216 166.586 333.948C164.367 333.64 162.356 333.057 160.553 332.195C158.751 331.331 157.217 330.181 155.954 328.744C154.69 327.304 153.799 325.612 153.284 323.67C152.768 321.728 152.674 319.557 153.005 317.161C153.333 314.764 153.977 312.665 154.931 310.867C155.885 309.067 157.113 307.603 158.618 306.473C160.124 305.341 161.852 304.574 163.8 304.171C165.749 303.769 167.875 303.724 170.174 304.041C172.226 304.322 174.456 305.06 176.864 306.255L175.712 311.23C173.986 309.909 172.028 309.099 169.837 308.797C167.978 308.541 166.286 308.728 164.759 309.358C163.231 309.988 161.987 310.991 161.028 312.364C160.07 313.738 159.458 315.388 159.192 317.309C158.918 319.305 159.068 321.152 159.647 322.855C160.225 324.559 161.188 325.949 162.538 327.027C163.888 328.105 165.546 328.777 167.515 329.05C169.387 329.306 171.448 329.176 173.696 328.649V328.654Z" fill="#72788A"/>
<path d="M197.399 333.798L191.583 334.493L188.07 305.018L197.419 303.905C199.298 303.68 201.028 303.689 202.619 303.929C204.207 304.17 205.542 304.809 206.624 305.84C207.704 306.87 208.368 308.407 208.613 310.45C208.838 312.335 208.507 313.953 207.627 315.305C206.745 316.658 205.425 317.585 203.667 318.084C204.642 318.332 205.4 318.777 205.94 319.412C206.48 320.046 207.067 320.955 207.702 322.134L213.034 331.935L206.633 332.698L202.511 324.722C201.937 323.563 201.381 322.751 200.848 322.283C200.313 321.815 199.683 321.538 198.963 321.457C198.24 321.376 197.232 321.41 195.941 321.565L197.397 333.8L197.399 333.798ZM195.358 317.018L197.923 316.712C199.41 316.534 200.596 316.064 201.487 315.301C202.376 314.538 202.736 313.447 202.565 312.02C202.243 309.347 200.538 308.193 197.437 308.562L194.393 308.924L195.358 317.018Z" fill="#72788A"/>
<path d="M233.849 320.839L235.235 325.481L218.799 330.386L210.314 301.941L226.586 297.086L227.986 301.77L217.262 304.97L219.312 311.844L229.129 308.914L230.513 313.556L220.696 316.485L222.964 324.086L233.849 320.839Z" fill="#72788A"/>
<path d="M242.824 322.67L229.236 296.28L235.041 293.292C236.621 292.48 238.061 291.803 239.357 291.267C240.655 290.729 242.023 290.327 243.459 290.059C244.894 289.793 246.307 289.766 247.691 289.982C248.843 290.138 249.925 290.468 250.94 290.972C251.955 291.476 252.861 292.079 253.658 292.788C254.454 293.492 255.206 294.329 255.915 295.29C256.623 296.253 257.253 297.27 257.805 298.337C258.945 300.553 259.627 302.785 259.845 305.035C260.068 307.283 259.686 309.418 258.696 311.445C258.18 312.523 257.481 313.52 256.596 314.431C255.71 315.342 254.733 316.152 253.665 316.856C252.594 317.561 251.439 318.233 250.193 318.875L242.822 322.673L242.824 322.67ZM245.875 315.941C246.163 315.794 246.399 315.675 246.588 315.585C246.78 315.497 246.984 315.405 247.2 315.308C248.706 314.532 249.959 313.648 250.958 312.651C251.955 311.657 252.686 310.556 253.143 309.35C253.599 308.147 253.759 306.842 253.62 305.44C253.48 304.038 253.008 302.551 252.198 300.98C251.388 299.41 250.294 298.098 248.919 297.045C247.545 295.994 246.053 295.418 244.442 295.317C243.765 295.261 243.099 295.288 242.444 295.405C241.787 295.524 241.125 295.706 240.457 295.952C239.789 296.197 239.067 296.505 238.286 296.872C237.507 297.241 236.916 297.531 236.504 297.743L245.875 315.941Z" fill="#72788A"/>
<path d="M291.789 281.349L295.474 285.075C294.156 287.161 292.77 288.869 291.31 290.196C289.656 291.706 287.919 292.876 286.105 293.711C284.287 294.543 282.422 294.984 280.51 295.036C278.597 295.088 276.725 294.69 274.903 293.844C273.08 292.998 271.352 291.681 269.721 289.893C268.09 288.106 266.888 286.27 266.116 284.387C265.345 282.501 265.005 280.62 265.099 278.739C265.194 276.861 265.709 275.04 266.647 273.285C267.583 271.528 268.909 269.865 270.625 268.302C272.158 266.904 274.149 265.665 276.608 264.58L279.693 268.648C277.576 269.13 275.699 270.115 274.066 271.605C272.68 272.869 271.741 274.289 271.249 275.868C270.754 277.446 270.731 279.043 271.172 280.659C271.613 282.276 272.488 283.8 273.798 285.235C275.155 286.722 276.671 287.789 278.35 288.435C280.028 289.08 281.713 289.231 283.403 288.88C285.095 288.536 286.675 287.692 288.142 286.351C289.539 285.078 290.754 283.41 291.789 281.349Z" fill="#72788A"/>
<path d="M303.683 276.317L300.074 280.932L276.688 262.653L282.483 255.235C283.649 253.745 284.875 252.521 286.167 251.563C287.456 250.607 288.849 250.109 290.343 250.067C291.837 250.024 293.394 250.638 295.014 251.905C296.51 253.075 297.426 254.447 297.765 256.025C298.103 257.604 297.828 259.193 296.946 260.795C297.81 260.279 298.659 260.052 299.491 260.117C300.321 260.18 301.381 260.403 302.664 260.786L313.376 263.911L309.407 268.989L300.841 266.291C299.615 265.884 298.648 265.704 297.939 265.756C297.23 265.803 296.589 266.057 296.024 266.51C295.457 266.964 294.773 267.704 293.972 268.73L303.679 276.317H303.683ZM290.336 265.938L291.927 263.904C292.847 262.725 293.353 261.551 293.437 260.383C293.522 259.215 293.002 258.189 291.871 257.307C289.749 255.649 287.726 256.047 285.805 258.506L283.917 260.921L290.338 265.938H290.336Z" fill="#72788A"/>
<path d="M315.949 228.261C318.577 229.615 320.674 231.316 322.24 233.373C323.804 235.429 324.679 237.695 324.866 240.168C325.053 242.64 324.49 245.151 323.176 247.703C321.824 250.329 320.085 252.291 317.952 253.584C315.821 254.88 313.458 255.472 310.871 255.36C308.281 255.247 305.633 254.493 302.928 253.103C300.224 251.712 298.084 249.996 296.509 247.959C294.934 245.923 294.054 243.664 293.872 241.185C293.688 238.705 294.273 236.154 295.623 233.528C296.646 231.537 297.904 229.932 299.394 228.715C300.883 227.498 302.523 226.69 304.31 226.285C306.096 225.882 307.973 225.849 309.935 226.182C311.897 226.512 313.904 227.208 315.951 228.261H315.949ZM313.02 233.672C311.872 233.08 310.655 232.628 309.368 232.313C308.083 231.998 306.812 231.885 305.563 231.973C304.31 232.061 303.174 232.398 302.143 232.988C301.113 233.577 300.294 234.468 299.679 235.663C298.874 237.229 298.683 238.791 299.106 240.336C299.531 241.884 300.368 243.295 301.61 244.566C302.856 245.835 304.258 246.87 305.815 247.674C307.372 248.477 309.026 249.01 310.77 249.278C312.511 249.546 314.136 249.393 315.636 248.819C317.137 248.245 318.291 247.174 319.097 245.606C319.7 244.434 319.945 243.259 319.835 242.078C319.725 240.899 319.34 239.781 318.678 238.723C318.017 237.666 317.191 236.707 316.199 235.843C315.211 234.979 314.149 234.257 313.015 233.674L313.02 233.672Z" fill="#72788A"/>
<path d="M330.563 227.974L325.627 225.915C327.51 224.115 328.752 222.229 329.353 220.258C329.742 218.987 329.758 217.772 329.4 216.613C329.042 215.455 328.23 214.685 326.97 214.3C325.697 213.911 324.666 214.039 323.876 214.685C323.089 215.333 321.894 216.577 320.294 218.418C318.695 220.258 317.147 221.536 315.65 222.243C314.154 222.952 312.32 222.972 310.145 222.308C308.329 221.755 306.952 220.848 306.011 219.586C305.071 218.321 304.538 216.872 304.412 215.227C304.283 213.585 304.484 211.9 305.015 210.169C305.721 207.852 306.763 205.78 308.138 203.957L312.674 205.847C311.123 207.555 310.075 209.305 309.526 211.099C309.166 212.275 309.125 213.389 309.404 214.431C309.686 215.475 310.412 216.175 311.591 216.537C312.714 216.879 313.583 216.784 314.199 216.258C314.813 215.729 316.008 214.465 317.777 212.464C319.545 210.464 321.199 209.101 322.731 208.369C324.263 207.638 326.113 207.602 328.273 208.261C329.812 208.732 331.056 209.413 332.012 210.304C332.966 211.195 333.657 212.239 334.089 213.434C334.521 214.629 334.717 215.905 334.681 217.261C334.645 218.62 334.413 220.004 333.981 221.41C333.302 223.633 332.163 225.823 330.568 227.971L330.563 227.974Z" fill="#72788A"/>
<path d="M337.217 204.341L332.03 203.027C333.63 200.97 334.582 198.925 334.89 196.886C335.09 195.57 334.928 194.364 334.402 193.273C333.88 192.182 332.964 191.538 331.661 191.34C330.343 191.142 329.342 191.419 328.655 192.175C327.969 192.929 326.972 194.335 325.658 196.389C324.344 198.446 322.999 199.933 321.624 200.853C320.247 201.773 318.434 202.064 316.186 201.724C314.309 201.443 312.813 200.745 311.699 199.634C310.583 198.524 309.845 197.165 309.479 195.557C309.114 193.95 309.065 192.254 309.335 190.465C309.697 188.069 310.424 185.868 311.517 183.863L316.28 185.069C314.996 186.986 314.213 188.867 313.934 190.724C313.749 191.943 313.873 193.046 314.3 194.04C314.73 195.03 315.556 195.62 316.773 195.802C317.934 195.977 318.78 195.757 319.311 195.145C319.842 194.533 320.839 193.106 322.295 190.872C323.753 188.636 325.186 187.043 326.597 186.095C328.007 185.146 329.83 184.84 332.064 185.18C333.655 185.418 334.987 185.909 336.06 186.651C337.136 187.396 337.973 188.325 338.573 189.443C339.174 190.559 339.557 191.795 339.719 193.145C339.881 194.495 339.854 195.896 339.635 197.35C339.289 199.649 338.481 201.98 337.219 204.338L337.217 204.341Z" fill="#72788A"/>
</svg>
