<svg width="76" height="20" viewBox="0 0 76 20" fill="none" xmlns="http://www.w3.org/2000/svg">
<g clip-path="url(#clip0_2295_49)">
<path d="M28.82 6.9102C29.4996 6.88309 30.1498 6.62586 30.664 6.18071C31.1782 5.73556 31.5259 5.12889 31.65 4.4602C31.7165 4.15989 31.7129 3.84829 31.6393 3.54963C31.5658 3.25098 31.4243 2.9733 31.226 2.73821C31.0277 2.50311 30.7778 2.31692 30.4958 2.19413C30.2138 2.07133 29.9072 2.01524 29.6 2.0302C28.9233 2.05634 28.2753 2.3107 27.7614 2.7519C27.2476 3.1931 26.8982 3.79518 26.77 4.4602C26.6999 4.76189 26.7009 5.07573 26.7728 5.37699C26.8446 5.67825 26.9855 5.95871 27.1843 6.19624C27.383 6.43378 27.6342 6.62191 27.9181 6.7458C28.2019 6.8697 28.5107 6.92598 28.82 6.9102Z" fill="black"/>
<path d="M75.59 15.0301C75.5658 15.0068 75.5335 14.9939 75.5 14.9939C75.4664 14.9939 75.4342 15.0068 75.41 15.0301C75.1968 15.2534 74.9385 15.4287 74.6523 15.5442C74.366 15.6597 74.0584 15.7129 73.75 15.7001C73.28 15.7001 72.55 15.4401 72.92 14.3001L74.98 8.30005C74.9946 8.26138 74.9946 8.21872 74.98 8.18005C74.9735 8.16553 74.9642 8.15245 74.9526 8.14155C74.941 8.13066 74.9274 8.12217 74.9125 8.11659C74.8976 8.11101 74.8818 8.10844 74.8659 8.10903C74.85 8.10963 74.8344 8.11337 74.82 8.12005H74.42C73.1755 8.0744 71.9601 8.50335 71.02 9.32005C71.005 9.33708 70.9865 9.35071 70.9658 9.36005C70.9451 9.36939 70.9227 9.37422 70.9 9.37422C70.8773 9.37422 70.8548 9.36939 70.8341 9.36005C70.8134 9.35071 70.795 9.33708 70.78 9.32005C70.4203 8.92346 69.9798 8.60848 69.4882 8.39632C68.9966 8.18416 68.4653 8.07973 67.93 8.09005C66.4452 8.10209 65.0046 8.59621 63.8251 9.498C62.6455 10.3998 61.7909 11.6604 61.39 13.0901C61.39 13.1801 61.39 13.2801 61.31 13.3701V13.4401C60.7882 14.1506 60.0162 14.6367 59.15 14.8001C58.76 14.8001 58.51 14.5501 58.76 13.8001C58.82 13.8501 61.97 4.45005 62.51 2.85005C62.5174 2.83267 62.5212 2.81396 62.5212 2.79505C62.5212 2.77615 62.5174 2.75744 62.51 2.74005C62.499 2.71291 62.4793 2.69024 62.4539 2.67573C62.4285 2.66121 62.3989 2.65569 62.37 2.66005H61.99C61.0122 2.597 60.0406 2.85626 59.2243 3.39811C58.4079 3.93996 57.7916 4.73452 57.47 5.66005L56.22 9.34005C56.22 9.34005 56.22 9.34005 56.22 9.40005C55.8648 9.8765 55.415 10.2744 54.8987 10.5686C54.3824 10.8629 53.8109 11.0472 53.22 11.1101C53.1813 11.1246 53.1386 11.1246 53.1 11.1101C53.0951 11.0836 53.0951 11.0565 53.1 11.0301C52.79 9.56005 51.27 8.12005 48.56 8.12005C47.0401 8.10632 45.555 8.5753 44.3186 9.45945C43.0822 10.3436 42.1583 11.5973 41.68 13.0401C41.68 13.0401 41.68 13.1501 41.68 13.2001C40.9802 14.0638 40.0817 14.7451 39.0611 15.1857C38.0406 15.6263 36.9285 15.8131 35.82 15.7301C34.82 15.6101 34.08 14.8701 34.59 13.0401C34.6914 12.5397 34.9497 12.0848 35.3273 11.7413C35.705 11.3978 36.1823 11.1837 36.69 11.1301C37.0517 11.0828 37.4178 11.1755 37.7133 11.3893C38.0089 11.6031 38.2116 11.9217 38.28 12.2801C38.28 12.3301 38.28 12.4001 38.33 12.4201C38.366 12.4294 38.4039 12.4294 38.44 12.4201H38.62C39.3009 12.3712 39.9407 12.0762 40.42 11.5901C40.7023 11.3032 40.8915 10.9379 40.9628 10.5418C41.0342 10.1458 40.9844 9.73738 40.82 9.37005C40.5128 8.94614 40.103 8.60721 39.629 8.38507C39.155 8.16293 38.6323 8.06485 38.11 8.10005C36.5415 7.99821 34.9812 8.39637 33.6533 9.2373C32.3254 10.0782 31.2984 11.3186 30.72 12.7801C30.72 12.8501 30.6 13.1001 30.55 13.2801C30.2893 13.6697 29.9533 14.0031 29.5617 14.2607C29.1701 14.5184 28.7309 14.6949 28.27 14.7801C27.88 14.7801 27.65 14.5701 27.9 13.7801L29.82 8.30005C29.8284 8.27811 29.8312 8.25439 29.8281 8.23108C29.8249 8.20777 29.816 8.18563 29.802 8.16669C29.7881 8.14776 29.7696 8.13265 29.7483 8.12275C29.7269 8.11285 29.7034 8.10848 29.68 8.11005H29.29C28.3142 8.04472 27.3442 8.30337 26.5305 8.84583C25.7168 9.3883 25.105 10.1842 24.79 11.1101L24.25 12.6601C23.9695 13.4548 23.4078 14.1194 22.6708 14.5284C21.9339 14.9374 21.0728 15.0625 20.25 14.8801C19.25 14.6401 18.81 13.4601 18.49 12.0301C18.483 12.0022 18.4862 11.9728 18.499 11.9471C18.5118 11.9214 18.5335 11.9012 18.56 11.8901C20.21 10.8901 22.27 9.30005 22.79 6.57005C23.4 3.23005 21.13 0.0100539 15.82 5.38928e-05C7.56997 -0.0199461 1.81997 5.53005 0.33997 10.9801C-0.66003 14.8101 0.52997 19.2901 5.03997 19.2901C8.18997 19.2901 10.22 17.9601 12.67 10.6301C12.9 9.94005 13.32 8.72005 13.51 8.12005C13.5246 8.08138 13.5246 8.03872 13.51 8.00005C13.51 7.95005 13.44 7.93005 13.37 7.92005H12.99C11.75 7.92005 9.04997 8.26005 8.08997 10.9901C7.12997 13.7201 6.88997 15.1101 5.36997 14.9901C4.19997 14.8501 4.13997 12.4301 4.91997 10.5401C5.65293 8.73574 6.87371 7.17108 8.44559 6.02131C10.0175 4.87154 11.8784 4.18205 13.82 4.03005C17.28 3.71005 18.1 5.13005 17.68 7.03005C17.34 8.51005 15.81 9.74005 14.05 10.4101C13.54 10.6101 13.4 10.8501 13.45 11.2701C13.92 15.4501 15.85 19.1001 18.6 19.3201C19.3878 19.3413 20.1712 19.1955 20.8985 18.8921C21.6259 18.5888 22.2807 18.1348 22.82 17.5601C22.8341 17.5518 22.8499 17.5467 22.8662 17.5453C22.8825 17.5439 22.8989 17.5462 22.9143 17.5519C22.9296 17.5577 22.9435 17.5668 22.9548 17.5786C22.9662 17.5903 22.9748 17.6045 22.98 17.6201C23.0926 18.137 23.391 18.5946 23.8187 18.9061C24.2463 19.2176 24.7734 19.3614 25.3 19.3101C27.3 19.3101 28.89 18.3101 30.45 16.8301C30.4635 16.8215 30.4786 16.8161 30.4944 16.814C30.5102 16.8119 30.5263 16.8133 30.5415 16.8181C30.5568 16.8228 30.5708 16.8308 30.5826 16.8415C30.5944 16.8522 30.6037 16.8654 30.61 16.8801L30.73 17.1101C31.158 17.785 31.7484 18.3418 32.4471 18.7297C33.1459 19.1175 33.9308 19.3239 34.73 19.3301C35.961 19.4424 37.2016 19.2779 38.3608 18.8488C39.5201 18.4197 40.5687 17.7368 41.43 16.8501C41.49 16.8501 41.55 16.8501 41.59 16.9001C41.992 17.6625 42.6041 18.2937 43.3537 18.7191C44.1034 19.1444 44.9593 19.346 45.82 19.3001C47.2437 19.3352 48.6459 18.9473 49.8492 18.1855C51.0525 17.4236 52.0028 16.3221 52.58 15.0201C52.6371 14.9031 52.6872 14.7829 52.73 14.6601C52.73 14.6601 52.73 14.6101 52.78 14.6001C53.3324 14.4963 53.8655 14.3074 54.36 14.0401C54.3703 14.0275 54.3833 14.0174 54.398 14.0104C54.4127 14.0035 54.4287 13.9999 54.445 13.9999C54.4612 13.9999 54.4773 14.0035 54.492 14.0104C54.5067 14.0174 54.5196 14.0275 54.53 14.0401C54.5394 14.0727 54.5394 14.1074 54.53 14.1401L54.1 15.3801C53.27 17.7701 54.27 19.2801 56.22 19.2801C58.17 19.2801 59.71 18.3301 61.22 16.9301C61.2341 16.9218 61.2499 16.9167 61.2662 16.9153C61.2825 16.9139 61.2989 16.9162 61.3143 16.9219C61.3296 16.9277 61.3435 16.9368 61.3548 16.9486C61.3662 16.9603 61.3748 16.9745 61.38 16.9901C61.6754 17.6616 62.1557 18.2352 62.7648 18.6442C63.3738 19.0532 64.0866 19.2807 64.82 19.3001C66.1581 19.3573 67.4652 18.8869 68.46 17.9901L68.52 17.9401C68.52 17.9401 68.61 17.9401 68.66 18.0001C68.9287 18.3911 69.2864 18.7128 69.7036 18.9388C70.1208 19.1648 70.5856 19.2886 71.06 19.3001C72.0562 19.4242 73.0628 19.1693 73.8797 18.5857C74.6967 18.0022 75.2643 17.1327 75.47 16.1501C75.5493 15.8224 75.5929 15.4871 75.6 15.1501C75.6087 15.133 75.6133 15.1142 75.6133 15.0951C75.6133 15.0759 75.6087 15.0571 75.6 15.0401M49.12 13.7601C49.023 14.2837 48.7538 14.76 48.3552 15.1133C47.9567 15.4666 47.4515 15.6766 46.92 15.7101C45.82 15.7101 45.05 14.8301 45.56 13.0401C45.6625 12.5315 45.9277 12.0701 46.3155 11.7255C46.7034 11.3809 47.1929 11.1719 47.71 11.1301C48.81 11.1301 49.71 11.8701 49.12 13.7601ZM68.97 13.7601C68.8753 14.276 68.6134 14.7464 68.2249 15.0988C67.8363 15.4512 67.3427 15.666 66.82 15.7101C65.72 15.7101 64.95 14.8301 65.46 13.0401C65.5625 12.5315 65.8277 12.0701 66.2155 11.7255C66.6034 11.3809 67.0929 11.1719 67.61 11.1301C68.71 11.1301 69.61 11.8701 69.02 13.7601" fill="black"/>
</g>
<defs>
<clipPath id="clip0_2295_49">
<rect width="75.63" height="19.31" fill="white"/>
</clipPath>
</defs>
</svg>
