<?xml version="1.0" encoding="UTF-8" standalone="no"?>
<!DOCTYPE svg PUBLIC "-//W3C//DTD SVG 1.1//EN" "http://www.w3.org/Graphics/SVG/1.1/DTD/svg11.dtd">
<svg width="100%" height="100%" viewBox="0 0 317 84" version="1.1" xmlns="http://www.w3.org/2000/svg" xmlns:xlink="http://www.w3.org/1999/xlink" xml:space="preserve" xmlns:serif="http://www.serif.com/" style="fill-rule:evenodd;clip-rule:evenodd;stroke-linejoin:round;stroke-miterlimit:2;">
    <g transform="matrix(1,0,0,1,-1391.94,-2551.15)">
        <g transform="matrix(4.16667,0,0,4.16667,1550.27,2592.82)">
            <g transform="matrix(1,0,0,1,-38,-10)">
                <clipPath id="_clip1">
                    <rect x="0" y="0" width="76" height="20"/>
                </clipPath>
                <g clip-path="url(#_clip1)">
                    <g>
                        <path d="M28.82,6.91C29.5,6.883 30.15,6.626 30.664,6.181C31.178,5.736 31.526,5.129 31.65,4.46C31.717,4.16 31.713,3.848 31.639,3.55C31.566,3.251 31.424,2.973 31.226,2.738C31.028,2.503 30.778,2.317 30.496,2.194C30.214,2.071 29.907,2.015 29.6,2.03C28.923,2.056 28.275,2.311 27.761,2.752C27.248,3.193 26.898,3.795 26.77,4.46C26.7,4.762 26.701,5.076 26.773,5.377C26.845,5.678 26.985,5.959 27.184,6.196C27.383,6.434 27.634,6.622 27.918,6.746C28.202,6.87 28.511,6.926 28.82,6.91Z" style="fill-rule:nonzero;"/>
                        <path d="M75.59,15.03C75.566,15.007 75.534,14.994 75.5,14.994C75.466,14.994 75.434,15.007 75.41,15.03C75.197,15.253 74.939,15.429 74.652,15.544C74.366,15.66 74.058,15.713 73.75,15.7C73.28,15.7 72.55,15.44 72.92,14.3L74.98,8.3C74.995,8.261 74.995,8.219 74.98,8.18C74.974,8.166 74.964,8.152 74.953,8.142C74.941,8.131 74.927,8.122 74.913,8.117C74.898,8.111 74.882,8.108 74.866,8.109C74.85,8.11 74.834,8.113 74.82,8.12L74.42,8.12C73.176,8.074 71.96,8.503 71.02,9.32C71.005,9.337 70.987,9.351 70.966,9.36C70.945,9.369 70.923,9.374 70.9,9.374C70.877,9.374 70.855,9.369 70.834,9.36C70.813,9.351 70.795,9.337 70.78,9.32C70.42,8.923 69.98,8.608 69.488,8.396C68.997,8.184 68.465,8.08 67.93,8.09C66.445,8.102 65.005,8.596 63.825,9.498C62.646,10.4 61.791,11.66 61.39,13.09C61.39,13.18 61.39,13.28 61.31,13.37L61.31,13.44C60.788,14.151 60.016,14.637 59.15,14.8C58.76,14.8 58.51,14.55 58.76,13.8C58.82,13.85 61.97,4.45 62.51,2.85C62.517,2.833 62.521,2.814 62.521,2.795C62.521,2.776 62.517,2.757 62.51,2.74C62.499,2.713 62.479,2.69 62.454,2.676C62.429,2.661 62.399,2.656 62.37,2.66L61.99,2.66C61.012,2.597 60.041,2.856 59.224,3.398C58.408,3.94 57.792,4.735 57.47,5.66L56.22,9.34L56.22,9.4C55.865,9.877 55.415,10.274 54.899,10.569C54.382,10.863 53.811,11.047 53.22,11.11C53.181,11.125 53.139,11.125 53.1,11.11C53.095,11.084 53.095,11.057 53.1,11.03C52.79,9.56 51.27,8.12 48.56,8.12C47.04,8.106 45.555,8.575 44.319,9.459C43.082,10.344 42.158,11.597 41.68,13.04L41.68,13.2C40.98,14.064 40.082,14.745 39.061,15.186C38.041,15.626 36.929,15.813 35.82,15.73C34.82,15.61 34.08,14.87 34.59,13.04C34.691,12.54 34.95,12.085 35.327,11.741C35.705,11.398 36.182,11.184 36.69,11.13C37.052,11.083 37.418,11.176 37.713,11.389C38.009,11.603 38.212,11.922 38.28,12.28C38.28,12.33 38.28,12.4 38.33,12.42C38.366,12.429 38.404,12.429 38.44,12.42L38.62,12.42C39.301,12.371 39.941,12.076 40.42,11.59C40.702,11.303 40.892,10.938 40.963,10.542C41.034,10.146 40.984,9.737 40.82,9.37C40.513,8.946 40.103,8.607 39.629,8.385C39.155,8.163 38.632,8.065 38.11,8.1C36.542,7.998 34.981,8.396 33.653,9.237C32.325,10.078 31.298,11.319 30.72,12.78C30.72,12.85 30.6,13.1 30.55,13.28C30.289,13.67 29.953,14.003 29.562,14.261C29.17,14.518 28.731,14.695 28.27,14.78C27.88,14.78 27.65,14.57 27.9,13.78L29.82,8.3C29.828,8.278 29.831,8.254 29.828,8.231C29.825,8.208 29.816,8.186 29.802,8.167C29.788,8.148 29.77,8.133 29.748,8.123C29.727,8.113 29.703,8.108 29.68,8.11L29.29,8.11C28.314,8.045 27.344,8.303 26.531,8.846C25.717,9.388 25.105,10.184 24.79,11.11L24.25,12.66C23.97,13.455 23.408,14.119 22.671,14.528C21.934,14.937 21.073,15.063 20.25,14.88C19.25,14.64 18.81,13.46 18.49,12.03C18.483,12.002 18.486,11.973 18.499,11.947C18.512,11.921 18.534,11.901 18.56,11.89C20.21,10.89 22.27,9.3 22.79,6.57C23.4,3.23 21.13,0.01 15.82,0C7.57,-0.02 1.82,5.53 0.34,10.98C-0.66,14.81 0.53,19.29 5.04,19.29C8.19,19.29 10.22,17.96 12.67,10.63C12.9,9.94 13.32,8.72 13.51,8.12C13.525,8.081 13.525,8.039 13.51,8C13.51,7.95 13.44,7.93 13.37,7.92L12.99,7.92C11.75,7.92 9.05,8.26 8.09,10.99C7.13,13.72 6.89,15.11 5.37,14.99C4.2,14.85 4.14,12.43 4.92,10.54C5.653,8.736 6.874,7.171 8.446,6.021C10.018,4.872 11.878,4.182 13.82,4.03C17.28,3.71 18.1,5.13 17.68,7.03C17.34,8.51 15.81,9.74 14.05,10.41C13.54,10.61 13.4,10.85 13.45,11.27C13.92,15.45 15.85,19.1 18.6,19.32C19.388,19.341 20.171,19.196 20.898,18.892C21.626,18.589 22.281,18.135 22.82,17.56C22.834,17.552 22.85,17.547 22.866,17.545C22.883,17.544 22.899,17.546 22.914,17.552C22.93,17.558 22.944,17.567 22.955,17.579C22.966,17.59 22.975,17.605 22.98,17.62C23.093,18.137 23.391,18.595 23.819,18.906C24.246,19.218 24.773,19.361 25.3,19.31C27.3,19.31 28.89,18.31 30.45,16.83C30.464,16.822 30.479,16.816 30.494,16.814C30.51,16.812 30.526,16.813 30.542,16.818C30.557,16.823 30.571,16.831 30.583,16.842C30.594,16.852 30.604,16.865 30.61,16.88L30.73,17.11C31.158,17.785 31.748,18.342 32.447,18.73C33.146,19.118 33.931,19.324 34.73,19.33C35.961,19.442 37.202,19.278 38.361,18.849C39.52,18.42 40.569,17.737 41.43,16.85C41.49,16.85 41.55,16.85 41.59,16.9C41.992,17.663 42.604,18.294 43.354,18.719C44.103,19.144 44.959,19.346 45.82,19.3C47.244,19.335 48.646,18.947 49.849,18.186C51.053,17.424 52.003,16.322 52.58,15.02C52.637,14.903 52.687,14.783 52.73,14.66C52.73,14.66 52.73,14.61 52.78,14.6C53.332,14.496 53.865,14.307 54.36,14.04C54.37,14.028 54.383,14.017 54.398,14.01C54.413,14.004 54.429,14 54.445,14C54.461,14 54.477,14.004 54.492,14.01C54.507,14.017 54.52,14.028 54.53,14.04C54.539,14.073 54.539,14.107 54.53,14.14L54.1,15.38C53.27,17.77 54.27,19.28 56.22,19.28C58.17,19.28 59.71,18.33 61.22,16.93C61.234,16.922 61.25,16.917 61.266,16.915C61.283,16.914 61.299,16.916 61.314,16.922C61.33,16.928 61.344,16.937 61.355,16.949C61.366,16.96 61.375,16.975 61.38,16.99C61.675,17.662 62.156,18.235 62.765,18.644C63.374,19.053 64.087,19.281 64.82,19.3C66.158,19.357 67.465,18.887 68.46,17.99L68.52,17.94C68.52,17.94 68.61,17.94 68.66,18C68.929,18.391 69.286,18.713 69.704,18.939C70.121,19.165 70.586,19.289 71.06,19.3C72.056,19.424 73.063,19.169 73.88,18.586C74.697,18.002 75.264,17.133 75.47,16.15C75.549,15.822 75.593,15.487 75.6,15.15C75.609,15.133 75.613,15.114 75.613,15.095C75.613,15.076 75.609,15.057 75.6,15.04M49.12,13.76C49.023,14.284 48.754,14.76 48.355,15.113C47.957,15.467 47.452,15.677 46.92,15.71C45.82,15.71 45.05,14.83 45.56,13.04C45.663,12.532 45.928,12.07 46.316,11.726C46.703,11.381 47.193,11.172 47.71,11.13C48.81,11.13 49.71,11.87 49.12,13.76ZM68.97,13.76C68.875,14.276 68.613,14.746 68.225,15.099C67.836,15.451 67.343,15.666 66.82,15.71C65.72,15.71 64.95,14.83 65.46,13.04C65.563,12.532 65.828,12.07 66.216,11.726C66.603,11.381 67.093,11.172 67.61,11.13C68.71,11.13 69.61,11.87 69.02,13.76" style="fill-rule:nonzero;"/>
                    </g>
                </g>
            </g>
        </g>
    </g>
</svg>
