<svg xmlns="http://www.w3.org/2000/svg" width="149" height="25" fill="none" viewBox="0 0 149 25">
  <g clip-path="url(#a)">
    <path d="M4.183 24.438h6.884l10.876-9.709a2.55 2.55 0 0 0 .857-1.896 2.55 2.55 0 0 0-.857-1.896L11.067 1.23H4.183a.51.51 0 0 0-.489.328.5.5 0 0 0 .134.563l11.65 10.4c.09.08.142.197.142.316a.43.43 0 0 1-.141.315l-11.651 10.4a.49.49 0 0 0-.134.564.51.51 0 0 0 .489.327z"/>
    <path d="m6.28 6.092-5.424 4.84A2.55 2.55 0 0 0 0 12.828c0 .72.313 1.411.856 1.897l5.425 4.84 4.116-3.675-3.078-2.748a.43.43 0 0 1-.142-.316c0-.119.052-.235.142-.316l3.078-2.748L6.28 6.087zM18.62 1.223h-5.542L16.524 4.3l2.448-2.185a.5.5 0 0 0 .136-.563.51.51 0 0 0-.489-.328M16.524 21.359l-3.446 3.076h5.541c.266 0 .427-.17.49-.328a.5.5 0 0 0-.137-.563zM143.344 19.108c.142-.27 3.282-9.869 4.955-15.005h-5.464c-1.76 7.224-3.009 11.87-3.021 11.917l-.074.274-.086-.27c-.015-.045-1.513-4.692-3.253-11.919h-5.463l4.365 12.828c.345.92 1.125 2.02 2.885 2.02 1.383 0 2.296-.678 2.865-1.188l.236-.21-.1.298c-.01.026-.97 2.796-4.178 2.796-1.529 0-3.155-.614-3.599-.796v4.426c.243.124 1.526.72 3.599.72.993 0 4.012 0 6.331-5.884zM96.228 16.655c0-3.872-4.133-4.908-7.152-5.663-1.936-.484-3.463-.867-3.463-1.811 0-.578.462-1.268 2.656-1.268 3.419 0 6.398 2.185 7.066 2.712V5.658c-1.924-1.257-4.186-1.923-6.544-1.923-2.892 0-7.197 1.404-7.197 5.27 0 3.603 3.704 4.434 6.68 5.101 1.894.425 3.391.76 3.391 1.724 0 .888-.871 1.338-2.591 1.338-3.883 0-6.54-2.38-7.175-3.01v5.653c.722.607 3.858 1.726 6.805 1.726 4.647 0 7.524-2.534 7.524-4.882M121.175 21.537c2.408 0 4.218-1.111 5.092-3.129l.194-.444-.187 2.843v.366h4.913l-.064-9.443c0-.996-.142-2.918-1.09-4.62-1.246-2.236-3.438-3.37-6.522-3.37-3.748 0-6.263 1.634-6.673 1.92v4.938c.593-.587 2.917-2.682 5.911-2.682 1.097 0 1.961.306 2.567.913.934.932.919 2.226.916 2.282v.097l-.099-.017c-.628-.114-1.956-.304-3.821-.304-4.826 0-7.023 3-7.023 5.79 0 3.34 3.054 4.863 5.889 4.863zm-.385-7.494c1.281-.963 3.57-1.07 5.072-.682l.067.017v.066c-.218 3.945-2.376 4.372-3.292 4.372-1.641 0-2.743-.83-2.743-2.068 0-.683.303-1.258.896-1.705M51.639 21.537c2.408 0 4.217-1.111 5.091-3.129l.194-.444-.189 2.843v.366h4.913l-.064-9.443c0-.996-.142-2.916-1.09-4.62-1.246-2.236-3.438-3.37-6.522-3.37-3.748 0-6.263 1.634-6.673 1.92v4.938c.593-.587 2.917-2.682 5.911-2.682 1.097 0 1.961.306 2.567.913.933.932.919 2.226.916 2.282v.097l-.1-.017c-.627-.114-1.956-.304-3.82-.304-4.826 0-7.023 3-7.023 5.79 0 3.34 3.053 4.863 5.889 4.863zm-.385-7.494c1.28-.963 3.57-1.07 5.072-.682l.067.017v.066c-.219 3.945-2.376 4.372-3.292 4.372-1.641 0-2.743-.83-2.743-2.068 0-.683.303-1.258.896-1.705M68.458 21.538c1.733 0 3.227-.515 3.905-1.345V15.93c-.27.355-.879 1-1.68 1-1.07 0-1.59-.726-1.59-2.216V7.246h3.051V3.738h-3.05V1.25H65.62c-.017.808-.323 3.005-3.073 3.05v2.946h1.504v9.09c0 3.355 1.564 5.204 4.407 5.204zM44.846 16.655c0-3.872-4.134-4.908-7.153-5.663-1.936-.484-3.463-.867-3.463-1.811 0-.578.462-1.268 2.657-1.268 3.418 0 6.397 2.185 7.065 2.712V5.658c-1.924-1.257-4.186-1.923-6.544-1.923-2.892 0-7.197 1.404-7.197 5.27 0 3.603 3.704 4.434 6.68 5.101 1.895.425 3.392.76 3.392 1.724 0 .888-.872 1.338-2.592 1.338-3.883 0-6.54-2.38-7.175-3.01v5.653c.723.607 3.858 1.726 6.805 1.726 4.647 0 7.525-2.534 7.525-4.882M77.219 0c-1.696 0-3.078 1.243-3.078 2.77s1.38 2.765 3.078 2.765S80.23 4.321 80.23 2.77 78.907 0 77.22 0M77.22 7.037c-1.34 0-2.293-.325-2.618-.454v14.588h5.215V6.583c-.322.129-1.26.454-2.596.454M107.878 21.537c4.434 0 6.827-4.607 6.827-8.94 0-4.334-2.138-8.86-6.827-8.86-2.418 0-4.005 1.018-5 3.205l-.199.44.268-3.278h-5.166v20.529h4.978l.007-6.016.159.291c.879 1.624 2.778 2.632 4.955 2.632zm-5.601-8.984c0-2.98 2.113-4.035 3.92-4.035 2.038 0 4.096 1.248 4.096 4.035 0 1.3-.454 2.367-1.315 3.078-.728.602-1.713.932-2.781.932-1.81 0-3.92-1.051-3.92-4.01"/>
  </g>
  <defs>
    <clipPath id="a">
      <path fill="#fff" d="M0 0h149v25H0z"/>
    </clipPath>
  </defs>
</svg>