<svg width="2500" height="752" viewBox="0 0 2500 752" fill="none" xmlns="http://www.w3.org/2000/svg">
<path d="M466.787 598.841C499.451 473.991 531.39 349.142 564.054 223.567C569.861 200.339 576.394 176.385 584.378 153.883C601.073 108.153 630.834 87.8291 678.015 87.8291C722.293 87.8291 752.78 108.153 769.475 152.431C792.702 214.856 800.687 281.636 815.93 346.238C835.529 428.262 852.95 511.737 871.096 593.76C871.822 597.389 873.274 600.292 876.903 611.181C897.228 536.416 916.1 467.458 935.699 398.501C957.475 320.833 977.799 241.713 1002.48 164.771C1031.51 75.4893 1084.5 11.6129 1186.12 3.62835C1230.4 -0.000990868 1273.23 7.2577 1311.7 29.7596C1354.52 54.4392 1369.04 100.169 1347.27 137.188C1324.76 174.933 1279.03 185.096 1236.21 161.142C1219.51 151.706 1204.27 139.366 1188.3 129.204C1147.65 103.798 1119.34 110.331 1095.39 153.157C1066.35 205.42 1051.84 263.489 1035.14 320.107C1003.93 429.713 974.896 539.32 945.135 648.926C928.44 710.625 910.293 725.868 846.417 728.771C830.448 729.497 815.204 729.497 799.235 728.771C743.343 725.142 725.197 710.625 712.857 654.733C690.355 548.756 667.853 442.053 644.625 336.076C640.996 320.833 637.367 306.316 632.285 287.443C617.042 300.509 617.768 315.752 614.139 328.092C584.378 439.15 554.617 550.208 527.76 661.266C518.324 701.914 495.096 720.787 455.899 726.594C446.463 728.045 437.027 728.771 426.865 728.771C327.421 732.401 313.629 721.513 290.401 626.424C258.463 495.767 227.251 365.837 194.587 235.18C180.795 180.014 163.374 125.574 102.401 100.169C79.8993 90.7326 84.2545 68.2307 108.934 52.9874C192.409 1.45075 319.436 46.4546 346.293 142.269C378.231 256.231 403.637 372.37 431.946 487.057C441.382 524.076 450.092 561.821 458.803 598.841H466.787ZM2187.82 640.941C2134.11 714.98 2065.15 746.918 1978.05 734.578C1810.37 710.625 1735.61 504.478 1842.31 365.111C1918.53 265.667 2049.91 236.632 2159.51 296.879C2182.02 309.219 2186.37 304.138 2185.64 281.636C2184.92 252.601 2184.92 223.567 2184.92 194.532C2184.92 162.594 2171.85 140.092 2142.09 125.574C2113.06 111.783 2112.33 92.1843 2140.64 76.2152C2189.27 48.6322 2241.54 50.8098 2290.17 74.0376C2335.17 95.8137 2352.59 135.736 2353.32 184.37V553.837C2353.32 569.806 2353.32 585.049 2355.5 601.018C2359.13 625.698 2370.02 646.748 2394.69 657.636C2405.58 662.717 2419.37 664.895 2420.1 680.138C2420.1 696.833 2407.03 704.818 2393.97 711.35C2318.48 751.999 2230.65 723.69 2187.82 640.941ZM2184.19 473.991C2186.37 454.393 2182.02 432.617 2174.76 412.292C2159.51 371.644 2133.38 341.883 2086.2 337.528C2036.84 332.447 2000.55 353.497 1978.77 394.872C1949.01 450.763 1946.83 508.833 1977.32 564.725C1999.82 606.825 2036.84 627.15 2084.75 624.246C2130.48 621.343 2156.61 594.486 2171.85 553.837C2180.56 529.157 2185.64 503.752 2184.19 473.991ZM1688.42 387.613V594.486C1688.42 632.957 1694.96 667.072 1737.78 681.59C1749.4 685.945 1759.56 694.655 1756.66 708.447C1754.48 723.69 1741.41 727.32 1729.07 727.32C1647.05 728.045 1565.03 728.045 1483 727.32C1472.12 727.32 1460.5 723.69 1457.6 710.625C1454.69 696.107 1461.95 687.397 1474.29 682.316C1515.67 667.798 1524.38 636.586 1523.65 595.937C1522.2 468.91 1522.93 342.609 1522.93 215.582C1522.93 174.208 1514.22 139.366 1471.39 121.219C1448.16 111.783 1451.79 94.3619 1468.49 82.0222C1513.49 48.6322 1564.3 50.084 1613.66 68.2307C1659.39 84.9257 1686.25 119.767 1686.97 170.578C1688.42 243.165 1687.7 315.752 1688.42 387.613Z" fill="#72788A"/>
<path d="M1359.61 497.945C1359.61 540.771 1361.06 574.161 1359.61 608.277C1358.15 642.393 1369.77 667.073 1402.43 680.138C1414.77 685.219 1427.84 692.478 1424.93 709.173C1422.03 728.046 1405.34 728.771 1390.82 728.771C1313.88 729.497 1236.21 728.771 1159.27 728.771C1145.47 728.771 1130.96 727.32 1127.33 711.351C1123.7 695.382 1134.59 686.671 1147.65 681.59C1181.77 667.798 1192.66 642.393 1191.93 606.826C1190.48 541.497 1190.48 476.169 1191.2 411.567C1191.2 375.999 1178.86 349.142 1145.47 332.447C1119.34 319.382 1119.34 304.864 1142.57 286.717C1212.98 231.551 1336.38 275.829 1354.52 363.66C1365.41 410.115 1356.7 458.748 1359.61 497.945Z" fill="#72788A"/>
</svg>
