<svg xmlns="http://www.w3.org/2000/svg" width="2500" height="752" fill="none" viewBox="0 0 2500 752">
  <path d="M466.787 598.841c32.664-124.85 64.603-249.699 97.267-375.274 5.807-23.228 12.34-47.182 20.324-69.684 16.695-45.73 46.456-66.054 93.637-66.054 44.278 0 74.765 20.324 91.46 64.602 23.227 62.425 31.212 129.205 46.455 193.807 19.599 82.024 37.02 165.499 55.166 247.522.726 3.629 2.178 6.532 5.807 17.421 20.325-74.765 39.197-143.723 58.796-212.68 21.776-77.668 42.1-156.788 66.781-233.73 29.03-89.282 82.02-153.158 183.64-161.143C1230.4 0 1273.23 7.258 1311.7 29.76c42.82 24.68 57.34 70.409 35.57 107.428-22.51 37.745-68.24 47.908-111.06 23.954-16.7-9.436-31.94-21.776-47.91-31.938-40.65-25.406-68.96-18.873-92.91 23.953-29.04 52.263-43.55 110.332-60.25 166.95-31.21 109.606-60.244 219.213-90.005 328.819-16.695 61.699-34.842 76.942-98.718 79.845a511 511 0 0 1-47.182 0c-55.892-3.629-74.038-18.146-86.378-74.038-22.502-105.977-45.004-212.68-68.232-318.657-3.629-15.243-7.258-29.76-12.34-48.633-15.243 13.066-14.517 28.309-18.146 40.649-29.761 111.058-59.522 222.116-86.379 333.174-9.436 40.648-32.664 59.521-71.861 65.328-9.436 1.451-18.872 2.177-29.034 2.177-99.444 3.63-113.236-7.258-136.464-102.347-31.938-130.657-63.15-260.587-95.814-391.244-13.792-55.166-31.213-109.606-92.186-135.011-22.502-9.436-18.147-31.938 6.533-47.182 83.475-51.536 210.502-6.532 237.359 89.282 31.938 113.962 57.344 230.101 85.653 344.788 9.436 37.019 18.146 74.764 26.857 111.784zm1721.033 42.1c-53.71 74.039-122.67 105.977-209.77 93.637-167.68-23.953-242.44-230.1-135.74-369.467 76.22-99.444 207.6-128.479 317.2-68.232 22.51 12.34 26.86 7.259 26.13-15.243-.72-29.035-.72-58.069-.72-87.104 0-31.938-13.07-54.44-42.83-68.958-29.03-13.791-29.76-33.39-1.45-49.359 48.63-27.583 100.9-25.405 149.53-2.177 45 21.776 62.42 61.698 63.15 110.332v369.467c0 15.969 0 31.212 2.18 47.181 3.63 24.68 14.52 45.73 39.19 56.618 10.89 5.081 24.68 7.259 25.41 22.502 0 16.695-13.07 24.68-26.13 31.212-75.49 40.649-163.32 12.34-206.15-70.409m-3.63-166.95c2.18-19.598-2.17-41.374-9.43-61.699-15.25-40.648-41.38-70.409-88.56-74.764-49.36-5.081-85.65 15.969-107.43 57.344-29.76 55.891-31.94 113.961-1.45 169.853 22.5 42.1 59.52 62.425 107.43 59.521 45.73-2.903 71.86-29.76 87.1-70.409 8.71-24.68 13.79-50.085 12.34-79.846m-495.77-86.378v206.873c0 38.471 6.54 72.586 49.36 87.104 11.62 4.355 21.78 13.065 18.88 26.857-2.18 15.243-15.25 18.873-27.59 18.873-82.02.725-164.04.725-246.07 0-10.88 0-22.5-3.63-25.4-16.695-2.91-14.518 4.35-23.228 16.69-28.309 41.38-14.518 50.09-45.73 49.36-86.379-1.45-127.027-.72-253.328-.72-380.355 0-41.374-8.71-76.216-51.54-94.363-23.23-9.436-19.6-26.857-2.9-39.197 45-33.39 95.81-31.938 145.17-13.791 45.73 16.695 72.59 51.536 73.31 102.347 1.45 72.587.73 145.174 1.45 217.035"/>
  <path d="M1359.61 497.945c0 42.826 1.45 76.216 0 110.332-1.46 34.116 10.16 58.796 42.82 71.861 12.34 5.081 25.41 12.34 22.5 29.035-2.9 18.873-19.59 19.598-34.11 19.598-76.94.726-154.61 0-231.55 0-13.8 0-28.31-1.451-31.94-17.42s7.26-24.68 20.32-29.761c34.12-13.792 45.01-39.197 44.28-74.764-1.45-65.329-1.45-130.657-.73-195.259 0-35.568-12.34-62.425-45.73-79.12-26.13-13.065-26.13-27.583-2.9-45.73 70.41-55.166 193.81-10.888 211.95 76.943 10.89 46.455 2.18 95.088 5.09 134.285"/>
</svg>