<svg xmlns="http://www.w3.org/2000/svg" viewBox="0 0 576 512"><path fill="currentColor" d="M64 112c-8.8 0-16 7.2-16 16l0 128c0 8.8 7.2 16 16 16l448 0c8.8 0 16-7.2 16-16l0-128c0-8.8-7.2-16-16-16L64 112zM0 128C0 92.7 28.7 64 64 64l448 0c35.3 0 64 28.7 64 64l0 128c0 35.3-28.7 64-64 64L64 320c-35.3 0-64-28.7-64-64L0 128zm120 48l336 0c13.3 0 24 10.7 24 24s-10.7 24-24 24l-336 0c-13.3 0-24-10.7-24-24s10.7-24 24-24zm88 296l0-104 48 0 0 104c0 39.8-32.2 72-72 72s-72-32.2-72-72c0-13.3 10.7-24 24-24s24 10.7 24 24 10.7 24 24 24 24-10.7 24-24zM368 368l0 104c0 13.3 10.7 24 24 24s24-10.7 24-24 10.7-24 24-24 24 10.7 24 24c0 39.8-32.2 72-72 72s-72-32.2-72-72l0-104 48 0z"/></svg>