<svg xmlns="http://www.w3.org/2000/svg" viewBox="0 0 512 512"><path fill="currentColor" d="M448 112L64 112c-8.8 0-16 7.2-16 16l0 224c0 8.8 7.2 16 16 16l30.9 0-46.2 46.2C20.7 407.3 0 382.1 0 352L0 128C0 92.7 28.7 64 64 64l384 0c35.3 0 64 28.7 64 64l0 224c0 30.1-20.7 55.3-48.7 62.2L417.1 368 448 368c8.8 0 16-7.2 16-16l0-224c0-8.8-7.2-16-16-16zM345.4 432l-89.4-89.4-89.4 89.4 178.7 0zM128 480c-12.9 0-24.6-7.8-29.6-19.8s-2.2-25.7 6.9-34.9l128-128c12.5-12.5 32.8-12.5 45.3 0l128 128c9.2 9.2 11.9 22.9 6.9 34.9S396.9 480 384 480l-256 0z"/></svg>