<svg xmlns="http://www.w3.org/2000/svg" viewBox="0 0 512 512"><path fill="currentColor" d="M256 64c123.7 0 224 100.3 224 224 0 53.2-18.5 102.1-49.5 140.5L473 471c9.4 9.4 9.4 24.6 0 33.9s-24.6 9.4-33.9 0l-42.5-42.5C358.1 493.5 309.2 512 256 512s-102.1-18.5-140.5-49.5L73 505c-9.4 9.4-24.6 9.4-33.9 0s-9.4-24.6 0-33.9l42.5-42.5C50.5 390.1 32 341.2 32 288 32 164.3 132.3 64 256 64zm0 48a176 176 0 1 0 0 352 176 176 0 1 0 0-352zm0 304a32 32 0 1 1 0-64 32 32 0 1 1 0 64zm0-256c18.2 0 32.7 15.5 31.4 33.7l-7.4 104c-.9 12.6-11.4 22.3-23.9 22.3-12.6 0-23-9.7-23.9-22.3l-7.4-104C223.3 175.5 237.8 160 256 160zM95.2 0c19.3 0 37.3 5.8 52.3 15.7 9.5 6.3 6.3 19.9-4.1 24.6-6.1 2.8-12 5.8-17.8 8.9-4.9 2.7-10.9 2.6-16.2 .9-4.5-1.4-9.2-2.2-14.2-2.2-26.1 0-47.2 21.2-47.2 47.2 0 2 .1 4 .4 5.9 .7 5.6-.3 11.4-3.8 15.8-4.2 5.2-8.2 10.5-12 16-6.5 9.4-20.5 10.1-25-.4-4.9-11.4-7.6-24.1-7.6-37.3 0-52.6 42.6-95.2 95.2-95.2zM416.7 0c52.6 0 95.3 42.6 95.3 95.2 0 13.2-2.7 25.8-7.6 37.3-4.5 10.5-18.4 9.8-25 .4-3.8-5.5-7.8-10.8-12-16-3.5-4.4-4.5-10.2-3.8-15.8 .2-1.9 .4-3.9 .4-5.9 0-26.1-21.2-47.2-47.3-47.2-4.9 0-9.7 .8-14.2 2.2-5.4 1.7-11.3 1.8-16.3-.9-5.8-3.2-11.7-6.2-17.8-8.9-10.4-4.7-13.7-18.3-4.1-24.6 15-9.9 33-15.7 52.3-15.7z"/></svg>