<svg xmlns="http://www.w3.org/2000/svg" viewBox="0 0 576 512"><path fill="currentColor" d="M152 0c-13.3 0-24 10.7-24 24s10.7 24 24 24l208 0c13.3 0 24-10.7 24-24S373.3 0 360 0L152 0zM104 96c-13.3 0-24 10.7-24 24s10.7 24 24 24l304 0c13.3 0 24-10.7 24-24s-10.7-24-24-24L104 96zM484.3 208.6C475.1 198 461.9 192 448 192L64 192c-13.9 0-27.1 6-36.3 16.6S14.5 233 16.5 246.8l32 224C51.9 494.4 72.1 512 96 512l180 0c-10.5-14.6-19-30.7-25.1-48L96 464 64 240 325.8 240c30.4-20.2 66.9-32 106.2-32 20.3 0 39.8 3.1 58.1 8.9-1.6-3-3.6-5.8-5.8-8.4zM256 272c-63.1 0-114.3 35.8-114.3 80 0 41 44.1 74.8 100.8 79.5-1.7-10.2-2.6-20.7-2.6-31.5 0-9.5 .7-18.8 2-27.8-10.7-3.6-18-11.3-18-20.2 0-11.7 12.9-21.4 29.3-22.3 7.9-20.2 19.2-38.7 33.1-54.8-9.7-1.9-19.9-2.9-30.4-2.9zM432 544a144 144 0 1 0 0-288 144 144 0 1 0 0 288zm16-208l0 48 48 0c8.8 0 16 7.2 16 16s-7.2 16-16 16l-48 0 0 48c0 8.8-7.2 16-16 16s-16-7.2-16-16l0-48-48 0c-8.8 0-16-7.2-16-16s7.2-16 16-16l48 0 0-48c0-8.8 7.2-16 16-16s16 7.2 16 16z"/></svg>