<svg xmlns="http://www.w3.org/2000/svg" viewBox="0 0 576 512"><path fill="currentColor" d="M41-24.9c-9.4-9.4-24.6-9.4-33.9 0S-2.3-.3 7 9.1l528 528c9.4 9.4 24.6 9.4 33.9 0s9.4-24.6 0-33.9L409.8 344 488 344c13.3 0 24-10.7 24-24s-10.7-24-24-24l-126.2 0-80-80 206.2 0c13.3 0 24-10.7 24-24s-10.7-24-24-24l-254.2 0-80-80 334.2 0c13.3 0 24-10.7 24-24s-10.7-24-24-24L105.8 40 41-24.9zM402.2 472l-48-48-266.2 0c-13.3 0-24 10.7-24 24s10.7 24 24 24l314.2 0zm-176-176L88 296c-13.3 0-24 10.7-24 24s10.7 24 24 24l186.2 0-48-48zM98.2 168L88 168c-13.3 0-24 10.7-24 24s10.7 24 24 24l58.2 0-48-48z"/></svg>