<svg xmlns="http://www.w3.org/2000/svg" viewBox="0 0 512 512"><path fill="currentColor" d="M184 48l144 0c22.1 0 40 17.9 40 40l0 8-224 0 0-8c0-22.1 17.9-40 40-40zM96 88l0 8-32 0C28.7 96 0 124.7 0 160L0 416c0 35.3 28.7 64 64 64l384 0c35.3 0 64-28.7 64-64l0-256c0-35.3-28.7-64-64-64l-32 0 0-8c0-48.6-39.4-88-88-88L184 0C135.4 0 96 39.4 96 88zm352 56c8.8 0 16 7.2 16 16l0 256c0 8.8-7.2 16-16 16L64 432c-8.8 0-16-7.2-16-16l0-256c0-8.8 7.2-16 16-16l384 0zM144 336l0-32 224 0 0 32-224 0zM96 288l0 64c0 17.7 14.3 32 32 32l256 0c17.7 0 32-14.3 32-32l0-64c0-17.7-14.3-32-32-32l-256 0c-17.7 0-32 14.3-32 32zm40-88a24 24 0 1 0 -48 0 24 24 0 1 0 48 0zm72 24a24 24 0 1 0 0-48 24 24 0 1 0 0 48zm120-24a24 24 0 1 0 -48 0 24 24 0 1 0 48 0zm72 24a24 24 0 1 0 0-48 24 24 0 1 0 0 48z"/></svg>