<svg xmlns="http://www.w3.org/2000/svg" viewBox="0 0 576 512"><path fill="currentColor" d="M391.7 85.5c-3.8-9.2-8.7-17.8-14.7-25.5 4.5-3.7 7-7.8 7-12 0-17.7-43-32-96-32s-96 14.3-96 32c0 4.2 2.5 8.3 7 12-5.9 7.8-10.9 16.3-14.7 25.5-15.3-10.5-24.3-23.5-24.3-37.5 0-35.3 57.3-64 128-64S416 12.7 416 48c0 14-9 27-24.3 37.5zM288 64a64 64 0 1 1 0 128 64 64 0 1 1 0-128zM150.9 123.4l94.2 113.1c12.5-8 27.3-12.5 42.9-12.5s30.4 4.5 42.9 12.5l94.2-113.1c14.5-17.4 36-27.4 58.6-27.4 42.1 0 76.3 34.1 76.3 76.3l0 63.4c0 42.4-17.8 80.6-46.3 107.6-16.4 15.6-23 41.2-19.3 63.6l9.3 55.5c4.3 26-15.7 49.6-42 49.6L384 512c-1.7 0-3.3 0-5-.1-1 .1-1.9 .1-2.9 .1l-176.2 0c-1 0-1.9 0-2.9-.1-1.7 .1-3.3 .1-5 .1l-77.7 0c-26.3 0-46.4-23.6-42-49.6l9.3-55.5c3.7-22.3-2.8-48-19.3-63.6-28.5-27-46.3-65.3-46.3-107.6l0-63.4c0-42.1 34.1-76.3 76.3-76.3 22.6 0 44.1 10.1 58.6 27.4zm215 163l39.4 177.5 50 0-8.2-49.3c-5.8-35 3.4-77.7 33.6-106.3 19.3-18.3 31.3-44.2 31.3-72.8l0-63.4c0-15.6-12.7-28.3-28.3-28.3-8.4 0-16.3 3.7-21.7 10.2L362.1 274.1c1.6 4 2.9 8.1 3.8 12.4zM120.7 464l50 0 39.4-177.5c1-4.3 2.2-8.4 3.8-12.4L114 154.2c-5.4-6.4-13.3-10.2-21.7-10.2-15.6 0-28.3 12.7-28.3 28.3l0 63.4c0 28.7 12 54.5 31.3 72.8 30.1 28.6 39.4 71.3 33.6 106.3L120.7 464zm235.5 0L319 296.9c-3.2-14.5-16.1-24.9-31-24.9s-27.8 10.3-31 24.9L219.8 464 356.2 464z"/></svg>