<svg xmlns="http://www.w3.org/2000/svg" viewBox="0 0 576 512"><path fill="currentColor" d="M520 32c13.3 0 24 10.7 24 24s-10.7 24-24 24l-40.4 0c-.5 0-1 .2-1.5 .4l-1.1 1.1-8.7 15.1c60.4 6.2 107.6 57.3 107.6 119.4 0 39.8-32.2 72-72 72l-64 0c-8.4 0-16.5-1.2-24.2-3.2-.1 1.8-.2 3.6-.4 5.4l73.5 49 5.7 4.1c12.7 10.1 22.3 23.7 27.4 39.2l25.1 75.2 .9 3.9c1.1 9.2-4.4 18.3-13.6 21.3-9.2 3-19-.9-23.6-8.9l-1.7-3.7-25.1-75.2c-2.7-8.1-7.7-15.2-14.4-20.5l-3-2.2-65.4-43.6c-1.6 2.4-3.3 4.7-5.1 6.9l20.4 20.4c11.7 11.7 19.7 26.7 23 42.9l12.2 61 .4 4.1c0 9.3-6.6 17.6-16.1 19.5-9.5 1.9-18.8-3.3-22.4-11.8l-1.2-3.8-12.2-61c-1.7-8.5-5.9-16.4-12-22.5l-24.2-24.2c-11 4.9-23.1 7.8-35.9 7.8-3.9 0-7.6-.3-11.4-.8L257.5 473.7c-5.4 9.6-17.5 13.1-27.2 7.8-9.6-5.4-13.1-17.5-7.8-27.2l56.3-101.4c-9.1-6.2-17-14-23.2-23l-79.9 143.8-2.3 3.3c-6.1 7.1-16.5 9.1-24.9 4.4-8.4-4.7-12.2-14.6-9.4-23.5l1.6-3.7 50-90c-9.9 2.4-20.1 3.8-30.8 3.8l-3.8 0-58.7 105.7c-5.4 9.6-17.5 13.1-27.2 7.8-9.6-5.4-13.1-17.5-7.8-27.2l48-86.3-17.1 0C41.8 368 0 326.2 0 274.6L0 270c0-87.5 72.1-158 159.1-158 58.2 0 108.2 39 123.8 92.5 13.2-7.9 28.6-12.5 45.1-12.5 5.5 0 10.8 .6 16 1.5 0-.5 0-1 0-1.5 0-43.1 28.4-79.6 67.5-91.7l-.3-.2 24.2-42.4 3.8-5.7c9.6-12.5 24.5-20 40.5-20L520 32zM159.1 160C98.1 160 48 209.5 48 270l0 4.7c0 25 20.3 45.3 45.3 45.3l66.7 0c44.2 0 80-35.8 80-80 0-43.9-36.5-80-80.9-80zM328 240c-22.1 0-40 17.9-40 40l.2 4.1c2.1 20.2 19.1 35.9 39.8 35.9 22.1 0 40-17.9 40-40s-17.9-40-40-40zm112-96c-26.5 0-48 21.5-48 48s21.5 48 48 48l64 0c13.2 0 24-10.7 24-24 0-39.8-32.2-72-72-72l-16 0zm8 72a24 24 0 1 1 0-48 24 24 0 1 1 0 48z"/></svg>