<svg xmlns="http://www.w3.org/2000/svg" viewBox="0 0 512 512"><path fill="currentColor" d="M408.5 0c26.6 0 53.2 10.2 73.5 30.5 40.6 40.6 40.6 106.4 0 147.1l-7.4 7.4c-9.4 9.4-24.6 9.4-33.9 0s-9.4-24.6 0-33.9l7.4-7.4c21.9-21.9 21.9-57.3 0-79.2-10.9-10.9-25.2-16.4-39.6-16.4l-5.6 .2c-27.5 2.5-50.3 23.1-55 50.8l-67.7 393c-.1 .4-.2 .7-.3 1.1 0 .2-.1 .4-.1 .6-.3 1.3-.8 2.5-1.2 3.6-.3 .7-.6 1.3-1 1.9-.4 .8-.8 1.5-1.3 2.2-.4 .6-.8 1.1-1.3 1.6-.5 .6-1 1.3-1.6 1.9s-1.2 1.1-1.9 1.6c-.5 .4-1.1 .9-1.6 1.3-.7 .5-1.5 .8-2.2 1.3-.6 .3-1.2 .7-1.9 1-1.2 .5-2.4 .9-3.6 1.2-.2 0-.4 .1-.6 .1-.4 .1-.7 .2-1.1 .3-1 .2-1.9 .2-2.9 .3-.4 0-.8 0-1.2 0-.4 0-.8 0-1.2 0-1 0-1.9-.1-2.9-.3-.4-.1-.7-.2-1.1-.3-.2 0-.4-.1-.6-.1-1.3-.3-2.5-.8-3.6-1.2-.7-.3-1.3-.6-1.9-1-.8-.4-1.5-.8-2.2-1.3-.6-.4-1.1-.8-1.6-1.3-.6-.5-1.3-1-1.9-1.6s-1.1-1.2-1.6-1.9c-.4-.5-.9-1.1-1.3-1.6-.5-.7-.8-1.5-1.2-2.2-.3-.6-.7-1.2-1-1.9-.5-1.2-.9-2.4-1.3-3.6 0-.2-.1-.4-.1-.6-.1-.4-.2-.7-.2-1.1L165.1 99c-4.8-27.6-27.6-48.3-55-50.8l-5.6-.2c-14.4 0-28.7 5.5-39.6 16.4-21.9 21.9-21.9 57.3 0 79.2l7.4 7.4c9.4 9.4 9.4 24.6 0 33.9s-24.6 9.4-33.9 0L31 177.5C-9.7 136.9-9.7 71.1 31 30.5 51.3 10.2 77.9 0 104.5 0l9.9 .4c48.9 4.4 89.5 41.2 98 90.4l44.1 255.9 44.1-255.9c8.5-49.2 49-86 98-90.4l9.9-.4z"/></svg>