<svg xmlns="http://www.w3.org/2000/svg" viewBox="0 0 384 512"><path fill="currentColor" d="M175 7c9.4-9.4 24.6-9.4 33.9 0L345 143c9.4 9.4 9.4 24.6 0 33.9s-24.6 9.4-33.9 0l-95-95 0 278.1c0 13.3-10.7 24-24 24s-24-10.7-24-24l0-278.1-95 95c-9.4 9.4-24.6 9.4-33.9 0s-9.4-24.6 0-33.9L175 7zM0 480c0-17.7 14.3-32 32-32s32 14.3 32 32-14.3 32-32 32-32-14.3-32-32zm138.7-32c17.7 0 32 14.3 32 32s-14.3 32-32 32-32-14.3-32-32 14.3-32 32-32zm74.7 32c0-17.7 14.3-32 32-32s32 14.3 32 32-14.3 32-32 32-32-14.3-32-32zM352 448c17.7 0 32 14.3 32 32s-14.3 32-32 32-32-14.3-32-32 14.3-32 32-32z"/></svg>