<svg xmlns="http://www.w3.org/2000/svg" viewBox="0 0 576 512"><path fill="currentColor" d="M48 120l0 272c0 13.3-10.7 24-24 24S0 405.3 0 392L0 120c0-13.3 10.7-24 24-24s24 10.7 24 24zm528 0l0 272c0 13.3-10.7 24-24 24s-24-10.7-24-24l0-272c0-13.3 10.7-24 24-24s24 10.7 24 24zM473 239c9.4 9.4 9.4 24.6 0 33.9l-72 72c-9.4 9.4-24.6 9.4-33.9 0s-9.4-24.6 0-33.9l31-31-220.1 0 31 31c9.4 9.4 9.4 24.6 0 33.9s-24.6 9.4-33.9 0l-72-72c-9.4-9.4-9.4-24.6 0-33.9l72-72c9.4-9.4 24.6-9.4 33.9 0s9.4 24.6 0 33.9l-31 31 220.1 0-31-31c-9.4-9.4-9.4-24.6 0-33.9s24.6-9.4 33.9 0l72 72z"/></svg>