<svg xmlns="http://www.w3.org/2000/svg" viewBox="0 0 448 512"><path fill="currentColor" d="M248-8c0-13.3-10.7-24-24-24S200-21.3 200-8l0 278.1-31-31c-9.4-9.4-24.6-9.4-33.9 0s-9.4 24.6 0 33.9l72 72c9.4 9.4 24.6 9.4 33.9 0l72-72c9.4-9.4 9.4-24.6 0-33.9s-24.6-9.4-33.9 0l-31 31 0-278.1zM48 160c0-8.8 7.2-16 16-16l40 0c13.3 0 24-10.7 24-24s-10.7-24-24-24L64 96C28.7 96 0 124.7 0 160L0 448c0 35.3 28.7 64 64 64l320 0c35.3 0 64-28.7 64-64l0-288c0-35.3-28.7-64-64-64l-40 0c-13.3 0-24 10.7-24 24s10.7 24 24 24l40 0c8.8 0 16 7.2 16 16l0 288c0 8.8-7.2 16-16 16L64 464c-8.8 0-16-7.2-16-16l0-288z"/></svg>