<svg xmlns="http://www.w3.org/2000/svg" viewBox="0 0 384 512"><path fill="currentColor" d="M209 169l72-72c9.4-9.4 9.4-24.6 0-33.9s-24.6-9.4-33.9 0L216 94.1 216-8c0-13.3-10.7-24-24-24S168-21.3 168-8l0 102.1-31-31c-9.4-9.4-24.6-9.4-33.9 0S93.7 87.6 103 97l72 72c9.4 9.4 24.6 9.4 33.9 0zM209 343c-9.4-9.4-24.6-9.4-33.9 0l-72 72c-9.4 9.4-9.4 24.6 0 33.9s24.6 9.4 33.9 0l31-31 0 102.1c0 13.3 10.7 24 24 24s24-10.7 24-24l0-102.1 31 31c9.4 9.4 24.6 9.4 33.9 0s9.4-24.6 0-33.9l-72-72zM24 232c-13.3 0-24 10.7-24 24s10.7 24 24 24l336 0c13.3 0 24-10.7 24-24s-10.7-24-24-24L24 232z"/></svg>