<svg xmlns="http://www.w3.org/2000/svg" viewBox="0 0 512 512"><path fill="currentColor" d="M109 108.9c81.2-81.2 212.9-81.2 294.2 0l27.1 27.1-78.2 0c-13.3 0-24 10.7-24 24s10.7 24 24 24l136.1 0c13.3 0 24-10.7 24-24l0-136c0-13.3-10.7-24-24-24s-24 10.7-24 24l0 78.1-27.1-27.1c-100-100-262.1-100-362 0-43.2 43.2-67.8 98.1-73.6 154.5-1.4 13.2 8.2 25 21.4 26.3s25-8.2 26.3-21.4C54 188.6 73.9 144.1 109 108.9zM510.7 282.5c1.4-13.2-8.2-25-21.4-26.3s-25 8.2-26.3 21.4c-4.7 45.8-24.7 90.4-59.8 125.5-81.2 81.2-212.9 81.2-294.2 0l-27.1-27.1 78.2 0c13.3 0 24-10.7 24-24s-10.7-24-24-24L24 328c-13.3 0-24 10.7-24 24L0 488c0 13.3 10.7 24 24 24s24-10.7 24-24l0-78.1 27.1 27.1c100 100 262.1 100 362 0 43.2-43.2 67.8-98.1 73.6-154.5z"/></svg>