<svg xmlns="http://www.w3.org/2000/svg" viewBox="0 0 576 512"><path fill="currentColor" d="M249 369L145 473c-9.4 9.4-24.6 9.4-33.9 0L7 369c-9.4-9.4-9.4-24.6 0-33.9s24.6-9.4 33.9 0l63 63 0-342.1c0-13.3 10.7-24 24-24s24 10.7 24 24l0 342.1 63-63c9.4-9.4 24.6-9.4 33.9 0s9.4 24.6 0 33.9zM312 48l48 0c13.3 0 24 10.7 24 24s-10.7 24-24 24l-48 0c-13.3 0-24-10.7-24-24s10.7-24 24-24zm0 128l112 0c13.3 0 24 10.7 24 24s-10.7 24-24 24l-112 0c-13.3 0-24-10.7-24-24s10.7-24 24-24zm0 128l176 0c13.3 0 24 10.7 24 24s-10.7 24-24 24l-176 0c-13.3 0-24-10.7-24-24s10.7-24 24-24zm0 128l240 0c13.3 0 24 10.7 24 24s-10.7 24-24 24l-240 0c-13.3 0-24-10.7-24-24s10.7-24 24-24z"/></svg>