<svg xmlns="http://www.w3.org/2000/svg" viewBox="0 0 448 512"><path fill="currentColor" d="M296 32c-13.3 0-24 10.7-24 24s10.7 24 24 24L366.1 80 7 439c-9.4 9.4-9.4 24.6 0 33.9s24.6 9.4 33.9 0l359-359 0 70.1c0 13.3 10.7 24 24 24s24-10.7 24-24l0-128c0-13.3-10.7-24-24-24L296 32zM41 39C31.6 29.7 16.4 29.7 7 39S-2.3 63.6 7 73L156.1 222.1 190.1 188.1 41 39zM366.1 432L296 432c-13.3 0-24 10.7-24 24s10.7 24 24 24l128 0c13.3 0 24-10.7 24-24l0-128c0-13.3-10.7-24-24-24s-24 10.7-24 24l0 70.1-108.1-108.1-33.9 33.9 108.1 108.1z"/></svg>