<svg xmlns="http://www.w3.org/2000/svg" viewBox="0 0 512 512"><path fill="currentColor" d="M24 512c-13.3 0-24-10.7-24-24s10.7-24 24-24l464 0c13.3 0 24 10.7 24 24s-10.7 24-24 24L24 512zM145 377c-9.4 9.4-24.6 9.4-33.9 0L39 305c-9.4-9.4-9.4-24.6 0-33.9s24.6-9.4 33.9 0l31 31 0-278.1c0-13.3 10.7-24 24-24s24 10.7 24 24l0 278.1 31-31c9.4-9.4 24.6-9.4 33.9 0s9.4 24.6 0 33.9l-72 72zm256 0c-9.4 9.4-24.6 9.4-33.9 0l-72-72c-9.4-9.4-9.4-24.6 0-33.9s24.6-9.4 33.9 0l31 31 0-278.1c0-13.3 10.7-24 24-24s24 10.7 24 24l0 278.1 31-31c9.4-9.4 24.6-9.4 33.9 0s9.4 24.6 0 33.9l-72 72z"/></svg>