<svg xmlns="http://www.w3.org/2000/svg" viewBox="0 0 384 512"><path fill="currentColor" d="M175-25c9.4-9.4 24.6-9.4 33.9 0l72 72c9.4 9.4 9.4 24.6 0 33.9s-24.6 9.4-33.9 0l-31-31 0 102.1c0 13.3-10.7 24-24 24s-24-10.7-24-24l0-102.1-31 31c-9.4 9.4-24.6 9.4-33.9 0S93.7 56.4 103 47l72-72zm17 361c13.3 0 24 10.7 24 24l0 102.1 31-31c9.4-9.4 24.6-9.4 33.9 0s9.4 24.6 0 33.9l-72 72c-9.4 9.4-24.6 9.4-33.9 0l-72-72c-9.4-9.4-9.4-24.6 0-33.9s24.6-9.4 33.9 0l31 31 0-102.1c0-13.3 10.7-24 24-24zM64 256a32 32 0 1 1 -64 0 32 32 0 1 1 64 0zm74.7 32a32 32 0 1 1 0-64 32 32 0 1 1 0 64zm138.7-32a32 32 0 1 1 -64 0 32 32 0 1 1 64 0zM352 288a32 32 0 1 1 0-64 32 32 0 1 1 0 64z"/></svg>