<svg xmlns="http://www.w3.org/2000/svg" viewBox="0 0 640 512"><path fill="currentColor" d="M152 32c-13.3 0-24 10.7-24 24l0 38.1-63-63c-9.4-9.4-24.6-9.4-33.9 0S21.7 55.6 31 65l63 63-38.1 0c-13.3 0-24 10.7-24 24s10.7 24 24 24l96 0c13.3 0 24-10.7 24-24l0-96c0-13.3-10.7-24-24-24zm78.8 183.7C253 190 283 168 320 168s67 22 89.2 47.7c13.3 15.4 22.6 30.6 27.9 40.3-5.3 9.7-14.6 24.9-27.9 40.3-22.2 25.7-52.2 47.7-89.2 47.7s-67-22-89.2-47.7c-13.3-15.4-22.6-30.6-27.9-40.3 5.3-9.7 14.6-24.9 27.9-40.3zM320 120c-57.3 0-99.4 34-125.6 64.3-20 23.1-32.4 45.8-37.6 56.1-2.5 5-4.9 9.7-4.9 15.6s2.3 10.6 4.9 15.6c5.2 10.3 17.6 33 37.6 56.1 26.2 30.3 68.2 64.3 125.6 64.3s99.4-34 125.6-64.3c20-23.1 32.4-45.8 37.6-56.1 2.5-5 4.9-9.7 4.9-15.6s-2.3-10.6-4.9-15.6c-5.2-10.3-17.6-33-37.6-56.1-26.2-30.3-68.2-64.3-125.6-64.3zm0 184a48 48 0 1 0 0-96 48 48 0 1 0 0 96zM176 456l0-96c0-13.3-10.7-24-24-24l-96 0c-13.3 0-24 10.7-24 24s10.7 24 24 24l38.1 0-63 63c-9.4 9.4-9.4 24.6 0 33.9s24.6 9.4 33.9 0l63-63 0 38.1c0 13.3 10.7 24 24 24s24-10.7 24-24zm288 0c0 13.3 10.7 24 24 24s24-10.7 24-24l0-38.1 63 63c9.4 9.4 24.6 9.4 33.9 0s9.4-24.6 0-33.9l-63-63 38.1 0c13.3 0 24-10.7 24-24s-10.7-24-24-24l-96 0c-13.3 0-24 10.7-24 24l0 96zM488 32c-13.3 0-24 10.7-24 24l0 96c0 13.3 10.7 24 24 24l96 0c13.3 0 24-10.7 24-24s-10.7-24-24-24l-38.1 0 63-63c9.4-9.4 9.4-24.6 0-33.9s-24.6-9.4-33.9 0l-63 63 0-38.1c0-13.3-10.7-24-24-24z"/></svg>