<svg xmlns="http://www.w3.org/2000/svg" viewBox="0 0 512 512"><path fill="currentColor" d="M88.5 32c-13.3 0-24 10.7-24 24s10.7 24 24 24l54.1 0-135 135c-9.4 9.4-9.4 24.6 0 33.9s24.6 9.4 33.9 0l135-135 0 54.1c0 13.3 10.7 24 24 24s24-10.7 24-24l0-112c0-13.3-10.7-24-24-24l-112 0zM404.3 70.1a38.1 38.1 0 1 0 76.2 0 38.1 38.1 0 1 0 -76.2 0zM280.2 194.2a38.1 38.1 0 1 0 76.2 0 38.1 38.1 0 1 0 -76.2 0zm162.2-38.1a38.1 38.1 0 1 0 0 76.2 38.1 38.1 0 1 0 0-76.2zM156.7 317.8a38.1 38.1 0 1 0 76.2 0 38.1 38.1 0 1 0 -76.2 0zm161.6-38.1a38.1 38.1 0 1 0 0 76.2 38.1 38.1 0 1 0 0-76.2zm86.1 38.1a38.1 38.1 0 1 0 76.2 0 38.1 38.1 0 1 0 -76.2 0zM70.6 403.8a38.1 38.1 0 1 0 0 76.2 38.1 38.1 0 1 0 0-76.2zm86.1 38.1a38.1 38.1 0 1 0 76.2 0 38.1 38.1 0 1 0 -76.2 0zm161.6-38.1a38.1 38.1 0 1 0 0 76.2 38.1 38.1 0 1 0 0-76.2zm86.1 38.1a38.1 38.1 0 1 0 76.2 0 38.1 38.1 0 1 0 -76.2 0z"/></svg>