<svg xmlns="http://www.w3.org/2000/svg" viewBox="0 0 512 512"><path fill="currentColor" d="M288 24c0 13.3 10.7 24 24 24l118.1 0-231 231c-9.4 9.4-9.4 24.6 0 33.9s24.6 9.4 33.9 0l231-231 0 118.1c0 13.3 10.7 24 24 24s24-10.7 24-24l0-176c0-13.3-10.7-24-24-24L312 0c-13.3 0-24 10.7-24 24zM80 96C35.8 96 0 131.8 0 176L0 432c0 44.2 35.8 80 80 80l256 0c44.2 0 80-35.8 80-80l0-88c0-13.3-10.7-24-24-24s-24 10.7-24 24l0 88c0 17.7-14.3 32-32 32L80 464c-17.7 0-32-14.3-32-32l0-256c0-17.7 14.3-32 32-32l88 0c13.3 0 24-10.7 24-24s-10.7-24-24-24L80 96z"/></svg>