<svg xmlns="http://www.w3.org/2000/svg" viewBox="0 0 512 512"><path fill="currentColor" d="M233 385l-88 88c-9.4 9.4-24.6 9.4-33.9 0L23 385c-9.4-9.4-9.4-24.6 0-33.9s24.6-9.4 33.9 0l47 47 0-342.1c0-13.3 10.7-24 24-24s24 10.7 24 24l0 342.1 47-47c9.4-9.4 24.6-9.4 33.9 0s9.4 24.6 0 33.9zm263 70c0 13.8-11.2 25.1-25.1 25.1l-173.9 0c-13.8 0-25.1-11.2-25.1-25.1 0-4.5 1.2-9 3.6-12.9l84.2-140.3c5.1-8.5 14.3-13.7 24.2-13.7s19.1 5.2 24.2 13.7L492.4 442c2.3 3.9 3.6 8.4 3.6 12.9zM336 80l0 96 96 0 0-96-96 0zm94.4 352l-46.4-77.4-46.4 77.4 92.8 0zM288 80c0-26.5 21.5-48 48-48l96 0c26.5 0 48 21.5 48 48l0 96c0 26.5-21.5 48-48 48l-96 0c-26.5 0-48-21.5-48-48l0-96z"/></svg>