<svg xmlns="http://www.w3.org/2000/svg" viewBox="0 0 448 512"><path fill="currentColor" d="M136.5 40.4c15.4 .2 30.2-.9 45.6-5S210.8 24.8 224 17c13.2 7.9 26.6 14.4 41.9 18.5s30.2 5.2 45.6 5c7.5 13.4 15.9 25.7 27.1 37s23.5 19.6 37 27.1c-.2 15.4 .9 30.2 5 45.6S391.2 178.8 399 192c-7.9 13.2-14.4 26.6-18.5 41.9s-5.2 30.2-5 45.6c-13.4 7.5-25.7 15.9-37 27.1s-19.6 23.5-27.1 37c-15.4-.2-30.2 .9-45.6 5S237.2 359.2 224 367c-13.2-7.9-26.6-14.4-41.9-18.5s-30.2-5.2-45.6-5c-7.5-13.4-15.9-25.7-27.1-37s-23.5-19.6-37-27.1c.2-15.4-.9-30.2-5-45.6S56.8 205.2 49 192c7.9-13.2 14.4-26.6 18.5-41.9s5.2-30.2 5-45.6c13.4-7.5 25.7-15.9 37-27.1s19.6-23.5 27.1-37zM245.9-25.9c-13.4-8.2-30.3-8.2-43.7 0-24.4 14.9-39.5 18.9-68.1 18.3-15.7-.4-30.3 8.1-37.9 21.9-13.7 25.1-24.8 36.2-49.9 49.9-13.8 7.5-22.2 22.2-21.9 37.9 .7 28.6-3.4 43.7-18.3 68.1-8.2 13.4-8.2 30.3 0 43.7 14.9 24.4 18.9 39.5 18.3 68.1-.4 15.7 8.1 30.3 21.9 37.9 25 13.7 36.1 24.7 49.7 49.6L96 520c0 8.2 4.2 15.8 11.1 20.2s15.6 5 23 1.6l93.9-43.4 93.9 43.4c7.4 3.4 16.1 2.8 23-1.6S352 528.2 352 520l0-150.5c13.6-24.9 24.7-36 49.7-49.6 13.8-7.5 22.2-22.2 21.9-37.9-.7-28.6 3.4-43.7 18.3-68.1 8.2-13.4 8.2-30.3 0-43.7-14.9-24.4-18.9-39.5-18.3-68.1 .4-15.7-8.1-30.3-21.9-37.9-25.1-13.7-36.2-24.8-49.9-49.9-7.5-13.8-22.2-22.2-37.9-21.9-28.6 .7-43.7-3.4-68.1-18.3zM144 482.5l0-90.9c22.5 .5 36.7 5.2 58.1 18.3 13.4 8.2 30.3 8.2 43.7 0 21.4-13 35.7-17.8 58.1-18.3l0 90.9-69.9-32.3c-6.4-2.9-13.7-2.9-20.1 0L144 482.5zM296 192a72 72 0 1 1 -144 0 72 72 0 1 1 144 0zM224 72a120 120 0 1 0 0 240 120 120 0 1 0 0-240z"/></svg>