<svg xmlns="http://www.w3.org/2000/svg" viewBox="0 0 448 512"><path fill="currentColor" d="M109.4 77.4c-11.2 11.2-23.5 19.6-37 27.1 .2 15.4-.9 30.2-5 45.6S56.8 178.8 49 192c7.9 13.2 14.4 26.6 18.5 41.9s5.2 30.2 5 45.6c13.4 7.5 25.7 15.9 37 27.1s19.6 23.5 27.1 37c15.4-.2 30.2 .9 45.6 5S210.8 359.2 224 367c13.2-7.9 26.6-14.4 41.9-18.5s30.2-5.2 45.6-5c7.5-13.4 15.9-25.7 27.1-37s23.5-19.6 37-27.1c-.2-15.4 .9-30.2 5-45.6S391.2 205.2 399 192c-7.9-13.2-14.4-26.6-18.5-41.9s-5.2-30.2-5-45.6c-13.4-7.5-25.7-15.9-37-27.1s-19.6-23.5-27.1-37c-15.4 .2-30.2-.9-45.6-5S237.2 24.8 224 17c-13.2 7.9-26.6 14.4-41.9 18.5s-30.2 5.2-45.6 5c-7.5 13.4-15.9 25.7-27.1 37zM202.1-25.9c13.4-8.2 30.3-8.2 43.7 0 24.4 14.9 39.5 18.9 68.1 18.3 15.7-.4 30.3 8.1 37.9 21.9 13.7 25.1 24.8 36.2 49.9 49.9 13.8 7.5 22.2 22.2 21.9 37.9-.7 28.6 3.4 43.7 18.3 68.1 8.2 13.4 8.2 30.3 0 43.7-14.9 24.4-18.9 39.5-18.3 68.1 .4 15.7-8.1 30.3-21.9 37.9-15.1 8.2-25.1 15.5-33.6 25.5l61.1 115.4c6.2 11.7 1.8 26.1-9.8 32.4l-104 56c-11.6 6.2-26 2-32.4-9.5l-59-106.2-59 106.2c-6.4 11.5-20.8 15.7-32.4 9.5l-104-56c-11.6-6.3-16-20.7-9.8-32.4L79.9 345.3c-8.6-9.9-18.6-17.2-33.6-25.5-13.8-7.5-22.2-22.2-21.9-37.9 .7-28.6-3.4-43.7-18.3-68.1-8.2-13.4-8.2-30.3 0-43.7 14.9-24.4 18.9-39.5 18.3-68.1-.4-15.7 8.1-30.3 21.9-37.9 25.1-13.7 36.2-24.8 49.9-49.9 7.5-13.8 22.2-22.2 37.9-21.9 28.6 .7 43.7-3.4 68.1-18.3zm59 427.3l52.3 94.2 62.2-33.5-40.2-75.9c-6.4 3.6-13.8 5.5-21.5 5.3-22.2-.5-36.3 1.8-52.9 9.8zM134 391.6c-7.7 .2-15-1.7-21.5-5.3l-40.2 75.9 62.2 33.5 52.3-94.2c-16.6-8-30.7-10.3-52.9-9.8zM152 192a72 72 0 1 0 144 0 72 72 0 1 0 -144 0zm72 120a120 120 0 1 1 0-240 120 120 0 1 1 0 240z"/></svg>