<svg xmlns="http://www.w3.org/2000/svg" viewBox="0 0 576 512"><path fill="currentColor" d="M408 16c0-13.3-10.7-24-24-24S360 2.7 360 16l0 23.4c-13.9 5.3-26.9 13.5-38.2 24.5L305 47c-9.4-9.4-24.6-9.4-33.9 0s-9.4 24.6 0 33.9l16.8 16.8-30.1 30.1-16.8-16.8c-9.4-9.4-24.6-9.4-33.9 0s-9.4 24.6 0 33.9l16.8 16.8c-10 10-20 20-30.1 30.1L177 175c-9.4-9.4-24.6-9.4-33.9 0s-9.4 24.6 0 33.9l16.8 16.8-30.1 30.1-16.8-16.8c-9.4-9.4-24.6-9.4-33.9 0s-9.4 24.6 0 33.9l16.8 16.8c-11 11.3-19.2 24.3-24.5 38.2L48 328c-13.3 0-24 10.7-24 24s10.7 24 24 24l16.3 0c1.3 18.3 7.1 36.4 17.4 52.4L71 439c-9.4 9.4-9.4 24.6 0 33.9s24.6 9.4 33.9 0l10.6-10.6c15.6 10 33.2 15.8 51 17.3l0 13.6c0 13.3 10.7 24 24 24s24-10.7 24-24l0-20.1c14.4-5.3 27.9-13.6 39.6-25L271 465c9.4 9.4 24.6 9.4 33.9 0s9.4-24.6 0-33.9l-16.8-16.8 30.1-30.1 16.8 16.8c9.4 9.4 24.6 9.4 33.9 0s9.4-24.6 0-33.9l-16.8-16.8c10-10 20-20 30.1-30.1L399 337c9.4 9.4 24.6 9.4 33.9 0s9.4-24.6 0-33.9l-16.8-16.8 30.1-30.1 16.8 16.8c9.4 9.4 24.6 9.4 33.9 0s9.4-24.6 0-33.9l-16.8-16.8c11-11.3 19.2-24.3 24.5-38.2l23.4 0c13.3 0 24-10.7 24-24s-10.7-24-24-24l-16.3 0c-1.3-18.3-7.1-36.4-17.4-52.4L505 73c9.4-9.4 9.4-24.6 0-33.9s-24.6-9.4-33.9 0L460.4 49.7c-16-10.3-34.1-16.1-52.4-17.4L408 16zm37.3 173.3c-74.7 74.7-149.3 149.3-224 224-25 25-65.5 25-90.5 0s-25-65.5 0-90.5c74.7-74.7 149.3-149.3 224-224 25-25 65.5-25 90.5 0s25 65.5 0 90.5zM224 352a32 32 0 1 0 -64 0 32 32 0 1 0 64 0zm48-48a32 32 0 1 0 0-64 32 32 0 1 0 0 64z"/></svg>