<svg xmlns="http://www.w3.org/2000/svg" viewBox="0 0 640 512"><path fill="currentColor" d="M256-32c13.3 0 24 10.7 24 24l0 11c8.6 2.2 16.9 5.6 24.8 10.3L311 7c9.4-9.4 24.6-9.4 33.9 0s9.4 24.6 0 33.9l-6.3 6.3c4.6 7.8 8 16.2 10.3 24.8l11 0c13.3 0 24 10.7 24 24s-10.7 24-24 24l-11 0c-2.2 8.6-5.6 16.9-10.3 24.8L345 151c9.4 9.4 9.4 24.6 0 33.9s-24.6 9.4-33.9 0l-4.1-4.1-30.1 30.1 4.1 4.1c9.4 9.4 9.4 24.6 0 33.9s-24.6 9.4-33.9 0l-4.1-4.1-30.1 30.1 4.1 4.1c9.4 9.4 9.4 24.6 0 33.9s-24.6 9.4-33.9 0l-6.3-6.3c-7.8 4.6-16.2 8-24.8 10.3l0 11c0 13.3-10.7 24-24 24s-24-10.7-24-24l0-11c-8.6-2.2-16.9-5.6-24.8-10.3L73 313c-9.4 9.4-24.6 9.4-33.9 0s-9.4-24.6 0-33.9l6.3-6.3c-4.6-7.8-8-16.2-10.3-24.8l-11 0c-13.3 0-24-10.7-24-24s10.7-24 24-24l11 0c2.2-8.6 5.6-16.9 10.3-24.8L39 169c-9.4-9.4-9.4-24.6 0-33.9s24.6-9.4 33.9 0l4.1 4.1 30.1-30.1-4.1-4.1c-9.4-9.4-9.4-24.6 0-33.9s24.6-9.4 33.9 0l4.1 4.1 30.1-30.1-4.1-4.1c-9.4-9.4-9.4-24.6 0-33.9S191.6-2.3 201 7l6.3 6.3c7.8-4.6 16.2-8 24.8-10.3l0-11c0-13.3 10.7-24 24-24zm33.9 161.9c18.7-18.7 18.7-49.1 0-67.9s-49.1-18.7-67.9 0l-128 128c-18.7 18.7-18.7 49.1 0 67.9s49.1 18.7 67.9 0l128-128zM136 192a24 24 0 1 1 0 48 24 24 0 1 1 0-48zm40-40a24 24 0 1 1 48 0 24 24 0 1 1 -48 0zm360 32l0 11c8.6 2.2 16.9 5.6 24.8 10.3L567 199c9.4-9.4 24.6-9.4 33.9 0s9.4 24.6 0 33.9l-6.3 6.3c4.6 7.8 8 16.2 10.3 24.8l11 0c13.3 0 24 10.7 24 24s-10.7 24-24 24l-11 0c-2.2 8.6-5.6 16.9-10.3 24.8L601 343c9.4 9.4 9.4 24.6 0 33.9s-24.6 9.4-33.9 0l-4.1-4.1-30.1 30.1 4.1 4.1c9.4 9.4 9.4 24.6 0 33.9s-24.6 9.4-33.9 0l-4.1-4.1-30.1 30.1 4.1 4.1c9.4 9.4 9.4 24.6 0 33.9s-24.6 9.4-33.9 0l-6.3-6.3c-7.8 4.6-16.2 8-24.8 10.3l0 11c0 13.3-10.7 24-24 24s-24-10.7-24-24l0-11c-8.6-2.2-16.9-5.6-24.8-10.3L329 505c-9.4 9.4-24.6 9.4-33.9 0s-9.4-24.6 0-33.9l6.3-6.3c-4.6-7.8-8-16.2-10.3-24.8l-11 0c-13.3 0-24-10.7-24-24s10.7-24 24-24l11 0c2.2-8.6 5.6-16.9 10.3-24.8L295 361c-9.4-9.4-9.4-24.6 0-33.9s24.6-9.4 33.9 0l4.1 4.1 30.1-30.1-4.1-4.1c-9.4-9.4-9.4-24.6 0-33.9s24.6-9.4 33.9 0l4.1 4.1 30.1-30.1-4.1-4.1c-9.4-9.4-9.4-24.6 0-33.9s24.6-9.4 33.9 0l6.3 6.3c7.8-4.6 16.2-8 24.8-10.3l0-11c0-13.3 10.7-24 24-24s24 10.7 24 24zm9.9 70.1c-18.7-18.7-49.1-18.7-67.9 0l-128 128c-18.7 18.7-18.7 49.1 0 67.9s49.1 18.7 67.9 0l128-128c18.7-18.7 18.7-49.1 0-67.9zM368 408a24 24 0 1 1 48 0 24 24 0 1 1 -48 0z"/></svg>