<svg xmlns="http://www.w3.org/2000/svg" viewBox="0 0 640 512"><path fill="currentColor" d="M640 208c0 112.8-89.7 204.6-201.7 207.9 7.5-15.3 13.4-31.5 17.7-48.4L471 357.3c5.1-3.5 11-5.4 17.2-5.6l25.3-.7c13.2-.4 24.8-8.8 29.3-21.3l8.5-23.9c2.1-5.8 5.8-10.9 10.6-14.6L582 275.8c10.5-8.1 14.9-21.7 11.2-34.4L586 217c-1.7-5.9-1.7-12.2 0-18.1l7.2-24.3c3.7-12.7-.7-26.3-11.2-34.4l-20.1-15.5c-4.9-3.8-8.6-8.8-10.6-14.6l-8.5-23.9c-4.4-12.5-16.1-20.9-29.3-21.3l-25.3-.7c-6.2-.2-12.1-2.1-17.2-5.6L450.1 44.4c-10.9-7.5-25.3-7.5-36.2 0L393 58.7c-5.1 3.5-11 5.4-17.2 5.6L350.5 65c-9.6 .3-18.3 4.8-24.1 12-12.9-6.8-26.5-12.4-40.6-16.9 37.6-37.1 89.2-60 146.2-60 114.9 0 208 93.1 208 208zM410.7 147.6c6.7-2.3 13.8-3.6 21.3-3.6 35.3 0 64 28.7 64 64 0 24.9-14.2 46.5-34.9 57-6.7-43.8-24.4-83.9-50.3-117.4zM48 304a160 160 0 1 0 320 0 160 160 0 1 0 -320 0zM0 304a208 208 0 1 1 416 0 208 208 0 1 1 -416 0zm144-96a16 16 0 1 1 32 0 16 16 0 1 1 -32 0zm160 16a16 16 0 1 1 0 32 16 16 0 1 1 0-32zM128 368a16 16 0 1 1 0 32 16 16 0 1 1 0-32zm112 32a16 16 0 1 1 0 32 16 16 0 1 1 0-32zm48-16a16 16 0 1 1 32 0 16 16 0 1 1 -32 0zM96 256a16 16 0 1 1 0 32 16 16 0 1 1 0-32zm96 48a16 16 0 1 0 32 0 16 16 0 1 0 -32 0zm16 64a64 64 0 1 1 0-128 64 64 0 1 1 0 128z"/></svg>