<svg xmlns="http://www.w3.org/2000/svg" viewBox="0 0 576 512"><path fill="currentColor" d="M176 64l0 32 96 0 0-32c0-26.5-21.5-48-48-48s-48 21.5-48 48zM128 96l0-32c0-53 43-96 96-96s96 43 96 96l0 32 64 0c35.3 0 64 28.7 64 64l0 16-48 0 0-16c0-8.8-7.2-16-16-16L64 144c-8.8 0-16 7.2-16 16l0 224c0 8.8 7.2 16 16 16l80 0 0 48-80 0c-35.3 0-64-28.7-64-64L0 160c0-35.3 28.7-64 64-64l64 0zM256 224l256 0c35.3 0 64 28.7 64 64l0 160c0 35.3-28.7 64-64 64l-256 0c-35.3 0-64-28.7-64-64l0-160c0-35.3 28.7-64 64-64zm80 88c0-13.3-10.7-24-24-24s-24 10.7-24 24l0 40c0 53 43 96 96 96s96-43 96-96l0-40c0-13.3-10.7-24-24-24s-24 10.7-24 24l0 40c0 26.5-21.5 48-48 48s-48-21.5-48-48l0-40z"/></svg>