<svg xmlns="http://www.w3.org/2000/svg" viewBox="0 0 320 512"><path fill="currentColor" d="M136 0c-13.3 0-24 10.7-24 24l0 40-74.4 0C16.8 64 0 80.8 0 101.6L0 406.3c0 23 18.7 41.7 41.7 41.7l70.3 0 0 40c0 13.3 10.7 24 24 24s24-10.7 24-24l0-40 52 0c59.6 0 108-48.4 108-108 0-42.1-24.1-78.5-59.2-96.4 16.9-19.1 27.2-44.2 27.2-71.6 0-59.6-48.4-108-108-108l-20 0 0-40c0-13.3-10.7-24-24-24zM112 112l0 120-64 0 0-120 64 0zm48 120l0-120 20 0c33.1 0 60 26.9 60 60s-26.9 60-60 60l-20 0zm-48 48l0 120-64 0 0-120 64 0zm48 120l0-120 52 0c33.1 0 60 26.9 60 60s-26.9 60-60 60l-52 0z"/></svg>