<svg xmlns="http://www.w3.org/2000/svg" viewBox="0 0 384 512"><path fill="currentColor" d="M320 48c8.8 0 16 7.2 16 16l0 384c0 8.8-7.2 16-16 16L64 464c-8.8 0-16-7.2-16-16L48 64c0-8.8 7.2-16 16-16l256 0zM64 0C28.7 0 0 28.7 0 64L0 448c0 35.3 28.7 64 64 64l256 0c35.3 0 64-28.7 64-64l0-384c0-35.3-28.7-64-64-64L64 0zM80 128a32 32 0 1 0 64 0 32 32 0 1 0 -64 0zm32 224a32 32 0 1 0 0 64 32 32 0 1 0 0-64zm64-224c0 13.3 10.7 24 24 24l80 0c13.3 0 24-10.7 24-24s-10.7-24-24-24l-80 0c-13.3 0-24 10.7-24 24zm32 128c0 13.3 10.7 24 24 24l48 0c13.3 0 24-10.7 24-24s-10.7-24-24-24l-48 0c-13.3 0-24 10.7-24 24zM176 384c0 13.3 10.7 24 24 24l80 0c13.3 0 24-10.7 24-24s-10.7-24-24-24l-80 0c-13.3 0-24 10.7-24 24zm-.6-164.5c6.4-8.5 4.6-20.5-3.8-26.9s-20.5-4.6-26.9 3.8L112 240 103.4 228.5C97 220 85 218.3 76.5 224.6S66.3 243 72.6 251.5l24 32c3.6 4.8 9.3 7.7 15.4 7.7s11.7-2.8 15.4-7.7l48-64z"/></svg>