<svg xmlns="http://www.w3.org/2000/svg" viewBox="0 0 512 512"><path fill="currentColor" d="M208 96l240 0c35.3 0 64 28.7 64 64l0 192c0 35.3-28.7 64-64 64l-142.1 0-1 1-1-1-240 0c-35.3 0-64-28.7-64-64L0 160c0-35.3 28.7-64 64-64l142.1 0 1-1 1 1zm-49.9 48L64 144c-8.8 0-16 7.2-16 16L48 254.1 158.1 144zM48 321.9L48 352c0 8.8 7.2 16 16 16l46.1 0 224-224-108.1 0-177.9 177.9zM401.9 144l-224 224 108.1 0 177.9-177.9 0-30.1c0-8.8-7.2-16-16-16l-46.1 0zM464 257.9L353.9 368 448 368c8.8 0 16-7.2 16-16l0-94.1z"/></svg>