<svg xmlns="http://www.w3.org/2000/svg" viewBox="0 0 512 512"><path fill="currentColor" d="M0 64C0 28.7 28.7 0 64 0l72 0c13.3 0 24 10.7 24 24s-10.7 24-24 24L64 48c-8.8 0-16 7.2-16 16l0 72c0 13.3-10.7 24-24 24S0 149.3 0 136L0 64zM352 24c0-13.3 10.7-24 24-24l72 0c35.3 0 64 28.7 64 64l0 72c0 13.3-10.7 24-24 24s-24-10.7-24-24l0-72c0-8.8-7.2-16-16-16l-72 0c-13.3 0-24-10.7-24-24zM24 352c13.3 0 24 10.7 24 24l0 72c0 8.8 7.2 16 16 16l72 0c13.3 0 24 10.7 24 24s-10.7 24-24 24l-72 0c-35.3 0-64-28.7-64-64l0-72c0-13.3 10.7-24 24-24zm464 0c13.3 0 24 10.7 24 24l0 72c0 35.3-28.7 64-64 64l-72 0c-13.3 0-24-10.7-24-24s10.7-24 24-24l72 0c8.8 0 16-7.2 16-16l0-72c0-13.3 10.7-24 24-24zM96 160c0-17.7 14.3-32 32-32s32 14.3 32 32l0 192c0 17.7-14.3 32-32 32s-32-14.3-32-32l0-192zm200-32c13.3 0 24 10.7 24 24l0 208c0 13.3-10.7 24-24 24s-24-10.7-24-24l0-208c0-13.3 10.7-24 24-24zm56 32c0-17.7 14.3-32 32-32s32 14.3 32 32l0 192c0 17.7-14.3 32-32 32s-32-14.3-32-32l0-192zM208 128c8.8 0 16 7.2 16 16l0 224c0 8.8-7.2 16-16 16s-16-7.2-16-16l0-224c0-8.8 7.2-16 16-16z"/></svg>