<svg xmlns="http://www.w3.org/2000/svg" viewBox="0 0 576 512"><path fill="currentColor" d="M96 32C78.3 32 64 46.3 64 64l0 160-40 0c-13.3 0-24 10.7-24 24s10.7 24 24 24l528 0c13.3 0 24-10.7 24-24s-10.7-24-24-24l-40 0 0-168c0-13.3-10.7-24-24-24s-24 10.7-24 24l0 168-48 0 0-168c0-13.3-10.7-24-24-24s-24 10.7-24 24l0 168-48 0 0-160c0-17.7-14.3-32-32-32s-32 14.3-32 32l0 160-48 0 0-168c0-13.3-10.7-24-24-24s-24 10.7-24 24l0 168-32 0 0-160c0-17.7-14.3-32-32-32zM64 448c0 17.7 14.3 32 32 32s32-14.3 32-32l0-128-64 0 0 128zm96 8c0 13.3 10.7 24 24 24s24-10.7 24-24l0-136-48 0 0 136zm96-8c0 17.7 14.3 32 32 32s32-14.3 32-32l0-128-64 0 0 128zm112 8c0 13.3 10.7 24 24 24s24-10.7 24-24l0-136-48 0 0 136zm96 0c0 13.3 10.7 24 24 24s24-10.7 24-24l0-136-48 0 0 136z"/></svg>