<svg xmlns="http://www.w3.org/2000/svg" viewBox="0 0 576 512"><path fill="currentColor" d="M64 464l49.1 0c2.5 17.7 9.2 34 18.9 48L64 512c-35.3 0-64-28.7-64-64L0 80C0 18.1 50.1-32 112-32 161.8-32 204.1 .5 218.6 45.5L182.1 62.1c-2.6 1.2-5.1 2.5-7.6 3.8-6.4-28.6-31.9-50-62.5-50-35.3 0-64 28.7-64 64l0 18.2 89.4 0c-7.2 9.7-12.9 20.5-16.8 32.2l-5.3 15.8-67.4 0 0 301.8c0 8.8 7.2 16 16 16zM344.2 93.9L221.8 149.5c-4.8 2.2-8.4 6.2-10.1 11.2L177.3 264 184 264c13.3 0 24 10.7 24 24l0 160c0 8.8 7.2 16 16 16l48 0 0-72c0-30.9 25.1-56 56-56l48 0c30.9 0 56 25.1 56 56l0 72 48 0c8.8 0 16-7.2 16-16l0-160c0-13.3 10.7-24 24-24l6.7 0-34.4-103.3c-1.7-5-5.3-9-10.1-11.2L359.8 93.9c-5-2.3-10.6-2.3-15.6 0zM480 512l-256 0c-35.3 0-64-28.7-64-64l0-137.8c-18.5-5.5-32-22.6-32-42.8 0-4.8 .8-9.6 2.3-14.1l35.9-107.7c5.9-17.6 18.8-32 35.8-39.7L324.3 50.2c17.6-8 37.8-8 55.3 0l122.4 55.6c16.9 7.7 29.9 22.1 35.8 39.7l35.9 107.7c1.5 4.6 2.3 9.3 2.3 14.1 0 20.3-13.5 37.4-32 42.8L544 448c0 35.3-28.7 64-64 64zM384 392c0-4.4-3.6-8-8-8l-48 0c-4.4 0-8 3.6-8 8l0 72 64 0 0-72zM328 176l48 0c13.3 0 24 10.7 24 24l0 48c0 13.3-10.7 24-24 24l-48 0c-13.3 0-24-10.7-24-24l0-48c0-13.3 10.7-24 24-24z"/></svg>