<svg xmlns="http://www.w3.org/2000/svg" viewBox="0 0 512 512"><path fill="currentColor" d="M24 0C37.3 0 48 10.7 48 24l0 120 160 0 0-104c0-22.1 17.9-40 40-40L392 0c66.3 0 120 53.7 120 120l0 368c0 13.3-10.7 24-24 24s-24-10.7-24-24l0-40.3-416 0 0 40.3c0 13.3-10.7 24-24 24S0 501.3 0 488L0 24C0 10.7 10.7 0 24 0zM208 399.7L208 296c0-22.1 17.9-40 40-40l216 0 0-64-416 0 0 207.7 160 0zM464 144l0-24c0-39.8-32.2-72-72-72l-136 0 0 96 208 0zm0 160l-208 0 0 95.7 208 0 0-95.7zM80 320a48 48 0 1 1 96 0 48 48 0 1 1 -96 0zM128 16a48 48 0 1 1 0 96 48 48 0 1 1 0-96z"/></svg>