<svg xmlns="http://www.w3.org/2000/svg" viewBox="0 0 640 512"><path fill="currentColor" d="M23.9 263.3c-17.1-4.7-27.3-22.4-22.8-39.5 1.8-7 5.9-13.1 11.6-17.4L24 198c34.1-25.6 58.6-62.1 69.5-103.6l5.8-21.9c19.8-75.5 97-120.1 172.3-99.5 42.8 11.7 75.7 41.9 92.6 79.6-2.7 .6-5.3 1.3-8 2-13.1 3.6-25.6 8.5-37.3 14.5-11.6-23.6-32.9-42.4-60-49.8-49.6-13.6-100.2 15.6-113.2 65.4L140 106.6c-12.1 46.2-37.7 87.5-73.4 118.7l150.8 41.2c1 7.1 2.5 14.2 4.3 21.3l5.8 21.9c.9 3.3 1.6 6.6 2.2 10-143.1-39.1-178.4-48.8-205.8-56.3zM230.2 369.5c-1.2 7.2-2.9 14.3-5.1 21.3-9.7 5.8-21 9.2-33.1 9.2-33.4 0-60.9-25.6-63.8-58.3l0 0c46.8 12.8 80.8 22.1 102 27.9zm385.9 21.8c-244.3 66.8-307.6 84.1-320 87.5l-.5 .1c-16.9 4.4-34.1-5.7-38.6-22.7-1.8-7-1.3-14.3 1.6-21l5.6-13.1c17-39.6 20.3-83.7 9.4-125.2l-5.8-21.9C248.1 199.6 293.1 121.6 368.4 101S520.9 125 540.7 200.5l5.8 21.9c10.9 41.5 35.4 78 69.5 103.6l11.3 8.5c5.7 4.3 9.8 10.4 11.6 17.4 4.5 17.1-5.7 34.8-22.8 39.5zM473.9 480l6.1-1.7 0 0c0 .6 0 1.1 0 1.7 0 26.1-15.6 48.5-37.9 58.5-5.8 2.6-12.1 4.4-18.7 5.1-2.4 .3-4.9 .4-7.4 .4-24 0-45-13.3-55.9-32.9l0 0 55.4-15.1 9.2-2.5 49.3-13.5zm99.5-126.7c-35.7-31.2-61.3-72.5-73.4-118.7l-5.8-21.9c-13-49.7-63.6-78.9-113.2-65.4-49.9 13.7-79.9 65.5-66.7 115.6l5.7 21.9c12.1 45.9 10.2 94.4-5.1 139.1l258.5-70.7z"/></svg>