<svg xmlns="http://www.w3.org/2000/svg" viewBox="0 0 640 512"><path fill="currentColor" d="M400 96a48 48 0 1 0 0-96 48 48 0 1 0 0 96zm-69.8 65.5c2.9-2.1 6.8-1.9 9.6 .3l61.2 49c4.3 3.4 9.5 5.3 15 5.3l64 0c13.3 0 24-10.7 24-24s-10.7-24-24-24l-55.6 0-54.6-43.7c-19.5-15.6-46.9-16.4-67.3-2L239.2 167c-38.9 27.5-35.3 86.3 6.8 108.8l50 26.7 0 113.6c0 13.3 10.7 24 24 24s24-10.7 24-24l0-128c0-8.9-4.9-17-12.7-21.2l-62.7-33.5c-10.5-5.6-11.4-20.3-1.7-27.2l63.3-44.7zM144 268c-11 0-20 9-20 20l0 1.8c-16 2.9-30.9 9.2-43.8 18.1l-1.3-1.3c-7.8-7.8-20.5-7.8-28.3 0s-7.8 20.5 0 28.3l1.3 1.3C43 349.1 36.7 364 33.8 380L32 380c-11 0-20 9-20 20s9 20 20 20l1.8 0c2.9 16 9.2 30.9 18.1 43.8l-1.3 1.3c-7.8 7.8-7.8 20.5 0 28.3s20.5 7.8 28.3 0l1.3-1.3C93.1 501 108 507.3 124 510.2l0 1.8c0 11 9 20 20 20s20-9 20-20l0-1.8c16-2.9 30.9-9.2 43.8-18.1l1.3 1.3c7.8 7.8 20.5 7.8 28.3 0s7.8-20.5 0-28.3l-1.3-1.3c8.9-12.9 15.3-27.7 18.1-43.8l1.8 0c11 0 20-9 20-20s-9-20-20-20l-1.8 0c-2.9-16-9.2-30.9-18.1-43.8l1.3-1.3c7.8-7.8 7.8-20.5 0-28.3s-20.5-7.8-28.3 0l-1.3 1.3C194.9 299 180 292.7 164 289.8l0-1.8c0-11-9-20-20-20zm0 68a64 64 0 1 1 0 128 64 64 0 1 1 0-128zm372-48c0-11-9-20-20-20s-20 9-20 20l0 1.8c-16 2.9-30.9 9.2-43.8 18.1l-1.3-1.3c-7.8-7.8-20.5-7.8-28.3 0s-7.8 20.5 0 28.3l1.3 1.3C395 349.1 388.7 364 385.8 380l-1.8 0c-11 0-20 9-20 20s9 20 20 20l1.8 0c2.9 16 9.2 30.9 18.1 43.8l-1.3 1.3c-7.8 7.8-7.8 20.5 0 28.3s20.5 7.8 28.3 0l1.3-1.3c12.9 8.9 27.7 15.3 43.8 18.1l0 1.8c0 11 9 20 20 20s20-9 20-20l0-1.8c16-2.9 30.9-9.2 43.8-18.1l1.3 1.3c7.8 7.8 20.5 7.8 28.3 0s7.8-20.5 0-28.3l-1.3-1.3c8.9-12.9 15.3-27.7 18.1-43.8l1.8 0c11 0 20-9 20-20s-9-20-20-20l-1.8 0c-2.9-16-9.2-30.9-18.1-43.8l1.3-1.3c7.8-7.8 7.8-20.5 0-28.3s-20.5-7.8-28.3 0l-1.3 1.3C546.9 299 532 292.7 516 289.8l0-1.8zM432 400a64 64 0 1 1 128 0 64 64 0 1 1 -128 0z"/></svg>