<svg xmlns="http://www.w3.org/2000/svg" viewBox="0 0 576 512"><path fill="currentColor" d="M392 24l0 152 32 0c13.3 0 24 10.7 24 24 0 3-.6 5.9-1.6 8.5-4.8-.4-9.6-.5-14.4-.5-27.3 0-53.3 5.7-76.9 16L312 224c-13.3 0-24-10.7-24-24s10.7-24 24-24l32 0 0-118.7-16.4 5.5C315 67 301.4 60.2 297.2 47.6s2.6-26.2 15.2-30.4l48-16C367.7-1.2 375.8 0 382 4.5S392 16.3 392 24zM168 312l0 152 32 0c13.3 0 24 10.7 24 24s-10.7 24-24 24L88 512c-13.3 0-24-10.7-24-24s10.7-24 24-24l32 0 0-118.7-16.4 5.5C91 355 77.4 348.2 73.2 335.6s2.6-26.2 15.2-30.4l48-16c7.3-2.4 15.4-1.2 21.6 3.3s10 11.8 10 19.5zM64 64C64 28.7 92.7 0 128 0l64 0c35.3 0 64 28.7 64 64l0 96c0 35.3-28.7 64-64 64l-64 0c-35.3 0-64-28.7-64-64l0-96zm64-16c-8.8 0-16 7.2-16 16l0 96c0 8.8 7.2 16 16 16l64 0c8.8 0 16-7.2 16-16l0-96c0-8.8-7.2-16-16-16l-64 0zM288 400a144 144 0 1 1 288 0 144 144 0 1 1 -288 0zm201.4-60.9c-7.1-5.2-17.2-3.6-22.4 3.5l-53 72.9-26.8-26.8c-6.2-6.2-16.4-6.2-22.6 0s-6.2 16.4 0 22.6l40 40c3.3 3.3 7.9 5 12.6 4.6s8.9-2.8 11.7-6.5l64-88c5.2-7.1 3.6-17.2-3.5-22.3z"/></svg>