<svg xmlns="http://www.w3.org/2000/svg" viewBox="0 0 384 512"><path fill="currentColor" d="M328 24l0 152 32 0c13.3 0 24 10.7 24 24s-10.7 24-24 24l-112 0c-13.3 0-24-10.7-24-24s10.7-24 24-24l32 0 0-118.7-16.4 5.5C251 67 237.4 60.2 233.2 47.6s2.6-26.2 15.2-30.4l48-16C303.7-1.2 311.8 0 318 4.5S328 16.3 328 24zM104 312l0 152 32 0c13.3 0 24 10.7 24 24s-10.7 24-24 24L24 512c-13.3 0-24-10.7-24-24s10.7-24 24-24l32 0 0-118.7-16.4 5.5C27 355 13.4 348.2 9.2 335.6s2.6-26.2 15.2-30.4l48-16c7.3-2.4 15.4-1.2 21.6 3.3s10 11.8 10 19.5zM0 64C0 28.7 28.7 0 64 0l64 0c35.3 0 64 28.7 64 64l0 96c0 35.3-28.7 64-64 64l-64 0c-35.3 0-64-28.7-64-64L0 64zM64 48c-8.8 0-16 7.2-16 16l0 96c0 8.8 7.2 16 16 16l64 0c8.8 0 16-7.2 16-16l0-96c0-8.8-7.2-16-16-16L64 48zM256 288l64 0c35.3 0 64 28.7 64 64l0 96c0 35.3-28.7 64-64 64l-64 0c-35.3 0-64-28.7-64-64l0-96c0-35.3 28.7-64 64-64zm-16 64l0 96c0 8.8 7.2 16 16 16l64 0c8.8 0 16-7.2 16-16l0-96c0-8.8-7.2-16-16-16l-64 0c-8.8 0-16 7.2-16 16z"/></svg>