<svg xmlns="http://www.w3.org/2000/svg" viewBox="0 0 576 512"><path fill="currentColor" d="M300 16.4c0-20.6 20-39.1 42.8-31 63.6 22.5 109.2 83.2 109.2 154.6 0 23.3-4.9 45.4-13.6 65.5 20.4 2.8 40.7 9.5 59.6 20.5 61.8 35.7 91.6 105.5 79.3 171.8-4.4 23.8-30.4 31.9-48.2 21.6-12.4-7.2-17.7-20.6-17-32.6 1.8-26.6-11.3-53-35.9-67.2-34.4-19.9-78.5-8.1-98.4 26.4s-8.1 78.5 26.4 98.4c24.5 14.2 54 12.3 76.1-2.5 10-6.7 24.3-8.8 36.7-1.6 17.8 10.3 23.8 36.9 5.4 52.6-51.3 43.8-126.7 52.9-188.5 17.2-18.2-10.5-33.6-24-46-39.4-12.4 15.5-27.8 28.9-46 39.4-61.8 35.7-137.2 26.5-188.5-17.2-18.4-15.7-12.4-42.3 5.4-52.6 12.4-7.2 26.7-5.1 36.7 1.6 22.1 14.8 51.6 16.7 76.1 2.5 34.4-19.9 46.2-63.9 26.4-98.4s-63.9-46.2-98.4-26.4c-24.5 14.2-37.6 40.6-35.9 67.2 .8 12-4.5 25.4-17 32.6-17.8 10.3-43.8 2.2-48.2-21.6-12.3-66.3 17.5-136.2 79.3-171.8 18.9-10.9 39.2-17.7 59.6-20.5-8.8-20.1-13.6-42.2-13.6-65.5 0-71.4 45.6-132.1 109.2-154.6 22.8-8.1 42.8 10.4 42.8 31 0 14.3-8.9 25.7-19.7 31-23.9 11.8-40.3 36.3-40.3 64.6 0 39.8 32.2 72 72 72s72-32.2 72-72c0-28.3-16.4-52.9-40.3-64.6-10.8-5.3-19.7-16.6-19.7-31zm93.9 59.1c4 11.4 6.1 23.7 6.1 36.5 0 61.9-50.1 112-112 112S176 173.9 176 112c0-12.8 2.1-25.1 6.1-36.5-11.5 18.8-18.1 40.9-18.1 64.5 0 27.2 8.7 52.3 23.5 72.7 4.6 6.3 5.1 14.7 1.3 21.5s-11.3 10.8-19 10.1c-24.2-1.9-49.1 3.2-71.7 16.2-20.5 11.8-36.3 28.6-46.8 47.9 7.9-9.1 17.5-17.1 28.6-23.5 53.6-30.9 122.1-12.6 153 41s12.6 122.1-41 153c-11.1 6.4-22.8 10.7-34.7 13 22 .5 44.5-4.8 64.9-16.6 21.4-12.4 37.7-30.1 48.2-50.5 3.4-6.7 10.3-10.9 17.8-10.9s14.4 4.2 17.8 10.9c10.5 20.4 26.8 38.2 48.2 50.5 20.5 11.8 42.9 17.1 64.9 16.6-11.9-2.3-23.6-6.6-34.7-13-53.6-30.9-71.9-99.4-41-153s99.4-71.9 153-41c11.1 6.4 20.7 14.4 28.6 23.5-10.5-19.3-26.4-36.1-46.8-47.9-22.6-13.1-47.6-18.2-71.8-16.2-7.8 .6-15.2-3.3-19-10.1s-3.3-15.2 1.3-21.5c14.8-20.4 23.5-45.5 23.5-72.7 0-23.6-6.6-45.7-18.1-64.5zm-63.4 25.3c1 3.6 1.5 7.4 1.5 11.3 0 14-6.6 26.5-16.8 34.6-8.8-1.7-17.9-2.6-27.2-2.6s-18.4 .9-27.2 2.6c-10.2-8.1-16.8-20.5-16.8-34.6 0-3.9 .5-7.7 1.5-11.3 13.7-3.1 27.9-4.7 42.5-4.7s28.9 1.6 42.6 4.7zm65.7 282.2c10.5-12 19-25.7 25.1-40.7 12.6-6 27.9-5.8 40.9 1.7 2.8 1.6 5.4 3.5 7.7 5.6-9.5 28-25.2 53.1-45.5 73.6-2.1-.8-4.2-1.8-6.2-3-13.8-8-21.7-22.3-22-37.2zM154.6 342.2c6.1 15 14.7 28.8 25.2 40.8-.3 14.8-8.2 29.2-22 37.1-2 1.2-4.1 2.2-6.2 3-20.3-20.5-36-45.6-45.5-73.5 2.3-2.1 4.9-4 7.7-5.6 13-7.5 28.2-7.6 40.8-1.7zM288 256a32 32 0 1 1 0 64 32 32 0 1 1 0-64z"/></svg>