<svg xmlns="http://www.w3.org/2000/svg" viewBox="0 0 640 512"><path fill="currentColor" d="M144 120c0-22.1 17.9-40 40-40l272 0c22.1 0 40 17.9 40 40l0 49.6c4.7 4.4 9.3 8.9 13.9 13.5 10.3-7.1 22.2-10.7 34.1-11l0-52.2c0-48.6-39.4-88-88-88L184 32c-48.6 0-88 39.4-88 88l0 248 .3 0c4.1 62.5 56.2 112 119.7 112l80.1 0c-7.9-15.1-14-31.2-18.1-48l-62 0c-39.8 0-72-32.2-72-72s32.2-72 72-72l83.1 0c3.9-7.5 8.1-14.7 12.4-21.7 5.4-8.8 11.3-17.6 17.7-26.3L216 240c-27 0-51.9 8.9-72 24l0-144zM272 382.1c0-15.3 2.7-30.8 7.2-46.1L216 336c-13.3 0-24 10.7-24 24s10.7 24 24 24l56 0 0-1.9zM505.7 240.3s-24.5-29.4-38.9-40.7c-5.4-4.3-11.5-7.3-18.8-7.5s-14.6 2.3-20.3 7.5c-23.4 21.1-50 48.9-70.9 80.2-20.8 31.1-36.8 67.1-36.8 104.5 0 88.6 70.4 159.8 160 159.8 88.7 0 160-71.2 160-159.8 0-30-11-60.9-26.2-88.1-15.2-27.4-35.3-52.3-55-70.6-5.6-5.2-12.8-7.8-19.9-7.8-7.6 0-15.5 2.8-20.9 8.9l-12.3 13.8zM544 432.2c0 35.3-28.7 64-64 64s-64-28.7-64-64c0-36.5 37-73 54.8-88.4 5.4-4.7 13.1-4.7 18.5 0 17.7 15.4 54.8 51.9 54.8 88.4z"/></svg>