<svg xmlns="http://www.w3.org/2000/svg" viewBox="0 0 448 512"><path fill="currentColor" d="M48 120c0-22.1 17.9-40 40-40l272 0c22.1 0 40 17.9 40 40l0 124.1c-7.5-2.7-15.6-4.1-24-4.1l-256 0c-27 0-51.9 8.9-72 24l0-144zM.3 368C4.4 430.5 56.4 480 120 480l304 0c13.3 0 24-10.7 24-24s-10.7-24-24-24l-304 0c-39.8 0-72-32.2-72-72s32.2-72 72-72l256 0c13.3 0 24 10.7 24 24s-10.7 24-24 24l-256 0c-13.3 0-24 10.7-24 24s10.7 24 24 24l256 0c39.8 0 72-32.2 72-72l0-192c0-48.6-39.4-88-88-88L88 32C39.4 32 0 71.4 0 120l0 248 .3 0z"/></svg>