<svg xmlns="http://www.w3.org/2000/svg" viewBox="0 0 448 512"><path fill="currentColor" d="M24 32C10.7 32 0 42.7 0 56S10.7 80 24 80l88 0 0 248c0 13.3 10.7 24 24 24s24-10.7 24-24l0-248 264 0c13.3 0 24-10.7 24-24s-10.7-24-24-24L24 32zM424 208c13.3 0 24-10.7 24-24s-10.7-24-24-24l-216 0 0 48 216 0zM24 160c-13.3 0-24 10.7-24 24s10.7 24 24 24l40 0 0-48-40 0zm0 192l40 0 0-48-40 0c-13.3 0-24 10.7-24 24s10.7 24 24 24zm400-48l-216 0 0 48 216 0c13.3 0 24-10.7 24-24s-10.7-24-24-24zM24 480l400 0c13.3 0 24-10.7 24-24s-10.7-24-24-24L24 432c-13.3 0-24 10.7-24 24s10.7 24 24 24z"/></svg>