<svg xmlns="http://www.w3.org/2000/svg" viewBox="0 0 512 512"><path fill="currentColor" d="M512 176c0-97.2-78.8-176-176-176-80.6 0-148.6 54.2-169.4 128.2 3.1-.1 6.3-.2 9.4-.2 114.9 0 208 93.1 208 208 0 3.2-.1 6.3-.2 9.4 74-20.8 128.2-88.8 128.2-169.4zM384 64l0 32 32 0c8.8 0 16 7.2 16 16s-7.2 16-16 16l-32 0 0 32c0 8.8-7.2 16-16 16s-16-7.2-16-16l0-32-32 0c-8.8 0-16-7.2-16-16s7.2-16 16-16l32 0 0-32c0-8.8 7.2-16 16-16s16 7.2 16 16zM176 208a128 128 0 1 1 0 256 128 128 0 1 1 0-256zm0 304a176 176 0 1 0 0-352 176 176 0 1 0 0 352zm0-256c0-8.8-7.2-16-16-16s-16 7.2-16 16l0 32-32 0c-8.8 0-16 7.2-16 16s7.2 16 16 16l32 0 0 32c0 8.8 7.2 16 16 16s16-7.2 16-16l0-32 32 0c8.8 0 16-7.2 16-16s-7.2-16-16-16l-32 0 0-32z"/></svg>