<svg xmlns="http://www.w3.org/2000/svg" viewBox="0 0 640 512"><path fill="currentColor" d="M344-8c0-13.3-10.7-24-24-24S296-21.3 296-8l0 80c0 13.3 10.7 24 24 24s24-10.7 24-24l0-80zM201 39c-9.4-9.4-24.6-9.4-33.9 0s-9.4 24.6 0 33.9l48 48c9.4 9.4 24.6 9.4 33.9 0s9.4-24.6 0-33.9L201 39zM473 73c9.4-9.4 9.4-24.6 0-33.9s-24.6-9.4-33.9 0L391 87c-9.4 9.4-9.4 24.6 0 33.9s24.6 9.4 33.9 0l48-48zM112 112c-61.9 0-112 50.1-112 112 0 23.8 7.4 45.9 20.1 64-12.6 18.1-20.1 40.2-20.1 64 0 61.9 50.1 112 112 112 50.8 0 93.6-33.7 107.4-80l201.3 0c13.8 46.3 56.6 80 107.4 80 61.9 0 112-50.1 112-112 0-23.8-7.4-45.9-20.1-64 12.6-18.1 20.1-40.2 20.1-64 0-61.9-50.1-112-112-112-50.7 0-93.6 33.7-107.4 80l-31.4 0c-12.6 0-24.1 7.4-29.2 19l-40 89.9-40-89.9c-5.1-11.6-16.6-19-29.2-19l-31.4 0c-13.8-46.3-56.6-80-107.4-80zM240.4 240l42.7 96-76.1 0c-17 0-29.4 12.8-31.9 27.1-5.2 30-31.5 52.9-63 52.9-35.3 0-64-28.7-64-64 0-16.1 5.9-30.8 15.8-42.1 10.9-12.5 10.9-31.3 0-43.8-9.9-11.3-15.8-26-15.8-42.1 0-35.3 28.7-64 64-64 31.5 0 57.8 22.8 63 52.9 2.5 14.3 14.9 27.1 31.9 27.1l33.5 0zm159.2 0l33.4 0c17 0 29.4-12.8 31.9-27.1 5.2-30 31.5-52.9 63-52.9 35.3 0 64 28.7 64 64 0 16.1-5.9 30.8-15.8 42.1-10.9 12.5-10.9 31.3 0 43.8 9.9 11.3 15.8 26 15.8 42.1 0 35.3-28.7 64-64 64-31.5 0-57.8-22.8-63-52.9-2.5-14.3-14.9-27.1-31.9-27.1l-76.1 0 42.7-96z"/></svg>