<svg xmlns="http://www.w3.org/2000/svg" viewBox="0 0 512 512"><path fill="currentColor" d="M212.4 105.8l19.6 8.2 0 344.4C184.4 441 134 432 83.2 432L48 432 48 80 83.2 80c44.4 0 88.3 8.8 129.2 25.8zM428.8 432c-50.8 0-101.2 9-148.8 26.4l0-344.4 19.6-8.2C340.5 88.8 384.4 80 428.8 80l35.2 0 0 352-35.2 0zM256 72L230.9 61.5C184.1 42 133.9 32 83.2 32L48 32C21.5 32 0 53.5 0 80L0 432c0 26.5 21.5 48 48 48l35.2 0c50.7 0 100.9 10 147.7 29.5l12.8 5.3c7.9 3.3 16.7 3.3 24.6 0l12.8-5.3c46.8-19.5 97-29.5 147.7-29.5l35.2 0c26.5 0 48-21.5 48-48l0-352c0-26.5-21.5-48-48-48l-35.2 0c-50.7 0-100.9 10-147.7 29.5L256 72zM104 128c-13.3 0-24 10.7-24 24s10.7 24 24 24l4.2 0c19.8 0 39.3 4.6 57 13.5 11.9 5.9 26.3 1.1 32.2-10.7s1.1-26.3-10.7-32.2c-24.4-12.2-51.3-18.5-78.5-18.5l-4.2 0zm299.8 0c-27.3 0-54.1 6.3-78.5 18.5-11.9 5.9-16.7 20.3-10.7 32.2s20.3 16.7 32.2 10.7c17.7-8.9 37.2-13.5 57-13.5l4.2 0c13.3 0 24-10.7 24-24s-10.7-24-24-24l-4.2 0zM104 224c-13.3 0-24 10.7-24 24s10.7 24 24 24l4.2 0c19.8 0 39.3 4.6 57 13.5 11.9 5.9 26.3 1.1 32.2-10.7s1.1-26.3-10.7-32.2c-24.4-12.2-51.3-18.5-78.5-18.5l-4.2 0zm299.8 0c-27.3 0-54.1 6.3-78.5 18.5-11.9 5.9-16.7 20.3-10.7 32.2s20.3 16.7 32.2 10.7c17.7-8.9 37.2-13.5 57-13.5l4.2 0c13.3 0 24-10.7 24-24s-10.7-24-24-24l-4.2 0zM104 320c-13.3 0-24 10.7-24 24s10.7 24 24 24l4.2 0c19.8 0 39.3 4.6 57 13.5 11.9 5.9 26.3 1.1 32.2-10.7s1.1-26.3-10.7-32.2c-24.4-12.2-51.3-18.5-78.5-18.5l-4.2 0zm299.8 0c-27.3 0-54.1 6.3-78.5 18.5-11.9 5.9-16.7 20.3-10.7 32.2s20.3 16.7 32.2 10.7c17.7-8.9 37.2-13.5 57-13.5l4.2 0c13.3 0 24-10.7 24-24s-10.7-24-24-24l-4.2 0z"/></svg>