<svg xmlns="http://www.w3.org/2000/svg" viewBox="0 0 448 512"><path fill="currentColor" d="M0 88C0 39.4 39.4 0 88 0L376 0c39.8 0 72 32.2 72 72l0 256c0 25-12.7 47-32 59.9l0 76.1 8 0c13.3 0 24 10.7 24 24s-10.7 24-24 24L80 512c-44.2 0-80-35.8-80-80L0 88zM80 400c-17.7 0-32 14.3-32 32s14.3 32 32 32l288 0 0-64-288 0zM48 358.7c9.8-4.3 20.6-6.7 32-6.7l296 0c13.3 0 24-10.7 24-24l0-256c0-13.3-10.7-24-24-24L88 48C65.9 48 48 65.9 48 88l0 270.7zM192 120c0-8.8 7.2-16 16-16l32 0c8.8 0 16 7.2 16 16l0 40 40 0c8.8 0 16 7.2 16 16l0 32c0 8.8-7.2 16-16 16l-40 0 0 40c0 8.8-7.2 16-16 16l-32 0c-8.8 0-16-7.2-16-16l0-40-40 0c-8.8 0-16-7.2-16-16l0-32c0-8.8 7.2-16 16-16l40 0 0-40z"/></svg>