<svg xmlns="http://www.w3.org/2000/svg" viewBox="0 0 448 512"><path fill="currentColor" d="M0 88C0 39.4 39.4 0 88 0L376 0c39.8 0 72 32.2 72 72l0 256c0 25-12.7 47-32 59.9l0 76.1 8 0c13.3 0 24 10.7 24 24s-10.7 24-24 24L80 512c-44.2 0-80-35.8-80-80L0 88zM80 400c-17.7 0-32 14.3-32 32s14.3 32 32 32l288 0 0-64-288 0zM48 358.7c9.8-4.3 20.6-6.7 32-6.7l296 0c13.3 0 24-10.7 24-24l0-256c0-13.3-10.7-24-24-24l-24 0 0 153.4c0 12.5-10.1 22.6-22.6 22.6-6 0-11.8-2.4-16-6.6L272 176 230.6 217.4c-4.2 4.2-10 6.6-16 6.6-12.5 0-22.6-10.1-22.6-22.6L192 48 88 48C65.9 48 48 65.9 48 88l0 270.7z"/></svg>