<svg xmlns="http://www.w3.org/2000/svg" viewBox="0 0 512 512"><path fill="currentColor" d="M232 114l-19.6-8.2C171.5 88.8 127.6 80 83.2 80l-35.2 0 0 352 35.2 0c50.8 0 101.2 9 148.8 26.4L232 114zm48 344.4C327.6 441 378 432 428.8 432l35.2 0 0-352-35.2 0c-44.4 0-88.3 8.8-129.2 25.8L280 114 280 458.4zM230.9 61.5L256 72 281.1 61.5C327.9 42 378.1 32 428.8 32L464 32c26.5 0 48 21.5 48 48l0 352c0 26.5-21.5 48-48 48l-35.2 0c-50.7 0-100.9 10-147.7 29.5l-12.8 5.3c-7.9 3.3-16.7 3.3-24.6 0l-12.8-5.3C184.1 490 133.9 480 83.2 480L48 480c-26.5 0-48-21.5-48-48L0 80C0 53.5 21.5 32 48 32l35.2 0c50.7 0 100.9 10 147.7 29.5z"/></svg>