<svg xmlns="http://www.w3.org/2000/svg" viewBox="0 0 448 512"><path fill="currentColor" d="M0 88C0 39.4 39.4 0 88 0L376 0c39.8 0 72 32.2 72 72l0 256c0 25-12.7 47-32 59.9l0 76.1 8 0c13.3 0 24 10.7 24 24s-10.7 24-24 24L80 512c-44.2 0-80-35.8-80-80L0 88zM80 400c-17.7 0-32 14.3-32 32s14.3 32 32 32l288 0 0-64-288 0zM48 358.7c9.8-4.3 20.6-6.7 32-6.7l296 0c13.3 0 24-10.7 24-24l0-256c0-13.3-10.7-24-24-24L88 48C65.9 48 48 65.9 48 88l0 270.7zM214.9 142.9l9.1 9.1 9.1-9.1c9.5-9.5 22.5-14.9 36-14.9l2.9 0c26.5 0 48 21.5 48 48 0 53.4-66.9 95.7-89 108.2-4.4 2.5-9.6 2.5-14 0-22.1-12.5-89-54.8-89-108.2 0-26.5 21.5-48 48-48l2.9 0c13.5 0 26.5 5.4 36 14.9z"/></svg>