<svg xmlns="http://www.w3.org/2000/svg" viewBox="0 0 448 512"><path fill="currentColor" d="M48 64c0-8.8 7.2-16 16-16l48 0 0 336c0 39.8 32.2 72 72 72 18.4 0 35.3-6.9 48-18.3 12.7 11.4 29.6 18.3 48 18.3s35.3-6.9 48-18.3c12.7 11.4 29.6 18.3 48 18.3 8.4 0 16.5-1.4 24-4.1l0 36.1c0 13.3 10.7 24 24 24s24-10.7 24-24l0-424c0-35.3-28.7-64-64-64L64 0C28.7 0 0 28.7 0 64L0 488c0 13.3 10.7 24 24 24s24-10.7 24-24L48 64zM400 384c0 13.3-10.7 24-24 24s-24-10.7-24-24l0-336 32 0c8.8 0 16 7.2 16 16l0 320zM304 64l0 320c0 13.3-10.7 24-24 24s-24-10.7-24-24l0-336 48 0 0 16zM160 384l0-336 48 0 0 336c0 13.3-10.7 24-24 24s-24-10.7-24-24z"/></svg>