<svg xmlns="http://www.w3.org/2000/svg" viewBox="0 0 448 512"><path fill="currentColor" d="M416 280c13.3 0 24-10.7 24-24s-10.7-24-24-24l-168 0 0-168c0-13.3-10.7-24-24-24s-24 10.7-24 24l0 168-168 0c-13.3 0-24 10.7-24 24s10.7 24 24 24l168 0 0 168c0 13.3 10.7 24 24 24s24-10.7 24-24l0-168 168 0zM56 448a24 24 0 1 0 -48 0 24 24 0 1 0 48 0zM32 88a24 24 0 1 0 0-48 24 24 0 1 0 0 48zm24 72a24 24 0 1 0 -48 0 24 24 0 1 0 48 0zm360 24a24 24 0 1 0 0-48 24 24 0 1 0 0 48zM56 352a24 24 0 1 0 -48 0 24 24 0 1 0 48 0zm360 24a24 24 0 1 0 0-48 24 24 0 1 0 0 48zM152 448a24 24 0 1 0 -48 0 24 24 0 1 0 48 0zM128 88a24 24 0 1 0 0-48 24 24 0 1 0 0 48zM344 448a24 24 0 1 0 -48 0 24 24 0 1 0 48 0zM320 88a24 24 0 1 0 0-48 24 24 0 1 0 0 48zM440 448a24 24 0 1 0 -48 0 24 24 0 1 0 48 0zM416 88a24 24 0 1 0 0-48 24 24 0 1 0 0 48z"/></svg>