<svg xmlns="http://www.w3.org/2000/svg" viewBox="0 0 448 512"><path fill="currentColor" d="M32 40a24 24 0 1 1 0 48 24 24 0 1 1 0-48zM8 256c0-13.3 10.7-24 24-24l384 0c13.3 0 24 10.7 24 24s-10.7 24-24 24L32 280c-13.3 0-24-10.7-24-24zM440 64a24 24 0 1 1 -48 0 24 24 0 1 1 48 0zM320 40a24 24 0 1 1 0 48 24 24 0 1 1 0-48zm24 408a24 24 0 1 1 -48 0 24 24 0 1 1 48 0zM128 40a24 24 0 1 1 0 48 24 24 0 1 1 0-48zM248 64a24 24 0 1 1 -48 0 24 24 0 1 1 48 0zm-24 72a24 24 0 1 1 0 48 24 24 0 1 1 0-48zM152 448a24 24 0 1 1 -48 0 24 24 0 1 1 48 0zm72-24a24 24 0 1 1 0 48 24 24 0 1 1 0-48zm24-72a24 24 0 1 1 -48 0 24 24 0 1 1 48 0zM32 136a24 24 0 1 1 0 48 24 24 0 1 1 0-48zm408 24a24 24 0 1 1 -48 0 24 24 0 1 1 48 0zM32 328a24 24 0 1 1 0 48 24 24 0 1 1 0-48zm408 24a24 24 0 1 1 -48 0 24 24 0 1 1 48 0zM32 424a24 24 0 1 1 0 48 24 24 0 1 1 0-48zm408 24a24 24 0 1 1 -48 0 24 24 0 1 1 48 0z"/></svg>