<svg xmlns="http://www.w3.org/2000/svg" viewBox="0 0 448 512"><path fill="currentColor" d="M0 56C0 42.7 10.7 32 24 32l400 0c13.3 0 24 10.7 24 24s-10.7 24-24 24L24 80C10.7 80 0 69.3 0 56zM64 192a32 32 0 1 1 -64 0 32 32 0 1 1 64 0zm320 0a32 32 0 1 1 64 0 32 32 0 1 1 -64 0zM64 320a32 32 0 1 1 -64 0 32 32 0 1 1 64 0zm320 0a32 32 0 1 1 64 0 32 32 0 1 1 -64 0zM0 448c0-17.7 14.3-32 32-32s32 14.3 32 32-14.3 32-32 32-32-14.3-32-32zm448 0c0 17.7-14.3 32-32 32s-32-14.3-32-32 14.3-32 32-32 32 14.3 32 32zm-320 0c0-17.7 14.3-32 32-32s32 14.3 32 32-14.3 32-32 32-32-14.3-32-32zm192 0c0 17.7-14.3 32-32 32s-32-14.3-32-32 14.3-32 32-32 32 14.3 32 32z"/></svg>