<svg xmlns="http://www.w3.org/2000/svg" viewBox="0 0 448 512"><path fill="currentColor" d="M448 456c0 13.3-10.7 24-24 24L24 480c-13.3 0-24-10.7-24-24s10.7-24 24-24l400 0c13.3 0 24 10.7 24 24zM384 320a32 32 0 1 1 64 0 32 32 0 1 1 -64 0zM64 320a32 32 0 1 1 -64 0 32 32 0 1 1 64 0zM384 192a32 32 0 1 1 64 0 32 32 0 1 1 -64 0zM64 192a32 32 0 1 1 -64 0 32 32 0 1 1 64 0zM384 64a32 32 0 1 1 64 0 32 32 0 1 1 -64 0zM64 64A32 32 0 1 1 0 64 32 32 0 1 1 64 64zm192 0a32 32 0 1 1 64 0 32 32 0 1 1 -64 0zm-64 0a32 32 0 1 1 -64 0 32 32 0 1 1 64 0z"/></svg>