<svg xmlns="http://www.w3.org/2000/svg" viewBox="0 0 448 512"><path fill="currentColor" d="M32 96a32 32 0 1 1 0-64 32 32 0 1 1 0 64zm128 0a32 32 0 1 1 0-64 32 32 0 1 1 0 64zm128 0a32 32 0 1 1 0-64 32 32 0 1 1 0 64zM424 32c13.3 0 24 10.7 24 24l0 400c0 13.3-10.7 24-24 24s-24-10.7-24-24l0-400c0-13.3 10.7-24 24-24zM288 480c-17.7 0-32-14.3-32-32s14.3-32 32-32 32 14.3 32 32-14.3 32-32 32zm-128 0c-17.7 0-32-14.3-32-32s14.3-32 32-32 32 14.3 32 32-14.3 32-32 32zM32 480c-17.7 0-32-14.3-32-32s14.3-32 32-32 32 14.3 32 32-14.3 32-32 32zm0-256a32 32 0 1 1 0-64 32 32 0 1 1 0 64zm0 64a32 32 0 1 1 0 64 32 32 0 1 1 0-64z"/></svg>