<svg xmlns="http://www.w3.org/2000/svg" viewBox="0 0 448 512"><path fill="currentColor" d="M8 448a24 24 0 1 1 48 0 24 24 0 1 1 -48 0zm216 24c-13.3 0-24-10.7-24-24l0-384c0-13.3 10.7-24 24-24s24 10.7 24 24l0 384c0 13.3-10.7 24-24 24zM32 40a24 24 0 1 1 0 48 24 24 0 1 1 0-48zM8 160a24 24 0 1 1 48 0 24 24 0 1 1 -48 0zm408-24a24 24 0 1 1 0 48 24 24 0 1 1 0-48zM8 352a24 24 0 1 1 48 0 24 24 0 1 1 -48 0zM32 232a24 24 0 1 1 0 48 24 24 0 1 1 0-48zm72 24a24 24 0 1 1 48 0 24 24 0 1 1 -48 0zm312 72a24 24 0 1 1 0 48 24 24 0 1 1 0-48zm-24-72a24 24 0 1 1 48 0 24 24 0 1 1 -48 0zm-72-24a24 24 0 1 1 0 48 24 24 0 1 1 0-48zM104 448a24 24 0 1 1 48 0 24 24 0 1 1 -48 0zM128 40a24 24 0 1 1 0 48 24 24 0 1 1 0-48zM296 448a24 24 0 1 1 48 0 24 24 0 1 1 -48 0zM320 40a24 24 0 1 1 0 48 24 24 0 1 1 0-48zm72 408a24 24 0 1 1 48 0 24 24 0 1 1 -48 0zM416 40a24 24 0 1 1 0 48 24 24 0 1 1 0-48z"/></svg>