<svg xmlns="http://www.w3.org/2000/svg" viewBox="0 0 448 512"><path fill="currentColor" d="M0 456c0 13.3 10.7 24 24 24s24-10.7 24-24L48 96c0-8.8 7.2-16 16-16l360 0c13.3 0 24-10.7 24-24s-10.7-24-24-24L64 32C28.7 32 0 60.7 0 96L0 456zm256-8c0 17.7 14.3 32 32 32s32-14.3 32-32-14.3-32-32-32-32 14.3-32 32zm-96 32c17.7 0 32-14.3 32-32s-14.3-32-32-32-32 14.3-32 32 14.3 32 32 32zm224-32c0 17.7 14.3 32 32 32s32-14.3 32-32-14.3-32-32-32-32 14.3-32 32zm32-224a32 32 0 1 0 0-64 32 32 0 1 0 0 64zm-32 96a32 32 0 1 0 64 0 32 32 0 1 0 -64 0z"/></svg>