<svg xmlns="http://www.w3.org/2000/svg" viewBox="0 0 448 512"><path fill="currentColor" d="M24 480c-13.3 0-24-10.7-24-24L0 56C0 42.7 10.7 32 24 32S48 42.7 48 56l0 400c0 13.3-10.7 24-24 24zm136-64a32 32 0 1 1 0 64 32 32 0 1 1 0-64zm0-320a32 32 0 1 1 0-64 32 32 0 1 1 0 64zM288 480c-17.7 0-32-14.3-32-32s14.3-32 32-32 32 14.3 32 32-14.3 32-32 32zm0-384a32 32 0 1 1 0-64 32 32 0 1 1 0 64zM416 480c-17.7 0-32-14.3-32-32s14.3-32 32-32 32 14.3 32 32-14.3 32-32 32zm0-384a32 32 0 1 1 0-64 32 32 0 1 1 0 64zm0 192a32 32 0 1 1 0 64 32 32 0 1 1 0-64zm0-64a32 32 0 1 1 0-64 32 32 0 1 1 0 64z"/></svg>