<svg xmlns="http://www.w3.org/2000/svg" viewBox="0 0 512 512"><path fill="currentColor" d="M256 8c-13.3 0-24 10.7-24 24l0 180.7c-23.5 9.5-40 32.5-40 59.3 0 35.3 28.7 64 64 64s64-28.7 64-64c0-26.9-16.5-49.9-40-59.3L280 32c0-13.3-10.7-24-24-24zM96 176l0 96c0 88.4 71.6 160 160 160s160-71.6 160-160l0-96 48 0 0 272c0 8.8-7.2 16-16 16L64 464c-8.8 0-16-7.2-16-16l0-272 48 0zM48 128c-26.5 0-48 21.5-48 48L0 448c0 35.3 28.7 64 64 64l384 0c35.3 0 64-28.7 64-64l0-272c0-26.5-21.5-48-48-48l-48 0c-26.5 0-48 21.5-48 48l0 96c0 61.9-50.1 112-112 112S144 333.9 144 272l0-96c0-26.5-21.5-48-48-48l-48 0z"/></svg>