<svg xmlns="http://www.w3.org/2000/svg" viewBox="0 0 320 512"><path fill="currentColor" d="M124.6 17.7L128 16 128 0c0-17.7 14.3-32 32-32s32 14.3 32 32l0 16 3.4 1.7c17.5 8.8 28.6 26.7 28.6 46.3 17.7 0 32 14.3 32 32l0 48 27.5 45.8c13.4 22.4 20.5 48 20.5 74.1L304 480c0 35.3-28.7 64-64 64L80 544c-35.3 0-64-28.7-64-64l0-216.1c0-26.1 7.1-51.7 20.5-74.1L64 144 64 96c0-17.7 14.3-32 32-32 0-19.6 11.1-37.5 28.6-46.3zM256 480l0-216.1c0-17.4-4.7-34.5-13.7-49.4l-13.5-22.5-137.6 0-13.5 22.5c-9 14.9-13.7 32-13.7 49.4l0 8.1 40 0c13.3 0 24 10.7 24 24s-10.7 24-24 24l-40 0 0 64 40 0c13.3 0 24 10.7 24 24s-10.7 24-24 24l-40 0 0 48c0 8.8 7.2 16 16 16l160 0c8.8 0 16-7.2 16-16z"/></svg>