<svg xmlns="http://www.w3.org/2000/svg" viewBox="0 0 320 512"><path fill="currentColor" d="M104-32C90.7-32 80-21.3 80-8s10.7 24 24 24l112 0c13.3 0 24-10.7 24-24s-10.7-24-24-24L104-32zM64 152c0-22.1 17.9-40 40-40l112 0c22.1 0 40 17.9 40 40 0 11.9-5.2 22.6-13.5 30-5.2 4.6-8.1 11.1-8.1 18s3 13.4 8.1 18c8.3 7.4 13.5 18.1 13.5 30 0 13.4-6.5 25.2-16.7 32.5-6.3 4.5-10 11.8-10 19.5s3.7 15 10 19.5c10.2 7.3 16.7 19.1 16.7 32.5s-6.5 25.2-16.7 32.5c-6.3 4.5-10 11.8-10 19.5s3.7 15 10 19.5c10.2 7.3 16.7 19.1 16.7 32.5 0 22.1-17.9 40-40 40l-112 0c-22.1 0-40-17.9-40-40 0-13.4 6.5-25.2 16.7-32.5 6.3-4.5 10-11.8 10-19.5s-3.7-15-10-19.5C70.5 377.2 64 365.4 64 352s6.5-25.2 16.7-32.5c6.3-4.5 10-11.8 10-19.5s-3.7-15-10-19.5c-10.2-7.3-16.7-19.1-16.7-32.5 0-11.9 5.2-22.6 13.5-30 5.2-4.6 8.1-11.1 8.1-18s-3-13.4-8.1-18C69.2 174.6 64 163.9 64 152zm40-88c-48.6 0-88 39.4-88 88 0 17.7 5.2 34.2 14.2 48-9 13.8-14.2 30.3-14.2 48 0 19.5 6.3 37.4 17 52-10.7 14.6-17 32.5-17 52s6.3 37.4 17 52c-10.7 14.6-17 32.5-17 52 0 48.6 39.4 88 88 88l112 0c48.6 0 88-39.4 88-88 0-19.5-6.3-37.4-17-52 10.7-14.6 17-32.5 17-52s-6.3-37.4-17-52c10.7-14.6 17-32.5 17-52 0-17.7-5.2-34.2-14.2-48 9-13.8 14.2-30.3 14.2-48 0-48.6-39.4-88-88-88L104 64z"/></svg>