<svg xmlns="http://www.w3.org/2000/svg" viewBox="0 0 320 512"><path fill="currentColor" d="M96-32c-17.7 0-32 14.3-32 32 0 11.8 6.4 22.2 16 27.7l0 121.7C32.2 177.1 0 228.7 0 288L0 456c0 48.6 39.4 88 88 88l144 0c48.6 0 88-39.4 88-88l0-168c0-59.3-32.2-110.9-80-138.6l0-121.7c9.6-5.5 16-15.9 16-27.7 0-17.7-14.3-32-32-32L96-32zm32 64l64 0 0 132c0 9.4 5.5 18 14.1 21.9 38.9 17.6 65.9 56.7 65.9 102.1l0 168c0 22.1-17.9 40-40 40L88 496c-22.1 0-40-17.9-40-40l0-168c0-45.4 27-84.5 65.9-102.1 8.6-3.9 14.1-12.4 14.1-21.9l0-132zm96 320c0-21.2-28.9-64.5-47.9-90.6-8.1-11.1-24.2-11.1-32.3 0-19 26.1-47.9 69.4-47.9 90.6 0 31.6 28.7 64 64 64s64-32.4 64-64z"/></svg>