<svg xmlns="http://www.w3.org/2000/svg" viewBox="0 0 576 512"><path fill="currentColor" d="M554.7-39.3c8.2-2 16.8 .4 22.8 6.3s8.3 14.6 6.3 22.8l-32 128c-2.1 8.4-8.5 15-16.9 17.3s-17.3 0-23.4-6.2l-31.1-31.1-301.4 301.4 12.7 50.8 .6 3.1c.8 7.2-1.7 14.5-6.9 19.7l-64 64c-6.1 6.1-15 8.5-23.4 6.2s-14.8-8.9-16.9-17.3l-12.5-50-50-12.5c-8.4-2.1-15-8.5-17.3-16.9s0-17.3 6.2-23.4l64-64 2.3-2.1c5.8-4.4 13.3-6 20.4-4.2l50.8 12.7 301.4-301.4-31-31c-6.1-6.1-8.5-15-6.2-23.4s8.9-14.8 17.3-16.9l128-32zM459.2 187.1c50 93.4 35.9 212.1-42.4 291.3l16.7 16.7 1.7 1.8c7.7 9.4 7.1 23.3-1.7 32.1s-22.7 9.3-32.1 1.7l-1.8-1.7-141.1-141.1 33.9-33.9 90.5 90.5c59.3-60.1 72.8-148.5 40.5-221.4l35.9-35.9zM71.4 427l22.9 5.7 3.1 1c7.1 2.8 12.5 8.9 14.3 16.5l5.7 22.9 24.4-24.4-9.2-36.8-36.8-9.2-24.4 24.4zM66.1 127.6C145.2 49.4 264 35.3 357.4 85.2l-35.9 35.9c-73-32.3-161.4-18.9-221.5 40.5l90.5 90.5-33.9 33.9-141.1-141.1-1.7-1.8c-7.7-9.4-7.1-23.3 1.7-32.1s22.7-9.3 32.1-1.7l1.8 1.7 16.6 16.6zM479.4 29l36.1 36.1 12-48.1-48.1 12z"/></svg>