<svg xmlns="http://www.w3.org/2000/svg" viewBox="0 0 576 512"><path fill="currentColor" d="M208 512a208 208 0 1 1 0-416 208 208 0 1 1 0 416zM464 0c44.2 0 80 35.8 80 80l0 4.4c0 9.7-1.2 19.3-3.5 28.7l-9.4 37.4c-2.1 8.2-3.1 16.7-3.1 25.2l0 1c0 12.5 2.2 24.9 6.6 36.5l28.3 75.5c8.6 23 13.1 47.4 13.1 72 0 29.3-6.3 58.2-18.4 84.8L536 493.3c-5.2 11.4-16.6 18.7-29.1 18.7l-85.7 0c-12.5 0-23.9-7.3-29.1-18.7l-3.5-7.8c12.7-12.6 24-26.6 33.8-41.6l9.2 20.1 65.1 0 17.4-38.2c9.3-20.4 14.1-42.5 14.1-64.9 0-18.8-3.4-37.5-10-55.1l-28.3-75.6c-2.7-7.2-4.8-14.6-6.4-22.2l-38 0c-12.7-31.5-31.5-59.9-55-83.7l-2.8-11.2c-2.3-9.4-3.5-19-3.5-28.7l0-4.4c0-44.2 35.8-80 80-80zM208 144a160 160 0 1 0 0 320 160 160 0 1 0 0-320zM196 312a28 28 0 1 1 0-56 28 28 0 1 1 0 56zm-72-40a28 28 0 1 1 0-56 28 28 0 1 1 0 56zm72-48a28 28 0 1 1 0-56 28 28 0 1 1 0 56zM464 48c-17.7 0-32 14.3-32 32l0 4.4c0 5.7 .7 11.5 2.1 17.1l9.4 37.5c1.7 6.9 2.9 14 3.7 21.1l33.7 0c.7-7.1 1.9-14.2 3.7-21.1l9.4-37.5c1.4-5.6 2.1-11.3 2.1-17.1l0-4.4c0-17.7-14.3-32-32-32z"/></svg>