<svg xmlns="http://www.w3.org/2000/svg" viewBox="0 0 512 512"><path fill="currentColor" d="M256 0c-8.9 0-17 4.9-21.2 12.7s-3.7 17.3 1.2 24.6l10.8 16.3c.7 1.1 1.1 2.4 1.1 3.7 0 3.7-3 6.7-6.7 6.7L172 64c-42 0-76 34-76 76 0 4.7 .4 9.3 1.2 13.8-46.3 8.8-81.2 49.4-81.2 98.2 0 32.7 15.7 61.8 40 80l0 12c0 57.4 46.6 104 104 104l1.3 0-8.5 34.2c-1.8 7.2-.2 14.8 4.4 20.6S168.6 512 176 512l160 0c7.4 0 14.4-3.4 18.9-9.2s6.2-13.4 4.4-20.6l-8.5-34.2 1.3 0c57.4 0 104-46.6 104-104l0-12c24.3-18.2 40-47.3 40-80 0-49.1-35.3-89.9-82-98.4 1.3-5.7 2-11.6 2-17.6 0-75.1-60.9-136-136-136L256 0zM407.5 351.3C403.9 378.8 380.4 400 352 400l-32 0c-7.4 0-14.4 3.4-18.9 9.2s-6.2 13.4-4.4 20.6l8.5 34.2-98.5 0 8.5-34.2c1.8-7.2 .2-14.8-4.4-20.6S199.4 400 192 400l-32 0c-28.4 0-51.9-21.2-55.5-48.7 3.8 .4 7.6 .7 11.5 .7l280 0c3.9 0 7.7-.2 11.5-.7zM296 57.3c0-2.7-.2-5.3-.6-8 41.2 7.3 72.6 43.3 72.6 86.7 0 5.8-1.5 11.3-4.3 16L296 152c-13.3 0-24 10.7-24 24s10.7 24 24 24l100 0c28.7 0 52 23.3 52 52s-23.3 52-52 52l-280 0c-28.7 0-52-23.3-52-52s23.3-52 52-52l52 0c13.3 0 24-10.7 24-24s-10.7-24-24-24l-21.3 0c-1.7-3.6-2.7-7.7-2.7-12 0-15.5 12.5-28 28-28l69.3 0c30.2 0 54.7-24.5 54.7-54.7z"/></svg>