<svg xmlns="http://www.w3.org/2000/svg" viewBox="0 0 512 512"><path fill="currentColor" d="M112 128c-42.6 0-64-28.2-64-48s21.4-48 64-48 64 28.2 64 48-21.4 48-64 48zm0 48c52.2 0 96-30.6 108.5-72L488 104c13.3 0 24-10.7 24-24s-10.7-24-24-24L220.5 56C208 14.6 164.2-16 112-16 50.1-16 0 27 0 80s50.1 96 112 96zm64.5 282.9C172 447.1 163 437.6 151.5 432.5 90.4 404.8 48 343.3 48 272l416 0c0 71.3-42.4 132.8-103.5 160.5-11.5 5.2-20.4 14.7-25 26.4-1.2 3.1-4.2 5.1-7.5 5.1l-144 0c-3.3 0-6.3-2-7.5-5.1zM48 224c-26.5 0-48 21.5-48 48 0 90.8 54.1 169 131.7 204.2 8.1 21 28.4 35.8 52.3 35.8l144 0c23.8 0 44.2-14.9 52.3-35.8 77.7-35.2 131.7-113.4 131.7-204.2 0-26.5-21.5-48-48-48L48 224z"/></svg>