<svg xmlns="http://www.w3.org/2000/svg" viewBox="0 0 512 512"><path fill="currentColor" d="M152-16c13.3 0 24 10.7 24 24l0 8c0 17.6 8.3 34.2 22.4 44.8 26.2 19.6 41.6 50.5 41.6 83.2l0 8c0 13.3-10.7 24-24 24s-24-10.7-24-24l0-8c0-17.6-8.3-34.2-22.4-44.8-26.2-19.6-41.6-50.5-41.6-83.2l0-8c0-13.3 10.7-24 24-24zm-.5 448.5c11.5 5.2 20.4 14.7 25 26.4 1.2 3.1 4.2 5.1 7.5 5.1l144 0c3.3 0 6.3-2 7.5-5.1 4.5-11.7 13.5-21.2 25-26.4 61.1-27.7 103.5-89.2 103.5-160.5L48 272c0 71.3 42.4 132.8 103.5 160.5zM0 272c0-26.5 21.5-48 48-48l416 0c26.5 0 48 21.5 48 48 0 90.8-54.1 169-131.7 204.2-8.1 21-28.4 35.8-52.3 35.8l-144 0C160.2 512 139.8 497.1 131.7 476.2 54.1 441 0 362.8 0 272zM304 8l0 8c0 17.6 8.3 34.2 22.4 44.8 26.2 19.6 41.6 50.5 41.6 83.2l0 8c0 13.3-10.7 24-24 24s-24-10.7-24-24l0-8c0-17.6-8.3-34.2-22.4-44.8-26.2-19.6-41.6-50.5-41.6-83.2l0-8c0-13.3 10.7-24 24-24S304-5.3 304 8z"/></svg>