<svg xmlns="http://www.w3.org/2000/svg" viewBox="0 0 512 512"><path fill="currentColor" d="M176 40c0 13.3 10.7 24 24 24l16 0c13.3 0 24-10.7 24-24s-10.7-24-24-24l-16 0c-13.3 0-24 10.7-24 24zm24 48c-13.3 0-24 10.7-24 24s10.7 24 24 24l16 0c13.3 0 24-10.7 24-24s-10.7-24-24-24l-16 0zM56 160c-13.3 0-24 10.7-24 24s10.7 24 24 24l16 0c13.3 0 24-10.7 24-24s-10.7-24-24-24l-16 0zm88.7 260.6c-4-13.5-13.8-24.6-26.8-30.3-35.2-15.4-61.2-47.6-68.1-86.3l412.4 0c-6.9 38.7-32.9 70.9-68.1 86.3-12.9 5.7-22.7 16.7-26.8 30.3-2 6.6-8.2 11.4-15.3 11.4l-192 0c-7.2 0-13.4-4.8-15.3-11.4zM27.4 256C12.3 256 0 268.3 0 283.4 0 350.9 40.6 408.8 98.6 434.3 106.5 460.7 131 480 160 480l192 0c29 0 53.5-19.3 61.4-45.7 58.1-25.4 98.6-83.4 98.6-150.8 0-15.1-12.3-27.4-27.4-27.4L27.4 256zM224 184c0 13.3 10.7 24 24 24l16 0c13.3 0 24-10.7 24-24s-10.7-24-24-24l-16 0c-13.3 0-24 10.7-24 24zm-96 0c0 13.3 10.7 24 24 24l16 0c13.3 0 24-10.7 24-24s-10.7-24-24-24l-16 0c-13.3 0-24 10.7-24 24zM104 88c-13.3 0-24 10.7-24 24s10.7 24 24 24l16 0c13.3 0 24-10.7 24-24s-10.7-24-24-24l-16 0zm216 96c0 13.3 10.7 24 24 24l16 0c13.3 0 24-10.7 24-24s-10.7-24-24-24l-16 0c-13.3 0-24 10.7-24 24zM296 88c-13.3 0-24 10.7-24 24s10.7 24 24 24l16 0c13.3 0 24-10.7 24-24s-10.7-24-24-24l-16 0zm120 96c0 13.3 10.7 24 24 24l16 0c13.3 0 24-10.7 24-24s-10.7-24-24-24l-16 0c-13.3 0-24 10.7-24 24zM392 88c-13.3 0-24 10.7-24 24s10.7 24 24 24l16 0c13.3 0 24-10.7 24-24s-10.7-24-24-24l-16 0zM296 16c-13.3 0-24 10.7-24 24s10.7 24 24 24l16 0c13.3 0 24-10.7 24-24s-10.7-24-24-24l-16 0z"/></svg>