<svg xmlns="http://www.w3.org/2000/svg" viewBox="0 0 448 512"><path fill="currentColor" d="M368 192c0 5.4-.3 10.7-.9 16l48.2 0c.4-5.3 .7-10.6 .7-16 0-106-86-192-192-192S32 86 32 192c0 5.4 .2 10.7 .7 16l48.2 0c-.6-5.3-.9-10.6-.9-16 0-79.5 64.5-144 144-144s144 64.5 144 144zM24 256c-13.3 0-24 10.7-24 24l0 8c0 71.7 55.5 130.4 125.9 135.6l-20.4 56.2c-2.7 7.4-1.6 15.6 2.9 22S120.2 512 128 512l192 0c7.8 0 15.2-3.8 19.7-10.2s5.6-14.6 2.9-22l-20.4-56.2C392.5 418.4 448 359.7 448 288l0-8c0-13.3-10.7-24-24-24L24 256zM136 376c-43.1 0-79-31-86.5-72l349.1 0c-7.5 41-43.4 72-86.6 72l-24 0c-7.8 0-15.2 3.8-19.7 10.2s-5.6 14.6-2.9 22l20.3 55.8-123.5 0 20.3-55.8c2.7-7.4 1.6-15.6-2.9-22S167.8 376 160 376l-24 0z"/></svg>