<svg xmlns="http://www.w3.org/2000/svg" viewBox="0 0 512 512"><path fill="currentColor" d="M18.5 125.1C8.8 126.6 0 119.1 0 109.3 0 101.6 5.5 95 13.1 93.6L484.4 5.2c14.3-2.7 27.6 8.3 27.6 22.9 0 11.5-8.4 21.2-19.7 23l-473.8 74zM0 159.7c0-8.8 7-16 15.7-16.2l471.9-14.7c13.3-.4 24.4 10.3 24.4 23.6 0 13-10.6 23.6-23.6 23.6L16.2 176C7.3 176 0 168.7 0 159.7zM151.5 432.5c11.5 5.2 20.4 14.7 25 26.4 1.2 3.1 4.2 5.1 7.5 5.1l144 0c3.3 0 6.3-2 7.5-5.1 4.5-11.7 13.5-21.2 25-26.4 61.1-27.7 103.5-89.2 103.5-160.5L48 272c0 71.3 42.4 132.8 103.5 160.5zM0 272c0-26.5 21.5-48 48-48l416 0c26.5 0 48 21.5 48 48 0 90.8-54.1 169-131.7 204.2-8.1 21-28.4 35.8-52.3 35.8l-144 0C160.2 512 139.8 497.1 131.7 476.2 54.1 441 0 362.8 0 272z"/></svg>