<svg xmlns="http://www.w3.org/2000/svg" viewBox="0 0 512 512"><path fill="currentColor" d="M272 208c0 11 1.2 21.7 3.6 32l-31.6 0 0-128c0-11-9-20-20-20s-20 9-20 20l0 127.7-93.9-93.9c-7.8-7.8-20.5-7.8-28.3 0s-7.8 20.5 0 28.3L147.7 240 96 240c-53 0-96-43-96-96S43 48 96 48c8.7 0 17.2 1.2 25.3 3.4 17.2-39.6 56.8-67.4 102.7-67.4s85.5 27.7 102.7 67.4c8-2.2 16.5-3.4 25.3-3.4 19.9 0 38.3 6 53.6 16.4-74.7 5.3-133.6 67.6-133.6 143.6zM117.9 422.3c12.9 5.7 22.7 16.7 26.8 30.3 2 6.6 8.2 11.4 15.3 11.4l192 0c7.2 0 13.4-4.8 15.3-11.4 4-13.5 13.8-24.6 26.8-30.3 35.2-15.4 61.2-47.6 68.1-86.3L49.8 336c6.9 38.7 32.9 70.9 68.1 86.3zM0 315.4C0 300.3 12.3 288 27.4 288l457.1 0c15.1 0 27.4 12.3 27.4 27.4 0 67.4-40.6 125.4-98.6 150.8-7.9 26.4-32.4 45.7-61.4 45.7l-192 0c-29 0-53.5-19.3-61.4-45.7-58.1-25.4-98.6-83.4-98.6-150.8zM464 208c0-26.5-21.5-48-48-48s-48 21.5-48 48c0 12.3 4.6 23.5 12.2 32l-54.8 0c-3.5-10-5.5-20.8-5.5-32 0-53 43-96 96-96s96 43 96 96c0 11.2-1.9 22-5.5 32l-54.8 0c7.6-8.5 12.2-19.7 12.2-32z"/></svg>