<svg xmlns="http://www.w3.org/2000/svg" viewBox="0 0 512 512"><path fill="currentColor" d="M96 78L13.1 93.6c-7.6 1.4-13.1 8-13.1 15.7 0 9.8 8.8 17.3 18.5 15.8l77.5-12.1 0 28-80.3 2.5C7 143.8 0 151 0 159.7 0 168.7 7.3 176 16.2 176l79.8 0 0 48-48 0c-26.5 0-48 21.5-48 48 0 90.8 54.1 169 131.7 204.2 8.1 21 28.4 35.8 52.3 35.8l144 0c23.8 0 44.2-14.9 52.3-35.8 77.7-35.2 131.7-113.4 131.7-204.2 0-26.5-21.5-48-48-48l-224 0 0-184c0-13.3-10.7-24-24-24s-24 10.7-24 24l0 184-48 0 0-168c0-13.3-10.7-24-24-24S96 42.7 96 56l0 22zm192 57l0 41 200.4 0c13 0 23.6-10.6 23.6-23.6 0-13.3-11-24-24.4-23.6L288 135zm0-93l0 41 204.3-31.9c11.3-1.8 19.7-11.5 19.7-23 0-14.6-13.3-25.6-27.6-22.9L288 42zM151.5 432.5C90.4 404.8 48 343.3 48 272l416 0c0 71.3-42.4 132.8-103.5 160.5-11.5 5.2-20.4 14.7-25 26.4-1.2 3.1-4.2 5.1-7.5 5.1l-144 0c-3.3 0-6.3-2-7.5-5.1-4.5-11.7-13.5-21.2-25-26.4z"/></svg>