<svg xmlns="http://www.w3.org/2000/svg" viewBox="0 0 512 512"><path fill="currentColor" d="M0 176c0 11.7 3.1 22.6 8.6 32l494.9 0c5.4-9.4 8.6-20.3 8.6-32 0-35.3-28.7-64-64-64-.5 0-1.1 0-1.6 0-7.4-36.5-39.7-64-78.4-64-15 0-29 4.1-40.9 11.2-13.3-25.7-40.1-43.2-71.1-43.2s-57.8 17.6-71.1 43.2c-12-7.1-26-11.2-40.9-11.2-38.7 0-71 27.5-78.4 64-.5 0-1.1 0-1.6 0-35.3 0-64 28.7-64 64zM144.7 420.6c-4-13.5-13.8-24.6-26.8-30.3-35.2-15.4-61.2-47.6-68.1-86.3l412.4 0c-6.9 38.7-32.9 70.9-68.1 86.3-12.9 5.7-22.7 16.7-26.8 30.3-2 6.6-8.2 11.4-15.3 11.4l-192 0c-7.2 0-13.4-4.8-15.3-11.4zM27.4 256C12.3 256 0 268.3 0 283.4 0 350.9 40.6 408.8 98.6 434.3 106.5 460.7 131 480 160 480l192 0c29 0 53.5-19.3 61.4-45.7 58.1-25.4 98.6-83.4 98.6-150.8 0-15.1-12.3-27.4-27.4-27.4L27.4 256z"/></svg>