<svg xmlns="http://www.w3.org/2000/svg" viewBox="0 0 576 512"><path fill="currentColor" d="M408.5 256.1c66.3 0 120 53.7 120 120 0 24.4-7.4 47.2-19.9 66.1l60.9 60.9c9.4 9.4 9.4 24.6 0 33.9-8.8 8.8-22.7 9.3-32.1 1.7l-1.8-1.7-60.9-60.9c-19 12.6-41.7 19.9-66.2 19.9-66.3 0-120-53.7-120-120s53.7-120 120-120zM367.6 16c20.7 0 40.1 10 52.1 26.8l48.9 68.5c7.7 10.8 11.9 23.9 11.9 37.2l0 75.7c-14.9-7.1-31.1-12-48-14.4l0-33.7-352 0 0 240c0 8.8 7.2 16 16 16l153.6 0c6.2 17.5 15.2 33.7 26.5 48l-180.1 0-6.5-.3c-30.1-3.1-54.1-27-57.1-57.1l-.3-6.5 0-267.5c0-11.7 3.2-23.1 9.2-33l2.7-4.2 48.9-68.5c10.5-14.7 26.7-24.2 44.4-26.3l7.7-.5 222.1 0zm40.9 288.1a72 72 0 1 0 0 144 72 72 0 1 0 0-144zM145.4 64c-5.2 0-10 2.5-13 6.7l-40.9 57.3 330.1 0-40.9-57.3c-3-4.2-7.9-6.7-13-6.7L145.4 64z"/></svg>