<svg xmlns="http://www.w3.org/2000/svg" viewBox="0 0 448 512"><path fill="currentColor" d="M48 176l0 240c0 8.8 7.2 16 16 16l320 0c8.8 0 16-7.2 16-16l0-240-352 0zm200-48l141 0-40.9-57.3c-3-4.2-7.9-6.7-13-6.7l-87.1 0 0 64zM200 64l-87.1 0c-5.2 0-10 2.5-13 6.7L59 128 200 128 200 64zM0 148.5c0-13.3 4.2-26.3 11.9-37.2L60.9 42.8C72.9 26 92.3 16 112.9 16l222.1 0c20.7 0 40.1 10 52.1 26.8l48.9 68.5c7.8 10.9 11.9 23.9 11.9 37.2L448 416c0 35.3-28.7 64-64 64L64 480c-35.3 0-64-28.7-64-64L0 148.5zM207 393l-64-64c-9.4-9.4-9.4-24.6 0-33.9s24.6-9.4 33.9 0l23 23 0-86.1c0-13.3 10.7-24 24-24s24 10.7 24 24l0 86.1 23-23c9.4-9.4 24.6-9.4 33.9 0s9.4 24.6 0 33.9l-64 64c-9.4 9.4-24.6 9.4-33.9 0z"/></svg>