<svg xmlns="http://www.w3.org/2000/svg" viewBox="0 0 576 512"><path fill="currentColor" d="M256.7 16c-7.1 14.9-12 31.1-14.4 48l-96.8 0c-5.2 0-10 2.5-13 6.7L91.5 128 245.3 128c4.2 17.2 11 33.3 20.1 48l-184.9 0 0 240c0 8.8 7.2 16 16 16l320 0c8.8 0 16-7.2 16-16l0-161.8c11.2-1.6 22.1-4.3 32.5-8l15.5 15.5 0 154.2-.3 6.5c-3.1 30.1-27 54.1-57.1 57.1l-6.5 .3-320 0-6.5-.3c-30.1-3.1-54.1-27-57.1-57.1l-.3-6.5 0-267.5c0-11.7 3.2-23.1 9.2-33l2.7-4.2 48.9-68.5c10.5-14.7 26.7-24.2 44.4-26.3l7.7-.5 111.2 0zm-.2 192c13.3 0 24 10.7 24 24l0 86.1 23-23c9.4-9.4 24.6-9.4 33.9 0s9.4 24.6 0 33.9l-64 64-1.8 1.7c-9.4 7.7-23.3 7.1-32.1-1.7l-64-64-1.7-1.8c-7.7-9.4-7.1-23.3 1.7-32.1s22.7-9.3 32.1-1.7l1.8 1.7 23 23 0-86.1c0-13.3 10.7-24 24-24zm152-239.9c66.3 0 120 53.7 120 120 0 24.4-7.4 47.2-19.9 66.1l60.9 60.9c9.4 9.4 9.4 24.6 0 33.9-8.8 8.8-22.7 9.3-32.1 1.7l-1.8-1.7-60.9-60.9c-19 12.6-41.7 19.9-66.2 19.9-66.3 0-120-53.7-120-120s53.7-120 120-120zm0 48a72 72 0 1 0 0 144 72 72 0 1 0 0-144z"/></svg>