<svg xmlns="http://www.w3.org/2000/svg" viewBox="0 0 512 512"><path fill="currentColor" d="M232 270.1L64 176.8 64 346.3c0 14.5 7.9 27.9 20.6 35l147.4 81.9 0-193.1zM145.4 96.9l-63.1 35.1 173.8 96.5 62.1-34.5-170.7-96-2-1.1zm49.3-27.4l172.7 97.1 62.5-34.7-154.4-85.8c-12.1-6.7-26.8-6.7-38.9 0L194.6 69.6zM280 270.1l0 193.1 147.4-81.9c12.7-7.1 20.6-20.4 20.6-35l0-169.6-168 93.3zm18.7 237.6c-26.6 14.8-58.9 14.8-85.5 0l-152-84.4C33.3 407.8 16 378.3 16 346.3L16 161c0-29.1 15.8-55.8 41.1-69.9L213.2 4.3c26.6-14.8 58.9-14.8 85.5 0L454.8 91C480.2 105.1 496 131.9 496 161l0 185.4c0 32-17.3 61.4-45.3 76.9l-152 84.4z"/></svg>