<svg xmlns="http://www.w3.org/2000/svg" viewBox="0 0 512 512"><path fill="currentColor" d="M167.4 304l-44.8-224 130.9 0 13.8 41.3C278.1 154 308.6 176 343.1 176l41.3 0-36.6 128-180.4 0zM264.9 32L103 32C82.8 32 67.7 50.5 71.7 70.3l51.2 256c3 15 16.1 25.7 31.4 25.7l205.6 0c14.3 0 26.8-9.5 30.8-23.2l45.7-160c5.8-20.4-9.5-40.8-30.8-40.8l-62.5 0c-13.8 0-26-8.8-30.4-21.9L295.3 53.9C290.9 40.8 278.7 32 264.9 32zM59.8 256L48 256c-26.5 0-48 21.5-48 48L0 432c0 26.5 21.5 48 48 48l416 0c26.5 0 48-21.5 48-48l0-128c0-26.5-21.5-48-48-48l-2.6 0-13.7 48 16.4 0 0 128-416 0 0-128 21.4 0-9.6-48z"/></svg>