<svg xmlns="http://www.w3.org/2000/svg" viewBox="0 0 512 512"><path fill="currentColor" d="M232 463.2L84.6 381.3c-12.7-7.1-20.6-20.4-20.6-35l0-169.6 168 93.3 0 193.1zm71-260.8L256 228.5 82.2 132 130.3 105.3 303 202.4zM210.8 60.6l25.8-14.3c12.1-6.7 26.8-6.7 38.9 0l154.4 85.8-46.3 25.7-172.7-97.1zM336 239l0 86.1c0 12.2 13.2 19.9 23.8 13.9l39.8-22.4c10.1-5.7 16.3-16.3 16.3-27.9l0-94.2 32-17.8 0 169.6c0 14.5-7.9 27.9-20.6 35L280 463.2 280 270.1 336 239zM213.2 507.7c26.6 14.8 58.9 14.8 85.5 0l152-84.4c27.9-15.5 45.3-45 45.3-76.9l0-185.4c0-29.1-15.8-55.8-41.2-69.9L298.7 4.3c-26.6-14.8-58.9-14.8-85.5 0L57.1 91C31.8 105.1 16 131.9 16 160.9l0 185.4c0 32 17.3 61.4 45.3 76.9l152 84.4z"/></svg>