<svg xmlns="http://www.w3.org/2000/svg" viewBox="0 0 576 512"><path fill="currentColor" d="M264 362.5l0 100.7-147.4-81.9c-12.7-7.1-20.6-20.4-20.6-35l0-41 116.9 66.8c17.5 10 39.1 5.3 51-9.7zm-7.1-96.3l-27.7 60-181-103.4 30.1-55.8 178.6 99.2zM114.2 132L268.6 46.2c12.1-6.7 26.8-6.7 38.8 0L461.8 132 288 228.5 114.2 132zM528 214.6l3.4 5.7c6.8 11.4 21.6 15.1 32.9 8.2s15-21.6 8.2-32.9l-41.4-69c-6.5-10.8-15.7-19.8-26.8-25.9L330.8 4.3c-26.6-14.8-58.9-14.8-85.5 0L72.6 100.2c-12 6.7-21.9 16.7-28.4 28.8L2.3 206.9C-8 226-1.2 249.8 17.7 260.6l30.4 17.4 0 68.4c0 32 17.3 61.4 45.3 76.9l152 84.4c26.6 14.8 58.9 14.8 85.5 0l152-84.4c27.9-15.5 45.3-45 45.3-76.9l0-131.7zM312 270.1l168-93.3 0 169.6c0 14.5-7.9 27.9-20.6 35L312 463.2 312 270.1z"/></svg>