<svg xmlns="http://www.w3.org/2000/svg" viewBox="0 0 448 512"><path fill="currentColor" d="M48 176l0 240c0 8.8 7.2 16 16 16l320 0c8.8 0 16-7.2 16-16l0-240-352 0zm200-48l141 0-40.9-57.3c-3-4.2-7.9-6.7-13-6.7l-87.1 0 0 64zM200 64l-87.1 0c-5.2 0-10 2.5-13 6.7L59 128 200 128 200 64zM0 148.5c0-13.3 4.2-26.3 11.9-37.2L60.9 42.8C72.9 26 92.3 16 112.9 16l222.1 0c20.7 0 40.1 10 52.1 26.8l48.9 68.5c7.8 10.9 11.9 23.9 11.9 37.2L448 416c0 35.3-28.7 64-64 64L64 480c-35.3 0-64-28.7-64-64L0 148.5zM228 200c11 0 20 9 20 20l0 4 8 0c11 0 20 9 20 20s-9 20-20 20l-43.4 0c-4.7 0-8.6 3.8-8.6 8.6 0 4.1 2.9 7.6 6.9 8.4l34.1 6.8c22.7 4.5 39 24.5 39 47.6 0 22.5-15.3 41.4-36 46.9l0 5.6c0 11-9 20-20 20s-20-9-20-20l0-4-16 0c-11 0-20-9-20-20s9-20 20-20l43.4 0c4.7 0 8.6-3.8 8.6-8.6 0-4.1-2.9-7.6-6.9-8.4L203 320.2c-22.7-4.5-39-24.5-39-47.6 0-25.3 19.3-46.1 44-48.4l0-4.2c0-11 9-20 20-20z"/></svg>