<svg xmlns="http://www.w3.org/2000/svg" viewBox="0 0 448 512"><path fill="currentColor" d="M335.1 16c20.7 0 40.1 10 52.1 26.8l48.9 68.5c7.7 10.8 11.9 23.9 11.9 37.2L448 416c0 35.3-28.7 64-64 64L64 480c-35.3 0-64-28.7-64-64L0 148.5c0-13.3 4.2-26.3 11.9-37.2L60.8 42.8C72.9 26 92.3 16 112.9 16l222.1 0zM48 416c0 8.8 7.2 16 16 16l320 0c8.8 0 16-7.2 16-16l0-240-352 0 0 240zM288.8 213.4c9.4-7.7 23.3-7.1 32.1 1.7l40 40c6.9 6.9 8.9 17.2 5.2 26.2S353.7 296 344 296l-16 0 0 80c0 13.3-10.7 24-24 24s-24-10.7-24-24l0-80-16 0c-9.7 0-18.5-5.8-22.2-14.8s-1.6-19.3 5.2-26.2l40-40 1.8-1.7zM144 208c13.3 0 24 10.7 24 24l0 80 16 0c9.7 0 18.5 5.8 22.2 14.8s1.6 19.3-5.2 26.2l-40 40c-8.8 8.8-22.7 9.3-32.1 1.7L127 393 87 353c-6.9-6.9-8.9-17.2-5.2-26.2S94.3 312 104 312l16 0 0-80c0-13.3 10.7-24 24-24zM112.9 64c-5.2 0-10 2.5-13 6.7l-40.9 57.3 141 0 0-64-87.1 0zM248 128l141 0-40.9-57.3c-3-4.2-7.9-6.7-13-6.7l-87.1 0 0 64z"/></svg>