<svg xmlns="http://www.w3.org/2000/svg" viewBox="0 0 512 512"><path fill="currentColor" d="M336 48c8.8 0 16 7.2 16 16l0 112 48 0 0-112c0-35.3-28.7-64-64-64L176 0c-35.3 0-64 28.7-64 64l0 112 48 0 0-112c0-8.8 7.2-16 16-16l32 0 0 56c0 13.3 10.7 24 24 24l48 0c13.3 0 24-10.7 24-24l0-56 32 0zM315.9 512L448 512c35.3 0 64-28.7 64-64l0-160c0-35.3-28.7-64-64-64l-132.1 0c12.7 18.1 20.1 40.2 20.1 64l0 62.6c2.5 .9 5.2 1.4 8 1.4l48 0c13.3 0 24-10.7 24-24l0-56 32 0c8.8 0 16 7.2 16 16l0 160c0 8.8-7.2 16-16 16l-113.1 0c-2.5 17.7-9.2 34-18.9 48zM240 288l0 160c0 0 0 0 0 .1 0 8.8-7.2 15.9-16 15.9L64 464c-8.8 0-16-7.2-16-16l0-160c0-8.8 7.2-16 16-16l32 0 0 56c0 13.3 10.7 24 24 24l48 0c13.3 0 24-10.7 24-24l0-56 32 0c8.8 0 15.9 7.1 16 15.9l0 .1zM64 224c-35.3 0-64 28.7-64 64L0 448c0 35.3 28.7 64 64 64l160 0c35.3 0 64-28.7 64-64l0-160c0-35.3-28.7-64-64-64L64 224z"/></svg>