<svg xmlns="http://www.w3.org/2000/svg" viewBox="0 0 576 512"><path fill="currentColor" d="M143.5 60.7c2.6-13-5.8-25.6-18.8-28.2S99.1 38.3 96.5 51.3L60.3 232.1c-27.3 26.2-44.3 63.1-44.3 103.9 0 79.5 64.5 144 144 144 49.9 0 93.9-25.4 119.8-64l16.5 0c25.8 38.6 69.8 64 119.8 64 79.5 0 144-64.5 144-144 0-40.8-17-77.7-44.3-103.9L479.5 51.3c-2.6-13-15.2-21.4-28.2-18.8s-21.4 15.2-18.8 28.2l37.3 186.6-14.7 5.9c-56.8 22.7-106 61.3-141.6 111.1l-2.6 3.7-45.7 0-2.6-3.7c-35.6-49.8-84.7-88.4-141.6-111.1l-14.7-5.9 37.3-186.6zm79.9 331.5l6.7 9.4c-17.6 18.8-42.5 30.4-70.1 30.4-53 0-96-43-96-96 0-17.8 4.8-34.4 13.2-48.6l25.9 10.4c48.3 19.3 90.1 52.1 120.3 94.5zm129.1 0c30.2-42.3 72-75.1 120.3-94.5l25.9-10.4c8.4 14.3 13.2 30.9 13.2 48.6 0 53-43 96-96 96-27.6 0-52.6-11.7-70.1-30.4l6.7-9.4z"/></svg>