<svg xmlns="http://www.w3.org/2000/svg" viewBox="0 0 640 512"><path fill="currentColor" d="M264 0c-36.6 0-67.5 24.6-77 58.1-47.4 9.7-83 51.6-83 101.9 0 11.3 1.8 22.2 5.1 32.3-22.7 19.1-37.1 47.7-37.1 79.7 0 23.7 8 45.6 21.3 63.1-3.5 10.4-5.3 21.4-5.3 32.9 0 54 41.2 98.5 93.9 103.5 15.6 24.3 42.9 40.5 74.1 40.5 19.4 0 37.2-6.2 51.8-16.8-7.6-14.2-14.1-31-17.4-50.7-7 11.7-19.8 19.5-34.4 19.5-16.8 0-31.2-10.3-37.1-25.1-3.8-9.6-13.3-15.6-23.6-15-1.1 .1-2.2 .1-3.2 .1-30.9 0-56-25.1-56-56 0-9.5 2.4-18.5 6.5-26.3 5.1-9.6 3.1-21.4-4.8-28.8-11-10.2-17.8-24.8-17.8-40.9 0-21.6 12.2-40.4 30.3-49.8 5.9-3 10.2-8.4 12-14.7s.9-13.2-2.5-18.9c-5-8.4-7.9-18.1-7.9-28.6 0-30.9 25.1-56 56-56 13.3 0 24-10.7 24-24 0-17.7 14.3-32 32-32s32 14.3 32 32l0 285.9c9.2-28.1 26-52.7 48-71.5L344 80c0-17.7 14.3-32 32-32s32 14.3 32 32c0 13.3 10.7 24 24 24 30.9 0 56 25.1 56 56 0 10.5-2.9 20.3-7.9 28.6-3.4 5.7-4.3 12.5-2.5 18.9 .6 2.1 1.5 4.1 2.6 5.9 6.3-7 14.2-12.8 23.3-16.5 8.9-3.7 18.2-5.2 27.4-4.8 3.3-10.1 5-20.9 5-32.1 0-50.3-35.6-92.2-83-101.9-9.5-33.5-40.4-58.1-77-58.1-21.8 0-41.6 8.7-56 22.9-14.4-14.1-34.2-22.9-56-22.9zM635.3 340.7l-96-96C529.4 234.8 512 242 512 256l0 48-64 0c-61.9 0-112 50.1-112 112 0 54.3 34.6 85.6 45 93.8 7.6 6 19-.8 19-10.1l0-35.7c0-35.3 28.7-64 64-64l48 0 0 48c0 14 17.4 21.2 27.3 11.3l96-96c6.2-6.2 6.2-16.4 0-22.6z"/></svg>