<svg xmlns="http://www.w3.org/2000/svg" viewBox="0 0 512 512"><path fill="currentColor" d="M200 0c-36.6 0-67.5 24.6-77 58.1-47.4 9.7-83 51.6-83 101.9 0 11.3 1.8 22.2 5.1 32.3-22.7 19.1-37.1 47.7-37.1 79.7 0 23.7 8 45.6 21.3 63.1-3.5 10.4-5.3 21.4-5.3 32.9 0 54 41.2 98.5 93.9 103.5 15.6 24.3 42.9 40.5 74.1 40.5 25.2 0 48-10.6 64-27.6 16 17 38.8 27.6 64 27.6 31.1 0 58.4-16.2 74.1-40.5 52.7-5.1 93.9-49.5 93.9-103.5 0-11.5-1.9-22.5-5.3-32.9 13.4-17.5 21.3-39.4 21.3-63.1 0-32-14.5-60.6-37.1-79.7 3.3-10.2 5.1-21.1 5.1-32.3 0-50.3-35.6-92.2-83-101.9-9.5-33.5-40.4-58.1-77-58.1-21.8 0-41.6 8.7-56 22.9-14.4-14.1-34.2-22.9-56-22.9zm32 80l0 347.1c-.1 .6-.2 1.2-.3 1.9-2.5 19.7-19.3 35-39.7 35-16.8 0-31.2-10.3-37.1-25.1-3.8-9.6-13.3-15.6-23.6-15-1.1 .1-2.2 .1-3.2 .1-30.9 0-56-25.1-56-56 0-9.5 2.4-18.5 6.5-26.3 5.1-9.6 3.1-21.4-4.8-28.8-11-10.2-17.8-24.8-17.8-40.9 0-21.6 12.2-40.4 30.3-49.8 5.9-3 10.2-8.4 12-14.7s.9-13.2-2.5-18.9c-5-8.4-7.9-18.1-7.9-28.6 0-30.9 25.1-56 56-56 13.3 0 24-10.7 24-24 0-17.7 14.3-32 32-32s32 14.3 32 32zm48 347.1L280 80c0-17.7 14.3-32 32-32s32 14.3 32 32c0 13.3 10.7 24 24 24 30.9 0 56 25.1 56 56 0 10.5-2.9 20.3-7.9 28.6-3.4 5.7-4.3 12.5-2.5 18.9s6.2 11.7 12 14.7c18 9.3 30.3 28.1 30.3 49.8 0 16.1-6.8 30.7-17.8 40.9-7.9 7.4-9.9 19.2-4.8 28.8 4.2 7.8 6.5 16.7 6.5 26.3 0 30.9-25.1 56-56 56-1.1 0-2.2 0-3.2-.1-10.3-.6-19.8 5.5-23.6 15-5.9 14.7-20.4 25.1-37.1 25.1-20.4 0-37.2-15.3-39.7-35-.1-.6-.2-1.3-.3-1.9z"/></svg>