<svg xmlns="http://www.w3.org/2000/svg" viewBox="0 0 640 512"><path fill="currentColor" d="M320 480a224 224 0 1 1 0-448 224 224 0 1 1 0 448zM50.8 83c7.2-11.1 22-14.4 33.2-7.2 11.1 7.2 14.4 22 7.2 33.2-27.3 42.4-43.1 92.8-43.1 147S63.8 360.6 91.1 403c7.2 11.1 4 26-7.2 33.2-11.1 7.2-26 3.9-33.2-7.2-32.1-49.9-50.8-109.3-50.8-173S18.6 132.9 50.8 83zm505.3-7.2c11.1-7.2 26-3.9 33.2 7.2 32.1 49.9 50.7 109.3 50.7 173s-18.6 123.1-50.7 173c-7.2 11.1-22 14.4-33.2 7.2-11.1-7.2-14.4-22-7.2-33.2 27.3-42.4 43.1-92.8 43.1-147s-15.8-104.6-43.1-147c-7.2-11.1-4-26 7.2-33.2zM320 80a176 176 0 1 0 0 352 176 176 0 1 0 0-352zm0 304a32 32 0 1 1 0-64 32 32 0 1 1 0 64zm0-256c18.2 0 32.7 15.5 31.4 33.7l-7.4 104c-.9 12.6-11.4 22.3-23.9 22.3-12.6 0-23-9.7-23.9-22.3l-7.4-104C287.3 143.5 301.8 128 320 128z"/></svg>