<svg xmlns="http://www.w3.org/2000/svg" viewBox="0 0 512 512"><path fill="currentColor" d="M408 16c13.3 0 24 10.7 24 24l0 24 16 0c13.3 0 24 10.7 24 24s-10.7 24-24 24l-53.1 0c-32.5 0-58.9 26.3-58.9 58.9 0 28.4 20.3 52.8 48.3 57.9l39.9 7.3c50.8 9.2 87.7 53.5 87.7 105.1 0 49.7-34 91.5-80 103.4l0 27.4c0 13.3-10.7 24-24 24s-24-10.7-24-24l0-24-48 0c-13.3 0-24-10.7-24-24s10.7-24 24-24l69.1 0c32.5 0 58.9-26.3 58.9-58.9 0-28.4-20.3-52.8-48.3-57.9L375.7 276c-50.8-9.2-87.7-53.5-87.7-105.1 0-55.3 42.1-100.9 96-106.3L384 40c0-13.3 10.7-24 24-24zM0 56C0 42.7 10.7 32 24 32l96 0c75.1 0 136 60.9 136 136 0 54.4-32 101.4-78.1 123.1l45.2 158.3c3.6 12.7-3.7 26-16.5 29.7s-26-3.7-29.7-16.5L131.5 303.5c-3.8 .3-7.6 .5-11.5 .5l-72 0 0 152c0 13.3-10.7 24-24 24S0 469.3 0 456L0 56zM48 256l72 0c48.6 0 88-39.4 88-88s-39.4-88-88-88l-72 0 0 176z"/></svg>