<svg xmlns="http://www.w3.org/2000/svg" viewBox="0 0 576 512"><path fill="currentColor" d="M152 80l96 0c57.4 0 104 46.6 104 104l0 31c0 3.7-2.5 6.9-6.1 7.8l-7.8 1.9C327.5 227.4 320 237 320 248l0 144c0 22.1-17.9 40-40 40l-160 0c-22.1 0-40-17.9-40-40l0-144c0-11-7.5-20.6-18.2-23.3l-7.8-1.9c-3.6-.9-6.1-4.1-6.1-7.8l0-31C48 126.6 94.6 80 152 80zM120 480l336 0c48.6 0 88-39.4 88-88l0-120.8c18.3-3.7 32-19.8 32-39.2l0-48c0-83.9-68.1-152-152-152L152 32C68.1 32 0 100.1 0 184l0 31c0 21.9 12.8 41.5 32 50.6L32 392c0 48.6 39.4 88 88 88zm336-48l-97.6 0c6.1-12 9.6-25.6 9.6-40l0-120 128 0 0 120c0 22.1-17.9 40-40 40zM399.3 224c.5-2.9 .7-5.9 .7-9l0-31c0-40.2-15.6-76.8-41.1-104L424 80c57.4 0 104 46.6 104 104l0 40-128.7 0z"/></svg>