<svg xmlns="http://www.w3.org/2000/svg" viewBox="0 0 512 512"><path fill="currentColor" d="M112 256l0 176 288 0 0-176c0-26.5 21.5-48 48-48 8.8 0 16-7.2 16-16 0-31.6-17.5-58.5-55.6-79.9-38.9-21.9-94.2-34.4-152.4-34.4S142.5 90.1 103.6 112.1c-38.1 21.5-55.6 48.4-55.6 79.9 0 8.8 7.2 16 16 16 26.5 0 48 21.5 48 48zm336 0l0 176c0 26.5-21.5 48-48 48l-288 0c-26.5 0-48-21.5-48-48l0-176c-35.3 0-64-28.7-64-64 0-216.5 512-216.5 512 0 0 35.3-28.7 64-64 64zm-265.4 9.4l50.7-50.7c12.5-12.5 32.8-12.5 45.3 0l50.7 50.7c12.5 12.5 12.5 32.8 0 45.3l-50.7 50.7c-12.5 12.5-32.8 12.5-45.3 0l-50.7-50.7c-12.5-12.5-12.5-32.8 0-45.3z"/></svg>