<svg xmlns="http://www.w3.org/2000/svg" viewBox="0 0 640 512"><path fill="currentColor" d="M64 88c0-13.3 10.7-24 24-24l464 0c13.3 0 24 10.7 24 24l0 88c0 9.1-5.1 17.4-13.3 21.5l-3.8 1.9c-19 9.5-31 28.9-31 50.1l0 93.5c-15.1-9.3-31.3-15.7-48-19.4l0-74.1c0-35.7 18.3-68.7 48-87.6l0-49.8-416 0 0 49.8c29.7 19 48 51.9 48 87.6l0 78.6c-15.6 5.2-30.6 13-44.3 23.4-1.3 .9-2.5 1.8-3.7 2.7l0-104.6c0-21.2-12-40.6-31-50.1l-3.8-1.9C69.1 193.4 64 185.1 64 176l0-88zM432 288l0 32.7c-16.4 1.6-32.6 5.8-48 12.7l0-45.4c0-35.3-28.7-64-64-64s-64 28.7-64 64l0 39.3c-15.6-5-31.8-7.4-48-7.3l0-32c0-61.9 50.1-112 112-112s112 50.1 112 112zM403.4 444.1C379.1 462.3 351.1 480 320 480s-59.1-17.7-83.4-35.9c-21.3-16.1-49.9-16.1-71.2 0-23.8 17.9-54.1 35.5-88.1 35.3-20.4-.1-40.7-6.7-59.8-21.1-10.6-8-12.7-23-4.7-33.6s23-12.7 33.6-4.7c11.3 8.5 21.6 11.4 31.2 11.5 17.6 .1 37.3-9.4 58.9-25.7 38.4-29 90.5-29 129 0 24 18.1 40.7 26.3 54.5 26.3s30.5-8.2 54.5-26.3c38.4-29 90.5-29 129 0 16.9 12.7 32.9 21.5 47.8 24.6 13.7 2.8 27.4 .9 42.3-10.3 10.6-8 25.6-5.9 33.6 4.7s5.9 25.6-4.7 33.6c-26.4 19.9-54.2 24.4-80.7 19.1-25.3-5.1-48.1-18.9-67.2-33.3-21.3-16.1-49.9-16.1-71.2 0z"/></svg>