<svg xmlns="http://www.w3.org/2000/svg" viewBox="0 0 512 512"><path fill="currentColor" d="M24 32C10.7 32 0 42.7 0 56S10.7 80 24 80l16 0 0 64-16 0c-13.3 0-24 10.7-24 24l0 88c0 9.1 5.1 17.4 13.3 21.5l3.8 1.9c19 9.5 31 28.9 31 50.1L48 440c0 22.1 17.9 40 40 40l64 0c22.1 0 40-17.9 40-40l0-72c0-35.3 28.7-64 64-64s64 28.7 64 64l0 72c0 22.1 17.9 40 40 40l64 0c22.1 0 40-17.9 40-40l0-110.6c0-21.2 12-40.6 31-50.1l3.8-1.9c8.1-4.1 13.3-12.4 13.3-21.5l0-88c0-13.3-10.7-24-24-24l-16 0 0-64 16 0c13.3 0 24-10.7 24-24s-10.7-24-24-24L24 32zM424 80l0 64-80 0 0-64 80 0zM296 80l0 64-80 0 0-64 80 0zM168 80l0 64-80 0 0-64 80 0zm24 112l272 0 0 49.8c-29.7 19-48 51.9-48 87.6l0 102.6-48 0 0-64c0-61.9-50.1-112-112-112S144 306.1 144 368l0 64-48 0 0-102.6c0-35.7-18.3-68.7-48-87.6l0-49.8 144 0z"/></svg>