<svg xmlns="http://www.w3.org/2000/svg" viewBox="0 0 576 512"><path fill="currentColor" d="M24 32C10.7 32 0 42.7 0 56S10.7 80 24 80l16 0 0 64-16 0c-13.3 0-24 10.7-24 24l0 88c0 9.1 5.1 17.4 13.3 21.5l3.8 1.9c19 9.5 31 28.9 31 50.1L48 440c0 22.1 17.9 40 40 40l64 0c22.1 0 40-17.9 40-40l0-72c0-35.3 28.7-64 64-64 29.3 0 54 19.7 61.6 46.6 5-8.3 11.2-15.8 18.4-22.2l0-24.4c0-4.6 .2-9.2 .7-13.6-20.4-21.2-49-34.4-80.7-34.4-61.9 0-112 50.1-112 112l0 64-48 0 0-102.6c0-35.7-18.3-68.7-48-87.6l0-49.8 354 0c18.4-10.2 39.5-16 62-16 17 0 33.2 3.3 48 9.3l0-17.3c0-13.3-10.7-24-24-24l-16 0 0-64 16 0c13.3 0 24-10.7 24-24s-10.7-24-24-24L24 32zM424 80l0 64-80 0 0-64 80 0zM296 80l0 64-80 0 0-64 80 0zM168 80l0 64-80 0 0-64 80 0zM496 304.1l0 47.9-64 0 0-47.9c0-17.7 14.3-32 32-32s32 14.3 32 32zM352 400l0 96c0 26.5 21.5 48 48 48l128 0c26.5 0 48-21.5 48-48l0-96c0-20.9-13.4-38.7-32-45.3l0-50.6c0-44.2-35.8-80-80-80s-80 35.8-80 80l0 50.6c-18.6 6.6-32 24.4-32 45.3z"/></svg>