<svg xmlns="http://www.w3.org/2000/svg" viewBox="0 0 576 512"><path fill="currentColor" d="M24 32C10.7 32 0 42.7 0 56S10.7 80 24 80l16 0 0 64-16 0c-13.3 0-24 10.7-24 24l0 88c0 9.1 5.1 17.4 13.3 21.5l3.8 1.9c19 9.5 31 28.9 31 50.1L48 440c0 22.1 17.9 40 40 40l64 0c22.1 0 40-17.9 40-40l0-72c0-35.3 28.7-64 64-64 3.2 0 6.3 .2 9.3 .7 8.6-15.1 19.3-28.9 31.5-41-12.6-5-26.4-7.7-40.8-7.7-61.9 0-112 50.1-112 112l0 64-48 0 0-102.6c0-35.7-18.3-68.7-48-87.6l0-49.8 416 0 0 18.7c16.8 2.8 32.9 7.8 48 14.8l0-57.4c0-13.3-10.7-24-24-24l-16 0 0-64 16 0c13.3 0 24-10.7 24-24s-10.7-24-24-24L24 32zM424 80l0 64-80 0 0-64 80 0zM296 80l0 64-80 0 0-64 80 0zM168 80l0 64-80 0 0-64 80 0zM432 544a144 144 0 1 0 0-288 144 144 0 1 0 0 288zm59.3-180.7l-36.7 36.7 36.7 36.7c6.2 6.2 6.2 16.4 0 22.6s-16.4 6.2-22.6 0l-36.7-36.7-36.7 36.7c-6.2 6.2-16.4 6.2-22.6 0s-6.2-16.4 0-22.6l36.7-36.7-36.7-36.7c-6.2-6.2-6.2-16.4 0-22.6s16.4-6.2 22.6 0l36.7 36.7 36.7-36.7c6.2-6.2 16.4-6.2 22.6 0s6.2 16.4 0 22.6z"/></svg>