<svg xmlns="http://www.w3.org/2000/svg" viewBox="0 0 512 512"><path fill="currentColor" d="M73.4 15.9c-.7 1.9-1.1 3.9-1.3 6-4.1 37.6-27.5 71.3-60.9 92.4-11.2 7.1-14.6 21.9-7.5 33.1s21.9 14.6 33.1 7.5c12.8-8.1 24.6-17.7 35.2-28.6l0 113.7-48 0c-13.3 0-24 10.7-24 24l0 88c0 9.1 5.1 17.4 13.3 21.5l3.8 1.9c19 9.5 31 28.9 31 50.1L48 472c0 22.1 17.9 40 40 40l64 0c22.1 0 40-17.9 40-40l0-8c0-35.3 28.7-64 64-64s64 28.7 64 64l0 8c0 22.1 17.9 40 40 40l64 0c22.1 0 40-17.9 40-40l0-46.6c0-21.2 12-40.6 31-50.1l3.8-1.9c8.1-4.1 13.3-12.4 13.3-21.5l0-88c0-13.3-10.7-24-24-24l-48 0 0-112.3c10.5 10.8 22.4 20.4 35.4 28.4 11.3 6.9 26.1 3.4 33-7.9s3.4-26.1-7.9-33c-33.7-20.7-56.5-54.7-60.7-93.2-.2-2.1-.6-4.1-1.3-6.1-2.4-6.7-7.8-12.1-14.6-14.5-2.4-.9-5.1-1.3-7.8-1.3-2.9 0-5.7 .5-8.3 1.4-6.6 2.4-12 7.7-14.4 14.5-.7 1.9-1.1 3.9-1.3 5.9-6.9 62.9-64.1 114.1-136.1 114.1S126.8 84.8 119.9 21.9c-.2-2.1-.6-4-1.3-5.9-1.2-3.5-3.2-6.5-5.8-9-2.4-2.4-5.4-4.3-8.7-5.5-2.6-.9-5.4-1.5-8.3-1.4-2.7 0-5.3 .5-7.8 1.3-3.5 1.2-6.6 3.2-9.2 5.8-2.4 2.4-4.3 5.4-5.5 8.8zM336 166.8c21.2-9.6 40.2-23 56-39.3l0 112.5-56 0 0-73.2zM256 184c10.9 0 21.6-.9 32-2.6l0 58.6-64 0 0-58.6c10.4 1.7 21.1 2.6 32 2.6zM120 127.5c15.8 16.3 34.8 29.6 56 39.3l0 73.2-56 0 0-112.5zM48 337.8l0-49.8 416 0 0 49.8c-29.7 19-48 51.9-48 87.6l0 38.6-48 0c0-61.9-50.1-112-112-112S144 402.1 144 464l-48 0 0-38.6c0-35.7-18.3-68.7-48-87.6z"/></svg>