<svg xmlns="http://www.w3.org/2000/svg" viewBox="0 0 512 512"><path fill="currentColor" d="M64 112c-8.8 0-16 7.2-16 16l0 16 416 0 0-16c0-8.8-7.2-16-16-16L64 112zm256 80l-128 0 0 6.3c0 40.8-11.6 80.7-33.5 115 13.6 16 24.8 34 33.1 53.6 4.7 11 11.2 20.2 17.8 26.1 6.4 5.6 11.2 6.9 14.6 6.9l64 0c3.4 0 8.2-1.3 14.6-6.9 6.6-5.9 13.2-15.1 17.8-26.1 8.3-19.6 19.5-37.6 33.1-53.6-21.8-34.4-33.5-74.3-33.5-115l0-6.3zm69.4 88c12.8-9.4 26.8-17.3 41.6-23.6 11-4.7 20.2-11.2 26.1-17.8 5.6-6.4 6.9-11.2 6.9-14.6l0-32-96 0 0 6.3c0 28.7 7.4 56.8 21.4 81.7zM48 192l0 32c0 3.4 1.3 8.2 6.9 14.6 5.9 6.6 15.1 13.2 26.1 17.8 14.8 6.3 28.8 14.2 41.6 23.6 14-24.9 21.4-53 21.4-81.7l0-6.3-96 0zM0 128C0 92.7 28.7 64 64 64l384 0c35.3 0 64 28.7 64 64l0 96c0 35.3-29.8 62.8-62.3 76.6-38.3 16.2-68.9 46.8-85.1 85.1-13.8 32.6-41.2 62.3-76.6 62.3l-64 0c-35.3 0-62.8-29.8-76.6-62.3-16.2-38.3-46.8-68.9-85.1-85.1-32.6-13.8-62.3-41.2-62.3-76.6l0-96z"/></svg>