<svg xmlns="http://www.w3.org/2000/svg" viewBox="0 0 512 512"><path fill="currentColor" d="M192 56l0 40 128 0 0-40c0-4.4-3.6-8-8-8L200 48c-4.4 0-8 3.6-8 8zM144 96l0-40c0-30.9 25.1-56 56-56L312 0c30.9 0 56 25.1 56 56l0 40 80 0c35.3 0 64 28.7 64 64l0 256c0 35.3-28.7 64-64 64L64 480c-35.3 0-64-28.7-64-64L0 160c0-35.3 28.7-64 64-64l80 0zM48 304l0 112c0 8.8 7.2 16 16 16l384 0c8.8 0 16-7.2 16-16l0-112-144 0 0 16c0 17.7-14.3 32-32 32l-64 0c-17.7 0-32-14.3-32-32l0-16-144 0zm144-48l272 0 0-96c0-8.8-7.2-16-16-16L64 144c-8.8 0-16 7.2-16 16l0 96 144 0z"/></svg>