<svg xmlns="http://www.w3.org/2000/svg" viewBox="0 0 448 512"><path fill="currentColor" d="M256 80a32 32 0 1 0 -64 0 32 32 0 1 0 64 0zM224 208a48 48 0 1 1 0 96 48 48 0 1 1 0-96zm0 144a96 96 0 1 0 0-192 96 96 0 1 0 0 192zm0 112a32 32 0 1 0 0-64 32 32 0 1 0 0 64zM400 288a32 32 0 1 0 0-64 32 32 0 1 0 0 64zM16 256a32 32 0 1 0 64 0 32 32 0 1 0 -64 0zM128 128a32 32 0 1 0 -64 0 32 32 0 1 0 64 0zM384 384a32 32 0 1 0 -64 0 32 32 0 1 0 64 0zm0-256a32 32 0 1 0 -64 0 32 32 0 1 0 64 0zM64 384a32 32 0 1 0 64 0 32 32 0 1 0 -64 0z"/></svg>