<svg xmlns="http://www.w3.org/2000/svg" viewBox="0 0 512 512"><path fill="currentColor" d="M256 0c-37.2 0-69.5 21.2-85.4 52.1-8.4-2.7-17.3-4.1-26.6-4.1-48.6 0-88 39.4-88 88 0 10.7 1.9 20.9 5.4 30.4-35.9 13.9-61.4 48.8-61.4 89.6 0 53 43 96 96 96l320 0c53 0 96-43 96-96 0-40.8-25.5-75.7-61.4-89.6 3.5-9.5 5.4-19.7 5.4-30.4 0-48.6-39.4-88-88-88-9.3 0-18.2 1.4-26.6 4.1-15.9-30.9-48.2-52.1-85.4-52.1zM208.4 89.7C211.5 66.2 231.6 48 256 48s44.5 18.2 47.6 41.7c1.1 8.6 6.9 16 15 19.2s17.3 1.8 24.1-3.8c6.9-5.7 15.7-9.1 25.4-9.1 22.1 0 40 17.9 40 40 0 12-5.3 22.8-13.7 30.2-7.8 6.8-10.4 17.9-6.3 27.4S401.7 209 412 208.2c1.3-.1 2.6-.2 4-.2 26.5 0 48 21.5 48 48s-21.5 48-48 48L96 304c-26.5 0-48-21.5-48-48s21.5-48 48-48c1.3 0 2.7 .1 4 .2 10.3 .8 20-5 24.1-14.6s1.5-20.6-6.3-27.4c-8.4-7.4-13.7-18.1-13.7-30.2 0-22.1 17.9-40 40-40 9.7 0 18.5 3.4 25.4 9.1 6.7 5.5 15.9 7 24.1 3.8s13.8-10.6 15-19.2zM192.2 490.3c5 12.8 17.1 21.7 30.9 21.7l65.9 0c13.8 0 25.9-8.9 30.9-21.7 14.1-36.3 31-67 45.6-90.3l-93.5 0-8.8 17.7c-2.9 5.9-11.4 5.9-14.3 0l-8.8-17.7-93.5 0c14.7 23.2 31.6 54 45.6 90.3z"/></svg>