<svg xmlns="http://www.w3.org/2000/svg" viewBox="0 0 576 512"><path fill="currentColor" d="M496 544a80 80 0 1 1 0-160 80 80 0 1 1 0 160zM536.8 5.4C546.3-2.3 560.2-1.8 569 7s9.3 22.7 1.7 32.1L569 41 369 241 408 280c5.1 5.1 8 12.1 8 19.4l-.4 4.5c-1.7 10.3-9.2 18.9-19.5 21.8l-55.6 15.9 .1 .6c7.1 46.4-8.2 93.5-41.4 126.7l-5.3 5c-27 24.5-62.3 38.1-98.9 38.1l-172.7 0-4.5-.5c-8.7-1.8-15.6-8.6-17.3-17.3L0 489.8c0-6.2 2.6-12.1 7.2-16.3L104 384 81.3 384c-9.6 0-17.3-7.8-17.3-17.3 0-28 10.4-55 29.1-75.7l3.9-4 10.2-10.2c31.1-31.1 74.4-46.6 118-42.6l8.7 1.1 .6 .1 15.9-55.6c3.4-11.8 14.1-19.9 26.3-19.9 7.3 0 14.2 2.9 19.4 8l39 39 200-200 1.8-1.7zM496 432a32 32 0 1 0 0 64 32 32 0 1 0 0-64zM226.5 282.8c-31.3-4.8-63 5.6-85.4 28l-10.2 10.2c-5.1 5.1-9.2 11-12.3 17.3 13.5 4.3 24.7 14.6 30.1 28.2 7.2 18.4 2.4 39.3-12.1 52.7l-48.5 44.7 106.8 0 4.9-.1c22.9-1.1 44.8-10.2 61.8-25.6l3.5-3.4c21-21 31.4-50.2 28.7-79.5l-.7-5.9-1.5-9.8-55.4-55.4-9.8-1.5zm52.3-28l42.3 42.3 28.1-8-62.4-62.4-8 28.1z"/></svg>