<svg xmlns="http://www.w3.org/2000/svg" viewBox="0 0 576 512"><path fill="currentColor" d="M569 9c9.4-9.4 9.4-24.6 0-33.9s-24.6-9.4-33.9 0l-200 200-12.9-12.9c-20.2-20.2-51.4-24.6-76.3-10.7L16.4 278.9C6.3 284.5 0 295.2 0 306.8 0 315.2 3.4 323.4 9.3 329.3L214.7 534.7c6 6 14.1 9.3 22.6 9.3 11.6 0 22.3-6.3 27.9-16.4L392.6 298.2c13.9-25 9.5-56.1-10.7-76.3L369 209 569 9zM288.2 196.1l59.7 59.7c5.1 5.1 6.1 12.8 2.7 19.1l-14.9 26.8-93.4-93.4 26.8-14.9c6.2-3.5 14-2.4 19.1 2.7zm-89.6 36.5l112.8 112.8-77.9 140.3-96.5-96.5 18-53.9c2.1-6.3-3.9-12.2-10.1-10.1l-53.9 18-32.5-32.5 140.3-77.9z"/></svg>