<svg xmlns="http://www.w3.org/2000/svg" viewBox="0 0 576 512"><path fill="currentColor" d="M176 32l336 0c35.3 0 64 28.7 64 64l0 224c0 35.3-28.7 64-64 64l-352 0c-35.3 0-64-28.7-64-64L96 96c0-35.3 28.7-64 64-64l16 0zM528 192l-384 0 0 128c0 8.8 7.2 16 16 16l352 0c8.8 0 16-7.2 16-16l0-128zM24 128c13.3 0 24 10.7 24 24l0 264c0 8.8 7.2 16 16 16l392 0c13.3 0 24 10.7 24 24s-10.7 24-24 24L64 480c-35.3 0-64-28.7-64-64L0 152c0-13.3 10.7-24 24-24zm200-16a32 32 0 1 0 -64 0 32 32 0 1 0 64 0zm56-24c-13.3 0-24 10.7-24 24s10.7 24 24 24l208 0c13.3 0 24-10.7 24-24s-10.7-24-24-24L280 88z"/></svg>