<svg xmlns="http://www.w3.org/2000/svg" viewBox="0 0 576 512"><path fill="currentColor" d="M7-24.9c9.4-9.4 24.6-9.4 33.9 0L241.8 176 344 176c16.8 0 32.6 4 46.6 11l115-86.2c10.6-8 25.6-5.8 33.6 4.8s5.8 25.6-4.8 33.6L428.2 218.9c9.5 13.1 16 28.4 18.6 45.1L552 264c13.3 0 24 10.7 24 24s-10.7 24-24 24l-104 0 0 40c0 9.5-.8 18.7-2.4 27.8L569 503.1c9.4 9.4 9.4 24.6 0 33.9s-24.6 9.4-33.9 0L7 9.1C-2.3-.3-2.3-15.5 7-24.9zm393 359l0-54.2c0-30.9-25.1-56-56-56L289.8 224 400 334.2zM398.2 468c-28.7 27.3-67.5 44-110.2 44-63.9 0-119-37.4-144.6-91.5l-73 54.7c-10.6 8-25.6 5.8-33.6-4.8s-5.8-25.6 4.8-33.6l87.5-65.7c-.7-6.3-1.1-12.7-1.1-19.1l0-40-104 0c-13.3 0-24-10.7-24-24s10.7-24 24-24l105.2 0c2.6-17 9.3-32.6 19.1-45.8L183 252.8c-4.5 8-7 17.3-7 27.2l0 72c0 53.6 37.7 98.4 88 109.4l0-127.6 48 48 0 79.6c19.9-4.3 37.8-14 52.2-27.4l34 34zM355.6 128l-82.4 0-72.3-72.3C216.1 22.8 249.4 0 288 0 341 0 384 43 384 96l0 3.6c0 15.7-12.7 28.4-28.4 28.4z"/></svg>