<svg xmlns="http://www.w3.org/2000/svg" viewBox="0 0 640 512"><path fill="currentColor" d="M352 48L96 48c-8.8 0-16 7.2-16 16l0 384c0 8.8 7.2 16 16 16l80 0 0-80c0-17.7 14.3-32 32-32l32 0c17.7 0 32 14.3 32 32l0 80 64 0c0 17 3.3 33.2 9.3 48L96 512c-35.3 0-64-28.7-64-64L32 64C32 28.7 60.7 0 96 0L352 0C386 0 413.9 26.6 415.9 60.1 388 70.1 368 96.7 368 128l0-64c0-8.8-7.2-16-16-16zM144 96l32 0c8.8 0 16 7.2 16 16l0 32c0 8.8-7.2 16-16 16l-32 0c-8.8 0-16-7.2-16-16l0-32c0-8.8 7.2-16 16-16zm112 16c0-8.8 7.2-16 16-16l32 0c8.8 0 16 7.2 16 16l0 32c0 8.8-7.2 16-16 16l-32 0c-8.8 0-16-7.2-16-16l0-32zM144 224l32 0c8.8 0 16 7.2 16 16l0 32c0 8.8-7.2 16-16 16l-32 0c-8.8 0-16-7.2-16-16l0-32c0-8.8 7.2-16 16-16zm112 16c0-8.8 7.2-16 16-16l32 0c8.8 0 16 7.2 16 16l0 32c0 8.8-7.2 16-16 16l-32 0c-8.8 0-16-7.2-16-16l0-32zm368-16c8.8 0 16 7.2 16 16 0 44.2-35.8 80-80 80l-16 0c-8.8 0-16-7.2-16-16 0-44.2 35.8-80 80-80l16 0zm16 128c0 44.2-35.8 80-80 80l-16 0c-8.8 0-16-7.2-16-16 0-44.2 35.8-80 80-80l16 0c8.8 0 16 7.2 16 16zm0 112c0 44.2-35.8 80-80 80l-16 0c-8.8 0-16-7.2-16-16 0-44.2 35.8-80 80-80l16 0c8.8 0 16 7.2 16 16zM496 528c0 8.8-7.2 16-16 16l-16 0c-44.2 0-80-35.8-80-80 0-8.8 7.2-16 16-16l16 0c44.2 0 80 35.8 80 80zm-16-96l-16 0c-44.2 0-80-35.8-80-80 0-8.8 7.2-16 16-16l16 0c44.2 0 80 35.8 80 80 0 8.8-7.2 16-16 16zm16-128c0 8.8-7.2 16-16 16l-16 0c-44.2 0-80-35.8-80-80 0-8.8 7.2-16 16-16l16 0c44.2 0 80 35.8 80 80zM512 64c13.3 0 24 10.7 24 24l0 104c0 13.3-10.7 24-24 24s-24-10.7-24-24l0-104c0-13.3 10.7-24 24-24zm96 64l0 32c0 13.3-10.7 24-24 24s-24-10.7-24-24l0-32c0-13.3 10.7-24 24-24s24 10.7 24 24zM440 104c13.3 0 24 10.7 24 24l0 32c0 13.3-10.7 24-24 24s-24-10.7-24-24l0-32c0-13.3 10.7-24 24-24z"/></svg>