<svg xmlns="http://www.w3.org/2000/svg" viewBox="0 0 512 512"><path fill="currentColor" d="M352 48L96 48c-8.8 0-16 7.2-16 16l0 384c0 8.8 7.2 16 16 16l80 0 0-64c0-26.5 21.5-48 48-48 10.8 0 20.8 3.6 28.8 9.6-8 10.7-12.8 24-12.8 38.4l0 112-144 0c-35.3 0-64-28.7-64-64L32 64C32 28.7 60.7 0 96 0L352 0c35.3 0 64 28.7 64 64l0 272-48 0 0-272c0-8.8-7.2-16-16-16zM144 96l32 0c8.8 0 16 7.2 16 16l0 32c0 8.8-7.2 16-16 16l-32 0c-8.8 0-16-7.2-16-16l0-32c0-8.8 7.2-16 16-16zm112 16c0-8.8 7.2-16 16-16l32 0c8.8 0 16 7.2 16 16l0 32c0 8.8-7.2 16-16 16l-32 0c-8.8 0-16-7.2-16-16l0-32zM144 224l32 0c8.8 0 16 7.2 16 16l0 32c0 8.8-7.2 16-16 16l-32 0c-8.8 0-16-7.2-16-16l0-32c0-8.8 7.2-16 16-16zm112 16c0-8.8 7.2-16 16-16l32 0c8.8 0 16 7.2 16 16l0 32c0 8.8-7.2 16-16 16l-32 0c-8.8 0-16-7.2-16-16l0-32zM427.4 380.5c9-2.1 18.3 2.2 22.5 10.5l26.1 52.2 0-43.3c0-11 9-20 20-20s20 9 20 20l0 128c0 9.3-6.4 17.3-15.4 19.5s-18.3-2.2-22.5-10.5L452 484.7 452 528c0 11-9 20-20 20s-20-9-20-20l0-128c0-9.3 6.4-17.3 15.4-19.5zM324 400l0 96c0 6.6 5.4 12 12 12s12-5.4 12-12l0-96c0-11 9-20 20-20s20 9 20 20l0 96c0 28.7-23.3 52-52 52s-52-23.3-52-52l0-96c0-11 9-20 20-20s20 9 20 20z"/></svg>