<svg xmlns="http://www.w3.org/2000/svg" viewBox="0 0 640 512"><path fill="currentColor" d="M96 48l256 0c8.8 0 16 7.2 16 16l0 21.5c10-3.5 20.8-5.5 32-5.5l16 0 0-16c0-35.3-28.7-64-64-64L96 0C60.7 0 32 28.7 32 64l0 384c0 35.3 28.7 64 64 64l209.3 0c-.9-5.2-1.3-10.5-1.3-16l0-32-32 0 0-64c0-26.5-21.5-48-48-48s-48 21.5-48 48l0 64-80 0c-8.8 0-16-7.2-16-16L80 64c0-8.8 7.2-16 16-16zm224 64c0-8.8-7.2-16-16-16l-32 0c-8.8 0-16 7.2-16 16l0 32c0 8.8 7.2 16 16 16l32 0c.5 0 .9 0 1.3-.1 2.3-13.5 7.4-26.1 14.7-37l0-10.9zM272 224c-8.8 0-16 7.2-16 16l0 32c0 8.8 7.2 16 16 16l32 0 0-64-32 0zM128 112l0 32c0 8.8 7.2 16 16 16l32 0c8.8 0 16-7.2 16-16l0-32c0-8.8-7.2-16-16-16l-32 0c-8.8 0-16 7.2-16 16zm0 128l0 32c0 8.8 7.2 16 16 16l32 0c8.8 0 16-7.2 16-16l0-32c0-8.8-7.2-16-16-16l-32 0c-8.8 0-16 7.2-16 16zm224-48l0 288c0 35.3 28.7 64 64 64l160 0c35.3 0 64-28.7 64-64l0-288c0-35.3-28.7-64-64-64l-160 0c-35.3 0-64 28.7-64 64zm72 48c0-13.3 10.7-24 24-24l96 0c13.3 0 24 10.7 24 24s-10.7 24-24 24l-96 0c-13.3 0-24-10.7-24-24zm24 72l96 0c13.3 0 24 10.7 24 24s-10.7 24-24 24l-96 0c-13.3 0-24-10.7-24-24s10.7-24 24-24zM424 432c0-13.3 10.7-24 24-24l64 0c13.3 0 24 10.7 24 24s-10.7 24-24 24l-64 0c-13.3 0-24-10.7-24-24z"/></svg>