<svg xmlns="http://www.w3.org/2000/svg" viewBox="0 0 640 512"><path fill="currentColor" d="M384 48L128 48c-8.8 0-16 7.2-16 16l0 384c0 8.8 7.2 16 16 16l80 0 0-80c0-17.7 14.3-32 32-32l32 0c17.7 0 32 14.3 32 32l0 128-176 0c-35.3 0-64-28.7-64-64L64 64C64 28.7 92.7 0 128 0L384 0c35.3 0 64 28.7 64 64l0 121.3c-18.6 7.5-35 19.3-48 34L400 64c0-8.8-7.2-16-16-16zM176 96l32 0c8.8 0 16 7.2 16 16l0 32c0 8.8-7.2 16-16 16l-32 0c-8.8 0-16-7.2-16-16l0-32c0-8.8 7.2-16 16-16zm112 16c0-8.8 7.2-16 16-16l32 0c8.8 0 16 7.2 16 16l0 32c0 8.8-7.2 16-16 16l-32 0c-8.8 0-16-7.2-16-16l0-32zM176 224l32 0c8.8 0 16 7.2 16 16l0 32c0 8.8-7.2 16-16 16l-32 0c-8.8 0-16-7.2-16-16l0-32c0-8.8 7.2-16 16-16zm112 16c0-8.8 7.2-16 16-16l32 0c8.8 0 16 7.2 16 16l0 32c0 8.8-7.2 16-16 16l-32 0c-8.8 0-16-7.2-16-16l0-32zm128 64a80 80 0 1 1 160 0 80 80 0 1 1 -160 0zM352 512c0-53 43-96 96-96l96 0c53 0 96 43 96 96 0 17.7-14.3 32-32 32l-224 0c-17.7 0-32-14.3-32-32z"/></svg>