<svg xmlns="http://www.w3.org/2000/svg" viewBox="0 0 576 512"><path fill="currentColor" d="M352.5 48l-256 0c-8.8 0-16 7.2-16 16l0 384c0 8.8 7.2 16 16 16l80 0 0-80c0-17.7 14.3-32 32-32l16.2 0c-.1 2.6-.2 5.3-.2 8 0 67.2 39.4 125.1 96.4 152L96.5 512c-35.3 0-64-28.7-64-64l0-384c0-35.3 28.7-64 64-64l256 0c35.3 0 64 28.7 64 64l0 129.7c-7.8-1.1-15.9-1.7-24-1.7s-16.2 .6-24 1.7l0-129.7c0-8.8-7.2-16-16-16zm-208 48l32 0c8.8 0 16 7.2 16 16l0 32c0 8.8-7.2 16-16 16l-32 0c-8.8 0-16-7.2-16-16l0-32c0-8.8 7.2-16 16-16zm112 16c0-8.8 7.2-16 16-16l32 0c8.8 0 16 7.2 16 16l0 32c0 8.8-7.2 16-16 16l-32 0c-8.8 0-16-7.2-16-16l0-32zm-112 112l32 0c8.8 0 16 7.2 16 16l0 32c0 8.8-7.2 16-16 16l-32 0c-8.8 0-16-7.2-16-16l0-32c0-8.8 7.2-16 16-16zm248 208a72 72 0 1 0 0-144 72 72 0 1 0 0 144zm0 48c-66.3 0-120-53.7-120-120s53.7-120 120-120 120 53.7 120 120c0 24.5-7.3 47.3-19.9 66.3l60.9 60.9c9.4 9.4 9.4 24.6 0 33.9s-24.6 9.4-33.9 0l-60.9-60.9c-19 12.5-41.7 19.8-66.1 19.8z"/></svg>