<svg xmlns="http://www.w3.org/2000/svg" viewBox="0 0 576 512"><path fill="currentColor" d="M96 48l256 0c8.8 0 16 7.2 16 16l0 161 38.7-12.9c3.1-1 6.2-1.8 9.3-2.5L416 64c0-35.3-28.7-64-64-64L96 0C60.7 0 32 28.7 32 64l0 384c0 35.3 28.7 64 64 64l201.2 0C261 469.4 240 414.5 240 356.4l0-4.4-32 0c-17.7 0-32 14.3-32 32l0 80-80 0c-8.8 0-16-7.2-16-16L80 64c0-8.8 7.2-16 16-16zM320 240c0-8.8-7.2-16-16-16l-32 0c-8.8 0-16 7.2-16 16l0 32c0 1.6 .2 3.1 .6 4.5 9.5-12.3 22.6-21.9 38.1-27.1l25.3-8.4 0-1zM128 112l0 32c0 8.8 7.2 16 16 16l32 0c8.8 0 16-7.2 16-16l0-32c0-8.8-7.2-16-16-16l-32 0c-8.8 0-16 7.2-16 16zM272 96c-8.8 0-16 7.2-16 16l0 32c0 8.8 7.2 16 16 16l32 0c8.8 0 16-7.2 16-16l0-32c0-8.8-7.2-16-16-16l-32 0zM128 240l0 32c0 8.8 7.2 16 16 16l32 0c8.8 0 16-7.2 16-16l0-32c0-8.8-7.2-16-16-16l-32 0c-8.8 0-16 7.2-16 16zM445.3 488.5l-13.3 6.3 0-188.1 96 32 0 19.6c0 55.8-32.2 106.5-82.7 130.3zM421.9 259.5l-112 37.3c-13.1 4.4-21.9 16.6-21.9 30.4l0 31.1c0 74.4 43 142.1 110.2 173.7l18.5 8.7c4.8 2.2 10 3.4 15.2 3.4s10.5-1.2 15.2-3.4l18.5-8.7C533 500.3 576 432.6 576 358.2l0-31.1c0-13.8-8.8-26-21.9-30.4l-112-37.3c-6.6-2.2-13.7-2.2-20.2 0z"/></svg>