<svg xmlns="http://www.w3.org/2000/svg" viewBox="0 0 576 512"><path fill="currentColor" d="M96 48l256 0c8.8 0 16 7.2 16 16l0 154.9c15.2-5.4 31.3-8.9 48-10.3L416 64c0-35.3-28.7-64-64-64L96 0C60.7 0 32 28.7 32 64l0 384c0 35.3 28.7 64 64 64l180 0c-22.7-31.5-36-70.2-36-112 0-16.4 2.1-32.3 5.9-47.5-1.9-.4-3.9-.5-5.9-.5l-32 0c-17.7 0-32 14.3-32 32l0 80-80 0c-8.8 0-16-7.2-16-16L80 64c0-8.8 7.2-16 16-16zM320 240c0-8.8-7.2-16-16-16l-32 0c-8.8 0-16 7.2-16 16l0 32c0 8.8 7.2 16 16 16l4 0c12.2-16.9 27-31.8 44-44l0-4zM128 112l0 32c0 8.8 7.2 16 16 16l32 0c8.8 0 16-7.2 16-16l0-32c0-8.8-7.2-16-16-16l-32 0c-8.8 0-16 7.2-16 16zM272 96c-8.8 0-16 7.2-16 16l0 32c0 8.8 7.2 16 16 16l32 0c8.8 0 16-7.2 16-16l0-32c0-8.8-7.2-16-16-16l-32 0zM128 240l0 32c0 8.8 7.2 16 16 16l32 0c8.8 0 16-7.2 16-16l0-32c0-8.8-7.2-16-16-16l-32 0c-8.8 0-16 7.2-16 16zM432 544a144 144 0 1 0 0-288 144 144 0 1 0 0 288zm22.6-144l36.7 36.7c6.2 6.2 6.2 16.4 0 22.6s-16.4 6.2-22.6 0l-36.7-36.7-36.7 36.7c-6.2 6.2-16.4 6.2-22.6 0s-6.2-16.4 0-22.6l36.7-36.7-36.7-36.7c-6.2-6.2-6.2-16.4 0-22.6s16.4-6.2 22.6 0l36.7 36.7 36.7-36.7c6.2-6.2 16.4-6.2 22.6 0s6.2 16.4 0 22.6L454.6 400z"/></svg>