<svg xmlns="http://www.w3.org/2000/svg" viewBox="0 0 640 512"><path fill="currentColor" d="M296 24c0-13.3 10.7-24 24-24s24 10.7 24 24l0 26.6c42.6 9.4 76.7 43.2 85.3 87.5L475 372.3c-12.2-2.9-24.6-4.4-37.1-4.3-4.2 0-8.4 .2-12.5 .6l-9.5-48.6-191.9 0-9.5 48.6c-4.9-.4-9.7-.6-14.6-.6-11.8 .1-23.5 1.5-35 4.3l45.7-234.2C219.3 93.8 253.4 60 296 50.6L296 24zM257.8 147.3l-24.3 124.7 173.1 0-24.3-124.7C376.4 117.5 350.3 96 320 96s-56.4 21.5-62.2 51.3zM403.4 476.1C379.1 494.3 351.1 512 320 512s-59.1-17.7-83.4-35.9c-21.3-16.1-49.9-16.1-71.2 0-23.8 17.9-54.1 35.5-88.1 35.3-20.4-.1-40.7-6.7-59.8-21.1-10.6-8-12.7-23-4.7-33.6s23-12.7 33.6-4.7c11.3 8.5 21.6 11.4 31.2 11.5 17.6 .1 37.3-9.4 58.9-25.7 38.4-29 90.5-29 129 0 24 18.1 40.7 26.3 54.5 26.3s30.5-8.2 54.5-26.3c38.4-29 90.5-29 129 0 16.9 12.7 32.9 21.5 47.8 24.6 13.7 2.8 27.4 .9 42.3-10.3 10.6-8 25.6-5.9 33.6 4.7s5.9 25.6-4.7 33.6c-26.4 19.9-54.2 24.4-80.7 19.1-25.3-5.1-48.1-18.9-67.2-33.3-21.3-16.1-49.9-16.1-71.2 0z"/></svg>