<svg xmlns="http://www.w3.org/2000/svg" viewBox="0 0 640 512"><path fill="currentColor" d="M216 0c-13.3 0-24 10.7-24 24s10.7 24 24 24l8.7 0-51.1 242.7C147.2 298.6 128 323 128 352l0 34.4c15.2-8.2 31.4-13.6 48-16.3l0-18c0-8.8 7.2-16 16-16l256 0c8.8 0 16 7.2 16 16l0 18c16.6 2.7 32.8 8.2 48 16.3l0-34.4c0-29-19.2-53.4-45.6-61.3L415.3 48 424 48c13.3 0 24-10.7 24-24S437.3 0 424 0L216 0zM366.2 48l5.8 27.7-52 60.7-52-60.7 5.8-27.7 92.4 0zM255.5 134.9l32.9 38.4-54.3 63.4 21.4-101.8zM320 210.2l66.7 77.8-133.4 0 66.7-77.8zm85.9 26.5l-54.3-63.4 32.9-38.4 21.4 101.8zm-2.6 239.3c21.3-16.1 49.9-16.1 71.2 0 19 14.4 41.9 28.2 67.2 33.3 26.5 5.4 54.3 .8 80.7-19.1 10.6-8 12.7-23 4.7-33.6s-23-12.7-33.6-4.7c-14.9 11.2-28.6 13.1-42.3 10.3-14.9-3-30.9-11.9-47.8-24.6-38.4-29-90.5-29-129 0-24 18.1-40.7 26.3-54.5 26.3s-30.5-8.2-54.5-26.3c-38.4-29-90.5-29-129 0-21.6 16.3-41.3 25.8-58.9 25.7-9.6-.1-19.9-3-31.2-11.5-10.6-8-25.6-5.9-33.6 4.7S7 482.3 17.6 490.3c19.1 14.4 39.4 21 59.8 21.1 33.9 .2 64.3-17.4 88.1-35.3 21.3-16.1 49.9-16.1 71.2 0 24.2 18.3 52.3 35.9 83.4 35.9s59.1-17.7 83.4-35.9z"/></svg>