<svg xmlns="http://www.w3.org/2000/svg" viewBox="0 0 576 512"><path fill="currentColor" d="M181.1-25C170.7-28.4 160-20.7 160-9.8l0 219.7c14.3 6.6 30.6 11.4 48 13.3L208-4.5c0-6.9-4.4-13-10.9-15.2l-16-5.3zM128 43.5c0-6.9-4.4-13-10.9-15.2l-16-5.3C90.7 19.6 80 27.3 80 38.2l0 109.9c13.6 4.8 25.9 13.7 34.7 26.3 3.6 5.1 8.1 10 13.3 14.7l0-145.5zm240 0c0-6.9-4.4-13-10.9-15.2l-16-5.3C330.7 19.6 320 27.3 320 38.2l0 150.2c5.7-4.8 10.1-9.6 13.3-14.1 8.9-12.5 21.1-21.4 34.7-26.3l0-104.6zm-80-5.3c0-10.9-10.7-18.6-21.1-15.2l-16 5.3c-6.5 2.2-10.9 8.3-10.9 15.2l0 179.3c14.9-2 31.5-6.7 47.5-14.2l.5-.2 0-170.3zM75.6 202.1c-6.7-9.5-19.3-12.8-29.8-7.9s-16 16.7-13 27.9L90.5 438.4C97 462.9 119.2 480 144.6 480l63.4 0 0-48-63.4 0c-3.6 0-6.8-2.4-7.7-5.9L99.7 286.6c32.4 18.9 70.5 30.6 109.5 33 1.6-12.6 5.4-26.6 13.1-40.1 1.4-2.4 2.9-4.9 4.5-7.5-.9 0-1.9 0-2.8 0-61.4 0-119.5-29-148.4-69.9zM304 338.5c0-8.1 1.3-10.9 1.6-11.3 9.9-17.3 38.4-55.3 110.4-55.4 72 .1 100.5 38.1 110.4 55.4 .3 .4 1.6 3.2 1.6 11.3l0 29.3 48 0 0-29.3c0-12.3-1.8-24.6-7.9-35.2-15.8-27.5-58-79.4-152.1-79.5-94.1 .1-136.3 52-152.1 79.5-6.1 10.7-7.9 22.9-7.9 35.2l0 29.3 48 0 0-29.3zM256 486.7c0 31.6 25.6 57.1 57.1 57.1l205.7 0c31.6 0 57.1-25.6 57.1-57.1l0-6.9-48 0 0 6.9c0 5-4.1 9.1-9.1 9.1l-205.7 0c-5 0-9.1-4.1-9.1-9.1l0-6.9-48 0 0 6.9zm24-86.9c-13.3 0-24 10.7-24 24s10.7 24 24 24l272 0c13.3 0 24-10.7 24-24s-10.7-24-24-24l-272 0zM432 304a16 16 0 1 0 -32 0 16 16 0 1 0 32 0zm-80 48a16 16 0 1 0 0-32 16 16 0 1 0 0 32zm144-16a16 16 0 1 0 -32 0 16 16 0 1 0 32 0z"/></svg>