<svg xmlns="http://www.w3.org/2000/svg" viewBox="0 0 512 512"><path fill="currentColor" d="M32.3 192c.9-13.8 3.9-27.4 10.5-39.5 2.8-5.1 6.2-10.9 10.2-17 4.5-6.9 9.9-14.2 16.2-21.7 21.7-25.7 54.2-53.1 101.5-68.8 24.4-8.1 52.6-13.1 85.3-13.1 130.7 0 190.9 79.5 213.2 120.5 6.6 12.2 9.6 25.7 10.5 39.5 .2 3.3 .3 6.6 .3 10l0 38-48 0 0-38c0-12.9-2-21.1-5-26.6-17.5-32.1-64.3-95.4-171-95.4S102.5 143.3 85 175.4c-.4 .7-.7 1.4-1.1 2.2-2.4 5.4-3.9 13.1-3.9 24.4l0 38-48 0 0-38c0-3.3 .1-6.7 .3-10zm6.3 240c-4.3-9.8-6.7-20.6-6.7-32l0-16 48 0 0 16c0 17.7 14.3 32 32 32l288 0c17.7 0 32-14.3 32-32l0-16 48 0 0 16c0 11.4-2.4 22.2-6.7 32-12.3 28.3-40.5 48-73.3 48l-288 0c-32.8 0-61-19.7-73.3-48zM232 128a24 24 0 1 1 48 0 24 24 0 1 1 -48 0zm-72 8a24 24 0 1 1 0 48 24 24 0 1 1 0-48zm168 24a24 24 0 1 1 48 0 24 24 0 1 1 -48 0zM151.1 302.4L89.8 330.3C81.5 334 72.5 336 63.3 336L24 336c-13.3 0-24-10.7-24-24s10.7-24 24-24l39.3 0c2.3 0 4.5-.5 6.6-1.4l61.3-27.9c18.9-8.6 40.8-7.5 58.7 3l58 33.8c5 2.9 11.1 2.9 16.1 0l55-32.1c20.5-12 46-11.6 66.2 1L419 285.6c2.5 1.6 5.5 2.4 8.5 2.4l60.5 0c13.3 0 24 10.7 24 24s-10.7 24-24 24l-60.5 0c-12 0-23.7-3.4-33.9-9.7l-33.8-21.1c-5-3.1-11.4-3.2-16.5-.3l-55 32.1c-19.9 11.6-44.6 11.6-64.5 0l-58-33.8c-4.5-2.6-10-2.9-14.7-.7z"/></svg>