<svg xmlns="http://www.w3.org/2000/svg" viewBox="0 0 576 512"><path fill="currentColor" d="M56 0C49.3 0 42.9 2.8 38.3 7.8s-6.8 11.6-6.2 18.3L68.3 446.2C71.5 483.4 102.7 512 140 512l71 0c-2-8.1-3.1-16.6-3.1-25.3l0-22.7-68 0c-12.5 0-22.8-9.5-23.9-21.9L96 208 292.4 208c27.8-16.9 64.1-29.8 110.6-31.9l12.9-150c.6-6.7-1.7-13.3-6.2-18.3S398.7 0 392 0L56 0zM91.8 160l-9.7-112 283.7 0-9.7 112-264.4 0zM304 338.5c0-8.1 1.3-10.9 1.6-11.3 9.9-17.3 38.4-55.3 110.4-55.4 72 .1 100.5 38.1 110.4 55.4 .3 .4 1.6 3.2 1.6 11.3l0 29.3 48 0 0-29.3c0-12.3-1.8-24.6-7.9-35.2-15.8-27.5-58-79.4-152.1-79.5-94.1 .1-136.3 52-152.1 79.5-6.1 10.7-7.9 22.9-7.9 35.2l0 29.3 48 0 0-29.3zM256 486.7c0 31.6 25.6 57.1 57.1 57.1l205.7 0c31.6 0 57.1-25.6 57.1-57.1l0-6.9-48 0 0 6.9c0 5-4.1 9.1-9.1 9.1l-205.7 0c-5 0-9.1-4.1-9.1-9.1l0-6.9-48 0 0 6.9zm24-86.9c-13.3 0-24 10.7-24 24s10.7 24 24 24l272 0c13.3 0 24-10.7 24-24s-10.7-24-24-24l-272 0zM432 304a16 16 0 1 0 -32 0 16 16 0 1 0 32 0zm-80 48a16 16 0 1 0 0-32 16 16 0 1 0 0 32zm144-16a16 16 0 1 0 -32 0 16 16 0 1 0 32 0z"/></svg>