<svg xmlns="http://www.w3.org/2000/svg" viewBox="0 0 512 512"><path fill="currentColor" d="M66.8 305.1c-4 4-7.5 8.6-10.3 13.5 17.4 6.1 36.1 9.4 55.5 9.4 75.6 0 139.5-49.9 160.6-118.6 4.8-15.6 7.4-32.2 7.4-49.4 0-20.3-3.6-39.8-10.2-57.9l-203 203zm0 93.7l46.4 46.4c12 12 28.3 18.7 45.3 18.7l3.2 0c17 0 33.3-6.7 45.3-18.7l203-203c-18-6.6-37.5-10.2-57.9-10.2-13 0-25.7 1.5-37.9 4.3-30.8 81.6-109.7 139.7-202.1 139.7-21.8 0-42.8-3.2-62.6-9.2 2.5 12.1 8.5 23.2 17.4 32.1zM450.1 269.9L240.8 479.2c-21 21-49.5 32.8-79.2 32.8l-3.2 0c-29.7 0-58.2-11.8-79.2-32.8L32.8 432.8C11.8 411.8 0 383.3 0 353.6l0-3.2c0-29.7 11.8-58.2 32.8-79.2L242.1 62c8.2-35.5 40-62 78-62 11.4 0 22.2 2.4 32 6.7 9.8-4.3 20.6-6.7 32-6.7 34.6 0 64.1 22 75.2 52.8 30.8 11.1 52.8 40.6 52.8 75.2 0 11.4-2.4 22.2-6.7 32 2.7 6.1 4.6 12.7 5.7 19.6 6.6 41.7-20.4 81-61 90.4z"/></svg>