<svg xmlns="http://www.w3.org/2000/svg" viewBox="0 0 512 512"><path fill="currentColor" d="M187.5 400c.9 1.7 1.7 3.4 2.1 5.3l12.8 50.5 36.4-37.3 1.8-1.6c4.3-3.6 9.8-5.6 15.4-5.6 6.5 0 12.7 2.6 17.2 7.3l36.3 37.3 12.8-50.5 .7-2.3c.4-1 .9-2 1.4-3l127.1 0 8.6 30.5c2.4 8.4 0 17.4-6.1 23.5s-15.1 8.5-23.5 6.1l-67.8-19.1-17.2 68.2c-2.1 8.4-8.6 15-17 17.3s-17.3-.2-23.4-6.5L256 469.6 206.9 520c-6.1 6.2-15 8.7-23.4 6.5s-14.9-8.9-17.1-17.3L149.2 441 81.5 460.1c-8.4 2.4-17.4 0-23.5-6.1s-8.5-15.1-6.1-23.5l8.6-30.5 127 0zM120 160c13.3 0 24 10.7 24 24l0 144c0 10.9-7.4 20.5-18 23.2s-21.7-2-27-11.6L64 276.6 64 328c0 13.3-10.7 24-24 24s-24-10.7-24-24l0-144 .3-4c1.6-9.2 8.4-16.8 17.6-19.2 10.6-2.7 21.7 2 27 11.6l35 63 0-51.4c0-13.3 10.7-24 24-24zm168 0c13.3 0 24 10.7 24 24s-10.7 24-24 24l-56 0 0 24 40 0c13.3 0 24 10.7 24 24s-10.7 24-24 24l-40 0 0 24 56 0c13.3 0 24 10.7 24 24s-10.7 24-24 24l-80 0c-13.3 0-24-10.7-24-24l0-144c0-13.3 10.7-24 24-24l80 0zm184 0c13.3 0 24 10.8 24 24l0 80.9c0 13.6-3.2 27.1-9.3 39.3l-17.3 34.5c-3.8 7.6-11.4 12.7-20 13.2-7.5 .5-14.7-2.6-19.5-8.1l-1.9-2.5-12-18-12 18c-4.7 7.1-12.9 11.2-21.5 10.7s-16.1-5.6-20-13.2l-17.3-34.5c-6.1-12.2-9.3-25.7-9.3-39.3l0-80.9c0-13.2 10.7-24 24-24s24 10.8 24 24l0 80.9c0 5.2 1.1 10.4 3.1 15.2l9-13.4C400.5 260 408 256 416 256s15.5 4 20 10.7l8.9 13.4c2-4.8 3.1-10 3.1-15.2l0-80.9c0-13.2 10.7-24 24-24zM305.1-8c6.1-6.2 15-8.7 23.4-6.5s14.9 8.9 17.1 17.3L362.8 71 430.5 51.9c8.4-2.4 17.4 0 23.5 6.1s8.5 15.1 6.1 23.5l-8.6 30.5-127 0c-.9-1.7-1.6-3.4-2.1-5.3l-12.8-50.5-36.3 37.3c-4.5 4.6-10.7 7.3-17.2 7.3s-12.7-2.6-17.2-7.3l-36.3-37.4-12.8 50.6c-.5 1.9-1.2 3.6-2.1 5.3l-127.1 0-8.6-30.5c-2.4-8.4 0-17.4 6.1-23.5s15.1-8.5 23.5-6.1l67.7 19.1 17.3-68.2 1-3.1c2.8-6.9 8.7-12.3 16.1-14.2 8.4-2.2 17.3 .2 23.4 6.4L256 42.4 305.1-8z"/></svg>