<svg xmlns="http://www.w3.org/2000/svg" viewBox="0 0 512 512"><path fill="currentColor" d="M7 7c8-8 20.6-9.3 30.1-3.1l159.5 104 37.1-92.8C237.4 6 246.2 0 256 0s18.6 6 22.3 15.1l40.1 100.1 67.4-18.4c8.3-2.3 17.2 .1 23.3 6.2s8.5 15 6.2 23.3l-18.4 67.4 100.1 40.1C506 237.4 512 246.2 512 256s-6 18.6-15.1 22.3l-96.4 38.6 45.3 97c4.3 9.1 2.4 20-4.8 27.1s-18 9-27.1 4.8l-97-45.3-38.6 96.4C274.6 506 265.8 512 256 512s-18.6-6-22.3-15.1l-38.6-96.4-97 45.3C89 450 78.2 448.1 71 441s-9-18-4.8-27.1l45.3-97-96.4-38.6C6 274.6 0 265.8 0 256s6-18.6 15.1-22.3l92.8-37.1-104-159.5C-2.3 27.6-1 15.1 7 7zm99.3 99.3l57.7 88.5c3.9 6 4.9 13.5 2.8 20.3s-7.3 12.4-14 15L88.6 256 152.9 281.7c6.1 2.4 11 7.3 13.4 13.4s2.2 13-.6 19l-28.1 60.2 60.2-28.1c6-2.8 12.8-3 19-.6s11 7.3 13.5 13.4l25.7 64.3 25.7-64.3c2.4-6.1 7.3-11 13.4-13.4s13-2.2 19 .6l60.2 28.1-28.1-60.2c-2.8-6-3-12.8-.6-19s7.3-11 13.4-13.4l64.3-25.7-64.3-25.7c-11.3-4.5-17.4-16.8-14.2-28.6l13-47.5-47.5 12.9c-11.8 3.2-24.1-2.9-28.6-14.2L256 88.6 230.3 152.9c-2.7 6.7-8.2 11.8-15 14s-14.3 1.1-20.3-2.8l-88.5-57.7z"/></svg>