<svg xmlns="http://www.w3.org/2000/svg" viewBox="0 0 448 512"><path fill="currentColor" d="M320 48c26.5 0 48 21.5 48 48L80 96c0-26.5 21.5-48 48-48l192 0zM128 0C75 0 32 43 32 96l0 152.4C12.4 266 0 291.6 0 320l0 64c0 29.8 20.4 54.9 48 62l0 42c0 13.3 10.7 24 24 24s24-10.7 24-24l0-40 256 0 0 40c0 13.3 10.7 24 24 24s24-10.7 24-24l0-42c27.6-7.1 48-32.2 48-62l0-64c0-28.4-12.4-54-32-71.6L416 96c0-53-43-96-96-96L128 0zM368 144l0 81.3c-5.2-.9-10.5-1.3-16-1.3l-104 0 0-80 120 0zM80 225.3l0-81.3 120 0 0 80-104 0c-5.5 0-10.8 .5-16 1.3zM352 272c26.5 0 48 21.5 48 48l0 64c0 8.8-7.2 16-16 16L64 400c-8.8 0-16-7.2-16-16l0-64c0-26.5 21.5-48 48-48l256 0zM128 368a32 32 0 1 0 0-64 32 32 0 1 0 0 64zm224-32a32 32 0 1 0 -64 0 32 32 0 1 0 64 0z"/></svg>