<svg xmlns="http://www.w3.org/2000/svg" viewBox="0 0 640 512"><path fill="currentColor" d="M488.2 .2C572.8 4.5 640 74.4 640 160l0 224-.3 6.5c-3.1 30.1-27 54.1-57.1 57.1l-6.5 .3-5.6 0c-13.2 37.3-48.6 64-90.4 64s-77.3-26.7-90.4-64l-139.1 0c-13.2 37.3-48.7 64-90.4 64s-77.2-26.7-90.4-64l-5.6 0-6.5-.3c-30.1-3.1-54.1-27-57.1-57.1L0 384 0 96C0 44.6 40.3 2.7 91.1 .1L96 0 480 0 488.2 .2zM160 368a48 48 0 1 0 0 96 48 48 0 1 0 0-96zm320 0a48 48 0 1 0 0 96 48 48 0 1 0 0-96zM48 224l0 160c0 8.8 7.2 16 16 16l1.3 0c7.6-45.4 47.1-80 94.7-80s87 34.6 94.7 80l130.7 0c4.8-28.7 22.4-53 46.7-67.1l0-108.9-384 0zm432 96c47.6 0 87 34.6 94.7 80l1.3 0c8.8 0 16-7.2 16-16l0-224c0-59.9-47.1-108.9-106.2-111.8l-5.8-.2 0 272zM96 48C69.5 48 48 69.5 48 96l0 80 168 0 0-128-120 0zM264 176l168 0 0-128-168 0 0 128z"/></svg>