<svg xmlns="http://www.w3.org/2000/svg" viewBox="0 0 448 512"><path fill="currentColor" d="M96 48C69.5 48 48 69.5 48 96l352 0c0-26.5-21.5-48-48-48L96 48zM48 144l0 64 352 0 0-64-352 0zM400 256l-352 0 0 128c0 8.8 7.2 16 16 16l320 0c8.8 0 16-7.2 16-16l0-128zM0 256L0 96C0 43 43 0 96 0L352 0c53 0 96 43 96 96l0 288c0 29.8-20.4 54.9-48 62l0 42c0 13.3-10.7 24-24 24s-24-10.7-24-24l0-40-256 0 0 40c0 13.3-10.7 24-24 24s-24-10.7-24-24l0-42c-27.6-7.1-48-32.2-48-62L0 256zm128 32a32 32 0 1 1 0 64 32 32 0 1 1 0-64zm160 32a32 32 0 1 1 64 0 32 32 0 1 1 -64 0z"/></svg>