<svg xmlns="http://www.w3.org/2000/svg" viewBox="0 0 640 512"><path fill="currentColor" d="M280.2 64.4C320.5 68.5 352 102.6 352 144l0 224-.2 4.9c-1.9 18.7-14.6 34.2-31.8 40.3l0 42.8c0 13.3-10.7 24-24 24s-24-10.7-24-24l0-40-160 0 0 40c0 13.3-10.7 24-24 24s-24-10.7-24-24l0-42.8c-17.2-6.1-29.8-21.6-31.8-40.3L32 368 32 144c0-41.4 31.5-75.5 71.8-79.6l8.2-.4 160 0 8.2 .4zM512 0c61.9 0 112 50.1 112 112 0 53.6-37.7 98.4-88 109.4L536 456c0 13.3-10.7 24-24 24s-24-10.7-24-24l0-234.6c-50.3-11-88-55.8-88-109.4 0-61.9 50.1-112 112-112zM80 256l0 112 224 0 0-112-224 0zm56 80a24 24 0 1 1 0-48 24 24 0 1 1 0 48zm112 0a24 24 0 1 1 0-48 24 24 0 1 1 0 48zM112 112c-17.7 0-32 14.3-32 32l0 64 224 0 0-64c0-17.7-14.3-32-32-32l-160 0zM512 48a64 64 0 1 0 0 128 64 64 0 1 0 0-128z"/></svg>