<svg xmlns="http://www.w3.org/2000/svg" viewBox="0 0 448 512"><path fill="currentColor" d="M352 48c26.5 0 48 21.5 48 48L48 96c0-26.5 21.5-48 48-48l256 0zM48 208l0-64 152 0 0 64-152 0zm200 0l0-64 152 0 0 64-152 0zM48 256l352 0 0 128c0 8.8-7.2 16-16 16L64 400c-8.8 0-16-7.2-16-16l0-128zM0 208L0 384c0 29.8 20.4 54.9 48 62l0 42c0 13.3 10.7 24 24 24s24-10.7 24-24l0-40 256 0 0 40c0 13.3 10.7 24 24 24s24-10.7 24-24l0-42c27.6-7.1 48-32.2 48-62l0-288c0-53-43-96-96-96L96 0C43 0 0 43 0 96L0 208zM160 320a32 32 0 1 0 -64 0 32 32 0 1 0 64 0zm160 32a32 32 0 1 0 0-64 32 32 0 1 0 0 64z"/></svg>