<svg xmlns="http://www.w3.org/2000/svg" viewBox="0 0 512 512"><path fill="currentColor" d="M462.2 32C489.7 32 512 54.3 512 81.8l0 81.9c0 72.1-41.5 134.4-101.8 164.6l4.6 4.6 5.7 6.3c12.5 15.3 19.5 34.5 19.5 54.5l-.2 6.1c-2.1 30.2-20 57.2-47.3 70.8l0 0-15.6 7.8 0 0c-11 5.5-23.1 8.7-35.3 9.4l-5.3 .2c-34 0-64.6-18.9-80.2-48.2-15.6 29.3-46.2 48.2-80.2 48.2-14.1 0-28-3.3-40.6-9.6l0 0-15.6-7.8 0 0c-27.3-13.7-45.2-40.6-47.3-70.8l-.2-6.1c0-22.8 9.1-44.7 25.2-60.8l4.6-4.6C41.4 298.1 0 235.8 0 163.7L0 81.8C0 54.3 22.3 32 49.8 32l11.6 .3C146.9 36.5 219.9 87.4 255.9 160 293.6 84.1 371.8 32 462.2 32zM49.8 80c-1 0-1.8 .8-1.8 1.8l0 81.9c0 63.7 43.8 117.2 102.9 131.9 8.4 2.1 15 8.5 17.3 16.9s0 17.3-6.2 23.4l-30.9 30.9c-7.1 7.1-11.1 16.8-11.1 26.9l.4 5.3c1.7 12.2 9.4 23 20.6 28.7l0 0 15.6 7.8 0 0c6 3 12.5 4.5 19.2 4.5 18.5 0 34.8-11.8 40.7-29.3l4.2-12.7c7.5-22.4 11.3-46 11.3-69.6l0-69.5c-.1-.7-.2-1.4-.2-2.1-2.8-95-78.3-171.8-172.8-176.6L49.8 80zm412.4 0C361.6 80 280 161.6 280 262.2l0 66.2c0 23.7 3.8 47.2 11.3 69.6l4.2 12.7c5.8 17.5 22.2 29.3 40.7 29.3l5-.3c4.9-.6 9.7-2 14.2-4.2l15.6-7.8 0 0 4.6-2.7c8.7-6 14.5-15.4 16-25.9l.4-5.3c0-8.8-3.1-17.3-8.6-24.1l-2.5-2.8-30.9-30.9c-6.1-6.1-8.5-15-6.2-23.4s8.9-14.8 17.3-16.9C420.2 280.8 464 227.4 464 163.7l0-81.9c0-1-.8-1.8-1.8-1.8z"/></svg>