<svg xmlns="http://www.w3.org/2000/svg" viewBox="0 0 512 512"><path fill="currentColor" d="M192 0c-17.7 0-32 14.3-32 32l0 32-7.1 0c-44.5 0-83.1 30.5-93.4 73.8L46 194.6C19.4 202.4 0 226.9 0 256L0 456c0 13.3 10.7 24 24 24s24-10.7 24-24l0-40 416 0 0 40c0 13.3 10.7 24 24 24s24-10.7 24-24l0-200c0-29.1-19.4-53.6-46-61.4l-13.5-56.8C442.2 94.5 403.6 64 359.1 64l-7.1 0 0-32c0-17.7-14.3-32-32-32L192 0zM106.2 148.9c5.1-21.6 24.5-36.9 46.7-36.9l206.3 0c22.2 0 41.5 15.3 46.7 36.9l10.3 43.1-320.2 0 10.3-43.1zM448 240c8.8 0 16 7.2 16 16l0 112-416 0 0-112c0-8.8 7.2-16 16-16l384 0zM144 304a32 32 0 1 0 -64 0 32 32 0 1 0 64 0zm256 32a32 32 0 1 0 0-64 32 32 0 1 0 0 64z"/></svg>