<svg xmlns="http://www.w3.org/2000/svg" viewBox="0 0 448 512"><path fill="currentColor" d="M384 232L64 232 64 64c0-8.8 7.2-16 16-16l288 0c8.8 0 16 7.2 16 16l0 168zM16 256l0 192c0 35.3 28.7 64 64 64l288 0c35.3 0 64-28.7 64-64l0-384c0-35.3-28.7-64-64-64L80 0C44.7 0 16 28.7 16 64l0 192zM384 448c0 8.8-7.2 16-16 16L80 464c-8.8 0-16-7.2-16-16l0-168 320 0 0 168zM160 152l0-8 128 0 0 8c0 13.3 10.7 24 24 24s24-10.7 24-24l0-16c0-22.1-17.9-40-40-40L152 96c-22.1 0-40 17.9-40 40l0 16c0 13.3 10.7 24 24 24s24-10.7 24-24zm-8 184c-22.1 0-40 17.9-40 40l0 16c0 13.3 10.7 24 24 24s24-10.7 24-24l0-8 128 0 0 8c0 13.3 10.7 24 24 24s24-10.7 24-24l0-16c0-22.1-17.9-40-40-40l-144 0z"/></svg>