<svg xmlns="http://www.w3.org/2000/svg" viewBox="0 0 512 512"><path fill="currentColor" d="M256 51.7L81.9 176 430.1 176 256 51.7zM237.4 6C248.5-2 263.5-2 274.6 6L432 118.4 432 56c0-13.3 10.7-24 24-24s24 10.7 24 24l0 96.7 18.6 13.3c11.3 8.1 16.1 22.6 11.9 35.8S493.9 224 480 224L32 224c-13.9 0-26.2-9-30.5-22.2S2.1 174 13.4 166L237.4 6zM48 488c0-13.3 10.7-24 24-24l368 0c13.3 0 24 10.7 24 24s-10.7 24-24 24L72 512c-13.3 0-24-10.7-24-24zM72 368l112 0c13.3 0 24 10.7 24 24s-10.7 24-24 24L72 416c-13.3 0-24-10.7-24-24s10.7-24 24-24zM48 296c0-13.3 10.7-24 24-24l112 0c13.3 0 24 10.7 24 24s-10.7 24-24 24L72 320c-13.3 0-24-10.7-24-24zm280-24l112 0c13.3 0 24 10.7 24 24s-10.7 24-24 24l-112 0c-13.3 0-24-10.7-24-24s10.7-24 24-24zM304 392c0-13.3 10.7-24 24-24l112 0c13.3 0 24 10.7 24 24s-10.7 24-24 24l-112 0c-13.3 0-24-10.7-24-24z"/></svg>