<svg xmlns="http://www.w3.org/2000/svg" viewBox="0 0 512 512"><path fill="currentColor" d="M288 32c17.7 0 32-14.3 32-32s-14.3-32-32-32-32 14.3-32 32 14.3 32 32 32zm-64-8a32 32 0 1 0 -64 0 32 32 0 1 0 64 0zM160 272l0 72-80 0 0-56c0-8.8 7.2-16 16-16l64 0zm48 72l0-72 96 0 0 72-96 0zm144 0l0-72 64 0c8.8 0 16 7.2 16 16l0 56-80 0zm80 48l0 56c0 8.8-7.2 16-16 16L96 464c-8.8 0-16-7.2-16-16l0-56 352 0zM96 224c-35.3 0-64 28.7-64 64l0 160c0 35.3 28.7 64 64 64l320 0c35.3 0 64-28.7 64-64l0-160c0-35.3-28.7-64-64-64l-136 0 0-109.9 206.6-59c12.7-3.6 20.1-16.9 16.5-29.7S486.2 5.3 473.4 8.9l-224 64 0 0-224 64c-12.7 3.6-20.1 16.9-16.5 29.7s16.9 20.1 29.7 16.5l193.4-55.3 0 96.2-136 0z"/></svg>