<svg xmlns="http://www.w3.org/2000/svg" viewBox="0 0 448 512"><path fill="currentColor" d="M229.8-31.8C288.9-28.9 336 20.1 336 80l0 100.2c7.5-2.7 15.6-4.2 24-4.2 39.8 0 72 32.2 72 72l0 112c0 48.6-39.4 88-88 88l-8 0 0 48-.2 4.9c-2.3 22.6-20.3 40.6-42.8 42.8l-4.9 .2-128 0-4.9-.2c-22.6-2.3-40.6-20.3-42.8-42.8l-.2-4.9 0-144-8 0c-48.6 0-88-39.4-88-88l0-112c0-39.8 32.2-72 72-72 8.4 0 16.5 1.5 24 4.2l0-4.2c0-61.9 50.1-112 112-112l5.8 .2zM224 16c-35.3 0-64 28.7-64 64l0 160c0 8.8-7.2 16-16 16l-16 0c-8.8 0-16-7.2-16-16l0-88c0-13.3-10.7-24-24-24s-24 10.7-24 24l0 112c0 22.1 17.9 40 40 40l40 0c8.8 0 16 7.2 16 16l0 176 128 0 0-80c0-8.8 7.2-16 16-16l40 0c22.1 0 40-17.9 40-40l0-112c0-13.3-10.7-24-24-24s-24 10.7-24 24l0 88c0 8.8-7.2 16-16 16l-16 0c-8.8 0-16-7.2-16-16l0-256c0-35.3-28.7-64-64-64zm16 328a24 24 0 1 1 0-48 24 24 0 1 1 0 48zM208 184a24 24 0 1 1 0-48 24 24 0 1 1 0 48z"/></svg>