<svg xmlns="http://www.w3.org/2000/svg" viewBox="0 0 448 512"><path fill="currentColor" d="M86.4-10.5L61.8 31.6C58 38.1 56 45.6 56 53.2L56 56c0 22.1 17.9 40 40 40s40-17.9 40-40l0-2.8c0-7.6-2-15-5.8-21.6L105.6-10.5c-2-3.4-5.7-5.5-9.6-5.5s-7.6 2.1-9.6 5.5zm128 0L189.8 31.6c-3.8 6.5-5.8 14-5.8 21.6l0 2.8c0 22.1 17.9 40 40 40s40-17.9 40-40l0-2.8c0-7.6-2-15-5.8-21.6L233.6-10.5c-2-3.4-5.7-5.5-9.6-5.5s-7.6 2.1-9.6 5.5zM317.8 31.6c-3.8 6.5-5.8 14-5.8 21.6l0 2.8c0 22.1 17.9 40 40 40s40-17.9 40-40l0-2.8c0-7.6-2-15-5.8-21.6L361.6-10.5c-2-3.4-5.7-5.5-9.6-5.5s-7.6 2.1-9.6 5.5L317.8 31.6zM120 152c0-13.3-10.7-24-24-24s-24 10.7-24 24l0 59C30.6 221.7 0 259.3 0 304L0 448c0 35.3 28.7 64 64 64l320 0c35.3 0 64-28.7 64-64l0-144c0-44.7-30.6-82.3-72-93l0-59c0-13.3-10.7-24-24-24s-24 10.7-24 24l0 56-80 0 0-56c0-13.3-10.7-24-24-24s-24 10.7-24 24l0 56-80 0 0-56zM352 256c26.5 0 48 21.5 48 48l0 32.6c-4.2 1.9-8.3 3.9-12.3 6.2l-7.1 4.1c-26.3 15-58.9 13.4-83.6-4.2-43.7-31.2-102.3-31.2-146 0-24.6 17.6-57.3 19.3-83.6 4.2l-7.1-4.1c-4-2.3-8.1-4.4-12.3-6.2L48 304c0-26.5 21.5-48 48-48l256 0zm48 135l0 57c0 8.8-7.2 16-16 16L64 464c-8.8 0-16-7.2-16-16l0-57c41.8 21.7 92.4 18.3 130.9-9.3 27-19.3 63.2-19.3 90.2 0 38.5 27.5 89.1 31 130.9 9.3z"/></svg>