<svg xmlns="http://www.w3.org/2000/svg" viewBox="0 0 576 512"><path fill="currentColor" d="M152 0c13.3 0 24 10.7 24 24l0 40 160 0 0-40c0-13.3 10.7-24 24-24s24 10.7 24 24l0 40 32 0c35.3 0 64 28.7 64 64l0 86c-15.3-3.9-31.4-6-48-6-27.3 0-53.3 5.7-76.9 16L80 224 80 416c0 8.8 7.2 16 16 16l146.7 0c2.8 16.8 7.8 32.9 14.8 48L96 480c-35.3 0-64-28.7-64-64l0-288c0-35.3 28.7-64 64-64l32 0 0-40c0-13.3 10.7-24 24-24zm0 112l-56 0c-8.8 0-16 7.2-16 16l0 48 352 0 0-48c0-8.8-7.2-16-16-16l-264 0zM288 400a144 144 0 1 1 288 0 144 144 0 1 1 -288 0zm224 0c0-8.8-7.2-16-16-16l-128 0c-8.8 0-16 7.2-16 16s7.2 16 16 16l128 0c8.8 0 16-7.2 16-16z"/></svg>