<svg xmlns="http://www.w3.org/2000/svg" viewBox="0 0 448 512"><path fill="currentColor" d="M144 24c0-13.3-10.7-24-24-24S96 10.7 96 24l0 40-32 0C28.7 64 0 92.7 0 128L0 416c0 35.3 28.7 64 64 64l320 0c35.3 0 64-28.7 64-64l0-288c0-35.3-28.7-64-64-64l-32 0 0-40c0-13.3-10.7-24-24-24s-24 10.7-24 24l0 40-160 0 0-40zm184 88l56 0c8.8 0 16 7.2 16 16l0 288c0 8.8-7.2 16-16 16L64 432c-8.8 0-16-7.2-16-16l0-288c0-8.8 7.2-16 16-16l264 0zM96 248c0 13.3 10.7 24 24 24l208 0c13.3 0 24-10.7 24-24s-10.7-24-24-24l-208 0c-13.3 0-24 10.7-24 24zm24 72c-13.3 0-24 10.7-24 24s10.7 24 24 24l112 0c13.3 0 24-10.7 24-24s-10.7-24-24-24l-112 0z"/></svg>