<svg xmlns="http://www.w3.org/2000/svg" viewBox="0 0 448 512"><path fill="currentColor" d="M120 0c13.3 0 24 10.7 24 24l0 40 160 0 0-40c0-13.3 10.7-24 24-24s24 10.7 24 24l0 40 32 0c35.3 0 64 28.7 64 64l0 288c0 35.3-28.7 64-64 64L64 480c-35.3 0-64-28.7-64-64L0 128C0 92.7 28.7 64 64 64l32 0 0-40c0-13.3 10.7-24 24-24zm0 112l-56 0c-8.8 0-16 7.2-16 16l0 288c0 8.8 7.2 16 16 16l320 0c8.8 0 16-7.2 16-16l0-288c0-8.8-7.2-16-16-16l-264 0zm118.3 61.1l23.3 47.2 52 7.6c13.1 1.9 18.4 18 8.9 27.3l-37.7 36.7 8.9 51.8c2.2 13.1-11.5 23-23.2 16.9L224 336 177.5 360.5c-11.7 6.2-25.5-3.8-23.2-16.9l8.9-51.8-37.7-36.7c-9.5-9.3-4.3-25.4 8.9-27.3l52-7.6 23.3-47.2c5.9-11.9 22.8-11.9 28.7 0z"/></svg>