<svg xmlns="http://www.w3.org/2000/svg" viewBox="0 0 448 512"><path fill="currentColor" d="M120 0c13.3 0 24 10.7 24 24l0 40 160 0 0-40c0-13.3 10.7-24 24-24s24 10.7 24 24l0 40 32 0c35.3 0 64 28.7 64 64l0 288c0 35.3-28.7 64-64 64L64 480c-35.3 0-64-28.7-64-64L0 128C0 92.7 28.7 64 64 64l32 0 0-40c0-13.3 10.7-24 24-24zm0 112l-56 0c-8.8 0-16 7.2-16 16l0 288c0 8.8 7.2 16 16 16l320 0c8.8 0 16-7.2 16-16l0-288c0-8.8-7.2-16-16-16l-264 0zM96 192a32 32 0 1 1 64 0 32 32 0 1 1 -64 0zm28.6 192c-15.8 0-28.6-12.8-28.6-28.6 0-7.3 2.8-14.4 7.9-19.7l96.8-101.8c6-6.4 14.4-9.9 23.2-9.9l.3 0c8.8 0 17.1 3.6 23.2 9.9l96.8 101.8c5.1 5.3 7.9 12.4 7.9 19.7 0 15.8-12.8 28.6-28.6 28.6l-198.8 0z"/></svg>