<svg xmlns="http://www.w3.org/2000/svg" viewBox="0 0 448 512"><path fill="currentColor" d="M120 0c13.3 0 24 10.7 24 24l0 40 160 0 0-40c0-13.3 10.7-24 24-24s24 10.7 24 24l0 40 32 0c35.3 0 64 28.7 64 64l0 288c0 35.3-28.7 64-64 64L64 480c-35.3 0-64-28.7-64-64L0 128C0 92.7 28.7 64 64 64l32 0 0-40c0-13.3 10.7-24 24-24zm0 112l-56 0c-8.8 0-16 7.2-16 16l0 288c0 8.8 7.2 16 16 16l320 0c8.8 0 16-7.2 16-16l0-288c0-8.8-7.2-16-16-16l-264 0zm24 144l0 80 80 0 0-80-80 0zm-48 0c0-26.5 21.5-48 48-48l80 0c26.5 0 48 21.5 48 48l0 80c0 26.5-21.5 48-48 48l-80 0c-26.5 0-48-21.5-48-48l0-80z"/></svg>