<svg xmlns="http://www.w3.org/2000/svg" viewBox="0 0 448 512"><path fill="currentColor" d="M328 0c13.3 0 24 10.7 24 24l0 40 32 0c35.3 0 64 28.7 64 64l0 288c0 35.3-28.7 64-64 64L64 480c-35.3 0-64-28.7-64-64L0 128C0 92.7 28.7 64 64 64l32 0 0-40c0-13.3 10.7-24 24-24s24 10.7 24 24l0 40 160 0 0-40c0-13.3 10.7-24 24-24zM64 112c-8.8 0-16 7.2-16 16l0 288c0 8.8 7.2 16 16 16l320 0c8.8 0 16-7.2 16-16l0-288c0-8.8-7.2-16-16-16L64 112zM224 400a32 32 0 1 1 0-64 32 32 0 1 1 0 64zm0-256c18.2 0 32.7 15.5 31.4 33.7l-7.4 104c-.9 12.6-11.4 22.3-23.9 22.3-12.6 0-23-9.7-23.9-22.3l-7.4-104C191.3 159.5 205.8 144 224 144z"/></svg>