<svg xmlns="http://www.w3.org/2000/svg" viewBox="0 0 640 512"><path fill="currentColor" d="M216 0c13.3 0 24 10.7 24 24l0 40 160 0 0-40c0-13.3 10.7-24 24-24s24 10.7 24 24l0 40 32 0c35.3 0 64 28.7 64 64l0 81.1c-5.2-.7-10.6-1.1-16-1.1-21.1 0-40.9 5.8-57.7 16l-300.6 0c-16.9-10.2-36.6-16-57.7-16-5.4 0-10.8 .4-16 1.1L96 128c0-35.3 28.7-64 64-64l32 0 0-40c0-13.3 10.7-24 24-24zM381.8 432c-7.7 14.5-12.4 30.7-13.6 48l-96.5 0c-1.1-17.3-5.9-33.5-13.6-48l123.7 0zM216 112l-56 0c-8.8 0-16 7.2-16 16l0 48 352 0 0-48c0-8.8-7.2-16-16-16l-264 0zM112 264a56 56 0 1 1 0 112 56 56 0 1 1 0-112zM80 416l64 0c44.2 0 80 35.8 80 80 0 8.8-7.2 16-16 16L16 512c-8.8 0-16-7.2-16-16 0-44.2 35.8-80 80-80zm392-96a56 56 0 1 1 112 0 56 56 0 1 1 -112 0zM416 496c0-44.2 35.8-80 80-80l64 0c44.2 0 80 35.8 80 80 0 8.8-7.2 16-16 16l-192 0c-8.8 0-16-7.2-16-16z"/></svg>