<svg xmlns="http://www.w3.org/2000/svg" viewBox="0 0 576 512"><path fill="currentColor" d="M41-24.9c-9.4-9.4-24.6-9.4-33.9 0S-2.3-.3 7 9.1l528 528c9.4 9.4 24.6 9.4 33.9 0s9.4-24.6 0-33.9L447.3 381.5C487.3 341 512 285.4 512 224 512 100.3 411.7 0 288 0 226.6 0 171 24.7 130.5 64.7L41-24.9zM164.5 98.6c31.8-31.3 75.4-50.6 123.5-50.6 97.2 0 176 78.8 176 176 0 48.1-19.3 91.8-50.6 123.5l-33.9-33.9c22.6-23.1 36.6-54.7 36.6-89.6 0-70.7-57.3-128-128-128-34.9 0-66.5 13.9-89.6 36.6L164.5 98.6zm181 181L232.4 166.5c14.4-13.9 34-22.5 55.6-22.5 44.2 0 80 35.8 80 80 0 21.6-8.6 41.2-22.5 55.6zm19.2 154.9l-38.6-38.6c-12.3 2.7-25 4.1-38.1 4.1-97.2 0-176-78.8-176-176 0-13.1 1.4-25.8 4.1-38.1L77.5 147.3C68.8 171.2 64 197.1 64 224 64 339.6 151.6 434.8 264 446.7l0 33.3-80 0c-13.3 0-24 10.7-24 24s10.7 24 24 24l208 0c13.3 0 24-10.7 24-24s-10.7-24-24-24l-80 0 0-33.3c18.3-2 36-6.1 52.7-12.2z"/></svg>