<svg xmlns="http://www.w3.org/2000/svg" viewBox="0 0 448 512"><path fill="currentColor" d="M384 48c8.8 0 16 7.2 16 16l0 288c0 8.8-7.2 16-16 16L64 368c-8.8 0-16-7.2-16-16L48 64c0-8.8 7.2-16 16-16l320 0zM64 0C28.7 0 0 28.7 0 64L0 352c0 35.3 28.7 64 64 64l136 0 0 48-80 0c-13.3 0-24 10.7-24 24s10.7 24 24 24l208 0c13.3 0 24-10.7 24-24s-10.7-24-24-24l-80 0 0-48 136 0c35.3 0 64-28.7 64-64l0-288c0-35.3-28.7-64-64-64L64 0zM336 208a112 112 0 1 0 -224 0 112 112 0 1 0 224 0zM224 144a64 64 0 1 1 0 128 64 64 0 1 1 0-128z"/></svg>