<svg xmlns="http://www.w3.org/2000/svg" viewBox="0 0 576 512"><path fill="currentColor" d="M49.5-33l47 47 47-47c9.4-9.4 24.6-9.4 33.9 0s9.4 24.6 0 33.9l-64 64c-9.4 9.4-24.6 9.4-33.9 0L15.5 1C6.2-8.4 6.2-23.6 15.5-33s24.6-9.4 33.9 0zM179 56.9C189.4 41.4 206.9 32 225.6 32l125.7 0c18.7 0 36.2 9.4 46.6 24.9l26 39.1 56.5 0c35.3 0 64 28.7 64 64l0 256c0 35.3-28.7 64-64 64l-384 0c-35.3 0-64-28.7-64-64l0-256c0-35.3 28.7-64 64-64l56.5 0 26-39.1zM225.6 80c-2.7 0-5.2 1.3-6.7 3.6l-33.2 49.8c-4.5 6.7-11.9 10.7-20 10.7l-69.3 0c-8.8 0-16 7.2-16 16l0 256c0 8.8 7.2 16 16 16l384 0c8.8 0 16-7.2 16-16l0-256c0-8.8-7.2-16-16-16l-69.3 0c-8 0-15.5-4-20-10.7L358 83.6c-1.5-2.2-4-3.6-6.7-3.6L225.6 80zM176.5 272a112 112 0 1 1 224 0 112 112 0 1 1 -224 0zm112 64a64 64 0 1 0 0-128 64 64 0 1 0 0 128z"/></svg>