<svg xmlns="http://www.w3.org/2000/svg" viewBox="0 0 576 512"><path fill="currentColor" d="M144 32c-53 0-96 43-96 96s43 96 96 96l192 0c53 0 96-43 96-96s-43-96-96-96c-31.4 0-59.3 15-76.8 38.4-4.5 6-11.6 9.6-19.2 9.6s-14.7-3.5-19.2-9.6C203.3 47 175.4 32 144 32zM0 128c0-79.5 64.5-144 144-144 36.9 0 70.5 13.9 96 36.7 25.5-22.8 59.1-36.7 96-36.7 79.5 0 144 64.5 144 144S415.5 272 336 272l-192 0C64.5 272 0 207.5 0 128zm300 0a36 36 0 1 1 72 0 36 36 0 1 1 -72 0zM144 92a36 36 0 1 1 0 72 36 36 0 1 1 0-72zM464 268l73.6-55.2c4.2-3.1 9.2-4.8 14.4-4.8 13.3 0 24 10.7 24 24l0 240c0 13.3-10.7 24-24 24-5.2 0-10.2-1.7-14.4-4.8l-73.6-55.2 0-60 64 48 0-144-64 48 0-60zM64 416l0-113.4c15.1 6.9 31.2 11.9 48 14.8l0 98.7c0 8.8 7.2 16 16 16l224 0c8.8 0 16-7.2 16-16l0-98.7c16.8-2.8 32.9-7.8 48-14.8L416 416c0 35.3-28.7 64-64 64l-224 0c-35.3 0-64-28.7-64-64z"/></svg>