<svg xmlns="http://www.w3.org/2000/svg" viewBox="0 0 512 512"><path fill="currentColor" d="M146.5 56.9C156.9 41.4 174.4 32 193.1 32l125.7 0c18.7 0 36.2 9.4 46.6 24.9l26 39.1 56.5 0c35.3 0 64 28.7 64 64l0 256c0 35.3-28.7 64-64 64L64 480c-35.3 0-64-28.7-64-64L0 160c0-35.3 28.7-64 64-64l56.5 0 26-39.1zM193.1 80c-2.7 0-5.2 1.3-6.7 3.6l-33.2 49.8c-4.5 6.7-11.9 10.7-20 10.7L64 144c-8.8 0-16 7.2-16 16l0 256c0 8.8 7.2 16 16 16l384 0c8.8 0 16-7.2 16-16l0-256c0-8.8-7.2-16-16-16l-69.3 0c-8 0-15.5-4-20-10.7L325.5 83.6c-1.5-2.2-4-3.6-6.7-3.6L193.1 80zM96 289.9l0-1.9c0-8.8 7.2-16 16-16l24 0c0-66.3 53.7-120 120-120 17 0 33.2 3.5 47.8 9.9l-34.9 39.3c-4.2-.8-8.5-1.2-12.9-1.2-39.8 0-72 32.2-72 72l24 0c8.8 0 16 7.2 16 16l0 1.9c0 3.9-1.4 7.7-4 10.6l-48 54c-6.4 7.2-17.6 7.2-23.9 0l-48-54c-2.6-2.9-4-6.7-4-10.6zm196-46.5l48-54c6.4-7.2 17.6-7.2 23.9 0l48 54c2.6 2.9 4 6.7 4 10.6l0 1.9c0 8.8-7.2 16-16 16l-24 0c0 66.3-53.7 120-120 120-17 0-33.2-3.5-47.8-9.9l34.9-39.3c4.2 .8 8.5 1.2 12.9 1.2 39.8 0 72-32.2 72-72l-24 0c-8.8 0-16-7.2-16-16l0-1.9c0-3.9 1.4-7.7 4-10.6z"/></svg>