<svg xmlns="http://www.w3.org/2000/svg" viewBox="0 0 640 512"><path fill="currentColor" d="M257.1 32c-18.7 0-36.2 9.4-46.6 24.9L184.5 96 128 96c-35.3 0-64 28.7-64 64l0 256c0 35.3 28.7 64 64 64l193.4 0c-6.9-15.1-11.9-31.2-14.8-48L128 432c-8.8 0-16-7.2-16-16l0-256c0-8.8 7.2-16 16-16l69.3 0c8 0 15.5-4 20-10.7l33.2-49.8c1.5-2.2 4-3.6 6.7-3.6l125.7 0c2.7 0 5.2 1.3 6.7 3.6l33.2 49.8c4.5 6.7 11.9 10.7 20 10.7l69.3 0c8.8 0 16 7.2 16 16l0 50.7c16.8 2.8 32.9 7.8 48 14.8l0-65.4c0-35.3-28.7-64-64-64l-56.5 0-26-39.1C419.1 41.4 401.6 32 382.9 32L257.1 32zM320 160c-61.9 0-112 50.1-112 112 0 56.7 42.1 103.5 96.7 111 1.4-16.4 4.9-32.2 10.2-47.2-33-2.6-59-30.1-59-63.8 0-35.3 28.7-64 64-64 26.7 0 49.6 16.4 59.2 39.6 12.7-9.8 26.7-18 41.7-24.4-18.1-37.4-56.5-63.3-100.9-63.3zM640 400a144 144 0 1 0 -288 0 144 144 0 1 0 288 0zM496 320c8.8 0 16 7.2 16 16l0 48 32 0c8.8 0 16 7.2 16 16s-7.2 16-16 16l-48 0c-8.8 0-16-7.2-16-16l0-64c0-8.8 7.2-16 16-16z"/></svg>