<svg xmlns="http://www.w3.org/2000/svg" viewBox="0 0 576 512"><path fill="currentColor" d="M41-24.9c-9.4-9.4-24.6-9.4-33.9 0S-2.3-.3 7 9.1l528 528c9.4 9.4 24.6 9.4 33.9 0s9.4-24.6 0-33.9l-42.8-42.8c11-11.5 17.8-27.1 17.8-44.3l0-256c0-35.3-28.7-64-64-64l-56.5 0-26-39.1C387.1 41.4 369.6 32 350.9 32L225.1 32c-18.7 0-36.2 9.4-46.6 24.9L156.2 90.4 41-24.9zM190.8 125l27.6-41.4c1.5-2.2 4-3.6 6.7-3.6l125.7 0c2.7 0 5.2 1.3 6.7 3.6l33.2 49.8c4.5 6.7 11.9 10.7 20 10.7l69.3 0c8.8 0 16 7.2 16 16l0 256c0 3.9-1.4 7.6-3.8 10.4L388.1 322.3c7.6-15.1 11.9-32.2 11.9-50.3 0-61.9-50.1-112-112-112-18.1 0-35.2 4.3-50.3 11.9L190.8 125zM350.7 284.9l-75.6-75.6c4.2-.8 8.5-1.3 12.9-1.3 35.3 0 64 28.7 64 64 0 4.4-.4 8.7-1.3 12.9zM47.9 117.7C38 129 32 143.8 32 160l0 256c0 35.3 28.7 64 64 64l314.2 0-48-48-266.2 0c-8.8 0-16-7.2-16-16l0-256c0-2.9 .8-5.7 2.2-8L47.9 117.7zM288 384c8.1 0 16-.9 23.7-2.5l-52.2-52.2c-12.5-6.2-22.6-16.4-28.8-28.8l-52.2-52.2c-1.6 7.6-2.5 15.5-2.5 23.7 0 61.9 50.1 112 112 112z"/></svg>