<svg xmlns="http://www.w3.org/2000/svg" viewBox="0 0 512 512"><path fill="currentColor" d="M279.2 43.9s-22.1-26.7-35-37C239.2 2.9 233.8 .2 227.2 0s-13.1 2.1-18.3 6.8c-21.1 19.2-45 44.4-63.8 72.9-18.7 28.3-33.1 61-33.1 95 0 80.5 63.4 145.3 144 145.3 79.8 0 144-64.7 144-145.3 0-27.3-9.9-55.4-23.6-80.1-13.7-24.9-31.8-47.6-49.5-64.2-5-4.7-11.5-7.1-17.9-7.1-6.8 0-14 2.5-18.8 8.1l-11 12.5zm36.5 174.4c0 32.1-26 58.2-58.2 58.2s-58.2-26-58.2-58.2c0-33.2 33.7-66.4 49.8-80.4 4.9-4.2 11.9-4.2 16.8 0 16.1 14 49.8 47.2 49.8 80.4zM32.5 289.6c-12.4-4.7-26.3 1.5-31 13.9s1.5 26.2 13.9 31L188.3 400 15.5 465.6c-12.4 4.7-18.6 18.6-13.9 31s18.6 18.6 31 13.9L256 425.7 479.5 510.4c12.4 4.7 26.2-1.5 31-13.9s-1.5-26.2-13.9-31L323.7 400 496.5 334.4c12.4-4.7 18.6-18.6 13.9-31s-18.6-18.6-31-13.9L256 374.3 32.5 289.6z"/></svg>