<svg xmlns="http://www.w3.org/2000/svg" viewBox="0 0 512 512"><path fill="currentColor" d="M335.4 13.6c10.1 8.5 11.5 23.7 2.9 33.8l-51 60.7 213.4 253.7c7.3 8.7 11.3 19.6 11.3 30.9l0 47.3c0 22.1-17.9 40-40 40L40 480c-22.1 0-40-17.9-40-40l0-47.3c0-11.3 4-22.2 11.3-30.9l213.4-253.7-51-60.7c-8.5-10.1-7.2-25.3 2.9-33.8s25.3-7.2 33.8 2.9L256 70.8 301.6 16.6c8.5-10.1 23.7-11.5 33.8-2.9zM48 392.7l0 39.3 63.2 0 15.3-16.4 112-120c4.5-4.9 10.9-7.6 17.5-7.6s13 2.8 17.5 7.6l112 120 15.3 16.4 63.2 0 0-39.3-208-247.4-208 247.4zM176.8 432l158.3 0-79.2-84.8-79.2 84.8z"/></svg>