<svg xmlns="http://www.w3.org/2000/svg" viewBox="0 0 384 512"><path fill="currentColor" d="M320 434.3c-3.4 3-10.2 7.5-21.7 12.2-24.8 10.1-62.3 17.5-106.3 17.5s-81.5-7.4-106.3-17.5c-11.5-4.7-18.3-9.2-21.7-12.2l0-144.8c14.2 6.2 31 11.3 49.7 15.1 7.6 36.3 39.8 63.5 78.3 63.5s70.7-27.2 78.3-63.5c18.7-3.8 35.5-8.9 49.7-15.1l0 144.8zm48 5.7l0-368c0-39.8-78.8-72-176-72S16 32.2 16 72l0 368c0 39.8 78.8 72 176 72s176-32.2 176-72zM304 72c0 13.3-50.1 24-112 24S80 85.3 80 72 130.1 48 192 48 304 58.7 304 72zM192 256a32 32 0 1 1 0 64 32 32 0 1 1 0-64z"/></svg>