<svg xmlns="http://www.w3.org/2000/svg" viewBox="0 0 512 512"><path fill="currentColor" d="M408 152c57.4 0 104 46.6 104 104 0 141.4-114.6 256-256 256-54.4 0-104.8-17-146.3-45.9-10.9-7.6-13.5-22.5-5.9-33.4s22.5-13.5 33.4-6c33.7 23.5 74.6 37.3 118.8 37.3 78.9 0 147.5-43.9 182.8-108.7-9.7 3-20.1 4.7-30.8 4.7-57.4 0-104-46.6-104-104s46.6-104 104-104zM256 0c54.4 0 104.8 17 146.3 45.9 10.9 7.6 13.5 22.5 5.9 33.4s-22.5 13.5-33.4 6c-33.7-23.5-74.6-37.3-118.8-37.3-78.9 0-147.6 43.9-182.8 108.6 9.7-3 20.1-4.6 30.8-4.6 57.4 0 104 46.6 104 104S161.4 360 104 360 0 313.4 0 256C0 254.1 .1 252.2 .2 250.3 3.2 111.5 116.5 0 256 0zM104 200a56 56 0 1 0 0 112 56 56 0 1 0 0-112zm304 0a56 56 0 1 0 0 112 56 56 0 1 0 0-112z"/></svg>