<svg xmlns="http://www.w3.org/2000/svg" viewBox="0 0 512 512"><path fill="currentColor" d="M269.3 84.9L249.1 105c-9.4 9.4-24.6 9.4-33.9 0s-9.4-24.6 0-33.9l20.1-20.1c13.1-13.1 28.5-22.5 44.9-28.3l0 53.3c-3.9 2.6-7.5 5.6-10.9 9zM347.1 69c-6.1-2.5-12.5-4.1-19-4.8l0-48.2c19.9 1.3 39.6 7.6 56.9 18.8L347.1 69zm36.2 32l36.2-32.6c10.7 15.7 17.3 33.4 19.7 51.6l-48.7 0c-1.5-6.6-3.9-12.9-7.2-19zm52.7 67c-4.8 17.3-13.5 33.8-26.2 48l-67.6 0 29.1-29.1c5.7-5.7 10.2-12.1 13.6-18.9l51.1 0zM254.2 304l40-40 67.9 0-40 40-67.9 0zm19.9 48l-40 40-67.9 0 40-40 67.9 0zM111.2 447l7-7 67.9 0-41 41c-9.4 9.4-24.6 9.4-33.9 0s-9.4-24.6 0-33.9zm192-328.2c9.3-9.3 24.6-9.4 34.1 .1s9.4 24.8 .1 34.1L77.3 413.1c-28.1 28.1-28.1 73.7 0 101.8s73.7 28.1 101.8 0L439.2 254.8c65.7-65.7 65.4-172.2-.1-237.7s-172-65.8-237.7-.1L181.3 37.1c-28.1 28.1-28.1 73.7 0 101.8s73.7 28.1 101.8 0l20.1-20.1z"/></svg>