<svg xmlns="http://www.w3.org/2000/svg" viewBox="0 0 640 512"><path fill="currentColor" d="M400.3 394.6l-240.1-138.6 0 0c0 88.4 71.6 160 160 160 29.2 0 56.5-7.8 80.1-21.4zM440 362.1c14.1-15.9 25.1-34.7 32-55.4L200.5 149.9c-14.1 15.9-25.1 34.7-32 55.4L440 362.1zM240.2 117.4L480.2 256c0-88.3-71.6-160-160-160-29.1 0-56.5 7.8-80 21.4zM528.2 256c0 114.9-93.1 208-208 208-39.6 0-76.5-11-108-30.2L180.1 539.2c-3.5 11.4-14.7 18.5-26.5 16.8s-20.5-11.8-20.5-23.7l0-41.9-28.3 12.9c-9.1 4.1-19.8 2.2-26.9-4.9s-9-17.8-4.9-26.9l12.9-28.3-41.9 0c-11.9 0-22-8.7-23.7-20.5s5.4-23 16.8-26.5L142.4 364c-19.2-31.5-30.2-68.5-30.2-108 0-114.9 93.1-208 208-208 39.6 0 76.5 11 108 30.2L460.3-27.2c3.5-11.4 14.7-18.5 26.5-16.8s20.5 11.8 20.5 23.7l0 41.9 28.3-12.9c9.1-4.1 19.8-2.2 26.9 4.9s9 17.8 4.9 26.9l-12.9 28.3 41.9 0c11.9 0 22 8.7 23.7 20.5s-5.4 23-16.7 26.5L498 148c19.2 31.5 30.2 68.5 30.2 108z"/></svg>