<svg xmlns="http://www.w3.org/2000/svg" viewBox="0 0 576 512"><path fill="currentColor" d="M509.9 148.9c-23.8-4.6-54.1-8-90.6-8s-66.8 3.4-90.6 8c4.8 15.8 10.4 32 16.8 48.4 21.5-2.9 46.1-4.7 73.8-4.7s52.3 1.8 73.8 4.7c6.4-16.4 12-32.6 16.8-48.4zm-90.6 91.7c-19.7 0-37.5 1-53.5 2.6 14.7 29.7 32.4 58.6 53.5 84.9 21.1-26.2 38.8-55.2 53.5-84.9-16-1.6-33.8-2.6-53.5-2.6zm103-138.2c3.3-14.6 6-28.4 7.9-41-23.6-6.7-60.8-13.4-110.9-13.4s-87.3 6.7-110.9 13.4c2 12.6 4.6 26.4 7.9 41 27.4-5.5 61.9-9.5 103-9.5s75.6 4 103 9.5zM393.1 371.6C307.4 273.8 270.4 138.4 259.5 59.2 257 41.7 265.9 24.8 282.7 19.1 310.5 9.7 356.3 0 419.2 0S528 9.7 555.8 19.1c16.8 5.7 25.7 22.5 23.2 40.1-11 79.1-47.9 214.5-133.6 312.4-13.9 15.9-38.3 15.9-52.3 0zM70 362.6c23.8 4.6 54.1 8 90.6 8s66.8-3.4 90.6-8c-4.8-15.8-10.4-32-16.8-48.4-21.5 2.9-46.1 4.7-73.8 4.7s-52.3-1.8-73.8-4.7c-6.4 16.4-12 32.6-16.8 48.4zM160.6 271c19.7 0 37.5-1 53.5-2.6-14.7-29.7-32.4-58.6-53.5-84.9-21.1 26.2-38.8 55.2-53.5 84.9 16 1.6 33.8 2.6 53.5 2.6zM57.6 409.1c-3.3 14.6-6 28.4-7.9 41 23.6 6.7 60.8 13.4 110.9 13.4s87.3-6.7 110.9-13.4c-2-12.6-4.6-26.4-7.9-41-27.4 5.5-61.9 9.5-103 9.5s-75.6-4-103-9.5zM186.7 139.9c85.7 97.9 122.7 233.3 133.6 312.4 2.4 17.6-6.5 34.4-23.2 40.1-27.7 9.4-73.6 19.1-136.5 19.1S51.8 501.8 24.1 492.4c-16.8-5.7-25.7-22.5-23.2-40.1 11-79.1 47.9-214.5 133.6-312.4 13.9-15.9 38.3-15.9 52.3 0z"/></svg>