<svg xmlns="http://www.w3.org/2000/svg" viewBox="0 0 640 512"><path fill="currentColor" d="M109.4 96c-11.3 0-21 7.9-23.4 18.9-7.3 33.4-33.7 59.8-67.1 67.1-11 2.4-18.9 12.2-18.9 23.4L0 344c0 39.8 32.2 72 72 72l496 0c39.8 0 72-32.2 72-72l0-176c0-39.8-32.2-72-72-72L109.4 96zM48 223.3c36.5-13.8 65.5-42.8 79.3-79.3l24.7 0 0 88-104 0 0-8.7zM48 280l104 0 0 88-80 0c-13.3 0-24-10.7-24-24l0-64zm152 88l0-88 112 0 0 88-112 0zm160 0l0-224 208 0c13.3 0 24 10.7 24 24l0 176c0 13.3-10.7 24-24 24l-208 0zM312 144l0 88-112 0 0-88 112 0z"/></svg>