<svg xmlns="http://www.w3.org/2000/svg" viewBox="0 0 512 512"><path fill="currentColor" d="M256 0c8 0 15.5 4 19.9 10.6 16.1 24.1 36.5 67.2 49.2 115.1 6.8 25.8 11.7 54.3 12 82.6 15-10.3 30.7-19.1 46-26.5 34.5-16.7 68.6-26.9 92.3-31.7 7.9-1.6 16 .9 21.7 6.6s8.1 13.8 6.5 21.7c-7 34.6-26.6 93.8-62.4 143.2 21.4 8.1 39.4 17.5 50.6 23.7 7.6 4.2 12.3 12.3 12.3 21s-4.7 16.8-12.3 21c-14.6 8.1-40.5 21.5-70.2 30.4-17.6 5.3-37.9 9.4-58.5 9.3l5.8 23.2c2.3 9.1-.9 18.7-8.2 24.5-7.3 5.9-17.4 7-25.8 2.8L280 450.2 280 488c0 13.3-10.7 24-24 24s-24-10.7-24-24l0-37.8-54.9 27.3c-8.4 4.2-18.5 3.1-25.8-2.8s-10.5-15.4-8.2-24.5l5.8-23.2c-20.6 .2-40.9-3.9-58.5-9.3-29.6-8.9-55.6-22.3-70.2-30.4-7.6-4.2-12.3-12.3-12.3-21s4.7-16.7 12.3-21c11.2-6.2 29.2-15.6 50.5-23.7-35.9-49.5-55.5-108.8-62.4-143.2-1.6-7.9 .9-16 6.5-21.7s13.8-8.1 21.7-6.6c23.7 4.7 57.8 15 92.3 31.7 15.3 7.4 30.9 16.2 45.9 26.5 .3-28.3 5.2-56.8 12-82.6 12.6-47.9 33-91.1 49.2-115.1l1.8-2.3C242.4 3.1 249 0 256 0zm0 74.5c-8.3 18.2-16.5 40.1-22.7 63.6-11.6 43.8-15 88.8-2.6 123.7 3.9 11-.7 23.1-10.8 28.9S197 294 189.6 285c-20.8-25-50.6-45-81.5-59.9-14.3-6.9-28.6-12.6-41.7-17 12.2 35.4 33 78.1 63.1 109.1 6 6.2 8.2 15.2 5.8 23.5s-9.2 14.7-17.7 16.6c-10 2.3-19.9 5.5-29.2 9 5.1 1.9 10.5 3.8 15.9 5.4 25.4 7.7 49.7 10 68.7 3.3 8.3-2.9 17.6-1.1 24.2 4.9s9.3 15 7.1 23.6l-2 7.7 29.6-14.7 0-52.5c0-13.3 10.7-24 24-24s24 10.7 24 24l0 52.5 29.6 14.7-1.9-7.7c-2.2-8.6 .6-17.6 7.1-23.6s15.8-7.8 24.2-4.9c19 6.7 43.3 4.3 68.7-3.3 5.4-1.6 10.7-3.5 15.9-5.4-9.3-3.5-19.1-6.7-29.2-9-8.5-1.9-15.2-8.3-17.7-16.6s-.3-17.3 5.8-23.5c2.8-2.9 5.5-5.8 8.1-8.9l6.9-8.4c22.1-28.5 37.9-62.7 47.9-91.8-13.1 4.5-27.2 10.1-41.5 17-30.9 14.9-60.7 34.9-81.5 59.9-7.4 9-20.2 11.3-30.3 5.5s-14.7-17.9-10.8-28.9c12.4-34.8 8.9-79.9-2.6-123.7-6.2-23.4-14.4-45.4-22.7-63.6z"/></svg>