<svg xmlns="http://www.w3.org/2000/svg" viewBox="0 0 640 512"><path fill="currentColor" d="M374.5 437.7c38.4-29 90.6-29 129 0 16.9 12.7 32.9 21.5 47.8 24.6 13.7 2.8 27.4 .9 42.3-10.3 10.6-8 25.6-5.9 33.6 4.7 8 10.6 5.9 25.6-4.7 33.6-26.4 19.8-54.2 24.4-80.7 19.1-25.3-5.1-48.1-18.9-67.2-33.3-21.3-16.1-49.9-16.1-71.2 0-24.2 18.3-52.3 35.9-83.4 35.9s-59.1-17.7-83.4-35.9c-21.3-16.1-49.9-16.1-71.2 0-23.7 17.9-54.1 35.5-88 35.3-20.4-.1-40.7-6.7-59.8-21.1-10.6-8-12.7-23-4.7-33.6 8-10.6 23-12.7 33.6-4.7 11.3 8.5 21.6 11.4 31.2 11.5 17.6 .1 37.3-9.4 58.9-25.7 38.4-29 90.6-29 129 0 24 18.1 40.7 26.3 54.5 26.3s30.5-8.2 54.5-26.3zM32 282.5c0-25 27.9-39.9 48.7-26.1 28.9 19.3 62.6 30.2 97.2 31.4l6.9 .1 270.3 0c37.1 0 73.3-11 104.2-31.6 20.8-13.9 48.7 1.1 48.7 26.1l0 37.5c0 34.4-13.6 65.6-35.7 88.6-2.6 1.5-5.2 3.1-7.6 5-4.7 3.5-9.5 0-14.3-2.5-5.2-2.7-11.2-6.6-18-11.7-4.5-3.4-9.1-6.4-13.8-9.3 24.7-13.6 41.5-39.9 41.5-70.1l0-8.7C527.5 327.5 491.6 336 455.1 336l-270.3 0c-36.5 0-72.4-8.5-104.9-24.7l0 8.7c0 30.2 16.8 56.5 41.5 70.1-4.7 2.8-9.3 5.9-13.8 9.3-8.8 6.6-16 11-21.7 13.5-4.1 1.9-7 3.5-10.7 .7-2.5-1.8-5-3.5-7.6-5-20.7-21.5-33.9-50.2-35.5-82l-.2-6.6 0-37.5zM231.1 128c16.1 0 31.8 5.5 44.4 15.6l120.5 96.4-76.8 0-73.7-58.9c-4.1-3.3-9.2-5.1-14.4-5.1-12.7 0-23.1 10.3-23.1 23.1l0 40.9-48 0 0-40.9c0-39.2 31.8-71.1 71.1-71.1zM208 96a48 48 0 1 1 0-96 48 48 0 1 1 0 96z"/></svg>