<svg xmlns="http://www.w3.org/2000/svg" viewBox="0 0 576 512"><path fill="currentColor" d="M232 32c75.1 0 136 60.9 136 136l0 84.1c21.9-17.6 49.7-28.1 80-28.1 70.7 0 128 57.3 128 128S518.7 480 448 480c-39.8 0-75.4-18.2-98.9-46.7-25.9 46.9-75.8 78.7-133.1 78.7-13.3 0-24-10.7-24-24s10.7-24 24-24c57.4 0 104-46.6 104-104l0-192c0-48.6-39.4-88-88-88s-88 39.4-88 88l0 224c0 13.3-10.7 24-24 24s-24-10.7-24-24l0-240c0-39.8-32.2-72-72-72-13.3 0-24-10.7-24-24S10.7 32 24 32C65.7 32 102.4 53.3 123.9 85.5 148.7 53 187.9 32 232 32zM448 272a80 80 0 1 0 0 160 80 80 0 1 0 0-160z"/></svg>