<svg xmlns="http://www.w3.org/2000/svg" viewBox="0 0 448 512"><path fill="currentColor" d="M0 344.2c0-36 14.3-70.5 39.8-96L216.2 71.8c25.5-25.5 60-39.8 96-39.8 75 0 135.8 60.8 135.8 135.8 0 36-14.3 70.5-39.8 96L231.8 440.2c-25.5 25.5-60 39.8-96 39.8-75 0-135.8-60.8-135.8-135.8zM269.1 335L145 210.9 73.7 282.2c-16.5 16.5-25.7 38.8-25.7 62.1 0 48.5 39.3 87.8 87.8 87.8 23.3 0 45.6-9.2 62.1-25.7L269.1 335zM303 301.1l71.3-71.3c16.5-16.5 25.7-38.8 25.7-62.1 0-48.5-39.3-87.8-87.8-87.8-23.3 0-45.6 9.2-62.1 25.7L178.9 177 303 301.1z"/></svg>