<svg xmlns="http://www.w3.org/2000/svg" viewBox="0 0 576 512"><path fill="currentColor" d="M80 112c0-35.3 28.7-64 64-64s64 28.7 64 64l0 112-128 0 0-112zm0 288l0-125.3 128 0 0 125.3c0 35.3-28.7 64-64 64s-64-28.7-64-64zM32 112l0 288c0 61.9 50.1 112 112 112s112-50.1 112-112l0-105.8 116.3 169.5c35.5 51.7 105.3 64.3 156 28.1s63-107.5 27.5-159.2L427.3 145.3c-35.5-51.7-105.3-64.3-156-28.1-5.6 4-10.7 8.4-15.3 13.1l0-18.3C256 50.1 205.9 0 144 0S32 50.1 32 112zM283.4 249.3c-20.9-30.4-13.3-72.2 15.8-93 28.5-20.4 68-13.7 88.5 16.2l53.3 77.7-106.1 74.3-51.5-75.1zM411.9 436.6l-49.8-72.6 106.1-74.3 48 70c20.9 30.4 13.3 72.2-15.8 93-28.5 20.4-68 13.7-88.5-16.2z"/></svg>