<svg xmlns="http://www.w3.org/2000/svg" viewBox="0 0 512 512"><path fill="currentColor" d="M118.4 112.8L92 192 128.6 192c-5.6 9.6-8.6 20.7-8.6 32.1 0 5.5 .7 10.8 2 15.9l-58 0c-8.8 0-16 7.2-16 16l0 112 416 0 0-112c0-8.8-7.2-16-16-16l-58.1 0c1.3-5.2 2.1-10.6 2.1-16.1 0-11.6-3.1-22.5-8.5-31.9l36.6 0-26.4-79.2C387.1 93.2 368.8 80 348.1 80L163.9 80c-20.7 0-39 13.2-45.5 32.8zM39.8 196.7l33-99.1C85.9 58.4 122.6 32 163.9 32l184.2 0c41.3 0 78 26.4 91.1 65.6l33 99.1c23.3 9.5 39.8 32.5 39.8 59.3l0 200c0 13.3-10.7 24-24 24s-24-10.7-24-24l0-40-416 0 0 40c0 13.3-10.7 24-24 24S0 469.3 0 456L0 256c0-26.8 16.4-49.7 39.8-59.3zM112 272a32 32 0 1 1 0 64 32 32 0 1 1 0-64zm256 32a32 32 0 1 1 64 0 32 32 0 1 1 -64 0zM184.5 240c-9.1 0-16.5-7.4-16.5-16.5 0-4.8 2.1-9.3 5.7-12.5l110.4-95.7c2.5-2.2 5.7-3.4 9.1-3.4 9.3 0 16 9.1 13.2 18l-24.4 78 45.5 0c9.1 0 16.5 7.4 16.5 16.5 0 4.8-2.1 9.3-5.7 12.5L227.9 332.6c-2.5 2.2-5.7 3.4-9.1 3.4-9.3 0-16-9.1-13.2-18l24.4-78-45.5 0z"/></svg>