<svg xmlns="http://www.w3.org/2000/svg" viewBox="0 0 512 512"><path fill="currentColor" d="M106.2 100.9L80.7 208 118.4 208c8.3-14.3 23.8-24 41.6-24l32 0c17.8 0 33.3 9.7 41.6 24l44.8 0c8.3-14.3 23.8-24 41.6-24l32 0c17.8 0 33.3 9.7 41.6 24l37.8 0-25.5-107.1C400.7 79.3 381.4 64 359.1 64L152.9 64c-22.2 0-41.5 15.3-46.7 36.9zM28.8 218.5l3.8-16.1 26.8-112.7C69.8 46.5 108.4 16 152.9 16l206.3 0c44.5 0 83.1 30.5 93.4 73.8l26.8 112.7 3.8 16.1C500.5 230 512 249.6 512 272l0 184c0 13.3-10.7 24-24 24s-24-10.7-24-24l0-24-416 0 0 24c0 13.3-10.7 24-24 24S0 469.3 0 456L0 272c0-22.4 11.5-42 28.8-53.5zM64 256c-8.8 0-16 7.2-16 16l0 112 416 0 0-112c0-8.8-7.2-16-16-16L64 256zm48 32a32 32 0 1 1 0 64 32 32 0 1 1 0-64zm256 32a32 32 0 1 1 64 0 32 32 0 1 1 -64 0zM136 128a40 40 0 1 1 80 0 40 40 0 1 1 -80 0zM336 88a40 40 0 1 1 0 80 40 40 0 1 1 0-80z"/></svg>