<svg xmlns="http://www.w3.org/2000/svg" viewBox="0 0 576 512"><path fill="currentColor" d="M141 122.3L304.7 78.4c10.1-2.7 20.9 1.5 26.5 10.3l35.4 55.9-246 65.9 2.7-66.1c.4-10.5 7.6-19.5 17.8-22.2zM75.3 142.5l-3.5 83.9c-23.4 14.5-35.6 43-28.1 71 34.9 130.1 35.5 132.7 39.3 146.8 .4 1.3 .8 2.6 1.3 3.8L24 448c-13.3 0-24 10.7-24 24s10.7 24 24 24l528 0c13.3 0 24-10.7 24-24s-10.7-24-24-24l-423.9 0c2.2-4.9 2.8-10.6 1.3-16.2l-6.2-23.2 340-91.1 6.2 23.2c3.4 12.8 16.6 20.4 29.4 17s20.4-16.6 17-29.4c-30.7-114.6-28.3-105.6-39.3-146.8-7.5-27.9-32.3-46.6-59.8-47.4l-45-71c-16.9-26.6-49-39.2-79.5-31L128.6 75.9c-30.4 8.2-52 35.1-53.3 66.6zm367.2 97.8l8.3 30.9-340 91.1c-4.8-18-11.7-43.8-20.7-77.3-2.3-8.5 2.8-17.3 11.3-19.6l309.1-82.8c8.5-2.3 17.3 2.8 19.6 11.3l12.4 46.4zM151 326.7a24 24 0 1 0 -12.4-46.4 24 24 0 1 0 12.4 46.4zM415.2 231a24 24 0 1 0 -46.4 12.4 24 24 0 1 0 46.4-12.4z"/></svg>