<svg xmlns="http://www.w3.org/2000/svg" viewBox="0 0 576 512"><path fill="currentColor" d="M233.8 70.8L87.1 155.5c-9.1 5.2-13.7 15.8-11.4 26l14.5 64.6 220.6-127.4-48.7-44.8c-7.7-7.1-19.2-8.4-28.3-3.1zm60.8-32.2l61.8 56.9c26.8-6.3 55.6 5.3 70.1 30.3 67.3 116.6 68.7 118.9 76 131.6 6.6 11.5 2.7 26.2-8.8 32.8s-26.2 2.7-32.8-8.8l-12-20.8-304.8 176 12 20.8c6.6 11.5 2.7 26.2-8.8 32.8s-26.2 2.7-32.8-8.8c-59.3-102.8-54.7-94.7-76-131.6-14.5-25-10.1-55.8 8.8-75.8L28.8 192c-6.9-30.7 7-62.4 34.3-78.1L209.8 29.2c27.3-15.7 61.6-11.9 84.8 9.4zM104 367.4l16 27.7 304.8-176c-9.3-16.2-22.7-39.3-40-69.3-4.4-7.7-14.2-10.3-21.9-5.9L85.9 304c-7.7 4.4-10.3 14.2-5.9 21.9l24 41.6zM347.3 180.8a24 24 0 1 1 24 41.6 24 24 0 1 1 -24-41.6zM158.4 317.6a24 24 0 1 1 -41.6 24 24 24 0 1 1 41.6-24zM572 480.4c5 17-9.8 31.6-27.5 31.6l-160 0c-17.7 0-32.5-14.6-27.5-31.6 13.6-46.5 56.6-80.4 107.5-80.4s93.9 33.9 107.5 80.4z"/></svg>