<svg xmlns="http://www.w3.org/2000/svg" viewBox="0 0 512 512"><path fill="currentColor" d="M80.3 128c32.8 0 61-19.7 73.3-48L359 80c12.3 28.3 40.5 48 73.3 48 35.8 0 66.1-23.5 76.3-56l-68.3 0c-13.2 0-23.9-10.7-24-23.9l0-.2c.1-13.2 10.8-23.9 24-23.9l68.3 0c-10.2-32.5-40.5-56-76.3-56-32.8 0-61 19.7-73.3 48L153.7 16C141.3-12.3 113.1-32 80.3-32 44.5-32 14.2-8.5 4 24l68.3 0c13.2 0 23.9 10.6 24 23.8l0 .4C96.2 61.4 85.5 72 72.3 72L4 72c10.2 32.5 40.5 56 76.3 56zm91.3 64L341 192c10.5 0 19.8 6.8 22.9 16.8l19.7 63.2-254.7 0 19.7-63.2c3.1-10 12.4-16.8 22.9-16.8zm-68.7 2.5L77.8 274.7c-26.3 7.9-45.5 32.4-45.5 61.3l0 152c0 13.3 10.7 24 24 24s24-10.7 24-24l0-24 352 0 0 24c0 13.3 10.7 24 24 24s24-10.7 24-24l0-152c0-28.9-19.2-53.4-45.5-61.3l-25.1-80.2C400.4 164.5 372.5 144 341 144l-169.4 0c-31.5 0-59.3 20.5-68.7 50.5zM432.3 384l0 32-352 0 0-80c0-8.8 7.2-16 16-16l320 0c8.8 0 16 7.2 16 16l0 48zm-304 8a24 24 0 1 0 0-48 24 24 0 1 0 0 48zm280-24a24 24 0 1 0 -48 0 24 24 0 1 0 48 0z"/></svg>