<svg xmlns="http://www.w3.org/2000/svg" viewBox="0 0 576 512"><path fill="currentColor" d="M297.6-6c-6.1-2.7-13.1-2.7-19.2 0L22.4 106C10.2 111.3 4.7 125.5 10 137.6S29.5 155.3 41.6 150L288 42.2 534.4 150c12.1 5.3 26.3-.2 31.6-12.4s-.2-26.3-12.4-31.6L297.6-6zM203.3 192l169.4 0c10.5 0 19.8 6.8 22.9 16.8l19.7 63.2-254.7 0 19.7-63.2c3.1-10 12.4-16.8 22.9-16.8zm-68.7 2.5l-25.1 80.2C83.2 282.6 64 307.1 64 336l0 152c0 13.3 10.7 24 24 24s24-10.7 24-24l0-24 352 0 0 24c0 13.3 10.7 24 24 24s24-10.7 24-24l0-152c0-28.9-19.2-53.4-45.5-61.3l-25.1-80.2C432 164.5 404.2 144 372.7 144l-169.4 0c-31.5 0-59.3 20.5-68.7 50.5zM464 384l0 32-352 0 0-80c0-8.8 7.2-16 16-16l320 0c8.8 0 16 7.2 16 16l0 48zm-304 8a24 24 0 1 0 0-48 24 24 0 1 0 0 48zm280-24a24 24 0 1 0 -48 0 24 24 0 1 0 48 0z"/></svg>