<svg xmlns="http://www.w3.org/2000/svg" viewBox="0 0 448 512"><path fill="currentColor" d="M248-8c0-13.3-10.7-24-24-24S200-21.3 200-8l0 64c0 13.3 10.7 24 24 24s24-10.7 24-24l0-64zM139.3 192l169.4 0c10.5 0 19.8 6.8 22.9 16.8l19.7 63.2-254.7 0 19.7-63.2c3.1-10 12.4-16.8 22.9-16.8zm-68.7 2.5L45.5 274.7C19.2 282.6 0 307.1 0 336L0 488c0 13.3 10.7 24 24 24s24-10.7 24-24l0-24 352 0 0 24c0 13.3 10.7 24 24 24s24-10.7 24-24l0-152c0-28.9-19.2-53.4-45.5-61.3l-25.1-80.2C368 164.5 340.2 144 308.7 144l-169.4 0c-31.5 0-59.3 20.5-68.7 50.5zM400 384l0 32-352 0 0-80c0-8.8 7.2-16 16-16l320 0c8.8 0 16 7.2 16 16l0 48zM96 392a24 24 0 1 0 0-48 24 24 0 1 0 0 48zm280-24a24 24 0 1 0 -48 0 24 24 0 1 0 48 0zM7 7C-2.3 16.4-2.3 31.6 7 41L55 89c9.4 9.4 24.6 9.4 33.9 0S98.3 64.4 89 55L41 7C31.6-2.3 16.4-2.3 7 7zM407 7L359 55c-9.4 9.4-9.4 24.6 0 33.9s24.6 9.4 33.9 0l48-48c9.4-9.4 9.4-24.6 0-33.9S416.4-2.3 407 7z"/></svg>