<svg xmlns="http://www.w3.org/2000/svg" viewBox="0 0 576 512"><path fill="currentColor" d="M118.4 112.8C124.9 93.2 143.2 80 163.9 80l184.2 0c15.6 0 29.9 7.6 38.8 19.8 14.2-7.8 29.6-13.5 46-16.7-16.4-31-48.9-51-84.8-51L163.9 32c-41.3 0-78 26.4-91.1 65.6l-33 99.1C16.4 206.3 0 229.2 0 256L0 456c0 13.3 10.7 24 24 24s24-10.7 24-24l0-40 320 0 0-48-320 0 0-112c0-8.8 7.2-16 16-16l240 0c0-16.7 2.6-32.8 7.3-48L92 192 118.4 112.8zM112 336a32 32 0 1 0 0-64 32 32 0 1 0 0 64zm464-96c0-61.9-50.1-112-112-112S352 178.1 352 240c0 44.7 26.2 83.2 64 101.2l0 116.2c0 4.2 1.7 8.3 4.7 11.3l32 32c6.2 6.2 16.4 6.2 22.6 0l41.4-41.4c6.2-6.2 6.2-16.4 0-22.6L496 416 517.9 394.1c5.8-5.8 6.3-14.9 1.2-21.3l-20.9-26.1C543.3 332.3 576 289.9 576 240zM432 224a32 32 0 1 1 64 0 32 32 0 1 1 -64 0z"/></svg>