<svg xmlns="http://www.w3.org/2000/svg" viewBox="0 0 512 512"><path fill="currentColor" d="M95.6-30.8l48 16C156.2-10.6 163 3 158.8 15.6S141 35 128.4 30.8l-48-16C67.8 10.6 61-3 65.2-15.6S83-35 95.6-30.8zM312 64l47.1 0c44.5 0 83.1 30.5 93.4 73.8L466 194.6c26.6 7.8 46 32.3 46 61.4l0 200c0 13.3-10.7 24-24 24s-24-10.7-24-24l0-40-416 0 0 40c0 13.3-10.7 24-24 24S0 469.3 0 456L0 256c0-29.1 19.4-53.6 46-61.4l13.5-56.8C69.8 94.5 108.4 64 152.9 64l47.1 0 6.3-25.2C212 16 232.5 0 256 0s44 16 49.7 38.8L312 64zM446.8-15.6C451-3 444.2 10.6 431.6 14.8l-48 16C371 35 357.4 28.2 353.2 15.6s2.6-26.2 15.2-30.4l48-16c12.6-4.2 26.2 2.6 30.4 15.2zM106.2 148.9l-10.3 43.1 320.2 0-10.3-43.1c-5.1-21.6-24.5-36.9-46.7-36.9l-206.3 0c-22.2 0-41.5 15.3-46.7 36.9zM448 240L64 240c-8.8 0-16 7.2-16 16l0 112 416 0 0-112c0-8.8-7.2-16-16-16zM80 304a32 32 0 1 1 64 0 32 32 0 1 1 -64 0zm320-32a32 32 0 1 1 0 64 32 32 0 1 1 0-64z"/></svg>