<svg xmlns="http://www.w3.org/2000/svg" viewBox="0 0 448 512"><path fill="currentColor" d="M224 96c26.5 0 48-16 48-48 0-22.2-23-52-37.2-68.2-5.8-6.7-15.9-6.7-21.7 0-14.2 16.3-37.2 46.1-37.2 68.2 0 26.5 21.5 48 48 48zm-84.7 96l169.4 0c10.5 0 19.8 6.8 22.9 16.8l19.7 63.2-254.7 0 19.7-63.2c3.1-10 12.4-16.8 22.9-16.8zm-68.7 2.5L45.5 274.7C19.2 282.6 0 307.1 0 336L0 488c0 13.3 10.7 24 24 24s24-10.7 24-24l0-24 352 0 0 24c0 13.3 10.7 24 24 24s24-10.7 24-24l0-152c0-28.9-19.2-53.4-45.5-61.3l-25.1-80.2C368 164.5 340.2 144 308.7 144l-169.4 0c-31.5 0-59.3 20.5-68.7 50.5zM400 384l0 32-352 0 0-80c0-8.8 7.2-16 16-16l320 0c8.8 0 16 7.2 16 16l0 48zM96 392a24 24 0 1 0 0-48 24 24 0 1 0 0 48zm280-24a24 24 0 1 0 -48 0 24 24 0 1 0 48 0zM112 48C112 25.8 89-4 74.8-20.2 69-26.9 59-26.9 53.2-20.2 39-4 16 25.8 16 48 16 74.5 37.5 96 64 96s48-16 48-48zM384 96c26.5 0 48-16 48-48 0-22.2-23-52-37.2-68.2-5.8-6.7-15.9-6.7-21.7 0-14.2 16.3-37.2 46.1-37.2 68.2 0 26.5 21.5 48 48 48z"/></svg>