<svg xmlns="http://www.w3.org/2000/svg" viewBox="0 0 640 512"><path fill="currentColor" d="M138.7 95.5l-36.8 96.5 44.4 0c-1.5 5.4-2.3 11.1-2.3 16.8 0 11.3 3 22 8.2 31.2L64 240c-8.8 0-16 7.2-16 16l0 80c0 8.8 7.2 16 16 16l9.6 0c14.6-28.5 44.2-48 78.4-48s63.8 19.5 78.4 48l163.2 0c14.6-28.5 44.2-48 78.4-48s63.8 19.5 78.4 48l25.6 0c8.8 0 16-7.2 16-16l0-16c0-44.2-35.8-80-80-80l-121.5 0c6.1-9.8 9.5-21.2 9.5-33.2 0-5.1-.6-10.1-1.8-14.8l59.2 0-78.1-102.5c-4.5-6-11.6-9.5-19.1-9.5L161.1 80c-10 0-18.9 6.2-22.4 15.5zM49.9 193.6L93.8 78.4C104.4 50.4 131.2 32 161.1 32l199.1 0c22.5 0 43.7 10.5 57.3 28.4L517.9 192.1C585.8 195.2 640 251.3 640 320l0 16c0 35.3-28.7 64-64 64l-16.4 0c-4 44.9-41.7 80-87.6 80s-83.6-35.1-87.6-80l-144.7 0c-4 44.9-41.7 80-87.6 80s-83.6-35.1-87.6-80l-.4 0c-35.3 0-64-28.7-64-64l0-80c0-30.5 21.3-56 49.9-62.4zM152 432a40 40 0 1 0 0-80 40 40 0 1 0 0 80zm360-40a40 40 0 1 0 -80 0 40 40 0 1 0 80 0zM208.2 224c-8.9 0-16.2-7.2-16.2-16.2 0-5 2.3-9.6 6.2-12.7l102.1-80.2c2.4-1.9 5.4-2.9 8.4-2.9 9.4 0 16 9.3 12.8 18.2l-22.1 61.8 36.4 0c8.9 0 16.2 7.2 16.2 16.2 0 5-2.3 9.6-6.2 12.7L243.7 301.1c-2.4 1.9-5.4 2.9-8.4 2.9-9.4 0-16-9.3-12.8-18.2l22.1-61.8-36.4 0z"/></svg>