<svg xmlns="http://www.w3.org/2000/svg" viewBox="0 0 576 512"><path fill="currentColor" d="M195.9 80c-20.7 0-39 13.2-45.5 32.8L124 192 452 192 425.6 112.8C419.1 93.2 400.8 80 380.1 80L195.9 80zM34 240l-10 0c-13.3 0-24-10.7-24-24s10.7-24 24-24l49.4 0 31.5-94.4C117.9 58.4 154.6 32 195.9 32l184.2 0c41.3 0 78 26.4 91.1 65.6l31.5 94.4 49.4 0c13.3 0 24 10.7 24 24s-10.7 24-24 24l-10 0c1.3 5.1 2 10.5 2 16l0 200c0 13.3-10.7 24-24 24s-24-10.7-24-24l0-40-416 0 0 40c0 13.3-10.7 24-24 24s-24-10.7-24-24l0-200c0-5.5 .7-10.9 2-16zm62 0c-8.8 0-16 7.2-16 16l0 112 416 0 0-112c0-8.8-7.2-16-16-16L96 240zm16 64a32 32 0 1 1 64 0 32 32 0 1 1 -64 0zm320-32a32 32 0 1 1 0 64 32 32 0 1 1 0-64z"/></svg>