<svg xmlns="http://www.w3.org/2000/svg" viewBox="0 0 576 512"><path fill="currentColor" d="M320 48L64 48c-8.8 0-16 7.2-16 16l0 352c0 8.8 7.2 16 16 16l80 0 0 48-80 0c-35.3 0-64-28.7-64-64L0 64C0 28.7 28.7 0 64 0L320 0c35.3 0 64 28.7 64 64l0 47.8-48 0 0-47.8c0-8.8-7.2-16-16-16zM144 496l0-8.2c0 2.8 .2 5.5 .5 8.2l-.5 0zM112 96l32 0c8.8 0 16 7.2 16 16l0 32c0 8.8-7.2 16-16 16l-32 0c-8.8 0-16-7.2-16-16l0-32c0-8.8 7.2-16 16-16zM96 240c0-8.8 7.2-16 16-16l32 0c8.8 0 16 7.2 16 16l0 32c0 8.8-7.2 16-16 16l-32 0c-8.8 0-16-7.2-16-16l0-32zm219.3-32.1c-10.5 0-19.8 6.8-22.9 16.8l-19.7 63.2 222.7 0-19.7-63.2c-3.1-10-12.4-16.8-22.9-16.8l-137.4 0zm-68.7 2.5c9.4-30.1 37.2-50.5 68.7-50.5l137.4 0c31.5 0 59.3 20.5 68.7 50.5l28 89.5c16.1 11.6 26.6 30.6 26.6 51.9l0 136c0 13.3-10.7 24-24 24s-24-10.7-24-24l0-8-288 0 0 8c0 13.3-10.7 24-24 24s-24-10.7-24-24l0-136c0-21.4 10.5-40.3 26.6-51.9l28-89.5zM528 399.9l0-48c0-8.8-7.2-16-16-16l-256 0c-8.8 0-16 7.2-16 16l0 80 288 0 0-32zm-240-40a24 24 0 1 1 0 48 24 24 0 1 1 0-48zm168 24a24 24 0 1 1 48 0 24 24 0 1 1 -48 0z"/></svg>