<svg xmlns="http://www.w3.org/2000/svg" viewBox="0 0 640 512"><path fill="currentColor" d="M232 16.1l0-48c0-13.3-10.7-24-24-24s-24 10.7-24 24l0 48c0 13.3 10.7 24 24 24s24-10.7 24-24zM32 168.1l48 0c13.3 0 24-10.7 24-24s-10.7-24-24-24l-48 0c-13.3 0-24 10.7-24 24s10.7 24 24 24zM281.5 70.6c9.4 9.4 24.6 9.4 33.9 0l33.9-33.9c9.4-9.4 9.4-24.6 0-33.9s-24.6-9.4-33.9 0L281.5 36.6c-9.4 9.4-9.4 24.6 0 33.9zm-181 215l33.9-33.9c9.4-9.4 9.4-24.6 0-33.9s-24.6-9.4-33.9 0L66.6 251.6c-9.4 9.4-9.4 24.6 0 33.9s24.6 9.4 33.9 0zM66.6 2.7c-9.4 9.4-9.4 24.6 0 33.9l33.9 33.9c9.4 9.4 24.6 9.4 33.9 0s9.4-24.6 0-33.9L100.5 2.7C91.1-6.7 76-6.7 66.6 2.7zM351.3 158.4L515 202.3c10.1 2.7 17.3 11.7 17.8 22.2l2.7 66.1-246-65.9 35.4-55.9c5.6-8.9 16.3-13.1 26.5-10.3zm-67-15.3l-45 71c-27.5 .8-52.3 19.5-59.8 47.4-34.9 130.1-35.5 132.7-39.3 146.8-3.4 12.8 4.2 26 17 29.4s26-4.2 29.4-17l6.2-23.2 340 91.1-6.2 23.2c-3.4 12.8 4.2 26 17 29.4s26-4.2 29.4-17c30.7-114.6 28.3-105.6 39.3-146.8 7.5-27.9-4.7-56.5-28.1-71l-3.4-83.9c-1.3-31.5-22.9-58.4-53.3-66.6L363.7 112.1c-30.4-8.2-62.6 4.4-79.5 31zM553.4 411.4l-8.3 30.9-340-91.1c4.8-18 11.7-43.8 20.7-77.3 2.3-8.5 11.1-13.6 19.6-11.3l309.1 82.8c8.5 2.3 13.6 11.1 11.3 19.6l-12.4 46.4zm-295.7-71a24 24 0 1 0 12.4-46.4 24 24 0 1 0 -12.4 46.4zm276.7 49.3a24 24 0 1 0 -46.4-12.4 24 24 0 1 0 46.4 12.4z"/></svg>