<svg xmlns="http://www.w3.org/2000/svg" viewBox="0 0 512 512"><path fill="currentColor" d="M48 256C48 141.1 141.1 48 256 48s208 93.1 208 208l0 232c0 13.3 10.7 24 24 24s24-10.7 24-24l0-232C512 114.6 397.4 0 256 0S0 114.6 0 256L0 488c0 13.3 10.7 24 24 24s24-10.7 24-24l0-232zm139.3 20.2c1.4-2.6 4.1-4.3 7.1-4.3l123.3 0c3 0 5.7 1.6 7.1 4.3l23.2 43.7-183.8 0 23.2-43.7zM144 416l0-48 224 0 0 48-224 0zm0 48l224 0 0 22c0 13.3 10.7 24 24 24s24-10.7 24-24l0-118.1c0-14.4-3.5-28.5-10.2-41.2l-38.6-72.9c-9.7-18.3-28.7-29.8-49.5-29.8l-123.3 0c-20.7 0-39.8 11.5-49.5 29.8l-38.6 72.9C99.5 339.4 96 353.5 96 367.9L96 486c0 13.3 10.7 24 24 24s24-10.7 24-24l0-22z"/></svg>