<svg xmlns="http://www.w3.org/2000/svg" viewBox="0 0 512 512"><path fill="currentColor" d="M163.9 80l184.2 0c20.7 0 39 13.2 45.5 32.8L420 192 92 192 118.4 112.8C124.9 93.2 143.2 80 163.9 80zM72.8 97.6l-33 99.1C16.4 206.3 0 229.2 0 256l0 96c0 23.7 12.9 44.4 32 55.4L32 456c0 13.3 10.7 24 24 24s24-10.7 24-24l0-40 352 0 0 40c0 13.3 10.7 24 24 24s24-10.7 24-24l0-48.6c19.1-11.1 32-31.7 32-55.4l0-96c0-26.8-16.4-49.7-39.8-59.3l-33-99.1C426.1 58.4 389.4 32 348.1 32L163.9 32c-41.3 0-78 26.4-91.1 65.6zM320 368l0-32c0-17.7-14.3-32-32-32l-64 0c-17.7 0-32 14.3-32 32l0 32-128 0c-8.8 0-16-7.2-16-16l0-96c0-8.8 7.2-16 16-16l384 0c8.8 0 16 7.2 16 16l0 96c0 8.8-7.2 16-16 16l-128 0zM80 296c0 13.3 10.7 24 24 24l32 0c13.3 0 24-10.7 24-24s-10.7-24-24-24l-32 0c-13.3 0-24 10.7-24 24zm296-24c-13.3 0-24 10.7-24 24s10.7 24 24 24l32 0c13.3 0 24-10.7 24-24s-10.7-24-24-24l-32 0z"/></svg>