<svg xmlns="http://www.w3.org/2000/svg" viewBox="0 0 576 512"><path fill="currentColor" d="M96 48l192 0c26.5 0 48 21.5 48 48L48 96c0-26.5 21.5-48 48-48zM48 144l185.4 0c21.7-20.2 50.7-32.2 81.9-32.2l68.7 0 0-15.8c0-53-43-96-96-96L96 0C43 0 0 43 0 96L0 352c0 29.8 20.4 54.9 48 62l0 42c0 13.3 10.7 24 24 24s24-10.7 24-24l0-40 48 0 0-48-80 0c-8.8 0-16-7.2-16-16l0-112 139 0 13.8-44c.4-1.3 .9-2.7 1.3-4L48 192 48 144zm64 192a32 32 0 1 0 0-64 32 32 0 1 0 0 64zM315.3 207.9l137.4 0c10.5 0 19.8 6.8 22.9 16.8l19.7 63.2-222.7 0 19.7-63.2c3.1-10 12.4-16.8 22.9-16.8zm-68.7 2.5l-28 89.5c-16.1 11.6-26.6 30.6-26.6 51.9l0 136c0 13.3 10.7 24 24 24s24-10.7 24-24l0-8 288 0 0 8c0 13.3 10.7 24 24 24s24-10.7 24-24l0-136c0-21.4-10.5-40.3-26.6-51.9l-28-89.5c-9.4-30.1-37.2-50.5-68.7-50.5l-137.4 0c-31.5 0-59.3 20.5-68.7 50.5zM528 399.9l0 32-288 0 0-80c0-8.8 7.2-16 16-16l256 0c8.8 0 16 7.2 16 16l0 48zm-240 8a24 24 0 1 0 0-48 24 24 0 1 0 0 48zm216-24a24 24 0 1 0 -48 0 24 24 0 1 0 48 0z"/></svg>