<svg xmlns="http://www.w3.org/2000/svg" viewBox="0 0 640 512"><path fill="currentColor" d="M150.4 112.8C156.9 93.2 175.2 80 195.9 80l184.2 0c20.7 0 39 13.2 45.5 32.8l23 69.1c15.1-3.8 31-5.9 47.3-5.9l1.3 0-26.1-78.4C458.1 58.4 421.4 32 380.1 32L195.9 32c-41.3 0-78 26.4-91.1 65.6l-33 99.1C48.4 206.3 32 229.2 32 256l0 200c0 13.3 10.7 24 24 24s24-10.7 24-24l0-40 230 0c-3.9-15.3-6-31.4-6-48l-224 0 0-112c0-8.8 7.2-16 16-16l256.9 0c18.3-20.4 40.8-36.9 66.3-48l-295.2 0 26.4-79.2zM144 336a32 32 0 1 0 0-64 32 32 0 1 0 0 64zm496 32a144 144 0 1 0 -288 0 144 144 0 1 0 288 0zM529.4 291c5.8 4.2 8.1 11.8 5.6 18.6L519.1 352 552 352c6.8 0 12.8 4.3 15.1 10.7s.2 13.5-5.1 17.8l-80 64c-5.6 4.5-13.6 4.7-19.4 .5s-8.1-11.8-5.6-18.6l15.9-42.4-32.9 0c-6.8 0-12.8-4.3-15.1-10.7s-.2-13.5 5.1-17.8l80-64c5.6-4.5 13.6-4.7 19.4-.5z"/></svg>