<svg xmlns="http://www.w3.org/2000/svg" viewBox="0 0 640 512"><path fill="currentColor" d="M416 80c44.2 0 80 35.8 80 80l0 208-204.1 0c-16.1-19.5-40.6-32-67.9-32s-51.7 12.5-67.9 32L96 368c-8.8 0-16-7.2-16-16L80 96c0-8.8 7.2-16 16-16l320 0zM96 416l40.4 0c-.2 2.6-.4 5.3-.4 8 0 48.6 39.4 88 88 88s88-39.4 88-88c0-2.7-.1-5.4-.4-8L616 416c13.3 0 24-10.7 24-24s-10.7-24-24-24l-72 0 0-208c0-70.7-57.3-128-128-128L96 32C60.7 32 32 60.7 32 96l0 256c0 35.3 28.7 64 64 64zm64-288c-17.7 0-32 14.3-32 32l0 64c0 17.7 14.3 32 32 32l64 0c17.7 0 32-14.3 32-32l0-64c0-17.7-14.3-32-32-32l-64 0zm160 32l0 64c0 17.7 14.3 32 32 32l64 0c17.7 0 32-14.3 32-32l0-64c0-17.7-14.3-32-32-32l-64 0c-17.7 0-32 14.3-32 32zM224 384a40 40 0 1 1 0 80 40 40 0 1 1 0-80z"/></svg>