<svg xmlns="http://www.w3.org/2000/svg" viewBox="0 0 512 512"><path fill="currentColor" d="M454.7 64.4c32.3 3.3 57.5 30.5 57.5 63.7l0 320-.3 6.5c-3.1 30.1-27 54.1-57.1 57.1l-6.5 .3-192 0-6.5-.3c-12.1-1.2-23.1-5.9-32.2-12.8l130-34.8 100.8 0c8.8 0 16-7.2 16-16l0-320c0-8.8-7.2-16-16-16l-70.7 0-12.8-48 83.5 0 6.5 .3zM233.3-18.6c32-5.2 63.4 14.6 72 46.6l82.8 309.1 1.4 6.4c4.8 29.9-12.1 59.2-40.4 70l-6.2 2-185.5 49.7-6.4 1.3c-29.9 4.8-59.2-12.1-70-40.4l-2-6.2-82.8-309.1c-8.6-32 8.7-64.8 39-76.3l6.2-2 185.5-49.7 6.4-1.4zm6 47.8L53.9 78.9c-8.5 2.3-13.6 11.1-11.3 19.6l82.8 309.1c2.3 8.5 11.1 13.6 19.6 11.3l185.4-49.7c8.5-2.3 13.6-11.1 11.3-19.6L258.9 40.5c-2.3-8.5-11.1-13.6-19.6-11.3z"/></svg>