<svg xmlns="http://www.w3.org/2000/svg" viewBox="0 0 384 512"><path fill="currentColor" d="M320 0c35.3 0 64 28.7 64 64l0 384c0 35.3-28.7 64-64 64l-256 0-6.5-.3C25.2 508.4 0 481.1 0 448L0 64C0 28.7 28.7 0 64 0L320 0zM64 48c-8.8 0-16 7.2-16 16l0 384c0 8.8 7.2 16 16 16l256 0c8.8 0 16-7.2 16-16l0-384c0-8.8-7.2-16-16-16L64 48zM224 352c13.3 0 24 10.7 24 24s-10.7 24-24 24l-64 0c-13.3 0-24-10.7-24-24s10.7-24 24-24l64 0zM192 112c35.3 0 64 28.7 64 64 0 5.6-.8 11.1-2.2 16.3 32.6 2.9 58.2 30.3 58.2 63.7 0 35.3-28.7 64-64 64-24.1 0-45.1-13.4-56-33.1-10.9 19.7-31.9 33.1-56 33.1-35.3 0-64-28.7-64-64 0-33.4 25.5-60.8 58.2-63.7-1.4-5.2-2.2-10.6-2.2-16.3 0-35.3 28.7-64 64-64z"/></svg>