<svg xmlns="http://www.w3.org/2000/svg" viewBox="0 0 384 512"><path fill="currentColor" d="M320 0c35.3 0 64 28.7 64 64l0 384c0 35.3-28.7 64-64 64l-256 0-6.5-.3C25.2 508.4 0 481.1 0 448L0 64C0 28.7 28.7 0 64 0L320 0zM64 48c-8.8 0-16 7.2-16 16l0 384c0 8.8 7.2 16 16 16l256 0c8.8 0 16-7.2 16-16l0-384c0-8.8-7.2-16-16-16L64 48zM224 352c13.3 0 24 10.7 24 24s-10.7 24-24 24l-64 0c-13.2 0-24-10.8-24-24s10.8-24 24-24l64 0zM175 141.2c9.4-9.4 24.6-9.4 34 0l82.3 82.3c21.9 21.9 21.9 57.3 0 79.2-21.9 21.9-57.3 21.9-79.2 0l-3.2-3.2c-9.4-9.4-24.6-9.4-34 0l-3.2 3.2c-21.9 21.9-57.3 21.9-79.2 0-21.9-21.9-21.9-57.4 0-79.2L175 141.2z"/></svg>