<svg xmlns="http://www.w3.org/2000/svg" viewBox="0 0 512 512"><path fill="currentColor" d="M448.1 64c35.3 0 64 28.7 64 64l0 320c0 35.3-28.7 64-64 64l-192 0-6.5-.3c-12.1-1.2-23.1-5.8-32.3-12.8l130-34.8 100.8 0c8.8 0 16-7.2 16-16l0-320c0-8.8-7.2-16-16-16l-70.7 0-12.8-48 83.5 0zM226.9-17.2C261-26.3 296.1-6.1 305.3 28l82.8 309.1c9.1 34.1-11.1 69.3-45.3 78.4l-185.5 49.7-6.4 1.3C119 471.8 87.6 452 79 420L-3.8 110.9C-12.9 76.7 7.3 41.6 41.4 32.5L226.9-17.2zm12.4 46.4L53.9 78.9c-8.5 2.3-13.6 11.1-11.3 19.6l82.8 309.1c2.3 8.5 11.1 13.6 19.6 11.3l185.5-49.7c8.5-2.3 13.6-11.1 11.3-19.6L258.9 40.5c-2.3-8.5-11.1-13.6-19.6-11.3zm9.2 252.6c9.3-.5 18 5.5 20.5 14.8 2.5 9.3-2.1 18.9-10.4 23.1l-3.8 1.4-53.8 14.4c-10.7 2.9-21.6-3.5-24.5-14.2s3.5-21.6 14.2-24.5l53.8-14.4 4-.7zM164.1 138.5c3.9-4.4 10.5-5.6 15.8-2.6l27.4 15.8 0 0 46.4 26.8 .4 .3 2.8 1.7 .6 .4c18.2 13.1 23.8 38.2 12.4 58l0 0c-10.8 18.6-33 26.4-52.6 19.8l-3.9-1.5c-.2-.1-.3-.1-.5-.2l-3.6-1.8-8.1-4.7-4.7 8.1c-11.5 19.8-36 27.5-56.4 18.3l-4.1-2.1c-21.2-12.2-28.4-39.4-16.2-60.5l42.6-73.8 1.5-2.1z"/></svg>