<svg xmlns="http://www.w3.org/2000/svg" viewBox="0 0 576 512"><path fill="currentColor" d="M392.4 25.9l6.5 6.5c21.9 21.9 21.9 57.3 0 79.2l-6.5 6.5-6.5-6.5c-21.9-21.9-21.9-57.3 0-79.2l6.5-6.5zm40.4 119.6c21.9-21.9 57.3-21.9 79.2 0l6.5 6.5-6.5 6.5c-21.9 21.9-57.3 21.9-79.2 0l-6.5-6.5 6.5-6.5zm30-64c2.7-29.7-7.3-60.4-30-83.1L420.7-13.7c-15.6-15.6-40.9-15.6-56.6 0L352-1.5c-27 27-36.1 65.2-27.1 99.7-8.2-1.4-16.6-2.1-25.3-2.1-58.3 0-111.3 34.1-135.5 87.2L35.2 466.8c-5.5 12.1-2.9 26.4 6.5 35.9s23.7 12 35.9 6.5L361.1 380.3c53.1-24.1 87.2-77.1 87.2-135.5 0-8.6-.7-17-2.1-25.2 34.5 8.9 72.7-.1 99.7-27.1L558 180.3c15.6-15.6 15.6-40.9 0-56.6l-12.1-12.1c-22.7-22.7-53.4-32.8-83.1-30zM234.3 168c17.9-15.2 40.9-24 65.3-24 55.7 0 100.8 45.1 100.8 100.8 0 39.5-23.1 75.4-59.1 91.8l-89.7 40.8-26.3-26.3c-9.4-9.4-24.6-9.4-33.9 0s-9.4 24.6 0 33.9L205 398.5 96.6 447.8 205.8 207.4 239.4 241c9.4 9.4 24.6 9.4 33.9 0s9.4-24.6 0-33.9l-39-39z"/></svg>