<svg xmlns="http://www.w3.org/2000/svg" viewBox="0 0 576 512"><path fill="currentColor" d="M100.4 64.7c3.1-10 12.4-16.8 22.9-16.8l137.4 0c10.5 0 19.8 6.8 22.9 16.8l15.1 48.2c5.4-.8 11-1.2 16.6-1.2l33.3 0-19.2-61.3C320 20.4 292.2-.1 260.7-.1L123.3-.1C91.8-.1 64 20.4 54.6 50.4L26.6 140C10.5 151.6 0 170.5 0 191.9l0 136c0 13.3 10.7 24 24 24s24-10.7 24-24l0-8 100.6 0c5.4-18.1 15.2-34.4 28.2-47.4l.2-.6-129 0 0-80c0-8.8 7.2-16 16-16l145.1 0c10.6-20.2 26.7-36.8 46.1-48l-174.5 0 19.7-63.2zM120 223.9a24 24 0 1 0 -48 0 24 24 0 1 0 48 0zm195.3-16l137.4 0c10.5 0 19.8 6.8 22.9 16.8l19.7 63.2-222.7 0 19.7-63.2c3.1-10 12.4-16.8 22.9-16.8zm-68.7 2.5l-28 89.5c-16.1 11.6-26.6 30.6-26.6 51.9l0 136c0 13.3 10.7 24 24 24s24-10.7 24-24l0-8 288 0 0 8c0 13.3 10.7 24 24 24s24-10.7 24-24l0-136c0-21.4-10.5-40.3-26.6-51.9l-28-89.5c-9.4-30.1-37.2-50.5-68.7-50.5l-137.4 0c-31.5 0-59.3 20.5-68.7 50.5zM528 399.9l0 32-288 0 0-80c0-8.8 7.2-16 16-16l256 0c8.8 0 16 7.2 16 16l0 48zm-240 8a24 24 0 1 0 0-48 24 24 0 1 0 0 48zm216-24a24 24 0 1 0 -48 0 24 24 0 1 0 48 0z"/></svg>