<svg xmlns="http://www.w3.org/2000/svg" viewBox="0 0 640 512"><path fill="currentColor" d="M0 8C0-5.3 10.7-16 24-16l45.3 0c27.1 0 50.3 19.4 55.1 46l38.2 210 309.8 0c11.5 0 21.4-8.2 23.6-19.5L528.4 51.5c2.5-13 15.1-21.5 28.1-19s21.5 15.1 19 28.1L543.1 229.6c-6.5 33.9-36.2 58.4-70.7 58.4l-301 0 5.1 28.3c2.1 11.4 12 19.7 23.6 19.7L456 336c13.3 0 24 10.7 24 24s-10.7 24-24 24l-255.9 0c-34.8 0-64.6-24.9-70.8-59.1L77.2 38.6c-.7-3.8-4-6.6-7.9-6.6L24 32C10.7 32 0 21.3 0 8zM160 464a48 48 0 1 1 96 0 48 48 0 1 1 -96 0zm224 0a48 48 0 1 1 96 0 48 48 0 1 1 -96 0zM320 0c13.3 0 24 10.7 24 24l0 48 48 0c13.3 0 24 10.7 24 24s-10.7 24-24 24l-48 0 0 48c0 13.3-10.7 24-24 24s-24-10.7-24-24l0-48-48 0c-13.3 0-24-10.7-24-24s10.7-24 24-24l48 0 0-48c0-13.3 10.7-24 24-24z"/></svg>