<svg xmlns="http://www.w3.org/2000/svg" viewBox="0 0 640 512"><path fill="currentColor" d="M0 8C0-5.3 10.7-16 24-16l45.3 0c27.1 0 50.3 19.4 55.1 46l.4 2 399.9 0c25.1 0 44 22.9 39.3 47.6L538.3 212.7c-13.6-3.1-27.8-4.7-42.3-4.7-1.9 0-3.8 0-5.7 .1l.1-.5 24.5-127.6-381.5 0 29.1 160 227.3 0c-19.4 12.9-36.2 29.2-49.8 48l-168.7 0 5.1 28.3c2.1 11.4 12 19.7 23.6 19.7l114.9 0c-5.4 15.2-8.9 31.3-10.3 48l-104.6 0c-34.8 0-64.6-24.9-70.8-59.1L77.2 38.6c-.7-3.8-4-6.6-7.9-6.6L24 32C10.7 32 0 21.3 0 8zM208 416a48 48 0 1 1 0 96 48 48 0 1 1 0-96zM496 544a144 144 0 1 1 0-288 144 144 0 1 1 0 288zM428.7 403.3c6.2 6.2 16.4 6.2 22.6 0l28.7-28.7 0 89.4c0 8.8 7.2 16 16 16s16-7.2 16-16l0-89.4 28.7 28.7c6.2 6.2 16.4 6.2 22.6 0s6.2-16.4 0-22.6l-56-56c-6.2-6.2-16.4-6.2-22.6 0l-56 56c-6.2 6.2-6.2 16.4 0 22.6z"/></svg>