<svg xmlns="http://www.w3.org/2000/svg" viewBox="0 0 640 512"><path fill="currentColor" d="M88-16C74.7-16 64-5.3 64 8S74.7 32 88 32l45.3 0c3.9 0 7.2 2.8 7.9 6.6l52.1 286.3c6.2 34.2 36 59.1 70.8 59.1L520 384c13.3 0 24-10.7 24-24s-10.7-24-24-24l-255.9 0c-11.6 0-21.5-8.3-23.6-19.7l-5.1-28.3 279.8 0c42.2 0 78.4-29.9 86.4-71.4L627.9 79.6C632.7 54.9 613.8 32 588.6 32l-399.9 0-.4-2c-4.8-26.6-28-46-55.1-46L88-16zM515.1 240l-288.6 0-29.1-160 381.5 0-24.5 127.6c-3.6 18.8-20.1 32.4-39.3 32.4zM320 464a48 48 0 1 0 -96 0 48 48 0 1 0 96 0zm224 0a48 48 0 1 0 -96 0 48 48 0 1 0 96 0zM24 96C10.7 96 0 106.7 0 120s10.7 24 24 24l64 0c13.3 0 24-10.7 24-24S101.3 96 88 96L24 96zm0 96c-13.3 0-24 10.7-24 24s10.7 24 24 24l80 0c13.3 0 24-10.7 24-24s-10.7-24-24-24l-80 0zm0 96c-13.3 0-24 10.7-24 24s10.7 24 24 24l96 0c13.3 0 24-10.7 24-24s-10.7-24-24-24l-96 0z"/></svg>