<svg xmlns="http://www.w3.org/2000/svg" viewBox="0 0 576 512"><path fill="currentColor" d="M0 24C0 10.7 10.7 0 24 0L56 0c30.9 0 56 25.1 56 56l0 336c0 4.4 3.6 8 8 8l432 0c13.3 0 24 10.7 24 24s-10.7 24-24 24l-42.7 0c1.8 5 2.7 10.4 2.7 16 0 26.5-21.5 48-48 48s-48-21.5-48-48c0-5.6 1-11 2.7-16l-197.5 0c1.8 5 2.7 10.4 2.7 16 0 26.5-21.5 48-48 48s-48-21.5-48-48c0-5.6 1-11 2.7-16L120 448c-30.9 0-56-25.1-56-56L64 56c0-4.4-3.6-8-8-8L24 48C10.7 48 0 37.3 0 24zm288 88l-64 0c-8.8 0-16 7.2-16 16l0 160c0 8.8 7.2 16 16 16l64 0c8.8 0 16-7.2 16-16l0-160c0-8.8-7.2-16-16-16zm64 34c5.1-1.3 10.5-2 16-2l80 0c35.3 0 64 28.7 64 64l0 80c0 35.3-28.7 64-64 64l-80 0c-15.1 0-29-5.3-40-14-11 8.8-24.9 14-40 14l-64 0c-35.3 0-64-28.7-64-64l0-160c0-35.3 28.7-64 64-64l64 0c35.3 0 64 28.7 64 64l0 18zm0 62l0 80c0 8.8 7.2 16 16 16l80 0c8.8 0 16-7.2 16-16l0-80c0-8.8-7.2-16-16-16l-80 0c-8.8 0-16 7.2-16 16z"/></svg>