<svg xmlns="http://www.w3.org/2000/svg" viewBox="0 0 576 512"><path fill="currentColor" d="M24 0C10.7 0 0 10.7 0 24S10.7 48 24 48l32 0c4.4 0 8 3.6 8 8l0 320c0 38 29.5 69.1 66.8 71.8-1.8 5.1-2.8 10.5-2.8 16.2 0 26.5 21.5 48 48 48s48-21.5 48-48c0-5.6-1-11-2.7-16l197.5 0c-1.8 5-2.7 10.4-2.7 16 0 26.5 21.5 48 48 48s48-21.5 48-48c0-5.6-1-11-2.7-16l42.7 0c13.3 0 24-10.7 24-24s-10.7-24-24-24l-416 0c-13.3 0-24-10.7-24-24l0-320C112 25.1 86.9 0 56 0L24 0zM208 112l256 0 0 192-256 0 0-192zm-48 0l0 192c0 26.5 21.5 48 48 48l256 0c26.5 0 48-21.5 48-48l0-192c0-26.5-21.5-48-48-48L208 64c-26.5 0-48 21.5-48 48z"/></svg>