<svg xmlns="http://www.w3.org/2000/svg" viewBox="0 0 576 512"><path fill="currentColor" d="M0 24C0 10.7 10.7 0 24 0L56 0c30.9 0 56 25.1 56 56l0 320c0 13.3 10.7 24 24 24l416 0c13.3 0 24 10.7 24 24s-10.7 24-24 24l-42.7 0c1.8 5 2.7 10.4 2.7 16 0 26.5-21.5 48-48 48s-48-21.5-48-48c0-5.6 1-11 2.7-16l-197.5 0c1.8 5 2.7 10.4 2.7 16 0 26.5-21.5 48-48 48s-48-21.5-48-48c0-5.7 1-11.1 2.8-16.2-37.3-2.7-66.8-33.8-66.8-71.8L64 56c0-4.4-3.6-8-8-8L24 48C10.7 48 0 37.3 0 24zM464 144l-256 0 0 160 256 0 0-160zM208 96l48 0 0-24c0-30.9 25.1-56 56-56l48 0c30.9 0 56 25.1 56 56l0 24 48 0c26.5 0 48 21.5 48 48l0 160c0 26.5-21.5 48-48 48l-256 0c-26.5 0-48-21.5-48-48l0-160c0-26.5 21.5-48 48-48zm96 0l64 0 0-24c0-4.4-3.6-8-8-8l-48 0c-4.4 0-8 3.6-8 8l0 24z"/></svg>