<svg xmlns="http://www.w3.org/2000/svg" viewBox="0 0 512 512"><path fill="currentColor" d="M448 112c8.8 0 16 7.2 16 16l0 256c0 8.8-7.2 16-16 16l-28.8 0-7.1-17.8c-7.3-18.2-24.9-30.2-44.6-30.2l-223 0c-19.6 0-37.3 11.9-44.6 30.2L92.8 400 64 400c-8.8 0-16-7.2-16-16l0-256c0-8.8 7.2-16 16-16l384 0zM64 64C28.7 64 0 92.7 0 128L0 384c0 35.3 28.7 64 64 64l384 0c35.3 0 64-28.7 64-64l0-256c0-35.3-28.7-64-64-64L64 64zm72 160a24 24 0 1 1 48 0 24 24 0 1 1 -48 0zm24 64l192 0c35.3 0 64-28.7 64-64s-28.7-64-64-64l-192 0c-35.3 0-64 28.7-64 64s28.7 64 64 64zm132.7-40l-73.3 0c3-7.4 4.7-15.5 4.7-24s-1.7-16.6-4.7-24l73.3 0c-3 7.4-4.7 15.5-4.7 24s1.7 16.6 4.7 24zM352 200a24 24 0 1 1 0 48 24 24 0 1 1 0-48z"/></svg>