<svg xmlns="http://www.w3.org/2000/svg" viewBox="0 0 512 512"><path fill="currentColor" d="M48 160l0 224c0 8.8 7.2 16 16 16l384 0c8.8 0 16-7.2 16-16l0-224-416 0zM0 128C0 92.7 28.7 64 64 64l384 0c35.3 0 64 28.7 64 64l0 256c0 35.3-28.7 64-64 64L64 448c-35.3 0-64-28.7-64-64L0 128zM320 256l0 48 48 0 0-48-48 0zm-48-16c0-17.7 14.3-32 32-32l80 0c17.7 0 32 14.3 32 32l0 80c0 17.7-14.3 32-32 32l-80 0c-17.7 0-32-14.3-32-32l0-80zM160 304a24 24 0 1 0 0-48 24 24 0 1 0 0 48zm0-96a72 72 0 1 1 0 144 72 72 0 1 1 0-144z"/></svg>