<svg xmlns="http://www.w3.org/2000/svg" viewBox="0 0 512 512"><path fill="currentColor" d="M464 160l0 224c0 8.8-7.2 16-16 16L64 400c-8.8 0-16-7.2-16-16l0-224 416 0zM64 64C28.7 64 0 92.7 0 128L0 384c0 35.3 28.7 64 64 64l384 0c35.3 0 64-28.7 64-64l0-256c0-35.3-28.7-64-64-64L64 64zM184 256l0 48-16 0c-13.3 0-24-10.7-24-24s10.7-24 24-24l16 0zm48 0l48 0 0 48-48 0 0-48zm96 48l0-48 16 0c13.3 0 24 10.7 24 24s-10.7 24-24 24l-16 0zM168 208c-39.8 0-72 32.2-72 72s32.2 72 72 72l176 0c39.8 0 72-32.2 72-72s-32.2-72-72-72l-176 0z"/></svg>