<svg xmlns="http://www.w3.org/2000/svg" viewBox="0 0 576 512"><path fill="currentColor" d="M400-32c97.2 0 176 78.8 176 176 0 54.7-24.9 103.5-64 135.8L512 448c0 35.3-28.7 64-64 64s-64-28.7-64-64l0-82.8-80 70.6 0 28.2 24 0c13.3 0 24 10.8 24 24 0 13.2-10.7 24-24 24l-176 0c-48.6 0-88-39.4-88-88l0-240c0-22.1-17.9-40-40-40-13.2 0-24-10.8-24-24 0-13.2 10.8-24 24-24 48.6 0 88 39.4 88 88l0 95.1c29.5-39.6 70.8-70 119-85.9-4.5-15.6-7-32.1-7-49.2 0-97.2 78.8-176 176-176zM250.8 237.2c-78 23.4-134.6 93.9-138.5 177.3l-.2 9.4 .2 4.1c2.1 20.2 19.1 35.9 39.8 35.9l104 0 0-64c0-17.7-14.3-32-32-32l-8 0c-13.2 0-24-10.8-24-24 0-13.2 10.8-24 24-24l8 0c35.5 0 65.6 23.2 76 55.2l66.2-58.5c-48.6-9.4-90.1-38.9-115.5-79.5zM464 307.9c-10.2 4-20.9 7.1-32 9.1l0 131c0 8.8 7.2 16 16 16s16-7.2 16-16l0-140.1zM496 144c0 53-43 96-96 96s-96-43-96-96l0-84.6c-19.9 22.6-32 52.2-32 84.6 0 70.7 57.3 128 128 128s128-57.3 128-128c0-32.5-12.1-62.1-32-84.6l0 84.6zM368 124a20 20 0 1 0 0 40 20 20 0 1 0 0-40zm64 0a20 20 0 1 0 0 40 20 20 0 1 0 0-40zM136.5-19.7c2.6-7 12.4-7 15 0L162.2 9.1c.8 2.2 2.5 3.9 4.7 4.8l28.8 10.7c7 2.6 7 12.4 0 15L166.9 50.2c-2.2 .8-3.9 2.6-4.7 4.8L151.5 83.7c-2.6 7-12.4 7-15 0L125.8 54.9c-.8-2.2-2.6-3.9-4.8-4.8L92.3 39.5c-7-2.6-7-12.4 0-15l28.8-10.7c2.2-.8 3.9-2.6 4.8-4.8l10.7-28.8zM400 16c-26.7 0-51.5 8.2-72.1 22.2l44.6 37.2 54.9 0 44.6-37.2C451.5 24.2 426.7 16 400 16z"/></svg>