<svg xmlns="http://www.w3.org/2000/svg" viewBox="0 0 448 512"><path fill="currentColor" d="M160 32c17.7 0 32-14.3 32-32s-14.3-32-32-32-32 14.3-32 32 14.3 32 32 32zm128 80a48 48 0 1 0 0-96 48 48 0 1 0 0 96zM74.2 252.5c9.6-17.7 20.1-33.2 28.6-44.5l242.4 0c8.5 11.4 19 26.9 28.6 44.5 15.9 29.2 26.2 58.5 26.2 81.9 0 39.2-18.3 70-49.4 92.5-32.2 23.3-77.9 37.1-126.6 37.1s-94.3-13.8-126.6-37.1c-31.2-22.5-49.4-53.3-49.4-92.5 0-23.3 10.3-52.6 26.2-81.9zM44.6 208C22.5 243.4 0 290.8 0 334.4 0 371.8 11.9 403.8 32 429.9L32 488c0 13.3 10.7 24 24 24s24-10.7 24-24l0-15c40.4 25.5 91.8 39 144 39s103.6-13.5 144-39l0 15c0 13.3 10.7 24 24 24s24-10.7 24-24l0-58.1c20.1-26.1 32-58.1 32-95.5 0-43.6-22.5-91-44.6-126.4l20.6 0c13.3 0 24-10.7 24-24s-10.7-24-24-24L24 160c-13.3 0-24 10.7-24 24s10.7 24 24 24l20.6 0z"/></svg>