<svg xmlns="http://www.w3.org/2000/svg" viewBox="0 0 576 512"><path fill="currentColor" d="M140.7 52.1c-8.3-3-17.5 1.3-20.5 9.6L65.5 212c-3 8.3 1.3 17.5 9.6 20.5L274 305 439.9 161 140.7 52.1zM75.1 45.3C87.2 12.1 123.9-5.1 157.1 7L481.9 125.2c22.9 8.3 28.5 38.3 10 54.2L298.4 347.4c-8.8 7.6-21 9.9-31.9 5.9l-66.2-24.1 0 86.8c0 30.9-25.1 56-56 56l-64 0 0 24c0 13.3-10.7 24-24 24s-24-10.7-24-24l0-96c0-13.3 10.7-24 24-24s24 10.7 24 24l0 24 64 0c4.4 0 8-3.6 8-8l0-96 0-8.3-93.7-34.1c-33.2-12.1-50.3-48.8-38.3-82L75.1 45.3zM449.5 419.9l-113.8-41.4 41.5-36 73.7 26.8 32.8-90.2-23.6-8.6 41.5-36 13.6 4.9c16.6 6 25.2 24.4 19.1 41L490.6 400.8c-6 16.6-24.4 25.2-41 19.1z"/></svg>