<svg xmlns="http://www.w3.org/2000/svg" viewBox="0 0 384 512"><path fill="currentColor" d="M208 0c13.3 0 24 10.7 24 24l0 40.7c44.7 3.7 85 22.7 115.8 51.7 9.6 9.1 10.1 24.3 1 33.9s-24.3 10.1-33.9 1c-22.2-20.9-50.9-34.9-82.8-38.4l0 286.2c31.9-3.5 60.7-17.5 82.8-38.4 9.6-9.1 24.8-8.7 33.9 1s8.7 24.8-1 33.9c-30.7 29-71.1 48-115.8 51.7l0 40.7c0 13.3-10.7 24-24 24s-24-10.7-24-24l0-42.7C93.2 430.1 24 351.1 24 256S93.2 81.9 184 66.7L184 24c0-13.3 10.7-24 24-24zM184 115.6C119.9 130.1 72 187.5 72 256s47.9 125.9 112 140.4l0-280.9z"/></svg>