<svg xmlns="http://www.w3.org/2000/svg" viewBox="0 0 576 512"><path fill="currentColor" d="M215.8-14.5c8.4-2.2 17.3 .2 23.4 6.4L288.3 42.4 337.3-8c6.1-6.2 15-8.7 23.4-6.4s14.9 8.9 17.1 17.3L395.1 71 462.8 51.9c8.4-2.4 17.4 0 23.5 6.1s8.5 15.1 6.1 23.5l-19.1 67.7 68.2 17.3c8.4 2.1 15 8.7 17.3 17.1s-.2 17.3-6.4 23.4l-50.4 49.1 50.4 49.1c6.2 6.1 8.7 15 6.4 23.4s-8.9 14.9-17.3 17.1l-68.2 17.3 19.1 67.7c2.4 8.4 0 17.4-6.1 23.5s-15.1 8.5-23.5 6.1l-67.7-19.1-17.3 68.2c-2.1 8.4-8.7 15-17.1 17.3s-17.3-.2-23.4-6.4l-49.1-50.4-49.1 50.4c-6.1 6.2-15 8.7-23.4 6.4s-14.9-8.9-17.1-17.3l-17.3-68.2-67.7 19.1c-8.4 2.4-17.4 0-23.5-6.1s-8.5-15.1-6.1-23.5l19.1-67.7-68.2-17.3c-8.4-2.1-15-8.7-17.3-17.1s.2-17.4 6.4-23.4L74.7 256 24.3 206.9c-6.2-6.1-8.7-15-6.4-23.4s8.9-14.9 17.3-17.1l68.2-17.3-19.1-67.7c-2.4-8.4 0-17.4 6.1-23.5s15.1-8.5 23.5-6.1L181.5 71 198.8 2.8c2.1-8.4 8.7-15 17.1-17.3zm18.9 70.7l-12.8 50.5c-1.6 6.3-5.7 11.6-11.3 14.9s-12.3 4.1-18.5 2.3l-50.1-14.2 14.2 50.1c1.8 6.2 .9 12.9-2.3 18.5s-8.6 9.7-14.9 11.3l-50.5 12.8 37.3 36.3c4.6 4.5 7.3 10.7 7.3 17.2s-2.6 12.7-7.3 17.2L88.5 309.5 139 322.3c6.3 1.6 11.6 5.7 14.9 11.3s4.1 12.3 2.3 18.5l-14.2 50.1 50.1-14.2c6.2-1.8 12.9-.9 18.5 2.3s9.7 8.6 11.3 14.9l12.8 50.5 36.3-37.3c4.5-4.6 10.7-7.3 17.2-7.3s12.7 2.6 17.2 7.3l36.3 37.3 12.8-50.5c1.6-6.3 5.7-11.7 11.3-14.9s12.3-4.1 18.5-2.3l50.1 14.2-14.2-50.1c-1.8-6.2-.9-12.9 2.3-18.5s8.6-9.7 14.9-11.3l50.5-12.8-37.3-36.3c-4.6-4.5-7.3-10.7-7.3-17.2s2.6-12.7 7.3-17.2l37.3-36.3-50.5-12.8c-6.3-1.6-11.6-5.7-14.9-11.3s-4.1-12.3-2.3-18.5l14.2-50.1-50.1 14.2c-6.2 1.8-12.9 .9-18.5-2.3s-9.7-8.6-11.3-14.9l-12.8-50.5-36.3 37.3c-4.5 4.6-10.7 7.3-17.2 7.3s-12.7-2.6-17.2-7.3L234.7 56.2z"/></svg>