<svg xmlns="http://www.w3.org/2000/svg" viewBox="0 0 576 512"><path fill="currentColor" d="M41-24.9c-9.4-9.4-24.6-9.4-33.9 0S-2.3-.3 7 9.1l528 528c9.4 9.4 24.6 9.4 33.9 0s9.4-24.6 0-33.9L445.6 379.8c2.7-2.3 5.3-4.7 7.8-7.3l79.1-79.1c27.8-27.8 43.5-65.6 43.5-105 0-82-66.5-148.5-148.5-148.5-36 0-70.7 13.1-97.7 36.7 14.1 8.6 27 18.9 38.4 30.7 17.1-12.5 37.8-19.4 59.3-19.4 55.5 0 100.5 45 100.5 100.5 0 26.6-10.6 52.2-29.4 71l-79.1 79.1c-2.5 2.5-5.2 4.9-7.9 7.1l-46.3-46.3c.5-1 1-2 1.4-3 6.1-16.5 9.4-34 9.4-51.9 0-82-66.5-148.5-148.5-148.5-19.1 0-37.7 3.7-55.1 10.6L41-24.9zM211.2 145.3c5.4-.9 10.8-1.3 16.4-1.3 55.5 0 100.5 45 100.5 100.5 0 5.5-.5 11-1.3 16.4L211.2 145.3zM346.2 416L200 269.8C201.2 350 266 414.8 346.2 416zM130.1 199.9l-33.9-33.9-52.6 52.6c-27.8 27.8-43.5 65.6-43.5 105 0 82 66.5 148.5 148.5 148.5 36 0 70.7-13.1 97.7-36.7-14.1-8.6-27-18.9-38.4-30.7-17.1 12.5-37.8 19.4-59.3 19.4-55.5 0-100.5-45-100.5-100.5 0-26.6 10.6-52.2 29.4-71l52.6-52.6z"/></svg>