<svg xmlns="http://www.w3.org/2000/svg" viewBox="0 0 448 512"><path fill="currentColor" d="M160 48c-8.8 0-16 7.2-16 16l0 192 160 0 0-192c0-8.8-7.2-16-16-16L160 48zM352 64l0 192 16 0c26.5 0 48 21.5 48 48l0 48c0 26.5-21.5 48-48 48l-120 0 0 64 48 0c13.3 0 24 10.7 24 24s-10.7 24-24 24l-144 0c-13.3 0-24-10.7-24-24s10.7-24 24-24l48 0 0-64-120 0c-26.5 0-48-21.5-48-48l0-48c0-26.5 21.5-48 48-48l16 0 0-192c0-35.3 28.7-64 64-64L288 0c35.3 0 64 28.7 64 64zM224 352l144 0 0-48-288 0 0 48 144 0zM48 152l0 48c0 13.3-10.7 24-24 24S0 213.3 0 200l0-48c0-13.3 10.7-24 24-24s24 10.7 24 24zm400 0l0 48c0 13.3-10.7 24-24 24s-24-10.7-24-24l0-48c0-13.3 10.7-24 24-24s24 10.7 24 24z"/></svg>