<svg xmlns="http://www.w3.org/2000/svg" viewBox="0 0 576 512"><path fill="currentColor" d="M41-24.9c-9.4-9.4-24.6-9.4-33.9 0S-2.3-.3 7 9.1l528 528c9.4 9.4 24.6 9.4 33.9 0s9.4-24.6 0-33.9l-53.6-53.6c36.8-27.7 60.7-71.8 60.7-121.5 0-54.8-29-102.8-72.5-129.6-1.3 18-4.9 35.3-10.6 51.6 21.6 19.1 35.2 46.9 35.2 78 0 36.4-18.7 68.5-47.1 87.1l-103-103c42.2-27 70.1-74.3 70.1-128.1 0-83.9-68.1-152-152-152L152 32c-16.3 0-32.1 2.6-46.8 7.3L41-24.9zm105 105c2-.1 4-.2 6-.2l144 0c57.4 0 104 46.6 104 104 0 40.6-23.3 75.8-57.2 92.9L289.8 224 328 224c13.3 0 24-10.7 24-24s-10.7-24-24-24l-48 0c-11.8 0-23.3 1.3-34.3 3.9L146 80.2zM410.2 480l-48-48-82.2 0c-57.4 0-104-46.6-104-104 0-23.2 7.6-44.5 20.4-61.8L162.2 232c-21.4 26.2-34.2 59.6-34.2 96 0 83.9 68.1 152 152 152l130.2 0zM27.3 97.1c-17.2 24.6-27.3 54.6-27.3 86.9 0 58 32.5 108.4 80.2 134 .9-17.7 4-34.8 9.2-50.9-25.2-19-41.4-49.1-41.4-83.1 0-19 5.1-36.8 14-52.2L27.3 97.1z"/></svg>