<svg xmlns="http://www.w3.org/2000/svg" viewBox="0 0 448 512"><path fill="currentColor" d="M224 0C135.6 0 64 71.6 64 160l0 96-16 0c-26.5 0-48 21.5-48 48l0 48c0 20.9 13.4 38.7 32 45.3L32 488c0 13.3 10.7 24 24 24s24-10.7 24-24l0-88 288 0 0 88c0 13.3 10.7 24 24 24s24-10.7 24-24l0-90.7c18.6-6.6 32-24.4 32-45.3l0-48c0-26.5-21.5-48-48-48l-16 0 0-96C384 71.6 312.4 0 224 0zM336 256l-40 0 0-181.8c24.5 20.5 40 51.4 40 85.8l0 96zM248 50.6l0 205.4-48 0 0-205.4c7.7-1.7 15.8-2.6 24-2.6s16.3 .9 24 2.6zM152 74.2l0 181.8-40 0 0-96c0-34.4 15.5-65.2 40-85.8zM48 352l0-48 352 0 0 48-352 0z"/></svg>