<svg xmlns="http://www.w3.org/2000/svg" viewBox="0 0 640 512"><path fill="currentColor" d="M192 80l352 0c8.8 0 16 7.2 16 16l0 288c0 8.8-7.2 16-16 16l-32 0 0-16c0-17.7-14.3-32-32-32l-96 0c-17.7 0-32 14.3-32 32l0 16-38.9 0c9.4 14.4 16.3 30.6 19.9 48l211 0c35.3 0 64-28.7 64-64l0-288c0-35.3-28.7-64-64-64L192 32c-35.3 0-64 28.7-64 64l0 49c5.2-.7 10.6-1 16-1 11 0 21.8 1.4 32 4l0-52c0-8.8 7.2-16 16-16zM144 352a80 80 0 1 0 0-160 80 80 0 1 0 0 160zM96 384c-53 0-96 43-96 96 0 17.7 14.3 32 32 32l224 0c17.7 0 32-14.3 32-32 0-53-43-96-96-96l-96 0z"/></svg>