<svg xmlns="http://www.w3.org/2000/svg" viewBox="0 0 256 512"><path fill="currentColor" d="M38.2-15.9C41.6-25.6 50.7-32 60.9-32l134.3 0c10.2 0 19.3 6.4 22.7 16.1 20.1 57.3 41.3 144.7 37.8 219-1.7 37.1-9.6 74-29.8 102.1-17.1 23.9-41.7 39.7-73.8 44.9l0 145.9 48 0c13.3 0 24 10.7 24 24s-10.7 24-24 24l-144 0c-13.3 0-24-10.7-24-24s10.7-24 24-24l48 0 0-145.8c-32.1-5.2-56.8-21-73.9-44.9-20.1-28.2-28.1-65-29.8-102.1-3.4-74.4 17.8-161.7 37.8-219zM48.2 176c-.3 8.5-.2 16.8 .1 24.9 1.5 32.9 8.5 59 20.9 76.4 11.4 15.9 28.9 26.7 58.8 26.7s47.4-10.8 58.8-26.7c12.4-17.3 19.4-43.5 20.9-76.4 .4-8.1 .4-16.4 .1-24.9L48.2 176zm4.2-48l151.3 0c-5.4-39.5-15.3-79.2-25.8-112L78.1 16C67.6 48.8 57.8 88.5 52.4 128z"/></svg>