<svg xmlns="http://www.w3.org/2000/svg" viewBox="0 0 640 512"><path fill="currentColor" d="M159.2 12.6c5.7-10.5 18.1-15.2 29.3-11.1L320 49.3 451.5 1.5c11.2-4.1 23.7 .7 29.3 11.1l81.6 151c32.4 60.1 10.6 133.3-45.6 167l35.8 98.4 55.2-20.1c12.5-4.5 26.2 1.9 30.8 14.3s-1.9 26.2-14.3 30.8c-51.8 18.9-103.7 37.7-155.5 56.6-12.5 4.5-26.2-1.9-30.8-14.3s1.9-26.2 14.3-30.8l55.2-20.1-35.8-98.5c-61.2 9.4-121.7-29.6-136.3-92.5l-15.3-65.8-15.3 65.8c-14.6 62.9-75.1 101.9-136.3 92.5l-35.8 98.5 55.2 20.1c12.5 4.5 18.9 18.3 14.3 30.8s-18.3 18.9-30.8 14.3C119.5 491.7 67.6 472.8 15.8 454 3.3 449.4-3.1 435.7 1.5 423.2s18.3-18.9 30.8-14.3l55.2 20.1 35.8-98.4c-56.2-33.7-78.1-106.9-45.6-167l81.6-151zm32.4 41l-34.8 64.3 120.2 43.7 16.5-71-101.9-37.1zM119.8 186.4c-22.4 41.5-2.8 93.3 41.6 109.4 41.3 15 86.5-9.4 96.5-52.3l8.1-34.7-132.3-48.1-13.9 25.7zM448.4 53.6l-101.9 37.1 16.5 71 120.2-43.7-34.8-64.3zm71.7 132.7l-13.9-25.7-132.3 48.1 8.1 34.7c10 42.9 55.2 67.3 96.5 52.3 44.3-16.1 64-67.9 41.6-109.4z"/></svg>