<svg xmlns="http://www.w3.org/2000/svg" viewBox="0 0 512 512"><path fill="currentColor" d="M320 192l0-138c67.4 17.4 120.6 70.5 138 138l-138 0zm160 48c17.7 0 32.2-14.4 29.9-31.9-14.2-107-99-191.7-206-206-17.5-2.3-31.9 12.2-31.9 29.9l0 176c0 17.7 14.3 32 32 32l176 0zM48 272c0-83.6 53.4-154.7 128-181.1L176 296c0 22.1 17.9 40 40 40l205.1 0c-26.4 74.6-97.5 128-181.1 128-106 0-192-86-192-192zM224 79C224 54.7 201.2 33.5 174.7 41 73.9 69.4 0 162 0 272 0 404.6 107.5 512 240 512 350 512 442.6 438.1 471 337.3 478.5 310.8 457.3 288 433 288l-209 0 0-209z"/></svg>