<svg xmlns="http://www.w3.org/2000/svg" viewBox="0 0 640 512"><path fill="currentColor" d="M544 80L192 80c-8.8 0-16 7.2-16 16l0 52c-10.2-2.6-21-4-32-4-5.4 0-10.8 .3-16 1l0-49c0-35.3 28.7-64 64-64l352 0c35.3 0 64 28.7 64 64l0 288c0 35.3-28.7 64-64 64l-211 0c-3.6-17.4-10.5-33.6-19.9-48L544 400c8.8 0 16-7.2 16-16l0-288c0-8.8-7.2-16-16-16zM464 209.9l-95 95c-9.4 9.4-24.6 9.4-33.9 0l-40-40c-9.4-9.4-9.4-24.6 0-33.9s24.6-9.4 33.9 0l23 23 78.1-78.1-30.1 0c-13.3 0-24-10.7-24-24s10.7-24 24-24l88 0c13.3 0 24 10.7 24 24l0 88c0 13.3-10.7 24-24 24s-24-10.7-24-24l0-30.1zM64 272a80 80 0 1 1 160 0 80 80 0 1 1 -160 0zM0 480c0-53 43-96 96-96l96 0c53 0 96 43 96 96 0 17.7-14.3 32-32 32L32 512c-17.7 0-32-14.3-32-32z"/></svg>