<svg xmlns="http://www.w3.org/2000/svg" viewBox="0 0 640 512"><path fill="currentColor" d="M352 192l138 0C472.6 124.6 419.4 71.4 352 54l0 138zm144 16c-39.3 0-75.8 11.8-106.2 32L336 240c-17.7 0-32-14.3-32-32l0-176c0-17.7 14.4-32.2 31.9-29.9 107 14.2 191.8 99 206 206 .2 1.9 .3 3.7 .2 5.5-14.8-3.6-30.2-5.6-46.1-5.6zM256 288l84 0c-10.5 14.6-19 30.7-25.1 48L248 336c-22.1 0-40-17.9-40-40l0-205.1c-74.6 26.4-128 97.5-128 181.1 0 106 86 192 192 192 14.2 0 28.1-1.5 41.4-4.5 5.1 15.8 12.2 30.6 21 44.3-19.9 5.4-40.8 8.2-62.4 8.2-132.5 0-240-107.4-240-240 0-110 73.9-202.6 174.7-231 26.5-7.5 49.3 13.7 49.3 38l0 209zm96 112a144 144 0 1 1 288 0 144 144 0 1 1 -288 0zm128-80l0 8.1c-22.3 1.1-40 19.5-40 42.1 0 20.4 14.6 37.8 34.6 41.5l45 8.2c4.8 .9 8.3 5.1 8.3 10 0 5.6-4.6 10.2-10.2 10.2L464 440c-8.8 0-16 7.2-16 16s7.2 16 16 16l16 0 0 8c0 8.8 7.2 16 16 16s16-7.2 16-16l0-8 5.8 0c23.3 0 42.2-18.9 42.2-42.2 0-20.4-14.6-37.8-34.6-41.5l-45-8.2c-4.8-.9-8.3-5.1-8.3-10 0-5.6 4.6-10.2 10.2-10.2l45.8 0c8.8 0 16-7.2 16-16s-7.2-16-16-16l-16 0 0-8c0-8.8-7.2-16-16-16s-16 7.2-16 16z"/></svg>