<svg xmlns="http://www.w3.org/2000/svg" viewBox="0 0 512 512"><path fill="currentColor" d="M503.6 74.2c10.1-8.6 11.2-23.8 2.6-33.8s-23.8-11.2-33.8-2.6L320.2 168.3 207.8 69.9c-8.2-7.1-20.1-7.9-29.1-1.9L10.7 180c-11 7.4-14 22.3-6.7 33.3s22.3 14 33.3 6.7L190 118.2 304.2 218.1c9 7.9 22.4 7.9 31.4 .2l168-144zM216 248c0-13.3-10.7-24-24-24s-24 10.7-24 24l0 208c0 13.3 10.7 24 24 24s24-10.7 24-24l0-208zm264 0c0-13.3-10.7-24-24-24s-24 10.7-24 24l0 208c0 13.3 10.7 24 24 24s24-10.7 24-24l0-208zM344 312c0-13.3-10.7-24-24-24s-24 10.7-24 24l0 144c0 13.3 10.7 24 24 24s24-10.7 24-24l0-144zM80 344c0-13.3-10.7-24-24-24s-24 10.7-24 24l0 112c0 13.3 10.7 24 24 24s24-10.7 24-24l0-112z"/></svg>