<svg xmlns="http://www.w3.org/2000/svg" viewBox="0 0 576 512"><path fill="currentColor" d="M33.5 220.3c-12.7 22.2-12.7 49.4 0 71.5l96.2 168.1c12.8 22.4 36.7 36.2 62.5 36.2l191.6 0c25.8 0 49.7-13.8 62.5-36.2l96.2-168.1c12.7-22.2 12.7-49.4 0-71.5L446.3 52.2C433.5 29.8 409.6 16 383.8 16L192.2 16c-25.8 0-49.7 13.8-62.5 36.2L33.5 220.3zM75.2 268c-4.2-7.4-4.2-16.5 0-23.8L171.4 76.1c4.3-7.5 12.2-12.1 20.8-12.1l191.6 0c8.6 0 16.6 4.6 20.8 12.1l96.2 168.1c4.2 7.4 4.2 16.5 0 23.8L404.7 436c-4.3 7.5-12.2 12.1-20.8 12.1l-191.6 0c-8.6 0-16.6-4.6-20.8-12.1L75.2 268zM328 160c0-22.1-17.9-40-40-40s-40 17.9-40 40c0 3.9 .6 7.7 1.6 11.2L192 248c-22.1 0-40 17.9-40 40s17.9 40 40 40c10.2 0 19.6-3.9 26.7-10.2l97.2 19.4c6.4 13.5 20.2 22.7 36.1 22.7 22.1 0 40-17.9 40-40 0-18.5-12.6-34.1-29.6-38.6L322.2 180.8c3.7-6.1 5.8-13.2 5.8-20.8zM234.1 271.9l47.5-63.4 31.7 79.2-79.2-15.8z"/></svg>