<svg xmlns="http://www.w3.org/2000/svg" viewBox="0 0 512 512"><path fill="currentColor" d="M48 56c0-13.3-10.7-24-24-24S0 42.7 0 56L0 400c0 44.2 35.8 80 80 80l408 0c13.3 0 24-10.7 24-24s-10.7-24-24-24L80 432c-17.7 0-32-14.3-32-32L48 56zm424 8c-13.3 0-24 10.7-24 24l0 240c0 13.3 10.7 24 24 24s24-10.7 24-24l0-240c0-13.3-10.7-24-24-24zM248 128c-13.3 0-24 10.7-24 24l0 176c0 13.3 10.7 24 24 24s24-10.7 24-24l0-176c0-13.3-10.7-24-24-24zM136 224c-13.3 0-24 10.7-24 24l0 80c0 13.3 10.7 24 24 24s24-10.7 24-24l0-80c0-13.3-10.7-24-24-24zm248-8c0-13.3-10.7-24-24-24s-24 10.7-24 24l0 112c0 13.3 10.7 24 24 24s24-10.7 24-24l0-112z"/></svg>