<svg xmlns="http://www.w3.org/2000/svg" viewBox="0 0 512 512"><path fill="currentColor" d="M24 32c13.3 0 24 10.7 24 24l0 344c0 17.7 14.3 32 32 32l408 0c13.3 0 24 10.7 24 24s-10.7 24-24 24L80 480c-44.2 0-80-35.8-80-80L0 56C0 42.7 10.7 32 24 32zM376 80c-13.3 0-24-10.7-24-24s10.7-24 24-24l80 0c6.4 0 12.5 2.5 17 7s7 10.6 7 17l0 80c0 13.3-10.7 24-24 24s-24-10.7-24-24l0-22.1-127 127c-9.4 9.4-24.6 9.4-33.9 0l-63-63-71 71c-9.4 9.4-24.6 9.4-33.9 0s-9.4-24.6 0-33.9l88-88c9.4-9.4 24.6-9.4 33.9 0l63 63 110.1-110.1-22.1 0zm22.1 256l-60.1-60.1c.3-.3 .7-.6 1-1l33-33 60.1 60.1 0-22.1c0-13.3 10.7-24 24-24s24 10.7 24 24l0 80c0 6.4-2.5 12.5-7 17s-10.6 7-17 7l-80 0c-13.3 0-24-10.7-24-24s10.7-24 24-24l22.1 0z"/></svg>