<svg xmlns="http://www.w3.org/2000/svg" viewBox="0 0 640 512"><path fill="currentColor" d="M224 40a24 24 0 1 1 0 48 24 24 0 1 1 0-48zm0 88c1.1 0 2.2 0 3.3-.1l26.9 57.6c-31.3 21.7-53.7 55.4-60.2 94.5l-70.6 0c-9.5-23.5-32.5-40-59.3-40-35.3 0-64 28.7-64 64s28.7 64 64 64c26.9 0 49.9-16.5 59.3-40l70.6 0c11.4 68.1 70.7 120 142 120 43.8 0 83-19.5 109.4-50.4l67.4 40.4c-.5 3.2-.8 6.6-.8 9.9 0 35.3 28.7 64 64 64s64-28.7 64-64-28.7-64-64-64c-14.5 0-27.8 4.8-38.5 12.9l-67.3-40.4c6.4-16.3 9.9-34 9.9-52.5 0-23.2-5.5-45.2-15.3-64.6l77.6-56.9c9.8 6.1 21.3 9.6 33.7 9.6 35.3 0 64-28.7 64-64s-28.7-64-64-64-64 28.7-64 64c0 5.4 .7 10.7 1.9 15.7l-77.6 56.9c-25.9-25.2-61.3-40.7-100.3-40.7-13.3 0-26.1 1.8-38.3 5.2l-26.9-57.5C281.5 96.2 288 80.9 288 64 288 28.7 259.3 0 224 0s-64 28.7-64 64 28.7 64 64 64zm352-24a24 24 0 1 1 0 48 24 24 0 1 1 0-48zM552 448a24 24 0 1 1 48 0 24 24 0 1 1 -48 0zM64 280a24 24 0 1 1 0 48 24 24 0 1 1 0-48zm272-72a96 96 0 1 1 0 192 96 96 0 1 1 0-192z"/></svg>