<svg xmlns="http://www.w3.org/2000/svg" viewBox="0 0 512 512"><path fill="currentColor" d="M48 56c0-13.3-10.7-24-24-24S0 42.7 0 56L0 400c0 44.2 35.8 80 80 80l408 0c13.3 0 24-10.7 24-24s-10.7-24-24-24L80 432c-17.7 0-32-14.3-32-32L48 56zM277.7 85.8c-4.2-8.8-13.3-14.3-23-13.7s-18.2 6.9-21.4 16.1L158.9 304 120 304c-13.3 0-24 10.7-24 24s10.7 24 24 24l56 0c10.2 0 19.4-6.5 22.7-16.2l60.7-176.2 38.9 82.6c4 8.4 12.4 13.8 21.7 13.8l66.2 0 49.1 84.1c6.7 11.4 21.4 15.3 32.8 8.6s15.3-21.4 8.6-32.8l-56-96c-4.3-7.4-12.2-11.9-20.7-11.9l-64.8 0-57.5-122.2z"/></svg>