<svg xmlns="http://www.w3.org/2000/svg" viewBox="0 0 512 512"><path fill="currentColor" d="M48 56c0-13.3-10.7-24-24-24S0 42.7 0 56L0 400c0 44.2 35.8 80 80 80l408 0c13.3 0 24-10.7 24-24s-10.7-24-24-24L80 432c-17.7 0-32-14.3-32-32L48 56zM173.5 186.7c10.9-21.7 24.7-34.7 42.5-34.7 15.4 0 24.8 6.4 33.2 19.2 9.8 14.9 16.4 35.9 24.4 61.7 7 22.7 15.3 49.5 29.1 70.3 15.3 23.2 38.4 40.8 73.3 40.8 46.2 0 72.3-35 85.5-61.3 8.5-17.1 15-35.9 18.2-54.8 2.2-13.1-6.7-25.4-19.7-27.6-21.4-3.6-26.8 16.2-30.6 32.2-2.2 8-5.7 18.5-10.8 28.7-10.9 21.7-24.7 34.7-42.5 34.7-15.4 0-24.8-6.4-33.2-19.2-9.8-14.9-16.4-35.9-24.4-61.7-7-22.7-15.3-49.5-29.1-70.3-15.3-23.2-38.4-40.8-73.3-40.8-46.2 0-72.3 35-85.5 61.3-11.7 23.3-18.2 54.8-18.2 54.8-2.2 13.1 6.7 25.4 19.7 27.6s25.4-6.6 27.6-19.7c1.4-13.9 7.6-28.9 13.8-41.2z"/></svg>