<svg xmlns="http://www.w3.org/2000/svg" viewBox="0 0 512 512"><path fill="currentColor" d="M48 80l48 0 0 288-48 0 0-288zM0 80L0 368c0 26.5 21.5 48 48 48l48 0c26.5 0 48-21.5 48-48l0-288c0-26.5-21.5-48-48-48L48 32C21.5 32 0 53.5 0 80zm464 0l0 352-48 0 0-352 48 0zM416 32c-26.5 0-48 21.5-48 48l0 352c0 26.5 21.5 48 48 48l48 0c26.5 0 48-21.5 48-48l0-352c0-26.5-21.5-48-48-48l-48 0zM280 80l0 160-48 0 0-160 48 0zM232 32c-26.5 0-48 21.5-48 48l0 160c0 26.5 21.5 48 48 48l48 0c26.5 0 48-21.5 48-48l0-160c0-26.5-21.5-48-48-48l-48 0z"/></svg>