<svg xmlns="http://www.w3.org/2000/svg" viewBox="0 0 640 512"><path fill="currentColor" d="M352 192l138 0C472.6 124.6 419.4 71.4 352 54l0 138zm144 16c-39.3 0-75.8 11.8-106.2 32L336 240c-17.7 0-32-14.3-32-32l0-176c0-17.7 14.4-32.2 31.9-29.9 107 14.2 191.8 99 206 206 .2 1.9 .3 3.7 .2 5.5-14.8-3.6-30.2-5.6-46.1-5.6zM256 288l84 0c-10.5 14.6-19 30.7-25.1 48L248 336c-22.1 0-40-17.9-40-40l0-205.1c-74.6 26.4-128 97.5-128 181.1 0 106 86 192 192 192 14.2 0 28.1-1.5 41.4-4.5 5.1 15.8 12.2 30.6 21 44.3-19.9 5.4-40.8 8.2-62.4 8.2-132.5 0-240-107.4-240-240 0-110 73.9-202.6 174.7-231 26.5-7.5 49.3 13.7 49.3 38l0 209zm96 112a144 144 0 1 1 288 0 144 144 0 1 1 -288 0zm219.3-52.7c6.2-6.2 6.2-16.4 0-22.6s-16.4-6.2-22.6 0l-20.2 20.2c-9.5-5.6-20.6-8.9-32.5-8.9s-23 3.2-32.5 8.9l-20.2-20.2c-6.2-6.2-16.4-6.2-22.6 0s-6.2 16.4 0 22.6l20.2 20.2c-5.6 9.5-8.9 20.6-8.9 32.5s3.2 23 8.9 32.5l-20.2 20.2c-6.2 6.2-6.2 16.4 0 22.6s16.4 6.2 22.6 0l20.2-20.2c9.5 5.6 20.6 8.9 32.5 8.9s23-3.2 32.5-8.9l20.2 20.2c6.2 6.2 16.4 6.2 22.6 0s6.2-16.4 0-22.6l-20.2-20.2c5.6-9.5 8.9-20.6 8.9-32.5s-3.2-23-8.9-32.5l20.2-20.2zM496 368a32 32 0 1 1 0 64 32 32 0 1 1 0-64z"/></svg>