<svg xmlns="http://www.w3.org/2000/svg" viewBox="0 0 576 512"><path fill="currentColor" d="M128 48c-8.8 0-16 7.2-16 16l0 400 192 0 0-400c0-8.8-7.2-16-16-16L128 48zM352 464l0 1.4c9.3 3.3 16 12.2 16 22.6 0 13.3-10.7 24-24 24L72 512c-13.3 0-24-10.7-24-24 0-10.5 6.7-19.3 16-22.6L64 64C64 28.7 92.7 0 128 0L288 0c35.3 0 64 28.7 64 64l0 224c44.2 0 80 35.8 80 80l0 12c0 11 9 20 20 20s20-9 20-20l0-127.7c-32.5-10.2-56-40.5-56-76.3l0-32c0-8.8 7.2-16 16-16l16 0 0-48c0-8.8 7.2-16 16-16s16 7.2 16 16l0 48 32 0 0-48c0-8.8 7.2-16 16-16s16 7.2 16 16l0 48 16 0c8.8 0 16 7.2 16 16l0 32c0 35.8-23.5 66.1-56 76.3L520 380c0 37.6-30.4 68-68 68s-68-30.4-68-68l0-12c0-17.7-14.3-32-32-32l0 128zM156.9 187.4c-6.5 0-11.8-5.3-11.8-11.8 0-3.4 1.5-6.7 4.1-8.9l78.9-68.3c1.8-1.6 4.1-2.4 6.5-2.4 6.7 0 11.4 6.5 9.4 12.8l-17.4 55.7 32.5 0c6.5 0 11.8 5.3 11.8 11.8 0 3.4-1.5 6.7-4.1 8.9l-78.9 68.3c-1.8 1.6-4.1 2.4-6.5 2.4-6.7 0-11.4-6.5-9.4-12.8l17.4-55.7-32.5 0z"/></svg>