<svg xmlns="http://www.w3.org/2000/svg" viewBox="0 0 512 512"><path fill="currentColor" d="M48 56c0-13.3-10.7-24-24-24S0 42.7 0 56L0 400c0 44.2 35.8 80 80 80l408 0c13.3 0 24-10.7 24-24s-10.7-24-24-24L80 432c-17.7 0-32-14.3-32-32L48 56zM320 32c-13.3 0-24 10.7-24 24l0 41c-13.8 3.6-24 16.1-24 31l0 96c0 14.9 10.2 27.4 24 31l0 41c0 13.3 10.7 24 24 24s24-10.7 24-24l0-41c13.8-3.6 24-16.1 24-31l0-96c0-14.9-10.2-27.4-24-31l0-41c0-13.3-10.7-24-24-24zM176 64c-13.3 0-24 10.7-24 24l0 33c-13.8 3.6-24 16.1-24 31l0 128c0 14.9 10.2 27.4 24 31l0 33c0 13.3 10.7 24 24 24s24-10.7 24-24l0-33c13.8-3.6 24-16.1 24-31l0-128c0-14.9-10.2-27.4-24-31l0-33c0-13.3-10.7-24-24-24zm288 64c-13.3 0-24 10.7-24 24l0 33c-13.8 3.6-24 16.1-24 31l0 64c0 14.9 10.2 27.4 24 31l0 33c0 13.3 10.7 24 24 24s24-10.7 24-24l0-33c13.8-3.6 24-16.1 24-31l0-64c0-14.9-10.2-27.4-24-31l0-33c0-13.3-10.7-24-24-24z"/></svg>