<svg xmlns="http://www.w3.org/2000/svg" viewBox="0 0 576 512"><path fill="currentColor" d="M304 80l0 352-48 0 0-352 48 0zM256 32c-26.5 0-48 21.5-48 48l0 352c0 26.5 21.5 48 48 48l48 0c26.5 0 48-21.5 48-48l0-352c0-26.5-21.5-48-48-48l-48 0zM112 272l0 160-48 0 0-160 48 0zM64 224c-26.5 0-48 21.5-48 48l0 160c0 26.5 21.5 48 48 48l48 0c26.5 0 48-21.5 48-48l0-160c0-26.5-21.5-48-48-48l-48 0zm384-80l48 0 0 288-48 0 0-288zm-48 0l0 288c0 26.5 21.5 48 48 48l48 0c26.5 0 48-21.5 48-48l0-288c0-26.5-21.5-48-48-48l-48 0c-26.5 0-48 21.5-48 48z"/></svg>