<svg xmlns="http://www.w3.org/2000/svg" viewBox="0 0 512 512"><path fill="currentColor" d="M48 56c0-13.3-10.7-24-24-24S0 42.7 0 56L0 400c0 44.2 35.8 80 80 80l408 0c13.3 0 24-10.7 24-24s-10.7-24-24-24L80 432c-17.7 0-32-14.3-32-32L48 56zM320 296c0 13.3 10.7 24 24 24l112 0c13.3 0 24-10.7 24-24l0-112c0-13.3-10.7-24-24-24s-24 10.7-24 24l0 54.1-111-111c-9.4-9.4-24.6-9.4-33.9 0l-79 79-71-71c-9.4-9.4-24.6-9.4-33.9 0s-9.4 24.6 0 33.9l88 88c9.4 9.4 24.6 9.4 33.9 0l79-79 94.1 94.1-54.1 0c-13.3 0-24 10.7-24 24z"/></svg>