<svg xmlns="http://www.w3.org/2000/svg" viewBox="0 0 512 512"><path fill="currentColor" d="M160 112l0 72-112 0 0-72 112 0zM48 64C21.5 64 0 85.5 0 112l0 72c0 26.5 21.5 48 48 48l112 0c26.5 0 48-21.5 48-48l0-72c0-26.5-21.5-48-48-48L48 64zM160 328l0 72-112 0 0-72 112 0zM48 280c-26.5 0-48 21.5-48 48l0 72c0 26.5 21.5 48 48 48l112 0c26.5 0 48-21.5 48-48l0-72c0-26.5-21.5-48-48-48L48 280zM296 64c-22.1 0-40 17.9-40 40l0 16c0 22.1 17.9 40 40 40l176 0c22.1 0 40-17.9 40-40l0-16c0-22.1-17.9-40-40-40L296 64zM256 248l0 16c0 22.1 17.9 40 40 40l176 0c22.1 0 40-17.9 40-40l0-16c0-22.1-17.9-40-40-40l-176 0c-22.1 0-40 17.9-40 40zm40 104c-22.1 0-40 17.9-40 40l0 16c0 22.1 17.9 40 40 40l176 0c22.1 0 40-17.9 40-40l0-16c0-22.1-17.9-40-40-40l-176 0z"/></svg>