<svg xmlns="http://www.w3.org/2000/svg" viewBox="0 0 512 512"><path fill="currentColor" d="M24 32c13.3 0 24 10.7 24 24l0 344c0 17.7 14.3 32 32 32l408 0c13.3 0 24 10.7 24 24s-10.7 24-24 24L80 480c-44.2 0-80-35.8-80-80L0 56C0 42.7 10.7 32 24 32zM176 256a48 48 0 1 1 0 96 48 48 0 1 1 0-96zm200 32a24 24 0 1 0 -48 0 24 24 0 1 0 48 0zm-88 0a64 64 0 1 1 128 0 64 64 0 1 1 -128 0zM240 128a48 48 0 1 1 0 96 48 48 0 1 1 0-96zm168 0a24 24 0 1 0 -48 0 24 24 0 1 0 48 0zm-88 0a64 64 0 1 1 128 0 64 64 0 1 1 -128 0z"/></svg>