<svg xmlns="http://www.w3.org/2000/svg" viewBox="0 0 576 512"><path fill="currentColor" d="M408 0c-13.3 0-24 10.7-24 24s10.7 24 24 24l52.5 0-140.3 120.3-112.4-98.3c-8.2-7.1-20.1-7.9-29.1-1.9L10.7 180c-11 7.4-14 22.3-6.7 33.3s22.3 14 33.3 6.7L190 118.2 304.2 218.1c9 7.9 22.4 7.9 31.4 .2L496 80.8 496 136c0 13.3 10.7 24 24 24s24-10.7 24-24l0-112c0-13.3-10.7-24-24-24L408 0zM192 224c-13.3 0-24 10.7-24 24l0 208c0 13.3 10.7 24 24 24s24-10.7 24-24l0-208c0-13.3-10.7-24-24-24zM56 320c-13.3 0-24 10.7-24 24l0 112c0 13.3 10.7 24 24 24s24-10.7 24-24l0-112c0-13.3-10.7-24-24-24zM432 544a144 144 0 1 0 0-288 144 144 0 1 0 0 288zm0-240c8.8 0 16 7.2 16 16l0 8 16 0c8.8 0 16 7.2 16 16s-7.2 16-16 16l-45.8 0c-5.6 0-10.2 4.6-10.2 10.2 0 4.9 3.5 9.1 8.3 10l45 8.2c20 3.6 34.6 21.1 34.6 41.5 0 23.3-18.9 42.2-42.2 42.2l-5.8 0 0 8c0 8.8-7.2 16-16 16s-16-7.2-16-16l0-8-16 0c-8.8 0-16-7.2-16-16s7.2-16 16-16l53.8 0c5.6 0 10.2-4.6 10.2-10.2 0-4.9-3.5-9.1-8.3-10l-45-8.2c-20-3.6-34.6-21.1-34.6-41.5 0-22.6 17.7-41 40-42.1l0-8.1c0-8.8 7.2-16 16-16z"/></svg>