<svg xmlns="http://www.w3.org/2000/svg" viewBox="0 0 576 512"><path fill="currentColor" d="M408 0c-13.3 0-24 10.7-24 24s10.7 24 24 24l52.5 0-140.3 120.3-112.4-98.3c-8.2-7.1-20.1-7.9-29.1-1.9L10.7 180c-11 7.4-14 22.3-6.7 33.3s22.3 14 33.3 6.7L190 118.2 304.2 218.1c9 7.9 22.4 7.9 31.4 .2L496 80.8 496 136c0 13.3 10.7 24 24 24s24-10.7 24-24l0-112c0-13.3-10.7-24-24-24L408 0zM192 224c-13.3 0-24 10.7-24 24l0 208c0 13.3 10.7 24 24 24s24-10.7 24-24l0-208c0-13.3-10.7-24-24-24zM56 320c-13.3 0-24 10.7-24 24l0 112c0 13.3 10.7 24 24 24s24-10.7 24-24l0-112c0-13.3-10.7-24-24-24zM432 544a144 144 0 1 0 0-288 144 144 0 1 0 0 288zm55.1-176.5c5.6 9.5 8.9 20.6 8.9 32.5s-3.2 23-8.9 32.5l20.2 20.2c6.2 6.2 6.2 16.4 0 22.6s-16.4 6.2-22.6 0l-20.2-20.2c-9.5 5.6-20.6 8.9-32.5 8.9s-23-3.2-32.5-8.9l-20.2 20.2c-6.2 6.2-16.4 6.2-22.6 0s-6.2-16.4 0-22.6l20.2-20.2c-5.6-9.5-8.9-20.6-8.9-32.5s3.2-23 8.9-32.5l-20.2-20.2c-6.2-6.2-6.2-16.4 0-22.6s16.4-6.2 22.6 0l20.2 20.2c9.5-5.6 20.6-8.9 32.5-8.9s23 3.2 32.5 8.9l20.2-20.2c6.2-6.2 16.4-6.2 22.6 0s6.2 16.4 0 22.6l-20.2 20.2zM464 400a32 32 0 1 0 -64 0 32 32 0 1 0 64 0z"/></svg>