<svg xmlns="http://www.w3.org/2000/svg" viewBox="0 0 448 512"><path fill="currentColor" d="M336 96l0-48-288 0 0 48 288 0zm0 48L48 144C21.5 144 0 122.5 0 96L0 48C0 21.5 21.5 0 48 0L336 0c26.5 0 48 21.5 48 48l0 48c0 26.5-21.5 48-48 48zm64 96l-352 0 0 48 352 0 0-48zm48 48c0 26.5-21.5 48-48 48L48 336c-26.5 0-48-21.5-48-48l0-48c0-26.5 21.5-48 48-48l352 0c26.5 0 48 21.5 48 48l0 48zM208 432l-160 0 0 48 160 0 0-48zm48 48c0 26.5-21.5 48-48 48L48 528c-26.5 0-48-21.5-48-48l0-48c0-26.5 21.5-48 48-48l160 0c26.5 0 48 21.5 48 48l0 48z"/></svg>