<svg xmlns="http://www.w3.org/2000/svg" viewBox="0 0 576 512"><path fill="currentColor" d="M552 288c13.3 0 24 10.7 24 24l0 104c0 35.3-28.7 64-64 64L64 480c-35.3 0-64-28.7-64-64L0 312c0-13.3 10.7-24 24-24s24 10.7 24 24l0 104c0 8.8 7.2 16 16 16l448 0c8.8 0 16-7.2 16-16l0-104c0-13.3 10.7-24 24-24zM416 32c35.3 0 64 28.7 64 64l0 224c0 35.3-28.7 64-64 64l-256 0c-35.3 0-64-28.7-64-64L96 96c0-35.3 28.7-64 64-64l256 0zM160 80c-8.8 0-16 7.2-16 16l0 224c0 8.8 7.2 16 16 16l256 0c8.8 0 16-7.2 16-16l0-224c0-8.8-7.2-16-16-16L160 80zm164.7 63.9c7.8-10.7 22.8-13.1 33.5-5.3s13.1 22.8 5.3 33.5L287.4 276.8c-4.2 5.7-10.7 9.3-17.8 9.8-7.1 .5-14-2.2-18.9-7.3l-35.9-37.2c-9.2-9.5-8.9-24.7 .6-33.9 9.5-9.2 24.7-9 33.9 .6l16.1 16.6 59.3-81.6z"/></svg>