<svg xmlns="http://www.w3.org/2000/svg" viewBox="0 0 384 512"><path fill="currentColor" d="M148.4 244c7.6 16.5 24.3 28 43.6 28s36-11.5 43.6-28l90.5 0 36.8 50.6c7.7 10.6 .1 25.4-12.9 25.4l-24.1 0 15.3 21.1c27.8 38.3 46.8 86.1 29.3 130l-2.7 6.4c-.9 2.1-1.9 4.2-2.9 6.3l-1.8 3.4c-9.7 16.3-28.5 24.7-47.8 24.7l-246.3 0-7.7-.4c-16.5-1.9-31.7-10.2-40.1-24.3l-1.8-3.4c-1-2.1-2-4.2-2.9-6.3l-2.7-6.4c-16.4-41.2-.8-85.8 24.1-122.8l5.1-7.3 15.3-21.1-24.2 0c-13.1 0-20.6-14.8-12.9-25.4l36.8-50.6 90.5 0zm-30.8 76L81.7 369.3c-24.9 34.3-31.6 63.6-23.5 84 1.2 3.1 2.6 6.1 4 9.1 .1 .1 .2 .1 .3 .2 1.1 .6 3.3 1.3 6.3 1.3l246.3 0c3 0 5.2-.7 6.3-1.3 .1-.1 .2-.2 .3-.2 1.4-3 2.8-6 4.1-9.1 8.1-20.4 1.4-49.8-23.5-84l-35.9-49.3-148.9 0zM351.5 .2c18.3 1.8 32.5 17.3 32.5 36 0 7.7-2.4 15.1-6.9 21.3l-51.3 70.5 24.1 0c13.1 0 20.6 14.8 12.9 25.4l-36.8 50.6-90.5 0c-7.6-16.5-24.2-28-43.6-28s-36 11.5-43.6 28l-90.5 0-36.8-50.6C13.4 142.8 21 128 34 128l24.2 0-51.2-70.5C2.4 51.3 0 43.9 0 36.2 0 16.2 16.2 0 36.2 0l311.6 0 3.7 .2zM117.5 128l148.9 0 58.2-80-265.2 0 58.2 80z"/></svg>