<svg xmlns="http://www.w3.org/2000/svg" viewBox="0 0 448 512"><path fill="currentColor" d="M204.1 47.7c11.6-9.2 28.1-9.2 39.7 0 37 29.4 74.3 59.8 107.5 93 49.5 49.5 96.7 117.3 96.7 211.3 0 70.7-57.3 128-128 128l-192 0c-70.7 0-128-57.3-128-128 0-94 47.2-161.8 96.7-211.3 33.2-33.2 70.4-63.5 107.5-93zM393.3 384L54.7 384C67 412.3 95.2 432 128 432l192 0c32.8 0 61-19.7 73.3-48zm-76-209.4c-28.2-28.2-60-54.7-93.4-81.3-33.3 26.6-65.1 53.1-93.4 81.3-41.8 41.8-77.2 93.3-82.1 161.4l350.9 0c-4.8-68-40.3-119.6-82.1-161.4z"/></svg>