<svg xmlns="http://www.w3.org/2000/svg" viewBox="0 0 320 512"><path fill="currentColor" d="M198.4 34c8.9-3.9 19.5-2 26.6 5l18.7 18.7 1.7 1.3c1.8 1.1 4.1 1.3 6.2 .8l37.9-10.8 3.4-.7c8-1.1 16.1 2 21.5 8.2 6.1 7.2 7.4 17.3 3.4 25.8L257.3 209.8c8.7 3.6 14.7 12.2 14.7 22.2 0 13.3-10.7 24-24 24l-3.7 0 11.7 128 56.2 70.3c5 6.3 7.8 14.1 7.8 22.2 0 19.6-15.9 35.5-35.5 35.5L35.5 512c-19.6 0-35.5-15.9-35.5-35.5 0-8.1 2.7-15.9 7.8-22.2L64 384 75.6 256 72 256c-13.3 0-24-10.7-24-24 0-10 6.1-18.5 14.7-22.2L2.3 82.3c-4-8.5-2.7-18.6 3.4-25.8s15.8-10.1 24.9-7.5l37.9 10.8 2.1 .3c2.1 0 4.2-.8 5.8-2.3L95 39 98.3 36.3c8-5.6 18.7-5.8 27.1-.3l30.2 20.2 2.2 1c2.2 .7 4.7 .3 6.7-1l30.2-20.2 3.7-2zM99.8 416l-38.4 48 197.1 0-38.4-48-120.3 0zm13.8-48l92.7 0-10.2-112-72.3 0-10.2 112zM191.1 96.1c-17.6 11.8-40.3 12.5-58.5 2.2l-3.6-2.2-13.9-9.3-4.8 4.8c-11.4 11.4-27 17.2-42.7 16.3L115 208 205 208 252.4 107.9c-14.5 .8-28.8-4-39.9-13.7l-2.8-2.6-4.8-4.8-13.9 9.3zM160-32c14.9 0 27 12.1 27 27s-12.1 27-27 27-27-12.1-27-27 12.1-27 27-27z"/></svg>