<svg xmlns="http://www.w3.org/2000/svg" viewBox="0 0 320 512"><path fill="currentColor" d="M282.5 32.1C294.6 33.4 304 43.6 304 56l0 120c0 13.6-3.9 26.9-11.1 38.4l-3.3 4.8-22.7 30.2c3.1 4.1 5.1 9.1 5.1 14.6 0 10.4-6.7 19.2-16 22.5l0 81.5 57.8 86.7c4 6.1 6.2 13.2 6.2 20.4l-.2 3.8c-1.9 18.6-17.6 33.1-36.7 33.1l-246.3 0-3.8-.2c-18.6-1.9-33.1-17.6-33.1-36.7 0-7.3 2.2-14.4 6.2-20.4L64 368 64 286.5c-9.3-3.3-16-12.1-16-22.5 0-5.5 1.9-10.6 5.1-14.6L30.4 219.2C21.1 206.7 16 191.6 16 176l0-120 .1-2.5C17.4 41.4 27.6 32 40 32l240 0 2.5 .1zM57.7 464l204.6 0-32-48-140.6 0-32 48zM112 288l0 80 96 0 0-80-96 0zM64 176c0 5.2 1.7 10.3 4.8 14.4l37.2 49.6 108 0 37.2-49.6 2.1-3.3c1.8-3.4 2.7-7.2 2.7-11.1l0-96-32 0 0 24c0 13.3-10.7 24-24 24s-24-10.7-24-24l0-24-32 0 0 24c0 13.3-10.7 24-24 24s-24-10.7-24-24l0-24-32 0 0 96z"/></svg>