<svg xmlns="http://www.w3.org/2000/svg" viewBox="0 0 576 512"><path fill="currentColor" d="M200 16c13.3 0 24 10.7 24 24s-10.7 24-24 24l-32 0 0 32 344 0 6.5 .3C550.8 99.6 576 126.9 576 160l0 224-.3 6.5c-3.1 30.1-27 54.1-57.1 57.1l-6.5 .3-448 0-6.5-.3c-30.1-3.1-54.1-27-57.1-57.1L0 384 0 160c0-33.1 25.2-60.4 57.5-63.7l6.5-.3 56 0 0-32-32 0C74.7 64 64 53.3 64 40S74.7 16 88 16l112 0zM64 144c-8.8 0-16 7.2-16 16l0 224c0 8.8 7.2 16 16 16l448 0c8.8 0 16-7.2 16-16l0-224c0-8.8-7.2-16-16-16L64 144zM176 368a96 96 0 1 1 0-192 96 96 0 1 1 0 192zm224 0a96 96 0 1 1 0-192 96 96 0 1 1 0 192zM176 224a48 48 0 1 0 0 96 48 48 0 1 0 0-96zm224 0a48 48 0 1 0 0 96 48 48 0 1 0 0-96zM472 32c13.3 0 24 10.7 24 24s-10.7 24-24 24L360 80c-13.3 0-24-10.7-24-24s10.7-24 24-24l112 0z"/></svg>