<svg xmlns="http://www.w3.org/2000/svg" viewBox="0 0 512 512"><path fill="currentColor" d="M192-32c13.3 0 24 10.7 24 24l0 16 16 0c13.3 0 24 10.7 24 24s-10.7 24-24 24l-16 0 0 40 78.1 0c14.3 0 25.9 11.6 25.9 25.9 0 4-.9 8-2.7 11.6l-33.5 66.8c11.4 1.8 20.2 11.7 20.2 23.7 0 13.3-10.7 24-24 24l-5.6 0 13.6 136 56.2 70.3c5 6.3 7.8 14.1 7.8 22.2 0 19.6-15.9 35.5-35.5 35.5L67.5 512c-19.6 0-35.5-15.9-35.5-35.5 0-8.1 2.7-15.9 7.8-22.2L96 384 109.6 248 104 248c-13.3 0-24-10.7-24-24 0-11.9 8.7-21.8 20.2-23.7L66.7 133.5c-1.8-3.6-2.7-7.6-2.7-11.6 0-14.3 11.6-25.9 25.9-25.9l78.1 0 0-40-16 0c-13.3 0-24-10.7-24-24S138.7 8 152 8l16 0 0-16c0-13.3 10.7-24 24-24zM490.5 160.1c12.1 1.2 21.5 11.5 21.5 23.9l0 104c0 4.7-1.4 9.4-4 13.3l-28 41.9 0 36.1 28.8 72.1 1.4 4c1.2 4 1.8 8.2 1.8 12.4 0 24.4-19.8 44.1-44.1 44.1L392 512c3.9-8.3 6.6-17.4 7.5-27l.4-8.5c0-4.2-.3-8.4-.9-12.5l63.1 0-19.2-48-67.9 0-38.4-48 95.4 0 0-32c0-4.7 1.4-9.4 4-13.3l28-42 0-72.7-32 0 0 24c0 13.3-10.7 24-24 24s-24-10.7-24-24l0-24-33.8 0c-1.5-6.6-3.9-12.9-7.2-18.8l14.7-29.2 130.3 0 2.5 .1zM93.4 464l197.1 0-38.4-48-120.3 0-38.4 48zm52.4-96l92.4 0-12-120-68.4 0-12 120zm7.8-168l76.7 0 28-56-132.7 0 28 56z"/></svg>