<svg xmlns="http://www.w3.org/2000/svg" viewBox="0 0 320 512"><path fill="currentColor" d="M208 0c13.3 0 24 10.7 24 24s-10.7 24-24 24l-8 0 49.3 59.1c19.9 23.8 30.7 53.9 30.7 84.9 0 24.1-6.6 47.5-18.8 68 6.5 4.3 10.8 11.7 10.8 20 0 13.3-10.7 24-24 24l-8 0 0 64 57.8 86.7c4 6.1 6.2 13.2 6.2 20.4 0 20.3-16.5 36.8-36.8 36.8L52.8 512c-20.3 0-36.8-16.5-36.8-36.8 0-7.3 2.2-14.4 6.2-20.4l57.8-86.7 0-64-8 0c-13.3 0-24-10.7-24-24 0-8.4 4.3-15.7 10.8-20-12.2-20.4-18.8-43.9-18.8-68 0-31 10.9-61 30.7-84.9L120 48 112 48C98.7 48 88 37.3 88 24S98.7 0 112 0l96 0zM73.7 464l172.6 0-32-48-108.6 0-32 48zM128 304l0 64 64 0 0-64-64 0zM107.6 137.8C94.9 153 88 172.2 88 192 88 211.8 94.9 230.9 107.6 246.1l8.2 9.9 88.4 0 8.2-9.9c12.6-15.2 19.6-34.3 19.6-54.1 0-11-2.2-21.8-6.2-31.8L201 185c-9.4 9.4-24.6 9.4-33.9 0s-9.4-24.6 0-33.9l30.7-30.8-37.8-45.3-52.4 62.9z"/></svg>