<svg xmlns="http://www.w3.org/2000/svg" viewBox="0 0 384 512"><path fill="currentColor" d="M200.5 0c101.6 0 184 82.4 184 184l0 125c0 15.5-4.3 30.6-12.2 43.7l-3.6 5.5-28.4 39.3 38.1 57.1c4 6.1 6.2 13.2 6.2 20.4l-.2 3.8c-1.9 18.6-17.6 33.1-36.7 33.1l-278.3 0-3.8-.2c-18.6-1.9-33.1-17.6-33.1-36.7 0-7.3 2.2-14.4 6.2-20.4l48-72.1-1.2-3.5c-10.1-30.4-2.1-63.9 20.6-86.5l35.5-35.2-1.7 0-11.2 6.9c-15.8 9.7-34.5 13.5-52.7 10.9l-7.8-1.5c-35.2-8.8-59.8-40.7-59.8-76.8 0-19.1 6.9-37.8 19.6-52.3l68.4-78.3 0-42.3 .1-2.4C97.8 9.5 108.1 0 120.5 0l80 0zM90.2 464l236.6 0-32-48-172.6 0-32 48zM144.5 75.3c0 5.8-2.1 11.4-5.9 15.8L64.2 176.2c-5 5.7-7.8 13.1-7.8 20.8 0 14.3 9.8 26.8 23.4 30.2l3 .6c7.1 1 14.5-.5 20.7-4.3l17-10.5 2.9-1.5c3-1.3 6.3-2 9.7-2l66.8 0c9.7 0 18.5 5.9 22.2 14.9s1.6 19.3-5.3 26.2l-77 76.3c-9.8 9.7-13.2 24.1-8.9 37.2l1.4 4.1 170 0 27.2-37.8 2.9-4.8c2.5-5 3.9-10.6 3.9-16.3l0-125c0-75.1-60.9-136-136-136l-56 0 0 27.3zm40 68.7a24 24 0 1 1 0-48 24 24 0 1 1 0 48z"/></svg>