<svg xmlns="http://www.w3.org/2000/svg" viewBox="0 0 448 512"><path fill="currentColor" d="M64 480l320 0 6.5-.3c30.1-3.1 54.1-27 57.1-57.1l.3-6.5 0-320c0-33.1-25.2-60.4-57.5-63.7l-6.5-.3-320 0-6.5 .3C25.2 35.6 0 62.9 0 96l0 320 .3 6.5c3.1 30.1 27 54.1 57.1 57.1L64 480zm54.4-48L64 432c-8.8 0-16-7.2-16-16l0-54.4 70.4 0 0-70.4-70.4 0 0-70.4 70.4 0 0-70.4-70.4 0 0-54.4c0-8.8 7.2-16 16-16l54.4 0 0 70.4 70.4 0 0-70.4 70.4 0 0 70.4 70.4 0 0-70.4 54.4 0c8.8 0 16 7.2 16 16l0 54.4-70.4 0 0 70.4 70.4 0 0 70.4-70.4 0 0 70.4 70.4 0 0 54.4c0 8.8-7.2 16-16 16l-54.4 0 0-70.4-70.4 0 0 70.4-70.4 0 0-70.4-70.4 0 0 70.4zm0-140.8l70.4 0 0 70.4 70.4 0 0-70.4 70.4 0 0-70.4-70.4 0 0-70.4-70.4 0 0 70.4-70.4 0 0 70.4zm140.8-70.4l0 70.4-70.4 0 0-70.4 70.4 0zM64 480l320 0 6.5-.3c30.1-3.1 54.1-27 57.1-57.1l.3-6.5 0-320c0-33.1-25.2-60.4-57.5-63.7l-6.5-.3-320 0-6.5 .3C25.2 35.6 0 62.9 0 96l0 320 .3 6.5c3.1 30.1 27 54.1 57.1 57.1L64 480zm54.4-48L64 432c-8.8 0-16-7.2-16-16l0-54.4 70.4 0 0-70.4-70.4 0 0-70.4 70.4 0 0-70.4-70.4 0 0-54.4c0-8.8 7.2-16 16-16l54.4 0 0 70.4 70.4 0 0-70.4 70.4 0 0 70.4 70.4 0 0-70.4 54.4 0c8.8 0 16 7.2 16 16l0 54.4-70.4 0 0 70.4 70.4 0 0 70.4-70.4 0 0 70.4 70.4 0 0 54.4c0 8.8-7.2 16-16 16l-54.4 0 0-70.4-70.4 0 0 70.4-70.4 0 0-70.4-70.4 0 0 70.4zm0-140.8l70.4 0 0 70.4 70.4 0 0-70.4 70.4 0 0-70.4-70.4 0 0-70.4-70.4 0 0 70.4-70.4 0 0 70.4zm140.8-70.4l0 70.4-70.4 0 0-70.4 70.4 0z"/></svg>