<svg xmlns="http://www.w3.org/2000/svg" viewBox="0 0 320 512"><path fill="currentColor" d="M160 32c57.4 0 104 46.6 104 104 0 22.3-7.1 42.9-19 59.8 6.6 4.3 11 11.7 11 20.2 0 13.3-10.7 24-24 24l-5.3 0 13.3 144 56.2 70.3c5 6.3 7.8 14.1 7.8 22.2 0 19.6-15.9 35.5-35.5 35.5L51.5 512c-19.6 0-35.5-15.9-35.5-35.5 0-8.1 2.7-15.9 7.8-22.2L80 384 93.3 240 88 240c-13.3 0-24-10.7-24-24 0-8.5 4.4-15.9 11-20.2-11.9-16.9-19-37.6-19-59.8 0-57.4 46.6-104 104-104zM115.8 416l-38.4 48 165.1 0-38.4-48-88.3 0zm13.8-48l60.6 0-11.8-128-36.9 0-11.8 128zM160 80a56 56 0 1 0 0 112 56 56 0 1 0 0-112z"/></svg>