<svg xmlns="http://www.w3.org/2000/svg" viewBox="0 0 640 512"><path fill="currentColor" d="M0 147.3c0-46.3 38.2-83.3 83.9-83.3 30.9 0 59.6 17.4 73.6 45.3 5.9 11.9 1.1 26.3-10.7 32.2s-26.3 1.1-32.2-10.7C108.9 119.4 96.9 112 83.9 112 64.1 112 48 128.1 48 147.3l0 217.3c0 19.2 16.1 35.3 35.9 35.3 13 0 25-7.4 30.6-18.7 5.9-11.9 20.3-16.7 32.2-10.7s16.7 20.3 10.7 32.2C143.5 430.6 114.7 448 83.9 448 38.2 448 0 411 0 364.7L0 147.3zM216 64c13.3 0 24 10.7 24 24l0 136 128 0 0-136c0-13.3 10.7-24 24-24s24 10.7 24 24l0 336c0 13.3-10.7 24-24 24s-24-10.7-24-24l0-152-128 0 0 152c0 13.3-10.7 24-24 24s-24-10.7-24-24l0-336c0-13.3 10.7-24 24-24zM448 88c0-13.3 10.7-24 24-24l144 0c13.3 0 24 10.7 24 24s-10.7 24-24 24l-120 0 0 112 88 0c13.3 0 24 10.7 24 24s-10.7 24-24 24l-88 0 0 152c0 13.3-10.7 24-24 24s-24-10.7-24-24l0-336z"/></svg>