<svg xmlns="http://www.w3.org/2000/svg" viewBox="0 0 512 512"><path fill="currentColor" d="M128 64a16 16 0 1 1 32 0 16 16 0 1 1 -32 0zm80 0A64 64 0 1 0 80 64 64 64 0 1 0 208 64zM144 208c5.5 0 10.9 .9 16 2.6l0 125.4-32 0 0-125.4c5.1-1.7 10.5-2.6 16-2.6zM128 488l0-104 32 0 0 104c0 13.3 10.7 24 24 24s24-10.7 24-24l0-223.2 27.7 44c7.1 11.2 21.9 14.6 33.1 7.5s14.6-21.9 7.5-33.1l-48.4-76.9C209.8 177.5 178.1 160 144 160s-65.8 17.5-83.9 46.3L11.7 283.2c-7.1 11.2-3.7 26 7.5 33.1s26 3.7 33.1-7.5L80 264.8 80 488c0 13.3 10.7 24 24 24s24-10.7 24-24zM384 0c-8.8 0-16 7.2-16 16s7.2 16 16 16l0 100.3c-9.6 5.5-16 15.9-16 27.7l0 32-16 0c-17.7 0-32 14.3-32 32l0 128c0 17.7 14.3 32 32 32l32 0 0 112c0 8.8 7.2 16 16 16l59.5 0c10.4 0 18-9.8 15.5-19.9l-23-92.1 44 0c8.8 0 16-7.2 16-16l0-16c0-8.8-7.2-16-16-16l-48 0 0-26.7 53.1-17.7c6.5-2.2 10.9-8.3 10.9-15.2l0-84.5c0-8.8-7.2-16-16-16l-16 0c-8.8 0-16 7.2-16 16l0 56-16 5.3 0-109.3c0-11.8-6.4-22.2-16-27.7L432 16c0-8.8-7.2-16-16-16L384 0zm16 336l-32 0 0-96 32 0 0 96z"/></svg>