<svg xmlns="http://www.w3.org/2000/svg" viewBox="0 0 640 512"><path fill="currentColor" d="M160.5 48a24 24 0 1 1 0 48 24 24 0 1 1 0-48zm0 96a72 72 0 1 0 0-144 72 72 0 1 0 0 144zm0 16c-34.6 0-67.3 16.2-88.2 43.8L13.4 281.5c-8 10.6-5.9 25.6 4.6 33.6s25.6 5.9 33.6-4.6L97 250.7 57.7 368.4c-2.4 7.3-1.2 15.4 3.3 21.6s11.8 10 19.5 10l16 0 0 88c0 13.3 10.7 24 24 24s24-10.7 24-24l0-88 32 0 0 88c0 13.3 10.7 24 24 24s24-10.7 24-24l0-88 16 0c7.7 0 15-3.7 19.5-10s5.7-14.3 3.3-21.6L224 250.7 269.4 310.5c8 10.6 23.1 12.6 33.6 4.6s12.6-23.1 4.6-33.6l-58.9-77.7c-20.9-27.6-53.6-43.8-88.2-43.8zM113.8 352l46.7-140.1 46.7 140.1-93.4 0zM456.5 72a24 24 0 1 1 48 0 24 24 0 1 1 -48 0zm96 0a72 72 0 1 0 -144 0 72 72 0 1 0 144 0zm-72 136c5.5 0 10.9 .9 16 2.6l0 125.4-32 0 0-125.4c5.1-1.7 10.5-2.6 16-2.6zm-16 280l0-104 32 0 0 104c0 13.3 10.7 24 24 24s24-10.7 24-24l0-223.2 27.7 44c7.1 11.2 21.9 14.6 33.1 7.5s14.6-21.9 7.5-33.1l-48.4-76.9c-18.2-28.8-49.8-46.3-83.9-46.3s-65.8 17.5-83.9 46.3l-48.4 76.9c-7.1 11.2-3.7 26 7.5 33.1s26 3.7 33.1-7.5l27.7-44 0 223.2c0 13.3 10.7 24 24 24s24-10.7 24-24z"/></svg>