<svg xmlns="http://www.w3.org/2000/svg" viewBox="0 0 640 512"><path fill="currentColor" d="M145.4 332.9L333.4 54.7c3.5-4.3 8.4-6.7 13.6-6.7 9.2 0 18.1 8 18.1 19.5 0 4.6-1.4 8.7-3.8 11.9L145.4 332.9zM347 0c-21.4 0-40.3 10.4-52.2 26.1l-.4 .5-.4 .6-286.1 423.5c-12 16.4-9.2 39.8 6.8 52.8 16.5 13.4 40.4 10.5 53.4-5.9l330.2-387.7 .4-.5 .4-.5C407.9 97.4 413.1 83 413.1 67.5 413.1 31 384.2 0 347 0zM310 356.7L561.6 116.2c3.2-2.6 7.3-4.2 11.9-4.2 10.4 0 18.9 8.4 18.9 18.9 0 5.5-2.4 10.5-6.2 14L310 356.7zM573.5 64c-16.6 0-31.8 6.1-43.5 16.1l-.5 .4-.5 .4-381 364.2c-15.5 13.8-17.1 37.6-3.5 53.5s37.3 17.9 53.4 4.7l418.2-320.9 .5-.4 .5-.4c14.3-12.2 23.3-30.4 23.3-50.8 0-36.9-29.9-66.9-66.9-66.9z"/></svg>