<svg xmlns="http://www.w3.org/2000/svg" viewBox="0 0 512 512"><path fill="currentColor" d="M256-32c13.3 0 24 10.7 24 24l0 24 32 0c13.3 0 24 10.7 24 24s-10.7 24-24 24l-32 0 0 42.9 110.4 71.4c15.9 10.3 25.6 28 25.6 47l0 16.8 64.2 37.5C499.9 291.2 512 312.2 512 335l0 113c0 35.3-28.7 64-64 64L64 512c-35.3 0-64-28.7-64-64L0 335c0-22.8 12.1-43.8 31.8-55.3l64.2-37.5 0-16.8c0-19 9.6-36.7 25.6-47l110.4-71.4 0-42.9-32 0c-13.3 0-24-10.7-24-24s10.7-24 24-24l32 0 0-24c0-13.3 10.7-24 24-24zM147.7 218.7c-2.3 1.5-3.7 4-3.7 6.7l0 238.6 48 0 0-80c0-35.3 28.7-64 64-64s64 28.7 64 64l0 80 48 0 0-238.6c0-2.7-1.4-5.2-3.7-6.7L256 148.6 147.7 218.7zM416 464l32 0c8.8 0 16-7.2 16-16l0-113c0-5.7-3-11-7.9-13.8L416 297.8 416 464zM96 297.8L55.9 321.2C51 324 48 329.3 48 335l0 113c0 8.8 7.2 16 16 16l32 0 0-166.2z"/></svg>