<svg xmlns="http://www.w3.org/2000/svg" viewBox="0 0 512 512"><path fill="currentColor" d="M256 48a208 208 0 1 1 0 416 208 208 0 1 1 0-416zm0 464a256 256 0 1 0 0-512 256 256 0 1 0 0 512zM224 96c-8.8 0-16 7.2-16 16l0 16-16 0c-13.3 0-24 10.7-24 24l0 205.9c0 14.4 11.7 26.1 26.1 26.1l13.9 0 0 16c0 8.8 7.2 16 16 16s16-7.2 16-16l0-16 16 0 0 16c0 8.8 7.2 16 16 16s16-7.2 16-16l0-16 4 0c42 0 76-34 76-76 0-24.6-11.7-46.4-29.8-60.3 8.7-12.4 13.8-27.4 13.8-43.7 0-37.9-27.7-69.3-64-75.1l0-16.9c0-8.8-7.2-16-16-16s-16 7.2-16 16l0 16-16 0 0-16c0-8.8-7.2-16-16-16zm-8 80l60 0c15.5 0 28 12.5 28 28s-12.5 28-28 28l-60 0 0-56zm0 104l76 0c15.5 0 28 12.5 28 28s-12.5 28-28 28l-76 0 0-56z"/></svg>