<svg xmlns="http://www.w3.org/2000/svg" viewBox="0 0 512 512"><path fill="currentColor" d="M256 48a208 208 0 1 1 0 416 208 208 0 1 1 0-416zm0 464a256 256 0 1 0 0-512 256 256 0 1 0 0 512zM136 144c-22.1 0-40 17.9-40 40l0 144c0 22.1 17.9 40 40 40s40-17.9 40-40l0-8c0-13.3-10.7-24-24-24-2.8 0-5.5 .5-8 1.4l0-82.7c2.5 .9 5.2 1.4 8 1.4 13.3 0 24-10.7 24-24l0-8c0-22.1-17.9-40-40-40zm104 24c0-13.3-10.7-24-24-24s-24 10.7-24 24l0 176c0 13.3 10.7 24 24 24s24-10.7 24-24l0-64 16 0 0 64c0 13.3 10.7 24 24 24s24-10.7 24-24l0-176c0-13.3-10.7-24-24-24s-24 10.7-24 24l0 64-16 0 0-64zm104-24c-13.3 0-24 10.7-24 24l0 176c0 13.3 10.7 24 24 24s24-10.7 24-24l0-64 16 0c13.3 0 24-10.7 24-24s-10.7-24-24-24l-16 0 0-40 24 0c13.3 0 24-10.7 24-24s-10.7-24-24-24l-48 0z"/></svg>