<svg xmlns="http://www.w3.org/2000/svg" viewBox="0 0 512 512"><path fill="currentColor" d="M256 48a208 208 0 1 1 0 416 208 208 0 1 1 0-416zm0 464a256 256 0 1 0 0-512 256 256 0 1 0 0 512zM96 256l96 0c0-25.5 14.9-47.5 36.5-57.8L180.4 115C130.2 141.9 96 195 96 256zm123.7 52.7L171.7 392c24.5 15.2 53.4 24 84.3 24s59.8-8.8 84.3-24l-48.1-83.3C282 315.8 269.5 320 256 320s-26-4.2-36.3-11.3zM320 256l96 0c0-61-34.2-114.1-84.4-141l-48.1 83.3C305.1 208.5 320 230.5 320 256zm-64 32a32 32 0 1 0 0-64 32 32 0 1 0 0 64z"/></svg>