<svg xmlns="http://www.w3.org/2000/svg" viewBox="0 0 640 512"><path fill="currentColor" d="M306.7 368c2.8-16.8 7.8-32.9 14.8-48l-1.4 0-64 0c-53.5 0-99.4 32.9-118.5 79.6-35.6-37.3-57.5-87.9-57.5-143.6 0-114.9 93.1-208 208-208 98.4 0 180.8 68.3 202.5 160.1 1.8-.1 3.7-.1 5.5-.1 15.3 0 30.2 1.8 44.4 5.2-20.4-121-125.6-213.2-252.4-213.2-141.4 0-256 114.6-256 256S146.6 512 288 512c16.7 0 33-1.6 48.8-4.6-9.3-13.8-16.9-28.9-22.4-45-8.6 1.1-17.4 1.7-26.3 1.7-40.6 0-78.4-11.6-110.5-31.7 7.3-36.7 39.7-64.3 78.5-64.3l50.7 0zM288 240a40 40 0 1 1 0-80 40 40 0 1 1 0 80zm-88-40a88 88 0 1 0 176 0 88 88 0 1 0 -176 0zM496 544a144 144 0 1 0 0-288 144 144 0 1 0 0 288zM394.5 400c0-55 44.6-99.5 99.5-99.5l.9 0c3.3 0 6.2 2 7.5 5s.7 6.5-1.5 8.9c-12.9 14.2-20.7 33-20.7 53.6 0 44 35.7 79.7 79.7 79.7 1.9 0 3.8-.1 5.7-.2 3.3-.2 6.3 1.5 7.9 4.4s1.2 6.4-.8 9c-18.2 23.5-46.7 38.7-78.8 38.7-55 0-99.5-44.6-99.5-99.5z"/></svg>