<svg xmlns="http://www.w3.org/2000/svg" viewBox="0 0 576 512"><path fill="currentColor" d="M288 80a144 144 0 1 1 0 288 144 144 0 1 1 0-288zm0 336a192 192 0 1 0 0-384 192 192 0 1 0 0 384zM24 320c-13.3 0-24 10.7-24 24L0 448c0 35.3 28.7 64 64 64l448 0c35.3 0 64-28.7 64-64l0-104c0-13.3-10.7-24-24-24s-24 10.7-24 24l0 104c0 8.8-7.2 16-16 16L64 464c-8.8 0-16-7.2-16-16l0-104c0-13.3-10.7-24-24-24zM292 112c-11 0-20 9-20 20l0 4c-28.8 .3-52 23.7-52 52.5 0 25.7 18.5 47.6 43.9 51.8l41.7 7c6 1 10.4 6.2 10.4 12.3 0 6.9-5.6 12.5-12.5 12.5L248 272c-11 0-20 9-20 20s9 20 20 20l24 0 0 4c0 11 9 20 20 20s20-9 20-20l0-4.7c25-4.1 44-25.7 44-51.8 0-25.7-18.5-47.6-43.9-51.8l-41.7-7c-6-1-10.4-6.2-10.4-12.3 0-6.9 5.6-12.5 12.5-12.5l47.5 0c11 0 20-9 20-20s-9-20-20-20l-8 0 0-4c0-11-9-20-20-20z"/></svg>