<svg xmlns="http://www.w3.org/2000/svg" viewBox="0 0 512 512"><path fill="currentColor" d="M464 256a208 208 0 1 0 -416 0 208 208 0 1 0 416 0zM0 256a256 256 0 1 1 512 0 256 256 0 1 1 -512 0zM279.9 120l33 0c13.3 0 24 10.7 24 24s-10.7 24-24 24l-33 0c-31 0-58.3 15.9-74.2 40l50.3 0c8.8 0 16 7.2 16 16s-7.2 16-16 16l-63.3 0c-1 5.4-1.6 11-1.6 16.8 0 5.2 .4 10.3 1.3 15.2l63.5 0c8.8 0 16 7.2 16 16s-7.2 16-16 16l-51.2 0c15.7 24.9 43.5 41.5 75.2 41.5l33 0c13.3 0 24 10.7 24 24s-10.7 24-24 24l-33 0c-58.9 0-109.1-37.3-128.4-89.5L136 304c-8.8 0-16-7.2-16-16s7.2-16 16-16l8 0c-.6-5-.8-10.1-.8-15.2 0-5.7 .3-11.3 1-16.8l-8.2 0c-8.8 0-16-7.2-16-16s7.2-16 16-16l16.1 0c19.6-51.5 69.5-88 127.8-88z"/></svg>