<svg xmlns="http://www.w3.org/2000/svg" viewBox="0 0 512 512"><path fill="currentColor" d="M256 48a208 208 0 1 1 0 416 208 208 0 1 1 0-416zm0 464a256 256 0 1 0 0-512 256 256 0 1 0 0 512zM128.7 145.1c-12.6 4-19.6 17.5-15.6 30.2l25.7 80.7-10.8 0c-8.8 0-16 7.2-16 16s7.2 16 16 16l21 0 30.4 95.3c3.2 10.2 12.8 17 23.5 16.7s19.9-7.6 22.6-18l24.3-94 13.7 0 25.4 94.2c2.8 10.3 12.1 17.6 22.7 17.8s20.2-6.7 23.4-16.9l29.2-95.1 19.8 0c8.8 0 16-7.2 16-16s-7.2-16-16-16l-10 0 24.9-80.9c3.9-12.7-3.2-26.1-15.9-30s-26.1 3.2-30 15.9l-29.2 95.1-19.3 0-25.4-94.2c-2.8-10.5-12.4-17.8-23.3-17.8s-20.4 7.4-23.1 18l-24.3 94-19.3 0-30.4-95.3c-4-12.6-17.5-19.6-30.2-15.6zm71.2 144.2l-.4-1.4 .8 0-.4 1.4zm113.7 0l-.4-1.4 .8 0-.4 1.4z"/></svg>