<svg xmlns="http://www.w3.org/2000/svg" viewBox="0 0 512 512"><path fill="currentColor" d="M256 48a208 208 0 1 1 0 416 208 208 0 1 1 0-416zm0 464a256 256 0 1 0 0-512 256 256 0 1 0 0 512zM376 160c0-30.9-25.1-56-56-56s-56 25.1-56 56c0 5.3 .7 10.5 2.1 15.3l-69.8 38.1c-9.8-8.4-22.5-13.4-36.3-13.4-30.9 0-56 25.1-56 56s25.1 56 56 56c13.9 0 26.6-5 36.3-13.4l69.8 38.1c-1.4 4.9-2.1 10-2.1 15.3 0 30.9 25.1 56 56 56s56-25.1 56-56-25.1-56-56-56c-10.8 0-20.9 3.1-29.5 8.4l-75-40.9c.3-2.4 .5-5 .5-7.5s-.2-5-.5-7.5l75-40.9c8.6 5.3 18.7 8.4 29.5 8.4 30.9 0 56-25.1 56-56z"/></svg>