<svg xmlns="http://www.w3.org/2000/svg" viewBox="0 0 640 512"><path fill="currentColor" d="M306.7 368c2.8-16.8 7.8-32.9 14.8-48l-1.4 0-64 0c-53.5 0-99.4 32.9-118.5 79.6-35.6-37.3-57.5-87.9-57.5-143.6 0-114.9 93.1-208 208-208 98.4 0 180.8 68.3 202.5 160.1 1.8-.1 3.7-.1 5.5-.1 15.3 0 30.2 1.8 44.4 5.2-20.4-121-125.6-213.2-252.4-213.2-141.4 0-256 114.6-256 256S146.6 512 288 512c16.7 0 33-1.6 48.8-4.6-9.3-13.8-16.9-28.9-22.4-45-8.6 1.1-17.4 1.7-26.3 1.7-40.6 0-78.4-11.6-110.5-31.7 7.3-36.7 39.7-64.3 78.5-64.3l50.7 0zM288 240a40 40 0 1 1 0-80 40 40 0 1 1 0 80zm-88-40a88 88 0 1 0 176 0 88 88 0 1 0 -176 0zM640 400a144 144 0 1 0 -288 0 144 144 0 1 0 288 0zm-66.3 80.7C553.5 500.1 526.2 512 496 512s-57.5-11.9-77.7-31.3c6.2-19 24-32.7 45.1-32.7l65.2 0c21 0 38.9 13.7 45.1 32.7zM448 368a48 48 0 1 1 96 0 48 48 0 1 1 -96 0z"/></svg>