<svg xmlns="http://www.w3.org/2000/svg" viewBox="0 0 512 512"><path fill="currentColor" d="M464 256a208 208 0 1 0 -416 0 208 208 0 1 0 416 0zM0 256a256 256 0 1 1 512 0 256 256 0 1 1 -512 0zM171.9 131.3c11.4-6.7 26.1-2.8 32.8 8.6l51.3 87.7 51.3-87.7c6.7-11.4 21.4-15.3 32.8-8.6s15.3 21.4 8.6 32.8L295 256 320 256c8.8 0 16 7.2 16 16s-7.2 16-16 16l-40 0 0 32 40 0c8.8 0 16 7.2 16 16s-7.2 16-16 16l-40 0 0 24c0 13.3-10.7 24-24 24s-24-10.7-24-24l0-24-40 0c-8.8 0-16-7.2-16-16s7.2-16 16-16l40 0 0-32-40 0c-8.8 0-16-7.2-16-16s7.2-16 16-16l25 0-53.7-91.9c-6.7-11.4-2.8-26.1 8.6-32.8z"/></svg>