<svg xmlns="http://www.w3.org/2000/svg" viewBox="0 0 512 512"><path fill="currentColor" d="M464 256a208 208 0 1 0 -416 0 208 208 0 1 0 416 0zM0 256a256 256 0 1 1 512 0 256 256 0 1 1 -512 0zm280-38.3l0 102.5c23.1-8.5 47.4-13.7 72-15.5l0-111.6c-19.5 2.2-38.5 7.8-56.1 16.7L280 217.7zM232 320.2l0-102.5-15.9-7.9c-17.6-8.8-36.6-14.4-56.1-16.7l0 111.6c24.6 1.8 48.9 7 72 15.5zM256 176l18.4-9.2c30-15 63.1-22.8 96.6-22.8l5 0c13.3 0 24 10.7 24 24l0 160c0 13.3-10.7 24-24 24l-5 0c-33.5 0-66.6 7.8-96.6 22.8L264.1 380c-5.1 2.5-11 2.5-16.1 0l-10.3-5.2c-30-15-63.1-22.8-96.6-22.8l-5 0c-13.3 0-24-10.7-24-24l0-160c0-13.3 10.7-24 24-24l5 0c33.5 0 66.6 7.8 96.6 22.8L256 176z"/></svg>