<svg xmlns="http://www.w3.org/2000/svg" viewBox="0 0 512 512"><path fill="currentColor" d="M256 48a208 208 0 1 1 0 416 208 208 0 1 1 0-416zm0 464a256 256 0 1 0 0-512 256 256 0 1 0 0 512zm96-384c-8.8 0-16 7.2-16 16l0 8.3c-31.4 3.1-56 29.6-56 61.9 0 25.4 15.5 48.3 39.1 57.7l32 12.8c5.4 2.2 8.9 7.4 8.9 13.1 0 7.8-6.3 14.2-14.2 14.2L312 312c-13.3 0-24 10.7-24 24s10.7 24 24 24l24 0 0 8c0 8.8 7.2 16 16 16s16-7.2 16-16l0-12.1c23.4-8.9 40-31.6 40-58.1 0-25.4-15.5-48.3-39.1-57.7l-32-12.8c-5.4-2.2-8.9-7.4-8.9-13.1 0-7.8 6.3-14.2 14.2-14.2l33.8 0c13.3 0 24-10.7 24-24s-10.7-24-24-24l-8 0 0-8c0-8.8-7.2-16-16-16zM136 144c-13.3 0-24 10.7-24 24l0 176c0 13.3 10.7 24 24 24s24-10.7 24-24l0-56 12 0 21.2 63.6c4.2 12.6 17.8 19.4 30.4 15.2S243 349 238.8 336.4l-19.3-57.8c21.8-12.4 36.5-35.8 36.5-62.6 0-39.8-32.2-72-72-72l-48 0zm48 96l-24 0 0-48 24 0c13.3 0 24 10.7 24 24s-10.7 24-24 24z"/></svg>