<svg xmlns="http://www.w3.org/2000/svg" viewBox="0 0 512 512"><path fill="currentColor" d="M256 48a208 208 0 1 1 0 416 208 208 0 1 1 0-416zm0 464a256 256 0 1 0 0-512 256 256 0 1 0 0 512zM152 144c-13.3 0-24 10.7-24 24l0 176c0 13.3 10.7 24 24 24s24-10.7 24-24l0-56 12 0 21.2 63.6c4.2 12.6 17.8 19.4 30.4 15.2S259 349 254.8 336.4l-19.3-57.8c21.8-12.4 36.5-35.8 36.5-62.6 0-39.8-32.2-72-72-72l-48 0zm48 96l-24 0 0-48 24 0c13.3 0 24 10.7 24 24s-10.7 24-24 24zm88 8l0 136c0 13.3 10.7 24 24 24s24-10.7 24-24l0-32 16 0c35.3 0 64-28.7 64-64s-28.7-64-64-64l-40 0c-13.3 0-24 10.7-24 24zm48 56l0-32 16 0c8.8 0 16 7.2 16 16s-7.2 16-16 16l-16 0z"/></svg>