<svg xmlns="http://www.w3.org/2000/svg" viewBox="0 0 512 512"><path fill="currentColor" d="M256 48a208 208 0 1 1 0 416 208 208 0 1 1 0-416zm0 464a256 256 0 1 0 0-512 256 256 0 1 0 0 512zM368 256l9.7 0c12.3 0 22.3-10 22.3-22.3 0-6.2-2.5-12-7-16.3L269.8 101.5C266.1 98 261.1 96 256 96s-10.1 2-13.8 5.5L119 217.4c-4.5 4.2-7 10.1-7 16.3 0 12.3 10 22.3 22.3 22.3l9.7 0 0 85.5c0 23.5 19 42.5 42.5 42.5l139 0c23.5 0 42.5-19 42.5-42.5l0-85.5zM224 288c0-8.8 7.2-16 16-16l32 0c8.8 0 16 7.2 16 16l0 48-64 0 0-48z"/></svg>