<svg xmlns="http://www.w3.org/2000/svg" viewBox="0 0 512 512"><path fill="currentColor" d="M256 48a208 208 0 1 1 0 416 208 208 0 1 1 0-416zm0 464a256 256 0 1 0 0-512 256 256 0 1 0 0 512zM136 144c-13.3 0-24 10.7-24 24l0 176c0 13.3 10.7 24 24 24l73.6 0c13.3 0 24-10.7 24-24s-10.7-24-24-24l-49.6 0 0-36.8 40 0c13.3 0 24-10.7 24-24s-10.7-24-24-24l-40 0 0-43.2 48 0c13.3 0 24-10.7 24-24s-10.7-24-24-24l-72 0zm152 0c-13.3 0-24 10.7-24 24s10.7 24 24 24l49.2 0-70.6 141.3c-3.7 7.4-3.3 16.3 1 23.4S279.7 368 288 368l88 0c13.3 0 24-10.7 24-24s-10.7-24-24-24l-49.2 0 70.6-141.3c3.7-7.4 3.3-16.3-1-23.4S384.3 144 376 144l-88 0z"/></svg>