<svg xmlns="http://www.w3.org/2000/svg" viewBox="0 0 512 512"><path fill="currentColor" d="M256 48a208 208 0 1 1 0 416 208 208 0 1 1 0-416zm0 464a256 256 0 1 0 0-512 256 256 0 1 0 0 512zm16-376l0 8-32 0c-8.8 0-16 7.2-16 16s7.2 16 16 16l32 0 0 22.7c-9.8-4.3-20.6-6.7-32-6.7-44.2 0-80 35.8-80 80s35.8 80 80 80c13.4 0 26.1-3.3 37.2-9.1 4.4 5.6 11.2 9.1 18.8 9.1 13.3 0 24-10.7 24-24l0-152 16 0c8.8 0 16-7.2 16-16s-7.2-16-16-16l-16 0 0-8c0-13.3-10.7-24-24-24s-24 10.7-24 24zM240 304a32 32 0 1 1 0-64 32 32 0 1 1 0 64zm-96 88c0 8.8 7.2 16 16 16l192 0c8.8 0 16-7.2 16-16s-7.2-16-16-16l-192 0c-8.8 0-16 7.2-16 16z"/></svg>