<svg xmlns="http://www.w3.org/2000/svg" viewBox="0 0 512 512"><path fill="currentColor" d="M256 48a208 208 0 1 1 0 416 208 208 0 1 1 0-416zm0 464a256 256 0 1 0 0-512 256 256 0 1 0 0 512zM184 256c0-39.8 32.2-72 72-72s72 32.2 72 72c0 11.1-2.5 21.6-7 31l-25.9-25.9c-9.4-9.4-24.6-9.4-33.9 0s-9.4 24.6 0 33.9L287 321c-9.4 4.5-19.9 7-31 7-39.8 0-72-32.2-72-72zm192 0c0-66.3-53.7-120-120-120s-120 53.7-120 120 53.7 120 120 120c24.5 0 47.2-7.3 66.2-19.9L335 369c9.4 9.4 24.6 9.4 33.9 0s9.4-24.6 0-33.9l-12.9-12.9c12.6-19 19.9-41.7 19.9-66.2z"/></svg>