<svg xmlns="http://www.w3.org/2000/svg" viewBox="0 0 512 512"><path fill="currentColor" d="M256 48a208 208 0 1 1 0 416 208 208 0 1 1 0-416zm0 464a256 256 0 1 0 0-512 256 256 0 1 0 0 512zm0-325.5l16.6 37.5-33.2 0 16.6-37.5zm27.4-56.7C278.6 119 267.9 112 256 112s-22.6 7-27.4 17.8L186.9 224 144 224c-8.8 0-16 7.2-16 16s7.2 16 16 16l28.7 0-10.6 24-18.1 0c-8.8 0-16 7.2-16 16s7.2 16 16 16l3.9 0-9.9 22.3c-5.4 12.1 .1 26.3 12.2 31.7s26.3-.1 31.7-12.2l18.5-41.7 111.2 0 18.5 41.7c5.4 12.1 19.5 17.6 31.7 12.2s17.6-19.5 12.2-31.7l-9.9-22.3 3.9 0c8.8 0 16-7.2 16-16s-7.2-16-16-16l-18.1 0-10.6-24 28.7 0c8.8 0 16-7.2 16-16s-7.2-16-16-16l-42.9 0-41.7-94.2zM225.2 256l61.6 0 10.6 24-82.8 0 10.6-24z"/></svg>