<svg xmlns="http://www.w3.org/2000/svg" viewBox="0 0 512 512"><path fill="currentColor" d="M256 48a208 208 0 1 1 0 416 208 208 0 1 1 0-416zm0 464a256 256 0 1 0 0-512 256 256 0 1 0 0 512zm95.4-360c0-13.3-10.7-24-24-24s-24 10.7-24 24l0 96.6-21.4 8.6c-8.2 3.3-12.2 12.6-8.9 20.8s12.6 12.2 20.8 8.9l9.5-3.8 0 76.9c0 13.3 10.7 24 24 24s24-10.7 24-24l0-96.1 22.5-9c8.2-3.3 12.2-12.6 8.9-20.8s-12.6-12.2-20.8-8.9l-10.6 4.2 0-77.4zM128 216c0 13.3 10.7 24 24 24l53.2 0-65.7 107.5c-4.5 7.4-4.7 16.7-.5 24.3S151.3 384 160 384l88 0c13.3 0 24-10.7 24-24s-10.7-24-24-24l-45.2 0 65.7-107.5c4.5-7.4 4.7-16.7 .5-24.3S256.7 192 248 192l-96 0c-13.3 0-24 10.7-24 24z"/></svg>