<svg xmlns="http://www.w3.org/2000/svg" viewBox="0 0 512 512"><path fill="currentColor" d="M256 48a208 208 0 1 1 0 416 208 208 0 1 1 0-416zm0 464a256 256 0 1 0 0-512 256 256 0 1 0 0 512zM240 128l0 9.1c-58.7 7.8-104 58.1-104 118.9s45.3 111.1 104 118.9l0 9.1c0 8.8 7.2 16 16 16s16-7.2 16-16l0-9.1c58.7-7.8 104-58.1 104-118.9 0-13.3-10.7-24-24-24l-80 0 0-46.2c13.2 3 25 9.6 34.4 18.8 9.5 9.3 24.7 9.1 33.9-.3s9.1-24.7-.3-33.9c-18-17.7-41.7-29.7-68-33.2l0-9.1c0-8.8-7.2-16-16-16s-16 7.2-16 16zM184 256c0-34.3 23.9-62.9 56-70.2l0 140.4c-32.1-7.3-56-35.9-56-70.2zm139.9 24c-8.2 23.1-27.7 40.7-51.9 46.2l0-46.2 51.9 0z"/></svg>