<svg xmlns="http://www.w3.org/2000/svg" viewBox="0 0 512 512"><path fill="currentColor" d="M256 48a208 208 0 1 1 0 416 208 208 0 1 1 0-416zm0 464a256 256 0 1 0 0-512 256 256 0 1 0 0 512zm23.2-394.9c2.8-8.4-1.7-17.4-10.1-20.2s-17.4 1.7-20.2 10.1l-7.3 21.9c-63.9 7.2-113.5 61.4-113.5 127.2 0 36.7 15.4 69.7 40.1 93.1l-15.3 45.9c-2.8 8.4 1.7 17.4 10.1 20.2s17.4-1.7 20.2-10.1l12.1-36.3c8.4 4.5 17.3 8.1 26.7 10.7l-5.2 15.5c-2.8 8.4 1.7 17.4 10.1 20.2s17.4-1.7 20.2-10.1l7-21.1c.6 0 1.2 0 1.8 0 34 0 65-13.3 87.9-34.9 9.6-9.1 10.1-24.3 1-33.9s-24.3-10.1-33.9-1c-11 10.4-24.8 17.6-40.3 20.5L315.2 201c9.4 5.6 21.8 4.1 29.6-4.2 9.1-9.6 8.7-24.8-1-33.9-3.9-3.7-8.1-7.2-12.5-10.4l11.8-35.5c2.8-8.4-1.7-17.4-10.1-20.2s-17.4 1.7-20.2 10.1l-10 29.9c-8.8-3.5-18.1-6-27.8-7.4l4.1-12.4zm8.5 65.4L237.2 333.8c-9.6-2.3-18.5-6.3-26.4-11.7l48.7-146c10 .4 19.4 2.7 28.1 6.4zm-64.1 .4L186.1 295c-6.5-11.5-10.1-24.8-10.1-39 0-32.6 19.5-60.7 47.5-73.1z"/></svg>