<svg xmlns="http://www.w3.org/2000/svg" viewBox="0 0 512 512"><path fill="currentColor" d="M256 48a208 208 0 1 1 0 416 208 208 0 1 1 0-416zm0 464a256 256 0 1 0 0-512 256 256 0 1 0 0 512zM213.4 234.4c15.2-2.4 28.2-11.9 35.2-25.6l7.4-14.4 7.4 14.4c7 13.7 20.1 23.2 35.2 25.6l16 2.5-11.5 11.5c-10.8 10.9-15.8 26.2-13.4 41.4l2.5 16-14.4-7.3c-13.7-7-29.9-7-43.5 0l-14.4 7.3 2.5-16c2.4-15.2-2.6-30.5-13.5-41.4l-11.5-11.5 16-2.5zM306.1 187l-23.2-45.4-.1-.2c-.5-.9-4.7-9.1-12.6-24.7-2.7-5.4-8.2-8.7-14.3-8.7s-11.5 3.4-14.3 8.7l-10 19.7 0 0-2.6 5-.1 .2-23.2 45.4-50.4 8-.2 0c-1 .2-10.1 1.6-27.4 4.4-5.9 .9-10.8 5.1-12.7 10.9s-.4 12 3.9 16.3c29.9 29.9 19.3 19.3 55.8 55.8l-7.9 50.4 0 .2c-.2 1-1.6 10.1-4.3 27.4-.9 5.9 1.5 11.9 6.4 15.4s11.3 4 16.7 1.3c15.6-7.9 23.8-12.1 24.7-12.6l.2-.1 45.4-23.1 45.4 23.1 .2 .1 5 2.6 19.7 10c5.4 2.7 11.8 2.2 16.7-1.3s7.3-9.5 6.4-15.4l-3.4-21.8-.9-5.6 0-.2-7.9-50.4 36-36.1 .1-.1c.7-.7 7.2-7.3 19.6-19.6 4.2-4.3 5.8-10.5 3.9-16.3s-6.8-9.9-12.7-10.9c-41.7-6.6-27-4.3-77.9-12.4z"/></svg>