<svg xmlns="http://www.w3.org/2000/svg" viewBox="0 0 512 512"><path fill="currentColor" d="M256 48a208 208 0 1 1 0 416 208 208 0 1 1 0-416zm0 464a256 256 0 1 0 0-512 256 256 0 1 0 0 512zM208 145.3c-13.3 0-24 10.7-24 24s10.7 24 24 24l62 0c10 0 18 8.1 18 18 0 7.4-4.5 14.1-11.4 16.8l-44.7 17.6c-33.7 13.2-55.8 45.7-55.8 81.9l0 16.4c0 13.3 10.7 24 24 24l104 0c13.3 0 24-10.7 24-24s-10.7-24-24-24l-79.3 0c2.6-13.3 11.7-24.5 24.6-29.6l44.7-17.6c25.3-9.9 41.9-34.3 41.9-61.4 0-36.5-29.6-66-66-66l-62 0z"/></svg>