<svg xmlns="http://www.w3.org/2000/svg" viewBox="0 0 512 512"><path fill="currentColor" d="M256 48a208 208 0 1 1 0 416 208 208 0 1 1 0-416zm0 464a256 256 0 1 0 0-512 256 256 0 1 0 0 512zm24-160c13.3 0 24-10.7 24-24l0-67.9 12.3 17.6c4.5 6.4 11.8 10.2 19.7 10.2s15.2-3.8 19.7-10.2l12.3-17.6 0 67.9c0 13.3 10.7 24 24 24s24-10.7 24-24l0-144c0-10.5-6.8-19.7-16.8-22.9s-20.9 .5-26.9 9.1l-36.3 51.9-36.3-51.9c-6-8.6-16.9-12.3-26.9-9.1S256 173.5 256 184l0 144c0 13.3 10.7 24 24 24zM120 160c-13.3 0-24 10.7-24 24l0 144c0 13.3 10.7 24 24 24s24-10.7 24-24l0-32 18.1 0 25.1 43.9c6.6 11.5 21.2 15.5 32.7 8.9s15.5-21.2 8.9-32.7l-17.6-30.8c18.9-12.1 31.4-33.2 31.4-57.3 0-37.6-30.4-68-68-68L120 160zm54.7 88l-30.7 0 0-40 30.7 0c11 0 20 9 20 20s-9 20-20 20z"/></svg>