<svg xmlns="http://www.w3.org/2000/svg" viewBox="0 0 512 512"><path fill="currentColor" d="M256 48a208 208 0 1 1 0 416 208 208 0 1 1 0-416zm0 464a256 256 0 1 0 0-512 256 256 0 1 0 0 512zm16.4-355.3L243.6 224 184 224c-13.3 0-24 10.7-24 24s10.7 24 24 24l39 0-27.6 64.4c-2 4.6-6.5 7.6-11.6 7.6L160 344c-13.3 0-24 10.7-24 24s10.7 24 24 24l23.9 0c24.2 0 46.1-14.4 55.7-36.7l35.7-83.3 52.7 0c13.3 0 24-10.7 24-24s-10.7-24-24-24l-32.2 0 20.7-48.4c2-4.6 6.5-7.6 11.6-7.6l23.9 0c13.3 0 24-10.7 24-24s-10.7-24-24-24l-23.9 0c-24.2 0-46.1 14.4-55.7 36.7z"/></svg>