<svg xmlns="http://www.w3.org/2000/svg" viewBox="0 0 512 512"><path fill="currentColor" d="M256 48a208 208 0 1 1 0 416 208 208 0 1 1 0-416zm0 464a256 256 0 1 0 0-512 256 256 0 1 0 0 512zM152 144c-13.3 0-24 10.7-24 24l0 176c0 13.3 10.7 24 24 24s24-10.7 24-24l0-56 12 0 21.2 63.6c4.2 12.6 17.8 19.4 30.4 15.2S259 349 254.8 336.4l-19.3-57.8c21.8-12.4 36.5-35.8 36.5-62.6 0-39.8-32.2-72-72-72l-48 0zm48 96l-24 0 0-48 24 0c13.3 0 24 10.7 24 24s-10.7 24-24 24zm80 .1c0 24.8 16.3 46.6 40 53.7l34.2 10.3c3.4 1 5.8 4.2 5.8 7.8 0 4.5-3.6 8.1-8.1 8.1L312 320c-13.3 0-24 10.7-24 24s10.7 24 24 24l39.9 0c31 0 56.1-25.1 56.1-56.1 0-24.8-16.3-46.6-40-53.7l-34.2-10.3c-3.4-1-5.8-4.2-5.8-7.8 0-4.5 3.6-8.1 8.1-8.1l39.9 0c13.3 0 24-10.7 24-24s-10.7-24-24-24l-39.9 0c-31 0-56.1 25.1-56.1 56.1z"/></svg>