<svg xmlns="http://www.w3.org/2000/svg" viewBox="0 0 512 512"><path fill="currentColor" d="M256 48a208 208 0 1 1 0 416 208 208 0 1 1 0-416zm0 464a256 256 0 1 0 0-512 256 256 0 1 0 0 512zm90.5-375.2c-8.4-10.2-23.5-11.7-33.8-3.3l-88.8 73 0-54.5c0-13.3-10.7-24-24-24s-24 10.7-24 24l0 88.2-15.8 0c-8.8 0-16 7.2-16 16s7.2 16 16 16l15.8 0 0 87.8c0 13.3 10.7 24 24 24s24-10.7 24-24l0-54.1 88.8 72.7c10.3 8.4 25.4 6.9 33.8-3.4s6.9-25.4-3.4-33.8l-84.5-69.2 77.1 0c8.8 0 16-7.2 16-16s-7.2-16-16-16l-77.3 0 84.7-69.7c10.2-8.4 11.7-23.5 3.3-33.8z"/></svg>