<svg xmlns="http://www.w3.org/2000/svg" viewBox="0 0 640 512"><path fill="currentColor" d="M306.7 368c2.8-16.8 7.8-32.9 14.8-48l-1.4 0-64 0c-53.5 0-99.4 32.9-118.5 79.6-35.6-37.3-57.5-87.9-57.5-143.6 0-114.9 93.1-208 208-208 98.4 0 180.8 68.3 202.5 160.1 1.8-.1 3.7-.1 5.5-.1 15.3 0 30.2 1.8 44.4 5.2-20.4-121-125.6-213.2-252.4-213.2-141.4 0-256 114.6-256 256S146.6 512 288 512c16.7 0 33-1.6 48.8-4.6-9.3-13.8-16.9-28.9-22.4-45-8.6 1.1-17.4 1.7-26.3 1.7-40.6 0-78.4-11.6-110.5-31.7 7.3-36.7 39.7-64.3 78.5-64.3l50.7 0zM288 240a40 40 0 1 1 0-80 40 40 0 1 1 0 80zm-88-40a88 88 0 1 0 176 0 88 88 0 1 0 -176 0zM496 544a144 144 0 1 0 0-288 144 144 0 1 0 0 288zm0-100a20 20 0 1 1 0 40 20 20 0 1 1 0-40zm0-100c-11.6 0-21.3 8.2-23.5 19.2-1.8 8.7-10.2 14.3-18.9 12.5s-14.3-10.2-12.5-18.9c5.2-25.6 27.8-44.8 54.9-44.8 30.9 0 56 25.1 56 56 0 19.8-11.7 37.8-29.8 45.9l-10.4 4.6c-1.2 7.7-7.8 13.5-15.8 13.5-8.8 0-16-7.2-16-16 0-11.2 6.6-21.3 16.8-25.9l12.4-5.5c6.6-2.9 10.8-9.4 10.8-16.6 0-13.3-10.7-24-24-24z"/></svg>