<svg xmlns="http://www.w3.org/2000/svg" viewBox="0 0 512 512"><path fill="currentColor" d="M464 256a208 208 0 1 0 -416 0 208 208 0 1 0 416 0zM0 256a256 256 0 1 1 512 0 256 256 0 1 1 -512 0zM320 152c0-8.8 7.2-16 16-16s16 7.2 16 16l0 8 8 0c13.3 0 24 10.7 24 24s-10.7 24-24 24l-28.8 0c-6.2 0-11.2 5-11.2 11.2 0 5.3 3.8 9.9 9 11l23.5 4.7c27.7 5.5 47.6 29.8 47.6 58 0 28.9-20.7 52.9-48 58.1l0 9.1c0 8.8-7.2 16-16 16s-16-7.2-16-16l0-8-16 0c-13.3 0-24-10.7-24-24s10.7-24 24-24l36.8 0c6.2 0 11.2-5 11.2-11.2 0-5.3-3.8-9.9-9-11l-23.5-4.7c-27.7-5.5-47.6-29.8-47.6-58 0-28.9 20.7-52.9 48-58.1l0-9.1zM192 249.6l-12.5 38.4 25 0-12.5-38.4zm33.2 101.9l-5-15.4-56.3 0-5 15.4c-4.1 12.6-17.6 19.5-30.3 15.4s-19.5-17.6-15.4-30.3l50.9-156.3C168 168.2 179.3 160 192 160s24 8.2 27.9 20.3l50.9 156.3c4.1 12.6-2.8 26.1-15.4 30.3s-26.1-2.8-30.3-15.4z"/></svg>