<svg xmlns="http://www.w3.org/2000/svg" viewBox="0 0 512 512"><path fill="currentColor" d="M464 256a208 208 0 1 0 -416 0 208 208 0 1 0 416 0zM0 256a256 256 0 1 1 512 0 256 256 0 1 1 -512 0zM192 120c-13.3 0-24 10.7-24 24l0 40-8 0c-8.8 0-16 7.2-16 16s7.2 16 16 16l8 0 0 16-8 0c-8.8 0-16 7.2-16 16s7.2 16 16 16l8 0 0 104c0 13.3 10.7 24 24 24s24-10.7 24-24l0-40 40 0c43.3 0 80.4-26.4 96-64l16 0c8.8 0 16-7.2 16-16s-7.2-16-16-16l-8.3 0c.4-5.3 .4-10.7 0-16l8.3 0c8.8 0 16-7.2 16-16s-7.2-16-16-16l-16 0c-15.7-37.6-52.8-64-96-64l-64 0zm103.2 64l-79.2 0 0-16 40 0c15.3 0 29.1 6.1 39.2 16zM216 216l95.4 0c.4 2.6 .6 5.3 .6 8s-.2 5.4-.6 8l-95.4 0 0-16zm79.2 48c-10.1 9.9-23.9 16-39.2 16l-40 0 0-16 79.2 0z"/></svg>