<svg xmlns="http://www.w3.org/2000/svg" viewBox="0 0 512 512"><path fill="currentColor" d="M256 48a208 208 0 1 1 0 416 208 208 0 1 1 0-416zm0 464a256 256 0 1 0 0-512 256 256 0 1 0 0 512zm24-392c0-13.3-10.7-24-24-24s-24 10.7-24 24l0 10.2C172.8 141.5 128 193.5 128 256s44.8 114.5 104 125.8l0 10.2c0 13.3 10.7 24 24 24s24-10.7 24-24l0-10.2c24.5-4.6 46.5-16.3 63.9-32.7 9.6-9.1 10.1-24.3 1-33.9s-24.3-10.1-33.9-1c-14.3 13.5-33.6 21.8-54.9 21.8-44.2 0-80-35.8-80-80s35.8-80 80-80c21.3 0 40.6 8.3 54.9 21.8 9.6 9.1 24.8 8.7 33.9-1s8.7-24.8-1-33.9c-17.4-16.4-39.4-28-63.9-32.7l0-10.2z"/></svg>