<svg xmlns="http://www.w3.org/2000/svg" viewBox="0 0 512 512"><path fill="currentColor" d="M256 48a208 208 0 1 1 0 416 208 208 0 1 1 0-416zm0 464a256 256 0 1 0 0-512 256 256 0 1 0 0 512zm24-392c0-13.3-10.7-24-24-24s-24 10.7-24 24l0 10.2C172.8 141.5 128 193.5 128 256s44.8 114.5 104 125.8l0 10.2c0 13.3 10.7 24 24 24s24-10.7 24-24l0-10.2c24.5-4.6 46.5-16.3 63.9-32.7 9.6-9.1 10.1-24.3 1-33.9s-24.3-10.1-33.9-1c-8.7 8.2-19.2 14.5-30.9 18.2l0-152.7c11.7 3.7 22.2 9.9 30.9 18.2 9.6 9.1 24.8 8.7 33.9-1s8.7-24.8-1-33.9c-17.4-16.4-39.4-28-63.9-32.7l0-10.2zM176 256c0-35.8 23.5-66.1 56-76.3l0 152.7c-32.5-10.2-56-40.5-56-76.3z"/></svg>