<svg xmlns="http://www.w3.org/2000/svg" viewBox="0 0 512 512"><path fill="currentColor" d="M256 48a208 208 0 1 1 0 416 208 208 0 1 1 0-416zm0 464a256 256 0 1 0 0-512 256 256 0 1 0 0 512zM176 144l0 104-24 0c-8.8 0-16 7.2-16 16s7.2 16 16 16l24 0 0 40-24 0c-8.8 0-16 7.2-16 16s7.2 16 16 16l24 0 0 16c0 13.3 10.7 24 24 24s24-10.7 24-24l0-16 56 0c8.8 0 16-7.2 16-16s-7.2-16-16-16l-56 0 0-24 56 0c48.6 0 88-39.4 88-88s-39.4-88-88-88l-80 0c-13.3 0-24 10.7-24 24zM280 248l-56 0 0-80 56 0c22.1 0 40 17.9 40 40s-17.9 40-40 40z"/></svg>