<svg xmlns="http://www.w3.org/2000/svg" viewBox="0 0 512 512"><path fill="currentColor" d="M256 48a208 208 0 1 1 0 416 208 208 0 1 1 0-416zm0 464a256 256 0 1 0 0-512 256 256 0 1 0 0 512zM136.5 147.3c-2.6 13 5.8 25.6 18.8 28.2l10.6 2.1c5.9 1.2 10.1 6.3 10.1 12.3l0 18-13.7 0c-8.8 0-16 7.2-16 16s7.2 16 16 16l13.7 0 0 83.4c0 33.5 27.1 60.6 60.6 60.6l24 0C324.3 384 376 332.3 376 268.6l0-16c0-33.5-27.1-60.6-60.6-60.6l-3.4 0c-13.3 0-24 10.7-24 24s10.7 24 24 24l3.4 0c6.9 0 12.6 5.6 12.6 12.6l0 16c0 37.2-30.2 67.4-67.4 67.4l-24 0c-6.9 0-12.6-5.6-12.6-12.6l0-83.4 16 0c8.8 0 16-7.2 16-16s-7.2-16-16-16l-16 0 0-18c0-28.9-20.4-53.7-48.7-59.4l-10.6-2.1c-13-2.6-25.6 5.8-28.2 18.8z"/></svg>