<svg xmlns="http://www.w3.org/2000/svg" viewBox="0 0 512 512"><path fill="currentColor" d="M256 48a208 208 0 1 1 0 416 208 208 0 1 1 0-416zm0 464a256 256 0 1 0 0-512 256 256 0 1 0 0 512zM182.2 233.5l1.4 3.5c2.5 6.1 4 12.6 4.3 19L176 256c-8.8 0-16 7.2-16 16s7.2 16 16 16l4.4 0c-1.4 2.4-2.9 4.7-4.7 7l-26.7 34.3c-5.6 7.2-6.6 17-2.6 25.3S158.8 368 168 368l160 0c13.3 0 24-10.7 24-24s-10.7-24-24-24l-111.1 0c6.9-9.9 12-20.7 15.1-32l72 0c8.8 0 16-7.2 16-16s-7.2-16-16-16l-68 0c-.2-8-1.4-16.1-3.5-24l71.5 0c8.8 0 16-7.2 16-16s-7.2-16-16-16l-80.5 0c0-21.1 17-40 40-40l2.1 0c9.3 0 18.3 3 25.7 8.6l14.2 10.6c10.6 8 25.6 5.8 33.6-4.8s5.8-25.6-4.8-33.6l-14.2-10.6c-15.7-11.8-34.9-18.2-54.5-18.2l-2.1 0c-50.6 0-88.1 41.5-88.1 88-8.6 .3-15.5 7.3-15.5 16 0 8.8 7.2 16 16 16l5.6 0c.2 .5 .4 1 .6 1.5z"/></svg>