<svg xmlns="http://www.w3.org/2000/svg" viewBox="0 0 640 512"><path fill="currentColor" d="M288 48c98.4 0 180.8 68.3 202.5 160.1 1.8-.1 3.7-.1 5.5-.1 15.3 0 30.2 1.8 44.4 5.2-20.4-121-125.6-213.2-252.4-213.2-141.4 0-256 114.6-256 256S146.6 512 288 512c16.7 0 33-1.6 48.8-4.6-9.3-13.8-16.9-28.9-22.4-45-8.6 1.1-17.4 1.7-26.3 1.7-114.9 0-208-93.1-208-208S173.1 48 288 48zM448.6 205.6C406.1 167.3 349.7 144 288 144s-118.1 23.3-160.6 61.6c-9.8 8.9-10.6 24-1.8 33.9s24 10.6 33.9 1.8c34-30.7 79-49.3 128.5-49.3 43.8 0 84.1 14.6 116.3 39.3 15.4-8.4 32-14.7 49.6-18.6-1.3-2.6-3.1-4.9-5.4-7zM288 240c-35.1 0-67.1 13.3-91.2 35.1-9.8 8.9-10.6 24.1-1.7 33.9s24.1 10.6 33.9 1.7c15.6-14.1 36.3-22.7 59-22.7 16.1 0 31.2 4.3 44.1 11.9 8.5-13.8 18.6-26.5 30.2-37.7-21.4-14-46.9-22.1-74.4-22.1zm0 96c-17.7 0-32 14.3-32 32s14.3 32 32 32c5.8 0 11.3-1.6 16-4.3 .4-17.1 3-33.6 7.5-49.3-5.8-6.4-14.3-10.4-23.6-10.4zm352 64a144 144 0 1 0 -288 0 144 144 0 1 0 288 0zM496 352c-27.2 0-51.9 10.2-70.6 27.1-6.6 5.9-16.7 5.4-22.6-1.2s-5.4-16.7 1.2-22.6c24.4-21.9 56.6-35.3 92-35.3s67.7 13.4 92 35.3c6.6 5.9 7.1 16 1.2 22.6s-16 7.1-22.6 1.2C547.9 362.2 523.2 352 496 352zM476 464a20 20 0 1 1 40 0 20 20 0 1 1 -40 0zm-11.5-35.9c-6.6 5.9-16.7 5.4-22.6-1.1s-5.4-16.7 1.1-22.6c14-12.7 32.6-20.4 53-20.4s39 7.7 53 20.4c6.6 5.9 7.1 16 1.1 22.6s-16 7.1-22.6 1.1c-8.3-7.5-19.4-12.1-31.5-12.1s-23.2 4.6-31.5 12.1z"/></svg>