<svg xmlns="http://www.w3.org/2000/svg" viewBox="0 0 512 512"><path fill="currentColor" d="M464 256a208 208 0 1 0 -416 0 208 208 0 1 0 416 0zM0 256a256 256 0 1 1 512 0 256 256 0 1 1 -512 0zM256 96c-8.8 0-16 7.2-16 16l0 16-45.7 0c-14.5 0-26.3 11.8-26.3 26.3l0 201.1c0 15.8 12.8 28.6 28.6 28.6l43.4 0 0 16c0 8.8 7.2 16 16 16s16-7.2 16-16l0-16 20 0c42 0 76-34 76-76 0-24.6-11.7-46.4-29.8-60.3 8.7-12.4 13.8-27.4 13.8-43.7 0-42-34-76-76-76l-4 0 0-16c0-8.8-7.2-16-16-16zm-16 80l0 56-24 0 0-56 24 0zm32 56l0-56 4 0c15.5 0 28 12.5 28 28s-12.5 28-28 28l-4 0zm-32 48l0 56-24 0 0-56 24 0zm32 56l0-56 20 0c15.5 0 28 12.5 28 28s-12.5 28-28 28l-20 0z"/></svg>