<svg xmlns="http://www.w3.org/2000/svg" viewBox="0 0 512 512"><path fill="currentColor" d="M256 48a208 208 0 1 1 0 416 208 208 0 1 1 0-416zm0 464a256 256 0 1 0 0-512 256 256 0 1 0 0 512zM144 168c0 13.3 10.7 24 24 24l64 0 0 55.1-53.1 17.7c-8.4 2.8-12.9 11.9-10.1 20.2s11.9 12.9 20.2 10.1l42.9-14.3 0 30.3-53.1 17.7c-8.4 2.8-12.9 11.9-10.1 20.2s11.9 12.9 20.2 10.1l42.9-14.3 0 31.1c0 13.3 10.7 24 24 24s24-10.7 24-24l0-47.1 53.1-17.7c8.4-2.8 12.9-11.9 10.1-20.2s-11.9-12.9-20.2-10.1l-42.9 14.3 0-30.3 53.1-17.7c8.4-2.8 12.9-11.9 10.1-20.2s-11.9-12.9-20.2-10.1l-42.9 14.3 0-39.1 64 0c13.3 0 24-10.7 24-24s-10.7-24-24-24l-176 0c-13.3 0-24 10.7-24 24z"/></svg>