<svg xmlns="http://www.w3.org/2000/svg" viewBox="0 0 512 512"><path fill="currentColor" d="M256 48a208 208 0 1 1 0 416 208 208 0 1 1 0-416zm0 464a256 256 0 1 0 0-512 256 256 0 1 0 0 512zM163 256c0-51.4 41.6-93 93-93 24.7 0 47.2 9.6 63.8 25.4 9.6 9.1 24.8 8.7 33.9-1s8.7-24.8-1-33.9c-25.2-23.8-59.3-38.5-96.8-38.5-77.9 0-141 63.1-141 141s63.1 141 141 141c37.5 0 71.5-14.6 96.8-38.5 9.6-9.1 10.1-24.3 1-33.9s-24.3-10.1-33.9-1c-12 11.4-27.1 19.5-43.8 23.2l0-34.8c0-19.9 16.1-36 36-36 11 0 20-9 20-20s-9-20-20-20c-13.1 0-25.4 3.3-36.2 9.2-1.4-9.7-9.7-17.2-19.8-17.2-11 0-20 9-20 20l0 98.8c-41.8-9.1-73-46.3-73-90.8z"/></svg>