<svg xmlns="http://www.w3.org/2000/svg" viewBox="0 0 512 512"><path fill="currentColor" d="M256 48a208 208 0 1 1 0 416 208 208 0 1 1 0-416zm0 464a256 256 0 1 0 0-512 256 256 0 1 0 0 512zM176 144l0 64-8 0c-8.8 0-16 7.2-16 16s7.2 16 16 16l8 0 0 128c0 13.3 10.7 24 24 24s24-10.7 24-24l0-40 40 0c52 0 95.1-38.2 102.8-88l9.2 0c8.8 0 16-7.2 16-16s-7.2-16-16-16l-9.2 0c-7.7-49.8-50.8-88-102.8-88l-64 0c-13.3 0-24 10.7-24 24zm88 24c25.4 0 46.8 16.9 53.7 40l-93.7 0 0-40 40 0zM224 280l0-40 93.7 0c-6.9 23.1-28.3 40-53.7 40l-40 0z"/></svg>