<svg xmlns="http://www.w3.org/2000/svg" viewBox="0 0 576 512"><path fill="currentColor" d="M168.5 363.1C163 344.4 160 324.5 160 304 160 203.4 231.4 119.5 326.2 100.2 297 68.1 254.8 48 208 48 119.6 48 48 119.6 48 208 48 282.7 99.2 345.5 168.5 363.1zm23.8 52.3C84.8 407.4 0 317.6 0 208 0 93.1 93.1 0 208 0 281.9 0 346.8 38.5 383.7 96.6 491.2 104.6 576 194.4 576 304 576 418.9 482.9 512 368 512 294.1 512 229.2 473.5 192.3 415.4zm57.4-3.6c29.3 32.1 71.4 52.2 118.2 52.2 88.4 0 160-71.6 160-160 0-74.7-51.2-137.5-120.5-155.1 5.5 18.7 8.5 38.6 8.5 59.1 0 100.6-71.4 184.5-166.2 203.8zM354.9 144.5c-82.2 6.7-146.9 75.5-146.9 159.5 0 22.6 4.7 44 13.1 63.5 82.2-6.7 146.9-75.5 146.9-159.5 0-22.6-4.7-44-13.1-63.5z"/></svg>