<svg xmlns="http://www.w3.org/2000/svg" viewBox="0 0 640 512"><path fill="currentColor" d="M320.3 0c127.6 0 233.4 93.4 252.8 215.5-10.1 5-19.1 12.4-26.2 22.2l-18.8 25.7c.1-2.5 .2-4.9 .2-7.4 0-114.9-93.1-208-208-208s-208 93.1-208 208 93.1 208 208 208c36.1 0 70-9.2 99.5-25.3l31.1 32.2c1.1 1.1 2.3 2.2 3.5 3.2-39 24-84.9 37.9-134.1 37.9-141.4 0-256-114.6-256-256S178.9 0 320.3 0zM585.7 265.9c7.8-10.7 22.8-13.1 33.5-5.3s13.1 22.8 5.3 33.5L522.1 434.9c-4.2 5.7-10.7 9.4-17.7 9.8s-14-2.2-18.9-7.3l-46.4-48c-9.2-9.5-9-24.7 .6-33.9s24.7-8.9 33.9 .6l26.5 27.4 85.6-117.7zM320.3 384a32 32 0 1 1 0-64 32 32 0 1 1 0 64zm0-256c18.2 0 32.7 15.5 31.4 33.7l-7.4 104c-.9 12.6-11.4 22.3-23.9 22.3-12.6 0-23-9.7-23.9-22.3l-7.4-104c-1.3-18.2 13.1-33.7 31.4-33.7z"/></svg>