<svg xmlns="http://www.w3.org/2000/svg" viewBox="0 0 512 512"><path fill="currentColor" d="M256 48a208 208 0 1 1 0 416 208 208 0 1 1 0-416zm0 464a256 256 0 1 0 0-512 256 256 0 1 0 0 512zM151 151c-9.4 9.4-9.4 24.6 0 33.9l22.3 22.3c-8.4 14.3-13.3 31-13.3 48.8s4.8 34.5 13.3 48.8L151 327c-9.4 9.4-9.4 24.6 0 33.9s24.6 9.4 33.9 0l22.3-22.3c14.3 8.4 31 13.3 48.8 13.3s34.5-4.8 48.8-13.3L327 361c9.4 9.4 24.6 9.4 33.9 0s9.4-24.6 0-33.9l-22.3-22.3c8.4-14.3 13.3-31 13.3-48.8s-4.8-34.5-13.3-48.8L361 185c9.4-9.4 9.4-24.6 0-33.9s-24.6-9.4-33.9 0l-22.3 22.3c-14.3-8.4-31-13.3-48.8-13.3s-34.5 4.8-48.8 13.3L185 151c-9.4-9.4-24.6-9.4-33.9 0zm71.1 70.9c8.7-8.6 20.6-13.9 33.8-13.9s25.1 5.3 33.8 13.9l.2 .2c8.6 8.7 13.9 20.6 13.9 33.8s-5.3 25.2-13.9 33.8l-.2 .2c-8.7 8.6-20.6 13.9-33.8 13.9s-25.1-5.3-33.8-13.9l-.2-.2c-8.6-8.7-13.9-20.6-13.9-33.8s5.3-25.2 13.9-33.8l.2-.2z"/></svg>