<svg xmlns="http://www.w3.org/2000/svg" viewBox="0 0 512 512"><path fill="currentColor" d="M464 256a208 208 0 1 0 -416 0 208 208 0 1 0 416 0zM0 256a256 256 0 1 1 512 0 256 256 0 1 1 -512 0zM176 152l0 102.1 55-55c9.4-9.4 24.6-9.4 33.9 0s9.4 24.6 0 33.9l-37.8 37.8 41.9 77.9c6.3 11.7 1.9 26.2-9.8 32.5s-26.2 1.9-32.5-9.8l-35.1-65.2-15.8 15.8 0 38.1c0 13.3-10.7 24-24 24s-24-10.7-24-24l0-208c0-13.3 10.7-24 24-24s24 10.7 24 24zm136 40c10.1 0 18.7 6.2 22.2 15 10.1-4.6 21.1-7 32.4-7l9.4 0c13.3 0 24 10.7 24 24s-10.7 24-24 24l-9.4 0c-8.1 0-15.9 3.2-21.7 9s-9 13.5-9 21.7l0 81.4c0 13.3-10.7 24-24 24s-24-10.7-24-24l0-144c0-13.3 10.7-24 24-24zm64 144a24 24 0 1 1 0 48 24 24 0 1 1 0-48z"/></svg>