<svg xmlns="http://www.w3.org/2000/svg" viewBox="0 0 512 512"><path fill="currentColor" d="M256 48a208 208 0 1 1 0 416 208 208 0 1 1 0-416zm0 464a256 256 0 1 0 0-512 256 256 0 1 0 0 512zM216 128c-13.3 0-24 10.7-24 24l0 60.5-37.1 12.4c-8.4 2.8-12.9 11.9-10.1 20.2s11.9 12.9 20.2 10.1l26.9-9 0 30.3-37.1 12.4c-8.4 2.8-12.9 11.9-10.1 20.2s11.9 12.9 20.2 10.1l26.9-9 0 49.8c0 13.3 10.7 24 24 24l72 0c53 0 96-43 96-96 0-13.3-10.7-24-24-24s-24 10.7-24 24c0 26.5-21.5 48-48 48l-48 0 0-41.8 69.1-23c8.4-2.8 12.9-11.9 10.1-20.2s-11.9-12.9-20.2-10.1l-58.9 19.6 0-30.3 69.1-23c8.4-2.8 12.9-11.9 10.1-20.2s-11.9-12.9-20.2-10.1L240 196.5 240 152c0-13.3-10.7-24-24-24z"/></svg>