<svg xmlns="http://www.w3.org/2000/svg" viewBox="0 0 512 512"><path fill="currentColor" d="M256 48a208 208 0 1 1 0 416 208 208 0 1 1 0-416zm0 464a256 256 0 1 0 0-512 256 256 0 1 0 0 512zM152 136c-13.3 0-24 10.7-24 24l0 192c0 13.3 10.7 24 24 24s24-10.7 24-24l0-168 64 0c13.3 0 24 10.7 24 24l0 56c0 13.3 10.7 24 24 24s24-10.7 24-24l0-56c0-39.8-32.2-72-72-72l-88 0zm232 24c0-13.3-10.7-24-24-24s-24 10.7-24 24l0 144c0 13.3-10.7 24-24 24l-64 0 0-80c0-13.3-10.7-24-24-24s-24 10.7-24 24l0 104c0 6.4 2.5 12.5 7 17s10.6 7 17 7l88 0c39.8 0 72-32.2 72-72l0-144z"/></svg>