<svg xmlns="http://www.w3.org/2000/svg" viewBox="0 0 512 512"><path fill="currentColor" d="M464 256a208 208 0 1 0 -416 0 208 208 0 1 0 416 0zM0 256a256 256 0 1 1 512 0 256 256 0 1 1 -512 0zM203.7 138.3l81.5 117.7 18.8 0 0-104c0-13.3 10.7-24 24-24s24 10.7 24 24l0 104 16 0c8.8 0 16 7.2 16 16s-7.2 16-16 16l-16 0 0 72c0 10.5-6.8 19.8-16.8 22.9s-20.9-.6-26.9-9.2l-59.3-85.7-41 0 0 72c0 13.3-10.7 24-24 24s-24-10.7-24-24l0-72-16 0c-8.8 0-16-7.2-16-16s7.2-16 16-16l16 0 0-104c0-10.5 6.8-19.8 16.8-22.9s20.9 .6 26.9 9.2zM226.8 256l-18.8-27.2 0 27.2 18.8 0z"/></svg>