<svg xmlns="http://www.w3.org/2000/svg" viewBox="0 0 576 512"><path fill="currentColor" d="M480 64c6.7 0 13.1 1 19.1 2.9L384 182c-10 2.6-19.6 5.9-28.9 10l-73.2 0 127-127 1-1 70.1 0zM96 400l146.7 0c2.8 16.8 7.8 32.9 14.8 48L96 448c-35.3 0-64-28.7-64-64l0-256c0-35.3 28.7-64 64-64L182.1 64 80 166.1 80 384c0 8.8 7.2 16 16 16zM456.4 177.5l79.9-79.9c4.9 9 7.7 19.4 7.7 30.4l0 84c-25.3-18.2-55.2-30.4-87.6-34.5zM214.1 192l-92.1 0 127-127 1-1 92.1 0-127 127-1 1zM432 224a144 144 0 1 1 0 288 144 144 0 1 1 0-288zm-23.8 82.3c-4.9-3-11.1-3-16.1-.2S384 314.2 384 320l0 96c0 5.8 3.1 11.1 8.1 13.9s11.2 2.8 16.1-.2l80-48c4.8-2.9 7.8-8.1 7.8-13.7s-2.9-10.8-7.8-13.7l-80-48z"/></svg>