<svg xmlns="http://www.w3.org/2000/svg" viewBox="0 0 640 512"><path fill="currentColor" d="M205.1 396.3L564.4 36.9 471.3 47.3 435.6 83c7.4 4.1 12.4 12 12.4 21 0 13.3-10.7 24-24 24-9 0-16.9-5-21-12.4L371.6 147c7.4 4.1 12.4 12 12.4 21 0 13.3-10.7 24-24 24-9 0-16.9-5-21-12.4L307.6 211c7.4 4.1 12.4 12 12.4 21 0 13.3-10.7 24-24 24-9 0-16.9-5-21-12.4L243.6 275c7.4 4.1 12.4 12 12.4 21 0 13.3-10.7 24-24 24-9 0-16.9-5-21-12.4l-47.3 47.3c-12.2 12.2-26.5 22.1-42.2 29.3L75.6 405 155 484.4 175.8 438.5c7.1-15.7 17.1-30 29.3-42.2zM636.8 2.1c5.9 12.2 3.4 26.9-6.2 36.5L239 430.2c-8.1 8.1-14.7 17.7-19.5 28.2l-30.4 66.9c-4.3 9.6-13.1 16.4-23.4 18.2s-20.9-1.4-28.3-8.9l-112-112c-7.4-7.4-10.7-18-8.9-28.3s8.7-19.1 18.2-23.4l66.9-30.4c10.5-4.8 20-11.4 28.2-19.5L441.4 9.4c5.1-5.1 11.9-8.4 19.1-9.2l144-16C618-17.3 631-10.1 636.8 2.1z"/></svg>