<svg xmlns="http://www.w3.org/2000/svg" viewBox="0 0 512 512"><path fill="currentColor" d="M7.5 7c9.4-9.4 24.6-9.4 33.9 0L145.1 110.6c15 15 23.4 35.4 23.4 56.6l0 16.8 16.8 0c21.2 0 41.6 8.4 56.6 23.4l95.2 95.2c15 15 23.4 35.4 23.4 56.6l0 16.8 16.8 0c21.2 0 41.6 8.4 56.6 23.4L505.5 471c9.4 9.4 9.4 24.6 0 33.9s-24.6 9.4-33.9 0l-71.6-71.6c-6-6-14.1-9.4-22.6-9.4l-40.8 0c-13.3 0-24-10.7-24-24l0-40.8c0-8.5-3.4-16.6-9.4-22.6l-95.2-95.2c-6-6-14.1-9.4-22.6-9.4l-40.8 0c-13.3 0-24-10.7-24-24l0-40.8c0-8.5-3.4-16.6-9.4-22.6L7.5 41C-1.8 31.6-1.8 16.4 7.5 7zm0 224c9.4-9.4 24.6-9.4 33.9 0L115.4 305c13.5 13.5 21.1 31.8 21.1 50.9l0 20.1 20.1 0c19.1 0 37.4 7.6 50.9 21.1L281.5 471c9.4 9.4 9.4 24.6 0 33.9s-24.6 9.4-33.9 0L173.6 431c-4.5-4.5-10.6-7-17-7l-44.1 0c-13.3 0-24-10.7-24-24l0-44.1c0-6.4-2.5-12.5-7-17L7.5 265c-9.4-9.4-9.4-24.6 0-33.9zM265.5 7l9.9 9.9c13.5 13.5 21.1 31.8 21.1 50.9l0 20.1 20.1 0c19.1 0 37.4 7.6 50.9 21.1L403.4 145c13.5 13.5 21.1 31.8 21.1 50.9l0 20.1 20.1 0c19.1 0 37.4 7.6 50.9 21.1l9.9 9.9c9.4 9.4 9.4 24.6 0 33.9s-24.6 9.4-33.9 0l-9.9-9.9c-4.5-4.5-10.6-7-17-7l-44.1 0c-13.3 0-24-10.7-24-24l0-44.1c0-6.4-2.5-12.5-7-17L333.6 143c-4.5-4.5-10.6-7-17-7l-44.1 0c-13.3 0-24-10.7-24-24l0-44.1c0-6.4-2.5-12.5-7-17L231.5 41c-9.4-9.4-9.4-24.6 0-33.9s24.6-9.4 33.9 0z"/></svg>