<svg xmlns="http://www.w3.org/2000/svg" viewBox="0 0 384 512"><path fill="currentColor" d="M152 96l80 0c13.3 0 24-10.7 24-24s-10.7-24-24-24l-80 0c-13.3 0-24 10.7-24 24s10.7 24 24 24zm0 48c-37.1 0-67.6-28-71.6-64L64 80c-8.8 0-16 7.2-16 16l0 352c0 8.8 7.2 16 16 16l256 0c8.8 0 16-7.2 16-16l0-352c0-8.8-7.2-16-16-16l-16.4 0c-4 36-34.5 64-71.6 64l-80 0zM232 0c25 0 47 12.7 59.9 32L320 32c35.3 0 64 28.7 64 64l0 352c0 35.3-28.7 64-64 64L64 512c-35.3 0-64-28.7-64-64L0 96C0 60.7 28.7 32 64 32l28.1 0C105 12.7 127 0 152 0l80 0zM120 192l56 0c35.3 0 64 28.7 64 64 0 17.9-7.3 34.1-19.2 45.7l17.8 15.3 25.3-22.8c9.9-8.9 25-8.1 33.9 1.8s8.1 25-1.8 33.9l-20.7 18.6 20.2 17.3c10.1 8.6 11.2 23.8 2.6 33.8s-23.8 11.2-33.8 2.6l-25-21.4-23.4 21c-9.9 8.9-25 8.1-33.9-1.8s-8.1-25 1.8-33.9l18.7-16.8-34.2-29.3-24.5 0 0 40c0 13.3-10.7 24-24 24s-24-10.7-24-24l0-144c0-13.3 10.7-24 24-24zm63.8 78c4.9-2.7 8.2-8 8.2-14 0-8.8-7.2-16-16-16l-32 0 0 32 32 0c2.6 0 5-.6 7.2-1.7l.5-.5 .2 .2z"/></svg>