<svg xmlns="http://www.w3.org/2000/svg" viewBox="0 0 384 512"><path fill="currentColor" d="M232 0c25 0 47 12.7 59.9 32L320 32c35.3 0 64 28.7 64 64l0 352c0 35.3-28.7 64-64 64L64 512c-35.3 0-64-28.7-64-64L0 96C0 60.7 28.7 32 64 32l28.1 0C105 12.7 127 0 152 0l80 0zM64 80c-8.8 0-16 7.2-16 16l0 352c0 8.8 7.2 16 16 16l256 0c8.8 0 16-7.2 16-16l0-352c0-8.8-7.2-16-16-16l-16.4 0c-4 36-34.5 64-71.6 64l-80 0c-37.1 0-67.6-28-71.6-64L64 80zM192 360c17.7 0 32 14.3 32 32s-14.3 32-32 32-32-14.3-32-32 14.3-32 32-32zm0-176c18.3 0 32.8 15.7 31.3 34l-7.3 88c-1 12.4-11.4 22-23.9 22s-22.9-9.6-23.9-22l-7.3-88c-1.5-18.3 12.9-34 31.2-34zM152 48c-13.3 0-24 10.7-24 24s10.7 24 24 24l80 0c13.3 0 24-10.7 24-24s-10.7-24-24-24l-80 0z"/></svg>