<svg xmlns="http://www.w3.org/2000/svg" viewBox="0 0 384 512"><path fill="currentColor" d="M232 0c25 0 47 12.7 59.9 32L320 32c35.3 0 64 28.7 64 64l0 352c0 35.3-28.7 64-64 64L64 512c-35.3 0-64-28.7-64-64L0 96C0 60.7 28.7 32 64 32l28.1 0C105 12.7 127 0 152 0l80 0zM64 80c-8.8 0-16 7.2-16 16l0 352c0 8.8 7.2 16 16 16l256 0c8.8 0 16-7.2 16-16l0-352c0-8.8-7.2-16-16-16l-16.4 0c-4 36-34.5 64-71.6 64l-80 0c-37.1 0-67.6-28-71.6-64L64 80zM228.7 239.9c7.8-10.7 22.8-13.1 33.5-5.3s13.1 22.8 5.3 33.5L191.4 372.8c-4.2 5.7-10.7 9.3-17.8 9.8-7.1 .5-14-2.2-18.9-7.3l-35.9-37.2c-9.2-9.5-8.9-24.7 .6-33.9 9.5-9.2 24.7-9 33.9 .6l16.1 16.6 59.3-81.6zM152 48c-13.3 0-24 10.7-24 24s10.7 24 24 24l80 0c13.3 0 24-10.7 24-24s-10.7-24-24-24l-80 0z"/></svg>