<svg xmlns="http://www.w3.org/2000/svg" viewBox="0 0 576 512"><path fill="currentColor" d="M264 96c13.3 0 24-10.7 24-24s-10.7-24-24-24l-80 0c-13.3 0-24 10.7-24 24s10.7 24 24 24l80 0zm0 48l-80 0c-37.1 0-67.6-28-71.6-64L96 80c-8.8 0-16 7.2-16 16l0 352c0 8.8 7.2 16 16 16l154.9 0c6.1 17.3 14.6 33.4 25.1 48L96 512c-35.3 0-64-28.7-64-64L32 96c0-35.3 28.7-64 64-64l28.1 0C137 12.7 159 0 184 0l80 0c25 0 47 12.7 59.9 32L352 32c35.3 0 64 28.7 64 64l0 112.7c-16.7 1.4-32.8 4.9-48 10.3L368 96c0-8.8-7.2-16-16-16l-16.4 0c-4 36-34.5 64-71.6 64zm24 256a144 144 0 1 1 288 0 144 144 0 1 1 -288 0zm144-80c-8.8 0-16 7.2-16 16l0 64c0 8.8 7.2 16 16 16l48 0c8.8 0 16-7.2 16-16s-7.2-16-16-16l-32 0 0-48c0-8.8-7.2-16-16-16z"/></svg>