<svg xmlns="http://www.w3.org/2000/svg" viewBox="0 0 384 512"><path fill="currentColor" d="M152 96l80 0c13.3 0 24-10.7 24-24s-10.7-24-24-24l-80 0c-13.3 0-24 10.7-24 24s10.7 24 24 24zm0 48c-37.1 0-67.6-28-71.6-64L64 80c-8.8 0-16 7.2-16 16l0 352c0 8.8 7.2 16 16 16l256 0c8.8 0 16-7.2 16-16l0-352c0-8.8-7.2-16-16-16l-16.4 0c-4 36-34.5 64-71.6 64l-80 0zM232 0c25 0 47 12.7 59.9 32L320 32c35.3 0 64 28.7 64 64l0 352c0 35.3-28.7 64-64 64L64 512c-35.3 0-64-28.7-64-64L0 96C0 60.7 28.7 32 64 32l28.1 0C105 12.7 127 0 152 0l80 0zM144 256a48 48 0 1 1 96 0 48 48 0 1 1 -96 0zM96 402.7c0-36.8 29.8-66.7 66.7-66.7l58.7 0c36.8 0 66.7 29.8 66.7 66.7 0 7.4-6 13.3-13.3 13.3l-165.3 0C102 416 96 410 96 402.7z"/></svg>