<svg xmlns="http://www.w3.org/2000/svg" viewBox="0 0 448 512"><path fill="currentColor" d="M48 224a176 176 0 1 1 352 0 176 176 0 1 1 -352 0zM400 362.6l0 85.4c0 8.8-7.2 16-16 16L64 464c-8.8 0-16-7.2-16-16l0-85.4c41 52 104.6 85.4 176 85.4s135-33.4 176-85.4zM448 224C448 100.3 347.7 0 224 0S0 100.3 0 224L0 448c0 35.3 28.7 64 64 64l320 0c35.3 0 64-28.7 64-64l0-224zM224 96c-13.3 0-24 10.7-24 24l0 104c0 6.4 2.5 12.5 7 17l48 48c9.4 9.4 24.6 9.4 33.9 0s9.4-24.6 0-33.9l-41-41 0-94.1c0-13.3-10.7-24-24-24z"/></svg>