<svg xmlns="http://www.w3.org/2000/svg" viewBox="0 0 512 512"><path fill="currentColor" d="M64 464l224 0c8.8 0 16-7.2 16-16l0-48 48 0 0 48c0 35.3-28.7 64-64 64L64 512c-35.3 0-64-28.7-64-64L0 224c0-35.3 28.7-64 64-64l48 0 0 48-48 0c-8.8 0-16 7.2-16 16l0 224c0 8.8 7.2 16 16 16zM464 288l0-224c0-8.8-7.2-16-16-16L224 48c-8.8 0-16 7.2-16 16l0 224c0 8.8 7.2 16 16 16l224 0c8.8 0 16-7.2 16-16zM224 352c-35.3 0-64-28.7-64-64l0-224c0-35.3 28.7-64 64-64L448 0c35.3 0 64 28.7 64 64l0 224c0 35.3-28.7 64-64 64l-224 0zM336 96c13.3 0 24 10.7 24 24l0 32 32 0c13.3 0 24 10.7 24 24s-10.7 24-24 24l-32 0 0 32c0 13.3-10.7 24-24 24s-24-10.7-24-24l0-32-32 0c-13.3 0-24-10.7-24-24s10.7-24 24-24l32 0 0-32c0-13.3 10.7-24 24-24z"/></svg>