<svg xmlns="http://www.w3.org/2000/svg" viewBox="0 0 576 512"><path fill="currentColor" d="M41-24.9c-9.4-9.4-24.6-9.4-33.9 0S-2.3-.3 7 9.1l528 528c9.4 9.4 24.6 9.4 33.9 0s9.4-24.6 0-33.9l-61.4-61.4C529.1 431.4 544 409.5 544 384l0-256c0-35.3-28.7-64-64-64L129.8 64 41-24.9zM177.8 112L480 112c8.8 0 16 7.2 16 16l0 256c0 8.8-7.2 16-16 16l-14.2 0-52.3-52.3c20.2-8.4 34.5-28.4 34.5-51.7 0-13.3-10.7-24-24-24s-24 10.7-24 24c0 4.4-3.6 8-8 8l-22.2 0-17.8-17.8 0-70.2c0-4.4 3.6-8 8-8l32 0c4.4 0 8 3.6 8 8 0 13.3 10.7 24 24 24s24-10.7 24-24c0-30.9-25.1-56-56-56l-32 0c-30.9 0-56 25.1-56 56l0 22.2-126.2-126.2zM378.2 448l-48-48-234.2 0c-8.8 0-16-7.2-16-16l0-234.2-44-44c-2.6 6.9-4 14.4-4 22.2l0 256c0 35.3 28.7 64 64 64l282.2 0zM130.3 200.1c-1.5 5-2.3 10.4-2.3 15.9l0 80c0 30.9 25.1 56 56 56l32 0c18.1 0 34.1-8.5 44.4-21.8l-36.3-36.3c-.1 .7-.1 1.4-.1 2.1 0 4.4-3.6 8-8 8l-32 0c-4.4 0-8-3.6-8-8l0-50.2-45.7-45.7z"/></svg>