<svg xmlns="http://www.w3.org/2000/svg" viewBox="0 0 576 512"><path fill="currentColor" d="M288 48c-31.3 0-57.5 22.6-62.9 52.3-2.4 13-14.9 21.7-27.9 19.3s-21.7-14.9-19.3-27.9c9.6-52.1 55.2-91.7 110.2-91.7 61.9 0 112 50.1 112 112 0 38-19.1 73.5-50.9 94.5l-21.6 14.2 218.2 138.9c18.8 12 30.2 32.8 30.2 55.1 0 36.1-29.2 65.3-65.3 65.3L65.6 480C29.4 480 0 450.6 0 414.4 0 392.3 11.1 371.8 29.5 359.6L322.7 166.4c18.3-12 29.3-32.5 29.3-54.4 0-35.3-28.7-64-64-64zm-4.4 201.6L55.9 399.7c-4.9 3.3-7.9 8.8-7.9 14.7 0 9.7 7.9 17.6 17.6 17.6l445.1 0c9.6 0 17.3-7.8 17.3-17.3 0-5.9-3-11.4-8-14.6L283.6 249.6z"/></svg>