<svg xmlns="http://www.w3.org/2000/svg" viewBox="0 0 576 512"><path fill="currentColor" d="M288.5 146.9C295.2 64.7 364 0 448 0 460.2 0 472 1.4 483.4 3.9 489.6 5.3 494.2 10.5 495 16.8s-2.5 12.4-8.2 15.2c-37.8 18.9-63.8 57.9-63.8 103 0 63.5 51.5 115 115 115 3.1 0 6.2-.1 9.2-.4 6.3-.5 12.3 3 14.9 8.8s1.3 12.6-3.3 17C530.1 303 491 320 448 320l-.4 0-.7-.6c-6.4-49.4-40.9-89.9-86.9-105-12.4-31-38.2-55.1-70.3-65.2-.4-.7-.8-1.5-1.2-2.2zM253.6 291.3c14.4-21.3 38.7-35.3 66.4-35.3 44.2 0 80 35.8 80 80 0 3.2-.2 6.3-.5 9.3 28.8 14.5 48.5 44.2 48.5 78.7 0 48.6-39.4 88-88 88l-184 0c-44.2 0-80-35.8-80-80 0-38.8 27.6-71.2 64.3-78.5 3.3-36.7 34.1-65.5 71.7-65.5 7.5 0 14.8 1.2 21.6 3.3zM320 304c-15.5 0-28.5 11.1-31.4 25.8-1.7 8.6-7.9 15.6-16.3 18.3s-17.5 .6-23.8-5.5c-4.3-4.1-10.1-6.6-16.5-6.6-13.3 0-24 10.7-24 24 0 3.1 .6 5.9 1.6 8.6 3.1 8.2 1.5 17.4-4.1 24.1s-14.5 9.7-23.1 8c-2-.4-4.2-.6-6.4-.6-17.7 0-32 14.3-32 32s14.3 32 32 32l184 0c22.1 0 40-17.9 40-40 0-19.9-14.5-36.4-33.6-39.5-7.5-1.2-14-5.9-17.5-12.7s-3.6-14.8-.2-21.6c2.1-4.2 3.3-9 3.3-14.2 0-17.7-14.3-32-32-32zM176 128c38.7 0 71 27.5 78.4 64 .5 0 1.1 0 1.6 0 17.1 0 32.6 6.7 44 17.5-24.6 3.9-46.9 14.7-64.7 30.5-1.1 0-2.2 0-3.3 0-7.4 0-14.6 .7-21.7 2-5.3-6.4-7-15.2-4.1-23.3 1.2-3.3 1.8-6.9 1.8-10.7 0-17.7-14.3-32-32-32-16.3 0-29.9 12.3-31.8 28.1-1.1 9.2-7.4 17-16.2 19.9s-18.5 .5-24.9-6.1c-5.9-6.1-14-9.8-23.1-9.8-17.7 0-32 14.3-32 32s14.3 32 32 32l70.4 0c-13.3 12.3-23.8 27.6-30.4 44.9-2 1-4 2-6 3.1l-34 0c-44.2 0-80-35.8-80-80s35.8-80 80-80c10 0 19.6 1.8 28.4 5.2 14.2-22.4 39.1-37.2 67.6-37.2z"/></svg>