<svg xmlns="http://www.w3.org/2000/svg" viewBox="0 0 640 512"><path fill="currentColor" d="M254.9 448.3c4.2-12.6 17.8-19.4 30.3-15.2 12.6 4.2 19.4 17.8 15.2 30.4l-21.4 64.1c-4.2 12.6-17.8 19.4-30.4 15.2-12.6-4.2-19.4-17.8-15.2-30.3l21.4-64.2zm120 0c4.2-12.6 17.8-19.4 30.3-15.2 12.6 4.2 19.4 17.8 15.2 30.4l-21.4 64.1c-4.2 12.6-17.8 19.4-30.4 15.2-12.6-4.2-19.4-17.8-15.2-30.3l21.4-64.2zm120 0c4.2-12.6 17.8-19.4 30.3-15.2 12.6 4.2 19.4 17.8 15.2 30.4l-21.4 64.1c-4.2 12.6-17.8 19.4-30.4 15.2-12.6-4.2-19.4-17.8-15.2-30.3l21.4-64.2zM480.9 120c56.2 0 100.9 47 101.1 101.2 18.9 17.1 30.9 41.8 30.9 69.4 0 51.6-41.8 93.4-93.4 93.4l-169.7 0c-51.6 0-93.4-41.8-93.4-93.4 0-34.8 19-65 47.2-81.1 5.8-41.2 41.6-74 84.8-74 10.8 0 21.2 2 30.7 5.7 17.1-13.2 38.5-21.2 61.8-21.2zM240.3-31.8c5.3 0 10.3 2.7 13.3 7.1l47.3 70.4 83.3-16.3c5.2-1 10.6 .7 14.3 4.4 3.8 3.8 5.4 9.2 4.4 14.4l-7.8 39.5c-2.3-.1-4.6-.2-6.9-.2-32.7 0-62.6 12-85.8 31.5-16.8-14.3-38.5-23-62.3-23-53 0-96 43-96 96 0 41.9 26.9 77.4 64.3 90.5-.2 2.7-.2 5.4-.2 8.1 0 14.2 2.1 28 6 41-15.1 3-54.4 10.7-118 23.1-5.2 1-10.6-.7-14.3-4.4s-5.4-9.2-4.4-14.4l16.3-83.2-70.4-47.4c-4.4-3-7.1-8-7.1-13.3 0-5.3 2.6-10.3 7-13.3l70.4-47.4-16.3-83.2-.2-2c-.3-4.6 1.3-9.1 4.6-12.4 3.8-3.8 9.2-5.4 14.4-4.4l83.2 16.3 47.3-70.4 1.2-1.6c3-3.5 7.4-5.5 12.1-5.5zM480.9 168c-15.9 0-30.1 6.9-39.9 18-8 9.1-21.5 10.7-31.5 3.9-6-4.1-13.3-6.5-21.2-6.5-21.3 0-39 18.9-37.7 40.1 .7 10.7-5.9 20.6-16 24.1-17.7 6.2-30.3 23.1-30.3 42.9 0 25.1 20.3 45.4 45.4 45.4l169.7 0c25.1 0 45.4-20.4 45.4-45.4 0-15.9-8.2-30-20.7-38.1-7.8-5.1-12-14.3-10.7-23.6 4.5-31.3-20.9-60.9-52.6-60.9zM240.3 144c12.1 0 23.2 4.5 31.6 12-4.4 7.8-8.1 16-10.9 24.6-17.9 14.5-32.3 33.2-41.5 54.7-16.1-7.7-27.3-24.1-27.3-43.2 0-26.5 21.5-48 48-48z"/></svg>