<svg xmlns="http://www.w3.org/2000/svg" viewBox="0 0 576 512"><path fill="currentColor" d="M272 112c0 .7 0 1.4 0 2-.2 5.1 1.3 10 4 14 12.3 .3 24.3 2 35.7 4.9 1.1-.9 2.1-2 3-3.1 8.8-10.9 22.3-17.9 37.4-17.9 26.5 0 48 21.5 48 48l0 .2c2.6-.2 5.3-.2 8-.2 13.9 0 27.2 2.1 39.8 5.9 .1-2 .2-3.9 .2-5.9 0-53-43-96-96-96-14 0-27.2 3-39.2 8.4-16-42.3-56.9-72.4-104.8-72.4-56.4 0-103.1 41.7-110.9 96L96 96C43 96 0 139 0 192s43 96 96 96l.4 0c5.1-4.3 10.4-8.2 16.1-11.7 .9-12.6 3.3-24.7 6.9-36.3L96 240c-26.5 0-48-21.5-48-48s21.5-48 48-48c5.9 0 11.4 1 16.6 2.9 7.9 2.9 16.8 1.5 23.4-3.8s9.9-13.7 8.7-22c-.4-2.9-.6-6-.6-9.1 0-35.3 28.7-64 64-64s64 28.7 64 64zM208 288c0-35.3 28.7-64 64-64 28.1 0 52 18.1 60.6 43.4 2.9 8.6 10.4 14.8 19.4 16s17.9-2.7 23.1-10.1c7.3-10.5 19.3-17.3 32.9-17.3 22.1 0 40 17.9 40 40 0 3.7-.5 7.2-1.4 10.5-2.1 7.8-.2 16.1 5.2 22.2s13.4 9 21.4 7.9c2.2-.3 4.5-.5 6.8-.5 26.5 0 48 21.5 48 48s-21.5 48-48 48l-296 0c-22.1 0-40-17.9-40-40s17.9-40 40-40c2.2 0 4.2 .2 6.3 .5 9 1.4 17.9-2.4 23.2-9.7s6-17.1 1.8-25.1c-4.6-8.8-7.3-18.9-7.3-29.6zm64-112c-61.9 0-112 50.1-112 112 0 6.4 .5 12.7 1.6 18.9-37.7 9.9-65.6 44.3-65.6 85.1 0 48.6 39.4 88 88 88l296 0c53 0 96-43 96-96 0-47.7-34.7-87.2-80.3-94.7-3.4-45.5-41.4-81.3-87.7-81.3-16.9 0-32.8 4.8-46.2 13.1-20.4-27.4-53-45.1-89.8-45.1z"/></svg>