<svg xmlns="http://www.w3.org/2000/svg" viewBox="0 0 576 512"><path fill="currentColor" d="M448 0c12.2 0 24 1.4 35.4 3.9 6.2 1.4 10.8 6.5 11.6 12.8s-2.5 12.4-8.2 15.2c-37.8 18.9-63.8 57.9-63.8 103 0 63.5 51.5 115 115 115 3.1 0 6.2-.1 9.2-.4 6.3-.5 12.3 3 14.9 8.8s1.3 12.6-3.3 17c-28.7 27.6-67.8 44.6-110.8 44.6-18.9 0-37.1-3.3-53.9-9.3 3.9-12.2 5.9-25.2 5.9-38.7 0-50.6-29.4-94.3-72-115.1-6.9-18-18.1-33.9-32.2-46.5 20.9-64.1 81.1-110.4 152.2-110.4zM69 401.1c12.6 4.2 19.4 17.8 15.2 30.4L62.8 495.6C58.6 508.2 45 515 32.4 510.8S13 493 17.2 480.4l21.4-64.1c4.2-12.6 17.8-19.4 30.4-15.2zm120 0c12.6 4.2 19.4 17.8 15.2 30.4l-21.4 64.1c-4.2 12.6-17.8 19.4-30.4 15.2S133 493 137.2 480.4l21.4-64.1c4.2-12.6 17.8-19.4 30.4-15.2zm120 0c12.6 4.2 19.4 17.8 15.2 30.4l-21.4 64.1c-4.2 12.6-17.8 19.4-30.4 15.2S253 493 257.2 480.4l21.4-64.1c4.2-12.6 17.8-19.4 30.4-15.2zM128 96c27.6 0 52 14 66.4 35.3 6.8-2.2 14.1-3.3 21.6-3.3 37.6 0 68.4 28.8 71.7 65.5 36.7 7.3 64.3 39.7 64.3 78.5 0 44.2-35.8 80-80 80L88 352c-48.6 0-88-39.4-88-88 0-34.4 19.8-64.2 48.5-78.7-.4-3.1-.5-6.2-.5-9.3 0-44.2 35.8-80 80-80zm31.4 73.8c-2.9-14.7-15.9-25.8-31.4-25.8-17.7 0-32 14.3-32 32 0 5.1 1.2 9.9 3.3 14.2 3.4 6.8 3.3 14.9-.2 21.6s-10 11.5-17.5 12.7c-19 3.1-33.6 19.6-33.6 39.5 0 22.1 17.9 40 40 40l184 0c17.7 0 32-14.3 32-32s-14.3-32-32-32c-2.2 0-4.3 .2-6.4 .6-8.6 1.7-17.4-1.3-23.1-8s-7.2-15.9-4.1-24.1c1-2.6 1.6-5.5 1.6-8.6 0-13.3-10.7-24-24-24-6.4 0-12.2 2.5-16.5 6.6-6.4 6-15.5 8.1-23.8 5.5s-14.6-9.7-16.3-18.3z"/></svg>