<svg xmlns="http://www.w3.org/2000/svg" viewBox="0 0 512 512"><path fill="currentColor" d="M184 48c-39.8 0-72 32.2-72 72 0 4.5 .4 8.8 1.2 13 2.4 13-6.3 25.5-19.3 27.9-26.1 4.8-45.9 27.6-45.9 55.1 0 30.9 25.1 56 56 56l84.2 0-53.6 48-30.6 0c-57.4 0-104-46.6-104-104 0-43.3 26.4-80.3 64-96 0-66.3 53.7-120 120-120 37.9 0 71.7 17.6 93.7 45 14.9-8.3 32.1-13 50.3-13 50 0 91.7 35.3 101.7 82.3 47 10 82.3 51.7 82.3 101.7 0 57.4-46.6 104-104 104l-53.9 0 12.7-42.3c.6-1.9 1-3.8 1.4-5.7l39.7 0c30.9 0 56-25.1 56-56s-25.1-56-56-56c-13.3 0-24-10.7-24-24 0-30.9-25.1-56-56-56-15.6 0-29.6 6.3-39.8 16.6-5.5 5.6-13.4 8.1-21.2 6.8s-14.3-6.4-17.6-13.6C237.9 65.1 212.9 48 184 48zM160.6 400c-9.2 0-16.6-7.4-16.6-16.6 0-4.7 2-9.2 5.5-12.4L290.7 244.7c3.4-3 7.8-4.7 12.4-4.7 12.4 0 21.3 12 17.8 23.9l-31.2 104.1 61.8 0c9.2 0 16.6 7.4 16.6 16.6 0 4.7-2 9.2-5.5 12.4L221.3 523.3c-3.4 3-7.8 4.7-12.4 4.7-12.4 0-21.3-12-17.8-23.9l31.2-104.1-61.8 0z"/></svg>