<svg xmlns="http://www.w3.org/2000/svg" viewBox="0 0 576 512"><path fill="currentColor" d="M41-25C31.6-34.3 16.4-34.3 7-25S-2.3-.4 7 9L535 537c9.4 9.4 24.6 9.4 33.9 0s9.4-24.6 0-33.9l-46.7-46.7c32.5-23.2 53.8-61.3 53.8-104.3 0-49.9-28.5-93-70.1-114.2 4-11.9 6.1-24.6 6.1-37.8 0-66.3-53.7-120-120-120-11.5 0-22.7 1.6-33.3 4.7-29.3-32.3-71.6-52.7-118.7-52.7-39.6 0-75.9 14.4-103.8 38.2L41-25zM170.3 104.3c19.1-15.2 43.4-24.3 69.7-24.3 37.7 0 71 18.6 91.3 47.1 6.7 9.5 19.3 12.8 29.8 7.8 9.3-4.4 19.7-6.9 30.8-6.9 39.8 0 72 32.2 72 72 0 14.1-4 27.2-11 38.3-4.1 6.5-4.8 14.6-2 21.7s9 12.5 16.5 14.3c34.8 8.7 60.5 40.2 60.5 77.6 0 29.8-16.3 55.8-40.5 69.6L170.3 104.3zM362.2 432L144 432c-53 0-96-43-96-96 0-42.7 27.9-79 66.6-91.4 11.8-3.8 18.8-16 16.1-28.1-1.3-6-2.2-12.2-2.5-18.5L84.5 154.3c-2.9 12.1-4.5 24.7-4.5 37.7 0 4.9 .2 9.8 .7 14.6-47.8 23.4-80.7 72.5-80.7 129.4 0 79.5 64.5 144 144 144l266.2 0-48-48z"/></svg>