<svg xmlns="http://www.w3.org/2000/svg" viewBox="0 0 640 512"><path fill="currentColor" d="M216.3 192c37.9 0 71.7 17.7 93.6 45.1 14.9-8.3 32.1-13.1 50.4-13.1 50 0 91.7 35.3 101.7 82.3 47 10 82.3 51.7 82.3 101.7 0 57.4-46.6 104-104 104l-304 0c-57.4 0-104-46.6-104-104 0-43.3 26.5-80.2 64-95.9l0-.1c0-66.3 53.7-120 120-120zm0 48c-39.8 0-72 32.2-72 72 0 2.4 .1 4.8 .3 7.1 1.6 16.2-8.8 30.8-23.9 35.1-23.4 6.7-40.4 28.3-40.4 53.8 0 30.9 25.1 56 56 56l304 0c30.9 0 56-25.1 56-56 0-29-22.1-52.9-50.4-55.7-15.8-1.6-28.3-14.1-29.9-29.9-2.8-28.3-26.7-50.4-55.7-50.4-12.7 0-24.4 4.2-33.8 11.3-15.4 11.7-38.5 8-49-9.1-12.7-20.6-35.4-34.2-61.2-34.2zm184-271.8c5.3 0 10.3 2.7 13.3 7.1l47.3 70.4 83.3-16.3c5.2-1 10.6 .7 14.3 4.4 3.8 3.8 5.4 9.2 4.4 14.4l-16.3 83.3 70.4 47.3c4.4 3 7.1 8 7.1 13.3 0 5.3-2.6 10.3-7 13.2l-70.4 47.3 11.7 59.6c-15.5-19-35.4-34.2-58.2-44-4.4-10.2-9.9-19.9-16.3-28.8 8-14 12.5-30.2 12.5-47.4 0-53-43-96-96-96-45.6 0-83.8 31.8-93.6 74.5-21.5-13.8-46.3-22.8-72.9-25.6l20.2-13.6-16.3-83.2-.2-2c-.3-4.6 1.3-9.1 4.6-12.4 3.8-3.8 9.2-5.4 14.4-4.4l83.3 16.3 47.3-70.4 1.2-1.6c3-3.5 7.4-5.5 12.1-5.5zm0 175.8c26.5 0 48 21.5 48 48 0 3.8-.5 7.6-1.3 11.2-24.6-17.1-54.5-27.2-86.7-27.2-1.8 0-3.5 0-5.3 .1 6.6-18.7 24.4-32.1 45.3-32.1z"/></svg>