<svg xmlns="http://www.w3.org/2000/svg" viewBox="0 0 512 512"><path fill="currentColor" d="M184 48c-39.8 0-72 32.2-72 72 0 4.5 .4 8.8 1.2 13 2.4 13-6.3 25.5-19.3 27.9-26.1 4.8-45.9 27.6-45.9 55.1 0 30.9 25.1 56 56 56l59.2 0c-7.2 3.6-13.8 8.3-19.6 14.2l-1.4 1.4c-9.2 9.2-15.7 20.4-19.2 32.4L104 320c-57.4 0-104-46.6-104-104 0-43.3 26.4-80.3 64-96 0-66.3 53.7-120 120-120 37.9 0 71.7 17.6 93.7 45 14.9-8.3 32.1-13 50.3-13 50 0 91.7 35.3 101.7 82.3 47 10 82.3 51.7 82.3 101.7 0 57.4-46.6 104-104 104l-18.9 0c-3.5-12.1-10.1-23.3-19.2-32.4l-1.4-1.4c-5.8-5.8-12.4-10.6-19.6-14.2l59.2 0c30.9 0 56-25.1 56-56s-25.1-56-56-56c-13.3 0-24-10.7-24-24 0-30.9-25.1-56-56-56-15.6 0-29.6 6.3-39.8 16.6-5.5 5.6-13.4 8.1-21.2 6.8s-14.3-6.4-17.6-13.6C237.9 65.1 212.9 48 184 48zM156.5 424.3c-7.8-5.2-12.5-14-12.5-23.3l0-2c0-9.4 4.7-18.1 12.5-23.3 9.5-6.3 14.2-17.7 11.9-28.8-1.8-9.2 1-18.7 7.7-25.3l1.4-1.4c6.6-6.6 16.1-9.5 25.3-7.7 11.1 2.2 22.5-2.5 28.8-11.9 5.2-7.8 14-12.5 23.3-12.5l2 0c9.4 0 18.1 4.7 23.3 12.5 6.3 9.5 17.7 14.2 28.8 11.9 9.2-1.8 18.7 1 25.3 7.7l1.4 1.4c6.6 6.6 9.5 16.1 7.7 25.3-2.2 11.1 2.5 22.5 11.9 28.8 7.8 5.2 12.5 14 12.5 23.3l0 2c0 9.4-4.7 18.1-12.5 23.3-9.5 6.3-14.2 17.7-11.9 28.8 1.8 9.2-1 18.7-7.7 25.3l-1.4 1.4c-6.6 6.6-16.1 9.5-25.3 7.7-11.1-2.2-22.5 2.5-28.8 11.9-5.2 7.8-14 12.5-23.3 12.5l-2 0c-9.4 0-18.1-4.7-23.3-12.5-6.3-9.5-17.7-14.2-28.8-11.9-9.2 1.8-18.7-1-25.3-7.7l-1.4-1.4c-6.6-6.6-9.5-16.1-7.7-25.3 2.2-11.1-2.5-22.5-11.9-28.8zM48 352a48 48 0 1 1 0 96 48 48 0 1 1 0-96zm416 0a48 48 0 1 1 0 96 48 48 0 1 1 0-96z"/></svg>