<svg xmlns="http://www.w3.org/2000/svg" viewBox="0 0 640 512"><path fill="currentColor" d="M480 0c-106 0-192 86-192 192 0 2.8 .1 5.6 .2 8.4 4.7 3.1 9.1 6.5 13.4 10.2 8.5-1.7 17.4-2.6 26.4-2.6 61.7 0 113.7 41 130.4 97.3 28.9 16.2 51.3 42.7 62.2 74.4 35.4-7.6 67.2-25 92.4-49.2 5.5-5.3 7.1-13.4 3.9-20.4s-10.3-11.2-17.8-10.6c-3.7 .3-7.4 .4-11.1 .4-76.2 0-138-61.8-138-138 0-54.1 31.1-101 76.6-123.6 6.8-3.4 10.8-10.7 9.8-18.3S529.9 6.4 522.5 4.7C508.8 1.6 494.6 0 480 0zM160 320c0-26.5 21.5-48 48-48 22.8 0 41.9 15.9 46.8 37.2 2.1 8.9 9 15.9 18 18s18.3-1.2 24.1-8.3c7.4-9.1 18.6-14.9 31.1-14.9 22.1 0 40 17.9 40 40 0 3.5-.4 6.8-1.3 10-1.9 7.3-.2 15.1 4.5 21 5.2 6.5 12.7 9 20.7 9 22.1 0 40 17.9 40 40 0 22.1-17.9 40-39.9 40l-264 0c-26.5 0-48-21.5-48-48s21.5-48 48-48c2.9 0 5.6 .2 8.3 .7 8.5 1.5 17.1-1.7 22.6-8.3s7-15.6 4.1-23.7c-1.9-5.2-3-10.8-3-16.7zm127.3-54.1c-17.3-25.3-46.3-41.9-79.3-41.9-53.5 0-96.7 44-96 97.3-45.4 7.6-80 47.1-80 94.7 0 53 43 96 96 96l264 0c48.6-.1 87.9-39.4 87.9-88 0-40.3-27.1-74.3-64.1-84.7-2.5-46.4-40.9-83.3-87.9-83.3-14.7 0-28.5 3.6-40.6 9.9z"/></svg>