<svg xmlns="http://www.w3.org/2000/svg" viewBox="0 0 640 512"><path fill="currentColor" d="M397.9 51.1c22.9-49.1 72.8-83.1 130.5-83.1 10.9 0 21.6 1.2 31.9 3.5 5.6 1.3 9.7 5.9 10.4 11.6s-2.3 11.2-7.4 13.7c-34.1 17-57.4 52.1-57.4 92.7 0 57.2 46.3 103.5 103.5 103.5 2.8 0 5.6-.1 8.3-.3 5.7-.5 11 2.7 13.4 7.9s1.2 11.3-3 15.3c-25.9 24.8-61 40.1-99.7 40.1l-.3 0c.2-2.7 .2-5.3 .2-8 0-51-28.1-95.4-69.6-118.7-9.8-33.1-31.8-60.9-60.9-78.2zM206.8 416L145 416c-9.2 0-16.6-7.4-16.6-16.6 0-4.7 2-9.2 5.5-12.4L275.1 260.7c3.4-3 7.8-4.7 12.4-4.7 12.4 0 21.3 12 17.8 23.9L274 384 335.8 384c9.2 0 16.6 7.4 16.6 16.6 0 4.7-2 9.2-5.5 12.4L205.7 539.3c-3.4 3-7.8 4.7-12.4 4.7-12.4 0-21.3-12-17.8-23.9L206.8 416zm1.6-320c-26.5 0-48 21.5-48 48 0 5.9 1.1 11.5 3 16.7 3 8.1 1.4 17.1-4.1 23.7s-14.1 9.8-22.6 8.3c-2.7-.5-5.5-.7-8.3-.7-26.5 0-48 21.5-48 48s21.5 48 48 48l44.3 0-53.2 47.6c-48.8-4.5-87.1-45.6-87.1-95.6 0-47.6 34.6-87 80-94.7-.7-53.3 42.5-97.3 96-97.3 33 0 62 16.6 79.3 41.9 12.2-6.3 26-9.9 40.6-9.9 47 0 85.4 36.9 87.9 83.3 37 10.4 64.1 44.4 64.1 84.7 0 48.6-39.3 87.9-87.9 88l-53.9 0 12.7-42.3c.6-1.9 1.1-3.8 1.4-5.7l39.7 0c22.1 0 40-17.9 40-40 0-22.1-17.9-40-40-40-8.1 0-15.5-2.5-20.7-9-4.7-5.9-6.4-13.7-4.5-21 .8-3.2 1.3-6.5 1.3-10 0-22.1-17.9-40-40-40-12.6 0-23.8 5.8-31.1 14.9-5.8 7.1-15.1 10.4-24.1 8.3s-15.9-9.1-18-18c-4.9-21.3-24-37.2-46.8-37.2z"/></svg>