<svg xmlns="http://www.w3.org/2000/svg" viewBox="0 0 576 512"><path fill="currentColor" d="M136 240c24.1 0 46.3 8.3 64 22 9.9-3.9 20.7-6 32-6 44.5 0 81.4 34 87.2 76.4 29.1 16.5 48.8 47.7 48.8 83.6 0 53-43 96-96 96L96 512c-53 0-96-43-96-96 0-28.5 12.4-54 32.1-71.5 0-55.8 46-104.5 103.9-104.5zm0 48c-33.4 0-60.2 31.2-55.4 64.1 1.3 9.3-2.8 18.5-10.7 23.6-13.2 8.6-21.9 23.5-21.9 40.3 0 26.5 21.5 48 48 48l176 0c26.5 0 48-21.5 48-48 0-20.9-13.4-38.7-32.1-45.3-10.1-3.6-16.7-13.4-16-24.1 1.4-22.5-17.3-42.6-39.9-42.6-8.4 0-16.1 2.5-22.5 6.9-10 6.8-23.5 5.1-31.5-3.9-10.3-11.7-25.3-19-42-19zm256-96c37 0 69.3 19.3 87.8 48.3 53.8 4 96.2 48.9 96.2 103.7 0 57.4-46.6 104-104 104l-59.6 0c2.3-10.3 3.6-21 3.6-32 0-5.4-.3-10.7-.9-16l56.9 0c30.9 0 56-25.1 56-56s-25.1-56-56-56c-1.3 0-2.7 .1-4.6 .2-10.2 .8-19.9-4.9-24-14.4-8.6-20-28.4-33.8-51.4-33.8-20.5 0-38.3 11-48.1 27.4-9.3-13.5-20.9-25.2-34.3-34.7 19-24.7 48.8-40.7 82.4-40.7zM240-31.8c5.3 0 10.3 2.7 13.3 7.1l47.3 70.4 83.3-16.3c5.2-1 10.6 .7 14.3 4.4 3.8 3.8 5.4 9.2 4.4 14.4l-16.3 83.3 19.8 13.3c-4.6-.4-9.4-.7-14.1-.7-22.3 0-43.5 4.8-62.5 13.4-13.9-35.9-48.7-61.4-89.5-61.4-53 0-96 43-96 96l0 .2c-2.6-.1-5.3-.2-8-.2-33.4 0-64.1 11-89 29.2l-23.8-16c-4.4-3-7.1-8-7.1-13.3 0-5.3 2.6-10.3 7-13.2l70.4-47.4-16.3-83.2-.2-2c-.3-4.6 1.3-9.1 4.6-12.4 3.8-3.8 9.2-5.4 14.4-4.4l83.2 16.3 47.3-70.4 1.2-1.6c3-3.5 7.4-5.5 12.1-5.5zM240 144c24.3 0 44.4 18.2 47.5 41.7-8.4 7.9-15.9 16.8-22.3 26.5-10.6-2.7-21.8-4.1-33.2-4.1-8.2 0-16.2 .8-24 2.2-4.7-2.6-9.6-4.8-14.7-6.9-.9-3.6-1.4-7.4-1.4-11.3 0-26.5 21.5-48 48-48z"/></svg>