<svg xmlns="http://www.w3.org/2000/svg" viewBox="0 0 576 512"><path fill="currentColor" d="M240 32c-88.4 0-160 71.6-160 160 0 4.9 .2 9.8 .7 14.6-47.8 23.4-80.7 72.5-80.7 129.4 0 79.5 64.5 144 144 144l304 0c70.7 0 128-57.3 128-128 0-49.9-28.5-93-70.1-114.2 4-11.9 6.1-24.6 6.1-37.8 0-66.3-53.7-120-120-120-11.5 0-22.7 1.6-33.3 4.7-29.3-32.3-71.6-52.7-118.7-52.7zM128 192c0-61.9 50.1-112 112-112 37.7 0 71 18.6 91.3 47.1 6.7 9.5 19.3 12.8 29.8 7.8 9.3-4.4 19.7-6.9 30.8-6.9 39.8 0 72 32.2 72 72 0 14.1-4 27.2-11 38.3-4.1 6.5-4.8 14.6-2 21.7s9 12.5 16.5 14.3c34.8 8.7 60.5 40.2 60.5 77.6 0 44.2-35.8 80-80 80l-304 0c-53 0-96-43-96-96 0-42.7 27.9-79 66.6-91.4 11.8-3.8 18.8-16 16.1-28.1-1.8-7.9-2.7-16.1-2.7-24.5zm160 0c-13.3 0-24 10.7-24 24l0 48-48 0c-13.3 0-24 10.7-24 24s10.7 24 24 24l48 0 0 48c0 13.3 10.7 24 24 24s24-10.7 24-24l0-48 48 0c13.3 0 24-10.7 24-24s-10.7-24-24-24l-48 0 0-48c0-13.3-10.7-24-24-24z"/></svg>