<svg xmlns="http://www.w3.org/2000/svg" viewBox="0 0 576 512"><path fill="currentColor" d="M248.5-31c4.2 1.7 7.2 5.4 8.1 9.8l7.7 38.1c-54.6 6.3-99.4 45-114.6 96.4-41.5 23.3-69.6 67.7-69.6 118.7 0 2.2 .1 4.4 .2 6.6l-69.4-14c-4.4-.9-8.1-3.9-9.8-8.1s-1.3-8.9 1.2-12.6L41.9 144 2.3 84.2C-.2 80.4-.7 75.7 1 71.5s5.4-7.2 9.8-8.1L81.2 49.2 95.5-21.2c.9-4.4 3.9-8.1 8.1-9.8s8.9-1.3 12.6 1.2L176 9.9 235.8-29.8c3.7-2.5 8.5-2.9 12.6-1.2zM447.9 128c0-26.5-21.5-48-48-48-22.8 0-41.9 15.9-46.8 37.2-2.1 8.9-9 15.9-18 18s-18.3-1.2-24.1-8.3c-7.4-9.1-18.6-14.9-31.1-14.9-22.1 0-40 17.9-40 40 0 3.5 .4 6.8 1.3 10 1.9 7.3 .2 15.1-4.5 21-5.2 6.5-12.7 9-20.7 9-22.1 0-40 17.9-40 40 0 22.1 17.9 40 39.9 40l52.4 0-53.6 48c-48-.7-86.7-39.8-86.7-88 0-40.3 27.1-74.3 64.1-84.7 2.5-46.4 40.9-83.3 87.9-83.3 14.7 0 28.5 3.6 40.6 9.9 17.3-25.3 46.3-41.9 79.3-41.9 53.5 0 96.7 44 96 97.3 45.4 7.6 80 47.1 80 94.7 0 53-43 96-96 96l-45.8 0 12.7-42.3c.6-1.9 1.1-3.8 1.4-5.7l31.6 0c26.5 0 48-21.5 48-48s-21.5-48-48-48c-2.9 0-5.6 .2-8.3 .7-8.5 1.5-17.1-1.7-22.6-8.3s-7-15.6-4.1-23.7c1.9-5.2 3-10.8 3-16.7zM302.4 400l-61.8 0c-9.2 0-16.6-7.4-16.6-16.6 0-4.7 2-9.2 5.5-12.4L370.7 244.7c3.4-3 7.8-4.7 12.4-4.7 12.4 0 21.3 12 17.8 23.9l-31.2 104.1 61.8 0c9.2 0 16.6 7.4 16.6 16.6 0 4.7-2 9.2-5.5 12.4L301.3 523.3c-3.4 3-7.8 4.7-12.4 4.7-12.4 0-21.3-12-17.8-23.9L302.4 400z"/></svg>