<svg xmlns="http://www.w3.org/2000/svg" viewBox="0 0 576 512"><path fill="currentColor" d="M144 120c0-39.8 32.2-72 72-72 28.9 0 53.9 17.1 65.4 41.8 3.3 7.1 9.9 12.2 17.6 13.6s15.7-1.2 21.2-6.8c10.2-10.3 24.2-16.6 39.8-16.6 30.9 0 56 25.1 56 56 0 13.3 10.7 24 24 24 30.9 0 56 25.1 56 56s-25.1 56-56 56l-304 0c-30.9 0-56-25.1-56-56 0-27.4 19.8-50.3 45.9-55.1 13-2.4 21.7-14.9 19.3-27.9-.8-4.2-1.2-8.5-1.2-13zM216 0c-66.3 0-120 53.7-120 120-37.6 15.7-64 52.7-64 96 0 57.4 46.6 104 104 104l304 0c57.4 0 104-46.6 104-104 0-50-35.3-91.7-82.3-101.7-10-47-51.7-82.3-101.7-82.3-18.3 0-35.4 4.7-50.3 13-22-27.4-55.7-45-93.7-45zM512 392c0-13.3-10.7-24-24-24L24 368c-13.3 0-24 10.7-24 24s10.7 24 24 24l464 0c13.3 0 24-10.7 24-24zM64 488c0 13.3 10.7 24 24 24l80 0c13.3 0 24-10.7 24-24s-10.7-24-24-24l-80 0c-13.3 0-24 10.7-24 24zm176 0c0 13.3 10.7 24 24 24l288 0c13.3 0 24-10.7 24-24s-10.7-24-24-24l-288 0c-13.3 0-24 10.7-24 24z"/></svg>