<svg xmlns="http://www.w3.org/2000/svg" viewBox="0 0 512 512"><path fill="currentColor" d="M144 104c0-30.9 25.1-56 56-56 27.8 0 50.9 20.3 55.3 46.9 1.7 10.2 9.7 18.2 20 19.8s20.4-3.6 25.1-12.8c6.6-13 20.1-21.9 35.7-21.9 18.6 0 34.3 12.7 38.7 30 2.7 10.6 12.3 18 23.2 18l10 0c13.3 0 24 10.7 24 24s-10.7 24-24 24l-304 0c-13.3 0-24-10.7-24-24s10.7-24 24-24l16 0c13.3 0 24-10.7 24-24zM200 0C150.8 0 109.5 34.2 98.7 80.2 61.4 82.9 32 114 32 152 32 191.8 64.2 224 104 224l304 0c39.8 0 72-32.2 72-72 0-37.6-28.8-68.4-65.5-71.7-14.5-28.6-44.2-48.3-78.5-48.3-18.2 0-35 5.5-49 14.9-18.6-28.3-50.6-46.9-87-46.9zM84.9 273.3c-12.6-4.2-26.2 2.6-30.4 15.2l-21.3 64C29 365 35.8 378.6 48.4 382.8s26.2-2.6 30.4-15.2l21.3-64c4.2-12.6-2.6-26.2-15.2-30.4zm120 0c-12.6-4.2-26.2 2.6-30.4 15.2l-21.3 64c-4.2 12.6 2.6 26.2 15.2 30.4s26.2-2.6 30.4-15.2l21.3-64c4.2-12.6-2.6-26.2-15.2-30.4zm112 0c-12.6-4.2-26.2 2.6-30.4 15.2l-21.3 64c-4.2 12.6 2.6 26.2 15.2 30.4s26.2-2.6 30.4-15.2l21.3-64c4.2-12.6-2.6-26.2-15.2-30.4zm120 0c-12.6-4.2-26.2 2.6-30.4 15.2l-21.3 64c-4.2 12.6 2.6 26.2 15.2 30.4s26.2-2.6 30.4-15.2l21.3-64c4.2-12.6-2.6-26.2-15.2-30.4zM410.6 476.1c20.7 15.6 46 30.7 74.2 34.5 13.1 1.8 25.2-7.5 27-20.6s-7.5-25.2-20.6-27c-15.9-2.1-33.2-11.3-51.7-25.2-38.4-29-90.5-29-129 0-24 18.1-40.7 26.3-54.5 26.3s-30.5-8.2-54.5-26.3c-38.4-29-90.5-29-129 0-18.5 13.9-35.8 23.1-51.7 25.2-13.1 1.8-22.4 13.8-20.6 27s13.8 22.4 27 20.6c28.2-3.8 53.6-18.9 74.2-34.5 21.3-16.1 49.9-16.1 71.2 0 24.2 18.3 52.3 35.9 83.4 35.9s59.1-17.7 83.4-35.9c21.3-16.1 49.9-16.1 71.2 0z"/></svg>