<svg xmlns="http://www.w3.org/2000/svg" viewBox="0 0 512 512"><path fill="currentColor" d="M112 120c0-39.8 32.2-72 72-72 28.9 0 53.9 17.1 65.4 41.8 3.3 7.1 9.9 12.2 17.6 13.6s15.7-1.2 21.2-6.8c10.2-10.3 24.2-16.6 39.8-16.6 30.9 0 56 25.1 56 56 0 13.3 10.7 24 24 24 30.9 0 56 25.1 56 56s-25.1 56-56 56l-304 0c-30.9 0-56-25.1-56-56 0-27.4 19.8-50.3 45.9-55.1 13-2.4 21.7-14.9 19.3-27.9-.8-4.2-1.2-8.5-1.2-13zM184 0C117.7 0 64 53.7 64 120 26.4 135.7 0 172.7 0 216 0 273.4 46.6 320 104 320l304 0c57.4 0 104-46.6 104-104 0-50-35.3-91.7-82.3-101.7-10-47-51.7-82.3-101.7-82.3-18.3 0-35.4 4.7-50.3 13-22-27.4-55.7-45-93.7-45zM102.8 399.6c4.2-12.6-2.6-26.2-15.2-30.4s-26.2 2.6-30.4 15.2l-32 96C21 493 27.8 506.6 40.4 510.8s26.2-2.6 30.4-15.2l32-96zm120 0c4.2-12.6-2.6-26.2-15.2-30.4s-26.2 2.6-30.4 15.2l-32 96c-4.2 12.6 2.6 26.2 15.2 30.4s26.2-2.6 30.4-15.2l32-96zm112 0c4.2-12.6-2.6-26.2-15.2-30.4s-26.2 2.6-30.4 15.2l-32 96c-4.2 12.6 2.6 26.2 15.2 30.4s26.2-2.6 30.4-15.2l32-96zm120 0c4.2-12.6-2.6-26.2-15.2-30.4s-26.2 2.6-30.4 15.2l-32 96c-4.2 12.6 2.6 26.2 15.2 30.4s26.2-2.6 30.4-15.2l32-96z"/></svg>