<svg xmlns="http://www.w3.org/2000/svg" viewBox="0 0 512 512"><path fill="currentColor" d="M205.9 17.7c18.4 0 36.2 6.4 50.4 17.8 14.2-11.5 32-17.8 50.4-17.8l2.5 0c43 0 77.9 34.9 77.9 77.9 0 13.1-2.9 26.1-8.3 38 12-5.6 25.1-8.5 38.3-8.5 42.8 0 77.4 34.7 77.4 77.4l0 3c0 18.4-6.3 36.2-17.8 50.4 11.4 14.2 17.8 32 17.8 50.4l0 2.8c0 42.9-34.8 77.6-77.6 77.6-13.3 0-26.4-3-38.4-8.5 5.6 12 8.5 25.1 8.5 38.4 0 42.9-34.8 77.6-77.6 77.6l-2.8 0c-18.4 0-36.2-6.3-50.4-17.8-14.2 11.4-32 17.8-50.4 17.8l-2.8 0c-42.9 0-77.6-34.8-77.6-77.6 0-13.3 2.9-26.4 8.5-38.4-12 5.6-25.1 8.5-38.4 8.5-40.2 0-73.2-30.5-77.2-69.7l-.4-7.9 0-2.8c0-18.4 6.4-36.2 17.8-50.4-9.8-12.2-15.9-26.9-17.4-42.4l-.4-8 0-2.8c0-42.9 34.8-77.6 77.6-77.6 13.3 0 26.4 3 38.4 8.5-5.6-12-8.5-25.1-8.5-38.4 0-42.9 34.8-77.6 77.6-77.6l2.8 0zm-2.8 48c-16.4 0-29.6 13.3-29.6 29.6 0 7.4 1.9 14.7 5.5 21.1l38.2 67.8 1.7 3.6c3.1 8.6 1.1 18.5-5.6 25.1-7.6 7.6-19.4 9.2-28.7 3.9l-67.8-38.2c-6.4-3.6-13.7-5.5-21.1-5.5-16.4 0-29.6 13.3-29.6 29.6l0 2.8 .2 3.2c.7 7.4 4 14.4 9.3 19.7L86 239 89 242.7c2.6 3.9 4 8.5 4 13.3s-1.4 9.4-4 13.3l-3 3.7-10.5 10.5c-6.1 6.1-9.5 14.3-9.5 22.9l0 2.8 .2 3c1.5 14.9 14.1 26.6 29.5 26.6 7.4 0 14.7-1.9 21.1-5.5l67.8-38.2 3.6-1.7c8.6-3.1 18.5-1.1 25.1 5.6s8.7 16.5 5.6 25.1l-1.7 3.6-38.2 67.8c-3.6 6.4-5.5 13.7-5.5 21.1 0 16.4 13.3 29.6 29.6 29.6l2.8 0c8.6 0 16.9-3.4 22.9-9.5l10.5-10.5 3.7-3c3.9-2.6 8.5-4 13.3-4 6.4 0 12.5 2.5 17 7l10.5 10.5 2.4 2.2c5.8 4.7 13 7.3 20.5 7.3l2.8 0c16.4 0 29.6-13.3 29.6-29.6 0-7.4-1.9-14.7-5.5-21.1l-38.2-67.8c-5.3-9.4-3.7-21.1 3.9-28.8s19.4-9.2 28.8-3.9l67.8 38.2c6.4 3.6 13.7 5.5 21.1 5.5 16.4 0 29.6-13.3 29.6-29.6l0-2.8c0-7.5-2.6-14.8-7.3-20.5l-2.2-2.4-10.5-10.5c-4.5-4.5-7-10.6-7-17s2.5-12.5 7-17l10.5-10.5 2.2-2.4c4.7-5.8 7.3-13 7.3-20.6l0-3c0-16.3-13.2-29.4-29.4-29.4-5.6 0-11.1 1.1-16.2 3.2l-5 2.4-66.3 38c-9.3 5.3-21.1 3.8-28.8-3.7-7.7-7.5-9.4-19.2-4.2-28.7l37.2-67.9 2.3-4.9c2-5.1 3-10.5 3-15.9 0-16.5-13.4-29.9-29.9-29.9l-2.5 0c-7.5 0-14.8 2.6-20.5 7.3l-2.4 2.2-10.5 10.5c-4.5 4.5-10.6 7-17 7s-12.5-2.5-17-7L228.8 75.2c-6.1-6.1-14.3-9.5-22.9-9.5l-2.8 0z"/></svg>