<svg xmlns="http://www.w3.org/2000/svg" viewBox="0 0 512 512"><path fill="currentColor" d="M160 144c0-53 43-96 96-96s96 43 96 96c0 .8 0 1.6 0 2.4l-.5 19.6c-.3 11.4 7.5 21.5 18.7 24l19.2 4.3c42.7 9.7 74.6 48 74.6 93.6 0 53-43 96-96 96-30.1 0-57-13.8-74.7-35.7l-18.7-23.1c-4.6-5.6-11.4-8.9-18.7-8.9s-14.1 3.3-18.7 8.9l-18.7 23.1c-17.7 21.8-44.5 35.7-74.7 35.7-53 0-96-43-96-96 0-45.6 31.9-83.9 74.7-93.6l19.2-4.3c11.1-2.5 19-12.6 18.7-24l-.5-19.6c0-.8 0-1.6 0-2.4zM256 0c-79.5 0-144 64.5-144 144 0 1.2 0 2.4 0 3.6-64.2 14.5-112 71.9-112 140.4 0 79.5 64.5 144 144 144 33.1 0 63.7-11.2 88-30l0 62-48 0c-13.3 0-24 10.7-24 24s10.7 24 24 24l144 0c13.3 0 24-10.7 24-24s-10.7-24-24-24l-48 0 0-62c24.3 18.8 54.9 30 88 30 79.5 0 144-64.5 144-144 0-68.5-47.9-125.9-112-140.4 0-1.2 0-2.4 0-3.6 0-79.5-64.5-144-144-144z"/></svg>