<svg xmlns="http://www.w3.org/2000/svg" viewBox="0 0 512 512"><path fill="currentColor" d="M274.5 55.3c42.7-13.2 71.9-7.4 86.7 7.5s20.6 44 7.5 86.7c-12.8 41.5-42.1 89.6-85.8 133.3s-91.8 73-133.3 85.8c-42.7 13.2-71.9 7.4-86.7-7.5s-20.6-44-7.5-86.7c12.8-41.5 42.1-89.6 85.8-133.3s91.8-73 133.3-85.8zM395.2 28.9C361.5-4.8 309.6-5.7 260.4 9.5 210 25 155.3 59.1 107.2 107.2S25 210 9.5 260.4C-5.7 309.6-4.8 361.5 28.9 395.2l41 41c48.6 48.6 114.5 75.9 183.2 75.9 143.1 0 259-116 259-259 0-68.7-27.3-134.6-75.9-183.2L395.2 28.9zm27.4 98.5c23.7 32 37.9 70.2 40.9 110.1L457 231c-9.4-9.4-24.6-9.4-33.9 0s-9.4 24.6 0 33.9l35.6 35.6c-7.2 31.1-21.2 59.6-40.4 83.7L377 343c-9.4-9.4-24.6-9.4-33.9 0s-9.4 24.6 0 33.9l41.2 41.2c-24.2 19.2-52.6 33.3-83.7 40.4L265 423c-9.4-9.4-24.6-9.4-33.9 0s-9.4 24.6 0 33.9l6.5 6.5c-39.9-2.9-78.1-17.2-110.1-40.9 12.1-1.5 24.2-4.3 36.3-8 50.4-15.5 105-49.7 153.1-97.8S399 214.1 414.6 163.7c3.7-12 6.5-24.2 8-36.3zM256 256c62.5-62.5 92.9-133.4 67.9-158.4S228 103 165.5 165.5 72.6 298.9 97.6 323.9 193.5 318.5 256 256z"/></svg>