<svg xmlns="http://www.w3.org/2000/svg" viewBox="0 0 448 512"><path fill="currentColor" d="M80 112a32 32 0 1 0 0-64 32 32 0 1 0 0 64zm80-32c0 35.8-23.5 66.1-56 76.3l0 27.7c0 30.9 25.1 56 56 56l128 0c30.9 0 56-25.1 56-56l0-27.7c-32.5-10.2-56-40.5-56-76.3 0-44.2 35.8-80 80-80s80 35.8 80 80c0 35.8-23.5 66.1-56 76.3l0 27.7c0 57.4-46.6 104-104 104l-40 0 0 67.7c32.5 10.2 56 40.5 56 76.3 0 44.2-35.8 80-80 80s-80-35.8-80-80c0-35.8 23.5-66.1 56-76.3l0-67.7-40 0c-57.4 0-104-46.6-104-104l0-27.7C23.5 146.1 0 115.8 0 80 0 35.8 35.8 0 80 0s80 35.8 80 80zm208 32a32 32 0 1 0 0-64 32 32 0 1 0 0 64zM256 432a32 32 0 1 0 -64 0 32 32 0 1 0 64 0z"/></svg>