<svg xmlns="http://www.w3.org/2000/svg" viewBox="0 0 384 512"><path fill="currentColor" d="M80 48a32 32 0 1 1 0 64 32 32 0 1 1 0-64zm24 108.3c32.5-10.2 56-40.5 56-76.3 0-44.2-35.8-80-80-80S0 35.8 0 80c0 35.8 23.5 66.1 56 76.3l0 199.3c-32.5 10.2-56 40.5-56 76.3 0 44.2 35.8 80 80 80s80-35.8 80-80c0-35.8-23.5-66.1-56-76.3l0-199.3zM112 432c0 17.7-14.3 32-32 32s-32-14.3-32-32 14.3-32 32-32 32 14.3 32 32zm224 0c0 17.7-14.3 32-32 32s-32-14.3-32-32 14.3-32 32-32 32 14.3 32 32zm48 0c0-44.2-35.8-80-80-80s-80 35.8-80 80 35.8 80 80 80 80-35.8 80-80zM344 80a40 40 0 1 0 -80 0 40 40 0 1 0 80 0zM304 272a40 40 0 1 0 0-80 40 40 0 1 0 0 80z"/></svg>