<svg xmlns="http://www.w3.org/2000/svg" viewBox="0 0 384 512"><path fill="currentColor" d="M112 80a32 32 0 1 0 -64 0 32 32 0 1 0 64 0zm48 0c0 35.8-23.5 66.1-56 76.3l0 199.3c32.5 10.2 56 40.5 56 76.3 0 44.2-35.8 80-80 80S0 476.2 0 432c0-35.8 23.5-66.1 56-76.3l0-199.3C23.5 146.1 0 115.8 0 80 0 35.8 35.8 0 80 0s80 35.8 80 80zM80 464c17.7 0 32-14.3 32-32s-14.3-32-32-32-32 14.3-32 32 14.3 32 32 32zm224 0c17.7 0 32-14.3 32-32s-14.3-32-32-32-32 14.3-32 32 14.3 32 32 32zm0 48c-44.2 0-80-35.8-80-80 0-35.8 23.5-66.1 56-76.3L280 216c0-13.3 10.7-24 24-24s24 10.7 24 24l0 139.7c32.5 10.2 56 40.5 56 76.3 0 44.2-35.8 80-80 80zM231 7c9.4-9.4 24.6-9.4 33.9 0l39 39 39-39c9.4-9.4 24.6-9.4 33.9 0s9.4 24.6 0 33.9l-39 39 39 39c9.4 9.4 9.4 24.6 0 33.9s-24.6 9.4-33.9 0l-39-39-39 39c-9.4 9.4-24.6 9.4-33.9 0s-9.4-24.6 0-33.9l39-39-39-39c-9.4-9.4-9.4-24.6 0-33.9z"/></svg>