<svg xmlns="http://www.w3.org/2000/svg" viewBox="0 0 512 512"><path fill="currentColor" d="M88 80c-22.1 0-40 17.9-40 40l0 80c0 13.3-10.7 24-24 24S0 213.3 0 200l0-80C0 71.4 39.4 32 88 32l365.6 0c14.6 0 26.4 11.8 26.4 26.4 0 3.7-.8 7.3-2.3 10.7l-48.4 109c50 34.7 82.7 92.5 82.7 157.9l0 8c0 55.5-34.6 99.4-55.9 121.2-9.9 10.2-23.9 14.8-38.1 14.8L158 480c-14.2 0-28.1-4.7-38.1-14.8-21.2-21.7-55.9-65.7-55.9-121.2l0-8c0-65.4 32.7-123.2 82.7-157.9L103.1 80 88 80zm296.8 80l35.6-80-264.7 0 35.6 80 193.6 0zm1.2 48L190 208c-32.3 16.7-57.5 45.3-69.8 80l335.6 0c-12.3-34.7-37.4-63.3-69.8-80zm78 128l-352 0 0 8c0 36 23.3 68.2 42 87.4l.2 .1c.6 .2 1.8 .5 3.8 .5L418 432c1.9 0 3.2-.3 3.8-.5l.2-.1c18.7-19.2 42-51.4 42-87.4l0-8z"/></svg>