<svg xmlns="http://www.w3.org/2000/svg" viewBox="0 0 448 512"><path fill="currentColor" d="M64.1 367.4l19.6-22.9c35.1-40.9 86.3-64.5 140.3-64.5 67.3 0 131.2-29.1 175.4-79.8 3.9 51.8-16.5 112.7-67.5 163.7-83.7 83.7-193.8 85.1-247.3 31.5-8.1-8.1-15-17.6-20.5-28zM48.6 311.8c-3.9-51.8 16.5-112.7 67.5-163.7 83.7-83.7 193.8-85.1 247.3-31.5 8.1 8.1 15 17.5 20.5 28l-19.7 22.9c-35.1 40.9-86.3 64.5-140.3 64.5-67.3 0-131.2 29.1-175.4 79.8zM82.2 114.2C-13.6 209.9-27.7 351 50.6 429.4S270.1 493.6 365.8 397.8 475.7 161 397.4 82.6 177.9 18.4 82.2 114.2z"/></svg>