<svg xmlns="http://www.w3.org/2000/svg" viewBox="0 0 576 512"><path fill="currentColor" d="M529.4 153.4l-34-22.7c-26-17.3-56.4-26.9-87.7-27.4-29.3-.5-57.4-12.2-78.4-32.7L313.9 55.6c3.4-6.6 7.6-12.4 12.5-17.3 31.4-31.4 101.7-34 158.4 22.6 29.6 29.6 43 62.9 44.6 92.4zM518.8 204c-3.2 5.8-7 10.9-11.4 15.3-31.4 31.4-101.7 34-158.4-22.6-26.5-26.5-40.1-56.1-43.8-83.2 28.5 23.7 64.3 37.1 101.5 37.8 22.1 .4 43.6 7.1 62 19.4l50 33.4zm22.5 49.3C597.6 197 587.5 95.7 518.7 27s-170-78.9-226.3-22.6-46.1 157.5 22.6 226.3 170 78.9 226.3 22.6zM160.1 494c-5.4 1.3-10.7 2-16 2-44.5 0-96-47.9-96-128 0-41 13.5-73.5 32.6-95.5 3.1 40.6 18.8 79.4 45 110.9 22.3 26.7 34.4 60.4 34.4 95.1l0 15.5zm47.4-30.5c-3.1-40.6-18.8-79.4-45-110.9-22.3-26.7-34.4-60.4-34.4-95.1l0-15.5c5.4-1.3 10.7-2 16-2 44.5 0 96 47.9 96 128 0 41-13.5 73.5-32.6 95.5zM288.1 368c0-97.2-64.5-176-144-176s-144 78.8-144 176 64.5 176 144 176 144-78.8 144-176z"/></svg>