<svg xmlns="http://www.w3.org/2000/svg" viewBox="0 0 512 512"><path fill="currentColor" d="M320 0c48.9 0 93.9 8.4 127.6 21.7 16.7 6.6 31.8 14.9 43.1 24.8 11 9.7 21.3 23.7 21.3 41.5l0 208c0 17.8-10.4 31.8-21.3 41.5-11.3 10-26.3 18.2-43.1 24.8-5 2-10.2 3.8-15.6 5.5l0-51c12.6-5.2 21.5-10.6 26.9-15.4 3.9-3.4 4.9-5.4 5.1-6l0-40.2c-9.8 4.1-20.6 7.7-32 10.8l0-50.1c7.8-2.6 14.7-5.3 20.5-8.2 4.9-2.4 8.6-4.7 11.5-6.7l0-52.7c-5.3 2.6-10.9 5-16.7 7.2-9.1 3.5-19.1 6.6-29.7 9.2-6.7-11.2-14.9-20.3-22.7-27.3-5.3-4.8-10.9-9.1-16.8-13 50.5-6.2 85.8-20.3 85.8-36.6 0-20-64.5-40-144-40-69.1 0-126.8 15.1-140.8 32.2-17.4 .4-34.5 1.7-51.1 3.9 1.4-15.9 11-28.6 21.2-37.5 11.3-10 26.3-18.2 43.1-24.8 33.7-13.3 78.7-21.7 127.6-21.7zM64.4 149.7C98.1 136.4 143.1 128 192 128s93.9 8.4 127.6 21.7c16.7 6.6 31.8 14.9 43.1 24.8 11 9.7 21.3 23.7 21.3 41.5l0 208c0 17.8-10.4 31.8-21.3 41.5-11.3 10-26.3 18.2-43.1 24.8-33.7 13.3-78.7 21.7-127.6 21.7s-93.9-8.4-127.6-21.7c-16.7-6.6-31.8-14.9-43.1-24.8-11-9.7-21.3-23.7-21.3-41.5L0 216c0-17.8 10.4-31.8 21.3-41.5 11.3-10 26.3-18.2 43.1-24.8zm254.9 134C285.6 296.5 240.5 304 192 304s-93.6-7.5-127.3-20.3c-5.8-2.2-11.4-4.6-16.7-7.2l0 52.7c2.8 2.1 6.6 4.3 11.5 6.7 9.1 4.5 20.8 8.7 34.7 12.4 27.7 7.3 62.2 11.8 97.8 11.8s70.1-4.5 97.8-11.8c13.9-3.7 25.6-7.9 34.7-12.4 4.9-2.4 8.6-4.7 11.5-6.7l0-52.7c-5.3 2.6-10.9 5-16.7 7.2zM48 383.3l0 40.2c.2 .6 1.2 2.6 5.1 6 5.7 5 15.3 10.8 28.9 16.2 27.1 10.7 66.1 18.3 110 18.3s82.8-7.6 110-18.3c13.7-5.4 23.2-11.1 28.9-16.2 3.9-3.4 4.9-5.4 5.1-6l0-40.2c-10.4 4.4-21.8 8.1-33.9 11.3-32.1 8.5-70.8 13.3-110.1 13.3s-77.9-4.9-110-13.3c-12.1-3.2-23.6-7-34-11.3zM336 216c0-20-64.5-40-144-40S48 196 48 216c0 22.1 64.5 40 144 40s144-17.9 144-40z"/></svg>