<svg xmlns="http://www.w3.org/2000/svg" viewBox="0 0 512 512"><path fill="currentColor" d="M152 339.6c24.8 6.2 51.8 10.3 80 11.8l0 48c-29.1-1.5-56.1-5.6-80-11.7l0-48zM48 292c15.6 12.2 34.5 23 56 31.9l0 47.3c-2.6-1.2-5.1-2.4-7.6-3.6-41.2-20.6-48.4-40.2-48.4-47.6l0-28zM256 64C114.6 64 0 128.5 0 208L0 320c0 70.7 114.6 128 256 128s256-57.3 256-128l0-112c0-79.5-114.6-144-256-144zM400 327.1c24.8-9.5 46.5-21.4 64-35.1l0 28c0 7.4-7.2 27-48.4 47.6-4.9 2.4-10.1 4.8-15.6 7l0-47.5zM280 351.4c25.2-1.3 49.4-4.7 72-9.8l0 48.1c-21.9 5-46.1 8.5-72 9.8l0-48zM64 208c0-53 86-96 192-96s192 43 192 96-86 96-192 96-192-43-192-96z"/></svg>