<svg xmlns="http://www.w3.org/2000/svg" viewBox="0 0 384 512"><path fill="currentColor" d="M213.8 8.7c12.9 3.2 20.7 16.2 17.5 29.1l-6.6 26.4c15.4 .7 30.4 3.2 44.7 7.3l11.3-45.3C283.9 13.3 297 5.5 309.8 8.7S330.5 25 327.3 37.8L314 90.9c12.2 7.3 23.5 15.8 33.8 25.5 9.6 9.1 10.1 24.3 1 33.9s-24.3 10.1-33.9 1c-4.2-3.9-8.6-7.6-13.2-11L237.1 398.5c29.9-4.4 56.7-17.9 77.7-37.7 9.6-9.1 24.8-8.7 33.9 1s8.7 24.8-1 33.9c-32.4 30.6-75.5 50-123 52.2l-9.5 38c-3.2 12.9-16.2 20.7-29.1 17.5s-20.7-16.2-17.5-29.1l7.6-30.3c-15-3.2-29.4-8.1-42.9-14.5l-14.1 56.4c-3.2 12.9-16.2 20.7-29.1 17.5S69.5 487 72.7 474.2l18.1-72.6C49.9 366.4 24 314.2 24 256 24 164.3 88.2 87.7 174.1 68.6l10.6-42.4C187.9 13.3 201 5.5 213.8 8.7zM187.9 397.3l69.8-279.1c-13.2-4-27.2-6.1-41.7-6.1-1.1 0-2.2 0-3.3 0L145.4 381.5c13.1 7.4 27.4 12.8 42.6 15.8zM72 256c0 34.6 12.2 66.3 32.5 91.1l56-224C108.5 144.8 72 196.1 72 256z"/></svg>