<svg xmlns="http://www.w3.org/2000/svg" viewBox="0 0 512 512"><path fill="currentColor" d="M0 240c0 54.4 19.3 104.6 51.9 144.9L3.1 474.3c-2 3.7-3.1 7.9-3.1 12.2 0 14.1 11.4 25.5 25.5 25.5 4 0 7.8-.6 11.5-2.1L153.4 460c31.4 12.9 66.1 20 102.6 20 141.4 0 256-107.5 256-240S397.4 0 256 0 0 107.5 0 240zM94 407.9c9.3-17.1 7.4-38.1-4.8-53.2-26.1-32.3-41.2-71.9-41.2-114.7 0-103.2 90.2-192 208-192s208 88.8 208 192-90.2 192-208 192c-30.2 0-58.7-5.9-84.3-16.4-11.9-4.9-25.3-4.8-37.1 .3L76 440.9 94 407.9zM256 168c16.1 0 29.2 13.1 29.2 29.2 0 8.7-3.1 13.9-6.9 17.7-4.5 4.4-10.7 7.5-16.8 9.5-14.9 5-29.5 19.3-29.5 39.5 0 13.3 10.7 24 24 24 11.5 0 21.2-8.1 23.5-19 19.2-7.1 53.7-26.3 53.7-71.8 0-42.6-34.6-77.2-77.2-77.2s-77.2 34.6-77.2 77.2c0 13.3 10.7 24 24 24s24-10.7 24-24c0-16.1 13.1-29.2 29.2-29.2zm28 168a28 28 0 1 0 -56 0 28 28 0 1 0 56 0z"/></svg>