<svg xmlns="http://www.w3.org/2000/svg" viewBox="0 0 576 512"><path fill="currentColor" d="M544 240c0-13.6-1.2-26.9-3.5-39.9-13.8 5.1-28.8 7.9-44.5 7.9-1 0-2 0-2.9 0 1.9 10.5 2.9 21.2 2.9 32 0 103.2-90.2 192-208 192-30.2 0-58.7-5.9-84.3-16.4-11.9-4.9-25.3-4.8-37.1 .3l-58.5 25.1 18-33.1c9.3-17.1 7.4-38.1-4.8-53.2-26.1-32.3-41.2-71.9-41.2-114.7 0-103.2 90.2-192 208-192 29 0 56.4 5.4 81.1 15.1 2.2-16.3 7.4-31.7 15.1-45.5-29.7-11.3-62.2-17.5-96.2-17.5-141.4 0-256 107.5-256 240 0 54.4 19.3 104.6 51.9 144.9L35.1 474.3c-2 3.7-3.1 7.9-3.1 12.2 0 14.1 11.4 25.5 25.5 25.5 4 0 7.8-.6 11.5-2.1L185.4 460c31.4 12.9 66.1 20 102.6 20 141.4 0 256-107.5 256-240zm-48-80a80 80 0 1 0 0-160 80 80 0 1 0 0 160z"/></svg>