<svg xmlns="http://www.w3.org/2000/svg" viewBox="0 0 512 512"><path fill="currentColor" d="M256 0C397.4 0 512 107.5 512 240S397.4 480 256 480c-36.5 0-71.2-7.1-102.6-20L37 509.8c-3.7 1.6-7.5 2.2-11.5 2.2-14.1 0-25.5-11.4-25.5-25.5 0-4.3 1.1-8.5 3.1-12.2l48.7-89.4C19.3 344.6 0 294.4 0 240 0 107.5 114.6 0 256 0zm0 48c-117.8 0-208 88.8-208 192 0 42.8 15.1 82.4 41.2 114.7 12.2 15.1 14.1 36.1 4.8 53.2l-18 33.1 58.5-25.1c11.8-5.1 25.2-5.2 37.1-.3 25.7 10.5 54.2 16.4 84.3 16.4 117.8 0 208-88.8 208-192S373.8 48 256 48zm0 320a32 32 0 1 1 0-64 32 32 0 1 1 0 64zm0-256c18.2 0 32.7 15.5 31.4 33.7l-7.4 104c-.9 12.6-11.4 22.3-23.9 22.3-12.6 0-23-9.7-23.9-22.3l-7.4-104C223.3 127.5 237.8 112 256 112z"/></svg>