<svg xmlns="http://www.w3.org/2000/svg" viewBox="0 0 512 512"><path fill="currentColor" d="M0 240c0 54.4 19.3 104.6 51.9 144.9L3.1 474.3c-2 3.7-3.1 7.9-3.1 12.2 0 14.1 11.4 25.5 25.5 25.5 4 0 7.8-.6 11.5-2.1L153.4 460c31.4 12.9 66.1 20 102.6 20 141.4 0 256-107.5 256-240S397.4 0 256 0 0 107.5 0 240zM94 407.9c9.3-17.1 7.4-38.1-4.8-53.2-26.1-32.3-41.2-71.9-41.2-114.7 0-103.2 90.2-192 208-192s208 88.8 208 192-90.2 192-208 192c-30.2 0-58.7-5.9-84.3-16.4-11.9-4.9-25.3-4.8-37.1 .3L76 440.9 94 407.9zm50.4-73.6c-.3 1.1-.4 2.3-.4 3.5 0 7.9 6.4 14.2 14.2 14.2 1.2 0 2.3-.1 3.5-.4l49.4-12.3c8.4-2.1 16.1-6.5 22.3-12.6L354.7 205.3c8.5-8.5 13.3-20 13.3-32 0-25-20.3-45.3-45.3-45.3-12 0-23.5 4.8-32 13.3L169.4 262.6c-6.2 6.2-10.5 13.9-12.6 22.3l-12.3 49.4z"/></svg>