<svg xmlns="http://www.w3.org/2000/svg" viewBox="0 0 512 512"><path fill="currentColor" d="M0 240c0 54.4 19.3 104.6 51.9 144.9L3.1 474.3c-2 3.7-3.1 7.9-3.1 12.2 0 14.1 11.4 25.5 25.5 25.5 4 0 7.8-.6 11.5-2.1L153.4 460c31.4 12.9 66.1 20 102.6 20 141.4 0 256-107.5 256-240S397.4 0 256 0 0 107.5 0 240zM94 407.9c9.3-17.1 7.4-38.1-4.8-53.2-26.1-32.3-41.2-71.9-41.2-114.7 0-103.2 90.2-192 208-192s208 88.8 208 192-90.2 192-208 192c-30.2 0-58.7-5.9-84.3-16.4-11.9-4.9-25.3-4.8-37.1 .3L76 440.9 94 407.9zM312 128l-48 0c-13.3 0-24 10.7-24 24l0 89.8c-5.1-1.2-10.5-1.8-16-1.8-35.3 0-64 25.1-64 56s28.7 56 64 56 64-25.1 64-56l0-104 24 0c13.3 0 24-10.7 24-24l0-16c0-13.3-10.7-24-24-24z"/></svg>