<svg xmlns="http://www.w3.org/2000/svg" viewBox="0 0 576 512"><path fill="currentColor" d="M41-24.9c-9.4-9.4-24.6-9.4-33.9 0S-2.3-.3 7 9.1l528 528c9.4 9.4 24.6 9.4 33.9 0s9.4-24.6 0-33.9l-96.7-96.7c44.4-43.2 71.7-101.9 71.7-166.6 0-132.5-114.6-240-256-240-63.1 0-120.8 21.4-165.4 56.8L41-24.9zM156.8 90.9c35.4-26.7 80.8-43 131.2-43 117.8 0 208 88.8 208 192 0 50.6-21.7 97.7-57.6 132.6L156.8 90.9zM352.7 422.5c-20.2 6.1-41.9 9.4-64.7 9.4-30.2 0-58.7-5.9-84.3-16.4-11.9-4.9-25.3-4.8-37.1 .3l-58.5 25.1 18-33.1c9.3-17.1 7.4-38.1-4.8-53.2-26.1-32.2-41.2-71.9-41.2-114.7 0-26 5.7-51 16.1-74L60.3 130.1C42.2 163 32 200.3 32 239.9 32 294.3 51.3 344.5 83.9 384.8L35.1 474.2c-2 3.7-3.1 7.9-3.1 12.2 0 14.1 11.4 25.5 25.5 25.5 4 0 7.8-.6 11.5-2.1l116.4-49.9c31.4 12.9 66.1 20 102.6 20 36.3 0 70.9-7.1 102.2-19.9l-37.5-37.5z"/></svg>