<svg xmlns="http://www.w3.org/2000/svg" viewBox="0 0 576 512"><path fill="currentColor" d="M70.6 212.8c9.6 13.3 11.7 30.6 5.6 45.9L64.8 287.2 115.3 267c10-4 21.1-4.5 31.4-1.5 14.2 4.2 29.4 6.5 45.3 6.5 83.5 0 144-61.2 144-128S275.6 16 192 16 48 77.2 48 144c0 25.1 8.1 48.7 22.6 68.8zM31.7 240.8C11.7 213.1 0 179.8 0 144 0 46.8 86-32 192-32s192 78.8 192 176-86 176-192 176c-20.5 0-40.3-3-58.9-8.4L36.8 350.1c-3.2 1.3-6.6 1.9-10 1.9-14.8 0-26.8-12-26.8-26.8 0-3.4 .7-6.8 1.9-10l29.7-74.4zM195.2 368c16.4-.2 32.5-2 48.1-5.2 13.6 55.5 68.6 101.2 140.7 101.2 15.9 0 31.1-2.3 45.3-6.5 10.3-3.1 21.4-2.5 31.4 1.5l50.4 20.2-11.4-28.5c-6.1-15.2-4-32.6 5.6-45.9 14.5-20.1 22.6-43.7 22.6-68.8 0-56.6-43.3-109-107.2-123.9 5.1-14.9 8.5-30.6 10.1-46.9 83.3 19.2 145 88.3 145 170.7 0 35.8-11.6 69.1-31.7 96.8l29.7 74.4c1.3 3.2 1.9 6.6 1.9 10 0 14.8-12 26.8-26.8 26.8-3.4 0-6.8-.7-10-1.9l-96.3-38.5c-18.6 5.5-38.4 8.4-58.9 8.4-94.1 0-172.4-62.1-188.8-144zM192 76c-11.5 0-21.3 7.4-24.8 17.8-3.5 10.5-14.8 16.1-25.3 12.6s-16.1-14.8-12.6-25.3c8.8-26.2 33.5-45.2 62.7-45.2 36.5 0 66.1 29.6 66.1 66.1 0 39.2-30 55.7-46.5 61.6-1.8 9.3-9.9 16.2-19.6 16.2-11 0-20-9-20-20 0-17.1 12.4-29.3 25-33.5 5.3-1.8 10.8-4.5 14.8-8.5 3.5-3.4 6.3-8.1 6.3-15.9 0-14.4-11.7-26.1-26.1-26.1zM168 224a24 24 0 1 1 48 0 24 24 0 1 1 -48 0z"/></svg>