<svg xmlns="http://www.w3.org/2000/svg" viewBox="0 0 512 512"><path fill="currentColor" d="M0 240c0 54.4 19.3 104.6 51.9 144.9L3.1 474.3c-2 3.7-3.1 7.9-3.1 12.2 0 14.1 11.4 25.5 25.5 25.5 4 0 7.8-.6 11.5-2.1L153.4 460c31.4 12.9 66.1 20 102.6 20 141.4 0 256-107.5 256-240S397.4 0 256 0 0 107.5 0 240zM94 407.9c9.3-17.1 7.4-38.1-4.8-53.2-26.1-32.2-41.2-71.9-41.2-114.7 0-103.2 90.2-192 208-192s208 88.8 208 192-90.2 192-208 192c-30.2 0-58.7-5.9-84.3-16.4-11.9-4.9-25.3-4.8-37.1 .3L76 440.9 94 407.9zm46.8-235.1c-23 0-41.6 18.6-41.6 41.6S117.8 256 140.8 256c5.3 0 9.6 4.3 9.6 9.6s-4.3 9.6-9.6 9.6l-25.6 0c-8.8 0-16 7.2-16 16s7.2 16 16 16l25.6 0c23 0 41.6-18.6 41.6-41.6S163.8 224 140.8 224c-5.3 0-9.6-4.3-9.6-9.6s4.3-9.6 9.6-9.6l19.2 0c8.8 0 16-7.2 16-16s-7.2-16-16-16l-19.2 0zm188.8 41.6c0 23 18.6 41.6 41.6 41.6 5.3 0 9.6 4.3 9.6 9.6s-4.3 9.6-9.6 9.6l-25.6 0c-8.8 0-16 7.2-16 16s7.2 16 16 16l25.6 0c23 0 41.6-18.6 41.6-41.6S394.2 224 371.2 224c-5.3 0-9.6-4.3-9.6-9.6s4.3-9.6 9.6-9.6l19.2 0c8.8 0 16-7.2 16-16s-7.2-16-16-16l-19.2 0c-23 0-41.6 18.6-41.6 41.6zm-98.3-33.8c-3.7-6.2-11.1-9.1-18-7.2s-11.7 8.2-11.7 15.4l0 102.4c0 8.8 7.2 16 16 16s16-7.2 16-16l0-44.6 8.7 14.5c2.9 4.8 8.1 7.8 13.7 7.8s10.8-3 13.7-7.8l8.7-14.5 0 44.6c0 8.8 7.2 16 16 16s16-7.2 16-16l0-102.4c0-7.2-4.8-13.5-11.7-15.4s-14.3 1-18 7.2l-24.7 41.1-24.7-41.1z"/></svg>