<svg xmlns="http://www.w3.org/2000/svg" viewBox="0 0 512 512"><path fill="currentColor" d="M0 240c0 54.4 19.3 104.6 51.9 144.9L3.1 474.3c-2 3.7-3.1 7.9-3.1 12.2 0 14.1 11.4 25.5 25.5 25.5 4 0 7.8-.6 11.5-2.1L153.4 460c31.4 12.9 66.1 20 102.6 20 141.4 0 256-107.5 256-240S397.4 0 256 0 0 107.5 0 240zM94 407.9c9.3-17.1 7.4-38.1-4.8-53.2-26.1-32.3-41.2-71.9-41.2-114.7 0-103.2 90.2-192 208-192s208 88.8 208 192-90.2 192-208 192c-30.2 0-58.7-5.9-84.3-16.4-11.9-4.9-25.3-4.8-37.1 .3L76 440.9 94 407.9zM249.6 183.5c-11.1-14.8-28.5-23.5-46.9-23.5-32.4 0-58.7 26.3-58.7 58.7l0 5.3c0 49.1 65.8 98.1 96.5 118.3 9.5 6.2 21.5 6.2 30.9 0 30.7-20.2 96.5-69.3 96.5-118.3l0-5.3c0-32.4-26.3-58.7-58.7-58.7-18.5 0-35.9 8.7-46.9 23.5l-6.4 8.5-6.4-8.5z"/></svg>