<svg xmlns="http://www.w3.org/2000/svg" viewBox="0 0 512 512"><path fill="currentColor" d="M96 192l48 0 0 128-48 0c-53 0-96 43-96 96s43 96 96 96 96-43 96-96l0-48 128 0 0 48c0 53 43 96 96 96s96-43 96-96-43-96-96-96l-48 0 0-128 48 0c53 0 96-43 96-96s-43-96-96-96-96 43-96 96l0 48-128 0 0-48c0-53-43-96-96-96S0 43 0 96 43 192 96 192zM256 320l-64 0 0-128 128 0 0 128-64 0zM96 144c-26.5 0-48-21.5-48-48s21.5-48 48-48 48 21.5 48 48l0 48-48 0zm48 272c0 26.5-21.5 48-48 48s-48-21.5-48-48 21.5-48 48-48l48 0 0 48zM368 144l0-48c0-26.5 21.5-48 48-48s48 21.5 48 48-21.5 48-48 48l-48 0zm48 224c26.5 0 48 21.5 48 48s-21.5 48-48 48-48-21.5-48-48l0-48 48 0z"/></svg>