<svg xmlns="http://www.w3.org/2000/svg" viewBox="0 0 640 512"><path fill="currentColor" d="M83.9 384.9C51.3 344.6 32 294.4 32 240 32 107.5 146.6 0 288 0 425 0 536.9 100.9 543.7 227.9 529 217.7 511.8 211 493.2 208.8 477.2 119.5 393.7 48 288 48 170.2 48 80 136.8 80 240 80 282.8 95.1 322.4 121.2 354.7 133.4 369.8 135.3 390.8 126 407.9l-18 33.1 58.5-25.1c11.8-5.1 25.2-5.2 37.1-.3 24.2 9.9 50.9 15.8 79.2 16.4-7.3 15.3-10.8 31.5-10.8 47.6-30.6-1.8-59.8-8.6-86.6-19.6L69 509.9c-3.7 1.6-7.5 2.1-11.5 2.1-14.1 0-25.5-11.4-25.5-25.5 0-4.3 1.1-8.5 3.1-12.2l48.8-89.4zM328.6 448c13.4-23.2 39.1-34.8 64-31.4l34.6-60.5c-7-10.3-11.2-22.7-11.2-36.1 0-35.3 28.7-64 64-64s64 28.7 64 64-28.7 64-64 64c-4.4 0-8.6-.4-12.8-1.3l-33 57.7c3.8 4.8 6.8 10 9 15.6l73.4 0c2.2-5.6 5.3-10.8 9-15.6l-16.5-28.9c15.7-5 29.6-13.9 40.6-25.6l17.6 30.7c25-3.4 50.6 8.3 64 31.4 17.7 30.6 7.2 69.7-23.4 87.4s-69.7 7.2-87.4-23.4c-1.5-2.6-2.8-5.3-3.9-8l-73.3 0c-1.1 2.7-2.4 5.4-3.9 8-17.7 30.6-56.8 41.1-87.4 23.4s-41.1-56.8-23.4-87.4z"/></svg>