<svg xmlns="http://www.w3.org/2000/svg" viewBox="0 0 576 512"><path fill="currentColor" d="M76.2 258.7c6.1-15.2 4-32.6-5.6-45.9-14.5-20.1-22.6-43.7-22.6-68.8 0-66.8 60.5-128 144-128s144 61.2 144 128-60.5 128-144 128c-15.9 0-31.1-2.3-45.3-6.5-10.3-3.1-21.4-2.5-31.4 1.5l-50.4 20.2 11.4-28.5zM0 144c0 35.8 11.6 69.1 31.7 96.8L1.9 315.2c-1.3 3.2-1.9 6.6-1.9 10 0 14.8 12 26.8 26.8 26.8 3.4 0 6.8-.7 10-1.9l96.3-38.5c18.6 5.5 38.4 8.4 58.9 8.4 106 0 192-78.8 192-176S298-32 192-32 0 46.8 0 144zM384 512c20.6 0 40.3-3 58.9-8.4l96.3 38.5c3.2 1.3 6.6 1.9 10 1.9 14.8 0 26.8-12 26.8-26.8 0-3.4-.7-6.8-1.9-10l-29.7-74.4c20-27.8 31.7-61.1 31.7-96.8 0-82.4-61.7-151.5-145-170.7-1.6 16.3-5.1 31.9-10.1 46.9 63.9 14.8 107.2 67.3 107.2 123.9 0 25.1-8.1 48.7-22.6 68.8-9.6 13.3-11.7 30.6-5.6 45.9l11.4 28.5-50.4-20.2c-10-4-21.1-4.5-31.4-1.5-14.2 4.2-29.4 6.5-45.3 6.5-72.2 0-127.1-45.7-140.7-101.2-15.6 3.2-31.7 5-48.1 5.2 16.4 81.9 94.7 144 188.8 144zM167.2 93.8c3.5-10.4 13.3-17.8 24.8-17.8 14.4 0 26.1 11.7 26.1 26.1 0 7.8-2.8 12.5-6.3 15.9-4 3.9-9.5 6.7-14.8 8.5-12.7 4.2-25 16.4-25 33.5 0 11 9 20 20 20 9.8 0 17.9-7 19.6-16.2 16.4-5.9 46.5-22.4 46.5-61.6 0-36.5-29.6-66.1-66.1-66.1-29.2 0-54 18.9-62.7 45.2-3.5 10.5 2.2 21.8 12.6 25.3s21.8-2.2 25.3-12.6zM192 248a24 24 0 1 0 0-48 24 24 0 1 0 0 48zm259.5 56.6c5.6-9 2.9-20.8-6.1-26.5s-20.8-2.9-26.5 6.1l-49.2 78.7-21.6-28.8c-6.4-8.5-18.4-10.2-26.9-3.8s-10.2 18.4-3.8 26.9l38.4 51.2c3.8 5.1 9.8 7.9 16.2 7.7s12.1-3.6 15.5-9l64-102.4z"/></svg>