<svg xmlns="http://www.w3.org/2000/svg" viewBox="0 0 640 512"><path fill="currentColor" d="M115.9 384.9C83.3 344.6 64 294.4 64 240 64 107.5 178.6 0 320 0S576 107.5 576 240c0 14.2-1.3 28.2-3.9 41.7-10.6-6.2-23-9.7-36.1-9.7-3.8 0-7.5 .3-11.1 .8 2-10.7 3.1-21.7 3.1-32.8 0-103.2-90.2-192-208-192S112 136.8 112 240c0 42.8 15.1 82.4 41.2 114.7 12.2 15.1 14.1 36.1 4.8 53.2l-18 33.1 58.5-25.1c11.8-5.1 25.2-5.2 37.1-.3 21.1 8.7 44.1 14.2 68.3 15.9l0 40.6c0 2.6 .1 5.1 .4 7.6-30.8-1.7-60.1-8.6-87-19.6L101 509.9c-3.7 1.6-7.5 2.1-11.5 2.1-14.1 0-25.5-11.4-25.5-25.5 0-4.3 1.1-8.5 3.1-12.2l48.8-89.4zM480 312l0 208c0 13.3-10.7 24-24 24s-24-10.7-24-24l0-208c0-13.3 10.7-24 24-24s24 10.7 24 24zm80 32l0 144c0 13.3-10.7 24-24 24s-24-10.7-24-24l0-144c0-13.3 10.7-24 24-24s24 10.7 24 24zM400 360l0 112c0 13.3-10.7 24-24 24s-24-10.7-24-24l0-112c0-13.3 10.7-24 24-24s24 10.7 24 24zm240 32l0 48c0 13.3-10.7 24-24 24s-24-10.7-24-24l0-48c0-13.3 10.7-24 24-24s24 10.7 24 24z"/></svg>