<svg xmlns="http://www.w3.org/2000/svg" viewBox="0 0 512 512"><path fill="currentColor" d="M256 0C397.4 0 512 107.5 512 240S397.4 480 256 480c-36.5 0-71.2-7.1-102.6-20L37 509.8c-3.7 1.6-7.5 2.2-11.5 2.2-14.1 0-25.5-11.4-25.5-25.5 0-4.3 1.1-8.5 3.1-12.2l48.7-89.4C19.3 344.6 0 294.4 0 240 0 107.5 114.6 0 256 0zm0 48c-117.8 0-208 88.8-208 192 0 42.8 15.1 82.4 41.2 114.7 12.2 15.1 14.1 36.1 4.8 53.2l-18 33.1 58.5-25.1c11.8-5.1 25.2-5.2 37.1-.3 25.7 10.5 54.2 16.4 84.3 16.4 117.8 0 208-88.8 208-192S373.8 48 256 48zm70.7 105.9c7.8-10.7 22.8-13.1 33.5-5.3 10.7 7.8 13.1 22.8 5.3 33.5L243.4 350.1c-4.1 5.7-10.5 9.3-17.5 9.8-7 .5-13.9-2-18.8-6.9l-55.9-55.9c-9.4-9.4-9.4-24.6 0-33.9s24.6-9.4 33.9 0l36 36 105.6-145.2z"/></svg>