<svg xmlns="http://www.w3.org/2000/svg" viewBox="0 0 448 512"><path fill="currentColor" d="M7.5 39c9.4-9.4 24.6-9.4 33.9 0l103 103 0-54.1c0-13.3 10.7-24 24-24s24 10.7 24 24l0 112c0 13.3-10.7 24-24 24l-112 0c-13.3 0-24-10.7-24-24s10.7-24 24-24l54.1 0-103-103c-9.4-9.4-9.4-24.6 0-33.9zm433.9 0c9.4 9.4 9.4 24.6 0 33.9l-103 103 54.1 0c13.3 0 24 10.7 24 24s-10.7 24-24 24l-112 0c-13.3 0-24-10.7-24-24l0-112c0-13.3 10.7-24 24-24s24 10.7 24 24l0 54.1 103-103c9.4-9.4 24.6-9.4 33.9 0zM32.5 312c0-13.3 10.7-24 24-24l112 0c13.3 0 24 10.7 24 24l0 112c0 13.3-10.7 24-24 24s-24-10.7-24-24l0-54.1-103 103c-9.4 9.4-24.6 9.4-33.9 0s-9.4-24.6 0-33.9l103-103-54.1 0c-13.3 0-24-10.7-24-24zm224 0c0-13.3 10.7-24 24-24l112 0c13.3 0 24 10.7 24 24s-10.7 24-24 24l-54.1 0 103 103c9.4 9.4 9.4 24.6 0 33.9s-24.6 9.4-33.9 0l-103-103 0 54.1c0 13.3-10.7 24-24 24s-24-10.7-24-24l0-112z"/></svg>