<svg xmlns="http://www.w3.org/2000/svg" viewBox="0 0 576 512"><path fill="currentColor" d="M252.8 32C244.7 46.1 240 62.5 240 80L64 80c-8.8 0-16 7.2-16 16l0 224c0 8.8 7.2 16 16 16l176 0 0 48-176 0c-35.3 0-64-28.7-64-64L0 96C0 60.7 28.7 32 64 32l188.8 0zM240 432c0 17.5 4.7 33.9 12.8 48L120 480c-13.3 0-24-10.7-24-24s10.7-24 24-24l120 0zM336 80l0 352 192 0 0-352-192 0zm-48 0c0-26.5 21.5-48 48-48l192 0c26.5 0 48 21.5 48 48l0 352c0 26.5-21.5 48-48 48l-192 0c-26.5 0-48-21.5-48-48l0-352zm112 80a32 32 0 1 1 64 0 32 32 0 1 1 -64 0zm32 128a48 48 0 1 1 0 96 48 48 0 1 1 0-96z"/></svg>