<svg xmlns="http://www.w3.org/2000/svg" viewBox="0 0 448 512"><path fill="currentColor" d="M384 48c8.8 0 16 7.2 16 16l0 304c0 8.8-7.2 16-16 16L64 384c-8.8 0-16-7.2-16-16L48 64c0-8.8 7.2-16 16-16l320 0zm32 375.4c19.1-11.1 32-31.7 32-55.4l0-304c0-35.3-28.7-64-64-64L64 0C28.7 0 0 28.7 0 64L0 368c0 23.7 12.9 44.4 32 55.4L32 480c0 17.7 14.3 32 32 32l320 0c17.7 0 32-14.3 32-32l0-56.6zM368 432l0 32-288 0 0-32 288 0zM96 128l0 96c0 17.7 14.3 32 32 32l192 0c17.7 0 32-14.3 32-32l0-96c0-17.7-14.3-32-32-32L128 96c-17.7 0-32 14.3-32 32zM200 320c0 13.3 10.7 24 24 24l104 0c13.3 0 24-10.7 24-24s-10.7-24-24-24l-104 0c-13.3 0-24 10.7-24 24zm-80 24a24 24 0 1 0 0-48 24 24 0 1 0 0 48z"/></svg>