<svg xmlns="http://www.w3.org/2000/svg" viewBox="0 0 576 512"><path fill="currentColor" d="M41-24.9c-9.4-9.4-24.6-9.4-33.9 0S-2.3-.3 7 9.1l528 528c9.4 9.4 24.6 9.4 33.9 0s9.4-24.6 0-33.9l-83.8-83.8C521.9 375 544 318.1 544 256 544 114.6 429.4 0 288 0 225.9 0 169 22.1 124.7 58.8L41-24.9zM158.8 93c35.5-28.2 80.4-45 129.2-45 114.9 0 208 93.1 208 208 0 48.8-16.8 93.7-45 129.2l-89.6-89.6 51.2-133.2c7.5-19.4-11.6-38.5-31-31L248.4 182.6 158.8 93zm216.3 352c-26.5 12.2-56 19.1-87.1 19.1-114.9 0-208-93.1-208-208 0-31.1 6.8-60.6 19.1-87.1L63.3 133.2c-20 36.5-31.3 78.3-31.3 122.8 0 141.4 114.6 256 256 256 44.5 0 86.4-11.4 122.8-31.3l-35.7-35.7zM163.4 349.6c-7.5 19.4 11.6 38.5 31 31l84.1-32.3-82.7-82.7-32.3 84.1z"/></svg>