<svg xmlns="http://www.w3.org/2000/svg" viewBox="0 0 576 512"><path fill="currentColor" d="M348.8 32C340.7 46.1 336 62.5 336 80L64 80c-8.8 0-16 7.2-16 16l0 224c0 8.8 7.2 16 16 16l272 0 0 48-272 0c-35.3 0-64-28.7-64-64L0 96C0 60.7 28.7 32 64 32l284.8 0zM336 432c0 17.5 4.7 33.9 12.8 48L120 480c-13.3 0-24-10.7-24-24s10.7-24 24-24l216 0zM432 80l0 48 96 0 0-48-96 0zm0 96l0 48 96 0 0-48-96 0zm0 96l0 160 96 0 0-160-96 0zM384 80c0-26.5 21.5-48 48-48l96 0c26.5 0 48 21.5 48 48l0 352c0 26.5-21.5 48-48 48l-96 0c-26.5 0-48-21.5-48-48l0-352zm96 240a24 24 0 1 1 0 48 24 24 0 1 1 0-48z"/></svg>