<svg xmlns="http://www.w3.org/2000/svg" viewBox="0 0 512 512"><path fill="currentColor" d="M256 56.8L53.4 432 458.6 432 256 56.8zM256 0c14.7 0 28.2 8.1 35.2 21l216 400c6.7 12.4 6.4 27.4-.8 39.5S486.1 480 472 480L40 480c-14.1 0-27.1-7.4-34.4-19.5s-7.5-27.1-.8-39.5l216-400c7-12.9 20.5-21 35.2-21zM176.5 260c1.8-7 8.2-12 15.5-12l36.2 0c18.2 0 34.8 10.3 42.9 26.5l10.8 21.6 38.7 23.2 5.3-9.7c6.1-11.1 22-11.1 28.1 0l41 74.7c5.8 10.7-1.9 23.7-14 23.7l-82 0c-12.2 0-19.9-13-14-23.7l20.2-36.9-43.5-26.1-77.5-43.3c-6.4-3.6-9.5-11-7.7-18zM256 152a32 32 0 1 1 0 64 32 32 0 1 1 0-64zM159.3 306.9c4.3-1.2 9-.6 12.8 1.8l60.3 37.7c4.7 2.9 7.5 8.1 7.5 13.6l0 32c0 8.8-7.2 16-16 16s-16-7.2-16-16l0-23.1-37.9-23.7-26.8 53.9c-3.9 7.9-13.5 11.1-21.5 7.2s-11.1-13.5-7.2-21.5l34.7-69.7c2-4 5.6-7 10-8.3z"/></svg>