<svg xmlns="http://www.w3.org/2000/svg" viewBox="0 0 576 512"><path fill="currentColor" d="M0 56C0 42.7 10.7 32 24 32l528 0c13.3 0 24 10.7 24 24s-10.7 24-24 24l-8 0 0 352 8 0c13.3 0 24 10.7 24 24s-10.7 24-24 24L24 480c-13.3 0-24-10.7-24-24s10.7-24 24-24l8 0 0-352-8 0C10.7 80 0 69.3 0 56zM80 80l0 352 416 0 0-352-416 0zm40 72c0-13.3 10.7-24 24-24s24 10.7 24 24l0 208c0 13.3-10.7 24-24 24s-24-10.7-24-24l0-208zm216-24c13.3 0 24 10.7 24 24l0 208c0 13.3-10.7 24-24 24s-24-10.7-24-24l0-208c0-13.3 10.7-24 24-24zm72 24c0-13.3 10.7-24 24-24s24 10.7 24 24l0 208c0 13.3-10.7 24-24 24s-24-10.7-24-24l0-208zM240 128c13.3 0 24 10.7 24 24l0 208c0 13.3-10.7 24-24 24s-24-10.7-24-24l0-208c0-13.3 10.7-24 24-24z"/></svg>