<svg xmlns="http://www.w3.org/2000/svg" viewBox="0 0 640 512"><path fill="currentColor" d="M96 24c0-13.3 10.7-24 24-24L328 0c13.3 0 24 10.7 24 24s-10.7 24-24 24l-80 0 0 80 127.4 0c.2 0 .4 0 .6 0l64 0c22.1 0 40 17.9 40 40l0 32c0 13.3-10.7 24-24 24s-24-10.7-24-24l0-24-16 0 0 0-192 0c-13.3 0-24-10.7-24-24l0-104-80 0c-13.3 0-24-10.7-24-24zM416 280c0-13.3 10.7-24 24-24l48 0c13.3 0 24 10.7 24 24l0 32c0 2.8-.5 5.5-1.4 8l33.4 0c53 0 96 43 96 96s-43 96-96 96L96 512c-53 0-96-43-96-96s43-96 96-96l1.4 0c-.9-2.5-1.4-5.2-1.4-8l0-32c0-13.3 10.7-24 24-24l48 0c13.3 0 24 10.7 24 24l0 32c0 2.8-.5 5.5-1.4 8l66.7 0c-.9-2.5-1.4-5.2-1.4-8l0-32c0-13.3 10.7-24 24-24l48 0c13.3 0 24 10.7 24 24l0 32c0 2.8-.5 5.5-1.4 8l66.7 0c-.9-2.5-1.4-5.2-1.4-8l0-32zM96 368c-26.5 0-48 21.5-48 48s21.5 48 48 48l448 0c26.5 0 48-21.5 48-48s-21.5-48-48-48L96 368zm32 16a32 32 0 1 1 0 64 32 32 0 1 1 0-64zm160 32a32 32 0 1 1 64 0 32 32 0 1 1 -64 0zm224-32a32 32 0 1 1 0 64 32 32 0 1 1 0-64z"/></svg>