<svg xmlns="http://www.w3.org/2000/svg" viewBox="0 0 640 512"><path fill="currentColor" d="M272 48l0 160-160 0 0-160 160 0zM112 0C85.5 0 64 21.5 64 48l0 160c0 26.5 21.5 48 48 48l160 0c26.5 0 48-21.5 48-48l0-160c0-26.5-21.5-48-48-48L112 0zM528 112l0 96-96 0 0-96 96 0zM432 64c-26.5 0-48 21.5-48 48l0 96c0 26.5 21.5 48 48 48l96 0c26.5 0 48-21.5 48-48l0-96c0-26.5-21.5-48-48-48l-96 0zM592 416c0 26.5-21.5 48-48 48L96 464c-26.5 0-48-21.5-48-48s21.5-48 48-48l448 0c26.5 0 48 21.5 48 48zM96 320c-53 0-96 43-96 96s43 96 96 96l448 0c53 0 96-43 96-96s-43-96-96-96L96 320zm64 96a32 32 0 1 0 -64 0 32 32 0 1 0 64 0zm160 32a32 32 0 1 0 0-64 32 32 0 1 0 0 64zm224-32a32 32 0 1 0 -64 0 32 32 0 1 0 64 0z"/></svg>