<svg xmlns="http://www.w3.org/2000/svg" viewBox="0 0 640 512"><path fill="currentColor" d="M208 48l224 0 0 160-224 0 0-160zm-48 0l0 160c0 26.5 21.5 48 48 48l224 0c26.5 0 48-21.5 48-48l0-160c0-26.5-21.5-48-48-48L208 0c-26.5 0-48 21.5-48 48zM544 368c26.5 0 48 21.5 48 48s-21.5 48-48 48L96 464c-26.5 0-48-21.5-48-48s21.5-48 48-48l448 0zM96 320c-53 0-96 43-96 96s43 96 96 96l448 0c53 0 96-43 96-96s-43-96-96-96L96 320zm64 96a32 32 0 1 0 -64 0 32 32 0 1 0 64 0zm160 32a32 32 0 1 0 0-64 32 32 0 1 0 0 64zm224-32a32 32 0 1 0 -64 0 32 32 0 1 0 64 0z"/></svg>