<svg xmlns="http://www.w3.org/2000/svg" viewBox="0 0 512 512"><path fill="currentColor" d="M448 0c-14.6 0-28.1 4.9-38.8 13.1-7.7-3.3-16.2-5.1-25.2-5.1-20.3 0-38.5 9.5-50.2 24.3-1.9-.2-3.9-.3-5.8-.3-20.3 0-38.5 9.5-50.2 24.3-1.9-.2-3.9-.3-5.8-.3-19.9 0-37.7 9.1-49.4 23.4l3.6 3.6c11.8 11.8 21.9 25.1 30 39.5 0-.3 0-.7-.1-1 0-.5-.1-.9-.1-1.4 0-8.8 7.2-16 16-16 2.6 0 5 .6 7.1 1.7 6.3 3.1 13.7 3.3 20.1 .6s11.4-8.2 13.5-15c2-6.5 8.1-11.3 15.3-11.3 2.6 0 5 .6 7.1 1.7 6.3 3.1 13.7 3.3 20.1 .6s11.4-8.2 13.5-15c2-6.5 8.1-11.3 15.3-11.3 4.6 0 8.7 1.9 11.6 5 5.3 5.5 12.8 8.3 20.4 7.3s14.3-5.4 18-12.1c2.8-5 8-8.2 14-8.2 8.8 0 16 7.2 16 16 0 6-3.3 11.2-8.2 14-6.7 3.7-11.2 10.4-12.1 18s1.8 15.2 7.3 20.4c3.1 2.9 5 7 5 11.6 0 7.2-4.7 13.3-11.3 15.3-6.7 2.1-12.2 7-15 13.5s-2.6 13.8 .6 20.1c1 2.1 1.7 4.5 1.7 7.1 0 7.2-4.7 13.3-11.3 15.3-6.7 2.1-12.2 7-15 13.5s-2.6 13.8 .6 20.1c1 2.1 1.7 4.5 1.7 7.1 0 7-4.5 12.9-10.7 15.1 7.2 4.8 14.2 10.2 20.7 16.1L435.5 287c12.6-11.7 20.5-28.4 20.5-47 0-2-.1-3.9-.3-5.8 14.8-11.7 24.3-29.8 24.3-50.2 0-2-.1-3.9-.3-5.8 14.8-11.7 24.3-29.8 24.3-50.2 0-8.9-1.8-17.4-5.1-25.2 8.2-10.8 13.1-24.2 13.1-38.8 0-35.3-28.7-64-64-64zM169 71c-6.1-6.1-15-8.5-23.4-6.2s-14.8 8.9-16.9 17.3l-21.9 87.4c-.4 1.4-1.1 2.7-2.1 3.7L41.9 236.1C15.1 263 0 299.4 0 337.4 0 373.4 13.6 408.1 38 434.5L66.1 465c27.6 30 66.6 47 107.3 47 38.7 0 75.9-15.4 103.3-42.8l62.9-62.9c.9-.9 1.9-1.5 3.1-1.9l88.8-29.6c8.1-2.7 14.2-9.5 15.9-17.9s-1.1-17-7.4-22.7l-28.5-25.7c-37.5-33.8-86.3-52.5-136.8-52.5-9 0-17.9 .6-26.7 1.8l0-44.7c0-40.3-16-79-44.5-107.5L169 71zm31 142l0 57.1c-25.9 10.2-49.7 25.7-69.8 45.7L60.9 385.2c-8.4-14.4-12.9-30.9-12.9-47.8 0-25.3 10-49.5 27.9-67.3l62.8-62.8c7.2-7.2 12.3-16.2 14.7-26l11.6-46.3 4.5 4.5C189 159 200 185.4 200 213zM101.4 432.5l-9.6-10.3 72.3-72.3c29.3-29.3 69.1-45.8 110.6-45.8 37.7 0 74.1 13.6 102.5 38.3l-49.7 16.6c-8.2 2.7-15.7 7.4-21.9 13.5l-62.9 62.9c-18.4 18.4-43.3 28.7-69.3 28.7-27.4 0-53.5-11.4-72.1-31.5z"/></svg>