<svg xmlns="http://www.w3.org/2000/svg" viewBox="0 0 512 512"><path fill="currentColor" d="M96 192l0 36.1c25.6 9 44.5 32.1 47.6 59.9l224.9 0c3.1-27.8 22-50.9 47.6-59.9l0-36.1c0-44.2-35.8-80-80-80l-160 0c-44.2 0-80 35.8-80 80zM48 228.1L48 192c0-70.7 57.3-128 128-128l160 0c70.7 0 128 57.3 128 128l0 36.1c28 9.9 48 36.6 48 67.9l0 64c0 40.3-27.1 74.2-64 84.7l0 11.3c0 13.3-10.7 24-24 24s-24-10.7-24-24l0-8-288 0 0 8c0 13.3-10.7 24-24 24s-24-10.7-24-24l0-11.3C27.1 434.2 0 400.3 0 360l0-64c0-31.4 20-58 48-67.9zM48 296l0 64c0 22.1 17.9 40 40 40l336 0c22.1 0 40-17.9 40-40l0-64c0-13.3-10.7-24-24-24s-24 10.7-24 24l0 16c0 13.3-10.7 24-24 24l-272 0c-13.3 0-24-10.7-24-24l0-16c0-13.3-10.7-24-24-24s-24 10.7-24 24z"/></svg>