<svg xmlns="http://www.w3.org/2000/svg" viewBox="0 0 448 512"><path fill="currentColor" d="M184 32l80 0c4.4 0 8 3.6 8 8l0 24-96 0 0-24c0-4.4 3.6-8 8-8zm-56 8l0 24c-28.5 .6-53.3 20-60.6 47.7l-66 251C.5 366.2 0 369.8 0 373.5 0 397 19 416 42.5 416l363 0c23.5 0 42.5-19 42.5-42.5 0-3.6-.5-7.3-1.4-10.8l-66-251C373.3 84 348.5 64.6 320 64l0-24c0-30.9-25.1-56-56-56l-80 0c-30.9 0-56 25.1-56 56zM49.6 368l64.2-244.1c1.8-7 8.2-11.9 15.5-11.9l189.3 0c7.3 0 13.6 4.9 15.5 11.9L398.4 368 49.6 368zM224 512c32.8 0 61-19.7 73.3-48l-146.7 0c12.3 28.3 40.5 48 73.3 48z"/></svg>