<svg xmlns="http://www.w3.org/2000/svg" viewBox="0 0 576 512"><path fill="currentColor" d="M216 32l80 0c4.4 0 8 3.6 8 8l0 24-96 0 0-24c0-4.4 3.6-8 8-8zm-56 8l0 24c-28.5 .6-53.3 20-60.6 47.7l-66 251c-.9 3.5-1.4 7.2-1.4 10.8 0 23.5 19 42.5 42.5 42.5l166.2 0c-.4-5.3-.7-10.6-.7-16 0-10.9 .9-21.6 2.7-32l-161 0 64.2-244.1c1.8-7 8.2-11.9 15.5-11.9l189.3 0c7.3 0 13.6 4.9 15.5 11.9l23.4 88.8c13.7-3.1 27.9-4.7 42.5-4.7 2 0 4 0 5.9 .1l-25.4-96.4C405.3 84 380.5 64.6 352 64l0-24c0-30.9-25.1-56-56-56l-80 0c-30.9 0-56 25.1-56 56zm22.7 424c12.3 28.3 40.5 48 73.3 48 6.4 0 12.6-.7 18.5-2.2-9.8-14-17.8-29.4-23.6-45.8l-68.3 0zM432 544a144 144 0 1 0 0-288 144 144 0 1 0 0 288zm16-208l0 48 48 0c8.8 0 16 7.2 16 16s-7.2 16-16 16l-48 0 0 48c0 8.8-7.2 16-16 16s-16-7.2-16-16l0-48-48 0c-8.8 0-16-7.2-16-16s7.2-16 16-16l48 0 0-48c0-8.8 7.2-16 16-16s16 7.2 16 16z"/></svg>