<svg xmlns="http://www.w3.org/2000/svg" viewBox="0 0 512 512"><path fill="currentColor" d="M22.5 55.5C8.3 76.1 0 101.1 0 128l0 33.3c0 28.1 16.3 53.6 41.8 65.4L98.9 253c-2.2 3.6-4.2 7.2-6 11l-31.2 0-26.9-13.5c-11.9-5.9-26.3-1.1-32.2 10.7s-1.1 26.3 10.7 32.2l32 16c3.3 1.7 7 2.5 10.7 2.5l24.2 0c-.2 2.6-.2 5.3-.2 8l0 1.4-23.6 7.9c-3.5 1.2-6.7 3.2-9.4 5.8L15 367c-9.4 9.4-9.4 24.6 0 33.9s24.6 9.4 33.9 0l28-28 30-10 18.1 18.1-36.6 12.2c-3.5 1.2-6.7 3.2-9.4 5.8L47 431c-9.4 9.4-9.4 24.6 0 33.9s24.6 9.4 33.9 0l28-28 42.2-14.1-16.1 16.1c-4.5 4.5-7 10.6-7 17l0 32c0 13.3 10.7 24 24 24s24-10.7 24-24l0-22.1 17.9-17.9 124.1 0 17.9 17.9 0 22.1c0 13.3 10.7 24 24 24s24-10.7 24-24l0-32c0-6.4-2.5-12.5-7-17l-16.1-16.1 42.2 14.1 28 28c9.4 9.4 24.6 9.4 33.9 0s9.4-24.6 0-33.9l-32-32c-2.6-2.6-5.8-4.6-9.4-5.8L387 381 405 363 435 373 463 401c9.4 9.4 24.6 9.4 33.9 0s9.4-24.6 0-33.9l-32-32c-2.6-2.6-5.8-4.6-9.4-5.8l-23.6-7.9 0-1.4c0-2.7-.1-5.4-.2-8l24.2 0c3.7 0 7.4-.9 10.7-2.5l32-16c11.9-5.9 16.7-20.3 10.7-32.2s-20.3-16.7-32.2-10.7l-26.9 13.5-31.2 0c-1.9-3.8-3.9-7.5-6.1-11.1l56.7-26.2c25.5-11.8 41.8-37.3 41.8-65.4l0-33.3c0-26.9-8.3-51.9-22.5-72.5-19.4-33.1-55.3-55.5-96.7-55.5L325.2 0c-3.1 0-5.7 2.5-5.7 5.7 0 1.5 .6 2.9 1.7 4l40.7 40.7c5 5 1.5 13.7-5.7 13.7l-28.7 0c-4.4 0-8.1 3.6-7.5 8 3.9 31.6 30.9 56 63.5 56l80 0 0 33.3c0 9.4-5.4 17.9-13.9 21.8l-71.1 32.8c-16.9-12.1-36.9-20.2-58.5-22.9l0-41c0-13.3-10.7-24-24-24s-24 10.7-24 24l0 40-32 0 0-40c0-13.3-10.7-24-24-24s-24 10.7-24 24l0 41c-21.7 2.7-41.7 10.9-58.7 23L61.9 183.1C53.4 179.2 48 170.6 48 161.3l0-33.3 80 0c32.6 0 59.6-24.4 63.5-56 .5-4.4-3.1-8-7.5-8l-36.7 0c-7.1 0-10.7-8.6-5.7-13.7l36.7-36.7c5-5 1.5-13.7-5.7-13.7L119.2 0C77.8 0 41.9 22.4 22.5 55.5zM296 240l8 0c42.9 0 77.9 33.8 79.9 76.2l-83.8 83.8-88.2 0-83.8-83.8c2-42.4 37-76.2 79.9-76.2l88 0z"/></svg>