<svg xmlns="http://www.w3.org/2000/svg" viewBox="0 0 384 512"><path fill="currentColor" d="M192-32c-8.9 0-17 4.9-21.2 12.7S167.1-2.1 172 5.3l10.8 16.3c.7 1.1 1.1 2.4 1.1 3.7 0 3.7-3 6.7-6.7 6.7L140 32c-42 0-76 34-76 76 0 5.4 .6 10.7 1.7 15.8-38 11.3-65.7 46.5-65.7 88.2 0 34.9 19.4 65.2 48 80.8L48 344c0 21.3 11.9 39.8 29.4 49.3l8.3 99.4c2.4 29 26.7 51.4 55.8 51.4l101.1 0c29.1 0 53.4-22.3 55.8-51.4l8.3-99.4c17.5-9.5 29.4-28 29.4-49.3l0-51.2c28.6-15.6 48-45.9 48-80.8 0-41.9-28.1-77.3-66.4-88.4 1.6-6.3 2.4-12.8 2.4-19.6l0-8c0-70.7-57.3-128-128-128zm96 336l0 40c0 4.1-3 7.4-7 7.9-11.3 1.4-20 10.5-20.9 21.8l-9.6 114.9c-.3 4.1-3.8 7.3-8 7.3l-101.1 0c-4.2 0-7.6-3.2-8-7.3l-9.6-114.9c-.9-11.3-9.7-20.4-20.9-21.8-3.9-.5-7-3.9-7-7.9l0-40 192 0zm4-48L92 256c-24.3 0-44-19.7-44-44s19.7-44 44-44l20 0c13.3 0 24-10.7 24-24 0-12.3-9.3-22.5-21.2-23.8-1.8-3.7-2.8-7.8-2.8-12.2 0-15.5 12.5-28 28-28l37.3 0c29.7 0 53.9-23.7 54.7-53.3 23.9 13.8 40 39.7 40 69.3l0 8c0 5.8-1.5 11.3-4.3 16L232 120c-13.3 0-24 10.7-24 24s10.7 24 24 24l60 0c24.3 0 44 19.7 44 44s-19.7 44-44 44z"/></svg>