<svg xmlns="http://www.w3.org/2000/svg" viewBox="0 0 512 512"><path fill="currentColor" d="M256 48c48.8 0 93.7 16.8 129.1 44.9l-83.9 83.9-46-128.8 .8 0zm163.1 78.9c11.8 14.9 21.6 31.4 29 49.1l-78.1 0 49.1-49.1zM321.9 224l138.8 0C486 224 507.4 199.5 498.1 172.6 463.5 72.2 368.2 0 256 0 114.6 0 0 114.6 0 256 0 368.2 72.2 463.5 172.6 498.1 199.5 507.4 224 486 224 460.7l0-138.8 3.9-3.9 8.7 3.7c15 6.4 32.5 3.1 44-8.5l33.2-33.2c10.9-10.9 14.6-27.2 9.4-41.7l-4.1-11.5 2.9-2.9zM180.4 297.7L92.9 385.1c-28.1-35.5-44.9-80.4-44.9-129.1 0-5 .2-9.9 .5-14.8l131.8 56.5zM126.9 419.1l49.1-49.1 0 78.1c-17.8-7.4-34.3-17.2-49.1-29zM57.7 192.9C79.5 124.4 135.9 71.2 206.4 54l69.9 195.8-25.8 25.8-192.8-82.6z"/></svg>