<svg xmlns="http://www.w3.org/2000/svg" viewBox="0 0 576 512"><path fill="currentColor" d="M288-16c13.3 0 24 10.7 24 24l0 25.3C416.5 44.4 499.6 127.5 510.7 232l25.3 0c13.3 0 24 10.7 24 24s-10.7 24-24 24l-25.3 0C499.6 384.5 416.5 467.6 312 478.7l0 25.3c0 13.3-10.7 24-24 24s-24-10.7-24-24l0-25.3C159.5 467.6 76.4 384.5 65.3 280L40 280c-13.3 0-24-10.7-24-24s10.7-24 24-24l25.3 0C76.4 127.5 159.5 44.4 264 33.3L264 8c0-13.3 10.7-24 24-24zM113.6 280C124.3 358 186 419.7 264 430.4l0-22.4c0-13.3 10.7-24 24-24s24 10.7 24 24l0 22.4C390 419.7 451.7 358 462.4 280L440 280c-13.3 0-24-10.7-24-24s10.7-24 24-24l22.4 0C451.7 154 390 92.3 312 81.6l0 22.4c0 13.3-10.7 24-24 24s-24-10.7-24-24l0-22.4C186 92.3 124.3 154 113.6 232l22.4 0c13.3 0 24 10.7 24 24s-10.7 24-24 24l-22.4 0zM288 224a32 32 0 1 1 0 64 32 32 0 1 1 0-64z"/></svg>