<svg xmlns="http://www.w3.org/2000/svg" viewBox="0 0 640 512"><path fill="currentColor" d="M445.5 .1c27.3 1.4 51.9 13.4 69.7 31.9l59 0c29.4 0 55 20 62.1 48.5 2.1 8.6-3.1 17.3-11.7 19.4l-80.5 20.1 0 72-.2 9.9c-4.2 83.6-61.9 153-139.6 174.9l42.1 102.1 .8 2.3c3.5 11.7-2.4 24.3-13.9 29-11.5 4.7-24.5-.1-30.3-10.8l-1-2.2-46.6-113.2-3.2 .1-40.8 0 39.1 94.9 .8 2.3c3.5 11.7-2.4 24.3-13.9 29-11.5 4.7-24.5-.1-30.3-10.8l-1-2.2-46.6-113.1-148.8 0-63.4 50.7-2 1.4c-9.5 6.1-22.2 4.8-30.1-3.3L13.3 431c-8.3-10.3-6.6-25.5 3.7-33.8l319-255.2 0-38c0-57.4 46.6-104 104-104l5.4 .1zM440.1 48c-29 0-52.8 22-55.7 50.3l-.3 5.7 0 47.4c0 .2 0 .4 0 .6l0 25.8c0 66.2-35.3 125.7-90 158.2l57.9 0c79.5 0 144-64.5 144-144l0-88c0-29-22-52.9-50.3-55.7l-5.7-.3zM190.4 320l41.5-9.9 5.7-1.5c49-14 85.3-54 95.5-102.7L190.4 320zM440.1 128a24 24 0 1 1 0-48 24 24 0 1 1 0 48z"/></svg>