<svg xmlns="http://www.w3.org/2000/svg" viewBox="0 0 576 512"><path fill="currentColor" d="M318.3 82.1c6.1-7 9.7-16.1 9.7-26.1 0-22.1-17.9-40-40-40s-40 17.9-40 40c0 10 3.7 19.1 9.7 26.1L184.1 192.6 95 145.1c.7-2.9 1-5.9 1-9.1 0-22.1-17.9-40-40-40s-40 17.9-40 40c0 20.2 15 36.9 34.4 39.6L86.8 375.7c7.6 41.8 44.1 72.3 86.6 72.3l229.2 0c42.5 0 79-30.4 86.6-72.3l36.4-200.1c19.5-2.7 34.4-19.4 34.4-39.6 0-22.1-17.9-40-40-40s-40 17.9-40 40c0 3.1 .4 6.1 1 9.1l-89.1 47.5-73.6-110.4zM212 237.3l76-114 76 114c6.8 10.3 20.4 13.7 31.3 7.9l76.2-40.6-29.6 162.6c-3.5 19-20 32.8-39.4 32.8l-229.2 0c-19.3 0-35.9-13.8-39.4-32.8l-29.6-162.6 76.2 40.6c10.9 5.8 24.4 2.4 31.3-7.9z"/></svg>