<svg xmlns="http://www.w3.org/2000/svg" viewBox="0 0 512 512"><path fill="currentColor" d="M295.5 7c9.4-9.4 24.6-9.4 33.9 0l176 176c9.4 9.4 9.4 24.6 0 33.9s-24.6 9.4-33.9 0l-15-15-156.3 156.3C283.7 374.7 261.3 384 238 384l-59 0c-10.6 0-20.8 4.2-28.3 11.7-67.1 67.1-103.5 103.5-109.3 109.3-9.4 9.4-24.6 9.4-33.9 0s-9.4-24.6 0-33.9l24-24 0 0 85.3-85.3c7.5-7.5 11.7-17.7 11.7-28.3l0-59c0-23.3 9.3-45.7 25.8-62.2L310.6 56 295.5 41c-9.4-9.4-9.4-24.6 0-33.9zm49 82.9l-94.1 94.1 78.1 78.1 94.1-94.1-78.1-78.1zm-128 128l-28.3 28.3c-7.5 7.5-11.7 17.7-11.7 28.3l0 59c0 .8 0 1.7 0 2.5 .8 0 1.7 0 2.5 0l59 0c10.6 0 20.8-4.2 28.3-11.7l28.3-28.3-78.1-78.1z"/></svg>