<svg xmlns="http://www.w3.org/2000/svg" viewBox="0 0 576 512"><path fill="currentColor" d="M393 7c-9.4-9.4-24.6-9.4-33.9 0s-9.4 24.6 0 33.9l15 15-156.3 156.3c-16.5 16.5-25.8 38.9-25.8 62.2l0 59c0 10.6-4.2 20.8-11.7 28.3L95 447 95 447 71 471c-9.4 9.4-9.4 24.6 0 33.9s24.6 9.4 33.9 0c5.8-5.8 42.2-42.2 109.3-109.3 7.5-7.5 17.7-11.7 28.3-11.7l59 0c23.3 0 45.7-9.3 62.2-25.8L520 201.9 535 217c9.4 9.4 24.6 9.4 33.9 0s9.4-24.6 0-33.9L393 7zm93.1 161L392 262.1 313.9 184 408 89.9 486.1 168zM251.7 246.2l28.3-28.3 78.1 78.1-28.3 28.3c-7.5 7.5-17.7 11.7-28.3 11.7l-59 0c-.9 0-1.7 0-2.5 0 0-.8 0-1.7 0-2.5l0-59c0-10.6 4.2-20.8 11.7-28.3zM201.9 56l15-15c9.4-9.4 9.4-24.6 0-33.9S192.4-2.3 183 7L7 183c-9.4 9.4-9.4 24.6 0 33.9s24.6 9.4 33.9 0l15-15 88 88 0-15.4c0-15.4 2.6-30.6 7.6-44.8L89.9 168 168 89.9 220.1 142.1 254.1 108.1 201.9 56zM447 481l24 24c9.4 9.4 24.6 9.4 33.9 0s9.4-24.6 0-33.9l-24-24 0 0-69.1-69.1-14.2 14.2c-6.7 6.7-14 12.6-21.8 17.7L447 481z"/></svg>