<svg xmlns="http://www.w3.org/2000/svg" viewBox="0 0 448 512"><path fill="currentColor" d="M64 254.5c0-96.8 78.5-175.2 175.2-175.2 46.6 0 88.9 18.1 120.3 47.8 9.6 9.1 24.8 8.7 33.9-1s8.7-24.8-1-33.9C352.5 54.4 298.6 31.2 239.2 31.2 116 31.2 16 131.2 16 254.5S116 477.7 239.2 477.7c59.3 0 113.3-23.2 153.2-60.9 9.6-9.1 10.1-24.3 1-33.9s-24.3-10.1-33.9-1c-31.2 29.5-73.2 47.6-119.5 47.8l0-89.5c0-9.1 2.4-18 6.9-25.9 9.3-16.3 26.6-26.3 45.4-26.3l11.8 0c13.3 0 24-10.7 24-24s-10.7-24-24-24l-11.8 0c-18.8 0-36.8 5.3-52.3 14.7-.7-12.7-11.1-22.7-24-22.7-13.3 0-24 10.7-24 24l0 167.3C118.2 402.7 64 334.9 64 254.5z"/></svg>