<svg xmlns="http://www.w3.org/2000/svg" viewBox="0 0 512 512"><path fill="currentColor" d="M232 48l48 0 0 48-48 0 0-48zM216 0c-17.7 0-32 14.3-32 32l0 80c0 17.7 14.3 32 32 32l80 0c17.7 0 32-14.3 32-32l0-80c0-17.7-14.3-32-32-32L216 0zm16 464l0-48 48 0 0 48-48 0zm-48-64l0 80c0 17.7 14.3 32 32 32l80 0c17.7 0 32-14.3 32-32l0-80c0-17.7-14.3-32-32-32l-80 0c-17.7 0-32 14.3-32 32zm232 64l0-48 48 0 0 48-48 0zm-48-64l0 80c0 17.7 14.3 32 32 32l80 0c17.7 0 32-14.3 32-32l0-80c0-17.7-14.3-32-32-32l-80 0c-17.7 0-32 14.3-32 32zM328 280l0-48 48 0 0 48-48 0zm-48-64l0 80c0 17.7 14.3 32 32 32l80 0c17.7 0 32-14.3 32-32l0-80c0-17.7-14.3-32-32-32l-80 0c-17.7 0-32 14.3-32 32zm-120 6.1L193.9 256 160 289.9 126.1 256 160 222.1zm22.6-45.3c-12.5-12.5-32.8-12.5-45.3 0L80.8 233.4c-12.5 12.5-12.5 32.8 0 45.3l56.6 56.6c12.5 12.5 32.8 12.5 45.3 0l56.6-56.6c12.5-12.5 12.5-32.8 0-45.3l-56.6-56.6zM48 464l0-48 48 0 0 48-48 0zM0 400l0 80c0 17.7 14.3 32 32 32l80 0c17.7 0 32-14.3 32-32l0-80c0-17.7-14.3-32-32-32l-80 0c-17.7 0-32 14.3-32 32z"/></svg>