<svg xmlns="http://www.w3.org/2000/svg" viewBox="0 0 512 512"><path fill="currentColor" d="M248.3 39.1c5-2.9 11-2.9 16 0l159.8 92.3-167.8 96.9-167.8-96.9 159.8-92.3zM64.5 173l167.8 96.9 0 193.8-159.8-92.3c-5-2.9-8-8.1-8-13.9l0-184.6zM280.3 463.7l0-193.8 167.8-96.9 0 184.6c0 5.7-3 11-8 13.9L280.3 463.7zm8-466.1c-19.8-11.4-44.2-11.4-64 0L48.5 99c-19.8 11.4-32 32.6-32 55.4l0 203c0 22.9 12.2 44 32 55.4L224.3 514.5c19.8 11.4 44.2 11.4 64 0L464.2 413c19.8-11.4 32-32.6 32-55.4l0-203c0-22.9-12.2-44-32-55.4L288.3-2.5z"/></svg>