<svg xmlns="http://www.w3.org/2000/svg" viewBox="0 0 384 512"><path fill="currentColor" d="M178.5 25.6C185 1.1 207.2-16 232.6-16L264-16c13.3 0 24 10.7 24 24s-10.7 24-24 24l-31.4 0c-3.6 0-6.8 2.4-7.7 5.9L209.4 96 352 96c13.3 0 24 10.7 24 24s-10.7 24-24 24L323.8 468.2C321.7 493 300.9 512 276 512l-168 0c-24.9 0-45.7-19-47.8-43.8L32 144c-13.3 0-24-10.7-24-24S18.7 96 32 96l127.7 0 18.8-70.4zM303.8 144L80.2 144 96.4 331c17.3-3.2 30.2-7.6 40.2-12.5 19.3-9.5 30.1-22 42.8-37.6l1.9-2.3c12.3-15.2 27.4-33.8 53.1-47.7 16.9-9.1 37.4-15.7 63.6-19.5l5.9-67.4zM293.7 260.8c-15.9 3.1-27.5 7.5-36.5 12.3-17.2 9.3-26.9 21.2-39.9 37.2l-.7 .8c-13.3 16.4-29.5 35.9-58.7 50.4-15.6 7.7-34.2 13.7-57.3 17.5l7.4 85 168 0 17.7-203.2z"/></svg>