<svg xmlns="http://www.w3.org/2000/svg" viewBox="0 0 448 512"><path fill="currentColor" d="M109.7 48l228.9 0c3.2 0 6.1 1.9 7.4 4.9L364 96 85.3 96 102.3 53.1c1.2-3.1 4.2-5.1 7.4-5.1zM416 96L390.4 34.5C381.7 13.6 361.3 0 338.7 0L109.7 0c-23 0-43.6 14-52.1 35.4L33.7 96 24 96C10.7 96 0 106.7 0 120s10.7 24 24 24l400 0c13.3 0 24-10.7 24-24s-10.7-24-24-24l-8 0zM50.4 192L74.6 453.9c3 32.9 30.7 58.1 63.7 58.1l171.3 0c33.1 0 60.7-25.2 63.7-58.1l24.2-261.9-48.2 0-4.4 48-242 0-4.4-48-48.2 0zm67.5 208l212.3 0-4.6 49.5c-.8 8.2-7.7 14.5-15.9 14.5l-171.3 0c-8.3 0-15.2-6.3-15.9-14.5L117.8 400z"/></svg>