<svg xmlns="http://www.w3.org/2000/svg" viewBox="0 0 448 512"><path fill="currentColor" d="M202.8 12.7C207 4.9 215.1 0 224 0l13.3 0c72.2 0 130.7 58.5 130.7 130.7 0 2-.1 4.1-.2 6.1 45.3 5.8 80.2 44.4 80.2 91.3 0 37-21.8 68.8-53.3 83.5l-1.1 8.5-18.2 136.5C371.2 488.3 344 512 312 512L136 512c-32.1 0-59.2-23.7-63.4-55.5L54.4 320 53.3 311.5C21.8 296.9 0 265 0 228 0 181.3 34.9 142.7 80 136.8l0-.8c0-39.8 32.2-72 72-72l57.3 0c3.7 0 6.7-3 6.7-6.7 0-1.3-.4-2.6-1.1-3.7L204 37.3c-4.9-7.4-5.4-16.8-1.2-24.6zM301.5 320l-11.5 144 22 0c8 0 14.8-5.9 15.9-13.9l17.3-130.1-43.7 0zm-48.2 0l-58.7 0 11.5 144 35.7 0 11.5-144zM158 464l-11.5-144-43.7 0 17.3 130.1c1.1 7.9 7.8 13.9 15.9 13.9l22 0zM400 228c0-24.3-19.7-44-44-44l-20.8 0c-8.8 0-16.9-4.8-21.1-12.6s-3.8-17.2 1.1-24.6c3-4.6 4.8-10.1 4.8-16.1 0-36.4-23.5-67.3-56.2-78.3 .2 1.7 .2 3.3 .2 5 0 30.2-24.5 54.7-54.7 54.7L152 112c-13.3 0-24 10.7-24 24 0 4.4 1.2 8.5 3.2 12 4.3 7.4 4.3 16.6 0 24s-12.2 12-20.8 12L92 184c-24.3 0-44 19.7-44 44s19.7 44 44 44l264 0c24.3 0 44-19.7 44-44z"/></svg>