<svg xmlns="http://www.w3.org/2000/svg" viewBox="0 0 512 512"><path fill="currentColor" d="M360 32c13.3 0 24 10.7 24 24s-10.7 24-24 24L216 80c-22.1 0-40 17.9-40 40l0 24 184 0c47.8 0 86.5 38.1 87.8 85.5 37.4 13.1 64.2 48.7 64.2 90.5l0 64c0 53-43 96-96 96l-320 0-4.9-.1C40.3 477.3 0 435.4 0 384l0-64c0-41.8 26.8-77.3 64.1-90.5 1.1-39.2 27.7-71.9 63.9-82.1l0-27.4c0-48.6 39.4-88 88-88l144 0zM48 384c0 26.5 21.5 48 48 48l320 0c26.5 0 48-21.5 48-48l0-8-416 0 0 8zM96 272c-26.5 0-48 21.5-48 48l0 8 416 0 0-8c0-26.5-21.5-48-48-48L96 272zm56-80c-19.4 0-35.5 13.7-39.2 32l286.4 0c-3.7-18.3-19.8-32-39.2-32l-208 0z"/></svg>