<svg xmlns="http://www.w3.org/2000/svg" viewBox="0 0 448 512"><path fill="currentColor" d="M41.5 39c-9.4-9.4-24.6-9.4-33.9 0S-1.8 63.6 7.5 73l65.3 65.3C47.5 170.8 32.5 211.6 32.5 256s15 85.2 40.3 117.7L7.5 439c-9.4 9.4-9.4 24.6 0 33.9s24.6 9.4 33.9 0l65.3-65.3C139.3 433 180.1 448 224.5 448s85.2-15 117.7-40.3L407.5 473c9.4 9.4 24.6 9.4 33.9 0s9.4-24.6 0-33.9l-65.3-65.3c25.3-32.5 40.3-73.4 40.3-117.7s-15-85.2-40.3-117.7L441.5 73c9.4-9.4 9.4-24.6 0-33.9s-24.6-9.4-33.9 0l-65.3 65.3C309.7 79 268.9 64 224.5 64s-85.2 15-117.7 40.3L41.5 39zm38 217a144.5 144.5 0 1 1 289 0 144.5 144.5 0 1 1 -289 0z"/></svg>