<svg xmlns="http://www.w3.org/2000/svg" viewBox="0 0 512 512"><path fill="currentColor" d="M72 16c13.3 0 24 10.7 24 24l0 252.3 150.7-157c9.2-9.6 24.4-9.9 33.9-.7s9.9 24.4 .7 33.9L170.6 283.9 283.5 442.1c7.7 10.8 5.2 25.8-5.6 33.5s-25.8 5.2-33.5-5.6L136.8 319.2 96 361.7 96 456c0 13.3-10.7 24-24 24s-24-10.7-24-24L48 40c0-13.3 10.7-24 24-24zM390.4 236.8C381.1 249.3 376 264.4 376 280l0 176c0 13.3-10.7 24-24 24s-24-10.7-24-24l0-272c0-13.3 10.7-24 24-24s24 10.7 24 24c20.5-15.4 45.7-24 72-24l16 0c13.3 0 24 10.7 24 24s-10.7 24-24 24l-16 0c-22.7 0-44 10.7-57.6 28.8zM464 416a32 32 0 1 1 0 64 32 32 0 1 1 0-64z"/></svg>