<svg xmlns="http://www.w3.org/2000/svg" viewBox="0 0 576 512"><path fill="currentColor" d="M288 16c0-8.8-7.2-16-16-16s-16 7.2-16 16l0 24c0 30.9 25.1 56 56 56l40 0-50.4 12.6c-8 2-13.6 9.2-13.6 17.4 0 9.9 8 18 18 18l28.2 0-7.2 24-191 0c-36.5 0-68.3 20.4-84.5 50.4-9.2 13.7-15.1 30-16.2 47.6L32 319c-.6 8.8 6.2 16.4 15 17 8.5 .5 15.9-5.7 16.9-14.1l1.1 1.1c4.5 4.5 7 10.6 7 17l0 4.3c0 2.6-.4 5.1-1.2 7.6l-8.2 24.7c-5.1 15.4-4.9 32.1 .6 47.4l22.5 61.8c5.7 15.8 20.8 26.3 37.6 26.3l46 0c27.8 0 47.1-27.6 37.6-53.7l-17.8-48.8 6.5-4.3c15.2-10.1 25.6-25.4 29.9-42.4 20 8.7 41.7 13.3 63.8 13.3l6.8 0 0 96c0 22.1 17.9 40 40 40l48 0c22.1 0 40-17.9 40-40l0-160.2c0-2.6 .4-5.1 1.2-7.6l16.1-48.2 42.3 0c37.8 0 68.4-30.6 68.4-68.4 0-19.3-8.1-37.6-22.4-50.6L476.2 88.4C492.8 78.7 504 60.7 504 40l0-24c0-8.8-7.2-16-16-16s-16 7.2-16 16l0 24c0 13.3-10.7 24-24 24l-69.4 0c3.5-7.3 5.4-15.4 5.4-24l0-24c0-8.8-7.2-16-16-16s-16 7.2-16 16l0 24c0 13.3-10.7 24-24 24l-16 0c-13.3 0-24-10.7-24-24l0-24zm130.1 96c8.1 0 15.9 3 21.9 8.5l57.3 52.1c4.2 3.9 6.7 9.3 6.7 15.1 0 11.3-9.1 20.4-20.4 20.4L424 208c-10.3 0-19.5 6.6-22.8 16.4L379.7 289c-2.4 7.3-3.7 15-3.7 22.8l0 152.2-32 0 0-112c0-13.3-10.7-24-24-24l-30.8 0c-22.1 0-43.7-6.5-62.1-18.8L213.3 300c-8-5.3-18.3-5.4-26.3-.2s-12.2 14.7-10.6 24.1l2.9 17.4c1.6 9.3-2.5 18.7-10.4 23.9L146.7 380c-9.2 6.1-13 17.8-9.2 28.2l20.3 55.8-28.9 0-20.5-56.5c-1.9-5.1-1.9-10.7-.2-15.8l8.2-24.7c2.4-7.3 3.7-15 3.7-22.8l0-4.3c0-19.1-7.6-37.4-21.1-50.9L95 285.1c-4.5-4.5-7-10.6-7-17l0-4.1c0-26.5 21.5-48 48-48l208.9 0c10.6 0 20-7 23-17.1l19-63.6c4.1-13.8 16.8-23.2 31.2-23.2zM448 160a16 16 0 1 0 -32 0 16 16 0 1 0 32 0z"/></svg>