<svg xmlns="http://www.w3.org/2000/svg" viewBox="0 0 640 512"><path fill="currentColor" d="M434.7 64c17 0 33.3 6.7 45.3 18.7L630.6 233.4c6 6 9.4 14.1 9.4 22.6s-3.4 16.6-9.4 22.6L480 429.3c-12 12-28.3 18.7-45.3 18.7L128 448c-35.3 0-64-28.7-64-64l0-256c0-35.3 28.7-64 64-64l306.7 0zM112 128l0 256c0 8.8 7.2 16 16 16l306.7 0c4.2 0 8.3-1.7 11.3-4.7L585.4 256 446.1 116.7c-3-3-7.1-4.7-11.3-4.7L128 112c-8.8 0-16 7.2-16 16zm243.9 60.1c9.4 9.4 9.4 24.6 0 33.9l-33.9 33.9 33.9 33.9c9.4 9.4 9.4 24.6 0 33.9s-24.6 9.4-33.9 0l-33.9-33.9-33.9 33.9c-9.4 9.4-24.6 9.4-33.9 0s-9.4-24.6 0-33.9l33.9-33.9-33.9-33.9c-9.4-9.4-9.4-24.6 0-33.9s24.6-9.4 33.9 0l33.9 33.9 33.9-33.9c9.4-9.4 24.6-9.4 33.9 0z"/></svg>