<svg xmlns="http://www.w3.org/2000/svg" viewBox="0 0 640 512"><path fill="currentColor" d="M102.2 4.7c-2.4 6.5-6.2 18.4-6.2 27.3 0 12.7 5 22.8 11.1 30.5-5.3 3.6-10.2 7.9-14.7 12.6l-70.6 76c-14 15.1-21.8 35-21.8 55.5 0 44.7 36.2 81.4 81.2 81.4 13.8 0 27.4-3.5 39.4-10.2l36.4-20.2 35 75.7 0 122.7c0 30.9 25.1 56 56 56l32 0c30.9 0 56-25.1 56-56l0-24 96 0 0 24c0 30.9 25.1 56 56 56l32 0c30.9 0 56-25.1 56-56l0-240c0-7.3-.9-14.3-2.5-21 11.5 11.6 18.5 27.5 18.5 45 0 13.3 10.7 24 24 24s24-10.7 24-24c0-61.9-50.1-112-112-112l-39.8 0-.2 0-196.9 0c-1.8 0-3.5-.6-5-1.7L209.9 66.1c7.3-8 14.1-19.3 14.1-34.1 0-8.9-3.8-20.9-6.2-27.3-1-2.8-3.8-4.7-6.8-4.7-1.9 0-3.8 .7-5.2 2.1L160 45.7 114.2 2.1c-1.4-1.3-3.2-2.1-5.2-2.1-3 0-5.8 1.8-6.8 4.7zM291.1 176c108.1 0 173.7 0 197 0 22 .1 39.9 17.9 39.9 40l0 88-296.6 0-41.6-90.1c-2.8-6.1-8-10.7-14.3-12.8s-13.3-1.4-19.1 1.8l-59 32.8c-4.9 2.7-10.5 4.2-16.1 4.2-18.2 0-33.2-14.9-33.2-33.4 0-8.5 3.2-16.7 8.9-22.8l70.6-76c7.1-7.7 17.1-12.2 27.5-12.4 9.1-.2 17.9 2.7 25 8.3L256.4 164c9.9 7.8 22.1 12 34.7 12zM240 352l288 0 0 104c0 4.4-3.6 8-8 8l-32 0c-4.4 0-8-3.6-8-8l0-48c0-13.3-10.7-24-24-24l-144 0c-13.3 0-24 10.7-24 24l0 48c0 4.4-3.6 8-8 8l-32 0c-4.4 0-8-3.6-8-8l0-104zm32-88a24 24 0 1 0 0-48 24 24 0 1 0 0 48zm216-24a24 24 0 1 0 -48 0 24 24 0 1 0 48 0zM368 264a24 24 0 1 0 0-48 24 24 0 1 0 0 48z"/></svg>