<svg xmlns="http://www.w3.org/2000/svg" viewBox="0 0 576 512"><path fill="currentColor" d="M41-24.9c-9.4-9.4-24.6-9.4-33.9 0S-2.3-.3 7 9.1l528 528c9.4 9.4 24.6 9.4 33.9 0s9.4-24.6 0-33.9L481.8 416c34.5-1 62.2-29.2 62.2-64l0-256c0-35.3-28.7-64-64-64L97.8 32 41-24.9zM145.8 80L480 80c8.8 0 16 7.2 16 16l0 256c0 8.8-7.2 16-16 16l-46.2 0-288-288zM298.2 368L96 368c-8.8 0-16-7.2-16-16l0-202.2-48-48 0 250.2c0 35.3 28.7 64 64 64l115.7 0-8 48-51.7 0c-13.3 0-24 10.7-24 24s10.7 24 24 24l272 0c5.1 0 9.9-1.6 13.8-4.4l-43.6-43.6-21.8 0-4.4-26.2-69.8-69.8zm-37.8 48l55.3 0 8 48-71.3 0 8-48z"/></svg>