<svg xmlns="http://www.w3.org/2000/svg" viewBox="0 0 512 512"><path fill="currentColor" d="M448 80c8.8 0 16 7.2 16 16l0 176-416 0 0-176c0-8.8 7.2-16 16-16l384 0zm16 240l0 32c0 8.8-7.2 16-16 16L64 368c-8.8 0-16-7.2-16-16l0-32 416 0zM64 32C28.7 32 0 60.7 0 96L0 352c0 35.3 28.7 64 64 64l115.7 0-8 48-51.7 0c-13.3 0-24 10.7-24 24s10.7 24 24 24l272 0c13.3 0 24-10.7 24-24s-10.7-24-24-24l-51.7 0-8-48 115.7 0c35.3 0 64-28.7 64-64l0-256c0-35.3-28.7-64-64-64L64 32zM220.3 464l8-48 55.3 0 8 48-71.3 0z"/></svg>