<svg xmlns="http://www.w3.org/2000/svg" viewBox="0 0 512 512"><path fill="currentColor" d="M280 24l0 118.1 15-15c9.4-9.4 24.6-9.4 33.9 0s9.4 24.6 0 33.9l-56 56c-9.4 9.4-24.6 9.4-33.9 0l-56-56c-9.4-9.4-9.4-24.6 0-33.9s24.6-9.4 33.9 0l15 15 0-118.1c0-13.3 10.7-24 24-24s24 10.7 24 24zM64 32l112 0 0 48-112 0c-8.8 0-16 7.2-16 16l0 176 416 0 0-176c0-8.8-7.2-16-16-16l-112 0 0-48 112 0c35.3 0 64 28.7 64 64l0 256c0 35.3-28.7 64-64 64l-115.7 0 8 48 51.7 0c13.3 0 24 10.7 24 24s-10.7 24-24 24l-272 0c-13.3 0-24-10.7-24-24s10.7-24 24-24l51.7 0 8-48-115.7 0c-35.3 0-64-28.7-64-64L0 96C0 60.7 28.7 32 64 32zM464 352l0-32-416 0 0 32c0 8.8 7.2 16 16 16l384 0c8.8 0 16-7.2 16-16zM220.3 464l71.3 0-8-48-55.3 0-8 48z"/></svg>