<svg xmlns="http://www.w3.org/2000/svg" viewBox="0 0 576 512"><path fill="currentColor" d="M528 64c26.5 0 48 21.5 48 48l0 48c0 20.9-13.4 38.6-32 45.2L544 424c0 13.3-10.7 24-24 24s-24-10.7-24-24l0-24-192 0 0 24c0 13.3-10.7 24-24 24s-24-10.7-24-24l0-216-176 0 0 216c0 13.3-10.7 24-24 24s-24-10.7-24-24l0-218.8C13.4 198.6 0 180.9 0 160l0-48C0 87.1 18.9 66.7 43.1 64.2L48 64 528 64zM304 208l0 144 192 0 0-144-192 0zm120 48c13.3 0 24 10.7 24 24s-10.7 24-24 24l-48 0c-13.3 0-24-10.7-24-24s10.7-24 24-24l48 0zM48 160l480 0 0-48-480 0 0 48z"/></svg>