<svg xmlns="http://www.w3.org/2000/svg" viewBox="0 0 448 512"><path fill="currentColor" d="M384 80c8.8 0 16 7.2 16 16l0 64c0 8.8-7.2 16-16 16L64 176c-8.8 0-16-7.2-16-16l0-64c0-8.8 7.2-16 16-16l320 0zM64 32C28.7 32 0 60.7 0 96l0 64c0 35.3 28.7 64 64 64l8 0 0 96c0 48.6 39.4 88 88 88l32 0 0 8c0 35.3 28.7 64 64 64l128 0c35.3 0 64-28.7 64-64l0-64c0-35.3-28.7-64-64-64l-128 0c-35.3 0-64 28.7-64 64l0 8-32 0c-22.1 0-40-17.9-40-40l0-96 264 0c35.3 0 64-28.7 64-64l0-64c0-35.3-28.7-64-64-64L64 32zM384 336c8.8 0 16 7.2 16 16l0 64c0 8.8-7.2 16-16 16l-128 0c-8.8 0-16-7.2-16-16l0-64c0-8.8 7.2-16 16-16l128 0z"/></svg>