<svg xmlns="http://www.w3.org/2000/svg" viewBox="0 0 512 512"><path fill="currentColor" d="M48 80l0 96 96 0 0-96-96 0zM0 80C0 53.5 21.5 32 48 32l96 0c26.5 0 48 21.5 48 48l0 24 128 0 0-24c0-26.5 21.5-48 48-48l96 0c26.5 0 48 21.5 48 48l0 96c0 26.5-21.5 48-48 48l-96 0c-26.5 0-48-21.5-48-48l0-24-128 0 0 24c0 10.4-3.3 20.1-9 28l63 84 90 0c26.5 0 48 21.5 48 48l0 96c0 26.5-21.5 48-48 48l-96 0c-26.5 0-48-21.5-48-48l0-96c0-10.4 3.3-20.1 9-28l-63-84-90 0c-26.5 0-48-21.5-48-48L0 80zM240 336l0 96 96 0 0-96-96 0zM464 80l-96 0 0 96 96 0 0-96z"/></svg>