<svg xmlns="http://www.w3.org/2000/svg" viewBox="0 0 576 512"><path fill="currentColor" d="M327.6 112c-2.5 0-4.8 1.1-6.3 3.1l-68.8 87.5c-10.6 13.5-26.8 21.4-44 21.4L24 224c-13.3 0-24-10.7-24-24s10.7-24 24-24l184.4 0c2.5 0 4.8-1.1 6.3-3.1l68.8-87.5c10.6-13.5 26.8-21.4 44-21.4L520 64c13.3 0 24 10.7 24 24s-10.7 24-24 24l-192.4 0zM212 320L266 396.6c1.5 2.1 3.9 3.4 6.5 3.4L520 400c13.3 0 24 10.7 24 24s-10.7 24-24 24l-247.4 0c-18.2 0-35.3-8.8-45.8-23.7L153.2 320 24 320c-13.3 0-24-10.7-24-24s10.7-24 24-24l496 0c13.3 0 24 10.7 24 24s-10.7 24-24 24l-308 0z"/></svg>