<svg xmlns="http://www.w3.org/2000/svg" viewBox="0 0 640 512"><path fill="currentColor" d="M224 432c-97.2 0-176-78.8-176-176S126.8 80 224 80c15.9 0 31.4 2.1 46 6.1-47.8 41.1-78 102-78 169.9s30.3 128.8 78 169.9c-14.7 4-30.1 6.1-46 6.1zm17.1-156l157.8 0c-1.6 13.9-4.8 27.3-9.4 40l-139 0c-4.6-12.7-7.8-26.1-9.4-40zM320 403.5c-19.2-12.5-35.8-28.7-48.9-47.5l97.7 0c-13 18.8-29.6 35-48.9 47.5zM271.1 156c13-18.8 29.6-35 48.9-47.5 19.2 12.5 35.8 28.7 48.9 47.5l-97.7 0zm-20.7 40l139 0c4.6 12.7 7.8 26.1 9.4 40l-157.8 0c1.6-13.9 4.8-27.3 9.4-40zM224 480c34.4 0 66.9-7.7 96-21.6 29.1 13.8 61.6 21.6 96 21.6 123.7 0 224-100.3 224-224S539.7 32 416 32C381.6 32 349.1 39.7 320 53.6 290.9 39.7 258.4 32 224 32 100.3 32 0 132.3 0 256S100.3 480 224 480zM416 80c97.2 0 176 78.8 176 176S513.2 432 416 432c-15.9 0-31.4-2.1-46-6.1 47.8-41.1 78-102 78-169.9S417.7 127.2 370 86.1c14.7-4 30.1-6.1 46-6.1z"/></svg>