<svg xmlns="http://www.w3.org/2000/svg" viewBox="0 0 448 512"><path fill="currentColor" d="M400 96c0-8.8-7.2-16-16-16L64 80c-8.8 0-16 7.2-16 16l0 64c0 8.8 7.2 16 16 16l320 0c8.8 0 16-7.2 16-16l0-64zm48 64c0 35.3-28.7 64-64 64L64 224c-35.3 0-64-28.7-64-64L0 96C0 60.7 28.7 32 64 32l320 0c35.3 0 64 28.7 64 64l0 64zM400 352c0-8.8-7.2-16-16-16L64 336c-8.8 0-16 7.2-16 16l0 64c0 8.8 7.2 16 16 16l320 0c8.8 0 16-7.2 16-16l0-64zm48 64c0 35.3-28.7 64-64 64L64 480c-35.3 0-64-28.7-64-64l0-64c0-35.3 28.7-64 64-64l320 0c35.3 0 64 28.7 64 64l0 64z"/></svg>