<svg xmlns="http://www.w3.org/2000/svg" viewBox="0 0 448 512"><path fill="currentColor" d="M295 127c9.4-9.4 24.6-9.4 33.9 0l15 15 0-38.1c0-13.3-10.7-24-24-24l-98 0c1.3 5.1 2 10.5 2 16l0 64c0 35.3-28.7 64-64 64l-96 0c-35.3 0-64-28.7-64-64L0 96C0 60.7 28.7 32 64 32l256 0c39.8 0 72 32.2 72 72l0 38.1 15-15c9.4-9.4 24.6-9.4 33.9 0s9.4 24.6 0 33.9l-56 56c-9.4 9.4-24.6 9.4-33.9 0l-56-56c-9.4-9.4-9.4-24.6 0-33.9zM400 336c0-8.8-7.2-16-16-16L64 320c-8.8 0-16 7.2-16 16l0 80c0 8.8 7.2 16 16 16l320 0c8.8 0 16-7.2 16-16l0-80zm48 80c0 35.3-28.7 64-64 64L64 480c-35.3 0-64-28.7-64-64l0-80c0-35.3 28.7-64 64-64l320 0c35.3 0 64 28.7 64 64l0 80zM176 96c0-8.8-7.2-16-16-16L64 80c-8.8 0-16 7.2-16 16l0 64c0 8.8 7.2 16 16 16l96 0c8.8 0 16-7.2 16-16l0-64zM112 360l224 0c8.8 0 16 7.2 16 16s-7.2 16-16 16l-224 0c-8.8 0-16-7.2-16-16s7.2-16 16-16z"/></svg>