<svg xmlns="http://www.w3.org/2000/svg" viewBox="0 0 448 512"><path fill="currentColor" d="M384 224l-25.8 0c3.6-16 1.7-33-5.7-48l31.5 0c8.8 0 16-7.2 16-16l0-64c0-8.8-7.2-16-16-16L64 80c-8.8 0-16 7.2-16 16l0 64c0 8.8 7.2 16 16 16l31.5 0c-7.4 15-9.3 32-5.7 48L64 224c-35.3 0-64-28.7-64-64L0 96C0 60.7 28.7 32 64 32l320 0c35.3 0 64 28.7 64 64l0 64c0 35.3-28.7 64-64 64zM48 416c0 8.8 7.2 16 16 16l320 0c8.8 0 16-7.2 16-16l0-64c0-8.8-7.2-16-16-16L64 336c-8.8 0-16 7.2-16 16l0 64zM0 352c0-35.3 28.7-64 64-64l136 0 0-86.1-23 23c-9.4 9.4-24.6 9.4-33.9 0s-9.4-24.6 0-33.9l64-64c9.4-9.4 24.6-9.4 33.9 0l64 64c9.4 9.4 9.4 24.6 0 33.9s-24.6 9.4-33.9 0l-23-23 0 86.1 136 0c35.3 0 64 28.7 64 64l0 64c0 35.3-28.7 64-64 64L64 480c-35.3 0-64-28.7-64-64l0-64z"/></svg>