<svg xmlns="http://www.w3.org/2000/svg" viewBox="0 0 576 512"><path fill="currentColor" d="M464 80l0 192 64 0 0-176c0-8.8-7.2-16-16-16l-48 0zm-48 0l-48 0 0 80 48 0 0-80zm-96 0l-64 0 0 192 64 0 0-192zM208 80l-48 0 0 80 48 0 0-80zm-96 0L64 80c-8.8 0-16 7.2-16 16l0 176 64 0 0-192zM48 320l0 96c0 8.8 7.2 16 16 16l200 0 0-112-216 0zM312 432l200 0c8.8 0 16-7.2 16-16l0-96-216 0 0 112zM0 96C0 60.7 28.7 32 64 32l448 0c35.3 0 64 28.7 64 64l0 320c0 35.3-28.7 64-64 64L64 480c-35.3 0-64-28.7-64-64L0 96zM208 272l0-64-48 0 0 64 48 0zm208-64l-48 0 0 64 48 0 0-64z"/></svg>