<svg xmlns="http://www.w3.org/2000/svg" viewBox="0 0 448 512"><path fill="currentColor" d="M96 48a16 16 0 1 0 -32 0 16 16 0 1 0 32 0zM24 48A56 56 0 1 1 136 48 56 56 0 1 1 24 48zm360 0a16 16 0 1 0 -32 0 16 16 0 1 0 32 0zm-72 0a56 56 0 1 1 112 0 56 56 0 1 1 -112 0zM224 64a16 16 0 1 0 0-32 16 16 0 1 0 0 32zm0-72a56 56 0 1 1 0 112 56 56 0 1 1 0-112zM96 192a16 16 0 1 0 -32 0 16 16 0 1 0 32 0zm-72 0a56 56 0 1 1 112 0 56 56 0 1 1 -112 0zm344 16a16 16 0 1 0 0-32 16 16 0 1 0 0 32zm0-72a56 56 0 1 1 0 112 56 56 0 1 1 0-112zM240 192a16 16 0 1 0 -32 0 16 16 0 1 0 32 0zm-72 0a56 56 0 1 1 112 0 56 56 0 1 1 -112 0zM80 352a16 16 0 1 0 0-32 16 16 0 1 0 0 32zm0-72a56 56 0 1 1 0 112 56 56 0 1 1 0-112zm304 56a16 16 0 1 0 -32 0 16 16 0 1 0 32 0zm-72 0a56 56 0 1 1 112 0 56 56 0 1 1 -112 0zm-88 16a16 16 0 1 0 0-32 16 16 0 1 0 0 32zm0-72a56 56 0 1 1 0 112 56 56 0 1 1 0-112zm16 200c0-8.8-7.2-16-16-16s-16 7.2-16 16 7.2 16 16 16 16-7.2 16-16zm40 0c0 30.9-25.1 56-56 56s-56-25.1-56-56 25.1-56 56-56 56 25.1 56 56z"/></svg>