<svg xmlns="http://www.w3.org/2000/svg" viewBox="0 0 512 512"><path fill="currentColor" d="M345.1 133c18.7-18.7 18.7-49.1 0-67.9L297 17C286.1 6.1 271.4 0 256 0s-30.1 6.1-41 17L166.9 65.1c-18.7 18.7-18.7 49.1 0 67.9l55.1 55.1c18.7 18.7 49.1 18.7 67.9 0L345.1 133zM249 50.9c1.9-1.9 4.4-2.9 7-2.9s5.2 1 7 2.9L311.1 99 256 154.2 200.9 99 249 50.9zm-116 116c-18.7-18.7-49.1-18.7-67.9 0L17 215C6.1 225.9 0 240.6 0 256s6.1 30.1 17 41l48.1 48.1c18.7 18.7 49.1 18.7 67.9 0l55.1-55.1c18.7-18.7 18.7-49.1 0-67.9L133 166.9zM50.9 249l48.1-48.1 55.1 55.1-55.1 55.1-48.1-48.1 0 0c-1.9-1.9-2.9-4.4-2.9-7s1-5.2 2.9-7zM200.9 413L256 357.8 311.1 413 263 461.1c-1.9 1.9-4.4 2.9-7 2.9s-5.2-1-7-2.9L200.9 413zm89.1-89.1c-18.7-18.7-49.1-18.7-67.9 0L166.9 379c-18.7 18.7-18.7 49.1 0 67.9L215 495c10.9 10.9 25.6 17 41 17s30.1-6.1 41-17l48.1-48.1c18.7-18.7 18.7-49.1 0-67.9l-55.1-55.1zm157-157c-18.7-18.7-49.1-18.7-67.9 0l-55.1 55.1c-18.7 18.7-18.7 49.1 0 67.9L379 345.1c18.7 18.7 49.1 18.7 67.9 0L495 297c10.9-10.9 17-25.6 17-41s-6.1-30.1-17-41l-48.1-48.1zM461.1 249c1.9 1.9 2.9 4.4 2.9 7s-1 5.2-2.9 7L413 311.1 357.8 256 413 200.9 461.1 249z"/></svg>