<svg xmlns="http://www.w3.org/2000/svg" viewBox="0 0 512 512"><path fill="currentColor" d="M50.9 249L249 50.9c1.9-1.9 4.4-2.9 7-2.9s5.2 1 7 2.9L461.1 249c1.9 1.9 2.9 4.4 2.9 7s-1 5.2-2.9 7L263 461.1c-1.9 1.9-4.4 2.9-7 2.9s-5.2-1-7-2.9L50.9 263c-1.9-1.9-2.9-4.4-2.9-7s1-5.2 2.9-7zM215 17L17 215C6.1 225.9 0 240.6 0 256s6.1 30.1 17 41L215 495c10.9 10.9 25.6 17 41 17s30.1-6.1 41-17L495 297c10.9-10.9 17-25.6 17-41s-6.1-30.1-17-41L297 17C286.1 6.1 271.4 0 256 0s-30.1 6.1-41 17zM361 257c9.4-9.4 9.4-24.6 0-33.9l-64-64c-9.4-9.4-24.6-9.4-33.9 0s-9.4 24.6 0 33.9l23 23-54.1 0c-39.8 0-72 32.2-72 72l0 24c0 13.3 10.7 24 24 24s24-10.7 24-24l0-24c0-13.3 10.7-24 24-24l54.1 0-23 23c-9.4 9.4-9.4 24.6 0 33.9s24.6 9.4 33.9 0l64-64z"/></svg>