<svg xmlns="http://www.w3.org/2000/svg" viewBox="0 0 512 512"><path fill="currentColor" d="M454.6 192.4c32.3 3.3 57.5 30.5 57.5 63.7l0 192-.3 6.5c-3.1 30.1-27 54.1-57.1 57.1l-6.5 .3-192 0-6.5-.3c-30.1-3.1-54.1-27-57.1-57.1l-.3-6.5 0-30.2 38.3 10.3 6 1.4c1.2 .3 2.4 .5 3.7 .7l0 17.8c0 8.8 7.2 16 16 16l192 0c8.8 0 16-7.2 16-16l0-192c0-8.8-7.2-16-16-16l-43.1 0 12.9-48 30.2 0 6.5 .3zM55.5 46.2C67.6 14.4 100.6-4.7 134.2 .8l7.2 1.6 189.5 50.8 7 2.2c34.1 13 53.5 49.9 43.9 85.9l-50.8 189.6-2.3 7c-12.1 31.8-45.1 50.9-78.7 45.4l-7.2-1.5-189.5-50.8c-36-9.7-58.3-45-52.4-81l1.5-7.2 50.8-189.5 2.3-7zM126 48.1c-10.8-1.5-21.4 4.7-25.4 14.8l-1.3 3.9-50.4 188.4c-3.4 12.8 4.2 26 17 29.4l189.5 50.8 0 0c12 3.2 24.3-3.2 28.6-14.6l.8-2.4 50.8-189.5 .8-4.5c.7-10.3-5.3-20.1-15-24l-3.8-1.2-186.9-50.1-4.5-1zM246.1 297.3a28 28 0 1 1 -28-48.5 28 28 0 1 1 28 48.5zm-121-41a28 28 0 1 1 -28-48.5 28 28 0 1 1 28 48.5zm81-40a28 28 0 1 1 -28-48.5 28 28 0 1 1 28 48.5zm81-40a28 28 0 1 1 -28-48.5 28 28 0 1 1 28 48.5zm-121-41a28 28 0 1 1 -28-48.5 28 28 0 1 1 28 48.5z"/></svg>