<svg xmlns="http://www.w3.org/2000/svg" viewBox="0 0 512 512"><path fill="currentColor" d="M219.8 11c19.2-22.5 54-22.5 73.1 0L498.8 253.2c16.6 19.5 14.9 48.5-3.7 66.1l-205.9 193.8-3.6 3.1c-17.2 13.3-41.4 13.3-58.6 0L223.5 513 17.6 319.3C.2 302.8-2.3 276.3 11 257L13.9 253.2 219.8 11zM76.8 309l155.6 146.4 0-98.1-86.1-53-69.5 4.6zm203.6 48.3l0 98.1 155.6-146.4-69.5-4.6-86.1 53zM182.1 270l74.3 45.8 74.3-45.8-74.3-188.6-74.3 188.6zM69.9 261.4l65.7-4.4 53.5-135.8-119.2 140.2zM377.1 257l65.7 4.4-119.2-140.2 53.5 135.8z"/></svg>