<svg xmlns="http://www.w3.org/2000/svg" viewBox="0 0 512 512"><path fill="currentColor" d="M228.2-10.2c17.6-8.5 38.1-8.5 55.7 0l3.7 2 192 108.8c18.8 10.7 30.8 30 32.3 51.4l.2 4.3 0 215.5c0 21.6-10.9 41.7-28.8 53.4l-3.7 2.2-192 108.8c-19.6 11.1-43.6 11.1-63.1 0L32.4 427.4C12.4 416.1 0 394.8 0 371.8l0-215.5 .2-4.3c1.4-21.4 13.5-40.7 32.3-51.4l192-108.8 3.7-2zM232 485.4l0-55.7-135-20.8 135 76.5zm48-55.7l0 55.7 134.9-76.4-134.9 20.8zM77.4 357.3l135 20.8-62.3-117.5-72.7 96.7zm222.2 20.8l135-20.8-72.7-96.7-62.3 117.5zM256 357.8l62.5-117.8-125 0 62.5 117.8zM48 316.5l71.2-94.7-71.2-47.7 0 142.4zm344.8-94.7l71.2 94.7 0-142.3-71.2 47.7zM192.9 192L319.1 192 256 69.1 192.9 192zM72.7 132.9l71.9 48.2 64.3-125.4-136.2 77.2zM367.5 181l71.8-48.1-136.2-77.2 64.3 125.3z"/></svg>