<svg xmlns="http://www.w3.org/2000/svg" viewBox="0 0 512 512"><path fill="currentColor" d="M311.7 .1c9.8 .6 19.3 3.5 27.8 8.4L428.6 60c9.7 5.6 17.8 13.7 23.4 23.4l51.5 89.1c5.6 9.7 8.6 20.8 8.6 32l0 102.9-.1 4.2c-.6 9.8-3.5 19.3-8.4 27.8l-51.5 89.1-2.2 3.6c-5.4 8.1-12.7 14.9-21.2 19.8l-89.1 51.5-3.7 2c-7.5 3.7-15.7 5.9-24.1 6.5l-4.2 .1-102.9 0-4.2-.1c-8.4-.6-16.6-2.8-24.1-6.5l-3.7-2-89.1-51.5c-8.5-4.9-15.7-11.7-21.2-19.8L60 428.6 8.6 339.4c-4.9-8.5-7.8-18-8.4-27.8L0 307.4 0 204.6c0-9.8 2.3-19.5 6.6-28.3l2-3.7 51.5-89.1c4.9-8.5 11.7-15.7 19.8-21.2L83.4 60 172.6 8.6c8.5-4.9 18-7.8 27.8-8.4l4.2-.1 102.9 0 4.2 .1zM158.4 335.5l52.9 128.5 89.3 0 52.9-128.5-97.5-52.3-97.6 52.3zm246.2 2l-39.4 95.6 39.3-22.7 1.8-1.2c1.7-1.3 3-2.9 4.1-4.7l51.4-89.1 .9-1.9c.8-1.9 1.2-4 1.2-6.1l0-36.5-59.4 66.6zM48 307.4c0 2.8 .8 5.6 2.2 8l51.4 89.1 1.2 1.8c1.3 1.7 2.9 3 4.7 4.1l39.3 22.7-39.3-95.6-59.4-66.6 0 36.5zm55.2-202.3c-.6 .7-1.2 1.5-1.7 2.3L50.2 196.6c-.6 1-1 2.1-1.4 3.2l84.5 94.8 98.7-52.9 0-96-128.8-40.5zM280 145.8l0 95.8 98.7 52.9 84.5-94.7c-.1-.4-.2-.9-.4-1.3l-.9-1.9-51.4-89.1c-.1-.2-.3-.4-.4-.6l-130 39zM204.6 48c-2.1 0-4.2 .4-6.1 1.2l-1.9 .9-38.1 22 97.7 30.7 99.1-29.7-39.8-23c-2.4-1.4-5.2-2.2-8-2.2L204.6 48z"/></svg>