<svg xmlns="http://www.w3.org/2000/svg" viewBox="0 0 512 512"><path fill="currentColor" d="M84.6 381.3c-12.7-7.1-20.6-20.4-20.6-35l0-169.6 168 93.3 0 193.1-147.4-81.9zM280 463.2l0-193.1 168-93.3 0 169.6c0 14.5-7.9 27.9-20.6 35L280 463.2zM429.8 132L256 228.6 82.2 132 236.6 46.3c12.1-6.7 26.8-6.7 38.8 0L429.8 132zM52.5 93.8C29.8 108.5 16 133.7 16 160.9l0 185.4c0 32 17.3 61.4 45.2 76.9l152 84.4c24.9 13.8 54.9 14.7 80.4 2.6l5-2.6 152-84.4c27.9-15.5 45.3-45 45.3-76.9l0-185.4c0-29-15.8-55.8-41.2-69.9L298.7 4.3c-26.6-14.8-58.9-14.8-85.5 0L57.2 91 52.5 93.8z"/></svg>