<svg xmlns="http://www.w3.org/2000/svg" viewBox="0 0 320 512"><path fill="currentColor" d="M302 382.5c3.8 8.8 2 19-4.5 26l-120 128c-4.5 4.8-10.9 7.6-17.5 7.6s-13-2.7-17.5-7.6l-120-128c-6.5-7-8.3-17.2-4.5-26S30.4 368 40 368l48 0 0-224-48 0c-9.6 0-18.2-5.7-22-14.5s-2-19 4.5-26l120-128C147-29.3 153.4-32 160-32s13 2.7 17.5 7.6l120 128c6.5 7 8.3 17.2 4.5 26S289.6 144 280 144l-48 0 0 224 48 0c9.6 0 18.2 5.7 22 14.5zM224.6 416L208 416c-6.4 0-12.5-2.5-17-7s-7-10.6-7-17l0-272c0-13.3 10.7-24 24-24L224.6 96 160 27.1 95.4 96 112 96c6.4 0 12.5 2.5 17 7s7 10.6 7 17l0 272c0 13.3-10.7 24-24 24l-16.6 0 64.6 68.9 64.6-68.9z"/></svg>