<svg xmlns="http://www.w3.org/2000/svg" viewBox="0 0 576 512"><path fill="currentColor" d="M414.5 114c8.8-3.8 19-2 26 4.5l128 120c4.8 4.5 7.6 10.9 7.6 17.5s-2.7 13-7.6 17.5l-128 120c-7 6.5-17.2 8.3-26 4.5S400 385.6 400 376l0-48-224 0 0 48c0 9.6-5.7 18.2-14.5 22s-19 2-26-4.5l-128-120C2.7 269 0 262.6 0 256s2.7-13 7.6-17.5l128-120c7-6.5 17.2-8.3 26-4.5S176 126.4 176 136l0 48 224 0 0-48c0-9.6 5.7-18.2 14.5-22zM448 191.4l0 16.6c0 6.4-2.5 12.5-7 17s-10.6 7-17 7l-272 0c-13.3 0-24-10.7-24-24l0-16.6-68.9 64.6 68.9 64.6 0-16.6c0-6.4 2.5-12.5 7-17s10.6-7 17-7l272 0c13.3 0 24 10.7 24 24l0 16.6 68.9-64.6-68.9-64.6z"/></svg>