<svg xmlns="http://www.w3.org/2000/svg" viewBox="0 0 512 512"><path fill="currentColor" d="M290 0C261.2 0 234 13.1 216.1 35.5L205.3 49c-15.7 19.6-39.4 31-64.5 31L90.1 80c-49.7 0-90 40.3-90 90.1 0 19.4 6.3 38.3 18 53.9L37.7 250c6.8 9.1 10.5 20.1 10.5 31.4 0 10.5-3.2 20.8-9.1 29.5l-8.4 12.3c-9.5 13.9-14.6 30.3-14.6 47.1 0 54.9 52.1 94.9 105.2 80.8l34.1-9.1c5.3-1.4 10.7-2.1 16.2-2.1l6.6 0c23.7 0 46.6 8.8 64.2 24.6l27.6 24.9c16.1 14.5 37 22.5 58.6 22.5 48.4 0 87.6-39.2 87.6-87.6l0-32.7c0-24.2 13.5-46.4 35-57.6l8.9-4.6c32-16.6 52.1-49.6 52.1-85.6 0-36.3-20.4-69.5-52.8-86l-32.1-16.3c-19.6-9.9-34-27.7-39.7-48.9L381.3 70C370.2 28.7 332.8 0 290 0zM253.6 65.5c8.8-11.1 22.2-17.5 36.4-17.5 21.1 0 39.5 14.1 45 34.5l6.2 22.8c9.3 34.3 32.6 63.1 64.4 79.2l32.1 16.3c16.3 8.2 26.5 24.9 26.5 43.2 0 18.1-10.1 34.7-26.2 43l-8.9 4.6c-37.4 19.4-61 58-61 100.2l0 32.7c0 21.9-17.7 39.6-39.6 39.6-9.8 0-19.2-3.6-26.5-10.2L274.3 429c-26.4-23.8-60.8-37-96.3-37l-6.6 0c-9.6 0-19.2 1.3-28.5 3.7l-34.1 9.1c-22.6 6-44.8-11-44.8-34.4 0-7.2 2.2-14.2 6.2-20.1L78.7 338c11.4-16.7 17.5-36.4 17.5-56.6 0-21.7-7-42.8-20.1-60.2L56.5 195.2c-5.4-7.3-8.4-16.1-8.4-25.1 0-23.2 18.8-42 42-42l50.7 0c39.7 0 77.2-18 102-49l10.8-13.5zM160 256a32 32 0 1 0 0-64 32 32 0 1 0 0 64zm160-64a32 32 0 1 0 -64 0 32 32 0 1 0 64 0zM288 352a32 32 0 1 0 0-64 32 32 0 1 0 0 64z"/></svg>