<svg xmlns="http://www.w3.org/2000/svg" viewBox="0 0 640 512"><path fill="currentColor" d="M480 80L96 80c-8.8 0-16 7.2-16 16l0 256c0 8.8 7.2 16 16 16l210.7 0c-1.7 10.4-2.7 21.1-2.7 32 0 5.4 .2 10.7 .7 16l-44.3 0-8 48 62.6 0c6.1 17.3 14.6 33.4 25.1 48l-188 0c-13.3 0-24-10.7-24-24s10.7-24 24-24l51.7 0 8-48-115.7 0c-35.3 0-64-28.7-64-64L32 96c0-35.3 28.7-64 64-64l384 0c35.3 0 64 28.7 64 64l0 118c-15.3-3.9-31.4-6-48-6l0-112c0-8.8-7.2-16-16-16zM346.8 279.1L321 305c-4.5 4.5-10.6 7-17 7s-12.5-2.5-17-7l-63-63-71 71c-9.4 9.4-24.6 9.4-33.9 0s-9.4-24.6 0-33.9l88-88c9.4-9.4 24.6-9.4 33.9 0l63 63 78.1-78.1-22.1 0c-13.3 0-24-10.7-24-24s10.7-24 24-24l80 0c13.3 0 24 10.7 24 24l0 58.7c-16.8 2.8-32.9 7.8-48 14.8l0-15.5-40.9 40.9c-10.4 8.4-19.9 17.9-28.3 28.3zM352 400a144 144 0 1 1 288 0 144 144 0 1 1 -288 0zm219.3-52.7c6.2-6.2 6.2-16.4 0-22.6s-16.4-6.2-22.6 0l-20.2 20.2c-9.5-5.6-20.6-8.9-32.5-8.9s-23 3.2-32.5 8.9l-20.2-20.2c-6.2-6.2-16.4-6.2-22.6 0s-6.2 16.4 0 22.6l20.2 20.2c-5.6 9.5-8.9 20.6-8.9 32.5s3.2 23 8.9 32.5l-20.2 20.2c-6.2 6.2-6.2 16.4 0 22.6s16.4 6.2 22.6 0l20.2-20.2c9.5 5.6 20.6 8.9 32.5 8.9s23-3.2 32.5-8.9l20.2 20.2c6.2 6.2 16.4 6.2 22.6 0s6.2-16.4 0-22.6l-20.2-20.2c5.6-9.5 8.9-20.6 8.9-32.5s-3.2-23-8.9-32.5l20.2-20.2zM496 368a32 32 0 1 1 0 64 32 32 0 1 1 0-64z"/></svg>