<svg xmlns="http://www.w3.org/2000/svg" viewBox="0 0 640 512"><path fill="currentColor" d="M480 80L96 80c-8.8 0-16 7.2-16 16l0 256c0 8.8 7.2 16 16 16l210.7 0c-1.7 10.4-2.7 21.1-2.7 32 0 5.4 .2 10.7 .7 16l-44.3 0-8 48 62.6 0c6.1 17.3 14.6 33.4 25.1 48l-188 0c-13.3 0-24-10.7-24-24s10.7-24 24-24l51.7 0 8-48-115.7 0c-35.3 0-64-28.7-64-64L32 96c0-35.3 28.7-64 64-64l384 0c35.3 0 64 28.7 64 64l0 118c-15.3-3.9-31.4-6-48-6l0-112c0-8.8-7.2-16-16-16zM416 225.4l0-15.5-95 95c-4.5 4.5-10.6 7-17 7s-12.5-2.5-17-7l-63-63-71 71c-9.4 9.4-24.6 9.4-33.9 0s-9.4-24.6 0-33.9l88-88c9.4-9.4 24.6-9.4 33.9 0l63 63 78.1-78.1-22.1 0c-13.3 0-24-10.7-24-24s10.7-24 24-24l80 0c13.3 0 24 10.7 24 24l0 58.7c-16.8 2.8-32.9 7.8-48 14.8zM352 400a144 144 0 1 1 288 0 144 144 0 1 1 -288 0zm128-80l0 8.1c-22.3 1.1-40 19.5-40 42.1 0 20.4 14.6 37.8 34.6 41.5l45 8.2c4.8 .9 8.3 5.1 8.3 10 0 5.6-4.6 10.2-10.2 10.2L464 440c-8.8 0-16 7.2-16 16s7.2 16 16 16l16 0 0 8c0 8.8 7.2 16 16 16s16-7.2 16-16l0-8 5.8 0c23.3 0 42.2-18.9 42.2-42.2 0-20.4-14.6-37.8-34.6-41.5l-45-8.2c-4.8-.9-8.3-5.1-8.3-10 0-5.6 4.6-10.2 10.2-10.2l45.8 0c8.8 0 16-7.2 16-16s-7.2-16-16-16l-16 0 0-8c0-8.8-7.2-16-16-16s-16 7.2-16 16z"/></svg>