<svg xmlns="http://www.w3.org/2000/svg" viewBox="0 0 576 512"><path fill="currentColor" d="M472 80c8.8 0 16 7.2 16 16l0 256c0 8.8-7.2 16-16 16L88 368c-8.8 0-16-7.2-16-16L72 96c0-8.8 7.2-16 16-16l384 0zM88 32C52.7 32 24 60.7 24 96l0 256c0 35.3 28.7 64 64 64l115.7 0-8 48-51.7 0c-13.3 0-24 10.7-24 24s10.7 24 24 24l272 0c13.3 0 24-10.7 24-24s-10.7-24-24-24l-51.7 0-8-48 115.7 0c35.3 0 64-28.7 64-64l0-256c0-35.3-28.7-64-64-64L88 32zM244.3 464l8-48 55.3 0 8 48-71.3 0zM249 193c9.4-9.4 9.4-24.6 0-33.9s-24.6-9.4-33.9 0l-48 48c-9.4 9.4-9.4 24.6 0 33.9l48 48c9.4 9.4 24.6 9.4 33.9 0s9.4-24.6 0-33.9l-31-31 31-31zM361 159c-9.4-9.4-24.6-9.4-33.9 0s-9.4 24.6 0 33.9l31 31-31 31c-9.4 9.4-9.4 24.6 0 33.9s24.6 9.4 33.9 0l48-48c9.4-9.4 9.4-24.6 0-33.9l-48-48z"/></svg>