<svg xmlns="http://www.w3.org/2000/svg" viewBox="0 0 320 512"><path fill="currentColor" d="M48 104c0-13.3 10.7-24 24-24s24 10.7 24 24c0 2.9-.1 4.7-.4 6.1L72 252 48.4 110.1c-.2-1.4-.4-3.2-.4-6.1zM72 32c-39.8 0-72 32.2-72 72 0 3.9 .1 8.8 1 14L25.4 264.5C29.2 287.3 48.9 304 72 304s42.8-16.7 46.6-39.5L143 118c.9-5.3 1-10.2 1-14 0-39.8-32.2-72-72-72zm152 72c0-13.3 10.7-24 24-24s24 10.7 24 24c0 2.9-.1 4.7-.4 6.1L248 252 224.4 110.1c-.2-1.4-.4-3.2-.4-6.1zm24-72c-39.8 0-72 32.2-72 72 0 3.9 .1 8.8 1 14l24.4 146.5c3.8 22.8 23.5 39.5 46.6 39.5s42.8-16.7 46.6-39.5L319 118c.9-5.3 1-10.2 1-14 0-39.8-32.2-72-72-72z"/></svg>