<svg xmlns="http://www.w3.org/2000/svg" viewBox="0 0 384 512"><path fill="currentColor" d="M360 0c13.3 0 24 10.7 24 24 0 55.6-24.5 101.9-58.1 141.9-27.2 32.4-61.5 62-95.8 90.1 34.3 28.1 68.6 57.7 95.8 90.1 33.6 40 58.1 86.3 58.1 141.9 0 13.3-10.7 24-24 24s-24-10.7-24-24c0-2.7-.1-5.4-.2-8L48.2 480c-.2 2.6-.2 5.3-.2 8 0 13.3-10.7 24-24 24S0 501.3 0 488c0-55.6 24.5-101.9 58.1-141.9 27.2-32.4 61.5-62 95.8-90.1-34.3-28.1-68.6-57.7-95.8-90.1-33.6-40-58.1-86.3-58.1-141.9 0-13.3 10.7-24 24-24S48 10.7 48 24c0 2.7 .1 5.4 .2 8l287.5 0c.2-2.6 .2-5.3 .2-8 0-13.3 10.7-24 24-24zM324.3 80L59.7 80c7 16.4 17 32.3 29.4 48l205.8 0c12.4-15.7 22.4-31.6 29.4-48zm-74.8 96l-115 0c17.8 16.4 37.2 32.6 57.5 49.1 20.3-16.5 39.7-32.7 57.5-49.1zM59.7 432l264.5 0c-7-16.4-17-32.3-29.4-48L89.1 384c-12.4 15.7-22.4 31.6-29.4 48zm74.8-96l115 0c-17.8-16.4-37.2-32.6-57.5-49.1-20.3 16.5-39.7 32.7-57.5 49.1z"/></svg>