<svg xmlns="http://www.w3.org/2000/svg" viewBox="0 0 512 512"><path fill="currentColor" d="M80 160c0 13.3 2.3 26 6.5 37.8 3.9 10.8-.4 22.8-10.2 28.7l-19.4 11.7 0 0c-5.5 3.3-8.8 9.2-8.8 15.6 0 10.1 8.2 18.2 18.2 18.2l182.7 0c6.3 0 12.3 2.5 16.8 6.8l38.3 37.5 0-20.3c0-13.3 10.7-24 24-24l16 0c48.6 0 88 39.4 88 88l0 8c0 .9 0 1.8 0 2.6 19.9-21.2 32-49.6 32-81 0-60.8-22.4-116.2-59.4-158.7-7.2-8.2-7.9-20.3-1.7-29.3 10.4-15.3 23.4-35.5 31.4-51.9-27.3 4-58.4 14.3-84.2 24.6-6.4 2.5-13.5 2.2-19.6-.8-32.5-16.3-69.2-25.5-108.1-25.5L192 48C130.1 48 80 98.1 80 160zM277.7 408l66.3 0c22.1 0 40-17.9 40-40l0-8c0-19.4-13.7-35.5-32-39.2l0 1.9c0 25-20.3 45.3-45.3 45.3-11.8 0-23.2-4.6-31.7-12.9L239.1 320 66.2 320C29.6 320 0 290.4 0 253.8 0 230.5 12.2 209 32.1 197l3.7-2.2C33.3 183.6 32 171.9 32 160 32 71.6 103.6 0 192 0l30.3 0c42.7 0 83.3 9.3 119.8 25.9 32.7-12.4 76.5-25.9 113.8-25.9 7.8 0 17.9 2.4 25.2 11.3 6.7 8.1 7.5 17.4 7.3 23.2-.4 11.3-5.2 23.4-9.7 33.1-7 15-17.1 31.8-26.4 46.2 37.3 48.8 59.5 109.8 59.5 175.9 0 91.9-74.5 166.3-166.3 166.3l-68 0c-19.9 34.5-56.8 56-97 56l-4.7 0c-5.5 0-10.7-2.9-13.6-7.6s-3.2-10.6-.7-15.6l28.4-56.8-28.4-56.8c-2.5-5-2.2-10.9 .7-15.6s8.1-7.6 13.6-7.6l4.7 0c40.2 0 77.1 21.5 97 56zM136 160a24 24 0 1 1 48 0 24 24 0 1 1 -48 0z"/></svg>