<svg xmlns="http://www.w3.org/2000/svg" viewBox="0 0 384 512"><path fill="currentColor" d="M296-16c-13.3 0-24 10.7-24 24l0 40-120 0c-13.3 0-24 10.7-24 24s10.7 24 24 24l120 0 0 84.7c-25.5-22.8-59.1-36.7-96-36.7-79.5 0-144 64.5-144 144S96.5 432 176 432c36.9 0 70.5-13.9 96-36.7l0 12.7c0 13.3 10.7 24 24 24s24-10.7 24-24l0-312 40 0c13.3 0 24-10.7 24-24s-10.7-24-24-24l-40 0 0-40c0-13.3-10.7-24-24-24zM80 288a96 96 0 1 1 192 0 96 96 0 1 1 -192 0zM24 464c-13.3 0-24 10.7-24 24s10.7 24 24 24l336 0c13.3 0 24-10.7 24-24s-10.7-24-24-24L24 464z"/></svg>