<svg xmlns="http://www.w3.org/2000/svg" viewBox="0 0 512 512"><path fill="currentColor" d="M464 287.9l0 16.1c0 21.7-14.2 48.5-52.4 72.4-37.6 23.5-92.4 39.6-155.6 39.6s-118-16.1-155.6-39.6C62.2 352.5 48 325.7 48 304l0-16.1C89.5 335.8 167.1 368 256 368s166.5-32.2 208-80.1zM256 48C114.6 48 0 119.6 0 208l0 96c0 88.4 114.6 160 256 160s256-71.6 256-160l0-96c0-88.4-114.6-160-256-160zm64 144c0 17.7-28.7 32-64 32s-64-14.3-64-32 28.7-32 64-32 64 14.3 64 32zM283.3 84.7c6.2 6.2 6.2 16.4 0 22.6l-16 16c-6.2 6.2-16.4 6.2-22.6 0s-6.2-16.4 0-22.6l16-16c6.2-6.2 16.4-6.2 22.6 0zm-112 38.6l-32 32c-6.2 6.2-16.4 6.2-22.6 0s-6.2-16.4 0-22.6l32-32c6.2-6.2 16.4-6.2 22.6 0s6.2 16.4 0 22.6zm224 9.4l32 32c6.2 6.2 6.2 16.4 0 22.6s-16.4 6.2-22.6 0l-32-32c-6.2-6.2-6.2-16.4 0-22.6s16.4-6.2 22.6 0zM64 192l32 0c8.8 0 16 7.2 16 16s-7.2 16-16 16l-32 0c-8.8 0-16-7.2-16-16s7.2-16 16-16zm331.3 36.7l16 16c6.2 6.2 6.2 16.4 0 22.6s-16.4 6.2-22.6 0l-16-16c-6.2-6.2-6.2-16.4 0-22.6s16.4-6.2 22.6 0zm-240 16l32 32c6.2 6.2 6.2 16.4 0 22.6s-16.4 6.2-22.6 0l-32-32c-6.2-6.2-6.2-16.4 0-22.6s16.4-6.2 22.6 0zm176 38.6l-32 32c-6.2 6.2-16.4 6.2-22.6 0s-6.2-16.4 0-22.6l32-32c6.2-6.2 16.4-6.2 22.6 0s6.2 16.4 0 22.6z"/></svg>