<svg xmlns="http://www.w3.org/2000/svg" viewBox="0 0 576 512"><path fill="currentColor" d="M277.6-7.3c6.4 1.5 12 5.7 15.3 11.4l54.1 94.2C366 77.3 393.4 64 424 64l104 0 3.2 .2c7.3 1 13.8 5.2 17.5 11.6s4.3 14.2 1.7 21l-1.4 2.8-37 66.5 0 97.8c0 92.8-75.2 168-168 168l-62.1 0-73 73c-7.3 7.3-18.5 9.1-27.7 4.5l-144-72c-8.3-4.2-13.5-12.7-13.3-22s5.8-17.6 14.2-21.4l103.2-45.9c-45.3-36-69-84.5-79-131.2-12.2-57.6-4.2-115.3 12-147.7l1.2-2.2c3.1-4.8 7.8-8.5 13.4-10.1 6.3-1.9 13.2-1.1 18.9 2.2l73.5 42.6C198.9 53.1 230.7 14.6 258.8-4l2.1-1.3c5.1-2.6 11-3.4 16.6-2.1zM424 112c-30.9 0-56 25.1-56 56l0 56c0 8.6-4.6 16.5-12 20.8-7.4 4.3-16.6 4.2-24-.1L109.3 115.4c-5.3 23.9-7.1 57.1 .2 91.6 10.2 47.9 37.2 95.5 93.2 123.5 8.3 4.2 13.5 12.7 13.3 22-.2 9.3-5.8 17.6-14.2 21.4l-97.5 43.3 83 41.5 67.8-67.8 3.7-3c3.9-2.6 8.5-4 13.3-4l72 0c66.3 0 120-53.7 120-120l0-104c0-4.1 1-8.1 3-11.7l20.2-36.3-63.2 0zm-8 72a24 24 0 1 1 0-48 24 24 0 1 1 0 48zM265.7 53.1c-15.7 16.9-32 42-41.3 72.3-.1 .4-.2 .7-.3 1.1l96 55.8 0-14.3c0-6 .5-11.9 1.5-17.6L265.7 53.1z"/></svg>