<svg xmlns="http://www.w3.org/2000/svg" viewBox="0 0 384 512"><path fill="currentColor" d="M209 505c-9.4 9.4-24.6 9.4-33.9 0L31 361c-6.9-6.9-8.9-17.2-5.2-26.2S38.3 320 48 320l64 0 0-64 0 0 0-80c0-26.5 21.5-48 48-48l64 0c26.5 0 48 21.5 48 48l0 144 64 0c9.7 0 18.5 5.8 22.2 14.8s1.7 19.3-5.2 26.2L209 505zm15-249l0-80-64 0 0 80 0 0 0 88c0 13.3-10.7 24-24 24l-30.1 0 86.1 86.1 86.1-86.1-30.1 0c-13.3 0-24-10.7-24-24l0-88zM32 0a32 32 0 1 1 0 64 32 32 0 1 1 0-64zM138.7 0a32 32 0 1 1 0 64 32 32 0 1 1 0-64zM277.3 32a32 32 0 1 1 -64 0 32 32 0 1 1 64 0zM352 0a32 32 0 1 1 0 64 32 32 0 1 1 0-64z"/></svg>