<svg xmlns="http://www.w3.org/2000/svg" viewBox="0 0 512 512"><path fill="currentColor" d="M296.1 256l148.7 0c19.5 0 35.3-15.8 35.3-35.3 0-9.4-3.7-18.3-10.3-25L442 168 496.1 113.9c18.7-18.7 18.7-49.1 0-67.9L466 16c-18.7-18.7-49.1-18.7-67.9 0l-54.1 54.1-27.7-27.7c-6.6-6.6-15.6-10.3-25-10.3-19.5 0-35.3 15.8-35.3 35.3l0 148.7c0 22.1 17.9 40 40 40zm95-71l23 23-110.1 0 0-110.1 23 23c9.4 9.4 24.6 9.4 33.9 0l71-71 30.1 30.1-71 71c-9.4 9.4-9.4 24.6 0 33.9zM67.4 256c-19.5 0-35.3 15.8-35.3 35.3 0 9.4 3.7 18.3 10.3 25L70.1 344 16.1 398.1c-18.7 18.7-18.7 49.1 0 67.9L46.1 496c18.7 18.7 49.1 18.7 67.9 0l54.1-54.1 27.7 27.7c6.6 6.6 15.6 10.3 25 10.3 19.5 0 35.3-15.8 35.3-35.3l0-148.7c0-22.1-17.9-40-40-40L67.4 256zM121 327l-23-23 110.1 0 0 110.1-23-23c-9.4-9.4-24.6-9.4-33.9 0l-71 71-30.1-30.1 71-71c9.4-9.4 9.4-24.6 0-33.9z"/></svg>