<svg xmlns="http://www.w3.org/2000/svg" viewBox="0 0 320 512"><path fill="currentColor" d="M24 576c-13.3 0-24-10.7-24-24s10.7-24 24-24l272 0c13.3 0 24 10.7 24 24s-10.7 24-24 24L24 576zM70.6 304l89.4 89.4 89.4-89.4-33.4 0c-13.3 0-24-10.7-24-24l0-296-64 0 0 296c0 13.3-10.7 24-24 24l-33.4 0zm112 134.6c-12.5 12.5-32.8 12.5-45.3 0l-128-128c-9.2-9.2-11.9-22.9-6.9-34.9l0 0c5-12 16.6-19.8 29.6-19.8l48 0 0-272c0-26.5 21.5-48 48-48l64 0c26.5 0 48 21.5 48 48l0 272 48 0c12.9 0 24.6 7.8 29.6 19.8l0 0c5 12 2.2 25.7-6.9 34.9l-128 128z"/></svg>