<svg xmlns="http://www.w3.org/2000/svg" viewBox="0 0 448 512"><path fill="currentColor" d="M385 201L241 345c-9.4 9.4-24.6 9.4-33.9 0L63 201c-6.9-6.9-8.9-17.2-5.2-26.2S70.3 160 80 160l64 0 0-112c0-26.5 21.5-48 48-48l64 0c26.5 0 48 21.5 48 48l0 112 64 0c9.7 0 18.5 5.8 22.2 14.8s1.7 19.3-5.2 26.2zm-217 7l-30.1 0 86.1 86.1 86.1-86.1-30.1 0c-13.3 0-24-10.7-24-24l0-136-64 0 0 136c0 13.3-10.7 24-24 24zM48 344l0 72c0 26.5 21.5 48 48 48l256 0c26.5 0 48-21.5 48-48l0-72c0-13.3 10.7-24 24-24s24 10.7 24 24l0 72c0 53-43 96-96 96L96 512c-53 0-96-43-96-96l0-72c0-13.3 10.7-24 24-24s24 10.7 24 24z"/></svg>