<svg xmlns="http://www.w3.org/2000/svg" viewBox="0 0 448 512"><path fill="currentColor" d="M207 505c9.4 9.4 24.6 9.4 33.9 0L385 361c6.9-6.9 8.9-17.2 5.2-26.2S377.7 320 368 320l-64 0 0-112c0-26.5-21.5-48-48-48l-64 0c-26.5 0-48 21.5-48 48l0 112-64 0c-9.7 0-18.5 5.8-22.2 14.8S56.2 354.1 63 361L207 505zm73-137l30.1 0-86.1 86.1-86.1-86.1 30.1 0c6.4 0 12.5-2.5 17-7s7-10.6 7-17l0-136 64 0 0 136c0 13.3 10.7 24 24 24zM400 168c0 13.3 10.7 24 24 24s24-10.7 24-24l0-72c0-53-43-96-96-96L96 0C43 0 0 43 0 96l0 72c0 13.3 10.7 24 24 24s24-10.7 24-24l0-72c0-26.5 21.5-48 48-48l256 0c26.5 0 48 21.5 48 48l0 72z"/></svg>