<svg xmlns="http://www.w3.org/2000/svg" viewBox="0 0 384 512"><path fill="currentColor" d="M175 505c9.4 9.4 24.6 9.4 33.9 0L353 361c6.9-6.9 8.9-17.2 5.2-26.2S345.7 320 336 320l-64 0 0-144c0-26.5-21.5-48-48-48l-64 0c-26.5 0-48 21.5-48 48l0 80 0 0 0 64-64 0c-9.7 0-18.5 5.8-22.2 14.8S24.2 354.1 31 361L175 505zM160 256l0 0 0-80 64 0 0 168c0 6.4 2.5 12.5 7 17s10.6 7 17 7l30.1 0-86.1 86.1-86.1-86.1 30.1 0c13.3 0 24-10.7 24-24l0-88zM384 24c0-13.3-10.7-24-24-24L24 0C10.7 0 0 10.7 0 24S10.7 48 24 48l336 0c13.3 0 24-10.7 24-24z"/></svg>