<svg xmlns="http://www.w3.org/2000/svg" viewBox="0 0 384 512"><path fill="currentColor" d="M32 512c-17.7 0-32-14.3-32-32s14.3-32 32-32 32 14.3 32 32-14.3 32-32 32zm106.7 0c-17.7 0-32-14.3-32-32s14.3-32 32-32 32 14.3 32 32-14.3 32-32 32zm74.7-32c0-17.7 14.3-32 32-32s32 14.3 32 32-14.3 32-32 32-32-14.3-32-32zM352 512c-17.7 0-32-14.3-32-32s14.3-32 32-32 32 14.3 32 32-14.3 32-32 32zM209 377c-9.4 9.4-24.6 9.4-33.9 0L31 233c-6.9-6.9-8.9-17.2-5.2-26.2S38.3 192 48 192l64 0 0-64 0 0 0-80c0-26.5 21.5-48 48-48l64 0c26.5 0 48 21.5 48 48l0 144 64 0c9.7 0 18.5 5.8 22.2 14.8s1.7 19.3-5.2 26.2L209 377zm15-249l0-80-64 0 0 80 0 0 0 88c0 13.3-10.7 24-24 24l-30.1 0 86.1 86.1 86.1-86.1-30.1 0c-13.3 0-24-10.7-24-24l0-88z"/></svg>