<svg xmlns="http://www.w3.org/2000/svg" viewBox="0 0 448 512"><path fill="currentColor" d="M248 24c0-13.3-10.7-24-24-24s-24 10.7-24 24l0 246.1-63-63c-9.4-9.4-24.6-9.4-33.9 0s-9.4 24.6 0 33.9L207 345c9.4 9.4 24.6 9.4 33.9 0L345 241c9.4-9.4 9.4-24.6 0-33.9s-24.6-9.4-33.9 0l-63 63 0-246.1zM66.2 272L64 272c-35.3 0-64 28.7-64 64l0 80c0 35.3 28.7 64 64 64l320 0c35.3 0 64-28.7 64-64l0-80c0-35.3-28.7-64-64-64l-2.2 0-48 48 50.2 0c8.8 0 16 7.2 16 16l0 80c0 8.8-7.2 16-16 16L64 432c-8.8 0-16-7.2-16-16l0-80c0-8.8 7.2-16 16-16l50.2 0-48-48zM368 376a24 24 0 1 0 -48 0 24 24 0 1 0 48 0z"/></svg>