<svg xmlns="http://www.w3.org/2000/svg" viewBox="0 0 512 512"><path fill="currentColor" d="M471.5 7c9.4-9.4 24.6-9.4 33.9 0s9.4 24.6 0 33.9l-144 144 69.1 69.1c18.7 18.7 18.7 49.1 0 67.9l-139.3 139.3-4.7 4.3c-9.8 8-21.7 12.9-34.3 14.2l-6.3 .3-165.5 0c-26.5 0-48-21.5-48-48l0-165.5c0-14.9 5.2-29.2 14.5-40.6l4.3-4.7 139.3-139.3c18.7-18.7 49.1-18.7 67.9 0L327.5 151 471.5 7zM85.2 255.2c-2.2 2.2-3.8 5.1-4.4 8.2l-.3 3.1 0 165.5 165.5 0c4.2 0 8.3-1.7 11.3-4.7l68.3-68.3-172.1-172.1-68.3 68.3zM187.4 153L359.5 325.1 396.6 288 224.5 115.9 187.4 153z"/></svg>