<svg xmlns="http://www.w3.org/2000/svg" viewBox="0 0 512 512"><path fill="currentColor" d="M112.6 1.2c11.9-3.9 24.8 2 29.6 13.6l3.1 7.4C163.9 66.9 207.6 96 256.1 96s92.1-29.1 110.8-73.8l3.1-7.4c4.8-11.6 17.7-17.5 29.6-13.6s18.8 16.2 15.9 28.4l-45.8 191 133.1 244.1c11.6 21.3-3.8 47.3-28.1 47.3l-437 0c-24.3 0-39.7-26-28.1-47.3l133.1-244.1-45.8-191c-2.9-12.2 4-24.5 15.9-28.4zm54.9 117.6l23.9 99.6c1.4 5.8 .6 11.9-2.3 17.1L64.5 464 447.6 464 323 235.5c-2.8-5.2-3.7-11.3-2.3-17.1l23.9-99.6c-26.1 16.2-56.6 25.2-88.6 25.2s-62.5-9.1-88.6-25.2z"/></svg>