<svg xmlns="http://www.w3.org/2000/svg" viewBox="0 0 512 512"><path fill="currentColor" d="M417.7 338.5L396.2 317c2.5-9.3 3.8-19 3.8-29 61.9 0 112 50.1 112 112s-50.1 112-112 112-112-50.1-112-112c10 0 19.8-1.3 29-3.8l21.5 21.5c7.7 26.8 32.3 46.3 61.5 46.3 35.3 0 64-28.7 64-64 0-29.2-19.6-53.9-46.3-61.5zM112 0c61.9 0 112 50.1 112 112-10 0-19.8 1.3-29 3.8L173.5 94.3c-7.7-26.8-32.3-46.3-61.5-46.3-35.3 0-64 28.7-64 64 0 29.2 19.6 53.9 46.3 61.5L115.8 195c-2.5 9.3-3.8 19-3.8 29-61.9 0-112-50.1-112-112S50.1 0 112 0zM0 400c0-61.9 50.1-112 112-112 0 10 1.3 19.8 3.8 29L94.3 338.5c-26.8 7.7-46.3 32.3-46.3 61.5 0 35.3 28.7 64 64 64 29.2 0 53.9-19.6 61.5-46.3L195 396.2c9.3 2.5 19 3.8 29 3.8 0 61.9-50.1 112-112 112S0 461.9 0 400zM317 115.8c-9.3-2.5-19-3.8-29-3.8 0-61.9 50.1-112 112-112s112 50.1 112 112-50.1 112-112 112c0-10-1.3-19.8-3.8-29l21.5-21.5c26.8-7.7 46.3-32.3 46.3-61.5 0-35.3-28.7-64-64-64-29.2 0-53.9 19.6-61.5 46.3L317 115.8zM224 208c-8.8 0-16 7.2-16 16l0 64c0 8.8 7.2 16 16 16l64 0c8.8 0 16-7.2 16-16l0-64c0-8.8-7.2-16-16-16l-64 0zm-64 16c0-8.9 1.8-17.3 5.1-25L95 129c-9.4-9.4-9.4-24.6 0-33.9s24.6-9.4 33.9 0l70 70c7.7-3.3 16.1-5.1 25-5.1l64 0c8.9 0 17.3 1.8 25 5.1l70-70c9.4-9.4 24.6-9.4 33.9 0s9.4 24.6 0 33.9l-70 70c3.3 7.7 5.1 16.1 5.1 25l0 64c0 8.9-1.8 17.3-5.1 25l70 70c9.4 9.4 9.4 24.6 0 33.9s-24.6 9.4-33.9 0l-70-70c-7.7 3.3-16.1 5.1-25 5.1l-64 0c-8.9 0-17.3-1.8-25-5.1l-70 70c-9.4 9.4-24.6 9.4-33.9 0s-9.4-24.6 0-33.9l70-70c-3.3-7.7-5.1-16.1-5.1-25l0-64z"/></svg>