<svg xmlns="http://www.w3.org/2000/svg" viewBox="0 0 384 512"><path fill="currentColor" d="M192 464c-79.5 0-144-64.5-144-144 0-13.2 5.2-34.6 17.2-63.7 11.6-28 27.9-58.9 45.8-89.5 28.7-48.9 60.3-94.8 80.9-123.6 20.6 28.8 52.3 74.7 80.9 123.6 18 30.6 34.2 61.5 45.8 89.5 12.1 29.1 17.2 50.5 17.2 63.7 0 79.5-64.5 144-144 144zM0 320C0 426 86 512 192 512s192-86 192-192c0-91.2-130.2-274.1-166.6-323.5-5.9-8-15.2-12.5-25.2-12.5l-.4 0C181.8-16 172.5-11.5 166.6-3.5 130.2 45.9 0 228.8 0 320zm265-39c9.4-9.4 9.4-24.6 0-33.9s-24.6-9.4-33.9 0L119 359c-9.4 9.4-9.4 24.6 0 33.9s24.6 9.4 33.9 0L265 281zm-129 7a24 24 0 1 0 0-48 24 24 0 1 0 0 48zm136 88a24 24 0 1 0 -48 0 24 24 0 1 0 48 0z"/></svg>