<svg xmlns="http://www.w3.org/2000/svg" viewBox="0 0 384 512"><path fill="currentColor" d="M192.2-16c10 0 19.3 4.5 25.2 12.5 36.4 49.4 166.6 232.3 166.6 323.5 0 106-86 192-192 192S0 426 0 320c0-91.2 130.2-274.1 166.6-323.5 5.2-7 12.9-11.3 21.5-12.3l3.7-.2 .4 0zM192 43.3c-20.6 28.8-52.3 74.7-80.9 123.5-17.9 30.6-34.2 61.5-45.8 89.5-12.1 29.1-17.2 50.5-17.2 63.7 0 79.5 64.5 144 144 144s144-64.5 144-144c0-13.2-5.2-34.6-17.3-63.7-11.6-28-27.9-58.9-45.8-89.5-28.6-48.9-60.3-94.7-80.9-123.5zM192 224c13.3 0 24 10.7 24 24l0 48 48 0c13.3 0 24 10.7 24 24s-10.7 24-24 24l-48 0 0 48-.1 2.5C214.6 406.6 204.4 416 192 416s-22.6-9.4-23.9-21.5l-.1-2.5 0-48-48 0c-13.3 0-24-10.7-24-24s10.7-24 24-24l48 0 0-48c0-13.3 10.7-24 24-24z"/></svg>