<svg xmlns="http://www.w3.org/2000/svg" viewBox="0 0 512 512"><path fill="currentColor" d="M501.2 76.1c11.1-7.3 14.2-22.1 6.9-33.2s-22.1-14.2-33.2-6.9L370.2 104.5C335.8 98.7 297 96 256 96 114.6 96 0 128 0 208L0 368c0 24.9 14.9 44.5 33.2 58.7 18.5 14.3 43.6 25.5 72 33.9 42.2 12.4 94.6 19.5 150.8 19.5s108.6-7 150.8-19.5c28.4-8.4 53.5-19.6 72-33.9 18.4-14.1 33.2-33.8 33.2-58.7l0-160c0-41.1-30.2-69.5-78.8-87.4l67.9-44.5zM307.4 145.6l-64.6 42.3c-11.1 7.3-14.2 22.1-6.9 33.2s22.1 14.2 33.2 6.9l111.1-72.8c14.7 3.2 27.9 7 39.4 11.5 38.8 15.1 44.4 30.6 44.4 41.3 0 .8-2.7 17.2-46 35.9-38.9 16.8-96 28.1-162 28.1S132.9 260.7 94 243.9c-43.3-18.7-46-35.1-46-35.9 0-10.6 5.6-26.2 44.4-41.3 38.3-14.9 95.4-22.7 163.6-22.7 18 0 35.1 .5 51.4 1.6zM424 293.2c15-5.6 28.4-12 40-19l0 93.8c0 4.1-2.3 11.2-14.5 20.7-6.5 5-15 10-25.5 14.6l0-110.1zM280 319.5c34.4-1.3 66.9-5.6 96-12.2l0 111.7c-27.9 6.7-60.5 11.1-96 12.5l0-112zM136 307.4c29.1 6.6 61.6 10.8 96 12.2l0 112c-35.5-1.4-68.1-5.8-96-12.5l0-111.7zM48 274.2c11.6 7 25 13.4 40 19l0 110.1c-10.4-4.7-18.9-9.6-25.5-14.6-12.2-9.4-14.5-16.6-14.5-20.7l0-93.8z"/></svg>