<svg xmlns="http://www.w3.org/2000/svg" viewBox="0 0 576 512"><path fill="currentColor" d="M528 160c0-9.9-8-29.9-55-49.8-20-8.5-44.3-15.4-71.9-20.6-1.2 4.1-2.4 8.8-3.6 13.8-4.5 18.9-7.6 39.2-5.7 53.3 2.2 16.3 10.4 35.1 19.3 51.1 4 7.3 7.9 13.5 10.9 18 19.1-4.5 36.2-9.9 51-16.2 47.1-19.9 55-39.9 55-49.8zM369.1 231.2c-6.9-12.5-14.9-28.8-20.1-46.3-15.4 8-36 15.1-61 15.1s-45.6-7.1-61-15.1c-5.2 17.5-13.2 33.8-20.1 46.3-.7 1.3-1.4 2.5-2.1 3.8 25.7 3.3 53.7 5 83.2 5s57.5-1.8 83.2-5c-.7-1.2-1.4-2.5-2.1-3.8zM350.8 92.3c.8-3.2 1.6-6.3 2.3-9.3-20.6-2-42.4-3-65.1-3s-44.5 1-65.1 3c.8 2.9 1.6 6 2.3 9.3 2.6 11 5.4 24.5 6.7 38.4l.3 .2c2.6 2.3 6.6 5.4 11.8 8.6 10.5 6.4 25.4 12.5 44 12.5s33.5-6.2 44-12.5c5.2-3.2 9.2-6.3 11.8-8.6 .1-.1 .2-.2 .3-.2 1.3-13.9 4.1-27.4 6.7-38.4zM103 209.8c14.8 6.3 31.9 11.7 51 16.2 3-4.5 6.9-10.8 10.9-18 8.9-16 17.1-34.9 19.3-51.1 1.9-14.2-1.1-34.5-5.7-53.3-1.2-5-2.5-9.7-3.6-13.8-27.6 5.1-51.9 12.1-71.9 20.6-47.1 19.9-55 39.9-55 49.8s8 29.9 55 49.8zM576 160l0 192c0 24.3-11.3 44.9-28.1 61-16.5 15.8-39.1 28.3-64.8 37.8-51.4 19.2-120.5 29.1-195.1 29.1s-143.7-9.9-195.1-29.1C67.3 441.3 44.7 428.8 28.1 413 11.3 396.9 0 376.3 0 352L0 160C0 80 128.9 32 288 32S576 80 576 160zm-48 74.9C476.4 269 388.2 288 288 288S99.6 269 48 234.9L48 352c0 8.2 3.5 16.9 13.3 26.3 10.2 9.7 26.2 19.3 48.4 27.6 44.2 16.5 107.1 26.1 178.3 26.1s134.1-9.6 178.3-26.1c22.1-8.3 38.2-17.8 48.4-27.6 9.9-9.4 13.3-18.2 13.3-26.3l0-117.1z"/></svg>