<svg xmlns="http://www.w3.org/2000/svg" viewBox="0 0 576 512"><path fill="currentColor" d="M132.3 64L106.7 192 24 192c-13.3 0-24-10.7-24-24l0-4.1c0-2.6 .4-5.1 1.2-7.6L26.5 80.4C29.8 70.6 39 64 49.3 64l83 0zm23.4 128l25.6-128 82.7 0 0 128-108.3 0zM312 64l82.7 0 25.6 128-108.3 0 0-128zm131.7 0l83 0c10.3 0 19.5 6.6 22.8 16.4l25.3 75.9c.8 2.4 1.2 5 1.2 7.6l0 4.1c0 13.3-10.7 24-24 24l-82.7 0-25.6-128zM27.7 240l520.7 0-4.7 27.9-32 192c-2.2 13.1-14.5 21.9-27.6 19.7s-21.9-14.5-19.7-27.6l.7-4.1-354 0 .7 4.1c2.2 13.1-6.7 25.4-19.7 27.6S66.5 473 64.3 459.9l-32-192-4.7-27.9zM103 400l370 0 18.7-112-407.3 0 18.7 112z"/></svg>