<svg xmlns="http://www.w3.org/2000/svg" viewBox="0 0 640 512"><path fill="currentColor" d="M164.3 64L138.7 192 56 192c-13.3 0-24-10.7-24-24l0-4.1c0-2.6 .4-5.1 1.2-7.6L58.5 80.4C61.8 70.6 71 64 81.3 64l83 0zm23.4 128l25.6-128 82.7 0 0 128-108.3 0zM344 64l82.7 0 16 80c-14.7 .2-29.3 5.5-40.9 15.9-11.5 10.3-22.5 21-32.8 32.1l-24.9 0 0-128zM320 240l9.2 0c-6.4 8.8-12.3 17.6-17.7 26.3-4.3 7-8.5 14.2-12.4 21.7l-182.8 0 18.7 112 137.8 0c1.4 16.5 4.8 32.6 9.8 48l-139.6 0 .7 4.1c2.2 13.1-6.7 25.4-19.7 27.6S98.5 473 96.3 459.9l-32-192-4.7-27.9 260.3 0zm288-72c0 11-7.4 20.3-17.5 23.1-.9-.8-1.7-1.6-2.6-2.4-21.8-20-54.3-21.8-78-5.5-4.2-4.3-8.5-8.5-12.9-12.6l-21.3-106.6 83 0c10.3 0 19.5 6.6 22.8 16.4l25.3 75.9c.8 2.4 1.2 5 1.2 7.6l0 4.1zM505.7 240.3L518 226.5c5.4-6.1 13.3-8.8 20.9-8.9 7.2 0 14.3 2.6 19.9 7.8 19.7 18.3 39.8 43.2 55 70.6 15.1 27.2 26.2 58.1 26.2 88.1 0 88.7-71.3 159.8-160 159.8-89.6 0-160-71.3-160-159.8 0-37.3 16-73.4 36.8-104.5 20.9-31.3 47.5-59 70.9-80.2 5.7-5.2 13.1-7.7 20.3-7.5s13.4 3.2 18.8 7.5c14.4 11.4 38.9 40.7 38.9 40.7zM544 432.2c0-36.5-37-73-54.8-88.4-5.4-4.7-13.1-4.7-18.5 0-17.7 15.4-54.8 51.9-54.8 88.4 0 35.3 28.7 64 64 64s64-28.7 64-64z"/></svg>