<svg xmlns="http://www.w3.org/2000/svg" viewBox="0 0 512 512"><path fill="currentColor" d="M223.1 99.4L194.9 57.1C214.2 51.2 234.7 48 256 48s41.8 3.2 61.1 9.1L288.9 99.4C278.3 97.2 267.3 96 256 96s-22.3 1.2-32.9 3.4zm-19.3 57.5l.3 .4 3.4-2.3C222.1 148 238.6 144 256 144s33.9 4 48.6 11.1l3.4 2.3 .3-.4C343.8 175.7 368 213 368 256l0 200c0 30.9 25.1 56 56 56l32 0c30.9 0 56-25.1 56-56l0-200C512 114.6 397.4 0 256 0S0 114.6 0 256L0 456c0 30.9 25.1 56 56 56l32 0c30.9 0 56-25.1 56-56l0-200c0-43 24.2-80.3 59.8-99.1zM177 116.8c-30.1 17.1-54 43.6-67.9 75.6L63.5 177.2c17.3-42.2 48-77.4 86.9-100.4l26.7 40zM96.9 238.9c-.6 5.6-.9 11.3-.9 17.1l0 64-48 0 0-64c0-11.1 .9-21.9 2.5-32.5l46.4 15.5zM96 368l0 88c0 4.4-3.6 8-8 8l-32 0c-4.4 0-8-3.6-8-8l0-88 48 0zm320 0l48 0 0 88c0 4.4-3.6 8-8 8l-32 0c-4.4 0-8-3.6-8-8l0-88zm48-48l-48 0 0-64c0-5.8-.3-11.5-.9-17.1l46.4-15.5c1.7 10.6 2.5 21.5 2.5 32.5l0 64zM402.9 192.4c-13.9-32-37.8-58.5-67.9-75.6l26.7-40c38.9 23 69.6 58.2 86.9 100.4l-45.7 15.2zM216 192c-13.3 0-24 10.7-24 24l0 272c0 13.3 10.7 24 24 24s24-10.7 24-24l0-272c0-13.3-10.7-24-24-24zm80 0c-13.3 0-24 10.7-24 24l0 272c0 13.3 10.7 24 24 24s24-10.7 24-24l0-272c0-13.3-10.7-24-24-24z"/></svg>