<svg xmlns="http://www.w3.org/2000/svg" viewBox="0 0 576 512"><path fill="currentColor" d="M288 48c-79.5 0-144 64.5-144 144l0 33.8c32.1 7.3 56 36 56 70.2 0 9.9-2 19.4-5.7 28 3.6 8.6 5.7 18.1 5.7 28s-2 19.4-5.7 28c3.6 8.6 5.7 18.1 5.7 28 0 39.8-32.2 72-72 72l-16 0c-39.8 0-72-32.2-72-72 0-3.4 .2-6.7 .7-9.9-10.4-12.5-16.7-28.5-16.7-46.1s6.3-33.6 16.7-46.1c-.4-3.2-.7-6.6-.7-9.9 0-34.3 23.9-62.9 56-70.2L96 192C96 86 182 0 288 0S480 86 480 192l0 33.8c32.1 7.3 56 36 56 70.2 0 3.4-.2 6.7-.7 9.9 10.4 12.5 16.7 28.5 16.7 46.1s-6.3 33.6-16.7 46.1c.5 3.2 .7 6.6 .7 9.9 0 39.8-32.2 72-72 72l-16 0c-39.8 0-72-32.2-72-72 0-9.9 2-19.4 5.7-28-3.6-8.6-5.7-18.1-5.7-28s2-19.4 5.7-28c-3.6-8.6-5.7-18.1-5.7-28 0-34.3 23.9-62.9 56-70.2l0-33.8c0-79.5-64.5-144-144-144zM112 272c-13.3 0-24 10.7-24 24 0 3.1 .6 6.1 1.6 8.8 3.9 10.1 .7 21.5-8 28-5.9 4.4-9.7 11.4-9.7 19.3s3.8 14.8 9.7 19.3c8.7 6.5 11.9 17.9 8 28-1.1 2.7-1.6 5.6-1.6 8.8 0 13.3 10.7 24 24 24l16 0c13.3 0 24-10.7 24-24 0-5.3-1.7-10.1-4.5-14-6-8.4-6-19.7 0-28 2.8-3.9 4.5-8.7 4.5-14s-1.7-10.1-4.5-14c-6-8.4-6-19.7 0-28 2.8-3.9 4.5-8.7 4.5-14 0-13.3-10.7-24-24-24l-16 0zm376 24c0-13.3-10.7-24-24-24l-16 0c-13.3 0-24 10.7-24 24 0 5.3 1.7 10.1 4.5 14 6 8.4 6 19.7 0 28-2.8 3.9-4.5 8.7-4.5 14s1.7 10.1 4.5 14c6 8.4 6 19.7 0 28-2.8 3.9-4.5 8.7-4.5 14 0 13.3 10.7 24 24 24l16 0c13.3 0 24-10.7 24-24 0-3.1-.6-6.1-1.6-8.8-3.9-10.1-.7-21.5 8-28 5.9-4.4 9.7-11.4 9.7-19.3s-3.8-14.8-9.7-19.3c-8.7-6.5-11.9-17.9-8-28 1.1-2.7 1.6-5.6 1.6-8.8z"/></svg>