<svg xmlns="http://www.w3.org/2000/svg" viewBox="0 0 640 512"><path fill="currentColor" d="M432 192c0 20.5-4.3 40-12 57.6 10.6-6.1 22.9-9.6 36-9.6 6 0 11.8 .7 17.4 2.1 4.3-16 6.6-32.8 6.6-50.1 0-106-86-192-192-192S96 86 96 192l0 192c0 70.7 57.3 128 128 128l9.3 0c26.6 0 51.8-8.2 72.8-22.7-1.4-5.5-2.1-11.3-2.1-17.3l0-50.5c-13.8 25.9-40.8 42.5-70.7 42.5l-9.3 0c-44.2 0-80-35.8-80-80l0-192c0-79.5 64.5-144 144-144s144 64.5 144 144zm-208 0c0-35.3 28.7-64 64-64s64 28.7 64 64l0 8c0 13.3 10.7 24 24 24s24-10.7 24-24l0-8c0-61.9-50.1-112-112-112S176 130.1 176 192l0 40c0 13.3 10.7 24 24 24l16 0c13.3 0 24 10.7 24 24s-10.7 24-24 24l-16 0c-13.3 0-24 10.7-24 24s10.7 24 24 24l16 0c39.8 0 72-32.2 72-72 0-37.1-28-67.6-64-71.6l0-16.4zM480 312c0-13.3-10.7-24-24-24s-24 10.7-24 24l0 208c0 13.3 10.7 24 24 24s24-10.7 24-24l0-208zm80 32c0-13.3-10.7-24-24-24s-24 10.7-24 24l0 144c0 13.3 10.7 24 24 24s24-10.7 24-24l0-144zM400 360c0-13.3-10.7-24-24-24s-24 10.7-24 24l0 112c0 13.3 10.7 24 24 24s24-10.7 24-24l0-112zm240 32c0-13.3-10.7-24-24-24s-24 10.7-24 24l0 48c0 13.3 10.7 24 24 24s24-10.7 24-24l0-48z"/></svg>