<svg xmlns="http://www.w3.org/2000/svg" viewBox="0 0 576 512"><path fill="currentColor" d="M400 192c0 6.4-.4 12.7-1.2 18.9 10.8-1.9 21.9-2.9 33.2-2.9 5.1 0 10.2 .2 15.3 .6 .5-5.5 .7-11 .7-16.6 0-106-86-192-192-192S64 86 64 192l0 192c0 70.7 57.3 128 128 128l9.3 0c22.9 0 44.8-6.1 63.8-17-8-14-14.3-29.1-18.5-45-13 8.9-28.7 14-45.2 14l-9.3 0c-44.2 0-80-35.8-80-80l0-192c0-79.5 64.5-144 144-144s144 64.5 144 144zm-208 0c0-35.3 28.7-64 64-64s64 28.7 64 64l0 8c0 13.3 10.7 24 24 24s24-10.7 24-24l0-8c0-61.9-50.1-112-112-112S144 130.1 144 192l0 40c0 13.3 10.7 24 24 24l16 0c13.3 0 24 10.7 24 24s-10.7 24-24 24l-16 0c-13.3 0-24 10.7-24 24s10.7 24 24 24l16 0c39.8 0 72-32.2 72-72 0-37.1-28-67.6-64-71.6l0-16.4zM576 400a144 144 0 1 0 -288 0 144 144 0 1 0 288 0zm-86.6-60.9c7.1 5.2 8.7 15.2 3.5 22.3l-64 88c-2.8 3.8-7 6.2-11.7 6.5s-9.3-1.3-12.6-4.6l-40-40c-6.2-6.2-6.2-16.4 0-22.6s16.4-6.2 22.6 0l26.8 26.8 53-72.9c5.2-7.1 15.2-8.7 22.4-3.5z"/></svg>