<svg xmlns="http://www.w3.org/2000/svg" viewBox="0 0 384 512"><path fill="currentColor" d="M336 192c0 48.1-23.6 90.8-60 117-16.8 12.1-34.4 29.8-44.3 54.5l-20.1 50.2c-12.2 30.4-41.6 50.3-74.3 50.3l-9.3 0c-44.2 0-80-35.8-80-80l0-192c0-79.5 64.5-144 144-144s144 64.5 144 144zM276.3 381.4c5.5-13.7 15.8-24.8 27.8-33.4 48.4-34.9 80-91.7 80-156 0-106-86-192-192-192S0 86 0 192L0 384c0 70.7 57.3 128 128 128l9.3 0c52.3 0 99.4-31.9 118.8-80.5l20.1-50.2zM128 192c0-35.3 28.7-64 64-64s64 28.7 64 64l0 8c0 13.3 10.7 24 24 24s24-10.7 24-24l0-8c0-61.9-50.1-112-112-112S80 130.1 80 192l0 40c0 13.3 10.7 24 24 24l16 0c13.3 0 24 10.7 24 24s-10.7 24-24 24l-16 0c-13.3 0-24 10.7-24 24s10.7 24 24 24l16 0c39.8 0 72-32.2 72-72 0-37.1-28-67.6-64-71.6l0-16.4z"/></svg>