<svg xmlns="http://www.w3.org/2000/svg" viewBox="0 0 640 512"><path fill="currentColor" d="M320.5-32c8 0 15.4 4 19.9 10.6l58 86.2c-14.9 6.4-28.8 14.5-41.7 24l-36.3-53.9-47.8 71c-5.4 8-15 12-24.5 10.2l-84-16.4 16.4 84c1.8 9.5-2.2 19.1-10.2 24.5l-71 47.8 71 47.8c8 5.4 12 15 10.2 24.5l-16.4 84 84-16.4 3.5-.4c8.3-.4 16.3 3.6 21 10.6l47.8 71 36.2-53.8c12.8 9.5 26.8 17.6 41.7 24l-58 86.2c-4.5 6.6-11.9 10.6-19.9 10.6s-15.4-4-19.9-10.6L241.8 446 138.4 466.2c-7.8 1.5-15.9-.9-21.6-6.6s-8.1-13.8-6.6-21.6l20.2-103.4-87.4-58.8C36.5 271.4 32.5 264 32.5 256s4-15.4 10.6-19.9l87.4-58.8-20.2-103.3c-1.5-7.8 .9-15.9 6.6-21.6s13.8-8.1 21.6-6.6l103.3 20.2 58.8-87.4 1.8-2.3c4.5-5.2 11.1-8.2 18.1-8.2zm160 448a160 160 0 1 1 0-320 160 160 0 1 1 0 320zM310.3 136.4c-12.6 17.9-22.4 37.8-28.9 59.1-19.8 12.8-32.9 35.1-32.9 60.4 0 25.3 13.1 47.6 32.9 60.4 6.5 21.4 16.3 41.3 28.9 59.1-61.5-5.2-109.8-56.7-109.8-119.5s48.3-114.4 109.8-119.6zM480.5 144a112 112 0 1 0 0 224 112 112 0 1 0 0-224z"/></svg>