<svg xmlns="http://www.w3.org/2000/svg" viewBox="0 0 384 512"><path fill="currentColor" d="M192 448C117.3 448 48 372.6 48 288 48 239.7 62.1 180.3 89.3 134.5 116.4 88.8 151.1 64 192 64s75.6 24.8 102.7 70.5c27.2 45.9 41.3 105.3 41.3 153.5 0 84.6-69.3 160-144 160zM0 288C0 394 86 496 192 496S384 394 384 288c0-112-64-272-192-272S0 176 0 288zM170.8 134c6.5-6 7-16.1 1-22.6s-16.1-7-22.6-1c-23.9 21.8-41.1 52.7-52.3 84.2-11.2 31.6-16.9 65.1-16.9 93.5 0 8.8 7.2 16 16 16s16-7.2 16-16c0-24.5 5-54.4 15.1-82.8 10.1-28.5 25-54.1 43.7-71.2z"/></svg>