<svg xmlns="http://www.w3.org/2000/svg" viewBox="0 0 512 512"><path fill="currentColor" d="M505 7c9.4 9.4 9.4 24.6 0 33.9l-9 9 0 142.1c0 8.8-7.2 16-16 16-26.5 0-48-21.5-48-48 0-5.8-4-10.7-9.4-12.7-13.3-4.8-25.4-13-35.1-22.8-9.7-9.8-17.9-21.9-22.8-35.2-2-5.4-6.9-9.4-12.6-9.4-26.5 0-48-21.5-48-48 0-8.8 7.2-16 16-16l141.9 0 9-9c9.4-9.4 24.6-9.4 33.9 0zM169.9 139.3c35.2-17.1 70.7-34.3 100.7-56.6 8.7 13.9 20.8 25.5 35.2 33.5-15.5 12.1-31.7 22.5-47.7 31.7-21.5 12.3-47 24.8-70.4 36.2l0 0c-13.9 6.8-27 13.2-38 18.9-33.6 17.6-59 34.3-76.1 54.5-15.7 18.5-26.2 42-25.6 77.9 1 70 59 128.7 128.5 128.7 59 .1 115.4-40.1 163.9-107 29.4-40.6 53.1-87.4 69.8-131.3 11.2 11.9 25.4 20.9 41.4 25.9-48.8 122.6-145.7 260.4-275.2 260.3-96.5-.1-175-80.8-176.4-176-1.7-113.5 83.3-154.7 169.9-196.7z"/></svg>