<svg xmlns="http://www.w3.org/2000/svg" viewBox="0 0 512 512"><path fill="currentColor" d="M464 256c0-48.8-16.8-93.7-44.9-129.1L126.9 419.1c35.5 28.1 80.3 44.9 129.1 44.9 114.9 0 208-93.1 208-208zM453.2 92.7c36.7 44.3 58.8 101.2 58.8 163.3 0 141.4-114.6 256-256 256-62.1 0-118.9-22.1-163.3-58.8L41 505c-9.4 9.4-24.6 9.4-33.9 0S-2.3 480.4 7 471l51.8-51.8C22.1 374.9 0 318.1 0 256 0 114.6 114.6 0 256 0 318.1 0 374.9 22.1 419.3 58.8L471 7c9.4-9.4 24.6-9.4 33.9 0s9.4 24.6 0 33.9L453.2 92.7zM92.9 385.1L385.1 92.9C349.7 64.8 304.8 48 256 48 141.1 48 48 141.1 48 256 48 304.8 64.8 349.7 92.9 385.1z"/></svg>