<svg xmlns="http://www.w3.org/2000/svg" viewBox="0 0 640 512"><path fill="currentColor" d="M432 56c0 13.3-10.7 24-24 24l-64 0 0 48 96 0c39.8 0 72 32.2 72 72l0 8.7c-5.3-.4-10.6-.7-16-.7-10.9 0-21.6 .9-32 2.7l0-10.7c0-13.3-10.7-24-24-24l-240 0c-13.3 0-24 10.7-24 24l0 112c0 13.3 10.7 24 24 24l24 0c7.6 0 14.7 3.6 19.2 9.6l33.6 44.8c4.5 6 11.6 9.6 19.2 9.6l8 0c0 16.6 2.1 32.7 6 48l-14 0c-22.7 0-44-10.7-57.6-28.8L212 384 200 384c-39.8 0-72-32.2-72-72l0-32-48 0 0 80c0 13.3-10.7 24-24 24s-24-10.7-24-24l0-208c0-13.3 10.7-24 24-24s24 10.7 24 24l0 80 48 0 0-32c0-39.8 32.2-72 72-72l96 0 0-48-64 0c-13.3 0-24-10.7-24-24s10.7-24 24-24l176 0c13.3 0 24 10.7 24 24zM560 218.9l0-34.9c0-13.3 10.7-24 24-24s24 10.7 24 24l0 60c-14.6-10.5-30.7-19-48-25.1zM376 224c8.8 0 16.4 4.7 20.6 11.7-16.3 9.9-31.1 22.2-43.7 36.3L264 272c-13.3 0-24-10.7-24-24s10.7-24 24-24l112 0zm120 32a144 144 0 1 1 0 288 144 144 0 1 1 0-288zm0 228a20 20 0 1 0 0-40 20 20 0 1 0 0 40zm0-180c-8.8 0-16 7.2-16 16l0 80c0 8.8 7.2 16 16 16s16-7.2 16-16l0-80c0-8.8-7.2-16-16-16z"/></svg>