<svg xmlns="http://www.w3.org/2000/svg" viewBox="0 0 576 512"><path fill="currentColor" d="M496 0a80 80 0 1 1 0 160 80 80 0 1 1 0-160zM93.4 64L369 64c-.7 5.2-1 10.6-1 16 0 11 1.4 21.8 4 32L93.4 112c-7.4 0-13.4 6-13.4 13.4 0 4.2 2 8.2 5.3 10.7L263.8 271.5c14.3 10.8 34.1 10.8 48.4 0l112.4-85.3c15.5 10.4 33.3 17.5 52.6 20.4l-136 103.2c-31.4 23.9-74.9 23.9-106.4 0L80 192.3 80 384c0 8.8 7.2 16 16 16l384 0c8.8 0 16-7.2 16-16l0-176c17 0 33.2-3.3 48-9.3L544 384c0 35.3-28.7 64-64 64L96 448c-35.3 0-64-28.7-64-64l0-256 .1 0c0-.9-.1-1.7-.1-2.6 0-33.9 27.5-61.4 61.4-61.4z"/></svg>