<svg xmlns="http://www.w3.org/2000/svg" viewBox="0 0 576 512"><path fill="currentColor" d="M112 48l304 0c0-26.5-21.5-48-48-48L112 0C85.5 0 64 21.5 64 48l0 128 48 0 0-128zm96 128l0-32 320 0 0 224-128 0 0 48 128 0c26.5 0 48-21.5 48-48l0-224c0-26.5-21.5-48-48-48L208 96c-26.5 0-48 21.5-48 48l0 32 48 0zm96 96l0 22.8-125.1 72.4c-.9 .5-1.9 .8-2.9 .8s-2-.3-2.9-.8L48 294.8 48 272 304 272zM48 464l0-113.7 101.1 58.5c8.2 4.7 17.5 7.2 26.9 7.2s18.8-2.5 26.9-7.2L304 350.3 304 464 48 464zm0-240c-26.5 0-48 21.5-48 48L0 464c0 26.5 21.5 48 48 48l256 0c26.5 0 48-21.5 48-48l0-192c0-26.5-21.5-48-48-48L48 224zm376-32c-13.3 0-24 10.7-24 24l0 48c0 13.3 10.7 24 24 24l48 0c13.3 0 24-10.7 24-24l0-48c0-13.3-10.7-24-24-24l-48 0z"/></svg>