<svg xmlns="http://www.w3.org/2000/svg" viewBox="0 0 576 512"><path fill="currentColor" d="M160 80l352 0c8.8 0 16 7.2 16 16 0 2.7-1.2 5.2-3.4 6.9L360.6 230.5c-14.4 11.2-34.7 11.2-49.1 0L147.4 102.9c-2.1-1.7-3.4-4.2-3.4-6.9 0-8.8 7.2-16 16-16zm368 81.1L528 320c0 8.8-7.2 16-16 16l-352 0c-8.8 0-16-7.2-16-16l0-158.9 138 107.3c31.8 24.7 76.3 24.7 108.1 0L528 161.1zM96 96l0 224c0 35.3 28.7 64 64 64l352 0c35.3 0 64-28.7 64-64l0-224c0-35.3-28.7-64-64-64L160 32c-35.3 0-64 28.7-64 64zM24 128c-13.3 0-24 10.7-24 24L0 416c0 35.3 28.7 64 64 64l392 0c13.3 0 24-10.7 24-24s-10.7-24-24-24L64 432c-8.8 0-16-7.2-16-16l0-264c0-13.3-10.7-24-24-24z"/></svg>