<svg xmlns="http://www.w3.org/2000/svg" viewBox="0 0 640 512"><path fill="currentColor" d="M125.4 64c-33.9 0-61.4 27.5-61.4 61.4 0 .9 0 1.7 .1 2.6l-.1 0 0 256c0 35.3 28.7 64 64 64l193.4 0c-6.9-15.1-11.9-31.2-14.8-48L128 400c-8.8 0-16-7.2-16-16l0-191.7 154.8 117.4c12.5 9.5 26.8 15.2 41.6 17.1 3.7-16.8 9.5-32.8 17.3-47.6-10.3 1.5-21.1-1.1-29.9-7.7L117.3 136.1c-3.3-2.5-5.3-6.5-5.3-10.7 0-7.4 6-13.4 13.4-13.4L512 112c8.8 0 16 7.2 16 16l0 50.7c16.8 2.8 32.9 7.8 48 14.8l0-65.4c0-35.3-28.7-64-64-64L125.4 64zM640 368a144 144 0 1 0 -288 0 144 144 0 1 0 288 0zm-86.6-60.9c7.1 5.2 8.7 15.2 3.5 22.3l-64 88c-2.8 3.8-7 6.2-11.7 6.5s-9.3-1.3-12.6-4.6l-40-40c-6.2-6.2-6.2-16.4 0-22.6s16.4-6.2 22.6 0l26.8 26.8 53-72.9c5.2-7.1 15.2-8.7 22.4-3.5z"/></svg>