<svg xmlns="http://www.w3.org/2000/svg" viewBox="0 0 576 512"><path fill="currentColor" d="M544 164.3l0 97.7c-8.5-3.9-18-6-28-6-7 0-13.7 1-20 3l0-34.7-154.8 117.4c-31.4 23.9-74.9 23.9-106.4 0L80 224.3 80 416c0 8.9 7.2 16 16 16l314.2 0c2.3 3.8 4.8 7.5 7.6 11-7.9 10.4-12.9 23.2-13.7 37L96 480c-35.4 0-64-28.7-64-64l0-252c.1-15.5 7.8-30 20.5-38.8L238-2.7c30.1-20.7 69.8-20.7 99.9 0L523.5 125.2c12.8 8.8 20.4 23.3 20.5 38.8l0 .3zm-48.4 0L310.7 36.8c-13.7-9.4-31.7-9.4-45.4 0L80.4 164.4 263.8 303.5c14.3 10.8 34.1 10.8 48.4 0L495.6 164.4zM516 304c11 0 20 9 20 20l0 4 8 0c11 0 20 9 20 20s-9 20-20 20l-47.5 0c-6.9 0-12.5 5.6-12.5 12.5 0 6.1 4.4 11.3 10.4 12.3l41.7 7c25.3 4.2 43.9 26.1 43.9 51.8 0 26.1-19 47.7-44 51.8l0 4.7c0 11-9 20-20 20s-20-9-20-20l0-4-24 0c-11 0-20-9-20-20s9-20 20-20l55.5 0c6.9 0 12.5-5.6 12.5-12.5 0-6.1-4.4-11.3-10.4-12.3l-41.7-7c-25.3-4.2-43.9-26.1-43.9-51.8 0-28.8 23.2-52.2 52-52.5l0-4c0-11 9-20 20-20z"/></svg>