<svg xmlns="http://www.w3.org/2000/svg" viewBox="0 0 576 512"><path fill="currentColor" d="M493.1 247c1.9-1.9 2.9-4.4 2.9-7s-1-5.2-2.9-7L311 50.9c-1.9-1.9-4.4-2.9-7-2.9s-5.2 1-7 2.9L214.9 133 411 329.1 493.1 247 527 281 376 432 520 432c13.3 0 24 10.7 24 24s-10.7 24-24 24l-341.5 0c-17 0-33.3-6.7-45.3-18.7L17 345C6.1 334.1 0 319.4 0 304s6.1-30.1 17-41L263 17C273.9 6.1 288.6 0 304 0s30.1 6.1 41 17L527 199c10.9 10.9 17 25.6 17 41s-6.1 30.1-17 41L493.1 247zm-116 116L181 166.9 50.9 297c-1.9 1.9-2.9 4.4-2.9 7s1 5.2 2.9 7L167.2 427.3c3 3 7.1 4.7 11.3 4.7l123 0c4.2 0 8.3-1.7 11.3-4.7L377.1 363z"/></svg>