<svg xmlns="http://www.w3.org/2000/svg" viewBox="0 0 512 512"><path fill="currentColor" d="M152 40a56 56 0 1 1 112 0 56 56 0 1 1 -112 0zM286 241.5c14.2-11.3 31.8-17.5 50-17.5l96 0c44.2 0 80 35.8 80 80s-35.8 80-80 80L364.1 384 226 494.5c-14.2 11.3-31.8 17.5-50 17.5l-96 0c-44.2 0-80-35.8-80-80s35.8-80 80-80l67.9 0 138.1-110.5zM336 272c-7.3 0-14.3 2.5-20 7L171.3 394.7c-4.3 3.4-9.5 5.3-15 5.3L80 400c-17.7 0-32 14.3-32 32s14.3 32 32 32l96 0c7.3 0 14.3-2.5 20-7L340.6 341.3c4.3-3.4 9.5-5.3 15-5.3l76.4 0c17.7 0 32-14.3 32-32s-14.3-32-32-32l-96 0zM208 128c32.1 0 59.8 18.9 72.5 46.2-4.1 3.3-54.9 43.9-152.5 122l0-88.2c0-44.2 35.8-80 80-80z"/></svg>