<svg xmlns="http://www.w3.org/2000/svg" viewBox="0 0 448 512"><path fill="currentColor" d="M73.3 192C100.8 99.5 186.5 32 288 32l72 0c13.3 0 24 10.7 24 24s-10.7 24-24 24l-72 0c-74.6 0-138.4 46.4-164 112l148 0c13.3 0 24 10.7 24 24s-10.7 24-24 24l-159.3 0c-.5 5.3-.7 10.6-.7 16s.2 10.7 .7 16L272 272c13.3 0 24 10.7 24 24s-10.7 24-24 24l-148 0c25.6 65.6 89.4 112 164 112l72 0c13.3 0 24 10.7 24 24s-10.7 24-24 24l-72 0c-101.5 0-187.2-67.5-214.7-160L40 320c-13.3 0-24-10.7-24-24s10.7-24 24-24l24.6 0c-.7-10.5-.7-21.5 0-32L40 240c-13.3 0-24-10.7-24-24s10.7-24 24-24l33.3 0z"/></svg>