<svg xmlns="http://www.w3.org/2000/svg" viewBox="0 0 512 512"><path fill="currentColor" d="M0 88C0 74.7 10.7 64 24 64l176 0c13.3 0 24 10.7 24 24s-10.7 24-24 24l-152 0 0 120 136 0c13.3 0 24 10.7 24 24s-10.7 24-24 24l-136 0 0 120 152 0c13.3 0 24 10.7 24 24s-10.7 24-24 24L24 448c-13.3 0-24-10.7-24-24L0 88zm272 0c0-13.3 10.7-24 24-24l192 0c8.6 0 16.5 4.6 20.8 12s4.3 16.5 .1 24L337.4 400 488 400c13.3 0 24 10.7 24 24s-10.7 24-24 24l-192 0c-8.6 0-16.5-4.6-20.8-12s-4.3-16.5-.1-24L446.6 112 296 112c-13.3 0-24-10.7-24-24z"/></svg>