<svg xmlns="http://www.w3.org/2000/svg" viewBox="0 0 640 512"><path fill="currentColor" d="M640 24c0-9.1-5.1-17.4-13.3-21.5S608.9-.7 601.6 4.8L370.5 178.2 299.7 56c-8.6-14.8-24.4-24-41.5-24L176 32c-26.5 0-48 21.5-48 48l0 112-48 0c-26.5 0-48 21.5-48 48l0 72.4C12.4 330 0 355.6 0 384 0 437 43 480 96 480l224 0c53 0 96-43 96-96 0-20.5-6.4-39.4-17.3-55L592 184 592 308.6 432.9 437.3c-7.9 6.4-10.9 17.1-7.5 26.7s12.5 16 22.6 16l112 0c44.2 0 80-35.8 80-80l0-376zM80 289.3l0-49.3 256 0 0 49.3c-5.2-.9-10.5-1.3-16-1.3L96 288c-5.5 0-10.8 .5-16 1.3zM323 192l-147 0 0-112 82.2 0 64.8 112zm61 88l0-52 208-156 0 52-208 156zM515.8 432l76.2-61.7 0 29.7c0 17.7-14.3 32-32 32l-44.2 0zM96 336l224 0c26.5 0 48 21.5 48 48s-21.5 48-48 48L96 432c-26.5 0-48-21.5-48-48s21.5-48 48-48z"/></svg>