<svg xmlns="http://www.w3.org/2000/svg" viewBox="0 0 576 512"><path fill="currentColor" d="M312 8c0-13.3-10.7-24-24-24S264-5.3 264 8l0 48c0 13.3 10.7 24 24 24s24-10.7 24-24l0-48zM24 464c-13.3 0-24 10.7-24 24s10.7 24 24 24l528 0c13.3 0 24-10.7 24-24s-10.7-24-24-24l-162.8 0c-10.8-45.9-52-80-101.2-80s-90.4 34.1-101.2 80L24 464zm213.4 0c9-18.9 28.3-32 50.6-32s41.6 13.1 50.6 32l-101.2 0zM543.2 30.2c3.1-11.6-2.8-23.7-13.9-28.3s-23.9-.4-30 9.9L344.7 274.1 311.2 145.9C308.5 135.4 298.9 128 288 128s-20.5 7.4-23.2 17.9L227.4 289.4 145 207c-7.6-7.6-19.4-9.2-28.8-3.9s-14.1 16.2-11.5 26.7l23.9 95.7-70.8-5.4c-9.2-.7-18 4-22.7 12s-4.2 18 1.1 25.6l40.4 58.3 58.4 0-30.6-44.2 53.7 4.1c7.7 .6 15.2-2.6 20.2-8.4s6.8-13.8 4.9-21.3l-11-43.9 50.7 50.7c6.1 6.1 15 8.4 23.3 6.2s14.8-8.8 16.9-17.1l24.8-95 24.8 95c2.4 9.4 10.3 16.4 19.9 17.7s19.1-3.2 24-11.6L451.2 188 408.8 345.8c-2 7.6-.2 15.7 4.8 21.7s12.7 9.2 20.5 8.4l36.9-3.4-30.1 43.4 58.4 0 40.4-58.3c5.3-7.7 5.7-17.7 1-25.8s-13.6-12.7-22.9-11.8L464.1 325 543.2 30.2z"/></svg>