<svg xmlns="http://www.w3.org/2000/svg" viewBox="0 0 512 512"><path fill="currentColor" d="M233 202.9l-41.9-41.9 0 0c-9.4-9.4-9.4-24.6 0-33.9s24.6-9.4 33.9 0l8 8c16.4-16.4 51.5-51.5 105.2-105.2 19.1-19.1 45-29.8 72-29.8 56.2 0 101.8 45.6 101.8 101.8 0 27-10.7 52.9-29.8 72-53.7 53.7-88.8 88.8-105.2 105.2l8 8c9.4 9.4 9.4 24.6 0 33.9s-24.6 9.4-33.9 0c-1-1-15-15-41.9-41.9L233 202.9zM343 245.1L448.2 139.9c10.1-10.1 15.8-23.8 15.8-38.1 0-29.7-24.1-53.8-53.8-53.8-14.3 0-28 5.7-38.1 15.8L266.9 169 343 245.1zM172.1 209.9l33.9 33.9-76.1 76.1 124.1 0 14.1-14.1 33.9 33.9-119 119c-13.5 13.5-31.8 21.1-50.9 21.1l-52.9 0-42 28c-9.5 6.3-22.2 5.1-30.3-3s-9.3-20.8-3-30.3l28-42 0-52.9c0-19.1 7.6-37.4 21.1-50.9l119-119z"/></svg>