<svg xmlns="http://www.w3.org/2000/svg" viewBox="0 0 640 512"><path fill="currentColor" d="M261 136.2c-10.6 3.1-20.6 6.9-30 11.4-11 5.3-23.5 6.2-35.2 2.6l-27.7-8.6 2.3 3.6c10.6 16.2 10.5 37.1-.3 53.2-4.2 6.2-7.6 12.5-10.3 19-5.2 12.4-15.4 22-28.1 26.5L97.9 256 131.9 268.1c12.7 4.5 22.8 14.1 28.1 26.5 2.7 6.5 6.2 12.8 10.3 19 10.8 16.1 10.9 37 .3 53.2l-2.3 3.6 27.7-8.6c11.6-3.6 24.2-2.7 35.2 2.6 9.4 4.5 19.4 8.4 30 11.4 11.4 3.3 21.1 10.6 27.4 20.7L320 447 351.6 396.5c6.3-10 16-17.4 27.4-20.7 10.6-3.1 20.6-6.9 30-11.4 11-5.3 23.5-6.2 35.2-2.6l27.7 8.6-2.3-3.6c-10.6-16.2-10.5-37.1 .3-53.2 4.2-6.2 7.6-12.5 10.3-19 5.2-12.4 15.4-22 28.1-26.5l33.9-12.1-33.9-12.1c-12.7-4.5-22.8-14.1-28.1-26.5-2.7-6.5-6.2-12.8-10.3-19-10.8-16.1-10.9-37-.3-53.2l2.3-3.6-27.7 8.6c-11.6 3.6-24.2 2.7-35.2-2.6-9.4-4.5-19.4-8.4-30-11.4-11.4-3.3-21.1-10.6-27.4-20.7L320 65 288.4 115.5c-6.3 10-16 17.4-27.4 20.7zM344.5 13.6l47.8 76.5c13.1 3.8 25.7 8.6 37.5 14.3l95.3-29.8c9.2-2.9 19.1 .3 24.9 8s6.1 18.1 .8 26.1l-41.3 62.7c5.8 8.6 10.7 17.7 14.7 27.1l100.6 35.9c9 3.2 15.1 11.8 15.1 21.4s-6 18.2-15.1 21.4L524.3 313.3c-4 9.4-8.9 18.5-14.7 27.1l41.3 62.7c5.3 8 4.9 18.5-.8 26.1s-15.7 10.9-24.9 8l-95.3-29.8c-11.8 5.7-24.4 10.5-37.5 14.3l-47.8 76.5C339.2 506.9 330 512 320 512s-19.2-5.1-24.5-13.6l-47.8-76.5c-13.1-3.8-25.7-8.6-37.5-14.3l-95.3 29.8c-9.2 2.9-19.1-.3-24.9-8s-6.1-18.1-.8-26.1l41.3-62.7c-5.8-8.6-10.7-17.7-14.7-27.1L15.1 277.4C6 274.2 0 265.6 0 256s6-18.2 15.1-21.4l100.6-35.9c4-9.4 8.9-18.5 14.7-27.1L89.2 108.8c-5.3-8-4.9-18.5 .8-26.1s15.7-10.9 24.9-8l95.3 29.8c11.8-5.7 24.4-10.5 37.5-14.3l47.8-76.5C300.8 5.1 310 0 320 0s19.2 5.1 24.5 13.6zM220.1 219c4.9-16.8 25-20.6 41.3-14.1 18.2 7.2 37.9 11.1 58.6 11.1s40.5-3.9 58.6-11.1c16.3-6.4 36.4-2.7 41.3 14.1 2.7 9.2 4.1 18.9 4.1 29 0 57.4-46.6 104-104 104S216 305.4 216 248c0-10 1.4-19.8 4.1-29zm36 26.5c-1.3 35.8 28.1 66.5 64 66.5s65.3-30.7 64-66.5c-12 4-24.5 7-37.3 8.7-.1 .4-.2 .7-.4 1.1-5.5 14.4-13.5 24.4-18.1 29.3-2.1 2.3-5.1 3.4-8.2 3.4s-6.1-1.1-8.2-3.4c-4.5-4.9-12.6-14.9-18.1-29.3-.1-.4-.3-.7-.4-1.1-12.9-1.7-25.3-4.6-37.3-8.7z"/></svg>