<svg xmlns="http://www.w3.org/2000/svg" viewBox="0 0 576 512"><path fill="currentColor" d="M533.9 240.9c8.4-10.3 23.4-11.9 33.7-3.5s11.8 23.5 3.5 33.8c-16.4 19.9-35.6 37.5-56.1 53.3l42.5 73.6c6.6 11.5 2.7 26.2-8.8 32.8s-26.2 2.7-32.8-8.8l-40.4-70c-17 10.6-36.2 20.8-57.3 29.5l21.6 80.7c3.4 12.8-4.2 25.9-17 29.4s-26-4.2-29.4-17l-20.8-77.8c-18.9 5-38.9 8.5-60 10.1l0 81c0 13.3-10.7 24-24 24s-24-10.7-24-24l0-81c-21.1-1.6-41.1-5.1-60-10.1l-20.8 77.8c-3.4 12.8-16.6 20.4-29.4 17-12.8-3.4-20.4-16.6-17-29.4l21.6-80.7c-21.1-8.7-40.3-18.9-57.3-29.5l-40.4 70c-6.6 11.5-21.3 15.4-32.8 8.8s-15.4-21.3-8.8-32.8l42.4-73.5c-20.5-15.8-39.8-33.5-56.2-53.4-8.4-10.3-6.8-25.4 3.5-33.8s25.4-6.8 33.7 3.5c19 22.9 42.8 42.5 67.1 59.4 43.5 30.3 104.8 59.7 178.3 59.7s134.7-29.4 178.3-59.7c24.3-16.9 48.1-36.6 67.1-59.4z"/></svg>