<svg xmlns="http://www.w3.org/2000/svg" viewBox="0 0 576 512"><path fill="currentColor" d="M41-24.9c-9.4-9.4-24.6-9.4-33.9 0S-2.3-.3 7 9.1l528 528c9.4 9.4 24.6 9.4 33.9 0s9.4-24.6 0-33.9l-96.4-96.4c2.7-2.4 5.4-4.8 8-7.2 46.8-43.5 78.1-95.4 93-131.1 3.3-7.9 3.3-16.7 0-24.6-14.9-35.7-46.2-87.7-93-131.1-47.1-43.7-111.8-80.6-192.6-80.6-56.8 0-105.6 18.2-146 44.2L41-24.9zM176.9 111.1c32.1-18.9 69.2-31.1 111.1-31.1 65.2 0 118.8 29.6 159.9 67.7 38.5 35.7 65.1 78.3 78.6 108.3-13.6 30-40.2 72.5-78.6 108.3-3.1 2.8-6.2 5.6-9.4 8.4L393.8 328c14-20.5 22.2-45.3 22.2-72 0-70.7-57.3-128-128-128-26.7 0-51.5 8.2-72 22.2l-39.1-39.1zm182 182l-108-108c11.1-5.8 23.7-9.1 37.1-9.1 44.2 0 80 35.8 80 80 0 13.4-3.3 26-9.1 37.1zM88 157.9c-9.4-9.4-24.6-9.4-33.9 0s-9.4 24.6 0 33.9L328.2 466c9.4 9.4 24.6 9.4 33.9 0s9.4-24.6 0-33.9L88 157.9zM45.7 251.3c-9.4-9.4-24.6-9.4-33.9 0s-9.4 24.6 0 33.9L181.9 455.5c9.4 9.4 24.6 9.4 33.9 0s9.4-24.6 0-33.9L45.7 251.3z"/></svg>