<svg xmlns="http://www.w3.org/2000/svg" viewBox="0 0 512 512"><path fill="currentColor" d="M199 169c15.6 15.6 52.3 52.3 110.1 110.1 27 27 40.9 40.9 41.9 41.9 9.4 9.4 24.6 9.4 33.9 0s9.4-24.6 0-33.9l-8-8c16.4-16.4 51.5-51.5 105.2-105.2 19.1-19.1 29.8-45 29.8-72 0-56.2-45.6-101.8-101.8-101.8-27 0-52.9 10.7-72 29.8-53.7 53.7-88.8 88.8-105.2 105.2l-8-8c-9.4-9.4-24.6-9.4-33.9 0s-9.4 24.6 0 33.9l0 0 8 8zm249.2-29.1L343 245.1 266.9 169 372.1 63.8c10.1-10.1 23.8-15.8 38.1-15.8 29.7 0 53.8 24.1 53.8 53.8 0 14.3-5.7 28-15.8 38.1zM53.1 329C39.6 342.5 32 360.8 32 379.9l0 52.9-28 42c-6.3 9.5-5.1 22.2 3 30.3s20.8 9.3 30.3 3l42-28 52.9 0c19.1 0 37.4-7.6 50.9-21.1l119-119-33.9-33.9-119 119c-4.5 4.5-10.6 7-17 7l-52.1 0 0-52.1c0-6.4 2.5-12.5 7-17l119-119-33.9-33.9-119 119z"/></svg>