<svg xmlns="http://www.w3.org/2000/svg" viewBox="0 0 576 512"><path fill="currentColor" d="M226.9 387c22-31.5 37.1-77.7 37.1-131s-15.1-99.4-37.1-131C204.8 93.3 179 80 156 80s-48.8 13.3-70.9 45c-16.4 23.6-29 55.3-34.3 92.1 11.1-5.9 23.8-9.2 37.2-9.2 44.2 0 80 35.8 80 80s-35.8 80-80 80c-5.2 0-10.2-.5-15.1-1.4 3.7 7.3 7.8 14.1 12.2 20.4 22.1 31.7 47.9 45 70.9 45s48.8-13.3 70.9-45zM156 32C211.6 32 260.4 73.7 288 136.6 315.6 73.7 364.4 32 420 32 506.2 32 576 132.3 576 256S506.2 480 420 480C364.4 480 315.6 438.3 288 375.4 260.4 438.3 211.6 480 156 480 69.8 480 0 379.7 0 256S69.8 32 156 32zM528 256c0-53.3-15.1-99.4-37.1-131-22.1-31.7-47.9-45-70.9-45s-48.8 13.3-70.9 45c-15.8 22.8-28.1 53.1-33.7 88.2 8.9-3.4 18.6-5.3 28.7-5.3 44.2 0 80 35.8 80 80s-35.8 80-80 80c-2.2 0-4.3-.1-6.5-.3 3.6 6.9 7.5 13.3 11.6 19.2 22.1 31.7 47.9 45 70.9 45s48.8-13.3 70.9-45c22-31.5 37.1-77.7 37.1-131zM313 279.9a32 32 0 1 0 62 16.2 32 32 0 1 0 -62-16.2zM88 320a32 32 0 1 0 0-64 32 32 0 1 0 0 64z"/></svg>