<svg xmlns="http://www.w3.org/2000/svg" viewBox="0 0 576 512"><path fill="currentColor" d="M496 256c0 18.7-2.5 36.8-7.1 54 10.8-3.9 22.3-6 34.3-6 5.4 0 10.8 .4 16 1.3 3.1-15.9 4.7-32.4 4.7-49.3 0-141.4-114.6-256-256-256S32 114.6 32 256c0 16.9 1.6 33.3 4.7 49.3 5.2-.8 10.6-1.3 16-1.3 12 0 23.6 2.1 34.3 6-4.6-17.2-7.1-35.3-7.1-54 0-114.9 93.1-208 208-208s208 93.1 208 208zM288 464c-49.1 0-94.2-17-129.7-45.4l13.1 65.3C206.3 501.9 246 512 288 512s81.7-10.1 116.7-28.1l13.1-65.3C382.2 447 337.1 464 288 464zm0-160c-26.5 0-48 21.5-48 48l0 16c0 26.5 21.5 48 48 48s48-21.5 48-48l0-16c0-26.5-21.5-48-48-48zm-46.6-61c22.5-36.9 18.6-78.8-8.7-93.7s-67.6 2.9-90.1 39.8-18.6 78.8 8.7 93.7 67.6-2.9 90.1-39.8zm183.3 39.8c27.3-14.9 31.1-56.8 8.7-93.7s-62.8-54.7-90.1-39.8-31.1 56.9-8.7 93.7 62.8 54.7 90.1 39.8zM0 404.8l0 107.2 128 0-23.5-117.6C99.5 369.8 77.9 352 52.8 352 23.6 352 0 375.6 0 404.8zM523.2 352c-25.1 0-46.8 17.8-51.7 42.4L448 512 576 512 576 404.8c0-29.1-23.6-52.8-52.8-52.8z"/></svg>