<svg xmlns="http://www.w3.org/2000/svg" viewBox="0 0 640 512"><path fill="currentColor" d="M222.4 32l1.6 0c35.3 0 64 28.7 64 64s-28.7 64-64 64L64 160C28.7 160 0 131.3 0 96S28.7 32 64 32l1.6 0C73-4.5 105.3-32 144-32s71 27.5 78.4 64zM64 256c0-16.4 1.5-32.5 4.5-48.1 1.2 0 2.3 .1 3.5 .1l45.6 0c-3.6 15.4-5.6 31.5-5.6 48 0 86.9 53.3 161.3 128.9 192.4-.6 5.1-.9 10.3-.9 15.6 0 12.9 1.9 25.3 5.4 37-105-31.9-181.4-129.5-181.4-245zM320 48l-.3 0c-12.5-19.5-31.3-34.6-53.6-42.3 17.4-3.7 35.5-5.7 54-5.7 141.4 0 256 114.6 256 256 0 10.6-.6 21-1.9 31.2-13.8-8.4-29.7-13.7-46.7-14.9 .4-5.4 .6-10.8 .6-16.3 0-114.9-93.1-208-208-208zM208 224a32 32 0 1 1 64 0 32 32 0 1 1 -64 0zm160 0a32 32 0 1 1 64 0 32 32 0 1 1 -64 0zM640 464c0 44.2-35.8 80-80 80l-192 0c-44.2 0-80-35.8-80-80 0-33.9 21.1-62.9 50.9-74.5-1.9-6.8-2.9-14-2.9-21.5 0-44.2 35.8-80 80-80 30.8 0 57.5 17.4 70.9 42.8 9.3-6.8 20.7-10.8 33.1-10.8 30.9 0 56 25.1 56 56 0 3.2-.3 6.4-.8 9.4 36.9 7.1 64.8 39.6 64.8 78.6z"/></svg>