<svg xmlns="http://www.w3.org/2000/svg" viewBox="0 0 512 512"><path fill="currentColor" d="M401.6 466.6C468.3 420.4 512 343.3 512 256 512 114.6 397.4 0 256 0S0 114.6 0 256c0 87.3 43.7 164.4 110.4 210.6 16.9 27.3 47.2 45.4 81.6 45.4l128 0c34.5 0 64.7-18.2 81.6-45.4zM416 388.9l0-68.9c0-6.4-.9-12.6-2.7-18.4l49.3-21.1c-4.8 41-21.5 78.3-46.6 108.5zM256 48c105.5 0 192.7 78.6 206.2 180.4l-80.9 34.7c-8.8-4.5-18.7-7.1-29.3-7.1l-192 0c-10.5 0-20.5 2.6-29.3 7.1L49.8 228.4C63.3 126.6 150.5 48 256 48zM96 320l0 68.9c-25.1-30.1-41.8-67.5-46.6-108.5l49.3 21.1c-1.8 5.8-2.7 12-2.7 18.4zm48 0c0-8.8 7.2-16 16-16l192 0c8.8 0 16 7.2 16 16l0 96c0 26.5-21.5 48-48 48l-128 0c-26.5 0-48-21.5-48-48l0-96zM288 168c0 13.3 10.7 24 24 24l8 0c15.6 0 30.7 5.1 43.2 14.4l6.4 4.8c10.6 8 25.6 5.8 33.6-4.8s5.8-25.6-4.8-33.6L392 168c-20.8-15.6-46-24-72-24l-8 0c-13.3 0-24 10.7-24 24zm-88-24l-8 0c-26 0-51.2 8.4-72 24l-6.4 4.8c-10.6 8-12.8 23-4.8 33.6s23 12.8 33.6 4.8l6.4-4.8c12.5-9.3 27.6-14.4 43.2-14.4l8 0c13.3 0 24-10.7 24-24s-10.7-24-24-24zm-8 188c-11 0-20 9-20 20s9 20 20 20l128 0c11 0 20-9 20-20s-9-20-20-20l-128 0zm0 64c-11 0-20 9-20 20s9 20 20 20l128 0c11 0 20-9 20-20s-9-20-20-20l-128 0z"/></svg>