<svg xmlns="http://www.w3.org/2000/svg" viewBox="0 0 512 512"><path fill="currentColor" d="M464 256a208 208 0 1 0 -416 0 208 208 0 1 0 416 0zM0 256a256 256 0 1 1 512 0 256 256 0 1 1 -512 0zM197.5 414c-7.7 10.8-22.7 13.2-33.5 5.5s-13.2-22.7-5.5-33.5c21.7-30.2 57.3-50 97.5-50s75.7 19.8 97.5 50c7.7 10.8 5.3 25.8-5.5 33.5s-25.8 5.3-33.5-5.5c-13.1-18.2-34.4-30-58.5-30s-45.4 11.8-58.5 30zM214.1 97.9c7.8 7.8 7.8 20.5 0 28.3l-7.4 7.4c-24.2 24.2-55.3 40.2-89 45.8l-2.5 .4c-10.9 1.8-21.2-5.5-23-16.4s5.5-21.2 16.4-23l2.5-.4c25.5-4.2 49-16.4 67.3-34.6l7.4-7.4c7.8-7.8 20.5-7.8 28.3 0zm83.7 28.3c-7.8-7.8-7.8-20.5 0-28.3s20.5-7.8 28.3 0l7.4 7.4c18.3 18.3 41.8 30.4 67.3 34.6l2.5 .4c10.9 1.8 18.3 12.1 16.4 23s-12.1 18.3-23 16.4l-2.5-.4c-33.7-5.6-64.8-21.6-89-45.8l-7.4-7.4zM122.6 223.2c4.5-6.8 13.3-9.2 20.6-5.5l79.6 40c5.4 2.7 8.8 8.2 8.8 14.3s-3.4 11.6-8.8 14.3l-79.6 40c-7.3 3.6-16.1 1.3-20.6-5.5s-3.1-15.9 3.1-21.1L159 272 125.8 244.3c-6.2-5.2-7.6-14.3-3.1-21.1zm263.6 21.1L353 272 386.2 299.7c6.2 5.2 7.6 14.3 3.1 21.1s-13.3 9.2-20.6 5.5l-79.6-40c-5.4-2.7-8.8-8.2-8.8-14.3s3.4-11.6 8.8-14.3l79.6-40c7.3-3.6 16.1-1.3 20.6 5.5s3.1 15.9-3.1 21.1z"/></svg>