<svg xmlns="http://www.w3.org/2000/svg" viewBox="0 0 512 512"><path fill="currentColor" d="M168.3-64c-13.3 0-24 10.7-24 24l0 144c0 13.3 10.7 24 24 24s24-10.7 24-24l0-144c0-13.3-10.7-24-24-24zm120 65.6l0-41.6c0-13.3-10.7-24-24-24s-24 10.7-24 24l0 104c0 13.3 10.7 24 24 24s24-10.7 24-24l0-14c101 14.2 178.8 101 178.8 206 0 114.9-93.1 208-208 208-23.4 0-46-3.9-67-11-1.5-11.8-11.6-21-23.8-21-13.3 0-24 10.7-24 24l0 96c0 13.3 10.7 24 24 24s24-10.7 24-24l0-48.8c21.3 5.7 43.7 8.8 66.8 8.8 141.4 0 256-114.6 256-256 0-131.5-99.2-239.9-226.8-254.4zM96.3 385.5C68 350 51.1 305 51.1 256S68 162 96.3 126.5l0-68.1C39.4 105.4 3.1 176.4 3.1 256S39.4 406.6 96.3 453.6l0-68.1zm47.4-50.8c-9.6 9.2-9.9 24.4-.7 33.9 22.1 23 60 47.4 113.3 47.4s91.2-24.4 113.3-47.4c9.2-9.6 8.9-24.8-.7-33.9s-24.8-8.9-33.9 .7c-15 15.7-41.1 32.6-78.7 32.6s-63.7-17-78.7-32.6c-9.2-9.6-24.4-9.9-33.9-.7zm4.6-70.7c0-11 9-20 20-20l16 0c11 0 20 9 20 20s9 20 20 20 20-9 20-20c0-33.1-26.9-60-60-60l-16 0c-33.1 0-60 26.9-60 60 0 11 9 20 20 20s20-9 20-20zm180-20l16 0c11 0 20 9 20 20s9 20 20 20 20-9 20-20c0-33.1-26.9-60-60-60l-16 0c-33.1 0-60 26.9-60 60 0 11 9 20 20 20s20-9 20-20 9-20 20-20z"/></svg>