<svg xmlns="http://www.w3.org/2000/svg" viewBox="0 0 512 512"><path fill="currentColor" d="M303.3 458.6c92.1-21.4 160.7-104 160.7-202.6 0-114.9-93.1-208-208-208-54.6 0-104.4 21.1-141.5 55.5l.6-.4c32.9-18.8 73.6-17.4 105.1 3.6l30.9 20.6c9.2 6.1 11.7 18.5 5.5 27.7s-18.5 11.7-27.7 5.5L198 140.1c-18.9-12.6-43.3-13.4-63.1-2.2l-13.1 7.5c-9.6 5.5-21.8 2.1-27.3-7.4-1.8-3.1-2.6-6.5-2.6-9.9-27.6 35.3-44 79.7-44 127.9 0 17.7 2.2 34.8 6.3 51.2-7.1-2.1-14.6-3.2-22.3-3.2-9.3 0-18.3 1.6-26.6 4.5-3.5-17-5.4-34.5-5.4-52.5 0-141.4 114.6-256 256-256S512 114.6 512 256c0 135.8-105.7 246.9-239.3 255.5 16.4-12.6 27.7-31.4 30.6-52.9zM176 176a32 32 0 1 1 0 64 32 32 0 1 1 0-64zm160 16a32 32 0 1 1 0 64 32 32 0 1 1 0-64zM146 328c0-13.3 10.7-24 24-24l110 0c13.3 0 24 10.7 24 24s-10.7 24-24 24l-110 0c-13.3 0-24-10.7-24-24zM64 384l0 32 160 0c17.7 0 32 14.3 32 32s-14.3 32-32 32l-48 0 0 24c0 39.8-32.2 72-72 72l-32 0c-39.8 0-72-32.2-72-72L0 384c0-17.7 14.3-32 32-32s32 14.3 32 32z"/></svg>