<svg xmlns="http://www.w3.org/2000/svg" viewBox="0 0 640 512"><path fill="currentColor" d="M320 48a208 208 0 1 1 0 416 208 208 0 1 1 0-416zm0 464c141.4 0 256-114.6 256-256 0-24.6-3.5-48.4-9.9-70.9 44.3-59.4 67.4-135 73.6-166 1.3-6.3-1.4-12.8-6.8-16.4s-12.4-3.6-17.8 0c-19.3 12.9-48.5 24.2-78.4 33.1-23.3 7-46 12.2-63 15.5-42.8-32.2-96.1-51.3-153.8-51.3S209.1 19.1 166.2 51.3c-17-3.3-39.7-8.6-63-15.5-29.8-8.9-59.1-20.2-78.4-33.1-5.4-3.6-12.4-3.6-17.8 0S-1 12.8 .3 19.1c6.2 31 29.3 106.6 73.6 166-6.5 22.5-9.9 46.3-9.9 70.9 0 141.4 114.6 256 256 256zm0-128c24.1 0 45.4 11.8 58.5 30 7.7 10.8 22.7 13.2 33.5 5.5s13.2-22.7 5.5-33.5c-21.7-30.2-57.3-50-97.5-50s-75.7 19.8-97.5 50c-7.7 10.8-5.3 25.8 5.5 33.5s25.8 5.3 33.5-5.5c13.1-18.2 34.4-30 58.5-30zm-80-96c17.7 0 32-14.3 32-32l0-.3 9.7 3.2c10.5 3.5 21.8-2.2 25.3-12.6s-2.2-21.8-12.6-25.3l-96-32c-10.5-3.5-21.8 2.2-25.3 12.6s2.2 21.8 12.6 25.3l28.9 9.6c-4.1 5.4-6.6 12.1-6.6 19.4 0 17.7 14.3 32 32 32zm192-32c0-7.3-2.4-14-6.6-19.4l28.9-9.6c10.5-3.5 16.1-14.8 12.6-25.3s-14.8-16.1-25.3-12.6l-96 32c-10.5 3.5-16.1 14.8-12.6 25.3s14.8 16.1 25.3 12.6l9.7-3.2 0 .3c0 17.7 14.3 32 32 32s32-14.3 32-32z"/></svg>