<svg xmlns="http://www.w3.org/2000/svg" viewBox="0 0 512 512"><path fill="currentColor" d="M0 64l0 72c0 13.3 10.7 24 24 24s24-10.7 24-24l0-72c0-8.8 7.2-16 16-16l72 0c13.3 0 24-10.7 24-24S149.3 0 136 0L64 0C28.7 0 0 28.7 0 64zM352 24c0 13.3 10.7 24 24 24l72 0c8.8 0 16 7.2 16 16l0 72c0 13.3 10.7 24 24 24s24-10.7 24-24l0-72c0-35.3-28.7-64-64-64L376 0c-13.3 0-24 10.7-24 24zM24 352c-13.3 0-24 10.7-24 24l0 72c0 35.3 28.7 64 64 64l72 0c13.3 0 24-10.7 24-24s-10.7-24-24-24l-72 0c-8.8 0-16-7.2-16-16l0-72c0-13.3-10.7-24-24-24zm464 0c-13.3 0-24 10.7-24 24l0 72c0 8.8-7.2 16-16 16l-72 0c-13.3 0-24 10.7-24 24s10.7 24 24 24l72 0c35.3 0 64-28.7 64-64l0-72c0-13.3-10.7-24-24-24zM256 144a112 112 0 1 1 0 224 112 112 0 1 1 0-224zm0 272a160 160 0 1 0 0-320 160 160 0 1 0 0 320zM216 248a24 24 0 1 0 0-48 24 24 0 1 0 0 48zm104-24a24 24 0 1 0 -48 0 24 24 0 1 0 48 0zM217.9 278c-5.5-9.6-17.8-12.8-27.3-7.3s-12.8 17.8-7.3 27.3c14.5 25.1 41.6 42 72.8 42s58.3-16.9 72.7-42c5.5-9.6 2.3-21.8-7.3-27.3s-21.8-2.3-27.3 7.3c-7.6 13.2-21.9 22-38.1 22s-30.5-8.8-38.1-22z"/></svg>