<svg xmlns="http://www.w3.org/2000/svg" viewBox="0 0 640 512"><path fill="currentColor" d="M288 464c66.6 0 125.9-31.3 164-80l57.8 0c-44.3 76.5-127 128-221.8 128-141.4 0-256-114.6-256-256S146.6 0 288 0C389.2 0 476.7 58.7 518.3 144l-55 0C426.3 86.3 361.6 48 288 48 173.1 48 80 141.1 80 256s93.1 208 208 208zM177.3 319.4C192.3 335 218.4 352 256 352s63.7-17 78.7-32.6c9.2-9.6 24.4-9.9 33.9-.7s9.9 24.4 .7 33.9c-22.1 23-60 47.4-113.3 47.4s-91.2-24.4-113.3-47.4c-9.2-9.6-8.9-24.8 .7-33.9s24.8-8.9 33.9 .7zM168 196c-11 0-20 9-20 20s-9 20-20 20-20-9-20-20c0-33.1 26.9-60 60-60l16 0c33.1 0 60 26.9 60 60 0 11-9 20-20 20s-20-9-20-20-9-20-20-20l-16 0zm140 20c0 11-9 20-20 20s-20-9-20-20c0-33.1 26.9-60 60-60l16 0c33.1 0 60 26.9 60 60 0 11-9 20-20 20s-20-9-20-20-9-20-20-20l-16 0c-11 0-20 9-20 20zM528 88c0-13.3 10.7-24 24-24 48.6 0 88 39.4 88 88s-39.4 88-88 88l-80 0c-13.3 0-24-10.7-24-24s10.7-24 24-24l80 0c22.1 0 40-17.9 40-40s-17.9-40-40-40c-13.3 0-24-10.7-24-24zM448 312c0-13.3 10.7-24 24-24l80 0c33.4 0 64-12 87.6-32-4 44.9-41.7 80-87.6 80l-80 0c-13.3 0-24-10.7-24-24z"/></svg>