<svg xmlns="http://www.w3.org/2000/svg" viewBox="0 0 512 512"><path fill="currentColor" d="M48 256c0 45.9 14.8 88.3 40 122.7l0 63.5C88 444.6 88.1 447 88.2 449.3 34.2 402.4 0 333.2 0 256 0 114.6 114.6 0 256 0S512 114.6 512 256c0 82.7-39.2 156.3-100.1 203.1 13.7-20.2 14.3-46.6 1.8-67.4 31.4-36.4 50.3-83.8 50.3-135.7 0-114.9-93.1-208-208-208S48 141.1 48 256zm128-80a32 32 0 1 1 0 64 32 32 0 1 1 0-64zm128 32a32 32 0 1 1 64 0 32 32 0 1 1 -64 0zM128 344c0-13.3 10.7-24 24-24s24 10.7 24 24l0 30.3c0 3.6 4.3 5.4 6.8 2.8L264 296c8.8-8.8 23.2-8.8 32 0s8.8 23.2 0 32l-48 48c-4.4 4.4-4.4 11.6 0 16s11.6 4.4 16 0l64-64c8.8-8.8 23.2-8.8 32 0s8.8 23.2 0 32l-64 64c-4.4 4.4-4.4 11.6 0 16s11.6 4.4 16 0l32-32c8.8-8.8 23.2-8.8 32 0s8.8 23.2 0 32l-74.2 74.2c-19.1 19.1-45 29.8-72 29.8-56.2 0-101.8-45.6-101.8-101.8l0-98.2z"/></svg>