<svg xmlns="http://www.w3.org/2000/svg" viewBox="0 0 512 512"><path fill="currentColor" d="M464 256a208 208 0 1 0 -416 0 208 208 0 1 0 416 0zM0 256a256 256 0 1 1 512 0 256 256 0 1 1 -512 0zM134.1 153.9l25.9 25.9 25.9-25.9c7.8-7.8 20.5-7.8 28.3 0s7.8 20.5 0 28.3l-25.9 25.9 25.9 25.9c7.8 7.8 7.8 20.5 0 28.3s-20.5 7.8-28.3 0l-25.9-25.9-25.9 25.9c-7.8 7.8-20.5 7.8-28.3 0s-7.8-20.5 0-28.3l25.9-25.9-25.9-25.9c-7.8-7.8-7.8-20.5 0-28.3s20.5-7.8 28.3 0zm192 0l25.9 25.9 25.9-25.9c7.8-7.8 20.5-7.8 28.3 0s7.8 20.5 0 28.3l-25.9 25.9 25.9 25.9c7.8 7.8 7.8 20.5 0 28.3s-20.5 7.8-28.3 0l-25.9-25.9-25.9 25.9c-7.8 7.8-20.5 7.8-28.3 0s-7.8-20.5 0-28.3l25.9-25.9-25.9-25.9c-7.8-7.8-7.8-20.5 0-28.3s20.5-7.8 28.3 0zM256 304c44.2 0 80 35.8 80 80 0 8.8-7.2 16-16 16l-128 0c-8.8 0-16-7.2-16-16 0-44.2 35.8-80 80-80z"/></svg>