<svg xmlns="http://www.w3.org/2000/svg" viewBox="0 0 512 512"><path fill="currentColor" d="M464 256a208 208 0 1 0 -416 0 208 208 0 1 0 416 0zM0 256a256 256 0 1 1 512 0 256 256 0 1 1 -512 0zm304.4 98.4l6.7-4.5c20.6-13.8 48.1-11 65.6 6.5l5.4 5.5c7.8 7.8 7.8 20.5 0 28.3s-20.5 7.8-28.3 0l-5.5-5.4c-4-4-10.4-4.7-15.1-1.5l-6.7 4.5c-18.8 12.6-43.6 11.5-61.3-2.7l-1.7-1.4c-4.4-3.5-10.6-3.5-15 0l-1.7 1.4c-17.7 14.1-42.5 15.2-61.3 2.7l-6.7-4.5c-4.8-3.2-11.1-2.5-15.1 1.5l-5.4 5.4c-7.8 7.8-20.5 7.8-28.3 0s-7.8-20.5 0-28.3l5.4-5.5c17.5-17.5 45-20.2 65.6-6.5l6.7 4.5c4.3 2.9 10.1 2.6 14.2-.6l1.7-1.4c19-15.2 46-15.2 65 0l1.7 1.4c4.1 3.3 9.8 3.5 14.2 .6zM181.7 144c-20.7 0-40.6 8-55.1 22.2-14.5 14.2-22.6 33.3-22.6 53.2 0 13.8 5.6 27.1 15.8 37 10.2 9.9 24 15.5 38.5 15.5s28.4-5.6 38.5-15.5c10.1-9.9 15.8-23.2 15.8-37 0-7.8-3.2-15.3-8.9-20.9-5.8-5.6-13.7-8.8-22-8.8s-16.2 3.2-22 8.8c-5.7 5.6-8.9 13.1-8.9 20.9 0 1.7 .7 3.4 2 4.7 1.4 1.3 3.3 2.1 5.4 2.1s4-.8 5.4-2.1c1.4-1.3 2-3 2-4.7 0-8.8 7.2-16 16-16s16 7.2 16 16c0 10.4-4.3 20.4-11.7 27.6-7.4 7.2-17.4 11.2-27.7 11.2s-20.3-4-27.7-11.2c-7.4-7.3-11.7-17.2-11.7-27.6 0-16.5 6.7-32.2 18.6-43.8 11.8-11.5 27.8-17.9 44.3-17.9s32.5 6.4 44.3 17.9c11.8 11.5 18.6 27.3 18.6 43.8 0 22.6-9.2 44.1-25.4 59.9-16.2 15.8-38.1 24.6-60.9 24.6s-44.7-8.8-60.9-24.6c-16.2-15.8-25.4-37.4-25.4-59.9 0-28.6 11.7-56 32.3-76.1 20.6-20.1 48.5-31.3 77.4-31.3 8.8 0 16 7.2 16 16s-7.2 16-16 16zM385.4 249.8c14.5-14.2 22.6-33.3 22.6-53.2 0-13.8-5.6-27.1-15.8-37-10.2-9.9-24-15.5-38.5-15.5s-28.4 5.6-38.5 15.5c-10.1 9.9-15.8 23.2-15.8 37 0 7.8 3.2 15.3 8.9 20.9 5.8 5.6 13.7 8.8 22 8.8s16.2-3.2 22-8.8c5.7-5.6 8.9-13.1 8.9-20.9 0-1.7-.7-3.4-2-4.7-1.4-1.3-3.3-2.1-5.4-2.1s-4 .8-5.4 2.1c-1.4 1.3-2 3-2 4.7 0 8.8-7.2 16-16 16s-16-7.2-16-16c0-10.4 4.3-20.4 11.7-27.6 7.4-7.2 17.4-11.2 27.7-11.2s20.3 4 27.7 11.2c7.4 7.3 11.7 17.2 11.7 27.6 0 16.5-6.7 32.2-18.6 43.8-11.8 11.5-27.8 17.9-44.3 17.9s-32.5-6.4-44.3-17.9c-11.8-11.5-18.6-27.3-18.6-43.8 0-22.6 9.2-44.1 25.4-59.9 16.2-15.8 38.1-24.6 60.9-24.6s44.7 8.8 60.9 24.6c16.2 15.8 25.4 37.4 25.4 59.9 0 28.6-11.7 56-32.3 76.1-20.6 20.1-48.5 31.3-77.4 31.3-8.8 0-16-7.2-16-16s7.2-16 16-16c20.7 0 40.6-8 55.1-22.2z"/></svg>