<svg xmlns="http://www.w3.org/2000/svg" viewBox="0 0 512 512"><path fill="currentColor" d="M256 48a208 208 0 1 1 0 416 208 208 0 1 1 0-416zm0 464a256 256 0 1 0 0-512 256 256 0 1 0 0 512zM161.3 382.1c-5.4 12.3 8.7 21.6 21.1 16.4 22.4-9.5 47.4-14.8 73.7-14.8s51.3 5.3 73.7 14.8c12.4 5.2 26.5-4.1 21.1-16.4-16-36.6-52.4-62.1-94.8-62.1s-78.8 25.6-94.8 62.1zM176 272c17.7 0 32-14.3 32-32l0-.3 9.7 3.2c10.5 3.5 21.8-2.2 25.3-12.6s-2.2-21.8-12.6-25.3l-96-32c-10.5-3.5-21.8 2.2-25.3 12.6s2.2 21.8 12.6 25.3l28.9 9.6c-4.1 5.4-6.6 12.1-6.6 19.4 0 17.7 14.3 32 32 32zm192-32c0-7.3-2.4-14-6.6-19.4l28.9-9.6c10.5-3.5 16.1-14.8 12.6-25.3s-14.8-16.1-25.3-12.6l-96 32c-10.5 3.5-16.1 14.8-12.6 25.3s14.8 16.1 25.3 12.6l9.7-3.2 0 .3c0 17.7 14.3 32 32 32s32-14.3 32-32z"/></svg>