<svg xmlns="http://www.w3.org/2000/svg" viewBox="0 0 512 512"><path fill="currentColor" d="M39.3 354c6.6-9.7 13.4-19.2 20.6-28.4 28.6 80.7 105.6 138.4 196.1 138.4 114.9 0 208-93.1 208-208 0-13.2-1.2-26.2-3.6-38.7 11.9 3 23.7 6.3 35.4 9.8l15 4.5c.8 8 1.1 16.2 1.1 24.4 0 141.4-114.6 256-256 256-99.5 0-185.8-56.8-228.2-139.8 5-7.7 9.1-14.7 11.5-18.2zM186.4 209.7c12.6 4.3 21.6 16.2 21.6 30.3 0 17.7-14.3 32-32 32-17.6 0-31.8-14.2-32-31.7 13.6-10.9 27.7-21.1 42.4-30.6zM336.1 12.8c-45.1 9.2-88.5 23-129.6 41.1-13.9 3.4-27.2 8.2-39.8 14.2-33.5 3.1-66.5 7.9-98.9 14.3 46.8-50.7 113.8-82.4 188.2-82.4 28 0 54.9 4.5 80.1 12.8zm-.3 382.7c-15.6-14.2-39.4-27.4-71.9-27.4-12.3 0-23.2 1.9-32.8 4.9-12.6 4-26.1-3-30.1-15.7s3-26.1 15.7-30.1c14.2-4.5 30-7.1 47.2-7.1 46.5 0 81.4 19.3 104.2 39.9 9.8 8.9 10.5 24.1 1.6 33.9s-24.1 10.5-33.9 1.6zM304 240a32 32 0 1 1 64 0 32 32 0 1 1 -64 0zM268.6 64.1c38.3-13 78.3-22.2 119.5-27.4 20.8 12.6 39.7 28 56.1 45.7-56.9-11.3-115.6-17.6-175.6-18.4zM374 103.4c34 4.3 67.3 10.5 100.1 18.3 14.1 22.8 24.6 47.9 31 74.7-78.9-23.7-162.5-36.4-249-36.4-17.1 0-34.1 .5-51 1.5-47.8 2.8-94.6 9.4-140 19.7-19.6 4.4-39 9.5-58.1 15.3 6.4-26.8 17-51.9 31-74.7 48.4-11.6 98.2-19.5 149.3-23.2 22.7-1.7 45.6-2.5 68.8-2.5 40 0 79.3 2.5 118 7.4zM18.3 226.4c41-12.2 83.3-21.3 126.6-27.1-51.6 37.5-96.5 83.8-132.2 136.7-8.3-25.2-12.8-52.1-12.8-80.1 0-3 .1-6.1 .2-9.1 5.9-7 12-13.8 18.2-20.5z"/></svg>