<svg xmlns="http://www.w3.org/2000/svg" viewBox="0 0 512 512"><path fill="currentColor" d="M286.6 461.8c-3.1 15.9-2.2 32.5 2.8 48.1-10.8 1.4-21.9 2.1-33.1 2.1-10.7 0-21.3-.7-31.7-1.9 5-15.5 6-32.1 2.9-48 9.4 1.3 19 2 28.7 2 10.3 0 20.4-.7 30.2-2.2zM48.3 256c0 21.1 3.2 41.6 9 60.8-15.9 1.3-31.6 6.6-45.3 15.9-7.6-24.2-11.7-50-11.7-76.7 0-141.4 114.6-256 256-256s256 114.6 256 256c0 26.4-4 51.9-11.4 75.9-13.9-9-29.6-14.1-45.6-15.2 5.8-19.2 9-39.6 9-60.7 0-114.9-93.1-208-208-208s-208 93.1-208 208zm72-16l80 0c13.3 0 24 10.7 24 24s-10.7 24-24 24l-80 0c-13.3 0-24-10.7-24-24s10.7-24 24-24zm192 0l80 0c13.3 0 24 10.7 24 24s-10.7 24-24 24l-80 0c-13.3 0-24-10.7-24-24s10.7-24 24-24zm73.9-88.9c4.9 9.9 .9 21.9-8.9 26.8l-64 32c-9.9 4.9-21.9 .9-26.8-8.9s-.9-21.9 8.9-26.8l64-32c9.9-4.9 21.9-.9 26.8 8.9zM135.4 177.9c-9.9-4.9-13.9-17-8.9-26.8s17-13.9 26.8-8.9l64 32c9.9 4.9 13.9 17 8.9 26.8s-17 13.9-26.8 8.9l-64-32zM493.9 435.1c25 25 25 65.5 0 90.5s-65.5 25-90.5 0c-.6-.6-1.3-1.3-1.9-2-17.8 8.6-39.9 5.4-54.7-9.4-18.7-18.7-18.7-49.1 0-67.9 4.8-4.8 10.3-8.3 16.2-10.7l-40.4-67.3c-2.4-4-1.8-9.2 1.5-12.5s8.5-4 12.5-1.5l67.3 40.4c2.3-5.9 5.9-11.4 10.7-16.2 18.7-18.7 49.1-18.7 67.9 0 14.8 14.8 17.9 36.8 9.4 54.7 .7 .6 1.3 1.2 2 1.9zM22.2 433.2c-8.6-17.8-5.4-39.9 9.4-54.7 18.7-18.7 49.1-18.7 67.9 0 4.8 4.8 8.3 10.3 10.7 16.2l67.3-40.4c4-2.4 9.2-1.8 12.5 1.5s4 8.5 1.5 12.5l-40.4 67.3c5.9 2.3 11.4 5.9 16.2 10.7 18.7 18.7 18.7 49.1 0 67.9-14.8 14.8-36.8 17.9-54.7 9.4-.6 .7-1.2 1.3-1.9 2-25 25-65.5 25-90.5 0s-25-65.5 0-90.5c.6-.6 1.3-1.3 2-1.9z"/></svg>