<svg xmlns="http://www.w3.org/2000/svg" viewBox="0 0 512 512"><path fill="currentColor" d="M464 256a208 208 0 1 0 -416 0 208 208 0 1 0 416 0zM0 256a256 256 0 1 1 512 0 256 256 0 1 1 -512 0zm336-64a32 32 0 1 1 0 64 32 32 0 1 1 0-64zM208 224a32 32 0 1 1 -64 0 32 32 0 1 1 64 0zm-23.1-78.1l-64 32c-9.9 4.9-21.9 .9-26.8-8.9s-.9-21.9 8.9-26.8l64-32c9.9-4.9 21.9-.9 26.8 8.9s.9 21.9-8.9 26.8zm133.2-26.8c4.9-9.9 17-13.9 26.8-8.9l64 32c9.9 4.9 13.9 17 8.9 26.8s-17 13.9-26.8 8.9l-64-32c-9.9-4.9-13.9-17-8.9-26.8zM160 288c26.9 0 49.9 16.5 59.3 40l73.3 0c9.5-23.5 32.5-40 59.3-40 4.8 0 9.5 .5 14 1.5-18.3 14.7-30 37.2-30 62.5s11.7 47.8 30 62.5c-4.5 1-9.2 1.5-14 1.5-26.9 0-49.9-16.5-59.3-40l-73.3 0c-9.5 23.5-32.5 40-59.3 40-4.8 0-9.5-.5-14-1.5 18.3-14.7 30-37.2 30-62.5s-11.7-47.8-30-62.5c4.5-1 9.2-1.5 14-1.5z"/></svg>