<svg xmlns="http://www.w3.org/2000/svg" viewBox="0 0 576 512"><path fill="currentColor" d="M496 256c0 114.9-93.1 208-208 208-10.4 0-20.6-.8-30.6-2.2L248 508.9c13 2 26.4 3.1 40 3.1 141.4 0 256-114.6 256-256S429.4 0 288 0 32 114.6 32 256c0 13.6 1.1 27 3.1 40l47.1-9.4c-1.5-10-2.2-20.2-2.2-30.6 0-114.9 93.1-208 208-208s208 93.1 208 208zM272 396c3.5 0 6.9-.9 9.9-2.6l45.3-25.9 37.7 25.1c5.1 3.4 11.6 4.3 17.4 2.3l24-8c10.5-3.5 16.1-14.8 12.6-25.3s-14.8-16.1-25.3-12.6l-14.7 4.9-39.9-26.6c-6.3-4.2-14.4-4.5-21-.7l-38 21.7-.1 .4-9.5 47.3 1.4 0zM154.6 159.2c-4.5 6.8-3.1 15.9 3.1 21.1L191 208 157.8 235.7c-6.2 5.2-7.6 14.3-3.1 21.1s13.3 9.2 20.6 5.5l79.6-40c5.4-2.7 8.8-8.2 8.8-14.3s-3.4-11.6-8.8-14.3l-79.6-40c-7.3-3.6-16.1-1.3-20.6 5.5zm263.6 21.1c6.2-5.2 7.6-14.3 3.1-21.1s-13.3-9.2-20.6-5.5l-79.6 40c-5.4 2.7-8.8 8.2-8.8 14.3s3.4 11.6 8.8 14.3l79.6 40c7.3 3.6 16.1 1.3 20.6-5.5s3.1-15.9-3.1-21.1L385 208 418.2 180.3zM48 416L37.5 478.9c-2.7 16.2 11.4 30.3 27.6 27.6L128 496 153 533.5c4.4 6.6 11.8 10.5 19.6 10.5 11.3 0 21-7.9 23.2-19l37.1-185.7c3.4-16.8-11.4-31.6-28.2-28.2L19 348.2c-11 2.2-19 11.9-19 23.2 0 7.9 3.9 15.3 10.5 19.7L48 416z"/></svg>