<svg xmlns="http://www.w3.org/2000/svg" viewBox="0 0 512 512"><path fill="currentColor" d="M464 256a208 208 0 1 0 -416 0 208 208 0 1 0 416 0zM0 256a256 256 0 1 1 512 0 256 256 0 1 1 -512 0zM216 368l80 0c13.3 0 24 10.7 24 24s-10.7 24-24 24l-80 0c-13.3 0-24-10.7-24-24s10.7-24 24-24zm128-68l16 0c11 0 20-9 20-20s9-20 20-20 20 9 20 20c0 33.1-26.9 60-60 60l-16 0c-33.1 0-60-26.9-60-60 0-11 9-20 20-20s20 9 20 20 9 20 20 20zM132 280c0 11 9 20 20 20l16 0c11 0 20-9 20-20s9-20 20-20 20 9 20 20c0 33.1-26.9 60-60 60l-16 0c-33.1 0-60-26.9-60-60 0-11 9-20 20-20s20 9 20 20zM96.4 220.5c-6.9-8.6-5.5-21.2 3.1-28.1l80-64c8.6-6.9 21.2-5.5 28.1 3.1s5.5 21.2-3.1 28.1l-80 64c-8.6 6.9-21.2 5.5-28.1-3.1zm316.1-28.1c8.6 6.9 10 19.5 3.1 28.1s-19.5 10-28.1 3.1l-80-64c-8.6-6.9-10-19.5-3.1-28.1s19.5-10 28.1-3.1l80 64z"/></svg>