<svg xmlns="http://www.w3.org/2000/svg" viewBox="0 0 576 512"><path fill="currentColor" d="M496 256c0 18.3-2.4 36.1-6.8 53.1 15 6.5 29.7 14.2 43.3 23 7.5-24 11.5-49.6 11.5-76.1 0-141.4-114.6-256-256-256S32 114.6 32 256 146.6 512 288 512c40.2 0 78.3-9.3 112.2-25.8-.1-2-.2-4.1-.2-6.2 0-16.3-.4-32-4.6-45.8-31.3 18.9-68.1 29.8-107.4 29.8-114.9 0-208-93.1-208-208S173.1 48 288 48 496 141.1 496 256zM288 304c-40.2 0-75.7 19.8-97.5 50-7.7 10.8-5.3 25.8 5.5 33.5s25.8 5.3 33.5-5.5c13.1-18.2 34.4-30 58.5-30 20.4 0 38.8 8.5 52 22.1-3.9-10.7-5.1-22.4-2.8-34.2 1.5-7.7 4.3-14.9 8.2-21.3-17-9.3-36.6-14.6-57.4-14.6zm88-68c-11 0-20-9-20-20s-9-20-20-20-20 9-20 20c0 33.1 26.9 60 60 60l16 0c33.1 0 60-26.9 60-60 0-11-9-20-20-20s-20 9-20 20-9 20-20 20l-16 0zM164 216c0-11-9-20-20-20s-20 9-20 20c0 33.1 26.9 60 60 60l16 0c33.1 0 60-26.9 60-60 0-11-9-20-20-20s-20 9-20 20-9 20-20 20l-16 0c-11 0-20-9-20-20zM384.3 349c-1.4 7.5 2.6 15 9.8 17.9 26.5 10.6 39.8 30.2 46.7 51.7 7.1 22.1 7.2 45.3 7.2 61.5 0 35.3 28.7 64 64 64s64-28.7 64-64c0-48.1-33.5-84.3-69.3-107.4-35.9-23.2-78.9-36.6-106.7-36.6-7.7 0-14.3 5.4-15.7 13z"/></svg>