<svg xmlns="http://www.w3.org/2000/svg" viewBox="0 0 512 512"><path fill="currentColor" d="M464 256c0 40.8-11.7 78.8-32 110.9l0 75C481.3 395.2 512 329.2 512 256 512 114.6 397.4 0 256 0S0 114.6 0 256C0 381 89.6 485 208 507.5l0-49.1C116.3 436.8 48 354.4 48 256 48 141.1 141.1 48 256 48s208 93.1 208 208zM346.6 321.9c-20.4 28-53.4 46.1-90.6 46.1s-70.2-18.1-90.6-46.1c-7.8-10.7-22.8-13.1-33.5-5.3s-13.1 22.8-5.3 33.5C155.7 390 202.8 416 256 416l0 48c0 13.3 10.7 24 24 24s24-10.7 24-24l0-55.3c11.3-3.5 22-8.3 32-14.1L336 496c0 13.3 10.7 24 24 24s24-10.7 24-24l0-144c.5-.6 .9-1.3 1.4-1.9 7.8-10.7 5.4-25.7-5.3-33.5s-25.7-5.4-33.5 5.3zM112 232c0 13.3 10.7 24 24 24s24-10.7 24-24c0-22.1 17.9-40 40-40 13.3 0 24-10.7 24-24s-10.7-24-24-24c-48.6 0-88 39.4-88 88zm200-88c-13.3 0-24 10.7-24 24s10.7 24 24 24c22.1 0 40 17.9 40 40 0 13.3 10.7 24 24 24s24-10.7 24-24c0-48.6-39.4-88-88-88z"/></svg>