<svg xmlns="http://www.w3.org/2000/svg" viewBox="0 0 576 512"><path fill="currentColor" d="M352 96l68.9 0c-36-30-82.4-48-132.9-48S191.1 66 155.1 96L224 96c27.9 0 52 15.8 64 39 12-23.2 36.1-39 64-39zM288 265c-12 23.2-36.1 39-64 39l-104 0c-13.3 0-25.8-3.6-36.5-9.9 17.9 96.7 102.7 169.9 204.5 169.9s186.6-73.2 204.5-169.9c-10.7 6.3-23.2 9.9-36.5 9.9l-104 0c-27.9 0-52-15.8-64-39zM48 128l12.1 0C64.9 120.8 71 114.5 78.1 109.5 124.3 43.3 201.1 0 288 0S451.7 43.3 497.9 109.5c7 5 13.1 11.3 17.9 18.5l12.1 0c13.3 0 24 10.7 24 24 0 12.2-9.1 22.2-20.8 23.8 8.3 25.2 12.8 52.2 12.8 80.2 0 141.4-114.6 256-256 256S32 397.4 32 256c0-28 4.5-55 12.8-80.2-11.8-1.6-20.8-11.6-20.8-23.8 0-13.3 10.7-24 24-24zM209.3 335.4C224.3 351 250.4 368 288 368s63.7-17 78.7-32.6c9.2-9.6 24.4-9.9 33.9-.7s9.9 24.4 .7 33.9c-22.1 23-60 47.4-113.3 47.4s-91.2-24.4-113.3-47.4c-9.2-9.6-8.9-24.8 .7-33.9s24.8-8.9 33.9 .7zM160 208a32 32 0 1 1 64 0 32 32 0 1 1 -64 0zm224-32a32 32 0 1 1 0 64 32 32 0 1 1 0-64zm-32-32c-13.3 0-24 10.7-24 24l0 64c0 13.3 10.7 24 24 24l104 0c13.3 0 24-10.7 24-24l0-64c0-13.3-10.7-24-24-24l-104 0zM96 168l0 64c0 13.3 10.7 24 24 24l104 0c13.3 0 24-10.7 24-24l0-64c0-13.3-10.7-24-24-24l-104 0c-13.3 0-24 10.7-24 24z"/></svg>