<svg xmlns="http://www.w3.org/2000/svg" viewBox="0 0 512 512"><path fill="currentColor" d="M464 256a208 208 0 1 0 -416 0 208 208 0 1 0 416 0zM0 256a256 256 0 1 1 512 0 256 256 0 1 1 -512 0zm176.5 64.3C196.1 302.1 223.8 288 256 288s59.9 14.1 79.5 32.3c19 17.8 32.5 41.7 32.5 63.7 0 5.4-2.7 10.4-7.2 13.4s-10.2 3.4-15.2 1.3l-17.2-7.5c-22.8-10-47.5-15.1-72.4-15.1s-49.6 5.2-72.4 15.1l-17.2 7.5c-4.9 2.2-10.7 1.7-15.2-1.3s-7.2-8-7.2-13.4c0-22 13.5-45.9 32.5-63.7zm37.6-158.4c7.8 7.8 7.8 20.5 0 28.3l-7.4 7.4c-24.2 24.2-55.3 40.2-89 45.8l-2.5 .4c-10.9 1.8-21.2-5.5-23-16.4s5.5-21.2 16.4-23l2.5-.4c25.5-4.2 49-16.4 67.3-34.6l7.4-7.4c7.8-7.8 20.5-7.8 28.3 0zm83.7 28.3c-7.8-7.8-7.8-20.5 0-28.3s20.5-7.8 28.3 0l7.4 7.4c18.3 18.3 41.8 30.4 67.3 34.6l2.5 .4c10.9 1.8 18.3 12.1 16.4 23s-12.1 18.3-23 16.4l-2.5-.4c-33.7-5.6-64.8-21.6-89-45.8l-7.4-7.4z"/></svg>