<svg xmlns="http://www.w3.org/2000/svg" viewBox="0 0 576 512"><path fill="currentColor" d="M496 256c0 57-23 108.7-60.2 146.3 4.9 11.5 14.2 20.9 26.3 25.8l11.2 4.5C517.1 386.6 544 324.4 544 256 544 114.6 429.4 0 288 0S32 114.6 32 256c0 68.4 26.9 130.6 70.6 176.6l11.2-4.5C125.9 423.2 135.3 413.8 140.2 402.3 103 364.7 80 313 80 256 80 141.1 173.1 48 288 48s208 93.1 208 208zM157.8 180.3L191 208 157.8 235.7c-6.2 5.2-7.6 14.3-3.1 21.1s13.3 9.2 20.6 5.5l79.6-40c5.4-2.7 8.8-8.2 8.8-14.3s-3.4-11.6-8.8-14.3l-79.6-40c-7.3-3.6-16.1-1.3-20.6 5.5s-3.1 15.9 3.1 21.1zm263.6-21.1c-4.5-6.8-13.3-9.2-20.6-5.5l-79.6 40c-5.4 2.7-8.8 8.2-8.8 14.3s3.4 11.6 8.8 14.3l79.6 40c7.3 3.6 16.1 1.3 20.6-5.5s3.1-15.9-3.1-21.1L385 208 418.2 180.3c6.2-5.2 7.6-14.3 3.1-21.1zM32 512a32 32 0 1 0 0-64 32 32 0 1 0 0 64zm544-64a32 32 0 1 0 -64 0 32 32 0 1 0 64 0zM192 396.1c0 31-19.8 58.5-49.2 68.3l-34.1 11.4c-7.6 2.5-12.7 9.6-12.7 17.6 0 10.3 8.3 18.6 18.6 18.6l346.8 0c10.3 0 18.6-8.3 18.6-18.6 0-8-5.1-15.1-12.7-17.6l-34.1-11.4c-29.4-9.8-49.2-37.3-49.2-68.3l0-49.6c8.7 3.7 15.1 7.1 18.7 9.5 11 7.4 25.9 4.4 33.3-6.7s4.4-25.9-6.7-33.3c-19.9-13.3-72.6-36-141.3-36s-121.4 22.7-141.3 36c-11 7.4-14 22.3-6.7 33.3s22.3 14 33.3 6.7c3.6-2.4 10-5.8 18.7-9.5l0 49.6zM304 416a16 16 0 1 1 0-32 16 16 0 1 1 0 32zm-80 16a16 16 0 1 1 32 0 16 16 0 1 1 -32 0z"/></svg>