<svg xmlns="http://www.w3.org/2000/svg" viewBox="0 0 576 512"><path fill="currentColor" d="M217.9-6.7c12.8-3.4 20.4-16.6 17-29.4s-16.6-20.4-29.4-17C126.5-31.9 55.4 19.5 11.2 96 4.6 107.5 8.5 122.2 20 128.8s26.2 2.7 32.8-8.8C90.3 54.9 150.7 11.3 217.9-6.7zM565.5 416c6.6-11.5 2.7-26.2-8.8-32.8s-26.2-2.7-32.8 8.8c-37.6 65.1-97.9 108.7-165.2 126.7-12.8 3.4-20.4 16.6-17 29.4s16.6 20.4 29.4 17c79.1-21.2 150.1-72.6 194.3-149.1zM375.7 103.6A175.8 175.8 0 1 1 200.3 408.4 175.8 175.8 0 1 1 375.7 103.6zM176.3 450A223.8 223.8 0 1 0 399.7 62 223.8 223.8 0 1 0 176.3 450zm94.4-259.6a32 32 0 1 0 -55.4-32 32 32 0 1 0 55.4 32zm94.9 91.7a32 32 0 1 0 32-55.4 32 32 0 1 0 -32 55.4zm-72.8 78.1a56 56 0 1 0 -97-56 56 56 0 1 0 97 56z"/></svg>