<svg xmlns="http://www.w3.org/2000/svg" viewBox="0 0 576 512"><path fill="currentColor" d="M80.1 256c0-114.9 93.1-208 208-208s208 93.1 208 208c0 11.8-1 23.4-2.9 34.7 10 3.9 19.4 9.9 27.5 18l14.5 14.5c5.8-21.4 8.9-43.9 8.9-67.2 0-141.4-114.6-256-256-256s-256 114.6-256 256 114.6 256 256 256c40.8 0 79.4-9.5 113.6-26.5l-28.9-28.9c-2.4-2.4-4.7-5-6.8-7.7-24.1 9.7-50.4 15.1-77.9 15.1-114.9 0-208-93.1-208-208zm160-48a32 32 0 1 0 -64 0 32 32 0 1 0 64 0zm128 32a32 32 0 1 0 0-64 32 32 0 1 0 0 64zm-96 56c-13.3 0-24 10.7-24 24l0 32c0 13.3 10.7 24 24 24s24-10.7 24-24l0-32c0-13.3-10.7-24-24-24zm104 24c0-13.3-10.7-24-24-24s-24 10.7-24 24l0 32c0 13.3 10.7 24 24 24s24-10.7 24-24l0-32zm-184-24c-13.3 0-24 10.7-24 24l0 32c0 13.3 10.7 24 24 24s24-10.7 24-24l0-32c0-13.3-10.7-24-24-24zm344 96l-49.4-49.4c-12.5-12.5-32.8-12.5-45.3 0l-34.7 34.7c-12.5 12.5-12.5 32.8 0 45.3L456.1 472c22.1 22.1 57.9 22.1 80 0s22.1-57.9 0-80zm-56 40a16 16 0 1 1 32 0 16 16 0 1 1 -32 0z"/></svg>