<svg xmlns="http://www.w3.org/2000/svg" viewBox="0 0 512 512"><path fill="currentColor" d="M464 256a208 208 0 1 0 -416 0 208 208 0 1 0 416 0zM0 256a256 256 0 1 1 512 0 256 256 0 1 1 -512 0zM197.5 398c-7.7 10.8-22.7 13.2-33.5 5.5s-13.2-22.7-5.5-33.5c21.7-30.2 57.3-50 97.5-50s75.7 19.8 97.5 50c7.7 10.8 5.3 25.8-5.5 33.5s-25.8 5.3-33.5-5.5c-13.1-18.2-34.4-30-58.5-30s-45.4 11.8-58.5 30zM119 192l65 0c22.1 0 40 17.9 40 40s-17.9 40-40 40c-19.4 0-35.5-13.7-39.2-32L119 240c-13.3 0-24-10.7-24-24s10.7-24 24-24zm169 24c0-13.3 10.7-24 24-24l64 0c22.1 0 40 17.9 40 40s-17.9 40-40 40c-19.4 0-35.5-13.7-39.2-32L312 240c-13.3 0-24-10.7-24-24z"/></svg>