<svg xmlns="http://www.w3.org/2000/svg" viewBox="0 0 512 512"><path fill="currentColor" d="M48 256C48 141.1 141.1 48 256 48s208 93.1 208 208c0 50.5-18 96.9-48 132.9l0 66.9c18.2-14.6 34.4-31.6 48-50.6l0 50.7c0 13.3 10.7 24 24 24s24-10.7 24-24l0-200C512 114.6 397.4 0 256 0S0 114.6 0 256L0 368c0 13.3 10.7 24 24 24s24-10.7 24-24l0-112zM95 387.8c-2.9 17.6-12.1 33-25.3 43.9 37.8 40.1 88.4 68 145.2 77.1-14.1-13.1-23-31.9-23-52.7l0-2c-38.4-12.4-71.9-35.7-97-66.2zM152 352c0-11.9 8.6-21.8 20-23.7l0 47.3c-11.4-1.9-20-11.8-20-23.7zm84 24l-24 0 0-48 24 0 0 48zm64-48l0 48-24 0 0-48 24 0zm40 .3c11.4 1.9 20 11.8 20 23.7s-8.6 21.8-20 23.7l0-47.3zM176 288c-35.3 0-64 28.7-64 64s28.7 64 64 64l64 0 0 40c0 13.3 10.7 24 24 24s24-10.7 24-24l0-40 32 0 0 72c0 13.3 10.7 24 24 24s24-10.7 24-24l0-80.6c19.1-11.1 32-31.7 32-55.4 0-35.3-28.7-64-64-64l-160 0zm0-48a32 32 0 1 0 0-64 32 32 0 1 0 0 64zm192-32a32 32 0 1 0 -64 0 32 32 0 1 0 64 0z"/></svg>