<svg xmlns="http://www.w3.org/2000/svg" viewBox="0 0 640 512"><path fill="currentColor" d="M393.9 450.5L430.5 487c-33.4 16-70.9 25-110.4 25-91.4 0-171.6-47.9-216.9-120 17.8-.2 35.1-3.6 51.3-10.1 38 49.9 98 82.1 165.6 82.1 26 0 50.9-4.8 73.9-13.5zM320 48c-43.3 0-83.5 13.2-116.8 35.9-2-2.9-4.3-5.6-6.9-8.2-10.7-10.7-24.2-16.7-38.2-18 44.1-36 100.5-57.7 161.9-57.7 138.1 0 250.7 109.4 255.8 246.2-3.1 2.5-6 5.4-8.6 8.4l-34.9-34.9c-2.8-2.8-5.8-5.2-8.9-7.4-20.1-93.9-103.5-164.3-203.4-164.3zm43 371.6c-11.4 7.7-26.4 12.4-43 12.4-35.3 0-64-21.5-64-48s28.7-48 64-48c12.7 0 24.5 2.8 34.4 7.5-14.5 23.8-11.6 55.2 8.6 76zM497.1 202c-10.9-1.6-22-.3-32.4 3.8-7.4-19.8-26.4-33.8-48.7-33.8-28.7 0-52 23.3-52 52 0 12.3 4.3 23.6 11.4 32.5-7.6 9.4-12.1 20.4-13.5 31.7-18.3-15.4-29.9-38.5-29.9-64.2 0-46.4 37.6-84 84-84 38.8 0 71.4 26.3 81.1 62zm-80.7-2a24 24 0 1 1 0 48 24 24 0 1 1 0-48zM0 250.2L0 152c0-13.3 10.7-24 24-24s24 10.7 24 24l0 30.3c0 3.6 4.3 5.3 6.8 2.8L136 104c8.8-8.8 23.2-8.8 32 0s8.8 23.2 0 32l-48 48c-4.4 4.4-4.4 11.6 0 16s11.6 4.4 16 0l64-64c8.8-8.8 23.2-8.8 32 0s8.8 23.2 0 32l-64 64c-4.4 4.4-4.4 11.6 0 16s11.6 4.4 16 0l32-32c8.8-8.8 23.2-8.8 32 0s8.8 23.2 0 32l-74.2 74.2C154.7 341.3 128.8 352 101.8 352 45.6 352 0 306.4 0 250.2zM640 296l0 98.2c0 56.2-45.6 101.8-101.8 101.8-27 0-52.9-10.7-72-29.8L392 392c-8.8-8.8-8.8-23.2 0-32s23.2-8.8 32 0l32 32c4.4 4.4 11.6 4.4 16 0s4.4-11.6 0-16l-64-64c-8.8-8.8-8.8-23.2 0-32s23.2-8.8 32 0l64 64c4.4 4.4 11.6 4.4 16 0s4.4-11.6 0-16l-48-48c-8.8-8.8-8.8-23.2 0-32s23.2-8.8 32 0l81.2 81.2c2.5 2.5 6.8 .7 6.8-2.8l0-30.3c0-13.3 10.7-24 24-24s24 10.7 24 24z"/></svg>