<svg xmlns="http://www.w3.org/2000/svg" viewBox="0 0 640 512"><path fill="currentColor" d="M532-40c0 11 9 20 20 20l22.4 0-38 47.5c-4.8 6-5.7 14.2-2.4 21.2S544.3 60 552 60l64 0c11 0 20-9 20-20s-9-20-20-20l-22.4 0 38-47.5c4.8-6 5.7-14.2 2.4-21.2S623.7-60 616-60l-64 0c-11 0-20 9-20 20zM388 56c0 11 9 20 20 20l22.4 0-38 47.5c-4.8 6-5.7 14.2-2.4 21.2S400.3 156 408 156l64 0c11 0 20-9 20-20s-9-20-20-20l-22.4 0 38-47.5c4.8-6 5.7-14.2 2.4-21.2S479.7 36 472 36l-64 0c-11 0-20 9-20 20zM336 .5C330.7 .2 325.4 0 320 0 178.6 0 64 114.6 64 256S178.6 512 320 512 576 397.4 576 256c0-16.4-1.5-32.5-4.5-48l-49.1 0c3.6 15.4 5.6 31.5 5.6 48 0 114.9-93.1 208-208 208S112 370.9 112 256 205.1 48 320 48c5.4 0 10.7 .2 16 .6L336 .5zM360 384a40 40 0 1 0 -80 0 40 40 0 1 0 80 0zm48-116c-11 0-20-9-20-20s-9-20-20-20-20 9-20 20c0 33.1 26.9 60 60 60l16 0c33.1 0 60-26.9 60-60 0-11-9-20-20-20s-20 9-20 20-9 20-20 20l-16 0zM196 248c0-11-9-20-20-20s-20 9-20 20c0 33.1 26.9 60 60 60l16 0c33.1 0 60-26.9 60-60 0-11-9-20-20-20s-20 9-20 20-9 20-20 20l-16 0c-11 0-20-9-20-20z"/></svg>