<svg xmlns="http://www.w3.org/2000/svg" viewBox="0 0 512 512"><path fill="currentColor" d="M48 256C48 141.1 141.1 48 256 48s208 93.1 208 208c0 52.4-19.4 100.3-51.4 136.9-1 4-2.3 8-4 11.8 .5 .4 .9 .9 1.4 1.4 10.8 10.8 17.3 24.1 19.7 38.1 50.6-46.8 82.4-113.7 82.4-188.1 0-141.4-114.6-256-256-256S0 114.6 0 256c0 73.2 30.7 139.2 80 185.9L80 376c0-2.8 .2-5.6 .5-8.3-20.6-32.3-32.5-70.6-32.5-111.7zm208-32c-47.8 0-87.4 34.9-94.8 80.6 15.2 2 29 8.7 39.7 18.6l29.1-29.1c27.6-27.6 72.3-27.6 99.9 0 3.6 3.6 6.7 7.4 9.3 11.5 3.9-.3 7.8-.2 11.7 .2-6.9-46.2-46.8-81.7-94.9-81.7zm-44.8-94.4c-8-10.6-23-12.8-33.6-4.8l-64 48c-10.6 8-12.8 23-4.8 33.6s23 12.8 33.6 4.8l64-48c10.6-8 12.8-23 4.8-33.6zm94.4 33.6l64 48c10.6 8 25.6 5.8 33.6-4.8s5.8-25.6-4.8-33.6l-64-48c-10.6-8-25.6-5.8-33.6 4.8s-5.8 25.6 4.8 33.6zM128 376l0 98.2c0 56.2 45.6 101.8 101.8 101.8 27 0 52.9-10.7 72-29.8L376 472c8.8-8.8 8.8-23.2 0-32s-23.2-8.8-32 0l-32 32c-4.4 4.4-11.6 4.4-16 0s-4.4-11.6 0-16l64-64c8.8-8.8 8.8-23.2 0-32s-23.2-8.8-32 0l-64 64c-4.4 4.4-11.6 4.4-16 0s-4.4-11.6 0-16l48-48c8.8-8.8 8.8-23.2 0-32s-23.2-8.8-32 0l-81.2 81.2c-2.5 2.5-6.8 .7-6.8-2.8l0-30.3c0-13.3-10.7-24-24-24s-24 10.7-24 24z"/></svg>