<svg xmlns="http://www.w3.org/2000/svg" viewBox="0 0 640 512"><path fill="currentColor" d="M294.7 462.5c8.3 1 16.8 1.5 25.4 1.5s17.1-.5 25.4-1.5c2.4 16.5 7.6 32.2 15.2 46.3-13.2 2.1-26.8 3.2-40.6 3.2s-27.4-1.1-40.6-3.2c7.6-14.2 12.8-29.8 15.2-46.3zM64.2 263.7c-.1-2.6-.1-5.1-.1-7.7 0-141.4 114.6-256 256-256s256 114.6 256 256c0 2.6 0 5.1-.1 7.7-13.7-11.4-31.2-16-48-13.8-3.2-112.1-95.1-201.9-207.9-201.9S115.4 137.8 112.2 249.9c-16.8-2.2-34.2 2.4-48 13.8zM240.1 180c-15.5 0-28 12.5-28 28l0 8c0 11-9 20-20 20s-20-9-20-20l0-8c0-37.6 30.4-68 68-68s68 30.4 68 68l0 8c0 11-9 20-20 20s-20-9-20-20l0-8c0-15.5-12.5-28-28-28zm132 28l0 8c0 11-9 20-20 20s-20-9-20-20l0-8c0-37.6 30.4-68 68-68s68 30.4 68 68l0 8c0 11-9 20-20 20s-20-9-20-20l0-8c0-15.5-12.5-28-28-28s-28 12.5-28 28zM207.5 318.7c9.6-9.2 24.8-8.9 33.9 .7 15 15.7 41.1 32.6 78.7 32.6s63.7-17 78.7-32.6c9.2-9.6 24.4-9.9 33.9-.7s9.9 24.4 .7 33.9c-.4 .5-.9 .9-1.3 1.4l0 20.4c0 3.6 4.3 5.3 6.8 2.8L520.1 296c8.8-8.8 23.2-8.8 32 0s8.8 23.2 0 32l-48 48c-4.4 4.4-4.4 11.6 0 16s11.6 4.4 16 0l64-64c8.8-8.8 23.2-8.8 32 0s8.8 23.2 0 32l-64 64c-4.4 4.4-4.4 11.6 0 16s11.6 4.4 16 0l32-32c8.8-8.8 23.2-8.8 32 0s8.8 23.2 0 32L558 514.2c-19.1 19.1-45 29.8-72 29.8-56.2 0-101.8-45.6-101.8-101.8l0-55.3c-18 7.9-39.4 13.1-64 13.1s-46-5.2-64-13.1l0 55.3c0 56.2-45.6 101.8-101.8 101.8-27 0-52.9-10.7-72-29.8L8.1 440c-8.8-8.8-8.8-23.2 0-32s23.2-8.8 32 0l32 32c4.4 4.4 11.6 4.4 16 0s4.4-11.6 0-16l-64-64c-8.8-8.8-8.8-23.2 0-32s23.2-8.8 32 0l64 64c4.4 4.4 11.6 4.4 16 0s4.4-11.6 0-16l-48-48c-8.8-8.8-8.8-23.2 0-32s23.2-8.8 32 0l81.2 81.2c2.5 2.5 6.8 .7 6.8-2.8l0-20.4c-.4-.5-.9-.9-1.3-1.4-9.2-9.6-8.9-24.8 .7-33.9z"/></svg>