<svg xmlns="http://www.w3.org/2000/svg" viewBox="0 0 512 512"><path fill="currentColor" d="M464 256c0 59-24.6 112.2-64 150.1l0 61.6C467.6 421.6 512 344 512 256 512 114.6 397.4 0 256 0S0 114.6 0 256c0 88 44.4 165.6 112 211.7l0-61.6C72.6 368.2 48 315 48 256 48 141.1 141.1 48 256 48s208 93.1 208 208zM152 320c-13.3 0-24 10.7-24 24s10.7 24 24 24l8 0 0 80c0 53 43 96 96 96s96-43 96-96l0-80 8 0c13.3 0 24-10.7 24-24s-10.7-24-24-24l-208 0zm120 48l8 0c8.8 0 16 7.2 16 16s-7.2 16-16 16l-33.5 0c-3.6 0-6.5 2.9-6.5 6.5 0 3 2 5.6 4.9 6.3l30 7.5c17.1 4.3 29.1 19.7 29.1 37.3 0 19-13.8 34.8-32 37.9l0 .5c0 8.8-7.2 16-16 16s-16-7.2-16-16l-8 0c-8.8 0-16-7.2-16-16s7.2-16 16-16l33.5 0c3.6 0 6.5-2.9 6.5-6.5 0-3-2-5.6-4.9-6.3l-30-7.5c-17.1-4.3-29.1-19.7-29.1-37.3 0-19 13.8-34.8 32-37.9l0-.5c0-8.8 7.2-16 16-16s16 7.2 16 16zM160 120l0 8-1.8 0c-21.1 0-38.2 17.1-38.2 38.2 0 17.9 12.4 33.4 29.9 37.3l37.2 8.3c2.8 .6 4.9 3.1 4.9 6 0 3.4-2.8 6.2-6.2 6.2L144 224c-8.8 0-16 7.2-16 16s7.2 16 16 16l16 0 0 8c0 8.8 7.2 16 16 16s16-7.2 16-16l0-8 0-.5c18.2-3 32-18.7 32-37.7 0-17.9-12.4-33.4-29.9-37.3l-37.2-8.3c-2.8-.6-4.9-3.1-4.9-6 0-3.4 2.8-6.2 6.2-6.2l41.8 0c8.8 0 16-7.2 16-16s-7.2-16-16-16l-8 0 0-8c0-8.8-7.2-16-16-16s-16 7.2-16 16zm176-16c-8.8 0-16 7.2-16 16l0 8-1.8 0c-21.1 0-38.2 17.1-38.2 38.2 0 17.9 12.4 33.4 29.9 37.3l37.2 8.3c2.8 .6 4.9 3.1 4.9 6 0 3.4-2.8 6.2-6.2 6.2L304 224c-8.8 0-16 7.2-16 16s7.2 16 16 16l16 0 0 8c0 8.8 7.2 16 16 16s16-7.2 16-16l0-8 0-.5c18.2-3 32-18.7 32-37.7 0-17.9-12.4-33.4-29.9-37.3l-37.2-8.3c-2.8-.6-4.9-3.1-4.9-6 0-3.4 2.8-6.2 6.2-6.2l41.8 0c8.8 0 16-7.2 16-16s-7.2-16-16-16l-8 0 0-8c0-8.8-7.2-16-16-16z"/></svg>