<svg xmlns="http://www.w3.org/2000/svg" viewBox="0 0 512 512"><path fill="currentColor" d="M256 48a208 208 0 1 1 0 416 208 208 0 1 1 0-416zm0 464a256 256 0 1 0 0-512 256 256 0 1 0 0 512zM384 208c0-35.3-21.5-64-48-64s-48 28.7-48 64 21.5 64 48 64 48-28.7 48-64zM213.8 255.3c12.9-3.2 20.7-16.2 17.5-29.1s-16.2-20.7-29.1-17.5l-64 16c-12.9 3.2-20.7 16.2-17.5 29.1s16.2 20.7 29.1 17.5l64-16zM226.7 97c-8.3-10.4-23.4-12-33.7-3.7l-80 64c-10.4 8.3-12 23.4-3.7 33.7s23.4 12 33.7 3.7l80-64c10.4-8.3 12-23.4 3.7-33.7zM387.8 349.6c7.5-10.9 4.7-25.9-6.2-33.4s-25.9-4.7-33.4 6.2l-22.1 32.3c-2.3 3.3-6 5.3-10 5.3-2.6 0-5.2-.9-7.3-2.4l-27.9-21c-23.5-17.6-54.9-20.4-81.1-7.3-11.3 5.7-25 3.4-34-5.5L161 319c-9.4-9.4-24.6-9.4-33.9 0s-9.4 24.6 0 33.9l4.8 4.8c23.6 23.6 59.6 29.4 89.4 14.5 10-5 21.9-3.9 30.8 2.8L280 396c10.4 7.8 23.1 12 36.1 12 19.8 0 38.4-9.8 49.6-26.2l22.1-32.3z"/></svg>