<svg xmlns="http://www.w3.org/2000/svg" viewBox="0 0 512 512"><path fill="currentColor" d="M485.8 16.1c6.5-6.5 16.7-7.3 24.1-1.9s9.9 15.3 5.8 23.5C493.6 81.9 412.1 160 256.3 160S19.1 81.9-3 37.7c-4.1-8.2-1.6-18.1 5.8-23.5s17.6-4.5 24.1 1.9c12.4 12.4 45.1 34.5 96.9 50.4 11.4-62.7 34.9-130.5 74.6-130.5 10.4 0 20.6 4.4 29.8 9.4 9 4.9 20.3 9.3 28.2 9.3s19.1-4.4 28.2-9.3c9.2-5 19.4-9.4 29.8-9.4 39.8 0 63.2 67.8 74.6 130.5 51.8-15.9 84.5-38 96.9-50.4zM32.3 288c0-46 13.9-88.8 37.7-124.4 13.9 7.1 28.9 13.6 45.2 19.3-21.9 29.3-34.9 65.8-34.9 105.2 0 97.2 78.8 176 176 176s176-78.8 176-176c0-39.4-13-75.8-34.9-105.2 16.2-5.6 31.3-12.1 45.2-19.3 23.8 35.6 37.7 78.4 37.7 124.4 0 123.7-100.3 224-224 224s-224-100.3-224-224zM358 320.5c10.3-3.1 20.7 5.4 17.1 15.5-17.3 48.9-64 84-118.8 84-54.8 0-101.5-35-118.8-83.9-3.6-10.2 6.8-18.7 17.1-15.5 30.4 9.3 65 14.5 101.6 14.5 36.7 0 71.3-5.2 101.8-14.5zM144.3 256a32 32 0 1 1 64 0 32 32 0 1 1 -64 0zm192-32a32 32 0 1 1 0 64 32 32 0 1 1 0-64z"/></svg>