<svg xmlns="http://www.w3.org/2000/svg" viewBox="0 0 512 512"><path fill="currentColor" d="M464 256a208 208 0 1 0 -416 0 208 208 0 1 0 416 0zM0 256a256 256 0 1 1 512 0 256 256 0 1 1 -512 0zm228.5 72.4l27.5 22 27.5-22c6.8-5.4 16.3-5.9 23.6-1l39.9 26.6 14.7-4.9c10.5-3.5 21.8 2.2 25.3 12.6s-2.2 21.8-12.6 25.3l-24 8c-5.9 2-12.3 1.1-17.4-2.3l-35.8-23.9-28.6 22.9c-7.3 5.8-17.7 5.8-25 0l-28.6-22.9-35.8 23.9c-5.1 3.4-11.6 4.3-17.4 2.3l-24-8c-10.5-3.5-16.1-14.8-12.6-25.3s14.8-16.1 25.3-12.6l14.7 4.9 39.9-26.6c7.2-4.8 16.8-4.4 23.6 1zM122.6 191.2c4.5-6.8 13.3-9.2 20.6-5.5l79.6 40c5.4 2.7 8.8 8.2 8.8 14.3s-3.4 11.6-8.8 14.3l-79.6 40c-7.3 3.6-16.1 1.3-20.6-5.5s-3.1-15.9 3.1-21.1L159 240 125.8 212.3c-6.2-5.2-7.6-14.3-3.1-21.1zm263.6 21.1L353 240 386.2 267.7c6.2 5.2 7.6 14.3 3.1 21.1s-13.3 9.2-20.6 5.5l-79.6-40c-5.4-2.7-8.8-8.2-8.8-14.3s3.4-11.6 8.8-14.3l79.6-40c7.3-3.6 16.1-1.3 20.6 5.5s3.1 15.9-3.1 21.1z"/></svg>