<svg xmlns="http://www.w3.org/2000/svg" viewBox="0 0 512 512"><path fill="currentColor" d="M464 256a208 208 0 1 0 -416 0 208 208 0 1 0 416 0zM0 256a256 256 0 1 1 512 0 256 256 0 1 1 -512 0zm208-16a48 48 0 1 0 -96 0 48 48 0 1 0 96 0zm32 0c0 44.2-35.8 80-80 80s-80-35.8-80-80c0-16.3 4.9-31.5 13.3-44.2-8.8-1.2-16-8.1-17.1-17.3-1.4-11 6.4-21 17.4-22.3l11.5-1.4c23.9-3 43.6-19.9 50.2-43.1l1.5-5.2c3-10.6 14.1-16.8 24.7-13.7s16.8 14.1 13.7 24.7l-1.5 5.2c-4.1 14.5-11.4 27.5-20.9 38.4 38.1 6.2 67.1 39.2 67.1 79zm112 48a48 48 0 1 0 0-96 48 48 0 1 0 0 96zm0 32c-44.2 0-80-35.8-80-80 0-39.8 29.1-72.8 67.1-79-9.5-10.9-16.8-23.9-20.9-38.4l-1.5-5.2c-3-10.6 3.1-21.7 13.7-24.7s21.7 3.1 24.7 13.7l1.5 5.2c6.6 23.1 26.4 40.1 50.2 43.1l11.5 1.4c11 1.4 18.7 11.4 17.4 22.3-1.1 9.2-8.4 16.1-17.1 17.3 8.4 12.7 13.3 27.8 13.3 44.2 0 44.2-35.8 80-80 80zM160 208c17.7 0 32 14.3 32 32s-14.3 32-32 32-32-14.3-32-32c17.7 0 32-14.3 32-32zm160 32c17.7 0 32-14.3 32-32 17.7 0 32 14.3 32 32s-14.3 32-32 32-32-14.3-32-32zM224 368l64 0c13.3 0 24 10.7 24 24s-10.7 24-24 24l-64 0c-13.3 0-24-10.7-24-24s10.7-24 24-24z"/></svg>