<svg xmlns="http://www.w3.org/2000/svg" viewBox="0 0 512 512"><path fill="currentColor" d="M464 256a208 208 0 1 0 -416 0 208 208 0 1 0 416 0zM0 256a256 256 0 1 1 512 0 256 256 0 1 1 -512 0zm384 88c0 30.9-25.1 56-56 56l-144 0c-13.3 0-24-10.7-24-24s10.7-24 24-24l144 0c4.4 0 8-3.6 8-8 0-13.3 10.7-24 24-24s24 10.7 24 24zM120 192l64 0c22.1 0 40 17.9 40 40s-17.9 40-40 40c-19.4 0-35.5-13.7-39.2-32L120 240c-13.3 0-24-10.7-24-24s10.7-24 24-24zm168 24c0-13.3 10.7-24 24-24l64 0c22.1 0 40 17.9 40 40s-17.9 40-40 40c-19.4 0-35.5-13.7-39.2-32L312 240c-13.3 0-24-10.7-24-24z"/></svg>