<svg xmlns="http://www.w3.org/2000/svg" viewBox="0 0 640 512"><path fill="currentColor" d="M36.4 75.7l19.3 65.7C84.8 74.5 138.5 20.8 205.4-8.3L139.7-27.6C98.2-1.1 62.9 34.2 36.4 75.7zM24.8 36.3C46.2 7.6 71.6-17.8 100.3-39.2L25.1-61.3c-5.6-1.7-11.7-.1-15.8 4L6.7-54.7C2.6-50.6 1-44.5 2.7-38.9L24.8 36.3zM320 512c77.1 0 146.2-34.1 193.2-88l-70.5 0c-34.4 25.2-76.8 40-122.7 40-114.9 0-208-93.1-208-208S205.1 48 320 48C407.7 48 482.8 102.3 513.3 179.2 526.5 170.3 541.6 164.1 558 161.4 520.4 66.9 428 0 320 0 178.6 0 64 114.6 64 256S178.6 512 320 512zM212 216c0-11 9-20 20-20l16 0c11 0 20 9 20 20s9 20 20 20 20-9 20-20c0-33.1-26.9-60-60-60l-16 0c-33.1 0-60 26.9-60 60 0 11 9 20 20 20s20-9 20-20zm180-20l16 0c11 0 20 9 20 20s9 20 20 20 20-9 20-20c0-33.1-26.9-60-60-60l-16 0c-33.1 0-60 26.9-60 60 0 11 9 20 20 20s20-9 20-20 9-20 20-20zm-56 76c-8.8 0-16 7.2-16 16s7.2 16 16 16l16 0c8.8 0 16 7.2 16 16s-7.2 16-16 16l-16 0c-8.8 0-16 7.2-16 16s7.2 16 16 16l16 0c8.8 0 16 7.2 16 16s-7.2 16-16 16l-16 0c-8.8 0-16 7.2-16 16s7.2 16 16 16l32 0c26.5 0 48-21.5 48-48 0-2.7-.2-5.4-.7-8L560 376c44.2 0 80-35.8 80-80l0-24c0-35.3-28.7-64-64-64s-64 28.7-64 64l0 16 48 0 0-16c0-8.8 7.2-16 16-16s16 7.2 16 16l0 24c0 17.7-14.3 32-32 32l-144.7 0c.4-2.6 .7-5.3 .7-8 0-26.5-21.5-48-48-48l-32 0z"/></svg>