<svg xmlns="http://www.w3.org/2000/svg" viewBox="0 0 512 512"><path fill="currentColor" d="M464 256c0-42-12.5-81.1-33.9-113.8-7.6 7.6-19.9 7.8-27.8 .4-14.9-13.9-33.5-23.1-53.8-25.8-4.1-.5-8.3-.8-12.5-.8-11 0-20-9-20-20s9-20 20-20c6 0 11.9 .4 17.7 1.2 4.1 .5 8.1 1.3 12.1 2.2-31.9-19.9-69.5-31.3-109.8-31.3S178.1 59.5 146.2 79.3c4-.9 8-1.6 12.1-2.2 5.8-.8 11.7-1.2 17.7-1.2 11 0 20 9 20 20s-9 20-20 20c-4.2 0-8.4 .3-12.5 .8-20.3 2.7-38.9 11.9-53.8 25.8-7.9 7.4-20.2 7.1-27.8-.4-21.4 32.7-33.9 71.8-33.9 113.8 0 114.9 93.1 208 208 208s208-93.1 208-208zM0 256a256 256 0 1 1 512 0 256 256 0 1 1 -512 0zm256 64c44.2 0 80 35.8 80 80 0 8.8-7.2 16-16 16l-128 0c-8.8 0-16-7.2-16-16 0-44.2 35.8-80 80-80zM136 224a24 24 0 1 1 48 0 24 24 0 1 1 -48 0zm216-24a24 24 0 1 1 0 48 24 24 0 1 1 0-48zM160 176a48 48 0 1 0 0 96 48 48 0 1 0 0-96zm80 48a80 80 0 1 1 -160 0 80 80 0 1 1 160 0zm64 0a48 48 0 1 0 96 0 48 48 0 1 0 -96 0zm48 80a80 80 0 1 1 0-160 80 80 0 1 1 0 160z"/></svg>