<svg xmlns="http://www.w3.org/2000/svg" viewBox="0 0 640 512"><path fill="currentColor" d="M575.5 208C567.2 74.1 456-32 320-32S72.8 74.1 64.5 208l48.1 0C120.8 100.6 210.5 16 320 16s199.2 84.6 207.4 192l48.1 0zM368 464c-8.8 0-16-7.2-16-16l0-16-32 0 0 16c0 8.8-7.2 16-16 16s-16-7.2-16-16l0-16-16 0c-8.8 0-16-7.2-16-16s7.2-16 16-16l16 0 0-32-16 0c-8.8 0-16-7.2-16-16s7.2-16 16-16l16 0 0-16c0-8.8 7.2-16 16-16s16 7.2 16 16l0 16 32 0 0-16c0-8.8 7.2-16 16-16s16 7.2 16 16l0 16 16 0c8.8 0 16 7.2 16 16s-7.2 16-16 16l-16 0 0 32 16 0c8.8 0 16 7.2 16 16s-7.2 16-16 16l-16 0 0 16c0 8.8-7.2 16-16 16zM240 192c17.7 0 32-14.3 32-32l0-.3 9.7 3.2c10.5 3.5 21.8-2.2 25.3-12.6s-2.2-21.8-12.6-25.3l-96-32c-10.5-3.5-21.8 2.2-25.3 12.6s2.2 21.8 12.6 25.3l28.9 9.6c-4.1 5.4-6.6 12.1-6.6 19.4 0 17.7 14.3 32 32 32zm192-32c0-7.3-2.4-14-6.6-19.4l28.9-9.6c10.5-3.5 16.1-14.8 12.6-25.3S452.2 89.5 441.7 93l-96 32c-10.5 3.5-16.1 14.8-12.6 25.3s14.8 16.1 25.3 12.6l9.7-3.2 0 .3c0 17.7 14.3 32 32 32s32-14.3 32-32zM64 256c-35.3 0-64 28.7-64 64L0 448c0 35.3 28.7 64 64 64l512 0c35.3 0 64-28.7 64-64l0-128c0-35.3-28.7-64-64-64L64 256zM320 368l0 32 32 0 0-32-32 0zm250.4-52.1c6.7 5.8 7.5 15.8 1.7 22.6l-96 112c-5.8 6.7-15.8 7.5-22.6 1.7s-7.5-15.8-1.7-22.6l96-112c5.8-6.7 15.8-7.5 22.6-1.7zM448 336a24 24 0 1 1 48 0 24 24 0 1 1 -48 0zm104 72a24 24 0 1 1 0 48 24 24 0 1 1 0-48zM208 304c8.8 0 16 7.2 16 16l0 64c0 8.8-7.2 16-16 16s-16-7.2-16-16l0-64c0-8.8 7.2-16 16-16zM184 440a24 24 0 1 1 48 0 24 24 0 1 1 -48 0zM64 358.5c0-19 13.8-34.8 32-37.9l0-.5c0-8.8 7.2-16 16-16s16 7.2 16 16l8 0c8.8 0 16 7.2 16 16s-7.2 16-16 16l-33.5 0c-3.6 0-6.5 2.9-6.5 6.5 0 3 2 5.6 4.9 6.3l30 7.5c17.1 4.3 29.1 19.7 29.1 37.3 0 19-13.8 34.8-32 37.9l0 .5c0 8.8-7.2 16-16 16s-16-7.2-16-16l-16 0c-8.8 0-16-7.2-16-16s7.2-16 16-16l41.5 0c3.6 0 6.5-2.9 6.5-6.5 0-3-2-5.6-4.9-6.3l-30-7.5C76 391.5 64 376.1 64 358.5z"/></svg>