<svg xmlns="http://www.w3.org/2000/svg" viewBox="0 0 512 512"><path fill="currentColor" d="M384 420c0-1.3 .1-2.7 .1-4l0-40.2c35.1-39.8 48.4-95 34.8-146.7-3.6-13.7-19.5-18.8-31.8-11.7L157.1 350.1c-12.3 7.1-15.9 23.4-5.8 33.4 2.8 2.8 5.7 5.5 8.7 8l0 24.5c0 9 1.1 17.7 3.1 26.1-35.3-17.6-66-45.4-87.2-82.1-57.4-99.5-23.4-226.7 76.1-284.1S378.7 52.5 436.2 152c52.6 91 28.5 205.3-52.2 268zm-30.3 72.6c10.3-4.3 20.4-9.3 30.4-15 122.4-70.7 164.4-227.3 93.7-349.7S250.5-36.4 128 34.3-36.4 261.6 34.3 384c38.6 66.8 102.6 109.6 172.8 123.3 18.3 13 40.7 20.7 64.9 20.7 32.2 0 61.2-13.6 81.6-35.3zM304 144c0-15.2-10.6-27.9-24.8-31.2 2.9-.5 5.8-.8 8.8-.8 26.5 0 48 21.5 48 48s-21.5 48-48 48-48-21.5-48-48c0-3 .3-6 .8-8.8 3.3 14.2 16 24.8 31.2 24.8 17.7 0 32-14.3 32-32zM144 256a32 32 0 1 0 0-64 32 32 0 1 0 0 64zm144-16a80 80 0 1 0 0-160 80 80 0 1 0 0 160zm48 176c0 35.3-28.7 64-64 64s-64-28.7-64-64l0-37.4c0-14.7 11.9-26.6 26.6-26.6l2 0c11.3 0 21.1 7.9 23.6 18.9 2.8 12.6 20.8 12.6 23.6 0 2.5-11.1 12.3-18.9 23.6-18.9l2 0c14.7 0 26.6 11.9 26.6 26.6l0 37.4z"/></svg>