<svg xmlns="http://www.w3.org/2000/svg" viewBox="0 0 512 512"><path fill="currentColor" d="M464 256a208 208 0 1 0 -416 0 208 208 0 1 0 416 0zM0 256a256 256 0 1 1 512 0 256 256 0 1 1 -512 0zm324-8c0 11 9 20 20 20l16 0c11 0 20-9 20-20s9-20 20-20 20 9 20 20c0 33.1-26.9 60-60 60l-16 0c-33.1 0-60-26.9-60-60 0-11 9-20 20-20s20 9 20 20zM152 268l16 0c11 0 20-9 20-20s9-20 20-20 20 9 20 20c0 33.1-26.9 60-60 60l-16 0c-33.1 0-60-26.9-60-60 0-11 9-20 20-20s20 9 20 20 9 20 20 20zm45.5 86c13.1 18.2 34.4 30 58.5 30s45.4-11.8 58.5-30c7.7-10.8 22.7-13.2 33.5-5.5s13.2 22.7 5.5 33.5c-21.7 30.2-57.3 50-97.5 50s-75.7-19.8-97.5-50c-7.7-10.8-5.3-25.8 5.5-33.5s25.8-5.3 33.5 5.5zM211 105.7c3.5 10.5-2.2 21.8-12.6 25.3l-6.3 2.1c-22.8 7.6-42.4 22.6-55.7 42.6l-7.6 11.5c-6.1 9.2-18.5 11.7-27.7 5.5s-11.7-18.5-5.5-27.7l7.6-11.5c18.3-27.4 45.1-47.9 76.3-58.3l6.3-2.1c10.5-3.5 21.8 2.2 25.3 12.6zM313.7 131c-10.5-3.5-16.1-14.8-12.6-25.3S315.8 89.5 326.3 93l6.3 2.1c31.2 10.4 58.1 30.9 76.3 58.3l7.6 11.5c6.1 9.2 3.6 21.6-5.5 27.7s-21.6 3.6-27.7-5.5l-7.6-11.5c-13.3-20-32.9-35-55.7-42.6l-6.3-2.1z"/></svg>