<svg xmlns="http://www.w3.org/2000/svg" viewBox="0 0 512 512"><path fill="currentColor" d="M464 256a208 208 0 1 0 -416 0 208 208 0 1 0 416 0zM0 256a256 256 0 1 1 512 0 256 256 0 1 1 -512 0zM182.4 414.5c-12.4 5.2-26.5-4.1-21.1-16.4 16-36.6 52.4-62.1 94.8-62.1s78.8 25.6 94.8 62.1c5.4 12.3-8.7 21.6-21.1 16.4-22.4-9.5-47.4-14.8-73.7-14.8s-51.3 5.3-73.7 14.8zM144 272a32 32 0 1 1 64 0 32 32 0 1 1 -64 0zm192-32a32 32 0 1 1 0 64 32 32 0 1 1 0-64zM192 164c-4.2 0-8.4 .3-12.5 .8-20.3 2.7-38.9 11.9-53.8 25.8-8.1 7.5-20.7 7.1-28.3-1s-7.1-20.7 1-28.3c20.6-19.3 46.8-32.4 75.9-36.2 5.8-.8 11.7-1.2 17.7-1.2 11 0 20 9 20 20s-9 20-20 20zm140.5 .8c-4.1-.5-8.3-.8-12.5-.8-11 0-20-9-20-20s9-20 20-20c6 0 11.9 .4 17.7 1.2 29.1 3.8 55.3 17 75.9 36.2 8.1 7.5 8.5 20.2 1 28.3s-20.2 8.5-28.3 1c-14.9-13.9-33.5-23.1-53.8-25.8z"/></svg>