<svg xmlns="http://www.w3.org/2000/svg" viewBox="0 0 640 512"><path fill="currentColor" d="M80 256c0-114.9 93.1-208 208-208 111.4 0 202.3 87.5 207.7 197.6 10.1-3.6 20.9-5.6 32.3-5.6 5.3 0 10.5 .4 15.6 1.3-7.6-134.5-119.1-241.3-255.6-241.3-141.4 0-256 114.6-256 256S146.6 512 288 512c55.8 0 107.4-17.8 149.4-48.1-1.6-4.5-2.9-9.2-3.8-14l-37.6-9.4c-2.6-.6-5.1-1.5-7.5-2.4-29.8 16.5-64.1 25.9-100.6 25.9-114.9 0-208-93.1-208-208zM328 384a40 40 0 1 0 -80 0 40 40 0 1 0 80 0zm28-152c0-11-9-20-20-20s-20 9-20 20c0 33.1 26.9 60 60 60l16 0c33.1 0 60-26.9 60-60 0-11-9-20-20-20s-20 9-20 20-9 20-20 20l-16 0c-11 0-20-9-20-20zM184 252c-11 0-20-9-20-20s-9-20-20-20-20 9-20 20c0 33.1 26.9 60 60 60l16 0c33.1 0 60-26.9 60-60 0-11-9-20-20-20s-20 9-20 20-9 20-20 20l-16 0zm389.3 68.1c-6.6-18.7-24.4-32.1-45.3-32.1-26.5 0-48 21.5-48 48 0 6.7 1.4 13.2 3.9 19l-76.1 19.1c-4.6 1.1-7.8 5.2-7.8 9.9s3.2 8.8 7.8 9.9L483.9 413c-2.5 5.8-3.9 12.2-3.9 19 0 26.5 21.5 48 48 48 20.9 0 38.7-13.4 45.3-32.1 .9 0 1.8 .1 2.7 .1 35.3 0 64-28.7 64-64s-28.7-64-64-64c-.9 0-1.8 0-2.7 .1z"/></svg>