<svg xmlns="http://www.w3.org/2000/svg" viewBox="0 0 640 512"><path fill="currentColor" d="M528 256c0 74.1-38.8 139.2-97.1 176 .7-5.2 1.1-10.6 1.1-16l0-28.9c10.2-8 16-17.3 16-27.1 0-30.9-57.3-56-128-56s-128 25.1-128 56c0 9.8 5.8 19.1 16 27.1l0 28.9c0 5.4 .4 10.8 1.1 16-12.6-8-24.3-17.2-34.9-27.6-3.1 17.4-10 33.3-19.9 46.8 27 22.9 58.7 40.3 93.6 50.6 19.5 16.4 44.6 26.3 72.1 26.3s52.6-9.9 72.1-26.3C498.4 470.6 576 372.3 576 256 576 114.6 461.4 0 320 0 184 0 72.8 106.1 64.5 240 77.3 240.1 90.1 244.6 100.5 253.5l.3 .3c3.6 3.1 7.4 6.6 11.4 10.3-.1-2.7-.2-5.4-.2-8 0-114.9 93.1-208 208-208s208 93.1 208 208zM400 288a32 32 0 1 0 0-64 32 32 0 1 0 0 64zM208 256a32 32 0 1 0 64 0 32 32 0 1 0 -64 0zm54.1-81.9c7.8-7.8 7.8-20.5 0-28.3s-20.5-7.8-28.3 0l-7.4 7.4c-18.3 18.3-41.8 30.4-67.3 34.6l-2.5 .4c-10.9 1.8-18.3 12.1-16.4 23s12.1 18.3 23 16.4l2.5-.4c33.7-5.6 64.8-21.6 89-45.8l7.4-7.4zm115.7-28.3c-7.8 7.8-7.8 20.5 0 28.3l7.4 7.4c24.2 24.2 55.3 40.2 89 45.8l2.5 .4c10.9 1.8 21.2-5.5 23-16.4s-5.5-21.2-16.4-23l-2.5-.4c-25.5-4.2-49-16.4-67.3-34.6l-7.4-7.4c-7.8-7.8-20.5-7.8-28.3 0zM384 378.6l0 37.4c0 35.3-28.7 64-64 64s-64-28.7-64-64l0-37.4c0-14.7 11.9-26.6 26.6-26.6l2 0c11.3 0 21.1 7.9 23.6 18.9 2.8 12.6 20.8 12.6 23.6 0 2.5-11.1 12.3-18.9 23.6-18.9l2 0c14.7 0 26.6 11.9 26.6 26.6zM128 384c0-36.9-32.5-71.1-58.8-94.1-3-2.6-7.4-2.6-10.4 0-26.3 23-58.8 57.2-58.8 94.1 0 36.4 27.6 64 64 64s64-27.6 64-64z"/></svg>