<svg xmlns="http://www.w3.org/2000/svg" viewBox="0 0 512 512"><path fill="currentColor" d="M256 48a208 208 0 1 0 0 416 208 208 0 1 0 0-416zM512 256a256 256 0 1 1 -512 0 256 256 0 1 1 512 0zm-368 0a32 32 0 1 1 64 0 32 32 0 1 1 -64 0zm192-32a32 32 0 1 1 0 64 32 32 0 1 1 0-64zM160 360c0-13.3 10.7-24 24-24l144 0c13.3 0 24 10.7 24 24s-10.7 24-24 24l-144 0c-13.3 0-24-10.7-24-24zM343.1 170.8l-46.1 23.1c-9.9 4.9-21.9 .9-26.8-8.9s-.9-21.9 8.9-26.8l46.1-23.1c16.9-8.4 36.8-8.4 53.7 0l14.1 7.1c9.9 4.9 13.9 17 8.9 26.8s-17 13.9-26.8 8.9l-14.1-7.1c-5.6-2.8-12.3-2.8-17.9 0zM128 148l64 0c11 0 20 9 20 20s-9 20-20 20l-64 0c-11 0-20-9-20-20s9-20 20-20z"/></svg>