<svg xmlns="http://www.w3.org/2000/svg" viewBox="0 0 576 512"><path fill="currentColor" d="M288.2 48c-114.9 0-208 93.1-208 208s93.1 208 208 208c69.9 0 131.7-34.4 169.4-87.3l83.5-80.5C521.8 418.5 415.9 512 288.2 512 146.9 512 32.2 397.4 32.2 256S146.9 0 288.2 0c88.7 0 166.8 45.1 212.8 113.6-8.5 3.8-16.6 9.1-23.7 16l-14.2 13.8C426.1 86 361.6 48 288.2 48zM400.9 385.3c-9.6 9.2-24.8 8.9-33.9-.7-15-15.7-41.1-32.6-78.7-32.6s-63.7 17-78.7 32.6c-9.2 9.6-24.4 9.9-33.9 .7s-9.9-24.4-.7-33.9c22.1-23 60-47.4 113.3-47.4 21.2 0 40 3.9 56.3 10L505.2 158.3c16.5-16 42.7-15.7 58.9 .5 16.7 16.7 16.4 43.8-.7 60.1l-13.2 12.6-26.8-26.8c-6.2-6.2-16.4-6.2-22.6 0s-6.2 16.4 0 22.6l26.3 26.3-26 24.8-25.7-25.7c-6.2-6.2-16.4-6.2-22.6 0s-6.2 16.4 0 22.6l25.2 25.2-26 24.8-24.6-24.6c-6.2-6.2-16.4-6.2-22.6 0s-6.2 16.4 0 22.6l24.1 24.1-20.8 19.8c.2 6.6-2.3 13.2-7.4 18.1zM208.2 176a32 32 0 1 1 0 64 32 32 0 1 1 0-64zm128 32a32 32 0 1 1 64 0 32 32 0 1 1 -64 0z"/></svg>