<svg xmlns="http://www.w3.org/2000/svg" viewBox="0 0 512 512"><path fill="currentColor" d="M256 464C141.1 464 48 370.9 48 256S141.1 48 256 48 464 141.1 464 256c0 29.3-6.1 57.2-17 82.5l-39.1-39.1c-1-8.8-6.8-16.7-15.7-19.9-12.5-4.5-26.2 2-30.7 14.5-15.6 43.2-56.9 74.1-105.4 74.1s-89.9-30.8-105.4-74.1c-4.5-12.5-18.2-18.9-30.7-14.5s-18.9 18.2-14.5 30.7c22.2 61.7 81.2 105.8 150.6 105.8 6.3 0 12.4-.4 18.5-1.1L315 455.5c-18.7 5.5-38.5 8.5-59 8.5zM387.6 347l35.8 35.8c15.6 15.6 15.6 40.9 0 56.6s-40.9 15.6-56.6 0l-39.9-39.9c24.4-12.1 45.3-30.2 60.7-52.4zM256 512c36.2 0 70.7-7.5 102-21.1 32.6 15.1 72.5 9.3 99.3-17.6 24.5-24.5 31.5-59.8 21.1-90.5 21.4-37.4 33.6-80.7 33.6-126.8 0-141.4-114.6-256-256-256S0 114.6 0 256 114.6 512 256 512zM176 180c15.5 0 28 12.5 28 28l0 8c0 11 9 20 20 20s20-9 20-20l0-8c0-37.6-30.4-68-68-68s-68 30.4-68 68l0 8c0 11 9 20 20 20s20-9 20-20l0-8c0-15.5 12.5-28 28-28zm160 0c15.5 0 28 12.5 28 28l0 8c0 11 9 20 20 20s20-9 20-20l0-8c0-37.6-30.4-68-68-68s-68 30.4-68 68l0 8c0 11 9 20 20 20s20-9 20-20l0-8c0-15.5 12.5-28 28-28z"/></svg>