<svg xmlns="http://www.w3.org/2000/svg" viewBox="0 0 512 512"><path fill="currentColor" d="M256 464c28.3 0 55.4-5.7 80-15.9l0 51.2C310.8 507.5 283.9 512 256 512 114.6 512 0 397.4 0 256S114.6 0 256 0 512 114.6 512 256c0 80.8-37.5 152.9-96 199.9l0 36.1c0 11-9 20-20 20s-20-9-20-20l0-182.2c-19.5 16.4-44.6 26.2-72 26.2-61.9 0-112-50.1-112-112s50.1-112 112-112 112 50.1 112 112l0 164.9c30-36 48-82.4 48-132.9 0-114.9-93.1-208-208-208S48 141.1 48 256 141.1 464 256 464zm48-168a72 72 0 1 0 0-144 72 72 0 1 0 0 144zM128 160a32 32 0 1 1 0 64 32 32 0 1 1 0-64zm128 48a32 32 0 1 1 64 0 32 32 0 1 1 -64 0zM176 392c-13.3 0-24-10.7-24-24s10.7-24 24-24l.2 0c8.5 0 31 0 56.1 6.8 25.3 6.9 55.3 21.4 75.7 51.8 7.4 11 4.4 25.9-6.7 33.3s-25.9 4.4-33.3-6.7c-11.7-17.5-29.7-27.1-48.3-32.2-18.7-5.1-36-5.2-43.7-5.2z"/></svg>