<svg xmlns="http://www.w3.org/2000/svg" viewBox="0 0 512 512"><path fill="currentColor" d="M512 48c0-44.2-114.6-80-256-80S0 3.8 0 48 114.6 128 256 128 512 92.2 512 48zm-64 0c0 17.7-86 32-192 32S64 65.7 64 48 150 16 256 16 448 30.3 448 48zm3.3 102.4c-12.1 3.8-25.2 7.2-39 10.2 22.4 31.4 35.6 69.9 35.6 111.4 0 106-86 192-192 192S64 378 64 272c0-41.5 13.2-80 35.6-111.4-13.8-3-26.8-6.4-39-10.2-3.3-1-6.5-2.1-9.7-3.2-22.2 36.4-35 79.1-35 124.8 0 132.5 107.5 240 240 240S496 404.5 496 272c0-45.7-12.8-88.4-35-124.8-3.2 1.1-6.4 2.2-9.7 3.2zm-308 184.3c-9.6 9.2-9.9 24.4-.7 33.9 22.1 23 60 47.4 113.3 47.4s91.2-24.4 113.3-47.4c9.2-9.6 8.9-24.8-.7-33.9s-24.8-8.9-33.9 .7C319.7 351 293.6 368 256 368s-63.7-17-78.7-32.6c-9.2-9.6-24.4-9.9-33.9-.7zM148 256c0-15.5 12.5-28 28-28s28 12.5 28 28l0 8c0 11 9 20 20 20s20-9 20-20l0-8c0-37.6-30.4-68-68-68s-68 30.4-68 68l0 8c0 11 9 20 20 20s20-9 20-20l0-8zm188-28c15.5 0 28 12.5 28 28l0 8c0 11 9 20 20 20s20-9 20-20l0-8c0-37.6-30.4-68-68-68s-68 30.4-68 68l0 8c0 11 9 20 20 20s20-9 20-20l0-8c0-15.5 12.5-28 28-28z"/></svg>