<svg xmlns="http://www.w3.org/2000/svg" viewBox="0 0 576 512"><path fill="currentColor" d="M496 256c0 114.9-93.1 208-208 208S80 370.9 80 256c0-13.7 1.3-27.1 3.8-40l20.5 0c3.8 46.4 40.7 83.5 87 87.6-9.6 7.9-15.3 19.7-15.3 32.4 0 15.9 9 30.4 23.1 37.5L179.5 398c-5.5 6.9-4.4 17 2.5 22.5s17 4.4 22.5-2.5l23.9-29.9 7.3 3.6-10.5 26.3c-3.3 8.2 .7 17.5 8.9 20.8s17.5-.7 20.8-8.9l10-24.9c2.4 .7 4.8 1.3 7.2 1.8l0 25.2c0 8.8 7.2 16 16 16s16-7.2 16-16l0-25.2c2.4-.5 4.8-1.1 7.2-1.8l10 24.9c3.3 8.2 12.6 12.2 20.8 8.9s12.2-12.6 8.9-20.8l-10.5-26.3 7.3-3.6 23.9 29.9c5.5 6.9 15.6 8 22.5 2.5s8-15.6 2.5-22.5l-19.6-24.5c14.2-7.1 23.1-21.6 23.1-37.5 0-12.7-5.7-24.5-15.3-32.4 46.3-4.2 83.2-41.2 87-87.6l20.5 0c2.5 12.9 3.8 26.3 3.8 40zM250 229.5l-21.4 35.7c-1.1 .6-1.9 1-2.6 1.3-7.9 3.5-16.8 5.5-26.1 5.5-35.3 0-64-28.7-64-64s28.7-64 64-64 64 28.7 64 64c0 2.5-.1 4.9-.4 7.3-5.4 3.6-10.1 8.4-13.5 14.1zM312 208c0-35.3 28.7-64 64-64s64 28.7 64 64-28.7 64-64 64c-9.3 0-18.1-2-26.1-5.5-.6-.3-1.5-.7-2.6-1.3L326 229.5c-3.5-5.8-8.1-10.6-13.5-14.1-.3-2.4-.4-4.9-.4-7.3zm164.5-40l-13.2 0c-15.2-33-48.6-56-87.3-56-39.4 0-73.2 23.7-88 57.6-14.8-33.9-48.6-57.6-88-57.6-38.7 0-72.1 23-87.3 56l-13.2 0C132.6 97.1 204.6 48 288 48S443.4 97.1 476.5 168zm52 0C492.6 70 398.5 0 288 0S83.4 70 47.5 168c-13 .3-23.5 10.9-23.5 24 0 8.7 4.7 16.4 11.7 20.6-2.4 14.1-3.7 28.6-3.7 43.4 0 141.4 114.6 256 256 256S544 397.4 544 256c0-14.8-1.3-29.3-3.7-43.4 7-4.2 11.7-11.8 11.7-20.6 0-13.1-10.5-23.7-23.5-24zM288 240c4.3 0 8.3 2.3 10.5 6l39.8 66.3 2.4 4 21.9 10.9c3.4 1.7 5.5 5.1 5.5 8.8s-2.1 7.2-5.5 8.8l-53.1 26.5c-13.5 6.8-29.4 6.8-42.9 0l-53.1-26.5c-3.4-1.7-5.5-5.1-5.5-8.8s2.1-7.2 5.5-8.8c14-7 21.3-10.7 21.9-10.9l2.4-4 39.8-66.3c2.2-3.7 6.2-6 10.5-6zm-64-24a24 24 0 1 0 -48 0 24 24 0 1 0 48 0zm152 24a24 24 0 1 0 0-48 24 24 0 1 0 0 48z"/></svg>