<svg xmlns="http://www.w3.org/2000/svg" viewBox="0 0 512 512"><path fill="currentColor" d="M464 256c0 59-24.6 112.3-64 150.1 0 .6 0 1.3 0 1.9l0 40c0 7.7-1.2 15-3.4 22 69.5-45.8 115.4-124.5 115.4-214 0-141.4-114.6-256-256-256S0 114.6 0 256c0 101.6 59.2 189.3 144.9 230.7-.6-4.8-.9-9.7-.9-14.7l0-16c0-8 .8-15.7 2.3-23.3-59-36.7-98.3-102.1-98.3-176.7 0-114.9 93.1-208 208-208s208 93.1 208 208zM208 160a32 32 0 1 0 -64 0 32 32 0 1 0 64 0zm128 32a32 32 0 1 0 0-64 32 32 0 1 0 0 64zM131.9 252.6c-10.7 7.8-13.1 22.8-5.3 33.5 16.6 22.8 39.2 41.1 65.4 52.6l0-42.7c0-3.9 .3-7.7 .9-11.4-10.6-7.3-19.9-16.3-27.5-26.7-7.8-10.7-22.8-13.1-33.5-5.3zm204.1 78c19.4-11.2 36.3-26.4 49.4-44.5 7.8-10.7 5.4-25.7-5.3-33.5s-25.7-5.4-33.5 5.3c-4.2 5.7-8.9 11.1-14.1 15.9 2.3 7 3.5 14.5 3.5 22.2l0 34.6zM264 432l40 0 0 8c0 13.3 10.7 24 24 24s24-10.7 24-24l0-32c0-13.3-10.7-24-24-24l-40 0 0-88c0-13.3-10.7-24-24-24s-24 10.7-24 24l0 92.1c-28 9.9-48 36.6-48 67.9l0 16c0 39.8 32.2 72 72 72l64 0c13.3 0 24-10.7 24-24s-10.7-24-24-24l-64 0c-13.3 0-24-10.7-24-24l0-16c0-13.3 10.7-24 24-24z"/></svg>