<svg xmlns="http://www.w3.org/2000/svg" viewBox="0 0 640 512"><path fill="currentColor" d="M230.7-38.6c-12.5-12.5-32.8-12.5-45.3 0L43.4 103.4c-31.2 31.2-31.2 81.9 0 113.1l4.1 4.1c31.2 31.2 81.9 31.2 113.1 0l54.1-54.1c12.5-12.5 12.5-32.8 0-45.3s-32.8-12.5-45.3 0l-41.1 41.1-26.2-27.3 128.5-128.5c12.5-12.5 12.5-32.8 0-45.3zM98.6 292c17.5 124.3 124.3 220 253.5 220 141.4 0 256-114.6 256-256S493.5 0 352.1 0c-23.6 0-46.4 3.2-68 9.1-3.8 11.5-10.3 22.3-19.4 31.4L231.1 74.1c3.3 1.8 6.4 3.9 9.5 6.2 32.2-20.5 70.5-32.4 111.5-32.4 114.9 0 208 93.1 208 208S467 464 352.1 464c-105 0-191.8-77.8-206-178.9-15.3 5.3-31.5 7.6-47.5 6.9zm140.9 26.7c-9.6 9.2-9.9 24.4-.7 33.9 22.1 23 60 47.4 113.3 47.4s91.2-24.4 113.3-47.4c9.2-9.6 8.9-24.8-.7-33.9s-24.8-8.9-33.9 .7c-15 15.7-41.1 32.6-78.7 32.6s-63.7-17-78.7-32.6c-9.2-9.6-24.4-9.9-33.9-.7zM272.1 240a32 32 0 1 0 0-64 32 32 0 1 0 0 64zm192-32a32 32 0 1 0 -64 0 32 32 0 1 0 64 0z"/></svg>