<svg xmlns="http://www.w3.org/2000/svg" viewBox="0 0 512 512"><path fill="currentColor" d="M64 64c0 35.3 28.7 64 64 64l16 0c26.5 0 48 21.5 48 48l64 16 64-16c0-26.5 21.5-48 48-48l16 0c35.3 0 64-28.7 64-64S419.3 0 384 0c-5.5 0-10.9 .7-16 2 0-.7 0-1.3 0-2 0-35.3-28.7-64-64-64-19.1 0-36.3 8.4-48 21.7-11.7-13.3-28.9-21.7-48-21.7-35.3 0-64 28.7-64 64 0 .7 0 1.4 0 2-5.1-1.3-10.5-2-16-2-35.3 0-64 28.7-64 64zM2.6 219.5C.9 231.4 0 243.6 0 256 0 260.5 .1 264.9 .3 269.4 7.3 404.5 119.1 512 256 512S504.7 404.5 511.7 269.4c.2-4.4 .3-8.9 .3-13.4 0-12.4-.9-24.6-2.6-36.5l-46.5 15.5-4.8 1.6c-6.6 2.2-13.7 2.2-20.2 0l-75.8-25.3c-6.6-2.2-13.7-2.2-20.2 0l-75.8 25.3c-6.6 2.2-13.7 2.2-20.2 0l-75.8-25.3c-6.6-2.2-13.7-2.2-20.2 0L74.1 236.6c-6.6 2.2-13.7 2.2-20.2 0L49 235 2.6 219.5zM50 285c13.1 2.3 26.6 1.4 39.3-2.9l70.7-23.6 70.7 23.6c16.4 5.5 34.2 5.5 50.6 0l70.7-23.6 70.7 23.6c12.7 4.2 26.2 5.2 39.3 2.9-14.1 101.1-101 179-206 179S64.1 386.2 50 285zm158 51a32 32 0 1 0 -64 0 32 32 0 1 0 64 0zm128 32a32 32 0 1 0 0-64 32 32 0 1 0 0 64zM208 416l0 5.3c0 5.9 4.8 10.7 10.7 10.7l74.7 0c5.9 0 10.7-4.8 10.7-10.7l0-5.3c0-26.5-21.5-48-48-48s-48 21.5-48 48z"/></svg>