<svg xmlns="http://www.w3.org/2000/svg" viewBox="0 0 512 512"><path fill="currentColor" d="M98.2 31.9c-8.8-10.7-18.5-20.9-29-30-3-2.6-7.4-2.6-10.4 0-10.5 9.1-20.1 19.3-29 30-14.7 17.8-29.8 40.1-29.8 64.1 0 36.4 27.6 64 64 64s64-27.6 64-64c0-24-15.2-46.3-29.8-64.1zM464 256c0 114.9-93.1 208-208 208S48 370.9 48 256c0-16.7 2-32.9 5.7-48.4-16.7-1.5-32.3-6.4-46-14.2-5 20-7.7 41-7.7 62.6 0 141.4 114.6 256 256 256S512 397.4 512 256 397.4 0 256 0c-37.4 0-72.9 8-104.9 22.4 8 12 16 26.7 20.7 43.4 25.8-11.4 54.3-17.8 84.3-17.8 114.9 0 208 93.1 208 208zM256 368c24.1 0 45.4 11.8 58.5 30 7.7 10.8 22.7 13.2 33.5 5.5s13.2-22.7 5.5-33.5c-21.7-30.2-57.3-50-97.5-50s-75.7 19.8-97.5 50c-7.7 10.8-5.3 25.8 5.5 33.5s25.8 5.3 33.5-5.5c13.1-18.2 34.4-30 58.5-30zM120 240c-13.3 0-24 10.7-24 24s10.7 24 24 24l80 0c13.3 0 24-10.7 24-24s-10.7-24-24-24l-80 0zm168 24c0 13.3 10.7 24 24 24l80 0c13.3 0 24-10.7 24-24s-10.7-24-24-24l-80 0c-13.3 0-24 10.7-24 24z"/></svg>