<svg xmlns="http://www.w3.org/2000/svg" viewBox="0 0 640 512"><path fill="currentColor" d="M528 256c0 114.9-93.1 208-208 208-56.8 0-108.2-22.7-145.8-59.6-3.1 17.4-10 33.3-19.9 46.8 44.7 38 102.5 60.8 165.7 60.8 141.4 0 256-114.6 256-256S461.4 0 320 0c-136 0-247.2 106.1-255.5 240 12.8 .1 25.6 4.6 36 13.5l.3 .3c3.6 3.1 7.4 6.6 11.4 10.3-.1-2.7-.2-5.4-.2-8 0-114.9 93.1-208 208-208s208 93.1 208 208zM320 320c-44.2 0-80 35.8-80 80 0 8.8 7.2 16 16 16l128 0c8.8 0 16-7.2 16-16 0-44.2-35.8-80-80-80zm48-48a32 32 0 1 0 64 0 32 32 0 1 0 -64 0zM240 304a32 32 0 1 0 0-64 32 32 0 1 0 0 64zm22.1-158.1c-7.8-7.8-20.5-7.8-28.3 0l-7.4 7.4c-18.3 18.3-41.8 30.4-67.3 34.6l-2.5 .4c-10.9 1.8-18.3 12.1-16.4 23s12.1 18.3 23 16.4l2.5-.4c33.7-5.6 64.8-21.6 89-45.8l7.4-7.4c7.8-7.8 7.8-20.5 0-28.3zm115.7 28.3l7.4 7.4c24.2 24.2 55.3 40.2 89 45.8l2.5 .4c10.9 1.8 21.2-5.5 23-16.4s-5.5-21.2-16.4-23l-2.5-.4c-25.5-4.2-49-16.4-67.3-34.6l-7.4-7.4c-7.8-7.8-20.5-7.8-28.3 0s-7.8 20.5 0 28.3zM128 384c0-36.9-32.5-71.1-58.8-94.1-3-2.6-7.4-2.6-10.4 0-26.3 23-58.8 57.2-58.8 94.1 0 36.4 27.6 64 64 64s64-27.6 64-64z"/></svg>