<svg xmlns="http://www.w3.org/2000/svg" viewBox="0 0 640 512"><path fill="currentColor" d="M520.4-20.1c-8-7.6-18.6-11.9-29.6-11.9l-4.4 0c-21.2 0-38.4 17.2-38.4 38.4 0 42 53.9 75.4 73.2 86.1 4.3 2.3 9.3 2.3 13.5 0 19.3-10.6 73.2-44 73.2-86.1 0-21.2-17.2-38.4-38.4-38.4l-4.4 0c-11 0-21.7 4.3-29.6 11.9l-7.6 7.3-7.6-7.3zM400.2 12.8C375 4.5 348 0 320 0 178.6 0 64 114.6 64 256 64 297.6 73.9 336.9 91.6 371.7 99.8 369.3 108.5 368 117.2 368l4.4 0c8.9 0 17.5 1.4 25.6 3.9-22.3-33.1-35.2-73-35.2-115.9 0-114.9 93.1-208 208-208 39.3 0 76.1 10.9 107.4 29.9-13.3-16.5-25.5-38.4-27.2-65zm80.9 111.6c29.3 35.9 46.9 81.7 46.9 131.6 0 42.9-13 82.8-35.2 115.9 8.1-2.5 16.7-3.9 25.6-3.9l4.4 0c8.8 0 17.4 1.3 25.6 3.7 17.6-34.7 27.6-74.1 27.6-115.7 0-42.2-10.2-82-28.3-117-16.3 5.5-34.3 4-49.6-4.5-4.3-2.4-10.2-5.8-17-10.1zM320 464c-42.9 0-82.8-13-115.9-35.2 2.5 8.1 3.9 16.7 3.9 25.6 0 10.6-1.7 20.5-4.5 29.6 34.9 17.9 74.5 28 116.5 28s81.6-10.1 116.5-28c-2.8-9.2-4.5-19-4.5-29.6 0-8.9 1.4-17.5 3.9-25.6-33.1 22.3-73 35.2-115.9 35.2zM232 196l16 0c11 0 20 9 20 20s9 20 20 20 20-9 20-20c0-33.1-26.9-60-60-60l-16 0c-33.1 0-60 26.9-60 60 0 11 9 20 20 20s20-9 20-20 9-20 20-20zM195.9 316.6c-10.7 7.8-13.1 22.8-5.3 33.5 29.1 39.9 76.2 65.9 129.4 65.9s100.3-26 129.4-65.9c7.8-10.7 5.4-25.7-5.3-33.5s-25.7-5.4-33.5 5.3c-20.4 28-53.4 46.1-90.6 46.1s-70.2-18.1-90.6-46.1c-7.8-10.7-22.8-13.1-33.5-5.3zM372 216c0-11 9-20 20-20l16 0c11 0 20 9 20 20s9 20 20 20 20-9 20-20c0-33.1-26.9-60-60-60l-16 0c-33.1 0-60 26.9-60 60 0 11 9 20 20 20s20-9 20-20zM72.4 427.9c-8-7.6-18.6-11.9-29.6-11.9l-4.4 0c-21.2 0-38.4 17.2-38.4 38.4 0 42 53.9 75.4 73.2 86.1 4.3 2.3 9.3 2.3 13.5 0 19.3-10.6 73.2-44 73.2-86.1 0-21.2-17.2-38.4-38.4-38.4l-4.4 0c-11 0-21.7 4.3-29.6 11.9l-7.6 7.3-7.6-7.3zM522.8 416l-4.4 0c-21.2 0-38.4 17.2-38.4 38.4 0 42 53.9 75.4 73.2 86.1 4.3 2.3 9.3 2.3 13.5 0 19.3-10.6 73.2-44 73.2-86.1 0-21.2-17.2-38.4-38.4-38.4l-4.4 0c-11 0-21.7 4.3-29.6 11.9l-7.6 7.3-7.6-7.3c-8-7.6-18.6-11.9-29.6-11.9z"/></svg>