<svg xmlns="http://www.w3.org/2000/svg" viewBox="0 0 576 512"><path fill="currentColor" d="M251.1 11.3c-3.1 2-6.7 3.1-10.3 3.4-27 1.7-50.6 18.8-60.5 44-1.4 3.4-3.6 6.4-6.4 8.8-20.8 17.3-29.8 45-23.1 71.2 .9 3.6 .9 7.3 0 10.9-1.6 6.3-2.3 12.7-2.2 19.1 17.4-.6 35 2.7 51.3 9.9-3.1-5-4.1-11.1-2.6-17 2.9-11.4 2.9-23.3 0-34.7-2.1-8.2 .7-16.9 7.2-22.3 9-7.5 16-17.1 20.4-28 3.1-7.9 10.5-13.2 19-13.8 11.7-.7 23-4.4 33-10.7 7.2-4.5 16.3-4.5 23.5 0 9.9 6.3 21.3 10 33 10.7 8.5 .5 15.8 5.9 19 13.8 4.3 10.9 11.3 20.5 20.4 28 6.5 5.4 9.3 14.1 7.2 22.3-2.9 11.4-2.9 23.3 0 34.7 1.5 5.9 .5 12-2.6 17 16.3-7.2 33.9-10.4 51.3-9.9 .2-6.3-.5-12.7-2.2-19.1-.9-3.6-.9-7.3 0-10.9 6.7-26.2-2.3-53.9-23.1-71.2-2.8-2.3-5-5.4-6.4-8.8-10-25.1-33.5-42.3-60.5-44-3.7-.2-7.2-1.4-10.3-3.4-22.8-14.5-52-14.5-74.8 0zm210.8 216c-22.8-14.5-52-14.5-74.8 0-3.1 2-6.7 3.1-10.3 3.4-27 1.7-50.6 18.8-60.5 44-1.4 3.4-3.6 6.4-6.4 8.8-20.8 17.3-29.8 45-23.1 71.2 .9 3.6 .9 7.3 0 10.9-6.7 26.2 2.3 53.9 23.1 71.2 2.8 2.3 5 5.4 6.4 8.8 10 25.1 33.5 42.3 60.5 44 3.7 .2 7.2 1.4 10.3 3.4 22.8 14.5 52 14.5 74.8 0 3.1-2 6.7-3.1 10.3-3.4 27-1.7 50.6-18.8 60.5-44 1.4-3.4 3.6-6.4 6.4-8.8 20.8-17.3 29.8-45 23.1-71.2-.9-3.6-.9-7.3 0-10.9 6.7-26.2-2.3-53.9-23.1-71.2-2.8-2.3-5-5.4-6.4-8.8-10-25.1-33.5-42.3-60.5-44-3.7-.2-7.2-1.4-10.3-3.4zm-49.1 40.6c7.2-4.5 16.3-4.5 23.4 0 9.9 6.3 21.3 10 33 10.7 8.5 .5 15.8 5.9 19 13.8 4.3 10.9 11.3 20.6 20.4 28 6.5 5.4 9.3 14.1 7.2 22.3-2.9 11.4-2.9 23.3 0 34.7 2.1 8.2-.7 16.9-7.2 22.3-9 7.5-16 17.1-20.4 28-3.1 7.9-10.5 13.2-19 13.8-11.7 .7-23 4.4-33 10.7-7.2 4.5-16.3 4.5-23.4 0-9.9-6.3-21.3-10-33-10.7-8.5-.5-15.8-5.9-19-13.8-4.3-10.9-11.3-20.6-20.4-28-6.5-5.4-9.3-14.1-7.2-22.3 2.9-11.4 2.9-23.3 0-34.7-2.1-8.2 .7-16.9 7.2-22.3 9-7.5 16-17.1 20.4-28 3.1-7.9 10.5-13.2 19-13.8 11.7-.7 23-4.4 33-10.7zM136.5 336a24 24 0 1 0 -48 0 24 24 0 1 0 48 0zm8 88a24 24 0 1 0 0-48 24 24 0 1 0 0 48zm256 0a24 24 0 1 0 0-48 24 24 0 1 0 0 48zM200.2 230.6c-3.7-.2-7.2-1.4-10.3-3.4-22.8-14.5-52-14.5-74.8 0-3.1 2-6.7 3.1-10.3 3.4-27 1.7-50.6 18.8-60.5 44-1.4 3.4-3.6 6.4-6.4 8.8-20.8 17.3-29.8 45-23.1 71.2 .9 3.6 .9 7.3 0 10.9-6.7 26.2 2.3 53.9 23.1 71.2 2.8 2.3 5 5.4 6.4 8.8 10 25.1 33.5 42.3 60.5 44 3.7 .2 7.2 1.4 10.3 3.4 22.8 14.5 52 14.5 74.8 0 3.1-2 6.7-3.1 10.3-3.4 24-1.5 45.3-15.2 56.7-35.9-13.3-14-21.9-31.2-25.3-49.4-6.7 6.7-12 14.8-15.5 23.6-3.1 7.9-10.5 13.2-19 13.8-11.7 .7-23 4.4-33 10.7-7.2 4.5-16.3 4.5-23.5 0-9.9-6.3-21.2-10-33-10.7-8.5-.5-15.8-5.9-19-13.8-4.3-10.9-11.3-20.6-20.4-28-6.5-5.4-9.3-14.1-7.2-22.3 2.9-11.4 2.9-23.3 0-34.7-2.1-8.2 .7-16.9 7.2-22.3 9-7.5 16-17.1 20.4-28 3.1-7.9 10.5-13.2 19-13.8 11.7-.7 23-4.4 33-10.7 7.2-4.5 16.3-4.5 23.5 0 9.9 6.3 21.2 10 33 10.7 8.5 .5 15.8 5.9 19 13.8 3.5 8.9 8.8 16.9 15.5 23.6 3.4-18.2 12-35.4 25.3-49.4-11.4-20.7-32.7-34.4-56.7-35.9z"/></svg>