<svg xmlns="http://www.w3.org/2000/svg" viewBox="0 0 512 512"><path fill="currentColor" d="M128.1 0a64 64 0 1 1 0 128 64 64 0 1 1 0-128zm32.5 166.5c-.3 3.1-.5 6.3-.5 9.5 0 11.2 1.9 22 5.5 32l-37.5 0c-16.5 0-30.9 10.9-35.4 26.7l-28.9 101.3 64.4 0 0 16c0 11.1 1.6 21.9 4.6 32l-20.6 0 0 104c0 13.3-10.7 24-24 24s-24-10.7-24-24l0-104-21.6 0c-21.3 0-36.6-20.3-30.8-40.8L46.5 221.5c10.4-36.4 43.7-61.5 81.6-61.5 11.4 0 22.4 2.3 32.5 6.5zM384.1 208l-37.5 0c3.5-10 5.5-20.8 5.5-32 0-3.2-.2-6.4-.5-9.5 10.1-4.2 21.1-6.5 32.5-6.5 37.9 0 71.2 25.1 81.6 61.5l34.8 121.7c5.8 20.4-9.5 40.8-30.8 40.8l-21.6 0 0 104c0 13.3-10.7 24-24 24s-24-10.7-24-24l0-104-20.6 0c3-10.1 4.6-20.9 4.6-32l0-16 64.4 0-28.9-101.3c-4.5-15.8-19-26.7-35.4-26.7zm0-208a64 64 0 1 1 0 128 64 64 0 1 1 0-128zm-128 128a48 48 0 1 1 0 96 48 48 0 1 1 0-96zm32 208c0-17.7-14.3-32-32-32s-32 14.3-32 32l0 16c0 8.8 7.2 16 16 16l32 0c8.8 0 16-7.2 16-16l0-16zm48 16c0 24-13.2 44.9-32.7 55.8 .5 2.7 .7 5.4 .7 8.2l0 64c0 17.7-14.3 32-32 32l-32 0c-17.7 0-32-14.3-32-32l0-64c0-2.8 .2-5.5 .7-8.2-19.5-11-32.7-31.9-32.7-55.8l0-16c0-44.2 35.8-80 80-80s80 35.8 80 80l0 16z"/></svg>