<svg xmlns="http://www.w3.org/2000/svg" viewBox="0 0 448 512"><path fill="currentColor" d="M96 128A64 64 0 1 0 96 0 64 64 0 1 0 96 128zM48 224c0-8.8 7.2-16 16-16l69.5 0c-3.5-10-5.5-20.8-5.5-32 0-5.4 .5-10.8 1.3-16-.4 0-.9 0-1.3 0l-64 0c-35.3 0-64 28.7-64 64l0 64c0 23.7 12.9 44.4 32 55.4L32 488c0 13.3 10.7 24 24 24s24-10.7 24-24l0-136 16 0 0-16c0-11 1.4-21.8 4-32l-36 0c-8.8 0-16-7.2-16-16l0-64zm336-16c8.8 0 16 7.2 16 16l0 64c0 8.8-7.2 16-16 16l-36 0c2.6 10.2 4 21 4 32l0 16 16 0 0 136c0 13.3 10.7 24 24 24s24-10.7 24-24l0-144.6c19.1-11.1 32-31.7 32-55.4l0-64c0-35.3-28.7-64-64-64l-64 0c-.4 0-.9 0-1.3 0 .9 5.2 1.3 10.5 1.3 16 0 11.2-1.9 22-5.5 32l69.5 0zm-32-80a64 64 0 1 0 0-128 64 64 0 1 0 0 128zM224 224a48 48 0 1 0 0-96 48 48 0 1 0 0 96zm32 112l0 16c0 8.8-7.2 16-16 16l-32 0c-8.8 0-16-7.2-16-16l0-16c0-17.7 14.3-32 32-32s32 14.3 32 32zm48 16l0-16c0-44.2-35.8-80-80-80s-80 35.8-80 80l0 16c0 24 13.2 44.9 32.7 55.8-.5 2.7-.7 5.4-.7 8.2l0 64c0 17.7 14.3 32 32 32l32 0c17.7 0 32-14.3 32-32l0-64c0-2.8-.2-5.5-.7-8.2 19.5-11 32.7-31.9 32.7-55.8z"/></svg>