<svg xmlns="http://www.w3.org/2000/svg" viewBox="0 0 512 512"><path fill="currentColor" d="M176 168c0-58.1 41.2-106.5 96-117.6l0 109.8c0 7.8 3.8 15.1 10.1 19.6s14.5 5.6 21.9 3c12.5-4.4 25.9-6.8 40-6.8 58.1 0 106.5 41.2 117.6 96l-109.8 0c-7.8 0-15.1 3.8-19.6 10.1s-5.6 14.5-3 21.9c4.4 12.5 6.8 25.9 6.8 40 0 58.1-41.2 106.5-96 117.6l0-109.8c0-7.8-3.8-15.1-10.1-19.6s-14.5-5.6-21.9-3c-12.5 4.4-25.9 6.8-40 6.8-58.1 0-106.5-41.2-117.6-96l109.8 0c7.8 0 15.1-3.8 19.6-10.1s5.6-14.5 3-21.9c-4.4-12.5-6.8-25.9-6.8-40zM296 0c-92.8 0-168 75.2-168 168 0 8.1 .6 16.2 1.7 24L24 192c-13.3 0-24 10.7-24 24 0 92.8 75.2 168 168 168 8.1 0 16.2-.6 24-1.7L192 488c0 13.3 10.7 24 24 24 92.8 0 168-75.2 168-168 0-8.1-.6-16.2-1.7-24L488 320c13.3 0 24-10.7 24-24 0-92.8-75.2-168-168-168-8.1 0-16.2 .6-24 1.7L320 24c0-13.3-10.7-24-24-24zM256 288a32 32 0 1 0 0-64 32 32 0 1 0 0 64z"/></svg>