<svg xmlns="http://www.w3.org/2000/svg" viewBox="0 0 512 512"><path fill="currentColor" d="M224 32c13.3 0 24 10.7 24 24l0 16 112 0c13.3 0 24 10.7 24 24s-10.7 24-24 24l-112 0 0 40 26.7 0c14.9 0 29.1 5.9 39.6 16.4l15.6 15.6 30.1 0c83.9 0 152 68.1 152 152l0 16c0 30.9-25.1 56-56 56l-48 0c-30.9 0-56-25.1-56-56 0-4.4-3.6-8-8-8l-20.1 0c-23.4 29.2-59.5 48-99.9 48s-76.5-18.8-99.9-48L24 352c-13.3 0-24-10.7-24-24s10.7-24 24-24l112.3 0c8.2 0 15.8 4.2 20.2 11.1 14.3 22.3 39.1 36.9 67.4 36.9s53.2-14.7 67.4-36.9c4.4-6.9 12-11.1 20.2-11.1l32.3 0c30.9 0 56 25.1 56 56 0 4.4 3.6 8 8 8l48 0c4.4 0 8-3.6 8-8l0-16c0-57.4-46.6-104-104-104l-40 0c-6.4 0-12.5-2.5-17-7l-22.6-22.6c-1.5-1.5-3.5-2.3-5.7-2.3l-93.5 0c-2.1 0-4.2 .8-5.7 2.3L153 233c-4.5 4.5-10.6 7-17 7L24 240c-13.3 0-24-10.7-24-24s10.7-24 24-24l102.1 0 15.6-15.6c10.5-10.5 24.7-16.4 39.6-16.4l18.7 0 0-40-112 0c-13.3 0-24-10.7-24-24S74.7 72 88 72l112 0 0-16c0-13.3 10.7-24 24-24z"/></svg>