<svg xmlns="http://www.w3.org/2000/svg" viewBox="0 0 512 512"><path fill="currentColor" d="M160 64c0-8.8 7.2-16 16-16l159.4 0c4.2 0 8.3 1.7 11.3 4.7l48.6 48.6c3 3 4.7 7.1 4.7 11.3l0 31.4 48 0 0-31.4c0-17-6.7-33.3-18.7-45.3L380.7 18.7C368.7 6.7 352.4 0 335.4 0L176 0c-35.3 0-64 28.7-64 64l0 64-72 0c-22.1 0-40 17.9-40 40L0 440c0 22.1 17.9 40 40 40l432 0c22.1 0 40-17.9 40-40l0-208c0-22.1-17.9-40-40-40l-312 0 0-128zM112 176l0 256-64 0 0-256 64 0zm48 256l0-192 304 0 0 192-304 0zm72-120a24 24 0 1 0 0-48 24 24 0 1 0 0 48zm24 72a24 24 0 1 0 -48 0 24 24 0 1 0 48 0zm64-72a24 24 0 1 0 0-48 24 24 0 1 0 0 48zm24 72a24 24 0 1 0 -48 0 24 24 0 1 0 48 0zm64-72a24 24 0 1 0 0-48 24 24 0 1 0 0 48zm24 72a24 24 0 1 0 -48 0 24 24 0 1 0 48 0z"/></svg>