<svg xmlns="http://www.w3.org/2000/svg" viewBox="0 0 512 512"><path fill="currentColor" d="M501.9 10.1c-7-7-16.7-10.8-26.6-10-83.7 6.9-246.7 40.4-337.9 131.5l-7.3 7.5C57.3 217.3 57.2 304 71.3 356.4l2.4 7.3c3.5 9.3 8.6 17.9 14.7 25.9L7 471c-9.4 9.4-9.4 24.6 0 33.9s24.6 9.4 33.9 0l81.3-81.3c10.1 7.6 21.1 13.7 33.3 17l10.6 2.5c53 11.3 133.6 6.8 206.7-61.3l7.5-7.3c85.4-85.4 120.2-234.1 129.9-321.3l1.6-16.6c.8-9.9-3-19.6-10-26.6zM156.8 389.2L194 352 334.3 352c-57.8 50.3-118.7 52.8-158.1 44.3l-8.1-2c-3.5-.9-7.2-2.6-11.3-5.2zm220-85.2l-134.8 0 48-48 114.7 0c-8.4 17-17.7 33.2-27.9 48zm48.4-96l-87.2 0 7.9-7.9c9.4-9.4 9.4-24.6 0-33.9s-24.6-9.4-33.9 0L122.8 355.3c-1.8-2.9-3.2-5.6-4.1-8.2l-1-3.1c-11.2-41.4-11.7-113 53.7-178.3 38.1-38.1 93.7-66.3 152.8-85.7 50.6-16.7 100.7-26 138.2-30.3-4.3 37.6-13.6 87.7-30.2 138.3-2.2 6.8-4.6 13.5-7 20.1z"/></svg>