<svg xmlns="http://www.w3.org/2000/svg" viewBox="0 0 512 512"><path fill="currentColor" d="M48 432l48 0 0-301.6-24-26.7-24 26.7 0 301.6zM8.2 102.9L60.1 45.2c6.4-7.1 17.4-7.1 23.8 0l51.9 57.7c5.3 5.9 8.2 13.5 8.2 21.4l0 37.1 40 0 0-37.1c0-7.9 2.9-15.5 8.2-21.4l51.9-57.7c6.4-7.1 17.4-7.1 23.8 0l51.9 57.7c5.3 5.9 8.2 13.5 8.2 21.4l0 37.1 40 0 0-37.1c0-7.9 2.9-15.5 8.2-21.4l51.9-57.7c6.4-7.1 17.4-7.1 23.8 0l51.9 57.7c5.3 5.9 8.2 13.5 8.2 21.4L512 448c0 17.7-14.3 32-32 32l-80 0c-17.7 0-32-14.3-32-32l0-48-40 0 0 48c0 17.7-14.3 32-32 32l-80 0c-17.7 0-32-14.3-32-32l0-48-40 0 0 48c0 17.7-14.3 32-32 32l-80 0c-17.7 0-32-14.3-32-32L0 124.3c0-7.9 2.9-15.5 8.2-21.4zM368 352l0-142.6-40 0 0 142.6 40 0zM144 209.4l0 142.6 40 0 0-142.6-40 0zm88-79l0 301.6 48 0 0-301.6-24-26.7-24 26.7zM416 432l48 0 0-301.6-24-26.7-24 26.7 0 301.6z"/></svg>