<svg xmlns="http://www.w3.org/2000/svg" viewBox="0 0 640 512"><path fill="currentColor" d="M224 32c0-17.7 14.3-32 32-32L384 0c17.7 0 32 14.3 32 32l0 32 48 0c44.2 0 80 35.8 80 80l0 128-.1 0c.1 .7 .1 1.3 .1 2 0 30.2-7.6 59.8-22 86.3l-12.7 23.3-.6 1c-14.9-7.6-30.8-12.5-46.9-15 1.9-3 3.6-6 5.3-9.1l12.7-23.3c5.8-10.5 10-21.8 12.7-33.4l-345.1 0c2.7 11.6 7 22.8 12.7 33.4l12.7 23.3c1.7 3.1 3.5 6.1 5.3 9.1-16.1 2.4-32 7.4-46.9 15l-.6-1-12.7-23.3c-14.4-26.5-22-56.2-22-86.3 0-.7 0-1.4 .1-2l-.1 0 0-128c0-44.2 35.8-80 80-80l48 0 0-32zM144 256l352 0 0-112c0-17.7-14.3-32-32-32l-288 0c-17.7 0-32 14.3-32 32l0 112zM403.4 476.1C379.1 494.3 351.1 512 320 512s-59.1-17.7-83.4-35.9c-21.3-16.1-49.9-16.1-71.2 0-23.8 17.9-54.1 35.5-88.1 35.3-20.4-.1-40.7-6.7-59.8-21.1-10.6-8-12.7-23-4.7-33.6s23-12.7 33.6-4.7c11.3 8.5 21.6 11.4 31.2 11.5 17.6 .1 37.3-9.4 58.9-25.7 38.4-29 90.5-29 129 0 24 18.1 40.7 26.3 54.5 26.3s30.5-8.2 54.5-26.3c38.4-29 90.5-29 129 0 16.9 12.7 32.9 21.5 47.8 24.6 13.7 2.8 27.4 .9 42.3-10.3 10.6-8 25.6-5.9 33.6 4.7s5.9 25.6-4.7 33.6c-26.4 19.9-54.2 24.4-80.7 19.1-25.3-5.1-48.1-18.9-67.2-33.3-21.3-16.1-49.9-16.1-71.2 0z"/></svg>