<svg xmlns="http://www.w3.org/2000/svg" viewBox="0 0 512 512"><path fill="currentColor" d="M303.9 45.3c24.3 5.5 47.1 15.1 67.5 28.1 8-5.9 17.9-9.4 28.6-9.4 26.5 0 48 21.5 48 48 0 10.7-3.5 20.6-9.4 28.5 13 20.4 22.6 43.2 28.1 67.5 25.3 1.4 45.3 22.3 45.3 47.9s-20.1 46.5-45.3 47.9c-5.5 24.3-15.1 47.1-28.1 67.5 5.9 8 9.4 17.9 9.4 28.6 0 26.5-21.5 48-48 48-3.3 0-6.5-.3-9.5-.9L369 380.3c28.2-25.6 47.6-60.8 53.3-100.3L349 280c2-7.7 3-15.7 3-24s-1-16.3-3-24l73.3 0c-3.8-26.7-13.9-51.3-28.7-72.4-2.1-.3-4.1-.7-6-1.2l-48.9 48.9c-8.3-14-20-25.7-33.9-33.9l48.9-48.9c-.5-2-.9-4-1.2-6-21.1-14.8-45.8-24.9-72.4-28.7l0 73.3c-7.7-2-15.7-3-24-3s-16.3 1.1-24 3l0-73.3c-26.7 3.8-51.3 13.9-72.4 28.7-.3 2.1-.7 4.1-1.2 6l48.9 48.9c-14 8.3-25.7 20-33.9 33.9l-48.9-48.9c-2 .5-4 .9-6 1.2-14.8 21.1-24.9 45.7-28.7 72.4l73.3 0c-2 7.7-3 15.7-3 24s1.1 16.3 3 24l-73.3 0c5.7 39.6 25.1 74.7 53.3 100.3l-21.5 66.7c-3.1 .6-6.3 .9-9.5 .9-26.5 0-48-21.5-48-48 0-10.7 3.5-20.6 9.4-28.6-13-20.4-22.6-43.2-28.1-67.5-25.3-1.4-45.3-22.3-45.3-47.9s20.1-46.5 45.3-47.9c5.5-24.3 15.1-47.1 28.1-67.5-5.9-8-9.4-17.9-9.4-28.5 0-26.5 21.5-48 48-48 10.7 0 20.6 3.5 28.5 9.4 20.4-13 43.2-22.6 67.5-28.1 1.4-25.3 22.3-45.3 47.9-45.3s46.5 20.1 47.9 45.3zM230.8 420.9l-13.9 43.1 78.2 0-13.9-43.1-1.6-4.9-23.6-73.6-23.6 73.6-1.6 4.9zM304 256c0 13.4-5.5 25.5-14.4 34.2 3.5 11 20.6 64 51.1 159.1l10.1 31.3c2.3 7.3 1.1 15.3-3.5 21.5S335.7 512 328 512l-144 0c-7.7 0-14.9-3.7-19.4-9.9s-5.8-14.2-3.5-21.5l0 0c1.9-5.9 18.3-56.8 49.2-152.9l12.1-37.5c-8.9-8.7-14.4-20.8-14.4-34.2 0-24 17.6-43.9 40.6-47.4 2.4-.4 4.9-.6 7.4-.6s5 .2 7.4 .6c23 3.6 40.6 23.4 40.6 47.4z"/></svg>