<svg xmlns="http://www.w3.org/2000/svg" viewBox="0 0 576 512"><path fill="currentColor" d="M464.5 544a80 80 0 1 1 0-160 80 80 0 1 1 0 160zM428 16.9c21.6-33.4 66.1-43 99.5-21.4 33.4 21.6 43 66.1 21.4 99.5l-222 343.7-5.8 8.3C291.2 487.8 243.5 512 192.6 512l-8.2-.2C102.5 507.6 36.9 442 32.7 360.2l-.2-8.2 0-7.9c0-39.8 32.2-72 72-72l7.4 .4c36.3 3.7 64.6 34.4 64.6 71.6l0 7.9c0 7.7 5.5 14.2 12.8 15.7l3.2 .3c4.8 0 9.2-2.1 12.3-5.7l1.2-1.6 10.8-16.7 211.3-327zM464.5 432a32 32 0 1 0 0 64 32 32 0 1 0 0-64zM246.3 386.7c-11.8 18.2-32 29.3-53.8 29.3l0 0c-35.4 0-64-28.7-64.1-64.1l0-7.9c0-13.3-10.8-24-24-24-12.4 0-22.6 9.4-23.9 21.5l-.1 2.5 0 7.9c0 61.9 50.2 112.1 112.1 112.1 38 0 73.5-19.3 94.1-51.3l148.8-230.5-40.7-25.4-148.5 229.9zM501.5 35.9c-10.4-6.7-24.2-4.3-31.8 5.2l-1.4 2-47.5 73.5 40.7 25.4 47.1-72.9c6.7-10.4 4.3-24.1-5.2-31.7l-2-1.4z"/></svg>