<svg xmlns="http://www.w3.org/2000/svg" viewBox="0 0 384 512"><path fill="currentColor" d="M64 48c-8.8 0-16 7.2-16 16l0 208 288 0 0-64-88 0c-39.8 0-72-32.2-72-72l0-88-112 0zM32 320L0 320 0 64C0 28.7 28.7 0 64 0L197.5 0c17 0 33.3 6.7 45.3 18.7L365.3 141.3c12 12 18.7 28.3 18.7 45.3l0 133.5-352 0zM224 67.9l0 68.1c0 13.3 10.7 24 24 24l68.1 0-92.1-92.1zM0 416l0-64 48 0 0 64-48 0zm0 32l48 0c0 8.8 7.2 16 16 16l0 48c-35.3 0-64-28.7-64-64zm336 0l48 0c0 35.3-28.7 64-64 64l0-48c8.8 0 16-7.2 16-16zm48-32l-48 0 0-64 48 0 0 64zM96 512l0-48 80 0 0 48-80 0zm112 0l0-48 80 0 0 48-80 0z"/></svg>