<svg xmlns="http://www.w3.org/2000/svg" viewBox="0 0 576 512"><path fill="currentColor" d="M208 380c11 0 20 9 20 20l0 128c0 11-9 20-20 20s-20-9-20-20l0-44-24 0 0 44c0 11-9 20-20 20s-20-9-20-20l0-128c0-11 9-20 20-20s20 9 20 20l0 44 24 0 0-44c0-11 9-20 20-20zm112 0c11 0 20 9 20 20s-9 20-20 20l-12 0 0 108c0 11-9 20-20 20s-20-9-20-20l0-108-12 0c-11 0-20-9-20-20s9-20 20-20l64 0zm126.8 9.7c4.6-7.7 13.8-11.4 22.5-9S484 391 484 400l0 128c0 11-9 20-20 20s-20-9-20-20l0-55.8-10.8 18.1c-3.6 6-10.1 9.7-17.2 9.7s-13.5-3.7-17.2-9.7L388 472.2 388 528c0 11-9 20-20 20s-20-9-20-20l0-128c0-9 6-16.9 14.7-19.3s17.9 1.3 22.5 9l30.8 51.4 30.8-51.4zM528 380c11 0 20 9 20 20l0 108 12 0c11 0 20 9 20 20s-9 20-20 20l-32 0c-11 0-20-9-20-20l0-128c0-11 9-20 20-20zM235.8 .3c14.7 1.5 28.4 7.9 38.9 18.4L397.3 141.2c12 12 18.7 28.3 18.7 45.2l0 149.5-48 0 0-128-88 0c-39.8 0-72-32.2-72-72l0-88-112 0c-8.8 0-16 7.2-16 16l0 445.9c-27.6-7.1-48-32.1-48-61.9L32 64C32 28.7 60.7 0 96 0l133.5 0 6.3 .3zM256 136c0 13.3 10.7 24 24 24l68.1 0-92.1-92.1 0 68.1z"/></svg>