<svg xmlns="http://www.w3.org/2000/svg" viewBox="0 0 448 512"><path fill="currentColor" d="M256 48l0 72c0 39.8 32.2 72 72 72l72 0 0 192c0 8.8-7.2 16-16 16l-224 0c-8.8 0-16-7.2-16-16l0-320c0-8.8 7.2-16 16-16l96 0zm48 3.9l92.1 92.1-68.1 0c-13.3 0-24-10.7-24-24l0-68.1zM160 0C124.7 0 96 28.7 96 64l0 320c0 35.3 28.7 64 64 64l224 0c35.3 0 64-28.7 64-64l0-236.1c0-12.7-5.1-24.9-14.1-33.9L334.1 14.1c-9-9-21.2-14.1-33.9-14.1L160 0zM24 96C10.7 96 0 106.7 0 120L0 480c0 35.3 28.7 64 64 64l264 0c13.3 0 24-10.7 24-24s-10.7-24-24-24L64 496c-8.8 0-16-7.2-16-16l0-360c0-13.3-10.7-24-24-24z"/></svg>