<svg xmlns="http://www.w3.org/2000/svg" viewBox="0 0 384 512"><path fill="currentColor" d="M176 48L64 48c-8.8 0-16 7.2-16 16l0 384c0 8.8 7.2 16 16 16l256 0c8.8 0 16-7.2 16-16l0-240-88 0c-39.8 0-72-32.2-72-72l0-88zM316.1 160L224 67.9 224 136c0 13.3 10.7 24 24 24l68.1 0zM0 64C0 28.7 28.7 0 64 0L197.5 0c17 0 33.3 6.7 45.3 18.7L365.3 141.3c12 12 18.7 28.3 18.7 45.3L384 448c0 35.3-28.7 64-64 64L64 512c-35.3 0-64-28.7-64-64L0 64zM145.3 301.9c7-8.8 17.7-13.9 28.9-13.9 16.4 0 30.8 10.7 35.5 26.4l16.1 53.6 54.1 0c13.3 0 24 10.7 24 24s-10.7 24-24 24l-72 0c-10.6 0-19.9-7-23-17.1l-15.2-50.7-47.1 58.8c-8.3 10.4-23.4 12-33.7 3.8S77 387.4 85.3 377l60.1-75.1zM104 80l16 0c13.3 0 24 10.7 24 24s-10.7 24-24 24l-16 0c-13.3 0-24-10.7-24-24s10.7-24 24-24zm0 80l16 0c13.3 0 24 10.7 24 24s-10.7 24-24 24l-16 0c-13.3 0-24-10.7-24-24s10.7-24 24-24z"/></svg>