<svg xmlns="http://www.w3.org/2000/svg" viewBox="0 0 640 512"><path fill="currentColor" d="M240 48L128 48c-8.8 0-16 7.2-16 16l0 384c0 8.8 7.2 16 16 16l80 0 0 48-80 0c-35.3 0-64-28.7-64-64L64 64C64 28.7 92.7 0 128 0L261.5 0c17 0 33.3 6.7 45.3 18.7L429.3 141.3c12 12 18.7 28.3 18.7 45.3l0 149.5-48 0 0-128-88 0c-39.8 0-72-32.2-72-72l0-88zM380.1 160L288 67.9 288 136c0 13.3 10.7 24 24 24l68.1 0zM544 532l0-128c0-11 9-20 20-20s20 9 20 20l0 108 12 0c11 0 20 9 20 20s-9 20-20 20l-32 0c-11 0-20-9-20-20zM421.1 393.7l30.9 51.4 30.9-51.4c4.6-7.7 13.8-11.4 22.5-9S520 395 520 404l0 128c0 11-9 20-20 20s-20-9-20-20l0-55.8-10.9 18.1c-3.6 6-10.1 9.7-17.1 9.7s-13.5-3.7-17.1-9.7L424 476.2 424 532c0 11-9 20-20 20s-20-9-20-20l0-128c0-9 6-16.9 14.7-19.3s17.9 1.3 22.5 9zM296 404c0 6.5 1.9 12.8 5.5 18.2l6.5 9.7 6.5-9.7c3.6-5.4 5.5-11.7 5.5-18.2 0-11 9-20 20-20s20 9 20 20c0 14.4-4.3 28.4-12.2 40.4L332 468 347.8 491.6c8 12 12.2 26 12.2 40.4 0 11-9 20-20 20s-20-9-20-20c0-6.5-1.9-12.8-5.5-18.2l-6.5-9.7-6.5 9.7c-3.6 5.4-5.5 11.7-5.5 18.2 0 11-9 20-20 20s-20-9-20-20c0-14.4 4.3-28.4 12.2-40.4L284 468 268.2 444.4c-8-12-12.2-26-12.2-40.4 0-11 9-20 20-20s20 9 20 20z"/></svg>