<svg xmlns="http://www.w3.org/2000/svg" viewBox="0 0 384 512"><path fill="currentColor" d="M64 48l112 0 0 88c0 39.8 32.2 72 72 72l88 0 0 240c0 8.8-7.2 16-16 16L64 464c-8.8 0-16-7.2-16-16L48 64c0-8.8 7.2-16 16-16zM224 67.9l92.1 92.1-68.1 0c-13.3 0-24-10.7-24-24l0-68.1zM64 0C28.7 0 0 28.7 0 64L0 448c0 35.3 28.7 64 64 64l256 0c35.3 0 64-28.7 64-64l0-261.5c0-17-6.7-33.3-18.7-45.3L242.7 18.7C230.7 6.7 214.5 0 197.5 0L64 0zM182.9 270.9c-9.5-9.5-22.5-14.9-36-14.9l-2.9 0c-26.5 0-48 21.5-48 48 0 53.4 66.9 95.7 89 108.2 4.4 2.5 9.6 2.5 14 0 22.1-12.5 89-54.8 89-108.2 0-26.5-21.5-48-48-48l-2.9 0c-13.5 0-26.5 5.4-36 14.9l-9.1 9.1-9.1-9.1z"/></svg>