<svg xmlns="http://www.w3.org/2000/svg" viewBox="0 0 384 512"><path fill="currentColor" d="M64 48l112 0 0 88c0 39.8 32.2 72 72 72l88 0 0 240c0 8.8-7.2 16-16 16L64 464c-8.8 0-16-7.2-16-16L48 64c0-8.8 7.2-16 16-16zM224 67.9l92.1 92.1-68.1 0c-13.3 0-24-10.7-24-24l0-68.1zM64 0C28.7 0 0 28.7 0 64L0 448c0 35.3 28.7 64 64 64l256 0c35.3 0 64-28.7 64-64l0-261.5c0-17-6.7-33.3-18.7-45.3L242.7 18.7C230.7 6.7 214.5 0 197.5 0L64 0zM262.5 320c0-47.8-38.7-86.5-86.5-86.5s-86.5 38.7-86.5 86.5 38.7 86.5 86.5 86.5c15.2 0 29.4-3.9 41.8-10.7L255 433.1c9.4 9.4 24.6 9.4 33.9 .1s9.4-24.6 .1-33.9l-37.2-37.4c6.9-12.4 10.8-26.7 10.8-41.8zM176 278a42 42 0 1 1 0 84 42 42 0 1 1 0-84z"/></svg>