<svg xmlns="http://www.w3.org/2000/svg" viewBox="0 0 512 512"><path fill="currentColor" d="M240 48L128 48c-8.8 0-16 7.2-16 16l0 240 32 0c8 0 15.5 4 20 10.7l24.4 36.6 45.9-97.5c3.9-8.3 12.2-13.7 21.4-13.8s17.6 5 21.8 13.3l25.4 50.7 25.2 0c13.3 0 24 10.7 24 24s-10.7 24-24 24l-40 0c-9.1 0-17.4-5.1-21.5-13.3l-9.9-19.8-42.9 91.2c-3.7 7.8-11.3 13.1-19.9 13.7s-16.9-3.4-21.7-10.6L131.2 352 24 352c-13.3 0-24-10.7-24-24s10.7-24 24-24l40 0 0-240C64 28.7 92.7 0 128 0L261.5 0c17 0 33.3 6.7 45.3 18.7L429.3 141.3c12 12 18.7 28.3 18.7 45.3L448 448c0 35.3-28.7 64-64 64l-256 0c-35.3 0-64-28.7-64-64l0-48 48 0 0 48c0 8.8 7.2 16 16 16l256 0c8.8 0 16-7.2 16-16l0-240-88 0c-39.8 0-72-32.2-72-72l0-88zM380.1 160L288 67.9 288 136c0 13.3 10.7 24 24 24l68.1 0z"/></svg>