<svg xmlns="http://www.w3.org/2000/svg" viewBox="0 0 576 512"><path fill="currentColor" d="M96 48l112 0 0 88c0 39.8 32.2 72 72 72l136 0 0-21.5c0-17-6.7-33.3-18.7-45.3L274.7 18.7C262.7 6.7 246.5 0 229.5 0L96 0C60.7 0 32 28.7 32 64l0 384c0 35.3 28.7 64 64 64l180 0c-10.5-14.6-19-30.7-25.1-48L96 464c-8.8 0-16-7.2-16-16L80 64c0-8.8 7.2-16 16-16zM256 67.9l92.1 92.1-68.1 0c-13.3 0-24-10.7-24-24l0-68.1zM576 400a144 144 0 1 0 -288 0 144 144 0 1 0 288 0zm-64 0c0 8.8-7.2 16-16 16l-128 0c-8.8 0-16-7.2-16-16s7.2-16 16-16l128 0c8.8 0 16 7.2 16 16z"/></svg>