<svg xmlns="http://www.w3.org/2000/svg" viewBox="0 0 384 512"><path fill="currentColor" d="M176 48L64 48c-8.8 0-16 7.2-16 16l0 208-48 0 0-208C0 28.7 28.7 0 64 0L197.5 0c17 0 33.3 6.7 45.3 18.7L365.3 141.3c12 12 18.7 28.3 18.7 45.3L384 448c0 35.3-28.7 64-64 64l-80 0 0-48 80 0c8.8 0 16-7.2 16-16l0-240-88 0c-39.8 0-72-32.2-72-72l0-88zM316.1 160L224 67.9 224 136c0 13.3 10.7 24 24 24l68.1 0zM48 464l96 0 0-96-96 0 0 96zM0 352c0-17.7 14.3-32 32-32l128 0c17.7 0 32 14.3 32 32l0 128c0 17.7-14.3 32-32 32L32 512c-17.7 0-32-14.3-32-32L0 352z"/></svg>