<svg xmlns="http://www.w3.org/2000/svg" viewBox="0 0 576 512"><path fill="currentColor" d="M176 380c11 0 20 9 20 20l0 128c0 11-9 20-20 20s-20-9-20-20l0-128c0-11 9-20 20-20zm104 0c24.3 0 44 19.7 44 44l0 8c0 11-9 20-20 20s-20-9-20-20l0-8c0-2.2-1.8-4-4-4l-16 0c-2.2 0-4 1.8-4 4l0 80c0 2.2 1.8 4 4 4l16 0c2.2 0 4-1.8 4-4l0-8c0-11 9-20 20-20s20 9 20 20l0 8c0 24.3-19.7 44-44 44l-16 0c-24.3 0-44-19.7-44-44l0-80c0-24.3 19.7-44 44-44l16 0zm152 0c11 0 20 9 20 20l0 128-.3 3.4c-1.3 7.8-7.2 14.2-15.1 16.1-9 2.1-18.3-2.2-22.5-10.5L388 484.7 388 528c0 11-9 20-20 20s-20-9-20-20l0-128 .3-3.4c1.3-7.8 7.2-14.2 15.1-16.1 9-2.1 18.3 2.2 22.5 10.5l26.1 52.2 0-43.3c0-11 9-20 20-20zm120 0c11 0 20 9 20 20s-9 20-20 20l-24 0c-6.6 0-12 5.4-12 12s5.4 12 12 12c28.7 0 52 23.3 52 52s-23.3 52-52 52l-32 0c-11 0-20-9-20-20s9-20 20-20l32 0c6.6 0 12-5.4 12-12s-5.4-12-12-12c-28.7 0-52-23.3-52-52s23.3-52 52-52l24 0zM235.8 .3c14.7 1.5 28.4 7.9 38.9 18.4L397.3 141.2c12 12 18.7 28.3 18.7 45.2l0 149.5-48 0 0-128-88 0c-39.8 0-72-32.2-72-72l0-88-112 0c-8.8 0-16 7.2-16 16l0 384c0 8.8 7.2 16 16 16l16 0 0 48-16 0c-35.3 0-64-28.7-64-64L32 64C32 28.7 60.7 0 96 0l133.5 0 6.3 .3zM256 136c0 13.3 10.7 24 24 24l68.1 0-92.1-92.1 0 68.1z"/></svg>