<svg xmlns="http://www.w3.org/2000/svg" viewBox="0 0 576 512"><path fill="currentColor" d="M280 380c24.3 0 44 19.7 44 44l0 80c0 24.3-19.7 44-44 44l-16 0c-24.3 0-44-19.7-44-44l0-80c0-24.3 19.7-44 44-44l16 0zm120 0c28.7 0 52 23.3 52 52l0 64c0 28.7-23.3 52-52 52l-32 0c-11 0-20-9-20-20l0-128 .4-4c1.9-9.1 9.9-16 19.6-16l32 0zm144 0c11 0 20 9 20 20s-9 20-20 20l-28 0 0 24 28 0c11 0 20 9 20 20s-9 20-20 20l-28 0 0 44c0 11-9 20-20 20s-20-9-20-20l0-128 .4-4c1.9-9.1 9.9-16 19.6-16l48 0zM235.8 .3c14.7 1.5 28.4 7.9 38.9 18.4L397.3 141.2c12 12 18.7 28.3 18.7 45.2l0 149.5-48 0 0-128-88 0c-39.8 0-72-32.2-72-72l0-88-112 0c-8.8 0-16 7.2-16 16l0 384c0 8.8 7.2 16 16 16l80 0 0 48-80 0-6.5-.3C57.2 508.4 32 481.1 32 448L32 64C32 30.9 57.2 3.6 89.5 .3L96 0 229.5 0 235.8 .3zM264 420c-2.2 0-4 1.8-4 4l0 80c0 2.2 1.8 4 4 4l16 0c2.2 0 4-1.8 4-4l0-80c0-2.2-1.8-4-4-4l-16 0zm124 88l12 0c6.6 0 12-5.4 12-12l0-64c0-6.6-5.4-12-12-12l-12 0 0 88zM256 136c0 13.3 10.7 24 24 24l68.1 0-92.1-92.1 0 68.1z"/></svg>