<svg xmlns="http://www.w3.org/2000/svg" viewBox="0 0 576 512"><path fill="currentColor" d="M96 48l112 0 0 88c0 39.8 32.2 72 72 72l99.3 0c10.8-9.5 23.1-17.2 36.7-22.7-.3-16.5-7-32.3-18.7-44.1L274.7 18.7C262.7 6.7 246.5 0 229.5 0L96 0C60.7 0 32 28.7 32 64l0 384c0 35.3 28.7 64 64 64l209.3 0c-.9-5.2-1.3-10.6-1.3-16.1l0-31.9-208 0c-8.8 0-16-7.2-16-16L80 64c0-8.8 7.2-16 16-16zM256 67.9l92.1 92.1-68.1 0c-13.3 0-24-10.7-24-24l0-68.1zM496 304.1l0 47.9-64 0 0-47.9c0-17.7 14.3-32 32-32s32 14.3 32 32zM352 400l0 96c0 26.5 21.5 48 48 48l128 0c26.5 0 48-21.5 48-48l0-96c0-20.9-13.4-38.7-32-45.3l0-50.6c0-44.2-35.8-80-80-80s-80 35.8-80 80l0 50.6c-18.6 6.6-32 24.4-32 45.3z"/></svg>