<svg xmlns="http://www.w3.org/2000/svg" viewBox="0 0 384 512"><path fill="currentColor" d="M197.5 0c17 0 33.2 6.8 45.2 18.8L365.3 141.2c12 12 18.7 28.3 18.7 45.2L384 448c0 35.3-28.7 64-64 64L64 512c-35.3 0-64-28.7-64-64L0 64C0 28.7 28.7 0 64 0L197.5 0zM64 48c-8.8 0-16 7.2-16 16l0 384c0 8.8 7.2 16 16 16l256 0c8.8 0 16-7.2 16-16l0-240-88 0c-39.8 0-72-32.2-72-72l0-88-112 0zM192 376c17.7 0 32 14.3 32 32s-14.3 32-32 32-32-14.3-32-32 14.3-32 32-32zm0-144c18.6 0 33 16.1 31 34.6l-7.1 64.1C214.5 342.8 204.2 352 192 352s-22.5-9.2-23.8-21.3L161 266.6c-2-18.5 12.4-34.6 31-34.6zm32-96c0 13.3 10.7 24 24 24l68.1 0-92.1-92.1 0 68.1z"/></svg>