<svg xmlns="http://www.w3.org/2000/svg" viewBox="0 0 576 512"><path fill="currentColor" d="M272 48L160 48c-8.8 0-16 7.2-16 16l0 176-48 0 0-176c0-35.3 28.7-64 64-64L293.5 0c17 0 33.3 6.7 45.3 18.7L461.3 141.3c12 12 18.7 28.3 18.7 45.3l0 53.5-48 0 0-32-88 0c-39.8 0-72-32.2-72-72l0-88zM96 384l48 0 0 64c0 8.8 7.2 16 16 16l256 0c8.8 0 16-7.2 16-16l0-64 48 0 0 64c0 35.3-28.7 64-64 64l-256 0c-35.3 0-64-28.7-64-64l0-64zM412.1 160L320 67.9 320 136c0 13.3 10.7 24 24 24l68.1 0zM24 288l112 0c13.3 0 24 10.7 24 24s-10.7 24-24 24L24 336c-13.3 0-24-10.7-24-24s10.7-24 24-24zm208 0l112 0c13.3 0 24 10.7 24 24s-10.7 24-24 24l-112 0c-13.3 0-24-10.7-24-24s10.7-24 24-24zm208 0l112 0c13.3 0 24 10.7 24 24s-10.7 24-24 24l-112 0c-13.3 0-24-10.7-24-24s10.7-24 24-24z"/></svg>