<svg xmlns="http://www.w3.org/2000/svg" viewBox="0 0 576 512"><path fill="currentColor" d="M192 48l112 0 0 88c0 39.8 32.2 72 72 72l88 0 0 240c0 8.8-7.2 16-16 16l-192 0 0 48 192 0c35.3 0 64-28.7 64-64l0-261.5c0-17-6.7-33.3-18.7-45.3L370.7 18.7C358.7 6.7 342.5 0 325.5 0L192 0c-35.3 0-64 28.7-64 64l0 80c16.6 0 32.7 2.3 48 6.6L176 64c0-8.8 7.2-16 16-16zM352 67.9l92.1 92.1-68.1 0c-13.3 0-24-10.7-24-24l0-68.1zM256 320c0-70.7-57.3-128-128-128S0 249.3 0 320c0 40.4 18.7 76.5 48 99.9L48 525c0 10.5 8.5 19 19 19 3.3 0 6.5-.9 9.4-2.5L128 512 179.6 541.5c2.9 1.6 6.1 2.5 9.4 2.5 10.5 0 19-8.5 19-19l0-105.1c29.3-23.5 48-59.5 48-99.9zM128 272a48 48 0 1 1 0 96 48 48 0 1 1 0-96z"/></svg>