<svg xmlns="http://www.w3.org/2000/svg" viewBox="0 0 576 512"><path fill="currentColor" d="M208 48L96 48c-8.8 0-16 7.2-16 16l0 384c0 8.8 7.2 16 16 16l169.5 0c8.6 17.2 19.3 33.3 31.8 48L96 512c-35.3 0-64-28.7-64-64L32 64C32 28.7 60.7 0 96 0L229.5 0c17 0 33.3 6.7 45.3 18.7L397.3 141.3c12 12 18.7 28.3 18.7 45.3l0 23.1c-3.1 .6-6.2 1.5-9.3 2.5l-38.7 12.9 0-17-88 0c-39.8 0-72-32.2-72-72l0-88zM348.1 160L256 67.9 256 136c0 13.3 10.7 24 24 24l68.1 0zm97.2 328.5C495.8 464.8 528 414 528 358.2l0-19.6-96-32 0 188.1 13.3-6.3zM421.9 259.5c6.6-2.2 13.7-2.2 20.2 0l112 37.3c13.1 4.4 21.9 16.6 21.9 30.4l0 31.1c0 74.4-43 142.1-110.2 173.7l-18.5 8.7c-4.8 2.2-10 3.4-15.2 3.4s-10.5-1.2-15.2-3.4L398.2 532C331 500.3 288 432.6 288 358.2l0-31.1c0-13.8 8.8-26 21.9-30.4l112-37.3z"/></svg>