<svg xmlns="http://www.w3.org/2000/svg" viewBox="0 0 640 512"><path fill="currentColor" d="M240.1 48l-112 0c-8.8 0-16 7.2-16 16l0 384c0 8.8 7.2 16 16 16l155.8 0-9.6 48-146.2 0c-35.3 0-64-28.7-64-64l0-384c0-35.3 28.7-64 64-64L261.6 0c17 0 33.3 6.7 45.3 18.7L429.3 141.3c12 12 18.7 28.3 18.7 45.3l0 81.5-48 48 0-108-88 0c-39.8 0-72-32.2-72-72l0-88zM380.2 160l-92.1-92.1 0 68.1c0 13.3 10.7 24 24 24l68.1 0zM332.3 466.9c2.5-12.4 8.6-23.8 17.5-32.7l118.9-118.9 80 80-118.9 118.9c-8.9 8.9-20.3 15-32.7 17.5l-59.6 11.9c-.9 .2-1.9 .3-2.9 .3-8 0-14.6-6.5-14.6-14.6 0-1 .1-1.9 .3-2.9l11.9-59.6zm267.8-123l-28.8 28.8-80-80 28.8-28.8c22.1-22.1 57.9-22.1 80 0s22.1 57.9 0 80z"/></svg>