<svg xmlns="http://www.w3.org/2000/svg" viewBox="0 0 576 512"><path fill="currentColor" d="M304 380c11 0 20 9 20 20l0 31.6c0 40.6-14.4 76.1-35.3 107.5-3.7 5.6-10 8.9-16.7 8.9s-12.9-3.3-16.7-8.9l-14.2-21.4c-.4-.6-.7-1.2-1.1-1.8l-1.1 1.8-14.2 21.4c-3.7 5.6-10 8.9-16.7 8.9-5.9 0-11.4-2.6-15.1-6.9l-1.5-2c-21-31.4-35.3-67-35.3-107.5l0-31.6c0-11 9-20 20-20s20 9 20 20l0 31.6c0 20.3 4.8 39.4 13.2 57.9 7-12.7 10.8-26.9 10.8-41.4 0-11 9-20 20-20s20 9 20 20c0 14.5 3.7 28.8 10.7 41.4 8.4-18.4 13.3-37.6 13.3-57.9l0-31.6c0-11 9-20 20-20zm104 0c24.3 0 44 19.7 44 44l0 104c0 11-9 20-20 20s-20-9-20-20l0-28-24 0 0 28c0 11-9 20-20 20s-20-9-20-20l0-104c0-24.3 19.7-44 44-44l16 0zm152 0c11 0 20 9 20 20l0 31.6c0 35.5-10.5 70.3-30.2 99.8l-5.1 7.7c-3.7 5.6-10 8.9-16.7 8.9-5.9 0-11.4-2.6-15.1-6.9l-1.5-2-5.1-7.7c-19.7-29.6-30.2-64.3-30.2-99.8l0-31.6c0-11 9-20 20-20s20 9 20 20l0 31.6c0 19.5 4.2 38.7 12 56.4 7.8-17.7 12-36.9 12-56.4l0-31.6c0-11 9-20 20-20zM235.8 .3c14.7 1.5 28.4 7.9 38.9 18.4L397.3 141.2c12 12 18.7 28.3 18.7 45.2l0 149.5-48 0 0-128-88 0c-39.8 0-72-32.2-72-72l0-88-112 0c-8.8 0-16 7.2-16 16l0 384c0 8.8 7.2 16 16 16l16 0 0 48-16 0-6.5-.3C57.2 508.4 32 481.1 32 448L32 64C32 30.9 57.2 3.6 89.5 .3L96 0 229.5 0 235.8 .3zM392 420c-2.2 0-4 1.8-4 4l0 36 24 0 0-36c0-2.2-1.8-4-4-4l-16 0zM256 136c0 13.3 10.7 24 24 24l68.1 0-92.1-92.1 0 68.1z"/></svg>