<svg xmlns="http://www.w3.org/2000/svg" viewBox="0 0 384 512"><path fill="currentColor" d="M176 48L64 48c-8.8 0-16 7.2-16 16l0 384c0 8.8 7.2 16 16 16l256 0c8.8 0 16-7.2 16-16l0-240-88 0c-39.8 0-72-32.2-72-72l0-88zM316.1 160L224 67.9 224 136c0 13.3 10.7 24 24 24l68.1 0zM0 64C0 28.7 28.7 0 64 0L197.5 0c17 0 33.3 6.7 45.3 18.7L365.3 141.3c12 12 18.7 28.3 18.7 45.3L384 448c0 35.3-28.7 64-64 64L64 512c-35.3 0-64-28.7-64-64L0 64zM176 241.3l0 49.4c-18.6 6.6-32 24.3-32 45.2 0 26.5 21.5 47.9 47.9 47.9 20.8 0 38.6-13.3 45.2-31.9l49.4 0c-7.6 45.4-47.1 79.9-94.6 79.9-53 0-95.9-43-95.9-95.9 0-47.5 34.6-87 80-94.6zM208 320l0-78.7c40.2 6.7 71.9 38.5 78.7 78.7L208 320z"/></svg>