<svg xmlns="http://www.w3.org/2000/svg" viewBox="0 0 576 512"><path fill="currentColor" d="M208 48L96 48c-8.8 0-16 7.2-16 16l0 384c0 8.8 7.2 16 16 16l80 0 0 48-80 0c-35.3 0-64-28.7-64-64L32 64C32 28.7 60.7 0 96 0L229.5 0c17 0 33.3 6.7 45.3 18.7L397.3 141.3c12 12 18.7 28.3 18.7 45.3l0 149.5-48 0 0-128-88 0c-39.8 0-72-32.2-72-72l0-88zM348.1 160L256 67.9 256 136c0 13.3 10.7 24 24 24l68.1 0zM240 380l32 0c28.7 0 52 23.3 52 52l0 64c0 28.7-23.3 52-52 52l-32 0c-11 0-20-9-20-20l0-128c0-11 9-20 20-20zm32 128c6.6 0 12-5.4 12-12l0-64c0-6.6-5.4-12-12-12l-12 0 0 88 12 0zM392 380l16 0c24.3 0 44 19.7 44 44l0 80c0 24.3-19.7 44-44 44l-16 0c-24.3 0-44-19.7-44-44l0-80c0-24.3 19.7-44 44-44zm-4 44l0 80c0 2.2 1.8 4 4 4l16 0c2.2 0 4-1.8 4-4l0-80c0-2.2-1.8-4-4-4l-16 0c-2.2 0-4 1.8-4 4zm88 0c0-24.3 19.7-44 44-44l16 0c24.3 0 44 19.7 44 44l0 8c0 11-9 20-20 20s-20-9-20-20l0-8c0-2.2-1.8-4-4-4l-16 0c-2.2 0-4 1.8-4 4l0 80c0 2.2 1.8 4 4 4l16 0c2.2 0 4-1.8 4-4l0-8c0-11 9-20 20-20s20 9 20 20l0 8c0 24.3-19.7 44-44 44l-16 0c-24.3 0-44-19.7-44-44l0-80z"/></svg>