<svg xmlns="http://www.w3.org/2000/svg" viewBox="0 0 384 512"><path fill="currentColor" d="M64 48l112 0 0 88c0 39.8 32.2 72 72 72l88 0 0 240c0 8.8-7.2 16-16 16L64 464c-8.8 0-16-7.2-16-16L48 64c0-8.8 7.2-16 16-16zM224 67.9l92.1 92.1-68.1 0c-13.3 0-24-10.7-24-24l0-68.1zM64 0C28.7 0 0 28.7 0 64L0 448c0 35.3 28.7 64 64 64l256 0c35.3 0 64-28.7 64-64l0-261.5c0-17-6.7-33.3-18.7-45.3L242.7 18.7C230.7 6.7 214.5 0 197.5 0L64 0zM233 256l-82 0c-3.6-13.8-16.1-24-31-24-17.7 0-32 14.3-32 32 0 14.9 10.2 27.4 24 31l0 82c-13.8 3.6-24 16.1-24 31 0 17.7 14.3 32 32 32 14.9 0 27.4-10.2 31-24l82 0c3.6 13.8 16.1 24 31 24 17.7 0 32-14.3 32-32 0-14.9-10.2-27.4-24-31l0-82c13.8-3.6 24-16.1 24-31 0-17.7-14.3-32-32-32-14.9 0-27.4 10.2-31 24zM152 376l0-80 80 0 0 80-80 0z"/></svg>