<svg xmlns="http://www.w3.org/2000/svg" viewBox="0 0 640 512"><path fill="currentColor" d="M128.1 48l112 0 0 88c0 39.8 32.2 72 72 72l88 0 0 108 48-48 0-81.5c0-17-6.7-33.3-18.7-45.3L306.8 18.7C294.8 6.7 278.5 0 261.6 0L128.1 0c-35.3 0-64 28.7-64 64l0 384c0 35.3 28.7 64 64 64l146.2 0 9.6-48-155.8 0c-8.8 0-16-7.2-16-16l0-384c0-8.8 7.2-16 16-16zM289.9 368l-16.1-53.6c-4.7-15.7-19.1-26.4-35.5-26.4-11.3 0-21.9 5.1-28.9 13.9L149.3 377c-8.3 10.3-6.6 25.5 3.7 33.7s25.5 6.6 33.7-3.8l47.1-58.8 15.2 50.7c3 10.2 12.4 17.1 23 17.1l30.6 0c3.9-5.6 8.2-10.9 13.1-15.8l32.2-32.2-58.1 0zM288.1 67.9l92.1 92.1-68.1 0c-13.3 0-24-10.7-24-24l0-68.1zm44.2 399l-11.9 59.6c-.2 .9-.3 1.9-.3 2.9 0 8 6.5 14.6 14.6 14.6 1 0 1.9-.1 2.9-.3l59.6-11.9c12.4-2.5 23.8-8.6 32.7-17.5l118.9-118.9-80-80-118.9 118.9c-8.9 8.9-15 20.3-17.5 32.7zm267.8-123c22.1-22.1 22.1-57.9 0-80s-57.9-22.1-80 0l-28.8 28.8 80 80 28.8-28.8z"/></svg>