<svg xmlns="http://www.w3.org/2000/svg" viewBox="0 0 576 512"><path fill="currentColor" d="M208 48L96 48c-8.8 0-16 7.2-16 16l0 384c0 8.8 7.2 16 16 16l154.9 0c6.1 17.3 14.6 33.4 25.1 48L96 512c-35.3 0-64-28.7-64-64L32 64C32 28.7 60.7 0 96 0L229.5 0c17 0 33.3 6.7 45.3 18.7L397.3 141.3c12 12 18.7 28.3 18.7 45.3l0 22.1c-16.7 1.4-32.8 4.9-48 10.3l0-10.9-88 0c-39.8 0-72-32.2-72-72l0-88zM348.1 160L256 67.9 256 136c0 13.3 10.7 24 24 24l68.1 0zM432 496c17.8 0 34.5-4.8 48.8-13.3L349.3 351.2c-8.4 14.3-13.3 31-13.3 48.8 0 53 43 96 96 96zM383.2 317.3L514.7 448.8c8.4-14.3 13.3-31 13.3-48.8 0-53-43-96-96-96-17.8 0-34.5 4.8-48.8 13.3zM432 256a144 144 0 1 1 0 288 144 144 0 1 1 0-288z"/></svg>