<svg xmlns="http://www.w3.org/2000/svg" viewBox="0 0 384 512"><path fill="currentColor" d="M176 48L64 48c-8.8 0-16 7.2-16 16l0 384c0 8.8 7.2 16 16 16l256 0c8.8 0 16-7.2 16-16l0-240-88 0c-39.8 0-72-32.2-72-72l0-88zM316.1 160L224 67.9 224 136c0 13.3 10.7 24 24 24l68.1 0zM0 64C0 28.7 28.7 0 64 0L197.5 0c17 0 33.3 6.7 45.3 18.7L365.3 141.3c12 12 18.7 28.3 18.7 45.3L384 448c0 35.3-28.7 64-64 64L64 512c-35.3 0-64-28.7-64-64L0 64zm80 40c0-13.3 10.7-24 24-24l16 0c13.3 0 24 10.7 24 24s-10.7 24-24 24l-16 0c-13.3 0-24-10.7-24-24zm0 80c0-13.3 10.7-24 24-24l16 0c13.3 0 24 10.7 24 24s-10.7 24-24 24l-16 0c-13.3 0-24-10.7-24-24zm116 48c11 0 20 9 20 20l0 4 8 0c11 0 20 9 20 20s-9 20-20 20l-43.4 0c-4.7 0-8.6 3.8-8.6 8.6 0 4.1 2.9 7.6 6.9 8.4l34.1 6.8c22.7 4.5 39 24.5 39 47.6 0 22.5-15.3 41.4-36 46.9l0 5.6c0 11-9 20-20 20s-20-9-20-20l0-4-16 0c-11 0-20-9-20-20s9-20 20-20l43.4 0c4.7 0 8.6-3.8 8.6-8.6 0-4.1-2.9-7.6-6.9-8.4L171 352.2c-22.7-4.5-39-24.5-39-47.6 0-25.3 19.3-46.1 44-48.4l0-4.2c0-11 9-20 20-20z"/></svg>