<svg xmlns="http://www.w3.org/2000/svg" viewBox="0 0 576 512"><path fill="currentColor" d="M208 48L96 48c-8.8 0-16 7.2-16 16l0 384c0 8.8 7.2 16 16 16l48 0 0 48-48 0c-35.3 0-64-28.7-64-64L32 64C32 28.7 60.7 0 96 0L229.5 0c17 0 33.3 6.7 45.3 18.7L397.3 141.3c12 12 18.7 28.3 18.7 45.3l0 149.5-48 0 0-128-88 0c-39.8 0-72-32.2-72-72l0-88zM348.1 160L256 67.9 256 136c0 13.3 10.7 24 24 24l68.1 0zm-123 229.7l30.9 51.4 30.9-51.4c4.6-7.7 13.8-11.4 22.5-9S324 391 324 400l0 128c0 11-9 20-20 20s-20-9-20-20l0-55.8-10.9 18.1c-3.6 6-10.1 9.7-17.1 9.7s-13.5-3.7-17.1-9.7L228 472.2 228 528c0 11-9 20-20 20s-20-9-20-20l0-128c0-9 6-16.9 14.7-19.3s17.9 1.3 22.5 9zM368 380l32 0c33.1 0 60 26.9 60 60s-26.9 60-60 60l-12 0 0 28c0 11-9 20-20 20s-20-9-20-20l0-128c0-11 9-20 20-20zm32 80c11 0 20-9 20-20s-9-20-20-20l-12 0 0 40 12 0zm81.9 18.1c-3.8-3.8-5.9-8.8-5.9-14.1l0-64c0-11 9-20 20-20s20 9 20 20l0 44 24 0 0-44c0-11 9-20 20-20s20 9 20 20l0 128c0 11-9 20-20 20s-20-9-20-20l0-44-44 0c-5.3 0-10.4-2.1-14.1-5.9z"/></svg>