<svg xmlns="http://www.w3.org/2000/svg" viewBox="0 0 576 512"><path fill="currentColor" d="M304 380c11 0 20 9 20 20s-9 20-20 20l-12 0 0 108c0 11-9 20-20 20s-20-9-20-20l0-108-12 0c-11 0-20-9-20-20s9-20 20-20l64 0zm128 0c11 0 20 9 20 20s-9 20-20 20l-44 0 0 24 28 0c11 0 20 9 20 20s-9 20-20 20l-28 0 0 24 44 0c11 0 20 9 20 20s-9 20-20 20l-64 0c-11 0-20-9-20-20l0-128 .4-4c1.9-9.1 9.9-16 19.6-16l64 0zm128 0c11 0 20 9 20 20 0 14.4-4.2 28.4-12.2 40.4L552 464 567.8 487.6c8 12 12.2 26 12.2 40.4 0 11-9 20-20 20s-20-9-20-20c0-6.5-1.9-12.8-5.5-18.2l-6.5-9.7-6.5 9.7c-3.6 5.4-5.5 11.7-5.5 18.2 0 11-9 20-20 20s-20-9-20-20c0-14.4 4.2-28.4 12.2-40.4l15.7-23.6-15.7-23.6c-8-12-12.2-26-12.2-40.4 0-11 9-20 20-20s20 9 20 20c0 6.5 1.9 12.8 5.5 18.2l6.5 9.7 6.5-9.7c3.6-5.4 5.5-11.7 5.5-18.2 0-11 9-20 20-20zM235.8 .3c14.7 1.5 28.4 7.9 38.9 18.4L397.3 141.2c12 12 18.7 28.3 18.7 45.2l0 149.5-48 0 0-128-88 0c-39.8 0-72-32.2-72-72l0-88-112 0c-8.8 0-16 7.2-16 16l0 384c0 8.8 7.2 16 16 16l80 0 0 48-80 0-6.5-.3C57.2 508.4 32 481.1 32 448L32 64C32 30.9 57.2 3.6 89.5 .3L96 0 229.5 0 235.8 .3zM256 136c0 13.3 10.7 24 24 24l68.1 0-92.1-92.1 0 68.1z"/></svg>