<svg xmlns="http://www.w3.org/2000/svg" viewBox="0 0 448 512"><path fill="currentColor" d="M160 48c-8.8 0-16 7.2-16 16l0 320c0 8.8 7.2 16 16 16l224 0c8.8 0 16-7.2 16-16l0-192-72 0c-39.8 0-72-32.2-72-72l0-72-96 0zm144 72c0 13.3 10.7 24 24 24l68.1 0-92.1-92.1 0 68.1zM96 64c0-35.3 28.7-64 64-64L300.1 0c12.7 0 24.9 5.1 33.9 14.1l99.9 99.9c9 9 14.1 21.2 14.1 33.9L448 384c0 35.3-28.7 64-64 64l-224 0c-35.3 0-64-28.7-64-64L96 64zM48 120l0 360c0 8.8 7.2 16 16 16l264 0c13.3 0 24 10.7 24 24s-10.7 24-24 24L64 544c-35.3 0-64-28.7-64-64L0 120c0-13.3 10.7-24 24-24s24 10.7 24 24zM244 224c0-8.8 7.2-16 16-16l24 0c8.8 0 16 7.2 16 16l0 36 36 0c8.8 0 16 7.2 16 16l0 24c0 8.8-7.2 16-16 16l-36 0 0 36c0 8.8-7.2 16-16 16l-24 0c-8.8 0-16-7.2-16-16l0-36-36 0c-8.8 0-16-7.2-16-16l0-24c0-8.8 7.2-16 16-16l36 0 0-36z"/></svg>