<svg xmlns="http://www.w3.org/2000/svg" viewBox="0 0 576 512"><path fill="currentColor" d="M41-24.9c-9.4-9.4-24.6-9.4-33.9 0S-2.3-.3 7 9.1l528 528c9.4 9.4 24.6 9.4 33.9 0s9.4-24.6 0-33.9l-89-89 0-227.6c0-17-6.7-33.3-18.7-45.3L338.7 18.7C326.7 6.7 310.5 0 293.5 0L160 0c-25.5 0-47.4 14.9-57.8 36.4L41-24.9zm103 103L144 64c0-8.8 7.2-16 16-16l112 0 0 88c0 39.8 32.2 72 72 72l88 0 0 158.2-288-288zM144 448l0-234.2-48-48 0 282.2c0 35.3 28.7 64 64 64l256 0c7.8 0 15.3-1.4 22.2-4l-44-44-234.2 0c-8.8 0-16-7.2-16-16zM412.1 160L344 160c-13.3 0-24-10.7-24-24l0-68.1 92.1 92.1z"/></svg>