<svg xmlns="http://www.w3.org/2000/svg" viewBox="0 0 384 512"><path fill="currentColor" d="M203.8 .3c14.6 1.5 28.4 7.9 38.9 18.4L365.3 141.2c12 12 18.7 28.3 18.7 45.2l0 261.5-.3 6.5c-3.1 30.1-27 54.1-57.1 57.1l-6.5 .3-256 0-6.5-.3C25.2 508.4 0 481.1 0 448L0 64C0 30.9 25.2 3.6 57.5 .3L64 0 197.5 0 203.8 .3zM64 48c-8.8 0-16 7.2-16 16l0 384c0 8.8 7.2 16 16 16l256 0c8.8 0 16-7.2 16-16l0-240-88 0c-39.8 0-72-32.2-72-72l0-88-112 0zm88 204c11 0 20 9 20 20s-9 20-20 20l-12 0 0 10.1c0 7.5-2.4 14.8-6.7 20.9l-2 2.5-9 10.5 9 10.5 2 2.5c4.3 6.1 6.7 13.4 6.7 20.9l0 10.1 12 0c11 0 20 9 20 20s-9 20-20 20l-16 0c-19.9 0-36-16.1-36-36l0-12.6-19.2-22.3c-6.4-7.5-6.4-18.6 0-26.1l19.2-22.4 0-12.6c0-19.9 16.1-36 36-36l16 0zm96 0c19.9 0 36 16.1 36 36l0 12.6 19.2 22.4c6.4 7.5 6.4 18.6 0 26.1L284 371.4 284 384c0 19.9-16.1 36-36 36l-16 0c-11 0-20-9-20-20s9-20 20-20l12 0 0-10.1c0-7.5 2.4-14.8 6.7-20.9l2-2.5 9-10.5-9-10.5-2-2.5c-4.3-6.1-6.7-13.4-6.7-20.9l0-10.1-12 0c-11 0-20-9-20-20s9-20 20-20l16 0zM224 136c0 13.3 10.7 24 24 24l68.1 0-92.1-92.1 0 68.1z"/></svg>