<svg xmlns="http://www.w3.org/2000/svg" viewBox="0 0 512 512"><path fill="currentColor" d="M232.4 26.3L162.3 96.4 105 39c-9.4-9.4-24.6-9.4-33.9 0S61.7 63.6 71 73l57.4 57.4-102.1 102.1C9.5 249.3 0 272.1 0 296s9.5 46.7 26.3 63.6L152.4 485.7C169.3 502.5 192.1 512 216 512s46.7-9.5 63.6-26.3L485.7 279.6C502.5 262.7 512 239.9 512 216s-9.5-46.7-26.3-63.6L359.6 26.3C342.7 9.5 319.9 0 296 0s-46.7 9.5-63.6 26.3zM215 217c9.4 9.4 24.6 9.4 33.9 0s9.4-24.6 0-33.9l-52.7-52.7 70.1-70.1C274.2 52.4 284.9 48 296 48s21.8 4.4 29.7 12.3L451.7 186.3c7.9 7.9 12.3 18.5 12.3 29.7s-4.4 21.8-12.3 29.7L409.4 288 48.8 288c1.6-8.1 5.6-15.7 11.5-21.7L162.3 164.3 215 217zM361.4 336L245.7 451.7c-7.9 7.9-18.5 12.3-29.7 12.3s-21.8-4.4-29.7-12.3L70.6 336 361.4 336z"/></svg>