<svg xmlns="http://www.w3.org/2000/svg" viewBox="0 0 576 512"><path fill="currentColor" d="M112 32c0-17.7 14.3-32 32-32l96 0c17.7 0 32 14.3 32 32l80 0c13.3 0 24 10.7 24 24s-10.7 24-24 24l0 32 184 0c22.1 0 40 17.9 40 40l0 132.4c0 19.6-15.9 35.6-35.6 35.6-15.7 0-28.4 12.7-28.4 28.4l0 43.6c0 22.1-17.9 40-40 40l-120 0 0 32c13.3 0 24 10.7 24 24s-10.7 24-24 24L32 512c-13.3 0-24-10.7-24-24s10.7-24 24-24L32 80C18.7 80 8 69.3 8 56S18.7 32 32 32l80 0zM352 368c0 8.8 7.2 16 16 16l32 0c8.8 0 16-7.2 16-16l0-32c0-8.8-7.2-16-16-16l-32 0c-8.8 0-16 7.2-16 16l0 32zm0-160c0 8.8 7.2 16 16 16l32 0c8.8 0 16-7.2 16-16l0-32c0-8.8-7.2-16-16-16l-32 0c-8.8 0-16 7.2-16 16l0 32zM80 80l0 384 224 0 0-384-224 0zm48 72c0-13.3 10.7-24 24-24s24 10.7 24 24l0 240c0 13.3-10.7 24-24 24s-24-10.7-24-24l0-240zm336 24l0 32c0 8.8 7.2 16 16 16l32 0c8.8 0 16-7.2 16-16l0-32c0-8.8-7.2-16-16-16l-32 0c-8.8 0-16 7.2-16 16z"/></svg>