<svg xmlns="http://www.w3.org/2000/svg" viewBox="0 0 448 512"><path fill="currentColor" d="M160 432l128 0 0-352-128 0 0 352zM112 80L64 80c-8.8 0-16 7.2-16 16l0 32 64 0 0-48zm0 96l-64 0 0 56 64 0 0-56zm0 104l-64 0 0 56 64 0 0-56zm0 104l-64 0 0 32c0 8.8 7.2 16 16 16l48 0 0-48zM336 80l0 48 64 0 0-32c0-8.8-7.2-16-16-16l-48 0zm64 96l-64 0 0 56 64 0 0-56zm0 104l-64 0 0 56 64 0 0-56zm0 104l-64 0 0 48 48 0c8.8 0 16-7.2 16-16l0-32zM64 32l320 0c35.3 0 64 28.7 64 64l0 320c0 35.3-28.7 64-64 64L64 480c-35.3 0-64-28.7-64-64L0 96C0 60.7 28.7 32 64 32z"/></svg>