<svg xmlns="http://www.w3.org/2000/svg" viewBox="0 0 512 512"><path fill="currentColor" d="M96-8c0-13.3 10.7-24 24-24l272 0c13.3 0 24 10.7 24 24s-10.7 24-24 24L120 16C106.7 16 96 5.3 96-8zM48 88c0-13.3 10.7-24 24-24l368 0c13.3 0 24 10.7 24 24s-10.7 24-24 24L72 112c-13.3 0-24-10.7-24-24zM96 208l-32 0c-8.8 0-16 7.2-16 16l0 24 48 0 0-40zm0-48l352 0c35.3 0 64 28.7 64 64l0 192c0 35.3-28.7 64-64 64L64 480c-35.3 0-64-28.7-64-64L0 224c0-35.3 28.7-64 64-64l32 0zm48 272l224 0 0-224-224 0 0 224zM416 208l0 40 48 0 0-24c0-8.8-7.2-16-16-16l-32 0zm48 88l-48 0 0 48 48 0 0-48zm0 96l-48 0 0 40 32 0c8.8 0 16-7.2 16-16l0-24zM96 432l0-40-48 0 0 24c0 8.8 7.2 16 16 16l32 0zM48 344l48 0 0-48-48 0 0 48z"/></svg>