<svg xmlns="http://www.w3.org/2000/svg" viewBox="0 0 640 512"><path fill="currentColor" d="M224 432l76 0c-12.7 12.3-22.9 28.6-26.5 48L128 480c-35.3 0-64-28.7-64-64L64 96c0-35.3 28.7-64 64-64l320 0c35.3 0 64 28.7 64 64l0 102.7-48 8.7 0-31.4-64 0 0 44c-28.4 10-48 37-48 67.9l0-207.8-128 0 0 352zM176 80l-48 0c-8.8 0-16 7.2-16 16l0 32 64 0 0-48zm0 96l-64 0 0 56 64 0 0-56zm0 104l-64 0 0 56 64 0 0-56zm0 104l-64 0 0 32c0 8.8 7.2 16 16 16l48 0 0-48zM400 80l0 48 64 0 0-32c0-8.8-7.2-16-16-16l-48 0zM624 255.9l0 208c0 23.3-18 35.4-29.1 40.5-11.9 5.4-25.4 7.5-34.9 7.5s-22.9-2.1-34.9-7.5c-11.1-5-29.1-17.2-29.1-40.5s18-35.4 29.1-40.5c11.9-5.4 25.4-7.5 34.9-7.5 4.6 0 10.1 .5 16 1.6l0-84.9-128 23.3 0 139.9c0 23.3-18 35.4-29.1 40.5-11.9 5.4-25.4 7.5-34.9 7.5s-22.9-2.1-34.9-7.5c-11.1-5-29.1-17.2-29.1-40.5s18-35.4 29.1-40.5c11.9-5.4 25.4-7.5 34.9-7.5 4.6 0 10.1 .5 16 1.6l0-161.6c0-11.6 8.3-21.5 19.7-23.6l176-32c7-1.3 14.2 .6 19.7 5.2s8.6 11.3 8.6 18.4z"/></svg>