<svg xmlns="http://www.w3.org/2000/svg" viewBox="0 0 576 512"><path fill="currentColor" d="M512 80c8.8 0 16 7.2 16 16l0 40-48 0 0-56 32 0zM240 80l192 0 0 256-192 0 0-256zM512 336l-32 0 0-56 48 0 0 40c0 8.8-7.2 16-16 16zm16-152l0 48-48 0 0-48 48 0zM192 280l0 56-32 0c-8.8 0-16-7.2-16-16l0-40 48 0zm0-48l-48 0 0-48 48 0 0 48zm0-96l-48 0 0-40c0-8.8 7.2-16 16-16l32 0 0 56zM160 32c-35.3 0-64 28.7-64 64l0 224c0 35.3 28.7 64 64 64l352 0c35.3 0 64-28.7 64-64l0-224c0-35.3-28.7-64-64-64L160 32zM48 152c0-13.3-10.7-24-24-24S0 138.7 0 152L0 416c0 35.3 28.7 64 64 64l392 0c13.3 0 24-10.7 24-24s-10.7-24-24-24L64 432c-8.8 0-16-7.2-16-16l0-264z"/></svg>