<svg xmlns="http://www.w3.org/2000/svg" viewBox="0 0 576 512"><path fill="currentColor" d="M41-24.9c-9.4-9.4-24.6-9.4-33.9 0S-2.3-.3 7 9.1l528 528c9.4 9.4 24.6 9.4 33.9 0s9.4-24.6 0-33.9l-62.1-62.1c3.3-7.7 5.1-16.2 5.1-25.1l0-320c0-35.3-28.7-64-64-64L128 32c-8.9 0-17.4 1.8-25.1 5.1l-62-62zM145.8 80l30.2 0 0 30.2-30.2-30.2zM224 158.2l0-78.2 128 0 0 206.2-128-128zm176 176l0-54.2 64 0 0 118.2-64-64zM362.2 432l-138.2 0 0-138.2-61.8-61.8-50.2 0 0-50.2-48-48 0 282.2c0 35.3 28.7 64 64 64l282.2 0-48-48zM176 280l0 56-64 0 0-56 64 0zm0 104l0 48-48 0c-8.8 0-16-7.2-16-16l0-32 64 0zM400 80l48 0c8.8 0 16 7.2 16 16l0 32-64 0 0-48zm64 96l0 56-64 0 0-56 64 0z"/></svg>