<svg xmlns="http://www.w3.org/2000/svg" viewBox="0 0 576 512"><path fill="currentColor" d="M24 64C14.3 64 5.5 69.8 1.8 78.8S.2 98.1 7 105l121 121 0 118.1c0 6.4 2.5 12.5 7 17l80 80c6.9 6.9 17.2 8.9 26.2 5.2S256 433.7 256 424l0-198.1 121-121c6.9-6.9 8.9-17.2 5.2-26.2S369.7 64 360 64L24 64zM169 199l-87-87 220.1 0-87 87c-4.5 4.5-7 10.6-7 17l0 150.1-32-32 0-118.1c0-6.4-2.5-12.5-7-17zM472 64c-13.3 0-24 10.7-24 24s10.7 24 24 24l48 0c13.3 0 24-10.7 24-24s-10.7-24-24-24l-48 0zM344 232c-13.3 0-24 10.7-24 24s10.7 24 24 24l176 0c13.3 0 24-10.7 24-24s-10.7-24-24-24l-176 0zm0 168c-13.3 0-24 10.7-24 24s10.7 24 24 24l176 0c13.3 0 24-10.7 24-24s-10.7-24-24-24l-176 0z"/></svg>