<svg xmlns="http://www.w3.org/2000/svg" viewBox="0 0 576 512"><path fill="currentColor" d="M189.7 32c-16.4 0-29.7 13.3-29.7 29.7 0 7.9 3.1 15.4 8.7 21L304 217.9 304 320c0 6.4 2.5 12.5 7 17l70.3 70.3c5.6 5.6 13.1 8.7 21 8.7 16.4 0 29.7-13.3 29.7-29.7l0-168.4 135.3-135.3c5.6-5.6 8.7-13.1 8.7-21 0-16.4-13.3-29.7-29.7-29.7L189.7 32zM345 191l-111-111 268.1 0-111 111c-4.5 4.5-7 10.6-7 17l0 134.1-32-32 0-102.1c0-6.4-2.5-12.5-7-17zM146.2 128L29.7 128c-16.4 0-29.7 13.3-29.7 29.7 0 7.9 3.1 15.4 8.7 21L144 313.9 144 416c0 6.4 2.5 12.5 7 17l70.3 70.3c5.6 5.6 13.1 8.7 21 8.7 16.4 0 29.7-13.3 29.7-29.7l0-117.1c-10.3-12.7-16-28.7-16-45.3l0-57.9-25 25c-4.5 4.5-7 10.6-7 17l0 134.1-32-32 0-102.1c0-6.4-2.5-12.5-7-17l-111-111 120.2 0-48-48z"/></svg>