<svg xmlns="http://www.w3.org/2000/svg" viewBox="0 0 576 512"><path fill="currentColor" d="M0 93.7C0 77.3 13.3 64 29.7 64l452.7 0c16.4 0 29.7 13.3 29.7 29.7 0 7.9-3.1 15.4-8.7 21l-94.8 94.8c-47.8 5.8-90.2 29.2-120.5 63.6l0-1c0-6.4 2.5-12.5 7-17l143-143-364.1 0 143 143c4.5 4.5 7 10.6 7 17l0 102.1 16.2 16.2c-.2 3.2-.2 6.4-.2 9.7 0 25.4 4.9 49.6 13.9 71.8L183 401c-4.5-4.5-7-10.6-7-17L176 281.9 8.7 114.6C3.1 109.1 0 101.5 0 93.7zM432 256a144 144 0 1 1 0 288 144 144 0 1 1 0-288zm59.3 107.3c6.2-6.2 6.2-16.4 0-22.6s-16.4-6.2-22.6 0l-36.7 36.7-36.7-36.7c-6.2-6.2-16.4-6.2-22.6 0s-6.2 16.4 0 22.6l36.7 36.7-36.7 36.7c-6.2 6.2-6.2 16.4 0 22.6s16.4 6.2 22.6 0l36.7-36.7 36.7 36.7c6.2 6.2 16.4 6.2 22.6 0s6.2-16.4 0-22.6l-36.7-36.7 36.7-36.7z"/></svg>