<svg xmlns="http://www.w3.org/2000/svg" viewBox="0 0 384 512"><path fill="currentColor" d="M209.1 8.5c72.9 68 128.7 152.4 162.7 246.1l.7 1.9c7.6 20.9 11.5 42.9 11.5 65.1 0 105.2-86.8 190.4-192 190.4S0 426.7 0 321.6c0-22.2 3.9-44.2 11.5-65.1l.7-1.9 45.1 16.4-.7 1.9C50.9 288.5 48 305 48 321.6 48 399.7 112.8 464 192 464s144-64.3 144-142.4c0-16.6-2.9-33.1-8.6-48.7l0 0-.7-1.9c-29-79.8-75-152.2-134.7-212.2-59.7 60.1-105.7 132.5-134.7 212.2L12.2 254.6C46.2 160.8 102 76.5 174.9 8.5l3.3-3C181.9 2 186.9 0 192 0s10.1 2 13.8 5.5l3.3 3zM189.3 163.8c1.7-2.4 4.4-3.8 7.4-3.8 5 0 9.1 4.1 9.1 9.1l0 10.8c0 7.8 3.1 15.3 8.5 20.8l44.1 45.1c19 19.4 29.6 45.5 29.6 72.6l0 1.6c0 53-43 96-96 96s-96-43-96-96l0-11.4c0-18.4 6.6-36.3 18.6-50.3l6-7c1.8-2.1 4.4-3.3 7.1-3.3 5.2 0 9.4 4.2 9.4 9.4l0 40.9c0 20.8 16.9 37.7 37.7 37.7s37.7-16.9 37.7-37.7l0-1.5c0-10.2-3.9-19.9-11-27.3l-11-11.4c-12.3-12.8-19.2-29.8-19.2-47.5 0-14.4 4.5-28.4 13-40.1l4.9-6.7z"/></svg>