<svg xmlns="http://www.w3.org/2000/svg" viewBox="0 0 512 512"><path fill="currentColor" d="M294 34.5L281.7 48.3S257.2 18.9 242.8 7.5C237.4 3.2 231.3 .2 224 0s-14.6 2.3-20.3 7.5c-23.4 21.1-50 48.9-70.9 80.2-20.8 31.1-36.8 67.1-36.8 104.5 0 88.6 70.4 159.8 160 159.8 88.7 0 160-71.2 160-159.8 0-30-11-60.9-26.2-88.1-15.2-27.4-35.3-52.3-55-70.6-5.6-5.2-12.8-7.8-19.9-7.8-7.6 0-15.5 2.8-20.9 8.9zM256 304.2c-35.3 0-64-28.7-64-64 0-36.5 37-73 54.8-88.4 5.4-4.7 13.1-4.7 18.5 0 17.7 15.4 54.8 51.9 54.8 88.4 0 35.3-28.7 64-64 64zM72.1 288L48 288c-26.5 0-48 21.5-48 48l0 96c0 26.5 21.5 48 48 48l416 0c26.5 0 48-21.5 48-48l0-96c0-26.5-21.5-48-48-48l-24.3 0c-9.3 17.6-20.9 33.7-34.6 48l58.9 0 0 96-416 0 0-96 58.6 0C93 321.7 81.3 305.6 72.1 288zM416 408a24 24 0 1 0 0-48 24 24 0 1 0 0 48z"/></svg>