<svg xmlns="http://www.w3.org/2000/svg" viewBox="0 0 448 512"><path fill="currentColor" d="M160.5-26.4c9.3-7.8 23.1-7.4 31.9 .9 12.2 11.6 23.3 24.4 33.9 37.4 13.5 16.5 29.7 38.3 45.3 64.2 5.2-6.8 10-12.8 14.2-17.9 1.1-1.3 2.2-2.7 3.4-4.1 7.8-9.8 17.7-22.1 30.8-22.1 13.4 0 22.8 11.9 30.8 22.1 1.3 1.7 2.6 3.3 3.9 4.8 10.3 12.4 24 30.3 37.7 52.4 27.2 43.9 55.6 106.4 55.6 176.6 0 123.7-100.3 224-224 224S0 411.7 0 288c0-91.1 41.1-170 80.5-225 19.9-27.7 39.7-49.9 54.6-65.1 8.2-8.4 16.5-16.7 25.5-24.2zM289.8 134.3c-4.6 7.3-12.8 11.6-21.4 11.2s-16.4-5.4-20.3-13.2c-19-37.6-41.3-68.5-58.9-90.1-5.2-6.4-10-12-14.2-16.6-1.8 1.7-3.6 3.6-5.6 5.6-13.6 14-31.8 34.3-49.9 59.6-36.6 51-71.5 120.1-71.5 197 0 97.2 78.8 176 176 176s176-78.8 176-176c0-57.7-23.6-111.3-48.4-151.4-11.3-18.3-22.7-33.4-31.6-44.4-8.5 10.5-19.3 24.8-30.2 42.1zM225.7 416c-63.2 0-113.7-40.6-113.7-109.2 0-47.5 33.2-86.5 51.5-104.3 6.3-6.1 16.1-5 21.5 1.9 16.2 20.5 48 60.9 65.3 83 6.2 7.9 18.1 8.2 24.7 .5l25.2-29.3c6.5-7.6 18-6.9 22.5 2 25.3 46.2 14 105-28.1 134.4-21.1 14-43.5 21-68.8 21z"/></svg>