<svg xmlns="http://www.w3.org/2000/svg" viewBox="0 0 384 512"><path fill="currentColor" d="M53.9 186.1C19.4 220.6 0 267.4 0 316.2l0 11.5C0 429.5 82.5 512 184.3 512l15.1 0c101.9 0 184.6-82.6 184.6-184.6 0-66.1-27.1-129.2-74.9-174.8L225.9 73.5c-6.3-6-9.9-14.4-9.9-23.2l0-29c0-11.8-9.6-21.3-21.3-21.3-6.7 0-13 3.2-17.1 8.5-6.4 8.5-12.9 17.1-19.5 26-14.4 19.3-23.2 42.2-25.2 66.2l-.9 10.8c-.3 3.9-.5 7.8-.4 11.7 .2 22.9 6.6 45.4 18.4 65 2.2 3.7 4.6 7.2 7.2 10.6 5.5 7.3 16.1 21.5 32 42.7 7 9.3 10.8 20.7 10.8 32.4l0 14c0 22.1-17.9 40-40 40s-40-17.9-40-40l0-99.7c0-15.6-12.7-28.3-28.3-28.3-1.3 0-2.6 .1-3.9 .3-6 .8-11.7 3.6-16.1 8L53.9 186.1zm18.1 53L72 288c0 48.6 39.4 88 88 88s88-39.4 88-88l0-14c0-22.1-7.2-43.5-20.4-61.2l-32-42.7c-11.8-15.7-17.4-35.1-15.7-54.6l.9-10.8c.3-3.1 .7-6.1 1.3-9.1 3.1 4.5 6.7 8.8 10.8 12.6L276 187.4c38.3 36.5 60 87.1 60 140 0 75.4-61.1 136.6-136.6 136.6l-15.1 0C109 464 48 403 48 327.7l0-11.5c0-27.7 8.5-54.6 24-77.1z"/></svg>