<svg xmlns="http://www.w3.org/2000/svg" viewBox="0 0 384 512"><path fill="currentColor" d="M209.1 8.5c72.9 68 128.7 152.4 162.7 246.1l.7 1.9c7.6 20.9 11.5 42.9 11.5 65.1 0 105.2-86.8 190.4-192 190.4S0 426.7 0 321.6c0-22.2 3.9-44.2 11.5-65.1l.7-1.9 45.1 16.4-.7 1.9C50.9 288.5 48 305 48 321.6 48 399.7 112.8 464 192 464s144-64.3 144-142.4c0-16.6-2.9-33.1-8.6-48.7l0 0-.7-1.9c-29-79.8-75-152.2-134.7-212.2-59.7 60.1-105.7 132.5-134.7 212.2L12.2 254.6C46.2 160.8 102 76.5 174.9 8.5l3.3-3C181.9 2 186.9 0 192 0s10.1 2 13.8 5.5l3.3 3zm72.6 281.4c4.1 9.3 6.2 19.4 6.2 29.5 0 53-43 96.5-96 96.5s-96-43.5-96-96.5c0-10.1 2.1-20.3 6.2-29.5l1.9-4.3c15.8-35.4 37.9-67.7 65.3-95.1l8.9-8.9c3.6-3.6 8.5-5.6 13.6-5.6s10 2 13.6 5.6l8.9 8.9c27.4 27.4 49.6 59.7 65.3 95.1l1.9 4.3z"/></svg>