<svg xmlns="http://www.w3.org/2000/svg" viewBox="0 0 576 512"><path fill="currentColor" d="M48 48l480 0 0 64-480 0 0-64zM32 0C14.3 0 0 14.3 0 32l0 96c0 17.7 14.3 32 32 32l0 328c0 13.3 10.7 24 24 24l56 0c13.3 0 24-10.7 24-24s-10.7-24-24-24l-32 0 0-304 416 0 0 304-32 0c-13.3 0-24 10.7-24 24s10.7 24 24 24l56 0c13.3 0 24-10.7 24-24l0-328c17.7 0 32-14.3 32-32l0-96c0-17.7-14.3-32-32-32L32 0zM309 263.5s-20.1-24-31.8-33.3c-4.4-3.5-9.4-6-15.4-6.1s-11.9 1.9-16.6 6.1c-19.1 17.3-40.9 40-58 65.6-17 25.5-30.1 54.9-30.1 85.5 0 72.5 57.6 130.8 130.9 130.8 72.6 0 130.9-58.2 130.9-130.8 0-24.5-9-49.8-21.4-72.1-12.5-22.4-28.9-42.8-45-57.8-4.6-4.3-10.4-6.4-16.3-6.4-6.2 0-12.7 2.3-17.1 7.2l-10 11.3zm31.3 157c0 28.9-23.4 52.4-52.4 52.4s-52.4-23.4-52.4-52.4c0-29.9 30.3-59.7 44.8-72.3 4.4-3.8 10.7-3.8 15.1 0 14.5 12.6 44.8 42.5 44.8 72.3z"/></svg>