<svg xmlns="http://www.w3.org/2000/svg" viewBox="0 0 512 512"><path fill="currentColor" d="M294 34.5L281.7 48.3S257.2 18.9 242.8 7.5C237.4 3.2 231.3 .2 224 0s-14.6 2.3-20.3 7.5c-23.4 21.1-50 48.9-70.9 80.2-20.8 31.1-36.8 67.1-36.8 104.5 0 16.8 2.5 32.9 7.2 48.1 2.9-.2 5.8-.2 8.8-.2 12.7 0 25.1 1.5 36.9 4.3 14.1-10.8 29.9-19.6 47-25.8 10-28.6 36.6-54.4 50.8-66.8 5.4-4.7 13.1-4.7 18.5 0 14.2 12.3 40.8 38.2 50.8 66.8 17.1 6.2 32.9 14.9 47 25.8 11.9-2.8 24.2-4.3 37-4.3 2.9 0 5.8 .1 8.7 .2 4.7-15.2 7.3-31.3 7.3-48.1 0-30-11-60.9-26.2-88.1-15.2-27.4-35.3-52.3-55-70.6-5.6-5.2-12.8-7.8-19.9-7.8-7.6 0-15.5 2.8-20.9 8.9zM256 256c-38.1 0-72.2 16.6-95.7 43-14.6-7-31-11-48.3-11-61.9 0-112 50.1-112 112S50.1 512 112 512l288 0c61.9 0 112-50.1 112-112S461.9 288 400 288c-17.3 0-33.7 3.9-48.3 11-23.4-26.3-57.6-43-95.7-43zm-68.8 87.2c14-23.5 39.6-39.2 68.8-39.2s54.8 15.7 68.8 39.2c3.5 5.9 9.5 10.1 16.3 11.3s13.8-.5 19.2-4.8c10.9-8.6 24.6-13.8 39.7-13.8 35.3 0 64 28.7 64 64s-28.7 64-64 64l-288 0c-35.3 0-64-28.7-64-64s28.7-64 64-64c15 0 28.7 5.1 39.7 13.8 5.4 4.3 12.4 6 19.2 4.8s12.7-5.4 16.3-11.3z"/></svg>