<svg xmlns="http://www.w3.org/2000/svg" viewBox="0 0 576 512"><path fill="currentColor" d="M150 203.2c19.9-22.7 47.5-45.8 78-63.1 30.7-17.4 62.8-28.1 92-28.1 44.8 0 97.6 25.1 140.5 58.9 21.1 16.6 38.7 34.5 50.7 50.7 12.8 17.2 16.8 29.1 16.8 34.4s-4 17.2-16.8 34.4c-12.1 16.2-29.6 34.1-50.7 50.7-42.9 33.8-95.7 58.9-140.5 58.9-29.1 0-61.2-10.6-91.8-28-30.5-17.3-58.1-40.3-78-63-8.3-9.4-22.4-10.9-32.4-3.4l-59.2 44.4 19.1-81.3c2-8.4 2-17.2 0-25.7l-18.7-79.5 58.8 43.1c10 7.4 24 5.8 32.2-3.5zM320 64c-40.2 0-80.5 14.4-115.7 34.3-28.2 16-54.1 36.1-75.3 57.2L56.8 102.6C51 98.3 43.9 96 36.7 96 14.7 96-1.5 116.5 3.5 137.9L30.9 254.2c.3 1.2 .3 2.5 0 3.7L1.7 382.2c-2.5 10.8 .7 22.1 8.5 29.9l0 0c11.2 11.2 29 12.5 41.8 3l77.5-58.1c21.2 20.9 47 41 75.1 56.9 35.1 19.9 75.4 34.2 115.5 34.2 60.2 0 123.4-32.2 170.2-69.1 23.8-18.7 44.5-39.5 59.6-59.8 14.3-19.3 26.2-41.7 26.2-63.1s-11.9-43.8-26.2-63.1c-15-20.3-35.8-41.1-59.6-59.8-46.9-36.9-110-69.1-170.2-69.1zM305 193c9.4-9.4 9.4-24.6 0-33.9s-24.6-9.4-33.9 0l-48 48c-9.4 9.4-9.4 24.6 0 33.9s24.6 9.4 33.9 0l48-48zm112 16c9.4-9.4 9.4-24.6 0-33.9s-24.6-9.4-33.9 0L255 303c-9.4 9.4-9.4 24.6 0 33.9s24.6 9.4 33.9 0L417 209zm32 96c9.4-9.4 9.4-24.6 0-33.9s-24.6-9.4-33.9 0l-48 48c-9.4 9.4-9.4 24.6 0 33.9s24.6 9.4 33.9 0l48-48z"/></svg>