<svg xmlns="http://www.w3.org/2000/svg" viewBox="0 0 576 512"><path fill="currentColor" d="M180.8 303.7c9.2 10.4 19.4 20.6 30.7 30.1 33.7 28.5 76 50.2 124.5 50.2s90.8-21.8 124.5-50.2c30.3-25.5 52.7-55.7 65.3-77.8-12.6-22.1-35-52.2-65.3-77.8-33.7-28.5-76-50.2-124.5-50.2s-90.8 21.7-124.5 50.2c-11.3 9.5-21.5 19.7-30.7 30.1-14 15.8-36.7 20.6-56 11.8l-54.3-24.9 21.1 36.9c8.4 14.8 8.4 32.9 0 47.6l-21.1 36.9 54.3-24.9c19.2-8.8 41.9-4 56 11.8zM4.2 336.1L50 256 4.2 175.9c-6.9-12.1-5.2-27.2 4.2-37.5s24.3-13.3 36.9-7.5l99.5 45.6c10.5-11.9 22.5-23.8 35.7-35 39.2-33.1 92-61.5 155.5-61.5s116.3 28.5 155.5 61.5c39.1 33 66.9 72.4 81 99.8 4.7 9.2 4.7 20.1 0 29.3-14.1 27.4-41.9 66.8-81 99.8-39.2 33.1-92 61.5-155.5 61.5s-116.3-28.5-155.5-61.5c-13.2-11.2-25.1-23.1-35.7-35L45.3 381.1c-12.6 5.8-27.6 2.8-36.9-7.5s-11.1-25.4-4.2-37.5zM416 224a32 32 0 1 1 0 64 32 32 0 1 1 0-64z"/></svg>