<svg xmlns="http://www.w3.org/2000/svg" viewBox="0 0 640 512"><path fill="currentColor" d="M224 48l8 0c13.3 0 24-10.7 24-24S245.3 0 232 0L24 0C10.7 0 0 10.7 0 24S10.7 48 24 48l8 0 0 304c0 53 43 96 96 96 18.4 0 35.5-5.2 50.1-14.1 1.4-7 3.6-13.9 6.4-20.5L224 321.2 224 48zM80 48l96 0 0 128-96 0 0-128zm0 176l96 0 0 128c0 26.5-21.5 48-48 48s-48-21.5-48-48l0-128zM312 0c-13.3 0-24 10.7-24 24s10.7 24 24 24l8 0 0 169.4c0 1.1-.2 2.2-.6 3.2L228.6 432.3c-3.1 7.1-4.6 14.8-4.6 22.5 0 31.6 25.6 57.2 57.2 57.2l269.6 0c31.6 0 57.2-25.6 57.2-57.2 0-7.7-1.6-15.4-4.6-22.5L512.6 220.6c-.4-1-.6-2.1-.6-3.2l0-169.4 8 0c13.3 0 24-10.7 24-24S533.3 0 520 0L312 0zM464 48l0 169.4c0 7.6 1.5 15.1 4.5 22.1l27.6 64.5-160.4 0 27.6-64.5c3-7 4.5-14.5 4.5-22.1l0-169.4 96 0zM272.7 451.2l42.5-99.2 201.5 0 42.5 99.2c.5 1.1 .7 2.4 .7 3.6 0 5.1-4.1 9.2-9.2 9.2l-269.6 0c-5.1 0-9.2-4.1-9.2-9.2 0-1.2 .3-2.5 .7-3.6z"/></svg>