<svg xmlns="http://www.w3.org/2000/svg" viewBox="0 0 640 512"><path fill="currentColor" d="M560 145.2c10.1-.5 20.8-.8 32-1l0 223.7c-11.2-.2-21.9-.5-32-1l0-221.6zm-48 4.7l0 212.1c-44.2-7.1-78.2-21.9-112.1-52-4.4-3.9-10.1-6.1-15.9-6.1l-336 0 0-96 336 0c5.9 0 11.6-2.2 15.9-6.1 33.8-30.1 67.9-44.9 112.1-52zM616 96c-101.4 0-172.7 7-240.9 64L40 160c-22.1 0-40 17.9-40 40L0 312c0 22.1 17.9 40 40 40l335.1 0c68.2 57 139.5 64 240.9 64 13.3 0 24-10.7 24-24l0-272c0-13.3-10.7-24-24-24zM224 256c0 13.3 10.7 24 24 24l48 0c13.3 0 24-10.7 24-24s-10.7-24-24-24l-48 0c-13.3 0-24 10.7-24 24z"/></svg>