<svg xmlns="http://www.w3.org/2000/svg" viewBox="0 0 576 512"><path fill="currentColor" d="M96 24c0-13.3 10.7-24 24-24L328 0c13.3 0 24 10.7 24 24s-10.7 24-24 24l-8 0 0 175.6-48 .4 0-176-96 0 0 176c0 4.2-1.1 8.3-3.2 11.9l-38.9 68.1 89.3 0c-7.4 15.4-8.9 32.3-5.1 48L106.5 352 49 452.6c-2.8 4.9 .8 11.4 6.6 11.4l168.1 0 26.9 48-195.1 0c-30.7 0-55.6-24.9-55.6-55.6 0-9.7 2.5-19.2 7.3-27.6L128 217.6 128 48 120 48c-13.3 0-24-10.7-24-24zM368.2 247.6c0-13.3 10.7-24 24-24l48 0c13.3 0 24 10.7 24 24l0 6.1c0 18.9 24.1 32.8 40.5 23.4l5-2.9c11.6-6.7 26.5-2.6 33 9.1l22.4 40.2c6.2 11.2 2.6 25.2-8.2 32l-4.7 2.9c-16.2 10.1-16.2 39.9 0 50.1l4.6 2.9c10.8 6.8 14.5 20.8 8.3 32l-22.4 40.4c-6.5 11.7-21.4 15.9-33 9.1l-4.9-2.9c-16.4-9.5-40.5 4.5-40.5 23.4l0 6.1c0 13.3-10.7 24-24 24l-48 0c-13.3 0-24-10.7-24-24l0-5.9c0-19-24.2-33-40.7-23.5l-4.8 2.8c-11.6 6.7-26.4 2.6-33-9.1l-22.5-40.4c-6.3-11.2-2.6-25.3 8.3-32.1l4.4-2.7c16.3-10.1 16.3-40.1 0-50.2l-4.5-2.8c-10.9-6.8-14.5-20.9-8.3-32.1l22.5-40.3c6.5-11.7 21.4-15.8 32.9-9.1l4.8 2.8c16.5 9.5 40.7-4.5 40.7-23.5l0-5.9zm99.9 136.2a52 52 0 1 0 -104 0 52 52 0 1 0 104 0z"/></svg>