<svg xmlns="http://www.w3.org/2000/svg" viewBox="0 0 448 512"><path fill="currentColor" d="M96 24c0-13.3 10.7-24 24-24L328 0c13.3 0 24 10.7 24 24s-10.7 24-24 24l-8 0 0 169.6 120.7 211.2c4.8 8.4 7.3 17.9 7.3 27.6 0 30.7-24.9 55.6-55.6 55.6L55.6 512c-30.7 0-55.6-24.9-55.6-55.6 0-9.7 2.5-19.2 7.3-27.6L128 217.6 128 48 120 48c-13.3 0-24-10.7-24-24zm80 24l0 176c0 4.2-1.1 8.3-3.2 11.9l-38.9 68.1 180.1 0-38.9-68.1c-2.1-3.6-3.2-7.7-3.2-11.9l0-176-96 0zM106.5 352L49 452.6c-.7 1.1-1 2.4-1 3.8 0 4.2 3.4 7.6 7.6 7.6l336.8 0c4.2 0 7.6-3.4 7.6-7.6 0-1.3-.3-2.6-1-3.8l-57.5-100.6-235 0z"/></svg>