<svg xmlns="http://www.w3.org/2000/svg" viewBox="0 0 384 512"><path fill="currentColor" d="M88 48l8 0 0 105.7C38.6 186.9 0 248.9 0 320 0 426 86 512 192 512s192-86 192-192c0-71.1-38.6-133.1-96-166.3l0-105.7 8 0c13.3 0 24-10.7 24-24S309.3 0 296 0L88 0C74.7 0 64 10.7 64 24S74.7 48 88 48zm56 120.2l0-120.2 96 0 0 120.2c0 9.3 5.3 17.7 13.7 21.7 48.7 23.1 82.3 72.7 82.3 130.2l-35.7 0c-24.6 0-48.8-6.7-70-19.4l-5-3c-28-16.8-60-25.6-92.6-25.6-27.9 0-55.5 6.5-80.5 19l-1.6 .8c9-45.1 39-82.7 79.5-101.9 8.4-4 13.7-12.4 13.7-21.7zM50.3 345.7l23.5-11.8c18.3-9.2 38.5-13.9 59-13.9 23.9 0 47.4 6.5 67.9 18.8l5 3C234.2 358.9 267 368 300.3 368l27.5 0c-19.8 55.9-73.1 96-135.8 96-70.8 0-129.6-51-141.7-118.3z"/></svg>