<svg xmlns="http://www.w3.org/2000/svg" viewBox="0 0 384 512"><path fill="currentColor" d="M88 48l8 0 0 105.7C38.6 186.9 0 248.9 0 320 0 426 86 512 192 512s192-86 192-192c0-71.1-38.6-133.1-96-166.3l0-105.7 8 0c13.3 0 24-10.7 24-24S309.3 0 296 0L88 0C74.7 0 64 10.7 64 24S74.7 48 88 48zm56 120.2l0-120.2 96 0 0 120.2c0 9.3 5.3 17.7 13.7 21.7 48.7 23.1 82.3 72.7 82.3 130.2 0 79.5-64.5 144-144 144S48 399.5 48 320c0-57.4 33.6-107 82.3-130.2 8.4-4 13.7-12.4 13.7-21.7zM304 312c0-48.6-50.1-88-112-88S80 263.4 80 312c0 29.9 19 56.3 48 72.2l0 15.8c0 17.7 14.3 32 32 32l64 0c17.7 0 32-14.3 32-32l0-15.8c29-15.9 48-42.3 48-72.2zM152 288a24 24 0 1 1 0 48 24 24 0 1 1 0-48zm56 24a24 24 0 1 1 48 0 24 24 0 1 1 -48 0z"/></svg>