<svg xmlns="http://www.w3.org/2000/svg" viewBox="0 0 512 512"><path fill="currentColor" d="M393.2 31.9l-63.5 2.2c-6.2 .2-12.3-1.5-17.4-5L259.6-6.4c-11.3-7.6-26.2-6.5-36.4 2.7L175.7 39.1c-4.6 4.2-10.4 6.8-16.6 7.5L95.9 53.7C82.4 55.2 71.6 65.8 69.7 79.3l-9.3 63.5c-.9 6.2-3.7 12-8 16.5L8.3 205.7c-9.4 9.9-11 25-3.9 36.6l33.3 54.4c3.3 5.3 4.8 11.5 4.3 17.8l-4.4 64c-.5 7.9 2 15.4 6.8 21.2l84.2-84.2c-10.5-14.5-16.6-32.3-16.6-51.5 0-48.6 39.4-88 88-88 19.2 0 37 6.2 51.5 16.6l157-157c-4.6-2.6-9.8-3.9-15.3-3.7zM256.1 464c-40.1 0-77.5-11.3-109.2-30.9L433.2 146.8c19.6 31.7 30.9 69.1 30.9 109.2 0 114.9-93.1 208-208 208zM458.3 99C447.4 85 427 85.1 414.5 97.6L97.7 414.4c-12.5 12.5-12.6 32.9 1.3 43.8 43.4 33.7 97.9 53.8 157 53.8 141.4 0 256-114.6 256-256 0-59.2-20.1-113.7-53.8-157zM272.1 408a24 24 0 1 0 -48 0 24 24 0 1 0 48 0zm56 8a24 24 0 1 0 0-48 24 24 0 1 0 0 48z"/></svg>