<svg xmlns="http://www.w3.org/2000/svg" viewBox="0 0 640 512"><path fill="currentColor" d="M128.1 80c-8.8 0-16 7.2-16 16l0 320c0 8.8 7.2 16 16 16l165.5 0c-3.8 8.1-6.6 16.6-8.4 25.5l-4.5 22.5-152.6 0c-35.3 0-64-28.7-64-64l0-320c0-35.3 28.7-64 64-64l242.7 0c17 0 33.3 6.7 45.3 18.7L493.3 128c12 12 18.7 28.3 18.7 45.3l0 37.7c-9.3 4.8-18.1 11.2-25.9 19l-22.1 22.1 0-78.7c0-4.2-1.7-8.3-4.7-11.3l-75.3-75.3 0 89.4c0 17.7-14.3 32-32 32l-160 0c-17.7 0-32-14.3-32-32l0-96-32 0zm80 0l0 80 128 0 0-80-128 0zm16 240a64 64 0 1 1 128 0 64 64 0 1 1 -128 0zM332.3 467c2.5-12.4 8.6-23.8 17.5-32.7l118.9-118.9 80 80-118.9 118.9c-8.9 8.9-20.3 15-32.7 17.5l-59.6 11.9c-.9 .2-1.9 .3-2.9 .3-8 0-14.6-6.5-14.6-14.6 0-1 .1-1.9 .3-2.9L332.3 467zM600.1 344l-28.8 28.8-80-80 28.8-28.8c22.1-22.1 57.9-22.1 80 0s22.1 57.9 0 80z"/></svg>