<svg xmlns="http://www.w3.org/2000/svg" viewBox="0 0 512 512"><path fill="currentColor" d="M160 48c-8.8 0-16 7.2-16 16l0 288c0 8.8 7.2 16 16 16l288 0c8.8 0 16-7.2 16-16l0-207.4c0-4.2-1.7-8.3-4.7-11.3L384 57.9 384 112c0 17.7-14.3 32-32 32l-128 0c-17.7 0-32-14.3-32-32l0-64-32 0zm80 0l0 48 96 0 0-48-96 0zM96 64c0-35.3 28.7-64 64-64L367.4 0c17 0 33.3 6.7 45.3 18.7l80.6 80.6c12 12 18.7 28.3 18.7 45.3L512 352c0 35.3-28.7 64-64 64l-288 0c-35.3 0-64-28.7-64-64L96 64zM304 192a56 56 0 1 1 0 112 56 56 0 1 1 0-112zM48 120l0 328c0 8.8 7.2 16 16 16l328 0c13.3 0 24 10.7 24 24s-10.7 24-24 24L64 512c-35.3 0-64-28.7-64-64L0 120c0-13.3 10.7-24 24-24s24 10.7 24 24z"/></svg>