<svg xmlns="http://www.w3.org/2000/svg" viewBox="0 0 448 512"><path fill="currentColor" d="M280-16c57.4 0 104 46.6 104 104 0 20.7-6.1 39.8-16.5 56 10.4 16.2 16.5 35.3 16.5 56 0 57.4-46.6 104-104 104-11.2 0-21.9-1.9-32-5.2l0 76.3c30.2-31.9 72.1-52.6 118.9-55l9.1-.2 42.5 0 3 .2c14.9 1.5 26.5 14.1 26.5 29.4l-.2 8.4C443.6 441 377 507.6 293.9 511.8l-8.4 .2-123.1 0-8.4-.2C71 507.6 4.4 441 .2 357.9L0 349.5c0-15.3 11.6-27.9 26.5-29.4l3-.2 42.5 0 9.1 .2c46.8 2.4 88.8 23 118.9 55l0-76.3c-10.1 3.3-20.8 5.2-32 5.2-57.4 0-104-46.6-104-104 0-20.6 6.1-39.8 16.5-56-10.4-16.2-16.5-35.4-16.5-56 0-57.4 46.6-104 104-104 20.6 0 39.8 6.1 56 16.5 16.2-10.4 35.4-16.5 56-16.5zM49.5 368c8.8 54.4 56 96 113 96l33.5 0c-14.2-55.2-64.3-96-124-96l-22.5 0zM376 368c-59.6 0-109.8 40.8-124 96l33.5 0c56.9 0 104.1-41.6 113-96L376 368zM280 32c-13.4 0-25.6 4.7-35.2 12.5l-4 3.5c-8.2 8-20.6 9-29.9 3l-3.8-3c-10.1-9.9-23.9-16-39.2-16-30.9 0-56 25.1-56 56 0 15.3 6.1 29 16 39.2l3 3.8c5.2 7.9 5.2 18.2 0 26.1l-3 3.8c-9.9 10.1-16 23.9-16 39.2 0 30.9 25.1 56 56 56 15.2 0 29-6.1 39.2-16.1l3.8-3c9.2-6 21.7-5 29.9 3 10.2 10 23.9 16.1 39.2 16.1 30.9 0 56-25.1 56-56 0-13.3-4.7-25.6-12.5-35.2l-3.6-4c-9.2-9.3-9.2-24.3 0-33.6 10-10.2 16.1-23.9 16.1-39.2 0-30.9-25.1-56-56-56zM224 176a32 32 0 1 1 0-64 32 32 0 1 1 0 64z"/></svg>