<svg xmlns="http://www.w3.org/2000/svg" viewBox="0 0 448 512"><path fill="currentColor" d="M224-32c7.3 0 14.2 3.3 18.7 9l52.4 65.5 55.1-24.5 2.8-1c6.7-2 14-1 20 2.8 6.8 4.4 10.9 12 10.9 20.1l0 88c0 70.7-57.3 128-128 128l-8 0 0 119.2c30.2-31.9 72.1-52.6 118.9-55l9.1-.2 42.5 0 3 .2c14.9 1.5 26.5 14.1 26.5 29.4l-.2 8.4C443.6 441 377 507.6 293.9 511.8l-8.4 .2-123.1 0-8.4-.2C71 507.6 4.4 441 .2 357.9L0 349.5c0-15.3 11.6-27.9 26.5-29.4l3-.2 42.5 0 9.1 .2c46.8 2.4 88.8 23 118.9 55l0-119.2-8 0c-70.7 0-128-57.3-128-128l0-88 .2-3c.9-6.9 4.8-13.2 10.8-17.1 6.8-4.4 15.4-5.1 22.8-1.8l55.1 24.5 52.4-65.5 1.8-2c4.5-4.5 10.6-7 16.9-7zM49.5 368c8.8 54.4 56 96 113 96l33.5 0c-14.2-55.2-64.3-96-124-96l-22.5 0zM376 368c-59.6 0-109.8 40.8-124 96l33.5 0c56.9 0 104.1-41.6 113-96L376 368zM178.8 87c-6.8 8.5-18.5 11.4-28.5 6.9l-38.2-17 0 51.1c0 44.2 35.8 80 80 80l64 0c44.2 0 80-35.8 80-80l0-51.1-38.2 17c-10 4.4-21.7 1.6-28.5-6.9L224 30.4 178.8 87z"/></svg>