<svg xmlns="http://www.w3.org/2000/svg" viewBox="0 0 448 512"><path fill="currentColor" d="M448 168c0 33.6-12.2 64.3-32.3 88 20.1 23.7 32.3 54.4 32.3 88 0 75.1-60.9 136-136 136-33.6 0-64.3-12.2-88-32.3-23.7 20.1-54.4 32.3-88 32.3-75.1 0-136-60.9-136-136 0-33.6 12.2-64.3 32.3-88-20.1-23.7-32.3-54.4-32.3-88 0-75.1 60.9-136 136-136 33.6 0 64.3 12.2 88 32.3 23.7-20.1 54.4-32.3 88-32.3 75.1 0 136 60.9 136 136zM192.9 100.9c-15.4-13.1-35.2-20.9-56.9-20.9-48.6 0-88 39.4-88 88 0 21.8 7.8 41.6 20.9 56.9 15.2 17.9 15.2 44.2 0 62.2-13.1 15.4-20.9 35.2-20.9 56.9 0 48.6 39.4 88 88 88 21.8 0 41.6-7.8 56.9-20.9 17.9-15.2 44.2-15.2 62.2 0 15.4 13.1 35.2 20.9 56.9 20.9 48.6 0 88-39.4 88-88 0-21.8-7.8-41.6-20.9-56.9-15.2-17.9-15.2-44.2 0-62.2 13.1-15.4 20.9-35.2 20.9-56.9 0-48.6-39.4-88-88-88-21.8 0-41.6 7.8-56.9 20.9-17.9 15.2-44.2 15.2-62.2 0zM256 256a32 32 0 1 0 -64 0 32 32 0 1 0 64 0zm-112 0a80 80 0 1 1 160 0 80 80 0 1 1 -160 0z"/></svg>