<svg xmlns="http://www.w3.org/2000/svg" viewBox="0 0 448 512"><path fill="currentColor" d="M390.4 89.6c7.9 7.9 16.9 31.4 .6 80.4-15.3 45.9-49.5 101-100.7 152.2S183.9 407.6 138 422.9c-49 16.3-72.5 7.3-80.4-.6-5.6-5.6-11.8-19.2-9-44.3 19.9 19.2 45.3 20.8 62.5 18.9 18.1-2 36.3-8.8 52.8-17 33.6-16.6 70.7-44.5 105.1-78.9s62.2-71.5 78.9-105.1c8.2-16.6 14.9-34.7 17-52.8 1.9-17.2 .3-42.6-18.9-62.5 25.1-2.8 38.7 3.3 44.3 9zM105.2 175.4C8.3 281.9-28.4 404.2 23.7 456.3 79 511.6 213.5 466.8 324.2 356.2S479.6 111 424.3 55.7c-52.1-52.1-174.4-15.4-280.8 81.4-13.2 11.9-26.5 25.2-38.3 38.3zm35.6 32.2c10.8-11.9 22.9-24 34.9-34.8 57.9-52.3 116.2-78.4 135.5-59.1 21.4 21.4-12.7 90.1-76.1 153.4S103.1 364.6 81.7 343.2c-19.4-19.4 6.8-77.7 59.1-135.6z"/></svg>