<svg xmlns="http://www.w3.org/2000/svg" viewBox="0 0 512 512"><path fill="currentColor" d="M202.7 32c13.8 0 27.3 4.5 38.4 12.8l38.4 28.8c4.2 3.1 9 5.2 14.1 6l5.1 .4 149.3 0c35.3 0 64 28.7 64 64l0 240c0 35.3-28.7 64-64 64L64 448c-35.3 0-64-28.7-64-64L0 96C0 60.7 28.7 32 64 32l138.7 0zM64 80c-8.8 0-16 7.2-16 16l0 288c0 8.8 7.2 16 16 16l384 0c8.8 0 16-7.2 16-16l0-240c0-8.8-7.2-16-16-16l-149.3 0c-15.1 0-29.9-4.3-42.7-12.3l-5.3-3.7-38.4-28.8c-2.1-1.6-4.5-2.6-7-3L202.7 80 64 80zM232.8 181.4c9.4-7.7 23.3-7.1 32.1 1.7s9.3 22.7 1.7 32.1l-1.7 1.8-23 23 86.1 0c13.3 0 24 10.7 24 24s-10.7 24-24 24l-86.1 0 23 23c9.4 9.4 9.4 24.6 0 33.9s-24.6 9.4-33.9 0l-64-64-1.7-1.8c-7.7-9.4-7.1-23.3 1.7-32.1l64-64 1.8-1.7z"/></svg>