<svg xmlns="http://www.w3.org/2000/svg" viewBox="0 0 512 512"><path fill="currentColor" d="M448 400L64 400c-8.8 0-16-7.2-16-16L48 96c0-8.8 7.2-16 16-16l138.7 0c3.5 0 6.8 1.1 9.6 3.2L250.7 112c13.8 10.4 30.7 16 48 16L448 128c8.8 0 16 7.2 16 16l0 240c0 8.8-7.2 16-16 16zM64 448l384 0c35.3 0 64-28.7 64-64l0-240c0-35.3-28.7-64-64-64L298.7 80c-6.9 0-13.7-2.2-19.2-6.4L241.1 44.8C230 36.5 216.5 32 202.7 32L64 32C28.7 32 0 60.7 0 96L0 384c0 35.3 28.7 64 64 64zM256 272a48 48 0 1 0 0-96 48 48 0 1 0 0 96zm-77.5 52.6c-11.1 11.6 .1 27.4 16.1 27.4l122.7 0c16 0 27.2-15.9 16.1-27.4-12.1-12.7-29.2-20.6-48.2-20.6l-58.7 0c-18.9 0-36 7.9-48.2 20.6z"/></svg>