<svg xmlns="http://www.w3.org/2000/svg" viewBox="0 0 512 512"><path fill="currentColor" d="M202.7 32c13.8 0 27.3 4.5 38.4 12.8l38.4 28.8c5.5 4.2 12.3 6.4 19.2 6.4L448 80c35.3 0 64 28.7 64 64l0 240c0 35.3-28.7 64-64 64L64 448c-35.3 0-64-28.7-64-64L0 96C0 60.7 28.7 32 64 32l138.7 0zM64 80c-8.8 0-16 7.2-16 16l0 288c0 8.8 7.2 16 16 16l384 0c8.8 0 16-7.2 16-16l0-240c0-8.8-7.2-16-16-16l-149.3 0c-17.3 0-34.2-5.6-48-16L212.3 83.2c-2.8-2.1-6.2-3.2-9.6-3.2L64 80zM292.7 199.9c7.8-10.7 22.8-13.1 33.5-5.3s13.1 22.8 5.3 33.5L255.4 332.8c-4.2 5.7-10.7 9.3-17.8 9.8-7.1 .5-14-2.2-18.9-7.3l-35.9-37.2c-9.2-9.5-8.9-24.7 .6-33.9 9.5-9.2 24.7-9 33.9 .6l16.1 16.6 59.3-81.6z"/></svg>