<svg xmlns="http://www.w3.org/2000/svg" viewBox="0 0 576 512"><path fill="currentColor" d="M512 336l-352 0c-8.8 0-16-7.2-16-16l0-256c0-8.8 7.2-16 16-16l117.5 0c4.2 0 8.3 1.7 11.3 4.7l35.9 35.9c15 15 35.4 23.4 56.6 23.4L512 112c8.8 0 16 7.2 16 16l0 192c0 8.8-7.2 16-16 16zM160 384l352 0c35.3 0 64-28.7 64-64l0-192c0-35.3-28.7-64-64-64L381.3 64c-8.5 0-16.6-3.4-22.6-9.4L322.7 18.7C310.7 6.7 294.5 0 277.5 0L160 0C124.7 0 96 28.7 96 64l0 256c0 35.3 28.7 64 64 64zM48 120c0-13.3-10.7-24-24-24S0 106.7 0 120L0 416c0 35.3 28.7 64 64 64l392 0c13.3 0 24-10.7 24-24s-10.7-24-24-24L64 432c-8.8 0-16-7.2-16-16l0-296z"/></svg>