<svg xmlns="http://www.w3.org/2000/svg" viewBox="0 0 576 512"><path fill="currentColor" d="M48 24C48 10.7 37.3 0 24 0S0 10.7 0 24L0 392c0 30.9 25.1 56 56 56l184 0 0-48-184 0c-4.4 0-8-3.6-8-8l0-232 192 0 0-48-192 0 0-88zM385.5 48l31.9 21.3c10.5 7 22.9 10.7 35.5 10.7l75.2 0 0 96-192 0 0-128 49.5 0zM288 48l0 128c0 26.5 21.5 48 48 48l192 0c26.5 0 48-21.5 48-48l0-96c0-26.5-21.5-48-48-48l-75.2 0c-3.2 0-6.2-.9-8.9-2.7L412.1 8.1C404.2 2.8 394.9 0 385.5 0L336 0c-26.5 0-48 21.5-48 48zm97.5 288l33.9 22.6c9.2 6.1 20 9.4 31.1 9.4l77.6 0 0 96-192 0 0-128 49.5 0zM288 336l0 128c0 26.5 21.5 48 48 48l192 0c26.5 0 48-21.5 48-48l0-96c0-26.5-21.5-48-48-48l-77.6 0c-1.6 0-3.1-.5-4.4-1.3l-33.9-22.6c-7.9-5.3-17.1-8.1-26.6-8.1L336 288c-26.5 0-48 21.5-48 48z"/></svg>