<svg xmlns="http://www.w3.org/2000/svg" viewBox="0 0 512 512"><path fill="currentColor" d="M464 384c0 8.8-7.2 16-16 16L64 400c-8.8 0-16-7.2-16-16L48 96c0-8.8 7.2-16 16-16l138.7 0c3.5 0 6.8 1.1 9.6 3.2L250.7 112c13.8 10.4 30.7 16 48 16L448 128c8.8 0 16 7.2 16 16l0 240zM64 448l384 0c35.3 0 64-28.7 64-64l0-240c0-35.3-28.7-64-64-64L298.7 80c-6.9 0-13.7-2.2-19.2-6.4L241.1 44.8C230 36.5 216.5 32 202.7 32L64 32C28.7 32 0 60.7 0 96L0 384c0 35.3 28.7 64 64 64zM320 176l-40 0c-13.3 0-24 10.7-24 24l0 57.8c-5.1-1.2-10.5-1.8-16-1.8-35.3 0-64 25.1-64 56s28.7 56 64 56 64-25.1 64-56c0-1.3-.1-2.6-.2-3.9l.2 .1 0-84.2 16 0c13.3 0 24-10.7 24-24s-10.7-24-24-24z"/></svg>