<svg xmlns="http://www.w3.org/2000/svg" viewBox="0 0 512 512"><path fill="currentColor" d="M464 384c0 8.8-7.2 16-16 16L64 400c-8.8 0-16-7.2-16-16L48 96c0-8.8 7.2-16 16-16l138.7 0c3.5 0 6.8 1.1 9.6 3.2L250.7 112c1.8 1.4 3.7 2.7 5.7 3.9-.2 1.3-.3 2.7-.3 4.1l0 150.2c0 9.8 8 17.8 17.8 17.8 4 0 7.9-1.4 11.1-3.9L320 256 355.1 284.1c3.2 2.5 7.1 3.9 11.1 3.9 9.8 0 17.8-8 17.8-17.8l0-142.2 64 0c8.8 0 16 7.2 16 16l0 240zM64 448l384 0c35.3 0 64-28.7 64-64l0-240c0-35.3-28.7-64-64-64L298.7 80c-6.9 0-13.7-2.2-19.2-6.4L241.1 44.8C230 36.5 216.5 32 202.7 32L64 32C28.7 32 0 60.7 0 96L0 384c0 35.3 28.7 64 64 64z"/></svg>