<svg xmlns="http://www.w3.org/2000/svg" viewBox="0 0 512 512"><path fill="currentColor" d="M448 400L64 400c-8.8 0-16-7.2-16-16L48 96c0-8.8 7.2-16 16-16l138.7 0c3.5 0 6.8 1.1 9.6 3.2L250.7 112c13.8 10.4 30.7 16 48 16L448 128c8.8 0 16 7.2 16 16l0 240c0 8.8-7.2 16-16 16zM64 448l384 0c35.3 0 64-28.7 64-64l0-240c0-35.3-28.7-64-64-64L298.7 80c-6.9 0-13.7-2.2-19.2-6.4L241.1 44.8C230 36.5 216.5 32 202.7 32L64 32C28.7 32 0 60.7 0 96L0 384c0 35.3 28.7 64 64 64zM246.9 206.9c-9.5-9.5-22.5-14.9-36-14.9l-2.9 0c-26.5 0-48 21.5-48 48 0 53.4 66.9 95.7 89 108.2 4.4 2.5 9.6 2.5 14 0 22.1-12.5 89-54.8 89-108.2 0-26.5-21.5-48-48-48l-2.9 0c-13.5 0-26.5 5.4-36 14.9l-9.1 9.1-9.1-9.1z"/></svg>