<svg xmlns="http://www.w3.org/2000/svg" viewBox="0 0 512 512"><path fill="currentColor" d="M448 400L64 400c-8.8 0-16-7.2-16-16L48 96c0-8.8 7.2-16 16-16l138.7 0c3.5 0 6.8 1.1 9.6 3.2L250.7 112c13.8 10.4 30.7 16 48 16L448 128c8.8 0 16 7.2 16 16l0 240c0 8.8-7.2 16-16 16zM64 448l384 0c35.3 0 64-28.7 64-64l0-240c0-35.3-28.7-64-64-64L298.7 80c-6.9 0-13.7-2.2-19.2-6.4L241.1 44.8C230 36.5 216.5 32 202.7 32L64 32C28.7 32 0 60.7 0 96L0 384c0 35.3 28.7 64 64 64zM192 160a32 32 0 1 0 -64 0 32 32 0 1 0 64 0zM156.6 352l198.8 0c15.8 0 28.6-12.8 28.6-28.6 0-7.3-2.8-14.4-7.9-19.7L279.3 201.9c-6-6.4-14.4-9.9-23.2-9.9l-.3 0c-8.8 0-17.1 3.6-23.2 9.9L135.9 303.7c-5.1 5.3-7.9 12.4-7.9 19.7 0 15.8 12.8 28.6 28.6 28.6z"/></svg>