<svg xmlns="http://www.w3.org/2000/svg" viewBox="0 0 576 512"><path fill="currentColor" d="M80 168l0 104 128 0 0-104c0-30.9-25.1-56-56-56l-16 0c-30.9 0-56 25.1-56 56zm0 152l0 104c0 13.3-10.7 24-24 24s-24-10.7-24-24l0-256C32 110.6 78.6 64 136 64l16 0c57.4 0 104 46.6 104 104l0 256c0 13.3-10.7 24-24 24s-24-10.7-24-24l0-104-128 0zm344-80c-30.9 0-56 25.1-56 56l0 48c0 30.9 25.1 56 56 56l16 0c30.9 0 56-25.1 56-56l0-48c0-30.9-25.1-56-56-56l-16 0zm73-31c3-9.8 12.1-17 23-17 13.3 0 24 10.7 24 24l0 118.5c0 24.9 4 49.7 11.9 73.4l2.9 8.6c4.2 12.6-2.6 26.2-15.2 30.4s-26.2-2.6-30.4-15.2l-2.9-8.6c-.2-.6-.4-1.2-.6-1.9-18.5 16.7-42.9 26.9-69.8 26.9l-16 0c-57.4 0-104-46.6-104-104l0-48c0-57.4 46.6-104 104-104l16 0c21.1 0 40.7 6.3 57 17z"/></svg>