<svg xmlns="http://www.w3.org/2000/svg" viewBox="0 0 576 512"><path fill="currentColor" d="M245.9-32c94.6 0 171.2 76.7 171.2 171.2 0 39.7-13.8 78.1-38.9 108.7l-3.8 4.6 73.9 133.2 44.5 6c47.6 6.4 83.2 47.1 83.2 95.2l0 1c0 30.9-25.1 56-56 56l-125.9 0c-27.5 0-54.6-7.5-78.2-21.7L131.1 411.4C75.8 378.2 56.6 307.2 87.7 250.7l14.4-26.2C79.1 208.6 64 182.1 64 152l0-27.4C27.1 114.1 0 80.3 0 40L0 13.7C0-11.5 20.5-32 45.7-32l200.2 0zM48 40c0 22.1 17.9 40 40 40l144 0c13.3 0 24 10.7 24 24s-10.7 24-24 24l-120 0 0 24c0 22.1 17.9 40 40 40l61.1 0c13.3 0 24 10.7 24 24s-10.7 24-24 24L152 240c-1.2 0-2.4-.1-3.6-.2l-18.7 34c-18.7 33.9-7.2 76.5 26 96.4L340.6 481.2c16.2 9.7 34.7 14.8 53.5 14.8L520 496c4.4 0 8-3.6 8-8l0-1c0-24-17.8-44.4-41.6-47.6L430 431.8c-7.5-1-14.1-5.5-17.8-12.2l-70.5-127.2-15.3 18.7c-8.4 10.2-23.5 11.7-33.8 3.3s-11.7-23.5-3.3-33.8l51.9-63.2c18.1-22.1 28-49.7 28-78.3 0-68.1-55.2-123.2-123.2-123.2L48 16 48 40z"/></svg>