<svg xmlns="http://www.w3.org/2000/svg" viewBox="0 0 512 512"><path fill="currentColor" d="M72.6 148.4C133.9 54.5 249.3-4.3 443.3 22.5l4.2 .8c21.1 4.6 38.5 21.6 42.1 44.2L491.9 84c10.6 84.6 3.3 194.1-52.5 279.6-59.4 91-169.5 148.9-352.7 128.1l-18-2.2c-21.5-3-40-18.7-45.4-40.5l-.9-4.4C8.8 358.2 13.1 239.6 72.6 148.4zM64.1 354c-.5 29 1.7 57.3 5.8 83.1l.6 1.5c.8 1.5 2.5 2.9 4.9 3.3L92 444c23.5 2.7 45.5 3.9 66 3.9l-94-94zM290.4 68.4c-89.4 13.3-144.3 55.2-177.6 106.2-22.8 35-36.3 75.6-43.2 117.1L221.5 443.6c89.4-13.3 144.4-55.1 177.7-106.2 22.8-35 36.3-75.6 43.2-117.1L290.4 68.4zM143 271c8.8-8.8 22.7-9.3 32.1-1.7l1.8 1.7 64 64 1.7 1.8c7.7 9.4 7.1 23.3-1.7 32.1s-22.7 9.3-32.1 1.7l-1.8-1.7-64-64-1.7-1.8c-7.7-9.4-7.1-23.3 1.7-32.1zm64-64c8.8-8.8 22.7-9.3 32.1-1.7l1.8 1.7 64 64 1.7 1.8c7.7 9.4 7.1 23.3-1.7 32.1s-22.7 9.3-32.1 1.7l-1.8-1.7-64-64-1.7-1.8c-7.7-9.4-7.1-23.3 1.7-32.1zm64-64c8.8-8.8 22.7-9.3 32.1-1.7l1.8 1.7 64 64 1.7 1.8c7.7 9.4 7.1 23.3-1.7 32.1s-22.7 9.3-32.1 1.7l-1.8-1.7-64-64-1.7-1.8c-7.7-9.4-7.1-23.3 1.7-32.1zm82.9-79l93.9 93.9c.4-23.3-.9-46.1-3.5-67.6l-2.2-15.4c-.2-1.5-1.4-3.2-3.3-4.2l-2.2-.7C406.8 66 379.3 64 353.9 64z"/></svg>