<svg xmlns="http://www.w3.org/2000/svg" viewBox="0 0 512 512"><path fill="currentColor" d="M256 0c119.6 0 219.9 82 248.1 192.8 4.3 17.1-8.3 33.2-25.8 35.4l-127.1 15.9 27.8 91.9 77 0c30.9 0 56 25.1 56 56l0 73.8c0 25.5-20.7 46.2-46.2 46.2-49.7 0-93.5-32.5-107.9-80l-14.5-48-41.3 0c1.2 5 1.9 10.1 1.9 15.3 0 35.7-29 64.7-64.7 64.7l-1.9 0c-8.8 0-17.5-1.7-25.7-5.1L44.9 389.4c-4.8-2-9-5.1-12.3-9.2l-2.8-4.3C10.8 340.1 0 299.3 0 256 0 114.6 114.6 0 256 0zM403.9 418.1c8.1 26.7 32.4 45.1 60.1 45.8l0-71.9c0-4.4-3.6-8-8-8l-62.4 0 10.3 34.1zM256 48c-114.9 0-208 93.1-208 208 0 32.9 7.7 63.9 21.3 91.5l160.8 67 3.5 1.1c1.2 .2 2.4 .4 3.7 .4l1.9 0c8.1 0 14.8-5.7 16.4-13.3l.3-3.4c0-2.6-.6-5.1-1.8-7.5l0 0-38.1-76.3-1.8-4c-3.5-8.1-5.6-16.8-6.1-25.8l-.1-4.5c0-38.7 28.8-71.2 67.1-76l175.7-22C421.3 104.2 345.2 48 256 48zM160 352a32 32 0 1 1 0-64 32 32 0 1 1 0 64zm121.1-99.1c-14.3 1.8-25.1 14-25.1 28.4 0 4.4 1 8.8 3 12.8l21 42 48.8 0-26-85.9-21.8 2.7z"/></svg>