<svg xmlns="http://www.w3.org/2000/svg" viewBox="0 0 512 512"><path fill="currentColor" d="M403.3 9.6c8 10.6 5.8 25.6-4.8 33.6l-122.7 92c-17.2 12.9-27.7 32.5-27.7 52.8 0 16.7 6.6 32.7 18.4 44.5l13.1 13.1c11.8 11.8 27.8 18.4 44.5 18.4 20.2 0 39.9-10.5 52.8-27.7l92-122.7c8-10.6 23-12.8 33.6-4.8s12.8 23 4.8 33.6l-92 122.7c-21 27.9-54.3 46.9-91.2 46.9-24.5 0-48.1-8.1-67.3-22.8L41.1 505c-9.4 9.4-24.6 9.4-33.9 0s-9.4-24.6 0-33.9L222.9 255.3c-14.7-19.2-22.8-42.8-22.8-67.3 0-36.9 19-70.2 46.9-91.2l122.7-92c10.6-8 25.6-5.8 33.6 4.8zM457.1 55c9.4 9.4 9.4 24.6 0 33.9l-116 116c-9.4 9.4-24.6 9.4-33.9 0s-9.4-24.6 0-33.9l116-116c9.4-9.4 24.6-9.4 33.9 0zM382.8 348.8L505.1 471c9.4 9.4 9.4 24.6 0 33.9s-24.6 9.4-33.9 0l-145-145c19.6-.3 38.8-4.1 56.7-11.2zM152.1 186L58.2 92.1c-19.4 33.6-14.7 77.4 14 106.2l69.9 69.9-33.9 33.9-69.9-69.9c-53.1-53.1-53.1-139.2 0-192.3l.8-.8c9.4-9.4 24.6-9.4 33.9 0l90.3 90.3c-7.1 17.9-11 37.1-11.2 56.7z"/></svg>