<svg xmlns="http://www.w3.org/2000/svg" viewBox="0 0 512 512"><path fill="currentColor" d="M398.4 43.2c10.6-8 12.8-23 4.8-33.6s-23-12.8-33.6-4.8l-122.7 92c-27.9 20.9-46.9 54.3-46.9 91.2 0 24.5 8.1 48.1 22.8 67.3L7 471c-9.4 9.4-9.4 24.6 0 33.9s24.6 9.4 33.9 0L256.7 289.2c19.2 14.7 42.8 22.8 67.3 22.8 36.9 0 70.2-19 91.2-46.9l92-122.7c8-10.6 5.8-25.6-4.8-33.6s-25.6-5.8-33.6 4.8l-92 122.7c-12.9 17.2-32.6 27.7-52.8 27.7-16.7 0-32.7-6.6-44.5-18.4l-13.1-13.1c-11.8-11.8-18.4-27.8-18.4-44.5 0-20.2 10.5-39.9 27.7-52.8l122.7-92zM457 89c9.4-9.4 9.4-24.6 0-33.9s-24.6-9.4-33.9 0L307 171c-9.4 9.4-9.4 24.6 0 33.9s24.6 9.4 33.9 0L457 89z"/></svg>