<svg xmlns="http://www.w3.org/2000/svg" viewBox="0 0 576 512"><path fill="currentColor" d="M24 32c13.3 0 24 10.7 24 24l0 40 56 0 0-40c0-13.3 10.7-24 24-24s24 10.7 24 24l0 40 56 0 0-40c0-13.3 10.7-24 24-24s24 10.7 24 24l0 104 64 0 0-104c0-13.3 10.7-24 24-24s24 10.7 24 24l0 40 56 0 0-40c0-13.3 10.7-24 24-24s24 10.7 24 24l0 40 56 0 0-40c0-13.3 10.7-24 24-24s24 10.7 24 24l0 152c0 20.9-13.4 38.7-32 45.3L544 448c0 35.3-28.7 64-64 64L96 512c-35.3 0-64-28.7-64-64l0-194.7C13.4 246.7 0 228.9 0 208L0 56C0 42.7 10.7 32 24 32zM208 256l-128 0 0 192c0 8.8 7.2 16 16 16l128 0 0-80c0-35.3 28.7-64 64-64s64 28.7 64 64l0 80 128 0c8.8 0 16-7.2 16-16l0-192-128 0c-26.5 0-48-21.5-48-48l-64 0c0 26.5-21.5 48-48 48zm0-112l-160 0 0 64 160 0 0-64zm160 64l160 0 0-64-160 0 0 64z"/></svg>