<svg xmlns="http://www.w3.org/2000/svg" viewBox="0 0 512 512"><path fill="currentColor" d="M512 88c0-13.3-10.7-24-24-24l-40 0 0-40c0-13.3-10.7-24-24-24s-24 10.7-24 24l0 40-288 0 0-40c0-13.3-10.7-24-24-24S64 10.7 64 24l0 40-40 0C10.7 64 0 74.7 0 88s10.7 24 24 24l40 0 0 288-40 0c-13.3 0-24 10.7-24 24s10.7 24 24 24l40 0 0 40c0 13.3 10.7 24 24 24s24-10.7 24-24l0-40 288 0 0 40c0 13.3 10.7 24 24 24s24-10.7 24-24l0-40 40 0c13.3 0 24-10.7 24-24s-10.7-24-24-24l-40 0 0-288 40 0c13.3 0 24-10.7 24-24zM112 400l0-288 288 0 0 288-288 0z"/></svg>