<svg xmlns="http://www.w3.org/2000/svg" viewBox="0 0 384 512"><path fill="currentColor" d="M149.1-25C138.7-28.4 128-20.7 128-9.8l0 219.7c14.3 6.6 30.6 11.4 48 13.3L176-4.5c0-6.9-4.4-13-10.9-15.2l-16-5.3zM96 43.5c0-6.9-4.4-13-10.9-15.2L69.1 23C58.7 19.6 48 27.3 48 38.2l0 109.9c13.6 4.8 25.9 13.7 34.7 26.3 3.6 5.1 8.1 10 13.3 14.7L96 43.5zm240 0c0-6.9-4.4-13-10.9-15.2l-16-5.3C298.7 19.6 288 27.3 288 38.2l0 150.2c5.7-4.8 10.1-9.6 13.3-14.1 8.9-12.5 21.1-21.4 34.7-26.3l0-104.6zm-80-5.3C256 27.3 245.3 19.6 235 23l-16 5.3c-6.5 2.2-10.9 8.3-10.9 15.2l0 179.3c14.9-2 31.5-6.7 47.5-14.2l.5-.2 0-170.3zM43.6 202.1c-6.7-9.5-19.3-12.8-29.8-7.9s-16 16.7-13 27.9L58.5 438.4C65 462.9 87.2 480 112.6 480l158.8 0c25.4 0 47.6-17.1 54.1-41.6l57.7-216.2c3-11.2-2.5-23-13-27.9s-23.1-1.6-29.8 7.9c-14 19.7-37.1 37.4-64.7 50.1-27.5 12.7-57.6 19.7-83.7 19.7-61.4 0-119.5-29-148.4-69.9zm61.3 223.9L67.7 286.6c36.5 21.3 80.2 33.4 124.3 33.4 34 0 70.9-8.9 103.8-24.2 7.1-3.3 14.1-6.9 20.9-10.9L279.2 426.1c-.9 3.5-4.1 5.9-7.7 5.9l-158.8 0c-3.6 0-6.8-2.4-7.7-5.9z"/></svg>