<svg xmlns="http://www.w3.org/2000/svg" viewBox="0 0 576 512"><path fill="currentColor" d="M322.4 113C316.5 130.8 300.8 143.6 282.1 145.7 150.4 160.5 48 272.3 48 408l0 16c0 4.4 3.6 8 8 8l182.1 0c.3-.3 .6-.7 .9-1l56.8-56.8c10.4-10.3 16.2-24.4 16.2-39 0-30.5-24.7-55.2-55.2-55.2-14.6 0-28.7 5.8-39 16.2L169 345c-9.4 9.4-24.6 9.4-33.9 0s-9.4-24.6 0-33.9l48.8-48.8c19.4-19.4 45.6-30.2 73-30.2 50.2 0 92 35.8 101.3 83.2 3-6.3 7.4-11.9 12.9-16.4 4.6-3.8 9.5-7.3 14.5-10.5l135.9-86.5c4.1-2.6 6.5-7.1 6.5-11.9 0-6.2-4-11.7-10-13.5l-70-21.5c-16.8-5.2-29.5-19.1-32.9-36.4-4.4-21.9-23.9-38.4-47.1-38.4-21.2 0-39.3 13.8-45.6 33zM434.1 371.3l54 58.1c1.5 1.6 3.6 2.6 5.9 2.6l58 0c13.3 0 24 10.7 24 24s-10.7 24-24 24l-58 0c-15.6 0-30.4-6.5-41-17.9-90.3-97.3-64.9-69.8-85-91.5-15.5 16.6-46.2 49.7-57.1 61.4l49.1 0c4.7 0 9.2 1.4 12.9 3.7 6.7 4.3 11.1 11.7 11.1 20.3 0 .8 0 1.5-.1 2.3-1.2 12.2-11.4 21.7-23.9 21.7L56 480c-30.9 0-56-25.1-56-56l0-16c0-160.4 121.1-292.5 276.8-310 12.6-38.3 48.7-66 91.2-66 46.5 0 85.3 33.1 94.1 77l70 21.5c26.1 8 43.9 32.1 43.9 59.4 0 21.2-10.9 41-28.8 52.4-82.6 52.5-127.9 81.4-135.9 86.5-3.5 2.2-6.8 4.6-9.9 7.2l1.7 1.9 0 0 31 33.4zM368 120a24 24 0 1 1 0 48 24 24 0 1 1 0-48z"/></svg>