<svg xmlns="http://www.w3.org/2000/svg" viewBox="0 0 512 512"><path fill="currentColor" d="M160 184c0-68.3 50.4-124.9 116.1-134.5-31.2 28.4-51.6 66.6-58 108.1-1.4 9.3 2.7 18.6 10.6 23.7s18.1 5.2 26 .1c21.1-13.5 46.2-21.4 73.2-21.4 68.3 0 124.9 50.4 134.6 116.1-28.4-31.2-66.6-51.6-108.1-58-9.3-1.4-18.6 2.7-23.7 10.6s-5.2 18.1-.1 26c13.5 21.1 21.4 46.2 21.4 73.2 0 68.3-50.4 124.9-116.1 134.5 31.2-28.4 51.6-66.6 58-108.1 1.4-9.3-2.7-18.6-10.6-23.7s-18.1-5.2-26-.1c-21.1 13.5-46.2 21.4-73.2 21.4-68.3 0-124.9-50.4-134.5-116.1 28.4 31.2 66.6 51.6 108.1 58 9.3 1.4 18.6-2.7 23.7-10.6s5.2-18.1 .1-26C167.8 236.1 160 211 160 184zM296 0c-101.6 0-184 82.4-184 184 0 15.9 2 31.3 5.8 46-16.4-9.4-30.8-22.2-42.2-37.9l-13-17.9c-6.5-9-16.9-14.2-28-14.2-19.1 0-34.6 15.5-34.6 34.6L0 216c0 101.6 82.4 184 184 184 15.9 0 31.3-2 46-5.8-9.4 16.4-22.2 30.8-37.9 42.2l-17.9 13c-9 6.5-14.2 16.9-14.2 28 0 19.1 15.5 34.6 34.6 34.6l21.4 0c101.6 0 184-82.4 184-184 0-15.9-2-31.3-5.8-46 16.4 9.4 30.8 22.2 42.2 37.9l13 17.9c6.5 9 16.9 14.2 28 14.2 19.1 0 34.6-15.5 34.6-34.6l0-21.4c0-101.6-82.4-184-184-184-15.9 0-31.3 2-46 5.8 9.4-16.4 22.2-30.8 37.9-42.2l17.9-13 0 0c9-6.5 14.2-16.9 14.2-28 0-19.1-15.5-34.6-34.6-34.6L296 0zM256 288a32 32 0 1 0 0-64 32 32 0 1 0 0 64z"/></svg>