<svg xmlns="http://www.w3.org/2000/svg" viewBox="0 0 576 512"><path fill="currentColor" d="M512 112c8.8 0 16 7.2 16 16l0 96c0 8.8-7.2 16-16 16L64 240c-8.8 0-16-7.2-16-16l0-96c0-8.8 7.2-16 16-16l448 0zM64 64C28.7 64 0 92.7 0 128l0 96c0 35.3 28.7 64 64 64l448 0c35.3 0 64-28.7 64-64l0-96c0-35.3-28.7-64-64-64L64 64zM0 384l0 32c0 17.7 14.3 32 32 32l32 0c17.7 0 32-14.3 32-32l0-32c0-17.7-14.3-32-32-32l-32 0c-17.7 0-32 14.3-32 32zm192-32c-17.7 0-32 14.3-32 32l0 32c0 17.7 14.3 32 32 32l32 0c17.7 0 32-14.3 32-32l0-32c0-17.7-14.3-32-32-32l-32 0zm128 32l0 32c0 17.7 14.3 32 32 32l32 0c17.7 0 32-14.3 32-32l0-32c0-17.7-14.3-32-32-32l-32 0c-17.7 0-32 14.3-32 32zm192-32c-17.7 0-32 14.3-32 32l0 32c0 17.7 14.3 32 32 32l32 0c17.7 0 32-14.3 32-32l0-32c0-17.7-14.3-32-32-32l-32 0z"/></svg>