<svg xmlns="http://www.w3.org/2000/svg" viewBox="0 0 576 512"><path fill="currentColor" d="M360 32c119.3 0 216 96.7 216 216l0 129c0 56.9-46.1 103-103 103-44.3 0-83.7-28.4-97.8-70.4l-8.5-25.6-157.4 0-8.5 25.6C186.8 451.6 147.4 480 103 480 46.1 480 0 433.9 0 377L0 248C0 128.7 96.7 32 216 32l144 0zM216 80C123.2 80 48 155.2 48 248l0 129c0 30.4 24.6 55 55 55 23.7 0 44.7-15.2 52.2-37.6l14-42 1.5-3.5C174.8 341.1 183 336 192 336l192 0c10.3 0 19.5 6.6 22.8 16.4l14 42c7.5 22.5 28.5 37.6 52.2 37.6 30.4 0 55-24.6 55-55l0-129c0-92.8-75.2-168-168-168L216 80zm-56 72c13.3 0 24 10.7 24 24l0 24 24 0c13.3 0 24 10.7 24 24s-10.7 24-24 24l-24 0 0 24c0 13.3-10.7 24-24 24s-24-10.7-24-24l0-24-24 0c-13.3 0-24-10.7-24-24s10.7-24 24-24l24 0 0-24c0-13.3 10.7-24 24-24zM384 288a32 32 0 1 1 0-64 32 32 0 1 1 0 64zm48-80a32 32 0 1 1 0-64 32 32 0 1 1 0 64z"/></svg>