<svg xmlns="http://www.w3.org/2000/svg" viewBox="0 0 576 512"><path fill="currentColor" d="M574.9 144c-4-21.5-18.8-39.8-39.7-47.9L305.4 6.8c-11.2-4.4-23.6-4.4-34.8 0L40.8 96.1C19.9 104.2 5.1 122.5 1.1 144 .4 147.8 0 151.8 0 155.8L0 488c0 13.3 10.7 24 24 24s24-10.7 24-24l0-296 480 0 0 296c0 13.3 10.7 24 24 24s24-10.7 24-24l0-332.2c0-4-.4-7.9-1.1-11.8zM53.2 144c1.4-1.3 3.1-2.4 5-3.1L288 51.5 517.8 140.9c1.9 .7 3.6 1.8 5 3.1L53.2 144zM176 416l0-32 224 0 0 32-224 0zm0 48l224 0 0 22c0 13.3 10.7 24 24 24s24-10.7 24-24l0-115.6c0-11.9-2.4-23.6-7-34.4l-306 0c-4.6 10.8-7 22.5-7 34.4L128 486c0 13.3 10.7 24 24 24s24-10.7 24-24l0-22zM120 240c-13.3 0-24 10.7-24 24s10.7 24 24 24l336 0c13.3 0 24-10.7 24-24s-10.7-24-24-24l-336 0z"/></svg>