<svg xmlns="http://www.w3.org/2000/svg" viewBox="0 0 512 512"><path fill="currentColor" d="M376 131.2c-15.2-12.1-24-30.5-24-50L352 48c0-26.5-21.5-48-48-48L208 0c-23.8 0-43.5 17.3-47.3 40l-.7 0 0 41.2c0 19.4-8.8 37.8-24 50L52.7 197.8C19.4 224.5 0 264.8 0 307.5 0 383.6 60.5 445.6 136 447.9l0 40.1c0 13.3 10.7 24 24 24s24-10.7 24-24l0-40 16 0 0 40c0 13.3 10.7 24 24 24s24-10.7 24-24l0-40 16 0 0 40c0 13.3 10.7 24 24 24s24-10.7 24-24l0-40 16 0 0 40c0 13.3 10.7 24 24 24s24-10.7 24-24l0-40.1c75.5-2.4 136-64.3 136-140.4 0-42.7-19.4-83-52.7-109.7L376 131.2zM208 48l24 0 0 35.2c0 49.8 15.5 98.3 44.5 138.8l17.4 24.4c11.8 16.5 18.1 36.2 18.1 56.5l0 6.4c0 50.1-40.7 90.8-90.8 90.8-48.4 0-88.3-37.9-90.7-86.3l-.4-8.1c-1.1-22.4 5.4-44.4 18.4-62.7l16.7-23.4C193 180.6 208 133.9 208 86l0-38zm72 0l24 0 0 33.2c0 34 15.5 66.2 42 87.5l83.3 66.6c21.9 17.6 34.7 44.1 34.7 72.2 0 51.1-41.4 92.5-92.5 92.5l-45.3 0c21.1-24.3 33.8-56.1 33.8-90.8l0-6.4c0-30.3-9.5-59.8-27-84.4l-17.4-24.4C292.4 161.7 280 122.9 280 83.2L280 48zM112.7 395.8c-37.5-11.8-64.7-46.8-64.7-88.2 0-28.1 12.8-54.7 34.7-72.2l28.7-23-2 2.8c-19.3 27-28.9 59.8-27.2 93l.4 8.1c1.5 30.1 12.5 57.6 30.1 79.6z"/></svg>