<svg xmlns="http://www.w3.org/2000/svg" viewBox="0 0 640 512"><path fill="currentColor" d="M416 48c8.8 0 16 7.2 16 16l0 128-192 0 0-128c0-8.8 7.2-16 16-16l160 0zm16 416l-192 0 0-224 192 0 0 224zM256 0c-35.3 0-64 28.7-64 64l0 400c0 26.5 21.5 48 48 48l192 0c26.5 0 48-21.5 48-48l0-160 8 0c13.3 0 24 10.7 24 24l0 24c0 35.3 28.7 64 64 64s64-28.7 64-64l0-195.6c0-13.9-5.2-27.4-14.6-37.7L553.8 39.9c-8.9-9.8-24.1-10.5-33.9-1.6s-10.5 24.1-1.6 33.9l25.8 28.3 0 59.5c0 29.8 20.4 54.9 48 62l0 130c0 8.8-7.2 16-16 16s-16-7.2-16-16l0-24c0-39.8-32.2-72-72-72l-8 0 0-192c0-35.3-28.7-64-64-64L256 0zM99.1 164.2l-93 78.7C2.2 246.1 0 250.9 0 256s2.2 9.9 6.1 13.2l93 78.7c3.2 2.7 7.2 4.2 11.3 4.2 9.7 0 17.6-7.9 17.6-17.6l0-156.9c0-9.7-7.9-17.6-17.6-17.6-4.2 0-8.2 1.5-11.3 4.2z"/></svg>