<svg xmlns="http://www.w3.org/2000/svg" viewBox="0 0 576 512"><path fill="currentColor" d="M41-24.9c-9.4-9.4-24.6-9.4-33.9 0S-2.3-.3 7 9.1l528 528c9.4 9.4 24.6 9.4 33.9 0s9.4-24.6 0-33.9l-67.7-67.7C526.9 420.1 544 392 544 360l0-203.6c0-13.9-5.2-27.4-14.6-37.7L457.8 39.9c-8.9-9.8-24.1-10.5-33.9-1.6s-10.5 24.1-1.6 33.9l25.8 28.3 0 59.5c0 29.8 20.4 54.9 48 62l0 138c0 19-13.3 35-31.1 39L352 286.2 352 64c0-35.3-28.7-64-64-64L128 0C110.8 0 95.2 6.8 83.7 17.8L41-24.9zm76.7 76.7c2.8-2.4 6.4-3.8 10.4-3.8l160 0c8.8 0 16 7.2 16 16l0 174.2-186.4-186.4zM112 464l0-282.2-48-48 0 331.5c-9.3 3.3-16 12.2-16 22.6s6.7 19.3 16 22.6l0 1.4 288 0 0-1.4c9.3-3.3 16-12.2 16-22.6s-6.7-19.3-16-22.6l0-43.5-48-48 0 90.2-192 0z"/></svg>