<svg xmlns="http://www.w3.org/2000/svg" viewBox="0 0 640 512"><path fill="currentColor" d="M288 464c8.9 0 17.7-.6 26.3-1.7 5.5 16.1 13.1 31.2 22.4 45-15.8 3-32.1 4.6-48.8 4.6-141.4 0-256-114.6-256-256S146.6 0 288 0c126.8 0 232.1 92.2 252.4 213.2-14.3-3.4-29.1-5.2-44.4-5.2-1.9 0-3.7 0-5.5 .1-21.6-91.8-104.1-160.1-202.5-160.1-114.9 0-208 93.1-208 208s93.1 208 208 208zm0-56c-30.9 0-56-25.1-56-56 0-22.3 13.1-41.6 32-50.6L264 128c0-13.3 10.7-24 24-24s24 10.7 24 24l0 173.4c5.1 2.4 9.8 5.6 13.9 9.4-14 26.7-21.9 57-21.9 89.2 0 1.9 0 3.8 .1 5.7-5.1 1.5-10.5 2.3-16.1 2.3zM192 128a32 32 0 1 1 0 64 32 32 0 1 1 0-64zM112 256a32 32 0 1 1 64 0 32 32 0 1 1 -64 0zm240-96a32 32 0 1 1 64 0 32 32 0 1 1 -64 0zm0 240a144 144 0 1 1 288 0 144 144 0 1 1 -288 0zm177.4-77c-5.8-4.2-13.8-4-19.4 .5l-80 64c-5.3 4.2-7.4 11.4-5.1 17.8S433.2 416 440 416l32.9 0-15.9 42.4c-2.5 6.7-.2 14.3 5.6 18.6s13.8 4 19.4-.5l80-64c5.3-4.2 7.4-11.4 5.1-17.8S558.8 384 552 384l-32.9 0 15.9-42.4c2.5-6.7 .2-14.3-5.6-18.6z"/></svg>