<svg xmlns="http://www.w3.org/2000/svg" viewBox="0 0 512 512"><path fill="currentColor" d="M256 464a208 208 0 1 0 0-416 208 208 0 1 0 0 416zM256 0a256 256 0 1 1 0 512 256 256 0 1 1 0-512zm32 112a32 32 0 1 1 -64 0 32 32 0 1 1 64 0zM256 408c-30.9 0-56-25.1-56-56 0-14.4 5.4-27.5 14.4-37.5L153.8 169.2c-5.1-12.2 .7-26.3 12.9-31.4s26.3 .7 31.4 12.9l60.5 145.3c29.7 1.4 53.3 25.9 53.3 55.9 0 30.9-25.1 56-56 56zM384 160a32 32 0 1 1 -64 0 32 32 0 1 1 64 0zm16 64a32 32 0 1 1 0 64 32 32 0 1 1 0-64zM144 256a32 32 0 1 1 -64 0 32 32 0 1 1 64 0z"/></svg>