<svg xmlns="http://www.w3.org/2000/svg" viewBox="0 0 640 512"><path fill="currentColor" d="M280 464c11.6 0 22.9-.9 34-2.8 5.4 15.9 12.7 30.9 21.8 44.7-18 4-36.6 6.1-55.8 6.1-141.4 0-256-114.6-256-256S138.6 0 280 0c126.2 0 231 91.3 252.1 211.4-11.7-2.2-23.8-3.4-36.1-3.4-4.5 0-9 .2-13.5 .5-21.5-92-104-160.5-202.5-160.5-114.9 0-208 93.1-208 208s93.1 208 208 208zm0-56c-30.9 0-56-25.1-56-56 0-25.4 16.9-46.8 40-53.7L264 128c0-13.3 10.7-24 24-24s24 10.7 24 24l0 178c4.2 2.9 7.9 6.4 11.2 10.3-12.3 25.3-19.2 53.7-19.2 83.7 0 .9 0 1.7 0 2.6-7.3 3.5-15.4 5.4-24 5.4zM402.6 232.2c4.2-3.8 9.4-6.5 15.2-7.6-5.2 2.3-10.2 4.9-15.2 7.6zM184 128a32 32 0 1 1 0 64 32 32 0 1 1 0-64zM104 256a32 32 0 1 1 64 0 32 32 0 1 1 -64 0zm240-96a32 32 0 1 1 64 0 32 32 0 1 1 -64 0zm152 96a144 144 0 1 1 0 288 144 144 0 1 1 0-288zm16 80c0-8.8-7.2-16-16-16s-16 7.2-16 16l0 48-48 0c-8.8 0-16 7.2-16 16s7.2 16 16 16l48 0 0 48c0 8.8 7.2 16 16 16s16-7.2 16-16l0-48 48 0c8.8 0 16-7.2 16-16s-7.2-16-16-16l-48 0 0-48z"/></svg>