<svg xmlns="http://www.w3.org/2000/svg" viewBox="0 0 320 512"><path fill="currentColor" d="M173.5 32C74.7 32 8.9 134 49.5 224l7.2 16-32.8 0c-13.3 0-24 10.7-24 24s10.7 24 24 24l46.1 0c1.5 23.4-3.8 47.1-15.9 68L3.2 444c-4.3 7.4-4.3 16.6 0 24S15.4 480 24 480l272 0c13.3 0 24-10.7 24-24s-10.7-24-24-24l-230.4 0 30.1-52c16.4-28.3 23.9-60.3 22.4-92L264 288c13.3 0 24-10.7 24-24s-10.7-24-24-24l-155.2 0c-1.6-4.5-3.4-8.9-5.3-13.3L93.3 204.2C67 146 109.6 80 173.5 80l6.9 0c14.4 0 28.7 3.4 41.6 9.8l39.3 19.6c11.9 5.9 26.3 1.1 32.2-10.7s1.1-26.3-10.7-32.2L243.4 46.9C223.9 37.1 202.3 32 180.4 32l-6.9 0z"/></svg>