<svg xmlns="http://www.w3.org/2000/svg" viewBox="0 0 640 512"><path fill="currentColor" d="M170.6-20.6c10.3-20.2 33.3-30.5 55.2-24.7L250-38.8c21.9 5.9 36.7 26.3 35.5 49l-1 17.8c2.7 2.5 5.3 5.1 7.8 7.8l17.8-1c22.7-1.2 43.1 13.6 49 35.5l6.5 24.2c5.9 21.9-4.4 45-24.7 55.2l-15.9 8.1c-.8 3.6-1.8 7.2-2.9 10.7l9.7 14.9c12.4 19 9.8 44.1-6.3 60.2L308 261.3c-16.1 16.1-41.1 18.7-60.2 6.3l-14.9-9.7c-3.5 1.1-7.1 2.1-10.7 2.9l-8.1 15.9c-10.3 20.2-33.3 30.5-55.2 24.7l-24.2-6.5c-21.9-5.9-36.7-26.3-35.5-49l1-17.8c-2.7-2.5-5.3-5.1-7.8-7.8l-17.8 1c-22.7 1.2-43.1-13.6-49-35.5l-6.5-24.2c-5.9-21.9 4.4-45 24.7-55.2l0 0 15.9-8.1c.8-3.6 1.8-7.2 2.9-10.7L52.8 72.6c-12.4-19-9.8-44.1 6.3-60.2L76.8-5.3C92.8-21.4 117.9-24 137-11.6l14.9 9.7c3.5-1.1 7.1-2.1 10.7-2.9l8.1-15.9zm67 28.2l-24.2-6.5-13.5 26.6c-3.6 7.1-10.5 12-18.4 13-8.1 1-15.9 3.1-23.3 6.3-7.4 3.1-15.8 2.4-22.5-2l-25-16.3-17.7 17.7 16.3 25c4.4 6.7 5.1 15.1 2 22.4-1.5 3.7-2.9 7.5-3.9 11.5s-1.8 8-2.3 11.9c-1 7.9-5.9 14.8-13 18.4l-26.6 13.5 6.5 24.2 29.8-1.6c8-.4 15.6 3.1 20.5 9.5 4.9 6.4 10.6 12.2 17.1 17.1 6.4 4.8 9.9 12.5 9.5 20.4l-1.6 29.7 24.2 6.5 13.5-26.6c3.6-7.1 10.5-12 18.4-13 8.1-1 15.9-3.1 23.3-6.3 7.4-3.1 15.8-2.4 22.5 2l25 16.3 17.7-17.7-16.3-25c-4.4-6.7-5.1-15.1-2-22.4 1.5-3.7 2.9-7.5 3.9-11.5s1.8-8 2.3-11.9c1-7.9 5.9-14.8 13-18.4l26.6-13.5-6.5-24.2-29.8 1.6c-8 .4-15.6-3.1-20.5-9.5-4.9-6.4-10.6-12.2-17.1-17.1-6.4-4.8-9.9-12.5-9.5-20.4l1.6-29.7zM161.5 119.7a32 32 0 1 1 61.8 16.6 32 32 0 1 1 -61.8-16.6zM355.2 266.2c-1.2-22.7 13.6-43.1 35.5-49l24.2-6.5c21.9-5.9 45 4.4 55.2 24.7l8.1 15.9c3.6 .8 7.2 1.8 10.7 2.9l14.9-9.7c19-12.4 44.1-9.8 60.2 6.3l17.7 17.7c16.1 16.1 18.7 41.2 6.3 60.2l-9.7 14.9c1.1 3.5 2.1 7.1 2.9 10.7l15.9 8.1c20.2 10.3 30.5 33.3 24.7 55.2l-6.5 24.2c-5.9 21.9-26.3 36.7-49 35.5l-17.8-1c-2.5 2.7-5.1 5.3-7.8 7.8l1 17.8c1.2 22.7-13.6 43.1-35.5 49l-24.2 6.5c-21.9 5.9-45-4.4-55.2-24.7l-8.1-15.9c-3.6-.8-7.2-1.8-10.7-2.9L393 523.6c-19 12.4-44.1 9.8-60.2-6.3l-17.7-17.7c-16.1-16.1-18.7-41.1-6.3-60.2l9.7-14.9c-1.1-3.5-2.1-7.1-2.9-10.7l-15.9-8.1c-20.2-10.3-30.5-33.3-24.7-55.2l6.5-24.2c5.9-21.9 26.3-36.7 49-35.5l17.8 1c2.5-2.7 5.1-5.3 7.8-7.8l-1-17.8zm72.1-9.1l-24.2 6.5 1.6 29.7c.4 8-3.1 15.6-9.5 20.4-6.5 4.9-12.2 10.7-17.1 17.1-4.8 6.4-12.5 9.9-20.5 9.5l-29.8-1.6-6.5 24.2 26.6 13.5c7.1 3.6 12 10.5 13 18.4 .5 4 1.3 7.9 2.3 11.9s2.4 7.8 3.9 11.5c3.1 7.3 2.3 15.7-2 22.4l-16.3 25 17.7 17.7 25-16.3c6.7-4.4 15.1-5.1 22.5-2 7.4 3.1 15.3 5.3 23.3 6.3 7.9 1 14.8 5.8 18.4 13l13.5 26.6 24.2-6.5-1.6-29.7c-.4-8 3.1-15.6 9.5-20.4 6.5-4.9 12.2-10.7 17.1-17.1 4.8-6.4 12.5-9.9 20.5-9.5l29.8 1.6 6.5-24.2-26.6-13.5c-7.1-3.6-12-10.5-13-18.4-.5-4-1.3-7.9-2.3-11.9s-2.4-7.8-3.9-11.5c-3.1-7.3-2.3-15.7 2-22.4l16.3-25-17.7-17.7-25 16.3c-6.7 4.4-15.1 5.1-22.5 2-7.4-3.1-15.3-5.3-23.3-6.3-7.9-1-14.8-5.8-18.4-13l-13.5-26.6zm-9.9 135.2a32 32 0 1 1 61.8-16.6 32 32 0 1 1 -61.8 16.6z"/></svg>