<svg xmlns="http://www.w3.org/2000/svg" viewBox="0 0 576 512"><path fill="currentColor" d="M344 380c24.3 0 44 19.7 44 44l0 104c0 11-9 20-20 20s-20-9-20-20l0-28-24 0 0 28c0 11-9 20-20 20s-20-9-20-20l0-104c0-24.3 19.7-44 44-44l16 0zm120 0c33.1 0 60 26.9 60 60s-26.9 60-60 60l-12 0 0 28c0 11-9 20-20 20s-20-9-20-20l0-128c0-11 9-20 20-20l32 0zm96 0c11 0 20 9 20 20l0 128c0 11-9 20-20 20s-20-9-20-20l0-128c0-11 9-20 20-20zM315.4 0c17.3 0 32.5 11.1 37.9 27.3l.9 3.3 9.8 40.4c.3 .1 .6 .3 .9 .4l35.5-21.7 3-1.7c14.2-7.1 31.4-5 43.6 5.2l2.5 2.3 38.8 38.8c13.1 13.1 15.5 33.4 5.8 49.2L472.5 179c.1 .3 .3 .6 .4 .9l40.5 9.8c18 4.3 30.6 20.4 30.6 38.9l0 54.8c0 18.5-12.7 34.5-30.6 38.9L472.9 332c-.5 1.3-1.1 2.6-1.7 4l-54.1 0c4.8-7.8 9.1-16 12.5-24.7 4.6-11.8 14.7-21.7 28.4-25l38.1-9.2 0-42.2-38.1-9.2c-13.6-3.3-23.7-13.2-28.3-25-.7-1.9-1.5-3.8-2.3-5.7-5.1-11.6-4.9-25.8 2.4-37.7l20.4-33.4-29.8-29.8-33.4 20.4c-12 7.3-26.1 7.5-37.8 2.4-1.9-.8-3.8-1.6-5.7-2.3-11.8-4.6-21.7-14.8-25-28.4l-9.2-38-42.2 0-9.2 38.1c-3.3 13.6-13.2 23.7-25 28.3-1.9 .7-3.8 1.5-5.7 2.3-11.6 5.1-25.8 4.9-37.7-2.4L155.8 94 126 123.8 146.4 157.2c7.3 12 7.5 26.1 2.4 37.7-.8 1.9-1.6 3.8-2.3 5.7-4.6 11.8-14.7 21.7-28.3 25l-38.1 9.2 0 42.2 38 9.2c11.9 2.9 21.2 10.8 26.4 20.7l2 4.3 2.3 5.7c5.1 11.6 4.9 25.8-2.4 37.8l-20.4 33.4 29.8 29.8 33.4-20.4 4.6-2.4c9.3-4.2 19.6-4.5 28.8-1.6l4.5 1.7 7.1 2.9c1.9 .7 3.9 1.4 5.9 2.1l0 49.9c-10-2.5-19.7-5.7-29-9.6l-35.4 21.7c-15.8 9.6-36.1 7.2-49.2-5.8L87.6 417.6c-13.1-13.1-15.5-33.4-5.8-49.1L103.4 333c-.1-.3-.3-.6-.4-.9l-40.4-9.8c-18-4.3-30.6-20.4-30.6-38.9l0-54.8c0-18.5 12.6-34.5 30.6-38.9l40.4-9.8c.1-.3 .3-.6 .4-.9L81.8 143.5c-9.6-15.8-7.2-36.1 5.8-49.1l38.8-38.8 2.5-2.3C141.1 43 158.2 41 172.5 48.1l3 1.7 35.5 21.7c.3-.1 .6-.3 .9-.4l9.8-40.4 .9-3.3C228.1 11.1 243.3 0 260.6 0l54.8 0zM328 420c-2.2 0-4 1.8-4 4l0 36 24 0 0-36c0-2.2-1.8-4-4-4l-16 0zm124 40l12 0c11 0 20-9 20-20s-9-20-20-20l-12 0 0 40zM288 352a96 96 0 1 1 0-192 96 96 0 1 1 0 192zm0-144a48 48 0 1 0 0 96 48 48 0 1 0 0-96z"/></svg>