<svg xmlns="http://www.w3.org/2000/svg" viewBox="0 0 576 512"><path fill="currentColor" d="M344 380c24.3 0 44 19.7 44 44l0 104c0 11-9 20-20 20s-20-9-20-20l0-28-24 0 0 28c0 11-9 20-20 20s-20-9-20-20l0-104c0-24.3 19.7-44 44-44l16 0zm120 0c33.1 0 60 26.9 60 60s-26.9 60-60 60l-12 0 0 28c0 11-9 20-20 20s-20-9-20-20l0-128c0-11 9-20 20-20l32 0zm96 0c11 0 20 9 20 20l0 128c0 11-9 20-20 20s-20-9-20-20l0-128c0-11 9-20 20-20zM328 420c-2.2 0-4 1.8-4 4l0 36 24 0 0-36c0-2.2-1.8-4-4-4l-16 0zm124 40l12 0c11 0 20-9 20-20s-9-20-20-20l-12 0 0 40zM331.2-16c18.7 0 34.9 13 39 31.2l12.6 55.6C389 74 395.1 77.5 401 81.3l54.5-16.9c17.8-5.5 37.2 2 46.5 18.2l43.2 74.8c9.3 16.2 6.2 36.7-7.5 49.4l-41.9 38.7c.3 6.9 .3 14 0 20.9l41.9 38.7c8.8 8.1 13.2 19.5 12.8 30.8l-50.2 0-45.6-42.2c-5.6-5.2-8.4-12.7-7.6-20.2 1.3-11.5 1.3-23.6 0-35.2-.8-7.6 2-15.1 7.6-20.3l45.7-42.3-36.8-63.7-59.5 18.5c-7.3 2.3-15.2 .9-21.3-3.6-9.4-6.9-19.6-12.8-30.4-17.6-7-3.1-12.1-9.3-13.8-16.7l-13.7-60.8-73.6 0-13.7 60.8c-1.7 7.4-6.8 13.6-13.8 16.7-10.8 4.7-21 10.7-30.4 17.6-6.1 4.5-14.1 5.9-21.4 3.6l-59.5-18.5-36.8 63.7 45.8 42.3c5.6 5.2 8.4 12.7 7.6 20.3-1.3 11.5-1.3 23.6 0 35.2 .8 7.6-2 15.1-7.6 20.2l-45.8 42.3 36.8 63.8 59.5-18.5c7.3-2.3 15.2-.9 21.4 3.6 8.9 6.6 18.6 12.2 28.8 16.8 5.8 2.6 11.8 4.8 17.9 6.8l0 49.8c-16.4-3.9-32.1-9.7-46.8-17.2-6.2-3.2-12.4-6.7-18.2-10.5l-54.5 16.9c-17.9 5.5-37.2-2-46.5-18.2L30.8 354.6c-9.3-16.2-6.2-36.7 7.5-49.4l41.9-38.7c-.3-6.9-.3-14 0-20.9L38.3 206.8c-13.7-12.7-16.8-33.2-7.5-49.4L74 82.6c9.3-16.2 28.7-23.8 46.5-18.2L175 81.3c5.9-3.8 11.9-7.3 18.2-10.5l12.6-55.6C209.9-3 226.1-16 244.8-16l86.4 0zM288 352a96 96 0 1 1 0-192 96 96 0 1 1 0 192zm0-144a48 48 0 1 0 0 96 48 48 0 1 0 0-96z"/></svg>