<svg xmlns="http://www.w3.org/2000/svg" viewBox="0 0 512 512"><path fill="currentColor" d="M205.5 92.7l13.7-60.7 73.6 0 13.7 60.7c1.7 7.4 6.8 13.6 13.8 16.7 10.8 4.8 21 10.7 30.4 17.6 6.1 4.5 14.1 5.9 21.4 3.6l59.5-18.5 36.8 63.8-45.8 42.3c-5.6 5.2-8.4 12.7-7.6 20.2 1.3 11.5 1.3 23.7 0 35.2-.8 7.6 2 15.1 7.6 20.2l45.8 42.3-36.8 63.8-59.5-18.5c-7.3-2.3-15.2-.9-21.4 3.6-9.4 6.9-19.6 12.9-30.4 17.6-7 3.1-12.1 9.3-13.8 16.7l-13.7 60.7-73.6 0-13.7-60.7c-1.7-7.4-6.8-13.6-13.8-16.7-10.8-4.8-21-10.7-30.4-17.6-6.1-4.5-14.1-5.9-21.4-3.6l-59.5 18.5-36.8-63.8 45.8-42.3c5.6-5.2 8.4-12.7 7.6-20.2-1.3-11.5-1.3-23.7 0-35.2 .8-7.6-2-15.1-7.6-20.2l-45.8-42.3 36.8-63.8 59.5 18.5c7.3 2.3 15.2 .9 21.4-3.6 9.4-6.9 19.6-12.9 30.4-17.6 7-3.1 12.1-9.3 13.8-16.7zM212.8-16c-18.7 0-34.9 13-39 31.2L161.2 70.8c-6.3 3.2-12.3 6.7-18.2 10.5L88.6 64.4c-17.9-5.6-37.2 2-46.5 18.2L-1.1 157.4c-9.3 16.2-6.2 36.7 7.5 49.4l41.9 38.7c-.3 6.9-.3 14 0 21L6.4 305.2c-13.7 12.7-16.9 33.2-7.5 49.4l43.2 74.8c9.3 16.2 28.7 23.7 46.5 18.2l54.5-16.9c5.9 3.8 11.9 7.3 18.2 10.5l12.6 55.6c4.1 18.2 20.3 31.2 39 31.2l86.4 0c18.7 0 34.9-13 39-31.2l12.6-55.6c6.3-3.2 12.3-6.7 18.2-10.5l54.5 16.9c17.9 5.6 37.2-2 46.5-18.2l43.2-74.8c9.3-16.2 6.2-36.7-7.5-49.4l-41.9-38.7c.3-6.9 .3-14 0-21l41.9-38.7c13.7-12.7 16.8-33.2 7.5-49.4L470 82.6c-9.4-16.2-28.7-23.7-46.5-18.2L369 81.3c-5.9-3.8-11.9-7.3-18.2-10.5L338.3 15.2C334.1-3 317.9-16 299.2-16l-86.4 0zm78.9 179.3c1.8-10.9-5.5-21.2-16.4-23s-21.2 5.5-23 16.4l-32 192c-1.8 10.9 5.5 21.2 16.4 23s21.2-5.5 23-16.4l32-192zm-93.6 66.9c7.8-7.8 7.8-20.5 0-28.3s-20.5-7.8-28.3 0l-40 40c-7.8 7.8-7.8 20.5 0 28.3l40 40c7.8 7.8 20.5 7.8 28.3 0s7.8-20.5 0-28.3l-25.9-25.9 25.9-25.9zm144-28.3c-7.8-7.8-20.5-7.8-28.3 0s-7.8 20.5 0 28.3l25.9 25.9-25.9 25.9c-7.8 7.8-7.8 20.5 0 28.3s20.5 7.8 28.3 0l40-40c7.8-7.8 7.8-20.5 0-28.3l-40-40z"/></svg>