<svg xmlns="http://www.w3.org/2000/svg" viewBox="0 0 512 512"><path fill="currentColor" d="M188.2 36.7C193.4 15.2 212.7 0 234.9 0l42.2 0c22.2 0 41.5 15.2 46.7 36.7l8.3 34.2 1.1 .4 30-18.4c18.9-11.6 43.3-8.7 59 7l29.8 29.8c15.7 15.7 18.6 40.1 7 59l-18.4 30 .4 1.1 34.2 8.3c21.6 5.2 36.7 24.5 36.7 46.7l0 42.2c0 22.2-15.2 41.5-36.7 46.7l-34.2 8.3-.4 1.1 18.4 30c11.6 18.9 8.7 43.3-7 59l-29.8 29.8c-15.7 15.7-40.1 18.6-59 7l-30-18.4-1.1 .4-8.3 34.2c-5.2 21.6-24.5 36.7-46.7 36.7l-42.2 0c-22.2 0-41.5-15.2-46.7-36.7l-8.3-34.2-1.1-.4-30 18.4c-18.9 11.6-43.3 8.7-59-7L60.1 422.1c-15.7-15.7-18.6-40.1-7-59l18.4-30-.4-1.1-34.2-8.3C15.2 318.6 0 299.3 0 277.1l0-42.2c0-22.2 15.2-41.5 36.7-46.7l34.2-8.3 .4-1.1-18.4-30c-11.6-18.9-8.7-43.3 7-59L89.9 60.1c15.7-15.7 40.1-18.6 59-7l30 18.4 1.1-.4 8.3-34.2zM277.1 48l-42.2 0-11.3 46.6c-1.9 8-7.9 14.5-15.7 17.1-6.8 2.3-13.5 5-19.9 8.2-7.4 3.7-16.2 3.3-23.3-1l-40.9-25-29.8 29.8 25 40.9c4.3 7.1 4.7 15.9 1 23.3-3.2 6.4-6 13-8.2 19.9-2.6 7.9-9.1 13.8-17.1 15.7l-46.6 11.3 0 42.2 46.6 11.3c8 1.9 14.5 7.9 17.1 15.7 2.3 6.8 5 13.5 8.2 19.9 3.7 7.4 3.3 16.2-1 23.3l-25 40.9 29.8 29.8 40.9-25c7.1-4.3 15.9-4.7 23.3-1 6.4 3.2 13 6 19.9 8.2 7.9 2.6 13.8 9.1 15.7 17.1l11.3 46.6 42.2 0 11.3-46.6c1.9-8 7.9-14.5 15.7-17.1 6.8-2.3 13.5-5 19.9-8.2 7.4-3.7 16.2-3.3 23.3 1l40.9 25 29.8-29.8-25-40.9c-4.3-7.1-4.7-15.9-1-23.3 3.2-6.4 6-13 8.2-19.9 2.6-7.8 9.1-13.8 17.1-15.7l46.6-11.3 0-42.2-46.6-11.3c-8-1.9-14.5-7.9-17.1-15.7-2.3-6.8-5-13.5-8.2-19.9-3.7-7.4-3.3-16.2 1-23.3l25-40.9-29.8-29.8-40.9 25c-7.1 4.3-15.9 4.7-23.3 1-6.4-3.2-13-6-19.9-8.2-7.8-2.6-13.8-9.1-15.7-17.1L277.1 48zm14.6 115.3l-32 192c-1.8 10.9-12.1 18.3-23 16.4s-18.3-12.1-16.4-23l32-192c1.8-10.9 12.1-18.3 23-16.4s18.3 12.1 16.4 23zm-93.6 66.9l-25.9 25.9 25.9 25.9c7.8 7.8 7.8 20.5 0 28.3s-20.5 7.8-28.3 0l-40-40c-7.8-7.8-7.8-20.5 0-28.3l40-40c7.8-7.8 20.5-7.8 28.3 0s7.8 20.5 0 28.3zm144-28.3l40 40c7.8 7.8 7.8 20.5 0 28.3l-40 40c-7.8 7.8-20.5 7.8-28.3 0s-7.8-20.5 0-28.3l25.9-25.9-25.9-25.9c-7.8-7.8-7.8-20.5 0-28.3s20.5-7.8 28.3 0z"/></svg>