<svg xmlns="http://www.w3.org/2000/svg" viewBox="0 0 576 512"><path fill="currentColor" d="M80 112c-8.8 0-16 7.2-16 16l0 256c0 8.8 7.2 16 16 16l416 0c8.8 0 16-7.2 16-16l0-256c0-8.8-7.2-16-16-16L80 112zM16 128c0-35.3 28.7-64 64-64l416 0c35.3 0 64 28.7 64 64l0 256c0 35.3-28.7 64-64 64L80 448c-35.3 0-64-28.7-64-64l0-256zm136 88l0 80c0 4.4 3.6 8 8 8l16 0c4.4 0 8-3.6 8-8l0-32c0-13.3 10.7-24 24-24s24 10.7 24 24l0 32c0 30.9-25.1 56-56 56l-16 0c-30.9 0-56-25.1-56-56l0-80c0-30.9 25.1-56 56-56l40 0c13.3 0 24 10.7 24 24s-10.7 24-24 24l-40 0c-4.4 0-8 3.6-8 8zm144-56c13.3 0 24 10.7 24 24l0 144c0 13.3-10.7 24-24 24s-24-10.7-24-24l0-144c0-13.3 10.7-24 24-24zm88 0l80 0c13.3 0 24 10.7 24 24s-10.7 24-24 24l-56 0 0 32 40 0c13.3 0 24 10.7 24 24s-10.7 24-24 24l-40 0 0 40c0 13.3-10.7 24-24 24s-24-10.7-24-24l0-144c0-13.3 10.7-24 24-24z"/></svg>