<svg xmlns="http://www.w3.org/2000/svg" viewBox="0 0 512 512"><path fill="currentColor" d="M357.8 48c-14.9 0-28.8 7.9-36.3 20.8L286.7 128 360 128c22.1 0 40-17.9 40-40s-17.9-40-40-40l-2.2 0zM225.3 128L190.5 68.8C182.9 55.9 169.1 48 154.2 48L152 48c-22.1 0-40 17.9-40 40s17.9 40 40 40l73.3 0zM256 85.5l24.1-41C296.3 16.9 325.9 0 357.8 0L360 0c48.6 0 88 39.4 88 88 0 14.4-3.5 28-9.6 40l9.6 0c35.3 0 64 28.7 64 64l0 224c0 35.3-28.7 64-64 64L64 480c-35.3 0-64-28.7-64-64L0 192c0-35.3 28.7-64 64-64l9.6 0c-6.1-12-9.6-25.6-9.6-40 0-48.6 39.4-88 88-88l2.2 0c31.9 0 61.5 16.9 77.7 44.4l24.1 41zM152 176l-88 0c-8.8 0-16 7.2-16 16l0 128 416 0 0-128c0-8.8-7.2-16-16-16l-138.4 0 31 51.7c6.8 11.4 3.1 26.1-8.2 32.9s-26.1 3.1-32.9-8.2L256 180 212.6 252.3c-6.8 11.4-21.6 15.1-32.9 8.2s-15.1-21.6-8.2-32.9l31-51.7-50.4 0zM464 384l-416 0 0 32c0 8.8 7.2 16 16 16l384 0c8.8 0 16-7.2 16-16l0-32z"/></svg>