<svg xmlns="http://www.w3.org/2000/svg" viewBox="0 0 576 512"><path fill="currentColor" d="M119.8-30.6c12.5-4.5 26.2 1.9 30.8 14.4l10.1 27.8 10.9-28.3c4.8-12.4 18.7-18.5 31-13.7s18.5 18.7 13.7 31l-7.7 19.9 26.4-16.8c11.2-7.1 26-3.8 33.1 7.4s3.8 26-7.4 33.1L229.8 64 256 64c30.7 0 56.3 21.6 62.5 50.4-17.2 3.5-33 10.7-46.5 20.7l0-7.1c0-8.8-7.2-16-16-16L64 112c-8.8 0-16 7.2-16 16l0 320c0 8.8 7.2 16 16 16l145.1 0c2.5 17.7 9.2 34 18.9 48L64 512c-35.3 0-64-28.7-64-64L0 128C0 92.7 28.7 64 64 64l26.2 0-31-19.8c-11.2-7.1-14.5-22-7.4-33.1s22-14.5 33.1-7.4l28.4 18.1-7.9-21.6c-4.5-12.5 1.9-26.2 14.4-30.8zM489.9 208c-7.5 0-14.5 3.8-18.6 10.1L446.9 256 488 256c13.3 0 24-10.7 24-24l0-1.9c0-12.2-9.9-22.1-22.1-22.1zM385.1 256l-24.4-37.9c-4.1-6.3-11.1-10.1-18.6-10.1-12.2 0-22.1 9.9-22.1 22.1l0 1.9c0 13.3 10.7 24 24 24l41.1 0zM281.9 268.5c-6.3-10.7-9.9-23.2-9.9-36.5l0-1.9c0-38.7 31.4-70.1 70.1-70.1 23.8 0 46 12.1 58.9 32.1l15 23.2 15-23.2c12.9-20 35.1-32.1 58.9-32.1 38.7 0 70.1 31.4 70.1 70.1l0 1.9c0 13.3-3.6 25.8-9.9 36.5 15.7 11.7 25.9 30.4 25.9 51.5l0 128c0 35.3-28.7 64-64 64l-192 0c-35.3 0-64-28.7-64-64l0-128c0-21.1 10.2-39.8 25.9-51.5zM344 304l-24 0c-8.8 0-16 7.2-16 16l0 128c0 8.8 7.2 16 16 16l72 0 0-160-48 0zM512 464c8.8 0 16-7.2 16-16l0-128c0-8.8-7.2-16-16-16l-72 0 0 160 72 0z"/></svg>