<svg xmlns="http://www.w3.org/2000/svg" viewBox="0 0 448 512"><path fill="currentColor" d="M224 16c-53 0-96 43-96 96 0 24.6 9.2 47 24.4 64 6.3 7.1 7.9 17.2 4 25.8S144 216 134.6 216L88 216c-22.1 0-40 17.9-40 40s17.9 40 40 40l14.3 0c39.6 0 62.2 45.3 38.3 76.9l-44.5 59c-13.3 17.6-9.8 42.7 7.8 56s42.7 9.8 56-7.8L185.7 446c19.2-25.4 57.4-25.4 76.6 0l25.8 34.1c13.3 17.6 38.4 21.1 56 7.8s21.1-38.4 7.8-56l-44.5-59c-23.9-31.6-1.3-76.9 38.3-76.9l14.3 0c22.1 0 40-17.9 40-40s-17.9-40-40-40l-46.6 0c-9.5 0-18-5.6-21.9-14.2s-2.3-18.7 4-25.8c15.2-17 24.4-39.4 24.4-64 0-53-43-96-96-96zM80 112C80 32.5 144.5-32 224-32S368 32.5 368 112c0 19.9-4 38.8-11.3 56l3.3 0c48.6 0 88 39.4 88 88s-39.4 88-88 88l-14.3 0 44.5 59c29.3 38.8 21.6 94-17.2 123.3S279 547.8 249.8 509L224 474.9 198.2 509C169 547.8 113.8 555.5 75 526.2S28.5 441.8 57.8 403l44.5-59-14.3 0c-48.6 0-88-39.4-88-88s39.4-88 88-88l3.3 0C84 150.8 80 131.9 80 112zm88-16a24 24 0 1 1 48 0 24 24 0 1 1 -48 0zm88-24a24 24 0 1 1 0 48 24 24 0 1 1 0-48zM200 224a24 24 0 1 1 48 0 24 24 0 1 1 -48 0zm24 72a24 24 0 1 1 0 48 24 24 0 1 1 0-48z"/></svg>