<svg xmlns="http://www.w3.org/2000/svg" viewBox="0 0 384 512"><path fill="currentColor" d="M24 0C17.3 0 10.9 2.8 6.3 7.8S-.5 19.4 .1 26.1L36.3 446.2C39.5 483.4 70.7 512 108 512L276 512c37.4 0 68.5-28.6 71.7-65.8L383.9 26.1c.6-6.7-1.7-13.3-6.2-18.3S366.7 0 360 0L24 0zM57.6 134.3l-7.4-86.3 283.7 0-7.4 86.3-25.2 14c-16.2 9-36.2 7.3-50.7-4.3-34.2-27.4-82.8-27.4-117 0-14.5 11.6-34.5 13.3-50.7 4.3l-25.2-14zm5 57.6c32.7 16.6 72.1 12.6 100.9-10.4 16.7-13.3 40.4-13.3 57 0 28.8 23 68.3 27 100.9 10.4L299.9 442.1C298.8 454.5 288.4 464 276 464L108 464c-12.5 0-22.8-9.5-23.9-21.9L62.6 191.9z"/></svg>