<svg xmlns="http://www.w3.org/2000/svg" viewBox="0 0 576 512"><path fill="currentColor" d="M135.8 80c-17.7 0-33.3 11.7-38.4 28.6L53.8 256 224 256c17.7 0 32 14.3 32 32l64 0c0-17.7 14.3-32 32-32l170.2 0-43.7-147.4c-5-17-20.6-28.6-38.4-28.6L408 80c-13.3 0-24-10.7-24-24s10.7-24 24-24l32.2 0c39 0 73.3 25.6 84.4 63l47.8 161.3c2.4 8.1 3.6 16.5 3.6 25L576 384c0 53-43 96-96 96l-64 0c-53 0-96-43-96-96l0-48-64 0 0 48c0 53-43 96-96 96l-64 0c-53 0-96-43-96-96L0 281.3c0-8.5 1.2-16.9 3.6-25L51.4 95c11.1-37.4 45.4-63 84.4-63L168 32c13.3 0 24 10.7 24 24s-10.7 24-24 24l-32.2 0zM528 304l-160 0 0 80c0 26.5 21.5 48 48 48l64 0c26.5 0 48-21.5 48-48l0-80zM48 304l0 80c0 26.5 21.5 48 48 48l64 0c26.5 0 48-21.5 48-48l0-80-160 0z"/></svg>