<svg xmlns="http://www.w3.org/2000/svg" viewBox="0 0 640 512"><path fill="currentColor" d="M288 464c3.4 0 11.8-2.6 22.6-13.8 5.6 20.6 14.5 39.9 26.2 57.2-15.8 3-32.1 4.6-48.8 4.6-141.4 0-256-114.6-256-256S146.6 0 288 0c126.8 0 232.1 92.2 252.4 213.2-14.3-3.4-29.1-5.2-44.4-5.2-1.9 0-3.7 0-5.5 .1-15.1-64-59.7-116.5-118.6-142.5 23.2 41.4 39.2 98.6 43.2 160.3-27 12.6-50.5 31.2-68.9 54.1l-137.4 0c3 51.5 15.2 98.6 32.1 133 21.5 43.7 41.4 51 47.2 51zM208.7 232l158.6 0c-3-51.5-15.2-98.6-32.1-133-21.5-43.7-41.4-51-47.2-51s-25.7 7.3-47.2 51c-17 34.5-29.2 81.6-32.1 133zm-48.1 0C163.9 168 180.2 108.4 204.2 65.6 138 94.7 89.9 157.4 81.4 232l79.2 0zM81.4 280c8.6 74.6 56.7 137.3 122.8 166.4-24-42.8-40.3-102.4-43.6-166.4l-79.2 0zM352 400a144 144 0 1 1 288 0 144 144 0 1 1 -288 0zm144-48c27.2 0 51.9 10.2 70.6 27.1 6.6 5.9 16.7 5.4 22.6-1.2s5.4-16.7-1.2-22.6c-24.4-21.9-56.6-35.3-92-35.3s-67.7 13.4-92 35.3c-6.6 5.9-7.1 16-1.2 22.6s16 7.1 22.6 1.2C444.1 362.2 468.9 352 496 352zm20 112a20 20 0 1 0 -40 0 20 20 0 1 0 40 0zm-51.5-35.9c8.3-7.5 19.4-12.1 31.5-12.1s23.2 4.6 31.5 12.1c6.6 5.9 16.7 5.4 22.6-1.1s5.4-16.7-1.1-22.6c-14-12.7-32.6-20.4-53-20.4s-39 7.7-53 20.4c-6.6 5.9-7.1 16-1.1 22.6s16 7.1 22.6 1.1z"/></svg>