<svg xmlns="http://www.w3.org/2000/svg" viewBox="0 0 576 512"><path fill="currentColor" d="M367.2 413c-21.5 43.7-41.4 51-47.2 51-5.2 0-22-6-41.1-39.6l-23.3 79.4c20.6 5.3 42.2 8.2 64.5 8.2 141.4 0 256-114.6 256-256S461.4 0 320 0 64 114.6 64 256c0 8.5 .4 16.9 1.2 25.1l164.6-48.4c3.7-1.1 7.3-1.8 10.9-2.3 3.1-50.9 15.3-97.4 32.1-131.5 21.5-43.7 41.4-51 47.2-51s25.7 7.3 47.2 51c17 34.5 29.2 81.6 32.1 133l-134.5 0c23.2 6 41.7 24.7 47.4 48l87.1 0c-3 51.5-15.2 98.6-32.1 133zm80.2-133l79.2 0c-8.6 74.6-56.7 137.3-122.8 166.4 24-42.8 40.3-102.4 43.6-166.4zm79.2-48l-79.2 0c-3.3-64-19.6-123.6-43.6-166.4 66.1 29.2 114.2 91.8 122.8 166.4zm-334 0l-79.2 0c8.6-74.6 56.7-137.3 122.8-166.4-24 42.8-40.3 102.4-43.6 166.4zM39 340.5c-13.9 4.1-15.6 23.2-2.6 29.7l57.3 28.7c1.3 .7 2.6 1.5 3.7 2.5l-88 88c-12.5 12.5-12.5 32.8 0 45.3s32.8 12.5 45.3 0l88-88c1 1.1 1.9 2.3 2.5 3.7l28.7 57.3c6.5 13 25.6 11.3 29.7-2.6l60.2-204.8c3.6-12.2-7.7-23.4-19.9-19.9L39 340.5z"/></svg>