<svg xmlns="http://www.w3.org/2000/svg" viewBox="0 0 576 512"><path fill="currentColor" d="M124.2 384c21 26.9 48.4 48.5 80.1 62.4-10.2-18.1-18.9-39.2-25.9-62.4l50.4 0c3.7 10.4 7.7 20.2 12.1 29 21.5 43.7 41.4 51 47.2 51s25.6-7.3 47.2-51c4.4-8.9 8.4-18.6 12.1-29l50.4 0c-7 23.2-15.8 44.3-25.9 62.4 31.6-13.9 59.1-35.5 80.1-62.4l57.9 0C465.4 460.5 382.7 512 288 512S110.6 460.5 66.3 384l57.9 0zM144 172c11 0 20 9 20 20l0 31.6c0 40.6-14.4 76.1-35.3 107.5-3.7 5.6-10 8.9-16.7 8.9s-12.9-3.3-16.7-8.9L81.1 309.7c-.4-.6-.7-1.2-1.1-1.8-.4 .6-.7 1.2-1.1 1.8L64.7 331.1c-3.7 5.6-10 8.9-16.7 8.9s-12.9-3.3-16.7-8.9C10.4 299.7-4 264.1-4 223.6L-4 192c0-11 9-20 20-20s20 9 20 20l0 31.6c0 20.3 4.8 39.4 13.2 57.9 7-12.7 10.8-26.9 10.8-41.4 0-11 9-20 20-20s20 9 20 20c0 14.5 3.7 28.8 10.7 41.4 8.4-18.4 13.3-37.6 13.3-57.9l0-31.6c0-11 9-20 20-20zm208 0c11 0 20 9 20 20l0 31.6c0 40.6-14.4 76.1-35.3 107.5-3.7 5.6-10 8.9-16.7 8.9s-12.9-3.3-16.7-8.9l-14.2-21.4c-.4-.6-.7-1.2-1.1-1.8-.4 .6-.7 1.2-1.1 1.8l-14.2 21.4c-3.7 5.6-10 8.9-16.7 8.9s-12.9-3.3-16.7-8.9c-21-31.4-35.3-67-35.3-107.5l0-31.6c0-11 9-20 20-20s20 9 20 20l0 31.6c0 20.3 4.8 39.4 13.2 57.9 7-12.7 10.8-26.9 10.8-41.4 0-11 9-20 20-20s20 9 20 20c0 14.5 3.7 28.8 10.7 41.4 8.4-18.4 13.3-37.6 13.3-57.9l0-31.6c0-11 9-20 20-20zm208 0c11 0 20 9 20 20l0 31.6c0 40.6-14.4 76.1-35.3 107.5-3.7 5.6-10 8.9-16.7 8.9s-12.9-3.3-16.7-8.9l-14.2-21.4c-.4-.6-.7-1.2-1.1-1.8-.4 .6-.7 1.2-1.1 1.8l-14.2 21.4c-3.7 5.6-10 8.9-16.7 8.9s-12.9-3.3-16.7-8.9c-21-31.4-35.3-67-35.3-107.5l0-31.6c0-11 9-20 20-20s20 9 20 20l0 31.6c0 20.3 4.8 39.4 13.3 57.9 7-12.7 10.7-26.9 10.7-41.4 0-11 9-20 20-20s20 9 20 20c0 14.5 3.7 28.8 10.7 41.4 8.4-18.4 13.3-37.6 13.3-57.9l0-31.6c0-11 9-20 20-20zM288 0c94.7 0 177.4 51.5 221.7 128l-57.8 0c-21-26.9-48.5-48.5-80.1-62.4 10.2 18.1 18.9 39.2 25.9 62.4l-50.4 0c-3.7-10.4-7.7-20.2-12.1-29-21.5-43.7-41.4-51-47.2-51s-25.6 7.3-47.2 51c-4.4 8.9-8.4 18.6-12.1 29l-50.4 0c7-23.2 15.7-44.3 25.9-62.4-31.6 13.9-59 35.6-80.1 62.4l-57.9 0C110.6 51.5 193.3 0 288 0z"/></svg>