<svg xmlns="http://www.w3.org/2000/svg" viewBox="0 0 512 512"><path fill="currentColor" d="M303.2 413c-21.5 43.7-41.4 51-47.2 51s-25.7-7.3-47.2-51c-17-34.5-29.2-81.6-32.1-133l158.6 0c-3 51.5-15.2 98.6-32.1 133zm32.1-181l-158.6 0c3-51.5 15.2-98.6 32.1-133 21.5-43.7 41.4-51 47.2-51s25.7 7.3 47.2 51c17 34.5 29.2 81.6 32.1 133zm48.1 48l79.2 0c-8.6 74.6-56.7 137.3-122.8 166.4 24-42.8 40.3-102.4 43.6-166.4zm79.2-48l-79.2 0c-3.3-64-19.6-123.6-43.6-166.4 66.1 29.2 114.2 91.8 122.8 166.4zm-334 0l-79.2 0c8.6-74.6 56.7-137.3 122.8-166.4-24 42.8-40.3 102.4-43.6 166.4zM49.4 280l79.2 0c3.3 64 19.6 123.6 43.6 166.4-66.1-29.2-114.2-91.8-122.8-166.4zM256 512a256 256 0 1 0 0-512 256 256 0 1 0 0 512z"/></svg>