<svg xmlns="http://www.w3.org/2000/svg" viewBox="0 0 448 512"><path fill="currentColor" d="M297.4 384C358 356.2 400 295 400 224 400 126.8 321.2 48 224 48S48 126.8 48 224c0 71 42 132.2 102.6 160l146.8 0zM448 224c0 72.1-34 136.2-86.9 177.2l65 72.2c3.8 4.2 5.9 9.8 5.9 15.5 0 12.8-10.4 23.1-23.1 23.1L39.1 512c-12.8 0-23.1-10.4-23.1-23.1 0-5.7 2.1-11.2 5.9-15.5l65-72.2C34 360.2 0 296.1 0 224 0 100.3 100.3 0 224 0S448 100.3 448 224zM216 112a24 24 0 1 1 48 0 24 24 0 1 1 -48 0zm120 40a24 24 0 1 1 0 48 24 24 0 1 1 0-48zM88 208a24 24 0 1 1 48 0 24 24 0 1 1 -48 0zm144.7-16.4L282.1 241c3.5 3.5 4.6 8.8 2.7 13.5s-6.4 7.6-11.4 7.6l-16.3 0 45.5 43.6c3.5 3.3 5.4 7.9 5.4 12.7 0 9.7-7.9 17.6-17.6 17.6l-132.9 0c-9.7 0-17.6-7.9-17.6-17.6 0-4.8 2-9.4 5.4-12.7l45.5-43.6-16.3 0c-5 0-9.5-3-11.4-7.6s-.9-9.9 2.7-13.5l49.4-49.4c4.8-4.8 12.6-4.8 17.5 0z"/></svg>