<svg xmlns="http://www.w3.org/2000/svg" viewBox="0 0 448 512"><path fill="currentColor" d="M272 0c66.3 0 120 53.7 120 120l0 14.1c32.8 12.8 56 44.6 56 81.9l0 38.9c0 27.6-11 54-30.5 73.5l-60.8 60.8c-3 3-4.7 7.1-4.7 11.3l0 47.4c0 35.3-28.7 64-64 64L96 512c-35.3 0-64-28.7-64-64l0-78.5C12.2 348.1 0 319.5 0 288L0 120C0 53.7 53.7 0 120 0L272 0zM120 48c-39.8 0-72 32.2-72 72l0 168c0 21.3 9.2 40.5 24 53.7 5.1 4.6 8 11.1 8 17.9L80 448c0 8.8 7.2 16 16 16l192 0c8.8 0 16-7.2 16-16l0-47.4c0-17 6.7-33.3 18.7-45.3l60.8-60.8C394.1 284 400 269.7 400 254.9l0-38.9c0-20.4-15.3-37.2-35-39.7-.5-.1-.9-.2-1.4-.3L312 176c-22.1 0-40 17.9-40 40s17.9 40 40 40c13.3 0 24 10.7 24 24s-10.7 24-24 24c-45.9 0-83.5-35.1-87.6-80L136 224c-30.9 0-56-25.1-56-56 0-13.3 10.7-24 24-24s24 10.7 24 24c0 4.4 3.6 8 8 8l97.7 0c14.6-28.5 44.1-48 78.3-48l32 0 0-8c0-39.8-32.2-72-72-72L120 48zM228.9 335.3c9.2-6.1 21.6-3.6 27.8 5.6s3.6 21.6-5.6 27.8l-23 15.3 23 15.3 3.1 2.6c6.5 6.6 7.8 17.1 2.4 25.2s-15.5 10.9-24.2 7.4l-3.6-1.9-36.9-24.6-36.9 24.6c-9.2 6.1-21.6 3.6-27.8-5.6s-3.6-21.6 5.6-27.8l23-15.3-23-15.3-3.1-2.6c-6.5-6.6-7.8-17.1-2.4-25.2s15.5-10.9 24.2-7.4l3.6 1.9 36.9 24.6 36.9-24.6z"/></svg>