<svg xmlns="http://www.w3.org/2000/svg" viewBox="0 0 576 512"><path fill="currentColor" d="M488 32c48.6 0 88 39.4 88 88l0 336c0 13.3-10.7 24-24 24s-24-10.7-24-24l0-336c0-22.1-17.9-40-40-40L88 80c-22.1 0-40 17.9-40 40l0 336c0 13.3-10.7 24-24 24S0 469.3 0 456L0 120C0 71.4 39.4 32 88 32l400 0zm-80 96c13.3 0 24 10.7 24 24l0 24 24 0c13.3 0 24 10.7 24 24s-10.7 24-24 24l-24 0 0 48 24 0c13.3 0 24 10.7 24 24s-10.7 24-24 24l-24 0 0 48 24 0c13.3 0 24 10.7 24 24s-10.7 24-24 24l-24 0 0 40c0 13.3-10.7 24-24 24s-24-10.7-24-24l0-40-72 0 0 40c0 13.3-10.7 24-24 24s-24-10.7-24-24l0-40-72 0 0 40c0 13.3-10.7 24-24 24s-24-10.7-24-24l0-40-24 0c-13.3 0-24-10.7-24-24s10.7-24 24-24l24 0 0-48-24 0c-13.3 0-24-10.7-24-24s10.7-24 24-24l24 0 0-48-24 0c-13.3 0-24-10.7-24-24s10.7-24 24-24l24 0 0-24 .1-2.5c1.2-12.1 11.5-21.5 23.9-21.5s22.6 9.4 23.9 21.5l.1 2.5 0 24 72 0 0-24c0-13.3 10.7-24 24-24s24 10.7 24 24l0 24 72 0 0-24c0-13.3 10.7-24 24-24zM192 368l72 0 0-48-72 0 0 48zm120 0l72 0 0-48-72 0 0 48zM192 272l72 0 0-48-72 0 0 48zm120 0l72 0 0-48-72 0 0 48z"/></svg>