<svg xmlns="http://www.w3.org/2000/svg" viewBox="0 0 512 512"><path fill="currentColor" d="M139.4-28.4c7.1-4.4 15.9-4.8 23.3-1.1l208 104c8.1 4.1 13.3 12.4 13.3 21.5 0 8-3.9 15.3-10.4 19.8l-2.9 1.7-194.7 97.3 0 49.6c25.3-3.9 52.2-5.9 80-5.9 66.6 0 128 11.8 173.7 31.8 22.8 10 42.8 22.5 57.4 37.6 14.7 15.2 25 34.2 25 56.2s-10.3 41-25 56.2c-14.6 15.1-34.6 27.6-57.4 37.6-45.7 20-107.1 31.8-173.7 31.8S128 497.7 82.3 477.8C59.5 467.8 39.6 455.3 25 440.2 10.3 425 0 405.9 0 384s10.3-41 25-56.2c14.6-15.1 34.6-27.6 57.4-37.6 13.9-6.1 29.2-11.4 45.7-15.8l0-282.4 .2-3.1c.9-7.1 5-13.5 11.2-17.3zM256 306.5c-28.5 0-55.4 2.4-80 6.5l0 41.6c9.8-1.7 20.6-2.7 32-2.7 44.2 0 80 14.3 80 32 0 17.7-35.8 32-80 32-41.4 0-75.5-12.6-79.6-28.7l-.4-3.3 0-59.6c-9.5 3-18.3 6.3-26.4 9.8-19.2 8.4-33.2 17.8-42.1 27-8.8 9.1-11.5 16.7-11.5 22.8s2.7 13.7 11.5 22.8c8.9 9.2 22.9 18.6 42.1 27 38.3 16.8 92.9 27.7 154.4 27.7s116.1-11 154.4-27.7c19.2-8.4 33.2-17.8 42.1-27 8.8-9.1 11.5-16.7 11.5-22.8s-2.7-13.7-11.5-22.8c-8.9-9.2-22.9-18.6-42.1-27-38.3-16.8-92.9-27.7-154.4-27.7zM176 161.2L306.3 96 176 30.8 176 161.2z"/></svg>