<svg xmlns="http://www.w3.org/2000/svg" viewBox="0 0 384 512"><path fill="currentColor" d="M296 352c13.3 0 24 10.7 24 24s-10.7 24-24 24l-80 0 0 88c0 13.3-10.7 24-24 24s-24-10.7-24-24l0-88-80 0c-13.3 0-24-10.7-24-24s10.7-24 24-24l208 0zM192 0c106 0 192 86 192 192 0 41.8-13.4 80.5-36.1 112l-65.4 0c32.6-26.4 53.5-66.8 53.5-112 0-79.5-64.5-144-144-144S48 112.5 48 192c0 45.2 20.9 85.6 53.5 112l-65.4 0C13.4 272.5 0 233.8 0 192 0 86 86 0 192 0zm32 240c8.8 0 16 7.2 16 16 0 26.5-21.5 48-48 48-8.8 0-16-7.2-16-16 0-7.7 5.5-14.2 12.8-15.7l6.4-.6c6.3-1.3 11.2-6.2 12.5-12.5l.6-6.4c1.5-7.3 8-12.8 15.7-12.8zm64-64c8.8 0 16 7.2 16 16 0 26.5-21.5 48-48 48-8.8 0-16-7.2-16-16 0-7.7 5.5-14.2 12.8-15.7l6.4-.6c6.3-1.3 11.2-6.2 12.5-12.5l.6-6.4c1.5-7.3 8-12.8 15.7-12.8zm-80-16c8.8 0 16 7.2 16 16 0 26.5-21.5 48-48 48-8.8 0-16-7.2-16-16 0-7.7 5.5-14.2 12.8-15.7l6.4-.6c6.3-1.3 11.2-6.2 12.5-12.5l.6-6.4c1.5-7.3 8-12.8 15.7-12.8z"/></svg>