<svg xmlns="http://www.w3.org/2000/svg" viewBox="0 0 512 512"><path fill="currentColor" d="M120 0c13.3 0 24 10.7 24 24l0 8 40 0 0-8c0-13.3 10.7-24 24-24s24 10.7 24 24l0 8 48 0 0-8c0-13.3 10.7-24 24-24s24 10.7 24 24l0 8 40 0 0-8c0-13.3 10.7-24 24-24s24 10.7 24 24l0 136c26.5 0 48 21.5 48 48l0 80c26.5 0 48 21.5 48 48l0 128c0 26.5-21.5 48-48 48L48 512c-26.5 0-48-21.5-48-48L0 336c0-26.5 21.5-48 48-48l0-80c0-26.5 21.5-48 48-48L96 24c0-13.3 10.7-24 24-24zM368 80l-224 0 0 80 80 0 0-16c0-17.7 14.3-32 32-32s32 14.3 32 32l0 16 80 0 0-80zM96 208l0 80 32 0 0-80-32 0zm128 80l0-16c0-17.7 14.3-32 32-32s32 14.3 32 32l0 16 48 0 0-80-160 0 0 80 48 0zm160-80l0 80 32 0 0-80-32 0zm80 128l-48 0 0 128 48 0 0-128zM144 464l64 0 0-40c0-26.5 21.5-48 48-48s48 21.5 48 48l0 40 64 0 0-128-224 0 0 128zm-48 0l0-128-48 0 0 128 48 0z"/></svg>