<svg xmlns="http://www.w3.org/2000/svg" viewBox="0 0 640 512"><path fill="currentColor" d="M74.5 32.1C86.6 33.4 96 43.6 96 56l0 8 405.5 0 6.3 .3c14.7 1.5 28.4 7.9 38.9 18.4l42.5 42.5c12 12 18.7 28.3 18.7 45.2l0 171-.3 6.3c-1.5 14.7-7.9 28.4-18.4 38.9l-42.5 42.5-4.7 4.2c-9.8 8-21.7 12.9-34.3 14.2l-6.3 .3-149.5 0 0 16c0 17.7-14.3 32-32 32l-160 0c-17.7 0-32-14.3-32-32l0-16-16 0-6.5-.3c-30.1-3.1-54.1-27-57.1-57.1L48 384 48 80 24 80C10.7 80 0 69.3 0 56S10.7 32 24 32l48 0 2.5 .1zM96 384c0 8.8 7.2 16 16 16l389.5 0c4.2 0 8.3-1.7 11.3-4.7l42.5-42.5c3-3 4.7-7.1 4.7-11.3l0-171c0-4.2-1.7-8.3-4.7-11.3l-42.5-42.5c-3-3-7.1-4.7-11.3-4.7L96 112 96 384zm304-16a112 112 0 1 1 0-224 112 112 0 1 1 0 224zM232 288c13.3 0 24 10.7 24 24s-10.7 24-24 24l-64 0c-13.3 0-24-10.7-24-24s10.7-24 24-24l64 0zm195.9-18.5c-.5 19.6-4.9 39-12.9 56.9 23.4-4.9 42.6-21.2 51.6-42.8-2-1-4.8-2.4-8.4-4.2-9.6-4.8-19.7-8.1-30.2-9.9zm-98.3 1.4c4.9 23.4 21.2 42.6 42.8 51.6l1.8-3.4 2.5-5c4.8-9.6 8.1-19.7 9.8-30.2-19.6-.5-39-4.9-56.9-12.9zM385 185.6c-23.4 4.9-42.6 21.2-51.6 42.8l3.5 1.8 5 2.5c9.5 4.8 19.7 8.1 30.2 9.8 .5-19.6 4.9-39 12.9-56.9zm40.8 7.4l-2.5 5c-4.8 9.5-8.1 19.7-9.9 30.2 19.6 .5 39 4.9 56.9 12.9-4.9-23.4-21.2-42.6-42.8-51.6l-1.7 3.5zM232 176c13.3 0 24 10.7 24 24s-10.7 24-24 24l-64 0c-13.3 0-24-10.7-24-24s10.7-24 24-24l64 0z"/></svg>