<svg xmlns="http://www.w3.org/2000/svg" viewBox="0 0 384 512"><path fill="currentColor" d="M149.7-18.3c-4.3-9.1-13.9-14.5-23.9-13.6s-18.4 8-21 17.8l-72 272c-2.6 9.7 1.2 20 9.4 25.8s19.2 5.8 27.4 .1c93.7-64.5 182.7-70.6 233.4-67 11.9 .8 21.9 9.5 24.4 23.5 .4 2.3 .6 4.6 .6 7 0 22.5-18.3 40.8-40 40.8l-104 0c-13.3 0-24 10.7-24 24s10.7 24 24 24l104 0c49 0 88-40.7 88-88.8 0-40.8-27.2-74.2-59.7-90.6-45.7-23.1-118.4-73.5-166.6-174.9zM136 55.4c34.1 52.4 73.7 89 109.2 114.1-43.2 3.9-95.5 15.6-151 43.8L136 55.4zM304 432l0 32-224 0 0-32 224 0zM32 432l0 32-8 0c-13.3 0-24 10.7-24 24s10.7 24 24 24l336 0c13.3 0 24-10.7 24-24s-10.7-24-24-24l-8 0 0-32c0-26.5-21.5-48-48-48L80 384c-26.5 0-48 21.5-48 48z"/></svg>