<svg xmlns="http://www.w3.org/2000/svg" viewBox="0 0 576 512"><path fill="currentColor" d="M389.1-4.7L376.9 7.4c-31.2 31.2-31.2 81.9 0 113.1 15.6 15.6 31.2 31.2 46.9 46.9 31.2 31.2 81.9 31.2 113.1 0l12.1-12.1c6.2-6.2 6.2-16.4 0-22.6l-12.1-12.1c-31.2-31.2-81.9-31.2-113.1 0 31.2-31.2 31.2-81.9 0-113.1L411.7-4.7c-6.2-6.2-16.4-6.2-22.6 0zM440.4 264c0-44.2-35.8-80-80-80 0-44.2-35.8-80-80-80-28 0-52.6 14.4-66.9 36.1-14.1-12.5-32.7-20.1-53.1-20.1-44.2 0-80 35.8-80 80 0 18 6 34.6 16 48-19.4 14.6-32 37.8-32 64 0 17.6 5.7 33.8 15.2 47-27.9 12.5-47.2 40.5-47.2 73 0 44.2 35.8 80 80 80 32.5 0 60.5-19.4 73-47.2 13.2 9.6 29.4 15.2 47 15.2 26.2 0 49.4-12.6 64-32 13.4 10 30 16 48 16 44.2 0 80-35.8 80-80 0-20.4-7.6-39-20.1-53.1 21.8-14.3 36.1-38.9 36.1-66.9zm-160-120a40 40 0 1 1 0 80 40 40 0 1 1 0-80zm-120 16a40 40 0 1 1 0 80 40 40 0 1 1 0-80zm-56 152a40 40 0 1 1 80 0 40 40 0 1 1 -80 0zm8 80a40 40 0 1 1 0 80 40 40 0 1 1 0-80zm80 8a40 40 0 1 1 80 0 40 40 0 1 1 -80 0zm152-56a40 40 0 1 1 0 80 40 40 0 1 1 0-80zm-128-56a40 40 0 1 1 80 0 40 40 0 1 1 -80 0zm144-64a40 40 0 1 1 0 80 40 40 0 1 1 0-80z"/></svg>