<svg xmlns="http://www.w3.org/2000/svg" viewBox="0 0 640 512"><path fill="currentColor" d="M152 32c-30.9 0-56 25.1-56 56l0 336c0 30.9 25.1 56 56 56l201.1 0c-5.3-15.1-8.4-31.2-9-48l-.1 0 0-152 52.8 0c17.4-26.7 36.2-50.2 51.2-67.5l0-132.5 40 0c4.4 0 8 3.6 8 8l0 92.6c16-3.4 32.9-1.6 48 5.3l0-98c0-30.9-25.1-56-56-56L152 32zm40 48l0 152-48 0 0-144c0-4.4 3.6-8 8-8l40 0zM144 280l48 0 0 152-40 0c-4.4 0-8-3.6-8-8l0-144zm96 152l0-152 56 0 0 152-56 0zM400 80l0 152-56 0 0-152 56 0zM296 80l0 152-56 0 0-152 56 0zm96 346.1C392 491.2 445.7 544 512 544s120-52.8 120-117.9c0-68.9-64.1-150.4-98.6-189.3-11.6-13.1-31.3-13.1-42.9 0-34.5 38.9-98.6 120.4-98.6 189.3z"/></svg>