<svg xmlns="http://www.w3.org/2000/svg" viewBox="0 0 448 512"><path fill="currentColor" d="M56 32C25.1 32 0 57.1 0 88L0 424c0 30.9 25.1 56 56 56l336 0c30.9 0 56-25.1 56-56l0-336c0-30.9-25.1-56-56-56L56 32zM96 80l0 152-48 0 0-144c0-4.4 3.6-8 8-8l40 0zM48 280l48 0 0 152-40 0c-4.4 0-8-3.6-8-8l0-144zm96 152l0-152 56 0 0 152-56 0zm104 0l0-152 56 0 0 152-56 0zm104 0l0-152 48 0 0 144c0 4.4-3.6 8-8 8l-40 0zm48-200l-48 0 0-152 40 0c4.4 0 8 3.6 8 8l0 144zM304 80l0 152-56 0 0-152 56 0zM200 80l0 152-56 0 0-152 56 0z"/></svg>