<svg xmlns="http://www.w3.org/2000/svg" viewBox="0 0 448 512"><path fill="currentColor" d="M0 40C0 26.7 10.7 16 24 16l400 0c13.3 0 24 10.7 24 24s-10.7 24-24 24L24 64C10.7 64 0 53.3 0 40zM40 184l32 0 0-32-32 0 0 32zM0 144c0-17.7 14.3-32 32-32l48 0c17.7 0 32 14.3 32 32l0 48c0 17.7-14.3 32-32 32l-48 0c-17.7 0-32-14.3-32-32l0-48zM40 440l32 0 0-32-32 0 0 32zM0 400c0-17.7 14.3-32 32-32l48 0c17.7 0 32 14.3 32 32l0 48c0 17.7-14.3 32-32 32l-48 0c-17.7 0-32-14.3-32-32l0-48zm208 8l0 32 32 0 0-32-32 0zm-8-40l48 0c17.7 0 32 14.3 32 32l0 48c0 17.7-14.3 32-32 32l-48 0c-17.7 0-32-14.3-32-32l0-48c0-17.7 14.3-32 32-32zm8-184l32 0 0-32-32 0 0 32zm-40-40c0-17.7 14.3-32 32-32l48 0c17.7 0 32 14.3 32 32l0 48c0 17.7-14.3 32-32 32l-48 0c-17.7 0-32-14.3-32-32l0-48zM376 408l0 32 32 0 0-32-32 0zm-8-40l48 0c17.7 0 32 14.3 32 32l0 48c0 17.7-14.3 32-32 32l-48 0c-17.7 0-32-14.3-32-32l0-48c0-17.7 14.3-32 32-32zm8-184l32 0 0-32-32 0 0 32zm-40-40c0-17.7 14.3-32 32-32l48 0c17.7 0 32 14.3 32 32l0 48c0 17.7-14.3 32-32 32l-48 0c-17.7 0-32-14.3-32-32l0-48zM24 272l400 0c13.3 0 24 10.7 24 24s-10.7 24-24 24L24 320c-13.3 0-24-10.7-24-24s10.7-24 24-24z"/></svg>