<svg xmlns="http://www.w3.org/2000/svg" viewBox="0 0 448 512"><path fill="currentColor" d="M28 32a28 28 0 1 0 0 56 28 28 0 1 0 0-56zM0 158a28 28 0 1 0 56 0 28 28 0 1 0 -56 0zm28 70a28 28 0 1 0 0 56 28 28 0 1 0 0-56zM0 354a28 28 0 1 0 56 0 28 28 0 1 0 -56 0zm0 98c0 15.5 12.5 28 28 28s28-12.5 28-28-12.5-28-28-28-28 12.5-28 28zm98 0c0 15.5 12.5 28 28 28s28-12.5 28-28-12.5-28-28-28-28 12.5-28 28zm126-28c-15.5 0-28 12.5-28 28s12.5 28 28 28 28-12.5 28-28-12.5-28-28-28zm70 28c0 15.5 12.5 28 28 28s28-12.5 28-28-12.5-28-28-28-28 12.5-28 28zm126-28c-15.5 0-28 12.5-28 28s12.5 28 28 28 28-12.5 28-28-12.5-28-28-28zM126 326a28 28 0 1 0 0 56 28 28 0 1 0 0-56zm70 28a28 28 0 1 0 56 0 28 28 0 1 0 -56 0zm126-28a28 28 0 1 0 0 56 28 28 0 1 0 0-56zm70 28a28 28 0 1 0 56 0 28 28 0 1 0 -56 0zM98 256a28 28 0 1 0 56 0 28 28 0 1 0 -56 0zm126-28a28 28 0 1 0 0 56 28 28 0 1 0 0-56zm70 28a28 28 0 1 0 56 0 28 28 0 1 0 -56 0zm126-28a28 28 0 1 0 0 56 28 28 0 1 0 0-56zM126 130a28 28 0 1 0 0 56 28 28 0 1 0 0-56zm70 28a28 28 0 1 0 56 0 28 28 0 1 0 -56 0zm126-28a28 28 0 1 0 0 56 28 28 0 1 0 0-56zm70 28a28 28 0 1 0 56 0 28 28 0 1 0 -56 0zM98 60a28 28 0 1 0 56 0 28 28 0 1 0 -56 0zM224 32a28 28 0 1 0 0 56 28 28 0 1 0 0-56zm70 28a28 28 0 1 0 56 0 28 28 0 1 0 -56 0zM420 32a28 28 0 1 0 0 56 28 28 0 1 0 0-56z"/></svg>