<svg xmlns="http://www.w3.org/2000/svg" viewBox="0 0 448 512"><path fill="currentColor" d="M96 176a48 48 0 1 0 0-96 48 48 0 1 0 0 96zm96-48a96 96 0 1 1 -192 0 96 96 0 1 1 192 0zM96 432a48 48 0 1 0 0-96 48 48 0 1 0 0 96zm96-48a96 96 0 1 1 -192 0 96 96 0 1 1 192 0zM304 128a48 48 0 1 0 96 0 48 48 0 1 0 -96 0zm48 96a96 96 0 1 1 0-192 96 96 0 1 1 0 192zm24 88l0 48 48 0c13.3 0 24 10.7 24 24s-10.7 24-24 24l-48 0 0 48c0 13.3-10.7 24-24 24s-24-10.7-24-24l0-48-48 0c-13.3 0-24-10.7-24-24s10.7-24 24-24l48 0 0-48c0-13.3 10.7-24 24-24s24 10.7 24 24z"/></svg>