<svg xmlns="http://www.w3.org/2000/svg" viewBox="0 0 448 512"><path fill="currentColor" d="M16 32C7.2 32 0 39.2 0 48L0 72c0 8.8 7.2 16 16 16l24 0c8.8 0 16-7.2 16-16l0-24c0-8.8-7.2-16-16-16L16 32zM0 146l0 24c0 8.8 7.2 16 16 16l24 0c8.8 0 16-7.2 16-16l0-24c0-8.8-7.2-16-16-16l-24 0c-8.8 0-16 7.2-16 16zm16 82c-8.8 0-16 7.2-16 16l0 24c0 8.8 7.2 16 16 16l24 0c8.8 0 16-7.2 16-16l0-24c0-8.8-7.2-16-16-16l-24 0zM0 342l0 24c0 8.8 7.2 16 16 16l24 0c8.8 0 16-7.2 16-16l0-24c0-8.8-7.2-16-16-16l-24 0c-8.8 0-16 7.2-16 16zm0 98l0 24c0 8.8 7.2 16 16 16l24 0c8.8 0 16-7.2 16-16l0-24c0-8.8-7.2-16-16-16l-24 0c-8.8 0-16 7.2-16 16zm98 0l0 24c0 8.8 7.2 16 16 16l24 0c8.8 0 16-7.2 16-16l0-24c0-8.8-7.2-16-16-16l-24 0c-8.8 0-16 7.2-16 16zm114-16c-8.8 0-16 7.2-16 16l0 24c0 8.8 7.2 16 16 16l24 0c8.8 0 16-7.2 16-16l0-24c0-8.8-7.2-16-16-16l-24 0zm82 16l0 24c0 8.8 7.2 16 16 16l24 0c8.8 0 16-7.2 16-16l0-24c0-8.8-7.2-16-16-16l-24 0c-8.8 0-16 7.2-16 16zm114-16c-8.8 0-16 7.2-16 16l0 24c0 8.8 7.2 16 16 16l24 0c8.8 0 16-7.2 16-16l0-24c0-8.8-7.2-16-16-16l-24 0zM114 326c-8.8 0-16 7.2-16 16l0 24c0 8.8 7.2 16 16 16l24 0c8.8 0 16-7.2 16-16l0-24c0-8.8-7.2-16-16-16l-24 0zm82 16l0 24c0 8.8 7.2 16 16 16l24 0c8.8 0 16-7.2 16-16l0-24c0-8.8-7.2-16-16-16l-24 0c-8.8 0-16 7.2-16 16zm114-16c-8.8 0-16 7.2-16 16l0 24c0 8.8 7.2 16 16 16l24 0c8.8 0 16-7.2 16-16l0-24c0-8.8-7.2-16-16-16l-24 0zm82 16l0 24c0 8.8 7.2 16 16 16l24 0c8.8 0 16-7.2 16-16l0-24c0-8.8-7.2-16-16-16l-24 0c-8.8 0-16 7.2-16 16zM98 244l0 24c0 8.8 7.2 16 16 16l24 0c8.8 0 16-7.2 16-16l0-24c0-8.8-7.2-16-16-16l-24 0c-8.8 0-16 7.2-16 16zm114-16c-8.8 0-16 7.2-16 16l0 24c0 8.8 7.2 16 16 16l24 0c8.8 0 16-7.2 16-16l0-24c0-8.8-7.2-16-16-16l-24 0zm82 16l0 24c0 8.8 7.2 16 16 16l24 0c8.8 0 16-7.2 16-16l0-24c0-8.8-7.2-16-16-16l-24 0c-8.8 0-16 7.2-16 16zm114-16c-8.8 0-16 7.2-16 16l0 24c0 8.8 7.2 16 16 16l24 0c8.8 0 16-7.2 16-16l0-24c0-8.8-7.2-16-16-16l-24 0zM114 130c-8.8 0-16 7.2-16 16l0 24c0 8.8 7.2 16 16 16l24 0c8.8 0 16-7.2 16-16l0-24c0-8.8-7.2-16-16-16l-24 0zm82 16l0 24c0 8.8 7.2 16 16 16l24 0c8.8 0 16-7.2 16-16l0-24c0-8.8-7.2-16-16-16l-24 0c-8.8 0-16 7.2-16 16zm114-16c-8.8 0-16 7.2-16 16l0 24c0 8.8 7.2 16 16 16l24 0c8.8 0 16-7.2 16-16l0-24c0-8.8-7.2-16-16-16l-24 0zm82 16l0 24c0 8.8 7.2 16 16 16l24 0c8.8 0 16-7.2 16-16l0-24c0-8.8-7.2-16-16-16l-24 0c-8.8 0-16 7.2-16 16zM98 48l0 24c0 8.8 7.2 16 16 16l24 0c8.8 0 16-7.2 16-16l0-24c0-8.8-7.2-16-16-16l-24 0c-8.8 0-16 7.2-16 16zM212 32c-8.8 0-16 7.2-16 16l0 24c0 8.8 7.2 16 16 16l24 0c8.8 0 16-7.2 16-16l0-24c0-8.8-7.2-16-16-16l-24 0zm82 16l0 24c0 8.8 7.2 16 16 16l24 0c8.8 0 16-7.2 16-16l0-24c0-8.8-7.2-16-16-16l-24 0c-8.8 0-16 7.2-16 16zM408 32c-8.8 0-16 7.2-16 16l0 24c0 8.8 7.2 16 16 16l24 0c8.8 0 16-7.2 16-16l0-24c0-8.8-7.2-16-16-16l-24 0z"/></svg>