<svg xmlns="http://www.w3.org/2000/svg" viewBox="0 0 320 512"><path fill="currentColor" d="M40 40l0 48 48 0 0-48-48 0zM0 40C0 17.9 17.9 0 40 0L88 0c22.1 0 40 17.9 40 40l0 48c0 22.1-17.9 40-40 40l-48 0C17.9 128 0 110.1 0 88L0 40zM40 232l0 48 48 0 0-48-48 0zM0 232c0-22.1 17.9-40 40-40l48 0c22.1 0 40 17.9 40 40l0 48c0 22.1-17.9 40-40 40l-48 0c-22.1 0-40-17.9-40-40l0-48zM88 424l-48 0 0 48 48 0 0-48zM40 384l48 0c22.1 0 40 17.9 40 40l0 48c0 22.1-17.9 40-40 40l-48 0c-22.1 0-40-17.9-40-40l0-48c0-22.1 17.9-40 40-40zM232 40l0 48 48 0 0-48-48 0zm-40 0c0-22.1 17.9-40 40-40l48 0c22.1 0 40 17.9 40 40l0 48c0 22.1-17.9 40-40 40l-48 0c-22.1 0-40-17.9-40-40l0-48zm88 192l-48 0 0 48 48 0 0-48zm-48-40l48 0c22.1 0 40 17.9 40 40l0 48c0 22.1-17.9 40-40 40l-48 0c-22.1 0-40-17.9-40-40l0-48c0-22.1 17.9-40 40-40zm0 232l0 48 48 0 0-48-48 0zm-40 0c0-22.1 17.9-40 40-40l48 0c22.1 0 40 17.9 40 40l0 48c0 22.1-17.9 40-40 40l-48 0c-22.1 0-40-17.9-40-40l0-48z"/></svg>