<svg xmlns="http://www.w3.org/2000/svg" viewBox="0 0 512 512"><path fill="currentColor" d="M112 88a24 24 0 1 1 -48 0 24 24 0 1 1 48 0zM88 24a64 64 0 1 0 0 128 64 64 0 1 0 0-128zm24 232a24 24 0 1 1 -48 0 24 24 0 1 1 48 0zM88 192a64 64 0 1 0 0 128 64 64 0 1 0 0-128zm0 208a24 24 0 1 1 0 48 24 24 0 1 1 0-48zM24 424a64 64 0 1 0 128 0 64 64 0 1 0 -128 0zM280 88a24 24 0 1 1 -48 0 24 24 0 1 1 48 0zM256 24a64 64 0 1 0 0 128 64 64 0 1 0 0-128zm0 208a24 24 0 1 1 0 48 24 24 0 1 1 0-48zm-64 24a64 64 0 1 0 128 0 64 64 0 1 0 -128 0zm88 168a24 24 0 1 1 -48 0 24 24 0 1 1 48 0zm-24-64a64 64 0 1 0 0 128 64 64 0 1 0 0-128zM424 64a24 24 0 1 1 0 48 24 24 0 1 1 0-48zM360 88a64 64 0 1 0 128 0 64 64 0 1 0 -128 0zm88 168a24 24 0 1 1 -48 0 24 24 0 1 1 48 0zm-24-64a64 64 0 1 0 0 128 64 64 0 1 0 0-128zm0 208a24 24 0 1 1 0 48 24 24 0 1 1 0-48zm-64 24a64 64 0 1 0 128 0 64 64 0 1 0 -128 0z"/></svg>