<svg xmlns="http://www.w3.org/2000/svg" viewBox="0 0 448 512"><path fill="currentColor" d="M38.1 32a38.1 38.1 0 1 0 0 76.2 38.1 38.1 0 1 0 0-76.2zm124.2 0a38.1 38.1 0 1 0 0 76.2 38.1 38.1 0 1 0 0-76.2zm85.4 38.1a38.1 38.1 0 1 0 76.2 0 38.1 38.1 0 1 0 -76.2 0zM409.9 32a38.1 38.1 0 1 0 0 76.2 38.1 38.1 0 1 0 0-76.2zM0 194.2a38.1 38.1 0 1 0 76.2 0 38.1 38.1 0 1 0 -76.2 0zm162.2-38.1a38.1 38.1 0 1 0 0 76.2 38.1 38.1 0 1 0 0-76.2zm85.4 38.1a38.1 38.1 0 1 0 76.2 0 38.1 38.1 0 1 0 -76.2 0zm162.2-38.1a38.1 38.1 0 1 0 0 76.2 38.1 38.1 0 1 0 0-76.2zM0 317.8a38.1 38.1 0 1 0 76.2 0 38.1 38.1 0 1 0 -76.2 0zm162.2-38.1a38.1 38.1 0 1 0 0 76.2 38.1 38.1 0 1 0 0-76.2zm85.4 38.1a38.1 38.1 0 1 0 76.2 0 38.1 38.1 0 1 0 -76.2 0zm162.2-38.1a38.1 38.1 0 1 0 0 76.2 38.1 38.1 0 1 0 0-76.2zM0 441.9a38.1 38.1 0 1 0 76.2 0 38.1 38.1 0 1 0 -76.2 0zm162.2-38.1a38.1 38.1 0 1 0 0 76.2 38.1 38.1 0 1 0 0-76.2zm85.4 38.1a38.1 38.1 0 1 0 76.2 0 38.1 38.1 0 1 0 -76.2 0zm162.2-38.1a38.1 38.1 0 1 0 0 76.2 38.1 38.1 0 1 0 0-76.2z"/></svg>