<svg xmlns="http://www.w3.org/2000/svg" viewBox="0 0 640 512"><path fill="currentColor" d="M112 80l0 16c0 97.2 78.8 176 176 176 7 0 14-.4 20.8-1.2-9.2 15.4-17.7 32-24.2 49.2-15.7-.2-31.1-2.1-45.9-5.4l-22.9 53.4 56.9 0c-.5 4.7-.7 9.4-.7 14.1 0 11.5 .9 22.8 2.7 33.9L224 416c0 35.3-28.7 64-64 64s-64-28.7-64-64 28.7-64 64-64c3.4 0 6.8 .3 10.1 .8L193.2 299C116.9 263.3 64 185.8 64 96l0-24c0-22.1 17.9-40 40-40l368 0c22.1 0 40 17.9 40 40l0 24c0 26.8-4.7 52.4-13.3 76.2-4.3-4.1-8.6-8.1-13-12.1-8.4-7.6-18.3-12.4-28.7-14.7 4.6-15.7 7-32.3 7-49.4l0-16-352 0zm72 336a24 24 0 1 0 -48 0 24 24 0 1 0 48 0zM505.7 240.3L518 226.5c5.4-6.1 13.3-8.8 20.9-8.9 7.2 0 14.3 2.6 19.9 7.8 19.7 18.3 39.8 43.2 55 70.6 15.1 27.2 26.2 58.1 26.2 88.1 0 88.7-71.3 159.8-160 159.8-89.6 0-160-71.3-160-159.8 0-37.3 16-73.4 36.8-104.5 20.9-31.3 47.5-59 70.9-80.2 5.7-5.2 13.1-7.7 20.3-7.5s13.4 3.2 18.8 7.5c14.4 11.4 38.9 40.7 38.9 40.7zM544 432.2c0-36.5-37-73-54.8-88.4-5.4-4.7-13.1-4.7-18.5 0-17.7 15.4-54.8 51.9-54.8 88.4 0 35.3 28.7 64 64 64s64-28.7 64-64z"/></svg>