<svg xmlns="http://www.w3.org/2000/svg" viewBox="0 0 448 512"><path fill="currentColor" d="M104-64c-13.3 0-24 10.7-24 24 0 21.7 8.6 42.6 24 57.9L134.1 48c6.4 6.4 9.9 15 9.9 24 0 13.3 10.7 24 24 24s24-10.7 24-24c0-21.7-8.6-42.6-24-57.9L137.9-16c-6.4-6.4-9.9-15-9.9-24 0-13.3-10.7-24-24-24zM49.1 192l349.9 0c-8.7 72.1-70.2 128-144.7 128l-60.5 0c-74.5 0-135.9-55.9-144.7-128zM30.3 144C13.6 144 0 157.6 0 174.3 0 255 49.4 324.2 119.6 353.3l-13.5 31.5c-3.3-.5-6.7-.8-10.1-.8-35.3 0-64 28.7-64 64s28.7 64 64 64 64-28.7 64-64l156.7 0 21.2 49.5c5.2 12.2 19.3 17.8 31.5 12.6s17.8-19.3 12.6-31.5L328.4 353.3c70.2-29.1 119.6-98.3 119.6-179 0-16.7-13.6-30.3-30.3-30.3L30.3 144zM296.2 400l-144.4 0 14.5-33.9c8.9 1.3 18.1 1.9 27.4 1.9l60.5 0c9.3 0 18.4-.7 27.4-1.9L296.2 400zM96 424a24 24 0 1 1 0 48 24 24 0 1 1 0-48zM240-40c0-13.3-10.7-24-24-24s-24 10.7-24 24c0 21.7 8.6 42.6 24 57.9L246.1 48c6.4 6.4 9.9 15 9.9 24 0 13.3 10.7 24 24 24s24-10.7 24-24c0-21.7-8.6-42.6-24-57.9L249.9-16c-6.4-6.4-9.9-15-9.9-24z"/></svg>