<svg xmlns="http://www.w3.org/2000/svg" viewBox="0 0 320 512"><path fill="currentColor" d="M64 88a24 24 0 1 0 0-48 24 24 0 1 0 0 48zm64-24A64 64 0 1 1 0 64 64 64 0 1 1 128 64zM64 280a24 24 0 1 0 0-48 24 24 0 1 0 0 48zm64-24a64 64 0 1 1 -128 0 64 64 0 1 1 128 0zM40 448c0 13.3 10.7 24 24 24s24-10.7 24-24-10.7-24-24-24-24 10.7-24 24zm24-64c35.3 0 64 28.7 64 64s-28.7 64-64 64-64-28.7-64-64 28.7-64 64-64zM256 88a24 24 0 1 0 0-48 24 24 0 1 0 0 48zm64-24a64 64 0 1 1 -128 0 64 64 0 1 1 128 0zM232 256a24 24 0 1 0 48 0 24 24 0 1 0 -48 0zm24 64a64 64 0 1 1 0-128 64 64 0 1 1 0 128zm0 152c13.3 0 24-10.7 24-24s-10.7-24-24-24-24 10.7-24 24 10.7 24 24 24zm-64-24c0-35.3 28.7-64 64-64s64 28.7 64 64-28.7 64-64 64-64-28.7-64-64z"/></svg>