<svg xmlns="http://www.w3.org/2000/svg" viewBox="0 0 512 512"><path fill="currentColor" d="M64 184a24 24 0 1 1 0-48 24 24 0 1 1 0 48zm64-24a64 64 0 1 0 -128 0 64 64 0 1 0 128 0zm152 0a24 24 0 1 1 -48 0 24 24 0 1 1 48 0zM256 96a64 64 0 1 0 0 128 64 64 0 1 0 0-128zm216 64a24 24 0 1 1 -48 0 24 24 0 1 1 48 0zM448 96a64 64 0 1 0 0 128 64 64 0 1 0 0-128zm24 256a24 24 0 1 1 -48 0 24 24 0 1 1 48 0zm-24-64a64 64 0 1 0 0 128 64 64 0 1 0 0-128zM256 376a24 24 0 1 1 0-48 24 24 0 1 1 0 48zm64-24a64 64 0 1 0 -128 0 64 64 0 1 0 128 0zM88 352a24 24 0 1 1 -48 0 24 24 0 1 1 48 0zM64 288a64 64 0 1 0 0 128 64 64 0 1 0 0-128z"/></svg>