<svg xmlns="http://www.w3.org/2000/svg" viewBox="0 0 512 512"><path fill="currentColor" d="M88 184l-48 0 0-48 48 0 0 48zm40-48c0-22.1-17.9-40-40-40L40 96C17.9 96 0 113.9 0 136l0 48c0 22.1 17.9 40 40 40l48 0c22.1 0 40-17.9 40-40l0-48zm152 0l0 48-48 0 0-48 48 0zm0-40l-48 0c-22.1 0-40 17.9-40 40l0 48c0 22.1 17.9 40 40 40l48 0c22.1 0 40-17.9 40-40l0-48c0-22.1-17.9-40-40-40zm192 40l0 48-48 0 0-48 48 0zm0-40l-48 0c-22.1 0-40 17.9-40 40l0 48c0 22.1 17.9 40 40 40l48 0c22.1 0 40-17.9 40-40l0-48c0-22.1-17.9-40-40-40zm0 232l0 48-48 0 0-48 48 0zm0-40l-48 0c-22.1 0-40 17.9-40 40l0 48c0 22.1 17.9 40 40 40l48 0c22.1 0 40-17.9 40-40l0-48c0-22.1-17.9-40-40-40zM280 376l-48 0 0-48 48 0 0 48zm40-48c0-22.1-17.9-40-40-40l-48 0c-22.1 0-40 17.9-40 40l0 48c0 22.1 17.9 40 40 40l48 0c22.1 0 40-17.9 40-40l0-48zM88 328l0 48-48 0 0-48 48 0zm0-40l-48 0c-22.1 0-40 17.9-40 40l0 48c0 22.1 17.9 40 40 40l48 0c22.1 0 40-17.9 40-40l0-48c0-22.1-17.9-40-40-40z"/></svg>