<svg xmlns="http://www.w3.org/2000/svg" viewBox="0 0 512 512"><path fill="currentColor" d="M80 64a16 16 0 1 1 -32 0 16 16 0 1 1 32 0zM45.3 125.2c-11.5 18.5-20.6 38.6-27 59.9-3.8 12.7 3.5 26.1 16.2 29.8s26.1-3.5 29.8-16.2c19.2-64.5 70.1-115.4 134.6-134.6 12.7-3.8 19.9-17.1 16.2-29.8s-17.1-19.9-29.8-16.2c-21.3 6.3-41.4 15.5-59.9 27-8-26.2-32.4-45.3-61.2-45.3-35.3 0-64 28.7-64 64 0 28.8 19.1 53.2 45.3 61.2zM432 64a16 16 0 1 1 32 0 16 16 0 1 1 -32 0zm34.7 61.2c26.2-8 45.3-32.4 45.3-61.2 0-35.3-28.7-64-64-64-28.8 0-53.2 19.1-61.2 45.3-18.5-11.5-38.6-20.6-59.9-27-12.7-3.8-26.1 3.5-29.8 16.2s3.5 26.1 16.2 29.8c64.5 19.2 115.4 70.1 134.6 134.6 3.8 12.7 17.1 19.9 29.8 16.2s19.9-17.1 16.2-29.8c-6.3-21.3-15.5-41.4-27-59.9zM448 464a16 16 0 1 1 0-32 16 16 0 1 1 0 32zm45.7-137.2c3.8-12.7-3.5-26.1-16.2-29.8s-26.1 3.5-29.8 16.2c-19.2 64.5-70.1 115.4-134.6 134.6-12.7 3.8-19.9 17.1-16.2 29.8s17.1 19.9 29.8 16.2c21.3-6.3 41.4-15.5 59.9-27 8 26.2 32.4 45.3 61.2 45.3 35.3 0 64-28.7 64-64 0-28.8-19.1-53.2-45.3-61.2 11.5-18.5 20.6-38.6 27-59.9zM80 448a16 16 0 1 1 -32 0 16 16 0 1 1 32 0zM45.3 386.8c-26.2 8-45.3 32.4-45.3 61.2 0 35.3 28.7 64 64 64 28.8 0 53.2-19.1 61.2-45.3 18.5 11.5 38.6 20.6 59.9 27 12.7 3.8 26.1-3.5 29.8-16.2s-3.5-26.1-16.2-29.8c-64.5-19.2-115.4-70.1-134.6-134.6-3.8-12.7-17.1-19.9-29.8-16.2s-19.9 17.1-16.2 29.8c6.3 21.3 15.5 41.4 27 59.9zM256 192c15.6 0 30 5.6 41.1 14.9l-15.3 15.3c-6.6 6.6-1.9 17.8 7.4 17.8l60.5 0c5.7 0 10.4-4.7 10.4-10.4l0-60.5c0-9.3-11.2-13.9-17.8-7.4l-11.2 11.2c-19.8-17.9-46.2-28.9-75.1-28.9-43.6 0-81.3 24.9-99.8 61.1-6 11.8-1.4 26.3 10.4 32.3s26.3 1.4 32.3-10.4c10.6-20.8 32.2-34.9 57-34.9zm58.6 93.1c-10.6 20.8-32.2 34.9-57 34.9-15.7 0-30-5.6-41.1-14.9l15.3-15.3c6.6-6.6 1.9-17.8-7.4-17.8L164 272c-5.7 0-10.4 4.7-10.4 10.4l0 60.5c0 9.3 11.2 13.9 17.8 7.4l11.2-11.2c19.8 17.9 46.2 28.9 75.1 28.9 43.6 0 81.3-24.9 99.8-61.1 6-11.8 1.4-26.3-10.4-32.3s-26.3-1.4-32.3 10.4z"/></svg>