<svg xmlns="http://www.w3.org/2000/svg" viewBox="0 0 576 512"><path fill="currentColor" d="M120 0C106.7 0 96 10.7 96 24l0 52.2c0 6.2 1.4 12.3 4.2 17.9l19.8 39.6 0 44.4c-50.3 8.6-88 43.8-88 86 0 14 4.2 27.3 11.6 39.1 8.2 13 7.5 31.9-2.9 43.4-15.6 17.2-24.8 38.5-24.8 61.5 0 57.4 57.3 104 128 104 49.2 0 91.9-22.6 113.3-55.6-.9-5.9-1.3-12-1.3-18.2 0-20.1 5-38.7 12.4-54.9-4-13.5-11.3-26-21.1-36.8-10.3-11.4-11.1-30.4-2.9-43.4 7.5-11.8 11.6-25.1 11.6-39.1 0-42.1-37.7-77.3-88-86l0-44.4 19.8-39.6c2.8-5.6 4.2-11.7 4.2-17.9L192 24c0-13.3-10.7-24-24-24L120 0zM80 264c0-9.6 11.2-29.7 40-37.1l0 85.1c0 13.3 10.7 24 24 24s24-10.7 24-24l0-85.1c28.8 7.4 40 27.5 40 37.1 0 4.2-1.2 8.7-4.2 13.5-18.6 29.4-18.4 72.2 7.8 101.2 8.6 9.5 12.4 19.7 12.4 29.3 0 22.1-26 56-80 56s-80-33.9-80-56c0-9.7 3.7-19.8 12.4-29.3 26.2-29 26.4-71.9 7.8-101.2-3-4.8-4.2-9.2-4.2-13.5zM386.6 124.1l21.4 24.5 0 89.9c-14.7-3-24.9-10-32-18.3-2.5-2.9-4.6-6-6.3-9.1-3.7-6.6-6-13.3-7.4-19.1l0-.2c-2.1-8.6-9.3-15.8-18.2-15.8s-16 7.2-16 16l0 40.6c0 .8 0 1.7 .1 2.5 .5 11.5 4.7 22.7 8.7 33.7l0 0c.9 2.5 1.8 5 2.7 7.5 2.6 7.3 4.5 16.5 4.5 27.8 0 33.5-17 70.9-28.8 92.9-6.9 12.7-11.2 26.9-11.2 41.3 0 40.8 33 73.8 73.8 73.8l108.4 0c40.8 0 73.8-33 73.8-73.8 0-14.5-4.3-28.6-11.2-41.3-11.8-22-28.8-59.3-28.8-92.9 0-13.6 2.9-24.3 6.2-32.1l.5-1.1 0 0c3.8-8.9 7.7-18.2 8.9-27.7 .2-1.9 .4-3.9 .4-5.8l0-29.3c0-8.8-7.2-16-16-16s-16.2 7.3-19.5 15.5l-.2 .5c-1.9 4.5-4.7 9.4-9.1 14-1 1.1-2.1 2.1-3.2 3.1-7.1 6.2-17.3 11.5-32 13.7l0-164.7c9.6-6.4 16-17.3 16-29.7l0-4.6c0-22-17.8-39.8-39.8-39.8-18.8 0-35 13.1-38.9 31.5L379.4 96.3c-2.1 9.9 .6 20.2 7.2 27.8zM416 384c-13.3 0-24 10.7-24 24s10.7 24 24 24l32 0c13.3 0 24-10.7 24-24s-10.7-24-24-24l-32 0zm-24-80c0-7.2-.5-14-1.5-20.4 10.3 2.8 21.4 4.4 33.5 4.4l16 0c11.9 0 23-1.2 33.4-3.6-.9 6.1-1.4 12.7-1.4 19.6 0 46.4 22.3 92.9 34.5 115.6 4 7.4 5.5 13.7 5.5 18.6 0 14.2-11.6 25.8-25.8 25.8l-108.4 0c-14.2 0-25.8-11.6-25.8-25.8 0-4.9 1.5-11.2 5.5-18.6 12.2-22.7 34.5-69.2 34.5-115.6z"/></svg>