<svg xmlns="http://www.w3.org/2000/svg" viewBox="0 0 512 512"><path fill="currentColor" d="M431.5 7c9.4-9.4 24.6-9.4 33.9 0l40 40c9.4 9.4 9.4 24.6 0 33.9l-48 48c-2.4 2.4-5.3 4.3-8.5 5.5l-59.1 22.2-35.8 35.8c38.2 50.8 41.4 115.2 4.6 152-12 12-26.8 19.7-43.2 23.4-18.1 4.1-33.5 20.8-34.5 39.4-1.4 27.9-11.7 53.8-31.3 73.4-48.9 48.9-137.2 39.7-197.4-20.4S-16.9 311.7 31.9 262.8c19.6-19.6 45.5-29.8 73.4-31.2 18.5-.9 35.3-16.4 39.4-34.5 3.7-16.4 11.4-31.2 23.4-43.2 36.8-36.8 101.2-33.6 152 4.6l35.8-35.8 22.2-59.1c1.2-3.2 3.1-6.1 5.5-8.5l48-48zM254.9 291.6c1.1 4 1.6 8.1 1.6 12.4 0 26.5-21.5 48-48 48s-48-21.5-48-48 21.5-48 48-48c4.3 0 8.5 .6 12.4 1.6l64.8-64.8c-36-24.5-70.6-18.1-83.8-5-5 5-8.6 11.5-10.5 19.8-8.3 37-41.6 69.7-83.8 71.9-17.6 .9-31.7 7.1-41.9 17.3-23.9 23.9-27.9 81.2 20.4 129.5s105.6 44.3 129.5 20.4c10.1-10.1 16.4-24.3 17.3-41.9 2.1-42.2 34.9-75.4 71.9-83.8 8.3-1.9 14.8-5.5 19.8-10.5 13.2-13.2 19.6-47.8-5-83.8l-64.8 64.8z"/></svg>