<svg xmlns="http://www.w3.org/2000/svg" viewBox="0 0 512 512"><path fill="currentColor" d="M352 126.1l0-44.9c0-10.7 5.3-20.7 14.2-26.6L435.6 8.3C443.7 2.9 453.2 0 462.9 0L464 0c26.5 0 48 21.5 48 48s-21.5 48-48 48l-14.1 0-135.6 135.6c9.1 8.1 13.8 8.4 14.9 8.4 2.6 .1 4.3-.6 10.9-3.5 1.1-.5 2.3-1 3.7-1.6 13.2-5.6 36-8.3 52.3 8.2 15.8 15.9 15.8 41.7 0 57.6l-21.6 21.8c-12.2 12.3-28.2 18.8-38.7 23-8.4 3.4-15.9 8.3-22.3 14.8-17.3 17.5-23.7 39.4-30.6 63.5-6.2 21.6-14.7 42-30.8 58.3-39.4 39.9-103.5 39.9-142.9 0L29.5 401.3c-39.3-39.7-39.3-104 0-143.7 15.9-16.1 36.1-24.8 57.4-31.1 23.9-7.1 45.6-13.5 63-31.1 6.8-6.9 11.3-14.8 15.3-23.5 5.4-11.9 13.1-29.1 25.6-41.7l29.9-30.2c15.9-16.1 41.8-16.1 57.7 0 16.1 16.3 14.2 39.7 5.2 54.6-1.1 1.8-2.1 3.4-3 4.9-4.9 8-7.8 12.7-8.8 18.2-.6 3.2-1 9.2 8.7 19.8L352 126.1zM167 263c9.4-9.4 24.6-9.4 33.9 0l48 48c9.4 9.4 9.4 24.6 0 33.9s-24.6 9.4-33.9 0l-48-48c-9.4-9.4-9.4-24.6 0-33.9zm-64 64c9.4-9.4 24.6-9.4 33.9 0l48 48c9.4 9.4 9.4 24.6 0 33.9s-24.6 9.4-33.9 0l-48-48c-9.4-9.4-9.4-24.6 0-33.9zM224.4 169.6c.4-2.3 .9-4.5 1.5-6.7-7.1 7.1-11.2 16.1-15.3 25.1l-.6 1.2c-6.8 14.7-14.6 28.3-26.1 40-26.7 27-60.7 36.8-83.8 43.5-13.4 3.9-26.5 8.5-36.6 18.7-20.8 21-20.8 55.2 0 76.2l79.9 80.8c20.6 20.9 54 20.9 74.6 0 10.2-10.3 14.8-23.7 18.6-37.4 6.6-23.3 16.2-57.6 42.8-84.4 12.5-12.6 25.3-20.2 36.2-24.7l.6-.3c9.7-3.9 19-7.7 26.4-15.3-4.6 1.1-9.7 1.7-15 1.6-18-.6-35-9.7-52.1-27l-27.8-27.9c-20.4-20.6-27.2-42.3-23.5-63.5z"/></svg>