<svg xmlns="http://www.w3.org/2000/svg" viewBox="0 0 576 512"><path fill="currentColor" d="M41-24.9c-9.4-9.4-24.6-9.4-33.9 0S-2.3-.3 7 9.1l528 528c9.4 9.4 24.6 9.4 33.9 0s9.4-24.6 0-33.9l-193.1-193.1 25-70 32.5 0c10.6 0 20.8-4.2 28.3-11.7l20.3-20.3 54.1 0c22.1 0 40-17.9 40-40l0-64c0-22.1-17.9-40-40-40l-8 0 0-8c0-13.3-10.7-24-24-24s-24 10.7-24 24l0 8-350.2 0-88.9-88.9zM177.8 112l350.2 0 0 48-49.4 0c-10.6 0-20.8 4.2-28.3 11.7l-20.3 20.3-172.2 0-80-80zm128 128l44.1 0-11.6 32.5-32.5-32.5zM203.2 273.1l-39.7 158.9-79 0 35.1-140.6c4.5-18.1 2.5-35.9-4.3-51.4l54.8 0-48-48-74.2 0 0-74.2-39-39C3.4 85.7 0 94.4 0 104l0 96c0 22.1 17.9 40 40 40l2 0c20.8 0 36.1 19.6 31 39.8L33 440.2c-2.4 9.6-.2 19.7 5.8 27.5S54.1 480 64 480l112 0c14.7 0 27.5-10 31-24.2l25.9-103.8 49.2 0-78.9-78.9z"/></svg>