<svg xmlns="http://www.w3.org/2000/svg" viewBox="0 0 512 512"><path fill="currentColor" d="M440 88c0-8.5-4.5-16.4-11.8-20.7s-16.4-4.4-23.8-.3l-72 40c-11.6 6.4-15.8 21-9.3 32.6s21 15.8 32.6 9.3l36.3-20.2 0 271.2-48 0c-13.3 0-24 10.7-24 24s10.7 24 24 24l144 0c13.3 0 24-10.7 24-24s-10.7-24-24-24l-48 0 0-312zM48 88c0-13.3-10.7-24-24-24S0 74.7 0 88L0 424c0 13.3 10.7 24 24 24s24-10.7 24-24l0-144 160 0 0 144c0 13.3 10.7 24 24 24s24-10.7 24-24l0-336c0-13.3-10.7-24-24-24s-24 10.7-24 24l0 144-160 0 0-144z"/></svg>