<svg xmlns="http://www.w3.org/2000/svg" viewBox="0 0 576 512"><path fill="currentColor" d="M80 88c0-13.3-10.7-24-24-24S32 74.7 32 88l0 336c0 13.3 10.7 24 24 24s24-10.7 24-24l0-144 128 0 0 144c0 13.3 10.7 24 24 24s24-10.7 24-24l0-336c0-13.3-10.7-24-24-24s-24 10.7-24 24l0 144-128 0 0-144zM352 256c0 13.3 10.7 24 24 24l68 0c33.1 0 60 26.9 60 60s-26.9 60-60 60l-100 0c-13.3 0-24 10.7-24 24s10.7 24 24 24l100 0c59.6 0 108-48.4 108-108 0-33.9-15.6-64.2-40.1-84 24.5-19.8 40.1-50.1 40.1-84 0-59.6-48.4-108-108-108L344 64c-13.3 0-24 10.7-24 24s10.7 24 24 24l100 0c33.1 0 60 26.9 60 60s-26.9 60-60 60l-68 0c-13.3 0-24 10.7-24 24z"/></svg>