<svg xmlns="http://www.w3.org/2000/svg" viewBox="0 0 576 512"><path fill="currentColor" d="M80 88c0-13.3-10.7-24-24-24S32 74.7 32 88l0 336c0 13.3 10.7 24 24 24s24-10.7 24-24l0-144 128 0 0 144c0 13.3 10.7 24 24 24s24-10.7 24-24l0-336c0-13.3-10.7-24-24-24s-24 10.7-24 24l0 144-128 0 0-144zM344 64c-13.3 0-24 10.7-24 24l0 160c0 13.3 10.7 24 24 24l96 0c35.3 0 64 28.7 64 64s-28.7 64-64 64l-96 0c-13.3 0-24 10.7-24 24s10.7 24 24 24l96 0c61.9 0 112-50.1 112-112S501.9 224 440 224l-72 0 0-112 144 0c13.3 0 24-10.7 24-24s-10.7-24-24-24L344 64z"/></svg>