<svg xmlns="http://www.w3.org/2000/svg" viewBox="0 0 512 512"><path fill="currentColor" d="M24 64c13.3 0 24 10.7 24 24l0 144 128 0 0-144c0-13.3 10.7-24 24-24s24 10.7 24 24l0 336c0 13.3-10.7 24-24 24s-24-10.7-24-24l0-144-128 0 0 144c0 13.3-10.7 24-24 24S0 437.3 0 424L0 88C0 74.7 10.7 64 24 64zm360 48c-26.5 0-48 21.5-48 48l0 60.8c14.1-8.2 30.5-12.8 48-12.8l32 0c53 0 96 43 96 96l0 48c0 53-43 96-96 96l-32 0c-53 0-96-43-96-96l0-192c0-53 43-96 96-96l72 0c13.3 0 24 10.7 24 24s-10.7 24-24 24l-72 0zM336 304l0 48c0 26.5 21.5 48 48 48l32 0c26.5 0 48-21.5 48-48l0-48c0-26.5-21.5-48-48-48l-32 0c-26.5 0-48 21.5-48 48z"/></svg>