<svg xmlns="http://www.w3.org/2000/svg" viewBox="0 0 640 512"><path fill="currentColor" d="M120-16C53.7-16 0 37.7 0 104l0 16c0 6.4 2.5 12.5 7 17s10.6 7 17 7l65.4 0 19.1 11.5c1.2 .7 2.4 1.4 3.5 2L112 448c0 35.3 28.7 64 64 64s64-28.7 64-64l0-290.5c1.2-.6 2.4-1.3 3.5-2l19.1-11.5 42.7 0c3.3 9.3 12.2 16 22.6 16 13.3 0 24-10.7 24-24l0-112c0-13.3-10.7-24-24-24-10.5 0-19.3 6.7-22.6 16l-39.4 0-6.2-6.2C243.2-6.7 220.8-16 197.5-16L120-16zm40 464l0-280 32 0 0 280c0 8.8-7.2 16-16 16s-16-7.2-16-16zM304 64l0 32-48 0c-4.3 0-8.6 1.2-12.3 3.4l-24.8 14.9c-6.2 3.7-13.3 5.7-20.6 5.7l-44.5 0c-7.2 0-14.4-2-20.6-5.7L108.3 99.4c-3.7-2.2-8-3.4-12.3-3.4L48.4 96c4-36 34.5-64 71.6-64l77.5 0c10.6 0 20.8 4.2 28.3 11.7L239 57c4.5 4.5 10.6 7 17 7l48 0zm144 0c0-8.8 7.2-16 16-16s16 7.2 16 16l0 144c0 6.8 2.9 13.3 7.9 17.8l58.8 52.9c3 2.7 5.6 5.8 7.6 9.2l-180.7 0c2-3.4 4.6-6.5 7.6-9.2l58.8-52.9c5.1-4.6 7.9-11 7.9-17.8l0-144zM368 336l192 0 0 120c0 4.4-3.6 8-8 8l-88 0 0-56c0-13.3-10.7-24-24-24s-24 10.7-24 24l0 56-40 0c-4.4 0-8-3.6-8-8l0-120zM464 0c-35.3 0-64 28.7-64 64l0 133.3-50.9 45.8c-18.5 16.7-29.1 40.5-29.1 65.4L320 456c0 30.9 25.1 56 56 56l176 0c30.9 0 56-25.1 56-56l0-147.5c0-24.9-10.6-48.7-29.1-65.4L528 197.3 528 64c0-35.3-28.7-64-64-64z"/></svg>