<svg xmlns="http://www.w3.org/2000/svg" viewBox="0 0 640 512"><path fill="currentColor" d="M456.2-32c0-13.3-10.7-24-24-24s-24 10.7-24 24l0 48c0 13.3 10.7 24 24 24s24-10.7 24-24l0-48zm-24 280c-13.3 0-24 10.7-24 24l0 48c0 13.3 10.7 24 24 24s24-10.7 24-24l0-48c0-13.3-10.7-24-24-24zm200-104c0-13.3-10.7-24-24-24l-48 0c-13.3 0-24 10.7-24 24s10.7 24 24 24l48 0c13.3 0 24-10.7 24-24zM573.6 2.6c-9.4-9.4-24.6-9.4-33.9 0L505.7 36.5c-9.4 9.4-9.4 24.6 0 33.9s24.6 9.4 33.9 0l33.9-33.9c9.4-9.4 9.4-24.6 0-33.9zm-33.9 215c-9.4-9.4-24.6-9.4-33.9 0s-9.4 24.6 0 33.9l33.9 33.9c9.4 9.4 24.6 9.4 33.9 0s9.4-24.6 0-33.9l-33.9-33.9zM80.1 208l0-60.1 67.9-67.9 172.1 0 0 128-240 0zm-48-66.7l0 82.7c0 17.7 14.3 32 32 32l136 0 0 264c0 13.3 10.7 24 24 24s24-10.7 24-24l0-264 88 0c17.7 0 32-14.3 32-32l0-160c0-17.7-14.3-32-32-32L141.3 32c-8.5 0-16.6 3.4-22.6 9.4L41.5 118.6c-6 6-9.4 14.1-9.4 22.6z"/></svg>