<svg xmlns="http://www.w3.org/2000/svg" viewBox="0 0 640 512"><path fill="currentColor" d="M468.8 26C410.2-26.5 326.2-39.7 254.2-7.7l-40 17.8c-7.6 3.4-12.9 10.5-14 18.7s2.1 16.5 8.6 21.8l79.2 64.8 0 42.7-233 233c-27 27-27 70.9 0 97.9s70.9 27 97.9 0l233-233 60.1 0 32 32c-8.4 9.4-8.1 23.9 .9 32.9 9.4 9.4 24.6 9.4 33.9 0l96-96c9.4-9.4 9.4-24.6 0-33.9-9-9-23.5-9.4-32.9-.9l-32-32 0-32.6c0-20.5-8.7-40-24-53.7L468.8 26zm73.2 198l-30.1 30.1-39-39c-4.5-4.5-10.6-7-17-7l-54.1 0-65.9-65.9 0-38.1c0-7.2-3.2-14-8.8-18.6l-57.8-47.3 4.4-1.9c54.7-24.3 118.5-14.3 163.1 25.6L488 107.6c5.1 4.6 8 11.1 8 17.9l0 42.5c0 6.4 2.5 12.5 7 17l39 39zm-192 0L119 455c-8.3 8.3-21.8 8.3-30.1 0s-8.3-21.8 0-30.1l231-231 30.1 30.1z"/></svg>