<svg xmlns="http://www.w3.org/2000/svg" viewBox="0 0 512 512"><path fill="currentColor" d="M184 104l0 96c0 13.3 10.7 24 24 24s24-10.7 24-24l0-128c0-13.3 10.7-24 24-24s24 10.7 24 24l0 128c0 13.3 10.7 24 24 24s24-10.7 24-24l0-96c0-13.3 10.7-24 24-24s24 10.7 24 24l0 176c0 13.3 10.7 24 24 24l48.4 0c8.6 0 15.6 7 15.6 15.6 0 4.1-1.6 8.1-4.6 11l-83.8 83.8C343.9 446.2 300.9 464 256 464s-87.9-17.8-119.6-49.5L52.6 330.6c-2.9-2.9-4.6-6.9-4.6-11 0-8.6 7-15.6 15.6-15.6l48.4 0c13.3 0 24-10.7 24-24l0-176c0-13.3 10.7-24 24-24s24 10.7 24 24zm7.8-64.6c-9.6-4.7-20.4-7.4-31.8-7.4-39.8 0-72 32.2-72 72l0 152-24.4 0c-35.1 0-63.6 28.5-63.6 63.6 0 16.9 6.7 33 18.6 45l83.8 83.8c40.7 40.7 96 63.6 153.5 63.6s112.8-22.9 153.5-63.6l83.8-83.8c11.9-11.9 18.6-28.1 18.6-45 0-35.1-28.5-63.6-63.6-63.6l-24.4 0 0-152c0-39.8-32.2-72-72-72-11.4 0-22.2 2.7-31.8 7.4-11.9-23.4-36.2-39.4-64.2-39.4s-52.3 16-64.2 39.4zM165.4 338.2c-3.6 3.7-5.4 8.7-5.4 13.8s1.8 10.1 5.4 13.8C179.2 380.2 217.6 416 256 416s76.8-35.8 90.6-50.2c3.6-3.7 5.4-8.7 5.4-13.8s-1.8-10.1-5.4-13.8C332.8 323.8 294.4 288 256 288s-76.8 35.8-90.6 50.2zM256 320a32 32 0 1 1 0 64 32 32 0 1 1 0-64z"/></svg>