<svg xmlns="http://www.w3.org/2000/svg" viewBox="0 0 576 512"><path fill="currentColor" d="M115.6 0C96 0 80 16 80 35.6 80 113.2 142.8 176 220.4 176l43.6 0 0 40c0 13.3 10.7 24 24 24s24-10.7 24-24l0-40 43.6 0C433.2 176 496 113.2 496 35.6 496 16 480 0 460.4 0L416 0C362.3 0 315 27.9 288 70 261 27.9 213.7 0 160 0L115.6 0zM160 48c49.2 0 90.4 34.1 101.2 80l-40.9 0c-46.8 0-85.5-34.8-91.5-80L160 48zm5.2 294.7c6.6-4.4 14.3-6.7 22.2-6.7L320 336c8.8 0 16 7.2 16 16s-7.2 16-16 16l-64 0c-13.3 0-24 10.7-24 24s10.7 24 24 24l144 0c4.8 0 9.6-1.5 13.6-4.2l76-52.1c10.7-7.3 25.4-4.1 32 7 6.1 10.2 3.2 23.5-6.6 30.2l-80.1 54.6c-12 8.2-26.1 12.5-40.6 12.5L24 464c-13.3 0-24 10.7-24 24s10.7 24 24 24l370.4 0c24.1 0 47.7-7.3 67.6-20.9l80.1-54.6c30.9-21 40-62.5 20.7-94.5-20.9-34.8-66.8-44.8-100.3-21.9L392.6 368 382 368c1.3-5.1 2-10.5 2-16 0-35.3-28.7-64-64-64l-132.6 0c-17.4 0-34.4 5.1-48.8 14.8L64.7 352 24 352c-13.3 0-24 10.7-24 24s10.7 24 24 24l48 0c4.7 0 9.4-1.4 13.3-4l79.9-53.3zM416 48l31.2 0c-6 45.2-44.7 80-91.5 80l-40.9 0c10.8-45.9 52-80 101.2-80z"/></svg>