<svg xmlns="http://www.w3.org/2000/svg" viewBox="0 0 640 512"><path fill="currentColor" d="M296 325.8c0 37.2-23.4 70.4-58.5 82.9L56 473.4c-12.5 4.4-19 18.2-14.6 30.7s18.2 19 30.7 14.6L253.6 454c27.6-9.8 50.5-28 66.4-51 15.9 23 38.8 41.1 66.4 51L568 518.6c12.5 4.4 26.2-2.1 30.7-14.6s-2.1-26.2-14.6-30.7L402.5 408.7c-35.1-12.5-58.5-45.7-58.5-82.9l0-65.8c0-11 9-20 20-20s20 8.9 20 20l0 56.9c0 13.3 10.7 24 24 24s24-10.7 24-24l0-136c0-6.1-2.4-12.1-6.6-16.5L350 84.7c-3.8-4-6-9.4-6-15l0-1.7c0-11.1 9-20.1 20.1-20.1 5.8 0 11.3 2.5 15.1 6.8L462 148.7c11.6 13.2 18 30.1 18 47.6l0 104.6c0 9.8 6 18.6 15.1 22.3l88 35.1c12.3 4.9 26.3-1.1 31.2-13.4s-1.1-26.3-13.4-31.2l-72.9-29.1 0-88.3c0-29.2-10.7-57.5-30-79.4L415.2 23.1C402.2 8.4 383.6 0 364.1 0 347.3 0 331.9 6.1 320 16.2 308.1 6.1 292.8 0 276 0 256.4 0 237.8 8.4 224.8 23.1L142 116.9c-19.3 21.9-30 50.2-30 79.4l0 88.3-72.9 29.1c-12.3 4.9-18.3 18.9-13.4 31.2s18.9 18.3 31.2 13.4l88-35.1c9.1-3.6 15.1-12.5 15.1-22.3l0-104.6c0-17.5 6.4-34.5 18-47.6l82.8-93.8c3.8-4.3 9.3-6.8 15.1-6.8 11.1 0 20.1 9 20.1 20.1l0 1.7c0 5.6-2.1 10.9-6 15l-75.5 79.6c-4.2 4.5-6.6 10.4-6.6 16.5l0 136c0 13.3 10.7 24 24 24s24-10.7 24-24l0-56.9c0-11 9-20 20-20s20 9 20 20l0 65.8zm24-117.7c-11.9-10.1-27.2-16.2-44-16.2-7 0-13.7 1-20 3l0-4.6 64-67.5 64 67.5 0 4.6c-6.3-1.9-13-3-20-3-16.8 0-32.1 6.1-44 16.2z"/></svg>