<svg xmlns="http://www.w3.org/2000/svg" viewBox="0 0 576 512"><path fill="currentColor" d="M74.3 3.4c37.9-12 78.4 9.1 90.3 47l18.1 57.2c1 3 1.8 6.1 2.6 9.2l.4-.4c13-13 30.6-20.3 49-20.3 36.5 0 66.4 28.4 69 64.2 34.3 2.4 61.5 29.7 64 64 24.7 1.8 45.8 16.5 56.6 37.5l17.5-17.4c13-13 30.6-20.3 49-20.3 38.2 0 69.2 31 69.2 69.3 0 18.4-7.3 36-20.3 49L436.6 445.3c-40 40-93.4 63.6-149.7 66.4l-11.3 .3C149.9 512 48 410.1 48 284.4l0-116.6c0-5.7-.9-11.4-2.6-16.9L27.4 93.7c-12-37.9 9.1-78.4 47-90.3zm44.6 61.4c-4-12.6-17.5-19.6-30.2-15.7-12.6 4-19.6 17.5-15.7 30.2l18.1 57.2c3.2 10.1 4.8 20.7 4.8 31.3l0 116.6 .2 9.3C101.1 388.5 179.6 464 275.7 464l8.9-.2c44.4-2.2 86.5-20.8 118.1-52.4L505.8 308.3c4-4 6.2-9.4 6.2-15 0-11.7-9.5-21.2-21.2-21.3-5.6 0-11 2.2-15 6.2-68.5 68.5-105 105-109.5 109.5-13 13-30.6 20.3-49 20.3-31.3 0-57.8-20.8-66.3-49.3-4.5 .9-9 1.3-13.7 1.3-38.2 0-69.2-31-69.3-69.3 0-4.6 .4-9.2 1.3-13.7-28.5-8.6-49.3-35-49.3-66.3 0-18.4 7.3-36 20.3-49l3.3-3.4c-.8-12.4-2.9-24.6-6.7-36.4L118.9 64.8zM362.8 272c-5.6 0-11 2.2-15 6.2l-45.5 45.5c-4 4-6.2 9.4-6.2 15 0 11.7 9.5 21.2 21.3 21.3 5.6 0 11-2.2 15-6.2l45.5-45.5c4-4 6.2-9.4 6.2-15 0-11.7-9.5-21.2-21.2-21.3zm-64-64c-5.6 0-11 2.2-15 6.2l-61.5 61.5c-4 4-6.2 9.4-6.2 15 0 11.7 9.5 21.2 21.3 21.3 5.6 0 11-2.2 15-6.2l61.5-61.5c4-4 6.2-9.4 6.2-15 0-11.7-9.5-21.2-21.2-21.2zm-64-64c-5.6 0-11 2.2-15 6.2l-45.5 45.5c-4 4-6.2 9.4-6.2 15 0 11.7 9.5 21.2 21.3 21.2 5.6 0 11-2.2 15-6.2l45.5-45.5c4-4 6.2-9.4 6.2-15 0-11.7-9.5-21.2-21.2-21.2z"/></svg>