<svg xmlns="http://www.w3.org/2000/svg" viewBox="0 0 640 512"><path fill="currentColor" d="M320 0c-13.3 0-24 10.7-24 24l0 8c-31.1 1.2-56 26.8-56 58.2 0 29 21.3 53.6 50 57.7l53.1 7.6c5.1 .7 8.8 5.1 8.8 10.2 0 5.7-4.6 10.3-10.3 10.3L272 176c-13.3 0-24 10.7-24 24s10.7 24 24 24l24 0 0 8c0 13.3 10.7 24 24 24s24-10.7 24-24l0-8c31.1-1.2 56-26.8 56-58.2 0-29-21.3-53.6-50-57.7l-53.1-7.6c-5.1-.7-8.8-5.1-8.8-10.2 0-5.7 4.6-10.3 10.3-10.3L360 80c13.3 0 24-10.7 24-24s-10.7-24-24-24l-16 0 0-8c0-13.3-10.7-24-24-24zM144 136c0-39.8-32.2-72-72-72S0 96.2 0 136L0 352.2c0 31.8 12.6 62.3 35.1 84.9L103 505c9.4 9.4 24.6 9.4 33.9 0s9.4-24.6 0-33.9L69.1 403.1C55.6 389.6 48 371.3 48 352.2L48 136c0-13.3 10.7-24 24-24s24 10.7 24 24l0 145.9c0 25.6 10.2 50.2 28.3 68.4l15.9 15.9 0 0 26.7 26.7 0 0 16 16c9.4 9.4 24.6 9.4 33.9 0s9.4-24.6 0-33.9l-16-16 0 0-26.7-26.7c-4-4-6.2-9.4-6.2-15 0-11.7 9.5-21.3 21.3-21.3 5.6 0 11 2.2 15 6.2l61.4 61.4C285.1 383 296 409.4 296 436.8l0 51.2c0 13.3 10.7 24 24 24s24-10.7 24-24l0-51.2c0-27.4 10.9-53.8 30.3-73.2l61.4-61.4c4-4 9.4-6.2 15-6.2 11.7 0 21.3 9.5 21.3 21.3 0 5.6-2.2 11-6.2 15l-26.7 26.7 0 0-16 16c-9.4 9.4-9.4 24.6 0 33.9s24.6 9.4 33.9 0l16-16 0 0c46.4-46.4 20.6-20.5 42.7-42.7 18.1-18.1 28.3-42.7 28.3-68.4L544 136c0-13.3 10.7-24 24-24s24 10.7 24 24l0 216.2c0 19.1-7.6 37.4-21.1 50.9L503 471c-9.4 9.4-9.4 24.6 0 33.9s24.6 9.4 33.9 0l67.9-67.9c22.5-22.5 35.1-53 35.1-84.9L640 136c0-39.8-32.2-72-72-72s-72 32.2-72 72l0 128.8c-12.1-10.5-28-16.8-45.3-16.8-18.4 0-36 7.3-49 20.3l-61.4 61.4c-7.7 7.7-14.5 16.2-20.4 25.3-5.8-9.1-12.6-17.5-20.4-25.3l-61.4-61.4c-13-13-30.6-20.3-49-20.3-17.3 0-33.1 6.3-45.3 16.8L144 136z"/></svg>