<svg xmlns="http://www.w3.org/2000/svg" viewBox="0 0 576 512"><path fill="currentColor" d="M537 15c-9.4-9.4-24.6-9.4-33.9 0l-42.1 42.1-7.4-5C433.8 39 410.6 32 386.9 32l-59.2 0-.4 0-143.6 0c-31.8 0-62.3 12.6-84.9 35.1L95 71 7 159c-9.4 9.4-9.4 24.6 0 33.9s24.6 9.4 33.9 0l88-88c-17-17-17-17 0 0l3.9-3.9C146.4 87.6 164.7 80 183.8 80l46.3 0-91.7 91.7c-15.6 15.6-15.6 40.9 0 56.6l.8 .8C186 276 262 276 308.9 229.1l27.1-27.1 97.8 97.8c15.6 15.6 15.6 40.9 0 56.6l-9.8 9.8-31-31c-9.4-9.4-24.6-9.4-33.9 0s-9.4 24.6 0 33.9l28 28c-17.5 10.4-37.2 16.7-57.6 18.5L281 367c-9.4-9.4-24.6-9.4-33.9 0s-9.4 24.6 0 33.9l15 15-3.8 0c-36.1 0-70.7-14.3-96.2-39.8L161 375c-9.4-9.4-24.6-9.4-33.9 0L39 463c-9.4 9.4-9.4 24.6 0 33.9s24.6 9.4 33.9 0l72-72c32.2 25.2 72 39 113.3 39l59.5 0c48.8 0 95.6-19.4 130.1-53.9l19.9-19.9c1.2-1.2 2.3-2.3 3.4-3.5 .7-.5 1.3-1.1 1.9-1.7l96-96c9.4-9.4 9.4-24.6 0-33.9s-24.6-9.4-33.9 0l-45.8 45.8c-4.2-12.8-11.3-24.9-21.5-35.1L353 151c-9.4-9.4-24.6-9.4-33.9 0l-44.1 44.1c-26.5 26.5-68.5 28-96.7 4.6l98.7-98.7c13.4-13.4 31.6-21 50.6-21.1l8.5 0 .2 0 50.8 0c14.2 0 28.1 4.2 39.9 12.1L450.7 108c9.5 6.3 22.2 5.1 30.3-3l56-56c9.4-9.4 9.4-24.6 0-33.9z"/></svg>