<svg xmlns="http://www.w3.org/2000/svg" viewBox="0 0 448 512"><path fill="currentColor" d="M80 64c0-35.3 28.7-64 64-64s64 28.7 64 64l0 16c8.8 0 16 7.2 16 16l0 64c0 .2 0 .3 0 .5 21 2.6 38.9 15.5 48.5 33.4 5-1.2 10.2-1.9 15.5-1.9 23.9 0 44.8 13.1 55.7 32.5 2.7-.3 5.5-.5 8.3-.5 35.3 0 64 28.7 64 64l0 104c0 66.3-53.7 120-120 120l-125.4 0c-26.9 0-53.3-7.1-76.6-20.7l-2.6-1.5C44.7 462.5 16 412.5 16 358.5l0-10.2c0-24.8 10.5-48.4 28.8-65.1l20.3-18.4c4.8-4.3 9.7-8.3 14.9-11.9l0-76.8-36.2 0c-6.5 0-11.8-5.3-11.8-11.8 0-3.9 1.9-7.5 5.1-9.7L75.6 128 37.1 101.5C33.9 99.3 32 95.7 32 91.8 32 85.3 37.3 80 43.8 80L80 80 80 64zm48 112l0 168c0 8.8-7.2 16-16 16s-16-7.2-16-16l0-42.5-18.9 17.2C68.8 326.3 64 337 64 348.3l0 10.2c0 37 19.6 71.2 51.6 89.8l2.6 1.5c-11.7 20.1-11.7 20 0 0 15.9 9.3 34 14.2 52.4 14.2L296 464c39.8 0 72-32.2 72-72l0-104c0-8.8-7.2-16-16-16-3.6 0-6.9 1.2-9.6 3.2-7.3 5.5-17 6.3-25.1 2.3S304 265.1 304 256c0-8.8-7.2-16-16-16-5.2 0-9.9 2.5-12.8 6.4-6.2 8.3-17 11.6-26.8 8.3S232 242.3 232 232l0-8c0-8.8-7.2-16-16-16-5.2 0-9.9 2.5-12.8 6.4-6.2 8.3-17 11.6-26.8 8.3S160 210.3 160 200l0-24-32 0zm32-96l0-16c0-8.8-7.2-16-16-16s-16 7.2-16 16l0 16 32 0z"/></svg>