<svg xmlns="http://www.w3.org/2000/svg" viewBox="0 0 640 512"><path fill="currentColor" d="M549.6 304c41.4 0 74.9 33.5 74.9 74.9l0 2.5c0 64.4-82 133.4-122.2 163.3-13 9.7-30.5 9.7-43.5 0-40.2-30-122.2-98.9-122.3-163.3l0-2.5c0-41.3 33.5-74.9 74.9-74.9 24 0 46.6 11.5 60.7 31l8.4 11.7 8.4-11.7c14.1-19.5 36.7-31 60.7-31zM320.5 0c25.3 0 47.2 14.7 57.6 36 7-2.6 14.5-4 22.4-4 35.3 0 64 28.7 64 64l0 2c5.1-1.3 10.5-2 16-2 35.3 0 64 28.7 64 64l0 96.2c-16.8 .7-33.1 4.8-48 11.9l0-108.1c0-8.8-7.2-16-16-16s-16 7.2-16 16l0 72c0 13.3-10.7 24-24 24s-24-10.7-24-24l0-136c0-8.8-7.2-16-16-16s-16 7.1-16 16l0 136c0 13.3-10.7 24-24 24s-24-10.7-24-24l0-168c0-8.8-7.2-16-16-16s-16 7.2-16 16l0 168c0 13.3-10.7 24-24 24s-24-10.7-24-24l0-136.1c-.1-8.8-7.2-15.9-16-15.9-8.8 0-16 7.2-16 16l0 223.4c0 9.7-5.9 18.4-14.8 22.2s-19.3 1.7-26.2-5.2l-43.7-43.7c-6.2-6.2-16.4-6.2-22.6 0s-6.2 16.4 0 22.6l87.8 87.8c29.4 29.4 66.7 49 106.9 57 10.4 18.1 22.9 34.1 34.7 47.5 1.3 1.5 2.7 2.9 4 4.3-67.3-.4-131.8-27.3-179.5-74.9L83.2 349.3c-25-25-25-65.5 0-90.5s65.5-25 90.5 0l2.8 2.8 0-165.5c0-35.3 28.7-64 64-64 7.9 0 15.4 1.4 22.4 4 10.4-21.3 32.3-36 57.6-36z"/></svg>