<svg xmlns="http://www.w3.org/2000/svg" viewBox="0 0 448 512"><path fill="currentColor" d="M112 48c8.8 0 16 7.2 16 16l0 16-32 0 0-16c0-8.8 7.2-16 16-16zm64 32l0-16c0-35.3-28.7-64-64-64S48 28.7 48 64l0 16-36.2 0C5.3 80 0 85.3 0 91.8 0 95.7 1.9 99.3 5.1 101.5L43.6 128 5.1 154.5c-3.2 2.2-5.1 5.8-5.1 9.7 0 6.5 5.3 11.8 11.8 11.8l36.2 0 0 96c-10 13.4-16 30-16 48l0 24c0 92.8 75.2 168 168 168l48 0c92.8 0 168-75.2 168-168l0-88c0-35.3-28.7-64-64-64-11 0-21.3 2.8-30.3 7.6-11.7-14.4-29.6-23.6-49.7-23.6-7.9 0-15.4 1.4-22.4 4-10.4-21.3-32.3-36-57.6-36l0-48c0-8.8-7.2-16-16-16zm-48 96l0 64-16 0c-5.5 0-10.8 .6-16 1.6l0-65.6 32 0zm24 112l40 0c8.8 0 16 7.2 16 16s-7.2 16-16 16l-40 0c-13.3 0-24 10.7-24 24s10.7 24 24 24l40 0c15.1 0 29-5.3 40-14 11 8.8 24.9 14 40 14 11 0 21.3-2.8 30.3-7.6 11.7 14.4 29.6 23.6 49.7 23.6 3.2 0 6.3-.2 9.4-.7-16.3 47-60.9 80.7-113.4 80.7l-48 0c-66.3 0-120-53.7-120-120l0-24c0-17.7 14.3-32 32-32l40 0zm200-48c8.8 0 16 7.2 16 16l0 64c0 8.8-7.2 16-16 16s-16-7.2-16-16l0-64c0-8.8 7.2-16 16-16zm-144 2c-5.1-1.3-10.5-2-16-2l-16 0 0-32c0-8.8 7.2-16 16-16s16 7.2 16 16l0 34zm48-2c0-8.8 7.2-16 16-16s16 7.2 16 16l0 64c0 8.8-7.2 16-16 16s-16-7.2-16-16l0-64z"/></svg>