<svg xmlns="http://www.w3.org/2000/svg" viewBox="0 0 640 512"><path fill="currentColor" d="M262.4 36C272.8 14.7 294.7 0 320 0s47.2 14.7 57.6 36c7-2.6 14.5-4 22.4-4 35.3 0 64 28.7 64 64l0 2c5.1-1.3 10.5-2 16-2 35.3 0 64 28.7 64 64l0 146.2c-19.2 5.4-34.7 20.4-40.4 40.3l-6.5 22.7-8.3 2.4c3.9-11.6 6.3-23.9 7-36.7 0-.6 .1-1.3 .2-1.9L496 160c0-8.8-7.2-16-16-16s-16 7.2-16 16l0 72c0 13.3-10.7 24-24 24s-24-10.7-24-24l0-136c0-8.8-7.2-16-16-16s-16 7.1-16 16l0 136c0 13.3-10.7 24-24 24s-24-10.7-24-24l0-168c0-8.8-7.2-16-16-16s-16 7.2-16 16l0 32 0 .1 0 135.9c0 13.3-10.7 24-24 24s-24-10.7-24-24l0-136.1c0-8.8-7.2-15.9-16-15.9-8.8 0-16 7.2-16 16l0 223.4c0 9.7-5.8 18.5-14.8 22.2s-19.3 1.7-26.2-5.2l-43.7-43.7c-6.2-6.2-16.4-6.2-22.6 0s-6.2 16.4 0 22.6l87.8 87.8c39 39 91.9 60.9 147.1 60.9l13.4 0c.6-.1 1.3-.1 1.9-.2 24.3-1.2 46.9-8.8 66.2-21.1 3.1 16.5 13.1 30.9 27.4 39.5-25.6 16.7-55.6 27.2-87.9 29.4-1.4 .3-3 .4-4.5 .4l-16.5 0c-67.9 0-133-27-181-75L82.7 349.3c-25-25-25-65.5 0-90.5s65.5-25 90.5 0l2.7 2.7 0-165.5c0-35.3 28.7-64 64-64 7.9 0 15.4 1.4 22.4 4zm50.3 290.6l7.3 25.4 25.4 7.3c3.9 1.1 6.6 4.7 6.6 8.7s-2.7 7.6-6.6 8.7l-25.4 7.3-7.3 25.4c-1.1 3.9-4.7 6.6-8.7 6.6s-7.6-2.7-8.7-6.6l-7.3-25.4-25.4-7.3c-3.9-1.1-6.6-4.7-6.6-8.7s2.7-7.6 6.6-8.7l25.4-7.3 7.3-25.4c1.1-3.9 4.7-6.6 8.7-6.6s7.6 2.7 8.7 6.6zm257.5 33.1L584 408 632.3 421.8c4.6 1.3 7.7 5.5 7.7 10.2s-3.1 8.9-7.7 10.2L584 456 570.2 504.3c-1.3 4.6-5.5 7.7-10.2 7.7s-8.9-3.1-10.2-7.7L536 456 487.7 442.2c-4.6-1.3-7.7-5.5-7.7-10.2s3.1-8.9 7.7-10.2L536 408 549.8 359.7c1.3-4.6 5.5-7.7 10.2-7.7s8.9 3.1 10.2 7.7zM104 88l40 11.4 0 25.1-40 11.4-13.8 48.3c-1.3 4.6-5.5 7.7-10.2 7.7s-8.9-3.1-10.2-7.7L56 136 7.7 122.2C3.1 120.9 0 116.7 0 112s3.1-8.9 7.7-10.2L56 88 69.8 39.7C71.1 35.1 75.3 32 80 32s8.9 3.1 10.2 7.7L104 88z"/></svg>