<svg xmlns="http://www.w3.org/2000/svg" viewBox="0 0 576 512"><path fill="currentColor" d="M288 0c75.1 0 136 60.9 136 136l0 4.4c0 33.2-9.8 65.6-28.2 93.2L388 245.3c-7.4 11-22.3 14-33.3 6.7s-14-22.3-6.7-33.3l7.8-11.7C369 187.3 376 164.1 376 140.4l0-4.4c0-48.6-39.4-88-88-88s-88 39.4-88 88c0 17.7 14.3 32 32 32s32-14.3 32-32c0-13.3 10.7-24 24-24s24 10.7 24 24c0 44.2-35.8 80-80 80s-80-35.8-80-80C152 60.9 212.9 0 288 0zM187.4 336c-7.9 0-15.6 2.3-22.2 6.7L85.3 396c-3.9 2.6-8.6 4-13.3 4l-48 0c-13.3 0-24-10.7-24-24s10.7-24 24-24l40.7 0 73.8-49.2C153 293.1 170 288 187.4 288L320 288c35.3 0 64 28.7 64 64 0 5.5-.7 10.9-2 16l10.6 0 69.9-47.9c33.5-23 79.4-12.9 100.3 21.9 19.2 32 10.1 73.5-20.7 94.5L462 491.1c-19.9 13.6-43.5 20.9-67.6 20.9L24 512c-13.3 0-24-10.7-24-24s10.7-24 24-24l370.4 0c14.5 0 28.6-4.4 40.6-12.5L515 396.9c9.9-6.7 12.8-20 6.6-30.2-6.7-11.1-21.3-14.3-32-7l-76 52.1c-4 2.7-8.7 4.2-13.6 4.2l-144 0c-13.3 0-24-10.7-24-24s10.7-24 24-24l64 0c8.8 0 16-7.2 16-16s-7.2-16-16-16l-132.6 0z"/></svg>