<svg xmlns="http://www.w3.org/2000/svg" viewBox="0 0 576 512"><path fill="currentColor" d="M288 0c13.3 0 24 10.7 24 24l0 8 16 0c13.3 0 24 10.7 24 24s-10.7 24-24 24l-61.7 0c-5.7 0-10.3 4.6-10.3 10.3 0 5.1 3.8 9.4 8.8 10.2L318 108c28.7 4.1 50 28.7 50 57.7 0 31.4-24.9 57-56 58.2l0 8c0 13.3-10.7 24-24 24s-24-10.7-24-24l0-8-24 0c-13.3 0-24-10.7-24-24s10.7-24 24-24l69.7 0c5.7 0 10.3-4.6 10.3-10.3 0-5.1-3.8-9.4-8.8-10.2L258 148c-28.7-4.1-50-28.7-50-57.7 0-31.4 24.9-57 56-58.2l0-8c0-13.3 10.7-24 24-24zM187.4 336c-7.9 0-15.6 2.3-22.2 6.7L85.3 396c-3.9 2.6-8.6 4-13.3 4l-48 0c-13.3 0-24-10.7-24-24s10.7-24 24-24l40.7 0 73.8-49.2C153 293.1 170 288 187.4 288L320 288c35.3 0 64 28.7 64 64 0 5.5-.7 10.9-2 16l10.6 0 69.9-47.9c33.5-23 79.4-12.9 100.3 21.9 19.2 32 10.1 73.5-20.7 94.5L462 491.1c-19.9 13.6-43.5 20.9-67.6 20.9L24 512c-13.3 0-24-10.7-24-24s10.7-24 24-24l370.4 0c14.5 0 28.6-4.4 40.6-12.5L515 396.9c9.9-6.7 12.8-20 6.6-30.2-6.7-11.1-21.3-14.3-32-7l-76 52.1c-4 2.7-8.7 4.2-13.6 4.2l-144 0c-13.3 0-24-10.7-24-24s10.7-24 24-24l64 0c8.8 0 16-7.2 16-16s-7.2-16-16-16l-132.6 0z"/></svg>