<svg xmlns="http://www.w3.org/2000/svg" viewBox="0 0 448 512"><path fill="currentColor" d="M224 0c-35.3 0-64 28.7-64 64l0 120.5c-2.6-.3-5.3-.5-8-.5-35.3 0-64 28.7-64 64l0 10.8c-2.4 1.9-4.7 3.9-6.9 5.9L60.8 283.2C42.5 299.9 32 323.5 32 348.3l0 10.2c0 54.1 28.7 104.1 75.4 131.3l2.6 1.5c23.2 13.6 49.7 20.7 76.6 20.7L312 512c66.3 0 120-53.7 120-120l0-104c0-35.3-28.7-64-64-64-5.3 0-10.5 .7-15.5 1.9-10.8-20.2-32-33.9-56.5-33.9-2.7 0-5.4 .2-8 .5L288 64c0-35.3-28.7-64-64-64zM208 64c0-8.8 7.2-16 16-16s16 7.2 16 16l0 168c0 10.3 6.6 19.5 16.4 22.8s20.6-.1 26.8-8.3c3-3.9 7.6-6.4 12.8-6.4 8.8 0 16 7.2 16 16l0 8c0 10.3 6.6 19.5 16.4 22.8s20.6-.1 26.8-8.3c3-3.9 7.6-6.4 12.8-6.4 8.8 0 16 7.2 16 16l0 104c0 39.8-32.2 72-72 72l-125.4 0c-18.4 0-36.5-4.9-52.4-14.2-11.7 20.1-11.7 20 0 0l-2.6-1.5C99.6 429.7 80 395.5 80 358.5l0-10.2c0-11.3 4.8-22 13.1-29.6l10.9-9.9 0 35.2c0 8.8 7.2 16 16 16s16-7.2 16-16l0-96c0-8.8 7.2-16 16-16 5.2 0 9.9 2.5 12.8 6.4 6.2 8.3 17 11.6 26.8 8.3S208 234.3 208 224l0-160z"/></svg>