<svg xmlns="http://www.w3.org/2000/svg" viewBox="0 0 576 512"><path fill="currentColor" d="M432 104c0 35.5-18.5 67.5-48 89.4l0 14.6c0 17.7-14.3 32-32 32l-128 0c-17.7 0-32-14.3-32-32l0-14.6c-29.5-22-48-53.9-48-89.4 0-66.3 64.5-120 144-120S432 37.7 432 104zM240 144a32 32 0 1 0 0-64 32 32 0 1 0 0 64zm128-32a32 32 0 1 0 -64 0 32 32 0 1 0 64 0zM187.4 336c-7.9 0-15.6 2.3-22.2 6.7L85.3 396c-3.9 2.6-8.6 4-13.3 4l-48 0c-13.3 0-24-10.7-24-24s10.7-24 24-24l40.7 0 73.8-49.2C153 293.1 170 288 187.4 288L320 288c35.3 0 64 28.7 64 64 0 5.5-.7 10.9-2 16l10.6 0 69.9-47.9c33.5-23 79.4-12.9 100.3 21.9 19.2 32 10.1 73.5-20.7 94.5L462 491.1c-19.9 13.6-43.5 20.9-67.6 20.9L24 512c-13.3 0-24-10.7-24-24s10.7-24 24-24l370.4 0c14.5 0 28.6-4.4 40.6-12.5L515 396.9c9.9-6.7 12.8-20 6.6-30.2-6.7-11.1-21.3-14.3-32-7l-76 52.1c-4 2.7-8.7 4.2-13.6 4.2l-144 0c-13.3 0-24-10.7-24-24s10.7-24 24-24l64 0c8.8 0 16-7.2 16-16s-7.2-16-16-16l-132.6 0z"/></svg>