<svg xmlns="http://www.w3.org/2000/svg" viewBox="0 0 512 512"><path fill="currentColor" d="M344 8l0 64c0 13.3-10.7 24-24 24s-24-10.7-24-24l0-64c0-13.3 10.7-24 24-24S344-5.3 344 8zM220 10.7l32 48c7.4 11 4.4 25.9-6.7 33.3s-25.9 4.4-33.3-6.7l-32-48c-7.4-11-4.4-25.9 6.7-33.3S212.6-.3 220 10.7zM152 161.9c0 2.6 1 5.2 2.9 7L233 247c9.4 9.4 9.4 24.6 0 33.9s-24.6 9.4-33.9 0c-59.7-59.7-96.4-96.4-110.1-110.1-1.9-1.9-4.4-2.9-7-2.9-5.5 0-9.9 4.5-9.9 9.9 0 2.6 1 5.2 2.9 7 5.7 5.7 42.3 42.3 110.1 110.1 9.4 9.4 9.4 24.6 0 33.9s-24.6 9.4-33.9 0l-86.1-86.1 0 0c-1.9-1.9-4.4-2.9-7-2.9-5.5 0-9.9 4.5-9.9 9.9 0 2.6 1 5.2 2.9 7l48 48 0 0 38.1 38.1c1.2 1.2 2.2 2.4 3.1 3.8 6.2 9.3 5.1 22-3.1 30.2-9.4 9.4-24.6 9.4-33.9 0l-38.1-38.1 0 0c-1.9-1.9-4.4-2.9-7-2.9-5.5 0-9.9 4.5-9.9 9.9 0 2.6 1 5.2 2.9 7l22 22 0 0 16 16 0 0 33.6 33.6c25.2 25.2 59.4 39.4 95 39.4 74.2 0 134.4-60.2 134.4-134.4L352 208c0-8.8-7.2-16-16-16s-16 7.2-16 16l0 40c0 6.1-2.3 12.3-7 17-2.3 2.3-5 4-7.8 5.2s-5.9 1.8-9.2 1.8c-6.1 0-12.3-2.3-17-7L169 154.9c-1.9-1.9-4.4-2.9-7-2.9-5.5 0-9.9 4.5-9.9 9.9zM0 249.9c0-21.2 11.4-39.8 28.4-49.9-2.9-7-4.4-14.5-4.4-22.1 0-32 25.9-57.9 57.9-57.9 11.4 0 22.5 3.4 31.9 9.6 10.4-15.4 28.1-25.6 48.1-25.6 15.4 0 30.1 6.1 41 17L274 192.1c7.1-27.6 32.2-48.1 62-48.1 35.3 0 64 28.7 64 64l0 121.6c0 100.7-81.7 182.4-182.4 182.4-48.4 0-94.8-19.2-129-53.4l-33.6-33.6 0 0-16-16 0 0-22-22C6.1 376 0 361.3 0 345.9 0 326.4 9.7 309 24.6 298.5L17 290.9C6.1 280 0 265.3 0 249.9zM427.4 146c5.3-1.3 10.9-2 16.6-2 37.6 0 68 30.4 68 68l0 117.6c0 89.7-64.7 164.2-150 179.5 29.6-23.8 53.1-54.8 68-90.2 21.1-23.7 33.9-55 33.9-89.3L464 212c0-10.3-7.7-18.7-17.7-19.9-2.9-16.9-9.5-32.5-18.9-46.1zM453.3 4c11 7.4 14 22.3 6.7 33.3l-32 48c-7.4 11-22.3 14-33.3 6.7s-14-22.3-6.7-33.3l32-48c7.4-11 22.3-14 33.3-6.7z"/></svg>