<svg xmlns="http://www.w3.org/2000/svg" viewBox="0 0 576 512"><path fill="currentColor" d="M320 288c35.3 0 64 28.7 64 64 0 5.5-.8 10.9-2.1 16l10.7 0 69.9-47.9 6.4-3.9c32.7-17.7 74.3-6.8 93.9 25.8l3.3 6.1c13.7 29 6.1 63.7-18.5 84.2l-5.5 4.2-80.1 54.6c-19.9 13.6-43.5 20.8-67.6 20.8L24 512c-13.3 0-24-10.7-24-24s10.7-24 24-24l370.4 0c14.5 0 28.6-4.4 40.6-12.5l80.1-54.6 3.4-2.8c6.1-6.2 8.1-15.3 5.2-23.4l-1.9-3.9c-6.3-10.4-19.5-13.9-30-8.3l-2.1 1.3-76 52.1c-4 2.7-8.7 4.2-13.6 4.2l-144 0c-13.3 0-24-10.7-24-24s10.7-24 24-24l64 0c8.8 0 16-7.2 16-16s-7.2-16-16-16l-132.6 0c-7.9 0-15.6 2.3-22.2 6.7L85.3 396c-3.9 2.6-8.6 4-13.3 4l-48 0c-13.3 0-24-10.7-24-24s10.7-24 24-24l40.8 0 73.8-49.2C153 293.1 170 288 187.4 288L320 288zM272-48c9 0 17.3 5.1 21.4 13.1l35.2 69 76.5 12.2c8.9 1.4 16.2 7.7 19 16.3 2.4 7.5 1 15.6-3.6 21.8l-2.2 2.5-54.8 54.8 12.1 76.6c1.4 8.9-2.3 17.9-9.6 23.2-6.4 4.6-14.6 5.8-21.9 3.3l-3.1-1.3-69.1-35.2-69.1 35.2c-8 4.1-17.7 3.3-25-2s-11-14.2-9.6-23.2l12.1-76.6-54.7-54.8c-6.4-6.4-8.6-15.8-5.8-24.4s10.1-14.9 19-16.3l76.5-12.2 35.2-69 1.7-2.9C256.8-44.1 264.1-48 272-48zM252.6 66.8c-3.1 6-8.4 10.4-14.8 12.2l-2.8 .6-42.1 6.7 30.2 30.2c4.7 4.8 7.3 11.2 7 17.9l-.3 2.8-6.7 42.1 38-19.3 2.6-1.2c6.2-2.3 13.1-1.9 19.1 1.2l38 19.3-6.6-42.1c-1.2-7.6 1.3-15.3 6.7-20.7l30.1-30.2-42.1-6.7c-7.6-1.2-14.1-6-17.6-12.8l-19.4-38-19.4 38z"/></svg>