<svg xmlns="http://www.w3.org/2000/svg" viewBox="0 0 384 512"><path fill="currentColor" d="M169.8 57.6c3.7-8 13.3-11.5 21.3-7.7s11.5 13.3 7.7 21.3L120 240 84.7 240 140.4 120.5c1-1.7 1.9-3.5 2.5-5.3l26.8-57.6zM126.3 37.3l-6.5 14C102.9 24.1 68 13.1 38.3 27 6.3 41.9-7.6 80 7.3 112L49.4 202.2 22 261c-.9 2-1.5 4-1.9 6-12.5 14.1-20.1 32.7-20.1 53l0 24c0 92.8 75.2 168 168 168l48 0c92.8 0 168-75.2 168-168l0-120c0-35.3-28.7-64-64-64-7.9 0-15.4 1.4-22.4 4-10.4-21.3-32.3-36-57.6-36-5.4 0-10.7 .7-15.7 1.9l18-38.5c14.9-32 1.1-70.1-31-85.1s-70.1-1.1-85.1 31zM50.8 91.7c-3.7-8-.3-17.5 7.7-21.3s17.5-.3 21.3 7.7l13.7 29.3-17.7 37.9-25-53.7zM240 176c8.8 0 16 7.2 16 16l0 48c0 8.8-7.2 16-16 16s-16-7.2-16-16l0-48c0-8.8 7.2-16 16-16zm0 128c7.9 0 15.4-1.4 22.4-4 10.4 21.3 32.3 36 57.6 36 5.5 0 10.9-.7 16-2l0 10c0 66.3-53.7 120-120 120l-48 0c-66.3 0-120-53.7-120-120l0-24c0-17.7 14.3-32 32-32l80 0c8.8 0 16 7.2 16 16s-7.2 16-16 16l-40 0c-13.3 0-24 10.7-24 24s10.7 24 24 24l40 0c35.3 0 64-28.7 64-64 0-.7 0-1.4 0-2 5.1 1.3 10.5 2 16 2zm96-48l0 16c0 8.8-7.2 16-16 16s-16-7.2-16-16l0-48c0-8.8 7.2-16 16-16s16 7.2 16 16l0 32z"/></svg>