<svg xmlns="http://www.w3.org/2000/svg" viewBox="0 0 576 512"><path fill="currentColor" d="M320-32c0-17.7-14.3-32-32-32s-32 14.3-32 32 14.3 32 32 32 32-14.3 32-32zM192 64a32 32 0 1 0 0-64 32 32 0 1 0 0 64zM152 96c-13.3 0-24 10.7-24 24l0 16c0 1 .1 1.9 .2 2.9-74.7 26.3-128.2 97.5-128.2 181.1 0 106 86 192 192 192s192-86 192-192c0-83.7-53.5-154.8-128.2-181.1 .1-.9 .2-1.9 .2-2.9l0-16c0-13.3-10.7-24-24-24l-80 0zM48 320a144 144 0 1 1 288 0 144 144 0 1 1 -288 0zm480 0c0 79.5-64.5 144-144 144-12.1 16.2-26.3 30.8-42 43.4 13.5 3 27.6 4.6 42 4.6 106 0 192-86 192-192 0-83.7-53.5-154.8-128.2-181.1 .1-.9 .2-1.9 .2-2.9l0-16c0-13.3-10.7-24-24-24l-80 0c-12.3 0-22.4 9.2-23.8 21.1 24.7 15.6 46.3 35.6 63.8 58.9 79.5 0 144 64.5 144 144zM384 64a32 32 0 1 0 0-64 32 32 0 1 0 0 64z"/></svg>