<svg xmlns="http://www.w3.org/2000/svg" viewBox="0 0 640 512"><path fill="currentColor" d="M296 56c0-19.4 13.1-43.9 18.2-52.7 1.2-2.1 3.4-3.3 5.8-3.3s4.6 1.2 5.8 3.3c5.1 8.8 18.2 33.3 18.2 52.7 0 13.3-10.7 24-24 24s-24-10.7-24-24zM0 104C0 84.6 13.1 60.1 18.2 51.3 19.4 49.2 21.6 48 24 48s4.6 1.2 5.8 3.3c5.1 8.8 18.2 33.3 18.2 52.7 0 13.3-10.7 24-24 24S0 117.3 0 104zM106.2 51.3c1.2-2.1 3.4-3.3 5.8-3.3s4.6 1.2 5.8 3.3c5.1 8.8 18.2 33.3 18.2 52.7 0 13.3-10.7 24-24 24s-24-10.7-24-24c0-19.4 13.1-43.9 18.2-52.7zM152 104c0-19.4 13.1-43.9 18.2-52.7 1.2-2.1 3.4-3.3 5.8-3.3s4.6 1.2 5.8 3.3c5.1 8.8 18.2 33.3 18.2 52.7 0 13.3-10.7 24-24 24s-24-10.7-24-24zm82.2-52.7c1.2-2.1 3.4-3.3 5.8-3.3s4.6 1.2 5.8 3.3c5.1 8.8 18.2 33.3 18.2 52.7 0 13.3-10.7 24-24 24s-24-10.7-24-24c0-19.4 13.1-43.9 18.2-52.7zM376 104c0-19.4 13.1-43.9 18.2-52.7 1.2-2.1 3.4-3.3 5.8-3.3s4.6 1.2 5.8 3.3c5.1 8.8 18.2 33.3 18.2 52.7 0 13.3-10.7 24-24 24s-24-10.7-24-24zm82.2-52.7c1.2-2.1 3.4-3.3 5.8-3.3s4.6 1.2 5.8 3.3c5.1 8.8 18.2 33.3 18.2 52.7 0 13.3-10.7 24-24 24s-24-10.7-24-24c0-19.4 13.1-43.9 18.2-52.7zM504 104c0-19.4 13.1-43.9 18.2-52.7 1.2-2.1 3.4-3.3 5.8-3.3s4.6 1.2 5.8 3.3c5.1 8.8 18.2 33.3 18.2 52.7 0 13.3-10.7 24-24 24s-24-10.7-24-24zM610.2 51.3c1.2-2.1 3.4-3.3 5.8-3.3s4.6 1.2 5.8 3.3c5.1 8.8 18.2 33.3 18.2 52.7 0 13.3-10.7 24-24 24s-24-10.7-24-24c0-19.4 13.1-43.9 18.2-52.7zM320 112c13.3 0 24 10.7 24 24l0 200 208 0c22.1 0 40-17.9 40-40l0-112c0-13.3 10.7-24 24-24s24 10.7 24 24l0 112c0 48.6-39.4 88-88 88l-208 0 0 80 152 0c13.3 0 24 10.7 24 24s-10.7 24-24 24l-352 0c-13.3 0-24-10.7-24-24s10.7-24 24-24l152 0 0-80-208 0c-48.6 0-88-39.4-88-88L0 184c0-13.3 10.7-24 24-24s24 10.7 24 24l0 112c0 22.1 17.9 40 40 40l208 0 0-200c0-13.3 10.7-24 24-24zM112 160c8.8 0 16 7.2 16 16l0 128-32 0 0-128c0-8.8 7.2-16 16-16zm64 0c8.8 0 16 7.2 16 16l0 128-32 0 0-128c0-8.8 7.2-16 16-16zm64 0c8.8 0 16 7.2 16 16l0 128-32 0 0-128c0-8.8 7.2-16 16-16zm160 0c8.8 0 16 7.2 16 16l0 128-32 0 0-128c0-8.8 7.2-16 16-16zm64 0c8.8 0 16 7.2 16 16l0 128-32 0 0-128c0-8.8 7.2-16 16-16zm64 0c8.8 0 16 7.2 16 16l0 128-32 0 0-128c0-8.8 7.2-16 16-16z"/></svg>