<svg xmlns="http://www.w3.org/2000/svg" viewBox="0 0 640 512"><path fill="currentColor" d="M258.9 29c2.8-13-5.5-25.7-18.4-28.5S214.7 6 212 18.9l-23.4 109.1-88.1 0c-13.3 0-24 10.7-24 24s10.7 24 24 24l77.8 0-34.3 160-88 0c-13.3 0-24 10.7-24 24s10.7 24 24 24l77.7 0-21.2 99c-2.8 13 5.5 25.7 18.4 28.5s25.7-5.5 28.5-18.4l23.4-109 155.4 0-21.2 99c-2.8 13 5.5 25.7 18.4 28.5s25.7-5.5 28.5-18.4l4.1-18.9 0-74.2c0-28 12-53.2 31-70.7l1-4.4 0-20.8c0-24.5 6.9-47.3 18.8-66.7l13.1-61.3 88.1 0c13.3 0 24-10.7 24-24s-10.7-24-24-24l-77.8 0 21.2-99c2.8-13-5.5-25.7-18.4-28.5S419.2 6 416.4 18.9l-23.4 109.1-155.4 0 21.2-99zM227.4 176l155.4 0-34.3 160-155.4 0 34.3-160zM560 304.1l0 47.9-64 0 0-47.9c0-17.7 14.3-32 32-32s32 14.3 32 32zM416 400l0 96c0 26.5 21.5 48 48 48l128 0c26.5 0 48-21.5 48-48l0-96c0-20.9-13.4-38.7-32-45.3l0-50.6c0-44.2-35.8-80-80-80s-80 35.8-80 80l0 50.6c-18.6 6.6-32 24.4-32 45.3z"/></svg>