<svg xmlns="http://www.w3.org/2000/svg" viewBox="0 0 576 512"><path fill="currentColor" d="M304 80c8.8 0 16 7.2 16 16l0 256-64 0 0-256c0-8.8 7.2-16 16-16l32 0zm64 272l0-233.7c75.2 20.6 127 88.7 128 169.9l0 63.7-128 0zm176 8.6l0-72.6C542.8 179 467.9 86.8 361.4 67.7 350.9 46.5 329.2 32 304 32l-32 0C246.9 32 225.1 46.5 214.6 67.6 107.9 86.6 32 178 32 288l0 72.6c-19.1 11.1-32 31.7-32 55.4 0 35.3 28.7 64 64 64l448 0c35.3 0 64-28.7 64-64 0-23.7-12.9-44.4-32-55.4zM512 400c8.8 0 16 7.2 16 16s-7.2 16-16 16L64 432c-8.8 0-16-7.2-16-16s7.2-16 16-16l448 0zM80 352l0-64c0-81.5 52.2-149.4 128-169.8l0 233.8-128 0z"/></svg>