<svg xmlns="http://www.w3.org/2000/svg" viewBox="0 0 576 512"><path fill="currentColor" d="M267 48c-6.5 0-12.4 3.9-14.8 10L138.9 336 436 336 347 122.3c-9.3-22.4-9.8-47.5-1.4-70.3l1.5-4-80 0zm124.2 55.8l97 232.9c22.6 3.9 39.7 23.6 39.7 47.3l0 48c0 26.5-21.5 48-48 48L96 480c-26.5 0-48-21.5-48-48l0-48c0-23.3 16.7-42.8 38.7-47.1l121-297C217.6 15.8 241 0 267 0L416 0c-13.5 36.6-22 59.4-25.4 68.7-4.2 11.4-4 23.9 .7 35.1zM96 432l384 0 0-48-384 0 0 48zM496 0c12.7 0 23 9.8 23.9 22.2 9.4-8.1 23.7-7.7 32.6 1.2s9.4 23.2 1.2 32.6C566.2 57 576 67.3 576 80s-9.8 23-22.2 23.9c8.1 9.4 7.7 23.7-1.2 32.6s-23.2 9.4-32.6 1.2C519 150.2 508.7 160 496 160s-23-9.8-23.9-22.2c-9.4 8.1-23.7 7.7-32.6-1.2s-9.4-23.2-1.2-32.6C425.8 103 416 92.7 416 80s9.8-23 22.2-23.9c-8.1-9.4-7.7-23.7 1.2-32.6s23.2-9.4 32.6-1.2C473 9.8 483.3 0 496 0z"/></svg>