<svg xmlns="http://www.w3.org/2000/svg" viewBox="0 0 640 512"><path fill="currentColor" d="M269.6 81.8c-3.6-1.2-7.3-1.8-11.1-1.8-16.4 0-30.6 11.4-34.1 27.4l-25.9 116.6 243 0-25.9-116.6c-3.6-16-17.7-27.4-34.1-27.4-3.8 0-7.5 .6-11 1.8l-2.9 1c-30.8 10.3-64.1 10.3-94.9 0l-2.9-1zM187.8 272l-17.2 77.6c-16.8-3.8-31.8-12-44-23.3L177.6 97c8.4-38 42.1-65 81-65 8.9 0 17.8 1.4 26.2 4.3l2.9 1c21 7 43.6 7 64.6 0l2.9-1c8.5-2.8 17.3-4.3 26.2-4.3 38.9 0 72.5 27 81 65l51 229.3c-12.2 11.3-27.2 19.5-44 23.3l-17.2-77.6-264.3 0zM24 232c13.3 0 24 10.7 24 24 0 79.5 64.5 144 144 144l256 0c79.5 0 144-64.5 144-144 0-13.3 10.7-24 24-24s24 10.7 24 24c0 106-86 192-192 192l-256 0C86 448 0 362 0 256 0 242.7 10.7 232 24 232z"/></svg>