<svg xmlns="http://www.w3.org/2000/svg" viewBox="0 0 576 512"><path fill="currentColor" d="M422.1 48c6.4 0 12.7 2.1 17.8 5.9L496 96c10.1 7.6 16 19.4 16 32l0 .6c-16.4-15.7-38.4-24.6-61.4-24.6l-2.3 0c-28.2 0-54.6 14.1-70.2 37.6-12.6 18.9-17 42-12.4 64.2l30.8 146.2-208.7 0 38.3-140.4c11.8-43.3 40.4-80 79.4-102.1l102-57.7C412 49.3 417 48 422.1 48zM406.6 400l13.5 64-262.9 0 17.5-64 231.9 0zM179.8 198.9L107.5 464 56 464c-13.3 0-24 10.7-24 24s10.7 24 24 24l464 0c13.3 0 24-10.7 24-24s-10.7-24-24-24l-50.8 0-56.4-268.1c-2-9.6-.1-19.5 5.3-27.7 6.7-10.1 18.1-16.2 30.3-16.2l2.3 0c11.7 0 22.9 5.1 30.6 13.9l36.7 41.9c6.6 7.5 17.1 10.2 26.5 6.7S560 202 560 192l0-64c0-27.7-13-53.8-35.2-70.4L468.7 15.5C455.3 5.4 438.9 0 422.1 0 408.7 0 395.6 3.5 383.9 10.1l-102 57.7c-50.2 28.4-86.9 75.6-102.1 131.2z"/></svg>