<svg xmlns="http://www.w3.org/2000/svg" viewBox="0 0 640 512"><path fill="currentColor" d="M196.8 288l-6.9 5.5-133.1 106.5 526.3 0-25.1-20.1c17.1-4.8 32.6-13.5 45.4-25.2L623.8 371c10.3 8.2 16.2 20.6 16.2 33.8 0 23.9-19.4 43.2-43.2 43.2L43.2 448C19.4 448 0 428.6 0 404.8 0 391.6 6 379.2 16.2 371l143.8-115 0-64c0-88.4 71.6-160 160-160 36.6 0 70.3 12.3 97.3 33-20.6 2.7-39.4 11-54.9 23.3-13.1-5.3-27.4-8.3-42.4-8.3-47.8 0-88.5 29.9-104.6 72l107.2 0c-1.7 7.7-2.6 15.8-2.6 24s.9 16.3 2.6 24l-114.6 0 0 40 116.6 0c-3 10.1-4.6 20.9-4.6 32 0 5.4 .4 10.8 1.1 16l-124.3 0zM480 314.3c-11.7 13.3-28.9 21.7-48 21.7-35.3 0-64-28.7-64-64 0-19.1 8.4-36.3 21.7-48-13.3-11.7-21.7-28.9-21.7-48 0-35.3 28.7-64 64-64 19.1 0 36.3 8.4 48 21.7 11.7-13.3 28.9-21.7 48-21.7 35.3 0 64 28.7 64 64 0 19.1-8.4 36.3-21.7 48 13.3 11.7 21.7 28.9 21.7 48 0 35.3-28.7 64-64 64-19.1 0-36.3-8.4-48-21.7zM512 224a32 32 0 1 0 -64 0 32 32 0 1 0 64 0z"/></svg>