<svg xmlns="http://www.w3.org/2000/svg" viewBox="0 0 640 512"><path fill="currentColor" d="M253.8 80c-13.6 0-25.4 9.5-28.4 22.8l-20.9 94.2c23.1 5.2 45.2 14.3 65.2 27.1l171.8 0-26.9-121.2c-3-13.3-14.7-22.8-28.4-22.8l-1 0c-3.9 0-7.7 .9-11.1 2.6-34 17-74.1 17-108.1 0-3.5-1.7-7.3-2.6-11.1-2.6l-1 0zM156.4 192l22.2-99.7C186.4 57.1 217.7 32 253.8 32l1 0c11.3 0 22.5 2.6 32.6 7.7 20.5 10.3 44.7 10.3 65.2 0 10.1-5.1 21.3-7.7 32.6-7.7l1 0c36.1 0 67.4 25.1 75.2 60.3l22.4 100.8C571.7 202.9 640 277.5 640 368l0 4c0 42-34 76-76 76L76 448c-42 0-76-34-76-76l0-20.3C0 264.6 69.7 193.8 156.4 192zm338.6 51.8L529.8 400 564 400c15.5 0 28-12.5 28-28l0-4c0-60-41.3-110.3-96.9-124.2zM478.9 392.2L452.2 272 331 272 478.9 392.2zM159.7 240C98 240 48 290 48 351.7L48 372c0 15.5 12.5 28 28 28l336.4 0-153.7-124.9c-28-22.7-62.9-35.1-99-35.1z"/></svg>