<svg xmlns="http://www.w3.org/2000/svg" viewBox="0 0 512 512"><path fill="currentColor" d="M256 48c-29.2 0-54.8 15.7-68.8 39.2-3.5 5.9-9.5 10.1-16.3 11.3s-13.8-.5-19.2-4.8c-10.9-8.6-24.6-13.8-39.7-13.8-35.3 0-64 28.7-64 64 0 29.3 19.7 54 46.5 61.6 10.3 2.9 17.5 12.4 17.5 23.1l0 107.3 40 0 0-120c0-13.3 10.7-24 24-24s24 10.7 24 24l0 120 32 0 0-120c0-13.3 10.7-24 24-24s24 10.7 24 24l0 120 32 0 0-120c0-13.3 10.7-24 24-24s24 10.7 24 24l0 120 40 0 0-107.3c0-10.7 7.1-20.2 17.5-23.1 26.9-7.6 46.5-32.3 46.5-61.6 0-35.3-28.7-64-64-64-15 0-28.7 5.1-39.7 13.8-5.4 4.3-12.4 6-19.2 4.8s-12.7-5.4-16.3-11.3C310.8 63.7 285.2 48 256 48zM400 384l-288 0 0 56c0 13.3 10.7 24 24 24l240 0c13.3 0 24-10.7 24-24l0-56zM160.3 42.9C183.8 16.6 217.9 0 256 0s72.2 16.6 95.7 42.9c14.6-7 31-10.9 48.3-10.9 61.9 0 112 50.1 112 112 0 44.7-26.2 83.2-64 101.2L448 440c0 39.8-32.2 72-72 72l-240 0c-39.8 0-72-32.2-72-72l0-194.8c-37.8-18-64-56.5-64-101.2 0-61.9 50.1-112 112-112 17.3 0 33.7 3.9 48.3 10.9z"/></svg>