<svg xmlns="http://www.w3.org/2000/svg" viewBox="0 0 512 512"><path fill="currentColor" d="M256 0c12.7 0 23 9.8 23.9 22.2 9.4-8.1 23.7-7.7 32.6 1.2s9.4 23.2 1.2 32.6C326.2 57 336 67.3 336 80s-9.8 23-22.2 23.9c6.5 7.5 7.5 18.1 3.2 26.6 88.6 32.9 134.1 137 152.7 237.7 23.9 2.8 42.4 23.1 42.4 47.7l0 48c0 26.5-21.5 48-48 48L48 512c-26.5 0-48-21.5-48-48l0-48c0-24.6 18.5-44.9 42.4-47.7 18.6-100.7 64.1-204.9 152.7-237.7-4.4-8.5-3.3-19.1 3.2-26.6-12.4-.9-22.2-11.3-22.2-23.9s9.8-23 22.2-23.9c-8.1-9.4-7.7-23.7 1.2-32.6s23.2-9.4 32.6-1.2C233 9.8 243.3 0 256 0zM91.3 368l329.4 0c-3.8-18.7-8.5-37.3-14.4-55.2l-23.1 6.9c-21.5 6.4-44.6 4.4-64.6-5.6l-44.7-22.3c-11.3-5.6-24.5-5.6-35.8 0l-44.7 22.3c-20.1 10-43.2 12-64.6 5.6l-23.1-6.9c-5.9 17.9-10.6 36.5-14.4 55.2zM256 168c-59.5 0-102.2 36.7-132.5 100l19.1 5.7c9.8 2.9 20.3 2 29.4-2.5l44.7-22.3c24.8-12.4 53.9-12.4 78.7 0L340 271.2c9.1 4.6 19.6 5.5 29.4 2.5l19.1-5.7c-30.3-63.3-73-100-132.5-100zM464 464l0-48-416 0 0 48 416 0z"/></svg>