<svg xmlns="http://www.w3.org/2000/svg" viewBox="0 0 512 512"><path fill="currentColor" d="M224 0C100.3 0 0 100.3 0 224 0 281.8 22 334.6 58 374.3 62.2 379 64 384 64 388.1L64 488c0 13.3 10.7 24 24 24s24-10.7 24-24l0-99.9c0-18.1-7.8-34.2-18.5-46-28.3-31.2-45.5-72.6-45.5-118.1 0-97.2 78.8-176 176-176 86.6 0 158.7 62.6 173.3 145.1 .9 4.8 3.2 9.3 6.7 12.8l52.2 52.2c5 5 7.9 11.9 7.9 19 0 14.9-12 26.9-26.9 26.9L424 304c-13.3 0-24 10.7-24 24l0 48c0 22.1-17.9 40-40 40l-48 0c-13.3 0-24 10.7-24 24l0 48c0 13.3 10.7 24 24 24s24-10.7 24-24l0-24 24 0c48.6 0 88-39.4 88-88l0-24.8c36.2-5.3 64-36.5 64-74.1 0-19.9-7.9-38.9-21.9-53l-47-47C421.5 75.9 331.7 0 224 0zm-6.4 151.5c-11.1-14.8-28.5-23.5-46.9-23.5-32.4 0-58.7 26.3-58.7 58.7l0 5.3c0 49.1 65.8 98.1 96.5 118.3 9.5 6.2 21.5 6.2 30.9 0 30.7-20.2 96.5-69.3 96.5-118.3l0-5.3c0-32.4-26.3-58.7-58.7-58.7-18.5 0-35.9 8.7-46.9 23.5l-6.4 8.5-6.4-8.5z"/></svg>