<svg xmlns="http://www.w3.org/2000/svg" viewBox="0 0 576 512"><path fill="currentColor" d="M200 512c48.6 0 88-39.4 88-88l0-66.2-57.4 57.4 9.4 .8 0 8c0 22.1-17.9 40-40 40l-18.2 0-48 48 66.2 0zM37.8 472.3L7 503.1c-9.4 9.4-9.4 24.6 0 33.9s24.6 9.4 33.9 0L569 9.1c9.4-9.4 9.4-24.6 0-33.9s-24.6-9.4-33.9 0l-211 211-41-41C261.5 43.9 171.7-32 64-32l0 0-8 0C42.7-32 32-21.3 32-8S42.7 16 56 16l8 0 0 0c86.7 0 158.7 62.6 173.3 145.1 .9 4.8 3.2 9.3 6.7 12.8L290.1 220 40.3 469.8c-.9 .8-1.8 1.6-2.5 2.5zM192 176a32 32 0 1 0 -64 0 32 32 0 1 0 64 0zM512 312a24 24 0 1 0 0-48 24 24 0 1 0 0 48zm-40 24a24 24 0 1 0 -48 0 24 24 0 1 0 48 0zm64 48a24 24 0 1 0 -48 0 24 24 0 1 0 48 0z"/></svg>