<svg xmlns="http://www.w3.org/2000/svg" viewBox="0 0 512 512"><path fill="currentColor" d="M205.3 161.1C190.7 78.6 118.7 16 32 16l0 0-8 0C10.7 16 0 5.3 0-8S10.7-32 24-32l8 0 0 0c107.7 0 197.5 75.9 219.1 177.1l47 47c14.1 14 21.9 33.1 21.9 53 0 37.7-27.8 68.8-64 74.1L256 424c0 48.6-39.4 88-88 88L24 512c-13.3 0-24-10.7-24-24s10.7-24 24-24l144 0c22.1 0 40-17.9 40-40l0-8-74.4-6.2c-12.2-1-21.6-11.2-21.6-23.4 0-10.8 7.3-20.2 17.8-22.8l78.2-19.5 0-48c0-13.3 10.7-24 24-24l13.1 0c14.9 0 26.9-12.1 26.9-26.9 0-7.1-2.8-14-7.9-19L212 173.9c-3.5-3.5-5.8-7.9-6.7-12.8zM96 176a32 32 0 1 1 64 0 32 32 0 1 1 -64 0zM456 288a24 24 0 1 1 48 0 24 24 0 1 1 -48 0zm-40 24a24 24 0 1 1 0 48 24 24 0 1 1 0-48zm-64 48a24 24 0 1 1 0 48 24 24 0 1 1 0-48zm128 0a24 24 0 1 1 0 48 24 24 0 1 1 0-48zM456 480a24 24 0 1 1 48 0 24 24 0 1 1 -48 0zm-40-72a24 24 0 1 1 0 48 24 24 0 1 1 0-48z"/></svg>