<svg xmlns="http://www.w3.org/2000/svg" viewBox="0 0 512 512"><path fill="currentColor" d="M224 0C100.3 0 0 100.3 0 224 0 229.4 .2 234.7 .6 240l257.1 0c20.2 19.8 47.9 32 78.4 32l112 0c5.2 0 10.3-.6 15.1-1.8 .6 2.2 .9 4.5 .9 6.9 0 14.9-12 26.9-26.9 26.9L424 304c-13.3 0-24 10.7-24 24l0 48c0 22.1-17.9 40-40 40l-48 0c-13.3 0-24 10.7-24 24l0 48c0 13.3 10.7 24 24 24s24-10.7 24-24l0-24 24 0c48.6 0 88-39.4 88-88l0-24.8c36.2-5.3 64-36.5 64-74.1 0-12.7-3.2-25.1-9.2-36 5.8-9.7 9.2-21 9.2-33.1l0-96c0-35.3-28.7-64-64-64l-85.4 0C324.5 17.9 276.3 0 224 0zm62.6 59.5c-17.1 8.4-31.7 21-42.5 36.5L103.2 96c31.5-29.8 74-48 120.8-48 22 0 43.2 4.1 62.6 11.5zM225.1 144c-.7 5.2-1.1 10.6-1.1 16 0 11.1 1.6 21.9 4.6 32L50.9 192c3.1-17 8.7-33.1 16.3-48l157.9 0zM448 224l-112 0c-35.3 0-64-28.7-64-64s28.7-64 64-64l112 0c8.8 0 16 7.2 16 16l0 96c0 8.8-7.2 16-16 16zM58 374.3c4.2 4.7 6 9.6 6 13.7L64 488c0 13.3 10.7 24 24 24s24-10.7 24-24l0-99.9c0-18.1-7.8-34.2-18.5-46-14.2-15.7-25.7-34-33.5-54.1L9.3 288C19 320.5 35.8 349.9 58 374.3z"/></svg>