<svg xmlns="http://www.w3.org/2000/svg" viewBox="0 0 512 512"><path fill="currentColor" d="M224 0C100.3 0 0 100.3 0 224 0 281.8 22 334.6 58 374.3 62.2 379 64 384 64 388.1L64 488c0 13.3 10.7 24 24 24s24-10.7 24-24l0-99.9c0-18.1-7.8-34.2-18.5-46-28.3-31.2-45.5-72.6-45.5-118.1 0-8 .5-15.8 1.5-23.4L224 316.8 224 480c0 17.7 14.3 32 32 32l143.7 0c28.6 0 53.7-18.9 61.5-46.4l41.6-145.6 4.7-16.6c.5-1.6 .9-3.1 1.2-4.7 2.1-6.8 3.2-14.1 3.2-21.6 0-.8 0-1.5 0-2.3 0-.9 0-1.9 0-2.8l-.2 0c-1.2-18-8.9-35-21.8-47.9l-47-47C421.5 75.9 331.7 0 224 0zm19.3 272L63.3 152c27.5-61.3 89.1-104.1 160.7-104.1 86.6 0 158.7 62.6 173.3 145.1 .9 4.8 3.2 9.3 6.7 12.8l52.2 52.2c3.8 3.8 6.4 8.7 7.4 13.9l-220.3 0zM272 464l0-144 180.9 0-5.7 20-111.2 0c-11 0-20 9-20 20s9 20 20 20l99.8 0-6.9 24-92.9 0c-11 0-20 9-20 20s9 20 20 20l81.5 0-2.4 8.4c-2 6.9-8.2 11.6-15.4 11.6L272 464zm48-224a32 32 0 1 0 0-64 32 32 0 1 0 0 64z"/></svg>