<svg xmlns="http://www.w3.org/2000/svg" viewBox="0 0 512 512"><path fill="currentColor" d="M224 0C100.3 0 0 100.3 0 224 0 281.8 22 334.6 58 374.3 62.2 379 64 384 64 388.1L64 488c0 13.3 10.7 24 24 24s24-10.7 24-24l0-99.9c0-18.1-7.8-34.2-18.5-46-28.3-31.2-45.5-72.6-45.5-118.1 0-97.2 78.8-176 176-176 86.6 0 158.7 62.6 173.3 145.1 .9 4.8 3.2 9.3 6.7 12.8l52.2 52.2c5 5 7.9 11.9 7.9 19 0 14.9-12 26.9-26.9 26.9L424 304c-13.3 0-24 10.7-24 24l0 48c0 22.1-17.9 40-40 40l-48 0c-13.3 0-24 10.7-24 24l0 48c0 13.3 10.7 24 24 24s24-10.7 24-24l0-24 24 0c48.6 0 88-39.4 88-88l0-24.8c36.2-5.3 64-36.5 64-74.1 0-19.9-7.9-38.9-21.9-53l-47-47C421.5 75.9 331.7 0 224 0zM336.6 195.9c6.3-3.6 9.5-11.1 6.8-18-2.1-5.5-4.6-10.8-7.4-15.9l-2.3-4c-3.1-5.1-6.5-9.9-10.2-14.5-4.6-5.7-12.7-6.7-19-3l-2.9 1.7c-9.2 5.3-20.4 4-29.6-1.3S256 126.4 256 115.8l0-3.4c0-7.3-4.9-13.8-12.1-14.9-6.5-1-13.1-1.5-19.9-1.5s-13.4 .5-19.9 1.5c-7.2 1.1-12.1 7.6-12.1 14.9l0 3.4c0 10.6-6.9 19.8-16.1 25.1s-20.4 6.6-29.6 1.3l-2.9-1.7c-6.3-3.6-14.4-2.6-19 3-3.7 4.6-7.1 9.5-10.2 14.6l-2.3 3.9c-2.8 5.1-5.3 10.4-7.4 15.9-2.6 6.8 .5 14.3 6.8 18l2.9 1.7c9.2 5.3 13.7 15.8 13.7 26.4s-4.5 21.1-13.7 26.4l-3 1.7c-6.3 3.6-9.5 11.1-6.8 17.9 2.1 5.5 4.6 10.7 7.4 15.8l2.4 4.1c3.1 5.1 6.4 9.9 10.1 14.5 4.6 5.7 12.7 6.7 19 3l2.9-1.7c9.2-5.3 20.4-4 29.6 1.3S192 321.6 192 332.2l0 3.4c0 7.3 4.9 13.8 12.1 14.9 6.5 1 13.1 1.5 19.9 1.5s13.4-.5 19.9-1.5c7.2-1.1 12.1-7.6 12.1-14.9l0-3.4c0-10.6 6.9-19.8 16.1-25.1s20.4-6.6 29.6-1.3l2.9 1.7c6.3 3.6 14.4 2.6 19-3 3.7-4.6 7.1-9.4 10.1-14.5l2.4-4.2c2.8-5.1 5.3-10.3 7.4-15.8 2.6-6.8-.5-14.3-6.8-17.9l-3-1.7c-9.2-5.3-13.7-15.8-13.7-26.4s4.5-21.1 13.7-26.4l3-1.7zM184 224a40 40 0 1 1 80 0 40 40 0 1 1 -80 0z"/></svg>