<svg xmlns="http://www.w3.org/2000/svg" viewBox="0 0 576 512"><path fill="currentColor" d="M237.7 161.1C223.2 78.6 151.1 16 64.4 16l0 0-8 0c-13.3 0-24-10.7-24-24s10.7-24 24-24l8 0 0 0C172.1-32 262 43.9 283.5 145.1l47 47c14.1 14 21.9 33.1 21.9 53 0 37.7-27.8 68.8-64 74.1l0 104.8c0 48.6-39.4 88-88 88l-144 0c-13.3 0-24-10.7-24-24s10.7-24 24-24l144 0c22.1 0 40-17.9 40-40l0-8-74.4-6.2c-12.2-1-21.6-11.2-21.6-23.4 0-10.8 7.3-20.2 17.8-22.8l78.2-19.5 0-48c0-13.3 10.7-24 24-24l13.1 0c14.9 0 26.9-12.1 26.9-26.9 0-7.1-2.8-14-7.9-19l-52.2-52.2c-3.5-3.5-5.8-7.9-6.7-12.8zM128.4 176a32 32 0 1 1 64 0 32 32 0 1 1 -64 0zm348 49c9.4-9.4 24.6-9.4 33.9 0 90.6 90.6 90.6 237.5 0 328.1-9.4 9.4-24.6 9.4-33.9 0s-9.4-24.6 0-33.9c71.9-71.9 71.9-188.4 0-260.2-9.4-9.4-9.4-24.6 0-33.9zm-67.9 67.9c9.4-9.4 24.6-9.4 33.9 0 53.1 53.1 53.1 139.2 0 192.3-9.4 9.4-24.6 9.4-33.9 0s-9.4-24.6 0-33.9c34.4-34.4 34.4-90.1 0-124.5-9.4-9.4-9.4-24.6 0-33.9z"/></svg>