<svg xmlns="http://www.w3.org/2000/svg" viewBox="0 0 576 512"><path fill="currentColor" d="M41-24.9c-9.4-9.4-24.6-9.4-33.9 0S-2.3-.3 7 9.1l528 528c9.4 9.4 24.6 9.4 33.9 0s9.4-24.6 0-33.9l-70.3-70.3c8.5-14.3 13.3-31 13.3-48.8l0-160C512 100.3 411.7 0 288 0 226.6 0 171 24.7 130.5 64.7L41-24.9zM164.5 98.6C196.2 67.3 239.9 48 288 48 385.2 48 464 126.8 464 224l0 44.8c-14.1-8.2-30.5-12.8-48-12.8l-16 0c-21.1 0-39.1 13.7-45.5 32.7l-190-190zM400 334.2l0-30.2 16 0c26.5 0 48 21.5 48 48l0 32c0 4.3-.6 8.5-1.6 12.5L400 334.2zM187.6 257.4c-3.7-.9-7.6-1.4-11.6-1.4l-16 0c-17.5 0-33.9 4.7-48 12.8l0-44.8c0-13.1 1.4-25.8 4.1-38.1L77.5 147.3C68.8 171.2 64 197.1 64 224l0 160c0 53 43 96 96 96l16 0c26.5 0 48-21.5 48-48l0-128c0-4-.5-7.9-1.4-11.6l-35-35zM112 368l0-16c0-26.5 21.5-48 48-48l16 0 0 128-16 0c-26.5 0-48-21.5-48-48l0-16z"/></svg>