<svg xmlns="http://www.w3.org/2000/svg" viewBox="0 0 512 512"><path fill="currentColor" d="M224 0C100.3 0 0 100.3 0 224 0 281.8 22 334.6 58 374.3 62.2 379 64 384 64 388.1L64 488c0 13.3 10.7 24 24 24s24-10.7 24-24l0-99.9c0-18.1-7.8-34.2-18.5-46-28.3-31.2-45.5-72.6-45.5-118.1 0-47.4 18.7-90.4 49.2-122.1l3.4 5.1c4.8 7.2 7.4 15.7 7.4 24.4l0 26c-12 6.9-20 19.8-20 34.6 0 22.1 17.9 40 40 40s40-17.9 40-40c0-14.8-8-27.7-20-34.6l0-26c0-16.6-4.9-32.8-14.1-46.6l-5.7-8.5c22.3-14.5 48-24.1 75.8-27.2l0 44.2c-12 6.9-20 19.8-20 34.6 0 22.1 17.9 40 40 40s40-17.9 40-40c0-14.8-8-27.7-20-34.6l0-44.2c27.7 3.1 53.5 12.7 75.8 27.2l-5.7 8.5c-9.2 13.8-14.1 30-14.1 46.6l0 26c-12 6.9-20 19.8-20 34.6 0 22.1 17.9 40 40 40s40-17.9 40-40c0-14.8-8-27.7-20-34.6l0-26c0-8.7 2.6-17.2 7.4-24.4l3.4-5.1c23.7 24.6 40.3 56.1 46.5 91.2 .9 4.8 3.2 9.3 6.7 12.8l52.2 52.2c5 5 7.9 11.9 7.9 19 0 14.9-12 26.9-26.9 26.9L424 304c-13.3 0-24 10.7-24 24l0 48c0 22.1-17.9 40-40 40l-48 0c-13.3 0-24 10.7-24 24l0 48c0 13.3 10.7 24 24 24s24-10.7 24-24l0-24 24 0c48.6 0 88-39.4 88-88l0-24.8c36.2-5.3 64-36.5 64-74.1 0-19.9-7.9-38.9-21.9-53l-47-47C421.5 75.9 331.7 0 224 0zm40 256a40 40 0 1 0 -80 0 40 40 0 1 0 80 0z"/></svg>