<svg xmlns="http://www.w3.org/2000/svg" viewBox="0 0 576 512"><path fill="currentColor" d="M378.9 80c-27.3 0-53 13.1-69 35.2l-34.4 47.6c-4.5 6.2-11.7 9.9-19.4 9.9s-14.9-3.7-19.4-9.9l-34.4-47.6c-16-22.1-41.7-35.2-69-35.2-47 0-85.1 38.1-85.1 85.1 0 49.9 32 98.4 68.1 142.3 41.1 49.9 91.4 93.9 125.8 120.3 2.7 18.4 7.9 35.9 15.4 52.2-.5 0-.9 0-1.4 0-15.6 0-30.8-4.7-43.1-14.1-36.5-27.9-89.7-74.4-133.8-127.9-36.2-43.9-79.1-104.2-79.1-172.8 0-73.5 59.6-133.1 133.1-133.1 42.7 0 82.8 20.5 107.9 55.1l15 20.7 15-20.7c25-34.6 65.2-55.1 107.9-55.1 73.5 0 133.1 59.6 133.1 133.1 0 19.5-3.5 38.3-9.3 56.3-14.7-5.8-30.3-9.9-46.6-11.9 5-14.6 7.9-29.4 7.9-44.4 0-47-38.1-85.1-85.1-85.1zM288 400a144 144 0 1 1 288 0 144 144 0 1 1 -288 0zm201.4-60.9c-7.1-5.2-17.2-3.6-22.4 3.5l-53 72.9-26.8-26.8c-6.2-6.2-16.4-6.2-22.6 0s-6.2 16.4 0 22.6l40 40c3.3 3.3 7.9 5 12.6 4.6s8.9-2.8 11.7-6.5l64-88c5.2-7.1 3.6-17.2-3.5-22.3z"/></svg>