<svg xmlns="http://www.w3.org/2000/svg" viewBox="0 0 576 512"><path fill="currentColor" d="M41-25C31.6-34.3 16.4-34.3 7-25S-2.3-.4 7 9L535 537c9.4 9.4 24.6 9.4 33.9 0s9.4-24.6 0-33.9L436.4 370.4C446.1 360 455.7 349.1 464.9 338 501.1 294.1 544 233.7 544 165.1 544 91.6 484.4 32 410.9 32 368.2 32 328 52.5 303 87.1l-15 20.7-15-20.7c-25-34.6-65.2-55.1-107.9-55.1-19.7 0-38.4 4.3-55.2 12L41-25zM147.7 81.8c5.6-1.2 11.4-1.8 17.4-1.8 27.3 0 53 13.1 69 35.2l34.4 47.6c4.5 6.2 11.7 9.9 19.4 9.9s14.9-3.7 19.4-9.9l34.4-47.6c16-22.1 41.7-35.2 69-35.2 47 0 85.1 38.1 85.1 85.1 0 49.9-32 98.4-68.1 142.3-8.2 9.9-16.7 19.6-25.4 29L147.7 81.8zm185.2 321c-11.1 9.5-21.6 17.9-31 25-3.2 2.4-7.9 4.2-14 4.2s-10.8-1.8-14-4.2c-34.5-26.3-84.8-70.4-125.9-120.3-36.2-43.9-68.1-92.4-68.1-142.3 0-4.8 .4-9.5 1.2-14.1L42.8 112.6c-6.9 16.1-10.8 33.9-10.8 52.5 0 68.6 42.9 128.9 79.1 172.8 44.1 53.6 97.3 100.1 133.8 127.9 12.3 9.4 27.6 14.1 43.1 14.1s30.8-4.7 43.1-14.1c10.7-8.2 22.9-18 35.9-29.1l-34-34z"/></svg>