<svg xmlns="http://www.w3.org/2000/svg" viewBox="0 0 512 512"><path fill="currentColor" d="M309.9 115.2c16-22.1 41.7-35.2 69-35.2 47 0 85.1 38.1 85.1 85.1 0 49.9-32 98.4-68.1 142.3-37.3 45.3-82.1 85.7-115.9 112.5l0-263.4 29.9-41.3zM232 156.6L232 420c-33.7-26.8-78.6-67.2-115.9-112.5-36.2-43.9-68.1-92.4-68.1-142.3 0-47 38.1-85.1 85.1-85.1 27.3 0 53 13.1 69 35.2L232 156.6zM378.9 32C336.2 32 296 52.5 271 87.1l-15 20.7-15-20.7C216 52.5 175.8 32 133.1 32 59.6 32 0 91.6 0 165.1 0 233.7 42.9 294.1 79.1 338 123.2 391.5 176.4 438 212.9 465.9 225.2 475.3 240.4 480 256 480s30.8-4.7 43.1-14.1C335.6 438 388.8 391.5 432.9 338 469.1 294.1 512 233.7 512 165.1 512 91.6 452.4 32 378.9 32z"/></svg>