<svg xmlns="http://www.w3.org/2000/svg" viewBox="0 0 512 512"><path fill="currentColor" d="M309.9 115.2l-3.9 5.4 13.2 27.9c1.8 3.8 .4 8.2-3.2 10.3l-88.9 51.9 59.7 97c2.1 3.4 1.4 7.8-1.7 10.4s-7.6 2.4-10.5-.3l-112-104c-1.6-1.5-2.5-3.5-2.6-5.7s.8-4.3 2.3-5.8l59.6-59.6-19.9-27.5c-16-22.1-41.7-35.2-69-35.2-47 0-85.1 38.1-85.1 85.1 0 49.9 32 98.4 68.1 142.3 41.1 50 91.4 94 125.9 120.3 3.2 2.4 7.9 4.2 14 4.2s10.8-1.8 14-4.2c34.5-26.3 84.8-70.4 125.9-120.3 36.2-43.9 68.1-92.4 68.1-142.3 0-47-38.1-85.1-85.1-85.1-27.3 0-53 13.1-69 35.2zM270.5 87.7l.5-.6c25-34.6 65.2-55.1 107.9-55.1 73.5 0 133.1 59.6 133.1 133.1 0 68.6-42.9 128.9-79.1 172.8-44.1 53.6-97.3 100.1-133.8 127.9-12.3 9.4-27.5 14.1-43.1 14.1s-30.8-4.7-43.1-14.1C176.4 438 123.2 391.5 79.1 338 42.9 294.1 0 233.7 0 165.1 0 91.6 59.6 32 133.1 32 175.8 32 216 52.5 241 87.1l7.4 10.2 6.8 4.6 15.3-14.1z"/></svg>