<svg xmlns="http://www.w3.org/2000/svg" viewBox="0 0 576 512"><path fill="currentColor" d="M279.1 72.4c28.5-2.5 53.7 18.6 56.2 47.1l.2 1.9c.1 1.6 .2 3.3 .2 5.1 16.6 5 32 12.9 45.8 23.1 2-11 2.7-21.9 1.8-32.4l-.2-1.9c-4.8-54.9-53.2-95.6-108.2-90.8-31.9 2.8-60.6 20.7-77 48.2l-9.8 16.5-12.6-14.5c-21-24.2-52.3-36.9-84.2-34.1-54.9 4.8-95.6 53.2-90.8 108.2l.2 1.9 0 0c3.7 41.9 33.8 84.9 70.2 122 29.5 30.1 63.2 56.3 90.4 75-9.4-23.2-15.7-47.7-16.5-72.4-13.5-11.1-27.1-23.3-39.7-36.2-35-35.6-54.5-68.3-56.7-92.6l0 0-.2-1.9C45.8 116.1 67 91 95.5 88.5 112 87 128.3 93.6 139.2 106.2l34.3 39.6c5 5.8 12.6 8.9 20.2 8.2s14.6-5 18.5-11.6l26.9-45c8.5-14.3 23.4-23.6 40-25zM241.2 263.6c2.5-28.5 27.6-49.6 56.2-47.1 16.6 1.4 31.4 10.8 40 25l26.9 45c4 6.6 10.8 10.9 18.5 11.6s15.2-2.4 20.2-8.2l34.3-39.6c10.9-12.6 27.1-19.2 43.7-17.7 28.5 2.5 49.6 27.6 47.1 56.2l-.2 1.9c-2.1 24.3-21.7 57-56.7 92.6-33.2 33.8-72.9 62.9-99.8 79.9-.1 .1-1.1 .6-3.2 .4s-3-.9-3.1-1c-23.6-21.5-57.6-57-84.4-96.1-28.3-41.2-41.8-76.7-39.7-101l0 0 .2-1.9zm60.4-94.9c-54.9-4.8-103.4 35.8-108.2 90.8l-.2 1.9c-7.3 83.8 88.7 190.3 139.6 236.7 8.6 7.8 19.7 12.3 31.3 13.3l0 0c11.6 1 23.3-1.5 33.1-7.7 58.2-36.9 171.2-125.1 178.6-208.9l.2-1.9c4.8-54.9-35.8-103.4-90.8-108.2-31.9-2.8-63.2 9.9-84.2 34.1l-12.6 14.5-9.9-16.5c-16.4-27.5-45.1-45.4-77-48.2z"/></svg>