<svg xmlns="http://www.w3.org/2000/svg" viewBox="0 0 576 512"><path fill="currentColor" d="M64 226L64 17c0-9.4-7.6-17-17-17-8.6 0-15.8 6.4-16.9 14.9L4.2 222.3C2 240.2 16 256 34 256 50.6 256 64 242.6 64 226zM283.2 49.9c2.9-2.2 6.8-2.2 9.7 0l110.8 84.4c17.9 13.6 28.4 34.8 28.4 57.3l0 195.6c0 8.9-4.9 17-12.8 21.2l-96.4 51c-3.4 1.8-7.1 3.1-10.8 3.9l0-215.2 74.6-20.4c7.9-2.2 13.4-9.3 13.4-17.5 0-10-8.1-18.1-18.1-18.1l-187.7 0c-10 0-18.1 8.1-18.1 18.1 0 8.2 5.5 15.4 13.4 17.5L264 248 264 463.2c-3.8-.8-7.4-2.1-10.8-3.9l-96.4-51c-7.9-4.2-12.8-12.3-12.8-21.2l0-195.6c0-22.5 10.5-43.7 28.4-57.3L283.2 49.9zM322 11.7c-20-15.3-47.8-15.3-67.9 0L143.3 96.1c-29.8 22.7-47.3 58-47.3 95.5l0 195.6c0 26.7 14.7 51.2 38.3 63.6l96.4 51c12.7 6.7 26.8 10.2 41.2 10.2l32.2 0c14.4 0 28.5-3.5 41.2-10.2l96.4-51c23.6-12.5 38.3-37 38.3-63.6l0-195.6c0-37.5-17.5-72.8-47.3-95.5L322 11.7zM512 17l0 209c0 16.6 13.4 30 30 30 18.1 0 32-15.8 29.8-33.7L545.9 14.9C544.8 6.4 537.6 0 529 0 519.6 0 512 7.6 512 17z"/></svg>