<svg xmlns="http://www.w3.org/2000/svg" viewBox="0 0 576 512"><path fill="currentColor" d="M142.4 488L23 338.4c-12.5-15.7-15.5-34.8-12.3-54.2L53.3 97.7c5.6-19.3 16.9-33.8 34.6-43.4l172.4-83c9-3.7 17.9-6.3 27.8-6.3 9.9 0 18.8 2.6 27.8 6.3l172.4 83c17.7 9.6 29 24.1 34.6 43.4l42.6 186.5c3.2 19.3 .2 38.4-12.3 54.2L433.7 488c-13.4 15-29.9 23-50 24.1l-191.3 0c-20.1-1.1-36.6-9.1-50-24.1zM108.7 97.5c-5.1 2.5-7.5 6.9-9 12.1L57.5 294.9c-1.1 4.8 0 9.8 3.1 13.6L179.9 458c3 3.8 7.7 6 12.5 6l191.3 0c4.8 0 9.5-2.2 12.5-6L515.5 308.5c3-3.8 4.2-8.8 3.1-13.6L476.3 109.7c-1.5-5.2-3.8-9.6-9-12.1l-171-82.4c-2.7-1.1-5.3-2.2-8.4-2.2-3 0-5.6 1.1-8.3 2.2l-171 82.4z"/></svg>