<svg xmlns="http://www.w3.org/2000/svg" viewBox="0 0 512 512"><path fill="currentColor" d="M221.2 511.1c22.2 12.7 49.4 12.7 71.5 0l168.1-96.2c22.4-12.8 36.2-36.7 36.2-62.5l0-191.6c0-25.8-13.8-49.7-36.2-62.5L292.8 2.1c-22.2-12.7-49.4-12.7-71.5 0L53.2 98.3C30.8 111.1 17 134.9 17 160.8l0 191.6c0 25.8 13.8 49.7 36.2 62.5l168.1 96.2zm47.7-41.7c-7.4 4.2-16.5 4.2-23.8 0L77 373.2C69.6 369 65 361 65 352.4l0-191.6c0-8.6 4.6-16.6 12.1-20.8L245.1 43.7c7.4-4.2 16.5-4.2 23.8 0L437 139.9c7.5 4.3 12.1 12.2 12.1 20.8l0 191.6c0 8.6-4.6 16.6-12.1 20.8L268.9 469.4zm-139-286.4c-4.1-8.3-13.5-12.7-22.5-10.5S92 182.7 92 192l0 128c0 11 9 20 20 20s20-9 20-20l0-43.3 26.1 52.2c4.1 8.3 13.5 12.7 22.5 10.5S196 329.3 196 320l0-128c0-11-9-20-20-20s-20 9-20 20l0 43.3-26.1-52.2zM220 192l0 128c0 11 9 20 20 20s20-9 20-20l0-44 28 0c11 0 20-9 20-20s-9-20-20-20l-28 0 0-24 28 0c11 0 20-9 20-20s-9-20-20-20l-48 0c-11 0-20 9-20 20zm116-20c-11 0-20 9-20 20s9 20 20 20l12 0 0 108c0 11 9 20 20 20s20-9 20-20l0-108 12 0c11 0 20-9 20-20s-9-20-20-20l-64 0z"/></svg>