<svg xmlns="http://www.w3.org/2000/svg" viewBox="0 0 576 512"><path fill="currentColor" d="M33.5 291.8c-12.7-22.2-12.7-49.4 0-71.5L129.7 52.2C142.5 29.8 166.4 16 192.2 16l191.6 0c25.8 0 49.7 13.8 62.5 36.2l96.2 168.1c12.7 22.2 12.7 49.4 0 71.5L446.3 459.9c-12.8 22.4-36.7 36.2-62.5 36.2l-191.6 0c-25.8 0-49.7-13.8-62.5-36.2L33.5 291.8zm41.7-47.7c-4.2 7.4-4.2 16.5 0 23.8L171.4 436c4.3 7.5 12.2 12.1 20.8 12.1l191.6 0c8.6 0 16.6-4.6 20.8-12.1L500.8 268c4.2-7.4 4.2-16.5 0-23.8L404.7 76.1C400.4 68.6 392.4 64 383.8 64L192.2 64c-8.6 0-16.6 4.6-20.8 12.1L75.2 244.1z"/></svg>