<svg xmlns="http://www.w3.org/2000/svg" viewBox="0 0 576 512"><path fill="currentColor" d="M33.5 220.3c-12.7 22.2-12.7 49.4 0 71.5l96.2 168.1c12.8 22.4 36.7 36.2 62.5 36.2l191.6 0c25.8 0 49.7-13.8 62.5-36.2l96.2-168.1c12.7-22.2 12.7-49.4 0-71.5L446.3 52.2C433.5 29.8 409.6 16 383.8 16L192.2 16c-25.8 0-49.7 13.8-62.5 36.2L33.5 220.3zM75.2 268c-4.2-7.4-4.2-16.5 0-23.8L171.4 76.1c4.3-7.5 12.2-12.1 20.8-12.1l191.6 0c8.6 0 16.6 4.6 20.8 12.1l96.2 168.1c4.2 7.4 4.2 16.5 0 23.8L404.7 436c-4.3 7.5-12.2 12.1-20.8 12.1l-191.6 0c-8.6 0-16.6-4.6-20.8-12.1L75.2 268zm273.5-40.1c-4.3-7.3-12.2-11.8-20.7-11.8s-16.4 4.5-20.7 11.8l-46.5 79-17.2-24.6c-4.5-6.4-11.8-10.2-19.7-10.2s-15.2 3.8-19.7 10.2l-41.1 58.7 33.8 59 180.6 0 35.7-62.3-64.6-109.8zM256 160a32 32 0 1 0 -64 0 32 32 0 1 0 64 0z"/></svg>