<svg xmlns="http://www.w3.org/2000/svg" viewBox="0 0 576 512"><path fill="currentColor" d="M383.8 16c25.8 0 49.7 13.8 62.5 36.2l96.2 168c12.7 22.2 12.7 49.4 0 71.5L446.3 459.9c-12.8 22.4-36.7 36.2-62.5 36.2l-191.6 0c-25.8 0-49.7-13.8-62.5-36.2L33.5 291.8c-12.7-22.2-12.7-49.4 0-71.5l96.2-168C142.5 29.8 166.4 16 192.2 16l191.6 0zM192.2 64c-8.6 0-16.6 4.6-20.8 12.1l-96.2 168c-4.2 7.4-4.2 16.5 0 23.8L171.4 436c4.3 7.5 12.2 12.1 20.8 12.1l191.6 0c8.6 0 16.6-4.6 20.8-12.1L500.9 268c4.2-7.4 4.2-16.5 0-23.8l-96.2-168C400.4 68.6 392.4 64 383.8 64L192.2 64zM288 384a32 32 0 1 1 0-64 32 32 0 1 1 0 64zm0-256c18.2 0 32.7 15.5 31.4 33.7l-7.4 104c-.9 12.6-11.4 22.3-23.9 22.3s-23-9.7-23.9-22.3l-7.4-104C255.3 143.5 269.8 128 288 128z"/></svg>