<svg xmlns="http://www.w3.org/2000/svg" viewBox="0 0 576 512"><path fill="currentColor" d="M551.5 391.1c34.4-34.4 34.4-90.1 0-124.5-27.8-27.8-69.5-33.1-102.6-16-11.8 6.1-16.4 20.6-10.3 32.3s20.6 16.4 32.3 10.3c15.1-7.8 34-5.3 46.6 7.3 15.6 15.6 15.6 40.9 0 56.6s-40.9 15.6-56.6 0l-81.7-81.7c22.3-14.2 37.1-39.1 37.1-67.5 0-33.9-21.1-62.9-50.9-74.5 1.9-6.8 2.9-14 2.9-21.5 0-44.2-35.8-80-80-80-27.3 0-51.5 13.7-65.9 34.6-5.8-20-24.2-34.6-46.1-34.6-26.5 0-48 21.5-48 48 0 4 .5 7.9 1.4 11.6L440.1 401.9c34.2 23.1 81.1 19.5 111.4-10.8zM448.4 96a32 32 0 1 0 0-64 32 32 0 1 0 0 64zm64 64a32 32 0 1 0 -64 0 32 32 0 1 0 64 0zM48.4 440l0-294.1 318.1 318.1-294.1 0c-13.3 0-24-10.7-24-24zM68.7 98.3C43.5 73.1 .4 91 .4 126.6L.4 440c0 39.8 32.2 72 72 72l313.4 0c35.6 0 53.5-43.1 28.3-68.3L68.7 98.3z"/></svg>