<svg xmlns="http://www.w3.org/2000/svg" viewBox="0 0 640 512"><path fill="currentColor" d="M497.8-17c5-12.3 18.9-18.2 31.2-13.3S547.2-11.3 542.2 1L366.5 436.9C348.2 482.3 304.1 512 255.2 512L120 512c-30.9 0-56-25.1-56-56l0-80c0-30.9 25.1-56 56-56l241.9 0 135.9-337zM608 416c17.7 0 32 14.3 32 32l0 32c0 17.7-14.3 32-32 32l-128 0c-17.7 0-32-14.3-32-32l0-32c0-17.7 14.3-32 32-32l128 0zM120 368c-4.4 0-8 3.6-8 8l0 80c0 4.4 3.6 8 8 8l40 0 0-96-40 0zm88 96l47.2 0c29.4 0 55.8-17.8 66.8-45.1l20.5-50.9-134.5 0 0 96z"/></svg>