<svg xmlns="http://www.w3.org/2000/svg" viewBox="0 0 512 512"><path fill="currentColor" d="M48 184c0 4.8 2.3 11.7 11 20.2 8.8 8.6 22.8 17.5 42.1 25.5 38.4 15.9 93.2 26.3 154.9 26.3s116.4-10.4 154.9-26.3c19.3-8 33.3-16.9 42.1-25.5 8.7-8.6 11-15.4 11-20.2s-2.3-11.7-11-20.2c-8.8-8.6-22.8-17.5-42.1-25.5-38.4-15.9-93.2-26.3-154.9-26.3s-116.4 10.4-154.9 26.3c-19.3 8-33.3 16.9-42.1 25.5-8.7 8.6-11 15.4-11 20.2zM0 184C0 162.3 10.7 143.9 25.4 129.5 40.1 115.1 60.1 103.3 82.8 93.9 128.3 75.1 189.6 64 256 64S383.7 75.1 429.2 93.9c22.7 9.4 42.7 21.2 57.3 35.5 14.7 14.4 25.4 32.8 25.4 54.5l0 144c0 21.7-10.7 40.1-25.4 54.5-14.6 14.3-34.6 26.1-57.3 35.5-45.5 18.8-106.8 29.9-173.2 29.9S128.3 436.9 82.8 418.1C60.1 408.7 40.1 396.9 25.4 382.5 10.7 368.1 0 349.7 0 328L0 184zm464 72.2c-10.5 6.7-22.2 12.6-34.8 17.8-45.5 18.8-106.8 29.9-173.2 29.9S128.3 292.9 82.8 274.1c-12.6-5.2-24.3-11.1-34.8-17.8L48 328c0 4.8 2.3 11.7 11 20.2 8.8 8.6 22.8 17.5 42.1 25.5 38.4 15.9 93.2 26.3 154.9 26.3s116.4-10.4 154.9-26.3c19.3-8 33.3-16.9 42.1-25.5 8.7-8.6 11-15.4 11-20.2l0-71.8z"/></svg>