<svg xmlns="http://www.w3.org/2000/svg" viewBox="0 0 640 512"><path fill="currentColor" d="M584 320c30.9 0 56 25.1 56 56l0 80c0 30.9-25.1 56-56 56l-106.9 0c-46.6 0-89-27-108.7-69.2l-21.9-46.8 35.6-76 201.9 0zM435.4-20.4c6.2-10.4 19.5-14.7 30.8-9.4 11.3 5.3 16.5 18.2 12.5 29.7l-.9 2.2-206.1 440.7C251.9 485 209.5 512 162.9 512L56 512c-30.9 0-56-25.1-56-56l0-80c0-30.9 25.1-56 56-56l220.1 0 158.2-338.2 1.2-2.2zM411.9 422.5c11.8 25.3 37.3 41.5 65.2 41.5l18.9 0 0-96-109.6 0 25.5 54.5zM544 464l40 0c4.4 0 8-3.6 8-8l0-80c0-4.4-3.6-8-8-8l-40 0 0 96zM56 368c-4.4 0-8 3.6-8 8l0 80c0 4.4 3.6 8 8 8l40 0 0-96-40 0zm88 96l18.9 0c27.9 0 53.4-16.2 65.2-41.5l25.5-54.5-109.6 0 0 96zM173.8-29.7c11.3-5.3 24.5-1 30.7 9.4l1.2 2.2 87.8 187.6-26.5 56.7-104.7-223.9-.9-2.2c-4-11.5 1.2-24.4 12.5-29.7z"/></svg>