<svg xmlns="http://www.w3.org/2000/svg" viewBox="0 0 448 512"><path fill="currentColor" d="M48 240C48 182.6 62.3 134.7 89.1 102.1 114.7 70.9 156.1 48 224 48s109.3 22.9 134.9 54.1c26.8 32.7 41.1 80.6 41.1 137.9 0 95.1-12.6 148.4-36 178.6-20.6 26.7-58 45.4-140 45.4S104.6 445.3 84 418.6C60.6 388.4 48 335.1 48 240zM224 0C64 0 0 111 0 240 0 432 48 512 224 512s224-80 224-272C448 111 384 0 224 0zM200 208c0-17.7-14.3-32-32-32l-64 0c-17.7 0-32 14.3-32 32 0 35.3 28.7 64 64 64s64-28.7 64-64zm112 64c35.3 0 64-28.7 64-64 0-17.7-14.3-32-32-32l-64 0c-17.7 0-32 14.3-32 32 0 35.3 28.7 64 64 64zM176 112a16 16 0 1 0 0-32 16 16 0 1 0 0 32zm64 32a16 16 0 1 0 -32 0 16 16 0 1 0 32 0zM208 304a16 16 0 1 0 -32 0 16 16 0 1 0 32 0zm0 64a16 16 0 1 0 -32 0 16 16 0 1 0 32 0zm-16 80a16 16 0 1 0 0-32 16 16 0 1 0 0 32zm64 0a16 16 0 1 0 0-32 16 16 0 1 0 0 32zm0-64a16 16 0 1 0 0-32 16 16 0 1 0 0 32zm0-64a16 16 0 1 0 0-32 16 16 0 1 0 0 32zM288 96a16 16 0 1 0 -32 0 16 16 0 1 0 32 0z"/></svg>