<svg xmlns="http://www.w3.org/2000/svg" viewBox="0 0 512 512"><path fill="currentColor" d="M256.5 0a48 48 0 1 1 0 96 48 48 0 1 1 0-96zm-128 144a48 48 0 1 1 96 0 48 48 0 1 1 -96 0zm160 0a48 48 0 1 1 96 0 48 48 0 1 1 -96 0zM113.9 232c0-16.2 15.7-27.7 31.1-22.9l29.8 9.2c16.8 5.2 34.8 5.7 51.8 1.4l39-9.9c11.1-2.8 21.5 2.5 26.6 11.2 15.2 2.8 30.9 1.9 45.7-2.7l29.8-9.2c15.4-4.8 31.1 6.8 31.1 22.9l0 28.8c0 44.9 36.4 81.3 81.3 81.3 16.6 0 28.2 16.5 22.6 32.1l-6.7 18.6c-6.9 19.2-7.5 40.1-1.8 59.6l8.2 27.6c5.2 17.8-10.9 34.6-28.9 30.1l-39-9.8c-17.1-4.3-35-3.9-51.8 1.3L353 510.9c-15.4 4.8-31.1-6.8-31.1-22.9l0-28.8c0-39.5-28.1-72.4-65.4-79.8l0 0c-37.4 7.4-65.6 40.3-65.6 79.8l0 28.8c0 16.2-15.7 27.7-31.1 22.9L130 501.7c-16.8-5.2-34.8-5.7-51.8-1.3l-39 9.8C21.1 514.8 5 498 10.2 480.2l8.2-27.6c5.8-19.6 5.1-40.4-1.8-59.6L9.9 374.3c-5.6-15.6 6-32.1 22.6-32.1 44.9 0 81.3-36.4 81.3-81.3l0-28.8zM293.1 341c44.2 19.7 75.2 63.4 76.7 114.5 24.6-7.4 50.6-8 75.5-1.9-4.5-22.4-3.6-45.5 2.7-67.5-54.7-14-95.4-62.9-97-121.6-21.1 6.3-43.3 7.7-64.9 4.1-5.4 19.2-4.7 39.7 2.1 58.5l5 13.9zM161.8 264.5c-1.6 58.7-42.3 107.6-97 121.6 6.2 22 7.1 45.1 2.7 67.5 24.9-6.1 51-5.4 75.5 1.9 1.7-58.7 42.3-107.6 97-121.6-6.2-22-7.1-45.1-2.7-67.5-24.9 6.1-51 5.4-75.5-1.9z"/></svg>