<svg xmlns="http://www.w3.org/2000/svg" viewBox="0 0 512 512"><path fill="currentColor" d="M240 6.1c9.1-8.2 22.9-8.2 32 0l232 208c9.9 8.8 10.7 24 1.8 33.9s-24 10.7-33.9 1.8l-8-7.2 0 205.3c0 35.3-28.7 64-64 64l-288 0c-35.3 0-64-28.7-64-64l0-205.3-8 7.2c-9.9 8.8-25 8-33.9-1.8s-8-25 1.8-33.9L240 6.1zm16 50.1L96 199.7 96 448c0 8.8 7.2 16 16 16l288 0c8.8 0 16-7.2 16-16l0-248.3-160-143.4zM200 224a56 56 0 1 1 112 0 56 56 0 1 1 -112 0zM144 400c0-44.2 35.8-80 80-80l64 0c44.2 0 80 35.8 80 80 0 8.8-7.2 16-16 16l-192 0c-8.8 0-16-7.2-16-16z"/></svg>