<svg xmlns="http://www.w3.org/2000/svg" viewBox="0 0 512 512"><path fill="currentColor" d="M144 464l0-160c0-61.9 50.1-112 112-112s112 50.1 112 112l0 160 90.3 0-17-34C424.7 396.7 416 359.9 416 322.7l0-69.2c0-40.8-17.3-79.7-47.7-107l-10.2-9.2c-23.8-21.5-24.8-58.5-2.1-81.2l8.1-8.1-92.1 0C174.8 48 96 126.8 96 224l0 98.7c0 37.3-8.7 74-25.3 107.3l-17 34 90.3 0zm48 0l128 0 0-160c0-35.3-28.7-64-64-64s-64 28.7-64 64l0 160zm-48 48L38.8 512c-21.4 0-38.8-17.4-38.8-38.8 0-6 1.4-12 4.1-17.4l23.6-47.3C41.1 381.9 48 352.5 48 322.7L48 224C48 100.3 148.3 0 272 0L425.4 0c12.5 0 22.6 10.1 22.6 22.6 0 6-2.4 11.8-6.6 16L390 90c-3.2 3.2-3.1 8.5 .3 11.6l10.2 9.2c40.5 36.4 63.6 88.3 63.6 142.7l0 69.2c0 29.8 6.9 59.2 20.3 85.9l23.6 47.3c2.7 5.4 4.1 11.3 4.1 17.4 0 21.4-17.4 38.8-38.8 38.8L144 512z"/></svg>