<svg xmlns="http://www.w3.org/2000/svg" viewBox="0 0 512 512"><path fill="currentColor" d="M194.6 .1c5.9 .6 11.5 3.5 15.5 8 4.6 5.2 6.7 12.1 5.8 18.9L184 273.6 184 280c0 39.8 32.2 72 72 72s72-32.2 72-72l0-6.4-31.8-246.5c-.9-6.8 1.2-13.7 5.8-18.9S313.1 0 320 0L456 0c13.3 0 24 10.7 24 24s-10.7 24-24 24l-4.9 0 33.5 194.5 1.5 9.7c1.3 9.7 1.9 19.6 1.9 29.4 0 127.5-105 230.3-232 230.3S24 409.1 24 281.7c0-13.1 1.1-26.2 3.3-39.1L60.9 48 56 48C42.7 48 32 37.3 32 24S42.7 0 56 0l136 0 2.6 .1zM74.7 250.7c-1.8 10.2-2.7 20.6-2.7 31 0 100.5 83 182.3 184 182.3s184-81.9 184-182.3c0-7.8-.5-15.6-1.5-23.3l-1.2-7.7-34.9-202.7-55.1 0 28.5 220.9 .2 1.5 0 9.5c0 66.3-53.7 120-120 120S136 346.3 136 280l0-9.5 .2-1.5 28.5-220.9-55.1 0-34.9 202.7z"/></svg>