<svg xmlns="http://www.w3.org/2000/svg" viewBox="0 0 448 512"><path fill="currentColor" d="M288 104c0 13.3 10.7 24 24 24s24-10.7 24-24l0-2.3 67.3-9.6c4.2 7.1 11.9 11.9 20.7 11.9 13.3 0 24-10.7 24-24l0-32c0-13.3-10.7-24-24-24-8.8 0-16.6 4.8-20.7 11.9L336 26.3 336 24c0-13.3-10.7-24-24-24s-24 10.7-24 24l0 16-164 0C55.5 40 0 95.5 0 164S55.5 288 124 288l300 0c13.3 0 24-10.7 24-24s-10.7-24-24-24l-300 0c-42 0-76-34-76-76s34-76 76-76l164 0 0 16zM24 352c-13.3 0-24 10.7-24 24s10.7 24 24 24l400 0c13.3 0 24-10.7 24-24s-10.7-24-24-24L24 352zm0 112c-13.3 0-24 10.7-24 24s10.7 24 24 24l400 0c13.3 0 24-10.7 24-24s-10.7-24-24-24L24 464z"/></svg>