<svg xmlns="http://www.w3.org/2000/svg" viewBox="0 0 576 512"><path fill="currentColor" d="M80 256C80 141.1 173.1 48 288 48s208 93.1 208 208l0 96-8 0c-13.3 0-24 10.7-24 24 0 11.2 7.7 20.7 18.2 23.3l9.7 68c-7.1 4.2-11.9 11.9-11.9 20.7 0 13.3 10.7 24 24 24l32 0c13.3 0 24-10.7 24-24 0-8.8-4.8-16.6-11.9-20.7l9.7-68c10.4-2.6 18.2-12 18.2-23.3 0-13.3-10.7-24-24-24l-8 0 0-96C544 114.6 429.4 0 288 0S32 114.6 32 256 146.6 512 288 512c54.4 0 104.8-17 146.3-45.9l-27.5-39.4C373.2 450.2 332.2 464 288 464 173.1 464 80 370.9 80 256zm96 0a112 112 0 1 1 224 0 112 112 0 1 1 -224 0zm272 0a160 160 0 1 0 -320 0 160 160 0 1 0 320 0zM288 320a64 64 0 1 0 0-128 64 64 0 1 0 0 128z"/></svg>