<svg xmlns="http://www.w3.org/2000/svg" viewBox="0 0 576 512"><path fill="currentColor" d="M224 64c0-35.3 28.7-64 64-64L512 0c35.3 0 64 28.7 64 64l0 384c0 35.3-28.7 64-64 64L64 512c-35.3 0-64-28.7-64-64L0 160c0-35.3 28.7-64 64-64l160 0 0-32zM64 464l162 0c-1.3-5.1-2-10.5-2-16l0-304-160 0c-8.8 0-16 7.2-16 16l0 288c0 8.8 7.2 16 16 16zm288 0l0-80c0-17.7 14.3-32 32-32l32 0c17.7 0 32 14.3 32 32l0 80 64 0c8.8 0 16-7.2 16-16l0-384c0-8.8-7.2-16-16-16L288 48c-8.8 0-16 7.2-16 16l0 384c0 8.8 7.2 16 16 16l64 0zm24-344c0-8.8 7.2-16 16-16l16 0c8.8 0 16 7.2 16 16l0 32 32 0c8.8 0 16 7.2 16 16l0 16c0 8.8-7.2 16-16 16l-32 0 0 32c0 8.8-7.2 16-16 16l-16 0c-8.8 0-16-7.2-16-16l0-32-32 0c-8.8 0-16-7.2-16-16l0-16c0-8.8 7.2-16 16-16l32 0 0-32zM136 200l16 0c8.8 0 16 7.2 16 16l0 24 24 0c8.8 0 16 7.2 16 16l0 16c0 8.8-7.2 16-16 16l-24 0 0 24c0 8.8-7.2 16-16 16l-16 0c-8.8 0-16-7.2-16-16l0-24-24 0c-8.8 0-16-7.2-16-16l0-16c0-8.8 7.2-16 16-16l24 0 0-24c0-8.8 7.2-16 16-16z"/></svg>