<svg xmlns="http://www.w3.org/2000/svg" viewBox="0 0 512 512"><path fill="currentColor" d="M22.6 233.4C8.1 247.9 0 267.5 0 288s8.1 40.1 22.6 54.6l19.1 19.1c-16.5 30.4-12 69.2 13.7 94.8s64.5 30.3 94.8 13.7l19.1 19.1C183.9 503.9 203.5 512 224 512s40.1-8.1 54.6-22.6L489.4 278.6C503.9 264.1 512 244.5 512 224s-8.1-40.1-22.6-54.6l-19.1-19.1c16.5-30.4 12-69.2-13.7-94.8s-64.5-30.3-94.8-13.7L342.6 22.6C328.1 8.1 308.5 0 288 0s-40.1 8.1-54.6 22.6L22.6 233.4zm302.9-160L73.4 325.5 56.6 308.7C51.1 303.2 48 295.8 48 288s3.1-15.2 8.6-20.7L267.3 56.6c5.5-5.5 12.9-8.6 20.7-8.6s15.2 3.1 20.7 8.6l16.8 16.8zM438.6 186.5l16.8 16.8c5.5 5.5 8.6 12.9 8.6 20.7s-3.1 15.2-8.6 20.7L244.7 455.4c-5.5 5.5-12.9 8.6-20.7 8.6s-15.2-3.1-20.7-8.6l-16.8-16.8 252.1-252.1zm-16-97.1c12.5 12.5 12.5 32.8 0 45.3l-288 288c-12.5 12.5-32.8 12.5-45.3 0s-12.5-32.8 0-45.3l288-288c12.5-12.5 32.8-12.5 45.3 0z"/></svg>