<svg xmlns="http://www.w3.org/2000/svg" viewBox="0 0 576 512"><path fill="currentColor" d="M56 0C42.7 0 32 10.7 32 24S42.7 48 56 48l8 0 0 19c0 40.3 16 79 44.5 107.5l81.5 81.5-81.5 81.5C80 366 64 404.7 64 445l0 19-8 0c-13.3 0-24 10.7-24 24s10.7 24 24 24l220 0c-10.5-14.6-19-30.7-25.1-48l-138.9 0 0-19c0-27.6 11-54 30.5-73.5l81.5-81.5 32.4 32.4c6.7-15.2 15.4-29.4 25.7-42.2l-24.1-24.1 81.5-81.5C368 146 384 107.3 384 67l0-19 8 0c13.3 0 24-10.7 24-24S405.3 0 392 0L56 0zM224 222.1l-81.5-81.5C123 121 112 94.6 112 67l0-19 224 0 0 19c0 27.6-11 54-30.5 73.5L224 222.1zM576 400a144 144 0 1 0 -288 0 144 144 0 1 0 288 0zM432 320c8.8 0 16 7.2 16 16l0 48 32 0c8.8 0 16 7.2 16 16s-7.2 16-16 16l-48 0c-8.8 0-16-7.2-16-16l0-64c0-8.8 7.2-16 16-16z"/></svg>