<svg xmlns="http://www.w3.org/2000/svg" viewBox="0 0 384 512"><path fill="currentColor" d="M0 24C0 10.7 10.7 0 24 0L360 0c13.3 0 24 10.7 24 24s-10.7 24-24 24l-8 0 0 19c0 40.3-16 79-44.5 107.5l-81.5 81.5 81.5 81.5C336 366 352 404.7 352 445l0 19 8 0c13.3 0 24 10.7 24 24s-10.7 24-24 24L24 512c-13.3 0-24-10.7-24-24s10.7-24 24-24l8 0 0-19c0-40.3 16-79 44.5-107.5l81.5-81.5-81.5-81.5C48 146 32 107.3 32 67l0-19-8 0C10.7 48 0 37.3 0 24zM129.9 352l124.1 0-62.1-62.1-62.1 62.1zM90.2 400C83.6 413.9 80 429.3 80 445l0 19 224 0 0-19c0-15.7-3.6-31.1-10.2-45L90.2 400zM273.5 140.5C293 121 304 94.6 304 67l0-19-224 0 0 19c0 27.6 11 54 30.5 73.5l81.5 81.5 81.5-81.5z"/></svg>