<svg xmlns="http://www.w3.org/2000/svg" viewBox="0 0 576 512"><path fill="currentColor" d="M312 48l32 0 0 40c0 13.3 10.7 24 24 24s24-10.7 24-24l0-40 48 0 0 40c0 13.3 10.7 24 24 24s24-10.7 24-24l0-40 32 0c4.4 0 8 3.6 8 8l0 384c0 13.3-10.7 24-24 24l-73.1 0c-2.5 17.7-9.2 34-18.9 48l92.1 0c39.8 0 72-32.2 72-72l0-384c0-30.9-25.1-56-56-56L312 0c-30.9 0-56 25.1-56 56l0 10.3 48 41.7 0-52.1c0-4.4 3.6-8 8-8zm-88.2 53.9c-9-7.9-22.5-7.9-31.5 0l-184 160c-10 8.7-11.1 23.9-2.4 33.9 6.7 7.7 17.1 10.1 26.1 6.9L32 448c0 35.3 28.7 64 64 64l224 0c35.3 0 64-28.7 64-64l0-145.4c9 3.2 19.5 .8 26.1-6.9 8.7-10 7.6-25.2-2.4-33.9l-184-160zM336 263.1L336 448c0 8.8-7.2 16-16 16L96 464c-8.8 0-16-7.2-16-16l0-184.9 128-111.3 128 111.3zM160 296l0 48c0 13.3 10.7 24 24 24l48 0c13.3 0 24-10.7 24-24l0-48c0-13.3-10.7-24-24-24l-48 0c-13.3 0-24 10.7-24 24z"/></svg>