<svg xmlns="http://www.w3.org/2000/svg" viewBox="0 0 576 512"><path fill="currentColor" d="M287.4-9.3c9.3-8.9 24-8.9 33.3 0l216 208c9.5 9.2 9.8 24.4 .6 33.9s-24.4 9.8-33.9 .6l-7.4-7.1 0 157.8c0 35.3-28.7 64-64 64l-137 0c-4.4-16.7-10.2-32.7-17.4-48L432 400c8.8 0 16-7.2 16-16l0-204-144-138.7-199.4 192c-9.5 9.2-24.7 8.9-33.9-.6s-8.9-24.7 .6-33.9l216-208zM256 216c0-13.3 10.7-24 24-24l48 0c13.3 0 24 10.7 24 24l0 48c0 13.3-10.7 24-24 24l-48 0c-13.3 0-24-10.7-24-24l0-48zM24 288c128.1 0 232 103.9 232 232 0 13.3-10.7 24-24 24s-24-10.7-24-24c0-101.6-82.4-184-184-184-13.3 0-24-10.7-24-24s10.7-24 24-24zm8 192a32 32 0 1 1 0 64 32 32 0 1 1 0-64zM0 408c0-13.3 10.7-24 24-24 75.1 0 136 60.9 136 136 0 13.3-10.7 24-24 24s-24-10.7-24-24c0-48.6-39.4-88-88-88-13.3 0-24-10.7-24-24z"/></svg>