<svg xmlns="http://www.w3.org/2000/svg" viewBox="0 0 640 512"><path fill="currentColor" d="M272 6.1c9.1-8.2 22.9-8.2 32 0L497.5 179.6c-18.4 4.5-35.2 13-49.6 24.4l0-4.4-160-143.4-160 143.4 0 248.3c0 8.8 7.2 16 16 16l48 0 0-104c0-39.8 32.2-72 72-72l48 0c35.8 0 65.5 26.1 71.1 60.3-9.5 14.9-15 32.6-15 51.6l0 96c0 5.5 .5 10.9 1.3 16.1L144 512c-35.3 0-64-28.7-64-64l0-205.3-8 7.2c-9.9 8.8-25 8-33.9-1.8s-8-25 1.8-33.9L272 6.1zM240 464l96 0 0-104c0-13.3-10.7-24-24-24l-48 0c-13.3 0-24 10.7-24 24l0 104zM560 304.1c0-17.7-14.3-32-32-32s-32 14.3-32 32l0 47.9 64 0 0-47.9zM416 400c0-20.9 13.4-38.7 32-45.3l0-50.6c0-44.2 35.8-80 80-80s80 35.8 80 80l0 50.6c18.6 6.6 32 24.4 32 45.3l0 96c0 26.5-21.5 48-48 48l-128 0c-26.5 0-48-21.5-48-48l0-96z"/></svg>