<svg xmlns="http://www.w3.org/2000/svg" viewBox="0 0 512 512"><path fill="currentColor" d="M240 6.1c9.1-8.2 22.9-8.2 32 0l232 208c9.9 8.8 10.7 24 1.8 33.9s-24 10.7-33.9 1.8l-8-7.2 0 205.3c0 35.3-28.7 64-64 64l-288 0c-35.3 0-64-28.7-64-64l0-205.3-8 7.2c-9.9 8.8-25 8-33.9-1.8s-8-25 1.8-33.9L240 6.1zm16 50.1L96 199.7 96 448c0 8.8 7.2 16 16 16l288 0c8.8 0 16-7.2 16-16l0-248.3-160-143.4zM224 320l64 0 0-64-64 0 0 64zm-48-72c0-22.1 17.9-40 40-40l80 0c22.1 0 40 17.9 40 40l0 80c0 22.1-17.9 40-40 40l-80 0c-22.1 0-40-17.9-40-40l0-80z"/></svg>