<svg xmlns="http://www.w3.org/2000/svg" viewBox="0 0 640 512"><path fill="currentColor" d="M328 24a56 56 0 1 1 112 0 56 56 0 1 1 -112 0zm24 138.2l0 107.6c0 13.4 6.7 25.9 17.8 33.3L392 317.8 392 163c-7-2-14.2-3-21.6-3-6.3 0-12.4 .7-18.4 2.2zm-48 31.7l-20.3 20.3c-7.5 7.5-11.7 17.7-11.7 28.3l0 53.5c0 13.3-10.7 24-24 24s-24-10.7-24-24l0-53.5c0-23.3 9.3-45.7 25.8-62.2L281 149c23.7-23.7 55.8-37 89.4-37 35.8 0 70 15.2 93.9 41.8l22.4 24.9c7.6 8.4 18.4 13.2 29.7 13.2l35.5 0c13.3 0 24 10.7 24 24s-10.7 24-24 24l-35.5 0c-24.9 0-48.7-10.6-65.4-29.1l-11.1-12.3 0 151.3 21.2 14.1c21.1 14 35.1 36.5 38.4 61.6l12.2 91.3c1.8 13.1-7.5 25.2-20.6 27s-25.2-7.5-27-20.6L452 431.9c-1.5-11.4-7.9-21.6-17.5-28L343.2 343c-24.5-16.3-39.2-43.8-39.2-73.2l0-75.8zm19.7 193.7l41.9 28-2 7c-4.1 14.4-11.8 27.5-22.4 38L265 537c-9.4 9.4-24.6 9.4-33.9 0s-9.4-24.6 0-33.9l76.3-76.3c4.8-4.8 8.3-10.8 10.2-17.3l6.2-21.8zM207.9 14.1l79.7 70.8c-14.3 7.7-27.7 17.5-39.5 29.1L191.6 63.8 96 145.1 96 296c0 4.4 3.6 8 8 8l72.4 0c2.1 19.3 11.9 36.4 26.3 48L104 352c-30.9 0-56-25.1-56-56l0-110.1-.5 .4c-10.1 8.6-25.2 7.4-33.8-2.7s-7.4-25.2 2.7-33.8l160-136c9.1-7.7 22.5-7.6 31.5 .3z"/></svg>