<svg xmlns="http://www.w3.org/2000/svg" viewBox="0 0 640 512"><path fill="currentColor" d="M496 24l0 8 112 0c17.7 0 32 14.3 32 32l0 96c0 17.7-14.3 32-32 32l-112 0 0 296c0 13.3-10.7 24-24 24s-24-10.7-24-24l0-464c0-13.3 10.7-24 24-24s24 10.7 24 24zM256.6 54.7l143.4 138 0 66.6-160-154.1-144 138.7 0 204c0 8.8 7.2 16 16 16l288 0 0 48-288 0c-35.3 0-64-28.7-64-64l0-157.8-7.4 7.1c-9.5 9.2-24.7 8.9-33.9-.6s-8.9-24.7 .6-33.9l216-208c9.3-8.9 24-8.9 33.3 0zM209.2 249.6c0-9.7 7.9-17.6 17.6-17.6l26.4 0c9.7 0 17.6 7.9 17.6 17.6l0 39.6 39.6 0c9.7 0 17.6 7.9 17.6 17.6l0 26.4c0 9.7-7.9 17.6-17.6 17.6l-39.6 0 0 39.6c0 9.7-7.9 17.6-17.6 17.6l-26.4 0c-9.7 0-17.6-7.9-17.6-17.6l0-39.6-39.6 0c-9.7 0-17.6-7.9-17.6-17.6l0-26.4c0-9.7 7.9-17.6 17.6-17.6l39.6 0 0-39.6z"/></svg>