<svg xmlns="http://www.w3.org/2000/svg" viewBox="0 0 640 512"><path fill="currentColor" d="M192 16c8.2 0 16.3 .9 24 2.6L216-32c0-13.3-10.7-24-24-24s-24 10.7-24 24l0 50.6c7.7-1.7 15.8-2.6 24-2.6zm60.4 17.7C266 42.4 277.6 54 286.3 67.6l35.8-35.8c9.4-9.4 9.4-24.6 0-33.9s-24.6-9.4-33.9 0L252.4 33.7zM172.7 193.9L258.7 111c-8.4-27.2-33.8-47-63.8-47-36.9 0-66.8 29.9-66.8 66.8 0 29.2 18.7 54 44.7 63.1zm-41.1 28.4c-13.6-8.7-25.2-20.3-33.9-33.9L61.9 224.2c-9.4 9.4-9.4 24.6 0 33.9s24.6 9.4 33.9 0l35.8-35.8zM80 128c0-8.2 .9-16.3 2.6-24L32 104c-13.3 0-24 10.7-24 24s10.7 24 24 24l50.6 0c-1.7-7.7-2.6-15.8-2.6-24zM97.7 67.6C106.4 54 118 42.4 131.6 33.7L95.8-2.1c-9.4-9.4-24.6-9.4-33.9 0s-9.4 24.6 0 33.9L97.7 67.6zm287 19.1c-9.3-8.9-24-8.9-33.3 0l-216 208c-9.5 9.2-9.8 24.4-.6 33.9s24.4 9.8 33.9 .6l7.4-7.1 0 157.8c0 35.3 28.7 64 64 64l256 0c35.3 0 64-28.7 64-64l0-157.8 7.4 7.1c9.5 9.2 24.7 8.9 33.9-.6s8.9-24.7-.6-33.9l-216-208zM512 276l0 204c0 8.8-7.2 16-16 16l-256 0c-8.8 0-16-7.2-16-16L224 276 368 137.3 512 276zM320 312l0 48c0 13.3 10.7 24 24 24l48 0c13.3 0 24-10.7 24-24l0-48c0-13.3-10.7-24-24-24l-48 0c-13.3 0-24 10.7-24 24z"/></svg>