<svg xmlns="http://www.w3.org/2000/svg" viewBox="0 0 640 512"><path fill="currentColor" d="M472 0c-13.3 0-24 10.7-24 24l0 464c0 13.3 10.7 24 24 24s24-10.7 24-24l0-296 112 0c17.7 0 32-14.3 32-32l0-96c0-17.7-14.3-32-32-32l-112 0 0-8c0-13.3-10.7-24-24-24zM400 192.8L256.6 54.7c-9.3-8.9-24-8.9-33.3 0l-216 208c-9.5 9.2-9.8 24.4-.6 33.9s24.4 9.8 33.9 .6L48 290.2 48 448c0 35.3 28.7 64 64 64l288 0 0-48-288 0c-8.8 0-16-7.2-16-16l0-204 144-138.7 160 154.1 0-66.6zM216 256c-13.3 0-24 10.7-24 24l0 48c0 13.3 10.7 24 24 24l48 0c13.3 0 24-10.7 24-24l0-48c0-13.3-10.7-24-24-24l-48 0z"/></svg>