<svg xmlns="http://www.w3.org/2000/svg" viewBox="0 0 640 512"><path fill="currentColor" d="M416.3-24c6.7 .1 13.1 3 17.5 8l133 148.7c5.8 6.5 9.1 15 9.1 23.7 0 19.6-15.9 35.6-35.6 35.6l-13.5 0 74.2 102.8c4.4 6.2 6.8 13.5 6.8 21.1 0 19.9-16.2 36.1-36.1 36.1l-24.7 0 84.5 101.4c5.4 6.4 8.3 14.5 8.3 22.9 0 19.7-16 35.7-35.7 35.7l-160.3 0c9.8-14 16.4-30.3 18.9-48l115.2 0-100.5-120.6c-2.5-3-4.2-6.5-5-10.2 2-1.8 3.9-3.8 5.8-5.9 6-6.9 10.5-14.7 13.4-22.9 1.4-.2 2.8-.4 4.2-.4l52.6 0-88.1-121.9c-5.3-7.3-6-17-1.9-25S471 144 480 144l32.6 0-97.1-108.6-73.6 77.7-36.3-31.5 93-98.1c4.6-4.9 11.1-7.6 17.8-7.5zM255.7 101.9l184 160c10 8.7 11.1 23.9 2.4 33.9-6.7 7.7-17.1 10.1-26.1 6.9L416 448c0 35.3-28.7 64-64 64l-224 0c-35.3 0-64-28.7-64-64l0-145.4c-9 3.2-19.5 .8-26.1-6.9-8.7-10-7.6-25.2 2.4-33.9l184-160c9-7.9 22.5-7.9 31.5 0zM368 263.1L240 151.8 112 263.1 112 448c0 8.8 7.2 16 16 16l224 0c8.8 0 16-7.2 16-16l0-184.9zM192 296c0-13.3 10.7-24 24-24l48 0c13.3 0 24 10.7 24 24l0 48c0 13.3-10.7 24-24 24l-48 0c-13.3 0-24-10.7-24-24l0-48z"/></svg>