<svg xmlns="http://www.w3.org/2000/svg" viewBox="0 0 640 512"><path fill="currentColor" d="M125.2-15.9c6.2-4.4 5.4-14.8-2.2-15.6-3.6-.4-7.3-.5-11-.5-61.9 0-112 50.1-112 112S50.1 192 112 192c32.1 0 61.1-13.5 81.5-35.2 5.2-5.6-1-14-8.6-13.2-2.9 .3-5.9 .4-9 .4-48.6 0-88-39.4-88-88 0-29.7 14.7-55.9 37.2-71.9zM384.6 86.7c-9.3-8.9-24-8.9-33.3 0l-216 208c-9.5 9.2-9.8 24.4-.6 33.9s24.4 9.8 33.9 .6l7.4-7.1 0 157.8c0 35.3 28.7 64 64 64l256 0c35.3 0 64-28.7 64-64l0-157.8 7.4 7.1c9.5 9.2 24.7 8.9 33.9-.6s8.9-24.7-.6-33.9l-216-208zM512 276l0 204c0 8.8-7.2 16-16 16l-256 0c-8.8 0-16-7.2-16-16L224 276 368 137.3 512 276zM320 312l0 48c0 13.3 10.7 24 24 24l48 0c13.3 0 24-10.7 24-24l0-48c0-13.3-10.7-24-24-24l-48 0c-13.3 0-24 10.7-24 24zM520 72L487.4 85c-4.5 1.8-7.4 6.1-7.4 11s2.9 9.2 7.4 11l32.6 13 13 32.6c1.8 4.5 6.1 7.4 11 7.4s9.2-2.9 11-7.4l13-32.6 32.6-13c4.5-1.8 7.4-6.1 7.4-11s-2.9-9.2-7.4-11L568 72 555 39.4c-1.8-4.5-6.1-7.4-11-7.4s-9.2 2.9-11 7.4L520 72zM245-24.6L232 8 199.4 21c-4.5 1.8-7.4 6.1-7.4 11s2.9 9.2 7.4 11L232 56 245 88.6c1.8 4.5 6.1 7.4 11 7.4s9.2-2.9 11-7.4L280 56 312.6 43c4.5-1.8 7.4-6.1 7.4-11s-2.9-9.2-7.4-11L280 8 267-24.6c-1.8-4.5-6.1-7.4-11-7.4s-9.2 2.9-11 7.4z"/></svg>