<svg xmlns="http://www.w3.org/2000/svg" viewBox="0 0 640 512"><path fill="currentColor" d="M303.4 22.7c9.3-8.9 24-8.9 33.3 0l216 208c9.5 9.2 9.8 24.4 .6 33.9s-24.4 9.8-33.9 .6l-7.4-7.1 0 108.2c-15.4-7.1-31.6-11.6-48-13.4l0-141-144-138.7-144 138.7 0 143.6c-16.7 3.7-32.9 10.1-48 19.4l0-116.8-7.4 7.1c-9.5 9.2-24.7 8.9-33.9-.6s-8.9-24.7 .6-33.9l216-208zM296 224l48 0c13.3 0 24 10.7 24 24l0 48c0 13.3-10.7 24-24 24l-48 0c-13.3 0-24-10.7-24-24l0-48c0-13.3 10.7-24 24-24zM403.4 476.1C379.1 494.3 351.1 512 320 512s-59.1-17.7-83.4-35.9c-21.3-16.1-49.9-16.1-71.2 0-23.8 17.9-54.1 35.5-88.1 35.3-20.4-.1-40.7-6.7-59.8-21.1-10.6-8-12.7-23-4.7-33.6s23-12.7 33.6-4.7c11.3 8.5 21.6 11.4 31.2 11.5 17.6 .1 37.3-9.4 58.9-25.7 38.4-29 90.5-29 129 0 24 18.1 40.7 26.3 54.5 26.3s30.5-8.2 54.5-26.3c38.4-29 90.5-29 129 0 16.9 12.7 32.9 21.5 47.8 24.6 13.7 2.8 27.4 .9 42.3-10.3 10.6-8 25.6-5.9 33.6 4.7s5.9 25.6-4.7 33.6c-26.4 19.9-54.2 24.4-80.7 19.1-25.3-5.1-48.1-18.9-67.2-33.3-21.3-16.1-49.9-16.1-71.2 0z"/></svg>