<svg xmlns="http://www.w3.org/2000/svg" viewBox="0 0 640 512"><path fill="currentColor" d="M576 48L352 48c-8.8 0-16 7.2-16 16l0 71.9-48-41.7 0-30.2c0-35.3 28.7-64 64-64L576 0c35.3 0 64 28.7 64 64l0 384c0 35.3-28.7 64-64 64l-164.1 0c9.8-14 16.4-30.3 18.9-48L576 464c8.8 0 16-7.2 16-16l0-384c0-8.8-7.2-16-16-16zm-96 64c0-8.8 7.2-16 16-16l32 0c8.8 0 16 7.2 16 16l0 32c0 8.8-7.2 16-16 16l-32 0c-8.8 0-16-7.2-16-16l0-32zm16 80l32 0c8.8 0 16 7.2 16 16l0 32c0 8.8-7.2 16-16 16l-32 0c-8.8 0-16-7.2-16-16l0-32c0-8.8 7.2-16 16-16zM480 304c0-8.8 7.2-16 16-16l32 0c8.8 0 16 7.2 16 16l0 32c0 8.8-7.2 16-16 16l-32 0c-8.8 0-16-7.2-16-16l0-32zM400 96l32 0c8.8 0 16 7.2 16 16l0 32c0 8.8-7.2 16-16 16l-32 0c-8.8 0-16-7.2-16-16l0-32c0-8.8 7.2-16 16-16zm-176.3 5.9l184 160c10 8.7 11.1 23.9 2.4 33.9-6.7 7.7-17.1 10.1-26.1 6.9L384 448c0 35.3-28.7 64-64 64L96 512c-35.3 0-64-28.7-64-64l0-145.4c-9 3.2-19.5 .8-26.1-6.9-8.7-10-7.6-25.2 2.4-33.9l184-160c9-7.9 22.5-7.9 31.5 0zM336 263.1L208 151.8 80 263.1 80 448c0 8.8 7.2 16 16 16l224 0c8.8 0 16-7.2 16-16l0-184.9zM160 296c0-13.3 10.7-24 24-24l48 0c13.3 0 24 10.7 24 24l0 48c0 13.3-10.7 24-24 24l-48 0c-13.3 0-24-10.7-24-24l0-48z"/></svg>