<svg xmlns="http://www.w3.org/2000/svg" viewBox="0 0 640 512"><path fill="currentColor" d="M272 6.1c9.1-8.2 22.9-8.2 32 0L460.3 146.2c-19.6-5.4-41.3-1.1-57.5 12.9L288 56.2 128 199.7 128 448c0 8.8 7.2 16 16 16l48 0 0-104c0-39.8 32.2-72 72-72l35.2 0c-8.1 15.3-15.1 31.5-19.9 48L264 336c-13.3 0-24 10.7-24 24l0 104 48.6 0c7.3 17.2 16.8 33.4 28.2 48L144 512c-35.3 0-64-28.7-64-64l0-205.3-8 7.2c-9.9 8.8-25 8-33.9-1.8s-8-25 1.8-33.9L272 6.1zM505.7 240.3L518 226.5c5.4-6.1 13.3-8.8 20.9-8.9 7.2 0 14.3 2.6 19.9 7.8 19.7 18.3 39.8 43.2 55 70.6 15.1 27.2 26.2 58.1 26.2 88.1 0 88.7-71.3 159.8-160 159.8-89.6 0-160-71.3-160-159.8 0-37.3 16-73.4 36.8-104.5 20.9-31.3 47.5-59 70.9-80.2 5.7-5.2 13.1-7.7 20.3-7.5 14.1 .3 23.8 11.4 32.7 21.6l0 0c2 2.3 4 4.6 6 6.7l19 19.9zM544 432.2c0-36.5-37-73-54.8-88.4-5.4-4.7-13.1-4.7-18.5 0-17.7 15.4-54.8 51.9-54.8 88.4 0 35.3 28.7 64 64 64s64-28.7 64-64z"/></svg>