<svg xmlns="http://www.w3.org/2000/svg" viewBox="0 0 512 512"><path fill="currentColor" d="M240 6.1c9.1-8.2 22.9-8.2 32 0l232 208c9.9 8.8 10.7 24 1.8 33.9s-24 10.7-33.9 1.8l-8-7.2 0 205.3c0 35.3-28.7 64-64 64l-288 0c-35.3 0-64-28.7-64-64l0-205.3-8 7.2c-9.9 8.8-25 8-33.9-1.8s-8-25 1.8-33.9L240 6.1zm16 50.1L96 199.7 96 448c0 8.8 7.2 16 16 16l288 0c8.8 0 16-7.2 16-16l0-248.3-160-143.4zm-9.1 198.7l9.1 9.1 9.1-9.1c9.5-9.5 22.5-14.9 36-14.9l2.9 0c26.5 0 48 21.5 48 48 0 53.4-66.9 95.7-89 108.2-4.4 2.5-9.6 2.5-14 0-22.1-12.5-89-54.8-89-108.2 0-26.5 21.5-48 48-48l2.9 0c13.5 0 26.5 5.4 36 14.9z"/></svg>