<svg xmlns="http://www.w3.org/2000/svg" viewBox="0 0 512 512"><path fill="currentColor" d="M272 6.1c-9.1-8.2-22.9-8.2-32 0L8 214.1c-9.9 8.8-10.7 24-1.8 33.9s24 10.7 33.9 1.8l8-7.2 0 205.3c0 35.3 28.7 64 64 64l288 0c35.3 0 64-28.7 64-64l0-205.3 8 7.2c9.9 8.8 25 8 33.9-1.8s8-25-1.8-33.9l-40-35.9 0-90.2c0-13.3-10.7-24-24-24s-24 10.7-24 24l0 47.2-144-129.1zM416 199.7L416 448c0 8.8-7.2 16-16 16l-288 0c-8.8 0-16-7.2-16-16L96 199.7 256 56.2 416 199.7zM224 216l0 40-40 0c-8.8 0-16 7.2-16 16l0 32c0 8.8 7.2 16 16 16l40 0 0 40c0 8.8 7.2 16 16 16l32 0c8.8 0 16-7.2 16-16l0-40 40 0c8.8 0 16-7.2 16-16l0-32c0-8.8-7.2-16-16-16l-40 0 0-40c0-8.8-7.2-16-16-16l-32 0c-8.8 0-16 7.2-16 16z"/></svg>