<svg xmlns="http://www.w3.org/2000/svg" viewBox="0 0 640 512"><path fill="currentColor" d="M360 24a56 56 0 1 0 112 0 56 56 0 1 0 -112 0zm88 138.2l0 107.6c0 13.4-6.7 25.9-17.8 33.3L408 317.8 408 163c7-2 14.2-3 21.6-3 6.3 0 12.4 .7 18.4 2.2zm48 31.7l20.3 20.3c7.5 7.5 11.7 17.7 11.7 28.3l0 53.5c0 13.3 10.7 24 24 24s24-10.7 24-24l0-53.5c0-23.3-9.3-45.7-25.8-62.2L519 149c-23.7-23.7-55.8-37-89.4-37-35.8 0-70 15.2-93.9 41.8l-22.4 24.9c-7.6 8.4-18.4 13.2-29.7 13.2L248 192c-13.3 0-24 10.7-24 24s10.7 24 24 24l35.5 0c24.9 0 48.7-10.6 65.4-29.1l11.1-12.3 0 151.3-21.2 14.1c-21.1 14-35.1 36.5-38.4 61.6l-12.2 91.3c-1.8 13.1 7.5 25.2 20.6 27s25.2-7.5 27-20.6L348 431.9c1.5-11.4 7.9-21.6 17.5-28L456.8 343c24.5-16.3 39.2-43.8 39.2-73.2l0-75.8zM476.3 387.7l-41.9 28 2 7c4.1 14.4 11.8 27.5 22.4 38L535 537c9.4 9.4 24.6 9.4 33.9 0s9.4-24.6 0-33.9l-76.3-76.3c-4.8-4.8-8.3-10.8-10.2-17.3l-6.2-21.8zM207.9 14.1c-8.9-7.9-22.4-8.1-31.5-.3l-160 136c-10.1 8.6-11.3 23.7-2.7 33.8s23.7 11.3 33.8 2.7l.5-.4 0 110.1c0 30.9 25.1 56 56 56l160 0c30.9 0 56-25.1 56-56l0-13c-11.8 3.3-24 5-36.5 5l-11.5 0 0 8c0 4.4-3.6 8-8 8l-160 0c-4.4 0-8-3.6-8-8l0-150.9 95.6-81.3 89.1 79.2 19.2-21.3c4.3-4.8 8.9-9.4 13.7-13.6l-105.8-94z"/></svg>