<svg xmlns="http://www.w3.org/2000/svg" viewBox="0 0 640 512"><path fill="currentColor" d="M304 6.1c-9.1-8.2-22.9-8.2-32 0L40 214.1c-9.9 8.8-10.7 24-1.8 33.9s24 10.7 33.9 1.8l8-7.2 0 205.3c0 35.3 28.7 64 64 64l196 0c-10.5-14.6-19-30.7-25.1-48L144 464c-8.8 0-16-7.2-16-16l0-248.3 160-143.4 172.9 155c11.4-2.1 23.1-3.2 35.1-3.2 12.7 0 25.2 1.2 37.2 3.6L304 6.1zm1.5 369.8c5.8-46.7 28.5-88.2 61.6-118.3-2.1-1.1-4.6-1.7-7.1-1.7l-40 0 0-40c0-8.8-7.2-16-16-16l-32 0c-8.8 0-16 7.2-16 16l0 40-40 0c-8.8 0-16 7.2-16 16l0 32c0 8.8 7.2 16 16 16l40 0 0 40c0 8.8 7.2 16 16 16l32 0c.5 0 1 0 1.5-.1zM496 544a144 144 0 1 0 0-288 144 144 0 1 0 0 288zm0-100a20 20 0 1 1 0 40 20 20 0 1 1 0-40zm0-140c8.8 0 16 7.2 16 16l0 80c0 8.8-7.2 16-16 16s-16-7.2-16-16l0-80c0-8.8 7.2-16 16-16z"/></svg>