<svg xmlns="http://www.w3.org/2000/svg" viewBox="0 0 640 512"><path fill="currentColor" d="M272 6.1c9.1-8.2 22.9-8.2 32 0L533.2 211.6c-12-2.4-24.5-3.6-37.2-3.6-12 0-23.8 1.1-35.1 3.2L288 56.2 128 199.7 128 448c0 8.8 7.2 16 16 16l48 0 0-104c0-39.8 32.2-72 72-72l48 0c8.8 0 17.2 1.6 24.9 4.4-9.1 13.5-16.6 28.1-22.1 43.7-.9-.1-1.9-.2-2.9-.2l-48 0c-13.3 0-24 10.7-24 24l0 104 74.9 0c6.1 17.3 14.6 33.4 25.1 48l-196 0c-35.3 0-64-28.7-64-64l0-205.3-8 7.2c-9.9 8.8-25 8-33.9-1.8s-8-25 1.8-33.9L272 6.1zM496 256a144 144 0 1 1 0 288 144 144 0 1 1 0-288zm0 228a20 20 0 1 0 0-40 20 20 0 1 0 0 40zm0-180c-8.8 0-16 7.2-16 16l0 80c0 8.8 7.2 16 16 16s16-7.2 16-16l0-80c0-8.8-7.2-16-16-16z"/></svg>