<svg xmlns="http://www.w3.org/2000/svg" viewBox="0 0 384 512"><path fill="currentColor" d="M332 145.8c0-69.1-64.4-120.1-131.7-104.2L91.8 67.2c-12.9 3-20.9 16-17.8 28.9s16 20.9 28.9 17.8L211.3 88.3c37.1-8.8 72.7 19.4 72.7 57.5 0 18.1-8.3 35.1-22.2 46.2L24 192c-13.3 0-24 10.7-24 24 0 13.1 10.5 23.8 23.6 24l336.8 0c13.1-.2 23.6-10.9 23.6-24 0-13.3-10.7-24-24-24l-38.5 0c6.8-14.2 10.5-29.9 10.5-46.2zM217.8 272l-99.6 0 0 0-94.2 0c-13.3 0-24 10.7-24 24s10.7 24 24 24l40 0c-7.7 14.3-12 30.6-12 47.5 0 60.9 54 107.6 114.2 98.9l142.9-20.6c13.1-1.9 22.2-14.1 20.3-27.2s-14.1-22.2-27.2-20.3L159.3 418.9c-31.3 4.5-59.3-19.8-59.3-51.4 0-18.9 10.3-36.4 26.9-45.5l3.6-2 229.5 0c13.3 0 24-10.7 24-24s-10.7-24-24-24l-142.2 0 0 0z"/></svg>