<svg xmlns="http://www.w3.org/2000/svg" viewBox="0 0 384 512"><path fill="currentColor" d="M48 208C48 133.5 99 70.8 168 53l0 52.4c0 21.2 16 37.1 34.6 40.2 75.7 12.7 133.4 78.5 133.4 157.8 0 74.5-51 137.2-120 155l0-52.4c0-21.2-16-37.1-34.6-40.2-75.7-12.7-133.4-78.5-133.4-157.8zM216 42.1C216 19.4 195.9-1.3 170.4 3.4 73.5 21.1 0 105.9 0 208 0 309.2 72.3 393.5 168 412.2l0 57.1c0 22.7 20.1 43.4 45.6 38.7 96.9-17.7 170.4-102.6 170.4-204.6 0-101.2-72.3-185.5-168-204.2l0-57.1zM176 256a16 16 0 1 1 32 0 16 16 0 1 1 -32 0zm80 0a64 64 0 1 0 -128 0 64 64 0 1 0 128 0z"/></svg>