<svg xmlns="http://www.w3.org/2000/svg" viewBox="0 0 448 512"><path fill="currentColor" d="M112 160c0-61.9 50.1-112 112-112S336 98.1 336 160c0 2.8-.1 5.5-.3 8.2-.8 11.6 6.8 22.2 18.1 25 17.4 4.4 30.2 20.1 30.2 38.8 0 22.1-17.9 40-40 40l-240 0c-22.1 0-40-17.9-40-40 0-18.7 12.8-34.4 30.2-38.8 11.3-2.8 18.9-13.4 18.1-25-.2-2.7-.3-5.4-.3-8.2zM224 0C137.8 0 67.5 68.2 64.1 153.5 35.6 168.1 16 197.7 16 232 16 277.8 51 315.5 95.8 319.6l105 210.1c4.4 8.8 13.3 14.3 23.2 14.3s18.8-5.5 23.2-14.3l105-210.1C397 315.5 432 277.8 432 232 432 197.7 412.4 168.1 383.9 153.5 380.5 68.2 310.2 0 224 0z"/></svg>