<svg xmlns="http://www.w3.org/2000/svg" viewBox="0 0 576 512"><path fill="currentColor" d="M296 0c13.3 0 24 10.7 24 24l0 198.1 6.2 1.9 1.8 0 0 .5 77.9 23.4c44 13.2 74.1 53.7 74.1 99.6l0 20.5c0 26.5-21.5 48-48 48l0 48 72 0c13.3 0 24-10.7 24-24l0-8c0-13.3 10.7-24 24-24s24 10.7 24 24l0 8c0 39.8-32.2 72-72 72L24 512c-13.3 0-24-10.7-24-24s10.7-24 24-24l72 0 0-50.8c-18.6-6.6-32-24.3-32-45.2l0-272 .4-4.3c1.8-9.9 9.7-17.8 19.9-19.4L272 43.4 272 24c0-13.3 10.7-24 24-24zM144 464l240 0 0-48-240 0 0 48zM112 116.6l0 251.4 320 0 0-20.5c0-23.2-14.3-43.8-35.6-52.2l-4.3-1.5-73-21.9-103.1 0c-13.3 0-24-10.7-24-24s10.7-24 24-24l56 0 0-32-56 0c-13.3 0-24-10.7-24-24s10.7-24 24-24l56 0 0-52-160 24.6z"/></svg>