<svg xmlns="http://www.w3.org/2000/svg" viewBox="0 0 512 512"><path fill="currentColor" d="M5.2 9.1C9.7 3.4 16.7 0 24 0L488 0c6.9 0 13.5 3 18.1 8.2s6.6 12.2 5.7 19L448.9 483c-2.3 16.6-16.5 29-33.2 29-15.8 0-29.4-11-32.8-26.4l-50.3-229.1-11.2 38.2c-4.4 15-18.1 25.2-33.7 25.2-14.5 0-27.6-9-32.8-22.5l-9.4-24.6-20.2 84.9C221.5 373.1 207.8 384 192 384s-29.5-10.9-33.2-26.2l-20.2-84.9-9.5 24.8c-5.2 13.4-18.1 22.3-32.5 22.3-16.2 0-30.2-11.1-33.9-26.8L.6 29.5C-1 22.4 .6 14.8 5.2 9.1zM54.3 48l45.3 192.6 22-57.2c3.8-9.8 13.5-16 24-15.3s19.3 8.2 21.7 18.4L192 290 216.7 186.4c2.4-10.2 11.3-17.7 21.7-18.4s20.2 5.5 24 15.3L286 244.8 313 153.2c3.1-10.5 12.9-17.6 23.9-17.2s20.3 8.1 22.6 18.8l53 241.4 48-348.2-406.2 0z"/></svg>