<svg xmlns="http://www.w3.org/2000/svg" viewBox="0 0 512 512"><path fill="currentColor" d="M24 0L168 0c13.3 0 24 10.7 24 24s-10.7 24-24 24L24 48C10.7 48 0 37.3 0 24S10.7 0 24 0zm0 96l144 0c13.3 0 24 10.7 24 24s-10.7 24-24 24l-48 0 0 56c0 13.3-10.7 24-24 24s-24-10.7-24-24l0-56-48 0c-13.3 0-24-10.7-24-24S10.7 96 24 96zM503.2 5.5C508.8 10 512 16.8 512 24l0 152c0 26.5-28.7 48-64 48s-64-21.5-64-48 28.7-48 64-48c5.5 0 10.9 .5 16 1.5l0-76.2-112 22.4 0 132.3c0 26.5-28.7 48-64 48s-64-21.5-64-48 28.7-48 64-48c5.5 0 10.9 .5 16 1.5L304 56c0-11.4 8.1-21.3 19.3-23.5l160-32c7-1.4 14.4 .4 19.9 5zM505 295c9.4 9.4 9.4 24.6 0 33.9L329 505c-9.4 9.4-24.6 9.4-33.9 0s-9.4-24.6 0-33.9L471 295c9.4-9.4 24.6-9.4 33.9 0zm-185 9a32 32 0 1 1 0 64 32 32 0 1 1 0-64zM448 464a32 32 0 1 1 64 0 32 32 0 1 1 -64 0zM79.2 256l2.7 0c34.3 0 62.1 27.8 62.1 62.1 0 18.4-8.2 35.9-22.4 47.7l-8.2 6.8 32.8 31.1 36.8-36.8c9.4-9.4 24.6-9.4 33.9 0s9.4 24.6 0 33.9l-35.9 35.9 35.5 33.7c9.6 9.1 10 24.3 .9 33.9s-24.3 10-33.9 .9l-36.4-34.6-19.2 19.2c-14 14.1-33.1 21.9-53 21.9L73 512c-40.3 0-73-32.7-73-73 0-21.7 9.6-42.2 26.3-56.1l15-12.5-5.6-5.4C23.1 353.1 16 336.5 16 319.2 16 284.3 44.3 256 79.2 256zm11.7 73c3.2-2.7 5.1-6.7 5.1-10.9 0-7.8-6.3-14.1-14.1-14.1l-2.7 0c-8.4 0-15.2 6.8-15.2 15.2 0 4.2 1.7 8.1 4.7 11l9.7 9.2 12.5-10.4zM57 419.7c-5.7 4.8-9 11.8-9 19.2 0 13.8 11.2 25 25 25l1.9 0c7.1 0 14-2.8 19-7.9l18.3-18.3-35.9-34.1-19.3 16.1z"/></svg>