<svg xmlns="http://www.w3.org/2000/svg" viewBox="0 0 576 512"><path fill="currentColor" d="M528 416l0-48-128 0 0 64 112 0c8.8 0 16-7.2 16-16zM352 352c0-35.3-28.7-64-64-64s-64 28.7-64 64l0 80 128 0 0-80zM288 240c50.7 0 93.6 33.7 107.4 80l36.6 0 0-112-288 0 0 112 36.6 0c13.8-46.3 56.6-80 107.4-80zm192-32l0 112 48 0c0-40.5-10-78.6-27.7-112L480 208zM75.7 208C58 241.4 48 279.5 48 320l48 0 0-112-20.3 0zM320 82.1c-10.5-1.4-21.1-2.1-32-2.1-71.1 0-134.9 30.9-178.9 80l210.9 0 0-77.9zm48 11.5l0 66.3 98.9 0c-26.6-29.7-60.5-52.8-98.9-66.3zM48 368l0 48c0 8.8 7.2 16 16 16l112 0 0-64-128 0zM176 480L64 480c-35.3 0-64-28.7-64-64l0-96C0 160.9 128.9 32 288 32S576 160.9 576 320l0 96c0 35.3-28.7 64-64 64l-336 0z"/></svg>