<svg xmlns="http://www.w3.org/2000/svg" viewBox="0 0 576 512"><path fill="currentColor" d="M41-24.9c-9.4-9.4-24.6-9.4-33.9 0S-2.3-.3 7 9.1l528 528c9.4 9.4 24.6 9.4 33.9 0s9.4-24.6 0-33.9l-62.1-62.1c3.3-7.7 5.1-16.2 5.1-25.1l0-320c0-35.3-28.7-64-64-64L128 32c-8.9 0-17.4 1.8-25.1 5.1l-62-62zM145.8 80L448 80c8.8 0 16 7.2 16 16l0 302.2-32.6-32.6c1.4-5.9 .5-12.3-2.7-17.7l-80-136c-4.3-7.3-12.2-11.8-20.7-11.8s-16.4 4.5-20.7 11.8L296.3 230.5 145.8 80zM64 133.8L64 416c0 35.3 28.7 64 64 64l282.2 0-48-48-234.2 0c-8.8 0-16-7.2-16-16l0-234.2-48-48zM280 384l34.2 0-113.1-113.1-52.7 75.3c-5.1 7.3-5.8 16.9-1.6 24.8S159.1 384 168 384l112 0z"/></svg>