<svg xmlns="http://www.w3.org/2000/svg" viewBox="0 0 512 512"><path fill="currentColor" d="M96-8c0 13.3 10.7 24 24 24l272 0c13.3 0 24-10.7 24-24s-10.7-24-24-24L120-32C106.7-32 96-21.3 96-8zM48 88c0 13.3 10.7 24 24 24l368 0c13.3 0 24-10.7 24-24s-10.7-24-24-24L72 64C58.7 64 48 74.7 48 88zM448 208c8.8 0 16 7.2 16 16l0 192c0 8.8-7.2 16-16 16L64 432c-8.8 0-16-7.2-16-16l0-192c0-8.8 7.2-16 16-16l384 0zM64 160c-35.3 0-64 28.7-64 64L0 416c0 35.3 28.7 64 64 64l384 0c35.3 0 64-28.7 64-64l0-192c0-35.3-28.7-64-64-64L64 160zm48 144a32 32 0 1 0 0-64 32 32 0 1 0 0 64zm208-48c-7.6 0-14.7 3.6-19.2 9.6L260 320 243.2 297.6c-4.5-6-11.6-9.6-19.2-9.6s-14.7 3.6-19.2 9.6l-48 64c-5.5 7.3-6.3 17-2.3 25.1S166.9 400 176 400l216 0c9.1 0 17.4-5.1 21.5-13.3s3.2-17.9-2.3-25.1l-72-96c-4.5-6-11.6-9.6-19.2-9.6z"/></svg>