<svg xmlns="http://www.w3.org/2000/svg" viewBox="0 0 448 512"><path fill="currentColor" d="M225 32c7.6 0 14.8 3.6 19.3 9.8l66.4 89.8c6 8.1 9.3 18 9.3 28.1 0 10.9-3.8 21.5-10.7 29.9l-133.1 162.7 66.1 89.4c5.4 7.3 6.2 17 2.1 25.1S232 480 223 480L64 480c-35.3 0-64-28.7-64-64L0 96C0 60.7 28.7 32 64 32l161 0zm159 0c35.3 0 64 28.7 64 64l0 320c0 35.3-28.7 64-64 64l-93.2 0c5.5-15.6 5.4-32.6 0-48l93.2 0c8.8 0 16-7.2 16-16l0-320c0-8.8-7.2-16-16-16l-51.7 0-35.5-48 87.2 0zM64 80c-8.8 0-16 7.2-16 16l0 320c0 8.8 7.2 16 16 16l111.4 0-38.1-51.6c-6-8.1-9.2-18-9.2-28.1 0-10.9 3.8-21.5 10.7-29.9L271.8 159.7 213 80 64 80zM364.7 347.8c4.4 7.4 4.4 16.6 .2 24.1-4.3 7.5-12.2 12.1-20.8 12.1l-84.7 0-22.3-30.2 76.3-93.3 51.4 87.3zM128 192a32 32 0 1 1 0-64 32 32 0 1 1 0 64z"/></svg>