<svg xmlns="http://www.w3.org/2000/svg" viewBox="0 0 448 512"><path fill="currentColor" d="M48 384l352 0 0 32c0 8.8-7.2 16-16 16L64 432c-8.8 0-16-7.2-16-16l0-32zM400 96l0 240-352 0 0-240c0-8.8 7.2-16 16-16l320 0c8.8 0 16 7.2 16 16zm48 240l0-240c0-35.3-28.7-64-64-64L64 32C28.7 32 0 60.7 0 96L0 416c0 35.3 28.7 64 64 64l320 0c35.3 0 64-28.7 64-64l0-80zM277.2 256l-106.3 0 53.2-56.6 53.2 56.6zm-173.7 1.7c-4.8 5.1-7.5 11.8-7.5 18.8 0 15.2 12.3 27.5 27.5 27.5l201 0c15.2 0 27.5-12.3 27.5-27.5 0-7-2.7-13.7-7.5-18.8L247.3 154.1c-6-6.4-14.5-10.1-23.3-10.1s-17.3 3.7-23.3 10.1L103.5 257.7zM112 176a32 32 0 1 0 0-64 32 32 0 1 0 0 64z"/></svg>