<svg xmlns="http://www.w3.org/2000/svg" viewBox="0 0 576 512"><path fill="currentColor" d="M160 80c-8.8 0-16 7.2-16 16l0 256c0 8.8 7.2 16 16 16l48 0c0-44.2 35.8-80 80-80l64 0c44.2 0 80 35.8 80 80l48 0c8.8 0 16-7.2 16-16l0-256c0-8.8-7.2-16-16-16L160 80zM96 96c0-35.3 28.7-64 64-64l320 0c35.3 0 64 28.7 64 64l0 256c0 35.3-28.7 64-64 64l-320 0c-35.3 0-64-28.7-64-64L96 96zM48 152l0 296c0 8.8 7.2 16 16 16l360 0c13.3 0 24 10.7 24 24s-10.7 24-24 24L64 512c-35.3 0-64-28.7-64-64L0 152c0-13.3 10.7-24 24-24s24 10.7 24 24zm272-16a56 56 0 1 1 0 112 56 56 0 1 1 0-112z"/></svg>