<svg xmlns="http://www.w3.org/2000/svg" viewBox="0 0 640 512"><path fill="currentColor" d="M128 80l320 0c8.8 0 16 7.2 16 16l0 111.4 48-8.7 0-102.7c0-35.3-28.7-64-64-64L128 32C92.7 32 64 60.7 64 96l0 320c0 35.3 28.7 64 64 64l145.5 0c3.7-19.4 13.9-35.7 26.5-48l-172 0c-8.8 0-16-7.2-16-16l0-320c0-8.8 7.2-16 16-16zM348.7 211.8c-4.3-7.3-12.2-11.8-20.7-11.8s-16.4 4.5-20.7 11.8l-46.5 79-17.2-24.6c-4.5-6.4-11.8-10.2-19.7-10.2s-15.2 3.8-19.7 10.2l-56 80c-5.1 7.3-5.8 16.9-1.6 24.8S159.1 384 168 384l184 0 0-96.2c0-16.6 5.7-32.1 15.3-44.4l-18.6-31.6zM192 192a32 32 0 1 0 0-64 32 32 0 1 0 0 64zm432 63.9c0-7.1-3.2-13.9-8.6-18.4s-12.7-6.5-19.7-5.2l-176 32c-11.4 2.1-19.7 12-19.7 23.6l0 161.6c-5.9-1.1-11.4-1.6-16-1.6-9.5 0-22.9 2.1-34.9 7.5-11.1 5-29.1 17.2-29.1 40.5s18 35.4 29.1 40.5c11.9 5.4 25.4 7.5 34.9 7.5s22.9-2.1 34.9-7.5c11.1-5 29.1-17.2 29.1-40.5l0-139.9 128-23.3 0 84.9c-5.9-1.1-11.4-1.6-16-1.6-9.5 0-22.9 2.1-34.9 7.5-11.1 5-29.1 17.2-29.1 40.5s18 35.4 29.1 40.5c11.9 5.4 25.4 7.5 34.9 7.5s22.9-2.1 34.9-7.5c11.1-5 29.1-17.2 29.1-40.5l0-208z"/></svg>