<svg xmlns="http://www.w3.org/2000/svg" viewBox="0 0 512 512"><path fill="currentColor" d="M91.2 80c-8 0-14.8 6-15.9 14l-25 194 85.2 0c13.4 0 25.9 6.7 33.3 17.8l20.1 30.2 134.3 0 20.1-30.2c7.4-11.1 19.9-17.8 33.3-17.8l85.2 0-25-194c-1-8-7.8-14-15.9-14L91.2 80zM48 416c0 8.8 7.2 16 16 16l384 0c8.8 0 16-7.2 16-16l0-80-83.2 0-20.1 30.2c-7.4 11.1-19.9 17.8-33.3 17.8l-142.9 0c-13.4 0-25.9-6.7-33.3-17.8l-20.1-30.2-83.2 0 0 80zM27.7 87.8C31.8 55.9 59 32 91.2 32l329.7 0c32.2 0 59.4 23.9 63.5 55.8l27.5 213.1 .2 1.5 0 113.5c0 35.3-28.7 64-64 64L64 480c-35.3 0-64-28.7-64-64l0-113.5 .2-1.5 27.5-213.1zM152 128l208 0c13.3 0 24 10.7 24 24s-10.7 24-24 24l-208 0c-13.3 0-24-10.7-24-24s10.7-24 24-24zm0 80l208 0c13.3 0 24 10.7 24 24s-10.7 24-24 24l-208 0c-13.3 0-24-10.7-24-24s10.7-24 24-24z"/></svg>