<svg xmlns="http://www.w3.org/2000/svg" viewBox="0 0 512 512"><path fill="currentColor" d="M87.7 48c-7.4 0-13.9 5.1-15.6 12.3l-19.7 83.7 83 0c13.4 0 25.9 6.7 33.3 17.8l20.1 30.2 134.3 0 20.1-30.2c7.4-11.1 19.9-17.8 33.3-17.8l83 0-19.7-83.7c-1.7-7.2-8.2-12.3-15.6-12.3L87.7 48zM48 288l416 0 0-96-83.2 0-20.1 30.2c-7.4 11.1-19.9 17.8-33.3 17.8l-142.9 0c-13.4 0-25.9-6.7-33.3-17.8l-20.1-30.2-83.2 0 0 96zM0 288L0 164.6c0-4.9 .6-9.9 1.7-14.7L25.4 49.3C32.2 20.4 58 0 87.7 0L424.3 0c29.7 0 55.5 20.4 62.3 49.3L510.3 150c1.1 4.8 1.7 9.7 1.7 14.7L512 448c0 35.3-28.7 64-64 64L64 512c-35.3 0-64-28.7-64-64L0 288zm48 48l0 112c0 8.8 7.2 16 16 16l384 0c8.8 0 16-7.2 16-16l0-112-79.8 0-21.9 54.9C356.2 406 341.5 416 325.2 416l-138.3 0c-16.4 0-31.1-10-37.1-25.1L127.8 336 48 336zm131.4 0l12.8 32 127.5 0 12.8-32-153.1 0z"/></svg>