<svg xmlns="http://www.w3.org/2000/svg" viewBox="0 0 512 512"><path fill="currentColor" d="M75.3 94c1-8 7.8-14 15.9-14l329.7 0c8 0 14.8 6 15.9 14l25 194-85.2 0c-13.4 0-25.9 6.7-33.3 17.8l-20.1 30.2-134.3 0-20.1-30.2c-7.4-11.1-19.9-17.8-33.3-17.8l-85.2 0 25-194zM48 336l83.2 0 20.1 30.2c7.4 11.1 19.9 17.8 33.3 17.8l142.9 0c13.4 0 25.9-6.7 33.3-17.8l20.1-30.2 83.2 0 0 80c0 8.8-7.2 16-16 16L64 432c-8.8 0-16-7.2-16-16l0-80zM91.2 32C59 32 31.8 55.9 27.7 87.8L.2 300.9 0 302.5 0 416c0 35.3 28.7 64 64 64l384 0c35.3 0 64-28.7 64-64l0-113.5-.2-1.5-27.5-213.1C480.2 55.9 453 32 420.8 32L91.2 32z"/></svg>