<svg xmlns="http://www.w3.org/2000/svg" viewBox="0 0 512 512"><path fill="currentColor" d="M48 88c0-4.4 3.6-8 8-8l48 0c4.4 0 8 3.6 8 8l0 126.7c0 8.6 4.6 16.5 12 20.8s16.6 4.2 24-.1l139.9-81.6 0 70.9c0 8.8 4.8 16.8 12.5 21.1s17.1 3.9 24.5-.8l139.1-89 0 260.1c0 8.8-7.2 16-16 16L64 432c-8.8 0-16-7.2-16-16L48 88zm8-56C25.1 32 0 57.1 0 88L0 416c0 35.3 28.7 64 64 64l384 0c35.3 0 64-28.7 64-64l0-260.1c0-37.9-41.9-60.9-73.9-40.4l-102.1 65.4 0-27c0-37-40.2-60.1-72.2-41.5L160 172.9 160 88c0-30.9-25.1-56-56-56L56 32zM240 320c-8.8 0-16 7.2-16 16l0 32c0 8.8 7.2 16 16 16l32 0c8.8 0 16-7.2 16-16l0-32c0-8.8-7.2-16-16-16l-32 0zM96 336l0 32c0 8.8 7.2 16 16 16l32 0c8.8 0 16-7.2 16-16l0-32c0-8.8-7.2-16-16-16l-32 0c-8.8 0-16 7.2-16 16zm272-16c-8.8 0-16 7.2-16 16l0 32c0 8.8 7.2 16 16 16l32 0c8.8 0 16-7.2 16-16l0-32c0-8.8-7.2-16-16-16l-32 0z"/></svg>