<svg xmlns="http://www.w3.org/2000/svg" viewBox="0 0 640 512"><path fill="currentColor" d="M406.2 61.5c9.7-32.6 43.1-52 76.2-44.1l90.2 21.5c35.6 8.5 56.9 45 46.6 80.2L527.4 433.9c-8 27.3-33 46.1-61.4 46.1l-178 0c-35.3 0-64-28.7-64-64l0-128c0-35.3 28.7-64 64-64l70.1 0 48.1-162.5zm65.1 2.6c-8.3-2-16.6 2.9-19 11l-10.8 36.3 103.2 91.8 28.5-97.6c2.6-8.8-2.8-17.9-11.7-20L471.3 64.1zm58.6 190.1L426.4 162.3 399 254.8C396 265 386.6 272 376 272l-88 0c-8.8 0-16 7.2-16 16l0 128c0 8.8 7.2 16 16 16l178 0c7.1 0 13.4-4.7 15.4-11.5l48.5-166.3zM32 320a32 32 0 1 1 0 64 32 32 0 1 1 0-64zM64 448a32 32 0 1 1 -64 0 32 32 0 1 1 64 0zm64-176a32 32 0 1 1 0 64 32 32 0 1 1 0-64zM64 256a32 32 0 1 1 -64 0 32 32 0 1 1 64 0zm64 112a32 32 0 1 1 0 64 32 32 0 1 1 0-64z"/></svg>