<svg xmlns="http://www.w3.org/2000/svg" viewBox="0 0 576 512"><path fill="currentColor" d="M512 112c8.8 0 16 7.2 16 16l0 256c0 8.8-7.2 16-16 16L64 400c-8.8 0-16-7.2-16-16l0-256c0-8.8 7.2-16 16-16l448 0zM64 64C28.7 64 0 92.7 0 128L0 384c0 35.3 28.7 64 64 64l448 0c35.3 0 64-28.7 64-64l0-256c0-35.3-28.7-64-64-64L64 64zM96 224l0 104c0 13.3 10.7 24 24 24s24-10.7 24-24l0-24 32 0 0 24c0 13.3 10.7 24 24 24s24-10.7 24-24l0-104c0-35.3-28.7-64-64-64s-64 28.7-64 64zm80 32l-32 0 0-32c0-8.8 7.2-16 16-16s16 7.2 16 16l0 32zm96-72l0 144c0 13.3 10.7 24 24 24l52 0c33.1 0 60-26.9 60-60 0-16-6.3-30.5-16.5-41.3 5.4-9 8.5-19.5 8.5-30.7 0-33.1-26.9-60-60-60l-44 0c-13.3 0-24 10.7-24 24zm80 36c0 6.6-5.4 12-12 12l-20 0 0-24 20 0c6.6 0 12 5.4 12 12zm-32 84l0-24 28 0c6.6 0 12 5.4 12 12s-5.4 12-12 12l-28 0z"/></svg>