<svg xmlns="http://www.w3.org/2000/svg" viewBox="0 0 576 512"><path fill="currentColor" d="M512 112c8.8 0 16 7.2 16 16l0 256c0 8.8-7.2 16-16 16L64 400c-8.8 0-16-7.2-16-16l0-256c0-8.8 7.2-16 16-16l448 0zM64 64C28.7 64 0 92.7 0 128L0 384c0 35.3 28.7 64 64 64l448 0c35.3 0 64-28.7 64-64l0-256c0-35.3-28.7-64-64-64L64 64zm40 120c0 13.3 10.7 24 24 24l8 0 0 96-16 0c-13.3 0-24 10.7-24 24s10.7 24 24 24l80 0c13.3 0 24-10.7 24-24s-10.7-24-24-24l-16 0 0-120c0-13.3-10.7-24-24-24l-32 0c-13.3 0-24 10.7-24 24zm190.6 30.4c5.8-8 17.5-8.6 24-1.2 5.2 5.9 5 14.7-.3 20.5l-72 78c-6.5 7-8.2 17.2-4.3 25.9S254.5 352 264 352l88 0c13.3 0 24-10.7 24-24s-10.7-24-24-24l-33.2 0 34.8-37.7c22-23.8 22.4-60.3 1.1-84.7-26.9-30.7-75.4-28.4-99.2 4.9l-11.1 15.6c-7.7 10.8-5.2 25.8 5.6 33.5s25.8 5.2 33.5-5.6l11.1-15.6z"/></svg>