<svg xmlns="http://www.w3.org/2000/svg" viewBox="0 0 320 512"><path fill="currentColor" d="M160 48C98.1 48 48 98.1 48 160l0 8c0 13.3-10.7 24-24 24S0 181.3 0 168l0-8C0 71.6 71.6 0 160 0S320 71.6 320 160c0 69-43.6 127.7-104.7 150.2-20.2 7.5-31.2 21.6-31.3 33.7l0 16.2c0 13.3-10.7 24-24 24s-24-10.7-24-24l0-16 0-.3 0-191.7c0-13.3 10.7-24 24-24s24 10.7 24 24l0 119.8c4.9-2.7 9.9-4.9 14.7-6.7 42.8-15.8 73.3-56.9 73.3-105.1 0-61.9-50.1-112-112-112zm32 432c0 17.7-14.3 32-32 32s-32-14.3-32-32 14.3-32 32-32 32 14.3 32 32z"/></svg>