<svg xmlns="http://www.w3.org/2000/svg" viewBox="0 0 512 512"><path fill="currentColor" d="M190.5 0c58.3 0 94.9 25.5 113.4 53.2 19.9-12.6 46.5-21.2 80.3-21.2 77.4 0 116.6 44.8 125.8 80.2 2.2 8.6-5 15.8-13.8 15.8l-44.7 0c-2.1 0-4.2-.8-5.7-2.3l-24-24c-3.1-3.1-8.2-3.1-11.3 0l-24 24c-1.5 1.5-3.5 2.3-5.7 2.3l-61.3 0c3.5 15.4 7.2 35.7 9.5 59.7 4.4 45.4 3.6 104.4-14 167.2 57.8 12.4 101.1 63.7 101.1 125.2 0 17.7-14.3 32-32 32l-320 0-3.3-.2c-16.1-1.6-28.7-15.3-28.7-31.8 0-70.7 57.3-128 128-128L266 352c18.5-59.2 19.6-115.9 15.4-159.7-2.4-24.5-6.4-44.8-9.8-58.9L159.4 245.6c-6.2 6.2-16.5 6.2-20.9-1.4-18.5-31.6-22.5-91 32.2-145.7 1.4-1.4 2.8-2.7 4.2-4-.3-.2-.7-.5-1-.8l-24-24c-3.1-3.1-8.2-3.1-11.3 0l-24 24c-1.5 1.5-3.5 2.3-5.7 2.3L78.5 96C69.7 96 62.4 88.7 64.7 80.2 73.9 44.8 113.1 0 190.5 0zM160.3 400c-38.7 0-71 27.5-78.4 64l284.8 0c-7.4-36.5-39.7-64-78.4-64l-128 0z"/></svg>