<svg xmlns="http://www.w3.org/2000/svg" viewBox="0 0 512 512"><path fill="currentColor" d="M232.5 64l47 0 23.6 61.4C288.6 116.8 272.6 112 256 112s-32.6 4.8-47.1 13.4L232.5 64zM191.6 36.5l-31.4 81.6c-10.3-4-21.1-6.1-32.2-6.1-70.7 0-128 86-128 192S57.3 496 128 496c16.7 0 32.6-4.8 47.2-13.5 10.3-6.1 23.4-6.1 33.7 0 14.6 8.7 30.5 13.5 47.2 13.5s32.6-4.8 47.2-13.5c10.3-6.1 23.4-6.1 33.7 0 14.6 8.7 30.5 13.5 47.2 13.5 70.7 0 128-86 128-192S454.7 112 384 112c-11.1 0-21.9 2.1-32.2 6.1L320.4 36.5C315.6 24.2 303.7 16 290.5 16l-69 0c-13.2 0-25.1 8.2-29.9 20.5zM128 448c-14.3 0-33.1-8.7-50.6-34.9-17.2-25.8-29.4-64.3-29.4-109.1s12.2-83.3 29.4-109.1c17.4-26.2 36.3-34.9 50.6-34.9 7.2 0 14.7 2 22.6 6.7 25.4 15.1 57.3 15.1 82.7 0 7.9-4.7 15.5-6.7 22.6-6.7s14.7 2 22.6 6.7c25.4 15.1 57.3 15.1 82.7 0 7.9-4.7 15.5-6.7 22.6-6.7 14.3 0 33.1 8.7 50.6 34.9 17.2 25.8 29.4 64.3 29.4 109.1s-12.2 83.3-29.4 109.1c-17.4 26.2-36.3 34.9-50.6 34.9-7.2 0-14.7-2-22.6-6.7-25.4-15.1-57.3-15.1-82.7 0-7.9 4.7-15.5 6.7-22.6 6.7s-14.7-2-22.6-6.7c-25.4-15.1-57.3-15.1-82.7 0-7.9 4.7-15.5 6.7-22.6 6.7zm76.3-234.3c-2.4-3.6-6.4-5.7-10.7-5.7s-8.3 2.1-10.7 5.7l-25.6 38.4c-2.6 3.9-2.9 9-.6 13.1s6.6 6.8 11.3 6.8l51.2 0c4.7 0 9.1-2.6 11.3-6.8s2-9.2-.6-13.1l-25.6-38.4zM318.4 208c-4.3 0-8.3 2.1-10.6 5.7l-25.6 38.4c-2.6 3.9-2.9 9-.6 13.1s6.6 6.8 11.3 6.8l51.2 0c4.7 0 9.1-2.6 11.3-6.8s2-9.2-.6-13.1L329 213.7c-2.4-3.6-6.4-5.7-10.6-5.7zM140 304.6c-11.8-3-22.9 7-17.8 18 10.6 23.3 29.6 43.1 53.9 56.9l0-3.5c0-8.8 7.2-16 16-16s16 7.2 16 16l0 17.1c15 4.5 31.1 6.9 48 6.9 16.8 0 33-2.4 48-6.9l0-17c0-8.8 7.2-16 16-16s16 7.2 16 16l0 3.4c24.2-13.8 43.2-33.6 53.8-56.9 5-11-6.1-21-17.8-18-30.2 7.8-64.1 12.6-100 13.7l0 9.7c0 8.8-7.2 16-16 16s-16-7.2-16-16l0-9.7c-35.9-1.1-69.8-5.9-100-13.7z"/></svg>