<svg xmlns="http://www.w3.org/2000/svg" viewBox="0 0 320 512"><path fill="currentColor" d="M32-8C32 5.3 42.7 16 56 16l208 0c13.3 0 24-10.7 24-24s-10.7-24-24-24L56-32C42.7-32 32-21.3 32-8zM256 112c8.8 0 16 7.2 16 16l0 320c0 8.8-7.2 16-16 16L64 464c-8.8 0-16-7.2-16-16l0-320c0-8.8 7.2-16 16-16l192 0zM64 64C28.7 64 0 92.7 0 128L0 448c0 35.3 28.7 64 64 64l192 0c35.3 0 64-28.7 64-64l0-320c0-35.3-28.7-64-64-64L64 64zm48 96l-42.2 0c-3.2 0-5.8 2.6-5.8 5.8 0 32.1 26 58.2 58.2 58.2l75.6 0c32.1 0 58.2-26 58.2-58.2 0-3.2-2.6-5.8-5.8-5.8L208 160c-19.1 0-36.3 8.4-48 21.7-11.7-13.3-28.9-21.7-48-21.7zM256 261.8c0-3.2-2.6-5.8-5.8-5.8L208 256c-19.1 0-36.3 8.4-48 21.7-11.7-13.3-28.9-21.7-48-21.7l-42.2 0c-3.2 0-5.8 2.6-5.8 5.8 0 32.1 26 58.2 58.2 58.2l75.6 0c32.1 0 58.2-26 58.2-58.2zM250.2 352L208 352c-19.1 0-36.3 8.4-48 21.7-11.7-13.3-28.9-21.7-48-21.7l-42.2 0c-3.2 0-5.8 2.6-5.8 5.8 0 32.1 26 58.2 58.2 58.2l21.8 0 0 16c0 8.8 7.2 16 16 16s16-7.2 16-16l0-16 21.8 0c32.1 0 58.2-26 58.2-58.2 0-3.2-2.6-5.8-5.8-5.8z"/></svg>