<svg xmlns="http://www.w3.org/2000/svg" viewBox="0 0 512 512"><path fill="currentColor" d="M73.7 35.5C79.7 5.6 106-16 136.5-16l239.7 0C406.7-16 433 5.6 439 35.5l79.5 399.7c6.9 34.8-15.8 68.6-50.7 75.3l-95.2 18.3c-34 6.5-67-15.1-74.5-48.9L256.3 293.8 214.7 480c-7.6 33.8-40.6 55.4-74.5 48.9L44.9 510.6C10.1 503.8-12.7 470-5.8 435.2L73.7 35.5zM136.5 32c-7.6 0-14.2 5.4-15.7 12.9L117 64 395.7 64 391.9 44.9c-1.5-7.5-8.1-12.9-15.7-12.9L136.5 32zm168.2 80l-24.3 0 0 69.3 64.5 288.2c1.9 8.4 10.1 13.8 18.6 12.2l95.2-18.3c8.7-1.7 14.4-10.1 12.7-18.8l-47-236.6-16 0c-54.7 0-99.6-42.3-103.7-96zm48.3 0c3.9 27.1 27.2 48 55.4 48l6.4 0-9.5-48-52.3 0zm-120.6 0L208 112c-4.1 53.7-49 96-103.7 96l-16 0-47 236.6c-1.7 8.7 4 17.2 12.7 18.8l95.2 18.3c8.5 1.6 16.7-3.8 18.6-12.2l64.5-288.2 0-69.3zm-124.9 0l-9.5 48 6.4 0c28.2 0 51.6-20.9 55.4-48l-52.3 0z"/></svg>