<svg xmlns="http://www.w3.org/2000/svg" viewBox="0 0 576 512"><path fill="currentColor" d="M184 0L296 0c13.3 0 24 10.7 24 24s-10.7 24-24 24l-38.9 0c4.7 6.1 9.8 12.6 15.1 19.6 25.3 32.8 56.8 74.1 81.8 108.4l76.4 0c20.1 0 39.9 4 58.5 11.7l57.6 24c17.9 7.5 29.5 24.9 29.5 44.3s-11.7 36.9-29.5 44.3l-57.6 24C470.3 332 450.5 336 430.4 336l-76.4 0-97.5 128 39.5 0c13.3 0 24 10.7 24 24s-10.7 24-24 24l-144 0c-13.3 0-24-10.7-24-24s10.7-24 24-24l8 0 0-128-14.1 0-41 41c-4.5 4.5-10.6 7-17 7l-64 0c-13.3 0-24-10.7-24-24L0 152c0-13.3 10.7-24 24-24l64 0c6.4 0 12.5 2.5 17 7l41 41 14.1 0 0-128-8 0c-13.3 0-24-10.7-24-24S138.7 0 152 0l32 0zm24 176l86.4 0c-19.9-26.7-41.6-55.1-60.1-79.1-9.9-12.9-18.9-24.5-26.2-33.9l0 113zM48 280l0 56 30.1 0 41-41c4.5-4.5 10.6-7 17-7l294.4 0c13.7 0 27.3-2.7 40-8l57.6-24-57.6-24c-12.7-5.3-26.3-8-40-8L136 224c-6.4 0-12.5-2.5-17-7l-41-41-30.1 0 0 56 24 0c13.3 0 24 10.7 24 24s-10.7 24-24 24l-24 0zm160 56l0 112.4 85.6-112.4-85.6 0z"/></svg>