<svg xmlns="http://www.w3.org/2000/svg" viewBox="0 0 512 512"><path fill="currentColor" d="M0 360L0 248c0-13.3 10.7-24 24-24s24 10.7 24 24l0 38.9c6.1-4.7 12.6-9.8 19.6-15.1 32.8-25.3 74.1-56.8 108.4-81.8l0-76.4c0-20.1 4-39.9 11.7-58.5l24-57.6C219.1-20.3 236.6-32 256-32s36.9 11.7 44.3 29.5l24 57.6C332 73.7 336 93.5 336 113.6l0 76.4 128 97.5 0-39.5c0-13.3 10.7-24 24-24s24 10.7 24 24l0 144c0 13.3-10.7 24-24 24s-24-10.7-24-24l0-8-128 0 0 14.1 41 41c4.5 4.5 7 10.6 7 17l0 64c0 13.3-10.7 24-24 24l-208 0c-13.3 0-24-10.7-24-24l0-64c0-6.4 2.5-12.5 7-17l41-41 0-14.1-128 0 0 8c0 13.3-10.7 24-24 24S0 405.3 0 392l0-32zm176-24l0-86.4c-26.7 19.9-55.1 41.6-79.1 60.1-12.9 9.9-24.5 18.9-33.9 26.2l113 0zM280 496l56 0 0-30.1-41-41c-4.5-4.5-7-10.6-7-17l0-294.4c0-13.7-2.7-27.3-8-40L256 16 232 73.6c-5.3 12.7-8 26.3-8 40L224 408c0 6.4-2.5 12.5-7 17l-41 41 0 30.1 56 0 0-24c0-13.3 10.7-24 24-24s24 10.7 24 24l0 24zm56-160l112.4 0-112.4-85.6 0 85.6z"/></svg>