<svg xmlns="http://www.w3.org/2000/svg" viewBox="0 0 576 512"><path fill="currentColor" d="M360 0c-13.3 0-24 10.7-24 24l0 19c0 53 21.1 103.9 58.6 141.4l21 21C426.1 215.9 432 230.2 432 245l0 19c0 13.3 10.7 24 24 24s24-10.7 24-24l0-19c0-27.6-11-54-30.5-73.5l-21-21C400 122 384 83.3 384 43l0-19c0-13.3-10.7-24-24-24zM552 288c13.3 0 24-10.7 24-24l0-19c0-53-21.1-103.9-58.6-141.4l-21-21C485.9 72.1 480 57.8 480 43l0-19c0-13.3-10.7-24-24-24s-24 10.7-24 24l0 19c0 27.6 11 54 30.5 73.5l21 21C512 166 528 204.7 528 245l0 19c0 13.3 10.7 24 24 24zM197.5 428.3L74.8 400 180.4 375.6 214.6 431.2c-5.7-.6-11.4-1.6-17.1-2.9zM353.3 432l-74.8 0-39.4-64 80.1 0 39.3 63.9c-1.7 .1-3.5 .1-5.2 .1zm64.6-8.2l-32.3-52.5 135.7 20.9c3.9 .6 6.7 3.9 6.7 7.9s-2.9 7.3-6.7 7.9L417.9 423.8zM186.7 324.9L31 360.8C12.9 365 0 381.4 0 400s12.9 35 31 39.2l155.7 35.9c14.2 3.3 28.6 4.9 43.2 4.9l123.5 0c9.8 0 19.5-.7 29.2-2.2l146-22.5c27.3-4.2 47.4-27.7 47.4-55.3s-20.1-51.1-47.4-55.3l-146-22.5c-9.7-1.5-19.4-2.2-29.2-2.2l-123.5 0c-14.5 0-29 1.6-43.2 4.9z"/></svg>