<svg xmlns="http://www.w3.org/2000/svg" viewBox="0 0 448 512"><path fill="currentColor" d="M224 0c61.9 0 112 50.1 112 112 0 53.6-37.7 98.4-88 109.4l0 130.6 136 0 6.5 .3c32.3 3.3 57.5 30.5 57.5 63.7l0 32-.3 6.5c-3.1 30.1-27 54.1-57.1 57.1l-6.5 .3-320 0-6.5-.3c-30.1-3.1-54.1-27-57.1-57.1L0 448 0 416c0-33.1 25.2-60.4 57.5-63.7l6.5-.3 136 0 0-130.6c-50.3-11-88-55.8-88-109.4 0-61.9 50.1-112 112-112zM64 400c-8.8 0-16 7.2-16 16l0 32c0 8.8 7.2 16 16 16l320 0c8.8 0 16-7.2 16-16l0-32c0-8.8-7.2-16-16-16L64 400zM224 48a64 64 0 1 0 0 128 64 64 0 1 0 0-128z"/></svg>