<svg xmlns="http://www.w3.org/2000/svg" viewBox="0 0 512 512"><path fill="currentColor" d="M120 0C106.7 0 96 10.7 96 24l0 24-8 0C74.7 48 64 58.7 64 72S74.7 96 88 96l144 0c13.3 0 24-10.7 24-24s-10.7-24-24-24l-8 0 0-24c0-13.3-10.7-24-24-24L120 0zm8 176l93.5 0c10.8-19.5 27.6-35.6 48.6-45.5l1.9-.9 0-.6c-5.2-.7-10.6-1-16-1l-128 0C57.3 128 0 185.3 0 256L0 448c0 35.3 28.7 64 64 64l164.1 0c-9.8-14-16.4-30.3-18.9-48L64 464c-8.8 0-16-7.2-16-16l0-192c0-44.2 35.8-80 80-80zM320 88l0 40 128 0 0-40c0-13.3-10.7-24-24-24l-80 0c-13.3 0-24 10.7-24 24zm-29.6 86c-21 9.9-34.4 31-34.4 54.2 0 22.8 12.7 42.6 31.5 52.7-18.8 11.1-31.5 31.7-31.5 55.1 0 24.1 13.3 45.1 33 56-19.7 10.9-33 31.9-33 56 0 35.3 28.7 64 64 64l128 0c35.3 0 64-28.7 64-64 0-24.1-13.3-45.1-33-56 19.7-10.9 33-31.9 33-56 0-23.5-12.6-44-31.5-55.1 18.7-10.1 31.5-29.9 31.5-52.7 0-23.2-13.4-44.3-34.4-54.2l-13.2-6.2c-11-5.1-23-7.8-35.1-7.8l-90.6 0c-12.1 0-24.1 2.7-35.1 7.8L290.4 174z"/></svg>