<svg xmlns="http://www.w3.org/2000/svg" viewBox="0 0 512 512"><path fill="currentColor" d="M48 146.8l0 36.7 205.2 77.8c1.8 .7 3.8 .7 5.7 0l205.2-77.8 0-36.7-188.1 71.4c-12.8 4.9-26.9 4.9-39.7 0L48 146.8zm371.2-34.3L256 51.3 92.8 112.4 253.2 173.3c1.8 .7 3.8 .7 5.7 0l160.3-60.8zM464 234.8L275.9 306.1c-12.8 4.9-26.9 4.9-39.7 0l-188.1-71.4 0 36.7 80 30.3 0 51.3-80-30.3 0 60 208 78 208-78 0-60-80 30.3 0-51.3 80-30.3 0-36.7zM0 382.7L0 129.3c0-20 12.4-37.9 31.1-44.9l208-78c10.9-4.1 22.8-4.1 33.7 0l208 78c18.7 7 31.1 24.9 31.1 44.9l0 253.5c0 20-12.4 37.9-31.1 44.9l-208 78c-10.9 4.1-22.8 4.1-33.7 0l-208-78C12.4 420.7 0 402.7 0 382.7zm176-11.4l0-51.3 77.2 29.3c1.8 .7 3.8 .7 5.7 0l77.2-29.3 0 51.3-60.1 22.8c-12.8 4.9-26.9 4.9-39.7 0L176 371.3z"/></svg>