<svg xmlns="http://www.w3.org/2000/svg" viewBox="0 0 576 512"><path fill="currentColor" d="M17.9-14.5c26.6-26.6 69.6-26.6 96.2 0l71.7 71.7c4.2 4.2 7.2 9.3 8.9 15l23.2 79.3 174.9 174.9 79.4 23.2c5.7 1.7 10.8 4.7 15 8.9l71.7 71.7c26.6 26.6 26.6 69.6 0 96.2l-5.2 4.7c-25 20.3-61 20.4-85.9 0l-5.2-4.7-71.7-71.7c-3.1-3.1-5.6-6.8-7.4-10.8l-1.5-4.2-23.2-79.4-174.9-174.9-79.3-23.2c-4.2-1.2-8.2-3.3-11.7-6l-3.3-2.9-71.7-71.7C-7 56.8-8.5 17.4 13.3-9.3l4.7-5.2zM158.7 228.1l14.5 14.5c-58.9 78.3-80.8 156.1-88.7 212.3-.2 1.3 0 2.1 .2 2.6 .2 .5 .5 1 .9 1.4s.9 .7 1.4 .9c.5 .2 1.3 .3 2.6 .2 56.2-7.9 134-29.8 212.3-88.7l14.4 14.4 8.3 28.5c-77.3 56.4-154.2 80.8-213.5 91l-14.8 2.3c-35 4.9-64.1-24.2-59.2-59.2 8.5-61 32-144.5 93.3-228.5l28.4 8.3zm268.5 195l69.4 69.4c7.8 7.8 20.5 7.8 28.3 0 7.8-7.8 7.8-20.5 0-28.3l-69.4-69.4-40.1-11.7 11.7 40.1zM282.4 351.8c-25.1 19.5-61.4 17.8-84.4-5.2-23.1-23.1-24.8-59.4-5.3-84.5l89.7 89.7zM487.2 4c32-.7 57.3 27 52.7 59.8l-2.3 14.8c-10.2 59.3-34.5 136.2-91 213.5l-28.5-8.3-14.4-14.4c58.9-78.3 80.8-156.1 88.7-212.3 .2-1.3 0-2.1-.2-2.6-.2-.5-.5-1-.9-1.4s-.9-.7-1.4-.9c-.5-.2-1.3-.3-2.5-.2-56.2 7.9-134.1 29.8-212.4 88.6l-14.4-14.4-8.3-28.4c84-61.3 167.4-84.8 228.4-93.3l6.5-.5zM294.5 160.3c25.1-19.5 61.4-17.8 84.5 5.3 23.1 23.1 24.7 59.3 5.2 84.4l-89.7-89.7zM80.2 19.4c-7.8-7.8-20.5-7.8-28.3 0-7.8 7.8-7.8 20.5 0 28.3l69.4 69.4 40 11.7-11.7-40-69.4-69.4z"/></svg>