<svg xmlns="http://www.w3.org/2000/svg" viewBox="0 0 576 512"><path fill="currentColor" d="M173.6 265C187.9 316 228 356.1 279 370.4l-16.9 16.9-147.6 88.6-46.3-46.3 88.6-147.6 16.9-16.9zM297 73.7C231.5 83.7 179.7 135.5 169.7 201l-48.4 48.4c-1.9 1.9-3.5 3.9-4.8 6.2l-96 160c-7.6 12.6-5.6 28.7 4.8 39.1l64 64c10.4 10.4 26.5 12.4 39.1 4.8l160-96c2.2-1.3 4.3-3 6.2-4.8L343 374.3c65.5-9.9 117.4-61.7 127.3-127.3l96.4-96.4c12.5-12.5 12.5-32.8 0-45.3l-128-128c-12.5-12.5-32.8-12.5-45.3 0L297 73.7zM521.4 128l-55 55C452.1 132 412 91.9 361 77.6l55-55 105.4 105.4zM320 120a104 104 0 1 1 0 208 104 104 0 1 1 0-208zm20 58.7c0-11-9-20-20-20s-20 9-20 20l0 25.3-25.3 0c-11 0-20 9-20 20s9 20 20 20l25.3 0 0 25.3c0 11 9 20 20 20s20-9 20-20l0-25.3 25.3 0c11 0 20-9 20-20s-9-20-20-20l-25.3 0 0-25.3z"/></svg>