<svg xmlns="http://www.w3.org/2000/svg" viewBox="0 0 512 512"><path fill="currentColor" d="M21.3 2.5C9.4 8.5 4.6 22.9 10.5 34.7l104 208c4.1 8.1 12.4 13.3 21.5 13.3s17.4-5.1 21.5-13.3l104-208c5.9-11.9 1.1-26.3-10.7-32.2s-26.3-1.1-32.2 10.7L136 178.3 53.5 13.3C47.5 1.4 33.1-3.4 21.3 2.5zM417.2 160l-82.3 0 41.2-82.3 41.2 82.3zM310.8 208l130.3 0 17.4 34.7c5.9 11.9 20.3 16.7 32.2 10.7s16.7-20.3 10.7-32.2l-104-208C393.4 5.1 385.1 0 376 0s-17.4 5.1-21.5 13.3l-104 208c-5.9 11.9-1.1 26.3 10.7 32.2s26.3 1.1 32.2-10.7L310.8 208zM177 361c9.4-9.4 9.4-24.6 0-33.9s-24.6-9.4-33.9 0L71 399c-9.4 9.4-9.4 24.6 0 33.9l72 72c9.4 9.4 24.6 9.4 33.9 0s9.4-24.6 0-33.9l-31-31 220.1 0-31 31c-9.4 9.4-9.4 24.6 0 33.9s24.6 9.4 33.9 0l72-72c9.4-9.4 9.4-24.6 0-33.9l-72-72c-9.4-9.4-24.6-9.4-33.9 0s-9.4 24.6 0 33.9l31 31-220.1 0 31-31z"/></svg>