<svg xmlns="http://www.w3.org/2000/svg" viewBox="0 0 384 512"><path fill="currentColor" d="M219.8 0c73 0 132.2 59.2 132.2 132.2 0 24.3-7.2 47-18.8 68l-20.6 34.3c43.6 35.2 71.5 89 71.5 149.4 0 33.8-8.8 65.5-24.1 93.1-13.3 23.9-40.5 34.9-67.8 34.9l-200.3 0-5.1-.1c-23.8-1.2-46.9-10.9-60-30.4l-2.7-4.3C8.8 449.5 0 417.8 0 384 0 323.6 27.9 269.8 71.4 234.6L50.8 200.3C38.5 179.7 32 156.2 32 132.2 32 59.2 91.2 0 164.2 0l55.5 0zM192 240c-79.5 0-144 64.5-144 144 0 25.4 6.6 49.1 18 69.8 2.1 3.7 9.5 10.2 25.8 10.2l200.3 0c16.3 0 23.7-6.5 25.8-10.2 11.5-20.6 18-44.4 18-69.8 0-79.5-64.5-144-144-144zM164.2 48c-46.5 0-84.2 37.7-84.2 84.2 0 15.3 4.2 30.3 12 43.3l20.2 33.8c24.3-11.1 51.3-17.3 79.8-17.3 28.4 0 55.4 6.2 79.7 17.3l19.6-32.5c8.5-15.5 12.7-30.1 12.7-44.5 0-46.5-37.7-84.2-84.2-84.2l-55.5 0z"/></svg>