<svg xmlns="http://www.w3.org/2000/svg" viewBox="0 0 640 512"><path fill="currentColor" d="M592.5 128a80 80 0 1 0 -160 0 80 80 0 1 0 160 0zm48 0c0 70.7-57.3 128-128 128-62.5 0-114.5-44.8-125.8-104l-82.2 0 0 48c0 13.3-10.7 24-24 24s-24-10.7-24-24l0-48-48 0 0 48c0 13.3-10.7 24-24 24s-24-10.7-24-24l0-72c0-13.3 10.7-24 24-24l202.2 0C398 44.8 450 0 512.5 0 583.2 0 640.5 57.3 640.5 128zM48.5 384a80 80 0 1 0 160 0 80 80 0 1 0 -160 0zm-48 0c0-70.7 57.3-128 128-128 62.5 0 114.5 44.8 125.8 104l82.2 0 0-48c0-13.3 10.7-24 24-24s24 10.7 24 24l0 48 48 0 0-48c0-13.3 10.7-24 24-24s24 10.7 24 24l0 72c0 13.3-10.7 24-24 24l-202.2 0C243 467.2 191 512 128.5 512 57.8 512 .5 454.7 .5 384z"/></svg>