<svg xmlns="http://www.w3.org/2000/svg" viewBox="0 0 576 512"><path fill="currentColor" d="M496 48c8.8 0 16 7.2 16 16l0 256c0 8.8-7.2 16-16 16L80 336c-8.8 0-16-7.2-16-16L64 64c0-8.8 7.2-16 16-16l416 0zM80 0C44.7 0 16 28.7 16 64l0 256c0 35.3 28.7 64 64 64l416 0c35.3 0 64-28.7 64-64l0-256c0-35.3-28.7-64-64-64L80 0zm80 272l0 16c0 8.8 7.2 16 16 16l224 0c8.8 0 16-7.2 16-16l0-16c0-8.8-7.2-16-16-16l-224 0c-8.8 0-16 7.2-16 16zM120 88c-8.8 0-16 7.2-16 16l0 16c0 8.8 7.2 16 16 16l16 0c8.8 0 16-7.2 16-16l0-16c0-8.8-7.2-16-16-16l-16 0zm-16 96l0 16c0 8.8 7.2 16 16 16l16 0c8.8 0 16-7.2 16-16l0-16c0-8.8-7.2-16-16-16l-16 0c-8.8 0-16 7.2-16 16zm96-96c-8.8 0-16 7.2-16 16l0 16c0 8.8 7.2 16 16 16l16 0c8.8 0 16-7.2 16-16l0-16c0-8.8-7.2-16-16-16l-16 0zm-16 96l0 16c0 8.8 7.2 16 16 16l16 0c8.8 0 16-7.2 16-16l0-16c0-8.8-7.2-16-16-16l-16 0c-8.8 0-16 7.2-16 16zm96-96c-8.8 0-16 7.2-16 16l0 16c0 8.8 7.2 16 16 16l16 0c8.8 0 16-7.2 16-16l0-16c0-8.8-7.2-16-16-16l-16 0zm-16 96l0 16c0 8.8 7.2 16 16 16l16 0c8.8 0 16-7.2 16-16l0-16c0-8.8-7.2-16-16-16l-16 0c-8.8 0-16 7.2-16 16zm96-96c-8.8 0-16 7.2-16 16l0 16c0 8.8 7.2 16 16 16l16 0c8.8 0 16-7.2 16-16l0-16c0-8.8-7.2-16-16-16l-16 0zm-16 96l0 16c0 8.8 7.2 16 16 16l16 0c8.8 0 16-7.2 16-16l0-16c0-8.8-7.2-16-16-16l-16 0c-8.8 0-16 7.2-16 16zm96-96c-8.8 0-16 7.2-16 16l0 16c0 8.8 7.2 16 16 16l16 0c8.8 0 16-7.2 16-16l0-16c0-8.8-7.2-16-16-16l-16 0zm-16 96l0 16c0 8.8 7.2 16 16 16l16 0c8.8 0 16-7.2 16-16l0-16c0-8.8-7.2-16-16-16l-16 0c-8.8 0-16 7.2-16 16zM257 439c-9.4-9.4-24.6-9.4-33.9 0s-9.4 24.6 0 33.9l48 48c9.4 9.4 24.6 9.4 33.9 0l48-48c9.4-9.4 9.4-24.6 0-33.9s-24.6-9.4-33.9 0l-31 31-31-31z"/></svg>