<svg xmlns="http://www.w3.org/2000/svg" viewBox="0 0 640 512"><path fill="currentColor" d="M544 112c8.8 0 16 7.2 16 16l0 256c0 8.8-7.2 16-16 16l-320 0c-8.8 0-16-7.2-16-16l0-256c0-8.8 7.2-16 16-16l320 0zM224 64c-35.3 0-64 28.7-64 64l0 256c0 35.3 28.7 64 64 64l320 0c35.3 0 64-28.7 64-64l0-256c0-35.3-28.7-64-64-64L224 64zm64 272l0 16c0 8.8 7.2 16 16 16l160 0c8.8 0 16-7.2 16-16l0-16c0-8.8-7.2-16-16-16l-160 0c-8.8 0-16 7.2-16 16zM264 152c-8.8 0-16 7.2-16 16l0 16c0 8.8 7.2 16 16 16l16 0c8.8 0 16-7.2 16-16l0-16c0-8.8-7.2-16-16-16l-16 0zm58.7 16l0 16c0 8.8 7.2 16 16 16l16 0c8.8 0 16-7.2 16-16l0-16c0-8.8-7.2-16-16-16l-16 0c-8.8 0-16 7.2-16 16zm90.7-16c-8.8 0-16 7.2-16 16l0 16c0 8.8 7.2 16 16 16l16 0c8.8 0 16-7.2 16-16l0-16c0-8.8-7.2-16-16-16l-16 0zM472 168l0 16c0 8.8 7.2 16 16 16l16 0c8.8 0 16-7.2 16-16l0-16c0-8.8-7.2-16-16-16l-16 0c-8.8 0-16 7.2-16 16zM264 232c-8.8 0-16 7.2-16 16l0 16c0 8.8 7.2 16 16 16l16 0c8.8 0 16-7.2 16-16l0-16c0-8.8-7.2-16-16-16l-16 0zm58.7 16l0 16c0 8.8 7.2 16 16 16l16 0c8.8 0 16-7.2 16-16l0-16c0-8.8-7.2-16-16-16l-16 0c-8.8 0-16 7.2-16 16zm90.7-16c-8.8 0-16 7.2-16 16l0 16c0 8.8 7.2 16 16 16l16 0c8.8 0 16-7.2 16-16l0-16c0-8.8-7.2-16-16-16l-16 0zM472 248l0 16c0 8.8 7.2 16 16 16l16 0c8.8 0 16-7.2 16-16l0-16c0-8.8-7.2-16-16-16l-16 0c-8.8 0-16 7.2-16 16zM105 225c9.4-9.4 9.4-24.6 0-33.9s-24.6-9.4-33.9 0L23 239c-9.4 9.4-9.4 24.6 0 33.9l48 48c9.4 9.4 24.6 9.4 33.9 0s9.4-24.6 0-33.9l-31-31 31-31z"/></svg>