<svg xmlns="http://www.w3.org/2000/svg" viewBox="0 0 448 512"><path fill="currentColor" d="M182.4 72L152 72c-22.1 0-40 17.9-40 40l0 16 238.4 0c20.2 0 38.2 12.6 45.1 31.6l50.1 137.6c1.6 4.5 2.5 9.2 2.5 13.9 0 22.5-18.3 40.8-40.8 40.8l-159.2 0 0 112 48 0c13.3 0 24 10.7 24 24s-10.7 24-24 24l-144 0c-13.3 0-24-10.7-24-24s10.7-24 24-24l48 0 0-112-159.2 0c-22.5 0-40.8-18.3-40.8-40.8 0-4.8 .8-9.5 2.5-13.9L64 128 64 112c0-48.6 39.4-88 88-88l30.4 0C190.7 9.7 206.2 0 224 0l64 0c26.5 0 48 21.5 48 48s-21.5 48-48 48l-64 0c-17.8 0-33.3-9.7-41.6-24zM51.1 304l345.8 0-46.5-128-252.8 0-46.5 128z"/></svg>