<svg xmlns="http://www.w3.org/2000/svg" viewBox="0 0 512 512"><path fill="currentColor" d="M240.7 8c8.9-7.4 21.8-7.4 30.7 0l37.8 31.5c8.7 7.3 11.1 19.6 6 29.6-1.2 2.4-2.8 5.5-4.6 9.2 34.2 19.2 57.3 55.8 57.3 97.8s-23.1 78.6-57.3 97.8c1.8 3.7 3.3 6.8 4.6 9.2 5.1 10 2.7 22.3-6 29.6l-37.2 31 0 19.8 35.6-24.5c0 0 0 0 .1 0l41.1-28.2c72.1-49.6 86.2-151.1 39.1-221.7-4-6-3.5-14 1.3-19.5s12.8-6.9 19.3-3.6c58.5 30 104.7 91.3 104.7 158.2 0 53.1-26.4 100.5-51.2 133.6-14.8 19.7-31.7 38.7-50.6 54.7-5.1 4.3-12.4 4.9-18.2 1.6l-75.6-43-32.7 22.5 45.5 31.3c1.8-.4 3.7-.7 5.7-.7 13.3 0 24 10.7 24 24s-10.7 24-24 24c-12.2 0-22.3-9.1-23.8-21l-40.2-27.6 0 28.9c9.6 5.5 16 15.9 16 27.7 0 17.7-14.3 32-32 32s-32-14.3-32-32c0-11.8 6.4-22.2 16-27.7l0-28.1-40.3 27.7c-1.8 11.4-11.8 20.1-23.7 20.1-13.3 0-24-10.7-24-24s10.7-24 24-24c2.2 0 4.4 .3 6.5 .9l45.8-31.5-32.7-22.5-75.6 43c-5.8 3.3-13 2.7-18.2-1.6-19-15.9-35.8-35-50.6-54.7-24.8-33.1-51.2-80.5-51.2-133.6 0-53.7 26.9-93.6 52.7-119.3 15.4-15.4 32.7-29.2 52.2-39 6.5-3.2 14.3-1.7 19.2 3.7 6.9 7.8 3.4 16.3-1.5 23.7-46.4 69.5-27.5 169.8 41.9 217.5l41.1 28.2 .1 0 34.5 23.7 0-19.1-37.2-31c-8.7-7.3-11.1-19.6-6-29.6 1.2-2.4 2.8-5.5 4.6-9.2-34.2-19.2-57.3-55.8-57.3-97.8s23.1-78.6 57.3-97.8c-1.8-3.7-3.3-6.8-4.6-9.2-5.1-10-2.7-22.3 6-29.6L240.7 8zM220.3 122.9c-17 11.5-28.2 31-28.2 53.1s11.2 41.6 28.2 53.1c6.8-19.2 11.8-38.4 11.8-53.1s-4.9-33.9-11.8-53.1zm71.5 106.2c17-11.5 28.2-31 28.2-53.1s-11.2-41.6-28.2-53.1c-6.8 19.2-11.8 38.4-11.8 53.1s4.9 33.9 11.8 53.1zM57.3 163c-10.2 17.1-17.3 37.4-17.3 61 0 40.4 20.4 79.2 43.2 109.6 10 13.4 20.7 25.9 32 37l36-20.5-9.5-6.5C81.6 302.2 51.6 231.7 57.3 163zM429.9 333.6c22.8-30.4 43.2-69.2 43.2-109.6 0-24.3-7.4-45.1-18.2-62.5 6.7 68.5-20.8 138.9-83.6 182l-9.5 6.5 35.9 20.4c11.4-11.1 22.1-23.6 32.1-36.9z"/></svg>