<svg xmlns="http://www.w3.org/2000/svg" viewBox="0 0 640 512"><path fill="currentColor" d="M146.5 62.4c23-20.7 58.4-18.8 79.1 4.2s18.8 58.4-4.2 79.1l-5.8 5.3C180.2 182.7 160 228.1 160 275.8l0 4.2c0 30.9-25.1 56-56 56s-56-25.1-56-56l0-4.2c0-79.4 33.7-155 92.7-208.1l5.8-5.3zm107 118.9c42.7-38.4 46.2-104.2 7.7-146.9S157.1-11.7 114.4 26.7L108.6 32C39.5 94.2 0 182.8 0 275.8L0 280c0 57.4 46.6 104 104 104s104-46.6 104-104l0-4.2c0-4.8 .3-9.6 .9-14.3l13.3 15.2c11.5 13.1 17.8 30 17.8 47.4L240 488c0 13.3 10.7 24 24 24s24-10.7 24-24l0-163.9c0-29.1-10.6-57.1-29.7-79L227.6 210c5.6-8.6 12.3-16.4 20.1-23.4l5.8-5.3zm272-154.6c-42.7-38.4-108.5-35-146.9 7.7s-35 108.5 7.7 146.9l5.8 5.3c7.8 7 14.5 14.9 20.1 23.4L381.7 245c-19.1 21.9-29.7 50-29.7 79L352 488c0 13.3 10.7 24 24 24s24-10.7 24-24l0-163.9c0-17.4 6.3-34.3 17.8-47.4l13.3-15.2c.6 4.7 .9 9.5 .9 14.3l0 4.2c0 57.4 46.6 104 104 104s104-46.6 104-104l0-4.2c0-93-39.5-181.6-108.6-243.8l-5.8-5.3zM414.4 66.5c20.7-23 56.1-24.9 79.1-4.2l5.8 5.3c59 53.1 92.7 128.7 92.7 208.1l0 4.2c0 30.9-25.1 56-56 56s-56-25.1-56-56l0-4.2c0-47.6-20.2-93-55.6-124.9l-5.8-5.3c-23-20.7-24.9-56.1-4.2-79.1z"/></svg>