<svg xmlns="http://www.w3.org/2000/svg" viewBox="0 0 512 512"><path fill="currentColor" d="M144 400l224 0 0-288-224 0 0 288zm-48 0l0-288-32 0c-8.8 0-16 7.2-16 16l0 256c0 8.8 7.2 16 16 16l32 0zM64 64l384 0c35.3 0 64 28.7 64 64l0 256c0 35.3-28.7 64-64 64L64 448c-35.3 0-64-28.7-64-64L0 128C0 92.7 28.7 64 64 64zM416 400l32 0c8.8 0 16-7.2 16-16l0-256c0-8.8-7.2-16-16-16l-32 0 0 288zM228 192c0-8.8 7.2-16 16-16l24 0c8.8 0 16 7.2 16 16l0 36 36 0c8.8 0 16 7.2 16 16l0 24c0 8.8-7.2 16-16 16l-36 0 0 36c0 8.8-7.2 16-16 16l-24 0c-8.8 0-16-7.2-16-16l0-36-36 0c-8.8 0-16-7.2-16-16l0-24c0-8.8 7.2-16 16-16l36 0 0-36z"/></svg>