<svg xmlns="http://www.w3.org/2000/svg" viewBox="0 0 640 512"><path fill="currentColor" d="M560 0c26.5 0 48 21.5 48 48l0 231.3-.2 4.3c-1.9 21.5-18.2 39.4-39.9 43L264.7 377.2 141.9 500c-7.7 7.7-18.1 12-29 12-22.6 0-41-18.3-41-41l0-176-33.9 21.2c-4 2.5-8.5 3.8-13.2 3.8-13.7 0-24.9-11.1-24.9-24.9l0-46.3c0-13.7 11.1-24.9 24.9-24.9 4.7 0 9.2 1.3 13.2 3.8L72 249 72 200c0-13.3-10.7-24-24-24l-24 0c-13.3 0-24-10.7-24-24s10.7-24 24-24l24 0c39.8 0 72 32.2 72 72l0 49 34-21.2c3.9-2.5 8.5-3.8 13.2-3.8 13.7 0 24.9 11.1 24.9 24.9l0 46.3c0 13.7-11.1 24.9-24.9 24.9-4.7 0-9.2-1.3-13.2-3.8l-34-21.2 0 159.1 110.8-110.8 50.5-303.2c3.6-21.7 21.5-38 43-39.9L328.6 0 560 0zM323.1 318.8l200.3-33.4-83.5-83.5-116.9 116.8zm-34-33.9L406.1 168 322.6 84.5 289.1 284.9zM473.9 168l86.1 86.1 0-172.1-86.1 86.1zM440 134.1L526.1 48 353.9 48 440 134.1z"/></svg>