<svg xmlns="http://www.w3.org/2000/svg" viewBox="0 0 576 512"><path fill="currentColor" d="M488.4 0c-9.4 0-18.3 3.7-25 10.3l-178.4 178.4 11.3 11.3 104.3 104.3 31-17.3c15.2-8.5 24.7-24.5 24.7-42l0-31.9c0-4.2 1.7-8.3 4.7-11.3l97-97c6.6-6.6 10.3-15.6 10.3-25S564.7 61.7 558 55L513.4 10.3C506.7 3.7 497.8 0 488.4 0zm-56 128a16 16 0 1 1 0 32 16 16 0 1 1 0-32zm48-48a16 16 0 1 1 32 0 16 16 0 1 1 -32 0zM5.1 468.7c-8.4 8.4-4.7 22.9 6.5 26.6 32.2 10.5 67 16.8 100.8 16.8 123.3 0 209.4-62.8 287.3-140.7 6.2-6.2 6.2-16.4 0-22.6l-23-23-33.9 33.9c-67.3 62.6-136.8 104.4-230.4 104.4-10.7 0-21.6-.8-32.6-2.2l182.6-182.6 33.9-33.9-33.9-33.9-33.9 33.9-223.4 223.4z"/></svg>