<svg xmlns="http://www.w3.org/2000/svg" viewBox="0 0 576 512"><path fill="currentColor" d="M400.5-32c97.2 0 176 78.8 176 176l-.4 9.9c-3.7 45.9-32.6 86.1-75 104.1l-9.3 3.5-27.3 9.1c-13.4 4.5-25.8 11.3-36.7 20.3l-42 34.4c-21.1 17.3-47.6 26.7-74.9 26.7-24 0-46.3-7.2-65-19.5L49.5 529c-9.4 9.4-24.6 9.4-33.9 0s-9.4-24.6 0-33.9L211.9 298.6c-12.3-18.6-19.4-41-19.4-64.9 0-27.3 9.5-53.8 26.7-74.9l34.4-42c8.9-10.9 15.8-23.4 20.2-36.7l9.1-27.3 3.5-9.3C305.7-2 350.5-32 400.5-32zm0 48c-32.7 0-61.7 20.9-72 51.9l-9.1 27.3c-6.3 18.9-16 36.5-28.6 51.9l-34.4 42c-10.3 12.6-15.9 28.3-15.9 44.5 0 38.8 31.5 70.3 70.3 70.3 16.2 0 32-5.6 44.5-15.9l42-34.4c15.4-12.6 33-22.3 51.9-28.6l27.3-9.1 5.7-2.2c26-11 43.7-35.6 46-63.7l.3-6.1c0-70.7-57.3-128-128-128z"/></svg>