<svg xmlns="http://www.w3.org/2000/svg" viewBox="0 0 576 512"><path fill="currentColor" d="M353 31c-35.9-35.9-94.1-35.9-129.9 0-35.3 35.3-35.9 92.3-1.6 128.3l-85.7 79.1c-6.7 6.1-9.3 15.5-6.8 24.2L186.5 464 56 464c-13.3 0-24 10.7-24 24s10.7 24 24 24l336 0c13.3 0 24-10.7 24-24s-10.7-24-24-24l-155.6 0-57.3-200.4 76.2-70.3 .7 .7 0 125.1c0 22.6 18.3 41 41 41 10.9 0 21.3-4.3 29-12L540 133.9c7.7-7.7 12-18.1 12-29 0-22.6-18.3-41-41-41l-125.1 0-33-33zM257 65c17.1-17.1 44.9-17.1 62.1 0l40 40c4.5 4.5 10.6 7 17 7L494.1 112 304 302.1 304 184c0-6.4-2.5-12.5-7-17l-40-40c-17.1-17.1-17.1-44.9 0-62.1z"/></svg>