<svg xmlns="http://www.w3.org/2000/svg" viewBox="0 0 512 512"><path fill="currentColor" d="M172 48C103.5 48 48 103.5 48 172l0 316c0 13.3-10.7 24-24 24S0 501.3 0 488L0 172C0 77 77 0 172 0 263.4 0 338.2 71.4 343.7 161.4 428 171.8 495.5 236.9 509.4 320.1 512.3 337.6 497.7 352 480 352l-73.5 0c-7.5 41-43.4 72-86.5 72s-79-31-86.5-72L160 352c-17.7 0-32.3-14.4-29.4-31.9 13.9-83 80.9-147.9 164.9-158.6-5.3-63.6-58.6-113.5-123.6-113.5zM283.3 352c6.2 14.1 20.3 24 36.7 24s30.5-9.9 36.7-24l-73.3 0zm172.5-48c-19.8-55.9-73.1-96-135.8-96s-116.1 40.1-135.8 96l271.6 0z"/></svg>