<svg xmlns="http://www.w3.org/2000/svg" viewBox="0 0 512 512"><path fill="currentColor" d="M272-32l80 0c8.8 0 16 7.2 16 16l0 64c0 8.8-7.2 16-16 16l-80 0 0 48 184 0c13.3 0 24 10.7 24 24s-10.7 24-24 24l-8 0 0 208 8 0c13.3 0 24 10.7 24 24s-10.7 24-24 24L56 416c-13.3 0-24-10.7-24-24s10.7-24 24-24l8 0 0-208-8 0c-13.3 0-24-10.7-24-24s10.7-24 24-24l168 0 0-128c0-8.8 7.2-16 16-16l32 0zM112 368l64 0 0-208-64 0 0 208zm112 0l64 0 0-208-64 0 0 208zm112 0l64 0 0-208-64 0 0 208zM24 464l464 0c13.3 0 24 10.7 24 24s-10.7 24-24 24L24 512c-13.3 0-24-10.7-24-24s10.7-24 24-24z"/></svg>