<svg xmlns="http://www.w3.org/2000/svg" viewBox="0 0 640 512"><path fill="currentColor" d="M301.7 11.9l25.6 16.8C317 41 308.5 54.7 302.1 69.6l-13.6-8.9-151.6 99.3 153.3 0c2.4 16.9 7.4 33.1 14.5 48l-48.2 0 0 160 64 0 0-133.3c12.9 17.8 29.2 32.9 48 44.5l0 88.9 64 0 0-65.7c7.8 1.1 15.8 1.7 24 1.7s16.2-.6 24-1.7l0 65.7 8 0c13.3 0 24 10.7 24 24s-10.7 24-24 24l-400 0c-13.3 0-24-10.7-24-24s10.7-24 24-24l8 0 0-160-40 0c-10.6 0-20-7-23-17.1s1-21.1 9.8-26.9l232-152c8-5.2 18.3-5.2 26.3 0zM144.5 368l64 0 0-160-64 0 0 160zm-88 96l464 0c13.3 0 24 10.7 24 24s-10.7 24-24 24l-464 0c-13.3 0-24-10.7-24-24s10.7-24 24-24zm400-256a72 72 0 1 0 0-144 72 72 0 1 0 0 144zm0 48c-66.3 0-120-53.7-120-120s53.7-120 120-120 120 53.7 120 120c0 24.5-7.3 47.3-19.9 66.3l60.9 60.9c9.4 9.4 9.4 24.6 0 33.9s-24.6 9.4-33.9 0l-60.9-60.9c-19 12.5-41.7 19.8-66.1 19.8z"/></svg>