<svg xmlns="http://www.w3.org/2000/svg" viewBox="0 0 512 512"><path fill="currentColor" d="M256 0c13.3 0 24 10.7 24 24l0 9.5C369.5 44.6 439.9 117.4 447.3 208l8.7 0c13.3 0 24 10.7 24 24s-10.7 24-24 24l-8 0 0 112 8 0c13.3 0 24 10.7 24 24s-10.7 24-24 24L56 416c-13.3 0-24-10.7-24-24s10.7-24 24-24l8 0 0-112-8 0c-13.3 0-24-10.7-24-24s10.7-24 24-24l8.7 0C72.1 117.4 142.5 44.6 232 33.5l0-9.5c0-13.3 10.7-24 24-24zM112.9 208l286.2 0c-8-72-69-128-143.1-128S120.8 136 112.9 208zm-.9 48l0 112 64 0 0-112-64 0zm112 0l0 112 64 0 0-112-64 0zm112 0l0 112 64 0 0-112-64 0zM24 464l464 0c13.3 0 24 10.7 24 24s-10.7 24-24 24L24 512c-13.3 0-24-10.7-24-24s10.7-24 24-24z"/></svg>