<svg xmlns="http://www.w3.org/2000/svg" viewBox="0 0 512 512"><path fill="currentColor" d="M242.9 11.9c8-5.2 18.3-5.2 26.3 0l232 152c8.9 5.8 12.9 16.8 9.8 26.9S498.6 208 488 208l-40 0 0 160 8 0c13.3 0 24 10.7 24 24s-10.7 24-24 24L56 416c-13.3 0-24-10.7-24-24s10.7-24 24-24l8 0 0-160-40 0c-10.6 0-20-7-23-17.1s1-21.1 9.8-26.9l232-152zM112 368l64 0 0-160-64 0 0 160zm112 0l64 0 0-160-64 0 0 160zm112 0l64 0 0-160-64 0 0 160zM104.4 160L407.6 160 256 60.7 104.4 160zM24 464l464 0c13.3 0 24 10.7 24 24s-10.7 24-24 24L24 512c-13.3 0-24-10.7-24-24s10.7-24 24-24z"/></svg>