<svg xmlns="http://www.w3.org/2000/svg" viewBox="0 0 640 512"><path fill="currentColor" d="M128 80l384 0c8.8 0 16 7.2 16 16l0 208 48 0 0-208c0-35.3-28.7-64-64-64L128 32C92.7 32 64 60.7 64 96l0 208 48 0 0-208c0-8.8 7.2-16 16-16zM52.8 400l534.4 0c-8.5 18.9-27.5 32-49.6 32l-435.2 0c-22.1 0-41.1-13.1-49.6-32zM25.6 352C11.5 352 0 363.5 0 377.6 0 434.2 45.8 480 102.4 480l435.2 0c56.6 0 102.4-45.8 102.4-102.4 0-14.1-11.5-25.6-25.6-25.6L25.6 352zM281 169c9.4-9.4 9.4-24.6 0-33.9s-24.6-9.4-33.9 0l-48 48c-9.4 9.4-9.4 24.6 0 33.9l48 48c9.4 9.4 24.6 9.4 33.9 0s9.4-24.6 0-33.9l-31-31 31-31zM393 135c-9.4-9.4-24.6-9.4-33.9 0s-9.4 24.6 0 33.9l31 31-31 31c-9.4 9.4-9.4 24.6 0 33.9s24.6 9.4 33.9 0l48-48c9.4-9.4 9.4-24.6 0-33.9l-48-48z"/></svg>