<svg xmlns="http://www.w3.org/2000/svg" viewBox="0 0 640 512"><path fill="currentColor" d="M239.4-9.3c9.3-8.9 24-8.9 33.3 0l216 208c9.5 9.2 9.8 24.4 .6 33.9s-24.4 9.8-33.9 .6L256 41.3 112 180 112 384c0 8.8 7.2 16 16 16l112 0 0 48-112 0c-35.3 0-64-28.7-64-64l0-157.8-7.4 7.1c-9.5 9.2-24.7 8.9-33.9-.6s-8.9-24.7 .6-33.9l216-208zM304 216l0 40c-23.7 0-44.4 12.9-55.4 32L232 288c-13.3 0-24-10.7-24-24l0-48c0-13.3 10.7-24 24-24l48 0c13.3 0 24 10.7 24 24zm32 136l0 144 192 0 0-144-192 0zm-48-16c0-17.7 14.3-32 32-32l224 0c17.7 0 32 14.3 32 32l0 160 36 0c6.6 0 12 5.4 12 12 0 19.9-16.1 36-36 36l-312 0c-19.9 0-36-16.1-36-36 0-6.6 5.4-12 12-12l36 0 0-160z"/></svg>