<svg xmlns="http://www.w3.org/2000/svg" viewBox="0 0 576 512"><path fill="currentColor" d="M112 64c0-8.8 7.2-16 16-16l288 0c8.8 0 16 7.2 16 16l0 48 48 0 0-48c0-35.3-28.7-64-64-64L128 0C92.7 0 64 28.7 64 64l0 160-38.4 0C11.5 224 0 235.5 0 249.6 0 306.2 45.8 352 102.4 352l137.6 0 0-48-137.6 0c-22.1 0-41.1-13.1-49.6-32l187.2 0 0-48-128 0 0-160zM416 208l0 48c0 17.7 14.3 32 32 32l48 0 0 176-160 0 0-256 80 0zm-80-48c-26.5 0-48 21.5-48 48l0 256c0 26.5 21.5 48 48 48l160 0c26.5 0 48-21.5 48-48l0-188.1c0-12.7-5.1-24.9-14.1-33.9l-67.9-67.9c-9-9-21.2-14.1-33.9-14.1L336 160z"/></svg>