<svg xmlns="http://www.w3.org/2000/svg" viewBox="0 0 640 512"><path fill="currentColor" d="M344 24l0 182.1 39-39c9.4-9.4 24.6-9.4 33.9 0s9.4 24.6 0 33.9l-80 80c-9.4 9.4-24.6 9.4-33.9 0l-80-80c-9.4-9.4-9.4-24.6 0-33.9s24.6-9.4 33.9 0l39 39 0-182.1c0-13.3 10.7-24 24-24s24 10.7 24 24zM128 32l112 0 0 48-112 0c-8.8 0-16 7.2-16 16l0 208-48 0 0-208c0-35.3 28.7-64 64-64zM512 80l-112 0 0-48 112 0c35.3 0 64 28.7 64 64l0 208-48 0 0-208c0-8.8-7.2-16-16-16zM102.4 432l435.2 0c22.1 0 41.1-13.1 49.6-32L52.8 400c8.5 18.9 27.5 32 49.6 32zM0 377.6C0 363.5 11.5 352 25.6 352l588.8 0c14.1 0 25.6 11.5 25.6 25.6 0 56.6-45.8 102.4-102.4 102.4l-435.2 0C45.8 480 0 434.2 0 377.6z"/></svg>