<svg xmlns="http://www.w3.org/2000/svg" viewBox="0 0 640 512"><path fill="currentColor" d="M73-24.9c-9.4-9.4-24.6-9.4-33.9 0S29.7-.3 39 9.1l528 528c9.4 9.4 24.6 9.4 33.9 0s9.4-24.6 0-33.9l-29-29c39.7-14.1 68.1-52 68.1-96.5 0-14.1-11.5-25.6-25.6-25.6l-164.6 0-272-272 334.2 0c8.8 0 16 7.2 16 16l0 208 48 0 0-208c0-35.3-28.7-64-64-64L129.8 32 73-24.9zM497.8 400l89.3 0c-8.5 18.9-27.5 32-49.6 32l-7.8 0-32-32zM394.2 432l-291.8 0c-22.1 0-41.1-13.1-49.6-32l309.4 0-48-48-288.6 0C11.5 352 0 363.5 0 377.6 0 434.2 45.8 480 102.4 480l339.8 0-48-48zM112 149.8l-48-48 0 202.2 48 0 0-154.2z"/></svg>