<svg xmlns="http://www.w3.org/2000/svg" viewBox="0 0 640 512"><path fill="currentColor" d="M128 80l384 0c8.8 0 16 7.2 16 16l0 208 48 0 0-208c0-35.3-28.7-64-64-64L128 32C92.7 32 64 60.7 64 96l0 208 48 0 0-208c0-8.8 7.2-16 16-16zM52.8 400l534.4 0c-8.5 18.9-27.5 32-49.6 32l-435.2 0c-22.1 0-41.1-13.1-49.6-32zM25.6 352C11.5 352 0 363.5 0 377.6 0 434.2 45.8 480 102.4 480l435.2 0c56.6 0 102.4-45.8 102.4-102.4 0-14.1-11.5-25.6-25.6-25.6L25.6 352zM200 128c-22.1 0-40 17.9-40 40l0 32c0 22.1 17.9 40 40 40l16 0c22.1 0 40-17.9 40-40l0-32c0-22.1-17.9-40-40-40l-16 0zm-8 40c0-4.4 3.6-8 8-8l16 0c4.4 0 8 3.6 8 8l0 32c0 4.4-3.6 8-8 8l-16 0c-4.4 0-8-3.6-8-8l0-32zm112-40c-8.8 0-16 7.2-16 16s7.2 16 16 16l0 64c0 8.8 7.2 16 16 16s16-7.2 16-16l0-80c0-8.8-7.2-16-16-16l-16 0zm80 40l0 32c0 22.1 17.9 40 40 40l16 0c22.1 0 40-17.9 40-40l0-32c0-22.1-17.9-40-40-40l-16 0c-22.1 0-40 17.9-40 40zm40-8l16 0c4.4 0 8 3.6 8 8l0 32c0 4.4-3.6 8-8 8l-16 0c-4.4 0-8-3.6-8-8l0-32c0-4.4 3.6-8 8-8zM192 272c-8.8 0-16 7.2-16 16s7.2 16 16 16l32 0 0-16c0-8.8-7.2-16-16-16l-16 0zm256 16c0-8.8-7.2-16-16-16l-16 0c-8.8 0-16 7.2-16 16s7.2 16 16 16l32 0 0-16zM328 272l-16 0c-19.4 0-35.5 13.7-39.2 32l94.4 0c-3.7-18.3-19.8-32-39.2-32z"/></svg>