<svg xmlns="http://www.w3.org/2000/svg" viewBox="0 0 576 512"><path fill="currentColor" d="M112 64c0-8.8 7.2-16 16-16l288 0c8.8 0 16 7.2 16 16l0 48 48 0 0-48c0-35.3-28.7-64-64-64L128 0C92.7 0 64 28.7 64 64l0 160-38.4 0C11.5 224 0 235.5 0 249.6 0 306.2 45.8 352 102.4 352l153.6 0 0-48-153.6 0c-22.1 0-41.1-13.1-49.6-32l203.2 0 0-48-144 0 0-160zM368 464c-8.8 0-16-7.2-16-16l0-224c0-8.8 7.2-16 16-16l112 0c8.8 0 16 7.2 16 16l0 224c0 8.8-7.2 16-16 16l-112 0zm0-304c-35.3 0-64 28.7-64 64l0 224c0 35.3 28.7 64 64 64l112 0c35.3 0 64-28.7 64-64l0-224c0-35.3-28.7-64-64-64l-112 0zm40 224c-13.3 0-24 10.7-24 24s10.7 24 24 24l32 0c13.3 0 24-10.7 24-24s-10.7-24-24-24l-32 0z"/></svg>