<svg xmlns="http://www.w3.org/2000/svg" viewBox="0 0 384 512"><path fill="currentColor" d="M144 0c13.3 0 24 10.7 24 24l0 41.5c7.9-1 15.9-1.5 24-1.5s16.1 .5 24 1.5L216 24c0-13.3 10.7-24 24-24s24 10.7 24 24l0 54c58.9 23.8 103.2 76 116.2 139.7 2.6 13-5.8 25.7-18.7 28.3s-25.7-5.8-28.3-18.7c-8.3-41-34-75.6-69.1-95.9L264 232c0 13.3-10.7 24-24 24s-24-10.7-24-24l0-118c-7.8-1.3-15.8-2-24-2s-16.2 .7-24 2l0 118c0 13.3-10.7 24-24 24s-24-10.7-24-24l0-100.7c-43 24.9-72 71.4-72 124.7 0 79.5 64.5 144 144 144l168 0c13.3 0 24 10.7 24 24s-10.7 24-24 24L24 448c-13.3 0-24-10.7-24-24s10.7-24 24-24l41 0C25.1 364.8 0 313.3 0 256 0 175.4 49.6 106.4 120 78l0-54c0-13.3 10.7-24 24-24z"/></svg>