<svg xmlns="http://www.w3.org/2000/svg" viewBox="0 0 576 512"><path fill="currentColor" d="M351-21.6c-2.3-6.3-8.3-10.4-15-10.4s-12.7 4.2-15 10.4L306.3 18.3 266.4 33c-6.3 2.3-10.4 8.3-10.4 15s4.2 12.7 10.4 15l39.8 14.7 14.7 39.8c2.3 6.3 8.3 10.4 15 10.4s12.7-4.2 15-10.4L365.7 77.7 405.6 63c6.3-2.3 10.4-8.3 10.4-15s-4.2-12.7-10.4-15L365.7 18.3 351-21.6zm-142.6 62c-36 7.9-68.8 21.2-96.1 38.8-46.1 29.7-80.3 74.4-80.3 128.7s34.2 99.1 80.3 128.7c8.5 5.5 17.6 10.5 27.1 15.2l44.7 24.9c14.7 8.2 23.9 23.9 23.9 40.9 0 25.5-20.7 46.3-45.9 46.3-7.8 0-15.5-2-22.3-5.8L83.7 427c-11.6-6.4-26.2-2.3-32.6 9.3s-2.3 26.2 9.3 32.6l56.2 31.2c13.9 7.8 29.6 11.8 45.6 11.8 52 0 93.9-42.6 93.9-94.3 0-12.4-2.4-24.5-7-35.7 12.7 1.3 25.8 2 39 2 67.1 0 129.3-17.4 175.7-47.3 46.1-29.7 80.3-74.4 80.3-128.7s-34.2-99.1-80.3-128.7c-1.9-1.3-3.9-2.5-5.9-3.7-7 14.7-19.6 26.5-35.6 32.5l-2.9 1.1c6.5 3.3 12.6 6.8 18.4 10.5 37.8 24.3 58.3 55.9 58.3 88.4s-20.4 64.1-58.3 88.4c-37.6 24.2-90.5 39.6-149.7 39.6-47.9 0-91.7-10.1-126.5-26.8L137.6 296c-37.4-24.3-57.6-55.7-57.6-88 0-32.4 20.4-64.1 58.3-88.4 22.7-14.6 51-26 82.9-32.8-8.3-10.9-13.1-24.5-13.1-38.9 0-2.5 .1-5 .4-7.5zM496 384c-6.7 0-12.7 4.2-15 10.4l-14.7 39.8-39.8 14.7c-6.3 2.3-10.4 8.3-10.4 15s4.2 12.7 10.4 15l39.8 14.7 14.7 39.8c2.3 6.3 8.3 10.4 15 10.4s12.7-4.2 15-10.4l14.7-39.8 39.8-14.7c6.3-2.3 10.4-8.3 10.4-15s-4.2-12.7-10.4-15l-39.8-14.7-14.7-39.8c-2.3-6.3-8.3-10.4-15-10.4z"/></svg>