<svg xmlns="http://www.w3.org/2000/svg" viewBox="0 0 512 512"><path fill="currentColor" d="M256 80c59.3 0 112.2 15.5 149.7 39.6 37.8 24.3 58.3 55.9 58.3 88.4s-20.4 64.1-58.3 88.4c-37.6 24.2-90.5 39.6-149.7 39.6-47.9 0-91.7-10.1-126.5-26.8L105.6 296C68.2 271.7 48 240.2 48 208 48 175.6 68.4 143.9 106.3 119.6 143.8 95.5 196.7 80 256 80zM217 382c12.7 1.3 25.8 2 39 2 67.1 0 129.3-17.4 175.7-47.3 46.1-29.7 80.3-74.4 80.3-128.7s-34.2-99.1-80.3-128.7C385.3 49.4 323.1 32 256 32S126.7 49.4 80.3 79.3C34.2 108.9 0 153.7 0 208s34.2 99.1 80.3 128.7c8.5 5.5 17.6 10.5 27.1 15.1l44.7 24.9c14.7 8.2 23.9 23.9 23.9 40.9 0 25.5-20.7 46.3-45.9 46.3-7.8 0-15.5-2-22.3-5.8L51.7 427c-11.6-6.4-26.2-2.3-32.6 9.3s-2.3 26.2 9.3 32.6l56.2 31.2c13.9 7.7 29.6 11.8 45.6 11.8 52 0 93.9-42.6 93.9-94.3 0-12.4-2.4-24.5-7-35.7z"/></svg>