<svg xmlns="http://www.w3.org/2000/svg" viewBox="0 0 512 512"><path fill="currentColor" d="M376 24c-13.3 0-24 10.7-24 24s10.7 24 24 24l112 0c13.3 0 24-10.7 24-24s-10.7-24-24-24L376 24zM259.4 144.7L430.8 224 259.4 303.2c-2.1 1-4.6 1-6.7 0L81.2 224 252.6 144.7c2.1-1 4.6-1 6.7 0zm20.1-43.6c-14.9-6.9-32.1-6.9-47 0L13.9 202.2C5.4 206.1 0 214.6 0 224s5.4 17.9 13.9 21.8l218.6 101c14.9 6.9 32.1 6.9 47 0l218.6-101c8.5-3.9 13.9-12.4 13.9-21.8s-5.4-17.9-13.9-21.8l-218.6-101zM82.7 330.4L13.9 362.2C5.4 366.1 0 374.6 0 384s5.4 17.9 13.9 21.8l218.6 101c14.9 6.9 32.1 6.9 47 0l218.6-101c8.5-3.9 13.9-12.4 13.9-21.8s-5.4-17.9-13.9-21.8l-68.7-31.8-57.2 26.4 58.7 27.1-171.4 79.2c-2.1 1-4.6 1-6.7 0L81.2 384 139.9 356.9 82.7 330.4z"/></svg>