<svg xmlns="http://www.w3.org/2000/svg" viewBox="0 0 512 512"><path fill="currentColor" d="M498.1 314.2c8.5 3.9 13.9 12.4 13.9 21.8s-5.4 17.9-13.9 21.8l-218.6 101-5.7 2.2c-13.5 4.5-28.3 3.8-41.3-2.2L13.9 357.7C5.4 353.8 0 345.3 0 336s5.4-17.9 13.9-21.8l68.7-31.8 57.2 26.4-58.7 27.1 171.5 79.3c2.1 1 4.6 1 6.7 0l171.4-79.3-58.7-27.1 57.2-26.5 68.8 31.8zM232.5 53.2c14.9-6.9 32.1-6.9 47 0l218.6 101c8.5 3.9 13.9 12.4 13.9 21.8s-5.4 17.9-13.9 21.8l-218.6 101-5.7 2.2c-13.5 4.5-28.3 3.8-41.3-2.2L13.9 197.7C5.4 193.8 0 185.3 0 176s5.4-17.9 13.9-21.8l218.6-101zm26.8 43.6c-2.1-1-4.6-1-6.7 0L81.2 176 252.7 255.2c2.1 1 4.6 1 6.7 0L430.8 176 259.3 96.7z"/></svg>