<svg xmlns="http://www.w3.org/2000/svg" viewBox="0 0 512 512"><path fill="currentColor" d="M492.7 .5C503.9 2.7 512 12.6 512 24l0 186.9C512 342.1 403.9 448 273.2 448 191.7 448 122 392.4 101.8 316.8 68.7 347.5 48 391.3 48 440l0 16c0 13.3-10.7 24-24 24S0 469.3 0 456l0-16c0-75.1 38.4-141.1 96.4-179.8 6.1-91.7 82.4-164.2 175.6-164.2 83.3 0 132.2-22.6 159.6-43.2 13.9-10.4 22.7-20.6 27.9-27.9 2.6-3.6 4.3-6.5 5.3-8.3 .5-.9 .8-1.6 1-1.9l.1-.2c0 0 0 .1 0 .1 4.4-10.5 15.6-16.4 26.8-14.2zM460.4 91.2c-36.6 27.4-95.8 52.8-188.4 52.8-70.7 0-128 57.3-128 128 0 70.4 58.3 128 129.2 128 104.7 0 190.8-84.9 190.8-189.1l0-122.6c-1.2 .9-2.4 1.9-3.6 2.8zM258.9 192c13.5 0 26.5 5.4 36 14.9l9.1 9.1 9.1-9.1c9.5-9.5 22.5-14.9 36-14.9l2.9 0c26.5 0 48 21.5 48 48 0 53.4-66.9 95.7-89 108.2-4.4 2.5-9.6 2.5-14 0-22.1-12.5-89-54.8-89-108.2 0-26.5 21.5-48 48-48l2.9 0z"/></svg>