<svg xmlns="http://www.w3.org/2000/svg" viewBox="0 0 448 512"><path fill="currentColor" d="M224-32c28.7 0 54.9 16.2 67.8 41.9l8.1 16.3c23.8-5.8 49.3 1.2 67 18.8l4.1 4.5c18.1 21.5 21.8 51.8 9.5 77.1l-2.9 5.3-7.3 12.1 11.9 0c36.3 0 65.7 29.4 65.7 65.7 0 20.6-9.7 39.9-25.9 52.3l-3.3 2.3-43 28.7 7 3.5 3.7 2c18.2 10.8 29.6 30.4 29.6 51.8 0 23.9-14.2 45.4-35.8 55l-4.4 1.8-57.4 20.3c-28.2 10-52.7 28.1-70.4 52.1l0 40.4c0 13.3-10.7 24-24 24s-24-10.8-24-24l0-40.3c-16.5-22.4-38.9-39.8-64.7-50.2l-5.6-2.1-57.5-20.3c-24.1-8.5-40.2-31.3-40.2-56.8 0-22.8 12.9-43.6 33.3-53.8l6.9-3.5-43-28.7C11 252.2 0 231.7 0 209.7 0 173.4 29.4 144 65.7 144l11.9 0-7.2-12.1C53.6 103.9 58 68.1 81.1 45l3.9-3.6c17.4-15 40.9-20.6 63.1-15.3l8.2-16.3 2.6-4.7C172.3-17.7 197.1-32 224-32zm0 48c-9.2 0-17.7 4.5-22.8 12l-2 3.4-12.7 25.4c-7.9 15.7-25.8 23.4-42.4 18.5l-3.3-1.1-.8-.3c-7.5-3-16-1.8-22.3 2.9L115 78.9c-7.5 7.5-9 19.2-3.5 28.3L126 131.4c16 26.7-3.2 60.6-34.2 60.6l-26.1 0c-9.8 0-17.7 8-17.7 17.7 0 5.9 3 11.4 7.9 14.7l54.5 36.4 4.5 3.4c19.3 17.1 17.4 48.2-3.9 62.8l-4.9 2.8-19.3 9.7c-4.1 2.1-6.7 6.3-6.8 10.9 0 5.2 3.3 9.8 8.2 11.5l57.4 20.3 7.5 2.8c16.9 6.7 32.6 15.8 46.9 26.7l0-227.7 .1-2.5c1.2-12.1 11.5-21.5 23.9-21.5s22.6 9.4 23.8 21.5l.2 2.5 0 227.8c16.4-12.6 34.7-22.6 54.4-29.6l57.4-20.3 1.8-.8c3.9-2.1 6.4-6.2 6.4-10.8 0-3.5-1.5-6.7-4-9l-2.8-1.9-19.3-9.7c-27.5-13.7-29.8-52-4.3-69l54.5-36.4c4.9-3.3 7.9-8.8 7.9-14.7 0-9.8-7.9-17.7-17.7-17.7l-26.1 0c-31.1 0-50.2-33.9-34.2-60.6l14.5-24.2 1.7-3.5c3.3-8.4 1.3-18.2-5.2-24.7-5.7-5.7-14-8-21.7-6.2l-3.2 1.1-.8 .3c-16.3 6.5-34.8 .3-44-14.3l-1.7-3-12.7-25.4C244.1 22 234.5 16 224 16z"/></svg>