<svg xmlns="http://www.w3.org/2000/svg" viewBox="0 0 576 512"><path fill="currentColor" d="M233.8 27c-38-36.5-98.4-36-135.8 1.5-5.9 5.9-10.9 12.4-15 19.3-12.9 21.9-32.3 42.2-52 58.2-2.3 1.8-4.4 3.8-6.5 5.9-25.8 25.8-31.1 64.4-15.9 95.4 5.7 11.7 11 24.1 11 37.1l0 35.7c0 14.7 5.8 28.8 16.3 39.2l26.3 26.3c10.4 10.4 16.3 24.5 16.3 39.2l0 12.9c0 2.9 .2 5.8 .7 8.7l7.6-7.6c6-6 9.4-14.1 9.4-22.6l0-45.7c0-25.5 10.1-49.9 28.1-67.9l10.5-10.5c6-6 9.4-14.1 9.4-22.6l0-43c0-25.5 10.1-49.9 28.1-67.9l29.1-29.1c5-5 8.8-12.9 13.7-27 4.4-12.9 10.8-24.8 18.9-35.5zM526 128c-9.1 35.4-9.7 73.9-6.3 106.9 .2 1.7 .3 3.4 .3 5.1 0 21-13.5 38.9-32.4 45.4-14.5 5-38.5 13.6-57.7 32.8l-29.1 29.1c-3 3-7.1 4.7-11.3 4.7l-43 0c-29.7 0-58.2 11.8-79.2 32.8l-10.5 10.5c-3 3-7.1 4.7-11.3 4.7l-35.5 0c79-79 127-127 144-144l86.1 0c13.3 0 24-10.7 24-24s-10.7-24-24-24l-38.1 0 71-71c9.4-9.4 9.4-24.6 0-33.9s-24.6-9.4-33.9 0l-112 112-7 7 0-38.1c0-13.3-10.7-24-24-24s-24 10.7-24 24l0 86.1-96 96 0-35.5c0-4.2 1.7-8.3 4.7-11.3l10.5-10.5c21-21 32.8-49.5 32.8-79.2l0-43c0-4.2 1.7-8.3 4.7-11.3l29.1-29.1c19.2-19.2 27.8-43.2 32.8-57.7 6.5-18.9 24.4-32.4 45.4-32.4 1.7 0 3.5 .1 5.1 .3 33 3.5 71.4 2.8 106.9-6.3 5.1-1.3 10.4-2 16-2 35.3 0 64 28.7 64 64 0 5.6-.7 10.9-2 16zM105 505l38.2-38.2c12-12 28.3-18.7 45.3-18.7l57 0c17 0 33.3-6.7 45.3-18.7l10.5-10.5c12-12 28.3-18.7 45.3-18.7l43 0c17 0 33.3-6.7 45.3-18.7l29.1-29.1c10.7-10.7 25-16.4 39.3-21.3 37.7-12.9 64.9-48.7 64.9-90.8 0-3.4-.2-6.8-.5-10.1-3.1-29.1-2.3-61.5 5-89.9 2.3-8.9 3.5-18.3 3.5-28 0-61.9-50.1-112-112-112-9.7 0-19 1.2-28 3.5-28.4 7.3-60.8 8.1-89.9 5-3.3-.3-6.7-.5-10.1-.5-42.1 0-77.9 27.1-90.8 64.9-4.9 14.3-10.6 28.6-21.3 39.3l-29.1 29.1c-12 12-18.7 28.3-18.7 45.3l0 43c0 17-6.7 33.3-18.7 45.3l-10.5 10.5c-12 12-18.7 28.3-18.7 45.3l0 57c0 17-6.7 33.3-18.7 45.3L71 471c-9.4 9.4-9.4 24.6 0 33.9s24.6 9.4 33.9 0z"/></svg>