<svg xmlns="http://www.w3.org/2000/svg" viewBox="0 0 576 512"><path fill="currentColor" d="M261.3 4.6c15.9-15.7 42.5-14.6 56.8 3.4l0 0 39 48.7 28.3 0 4.4 .2c21.9 2.5 37.6 23.4 33.1 45.6l0 0-9.7 48.4 5-4.5 3.5-2.8c16.9-12 40.5-8.3 52.9 8.3l2.5 3.8 12.2 21.2 40.2 10.8 3.7 1.2c18.1 6.9 28.5 26.5 23.4 45.7l0 0-10.8 40.1 12.3 21.3 2 4c8.3 19.1-.4 41.4-19.3 50l-4.2 1.6-106.4 34.3 4.4 25.3 0 0 .6 5.3c.9 24.4-21.5 43.6-45.5 38.9l-5.2-1.4-72.6-24.6 0 90.3c0 13.3-10.7 24-24 24s-24-10.7-24-24l0-90.5-74.1 24.7 0 0c-27.9 9.3-55.4-15.1-49.7-43.9l4.8-24.4-105.7-34.1 0 0C16.3 344.3 6 317.3 18.2 296.1l12.3-21.3-10.8-40.1 0 0c-5.5-20.5 6.7-41.5 27.1-46.9l40.2-10.8 12.3-21.2 2.5-3.8c12.4-16.7 36.1-20.4 53-8.3l3.5 2.8 5 4.5-9.7-48.4 0 0c-4.7-23.7 13.4-45.8 37.6-45.8l28.3 0 39-48.7 3-3.4zM249.6 95.7c-4.6 5.7-11.5 9-18.8 9l-28.1 0 21.7 108.1 .4 3.8c.3 8.8-4.2 17.3-12.1 21.8-9 5.1-20.3 3.9-28-3.1l-50-45.2-11.2 19.5c-2.4 4.1-5.9 7.4-10.2 9.5l-4.4 1.7-40.4 10.8 10.8 40.4c1.6 6.2 .8 12.7-2.4 18.2l-11.3 19.5 114.8 37.1c11.6 3.7 18.5 15.6 16.2 27.6l-5.8 29 73.5-24.5 0-162.9 .1-2.5c1.2-12.1 11.5-21.5 23.9-21.5s22.6 9.4 23.9 21.5l.1 2.5 0 163 72.6 24.6-5.2-29.8c-2-11.8 4.9-23.3 16.3-26.9l114.8-37.1-11.3-19.5c-3.2-5.5-4.1-12.1-2.4-18.2l10.8-40.4-40.4-10.8c-6.1-1.6-11.4-5.7-14.6-11.2l-11.3-19.5-50 45.2c-7.7 6.9-19 8.2-28 3.1S350 222.9 352 212.8l21.7-108.1-28.1 0c-7.3 0-14.2-3.3-18.8-9l-38.7-48.3-38.6 48.3z"/></svg>