<svg xmlns="http://www.w3.org/2000/svg" viewBox="0 0 512 512"><path fill="currentColor" d="M471.3 6.7C477.7 .6 487-1.6 495.6 1.2 505.4 4.5 512 13.7 512 24l0 186.9C512 342.1 403.9 448 273.2 448 191.7 448 121.9 392.4 101.8 316.8 68.7 347.4 48 391.3 48 440l0 16c0 13.3-10.7 24-24 24S0 469.2 0 456l0-16c0-75.1 38.3-141.2 96.4-179.9 6.1-91.7 82.4-164.1 175.6-164.1 66.4 0 115.8-22.1 148.7-44 19.2-12.8 35.5-28.1 50.7-45.3zM464 79.9c-38.3 29.5-102.4 64.1-192 64.1-57.6 0-106.4 38.1-122.4 90.4 20.9-6.8 43.2-10.4 66.4-10.4l80 0c13.3 0 24 10.8 24 24s-10.7 24-24 24l-80 0c-25.4 0-49.4 5.7-71 15.8 7.9 63.1 62.6 112.2 128.2 112.2 104.7 0 190.8-84.9 190.8-189.1l0-131z"/></svg>