<svg xmlns="http://www.w3.org/2000/svg" viewBox="0 0 512 512"><path fill="currentColor" d="M311 95L167 239c-9.4 9.4-9.4 24.6 0 33.9L311 417c6.9 6.9 17.2 8.9 26.2 5.2S352 409.7 352 400l0-64 112 0c26.5 0 48-21.5 48-48l0-64c0-26.5-21.5-48-48-48l-112 0 0-64c0-9.7-5.8-18.5-14.8-22.2S317.9 88.2 311 95zm-7 217l0 30.1-86.1-86.1 86.1-86.1 0 30.1c0 13.3 10.7 24 24 24l136 0 0 64-136 0c-6.4 0-12.5 2.5-17 7s-7 10.6-7 17zM168 432l-72 0c-26.5 0-48-21.5-48-48l0-256c0-26.5 21.5-48 48-48l72 0c13.3 0 24-10.7 24-24s-10.7-24-24-24L96 32C43 32 0 75 0 128L0 384c0 53 43 96 96 96l72 0c13.3 0 24-10.7 24-24s-10.7-24-24-24z"/></svg>