<svg xmlns="http://www.w3.org/2000/svg" viewBox="0 0 512 512"><path fill="currentColor" d="M7 273c-9.4-9.4-9.4-24.6 0-33.9L151 95c6.9-6.9 17.2-8.9 26.2-5.2S192 102.3 192 112l0 64 64 0 0 0 80 0c26.5 0 48 21.5 48 48l0 64c0 26.5-21.5 48-48 48l-144 0 0 64c0 9.7-5.8 18.5-14.8 22.2s-19.3 1.7-26.2-5.2L7 273zm249 15l80 0 0-64-80 0 0 0-88 0c-13.3 0-24-10.7-24-24l0-30.1-86.1 86.1 86.1 86.1 0-30.1c0-13.3 10.7-24 24-24l88 0zM512 96a32 32 0 1 1 -64 0 32 32 0 1 1 64 0zm0 106.7a32 32 0 1 1 -64 0 32 32 0 1 1 64 0zM480 341.3a32 32 0 1 1 0-64 32 32 0 1 1 0 64zM512 416a32 32 0 1 1 -64 0 32 32 0 1 1 64 0z"/></svg>