<svg xmlns="http://www.w3.org/2000/svg" viewBox="0 0 512 512"><path fill="currentColor" d="M7 239c-9.4 9.4-9.4 24.6 0 33.9L151 417c6.9 6.9 17.2 8.9 26.2 5.2S192 409.7 192 400l0-64 112 0c26.5 0 48-21.5 48-48l0-64c0-26.5-21.5-48-48-48l-112 0 0-64c0-9.7-5.8-18.5-14.8-22.2S157.9 88.2 151 95L7 239zm137 73l0 30.1-86.1-86.1 86.1-86.1 0 30.1c0 13.3 10.7 24 24 24l136 0 0 64-136 0c-13.3 0-24 10.7-24 24zM344 432c-13.3 0-24 10.7-24 24s10.7 24 24 24l72 0c53 0 96-43 96-96l0-256c0-53-43-96-96-96l-72 0c-13.3 0-24 10.7-24 24s10.7 24 24 24l72 0c26.5 0 48 21.5 48 48l0 256c0 26.5-21.5 48-48 48l-72 0z"/></svg>