<svg xmlns="http://www.w3.org/2000/svg" viewBox="0 0 512 512"><path fill="currentColor" d="M24 64c13.3 0 24 10.7 24 24l0 336c0 13.3-10.7 24-24 24S0 437.3 0 424L0 88C0 74.7 10.7 64 24 64zM135 273c-4.5-4.5-7-10.6-7-17s2.5-12.5 7-17L279 95c6.9-6.9 17.2-8.9 26.2-5.2S320 102.3 320 112l0 64 64 0 0 0 80 0c26.5 0 48 21.5 48 48l0 64c0 26.5-21.5 48-48 48l-144 0 0 64c0 9.7-5.8 18.5-14.8 22.2s-19.3 1.7-26.2-5.2L135 273zm249 15l80 0 0-64-80 0 0 0-88 0c-6.4 0-12.5-2.5-17-7s-7-10.6-7-17l0-30.1-86.1 86.1 86.1 86.1 0-30.1c0-13.3 10.7-24 24-24l88 0z"/></svg>