<svg xmlns="http://www.w3.org/2000/svg" viewBox="0 0 640 512"><path fill="currentColor" d="M0 88C0 74.7 10.7 64 24 64S48 74.7 48 88l0 336c0 13.3-10.7 24-24 24S0 437.3 0 424L0 88zm272 78.6L182.6 256 272 345.4 272 312c0-13.3 10.7-24 24-24l296 0 0-64-296 0c-13.3 0-24-10.7-24-24l0-33.4zm-134.6 112c-12.5-12.5-12.5-32.8 0-45.3l128-128c9.2-9.2 22.9-11.9 34.9-6.9l0 0c12 5 19.8 16.6 19.8 29.6l0 48 272 0c26.5 0 48 21.5 48 48l0 64c0 26.5-21.5 48-48 48l-272 0 0 48c0 12.9-7.8 24.6-19.8 29.6l0 0c-12 5-25.7 2.2-34.9-6.9l-128-128z"/></svg>