<svg xmlns="http://www.w3.org/2000/svg" viewBox="0 0 576 512"><path fill="currentColor" d="M224.4 140.1l-28.1-28.1 92.1-92.1 28.1 28.1-92.1 92.1zm-67.7 .2l39.4 39.4c11.2 11.2 27.4 14.4 41.5 9.5l41.8 41.8-232 232c-9.4 9.4-9.4 24.6 0 33.9s24.6 9.4 33.9 0l232-232 41.8 41.8c-4.9 14-1.7 30.3 9.5 41.5l39.4 39.4c15.6 15.6 40.9 15.6 56.6 0L564.1 284.3c15.6-15.6 15.6-40.9 0-56.6l-39.4-39.4c-11.2-11.2-27.4-14.4-41.5-9.5L365.6 61.2c4.9-14 1.7-30.3-9.5-41.5L316.7-19.7c-15.6-15.6-40.9-15.6-56.6 0L156.7 83.7c-15.6 15.6-15.6 40.9 0 56.6zm289.8 69.7l-60.1 60.1-112-112 60.1-60.1 112 112zM524.6 256l-92.1 92.1-28.1-28.1 92.1-92.1 28.1 28.1z"/></svg>