<svg xmlns="http://www.w3.org/2000/svg" viewBox="0 0 384 512"><path fill="currentColor" d="M192 0c106 0 192 86 192 192 0 51.2-20 97.7-52.7 132.1-23.6 24.9-43.3 55.3-43.3 89.6l0 18.3c0 44.2-35.8 80-80 80l-32 0c-44.2 0-80-35.8-80-80l0-18.3C96 379.4 76.3 349 52.7 324.1 20 289.7 0 243.2 0 192 0 86 86 0 192 0zm0 48c-79.5 0-144 64.5-144 144 0 38.4 15 73.2 39.5 99.1 21.3 22.4 44.9 54 53.3 92.9l102.4 0c8.4-39 32-70.5 53.3-92.9 24.5-25.9 39.5-60.7 39.5-99.1 0-79.5-64.5-144-144-144zm0 264a32 32 0 1 1 0-64 32 32 0 1 1 0 64zm0-208c18.6 0 33 16.1 31 34.6l-7.1 64.1C214.5 214.8 204.2 224 192 224s-22.5-9.2-23.8-21.3L161 138.6c-2-18.5 12.4-34.6 31-34.6z"/></svg>