<svg xmlns="http://www.w3.org/2000/svg" viewBox="0 0 576 512"><path fill="currentColor" d="M224.5 48c75.5 0 137.4 58 143.5 131.9 7.7-2.8 16-4.3 24.7-4.3l23.2 0c-8.3-98.4-90.8-175.6-191.3-175.6-106 0-192 86-192 192 0 51.2 20 97.7 52.7 132.1 23.6 24.9 43.3 55.3 43.3 89.6l0 18.3c0 44.2 35.8 80 80 80l32 0c3.5 0 6.9-.2 10.2-.6-.9-1.3-1.7-2.7-2.4-4.1l-22.5-40.4c-15.3-27.4-10.8-60.6 9-82.9l-61.5 0c-8.4-39-32-70.5-53.3-92.9-24.5-25.9-39.5-60.7-39.5-99.1 0-79.5 64.5-144 144-144zm-48 136c0-22.1 17.9-40 40-40 13.3 0 24-10.7 24-24s-10.7-24-24-24c-48.6 0-88 39.4-88 88 0 13.3 10.7 24 24 24s24-10.7 24-24zm192.2 63.6l0 5.9c0 19-24.2 33-40.7 23.5l-4.8-2.8c-11.6-6.7-26.4-2.6-32.9 9.1l-22.5 40.3c-6.3 11.2-2.6 25.3 8.3 32.1l4.5 2.8c16.3 10.1 16.2 40.1 0 50.2l-4.4 2.7c-10.9 6.8-14.6 20.9-8.3 32.1l22.5 40.4c6.5 11.7 21.4 15.8 33 9.1l4.8-2.8c16.5-9.5 40.7 4.5 40.7 23.5l0 5.9c0 13.3 10.7 24 24 24l48 0c13.3 0 24-10.7 24-24l0-6.1c0-18.9 24.1-32.8 40.5-23.4l4.9 2.9c11.6 6.7 26.5 2.6 33-9.1l22.4-40.4c6.2-11.2 2.5-25.3-8.3-32l-4.6-2.9c-16.2-10.1-16.2-39.9 0-50.1l4.7-2.9c10.8-6.8 14.4-20.8 8.2-32L543 283.3c-6.5-11.7-21.4-15.8-33-9.1l-5 2.9c-16.4 9.5-40.5-4.5-40.5-23.4l0-6.1c0-13.3-10.7-24-24-24l-48 0c-13.3 0-24 10.7-24 24zm-4.1 136.2a52 52 0 1 1 104 0 52 52 0 1 1 -104 0z"/></svg>