<svg xmlns="http://www.w3.org/2000/svg" viewBox="0 0 576 512"><path fill="currentColor" d="M275.4 3.6c7.7-4.7 17.4-4.7 25.2 0l104 64c11.3 6.9 14.8 21.7 7.9 33-6 9.8-18 13.8-28.4 10.1l0 49.4 8 0c13.3 0 24 10.7 24 24 0 12.7-9.9 23.1-22.4 23.9L444.8 464 456 464c13.3 0 24 10.7 24 24s-10.7 24-24 24l-336 0c-13.3 0-24-10.7-24-24s10.7-24 24-24l11.2 0 51.2-256.1c-12.5-.8-22.4-11.2-22.4-23.9 0-13.3 10.7-24 24-24l8 0 0-49.4c-10.4 3.7-22.4-.2-28.4-10.1-6.9-11.3-3.4-26.1 7.9-33l104-64zM336 81.7l-48-29.5-48 29.5 0 78.3 96 0 0-78.3zM180.2 464l75.8 0 0-64c0-17.7 14.3-32 32-32s32 14.3 32 32l0 64 75.8 0-51.2-256-113.3 0-51.2 256zM42.7 10.5l64 32c11.9 5.9 16.7 20.3 10.7 32.2S97.1 91.4 85.3 85.5l-64-32C9.4 47.5 4.6 33.1 10.5 21.3S30.9 4.6 42.7 10.5zm64 202.9l-64 32c-11.9 5.9-26.3 1.1-32.2-10.7s-1.1-26.3 10.7-32.2l64-32c11.9-5.9 26.3-1.1 32.2 10.7s1.1 26.3-10.7 32.2zM565.5 21.3c5.9 11.9 1.1 26.3-10.7 32.2l-64 32c-11.9 5.9-26.3 1.1-32.2-10.7s-1.1-26.3 10.7-32.2l64-32c11.9-5.9 26.3-1.1 32.2 10.7zm-106.9 160c5.9-11.9 20.3-16.7 32.2-10.7l64 32c11.9 5.9 16.7 20.3 10.7 32.2s-20.3 16.7-32.2 10.7l-64-32c-11.9-5.9-16.7-20.3-10.7-32.2z"/></svg>