<svg xmlns="http://www.w3.org/2000/svg" viewBox="0 0 640 512"><path fill="currentColor" d="M69.3 36l48 32c11 7.4 14 22.3 6.7 33.3s-22.3 14-33.3 6.7l-48-32c-11-7.4-14-22.3-6.7-33.3s22.3-14 33.3-6.7zM597.3 76l-48 32c-11 7.4-25.9 4.4-33.3-6.7s-4.4-25.9 6.7-33.3l48-32c11-7.4 25.9-4.4 33.3 6.7s4.4 25.9-6.7 33.3zM24 192l48 0c13.3 0 24 10.7 24 24s-10.7 24-24 24l-48 0c-13.3 0-24-10.7-24-24s10.7-24 24-24zm544 0l48 0c13.3 0 24 10.7 24 24s-10.7 24-24 24l-48 0c-13.3 0-24-10.7-24-24s10.7-24 24-24zM496 320c26.5 0 48 21.5 48 48l0 64c0 26.5-21.5 48-48 48l-352 0c-26.5 0-48-21.5-48-48l0-64c0-26.5 21.5-48 48-48l0-112c0-97.2 78.8-176 176-176s176 78.8 176 176l0 112zm-48 0l0-112c0-70.7-57.3-128-128-128S192 137.3 192 208l0 112 256 0zM144 432l352 0 0-64-352 0 0 64zM312 160c-22.1 0-40 17.9-40 40 0 13.3-10.7 24-24 24s-24-10.7-24-24c0-48.6 39.4-88 88-88 13.3 0 24 10.7 24 24s-10.7 24-24 24z"/></svg>