<svg xmlns="http://www.w3.org/2000/svg" viewBox="0 0 576 512"><path fill="currentColor" d="M336 192c0 17-2.9 33.2-8.3 48.4 2.7-.2 5.5-.4 8.3-.4l42 0c3.9-15.3 6-31.4 6-48 0-106-86-192-192-192S0 86 0 192C0 243.2 20 289.7 52.7 324.1 76.3 349 96 379.4 96 413.7L96 432c0 44.2 35.8 80 80 80l32 0c14.4 0 27.9-3.8 39.6-10.5-4.9-11.5-7.6-24.2-7.6-37.5l0-80-99.2 0c-8.4-39-32-70.5-53.3-92.9-24.5-25.9-39.5-60.7-39.5-99.1 0-79.5 64.5-144 144-144s144 64.5 144 144zm-192-8c0-22.1 17.9-40 40-40 13.3 0 24-10.7 24-24s-10.7-24-24-24c-48.6 0-88 39.4-88 88 0 13.3 10.7 24 24 24s24-10.7 24-24zM528 288l-192 0c-26.5 0-48 21.5-48 48l0 128c0 26.5 21.5 48 48 48l40 0 43.2 57.6c3 4 7.8 6.4 12.8 6.4s9.8-2.4 12.8-6.4l43.2-57.6 40 0c26.5 0 48-21.5 48-48l0-128c0-26.5-21.5-48-48-48z"/></svg>