<svg xmlns="http://www.w3.org/2000/svg" viewBox="0 0 384 512"><path fill="currentColor" d="M296.5 291.1C321 265.2 336 230.4 336 192 336 112.5 271.5 48 192 48S48 112.5 48 192c0 38.4 15 73.2 39.5 99.1 21.3 22.4 44.9 54 53.3 92.9l102.4 0c8.4-39 32-70.5 53.3-92.9zm34.8 33C307.7 349 288 379.4 288 413.7l0 18.3c0 44.2-35.8 80-80 80l-32 0c-44.2 0-80-35.8-80-80l0-18.3C96 379.4 76.3 349 52.7 324.1 20 289.7 0 243.2 0 192 0 86 86 0 192 0S384 86 384 192c0 51.2-20 97.7-52.7 132.1zM196 88c11 0 20 9 20 20l0 4 8 0c11 0 20 9 20 20s-9 20-20 20l-43.4 0c-4.7 0-8.6 3.8-8.6 8.6 0 4.1 2.9 7.6 6.9 8.4l34.1 6.8c22.7 4.5 39 24.5 39 47.6 0 22.5-15.3 41.4-36 46.9l0 5.6c0 11-9 20-20 20s-20-9-20-20l0-4-16 0c-11 0-20-9-20-20s9-20 20-20l43.4 0c4.7 0 8.6-3.8 8.6-8.6 0-4.1-2.9-7.6-6.9-8.4L171 208.2c-22.7-4.5-39-24.5-39-47.6 0-25.3 19.3-46.1 44-48.4l0-4.2c0-11 9-20 20-20z"/></svg>