<svg xmlns="http://www.w3.org/2000/svg" viewBox="0 0 640 512"><path fill="currentColor" d="M320 0c106 0 192 86 192 192 0 51.2-20 97.7-52.7 132.1-23.6 24.9-43.3 55.3-43.3 89.6l0 18.3c0 44.2-35.8 80-80 80l-32 0c-44.2 0-80-35.8-80-80l0-18.3C224 379.4 204.3 349 180.7 324.1 148 289.7 128 243.2 128 192 128 86 214 0 320 0zm0 48c-79.5 0-144 64.5-144 144 0 38.4 15 73.2 39.5 99.1 21.3 22.4 44.9 54 53.3 92.9l102.4 0c8.4-39 32-70.5 53.3-92.9 24.5-25.9 39.5-60.7 39.5-99.1 0-79.5-64.5-144-144-144zM69.3 298.5c11.9-5.9 26.3-1.1 32.2 10.7s1.1 26.3-10.8 32.2l-32 16c-11.9 5.9-26.3 1.1-32.2-10.7s-1.1-26.3 10.8-32.2l32-16zm469.2 10.7c5.9-11.8 20.3-16.7 32.2-10.7l32 16c11.8 5.9 16.7 20.3 10.7 32.2-5.9 11.8-20.3 16.7-32.2 10.7l-32-16c-11.8-5.9-16.7-20.3-10.7-32.2zM320 312a32 32 0 1 1 0-64 32 32 0 1 1 0 64zm0-208c18.6 0 33 16.1 31 34.6l-7.1 64.1C342.5 214.8 332.2 224 320 224s-22.5-9.2-23.8-21.3L289 138.6c-2-18.5 12.4-34.6 31-34.6zM56 168c13.3 0 24 10.7 24 24s-10.7 24-24 24l-32 0c-13.3 0-24-10.7-24-24s10.7-24 24-24l32 0zm560 0c13.3 0 24 10.7 24 24s-10.7 24-24 24l-32 0c-13.3 0-24-10.7-24-24s10.7-24 24-24l32 0zM26.5 37.3c5.9-11.9 20.3-16.7 32.2-10.8l32 16c11.9 5.9 16.7 20.3 10.8 32.2S81.1 91.4 69.3 85.5l-32-16C25.4 63.5 20.6 49.1 26.5 37.3zM581.3 26.5c11.9-5.9 26.3-1.1 32.2 10.8s1.1 26.3-10.7 32.2l-32 16c-11.9 5.9-26.3 1.1-32.2-10.8s-1.1-26.3 10.7-32.2l32-16z"/></svg>