<svg xmlns="http://www.w3.org/2000/svg" viewBox="0 0 576 512"><path fill="currentColor" d="M24 96C10.7 96 0 106.7 0 120s10.7 24 24 24l48 0 0 99.7c-32.5 10.2-56 40.5-56 76.3 0 48 56 128 80 128s80-80 80-128c0-35.8-23.5-66.1-56-76.3l0-99.7 144 0 0 99.7c-32.5 10.2-56 40.5-56 76.3 0 48 56 128 80 128s80-80 80-128c0-35.8-23.5-66.1-56-76.3l0-99.7 144 0 0 99.7c-32.5 10.2-56 40.5-56 76.3 0 48 56 128 80 128s80-80 80-128c0-35.8-23.5-66.1-56-76.3l0-99.7 48 0c13.3 0 24-10.7 24-24s-10.7-24-24-24L24 96zM288 288c17.7 0 32 14.3 32 32 0 3.6-1.3 11.3-5.8 22.6-4.3 10.8-10.4 22.4-17.4 33.1-3 4.6-6 8.7-8.8 12.4-2.8-3.7-5.8-7.8-8.8-12.4-7-10.7-13.1-22.3-17.4-33.1-4.5-11.4-5.8-19-5.8-22.6 0-17.7 14.3-32 32-32zM64 320c0-17.7 14.3-32 32-32s32 14.3 32 32c0 3.6-1.3 11.3-5.8 22.6-4.3 10.8-10.4 22.4-17.4 33.1-3 4.6-6 8.7-8.8 12.4-2.8-3.7-5.8-7.8-8.8-12.4-7-10.7-13.1-22.3-17.4-33.1-4.5-11.4-5.8-19-5.8-22.6zm384 0c0-17.7 14.3-32 32-32s32 14.3 32 32c0 3.6-1.3 11.3-5.8 22.6-4.3 10.8-10.4 22.4-17.4 33.1-3 4.6-6 8.7-8.8 12.4-2.8-3.7-5.8-7.8-8.8-12.4-7-10.7-13.1-22.3-17.4-33.1-4.5-11.4-5.8-19-5.8-22.6z"/></svg>