<svg xmlns="http://www.w3.org/2000/svg" viewBox="0 0 512 512"><path fill="currentColor" d="M113 39c-9.4-9.4-24.6-9.4-33.9 0L7 111c-9.4 9.4-9.4 24.6 0 33.9s24.6 9.4 33.9 0l31-31 0 284.1-31-31c-9.4-9.4-24.6-9.4-33.9 0S-2.3 391.6 7 401l72 72c9.4 9.4 24.6 9.4 33.9 0l72-72c9.4-9.4 9.4-24.6 0-33.9s-24.6-9.4-33.9 0l-31 31 0-284.1 31 31c9.4 9.4 24.6 9.4 33.9 0s9.4-24.6 0-33.9L113 39zM280 64c-13.3 0-24 10.7-24 24s10.7 24 24 24l208 0c13.3 0 24-10.7 24-24s-10.7-24-24-24L280 64zm0 168c-13.3 0-24 10.7-24 24s10.7 24 24 24l208 0c13.3 0 24-10.7 24-24s-10.7-24-24-24l-208 0zm0 168c-13.3 0-24 10.7-24 24s10.7 24 24 24l208 0c13.3 0 24-10.7 24-24s-10.7-24-24-24l-208 0z"/></svg>