<svg xmlns="http://www.w3.org/2000/svg" viewBox="0 0 576 512"><path fill="currentColor" d="M392 416c13.3 0 24 10.7 24 24l0 80c0 13.3-10.7 24-24 24s-24-10.7-24-24l0-80c0-13.3 10.7-24 24-24zm63-25c9.4-9.4 24.6-9.4 33.9 0l48 48c9.4 9.4 9.4 24.6 0 33.9s-24.6 9.4-33.9 0l-48-48c-9.4-9.4-9.4-24.6 0-33.9zM63 199c9.4-9.4 24.6-9.4 33.9 0s9.4 24.6 0 33.9L77.4 252.5c-18.8 18.8-29.4 44.4-29.4 71 0 55.5 45 100.4 100.4 100.4 26.6 0 52.2-10.6 71-29.4L303 311c9.4-9.4 24.6-9.4 33.9 0s9.4 24.6 0 33.9l-83.6 83.6c-27.8 27.8-65.6 43.5-105 43.5-82 0-148.4-66.5-148.4-148.4 0-39.4 15.6-77.1 43.5-105L63 199zM427.6 40c82 0 148.4 66.5 148.4 148.4 0 39.4-15.6 77.1-43.5 105L513 313c-9.4 9.4-24.6 9.4-33.9 0s-9.4-24.6 0-33.9l19.6-19.6c18.8-18.8 29.4-44.4 29.4-71 0-55.5-45-100.4-100.4-100.4-26.6 0-52.2 10.6-71 29.4L273 201c-9.4 9.4-24.6 9.4-33.9 0s-9.4-24.6 0-33.9l83.6-83.6C350.4 55.6 388.2 40 427.6 40zM39 39c9.4-9.4 24.6-9.4 33.9 0l48 48c9.4 9.4 9.4 24.6 0 33.9s-24.6 9.4-33.9 0L39 73c-9.4-9.4-9.4-24.6 0-33.9zM184-32c13.3 0 24 10.7 24 24l0 80c0 13.3-10.7 24-24 24s-24-10.7-24-24l0-80c0-13.3 10.7-24 24-24z"/></svg>