<svg xmlns="http://www.w3.org/2000/svg" viewBox="0 0 576 512"><path fill="currentColor" d="M41-24.9c-9.4-9.4-24.6-9.4-33.9 0S-2.3-.3 7 9.1l528 528c9.4 9.4 24.6 9.4 33.9 0s9.4-24.6 0-33.9l-83.9-83.9C539.7 385.4 576 324.9 576 256 576 150 490 64 384 64l-40 0c-13.3 0-24 10.7-24 24s10.7 24 24 24l40 0c79.5 0 144 64.5 144 144 0 55.8-31.7 104.1-78.1 128.1L345.8 280 392 280c13.3 0 24-10.7 24-24s-10.7-24-24-24l-94.2 0-119.4-119.4c4.5-.4 9-.6 13.5-.6l40 0c13.3 0 24-10.7 24-24s-10.7-24-24-24l-40 0c-18.9 0-37.1 2.7-54.4 7.8L41-24.9zm46.3 182l-34-34C20.3 157.7 0 204.5 0 256 0 362 86 448 192 448l40 0c13.3 0 24-10.7 24-24s-10.7-24-24-24l-40 0c-79.5 0-144-64.5-144-144 0-38.3 14.9-73.1 39.3-98.9z"/></svg>