<svg xmlns="http://www.w3.org/2000/svg" viewBox="0 0 576 512"><path fill="currentColor" d="M0 256C0 150 86 64 192 64l40 0c13.3 0 24 10.7 24 24s-10.7 24-24 24l-40 0c-79.5 0-144 64.5-144 144s64.5 144 144 144l40 0c13.3 0 24 10.7 24 24s-10.7 24-24 24l-40 0C86 448 0 362 0 256zm160 0c0-13.3 10.7-24 24-24l208 0c13.3 0 24 10.7 24 24s-10.7 24-24 24l-208 0c-13.3 0-24-10.7-24-24zM384 64c106 0 192 86 192 192S490 448 384 448l-40 0c-13.3 0-24-10.7-24-24s10.7-24 24-24l40 0c79.5 0 144-64.5 144-144S463.5 112 384 112l-40 0c-13.3 0-24-10.7-24-24s10.7-24 24-24l40 0z"/></svg>