<svg xmlns="http://www.w3.org/2000/svg" viewBox="0 0 640 512"><path fill="currentColor" d="M238.5 56c-36.6 0-71.4 16.4-94.6 44.8L29.4 240.8c-7.1 8.7-7.2 21.1-.3 30l76.7 98.1c47 60.1 119 95.2 195.3 95.2l37.7 0c76.3 0 148.3-35.1 195.3-95.2l76.7-98.1c6.9-8.8 6.8-21.3-.3-30L496 100.8c-23.2-28.4-57.9-44.8-94.6-44.8-20.1 0-39.9 5-57.6 14.4L320 83.2 296.1 70.4C278.4 61 258.6 56 238.5 56zm-57.4 75.2c14.1-17.2 35.2-27.2 57.4-27.2 12.2 0 24.2 3 35 8.8l35.2 18.8c7.1 3.8 15.6 3.8 22.6 0l35.2-18.8c10.8-5.7 22.8-8.8 35-8.8 22.2 0 43.3 10 57.4 27.2l102.4 125.1-64.9 82.9c-37.9 48.4-96 76.7-157.5 76.7l-37.7 0c-61.5 0-119.6-28.3-157.5-76.7L78.7 256.3 181.1 131.2zm50.5 38c-8.6-2.9-18.1-.6-24.6 5.8l-64 64c-5.1 5.1-7.6 12.2-6.9 19.3s4.6 13.6 10.6 17.6l47.6 31.8c35.5 23.7 77.2 36.3 119.8 36.3l11.7 0c42.6 0 84.3-12.6 119.8-36.3L493.3 276c6-4 9.9-10.4 10.6-17.6s-1.8-14.3-6.9-19.3l-64-64c-6.4-6.4-15.9-8.7-24.6-5.8l-88.4 29.5-88.4-29.5zm-33.9 83l32.8-32.8 81.9 27.3c4.9 1.6 10.3 1.6 15.2 0l81.9-27.3 32.8 32.8-23.3 15.5c-27.6 18.4-60 28.2-93.2 28.2l-11.7 0c-33.2 0-65.6-9.8-93.2-28.2l-23.3-15.5z"/></svg>