<svg xmlns="http://www.w3.org/2000/svg" viewBox="0 0 320 512"><path fill="currentColor" d="M63.5 256L24 256c-13.3 0-24-10.7-24-24s10.7-24 24-24l19.4 0C16.7 122.3 80.5 32 173.5 32l6.9 0c21.9 0 43.5 5.1 63.1 14.9l39.3 19.6c11.9 5.9 16.7 20.3 10.7 32.2s-20.3 16.7-32.2 10.7L222 89.8c-12.9-6.5-27.2-9.8-41.6-9.8l-6.9 0C109.6 80 67 146 93.3 204.2l1.7 3.8 169 0c13.3 0 24 10.7 24 24s-10.7 24-24 24l-150.5 0c2.6 10.5 4.1 21.3 4.6 32L264 288c13.3 0 24 10.7 24 24s-10.7 24-24 24l-150.5 0c-3.8 15.3-9.7 30.1-17.7 44L65.6 432 296 432c13.3 0 24 10.7 24 24s-10.7 24-24 24L24 480c-8.6 0-16.5-4.6-20.8-12s-4.3-16.6 0-24l50.9-88c3.7-6.4 6.8-13.1 9.2-20L24 336c-13.3 0-24-10.7-24-24s10.7-24 24-24l46.1 0c-.7-10.8-2.9-21.6-6.6-32z"/></svg>