<svg xmlns="http://www.w3.org/2000/svg" viewBox="0 0 512 512"><path fill="currentColor" d="M48 48c-26.5 0-48 21.5-48 48 0 17.8 9.7 33.3 24 41.6L24 384c0 30.9 25.1 56 56 56l54.4 0c8.3 14.3 23.8 24 41.6 24 26.5 0 48-21.5 48-48s-21.5-48-48-48c-17.8 0-33.3 9.7-41.6 24L80 392c-4.4 0-8-3.6-8-8l0-104 62.4 0c8.3 14.3 23.8 24 41.6 24 26.5 0 48-21.5 48-48s-21.5-48-48-48c-17.8 0-33.3 9.7-41.6 24l-62.4 0 0-94.4c14.3-8.3 24-23.8 24-41.6 0-26.5-21.5-48-48-48zM160 96c0 13.3 10.7 24 24 24l304 0c13.3 0 24-10.7 24-24s-10.7-24-24-24L184 72c-13.3 0-24 10.7-24 24zM288 256c0 13.3 10.7 24 24 24l176 0c13.3 0 24-10.7 24-24s-10.7-24-24-24l-176 0c-13.3 0-24 10.7-24 24zm0 160c0 13.3 10.7 24 24 24l176 0c13.3 0 24-10.7 24-24s-10.7-24-24-24l-176 0c-13.3 0-24 10.7-24 24z"/></svg>