<svg xmlns="http://www.w3.org/2000/svg" viewBox="0 0 576 512"><path fill="currentColor" d="M566.8 37.1c5.8 4.5 9.2 11.5 9.2 18.9l0 120c0 11-7.5 20.6-18.2 23.3L448 226.7 448 384c0 53-50.1 96-112 96s-112-43-112-96 50.1-96 112-96c23.8 0 45.9 6.4 64 17.2L400 88c0-11 7.5-20.6 18.2-23.3l128-32c7.2-1.8 14.8-.2 20.6 4.4zM336 336c-42.6 0-64 28.2-64 48s21.4 48 64 48 64-28.2 64-48-21.4-48-64-48zM448 177.3l80-20 0-70.5-80 20 0 70.5zM56 72l272 0c13.3 0 24 10.7 24 24s-10.7 24-24 24L56 120c-13.3 0-24-10.7-24-24S42.7 72 56 72zm0 160l144 0c13.3 0 24 10.7 24 24s-10.7 24-24 24L56 280c-13.3 0-24-10.7-24-24s10.7-24 24-24zm0 160l96 0c13.3 0 24 10.7 24 24s-10.7 24-24 24l-96 0c-13.3 0-24-10.7-24-24s10.7-24 24-24z"/></svg>