<svg xmlns="http://www.w3.org/2000/svg" viewBox="0 0 512 512"><path fill="currentColor" d="M0 96A64 64 0 1 1 128 96 64 64 0 1 1 0 96zM88 256a24 24 0 1 0 -48 0 24 24 0 1 0 48 0zM0 256a64 64 0 1 1 128 0 64 64 0 1 1 -128 0zM88 416a24 24 0 1 0 -48 0 24 24 0 1 0 48 0zM0 416a64 64 0 1 1 128 0 64 64 0 1 1 -128 0zM216 72l272 0c13.3 0 24 10.7 24 24s-10.7 24-24 24l-272 0c-13.3 0-24-10.7-24-24s10.7-24 24-24zm0 160l272 0c13.3 0 24 10.7 24 24s-10.7 24-24 24l-272 0c-13.3 0-24-10.7-24-24s10.7-24 24-24zm0 160l272 0c13.3 0 24 10.7 24 24s-10.7 24-24 24l-272 0c-13.3 0-24-10.7-24-24s10.7-24 24-24z"/></svg>