<svg xmlns="http://www.w3.org/2000/svg" viewBox="0 0 512 512"><path fill="currentColor" d="M32 64a32 32 0 1 0 0 64 32 32 0 1 0 0-64zm120 0c-13.3 0-24 10.7-24 24s10.7 24 24 24l336 0c13.3 0 24-10.7 24-24s-10.7-24-24-24L152 64zm0 168c-13.3 0-24 10.7-24 24s10.7 24 24 24l336 0c13.3 0 24-10.7 24-24s-10.7-24-24-24l-336 0zm0 168c-13.3 0-24 10.7-24 24s10.7 24 24 24l336 0c13.3 0 24-10.7 24-24s-10.7-24-24-24l-336 0zM64 256a32 32 0 1 0 -64 0 32 32 0 1 0 64 0zM32 384a32 32 0 1 0 0 64 32 32 0 1 0 0-64z"/></svg>