<svg xmlns="http://www.w3.org/2000/svg" viewBox="0 0 384 512"><path fill="currentColor" d="M48 188.6C48 111.7 111.7 48 192 48s144 63.7 144 140.6c0 45.6-23.8 101.5-58.9 157.1-28.3 44.8-61 84.8-85.1 112.1-24.1-27.3-56.7-67.2-85.1-112.1-35.1-55.5-58.9-111.5-58.9-157.1zM192 0C86 0 0 84.4 0 188.6 0 307.9 120.2 450.9 170.4 505.4 182.2 518.2 201.8 518.2 213.6 505.4 263.8 450.9 384 307.9 384 188.6 384 84.4 298 0 192 0zM160 192a32 32 0 1 1 64 0 32 32 0 1 1 -64 0zm112 0a80 80 0 1 0 -160 0 80 80 0 1 0 160 0z"/></svg>