<svg xmlns="http://www.w3.org/2000/svg" viewBox="0 0 576 512"><path fill="currentColor" d="M41-24.9c-9.4-9.4-24.6-9.4-33.9 0S-2.3-.3 7 9.1l528 528c9.4 9.4 24.6 9.4 33.9 0s9.4-24.6 0-33.9L422.6 356.7C454.8 302.9 480 243.3 480 188.6 480 84.4 394 0 288 0 227 0 172.6 28 137.4 71.6L41-24.9zM171.6 105.8c26.1-34.9 68.2-57.8 116.4-57.8 80.3 0 144 63.7 144 140.6 0 39-17.5 85.6-44.5 133.1L171.6 105.8zM333.1 402.9c-16.2 21.2-31.9 39.9-45.1 54.8-24.1-27.3-56.8-67.2-85.1-112.1-28.2-44.7-49.2-89.6-56.3-129.2L97.2 167.1c-.8 7.1-1.2 14.2-1.2 21.5 0 119.3 120.2 262.3 170.4 316.8 11.8 12.8 31.5 12.8 43.3 0 14.8-16 35.6-39.7 57.7-68.2l-34.2-34.2z"/></svg>