<svg xmlns="http://www.w3.org/2000/svg" viewBox="0 0 576 512"><path fill="currentColor" d="M41-24.9c-9.4-9.4-24.6-9.4-33.9 0S-2.3-.3 7 9.1l528 528c9.4 9.4 24.6 9.4 33.9 0s9.4-24.6 0-33.9L462.4 396.6c26.3-32.6 43.6-72.7 48.3-116.6l25.3 0c13.3 0 24-10.7 24-24s-10.7-24-24-24l-25.3 0C499.6 127.5 416.5 44.4 312 33.3L312 8c0-13.3-10.7-24-24-24S264-5.3 264 8l0 25.3c-43.9 4.7-84 22-116.6 48.3L41-24.9zM181.6 115.8c29.5-22.5 66.4-35.8 106.4-35.8 97.2 0 176 78.8 176 176 0 40-13.3 76.8-35.8 106.4l-45.9-45.9c11.2-17.4 17.7-38.2 17.7-60.5 0-61.9-50.1-112-112-112-22.3 0-43 6.5-60.5 17.7l-45.9-45.9zM346.9 281.1l-84-84c7.7-3.3 16.2-5.1 25.1-5.1 35.3 0 64 28.7 64 64 0 8.9-1.8 17.4-5.1 25.1zm3.8 139.4c-19.5 7.4-40.6 11.5-62.7 11.5-97.2 0-176-78.8-176-176 0-22.1 4.1-43.2 11.5-62.7L87.1 156.9C75.7 180 68.1 205.3 65.3 232L40 232c-13.3 0-24 10.7-24 24s10.7 24 24 24l25.3 0C76.4 384.5 159.5 467.6 264 478.7l0 25.3c0 13.3 10.7 24 24 24s24-10.7 24-24l0-25.3c26.7-2.8 52-10.4 75.1-21.8l-36.4-36.4zM176 256c0 61.9 50.1 112 112 112 3.3 0 6.5-.1 9.8-.4L176.4 246.2c-.3 3.2-.4 6.5-.4 9.8z"/></svg>