<svg xmlns="http://www.w3.org/2000/svg" viewBox="0 0 384 512"><path fill="currentColor" d="M192 0c106 0 192 84.4 192 188.6 0 119.3-120.2 262.3-170.4 316.8l0 0c-11.8 12.8-31.4 12.8-43.3 0l0 0C120.1 450.8 0 307.9 0 188.6 0 84.4 86 0 192 0zm0 48c-80.3 0-144 63.7-144 140.6 0 45.6 23.8 101.5 58.9 157.1 28.3 44.8 61 84.7 85.1 112 24.1-27.3 56.8-67.2 85.1-112 35.1-55.5 58.9-111.5 58.9-157.1 0-76.8-63.7-140.6-144-140.6zm0 304a32 32 0 1 1 0-64 32 32 0 1 1 0 64zm0-256c18.2 0 32.7 15.5 31.4 33.7l-7.4 104c-.9 12.6-11.4 22.3-23.9 22.3-12.6 0-23-9.7-23.9-22.3l-7.4-104C159.3 111.5 173.8 96 192 96z"/></svg>