<svg xmlns="http://www.w3.org/2000/svg" viewBox="0 0 384 512"><path fill="currentColor" d="M192 0c106 0 192 84.4 192 188.6 0 119.3-120.2 262.3-170.4 316.8l0 0c-11.8 12.8-31.4 12.8-43.3 0l0 0C120.1 450.8 0 307.9 0 188.6 0 84.4 86 0 192 0zm0 48c-80.3 0-144 63.7-144 140.6 0 45.6 23.8 101.5 58.9 157.1 28.3 44.8 61 84.7 85.1 112 24.1-27.3 56.8-67.2 85.1-112 35.1-55.5 58.9-111.5 58.9-157.1 0-76.8-63.7-140.6-144-140.6zm36.7 103.9c7.8-10.7 22.8-13.1 33.5-5.3s13.1 22.8 5.3 33.5L191.4 284.8c-4.2 5.7-10.7 9.3-17.8 9.8-7.1 .5-14-2.2-18.9-7.3l-35.9-37.2c-9.2-9.5-8.9-24.7 .6-33.9 9.5-9.2 24.7-9 33.9 .6l16.1 16.6 59.3-81.6z"/></svg>