<svg xmlns="http://www.w3.org/2000/svg" viewBox="0 0 384 512"><path fill="currentColor" d="M48 188.6C48 111.7 111.7 48 192 48s144 63.7 144 140.6c0 45.6-23.8 101.5-58.9 157.1-28.3 44.8-61 84.8-85.1 112.1-24.1-27.3-56.7-67.2-85.1-112.1-35.1-55.5-58.9-111.5-58.9-157.1zM192 0C86 0 0 84.4 0 188.6 0 307.9 120.2 450.9 170.4 505.4 182.2 518.2 201.8 518.2 213.6 505.4 263.8 450.9 384 307.9 384 188.6 384 84.4 298 0 192 0zM102.7 267.4c-.2 .9-.3 1.8-.3 2.8 0 6.3 5.1 11.4 11.4 11.4 .9 0 1.9-.1 2.8-.3l36.9-9.2c8.4-2.1 16.1-6.5 22.3-12.6L271 164.2c6.8-6.8 10.6-16 10.6-25.6 0-20-16.2-36.2-36.2-36.2-9.6 0-18.8 3.8-25.6 10.6l-95.2 95.2c-6.2 6.2-10.5 13.9-12.6 22.3l-9.2 36.9z"/></svg>