<svg xmlns="http://www.w3.org/2000/svg" viewBox="0 0 512 512"><path fill="currentColor" d="M48 188.6C48 111.7 111.7 48 192 48s144 63.7 144 140.6c0 1.5 0 3.1-.1 4.6 14.4-8.3 30.5-13.9 47.7-16.1-6.1-98.8-89.6-177-191.6-177-106 0-192 84.4-192 188.6 0 119.3 120.2 262.3 170.4 316.8 11.8 12.8 31.5 12.8 43.3 0 7.5-8.1 16.4-18.1 26.4-29.8l0-75.7 0-.9c-17.2 22.8-34 42.9-48 58.7-24.1-27.3-56.7-67.2-85.1-112.1-35.1-55.5-58.9-111.5-58.9-157.1zM160 192a32 32 0 1 1 64 0 32 32 0 1 1 -64 0zm112 0a80 80 0 1 0 -160 0 80 80 0 1 0 160 0zM432 304.1l0 47.9-64 0 0-47.9c0-17.7 14.3-32 32-32s32 14.3 32 32zM288 400l0 96c0 26.5 21.5 48 48 48l128 0c26.5 0 48-21.5 48-48l0-96c0-20.9-13.4-38.7-32-45.3l0-50.6c0-44.2-35.8-80-80-80s-80 35.8-80 80l0 50.6c-18.6 6.6-32 24.4-32 45.3z"/></svg>