<svg xmlns="http://www.w3.org/2000/svg" viewBox="0 0 384 512"><path fill="currentColor" d="M112 96l0 64 160 0 0-64c0-44.2-35.8-80-80-80s-80 35.8-80 80zM64 160l0-64C64 25.3 121.3-32 192-32S320 25.3 320 96l0 64c35.3 0 64 28.7 64 64l0 224c0 35.3-28.7 64-64 64L64 512c-35.3 0-64-28.7-64-64L0 224c0-35.3 28.7-64 64-64zm208 48l-160 0 0 0-48 0 0 0c-8.8 0-16 7.2-16 16l0 224c0 8.8 7.2 16 16 16l256 0c8.8 0 16-7.2 16-16l0-224c0-8.8-7.2-16-16-16l0 0-48 0 0 0zM152 236c11 0 20 9 20 20l0 20 40 0 0-20c0-11 9-20 20-20s20 9 20 20l0 20 20 0c11 0 20 9 20 20s-9 20-20 20l-20 0 0 40 20 0c11 0 20 9 20 20s-9 20-20 20l-20 0 0 20c0 11-9 20-20 20s-20-9-20-20l0-20-40 0 0 20c0 11-9 20-20 20s-20-9-20-20l0-20-20 0c-11 0-20-9-20-20s9-20 20-20l20 0 0-40-20 0c-11 0-20-9-20-20s9-20 20-20l20 0 0-20c0-11 9-20 20-20zm20 80l0 40 40 0 0-40-40 0z"/></svg>