<svg xmlns="http://www.w3.org/2000/svg" viewBox="0 0 384 512"><path fill="currentColor" d="M192 16c44.2 0 80 35.8 80 80l0 64-160 0 0-64c0-44.2 35.8-80 80-80zM64 96l0 64c-35.3 0-64 28.7-64 64L0 448c0 35.3 28.7 64 64 64l256 0c35.3 0 64-28.7 64-64l0-224c0-35.3-28.7-64-64-64l0-64c0-70.7-57.3-128-128-128S64 25.3 64 96zM272 208l48 0 0 0c8.8 0 16 7.2 16 16l0 224c0 8.8-7.2 16-16 16L64 464c-8.8 0-16-7.2-16-16l0-224c0-8.8 7.2-16 16-16l0 0 48 0 0 0 160 0 0 0zm-80 32c-9.1 0-17.4 5.1-21.5 13.3l-72 144c-5.9 11.9-1.1 26.3 10.7 32.2s26.3 1.1 32.2-10.7l9.4-18.7 82.3 0 9.4 18.7c5.9 11.9 20.3 16.7 32.2 10.7s16.7-20.3 10.7-32.2l-72-144c-4.1-8.1-12.4-13.3-21.5-13.3zm0 77.7l17.2 34.3-34.3 0 17.2-34.3z"/></svg>