<svg xmlns="http://www.w3.org/2000/svg" viewBox="0 0 384 512"><path fill="currentColor" d="M192 16c44.2 0 80 35.8 80 80l0 64-160 0 0-64c0-44.2 35.8-80 80-80zM64 96l0 64c-35.3 0-64 28.7-64 64L0 448c0 35.3 28.7 64 64 64l256 0c35.3 0 64-28.7 64-64l0-224c0-35.3-28.7-64-64-64l0-64c0-70.7-57.3-128-128-128S64 25.3 64 96zM272 208l48 0 0 0c8.8 0 16 7.2 16 16l0 224c0 8.8-7.2 16-16 16L64 464c-8.8 0-16-7.2-16-16l0-224c0-8.8 7.2-16 16-16l0 0 48 0 0 0 160 0 0 0zm-56 88c0-13.3-10.7-24-24-24s-24 10.7-24 24l0 80c0 13.3 10.7 24 24 24s24-10.7 24-24l0-80z"/></svg>