<svg xmlns="http://www.w3.org/2000/svg" viewBox="0 0 576 512"><path fill="currentColor" d="M448 16c-44.2 0-80 35.8-80 80l0 64 48 0c35.3 0 64 28.7 64 64l0 224c0 35.3-28.7 64-64 64l-256 0c-35.3 0-64-28.7-64-64l0-224c0-35.3 28.7-64 64-64l160 0 0-64c0-70.7 57.3-128 128-128S576 25.3 576 96l0 40c0 13.3-10.7 24-24 24s-24-10.7-24-24l0-40c0-44.2-35.8-80-80-80zM320 208l0 0-160 0c-8.8 0-16 7.2-16 16l0 224c0 8.8 7.2 16 16 16l256 0c8.8 0 16-7.2 16-16l0-224c0-8.8-7.2-16-16-16l-48 0 0 0-48 0zm8 152l-80 0c-13.3 0-24-10.7-24-24s10.7-24 24-24l80 0c13.3 0 24 10.7 24 24s-10.7 24-24 24z"/></svg>