<svg xmlns="http://www.w3.org/2000/svg" viewBox="0 0 576 512"><path fill="currentColor" d="M576 320l0 .2c-.1 48.1-35.5 87.8-81.7 94.7l15.2 30.3c5.9 11.9 1.1 26.3-10.7 32.2-11.9 5.9-26.3 1.1-32.2-10.7l-25.4-50.7-110.7 0-29.7 51.9c-6.6 11.5-21.2 15.5-32.8 8.9s-15.5-21.2-8.9-32.8l16.1-28.1-33.4 0-10.3-.3c-8.6-.5-17.2-1.5-25.7-3.1l-42.5 57.7c-7.9 10.7-22.9 12.9-33.6 5.1s-12.9-22.9-5.1-33.6l33.2-45-41.5-19-73.5 93.1c-8.2 10.4-23.3 12.2-33.7 4s-12.2-23.3-4-33.7l66.3-83.9c-22.5-11-37.4-33.1-39.2-58l-.2-5.1c0-36.3 27.6-66.2 63-69.8l7.2-.4 74.4 0 68.6-86.9 1.9-2.2c4.8-4.7 11.3-7.3 18.1-6.9 7.8 .4 14.9 4.5 19 11.1l29.4 46.2 35-47.6 1.9-2.3c4.9-5.1 11.8-7.9 19-7.4 8.2 .6 15.5 5.2 19.4 12.4l45.5 83.5 45.4 0c15.3 0 29.8 3.6 42.7 10-20.8-88.3-100.1-154-194.7-154l-24 0c-13.3 0-24-10.7-24-24s10.7-24 24-24l24 0c137 0 248 111 248 248l0 40zm-96 48c26.5 0 48-21.5 48-48s-21.5-48-48-48l-280.2 0-52.9 67 35 16c18.8 8.6 39.2 13 59.9 13L480 368zM138.7 272l-36.5 0c-12.2 0-22.2 9.9-22.2 22.2 0 8.7 5.1 16.5 12.9 20.1l9.1 4.2 36.7-46.4zm142.7-48l-19.5-30.6-24.2 30.6 43.7 0zm98.6 0l-15-27.4-20.2 27.4 35.2 0zM472 296a24 24 0 1 1 0 48 24 24 0 1 1 0-48z"/></svg>