<svg xmlns="http://www.w3.org/2000/svg" viewBox="0 0 640 512"><path fill="currentColor" d="M320 0c13.3 0 24 10.7 24 24l0 155.9c-7.5-2.7-15.6-4.1-24-4.1s-16.5 1.4-24 4.1L296 24c0-13.3 10.7-24 24-24zM521.5 512c-13 0-25.8-2.5-37.7-7.2 6.4-17.4 5.8-36.8-1.7-53.8 .8-.3 1.6-.7 2.4-1l5 3.6c9.3 6.8 20.5 10.4 32 10.4 30.1 0 54.5-24.4 54.5-54.5l0-27.4c0-104.6-42.9-204.6-118.8-276.7l-25.2-24 0 135.9c-14.9-3.3-30.7-1.9-44.9 4.3-.9-2.4-2-4.7-3.1-6.9l0-136c0-25.9 21-46.9 46.9-46.9 12 0 23.6 4.6 32.3 12.9l27.1 25.8C575.7 151.8 624 264.4 624 382.1l0 27.4C624 466.1 578.1 512 521.5 512zM256 73.3l0 141.5c-1.2 2.2-2.2 4.6-3.1 6.9-14.2-6.2-30-7.7-44.9-4.3l0-129.1-17.5 15.8C110 177.1 64 280.6 64 389.3l0 20.2c0 30.1 24.4 54.5 54.5 54.5 11.5 0 22.7-3.6 32-10.4l5-3.6c.8 .3 1.6 .7 2.5 1-7.5 17-8.1 36.4-1.7 53.8-11.9 4.7-24.7 7.2-37.7 7.2-56.6 0-102.5-45.9-102.5-102.5l0-20.2C16 267.1 67.7 150.6 158.3 68.6l28.6-25.9c7.6-6.9 17.5-10.7 27.7-10.7 22.8 0 41.3 18.5 41.3 41.3zM184 408c-13.3 0-24-10.7-24-24s10.7-24 24-24c28.8 0 43.2-34.8 22.9-55.2-9.4-9.4-9.4-24.6 0-33.9s24.6-9.4 33.9 0c20.4 20.4 55.2 5.9 55.2-22.9 0-13.3 10.7-24 24-24s24 10.7 24 24c0 28.8 34.8 43.2 55.2 22.9 9.4-9.4 24.6-9.4 33.9 0s9.4 24.6 0 33.9c-20.4 20.4-5.9 55.2 22.9 55.2 13.3 0 24 10.7 24 24s-10.7 24-24 24c-28.8 0-43.2 34.8-22.9 55.2 9.4 9.4 9.4 24.6 0 33.9s-24.6 9.4-33.9 0c-20.4-20.4-55.2-5.9-55.2 22.9 0 13.3-10.7 24-24 24s-24-10.7-24-24c0-28.8-34.8-43.2-55.2-22.9-9.4 9.4-24.6 9.4-33.9 0s-9.4-24.6 0-33.9c20.4-20.4 5.9-55.2-22.9-55.2zm104-32a24 24 0 1 0 0-48 24 24 0 1 0 0 48zm88 40a24 24 0 1 0 -48 0 24 24 0 1 0 48 0z"/></svg>