<svg xmlns="http://www.w3.org/2000/svg" viewBox="0 0 640 512"><path fill="currentColor" d="M344 24c0-13.3-10.7-24-24-24s-24 10.7-24 24l0 154.4-40 24 0-129.1c0-22.8-18.5-41.3-41.3-41.3-10.2 0-20.1 3.8-27.7 10.7L158.3 68.6C67.7 150.6 16 267.1 16 389.3l0 20.2c0 56.6 45.9 102.5 102.5 102.5 21.7 0 42.8-6.9 60.3-19.6l14.6-10.7c39.3-28.6 62.6-74.3 62.6-122.9l0-100.4 64-38.4 64 38.4 0 100.4c0 48.6 23.3 94.3 62.6 122.9l14.6 10.7c17.5 12.7 38.6 19.6 60.3 19.6 56.6 0 102.5-45.9 102.5-102.5l0-27.4c0-117.8-48.3-230.4-133.7-311.5L463.1 44.9C454.4 36.6 442.9 32 430.9 32 405 32 384 53 384 78.9l0 123.5-40-24 0-154.4zm88 263.2l35.7 21.4c11.4 6.8 26.1 3.1 32.9-8.2s3.1-26.1-8.2-32.9l-60.3-36.2 0-149.7 25.2 24C533.1 177.5 576 277.5 576 382.1l0 27.4c0 30.1-24.4 54.5-54.5 54.5-11.5 0-22.7-3.6-32-10.4l-14.6-10.7c-26.9-19.6-42.8-50.8-42.8-84.1l0-71.6zM208 88.4l0 142.8-60.3 36.2c-11.4 6.8-15.1 21.6-8.2 32.9s21.6 15 32.9 8.2l35.7-21.4 0 71.6c0 33.3-15.9 64.5-42.8 84.1l-14.6 10.7c-9.3 6.8-20.5 10.4-32 10.4-30.1 0-54.5-24.4-54.5-54.5l0-20.2c0-108.7 46-212.3 126.5-285.2L208 88.4z"/></svg>