<svg xmlns="http://www.w3.org/2000/svg" viewBox="0 0 512 512"><path fill="currentColor" d="M232 4.3c11.9-1.6 22.9 1.9 33.3 7.3 2.3 1.3 5.7 1.6 8.3 .8 7.2-2.5 15-4.2 22.6-4.7 12.5-.8 23.4 3.5 33 11.1 14.6 12.8 22.3 33.1 30.7 50.1 3.1 6.3 6.2 12.3 9.3 17.9l30.5-18.3 4.9-2.4c11.7-4.5 25.1-1.9 34.2 7.2s11.7 22.6 7.2 34.2l-2.4 4.9-18.3 30.5c8.9 4.9 18.1 9.3 27.2 13.6 14.7 6.9 30.3 14.3 40.9 26.3 7.6 9.6 11.9 20.5 11.1 33-.5 7.5-2.2 15.4-4.7 22.6-.8 2.5-.5 5.9 .8 8.2 5.4 10.4 8.9 21.4 7.3 33.3-1.5 10.8-6.6 18.9-9.9 23.8-7.5 11.2-8.3 11.9-7.9 16 .6 5.4 1.1 11.1 .8 16.3-.3 5.7-1.4 12.5-5.4 19.2-3.8 6.5-9.1 10.7-13.3 13.5-4.4 2.9-9 5.6-13.8 7.9-2.4 1.2-4.5 3.9-5.1 6.4-1.3 5.4-2.8 11.1-4.7 16-2.1 5.3-5.3 11.1-10.8 16.2-5.4 4.9-11.5 7.4-16.3 9-3.5 1.1-7.1 2-10.7 2.8-4.2 1-9.1 1.7-11.3 5.9-2.7 4.9-5.5 10-8.4 14.2-3.2 4.5-7.5 9.4-13.9 13.1-6.3 3.6-12.7 4.8-17.8 5.3-5.3 .5-10.7 .6-16.1 .6-2.7 0-5.9 1.6-7.3 3.2-6.9 9.2-16.6 17.5-27.5 21.3-11.2 3.9-22.8 2.6-34.2 .7-1.6-.3-2.8-.2-4.8 .7-3 1.4-6 3.7-12.1 8.3-7.5 5.5-18.2 12.2-32.1 10.4-5.6-.7-10.4-2.6-13.6-4l-10.1-4.6c-2.6-1.1-6.1-.9-9.1 .5-4.4 2.1-9.1 4.3-13.5 5.7-5 1.7-12 3.4-20 1.8-7.9-1.5-13.8-5.5-17.7-8.7-4.3-3.4-8.3-7.4-12.1-11.3-1.5-1.5-3.4-2.4-5.5-2.9-3.5-.5-7.1-.4-10.7-.4-4.2 0-8.4 0-12.6-.8-6-1.1-12.3-3.7-18-8.8-5.2-4.7-8.5-10.5-11-15.8-1.9-4.7-3-9.4-7.3-13.6-4.3-4.3-9-5.3-13.7-7.3-5.4-2.4-11.1-5.8-15.8-11-5.2-5.7-7.7-12-8.8-18-.8-4.2-.8-8.4-.8-12.6 0-5.2 .9-12.2-3.3-16.2-3.9-3.9-7.8-7.9-11.2-12.1-3.2-3.9-7.2-9.8-8.7-17.7-1.5-8.1 .1-15.1 1.8-20 1.6-4.6 4-9.7 6.2-14.3 1.2-2.7 1.1-6 .1-8.3L5.3 300.5c-1.4-3.1-3.3-7.9-4-13.6-1.8-13.9 4.9-24.6 10.4-32.1 4.6-6.1 6.9-9.2 8.3-12.1 .9-2 1-3.1 .7-4.8-1.9-11.4-3.2-23 .7-34.2 3.8-10.9 12.1-20.6 21.3-27.5 1.7-1.4 3.2-4.5 3.2-7.3 0-5.3 0-10.7 .6-16.1 .5-5.2 1.7-11.5 5.3-17.8 3.6-6.4 8.6-10.7 13.1-13.9 4.2-3 9.3-5.8 14.2-8.4 2.2-1.2 4.2-4 4.8-6.6 1.3-5.2 2.3-10.4 3.9-15.4 1.6-4.9 4.1-10.9 9-16.3 5-5.6 10.9-8.7 16.2-10.8 4.9-1.9 10.6-3.4 16-4.8 2.5-.6 5.2-2.8 6.4-5.1 2.4-4.7 5-9.4 7.9-13.8 2.8-4.2 7-9.4 13.5-13.3 6.7-4 13.5-5.1 19.2-5.4 5.2-.2 10.9 .3 16.3 .8 3.7 .3 4.6-.3 12.8-5.8 8.3-5.6 16.8-10.6 26.9-12zm-2.4 52c-15.4 7.7-28.8 14.3-48 13-8.6 15-18.4 28-35.4 34.2-4.4 1.4-8.9 2.5-13.3 3.8l-2.2 8.8c-3.4 16.1-14.1 30.7-28.8 38.7-3.7 2-6.1 3.4-7.7 4.4l-.3 9.7c0 16.3-7.4 33.2-20.6 44.1-3.8 3.2-5.6 4.6-6.2 6.5-.7 2-.1 4.3 .8 9.4 5 26.4-10.5 44.9-17.6 54.3l3.5 7.8c5.9 13.4 6.3 28.6 1.8 42.2-1.5 3.7-3 7.3-4.7 10.9 10.9 11.4 19.4 23.3 21.4 39.5 .5 4.8 .7 9.6 .6 14.4 6.3 2.5 17 7.4 25.3 15.7S111.5 432.7 114 439c4.8-.1 9.6 .1 14.4 .6 16.2 2.1 28 10.6 39.5 21.4 3.6-1.6 7.2-3.2 10.9-4.7 13.5-4.6 28.8-4.1 42.2 1.8l7.8 3.5c.4-.3 .9-.7 1.4-1.1 9.7-7.5 27.7-21.3 52.9-16.6 5.1 .9 7.4 1.5 9.4 .8 1.9-.6 3.4-2.5 6.6-6.2 10.9-13.2 27.8-20.6 44.1-20.6l9.7-.3c1-1.6 2.4-3.9 4.4-7.7 8-14.7 22.6-25.4 38.7-28.8l8.8-2.2c1.3-4.4 2.5-8.9 3.8-13.3 6.2-17 19.2-26.8 34.2-35.4-1.3-19.2 5.4-32.6 13-48 1.4-2.9 2.9-5.8 4.3-8.8-6.9-15.9-11.6-31-6.5-48.4 1-3.8 2.2-7.6 2.7-11.4-7.1-6.2-16.8-9.8-25.1-14-25.9-12.9-51.7-25.7-73.1-45.8-20.2-21.4-33-47.2-45.9-73.2-1.9-3.8-3.8-7.6-5.7-11.4-4.1-8.1-6.8-11.9-8.2-13.6-3.9 .5-7.7 1.7-11.4 2.7-17.4 5.1-32.5 .5-48.4-6.5-3.1 1.5-6 2.9-8.8 4.3zM197.8 288.1c12.1-1.2 23.4 7 25.8 19.2 2.4 12.2-4.8 24.1-16.4 27.7l-2.4 .6-24.3 4.8-4.9 24.3-.6 2.4c-3.6 11.6-15.5 18.9-27.7 16.4-12.2-2.4-20.4-13.7-19.2-25.8l.4-2.4 8-40c1.9-9.5 9.3-16.9 18.8-18.8l40-8 2.4-.4zm160-32c12.1-1.2 23.4 7 25.8 19.2 2.4 12.2-4.8 24.1-16.4 27.7l-2.4 .6-24.3 4.8-4.9 24.3-.6 2.4c-3.6 11.6-15.5 18.9-27.7 16.4s-20.4-13.7-19.2-25.8l.4-2.4 8-40c1.9-9.5 9.3-16.9 18.8-18.8l40-8 2.4-.4zm-128-128c12.1-1.2 23.4 7 25.8 19.2 2.4 12.2-4.8 24.1-16.4 27.7l-2.4 .6-24.3 4.8-4.9 24.3-.6 2.4c-3.6 11.6-15.5 18.9-27.7 16.4-12.2-2.4-20.4-13.7-19.2-25.8l.4-2.4 8-40c1.9-9.5 9.3-16.9 18.8-18.8l40-8 2.4-.4z"/></svg>