<svg xmlns="http://www.w3.org/2000/svg" viewBox="0 0 640 512"><path fill="currentColor" d="M384-40c8 0 15.5 4 20 10.7l36.3 54.5c51.9 17.5 93 58.6 110.5 110.5L605.3 172C612 176.5 616 184 616 192s-4 15.5-10.7 20l-54.5 36.3c-17.5 51.9-58.6 92.9-110.5 110.5L404 413.3C399.5 420 392 424 384 424s-15.5-4-20-10.7l-36.3-54.5c-18.2-6.1-35-15.2-50-26.5L105 505c-9.4 9.4-24.6 9.4-33.9 0s-9.4-24.6 0-33.9L243.7 298.3c-11.4-15-20.4-31.8-26.5-50L162.7 212C156 207.5 152 200 152 192s4-15.5 10.7-20l54.5-36.3c17.5-51.9 58.6-93 110.5-110.5L364-29.3C368.5-36 376-40 384-40zm0 67.3L362.9 58.9c-3.2 4.8-8 8.3-13.5 9.8-42.9 12-76.7 45.8-88.7 88.7-1.5 5.5-5 10.3-9.8 13.5l-31.7 21.1 31.7 21.1c4.8 3.2 8.3 8 9.8 13.5 12 42.9 45.8 76.7 88.7 88.7 5.5 1.5 10.3 5 13.5 9.8l21.1 31.7 21.1-31.7c3.2-4.8 8-8.2 13.5-9.8 42.9-12 76.7-45.8 88.7-88.7 1.5-5.5 5-10.3 9.8-13.5l31.7-21.1-31.7-21.1c-4.8-3.2-8.2-8-9.8-13.5-12-42.9-45.8-76.7-88.7-88.7-5.5-1.5-10.3-5-13.5-9.8L384 27.3zM384 160a32 32 0 1 1 0 64 32 32 0 1 1 0-64z"/></svg>