<svg xmlns="http://www.w3.org/2000/svg" viewBox="0 0 512 512"><path fill="currentColor" d="M208 48c39.6 0 75.9 14.4 103.8 38.2L279 119c-6.9 6.9-8.9 17.2-5.2 26.2S286.3 160 296 160l96 0c13.3 0 24-10.7 24-24l0-96c0-9.7-5.8-18.5-14.8-22.2S381.9 16.2 375 23L345.8 52.2c-36.7-32.5-85-52.2-137.8-52.2-99.4 0-182.4 69.7-203.1 162.8-2.9 12.9 5.3 25.8 18.2 28.6 1.4 .3 2.7 .5 4.1 .5l2.3 0C40.1 191.5 49.4 184 51.8 173.2 67.7 101.6 131.6 48 208 48zM386 224c-10.4 .7-19.4 8.1-21.8 18.8-15.9 71.7-79.8 125.2-156.2 125.2-39.6 0-75.9-14.4-103.8-38.2L137 297c6.9-6.9 8.9-17.2 5.2-26.2S129.7 256 120 256l-96 0c-13.3 0-24 10.7-24 24l0 96c0 9.7 5.8 18.5 14.8 22.2S34.1 399.8 41 393l29.2-29.2c36.7 32.5 85 52.2 137.8 52.2 48.8 0 93.7-16.8 129.1-44.9L471 505c9.4 9.4 24.6 9.4 33.9 0s9.4-24.6 0-33.9L371.1 337.1c19.2-24.2 33.1-52.8 40-84 2.9-12.9-5.3-25.8-18.2-28.6-1.2-.3-2.4-.4-3.6-.5l-3.2 0z"/></svg>