<svg xmlns="http://www.w3.org/2000/svg" viewBox="0 0 448 512"><path fill="currentColor" d="M56 80c-4.4 0-8 3.6-8 8l0 72 64 0 0-72c0-4.4-3.6-8-8-8L56 80zM48 288c0 97.2 78.8 176 176 176s176-78.8 176-176l0-80-64 0 0 80c0 61.9-50.1 112-112 112S112 349.9 112 288l0-80-64 0 0 80zM400 160l0-72c0-4.4-3.6-8-8-8l-48 0c-4.4 0-8 3.6-8 8l0 72 64 0zM0 88C0 57.1 25.1 32 56 32l48 0c30.9 0 56 25.1 56 56l0 200c0 35.3 28.7 64 64 64s64-28.7 64-64l0-200c0-30.9 25.1-56 56-56l48 0c30.9 0 56 25.1 56 56l0 200c0 123.7-100.3 224-224 224S0 411.7 0 288L0 88z"/></svg>