<svg xmlns="http://www.w3.org/2000/svg" viewBox="0 0 512 512"><path fill="currentColor" d="M208 48a160 160 0 1 1 0 320 160 160 0 1 1 0-320zm0 368c48.8 0 93.7-16.8 129.1-44.9L471 505c9.4 9.4 24.6 9.4 33.9 0s9.4-24.6 0-33.9L371.1 337.1C399.2 301.7 416 256.8 416 208 416 93.1 322.9 0 208 0S0 93.1 0 208 93.1 416 208 416zm4-320c-11 0-20 9-20 20l0 4c-28.8 .3-52 23.7-52 52.5 0 25.7 18.5 47.6 43.9 51.8l41.7 7c6 1 10.4 6.2 10.4 12.3 0 6.9-5.6 12.5-12.5 12.5L168 256c-11 0-20 9-20 20s9 20 20 20l24 0 0 4c0 11 9 20 20 20s20-9 20-20l0-4.7c25-4.1 44-25.7 44-51.8 0-25.7-18.5-47.6-43.9-51.8l-41.7-7c-6-1-10.4-6.2-10.4-12.3 0-6.9 5.6-12.5 12.5-12.5l47.5 0c11 0 20-9 20-20s-9-20-20-20l-8 0 0-4c0-11-9-20-20-20z"/></svg>