<svg xmlns="http://www.w3.org/2000/svg" viewBox="0 0 512 512"><path fill="currentColor" d="M208 48a160 160 0 1 1 0 320 160 160 0 1 1 0-320zm0 368c48.8 0 93.7-16.8 129.1-44.9L471 505c9.4 9.4 24.6 9.4 33.9 0s9.4-24.6 0-33.9L371.1 337.1C399.2 301.7 416 256.8 416 208 416 93.1 322.9 0 208 0S0 93.1 0 208 93.1 416 208 416zm64-304l-40 0c-13.3 0-24 10.7-24 24l0 57.8c-5.1-1.2-10.5-1.8-16-1.8-35.3 0-64 25.1-64 56s28.7 56 64 56 64-25.1 64-56c0-1.3-.1-2.6-.2-3.9l.2 .1 0-84.2 16 0c13.3 0 24-10.7 24-24s-10.7-24-24-24z"/></svg>