<svg xmlns="http://www.w3.org/2000/svg" viewBox="0 0 576 512"><path fill="currentColor" d="M288 88l0 24-36.7 0c22.8 25.5 36.7 59.1 36.7 96l0 208c0 5.5-.7 10.9-2 16l226 0c8.8 0 16-7.2 16-16l0-192c0-30.8-12.4-58.7-32.6-79 .4-3 .6-6 .6-9l0-48c0-.9 0-1.8 0-2.6 47.8 27.7 80 79.4 80 138.6l0 192c0 35.3-28.7 64-64 64L64 480c-35.3 0-64-28.7-64-64L0 208C0 128.5 64.5 64 144 64l148.1 0c-2.7 7.5-4.1 15.6-4.1 24zM144 112c-53 0-96 43-96 96l0 208c0 8.8 7.2 16 16 16l160 0c8.8 0 16-7.2 16-16l0-208c0-53-43-96-96-96zM80 248c0-13.3 10.7-24 24-24l80 0c13.3 0 24 10.7 24 24s-10.7 24-24 24l-80 0c-13.3 0-24-10.7-24-24zm256-16l0-144c0-13.3 10.7-24 24-24l64 0c13.3 0 24 10.7 24 24l0 48c0 13.3-10.7 24-24 24l-40 0 0 72c0 13.3-10.7 24-24 24s-24-10.7-24-24z"/></svg>