<svg xmlns="http://www.w3.org/2000/svg" viewBox="0 0 512 512"><path fill="currentColor" d="M176 128l0 24c0 13.3 10.7 24 24 24l136 0c70.7 0 128 57.3 128 128 0 15.3-1.9 29.1-5.2 41.5-16.8-60.9-72.6-105.5-138.8-105.5l-120 0c-13.3 0-24 10.7-24 24L176 329.4 54.6 208 176 86.6 176 128zm80 160l64 0c53 0 96 43 96 96 0 17.3-4.2 30.5-9.5 40.2-1.6 2.9-3.3 5.5-5 7.9-2.6 3.5-5.3 6.4-7.7 8.6-.5 .5-1 .9-1.4 1.4-4.8 4.9-8.3 11.3-8.3 18.1 0 10.9 8.8 19.7 19.7 19.7 2.8 0 5.6-.6 8.1-1.9 2.6-1.4 6.3-3.5 10.8-6.5 2.7-1.8 5.7-3.8 8.9-6.2 3.7-2.7 7.6-5.8 11.7-9.3 30.2-25.8 68.7-74.1 68.7-152.1 0-97.2-78.8-176-176-176l-112 0 0-80c0-12.9-7.8-24.6-19.8-29.6s-25.7-2.2-34.9 6.9l-160 160c-12.5 12.5-12.5 32.8 0 45.3l160 160c9.2 9.2 22.9 11.9 34.9 6.9S224 380.9 224 368l0-80 32 0z"/></svg>