<svg xmlns="http://www.w3.org/2000/svg" viewBox="0 0 640 512"><path fill="currentColor" d="M288 272l-240 0 0 12 124.6 68.6 1.7 .7c.6 .1 1.2 .2 1.8 .2 1.2 0 2.4-.3 3.4-.9l108.6-59.8 0 54.8-85.4 47c-8.1 4.5-17.3 6.8-26.6 6.8-7 0-13.9-1.3-20.3-3.9l-6.3-3-101.4-55.8 0 93.2 240 0 0 48-240 0c-26.5 0-48-21.5-48-48L0 272c0-26.5 21.5-48 48-48l240 0 0 48zM388.2 64c-2.7 7.5-4.2 15.6-4.2 24l0 24-36.7 0c22.8 25.5 36.7 59.1 36.7 96l0 224 192 0c8.8 0 16-7.2 16-16l0-306.2c29.6 29 48 69.5 48 114.2l0 192-.3 6.5c-3.1 30.1-27 54.1-57.1 57.1l-6.5 .3-240 0 0-272c0-53-43-96-96-96-41.8 0-77.2 26.7-90.4 64l-49.9 0c.3-1.2 .5-2.4 .8-3.6 .3-1.1 .6-2.3 .9-3.4 .3-1 .6-2.1 .9-3.1 .4-1.2 .8-2.5 1.2-3.7 .4-1.1 .7-2.2 1.1-3.3 .6-1.6 1.2-3.1 1.8-4.6 .2-.5 .4-1 .6-1.6 .5-1.1 .9-2.2 1.4-3.3 .5-1 .9-2.1 1.4-3.1 .5-1 1-2.1 1.6-3.1 .5-1.1 1.1-2.2 1.7-3.3 .5-.8 .9-1.7 1.4-2.5 .7-1.2 1.4-2.4 2.1-3.7 .4-.7 .8-1.4 1.2-2 .8-1.2 1.5-2.5 2.3-3.7 .5-.8 1-1.5 1.6-2.3 .7-1 1.4-1.9 2.1-2.9 .7-.9 1.3-1.8 2-2.7 .8-1 1.6-2.1 2.4-3.1 .5-.7 1.1-1.3 1.7-2 1-1.1 1.9-2.2 2.9-3.3 .2-.3 .5-.5 .7-.8l2.3-2.5c2-2.1 4.1-4.2 6.3-6.2 .8-.7 1.5-1.4 2.3-2.1 .8-.7 1.5-1.3 2.3-2 1.1-.9 2.2-1.8 3.3-2.7 .7-.5 1.3-1 2-1.6 1-.8 2-1.6 3-2.3s2.1-1.5 3.1-2.2c.7-.5 1.5-1 2.2-1.5 1.2-.8 2.5-1.6 3.8-2.4 .6-.4 1.2-.7 1.8-1.1 1.3-.8 2.6-1.5 4-2.2 .9-.5 1.8-1 2.7-1.5 .6-.3 1.3-.7 2-1 1.3-.7 2.7-1.4 4-2 .2-.1 .4-.2 .7-.3l4.8-2.1c.2-.1 .5-.2 .7-.3 3.4-1.4 6.9-2.7 10.4-3.8 1-.3 1.9-.6 2.9-.9 .7-.2 1.3-.4 2-.6 1.5-.4 3-.9 4.5-1.2 3.7-.9 7.4-1.7 11.2-2.3 .9-.2 1.8-.3 2.7-.5 4.6-.7 9.4-1.2 14.2-1.4l7.4-.2 148.2 0zM520 64c13.3 0 24 10.7 24 24l0 48c0 13.3-10.7 24-24 24l-40 0 0 72c0 13.3-10.7 24-24 24s-24-10.7-24-24l0-144c0-13.3 10.7-24 24-24l64 0z"/></svg>