<svg xmlns="http://www.w3.org/2000/svg" viewBox="0 0 576 512"><path fill="currentColor" d="M205.7 57l-151 151 151 151c9.4 9.4 9.4 24.6 0 33.9s-24.6 9.4-33.9 0L9.4 230.6c-12.5-12.5-12.5-32.8 0-45.3L171.7 23c9.4-9.4 24.6-9.4 33.9 0s9.4 24.6 0 33.9zm-23 151L304 329.4 304 264c0-13.3 10.7-24 24-24l56 0c66.2 0 122.1 44.7 138.8 105.7 3.2-12.4 5.2-26.2 5.2-41.7 0-70.7-57.3-128-128-128l-72 0c-13.3 0-24-10.7-24-24L304 86.6 182.6 208zM507.3 456.1l0 0c-1.5 1.3-3 2.5-4.5 3.7-9.2 7.4-22.3 7.1-31.1-.8s-10.6-20.9-4.2-30.9c8.2-12.7 12.5-27.2 12.5-44.2 0-53-43-96-96-96l-32 0 0 80c0 12.9-7.8 24.6-19.8 29.6l0 0c-12 5-25.7 2.2-34.9-6.9l-160-160c-12.5-12.5-12.5-32.8 0-45.3l160-160c9.2-9.2 22.9-11.9 34.9-6.9S352 35.1 352 48l0 80 48 0c97.2 0 176 78.8 176 176 0 77.9-38.6 126.2-68.7 152.1z"/></svg>