<svg xmlns="http://www.w3.org/2000/svg" viewBox="0 0 576 512"><path fill="currentColor" d="M251.3 112c22.8 25.5 36.7 59.1 36.7 96l0 208c0 5.5-.7 10.9-2 16l226 0c8.8 0 16-7.2 16-16l0-192c0-61.9-50.1-112-112-112l-164.7 0zM144 112c-53 0-96 43-96 96l0 208c0 8.8 7.2 16 16 16l160 0c8.8 0 16-7.2 16-16l0-208c0-53-43-96-96-96zm0-48l272 0c88.4 0 160 71.6 160 160l0 192c0 35.3-28.7 64-64 64L64 480c-35.3 0-64-28.7-64-64L0 208C0 128.5 64.5 64 144 64zM104 208l80 0c13.3 0 24 10.7 24 24s-10.7 24-24 24l-80 0c-13.3 0-24-10.7-24-24s10.7-24 24-24zm232 24c0-13.3 10.7-24 24-24l96 0c13.3 0 24 10.7 24 24l0 64c0 13.3-10.7 24-24 24l-48 0c-13.3 0-24-10.7-24-24l0-40-24 0c-13.3 0-24-10.7-24-24z"/></svg>