<svg xmlns="http://www.w3.org/2000/svg" viewBox="0 0 640 512"><path fill="currentColor" d="M488.2 64.2C572.8 68.5 640 138.4 640 224l0 192-.3 6.5c-3.1 30.1-27 54.1-57.1 57.1l-6.5 .3-552 0c-13.3 0-24-10.7-24-24s10.7-24 24-24l72 0 0-232c0-75.1 60.9-136 136-136 1.3 0 2.6 .1 3.9 .1l4.1-.1 240 0 8.2 .2zM234.8 112.1C184.2 114.8 144 156.7 144 208l0 224 160 0c8.8 0 16-7.2 16-16l0-216c0-47.7-37.9-86.4-85.2-87.9zm100.8-.1c20.2 23.7 32.4 54.4 32.4 88l0 216-.3 6.5c-.3 3.2-1 6.4-1.8 9.5L576 432c8.8 0 16-7.2 16-16l0-192c0-61.9-50.1-112-112-112l-144.4 0zM520 208c13.3 0 24 10.7 24 24l0 64c0 13.3-10.7 24-24 24l-48 0c-13.3 0-24-10.7-24-24l0-40-24 0c-13.3 0-24-10.7-24-24s10.7-24 24-24l96 0z"/></svg>