<svg xmlns="http://www.w3.org/2000/svg" viewBox="0 0 512 512"><path fill="currentColor" d="M312 176c13.3 0 24-10.7 24-24L336 86.6 457.4 208 336 329.4 336 264c0-13.3-10.7-24-24-24l-120 0c-66.2 0-122 44.7-138.8 105.5-3.3-12.4-5.2-26.2-5.2-41.5 0-70.7 57.3-128 128-128l136 0zM288 288l0 80c0 12.9 7.8 24.6 19.8 29.6s25.7 2.2 34.9-6.9l160-160c12.5-12.5 12.5-32.8 0-45.3l-160-160c-9.2-9.2-22.9-11.9-34.9-6.9S288 35.1 288 48l0 80-112 0c-97.2 0-176 78.8-176 176 0 78 38.6 126.2 68.7 152.1 4.1 3.5 8.1 6.6 11.7 9.3 3.2 2.4 6.2 4.4 8.9 6.2 4.5 3 8.3 5.1 10.8 6.5 2.5 1.4 5.3 1.9 8.1 1.9 10.9 0 19.7-8.9 19.7-19.7 0-6.8-3.6-13.2-8.3-18.1-.5-.5-.9-.9-1.4-1.4-2.4-2.3-5.1-5.1-7.7-8.6-1.7-2.3-3.4-5-5-7.9-5.3-9.7-9.5-22.9-9.5-40.2 0-53 43-96 96-96l96 0z"/></svg>