<svg xmlns="http://www.w3.org/2000/svg" viewBox="0 0 576 512"><path fill="currentColor" d="M288 424c0 13.3 10.7 24 24 24s24-10.7 24-24l0-255.3 75.9 116.4c4.4 6.8 12 10.9 20.1 10.9s15.7-4.1 20.1-10.9L528 168.7 528 424c0 13.3 10.7 24 24 24s24-10.7 24-24l0-336c0-10.6-7-20-17.2-23s-21.1 1-26.9 9.9L432 228.1 332.1 74.9C326.3 66 315.3 62 305.2 65S288 77.4 288 88l0 336zM0 88L0 424c0 13.3 10.7 24 24 24s24-10.7 24-24l0-120 84.2 0 45.2 128c4.4 12.5 18.1 19.1 30.6 14.6S227 428.5 222.6 416L180.1 295.6C224.6 278 256 234.7 256 184 256 117.7 202.3 64 136 64L24 64C10.7 64 0 74.7 0 88zM48 256l0-144 88 0c39.8 0 72 32.2 72 72s-32.2 72-72 72l-88 0z"/></svg>