<svg xmlns="http://www.w3.org/2000/svg" viewBox="0 0 512 512"><path fill="currentColor" d="M288 64l0-16c0-44.2 35.8-80 80-80l96 0c8.8 0 16 7.2 16 16l0 16c0 44.2-35.8 80-80 80l-64 0 0 18.5c99.5 15.6 176 101.6 176 205.5 0 114.9-93.1 208-208 208L98.3 512C44 512 0 468 0 413.7 0 394.4 5.7 375.4 16.5 359.2L130.3 188.6c35.7-53.5 94.1-87.3 157.7-92L288 64zM392 272c13.3 0 24 10.7 24 24 0 66.3-53.7 120-120 120-13.3 0-24-10.7-24-24s10.7-24 24-24c39.8 0 72-32.2 72-72 0-13.3 10.7-24 24-24zM56.4 385.9c-5.5 8.3-8.4 18-8.4 27.9 0 27.8 22.5 50.3 50.3 50.3L304 464c88.4 0 160-71.6 160-160 0-88.2-71.9-160-160.4-160-53.6 0-103.7 26.8-133.4 71.2L56.4 385.9z"/></svg>