<svg xmlns="http://www.w3.org/2000/svg" viewBox="0 0 512 512"><path fill="currentColor" d="M256 48a208 208 0 1 1 0 416 208 208 0 1 1 0-416zm0 464a256 256 0 1 0 0-512 256 256 0 1 0 0 512zm25.8-147c-5.8-7.9-15.2-13-25.8-13s-19.9 5.1-25.8 13C180.8 353.4 144 309 144 256s36.8-97.4 86.2-109c5.8 7.9 15.2 13 25.8 13s19.9-5.1 25.8-13c49.4 11.6 86.2 56 86.2 109s-36.8 97.4-86.2 109zM256 416a160 160 0 1 0 0-320 160 160 0 1 0 0 320zM192 216a24 24 0 1 0 48 0 24 24 0 1 0 -48 0zm0 80a24 24 0 1 0 48 0 24 24 0 1 0 -48 0zM296 192a24 24 0 1 0 0 48 24 24 0 1 0 0-48zM272 296a24 24 0 1 0 48 0 24 24 0 1 0 -48 0z"/></svg>