<svg xmlns="http://www.w3.org/2000/svg" viewBox="0 0 640 512"><path fill="currentColor" d="M576 48c0-8.3-4.3-16-11.3-20.4s-15.9-4.8-23.3-1.1L416.5 88.1 244 29.4c-13.7-4.7-28.7-3.8-41.9 2.3L77.8 90.3C69.4 94.2 64 102.7 64 112l0 352c0 8.2 4.2 15.9 11.1 20.3s15.6 4.9 23.1 1.4l127.3-59.9 167.3 55.8c-1.9-3-3.8-6-5.6-9.1-9.4-15.6-18.8-33.3-26.3-52.1l-104.9-35 0-301.1 128 43.5 0 106.7c13.4-15.6 29.7-28.6 48-38.4l0-62 96-47.4 0 90.1c16.8 1.6 32.9 5.6 48 11.7L576 48zM208 82.1l0 299-96 45.2 0-299 96-45.2zM512 224c-66.3 0-120 52.8-120 117.9 0 68.9 64.1 150.4 98.6 189.3 11.6 13 31.3 13 42.9 0 34.5-38.9 98.6-120.4 98.6-189.3 0-65.1-53.7-117.9-120-117.9zM472 344a40 40 0 1 1 80 0 40 40 0 1 1 -80 0z"/></svg>