<svg xmlns="http://www.w3.org/2000/svg" viewBox="0 0 512 512"><path fill="currentColor" d="M376-48c-13.3 0-24 10.7-24 24S362.7 0 376 0l38.1 0-67.7 67.7c-29.5-22.4-66.4-35.7-106.3-35.7-97.2 0-176 78.8-176 176 0 89.1 66.2 162.7 152.1 174.4 0 .5-.1 1.1-.1 1.6l0 48-48 0c-13.3 0-24 10.7-24 24s10.7 24 24 24l48 0 0 40c0 13.3 10.7 24 24 24s24-10.7 24-24l0-40 48 0c13.3 0 24-10.7 24-24s-10.7-24-24-24l-48 0 0-48c0-.5 0-1.1-.1-1.6 85.9-11.7 152.1-85.3 152.1-174.4 0-39.9-13.3-76.8-35.7-106.3L448 33.9 448 72c0 13.3 10.7 24 24 24s24-10.7 24-24l0-96c0-13.3-10.7-24-24-24l-96 0zM240 80a128 128 0 1 1 0 256 128 128 0 1 1 0-256z"/></svg>