<svg xmlns="http://www.w3.org/2000/svg" viewBox="0 0 640 512"><path fill="currentColor" d="M480.2-24c0-13.3 10.7-24 24-24l96 0c13.3 0 24 10.7 24 24l0 96c0 13.3-10.7 24-24 24s-24-10.7-24-24l0-38.1-67.7 67.7c22.4 29.5 35.7 66.4 35.7 106.3 0 89.1-66.2 162.7-152.1 174.4 0 .5 .1 1.1 .1 1.6l0 48 48 0c13.3 0 24 10.7 24 24s-10.7 24-24 24l-48 0 0 40c0 13.3-10.7 24-24 24s-24-10.7-24-24l0-40-48 0c-13.3 0-24-10.7-24-24s10.7-24 24-24l48 0 0-48c0-.5 0-1.1 .1-1.6-85.9-11.7-152.1-85.3-152.1-174.4 0-97.2 78.8-176 176-176 39.9 0 76.8 13.3 106.3 35.7L542.2 0 504.2 0c-13.3 0-24-10.7-24-24zm16 232a128 128 0 1 0 -256 0 128 128 0 1 0 256 0zM176.2-24c8.9 0 17 4.9 21.2 12.7l25.8 48.5c-12.9 11-24.6 23.4-34.7 37L176.2 51.2 159 83.6c-4.9 9.3-15.3 14.3-25.6 12.3l-36-6.7 14.6 33.6c4.2 9.6 1.6 20.9-6.3 27.7l-27.7 24 35.4 9.6c10.1 2.7 17.3 11.7 17.7 22.2l1.4 36.6 13.1-9.7c2 17.7 6 34.7 11.8 50.9l-33 24.2c-7.2 5.3-16.6 6.1-24.6 2.3s-13.2-11.8-13.6-20.7l-2.5-64.2-62-16.7c-8.6-2.3-15.2-9.2-17.1-17.8s1-17.7 7.7-23.5l48.6-42-25.6-58.9c-3.5-8.1-2.3-17.6 3.3-24.5S53 32 61.8 33.6L124.9 45.5 155-11.3c4.2-7.8 12.3-12.7 21.2-12.7z"/></svg>