<svg xmlns="http://www.w3.org/2000/svg" viewBox="0 0 576 512"><path fill="currentColor" d="M320 256a128 128 0 1 0 -256 0 128 128 0 1 0 256 0zM192 80c89.1 0 162.7 66.2 174.4 152l33.6 0 0-40c0-13.3 10.7-24 24-24s24 10.7 24 24l0 40 56 0-19.2-25.6c-8-10.6-5.8-25.6 4.8-33.6s25.6-5.8 33.6 4.8l48 64c6.4 8.5 6.4 20.3 0 28.8l-48 64c-8 10.6-23 12.8-33.6 4.8s-12.8-23-4.8-33.6l19.2-25.6-56 0 0 40c0 13.3-10.7 24-24 24s-24-10.7-24-24l0-40-33.6 0c-11.7 85.8-85.3 152-174.4 152-97.2 0-176-78.8-176-176S94.8 80 192 80z"/></svg>