<svg xmlns="http://www.w3.org/2000/svg" viewBox="0 0 640 512"><path fill="currentColor" d="M288 40c0-13.3 10.7-24 24-24l128 0c13.3 0 24 10.7 24 24l0 128c0 13.3-10.7 24-24 24s-24-10.7-24-24l0-70.1-99.7 99.7c22.4 29.5 35.7 66.4 35.7 106.3 0 97.2-78.8 176-176 176S0 401.2 0 304 78.8 128 176 128c39.9 0 76.8 13.3 106.3 35.7L382.1 64 312 64c-13.3 0-24-10.7-24-24zM176 432a128 128 0 1 0 0-256 128 128 0 1 0 0 256zm142.5 44.8c15.8-13 29.8-28.2 41.5-45.1 67-4.1 120-59.8 120-127.8 0-24.6-6.9-47.6-19-67.1 16-4.9 29.6-15.1 38.7-28.6 17.9 27.6 28.3 60.4 28.3 95.7 0 97.2-78.8 176-176 176-11.4 0-22.6-1.1-33.5-3.2zM512 110.1l46.1-46.1-46.1 0 0-24c0-8.4-1.4-16.5-4.1-24L616 16c13.3 0 24 10.7 24 24l0 128c0 13.3-10.7 24-24 24s-24-10.7-24-24l0-70.1-80.8 80.8c.5-3.5 .8-7.1 .8-10.7l0-57.9z"/></svg>