<svg xmlns="http://www.w3.org/2000/svg" viewBox="0 0 512 512"><path fill="currentColor" d="M352 24c0-13.3 10.7-24 24-24L488 0c13.3 0 24 10.7 24 24l0 112c0 13.3-10.7 24-24 24s-24-10.7-24-24l0-54.1-54.1 54.1 23 23c9.4 9.4 9.4 24.6 0 33.9s-24.6 9.4-33.9 0l-23-23-27.7 27.7c22.4 29.5 35.7 66.4 35.7 106.3 0 97.2-78.8 176-176 176S32 401.2 32 304 110.8 128 208 128c39.9 0 76.8 13.3 106.3 35.7l27.7-27.7-23-23c-9.4-9.4-9.4-24.6 0-33.9s24.6-9.4 33.9 0l23 23 54.1-54.1-54.1 0c-13.3 0-24-10.7-24-24zM208 432a128 128 0 1 0 0-256 128 128 0 1 0 0 256z"/></svg>