<svg xmlns="http://www.w3.org/2000/svg" viewBox="0 0 640 512"><path fill="currentColor" d="M270.2 127.1l-37.1 24.8c-23.7 15.8-51.4 24.2-79.9 24.2l-9.2 0 0 48c0 59.5 29.5 112.1 74.7 143.9l3.1 .8-.3 1.2c28.1 19 62 30.1 98.5 30.1s70.4-11.1 98.5-30.1l-.3-1.2 3.1-.8C466.5 336.1 496 283.5 496 224l0-48-9.2 0c-28.4 0-56.2-8.4-79.9-24.2l-37.1-24.8C355 117.2 337.7 112 320 112s-35 5.2-49.8 15.1zM96 176l-40 0c-4.4 0-8 3.6-8 8l0 85c0 33 22.5 61.8 54.5 69.8l29.8 7.4C109.4 311.2 96 269.1 96 224l0-48zM198.9 412.5l-108-27C37.5 372.1 0 324.1 0 269l0-85c0-30.9 25.1-56 56-56l97.2 0c19 0 37.5-5.6 53.3-16.1l37.1-24.8C266.2 72 292.8 64 320 64s53.8 8 76.4 23.1l37.1 24.8c15.8 10.5 34.3 16.1 53.3 16.1l97.2 0c30.9 0 56 25.1 56 56l0 85c0 55.1-37.5 103.1-90.9 116.4l-108 27C406.2 435 364.6 448 320 448s-86.2-13-121.1-35.5zm308.8-66.1l29.8-7.4c32.1-8 54.5-36.8 54.5-69.8l0-85c0-4.4-3.6-8-8-8l-40 0 0 48c0 45.1-13.4 87.2-36.3 122.3zM192 232c0-13.3 10.7-24 24-24l208 0c13.3 0 24 10.7 24 24s-10.7 24-24 24l-208 0c-13.3 0-24-10.7-24-24zm56 56l144 0c13.3 0 24 10.7 24 24s-10.7 24-24 24l-144 0c-13.3 0-24-10.7-24-24s10.7-24 24-24z"/></svg>