<svg xmlns="http://www.w3.org/2000/svg" viewBox="0 0 640 512"><path fill="currentColor" d="M145.3 156.5c-20.7 3.6-35.9 20-39.1 39.7-1.4 8.7 7.2 14.7 15.9 13.2l54.2-9.6 0-38.3c-9.2-4.9-20-6.9-31-5zM131.4 316.4c-1.9 9.7 7.2 17.2 16.9 15.5l29.1-5.1c-.7-7.7-1.1-15.5-1.1-23.3l0-51.4c-23.4 14-39.8 37.5-44.9 64.3zM86.7 284.5L58.6 125.3c-.1-.7-.1-1.1-.1-1.4 14-20.2 54.7-59.2 133.2-73 12.6-2.2 24.6-3.5 35.8-4 20.8-15.1 47.9-29.3 81.1-39.4-32.8-8.8-75-12.7-125.3-3.8-91.9 16.2-143.8 63-164.7 93.6-8.1 11.8-9.3 25.3-7.3 36.5L39.4 292.9c15.5 87.9 85.5 155.9 173.7 169L234 465c-13.7-16.8-25.3-35.3-34.3-55-57.9-16.6-102.3-64.9-112.9-125.4zM416.3 40c-93.3 0-152.5 37-178.5 63.6-10 10.2-13.5 23.4-13.5 34.6l0 161.7c0 89.2 57.1 168.4 141.7 196.6l23.4 7.8c17.5 5.8 36.3 5.8 53.8 0l23.4-7.8c84.6-28.2 141.7-107.4 141.7-196.6l0-161.7c0-11.3-3.5-24.4-13.5-34.6-26-26.5-85.2-63.6-178.5-63.6zm-144 98.2c0-.7 .1-1.1 .1-1.4 17.3-17.5 64.2-48.8 143.9-48.8s126.5 31.3 143.8 48.8c.1 .2 .2 .7 .2 1.4l0 161.7c0 68.6-43.9 129.4-108.9 151.1l-23.4 7.8c-7.6 2.5-15.8 2.5-23.5 0L381.3 451c-65-21.7-108.9-82.5-108.9-151.1l0-161.7zM307 224.3c-2.9 8.4 4.5 15.7 13.4 15.7l64 0c8.8 0 16.3-7.4 13.4-15.7-6.5-18.8-24.4-32.3-45.4-32.3s-38.9 13.5-45.4 32.3zM512.3 240c8.8 0 16.3-7.4 13.4-15.7-6.5-18.8-24.4-32.3-45.4-32.3s-38.9 13.5-45.4 32.3c-2.9 8.4 4.5 15.7 13.4 15.7l64 0zM306.5 309.7c10.1 51.4 55.5 90.3 109.9 90.3s99.8-38.8 109.9-90.3c1.4-7-7-11-12.7-6.6-26.9 20.6-60.6 32.9-97.2 32.9s-70.2-12.3-97.2-32.9c-5.7-4.4-14.1-.4-12.7 6.6z"/></svg>