<svg xmlns="http://www.w3.org/2000/svg" viewBox="0 0 576 512"><path fill="currentColor" d="M576 386.1c0 69.7-55.7 126.5-125.4 128-71.7 1.5-130.6-56.2-130.6-128l0-10.1c0-13.3 10.7-24 24-24s24 10.7 24 24l0 10.1c0 44.8 36.8 80.9 81.7 80 43.5-.9 78.3-36.4 78.3-80l0-178.1 48 0 0 178.1zM390.5 64.3C422.8 67.6 448 94.9 448 128l0 96-.3 6.5c-3.1 30.1-27 54.1-57.1 57.1l-6.5 .3-76.2 0-4.1-.2c-18.9-1.3-36-11.9-45.7-28.2l-2-3.6-8.8-17.7c-4.4-8.8-13.4-14.3-23.2-14.3s-18.8 5.5-23.2 14.3l-8.8 17.7-2 3.6c-9.7 16.3-26.8 26.9-45.7 28.2l-4.1 .2-76.2 0-6.5-.3c-30.1-3.1-54.1-27-57.1-57.1L0 224 0 128C0 94.9 25.2 67.6 57.5 64.3l6.5-.3 320 0 6.5 .3zM64 112c-8.8 0-16 7.2-16 16l0 96c0 8.8 7.2 16 16 16l76.2 0c3.7 0 7.2-2.1 8.8-5.5l8.8-17.7 2.5-4.6C173.6 189.9 197.8 176 224 176s50.4 13.9 63.6 36.2l2.5 4.6 8.8 17.7c1.7 3.4 5.1 5.5 8.8 5.5l76.2 0c8.8 0 16-7.2 16-16l0-96c0-8.8-7.2-16-16-16L64 112zM552 32c13.3 0 24 10.7 24 24l0 104-48 0 0-104c0-13.3 10.7-24 24-24z"/></svg>