<svg xmlns="http://www.w3.org/2000/svg" viewBox="0 0 640 512"><path fill="currentColor" d="M176 300.8c0 26.7 8.9 52.3 24.7 73.6-.5-4.3-.7-8.7-.7-13.1 0-31.9 12.4-72.4 31.4-104.9 9.6-16.5 21.7-32.1 36-43.8 14.3-11.8 32.1-20.7 52.6-20.7 20.4 0 38.2 8.9 52.4 20.7s26.3 27.3 36 43.8c19.1 32.5 31.6 73 31.6 104.9 0 4.3-.2 8.5-.6 12.7 15.7-21.2 24.6-46.6 24.6-73.2 0-38.2-17.9-96.6-49.1-145.7-32.7-51.4-68.2-75.1-94.9-75.1-27.3 0-62.7 23.8-95.2 75-31.1 49.1-48.8 107.5-48.8 145.8zm72 60.5c0 12.2 2.9 23.6 8 33.6l0 75c-38.4-12.6-71.1-36.1-93.8-66.6L90.9 385.5C37.5 372.1 0 324.1 0 269l0-85c0-30.9 25.1-56 56-56l129.1 0c34.7-54.2 82.3-96 134.9-96 52.1 0 99.7 41.8 134.5 96L584 128c30.9 0 56 25.1 56 56l0 85c0 55.1-37.5 103.1-90.9 116.4l-71.6 17.9c-22.8 30.4-55.5 53.8-93.5 66.4l0-75c5.1-10 8-21.3 8-33.5 0-21.6-9.2-53.7-25-80.6-7.8-13.2-16.4-23.9-25.1-31.1s-16-9.7-21.9-9.7c-6 0-13.5 2.6-22.1 9.7-8.7 7.1-17.3 17.8-25.1 31-15.7 26.8-24.8 59-24.8 80.6zm257.6-14.5l31.8-8c32.1-8 54.5-36.8 54.5-69.8l0-85c0-4.4-3.6-8-8-8l-103.3 0c19.8 43.2 31.3 88.7 31.3 124.8 0 16-2.2 31.4-6.4 46.1zM159.1 176L56 176c-4.4 0-8 3.6-8 8l0 85c0 33 22.5 61.8 54.5 69.8l31.8 7.9c-4.1-14.7-6.3-30.1-6.3-46 0-36.1 11.4-81.6 31.1-124.8zM296 328c0-13.3 10.7-24 24-24s24 10.7 24 24l0 184-48 0 0-184z"/></svg>