<svg xmlns="http://www.w3.org/2000/svg" viewBox="0 0 448 512"><path fill="currentColor" d="M400 208c0-97.2-78.8-176-176-176S48 110.8 48 208l0 128c0 79.5 64.5 144 144 144l64 0c79.5 0 144-64.5 144-144l0-128zM0 208C0 84.3 100.3-16 224-16S448 84.3 448 208l0 128c0 106-86 192-192 192l-64 0C86 528 0 442 0 336L0 208zm210.4-31.8L224 200 237.6 176.2C249 156.3 270.2 144 293.1 144l58.9 0c17.7 0 32 14.3 32 32l0 32c0 44.2-35.8 80-80 80l-40 0 16 32 8 0c35.3 0 64 28.7 64 64s-28.7 64-64 64l-128 0c-35.3 0-64-28.7-64-64s28.7-64 64-64l8 0 16-32-40 0c-44.2 0-80-35.8-80-80l0-32c0-17.7 14.3-32 32-32l58.9 0c23 0 44.2 12.3 55.6 32.2zM177.8 248c7.9 0 14.2-6.4 14.2-14.2 0-27.5-22.3-49.8-49.8-49.8l-24 0c-7.9 0-14.2 6.4-14.2 14.2 0 27.5 22.3 49.8 49.8 49.8l24 0zm116.4 0c27.5 0 49.8-22.3 49.8-49.8 0-7.9-6.4-14.2-14.2-14.2l-24 0c-27.5 0-49.8 22.3-49.8 49.8 0 7.9 6.4 14.2 14.2 14.2l24 0zM136 384c0 13.3 10.7 24 24 24l128 0c13.3 0 24-10.7 24-24s-10.7-24-24-24l-128 0c-13.3 0-24 10.7-24 24z"/></svg>