<svg xmlns="http://www.w3.org/2000/svg" viewBox="0 0 448 512"><path fill="currentColor" d="M124.1 80L48 80 48 156.1 124.1 80zM0 192L0 64C0 46.3 14.3 32 32 32l128 0c17.7 0 32 14.3 32 32l0 2.7c0 8.5-3.4 16.6-9.4 22.6l-45.7 45.7 87 87 87-87-45.7-45.7c-6-6-9.4-14.1-9.4-22.6l0-2.7c0-17.7 14.3-32 32-32l128 0c17.7 0 32 14.3 32 32l0 128c0 17.7-14.3 32-32 32l-2.7 0c-8.5 0-16.6-3.4-22.6-9.4l-45.7-45.7-87 87 87 87 45.7-45.7c6-6 14.1-9.4 22.6-9.4l2.7 0c17.7 0 32 14.3 32 32l0 128c0 17.7-14.3 32-32 32l-128 0c-17.7 0-32-14.3-32-32l0-2.7c0-8.5 3.4-16.6 9.4-22.6l45.7-45.7-87-87-87 87 45.7 45.7c6 6 9.4 14.1 9.4 22.6l0 2.7c0 17.7-14.3 32-32 32L32 480c-17.7 0-32-14.3-32-32L0 320c0-17.7 14.3-32 32-32l2.7 0c8.5 0 16.6 3.4 22.6 9.4l45.7 45.7 87-87-87-87-45.7 45.7c-6 6-14.1 9.4-22.6 9.4L32 224c-17.7 0-32-14.3-32-32zM323.9 432l76.1 0 0-76.1-76.1 76.1zM48 355.9l0 76.1 76.1 0-76.1-76.1zM323.9 80l76.1 76.1 0-76.1-76.1 0z"/></svg>