<svg xmlns="http://www.w3.org/2000/svg" viewBox="0 0 512 512"><path fill="currentColor" d="M443.2 138.7c8.1 13.4 13.9 26.9 17.3 39.8 .5 1.9 .9 3.8 1.3 5.7 2.4 11.6 2.8 22.5 .9 32.1-1.9 10.1-6.2 18.8-13 25.6l-.2 .2c-29 28.7-92.5 11.9-142-37.6-49.6-49.6-66.4-113.3-37.4-142.2 1.8-1.8 3.7-3.4 5.8-4.8 .6-.5 1.3-.9 2-1.3 3-1.9 6.3-3.5 9.9-4.7 .6-.2 1.2-.4 1.9-.6 32.7-10.1 82.4 8.5 122.8 48.9 12.4 12.4 22.8 25.7 30.8 39.1zM388.8 302.1C363 323.9 330.1 336 296 336l-88 0c-17.7 0-32-14.3-32-32l0-88c0-34.1 12.1-67 33.9-92.8 .8 5 1.9 9.9 3.1 14.6 9.3 35.3 30.9 70.9 60.6 100.6s65.3 51.4 100.6 60.6c4.7 1.2 9.6 2.3 14.6 3.1zM212.6 384l83.4 0c50.9 0 99.8-20.2 135.8-56.2l51.7-51.7 .3-.3c23.7-23.7 29.9-54.3 27.8-82.5-.7-9.4-2.3-18.5-4.6-27-5.8-22-16.4-44.1-30.7-64.8-8.7-12.5-18.7-24.6-30-35.8-29.7-29.7-65.3-51.4-100.6-60.6-34-8.9-78-8.3-109.5 23.2l-52 52c-36 36-56.2 84.8-56.2 135.8l0 83.4c0 7.1-2.8 13.9-7.8 18.9-10.3 10.3-26.9 9.7-40.7 5-6.1-2.1-12.7-3.2-19.5-3.2-33.1 0-60 26.9-60 60s26.9 60 60 60c6.3 0 12 5.7 12 12 0 33.1 26.9 60 60 60s60-26.9 60-60c0-6.8-1.1-13.4-3.2-19.5-4.7-13.8-5.3-30.4 5-40.7 5-5 11.8-7.8 18.9-7.8zm175-204.4c8.9-8.9 3.8-28.5-11.5-43.8s-34.9-20.4-43.8-11.5-3.8 28.5 11.5 43.8 34.9 20.4 43.8 11.5z"/></svg>