<svg xmlns="http://www.w3.org/2000/svg" viewBox="0 0 512 512"><path fill="currentColor" d="M21.6 64.2L96.4 213.8c-20.2 30.4-32 67-32 106.2 0 106 86 192 192 192s192-86 192-192c0-39.3-11.8-75.8-32-106.2L491 64.2c11.9-23.7 2.2-52.5-21.5-64.4L383.8-43.1c-23.1-11.6-51.2-2.7-63.6 19.9l-63.8 117-63.8-117C180.1-45.8 152-54.7 128.9-43.1L43-.2C19.3 11.7 9.7 40.5 21.6 64.2zm269.1 66.9L362.3-.2 448.1 42.7 382 174.9c-25.5-22.1-56.8-37.6-91.3-43.8zm-68.8 0c-34.5 6.2-65.9 21.7-91.3 43.8L64.5 42.7 150.3-.2 221.9 131.1zM112.3 320a144 144 0 1 1 288 0 144 144 0 1 1 -288 0zm174.8-49.5l-22.4-45.4c-3.4-7-13.3-7-16.8 0l-22.4 45.4c-1.4 2.8-4 4.7-7 5.1l-50.1 7.3c-7.7 1.1-10.7 10.5-5.2 16l36.3 35.4c2.2 2.1 3.2 5.2 2.7 8.3l-8.6 49.9c-1.3 7.6 6.7 13.5 13.6 9.9L252 378.7c2.7-1.4 6-1.4 8.7 0l44.8 23.6c6.9 3.6 14.9-2.2 13.6-9.9l-8.6-49.9c-.5-3 .5-6.1 2.7-8.3l36.3-35.4c5.5-5.4 2.5-14.8-5.2-16l-50.1-7.3c-3-.4-5.7-2.4-7-5.1z"/></svg>