<svg xmlns="http://www.w3.org/2000/svg" viewBox="0 0 512 512"><path fill="currentColor" d="M464 256c0-25.8-4.7-50.4-13.2-73.2-14.9 51.3-51.2 110.5-104.3 163.6S234.1 435.9 182.8 450.8c22.8 8.6 47.4 13.2 73.2 13.2 114.9 0 208-93.1 208-208zM61.2 329.2c14.9-51.3 51.2-110.5 104.3-163.6S277.9 76.1 329.2 61.2c-22.8-8.6-47.4-13.2-73.2-13.2-114.9 0-208 93.1-208 208 0 25.8 4.7 50.4 13.2 73.2zM0 256a256 256 0 1 1 512 0 256 256 0 1 1 -512 0zM403 109c-5.2-5.2-24.1-13.9-67.8 .7-40.7 13.6-89.8 44-135.7 89.9s-76.3 95-89.9 135.7c-14.6 43.7-5.8 62.6-.7 67.8s24.1 13.9 67.8-.7c40.7-13.6 89.9-44 135.7-89.9s76.3-95 89.9-135.7c14.6-43.7 5.8-62.6 .7-67.8z"/></svg>