<svg xmlns="http://www.w3.org/2000/svg" viewBox="0 0 576 512"><path fill="currentColor" d="M96 48l256 0c8.8 0 16 7.2 16 16l0 154.9c15.2-5.4 31.3-8.9 48-10.3L416 64c0-35.3-28.7-64-64-64L96 0C60.7 0 32 28.7 32 64l0 384c0 35.3 28.7 64 64 64l180 0c-10.5-14.6-19-30.7-25.1-48L96 464c-8.8 0-16-7.2-16-16L80 64c0-8.8 7.2-16 16-16zm32 104c0 13.3 10.7 24 24 24l144 0c13.3 0 24-10.7 24-24s-10.7-24-24-24l-144 0c-13.3 0-24 10.7-24 24zm0 96c0 13.3 10.7 24 24 24l80 0c13.3 0 24-10.7 24-24s-10.7-24-24-24l-80 0c-13.3 0-24 10.7-24 24zm0 96c0 13.3 10.7 24 24 24l48 0c13.3 0 24-10.7 24-24s-10.7-24-24-24l-48 0c-13.3 0-24 10.7-24 24zM432 544a144 144 0 1 0 0-288 144 144 0 1 0 0 288zm0-228a20 20 0 1 1 0 40 20 20 0 1 1 0-40zm-32 84c0-8.8 7.2-16 16-16l16 0c8.8 0 16 7.2 16 16l0 48c8.8 0 16 7.2 16 16s-7.2 16-16 16l-32 0c-8.8 0-16-7.2-16-16s7.2-16 16-16l0 0 0-32 0 0c-8.8 0-16-7.2-16-16z"/></svg>