<svg xmlns="http://www.w3.org/2000/svg" viewBox="0 0 512 512"><path fill="currentColor" d="M0 120C0 89.1 25.1 64 56 64l400 0c30.9 0 56 25.1 56 56l0 28.7c0 9.8-5.9 18.6-15 22.2-14.7 6-25 20.4-25 37.1s10.3 31.1 25 37.1c9.1 3.7 15 12.5 15 22.2L512 416c0 17.7-14.3 32-32 32L32 448c-17.7 0-32-14.3-32-32L0 267.3c0-9.8 5.9-18.6 15-22.2 14.7-6 25-20.4 25-37.1s-10.3-31.1-25-37.1c-9.1-3.7-15-12.5-15-22.2L0 120zm56-8c-4.4 0-8 3.6-8 8l0 14.2c24.1 15.7 40 42.8 40 73.8s-15.9 58.1-40 73.8l0 22.2 416 0 0-22.2c-24.1-15.7-40-42.8-40-73.8s15.9-58.1 40-73.8l0-14.2c0-4.4-3.6-8-8-8L56 112zM48 400l40 0c0-13.3 10.7-24 24-24s24 10.7 24 24l48 0c0-13.3 10.7-24 24-24s24 10.7 24 24l48 0c0-13.3 10.7-24 24-24s24 10.7 24 24l48 0c0-13.3 10.7-24 24-24s24 10.7 24 24l40 0 0-48-416 0 0 48zM176 168l0 80c0 13.3-10.7 24-24 24s-24-10.7-24-24l0-80c0-13.3 10.7-24 24-24s24 10.7 24 24zm104 0l0 80c0 13.3-10.7 24-24 24s-24-10.7-24-24l0-80c0-13.3 10.7-24 24-24s24 10.7 24 24zm104 0l0 80c0 13.3-10.7 24-24 24s-24-10.7-24-24l0-80c0-13.3 10.7-24 24-24s24 10.7 24 24z"/></svg>