<svg xmlns="http://www.w3.org/2000/svg" viewBox="0 0 384 512"><path fill="currentColor" d="M106.7-7C98.4-17.4 83.3-19 73-10.7S61 12.7 69.3 23C79.2 35.4 91.5 46.1 105.3 54.8 52 85.1 16 142.3 16 208 16 297.1 82.2 370.7 168 382.4l0 33.6-32 0c-13.3 0-24 10.7-24 24s10.7 24 24 24l32 0 0 24c0 13.3 10.7 24 24 24s24-10.7 24-24l0-24 32 0c13.3 0 24-10.7 24-24s-10.7-24-24-24l-32 0 0-33.6c85.8-11.7 152-85.3 152-174.4 0-65.7-36-122.9-89.3-153.2 13.8-8.7 26.1-19.4 36-31.8 8.3-10.3 6.6-25.4-3.7-33.7S285.6-17.4 277.3-7C258.7 16.2 225.6 32 192 32S125.3 16.2 106.7-7zM64 208a128 128 0 1 1 256 0 128 128 0 1 1 -256 0z"/></svg>