<svg xmlns="http://www.w3.org/2000/svg" viewBox="0 0 512 512"><path fill="currentColor" d="M0 88C0 74.7 10.7 64 24 64l100.3 0c30 0 58.2 14 76.4 37.8l84.8 111.3c9.1 11.9 23.2 18.9 38.2 18.9l106.4 0-39-39c-9.4-9.4-9.4-24.6 0-33.9s24.6-9.4 33.9 0l80 80c9.4 9.4 9.4 24.6 0 33.9l-80 80c-9.4 9.4-24.6 9.4-33.9 0s-9.4-24.6 0-33.9l39-39-106.4 0c-15 0-29.1 7-38.2 18.9L200.7 410.2C182.5 434 154.3 448 124.3 448L24 448c-13.3 0-24-10.7-24-24s10.7-24 24-24l100.3 0c15 0 29.1-7 38.2-18.9l84.8-111.3c3.9-5.1 8.2-9.7 12.9-13.8-4.7-4.1-9-8.8-12.9-13.8L162.5 130.9C153.4 119 139.3 112 124.3 112L24 112C10.7 112 0 101.3 0 88z"/></svg>