<svg xmlns="http://www.w3.org/2000/svg" viewBox="0 0 512 512"><path fill="currentColor" d="M416 32c53 0 96 43 96 96l0 224c0 53-43 96-96 96l-120.4 0-129.8 91.6c-7.3 5.2-16.9 5.8-24.9 1.7S128 529 128 520l0-72-32 0c-53 0-96-43-96-96L0 128C0 75 43 32 96 32l320 0zM96 80c-26.5 0-48 21.5-48 48l0 224c0 26.5 21.5 48 48 48l56 0c13.3 0 24 10.7 24 24l0 49.7 91.9-64.9c8.1-5.7 17.8-8.8 27.7-8.8L416 400c26.5 0 48-21.5 48-48l0-224c0-26.5-21.5-48-48-48L96 80zM256 368a32 32 0 1 1 0-64 32 32 0 1 1 0 64zm0-256c18.2 0 32.7 15.5 31.4 33.7l-7.4 104c-.9 12.6-11.4 22.3-23.9 22.3-12.6 0-23-9.7-23.9-22.3l-7.4-104C223.3 127.5 237.8 112 256 112z"/></svg>