<svg xmlns="http://www.w3.org/2000/svg" viewBox="0 0 640 512"><path fill="currentColor" d="M128 128c0-26.5 21.5-48 48-48l288 0c26.5 0 48 21.5 48 48l0 224c0 26.5-21.5 48-48 48l-104.4 0c-9.9 0-19.6 3.1-27.7 8.8L240 473.7 240 424c0-13.3-10.7-24-24-24l-40 0c-26.5 0-48-21.5-48-48l0-224zm48-96c-53 0-96 43-96 96l0 64-56 0c-13.3 0-24 10.7-24 24s10.7 24 24 24l56 0 0 112c0 53 43 96 96 96l16 0 0 72c0 9 5 17.2 13 21.3s17.6 3.5 24.9-1.7L359.6 448 464 448c53 0 96-43 96-96l0-112 56 0c13.3 0 24-10.7 24-24s-10.7-24-24-24l-56 0 0-64c0-53-43-96-96-96L176 32zm80 96c-53 0-96 43-96 96s43 96 96 96l128 0c53 0 96-43 96-96s-43-96-96-96l-128 0zm0 64a32 32 0 1 1 0 64 32 32 0 1 1 0-64zm96 32a32 32 0 1 1 64 0 32 32 0 1 1 -64 0z"/></svg>