<svg xmlns="http://www.w3.org/2000/svg" viewBox="0 0 512 512"><path fill="currentColor" d="M203.7 512.9l0 0-37.8 26.7c-7.3 5.2-16.9 5.8-24.9 1.7S128 529 128 520l0-72-32 0c-53 0-96-43-96-96L0 128C0 75 43 32 96 32l320 0c53 0 96 43 96 96l0 224c0 53-43 96-96 96l-120.4 0-91.9 64.9zm64.3-104.1c8.1-5.7 17.8-8.8 27.7-8.8L416 400c26.5 0 48-21.5 48-48l0-224c0-26.5-21.5-48-48-48L96 80c-26.5 0-48 21.5-48 48l0 224c0 26.5 21.5 48 48 48l56 0c10.4 0 19.3 6.6 22.6 15.9 .9 2.5 1.4 5.2 1.4 8.1l0 49.7c32.7-23.1 63.3-44.7 91.9-64.9zM287 159c9.4-9.4 24.6-9.4 33.9 0l64 64c9.4 9.4 9.4 24.6 0 33.9l-64 64c-9.4 9.4-24.6 9.4-33.9 0s-9.4-24.6 0-33.9l47-47-47-47c-9.4-9.4-9.4-24.6 0-33.9zM225 193l-47 47 47 47c9.4 9.4 9.4 24.6 0 33.9s-24.6 9.4-33.9 0l-64-64c-9.4-9.4-9.4-24.6 0-33.9l64-64c9.4-9.4 24.6-9.4 33.9 0s9.4 24.6 0 33.9z"/></svg>