<svg xmlns="http://www.w3.org/2000/svg" viewBox="0 0 640 512"><path fill="currentColor" d="M160 80c-26.5 0-48 21.5-48 48l0 224c0 26.5 21.5 48 48 48l56 0c13.3 0 24 10.7 24 24l0 49.7 64-45.2 0 43.5c0 4.9 .5 9.7 1.4 14.3l-75.6 53.3c-7.3 5.2-16.9 5.8-24.9 1.7S192 529 192 520l0-72-32 0c-53 0-96-43-96-96l0-224c0-53 43-96 96-96l320 0c53 0 96 43 96 96l0 156.1c-11.4-7.7-25.2-12.1-40-12.1-2.7 0-5.4 .2-8 .4L528 128c0-26.5-21.5-48-48-48L160 80zM480 312l0 208c0 13.3-10.7 24-24 24s-24-10.7-24-24l0-208c0-13.3 10.7-24 24-24s24 10.7 24 24zm80 32l0 144c0 13.3-10.7 24-24 24s-24-10.7-24-24l0-144c0-13.3 10.7-24 24-24s24 10.7 24 24zM400 360l0 112c0 13.3-10.7 24-24 24s-24-10.7-24-24l0-112c0-13.3 10.7-24 24-24s24 10.7 24 24zm240 32l0 48c0 13.3-10.7 24-24 24s-24-10.7-24-24l0-48c0-13.3 10.7-24 24-24s24 10.7 24 24z"/></svg>