<svg xmlns="http://www.w3.org/2000/svg" viewBox="0 0 576 512"><path fill="currentColor" d="M41-24.9c-9.4-9.4-24.6-9.4-33.9 0S-2.3-.3 7 9.1l528 528c9.4 9.4 24.6 9.4 33.9 0s9.4-24.6 0-33.9l-69.8-69.8c27-17 44.9-47 44.9-81.3l0-224c0-53-43-96-96-96L128 32c-9.2 0-18.1 1.3-26.5 3.7L41-24.9zM145.8 80L448 80c26.5 0 48 21.5 48 48l0 224c0 21.1-13.7 39.1-32.7 45.5L145.8 80zM330.2 400l-2.6 0c-9.9 0-19.6 3.1-27.7 8.8-28.6 20.2-59.3 41.8-91.9 64.9l0-49.7c0-2.8-.5-5.6-1.4-8.1-3.3-9.3-12.2-15.9-22.6-15.9l-56 0c-26.5 0-48-21.5-48-48l0-202.2-45.1-45.1C33 112.1 32 120 32 128l0 224c0 53 43 96 96 96l32 0 0 72c0 9 5 17.2 13 21.3s17.6 3.5 24.9-1.7l37.8-26.7 0 0 91.9-64.9 50.6 0-48-48z"/></svg>