<svg xmlns="http://www.w3.org/2000/svg" viewBox="0 0 512 512"><path fill="currentColor" d="M203.7 512.9l0 0 91.9-64.9 120.4 0c53 0 96-43 96-96l0-224c0-53-43-96-96-96L96 32C43 32 0 75 0 128L0 352c0 53 43 96 96 96l32 0 0 72c0 9 5 17.2 13 21.3s17.6 3.5 24.9-1.7l37.8-26.7zM295.6 400c-9.9 0-19.6 3.1-27.7 8.8-28.6 20.2-59.3 41.8-91.9 64.9l0-49.7c0-2.8-.5-5.6-1.4-8.1-3.3-9.3-12.2-15.9-22.6-15.9l-56 0c-26.5 0-48-21.5-48-48l0-224c0-26.5 21.5-48 48-48l320 0c26.5 0 48 21.5 48 48l0 224c0 26.5-21.5 48-48 48l-120.4 0zM140.8 172.8c-23 0-41.6 18.6-41.6 41.6S117.8 256 140.8 256c5.3 0 9.6 4.3 9.6 9.6s-4.3 9.6-9.6 9.6l-25.6 0c-8.8 0-16 7.2-16 16s7.2 16 16 16l25.6 0c23 0 41.6-18.6 41.6-41.6S163.8 224 140.8 224c-5.3 0-9.6-4.3-9.6-9.6s4.3-9.6 9.6-9.6l19.2 0c8.8 0 16-7.2 16-16s-7.2-16-16-16l-19.2 0zm188.8 41.6c0 23 18.6 41.6 41.6 41.6 5.3 0 9.6 4.3 9.6 9.6s-4.3 9.6-9.6 9.6l-25.6 0c-8.8 0-16 7.2-16 16s7.2 16 16 16l25.6 0c23 0 41.6-18.6 41.6-41.6S394.2 224 371.2 224c-5.3 0-9.6-4.3-9.6-9.6s4.3-9.6 9.6-9.6l19.2 0c8.8 0 16-7.2 16-16s-7.2-16-16-16l-19.2 0c-23 0-41.6 18.6-41.6 41.6zm-98.3-33.8c-3.7-6.2-11.1-9.1-18-7.2s-11.7 8.2-11.7 15.4l0 102.4c0 8.8 7.2 16 16 16s16-7.2 16-16l0-44.6 8.7 14.5c2.9 4.8 8.1 7.8 13.7 7.8s10.8-3 13.7-7.8l8.7-14.5 0 44.6c0 8.8 7.2 16 16 16s16-7.2 16-16l0-102.4c0-7.2-4.8-13.5-11.7-15.4s-14.3 1-18 7.2l-24.7 41.1-24.7-41.1z"/></svg>