<svg xmlns="http://www.w3.org/2000/svg" viewBox="0 0 576 512"><path fill="currentColor" d="M48 40l0 192c0 13.3 10.7 24 24 24l32 0c13.3 0 24 10.7 24 24l0 31.3 54.6-42c11.2-8.6 24.9-13.3 39-13.3l90.4 0c13.3 0 24-10.7 24-24l0-192c0-13.3-10.7-24-24-24L72 16C58.7 16 48 26.7 48 40zM72-32l240 0c39.8 0 72 32.2 72 72l0 192c0 39.8-32.2 72-72 72l-90.4 0c-3.5 0-7 1.2-9.8 3.3L118.6 379c-7.2 5.6-17 6.5-25.2 2.5S80 369.1 80 360l0-56-8 0c-39.8 0-72-32.2-72-72L0 40C0 .2 32.2-32 72-32zM240 352l0 40c0 13.3 10.7 24 24 24l90.4 0c14.1 0 27.8 4.7 39 13.3l54.6 42 0-31.3c0-13.3 10.7-24 24-24l32 0c13.3 0 24-10.7 24-24l0-192c0-13.3-10.7-24-24-24l-72 0 0-48 72 0c39.8 0 72 32.2 72 72l0 192c0 39.8-32.2 72-72 72l-8 0 0 56c0 9.1-5.2 17.5-13.4 21.5s-18 3.1-25.2-2.5l-93.2-71.7c-2.8-2.2-6.2-3.3-9.8-3.3L264 464c-39.8 0-72-32.2-72-72l0-8.9 40.5-31.1 7.5 0z"/></svg>