<svg xmlns="http://www.w3.org/2000/svg" viewBox="0 0 576 512"><path fill="currentColor" d="M72 16l240 0c13.3 0 24 10.7 24 24l0 192c0 13.3-10.7 24-24 24l-90.4 0c-14.1 0-27.8 4.7-39 13.3l-54.6 42 0-31.3c0-13.3-10.7-24-24-24l-32 0c-13.3 0-24-10.7-24-24L48 40c0-13.3 10.7-24 24-24zM0 40L0 232c0 39.8 32.2 72 72 72l8 0 0 56c0 9.1 5.2 17.5 13.4 21.5s18 3.1 25.2-2.5l93.2-71.7c2.8-2.2 6.2-3.3 9.8-3.3l90.4 0c39.8 0 72-32.2 72-72l0-192c0-39.8-32.2-72-72-72L72-32C32.2-32 0 .2 0 40zM240 392l0-40-7.5 0-40.5 31.1 0 8.9c0 39.8 32.2 72 72 72l90.4 0c3.5 0 7 1.2 9.8 3.3L457.4 539c7.2 5.6 17 6.5 25.2 2.5S496 529.1 496 520l0-56 8 0c39.8 0 72-32.2 72-72l0-192c0-39.8-32.2-72-72-72l-72 0 0 48 72 0c13.3 0 24 10.7 24 24l0 192c0 13.3-10.7 24-24 24l-32 0c-13.3 0-24 10.7-24 24l0 31.3-54.6-42c-11.2-8.6-24.9-13.3-39-13.3L264 416c-13.3 0-24-10.7-24-24zM196 32c-11 0-20 9-20 20l0 4.2c-24.7 2.3-44 23.1-44 48.4 0 23.2 16.3 43.1 39 47.6l34.1 6.8c4 .8 6.9 4.3 6.9 8.4 0 4.7-3.8 8.6-8.6 8.6L160 176c-11 0-20 9-20 20s9 20 20 20l16 0 0 4c0 11 9 20 20 20s20-9 20-20l0-5.6c20.7-5.5 36-24.5 36-46.9 0-23.2-16.3-43.1-39-47.6L178.9 113c-4-.8-6.9-4.3-6.9-8.4 0-4.7 3.8-8.6 8.6-8.6L224 96c11 0 20-9 20-20s-9-20-20-20l-8 0 0-4c0-11-9-20-20-20z"/></svg>