<svg xmlns="http://www.w3.org/2000/svg" viewBox="0 0 512 512"><path fill="currentColor" d="M416 32c53 0 96 43 96 96l0 224c0 53-43 96-96 96l-120.4 0-129.8 91.6c-7.3 5.2-16.9 5.8-24.9 1.7S128 529 128 520l0-72-32 0c-53 0-96-43-96-96L0 128C0 75 43 32 96 32l320 0zM96 80c-26.5 0-48 21.5-48 48l0 224c0 26.5 21.5 48 48 48l56 0c13.3 0 24 10.7 24 24l0 49.7 91.9-64.9c8.1-5.7 17.8-8.8 27.7-8.8L416 400c26.5 0 48-21.5 48-48l0-224c0-26.5-21.5-48-48-48L96 80zm230.7 65.9c7.8-10.7 22.8-13.1 33.5-5.3 10.7 7.8 13.1 22.8 5.3 33.5L243.4 342.1c-4.1 5.7-10.5 9.3-17.5 9.8-7 .5-13.9-2-18.8-6.9l-55.9-55.9c-9.4-9.4-9.4-24.6 0-33.9s24.6-9.4 33.9 0l36 36 105.6-145.2z"/></svg>