<svg xmlns="http://www.w3.org/2000/svg" viewBox="0 0 512 512"><path fill="currentColor" d="M48 128c0-26.5 21.5-48 48-48l320 0c26.5 0 48 21.5 48 48l0 224c0 26.5-21.5 48-48 48l-120.4 0c-9.9 0-19.6 3.1-27.7 8.8L176 473.7 176 424c0-13.3-10.7-24-24-24l-56 0c-26.5 0-48-21.5-48-48l0-224zM96 32C43 32 0 75 0 128L0 352c0 53 43 96 96 96l32 0 0 72c0 9 5 17.2 13 21.3s17.6 3.5 24.9-1.7L295.6 448 416 448c53 0 96-43 96-96l0-224c0-53-43-96-96-96L96 32zm48.4 302.3c-.3 1.1-.4 2.3-.4 3.5 0 7.9 6.4 14.2 14.2 14.2 1.2 0 2.3-.1 3.5-.4l49.4-12.3c8.4-2.1 16.1-6.5 22.3-12.6L354.7 205.3c8.5-8.5 13.3-20 13.3-32 0-25-20.3-45.3-45.3-45.3-12 0-23.5 4.8-32 13.3L169.4 262.6c-6.2 6.2-10.5 13.9-12.6 22.3l-12.3 49.4z"/></svg>