<svg xmlns="http://www.w3.org/2000/svg" viewBox="0 0 640 512"><path fill="currentColor" d="M320 464c9.5 0 18.8-.6 28-1.9 3.7 16.3 9.8 31.7 17.9 45.8-14.9 2.7-30.2 4.1-45.9 4.1-141.4 0-256-114.6-256-256S178.6 0 320 0C444.7 0 548.5 89.1 571.3 207.2l-2-2.3c-15-16.9-35.5-25.6-56.1-25.9-30.6-76.7-105.6-131-193.3-131-114.9 0-208 93.1-208 208s93.1 208 208 208zM432 152l0 48c0 13.3-10.7 24-24 24s-24-10.7-24-24l0-48c0-13.3 10.7-24 24-24s24 10.7 24 24zM320 128c13.3 0 24 10.7 24 24l0 48c0 13.3-10.7 24-24 24s-24-10.7-24-24l0-48c0-13.3 10.7-24 24-24zm-64 24l0 48c0 13.3-10.7 24-24 24s-24-10.7-24-24l0-48c0-13.3 10.7-24 24-24s24 10.7 24 24zM392 426.1c0-68.9 64.1-150.4 98.6-189.3 11.6-13.1 31.3-13.1 42.9 0 34.5 38.9 98.6 120.4 98.6 189.3 0 65.1-53.7 117.9-120 117.9S392 491.2 392 426.1z"/></svg>