<svg xmlns="http://www.w3.org/2000/svg" viewBox="0 0 576 512"><path fill="currentColor" d="M288 464c18 0 35.5-2.3 52.1-6.6 7.8 3.8 16.6 6.2 25.8 6.5l-11.8 39.4C333 509 310.8 512 288 512 146.6 512 32 397.4 32 256S146.6 0 288 0c127.4 0 233.1 93.1 252.7 214.9-8.8-4.4-18.9-6.9-29.6-6.9-6.8 0-13.5 1-19.9 3.1-20.5-93.3-103.7-163.1-203.1-163.1-114.9 0-208 93.1-208 208s93.1 208 208 208zM400 152l0 48c0 13.3-10.7 24-24 24s-24-10.7-24-24l0-48c0-13.3 10.7-24 24-24s24 10.7 24 24zM288 128c13.3 0 24 10.7 24 24l0 48c0 13.3-10.7 24-24 24s-24-10.7-24-24l0-48c0-13.3 10.7-24 24-24zm-64 24l0 48c0 13.3-10.7 24-24 24s-24-10.7-24-24l0-48c0-13.3 10.7-24 24-24s24 10.7 24 24zM368.6 416c-9.2 0-16.6-7.4-16.6-16.6 0-4.7 2-9.2 5.5-12.4L498.7 260.7c3.4-3 7.8-4.7 12.4-4.7 12.4 0 21.3 12 17.8 23.9l-31.2 104.1 61.8 0c9.2 0 16.6 7.4 16.6 16.6 0 4.7-2 9.2-5.5 12.4L429.3 539.3c-3.4 3-7.8 4.7-12.4 4.7-12.4 0-21.3-12-17.8-23.9l31.2-104.1-61.8 0z"/></svg>