<svg xmlns="http://www.w3.org/2000/svg" viewBox="0 0 512 512"><path fill="currentColor" d="M474.8 0c-5.2 0-10.3 1.1-15 3.2L324 62.9 325.4 44.7c2.5-34.2-36.2-55.5-63.7-35.1L82.7 142.5C30.6 181.2 0 242.7 0 307.5 0 419.8 91 512 203.6 512 269.3 512 331 480.2 369.2 426.7L495.6 249.8c19.7-27.6-1.8-65.7-35.6-63.1l-10.7 .8 59.5-135.3c2.1-4.7 3.2-9.8 3.2-15 0-20.6-16.7-37.2-37.2-37.2zm-168 122.9l147-64.7-64.5 146.6c-3.4 7.7-2.5 16.7 2.4 23.5s13 10.7 21.4 10.1l33.5-2.6-116.4 163C301 439.7 253.8 464 203.6 464 117.8 464 48 393.6 48 307.5 48 257.8 71.6 210.6 111.4 181l164.8-122.4-3 40.6c-.6 8.4 3.2 16.5 10.1 21.4s15.8 5.8 23.5 2.4zM200 424a112 112 0 1 0 0-224 112 112 0 1 0 0 224zM176 264a24 24 0 1 1 0 48 24 24 0 1 1 0-48zm24 96a16 16 0 1 1 32 0 16 16 0 1 1 -32 0z"/></svg>