<svg xmlns="http://www.w3.org/2000/svg" viewBox="0 0 640 512"><path fill="currentColor" d="M320 48c88.3 0 163.7 55 193.9 132.6 14.9-8.7 32.6-10.7 48.9-6-34-101.5-129.9-174.6-242.8-174.6-141.4 0-256 114.6-256 256 0 140.3 112.9 254.2 252.8 256-11.9-15.3-21.8-32.3-29.2-50.5-99.5-15.6-175.5-101.6-175.5-205.5 0-114.9 93.1-208 208-208zm0 80c-13.3 0-24 10.7-24 24l0 48c0 13.3 10.7 24 24 24s24-10.7 24-24l0-48c0-13.3-10.7-24-24-24zm-64 24c0-13.3-10.7-24-24-24s-24 10.7-24 24l0 48c0 13.3 10.7 24 24 24s24-10.7 24-24l0-48zm249.7 88.1s-24.5-29.4-38.9-40.7c-5.4-4.3-11.5-7.3-18.8-7.5s-14.6 2.3-20.3 7.5c-23.4 21.1-50 48.9-70.9 80.2-20.8 31.1-36.8 67.2-36.8 104.5 0 88.6 70.4 159.8 160 159.8 88.7 0 160-71.2 160-159.8 0-30-11-60.9-26.2-88.1-15.2-27.4-35.3-52.3-55-70.6-5.6-5.2-12.8-7.8-19.9-7.8-7.6 0-15.5 2.8-20.9 8.9l-12.3 13.8zM544 432c0 35.3-28.7 64-64 64s-64-28.7-64-64c0-36.5 37-73 54.8-88.4 5.4-4.7 13.1-4.7 18.5 0 17.7 15.4 54.8 51.9 54.8 88.4z"/></svg>