<svg xmlns="http://www.w3.org/2000/svg" viewBox="0 0 512 512"><path fill="currentColor" d="M176 48l0 224 64 0 0-224-64 0zm-48 0c0-26.5 21.5-48 48-48l64 0c26.5 0 48 21.5 48 48l0 80 32 0c106 0 192 86 192 192 0 57.3-25.1 108.8-65 144l41 0c13.3 0 24 10.7 24 24s-10.7 24-24 24L24 512c-13.3 0-24-10.7-24-24s10.7-24 24-24l296 0c79.5 0 144-64.5 144-144S399.5 176 320 176l-32 0 0 96c0 26.5-21.5 48-48 48l-64 0c-26.5 0-48-21.5-48-48l0-224zm-8 320l176 0c13.3 0 24 10.7 24 24s-10.7 24-24 24l-176 0c-13.3 0-24-10.7-24-24s10.7-24 24-24z"/></svg>