<svg xmlns="http://www.w3.org/2000/svg" viewBox="0 0 576 512"><path fill="currentColor" d="M41-24.9c-9.4-9.4-24.6-9.4-33.9 0S-2.3-.3 7 9.1l528 528c9.4 9.4 24.6 9.4 33.9 0s9.4-24.6 0-33.9L428.2 362.4C450.7 332.8 464 296 464 256l0-40c0-13.3-10.7-24-24-24s-24 10.7-24 24l0 40c0 26.7-8.2 51.5-22.2 72l-23.2-23.2c8.5-14.3 13.3-31 13.3-48.8l0-160c0-53-43-96-96-96s-96 43-96 96l0 30.2-151-151zm199 199L240 96c0-26.5 21.5-48 48-48s48 21.5 48 48l0 160c0 4.3-.6 8.5-1.6 12.5L240 174.2zM350.7 420.5l-38.7-38.7c-7.8 1.5-15.8 2.2-23.9 2.2-70.7 0-128-57.3-128-128l0-26.2-35.1-35.1c-7.7 4-12.9 12-12.9 21.3l0 40c0 89.1 66.2 162.7 152 174.4l0 33.6-48 0c-13.3 0-24 10.7-24 24s10.7 24 24 24l144 0c13.3 0 24-10.7 24-24s-10.7-24-24-24l-48 0 0-33.6c13.4-1.8 26.4-5.2 38.7-9.9z"/></svg>