<svg xmlns="http://www.w3.org/2000/svg" viewBox="0 0 512 512"><path fill="currentColor" d="M229.8 218.1L294 282.3 121.9 439.5c-6.3 5.8-16.1 5.5-22.1-.5L73.1 412.3c-6-6.1-6.3-15.8-.5-22.1L229.8 218.1zM331.6 252l-71.5-71.5-.1-14.5c-.1-16.6 6.1-33.1 18.7-45.8l5.8-5.8 113.1 113.1-5.8 5.8c-12.6 12.6-29.1 18.9-45.8 18.7l-14.5-.1zM318.7 80.8c31.4-25.6 77.8-23.8 107.1 5.5s31.1 75.6 5.5 107.1L318.7 80.8zm141-28.4c-50-50-131-50-181 0L244.8 86.3c-22.1 22.1-33 51.1-32.8 80.1L37.2 357.8c-23.1 25.2-22.2 64.2 2 88.4l26.6 26.7c24.2 24.2 63.2 25.2 88.5 2.1l77.9-71.1 0 116.2c0 13.3 10.7 24 24 24s24-10.7 24-24l0-160 65.6-59.9c29 .2 58-10.7 80.1-32.8l33.9-33.9c50-50 50-131 0-181z"/></svg>