<svg xmlns="http://www.w3.org/2000/svg" viewBox="0 0 576 512"><path fill="currentColor" d="M512 112c8.8 0 16 7.2 16 16l0 256c0 8.8-7.2 16-16 16L64 400c-8.8 0-16-7.2-16-16l0-256c0-8.8 7.2-16 16-16l448 0zM64 64C28.7 64 0 92.7 0 128L0 384c0 35.3 28.7 64 64 64l0 8c0 13.3 10.7 24 24 24s24-10.7 24-24l0-8 352 0 0 8c0 13.3 10.7 24 24 24s24-10.7 24-24l0-8c35.3 0 64-28.7 64-64l0-256c0-35.3-28.7-64-64-64L64 64zM432 184l0 144c0 13.3 10.7 24 24 24s24-10.7 24-24l0-144c0-13.3-10.7-24-24-24s-24 10.7-24 24zM120 160c-13.3 0-24 10.7-24 24l0 144c0 13.3 10.7 24 24 24l240 0c13.3 0 24-10.7 24-24l0-144c0-13.3-10.7-24-24-24l-240 0z"/></svg>