<svg xmlns="http://www.w3.org/2000/svg" viewBox="0 0 512 512"><path fill="currentColor" d="M464 256a208 208 0 1 0 -416 0 208 208 0 1 0 416 0zM0 256a256 256 0 1 1 512 0 256 256 0 1 1 -512 0zM208 144c0-26.5 21.5-48 48-48s48 21.5 48 48l0 96c0 26.5-21.5 48-48 48s-48-21.5-48-48l0-96zm-72 64c13.3 0 24 10.7 24 24l0 8c0 53 43 96 96 96s96-43 96-96l0-8c0-13.3 10.7-24 24-24s24 10.7 24 24l0 8c0 71.4-51.9 130.6-120 142l0 18c0 13.3-10.7 24-24 24s-24-10.7-24-24l0-18c-68.1-11.4-120-70.7-120-142l0-8c0-13.3 10.7-24 24-24z"/></svg>