<svg xmlns="http://www.w3.org/2000/svg" viewBox="0 0 576 512"><path fill="currentColor" d="M7-24.9c9.4-9.4 24.6-9.4 33.9 0l151 151 0-30.2c0-53 43-96 96-96s96 43 96 96l0 160c0 17.8-4.9 34.5-13.3 48.8L393.8 328c14-20.5 22.2-45.3 22.2-72l0-40c0-13.3 10.7-24 24-24s24 10.7 24 24l0 40c0 40-13.3 76.8-35.8 106.4L569 503.1c9.4 9.4 9.4 24.6 0 33.9s-24.6 9.4-33.9 0L7 9.1C-2.3-.3-2.3-15.5 7-24.9zM334.4 268.5c1.1-4 1.6-8.2 1.6-12.5l0-96-24 0c-13.3 0-24-10.7-24-24s10.7-24 24-24l24 0 0-16c0-26.5-21.5-48-48-48s-48 21.5-48 48l0 78.2 94.4 94.4zM311.9 381.8l38.7 38.7c-12.3 4.7-25.2 8-38.7 9.9l0 33.6 48 0c13.3 0 24 10.7 24 24s-10.7 24-24 24l-144 0c-13.3 0-24-10.7-24-24s10.7-24 24-24l48 0 0-33.6C178.2 418.7 112 345.1 112 256l0-40c0-9.2 5.2-17.3 12.9-21.3l35.1 35.1 0 26.2c0 70.7 57.3 128 128 128 8.2 0 16.2-.8 23.9-2.2z"/></svg>