<svg xmlns="http://www.w3.org/2000/svg" viewBox="0 0 576 512"><path fill="currentColor" d="M224 48c26.5 0 48 21.5 48 48l0 101.8c12.9-19.4 29.2-36.2 48-49.8l0-52c0-53-43-96-96-96s-96 43-96 96l0 128c0 53 43 96 96 96 5.6 0 11.2-.5 16.5-1.4-.4-4.8-.5-9.7-.5-14.6 0-12.3 1.2-24.4 3.4-36.1-5.9 2.6-12.5 4.1-19.4 4.1-26.5 0-48-21.5-48-48l0-128c0-26.5 21.5-48 48-48zm47.9 362c-9.1-13.7-16.4-28.5-21.8-44.3-8.5 1.6-17.2 2.4-26.1 2.4-79.5 0-144-64.5-144-144l0-40c0-13.3-10.7-24-24-24s-24 10.7-24 24l0 40c0 97.9 73.3 178.7 168 190.5l0 49.5-48 0c-13.3 0-24 10.7-24 24s10.7 24 24 24l144 0c13.3 0 24-10.7 24-24s-10.7-24-24-24l-48 0 0-49.5c8.1-1 16.1-2.5 23.9-4.5zM432 448a144 144 0 1 0 0-288 144 144 0 1 0 0 288zm16-208l0 48 48 0c8.8 0 16 7.2 16 16s-7.2 16-16 16l-48 0 0 48c0 8.8-7.2 16-16 16s-16-7.2-16-16l0-48-48 0c-8.8 0-16-7.2-16-16s7.2-16 16-16l48 0 0-48c0-8.8 7.2-16 16-16s16 7.2 16 16z"/></svg>