<svg xmlns="http://www.w3.org/2000/svg" viewBox="0 0 384 512"><path fill="currentColor" d="M240 96c0-26.5-21.5-48-48-48s-48 21.5-48 48l0 128c0 26.5 21.5 48 48 48s48-21.5 48-48l-24 0c-13.3 0-24-10.7-24-24s10.7-24 24-24l24 0 0-32-24 0c-13.3 0-24-10.7-24-24s10.7-24 24-24l24 0zM192 0c53 0 96 43 96 96l0 128c0 53-43 96-96 96s-96-43-96-96L96 96c0-53 43-96 96-96zM24 160c13.3 0 24 10.7 24 24l0 40c0 79.5 64.5 144 144 144s144-64.5 144-144l0-40c0-13.3 10.7-24 24-24s24 10.7 24 24l0 40c0 97.9-73.3 178.7-168 190.5l0 49.5 48 0c13.3 0 24 10.7 24 24s-10.7 24-24 24l-144 0c-13.3 0-24-10.7-24-24s10.7-24 24-24l48 0 0-49.5C73.3 402.7 0 321.9 0 224l0-40c0-13.3 10.7-24 24-24z"/></svg>