<svg xmlns="http://www.w3.org/2000/svg" viewBox="0 0 576 512"><path fill="currentColor" d="M352 48c26.5 0 48 21.5 48 48l0 128c0 26.5-21.5 48-48 48s-48-21.5-48-48l0-128c0-26.5 21.5-48 48-48zM256 96l0 128c0 53 43 96 96 96s96-43 96-96l0-128c0-53-43-96-96-96s-96 43-96 96zm-48 88c0-13.3-10.7-24-24-24s-24 10.7-24 24l0 40c0 97.9 73.3 178.7 168 190.5l0 49.5-48 0c-13.3 0-24 10.7-24 24s10.7 24 24 24l144 0c13.3 0 24-10.7 24-24s-10.7-24-24-24l-48 0 0-49.5c94.7-11.8 168-92.6 168-190.5l0-40c0-13.3-10.7-24-24-24s-24 10.7-24 24l0 40c0 79.5-64.5 144-144 144S208 303.5 208 224l0-40zM88 64a32 32 0 1 0 -64 0 32 32 0 1 0 64 0zM56 224a32 32 0 1 0 0-64 32 32 0 1 0 0 64zm32 96a32 32 0 1 0 -64 0 32 32 0 1 0 64 0zM56 480a32 32 0 1 0 0-64 32 32 0 1 0 0 64z"/></svg>