<svg xmlns="http://www.w3.org/2000/svg" viewBox="0 0 512 512"><path fill="currentColor" d="M256 512a256 256 0 1 1 0-512 256 256 0 1 1 0 512zM320 96c0 17.7-14.3 32-32 32l-64 0c-17.7 0-32-14.3-32-32l0-37.9C108.4 85.1 48 163.5 48 256 48 370.9 141.1 464 256 464s208-93.1 208-208c0-92.5-60.4-170.9-144-197.9L320 96zM256 432a32 32 0 1 1 0-64 32 32 0 1 1 0 64zm-79.2-51.6a32 32 0 1 1 -45.3-45.2 32 32 0 1 1 45.3 45.2zm203.6 0a32 32 0 1 1 -45.2-45.2 32 32 0 1 1 45.2 45.2zM112 288a32 32 0 1 1 0-64 32 32 0 1 1 0 64zm288 0a32 32 0 1 1 0-64 32 32 0 1 1 0 64z"/></svg>