<svg xmlns="http://www.w3.org/2000/svg" viewBox="0 0 384 512"><path fill="currentColor" d="M310.2 9c5-12.3-.9-26.3-13.2-31.3S270.8-21.3 265.8-9L224.2 93.2C211.8 100 200.9 109.2 192 120.1 172.2 95.7 141.9 80 108 80 85.5 80 64.7 86.9 47.4 98.6 44.9 88 35.4 80 24 80 10.7 80 0 90.8 0 104l0 80 .1 0c0 1.3-.1 2.7-.1 4L0 408c0 13.3 10.7 24 24 24s24-10.7 24-24l0-220c0-33.1 26.9-60 60-60s60 26.9 60 60L168 231.6 57.8 503c-5 12.3 .9 26.3 13.2 31.3s26.3-.9 31.3-13.2L168 359.2 168 408c0 13.3 10.7 24 24 24s24-10.7 24-24l0-167 45.2-111.1c4.7-1.2 9.7-1.9 14.8-1.9 33.1 0 60 26.9 60 60l0 220c0 13.3 10.7 24 24 24s24-10.7 24-24l0-220c0-57.9-45.5-105.1-102.6-107.9L310.2 9z"/></svg>