<svg xmlns="http://www.w3.org/2000/svg" viewBox="0 0 512 512"><path fill="currentColor" d="M7.5 7c-9.4 9.4-9.4 24.6 0 33.9l80 80-45.7 45.7c-6 6-9.4 14.1-9.4 22.6l0 2.7c0 17.7 14.3 32 32 32l128 0c17.7 0 32-14.3 32-32l0-128c0-17.7-14.3-32-32-32l-2.7 0c-8.5 0-16.6 3.4-22.6 9.4L121.5 87 41.5 7C32.1-2.3 16.9-2.3 7.5 7zM505.5 41c9.4-9.4 9.4-24.6 0-33.9s-24.6-9.4-33.9 0l-80 80-45.7-45.7c-6-6-14.1-9.4-22.6-9.4l-2.7 0c-17.7 0-32 14.3-32 32l0 128c0 17.7 14.3 32 32 32l128 0c17.7 0 32-14.3 32-32l0-2.7c0-8.5-3.4-16.6-9.4-22.6l-45.7-45.7 80-80zm0 430.1l-80-80 45.7-45.7c6-6 9.4-14.1 9.4-22.6l0-2.7c0-17.7-14.3-32-32-32l-128 0c-17.7 0-32 14.3-32 32l0 128c0 17.7 14.3 32 32 32l2.7 0c8.5 0 16.6-3.4 22.6-9.4l45.7-45.7 80 80c9.4 9.4 24.6 9.4 33.9 0s9.4-24.6 0-33.9zM7.5 471c-9.4 9.4-9.4 24.6 0 33.9s24.6 9.4 33.9 0l80-80 45.7 45.7c6 6 14.1 9.4 22.6 9.4l2.7 0c17.7 0 32-14.3 32-32l0-128c0-17.7-14.3-32-32-32l-128 0c-17.7 0-32 14.3-32 32l0 2.7c0 8.5 3.4 16.6 9.4 22.6l45.7 45.7-80 80zM412.6 176l-76.1 0 0-76.1 76.1 76.1zM336.5 412.1l0-76.1 76.1 0-76.1 76.1zM100.4 176l76.1-76.1 0 76.1-76.1 0zm76.1 236.1l-76.1-76.1 76.1 0 0 76.1z"/></svg>