<svg xmlns="http://www.w3.org/2000/svg" viewBox="0 0 576 512"><path fill="currentColor" d="M288 0c13.3 0 24 10.7 24 24l0 62.1 98 98 8.7 1.7 65.9 12.7c53 10.2 91.3 56.6 91.3 110.5 0 41.4-33.6 75-75 75-54 0-100.3-38.3-110.5-91.3l-12.7-65.9-1.7-8.7-64.1-64.1 0 134.1 6 8 46.8 62.4c12.5 16.6 19.2 36.8 19.2 57.6 0 53-43 96-96 96s-96-43-96-96c0-20.8 6.7-41 19.2-57.6l46.8-62.4 6-8 0-134.1-64.1 64.1-1.4 7.4c3-.9 6.2-1.4 9.5-1.4 17.7 0 32 14.3 32 32s-14.3 32-32 32c-7.6 0-14.7-2.7-20.2-7.1l-2.3 11.9C175.4 345.7 129 384 75 384 33.6 384 0 350.4 0 309 0 255 38.3 208.6 91.3 198.4l65.9-12.7 8.7-1.7 98-98 0-62.1c0-13.3 10.7-24 24-24zM100.4 245.6c-30.4 5.8-52.4 32.4-52.4 63.4 0 14.9 12.1 27 27 27 30.9 0 57.5-22 63.4-52.4l9.1-47.1-47.1 9.1zm328.2-9.1l9.1 47.1c5.8 30.4 32.4 52.4 63.4 52.4 14.9 0 27-12.1 27-27 0-30.9-22-57.5-52.4-63.4l-47.1-9.1zM249.6 387.2c-6.2 8.3-9.6 18.4-9.6 28.8 0 26.5 21.5 48 48 48s48-21.5 48-48c0-10.4-3.4-20.5-9.6-28.8L288 336 249.6 387.2zM384 32a32 32 0 1 1 0 64 32 32 0 1 1 0-64z"/></svg>