<svg xmlns="http://www.w3.org/2000/svg" viewBox="0 0 576 512"><path fill="currentColor" d="M96 48l224 0c8.8 0 16 7.2 16 16l0 277c14.1-17 30.2-32.4 48-45.7L384 64c0-35.3-28.7-64-64-64L96 0C60.7 0 32 28.7 32 64l0 384c0 35.3 28.7 64 64 64l176.1 0c.4-16.4 2.2-32.4 5.3-48L96 464c-8.8 0-16-7.2-16-16L80 64c0-8.8 7.2-16 16-16zm72 320c-13.3 0-24 10.7-24 24s10.7 24 24 24l80 0c13.3 0 24-10.7 24-24s-10.7-24-24-24l-80 0zm384-80c-128.1 0-232 103.9-232 232 0 13.3 10.7 24 24 24s24-10.7 24-24c0-101.6 82.4-184 184-184 13.3 0 24-10.7 24-24s-10.7-24-24-24zm-8 256a32 32 0 1 0 0-64 32 32 0 1 0 0 64zm32-136c0-13.3-10.7-24-24-24-75.1 0-136 60.9-136 136 0 13.3 10.7 24 24 24s24-10.7 24-24c0-48.6 39.4-88 88-88 13.3 0 24-10.7 24-24z"/></svg>