<svg xmlns="http://www.w3.org/2000/svg" viewBox="0 0 576 512"><path fill="currentColor" d="M52.7 339.3c6.2-6.2 16.4-6.2 22.6 0l48 48c3 3 4.7 7.1 4.7 11.3l0 1.4c0 8.8-7.2 16-16 16l-23.5 0c4 36 34.5 64 71.5 64 18.3 0 35-6.9 47.8-18.2l34.1 34c-21.4 20-50.2 32.2-81.8 32.2-63.6 0-115.6-49.5-119.7-112L16 416c-8.8 0-16-7.2-16-16l0-1.4c0-4.2 1.7-8.3 4.7-11.3l48-48zm130.9-325c25.1-20.5 62.2-19 85.7 4.4l256 256 4.4 4.8c20.5 25.1 19 62.2-4.4 85.7l-128 128-4.6 4.1c-21.9 18.1-53 19.4-76.2 3.9l-4.8-3.6-4.8-4.4-256-256c-23.4-23.4-24.9-60.5-4.4-85.7l4.4-4.8 128-128 4.8-4.4zm51.7 38.3c-5.7-5.7-14.8-6.2-21-1.4l-2.3 2-127.4 127.4c-6.2 6.2-6.2 16.4 0 22.6l255.4 255.4 2.2 2c6.2 4.8 15.3 4.4 21.1-1.3l128-128 2-2.3c3.8-5.7 3.6-13.2-.5-18.6l-2.3-2.6-255.1-255.1zM392.8 309.4c9.4-7.7 23.3-7.1 32.1 1.7s9.3 22.7 1.7 32.1l-1.7 1.8-48 48c-9.4 9.4-24.6 9.4-33.9 0s-9.4-24.6 0-33.9l48-48 1.8-1.7zM416-16c63.6 0 115.6 49.5 119.7 112L560 96c8.8 0 16 7.2 16 16l0 1.4c0 4.2-1.7 8.3-4.7 11.3l-48 48c-6.2 6.2-16.4 6.2-22.6 0l-48-48c-3-3-4.7-7.1-4.7-11.3l0-1.4c0-8.8 7.2-16 16-16l23.5 0c-4-36-34.5-64-71.5-64-18.3 0-35 6.9-47.8 18.2l-34.1-34C355.6-3.7 384.4-16 416-16z"/></svg>