<svg xmlns="http://www.w3.org/2000/svg" viewBox="0 0 576 512"><path fill="currentColor" d="M7-24.9c8.8-8.8 22.7-9.3 32.1-1.7L41-24.9 114 48.2c6.5-25.6 28.5-45.1 55.4-47.8l6.5-.3 224 0 6.5 .3C438.8 3.6 464 30.9 464 64l0 334.2 105 105 1.7 1.8c7.7 9.4 7.1 23.3-1.7 32.1s-22.7 9.3-32.1 1.7L535 537.1 7 9.1 5.4 7.2C-2.3-2.2-1.8-16.1 7-24.9zM160 229.8L160 448c0 8.8 7.2 16 16 16l218.2 0 38.8 38.8c-7.9 4.7-16.8 7.9-26.4 8.9l-6.5 .3-224 0-6.5-.3C137.2 508.4 112 481.1 112 448l0-266.2 48 48zM341.8 411.6c-3.9 2.8-8.6 4.4-13.8 4.4l-80 0c-13.3 0-24-10.7-24-24s10.7-24 24-24l50.2 0 43.6 43.6zM176 48c-8.8 0-16 7.2-16 16l0 30.2 256 256 0-286.2c0-8.8-7.2-16-16-16L176 48z"/></svg>