<svg xmlns="http://www.w3.org/2000/svg" viewBox="0 0 576 512"><path fill="currentColor" d="M344-32c128.1 0 232 103.9 232 232 0 13.3-10.7 24-24 24s-24-10.7-24-24c0-101.6-82.4-184-184-184-13.3 0-24-10.7-24-24s10.7-24 24-24zm8 192a32 32 0 1 1 0 64 32 32 0 1 1 0-64zM320 88c0-13.3 10.7-24 24-24 75.1 0 136 60.9 136 136 0 13.3-10.7 24-24 24s-24-10.7-24-24c0-48.6-39.4-88-88-88-13.3 0-24-10.7-24-24zM96 0l176 0 0 48-176 0c-8.8 0-16 7.2-16 16l0 384c0 8.8 7.2 16 16 16l224 0c8.8 0 16-7.2 16-16l0-177.6c5.2 1 10.5 1.6 16 1.6l32 0 0 176c0 35.3-28.7 64-64 64L96 512c-35.3 0-64-28.7-64-64L32 64C32 28.7 60.7 0 96 0zm72 368l80 0c13.3 0 24 10.7 24 24s-10.7 24-24 24l-80 0c-13.3 0-24-10.7-24-24s10.7-24 24-24z"/></svg>