<svg xmlns="http://www.w3.org/2000/svg" viewBox="0 0 576 512"><path fill="currentColor" d="M390.5 .3C422.8 3.6 448 30.9 448 64l0 384c0 33.1-25.2 60.4-57.5 63.7l-6.5 .3-192 0-6.5-.3C153.2 508.4 128 481.1 128 448l0-384c0-33.1 25.2-60.4 57.5-63.7l6.5-.3 192 0 6.5 .3zM192 48c-8.8 0-16 7.2-16 16l0 384c0 8.8 7.2 16 16 16l192 0c8.8 0 16-7.2 16-16l0-384c0-8.8-7.2-16-16-16L192 48zM328 368c13.3 0 24 10.7 24 24s-10.7 24-24 24l-80 0c-13.3 0-24-10.7-24-24s10.7-24 24-24l80 0zM48.8 133.4c9.4-7.7 23.3-7.1 32.1 1.7 9.4 9.4 9.4 24.6 0 33.9l-31 31 25.4 25.4 2.9 3.2c6.3 7.7 9.8 17.4 9.8 27.4 0 11.5-4.6 22.5-12.7 30.6l-25.4 25.4 31 31 1.7 1.8c7.7 9.4 7.1 23.3-1.7 32.1s-22.7 9.3-32.1 1.7L47 377 12.7 342.6C5.6 335.5 1.2 326.2 .2 316.3L0 312 .2 307.7c1-9.9 5.4-19.2 12.5-26.3L38.1 256 12.7 230.6C5.6 223.5 1.2 214.2 .2 204.3L0 200 .2 195.7c1-9.9 5.4-19.2 12.5-26.3L47 135 48.8 133.4zM495 135c8.8-8.8 22.7-9.3 32.1-1.7l1.8 1.7 34.3 34.3c7.1 7.1 11.5 16.4 12.5 26.3l.2 4.3-.2 4.3c-1 9.9-5.4 19.2-12.5 26.3l-25.4 25.4 25.4 25.4c7.1 7.1 11.5 16.4 12.5 26.3l.2 4.3-.2 4.3c-1 9.9-5.4 19.2-12.5 26.3l-34.3 34.3-1.8 1.7c-9.4 7.7-23.3 7.1-32.1-1.7s-9.3-22.7-1.7-32.1l1.7-1.8 31-31-25.4-25.4c-8.1-8.1-12.7-19.1-12.7-30.6 0-10 3.5-19.7 9.8-27.4l2.9-3.2 25.4-25.4-31-31c-9.4-9.4-9.4-24.6 0-33.9z"/></svg>