<svg xmlns="http://www.w3.org/2000/svg" viewBox="0 0 384 512"><path fill="currentColor" d="M304 48c8.8 0 16 7.2 16 16l0 384c0 8.8-7.2 16-16 16L80 464c-8.8 0-16-7.2-16-16L64 64c0-8.8 7.2-16 16-16l224 0zM80 0C44.7 0 16 28.7 16 64l0 384c0 35.3 28.7 64 64 64l224 0c35.3 0 64-28.7 64-64l0-384c0-35.3-28.7-64-64-64L80 0zm48 392c0 13.3 10.7 24 24 24l80 0c13.3 0 24-10.7 24-24s-10.7-24-24-24l-80 0c-13.3 0-24 10.7-24 24zM273 225c9.4-9.4 9.4-24.6 0-33.9s-24.6-9.4-33.9 0l-23 23 0-86.1c0-13.3-10.7-24-24-24s-24 10.7-24 24l0 86.1-23-23c-9.4-9.4-24.6-9.4-33.9 0s-9.4 24.6 0 33.9l64 64c9.4 9.4 24.6 9.4 33.9 0l64-64z"/></svg>