<svg xmlns="http://www.w3.org/2000/svg" viewBox="0 0 640 512"><path fill="currentColor" d="M31 105l72 72c9.4 9.4 24.6 9.4 33.9 0s9.4-24.6 0-33.9l-31-31 67.7 0c.8 .9 1.5 1.8 2.3 2.7 0-.9 .1-1.8 .1-2.7l32 0 .2 0 255.8 0c0 35.3 28.7 64 64 64l0 104.4c15.7 1.7 30.9 8.6 42.9 20.6l5.1 5.1 0-178.2c0-35.3-28.7-64-64-64l-338.3 0 0 0-67.7 0 31-31c9.4-9.4 9.4-24.6 0-33.9S112.4-10.3 103-1L31 71c-9.4 9.4-9.4 24.6 0 33.9zM64 205.8L64 384c0 35.3 28.7 64 64 64l406.1 0-31 31c-9.4 9.4-9.4 24.6 0 33.9s24.6 9.4 33.9 0l72-72c9.4-9.4 9.4-24.6 0-33.9l-72-72c-9.4-9.4-24.6-9.4-33.9 0s-9.4 24.6 0 33.9l31 31-67.7 0c-.8-.9-1.5-1.8-2.3-2.7 0 .9-.1 1.8-.1 2.7l-288 0c0-35.3-28.7-64-64-64l0-104.4c-15.7-1.7-30.9-8.6-42.9-20.6L64 205.8zM416 256a96 96 0 1 0 -192 0 96 96 0 1 0 192 0z"/></svg>