<svg xmlns="http://www.w3.org/2000/svg" viewBox="0 0 640 512"><path fill="currentColor" d="M96.1 112l384 0c8.8 0 16 7.2 16 16l0 93.2c14.3-11.1 30.9-18 48-20.6l0-72.5c0-35.3-28.7-64-64-64l-384 0c-35.3 0-64 28.7-64 64l0 256c0 35.3 28.7 64 64 64l191.5 0c5.3-18 15-34.4 28.3-47.8l.2-.2-220 0c-8.8 0-16-7.2-16-16l0-256c0-8.8 7.2-16 16-16zm328 160l-96 0c-13.3 0-24 10.7-24 24s10.7 24 24 24l68 0 42.9-42.9c-4.1-3.2-9.2-5.1-14.8-5.1zm-120-56c0 13.3 10.7 24 24 24l96 0c13.3 0 24-10.7 24-24s-10.7-24-24-24l-96 0c-13.3 0-24 10.7-24 24zm-108-64c-11 0-20 9-20 20l0 4.2c-24.7 2.3-44 23.1-44 48.4 0 23.2 16.3 43.1 39 47.6l34.1 6.8c4 .8 6.9 4.3 6.9 8.4 0 4.7-3.8 8.6-8.6 8.6l-43.4 0c-11 0-20 9-20 20s9 20 20 20l16 0 0 4c0 11 9 20 20 20s20-9 20-20l0-5.6c20.7-5.5 36-24.5 36-46.9 0-23.2-16.3-43.1-39-47.6L179 233c-4-.8-6.9-4.3-6.9-8.4 0-4.7 3.8-8.6 8.6-8.6l43.4 0c11 0 20-9 20-20s-9-20-20-20l-8 0 0-4c0-11-9-20-20-20zM332.3 466.9l-11.9 59.6c-.2 .9-.3 1.9-.3 2.9 0 8 6.5 14.6 14.6 14.6 1 0 1.9-.1 2.9-.3l59.6-11.9c12.4-2.5 23.8-8.6 32.7-17.5l118.9-118.9-80-80-118.9 118.9c-8.9 8.9-15 20.3-17.5 32.7zm267.8-123c22.1-22.1 22.1-57.9 0-80s-57.9-22.1-80 0l-28.8 28.8 80 80 28.8-28.8z"/></svg>