<svg xmlns="http://www.w3.org/2000/svg" viewBox="0 0 576 512"><path fill="currentColor" d="M208 80c0 35.3-28.7 64-64 64l0 128c35.3 0 64 28.7 64 64l256 0c0-35.3 28.7-64 64-64l0-128c-35.3 0-64-28.7-64-64L208 80zM96 96c0-35.3 28.7-64 64-64l352 0c35.3 0 64 28.7 64 64l0 224c0 35.3-28.7 64-64 64l-352 0c-35.3 0-64-28.7-64-64L96 96zm240 32a80 80 0 1 1 0 160 80 80 0 1 1 0-160zM24 128c13.3 0 24 10.7 24 24l0 264c0 8.8 7.2 16 16 16l392 0c13.3 0 24 10.7 24 24s-10.7 24-24 24L64 480c-35.3 0-64-28.7-64-64L0 152c0-13.3 10.7-24 24-24z"/></svg>