<svg xmlns="http://www.w3.org/2000/svg" viewBox="0 0 512 512"><path fill="currentColor" d="M0 97.2c0-17.4 18.1-29 34.5-23.4 94 31.8 158.7 10.2 223.9-11.5 65.7-21.9 131.7-43.9 228.4-11.4 15.4 5.2 25.2 20 25.2 36.2l0 327.7c0 17.4-18.1 29-34.5 23.4-94-31.8-158.7-10.2-223.9 11.5-65.7 21.9-131.7 43.9-228.4 11.4-15.4-5.2-25.2-20-25.2-36.2L0 97.2zM237.6 404.5l2.2-.7c60-20 129.8-43.3 224.2-19.5l0-290.3c-76.3-23.5-127.7-7-189.6 13.6l-2.2 .7c-60 20-129.8 43.3-224.2 19.5l0 290.3c76.3 23.5 127.7 7 189.6-13.6zM256 352c-44.2 0-80-43-80-96s35.8-96 80-96 80 43 80 96-35.8 96-80 96z"/></svg>