<svg xmlns="http://www.w3.org/2000/svg" viewBox="0 0 576 512"><path fill="currentColor" d="M512 80c8.8 0 16 7.2 16 16l0 224c0 8.8-7.2 16-16 16l-352 0c-8.8 0-16-7.2-16-16l0-224c0-8.8 7.2-16 16-16l352 0zM160 32c-35.3 0-64 28.7-64 64l0 224c0 35.3 28.7 64 64 64l352 0c35.3 0 64-28.7 64-64l0-224c0-35.3-28.7-64-64-64L160 32zM416 208a80 80 0 1 0 -160 0 80 80 0 1 0 160 0zM48 152c0-13.3-10.7-24-24-24S0 138.7 0 152L0 416c0 35.3 28.7 64 64 64l392 0c13.3 0 24-10.7 24-24s-10.7-24-24-24L64 432c-8.8 0-16-7.2-16-16l0-264z"/></svg>