<svg xmlns="http://www.w3.org/2000/svg" viewBox="0 0 512 512"><path fill="currentColor" d="M112 429.5C110.6 395.3 82.5 368 48 368l0-176c32.1 0 58.7-23.7 63.3-54.6 63.8 3.2 115.3-14 160.7-29.1l4.8-1.6c42.1-14 79.4-25.9 123.3-24.2 1.3 34.2 29.5 61.5 64 61.5l0 176c-32.1 0-58.7 23.7-63.3 54.6-63.8-3.2-115.3 14-160.7 29.1l-4.7 1.6c-42.1 14-79.4 25.9-123.3 24.2zM48 128l0-.2 .8 .2-.8 0zM464 384l0 .2c-.3-.1-.5-.1-.8-.2l.8 0zM0 109.5L0 419.6c0 19.4 11.8 37.3 30.3 43.3 94 30 158.8 8.4 223.3-13.1 62.4-20.8 124.4-41.5 212.1-15.3 22.2 6.6 46.2-8.8 46.2-32l0-310.1c0-19.4-11.8-37.3-30.3-43.3-94-30-158.8-8.4-223.3 13.1-62.4 20.8-124.4 41.5-212.1 15.3-22.2-6.6-46.3 8.8-46.3 32zM336 256c0-53-35.8-96-80-96s-80 43-80 96 35.8 96 80 96 80-43 80-96z"/></svg>