<svg xmlns="http://www.w3.org/2000/svg" viewBox="0 0 512 512"><path fill="currentColor" d="M112 429.5C110.6 395.3 82.5 368 48 368l0-176c32.1 0 58.7-23.7 63.3-54.6 63.8 3.2 115.3-14 160.7-29.1l4.8-1.6c42.1-14 79.4-25.9 123.3-24.2 1.3 34.2 29.5 61.5 64 61.5l0 176c-32.1 0-58.7 23.7-63.3 54.6-63.8-3.2-115.3 14-160.7 29.1l-4.7 1.6c-42.1 14-79.4 25.9-123.3 24.2zM0 109.5L0 419.6c0 19.4 11.8 37.3 30.3 43.3 94 30 158.8 8.4 223.3-13.1 62.4-20.8 124.4-41.5 212.1-15.3 22.2 6.6 46.2-8.8 46.2-32l0-310.1c0-19.4-11.8-37.3-30.3-43.3-94-30-158.8-8.4-223.3 13.1-62.4 20.8-124.4 41.5-212.1 15.3-22.2-6.6-46.3 8.8-46.3 32zM352 256c0-61.9-43-112-96-112s-96 50.1-96 112 43 112 96 112 96-50.1 96-112zM240 196l16 0c11 0 20 9 20 20l0 60.4c9.1 1.9 16 9.9 16 19.6 0 11-9 20-20 20l-32 0c-11 0-20-9-20-20 0-9.7 6.9-17.7 16-19.6l0-40.8c-9.1-1.9-16-9.9-16-19.6 0-11 9-20 20-20z"/></svg>