<svg xmlns="http://www.w3.org/2000/svg" viewBox="0 0 512 512"><path fill="currentColor" d="M176-16c-8.8 0-16 7.2-16 16 0 44.2 35.8 80 80 80 8.8 0 16-7.2 16-16 0-44.2-35.8-80-80-80zM56 0C42.7 0 32 10.7 32 24S42.7 48 56 48l48 0c13.3 0 24-10.7 24-24S117.3 0 104 0L56 0zM24 72C10.7 72 0 82.7 0 96s10.7 24 24 24l112 0c13.3 0 24-10.7 24-24s-10.7-24-24-24L24 72zm8 96c0 13.3 10.7 24 24 24l48 0c13.3 0 24-10.7 24-24s-10.7-24-24-24l-48 0c-13.3 0-24 10.7-24 24zM272 0c0 44.2 35.8 80 80 80 8.8 0 16-7.2 16-16 0-44.2-35.8-80-80-80-8.8 0-16 7.2-16 16zM400-16c-8.8 0-16 7.2-16 16 0 44.2 35.8 80 80 80 8.8 0 16-7.2 16-16 0-44.2-35.8-80-80-80zm80 144c0-8.8-7.2-16-16-16-44.2 0-80 35.8-80 80 0 8.8 7.2 16 16 16 44.2 0 80-35.8 80-80zM352 112c-44.2 0-80 35.8-80 80 0 8.8 7.2 16 16 16 44.2 0 80-35.8 80-80 0-8.8-7.2-16-16-16zm-96 16c0-8.8-7.2-16-16-16-44.2 0-80 35.8-80 80 0 8.8 7.2 16 16 16 44.2 0 80-35.8 80-80zM48 359.5c28.9-3.6 51.9-26.6 55.5-55.5l305 0c3.6 29 26.6 51.9 55.5 55.5l0 49c-29 3.6-51.9 26.6-55.5 55.5l-305 0c-3.6-29-26.6-51.9-55.5-55.5l0-49zM48 256c-26.5 0-48 21.5-48 48L0 464c0 26.5 21.5 48 48 48l416 0c26.5 0 48-21.5 48-48l0-160c0-26.5-21.5-48-48-48L48 256zM256 448a64 64 0 1 0 0-128 64 64 0 1 0 0 128z"/></svg>