<svg xmlns="http://www.w3.org/2000/svg" viewBox="0 0 512 512"><path fill="currentColor" d="M480 8c0-13.3-10.7-24-24-24L354.2-16c-13.3 0-24 10.7-24 24s10.7 24 24 24l43.9 0-111.3 111.3-95.1-81.5c-9-7.7-22.2-7.7-31.2 0l-112 96c-10.1 8.6-11.2 23.8-2.6 33.8s23.8 11.2 33.8 2.6l96.4-82.6 96.4 82.6c9.5 8.2 23.7 7.6 32.6-1.3l127-127 0 43.9c0 13.3 10.7 24 24 24s24-10.7 24-24L480 8zM103.5 304l305 0c3.6 29 26.6 51.9 55.5 55.5l0 49c-29 3.6-51.9 26.6-55.5 55.5l-305 0c-3.6-29-26.6-51.9-55.5-55.5l0-49c28.9-3.6 51.9-26.6 55.5-55.5zM48 256c-26.5 0-48 21.5-48 48L0 464c0 26.5 21.5 48 48 48l416 0c26.5 0 48-21.5 48-48l0-160c0-26.5-21.5-48-48-48L48 256zM256 448a64 64 0 1 0 0-128 64 64 0 1 0 0 128z"/></svg>