<svg xmlns="http://www.w3.org/2000/svg" viewBox="0 0 512 512"><path fill="currentColor" d="M64 112c-8.8 0-16 7.2-16 16l0 112 96 0c8.4 0 16.2 4.4 20.6 11.7l25.5 42.5 60.4-120.9c3.9-7.8 11.8-12.9 20.5-13.2s17 4.1 21.5 11.6l41 68.3 58.4 0c13.3 0 24 10.7 24 24s-10.7 24-24 24l-72 0c-8.4 0-16.2-4.4-20.6-11.7l-25.5-42.5-60.4 120.9c-3.9 7.8-11.8 12.9-20.5 13.2s-17-4.1-21.5-11.6l-41-68.3-82.4 0 0 96c0 8.8 7.2 16 16 16l384 0c8.8 0 16-7.2 16-16l0-256c0-8.8-7.2-16-16-16L64 112zM0 128C0 92.7 28.7 64 64 64l384 0c35.3 0 64 28.7 64 64l0 256c0 35.3-28.7 64-64 64L64 448c-35.3 0-64-28.7-64-64L0 128z"/></svg>