<svg xmlns="http://www.w3.org/2000/svg" viewBox="0 0 512 512"><path fill="currentColor" d="M256 0C114.6 0 0 114.6 0 256S114.6 512 256 512c31 0 60.7-5.5 88.3-15.6 9.4-3.5 15.7-12.5 15.7-22.5s-6.3-19.1-15.7-22.5C264.7 422.1 208 345.6 208 256S264.7 89.9 344.3 60.7c9.4-3.5 15.7-12.5 15.7-22.5s-6.3-19.1-15.7-22.5C316.7 5.5 287 0 256 0zm10.4 48.2C202 94.7 160 170.5 160 256s42 161.2 106.4 207.7c-3.4 .2-6.9 .3-10.4 .3-114.9 0-208-93.1-208-208S141.1 48 256 48c3.5 0 6.9 .1 10.4 .2zM464 353c-11.6-4-24.3 1.4-30.8 11.9-7.6 12.4-16.5 24-26.6 34.5-9.1 9.6-8.8 24.8 .8 33.9s24.8 8.8 33.9-.8c13.6-14.3 25.5-30.1 35.5-47.2 7.2-12.3 .6-27.7-12.9-32.4zm45.8-131.1c-1.9-14.2-16.6-22.2-30.2-17.5-11.7 4-18.3 16.1-16.9 28.3 .9 7.6 1.3 15.4 1.3 23.3s-.4 15.6-1.3 23.3c-1.4 12.2 5.3 24.3 16.9 28.3 13.5 4.7 28.3-3.3 30.2-17.5 1.5-11.2 2.2-22.5 2.2-34.1s-.8-22.9-2.2-34.1zM441.4 79.4c-9.1-9.6-24.3-10-33.9-.8s-10 24.3-.8 33.9c10 10.5 18.9 22.1 26.6 34.5 6.5 10.5 19.1 15.9 30.7 11.9 13.5-4.7 20.2-20 13-32.3-10-17.1-22-33-35.6-47.2z"/></svg>