<svg xmlns="http://www.w3.org/2000/svg" viewBox="0 0 512 512"><path fill="currentColor" d="M439.8 89.8l-11-38.6-38.6-11c-3.6-1-6.2-4.4-6.2-8.2s2.5-7.1 6.2-8.2l38.6-11 11-38.6c1-3.6 4.4-6.2 8.2-6.2s7.1 2.5 8.2 6.2l11 38.6 38.6 11c3.6 1 6.2 4.4 6.2 8.2s-2.5 7.1-6.2 8.2l-38.6 11-11 38.6c-1 3.6-4.4 6.2-8.2 6.2s-7.1-2.5-8.2-6.2zM371.8 326.8l-16.6-58-58-16.6c-5.5-1.6-9.2-6.6-9.2-12.2s3.8-10.7 9.2-12.2l58-16.6 16.6-58c1.6-5.5 6.6-9.2 12.2-9.2s10.7 3.8 12.2 9.2l16.6 58 58 16.6c5.5 1.6 9.2 6.6 9.2 12.2s-3.8 10.7-9.2 12.2l-58 16.6-16.6 58c-1.6 5.5-6.6 9.2-12.2 9.2s-10.7-3.8-12.2-9.2zm-8.8 86.7c8.8-.7 17.2 4.2 20.8 12.3s1.8 17.6-4.6 23.8c-4 3.9-8.2 7.6-12.5 11.1-38.7 32-88.5 51.3-142.7 51.3-123.7 0-224-100.3-224-224S100.3 64 224 64c10.9 0 21.6 .8 32.1 2.3 5.9 .8 11.8 1.9 17.5 3.2 8.7 2 15.2 9.2 16.2 18s-3.5 17.3-11.5 21.3c-53 26.4-89.3 81.1-89.3 144.2 0 88.9 72.1 161 161 161 4.4 0 8.7-.2 12.9-.5zM141 253c0-53.1 19.8-101.5 52.3-138.3-82.6 14.5-145.3 86.6-145.3 173.3 0 97.2 78.8 176 176 176 22.2 0 43.5-4.1 63.1-11.6-84.7-26.7-146.1-105.9-146.1-199.4z"/></svg>