<svg xmlns="http://www.w3.org/2000/svg" viewBox="0 0 512 512"><path fill="currentColor" d="M230 1.3C101.1 14.6 .5 123.6 .5 256S101.1 497.4 230 510.6c6.8 .7 13.5-1.5 18.6-6s7.9-11 7.9-17.8l0-461.6c0-6.8-2.9-13.3-7.9-17.8S236.8 .7 230 1.3zM415.8 421.1c-9.4-7.9-23.2-7.4-33 .1-18.4 14.1-39.3 25.2-61.8 32.6-12.6 4.1-19.5 17.7-15.4 30.2 4.1 12.6 17.7 19.5 30.2 15.4 29.5-9.6 56.7-24.5 80.4-43.5 11.2-8.9 10.4-25.7-.5-34.8zM208.5 458.4c-91.7-21.7-160-104-160-202.4s68.3-180.7 160-202.4l0 404.8zM484.7 280c-12.3 0-22.5 9.3-25.2 21.3-4 17.8-10.2 34.7-18.4 50.5-5.7 10.9-3.8 24.6 5.6 32.5 10.9 9.2 27.5 7 34.4-5.5 12.2-22.3 21.2-46.7 26.4-72.5 2.8-14-8.5-26.3-22.8-26.3zm-3.6-146.8c-6.9-12.5-23.4-14.7-34.4-5.5-9.4 7.9-11.3 21.6-5.6 32.6 8.2 15.8 14.4 32.7 18.4 50.5 2.7 12 12.9 21.3 25.2 21.3 14.3 0 25.6-12.3 22.8-26.3-5.1-25.8-14.1-50.2-26.4-72.5zM335.9 12.6c-12.6-4.1-26.1 2.8-30.2 15.4s2.8 26.1 15.4 30.2c22.5 7.4 43.4 18.5 61.8 32.6 9.8 7.5 23.5 8 33 .1 10.9-9.2 11.7-25.9 .5-34.8-23.7-19-50.9-33.9-80.4-43.5z"/></svg>