<svg xmlns="http://www.w3.org/2000/svg" viewBox="0 0 512 512"><path fill="currentColor" d="M256 0c-40.3 0-78.4 9.4-112.3 26-2.5 1.2-5 2.5-7.5 3.8-1 .5-2 1-3 1.6-.3 .2-.6 .4-.8 .5-33.2 18.3-61.9 43.9-84 74.4-.8 1.2-1.7 2.3-2.5 3.5-5.1 7.3-9.8 14.8-14.1 22.6-.5 .8-.9 1.7-1.4 2.5-4.5 8.3-8.4 16.8-12 25.6-.2 .5-.4 .9-.6 1.3-11.5 29.1-17.9 60.9-17.9 94.1 0 44 11.2 85.5 30.8 121.6 .1 .2 .2 .4 .3 .6 4.6 8.4 9.6 16.5 15.1 24.2 .6 .9 1.2 1.8 1.9 2.6 22.2 30.9 51.2 56.7 84.7 75.2 .2 .1 .3 .2 .5 .3 .6 .3 1.3 .6 1.9 .9 3.3 1.8 6.6 3.5 10 5.1 1.1 .5 2.1 1.1 3.2 1.6 .4 .2 .9 .4 1.3 .6 2.2 1 4.5 2 6.7 2.9 .9 .4 1.7 .7 2.6 1.1 30 12.3 62.7 19.2 97.1 19.2 44.5 0 86.3-11.4 122.7-31.4 12.5-6.9 14.7-23.4 5.5-34.4-7.9-9.4-21.6-11.3-32.5-5.6-27.2 14.1-57.8 22.3-90.4 23.2 64.5-46.4 106.6-122.2 106.6-207.8 0-85.6-42.1-161.4-106.6-207.8 32.5 .8 63.2 9.1 90.4 23.2 10.9 5.7 24.6 3.8 32.5-5.6 9.2-10.9 7-27.5-5.5-34.4-36.4-20-78.3-31.3-122.7-31.3zM184.1 60.8c79.4 29.3 135.9 105.7 135.9 195.2 0 89.5-56.6 165.8-136 195.1-.1 0-.2-.1-.3-.1-4.4-1.6-8.7-3.4-13-5.3-3.6-1.6-7.1-3.3-10.5-5.1l0 0c-27.1-14.1-50.7-33.9-69.2-57.9-.1-.1-.2-.3-.3-.4-18-23.5-31.2-51.1-37.8-81 0-.1 0-.1 0-.2-3.2-14.5-5-29.6-5-45.1 0-15.6 1.8-30.7 5-45.3 1.7-7.5 3.8-14.9 6.2-22 0-.1 .1-.2 .1-.3 7.3-21.3 18-41.1 31.5-58.7 .1-.1 .1-.2 .2-.3 21.1-27.4 48.9-49.5 81-63.6 4-1.8 8-3.4 12.1-4.9zM484.2 280c-12.3 0-22.5 9.3-25.2 21.3-6.7 30-19.8 57.5-37.8 81.1-7.5 9.8-8 23.6-.1 33 9.2 11 25.9 11.7 34.8 .5 25.1-31.3 43-68.7 51.1-109.6 2.8-14-8.5-26.3-22.8-26.3zM455.9 96c-8.9-11.2-25.7-10.4-34.8 .5-7.9 9.4-7.4 23.2 .1 33 18.1 23.6 31.2 51.1 37.9 81.1 2.7 12 12.9 21.3 25.2 21.3 14.3 0 25.6-12.3 22.8-26.3-8.1-40.9-26-78.3-51.2-109.6z"/></svg>