<svg xmlns="http://www.w3.org/2000/svg" viewBox="0 0 512 512"><path fill="currentColor" d="M256 0C397.4 0 512 114.6 512 256S397.4 512 256 512c-31 0-60.7-5.5-88.3-15.6-9.4-3.5-15.7-12.5-15.7-22.5s6.3-19.1 15.7-22.5C247.3 422.1 304 345.6 304 256S247.3 89.9 167.7 60.7C158.3 57.2 152 48.2 152 38.1s6.3-19.1 15.7-22.5C195.3 5.5 225 0 256 0zM245.6 48.2C310 94.7 352 170.5 352 256S310 417.2 245.6 463.7c3.4 .2 6.9 .3 10.4 .3 114.9 0 208-93.1 208-208S370.9 48 256 48c-3.5 0-6.9 .1-10.4 .2zM48 353c11.6-4 24.3 1.4 30.8 11.9 7.6 12.4 16.5 24 26.6 34.5 9.1 9.6 8.8 24.8-.8 33.9s-24.8 8.8-33.9-.8C57 418.3 45.1 402.5 35.1 385.4 27.9 373 34.5 357.7 48 353zM2.2 221.9c1.9-14.2 16.6-22.2 30.2-17.5 11.6 4 18.3 16.1 16.9 28.3-.9 7.6-1.3 15.4-1.3 23.3s.4 15.6 1.3 23.3c1.4 12.2-5.3 24.3-16.9 28.3-13.5 4.7-28.3-3.3-30.2-17.5-1.5-11.2-2.2-22.5-2.2-34.1s.8-22.9 2.2-34.1zM70.6 79.4c9.1-9.6 24.3-10 33.9-.8s10 24.3 .8 33.9c-10 10.5-18.9 22.1-26.6 34.5-6.5 10.5-19.1 15.9-30.7 11.9-13.5-4.7-20.2-20-13-32.3 10-17.1 22-33 35.6-47.2z"/></svg>