<svg xmlns="http://www.w3.org/2000/svg" viewBox="0 0 512 512"><path fill="currentColor" d="M112 434.3c8.7-8.7 22.5-9.4 32.9-2.8 20 12.7 42.2 22.1 66.1 27.4 12 2.7 21.3 12.9 21.3 25.2 0 14.3-12.3 25.6-26.4 22.8-33.3-6.6-64.2-19.7-91.4-37.9-11.9-7.9-12.6-24.7-2.5-34.8zm288.9 0c10.1 10.1 9.4 26.8-2.5 34.8-27.3 18.2-58.4 31.4-91.8 38-14 2.8-26.3-8.5-26.3-22.8 0-12.3 9.3-22.5 21.3-25.2 23.9-5.3 46.3-14.7 66.3-27.5 10.4-6.6 24.2-6 32.9 2.8zM28.2 280c12.3 0 22.5 9.3 25.2 21.3 5.3 23.8 14.7 46.1 27.4 66.1 6.6 10.4 6 24.2-2.8 32.9-10.1 10.1-26.8 9.4-34.8-2.5-18.2-27.3-31.2-58.2-37.9-91.5-2.8-14 8.5-26.3 22.8-26.3zm456.5 0c14.3 0 25.6 12.3 22.8 26.3-6.6 33.3-19.7 64.2-37.9 91.4-7.9 11.9-24.7 12.6-34.8 2.5-8.7-8.7-9.4-22.5-2.8-32.9 12.7-20 22.1-42.2 27.4-66.1 2.7-12 12.9-21.3 25.2-21.3zM78.1 111.5c8.7 8.7 9.4 22.5 2.8 32.9-12.7 20-22.1 42.3-27.5 66.2-2.7 12-12.9 21.3-25.2 21.3-14.3 0-25.6-12.3-22.8-26.3 6.6-33.3 19.7-64.3 37.9-91.6 7.9-11.9 24.7-12.6 34.8-2.5zm356.6 0c10.1-10.1 26.8-9.4 34.8 2.5 18.2 27.3 31.3 58.3 37.9 91.6 2.8 14-8.5 26.3-22.8 26.3-12.3 0-22.5-9.3-25.2-21.3-5.3-23.9-14.7-46.2-27.5-66.2-6.6-10.4-6-24.2 2.8-32.9zM280.3 27.8c0-14.3 12.3-25.6 26.3-22.8 33.3 6.6 64.3 19.7 91.7 37.9 11.9 7.9 12.6 24.7 2.5 34.8-8.7 8.7-22.5 9.4-32.9 2.8-20-12.7-42.4-22.1-66.2-27.4-12-2.7-21.3-12.9-21.3-25.2zm-48 0c0 12.3-9.3 22.5-21.3 25.2-23.8 5.3-46 14.7-66 27.3-10.4 6.6-24.2 6-32.9-2.8-10.1-10.1-9.4-26.9 2.5-34.8 27.2-18.1 58.1-31.2 91.3-37.8 14-2.8 26.3 8.5 26.3 22.8z"/></svg>