<svg xmlns="http://www.w3.org/2000/svg" viewBox="0 0 576 512"><path fill="currentColor" d="M367.3 48.7c-102.2 8.1-183.5 90-190.8 192.4-5.4-.7-10.9-1.1-16.5-1.1-11 0-21.6 1.4-31.7 4 6.3-135.8 118.4-244 255.7-244 19.4 0 38.4 2.2 56.7 6.3 9.9 2.2 17.3 10.5 18.5 20.5s-4 19.8-13.1 24.4c-60.6 30.2-102.1 92.7-102.1 164.8 0 101.6 82.4 184 184 184 5 0 9.9-.2 14.8-.6 10.1-.8 19.6 4.8 23.8 14.1s2 20.1-5.3 27.1c-46 44.2-108.5 71.4-177.3 71.4-25 0-49.1-3.6-71.9-10.2 13.3-11.2 24-25.5 31-41.8 13.2 2.6 26.9 4 41 4 33.3 0 64.7-7.8 92.6-21.7-103.4-23.4-180.6-115.8-180.6-226.3 0-65.8 27.4-125.1 71.3-167.3zM240 480L72 480c-39.8 0-72-32.2-72-72s32.2-72 72-72c4.8 0 9.5 .5 14.1 1.4 12-29 40.6-49.4 73.9-49.4 38.7 0 71 27.5 78.4 64 .5 0 1.1 0 1.6 0 35.3 0 64 28.7 64 64s-28.7 64-64 64z"/></svg>