<svg xmlns="http://www.w3.org/2000/svg" viewBox="0 0 512 512"><path fill="currentColor" d="M256.5 0c40.3 0 78.4 9.4 112.3 26 2.7 1.3 5.3 2.7 8 4.1 .8 .4 1.7 .8 2.5 1.3 .2 .1 .4 .3 .6 .4 33.5 18.5 62.4 44.2 84.6 75.1 .6 .9 1.3 1.8 1.9 2.7 5.2 7.4 10 15.1 14.3 23 .4 .7 .8 1.4 1.2 2.1 19.5 36.1 30.6 77.4 30.6 121.2 0 44.1-11.2 85.5-30.8 121.6-.1 .2-.2 .4-.3 .6-4.6 8.5-9.8 16.7-15.3 24.7-.4 .6-.8 1.2-1.2 1.8-22.2 31.1-51.2 56.9-84.8 75.5-.2 .1-.4 .3-.7 .5-.8 .4-1.6 .8-2.4 1.2-3.1 1.7-6.3 3.3-9.4 4.8-3.9 1.9-7.9 3.7-11.9 5.4-.5 .2-1 .4-1.5 .6-30.1 12.4-63 19.4-97.6 19.4-44.5 0-86.3-11.4-122.7-31.4-12.5-6.9-14.7-23.4-5.5-34.4 7.9-9.4 21.6-11.3 32.5-5.6 27.2 14.1 57.9 22.3 90.4 23.2-64.6-46.4-106.7-122.2-106.7-207.8S186.6 94.6 251.1 48.2c-32.5 .8-63.2 9.1-90.4 23.2-10.9 5.7-24.6 3.8-32.5-5.6-9.2-10.9-7-27.5 5.5-34.4 36.4-20 78.3-31.3 122.8-31.3zm71.9 60.8c-79.4 29.3-135.9 105.7-135.9 195.2 0 89.5 56.6 165.8 136 195.1 .1 0 .2-.1 .3-.1 37-13.7 69.1-37.7 92.7-68.4 .1-.1 .1-.2 .2-.3 18-23.5 31.2-51.1 37.8-81 0-.1 .1-.2 .1-.3 3.2-14.5 4.9-29.5 4.9-45 0-15.6-1.7-30.7-5-45.3-6.7-30-19.8-57.5-37.8-81-.1-.1-.1-.2-.2-.3-18.5-24.1-42.2-44-69.4-58.1-7.6-4-15.5-7.4-23.7-10.4zM28.3 280c12.3 0 22.5 9.3 25.2 21.3 6.7 30 19.8 57.5 37.8 81.1 7.5 9.8 8 23.6 .1 33-9.2 11-25.9 11.7-34.9 .5-25.1-31.3-42.9-68.7-51.1-109.6-2.8-14 8.5-26.3 22.8-26.3zM56.6 96c8.9-11.2 25.7-10.4 34.9 .5 7.9 9.4 7.4 23.2-.1 33-18.1 23.6-31.2 51.1-37.9 81.1-2.7 12-12.9 21.3-25.2 21.3-14.3 0-25.6-12.3-22.8-26.3 8.1-40.9 26-78.3 51.1-109.6z"/></svg>