<svg xmlns="http://www.w3.org/2000/svg" viewBox="0 0 576 512"><path fill="currentColor" d="M288 56c0-13.3 10.7-24 24-24l72 0c11.6 0 21.5 8.3 23.6 19.7l10.8 59.5 62-20.7C496 85.3 512 96.9 512 113.3l0 61.4c0 16.4-16 27.9-31.6 22.8l-49.3-16.4 3.5 19.2c4.4 24.1-1.5 48.9-16.2 68.5l-55.2 73.6C343.6 368.6 312.7 384 280 384l-64.4 0c.2 2.6 .4 5.3 .4 8 0 48.6-39.4 88-88 88s-88-39.4-88-88c0-2.7 .1-5.4 .4-8L32 384c-17.7 0-32-14.3-32-32l0-32c0-70.7 57.3-128 128-128l64 0c17.7 0 32 14.3 32 32l0 56c0 30.8 24.9 55.9 55.8 56l.2 0c17.6 0 34.2-8.3 44.8-22.4L380 240c6.7-8.9 9.3-20.2 7.4-31.2L364 80 312 80c-13.3 0-24-10.7-24-24zM176 240l-48 0c-44.2 0-80 35.8-80 80l0 16 140.8 0c-8.2-14.1-12.8-30.5-12.8-48l0-48zM88 112l112 0c13.3 0 24 10.7 24 24s-10.7 24-24 24L88 160c-13.3 0-24-10.7-24-24s10.7-24 24-24zm0 280c0 22.1 17.9 40 40 40s40-17.9 40-40c0-2.7-.3-5.4-.8-8l-78.4 0c-.5 2.6-.8 5.3-.8 8zm432 0a40 40 0 1 0 -80 0 40 40 0 1 0 80 0zm-128 0a88 88 0 1 1 176 0 88 88 0 1 1 -176 0z"/></svg>