<svg xmlns="http://www.w3.org/2000/svg" viewBox="0 0 640 512"><path fill="currentColor" d="M576 352c13.3 0 24 10.7 24 24l0 16 16 0c13.3 0 24 10.7 24 24s-10.7 24-24 24l-16 0 0 48 16 0c13.3 0 24 10.7 24 24s-10.7 24-24 24l-16 0 0 16-.1 2.5C598.6 566.6 588.4 576 576 576s-22.6-9.4-23.9-21.5l-.1-2.5 0-16-48 0 0 16-.1 2.5C502.6 566.6 492.4 576 480 576s-22.6-9.4-23.9-21.5l-.1-2.5 0-16-16 0c-13.3 0-24-10.7-24-24s10.7-24 24-24l16 0 0-48-16 0c-13.3 0-24-10.7-24-24s10.7-24 24-24l16 0 0-16c0-13.3 10.7-24 24-24s24 10.7 24 24l0 16 48 0 0-16c0-13.3 10.7-24 24-24zM429.9 16.3c7.7-9.4 21.3-11.5 31.4-4.3 10.1 7.1 13.1 20.9 7.4 31.7l-1.3 2.1-25.9 38.9 13.3 53.4c2.3 9.2-.8 19-8 25l-45.6 38 131.7 14.6 7.9 1.2c38.8 8 67.2 42.3 67.2 82.7l-.4 8.6c-.1 1-.3 1.9-.4 2.9-7.3-3.5-15.3-5.8-23.8-6.7L576 304c-5.7 0-11.3 .7-16.6 2 .4-2.1 .6-4.2 .6-6.4 0-18.5-14-34.1-32.4-36.2l-136.7-15.2 77.9 56.7c-18.3 2.9-34.2 12.6-45.2 26.5l-47.6-34.6 0 86.3c-4.6 8.9-7.4 18.8-7.9 29.4-9.8 16.4-27.6 27.5-48.1 27.5-30.9 0-56-25.1-56-56l0-27.7-16.3 20.4 0 39.3c0 2.9-.5 5.8-1.5 8.5l-1.1 2.7-32 64-1.2 2.2c-6.5 10.3-19.8 14.1-30.7 8.4-10.9-5.8-15.6-19.1-11.2-30.5l1-2.2 29.4-58.8 0-42.1 .3-4.2c.7-4.1 2.4-8 5-11.3l25.8-32.2-65.3 47.5-5.5 3.7c-13.3 8.1-28.6 12.5-44.2 12.5l-8.6-.4c-39.7-4-71.4-35.6-75.4-75.4l-.4-8.6c0-40.3 28.5-74.6 67.2-82.7l7.9-1.2 131.7-14.6-45.7-38-2.5-2.4c-5.4-6-7.5-14.5-5.5-22.6l13.3-53.4-25.9-38.9-1.2-2.1c-5.7-10.8-2.7-24.6 7.4-31.7 10.1-7.1 23.7-5.1 31.4 4.3l1.5 2 32 48 1.4 2.2c2.8 5.3 3.5 11.6 2.1 17.6l-12.2 49 36.2 30.1c7-12.8 18.9-22.5 33.1-26.8l0-74.4 .3-3.2c1.5-7.3 8-12.7 15.7-12.8 7.7 0 14.2 5.5 15.7 12.8l.3 3.2 0 74.4c14.3 4.2 26.1 14 33.2 26.8l36.2-30.1-12.2-49c-1.5-5.9-.7-12.2 2.1-17.6l1.4-2.2 32-48 1.5-2zM504 488l48 0 0-48-48 0 0 48zM320 176c-8.8 0-16 7.2-16 16l0 192c0 8.8 7.2 16 16 16s16-7.2 16-16l0-192c0-8.8-7.2-16-16-16zM112.4 263.4c-18.4 2.1-32.4 17.6-32.4 36.2 0 20.1 16.3 36.4 36.5 36.4 7.7 0 15.3-2.4 21.5-7l111.2-80.9-136.8 15.2z"/></svg>