<svg xmlns="http://www.w3.org/2000/svg" viewBox="0 0 576 512"><path fill="currentColor" d="M398 16.3c7.7-9.4 21.3-11.5 31.4-4.3 10.1 7.1 13.1 20.9 7.4 31.7l-1.3 2.1-25.9 38.9 13.3 53.4c2.3 9.2-.8 19-8 25l-45.6 38 131.7 14.6 7.9 1.3c38.8 8 67.2 42.3 67.2 82.7l-.4 8.6c-4 39.7-35.7 71.3-75.4 75.4l-8.6 .4c-15.6 0-30.9-4.3-44.2-12.5l-5.5-3.7-65.3-47.5 25.7 32.2c2.6 3.3 4.3 7.2 5 11.3l.4 4.2 0 42.1 29.4 58.8 1 2.2c4.4 11.5-.4 24.8-11.3 30.5-10.9 5.7-24.1 2-30.6-8.3l-1.2-2.2-32-64-1.1-2.7c-1-2.7-1.5-5.6-1.5-8.5l0-39.3-16.3-20.4 0 27.6c0 30.9-25.1 56-56 56-30.9 0-56-25.1-56-56l0-27.7-16.3 20.4 0 39.3c0 2.9-.5 5.8-1.5 8.5l-1.1 2.7-32 64-1.2 2.2c-6.5 10.3-19.8 14.1-30.7 8.4-10.9-5.8-15.6-19.1-11.2-30.5l1-2.2 29.4-58.8 0-42.1 .3-4.2c.7-4.1 2.4-8 5-11.3l25.8-32.2-65.3 47.5-5.5 3.7c-13.3 8.1-28.6 12.5-44.2 12.5l-8.6-.4c-39.7-4-71.4-35.6-75.4-75.4L0 299.6c0-40.3 28.5-74.6 67.2-82.7l7.9-1.3 131.7-14.6-45.7-38-2.5-2.4c-5.4-6-7.5-14.5-5.5-22.6l13.3-53.4-25.9-38.9-1.2-2.1c-5.8-10.8-2.7-24.6 7.4-31.7 10.1-7.1 23.7-5.1 31.4 4.3l1.5 2 32 48 1.4 2.2c2.8 5.3 3.5 11.6 2.1 17.6l-12.2 49 36.2 30.1c7-12.8 18.9-22.5 33.1-26.8l0-74.4 .3-3.2c1.5-7.3 8-12.7 15.7-12.8 7.7 0 14.2 5.5 15.7 12.8l.3 3.2 0 74.4c14.3 4.2 26.1 14 33.2 26.8l36.2-30.1-12.2-49c-1.5-5.9-.7-12.2 2.1-17.6l1.4-2.2 32-48 1.5-2zM288 176c-8.8 0-16 7.2-16 16l0 192c0 8.8 7.2 16 16 16s16-7.2 16-16l0-192c0-8.8-7.2-16-16-16zM80.4 263.4c-18.4 2.1-32.4 17.6-32.4 36.2 0 20.1 16.3 36.4 36.5 36.4 7.7 0 15.3-2.5 21.5-7l111.2-80.9-136.8 15.2zM470 329c6.2 4.5 13.8 7 21.5 7 20.2 0 36.5-16.4 36.5-36.4 0-18.6-14-34.1-32.4-36.2L358.9 248.1 470 329z"/></svg>