<svg xmlns="http://www.w3.org/2000/svg" viewBox="0 0 576 512"><path fill="currentColor" d="M288 33.2L164.3 146.9c-12.9 11.9-20.3 28.7-20.3 46.2 0 34.7 28.1 62.8 62.8 62.8l162.4 0c34.7 0 62.8-28.1 62.8-62.8 0-17.6-7.4-34.3-20.3-46.2L288 33.2zM115.5 256c-12.3-17.9-19.5-39.5-19.5-62.8 0-31 13-60.6 35.8-81.6L277.2-22c6.1-5.6 15.5-5.6 21.7 0L444.2 111.6c22.8 21 35.8 50.6 35.8 81.6 0 23.3-7.2 45-19.5 62.8l67.5 0 0-40c0-13.3 10.7-24 24-24s24 10.7 24 24l0 232c0 35.3-28.7 64-64 64L64 512c-35.3 0-64-28.7-64-64L0 216c0-13.3 10.7-24 24-24s24 10.7 24 24l0 40 67.5 0zm91.3 48L48 304 48 448c0 8.8 7.2 16 16 16l176 0 0-48c0-26.5 21.5-48 48-48s48 21.5 48 48l0 48 176 0c8.8 0 16-7.2 16-16l0-144-321.2 0z"/></svg>