<svg xmlns="http://www.w3.org/2000/svg" viewBox="0 0 640 512"><path fill="currentColor" d="M256 40c0-13.3 10.7-24 24-24l72 0c9.4 0 17.9 5.4 21.8 13.9L392.3 70 416.4 53.6c5.3-3.6 11.6-5.6 18-5.6L504 48c13.3 0 24 10.7 24 24l0 80c0 13.3-10.7 24-24 24l-62.8 0 23.9 51.8c9.9-2.5 20.2-3.8 30.9-3.8 70.7 0 128 57.3 128 128s-57.3 128-128 128-128-57.3-128-128c0-42.9 21.1-80.9 53.5-104.1l-13-28.2c-39 27.5-64.5 73-64.5 124.3l0 8c0 5.8-2.1 11.2-5.6 15.4-4.4 5.3-11 8.6-18.4 8.6l-50.2 0c-11.2 59.2-63.3 104-125.8 104-70.7 0-128-57.3-128-128S73.3 224 144 224c62.5 0 114.5 44.8 125.8 104l25.4 0c-8-76.4-72.6-136-151.2-136l-56 0c-13.3 0-24-10.7-24-24s10.7-24 24-24l56 0c36.6 0 70.8 9.8 100.3 26.9L352.1 97.4 336.6 64 280 64c-13.3 0-24-10.7-24-24zm64 208.9c16.2-29.8 39.7-55.1 68.1-73.4l-15.7-33.9-88 60c14 13.9 26.1 29.8 35.5 47.3zM419 128l61 0 0-32-40.6 0-26.7 18.2 6.4 13.8zm55.2 234.1l-32-69.3c-16.1 14.6-26.2 35.8-26.2 59.2 0 44.2 35.8 80 80 80s80-35.8 80-80-35.8-80-80-80c-3.5 0-6.9 .2-10.2 .6l32 69.3c5.6 12 .3 26.3-11.7 31.8s-26.3 .3-31.8-11.7zM220.3 376L144 376c-13.3 0-24-10.7-24-24s10.7-24 24-24l76.3 0c-10.2-32.5-40.5-56-76.3-56-44.2 0-80 35.8-80 80s35.8 80 80 80c35.8 0 66.1-23.5 76.3-56z"/></svg>