<svg xmlns="http://www.w3.org/2000/svg" viewBox="0 0 640 512"><path fill="currentColor" d="M304.3 0c-35.3 0-64 28.7-64 64l0 33.7c15.7 4 30 13.9 39.3 29.8l8.7 14.9 0-78.5c0-8.8 7.2-16 16-16l128 0c8.8 0 16 7.2 16 16l0 56c0 13.3 10.7 24 24 24l72 0c8.8 0 16 7.2 16 16l0 288c0 8.8-7.2 16-16 16l-68.4 0c9 15.6 10.6 32.7 6.6 48l61.8 0c35.3 0 64-28.7 64-64l0-288c0-23.7-12.9-44.4-32-55.4l0-80.6c0-13.3-10.7-24-24-24s-24 10.7-24 24l0 72-32 0 0-32c0-35.3-28.7-64-64-64l-128 0zm32 224.7l18.2 31.3 29.8 0c8.8 0 16-7.2 16-16l0-32c0-8.8-7.2-16-16-16l-32 0c-8.8 0-16 7.2-16 16l0 16.7zm0-112.7l0 32c0 8.8 7.2 16 16 16l32 0c8.8 0 16-7.2 16-16l0-32c0-8.8-7.2-16-16-16l-32 0c-8.8 0-16 7.2-16 16zm112 96l0 32c0 8.8 7.2 16 16 16l32 0c8.8 0 16-7.2 16-16l0-32c0-8.8-7.2-16-16-16l-32 0c-8.8 0-16 7.2-16 16zm16 80c-8.8 0-16 7.2-16 16l0 32c0 8.8 7.2 16 16 16l32 0c8.8 0 16-7.2 16-16l0-32c0-8.8-7.2-16-16-16l-32 0zm-240-64.7l56.4 96.7-40.4 0-48 48-33.1-33.1 65.1-111.6zm-27.6-47.9L28.4 463.9C16 485.2 31.4 512 56 512l336.6 0c24.7 0 40.1-26.8 27.6-48.1L252 175.4c-12.3-21.2-42.9-21.2-55.3 0z"/></svg>