<svg xmlns="http://www.w3.org/2000/svg" viewBox="0 0 640 512"><path fill="currentColor" d="M256.2 32c13.7 0 26.4 7.5 33 19.6l202.5 373c6.3 11.6 6 25.7-.7 37.1-6.8 11.3-19 18.3-32.2 18.3l-405 0c-13.2 0-25.5-7-32.2-18.3-6.8-11.4-7.1-25.5-.8-37.1l202.5-373 2.8-4.3c7-9.5 18.2-15.3 30.2-15.3zM418 96c11.7 0 22.4 6.4 28.1 16.6l175.5 320 1.8 3.8c3.5 9.1 2.7 19.4-2.3 27.9-5.8 9.7-16.2 15.7-27.5 15.7l-56.2 0c11.2-23 11.6-49.9 .9-73.2l-2.5-5 0 0-151.4-278.8 5.7-10.2 2.3-3.7c6-8.1 15.5-13 25.7-13zM226.9 317.9c-8.3 7.2-20.2 7.7-29 1.8l-3.6-2.9-39.2-39-83.8 154.3 369.8 0-86.9-160-74.1 0-53.2 45.9zM179 233.8l33.4 33.2 43.2-37.2 3.5-2.5c3.7-2.2 7.9-3.3 12.2-3.3l56.9 0-71.9-132.5-77.2 142.3z"/></svg>