<svg xmlns="http://www.w3.org/2000/svg" viewBox="0 0 512 512"><path fill="currentColor" d="M393.4 50.8c4.5-1.8 9.5-2.8 14.6-2.8 22.1 0 40 17.9 40 40 0 8.1-2.4 15.6-6.5 21.9-10.4-5.3-21.7-9.1-33.6-11.4-.9-17.4-6.1-33.7-14.5-47.8zm86.2 88.4C489.9 124.8 496 107.1 496 88 496 39.4 456.6 0 408 0 389.6 0 372.5 5.7 358.4 15.3 342.5 5.6 323.9 0 304 0 246.6 0 200 46.6 200 104l0 3.2c0 21.2 6.4 41.3 17.7 58.1-74.6 19-129.7 86.7-129.7 167.2 0 12.7 2.8 24.7 7.9 35.4L72 368c-39.8 0-72 32.2-72 72s32.2 72 72 72l384 0c13.3 0 24-10.7 24-24s-10.7-24-24-24L72 464c-13.3 0-24-10.7-24-24s10.7-24 24-24l320 0c13.3 0 24-10.7 24-24s-10.7-24-24-24l-47.8 0 32-80 79.8 0c30.9 0 56-25.1 56-56l0-7.7c0-32.6-12.2-62.4-32.4-85.1zM292.6 368l-121.1 0c-19.6 0-35.4-15.9-35.4-35.4 0-68.8 55.8-124.6 124.6-124.6l19.4 0c11.4 0 21.2-8 23.5-19.2s-3.6-22.4-14.1-26.9l-7.5-3.2c-20.6-8.8-33.9-29.1-33.9-51.5l0-3.2c0-30.9 25.1-56 56-56s56 25.1 56 56l0 16c0 12.5 9.7 23 22.2 23.9l8 .6c41.7 3.2 73.9 38 73.9 79.8l0 7.7c0 4.4-3.6 8-8 8l-96 0c-9.8 0-18.6 6-22.3 15.1L292.6 368zM396 216a20 20 0 1 0 0-40 20 20 0 1 0 0 40z"/></svg>