<svg xmlns="http://www.w3.org/2000/svg" viewBox="0 0 384 512"><path fill="currentColor" d="M320 48c8.8 0 16 7.2 16 16l0 384c0 8.8-7.2 16-16 16L64 464c-8.8 0-16-7.2-16-16L48 64c0-8.8 7.2-16 16-16l256 0zM64 0C28.7 0 0 28.7 0 64L0 448c0 35.3 28.7 64 64 64l256 0c35.3 0 64-28.7 64-64l0-384c0-35.3-28.7-64-64-64L64 0zM192 288a40 40 0 1 1 0 80 40 40 0 1 1 0-80zm0 128a88 88 0 1 0 0-176 88 88 0 1 0 0 176zM128 96c-17.7 0-32 14.3-32 32l0 32c0 17.7 14.3 32 32 32l128 0c17.7 0 32-14.3 32-32l0-32c0-17.7-14.3-32-32-32L128 96z"/></svg>