<svg xmlns="http://www.w3.org/2000/svg" viewBox="0 0 576 512"><path fill="currentColor" d="M112 288c0 26.5 21.5 48 48 48l192 0c26.5 0 48-21.5 48-48l0-208-152 0 0 20.4c0 7.5 2.6 14.7 7.4 20.5l25.2 30.2c4.8 5.8 7.4 13 7.4 20.5l0 52.4c0 17.7-14.3 32-32 32l-64 0c-17.7 0-32-14.3-32-32l0-52.4c0-7.5 2.6-14.7 7.4-20.5l25.2-30.2c4.8-5.8 7.4-13 7.4-20.5l0-20.4-88 0 0 208zM448 80l0 144 8 0c39.8 0 72-32.2 72-72s-32.2-72-72-72l-8 0zm0 192l0 16c0 53-43 96-96 96l-192 0c-53 0-96-43-96-96L64 64c0-17.7 14.3-32 32-32l360 0c66.3 0 120 53.7 120 120S522.3 272 456 272l-8 0zM32 488c0-13.3 10.7-24 24-24l400 0c13.3 0 24 10.7 24 24s-10.7 24-24 24L56 512c-13.3 0-24-10.7-24-24z"/></svg>