<svg xmlns="http://www.w3.org/2000/svg" viewBox="0 0 576 512"><path fill="currentColor" d="M112 112l88 0 0 20.4c0 7.5-2.6 14.7-7.4 20.5l-25.2 30.2c-4.8 5.8-7.4 13-7.4 20.5l0 52.4c0 17.7 14.3 32 32 32l64 0c17.7 0 32-14.3 32-32l0-52.4c0-7.5-2.6-14.7-7.4-20.5l-25.2-30.2c-4.8-5.8-7.4-13-7.4-20.5l0-20.4 152 0 0 240c0 26.5-21.5 48-48 48l-192 0c-26.5 0-48-21.5-48-48l0-240zM96 64C78.3 64 64 78.3 64 96l0 256c0 53 43 96 96 96l192 0c53 0 96-43 96-96l0-48 8 0c66.3 0 120-53.7 120-120S522.3 64 456 64L96 64zM456 256l-8 0 0-144 8 0c39.8 0 72 32.2 72 72s-32.2 72-72 72z"/></svg>