<svg xmlns="http://www.w3.org/2000/svg" viewBox="0 0 576 512"><path fill="currentColor" d="M152-16c13.3 0 24 10.7 24 24 0 16.1 7.5 23.7 23.8 37.9l1.1 1c15.7 13.7 39.1 34.2 39.1 73.1 0 13.3-10.7 24-24 24s-24-10.7-24-24c0-16.1-7.5-23.7-23.8-37.9l-1.1-1C151.4 67.4 128 46.9 128 8 128-5.3 138.7-16 152-16zM112 416c0 26.5 21.5 48 48 48l192 0c26.5 0 48-21.5 48-48l0-176-288 0 0 176zM448 240l0 144 8 0c39.8 0 72-32.2 72-72s-32.2-72-72-72l-8 0zm-1.3 192c-7.6 45.4-47.1 80-94.7 80l-192 0c-53 0-96-43-96-96l0-192c0-17.7 14.3-32 32-32l360 0c66.3 0 120 53.7 120 120S522.3 432 456 432l-9.3 0zM288 8c0 16.1 7.5 23.7 23.8 37.9l1.1 1c15.7 13.7 39.1 34.2 39.1 73.1 0 13.3-10.7 24-24 24s-24-10.7-24-24c0-16.1-7.5-23.7-23.8-37.9l-1.1-1C263.4 67.4 240 46.9 240 8 240-5.3 250.7-16 264-16S288-5.3 288 8z"/></svg>