<svg xmlns="http://www.w3.org/2000/svg" viewBox="0 0 576 512"><path fill="currentColor" d="M288 0l96 0c17.7 0 32 14.3 32 32l0 48-320 0 0-16c0-17.7 14.3-32 32-32l128 0c0-17.7 14.3-32 32-32zM112 384c0 26.5 21.5 48 48 48l192 0c26.5 0 48-21.5 48-48l0-208-208 0 0 88c0 13.3-10.7 24-24 24s-24-10.7-24-24l0-88-32 0 0 208zM448 176l0 144 8 0c39.8 0 72-32.2 72-72s-32.2-72-72-72l-8 0zm0 192l0 16c0 53-43 96-96 96l-192 0c-53 0-96-43-96-96l0-224c0-17.7 14.3-32 32-32l360 0c66.3 0 120 53.7 120 120S522.3 368 456 368l-8 0z"/></svg>