<svg xmlns="http://www.w3.org/2000/svg" viewBox="0 0 512 512"><path fill="currentColor" d="M295.9 51.8c95.8 18.6 168.1 103 168.1 204.2 0 8.8-7.2 16-16 16L64 272c-8.8 0-16-7.2-16-16 0-73.3 37.9-137.7 95.2-174.8 12.6 27.6 40.5 46.8 72.8 46.8 42.9 0 77.9-33.8 79.9-76.2zM64 320l108.3 0-9.7 125.5c-1.4 18.6 13.3 34.5 31.9 34.5l122.9 0c18.6 0 33.3-15.9 31.9-34.5L339.7 320 448 320c35.3 0 64-28.7 64-64 0-141.4-114.6-256-256-256S0 114.6 0 256c0 35.3 28.7 64 64 64zM211.8 432l8.6-112 71.1 0 8.6 112-88.3 0zM144 224a32 32 0 1 0 0-64 32 32 0 1 0 0 64zm240-48a48 48 0 1 0 -96 0 48 48 0 1 0 96 0z"/></svg>