<svg xmlns="http://www.w3.org/2000/svg" viewBox="0 0 576 512"><path fill="currentColor" d="M41-24.9c-9.4-9.4-24.6-9.4-33.9 0S-2.3-.3 7 9.1l528 528c9.4 9.4 24.6 9.4 33.9 0s9.4-24.6 0-33.9L468.7 402.9c26-14.3 43.3-38.9 43.3-66.8L512 24c0-7.3-3.3-14.2-9-18.7S489.9-1 482.8 .6l-288 64C183.8 67 176 76.8 176 88l0 22.2-135-135zM227.2 161.4l-3.2-3.2 0-50.9 240-53.3 0 54.8-236.8 52.6zm40.2 40.2l196.6-43.7 0 108.8c-14.1-6.8-30.5-10.7-48-10.7-27.3 0-51.9 9.5-69.4 24.7l-79.1-79.1zM380.4 314.5c8.8-6.5 21.5-10.5 35.6-10.5 26.5 0 48 14.3 48 32 0 13.9-13.3 25.8-32 30.2l-51.6-51.6zM176 245.8l0 84.9c-14.1-6.8-30.5-10.7-48-10.7-53 0-96 35.8-96 80s43 80 96 80 96-35.8 96-80l0-106.2-48-48zM176 400c0 17.7-21.5 32-48 32s-48-14.3-48-32 21.5-32 48-32 48 14.3 48 32z"/></svg>