<svg xmlns="http://www.w3.org/2000/svg" viewBox="0 0 576 512"><path fill="currentColor" d="M41-24.9c-9.4-9.4-24.6-9.4-33.9 0S-2.3-.3 7 9.1l528 528c9.4 9.4 24.6 9.4 33.9 0s9.4-24.6 0-33.9l-217-217 0-91.4 109.8-27.5C472.5 164.6 480 155 480 144l0-120c0-7.4-3.4-14.4-9.2-18.9S457.4-1.1 450.2 .7l-128 32C311.5 35.4 304 45 304 56l0 182.2-263-263zm193.3 329c-59.2 2.5-106.3 44.5-106.3 95.9 0 53 50.1 96 112 96 54.1 0 99.2-32.8 109.7-76.5L234.3 304.1zM304 400c0 19.8-21.4 48-64 48s-64-28.2-64-48 21.4-48 64-48 64 28.2 64 48zM432 125.3l-80 20 0-70.5 80-20 0 70.5z"/></svg>