<svg xmlns="http://www.w3.org/2000/svg" viewBox="0 0 640 512"><path fill="currentColor" d="M464 208c0 71.6-47.1 132.3-112 152.7l0 49.8c30.1-7.1 57.7-20.8 81.1-39.4L567 505c9.4 9.4 24.6 9.4 33.9 0s9.4-24.6 0-33.9L467.1 337.1C495.2 301.7 512 256.8 512 208 512 93.1 418.9 0 304 0 197.3 0 109.3 80.4 97.4 183.9l50.1-9.1C162.7 102.4 227 48 304 48 392.4 48 464 119.6 464 208zM304 224c0-7.1-3.2-13.9-8.6-18.4s-12.7-6.5-19.7-5.2l-176 32C88.3 234.5 80 244.4 80 256l0 161.6c-5.9-1.1-11.4-1.6-16-1.6-9.5 0-22.9 2.1-34.9 7.5-11.1 5-29.1 17.2-29.1 40.5s18 35.4 29.1 40.5C41.1 509.9 54.5 512 64 512s22.9-2.1 34.9-7.5c11.1-5 29.1-17.2 29.1-40.5l0-139.9 128-23.3 0 84.9c-5.9-1.1-11.4-1.6-16-1.6-9.5 0-22.9 2.1-34.9 7.5-11.1 5-29.1 17.2-29.1 40.5s18 35.4 29.1 40.5c11.9 5.4 25.4 7.5 34.9 7.5s22.9-2.1 34.9-7.5c11.1-5 29.1-17.2 29.1-40.5l0-208z"/></svg>