<svg xmlns="http://www.w3.org/2000/svg" viewBox="0 0 512 512"><path fill="currentColor" d="M422.3 56.1l-224 49.8c-3.7 .8-6.3 4.1-6.3 7.8l0 48.4 240-53.3 0-44.9c0-5.1-4.7-8.9-9.7-7.8zM432 266.7l0-108.8-240 53.3 0 188.7c0 44.2-43 80-96 80s-96-35.8-96-80 43-80 96-80c17.5 0 33.9 3.9 48 10.7l0-217c0-26.2 18.2-49 43.9-54.7l224-49.8c35-7.8 68.1 18.8 68.1 54.7L480 336c0 44.2-43 80-96 80s-96-35.8-96-80 43-80 96-80c17.5 0 33.9 3.9 48 10.7zm0 69.3c0-17.7-21.5-32-48-32s-48 14.3-48 32 21.5 32 48 32 48-14.3 48-32zM144 400c0-17.7-21.5-32-48-32s-48 14.3-48 32 21.5 32 48 32 48-14.3 48-32z"/></svg>