<svg xmlns="http://www.w3.org/2000/svg" viewBox="0 0 512 512"><path fill="currentColor" d="M448 64c35.3 0 64 28.7 64 64l0 256-.3 6.5C508.4 422.8 481.1 448 448 448L64 448C30.9 448 3.6 422.8 .3 390.5L0 384 0 128C0 92.7 28.7 64 64 64l384 0zM48 344l0 40c0 8.8 7.2 16 16 16l80 0 0-56-96 0zm144 56l112 0 0-288-112 0 0 288zm160 0l96 0c8.8 0 16-7.2 16-16l0-256c0-8.8-7.2-16-16-16l-96 0 0 288zM64 112c-8.8 0-16 7.2-16 16l0 168 96 0 0-184-80 0zm184 96a24 24 0 1 1 0-48 24 24 0 1 1 0 48zm160 0a24 24 0 1 1 0-48 24 24 0 1 1 0 48z"/></svg>