<svg xmlns="http://www.w3.org/2000/svg" viewBox="0 0 576 512"><path fill="currentColor" d="M224.3 0c70.7 0 128 57.3 128 128l0 67.2c-33 16.9-59.9 43.8-76.8 76.8l-172.2 0c-14.5 27.8-23.1 60.6-23.1 96s8.6 68.2 23.1 96l137.8 0c-3.5 16.7-1.4 33.4 5.1 48l-144.8 0-5.8-.3c-11.6-1.4-22.3-7-29.3-16.1l-3.2-4.9c-18.3-33.4-29.4-72.4-30.7-114.2l-.1-8.4c0-45 11.3-87 30.8-122.7 6.6-12.1 18.9-19.4 32.4-21l5.8-.3-5.1 0 0-96c0-70.7 57.3-128 128-128zm208 224c70.7 0 128 57.3 128 128l0 61.5c0 12.2 2.3 24.3 6.9 35.7l7.6 19c8.4 21-7.1 43.9-29.7 43.9l-225.5 0c-22.6 0-38.1-22.9-29.7-43.9l7.6-19c4.5-11.3 6.9-23.4 6.9-35.7l0-61.5c0-70.7 57.3-128 128-128zM419 333.3c-12 12-28.3 18.7-45.2 18.7l-19.9 0c-1 5.2-1.6 10.5-1.6 16 0 44.2 35.8 80 80 80s80-35.8 80-80c0-5.5-.5-10.8-1.6-16l-19.9 0c-17 0-33.3-6.8-45.2-18.7L432.3 320 419 333.3zM211 93.2c-12 12-28.3 18.7-45.2 18.8l-21.5 0 .4 8.2c4.1 40.3 38.2 71.8 79.6 71.8 44.2 0 80-35.8 80-80l-21.5 0c-17 0-33.2-6.8-45.2-18.8L224.3 80 211 93.2z"/></svg>