<svg xmlns="http://www.w3.org/2000/svg" viewBox="0 0 576 512"><path fill="currentColor" d="M240 80l0 64 96 0 0-64-96 0zm-48 0c0-26.5 21.5-48 48-48l96 0c26.5 0 48 21.5 48 48l0 64c0 26.5-21.5 48-48 48l-24 0 0 40 240 0c13.3 0 24 10.7 24 24s-10.7 24-24 24l-112 0 0 40 24 0c26.5 0 48 21.5 48 48l0 64c0 26.5-21.5 48-48 48l-96 0c-26.5 0-48-21.5-48-48l0-64c0-26.5 21.5-48 48-48l24 0 0-40-208 0 0 40 24 0c26.5 0 48 21.5 48 48l0 64c0 26.5-21.5 48-48 48l-96 0c-26.5 0-48-21.5-48-48l0-64c0-26.5 21.5-48 48-48l24 0 0-40-112 0c-13.3 0-24-10.7-24-24s10.7-24 24-24l240 0 0-40-24 0c-26.5 0-48-21.5-48-48l0-64zm16 288l-96 0 0 64 96 0 0-64zm160 0l0 64 96 0 0-64-96 0z"/></svg>