<svg xmlns="http://www.w3.org/2000/svg" viewBox="0 0 576 512"><path fill="currentColor" d="M416 80L96 80c-8.8 0-16 7.2-16 16l0 320c0 8.8 7.2 16 16 16l207.2 0 3.7 48-210.9 0c-35.3 0-64-28.7-64-64L32 96c0-35.3 28.7-64 64-64l320 0c35.3 0 64 28.7 64 64l0 80-48 0 0-80c0-8.8-7.2-16-16-16zm-32 88l0 12.1c-14.5 5.1-27.2 14.9-35.9 27.9l-4.1 0c-2.7 0-5.4 .1-8 .4l0-32.4-56 0 0 48c3.5 2.6 6.6 5.8 9.1 9.5-10.6 12.5-17.1 28.8-17.1 46.5 0 4.2 .4 8.2 1 12.2-5.2 2.4-10.9 3.8-17 3.8-22.1 0-40-17.9-40-40 0-13.1 6.3-24.7 16-32l0-56c0-22.1 17.9-40 40-40l72 0c22.1 0 40 17.9 40 40zM299.6 384L168 384c-22.1 0-40-17.9-40-40l0-176c0-22.1 17.9-40 40-40l16 0c13.3 0 24 10.7 24 24s-10.7 24-24 24l-8 0 0 160 119.9 0 3.7 48zm87-146.6c4.1-8.1 12.4-13.3 21.5-13.3l80 0c9.1 0 17.4 5.1 21.5 13.3l9.4 18.7 33.2 0c13.3 0 24 10.7 24 24s-10.7 24-24 24l-208 0c-13.3 0-24-10.7-24-24s10.7-24 24-24l33.2 0 9.4-18.7zM357.7 514.5l-13.7-178.5 208 0-13.7 178.5c-1.3 16.7-15.2 29.5-31.9 29.5l-116.7 0c-16.7 0-30.6-12.9-31.9-29.5z"/></svg>