<svg xmlns="http://www.w3.org/2000/svg" viewBox="0 0 576 512"><path fill="currentColor" d="M41-24.9c-9.4-9.4-24.6-9.4-33.9 0S-2.3-.3 7 9.1l528 528c9.4 9.4 24.6 9.4 33.9 0s9.4-24.6 0-33.9l-62.1-62.1c3.3-7.7 5.1-16.2 5.1-25.1l0-320c0-35.3-28.7-64-64-64L128 32c-8.9 0-17.4 1.8-25.1 5.1l-62-62zM145.8 80L448 80c8.8 0 16 7.2 16 16l0 302.2-48.4-48.4c.3-1.9 .4-3.8 .4-5.7l0-176c0-22.1-17.9-40-40-40l-72 0c-22.1 0-40 17.9-40 40L264 198.2 145.8 80zM368 302.2l-40.4-40.4c.3-1.9 .4-3.8 .4-5.7 0-13.1-6.3-24.7-16-32l0-48 56 0 0 126.2zM112 182l-48-48 0 282c0 35.3 28.7 64 64 64l282 0-48-48-234 0c-8.8 0-16-7.2-16-16l0-234zM314 384l-48-48-58 0 0-58-48-48 0 114c0 22.1 17.9 40 40 40l114 0z"/></svg>