<svg xmlns="http://www.w3.org/2000/svg" viewBox="0 0 640 512"><path fill="currentColor" d="M448.1 80l-320 0c-8.8 0-16 7.2-16 16l0 320c0 8.8 7.2 16 16 16l165.5 0c-3.8 8.1-6.6 16.6-8.4 25.5l-4.5 22.5-152.6 0c-35.3 0-64-28.7-64-64l0-320c0-35.3 28.7-64 64-64l320 0c35.3 0 64 28.7 64 64l0 114.9c-9.3 4.8-18.1 11.2-25.9 19l-22.1 22.1 0-156c0-8.8-7.2-16-16-16zm-116 304l-132 0c-22.1 0-40-17.9-40-40l0-176c0-22.1 17.9-40 40-40l16 0c13.3 0 24 10.7 24 24s-10.7 24-24 24l-8 0 0 160 160 0 0-160-56 0 0 48c9.7 7.3 16 18.9 16 32 0 22.1-17.9 40-40 40s-40-17.9-40-40c0-13.1 6.3-24.7 16-32l0-56c0-22.1 17.9-40 40-40l72 0c22.1 0 40 17.9 40 40l0 132-84 84zm.2 82.9c2.5-12.4 8.6-23.8 17.5-32.7l118.9-118.9 80 80-118.9 118.9c-8.9 8.9-20.3 15-32.7 17.5l-59.6 11.9c-.9 .2-1.9 .3-2.9 .3-8 0-14.6-6.5-14.6-14.6 0-1 .1-1.9 .3-2.9l11.9-59.6zm267.8-123l-28.8 28.8-80-80 28.8-28.8c22.1-22.1 57.9-22.1 80 0s22.1 57.9 0 80z"/></svg>