<svg xmlns="http://www.w3.org/2000/svg" viewBox="0 0 576 512"><path fill="currentColor" d="M416 80L96 80c-8.8 0-16 7.2-16 16l0 320c0 8.8 7.2 16 16 16l208 0 0 48-208 0c-35.3 0-64-28.7-64-64L32 96c0-35.3 28.7-64 64-64l320 0c35.3 0 64 28.7 64 64l0 81c-5.2-.7-10.6-1-16-1-11 0-21.8 1.4-32 4l0-84c0-8.8-7.2-16-16-16zm-32 88l0 36.1c-29.3 23.5-48 59.5-48 99.9l0-128-56 0 0 48c9.7 7.3 16 18.9 16 32 0 22.1-17.9 40-40 40s-40-17.9-40-40c0-13.1 6.3-24.7 16-32l0-56c0-22.1 17.9-40 40-40l72 0c22.1 0 40 17.9 40 40zM176 336l152.4 0c-11.8 13.2-20 29.7-23.1 48L168 384c-22.1 0-40-17.9-40-40l0-176c0-22.1 17.9-40 40-40l16 0c13.3 0 24 10.7 24 24s-10.7 24-24 24l-8 0 0 160zm320-31.9c0-17.7-14.3-32-32-32s-32 14.3-32 32l0 47.9 64 0 0-47.9zM352 400c0-20.9 13.4-38.7 32-45.3l0-50.6c0-44.2 35.8-80 80-80s80 35.8 80 80l0 50.6c18.6 6.6 32 24.4 32 45.3l0 96c0 26.5-21.5 48-48 48l-128 0c-26.5 0-48-21.5-48-48l0-96z"/></svg>