<svg xmlns="http://www.w3.org/2000/svg" viewBox="0 0 512 512"><path fill="currentColor" d="M357.4 473.6c7.7 7.2 19.2 8.5 28.3 3.2 75.6-43.8 126.3-127.5 126.3-220.8S461.4 79 385.7 35.2c-11.5-6.6-26.2-2.7-32.8 8.8s-2.7 26.2 8.8 32.8c61 35.3 102.3 103.3 102.3 179.2 0 69.6-34.7 132.6-87.6 169.8L200.3 262.4c-9.7-9-24.9-8.4-33.9 1.3s-8.4 24.9 1.3 33.9l189.7 176zM154.6 38.4C146.9 31.3 135.4 30 126.3 35.2 50.6 79 0 162.7 0 256S50.6 433 126.3 476.8c11.5 6.6 26.2 2.7 32.8-8.8s2.7-26.2-8.8-32.8C89.3 399.9 48 331.9 48 256 48 186.4 82.7 123.4 135.6 86.2L311.7 249.6c9.7 9 24.9 8.4 33.9-1.3s8.4-24.9-1.3-33.9L154.6 38.4z"/></svg>