<svg xmlns="http://www.w3.org/2000/svg" viewBox="0 0 576 512"><path fill="currentColor" d="M416 80L96 80c-8.8 0-16 7.2-16 16l0 320c0 8.8 7.2 16 16 16l189.7 0c-5.1 15.4-8.8 31.5-11.1 48L96 480c-35.3 0-64-28.7-64-64L32 96c0-35.3 28.7-64 64-64l320 0c35.3 0 64 28.7 64 64l0 153c-16.7 4.4-32.7 10.2-48 17.4L432 96c0-8.8-7.2-16-16-16zM306.6 384L168 384c-22.1 0-40-17.9-40-40l0-176c0-22.1 17.9-40 40-40l16 0c13.3 0 24 10.7 24 24s-10.7 24-24 24l-8 0 0 160 160 0 0-160-56 0 0 48c9.7 7.3 16 18.9 16 32 0 22.1-17.9 40-40 40s-40-17.9-40-40c0-13.1 6.3-24.7 16-32l0-56c0-22.1 17.9-40 40-40l72 0c22.1 0 40 17.9 40 40l0 127.3c-31.7 23.7-58.1 53.9-77.4 88.7zM552 288c13.3 0 24 10.7 24 24s-10.7 24-24 24c-101.6 0-184 82.4-184 184 0 13.3-10.7 24-24 24s-24-10.7-24-24c0-128.1 103.9-232 232-232zm-8 192a32 32 0 1 1 0 64 32 32 0 1 1 0-64zm32-72c0 13.3-10.7 24-24 24-48.6 0-88 39.4-88 88 0 13.3-10.7 24-24 24s-24-10.7-24-24c0-75.1 60.9-136 136-136 13.3 0 24 10.7 24 24z"/></svg>