<svg xmlns="http://www.w3.org/2000/svg" viewBox="0 0 448 512"><path fill="currentColor" d="M384 80c8.8 0 16 7.2 16 16l0 320c0 8.8-7.2 16-16 16L64 432c-8.8 0-16-7.2-16-16L48 96c0-8.8 7.2-16 16-16l320 0zM64 32C28.7 32 0 60.7 0 96L0 416c0 35.3 28.7 64 64 64l320 0c35.3 0 64-28.7 64-64l0-320c0-35.3-28.7-64-64-64L64 32zM264 256c0-13.1-6.3-24.7-16-32l0-48 56 0 0 160-160 0 0-160 8 0c13.3 0 24-10.7 24-24s-10.7-24-24-24l-16 0c-22.1 0-40 17.9-40 40l0 176c0 22.1 17.9 40 40 40l176 0c22.1 0 40-17.9 40-40l0-176c0-22.1-17.9-40-40-40l-72 0c-22.1 0-40 17.9-40 40l0 56c-9.7 7.3-16 18.9-16 32 0 22.1 17.9 40 40 40s40-17.9 40-40z"/></svg>