<svg xmlns="http://www.w3.org/2000/svg" viewBox="0 0 384 512"><path fill="currentColor" d="M182.9 527.8C89.9 523.1 16 446.2 16 352l.2-9.1C20.5 258 85.1 189 168 177.7l0-48-54.2 31.3c-11.5 6.6-26.2 2.7-32.8-8.8-6.2-10.8-3.1-24.3 6.7-31.4l2.1-1.3 54.3-31.3-54.3-31.4-2.1-1.3c-9.9-7.1-12.9-20.7-6.7-31.4S100.6 9 111.7 13.9l2.2 1.1 54.2 31.3 0-54.3c0-13.3 10.7-24 24-24s24 10.7 24 24l0 54.5 54-31.2 2.2-1.1c11.1-5 24.4-.8 30.6 9.9s3.1 24.4-6.7 31.5l-2.1 1.3-53.8 31.1 53.8 31c11.5 6.6 15.4 21.3 8.8 32.8-6.2 10.8-19.5 14.9-30.6 9.9l-2.2-1.1-54-31.2 0 48.2C298.9 189 363.5 258 367.8 342.9l.2 9.1c0 97.2-78.8 176-176 176l-9.1-.2zM192 480a128 128 0 1 0 0-256 128 128 0 1 0 0 256z"/></svg>