<svg xmlns="http://www.w3.org/2000/svg" viewBox="0 0 512 512"><path fill="currentColor" d="M325.5 368c4.2 0 8.3-1.7 11.3-4.7L459.3 240.8c3-3 4.7-7.1 4.7-11.3L464 64c0-8.8-7.2-16-16-16L160 48c-8.8 0-16 7.2-16 16l0 288c0 8.8 7.2 16 16 16l165.5 0zM160 416c-35.3 0-64-28.7-64-64L96 64c0-35.3 28.7-64 64-64L448 0c35.3 0 64 28.7 64 64l0 165.5c0 17-6.7 33.3-18.7 45.3L370.7 397.3c-12 12-28.3 18.7-45.3 18.7L160 416zM24 96c13.3 0 24 10.7 24 24l0 328c0 8.8 7.2 16 16 16l264 0c13.3 0 24 10.7 24 24s-10.7 24-24 24L64 512c-35.3 0-64-28.7-64-64L0 120c0-13.3 10.7-24 24-24zm248 40c0-8.8 7.2-16 16-16l32 0c8.8 0 16 7.2 16 16l0 40 40 0c8.8 0 16 7.2 16 16l0 32c0 8.8-7.2 16-16 16l-40 0 0 40c0 8.8-7.2 16-16 16l-32 0c-8.8 0-16-7.2-16-16l0-40-40 0c-8.8 0-16-7.2-16-16l0-32c0-8.8 7.2-16 16-16l40 0 0-40z"/></svg>