<svg xmlns="http://www.w3.org/2000/svg" viewBox="0 0 448 512"><path fill="currentColor" d="M64 432c-8.8 0-16-7.2-16-16L48 96c0-8.8 7.2-16 16-16l320 0c8.8 0 16 7.2 16 16l0 197.5c0 4.2-1.7 8.3-4.7 11.3L272.8 427.3c-3 3-7.1 4.7-11.3 4.7L64 432zM0 416c0 35.3 28.7 64 64 64l197.5 0c17 0 33.3-6.7 45.3-18.7L429.3 338.7c12-12 18.7-28.3 18.7-45.3L448 96c0-35.3-28.7-64-64-64L64 32C28.7 32 0 60.7 0 96L0 416zM192 184l0 40-40 0c-8.8 0-16 7.2-16 16l0 32c0 8.8 7.2 16 16 16l40 0 0 40c0 8.8 7.2 16 16 16l32 0c8.8 0 16-7.2 16-16l0-40 40 0c8.8 0 16-7.2 16-16l0-32c0-8.8-7.2-16-16-16l-40 0 0-40c0-8.8-7.2-16-16-16l-32 0c-8.8 0-16 7.2-16 16z"/></svg>