<svg xmlns="http://www.w3.org/2000/svg" viewBox="0 0 512 512"><path fill="currentColor" d="M176 48l0 416-48 0c-8.8 0-16-7.2-16-16l0-384c0-8.8 7.2-16 16-16l48 0zm48 0l192 0c8.8 0 16 7.2 16 16l0 384c0 8.8-7.2 16-16 16l-192 0 0-416zM128 0C92.7 0 64 28.7 64 64l0 40-40 0c-13.3 0-24 10.7-24 24s10.7 24 24 24l40 0 0 80-40 0c-13.3 0-24 10.7-24 24s10.7 24 24 24l40 0 0 80-40 0c-13.3 0-24 10.7-24 24s10.7 24 24 24l40 0 0 40c0 35.3 28.7 64 64 64l288 0c35.3 0 64-28.7 64-64l0-384c0-35.3-28.7-64-64-64L128 0z"/></svg>