<svg xmlns="http://www.w3.org/2000/svg" viewBox="0 0 512 512"><path fill="currentColor" d="M160 368l144 0 0-88c0-39.8 32.2-72 72-72l88 0 0-144c0-8.8-7.2-16-16-16L160 48c-8.8 0-16 7.2-16 16l0 288c0 8.8 7.2 16 16 16zm192-19.9l92.1-92.1-68.1 0c-13.3 0-24 10.7-24 24l0 68.1zM160 416c-35.3 0-64-28.7-64-64L96 64c0-35.3 28.7-64 64-64L448 0c35.3 0 64 28.7 64 64l0 165.5c0 17-6.7 33.3-18.7 45.3L370.7 397.3c-12 12-28.3 18.7-45.3 18.7L160 416zM48 120l0 328c0 8.8 7.2 16 16 16l264 0c13.3 0 24 10.7 24 24s-10.7 24-24 24L64 512c-35.3 0-64-28.7-64-64L0 120c0-13.3 10.7-24 24-24s24 10.7 24 24z"/></svg>