<svg xmlns="http://www.w3.org/2000/svg" viewBox="0 0 448 512"><path fill="currentColor" d="M64 432l176 0 0-88c0-39.8 32.2-72 72-72l88 0 0-176c0-8.8-7.2-16-16-16L64 80c-8.8 0-16 7.2-16 16l0 320c0 8.8 7.2 16 16 16zm224-19.9l92.1-92.1-68.1 0c-13.3 0-24 10.7-24 24l0 68.1zM64 480c-35.3 0-64-28.7-64-64L0 96C0 60.7 28.7 32 64 32l320 0c35.3 0 64 28.7 64 64l0 197.5c0 17-6.7 33.3-18.7 45.3L306.7 461.3c-12 12-28.3 18.7-45.3 18.7L64 480zM84 368a28 28 0 1 1 56 0 28 28 0 1 1 -56 0zm28-196a28 28 0 1 1 0-56 28 28 0 1 1 0 56zM84 256a28 28 0 1 1 56 0 28 28 0 1 1 -56 0z"/></svg>