<svg xmlns="http://www.w3.org/2000/svg" viewBox="0 0 512 512"><path fill="currentColor" d="M304 368l-144 0c-8.8 0-16-7.2-16-16l0-288c0-8.8 7.2-16 16-16l288 0c8.8 0 16 7.2 16 16l0 144-88 0c-39.8 0-72 32.2-72 72l0 88zM444.1 256L352 348.1 352 280c0-13.3 10.7-24 24-24l68.1 0zM96 352c0 35.3 28.7 64 64 64l165.5 0c17 0 33.3-6.7 45.3-18.7L493.3 274.7c12-12 18.7-28.3 18.7-45.3L512 64c0-35.3-28.7-64-64-64L160 0C124.7 0 96 28.7 96 64l0 288zM24 96C10.7 96 0 106.7 0 120L0 448c0 35.3 28.7 64 64 64l264 0c13.3 0 24-10.7 24-24s-10.7-24-24-24L64 464c-8.8 0-16-7.2-16-16l0-328c0-13.3-10.7-24-24-24zM236 304a28 28 0 1 0 -56 0 28 28 0 1 0 56 0zM208 84a28 28 0 1 0 0 56 28 28 0 1 0 0-56zm28 124a28 28 0 1 0 -56 0 28 28 0 1 0 56 0z"/></svg>