<svg xmlns="http://www.w3.org/2000/svg" viewBox="0 0 576 512"><path fill="currentColor" d="M463-17c9.4-9.4 24.6-9.4 33.9 0l64 64c9.4 9.4 9.4 24.6 0 33.9s-24.6 9.4-33.9 0l-15-15-193.3 193.3-13.5 101.2c-1.6 12.2-7.2 23.5-15.9 32.2L167 515C141 540.9 99 540.9 73 515L29 471C3.1 445 3.1 403 29 377L151.4 254.7c8.7-8.7 20-14.3 32.2-15.9L284.8 225.3 478.1 32 463 17c-9.4-9.4-9.4-24.6 0-33.9zM189.9 286.4c-1.7 .2-3.4 1-4.6 2.3L63 411c-7.2 7.2-7.2 18.9 0 26.1l44 44c7.2 7.2 18.9 7.2 26.1 0L255.4 358.7c1.2-1.2 2-2.9 2.3-4.6l10.4-78.2-78.2 10.4z"/></svg>