<svg xmlns="http://www.w3.org/2000/svg" viewBox="0 0 576 512"><path fill="currentColor" d="M463-17c9.4-9.4 24.6-9.4 33.9 0l64 64c9.4 9.4 9.4 24.6 0 33.9-9.4 9.4-24.6 9.4-33.9 0l-15-15-193.3 193.3-13.5 101.2c-1.6 12.2-7.2 23.5-15.9 32.2L167 515C141 540.9 99 540.9 73 515L29 471C3.1 445 3.1 403 29 377L151.4 254.7c8.7-8.7 20-14.3 32.2-15.9L284.8 225.3 478.1 32 463 17c-9.4-9.4-9.4-24.6 0-33.9zm-59 258.6c7.7 2.8 14.7 7.2 20.5 13L547 377c25.9 25.9 25.9 68 0 93.9l-44 44c-25.9 25.9-68 25.9-93.9 0l-87.1-87.1 1.3-1.3 5.8-6.3c8.5-10 14.9-21.6 19.1-34L443 481c7.2 7.2 18.9 7.2 26.1 0l44-44c7.2-7.2 7.2-18.9 0-26.1L390.7 288.6c-1.2-1.2-2.9-2-4.6-2.3l-22.2-3 .3-1.8 39.9-40zM189.9 286.3c-1.7 .2-3.4 1-4.6 2.3L63 411c-7.2 7.2-7.2 18.9 0 26.1l44 44c7.2 7.2 18.9 7.2 26.1 0L255.4 358.7c1.2-1.2 2-2.9 2.3-4.6l10.4-78.2-78.2 10.4zM79-17c9.4-9.4 24.6-9.4 33.9 0 9.4 9.4 9.4 24.6 0 33.9l-15 15 149.8 149.8-59.9 8-123.8-123.8-15 15c-9.4 9.4-24.6 9.4-33.9 0-9.4-9.4-9.4-24.6 0-33.9L79-17z"/></svg>