<svg xmlns="http://www.w3.org/2000/svg" viewBox="0 0 512 512"><path fill="currentColor" d="M64 48c-8.8 0-16 7.2-16 16l0 16-48 0 0-16C0 28.7 28.7 0 64 0l16 0 0 48-16 0zm160 0l-96 0 0-48 96 0 0 48zM48 128l0 96-48 0 0-96 48 0zM0 288l0-16 48 0 0 16c0 8.8 7.2 16 16 16l48 0 0 48-48 0c-35.3 0-64-28.7-64-64zm160 64l0-128c0-35.3 28.7-64 64-64l128 0 0 128c0 35.3-28.7 64-64 64l-128 0zm304-64l48 0 0 96-48 0 0-96zm48-48l-48 0 0-16c0-8.8-7.2-16-16-16l-48 0 0-48 48 0c35.3 0 64 28.7 64 64l0 16zm0 192l0 16c0 35.3-28.7 64-64 64l-16 0 0-48 16 0c8.8 0 16-7.2 16-16l0-16 48 0zM384 512l-96 0 0-48 96 0 0 48zM160 400l48 0 0 48c0 8.8 7.2 16 16 16l16 0 0 48-16 0c-35.3 0-64-28.7-64-64l0-48zM352 112l-48 0 0-48c0-8.8-7.2-16-16-16l-16 0 0-48 16 0c35.3 0 64 28.7 64 64l0 48zm-48 96l-80 0c-8.8 0-16 7.2-16 16l0 80 80 0c8.8 0 16-7.2 16-16l0-80z"/></svg>