<svg xmlns="http://www.w3.org/2000/svg" viewBox="0 0 448 512"><path fill="currentColor" d="M248-8c0-13.3-10.7-24-24-24S200-21.3 200-8l0 72-152 0C21.5 64 0 85.5 0 112l0 64c0 26.5 21.5 48 48 48l152 0 0 64-88 0c-26.5 0-48 21.5-48 48l0 64c0 26.5 21.5 48 48 48l88 0 0 72c0 13.3 10.7 24 24 24s24-10.7 24-24l0-72 88 0c26.5 0 48-21.5 48-48l0-64c0-26.5-21.5-48-48-48l-88 0 0-64 152 0c26.5 0 48-21.5 48-48l0-64c0-26.5-21.5-48-48-48l-152 0 0-72zM400 112l0 64-352 0 0-64 352 0zM336 336l0 64-224 0 0-64 224 0z"/></svg>