<svg xmlns="http://www.w3.org/2000/svg" viewBox="0 0 448 512"><path fill="currentColor" d="M48 80l0 144 96 0 0-144-96 0zM0 80C0 53.5 21.5 32 48 32l96 0c26.5 0 48 21.5 48 48l0 144c0 26.5-21.5 48-48 48l-96 0c-26.5 0-48-21.5-48-48L0 80zM304 288l0 144 96 0 0-144-96 0zm-48 0c0-26.5 21.5-48 48-48l96 0c26.5 0 48 21.5 48 48l0 144c0 26.5-21.5 48-48 48l-96 0c-26.5 0-48-21.5-48-48l0-144zM144 384l-96 0 0 48 96 0 0-48zM48 336l96 0c26.5 0 48 21.5 48 48l0 48c0 26.5-21.5 48-48 48l-96 0c-26.5 0-48-21.5-48-48l0-48c0-26.5 21.5-48 48-48zM304 80l0 48 96 0 0-48-96 0zm-48 0c0-26.5 21.5-48 48-48l96 0c26.5 0 48 21.5 48 48l0 48c0 26.5-21.5 48-48 48l-96 0c-26.5 0-48-21.5-48-48l0-48z"/></svg>