<svg xmlns="http://www.w3.org/2000/svg" viewBox="0 0 512 512"><path fill="currentColor" d="M64 48l224 0c8.8 0 16 7.2 16 16l0 48 48 0 0-48c0-35.3-28.7-64-64-64L64 0C28.7 0 0 28.7 0 64L0 288c0 35.3 28.7 64 64 64l48 0 0-48-48 0c-8.8 0-16-7.2-16-16L48 64c0-8.8 7.2-16 16-16zM224 160c-35.3 0-64 28.7-64 64l48 0c0-8.8 7.2-16 16-16l32 0 0-48-32 0zM160 272l0 80 48 0 0-80-48 0zm96 80l32 0c35.3 0 64-28.7 64-64l-48 0c0 8.8-7.2 16-16 16l-32 0 0 48zm96-192l-48 0 0 80 48 0 0-80zM160 400l0 48c0 35.3 28.7 64 64 64l224 0c35.3 0 64-28.7 64-64l0-224c0-35.3-28.7-64-64-64l-48 0 0 48 48 0c8.8 0 16 7.2 16 16l0 224c0 8.8-7.2 16-16 16l-224 0c-8.8 0-16-7.2-16-16l0-48-48 0z"/></svg>