<svg xmlns="http://www.w3.org/2000/svg" viewBox="0 0 576 512"><path fill="currentColor" d="M144 80l0 352 64 0 0-352-64 0zM96 80c0-26.5 21.5-48 48-48l64 0c26.5 0 48 21.5 48 48l0 152 64 0 0-88c0-26.5 21.5-48 48-48l64 0c26.5 0 48 21.5 48 48l0 88 72 0c13.3 0 24 10.7 24 24s-10.7 24-24 24l-72 0 0 88c0 26.5-21.5 48-48 48l-64 0c-26.5 0-48-21.5-48-48l0-88-64 0 0 152c0 26.5-21.5 48-48 48l-64 0c-26.5 0-48-21.5-48-48l0-152-72 0c-13.3 0-24-10.7-24-24s10.7-24 24-24l72 0 0-152zm272 64l0 224 64 0 0-224-64 0z"/></svg>