<svg xmlns="http://www.w3.org/2000/svg" viewBox="0 0 512 512"><path fill="currentColor" d="M64 48l16 0 0-48-16 0C28.7 0 0 28.7 0 64l0 16 48 0 0-16c0-8.8 7.2-16 16-16zm160 0l0-48-96 0 0 48 96 0zM48 128l-48 0 0 96 48 0 0-96zm0 144l-48 0 0 16c0 35.3 28.7 64 64 64l16 0 0-48-16 0c-8.8 0-16-7.2-16-16l0-16zm80 80l96 0 0-48-96 0 0 48zm32 48l0 48c0 35.3 28.7 64 64 64l224 0c35.3 0 64-28.7 64-64l0-224c0-35.3-28.7-64-64-64l-48 0 0 48 48 0c8.8 0 16 7.2 16 16l0 224c0 8.8-7.2 16-16 16l-224 0c-8.8 0-16-7.2-16-16l0-48-48 0zM352 208l0-80-48 0 0 96 48 0 0-16zm-80 96l0 48 16 0c35.3 0 64-28.7 64-64l0-16-48 0 0 16c0 8.8-7.2 16-16 16l-16 0zM352 80l0-16c0-35.3-28.7-64-64-64l-16 0 0 48 16 0c8.8 0 16 7.2 16 16l0 16 48 0z"/></svg>