<svg xmlns="http://www.w3.org/2000/svg" viewBox="0 0 512 512"><path fill="currentColor" d="M330.9 .1c12.7 0 24.9 5.1 33.9 14.1L498.3 147.6c9 9 14.1 21.2 14.1 33.9l0 148.8c0 12.7-5.1 24.9-14.1 33.9L364.8 497.9c-9 9-21.2 14.1-33.9 14.1l-148.8 0c-12.7 0-24.9-5.1-33.9-14.1L14.6 364.4c-9-9-14.1-21.2-14.1-33.9l0-148.8c0-12.7 5.1-24.9 14.1-33.9L148.1 14.1c9-9 21.2-14.1 33.9-14.1l148.8 0zM48.5 181.6l0 148.8 133.5 133.5 148.8 0 133.5-133.5 0-148.8-133.5-133.5-148.8 0-133.5 133.5zm119-14.5c9.4-9.4 24.6-9.4 33.9 0l55 55 55-55c9.4-9.4 24.6-9.4 33.9 0s9.4 24.6 0 33.9l-55 55 55 55c9.4 9.4 9.4 24.6 0 33.9s-24.6 9.4-33.9 0l-55-55-55 55c-9.4 9.4-24.6 9.4-33.9 0s-9.4-24.6 0-33.9l55-55-55-55c-9.4-9.4-9.4-24.6 0-33.9z"/></svg>