<svg xmlns="http://www.w3.org/2000/svg" viewBox="0 0 512 512"><path fill="currentColor" d="M330.9 .1c12.7 0 25 5.1 34 14.1L498.3 147.6c9 9 14.1 21.2 14.1 33.9l0 148.8c0 12.7-5.1 25-14.1 34L364.8 497.9c-9 9-21.2 14.1-34 14.1l-148.8 0c-12.7 0-24.9-5.1-33.9-14.1L14.6 364.4c-9-9-14.1-21.2-14.1-34l0-148.8c0-12.7 5.1-24.9 14.1-33.9L148.1 14.1c9-9 21.2-14.1 33.9-14.1l148.8 0zM48.5 181.6l0 148.8 133.5 133.5 148.8 0 133.5-133.5 0-148.8-133.5-133.5-148.8 0-133.5 133.5zm278.7-11.6c7.8-10.7 22.8-13.1 33.5-5.3 10.7 7.8 13.1 22.8 5.3 33.5L243.9 366.1c-4.1 5.7-10.5 9.3-17.5 9.8s-13.9-2-18.8-6.9l-55.9-55.9c-9.4-9.4-9.4-24.6 0-33.9s24.6-9.4 33.9 0l36 36 105.6-145.2z"/></svg>