<svg xmlns="http://www.w3.org/2000/svg" viewBox="0 0 640 512"><path fill="currentColor" d="M248 272a24 24 0 1 1 48 0 24 24 0 1 1 -48 0zm120 24a24 24 0 1 0 0-48 24 24 0 1 0 0 48zM477.4 192.7c2.1-11.3 2.6-22.3 2.6-32.7 0-88.4-71.6-160-160-160S160 71.6 160 160c0 10.4 .6 21.4 2.6 32.7l19.2 105.5c2.8 15.5-9.1 29.8-24.9 29.8-11.2 0-21.1-7.4-24.3-18.2L118.8 263c-12.4-42.1-51-71-94.8-71-13.3 0-24 10.7-24 24s10.7 24 24 24c22.6 0 42.4 14.9 48.8 36.5l13.8 46.9c9.2 31.2 37.8 52.6 70.3 52.6 12.8 0 24.6-3.2 35-8.8-2.1 36.2-32.1 64.8-68.8 64.8-32.5 0-60.6-22.7-67.4-54.5L47.5 339c-2.8-13-15.5-21.2-28.5-18.4S-2.2 336.1 .5 349l8.3 38.6c11.5 53.9 59.2 92.4 114.3 92.4 33.4 0 66.3-8.2 95.8-24l52.1-27.8c15.1-8 31.9-12.2 48.9-12.2s33.9 4.2 48.9 12.2L421.1 456c29.5 15.7 62.4 24 95.8 24 55.1 0 102.8-38.5 114.3-92.4l8.3-38.6c2.8-13-5.5-25.7-18.4-28.5S595.3 326 592.5 339l-8.3 38.6c-6.8 31.8-34.9 54.5-67.4 54.5-36.7 0-66.7-28.7-68.8-64.8 10.3 5.6 22.2 8.8 35 8.8 32.5 0 61.2-21.4 70.3-52.6l13.8-46.9c6.4-21.6 26.2-36.5 48.8-36.5 13.3 0 24-10.7 24-24s-10.7-24-24-24c-43.8 0-82.5 28.9-94.8 71l-13.8 46.9c-3.2 10.8-13.1 18.2-24.3 18.2-15.8 0-27.7-14.3-24.9-29.8l19.2-105.5zM320 48c61.9 0 112 50.1 112 112 0 8.7-.5 16.6-1.9 24.1L401.9 339.2c-1.5 8.4-1.9 16.5-1.9 23.9 0 10.1 1.3 19.9 3.7 29.3l-12.2-6.5C369.5 374.1 345 368 320 368s-49.5 6.1-71.5 17.9l-12.2 6.5c2.4-9.4 3.7-19.2 3.7-29.3 0-7.4-.4-15.5-1.9-23.9L209.9 184.1c-1.4-7.5-1.9-15.4-1.9-24.1 0-61.9 50.1-112 112-112z"/></svg>