<svg xmlns="http://www.w3.org/2000/svg" viewBox="0 0 640 512"><path fill="currentColor" d="M578.9 375.2c5.8-10.6 20.5-10.6 26.3 0 14.2 26.2 34.9 67.8 34.9 88.8 0 32-21.5 48-48 48s-48-21.5-48-48c0-21 20.7-62.6 34.9-88.8zm36.2-155c18.1-3.9 30.7 17.6 18.4 31.5L451.1 458.3c-12.1 13.8-29.6 21.7-48 21.7l-259.1 0-4.9-.2C114.9 477.3 96 456.8 96 432l0-21.3-67.5-30C12.3 373.4 1.4 357.9 .1 340.3L0 336.8 0 272c0-26.5 21.5-48 48-48l161.2 0c-8.9 15.3-14.7 32.7-16.5 51.2l-45.4 0 0 153.6 255.9 0c3.7 0 7.2-1.6 9.6-4.3l118.1-133.9-72.1 15.5c-4 .9-8.1 1.2-12.2 1.1 .9-6.2 1.4-12.6 1.4-19.1 0-11.9-1.7-23.4-4.7-34.4l4.7 2.4 167-35.8zM392 0c13.3 0 24 10.7 24 24s-10.7 24-24 24l-48 0 0 48 48 0c13.3 0 24 10.7 24 24s-10.7 24-24 24l-48 0 0 67.7c32.5 10.2 56 40.5 56 76.3 0 44.2-35.8 80-80 80s-80-35.8-80-80c0-35.8 23.5-66.2 56-76.3L296 24c0-13.3 10.7-24 24-24l72 0zM48 336.8l48 21.3 0-86.1-48 0 0 64.8zM320 256a32 32 0 1 0 0 64 32 32 0 1 0 0-64z"/></svg>