<svg xmlns="http://www.w3.org/2000/svg" viewBox="0 0 640 512"><path fill="currentColor" d="M352 88c0 13.3-10.7 24-24 24l-48 0 0 48 88.9 0c9.9 0 19.7 2.3 28.6 6.8l50.5 25.2 139.8-30 2.1-.4c7.1-1.5 15.4-3.3 25.1-5.4 18.1-3.9 30.7 17.6 18.4 31.5-6.6 7.4-12.2 13.9-17 19.3l-1.4 1.6-163.9 185.8c-12.1 13.8-29.6 21.7-48 21.7L144 416c-26.5 0-48-21.5-48-48l0-21.3-67.5-30C11.2 309 0 291.8 0 272.8L0 208c0-26.5 21.5-48 48-48l184 0 0-48-48 0c-13.3 0-24-10.7-24-24s10.7-24 24-24l144 0c13.3 0 24 10.7 24 24zM458.7 242.1c-11.4 2.4-23.2 .9-33.6-4.3l-50.5-25.2c-1.8-.9-3.7-1.4-5.7-1.4l-221.7 0 0 153.6 255.9 0c3.7 0 7.2-1.6 9.6-4.3l118.1-133.9-72.1 15.4zM96 211.2l0-3.2-48 0 0 64.8 48 21.3 0-82.9zM592 448c-26.5 0-48-21.5-48-48 0-21 20.6-62.6 34.9-88.8 5.8-10.6 20.5-10.6 26.3 0 14.2 26.2 34.9 67.8 34.9 88.8 0 32-21.5 48-48 48z"/></svg>