<svg xmlns="http://www.w3.org/2000/svg" viewBox="0 0 640 512"><path fill="currentColor" d="M2.7 53.1C13.8 41.6 59 0 128 0 194.9 0 239.4 39.1 252.2 52L306 26.7C343.3 9.1 384 0 425.2 0L616 0c13.3 0 24 10.7 24 24s-10.7 24-24 24L425.2 48c-34.2 0-67.9 7.5-98.8 22.1L191.9 133.4C189.1 219.3 118.6 288 32 288l-16 0c-8.8 0-16-7.2-16-16l0-16C0 194.6 34.5 141.4 85.2 114.5 40.4 102.8 11.3 75.8 2.7 66.9 .9 65 0 62.6 0 60s.9-5 2.7-6.9zM399.4 427c19.3-25.7 32.6-63.3 32.6-107s-13.3-81.3-32.6-107c-19.2-25.7-42.2-37-63.4-37s-44.2 11.4-63.4 37C253.3 238.7 240 276.4 240 320s13.3 81.3 32.6 107c19.2 25.7 42.2 37 63.4 37s44.2-11.4 63.4-37zM336 512c-79.5 0-144-86-144-192s64.5-192 144-192 144 86 144 192-64.5 192-144 192zm129.7-40.2c9.4-13.1 17.6-27.5 24.4-43.1 3.6 .8 7.1 1.5 10.5 2 31.1 4.6 55-3.6 70.2-19.3 15.4-16 23.9-42.1 19.2-76-4.7-33.8-22.2-71.6-53.2-103.7-18-18.7-37.7-32.5-57.2-41.7-4.9-8.8-10.3-17.2-16.2-25-10.5-14-22.7-26.5-36.2-36.9 48.2 1.6 101.3 25.8 144.2 70.3 75 77.8 90.2 188.1 33.9 246.4-34.1 35.4-86.8 43.5-139.6 27z"/></svg>