<svg xmlns="http://www.w3.org/2000/svg" viewBox="0 0 512 512"><path fill="currentColor" d="M356.7 4.7c6.2-6.2 16.4-6.2 22.6 0l16 16c6.2 6.2 6.2 16.4 0 22.6l-16 16c-6.2 6.2-16.4 6.2-22.6 0l-16-16c-6.2-6.2-6.2-16.4 0-22.6l16-16zM144 152c-12.6 0-24.2 4.2-33.6 11.2-10.6 8-25.6 5.8-33.6-4.8s-5.8-25.6 4.8-33.6c17.4-13.1 39-20.8 62.4-20.8 57.4 0 104 46.6 104 104 0 20.6-6 39.8-16.3 56l63.3 0c14.8 0 29-5.9 39.5-16.4l20.7-20.7c17.2-17.2 40.6-26.9 65-26.9 50.7 0 91.9 41.1 91.9 91.9l0 96.1c0 50.8-41.2 92-92 92s-92-41.2-92-92l0-4c0-13.3 10.7-24 24-24s24 10.7 24 24l0 4c0 24.3 19.7 44 44 44s44-19.7 44-44l0-96.1c0-24.2-19.6-43.9-43.9-43.9-11.6 0-22.8 4.6-31 12.9l-20.7 20.7C348.9 301 322.5 312 294.9 312l-42.5 0c17.2 20.8 27.6 47 27.6 76 0 70.2-60.9 124-132 124S16 458.2 16 388c0-13.3 10.7-24 24-24s24 10.7 24 24c0 40.3 35.8 76 84 76s84-35.7 84-76-35.8-76-84-76l-20 0c-13.3 0-24-10.7-24-24s10.7-24 24-24l16 0c30.9 0 56-25.1 56-56s-25.1-56-56-56zM298.8 65.1c-8.2-10.4-23.3-12.1-33.7-3.9S253 84.5 261.2 94.9c24 30.3 63.5 49.1 106.8 49.1s82.8-18.8 106.8-49.1c8.2-10.4 6.5-25.5-3.9-33.7s-25.5-6.5-33.7 3.9C422.9 83.1 397.8 96 368 96s-54.9-12.9-69.2-30.9z"/></svg>