<svg xmlns="http://www.w3.org/2000/svg" viewBox="0 0 448 512"><path fill="currentColor" d="M224 80c-97.2 0-176 78.8-176 176 0 63.7 33.8 119.5 84.6 150.4 11.4 7 19.4 19.6 19.4 34.2 0 21.8-17.6 39.4-39.4 39.4L24 480c-13.3 0-24-10.7-24-24s10.7-24 24-24l61.4 0C33.4 391 0 327.4 0 256 0 132.3 100.3 32 224 32S448 132.3 448 256c0 71.4-33.4 135-85.4 176l61.4 0c13.3 0 24 10.7 24 24s-10.7 24-24 24l-88.6 0c-21.8 0-39.4-17.6-39.4-39.4 0-14.6 8-27.2 19.4-34.2 50.8-30.9 84.6-86.7 84.6-150.4 0-97.2-78.8-176-176-176z"/></svg>