<svg xmlns="http://www.w3.org/2000/svg" viewBox="0 0 448 512"><path fill="currentColor" d="M150.6 148.5c-10.9 10.3-22 19.9-32.2 28.6-3.7 3.2-7.2 6.3-10.6 9.2-39.9 34.9-59.8 58.9-59.8 93.7 0 42 18.9 72.6 49.7 94.4 17.7 12.5 39.4 22 63.3 28.1-4.5-5.1-8.8-10.5-12.8-16l-2.9-4.1c-21.7-30.3-33.3-66.7-33.3-104 0-23.1 4.5-46.1 13.2-67.5l25.4-62.3zM245 377c5.7-5.7 10.9-11.9 15.6-18.5l2.9-4.1c15.9-22.2 24.4-48.8 24.4-76.1 0-16.9-3.3-33.7-9.7-49.4L224 95.6 169.7 228.9c-6.4 15.7-9.7 32.5-9.7 49.4 0 27.3 8.5 53.9 24.4 76.1l2.9 4.1c4.7 6.6 9.9 12.7 15.6 18.5l21 21 21-21zm105.3-2.6c30.8-21.8 49.7-52.4 49.7-94.4 0-34.8-19.9-58.7-59.8-93.7-3.4-2.9-6.9-6-10.6-9.2-10.1-8.8-21.3-18.4-32.2-28.6l25.4 62.3c8.7 21.4 13.2 44.4 13.2 67.5 0 37.3-11.7 73.7-33.3 104l-2.9 4.1c-4 5.6-8.2 10.9-12.8 16 24-6.1 45.7-15.6 63.3-28.1zM208.3 0l31.3 0c17.9 0 31.8 14.7 36.3 32 11.8 45.6 47.9 76.8 84 108 44 38 88 76 88 140 0 80.7-51.7 134-120 159.8l0 48.2c0 13.3-10.7 24-24 24s-24-10.7-24-24l0-34.9c-10.5 1.9-21.2 3.3-32 4.1l0 30.8c0 13.3-10.7 24-24 24s-24-10.7-24-24l0-30.8c-10.8-.8-21.5-2.2-32-4.1l0 34.9c0 13.3-10.7 24-24 24s-24-10.7-24-24l0-48.2C51.7 414 0 360.7 0 280 0 216 44 178 88 140 124.1 108.8 160.3 77.6 172 32 176.5 14.7 190.5 0 208.3 0z"/></svg>