<svg xmlns="http://www.w3.org/2000/svg" viewBox="0 0 640 512"><path fill="currentColor" d="M304.5-16c102.9 0 192.4 57.2 238.6 141.5l15.5-15.4c18.7-18.7 49.1-18.7 67.9 0s18.7 49.1 0 67.9L612.3 192c7.8 16.4 12.2 34.7 12.2 54 0 27.3-8.8 53.8-25.2 75.6L528.5 416c-7.6 10.1-19.4 16-32 16s-24.4-5.9-32-16l-70.8-94.4c-16.4-21.8-25.2-48.3-25.2-75.6 0-19.3 4.4-37.6 12.1-54l-14.1-14.1c-18.7-18.7-18.7-49.1 0-67.9s49.1-18.7 67.9 0l17.4 17.4c9.8-3.5 20.2-5.9 31-6.9-40.9-53.8-105.5-88.5-178.3-88.5-123.7 0-224 100.3-224 224l.3 10.7C86.4 376.6 177.2 464 288.5 464l48 0 0-8c0-22.1-17.9-40-40-40l-16 0c-13.3 0-24-10.7-24-24l0-48c0-39.8-32.2-72-72-72-13.3 0-24-10.7-24-24s10.7-24 24-24c66.3 0 120 53.7 120 120l0 24.4c44.9 4 80 41.7 80 87.6l0 8 103.6 0c13.3 0 24 10.7 24 24s-10.7 24-24 24l-199.6 0c-137 0-248.8-107.6-255.7-242.8L32.5 256c0-150.2 121.8-272 272-272zM510.2 194.3c-3.6 3.6-8.5 5.7-13.7 5.7s-10-2-13.7-5.7l-19.7-19.8c-27.4 12.1-46.6 39.5-46.6 71.4 0 16.9 5.5 33.3 15.6 46.8l44.4 59.2 39.9 0 44.4-59.2c10.1-13.5 15.6-29.9 15.6-46.8 0-31.9-19.2-59.3-46.6-71.4l-19.7 19.8zM464.5 260a20 20 0 1 1 0-40 20 20 0 1 1 0 40zm64 0a20 20 0 1 1 0-40 20 20 0 1 1 0 40z"/></svg>