<svg xmlns="http://www.w3.org/2000/svg" viewBox="0 0 448 512"><path fill="currentColor" d="M224-32c-35.3 0-64 28.7-64 64l0 41.3C67.5 100.8 0 186.5 0 288 0 411.7 100.3 512 224 512S448 411.7 448 288c0-101.5-67.5-187.2-160-214.7L288 32c0-35.3-28.7-64-64-64zm16 96.6c-10.5-.7-21.5-.7-32 0L208 32c0-8.8 7.2-16 16-16s16 7.2 16 16l0 32.6zM380.8 368c-29.1 57-88.4 96-156.8 96S96.3 425 67.2 368l313.6 0zm16.3-48L50.9 320C49 309.6 48 298.9 48 288s1-21.6 2.9-32l346.2 0c1.9 10.4 2.9 21.1 2.9 32s-1 21.6-2.9 32zM224 112c68.4 0 127.7 39 156.8 96L67.2 208c29.1-57 88.4-96 156.8-96z"/></svg>