<svg xmlns="http://www.w3.org/2000/svg" viewBox="0 0 448 512"><path fill="currentColor" d="M64 80c-8.8 0-16 7.2-16 16l0 320c0 8.8 7.2 16 16 16l320 0c8.8 0 16-7.2 16-16l0-320c0-8.8-7.2-16-16-16L64 80zM0 96C0 60.7 28.7 32 64 32l320 0c35.3 0 64 28.7 64 64l0 320c0 35.3-28.7 64-64 64L64 480c-35.3 0-64-28.7-64-64L0 96zM80 256c0-61.1 30.8-99.1 49.7-116.6 8.8-8.2 20.7-11.4 32.6-11.4l123.3 0c12 0 23.9 3.3 32.6 11.4 18.9 17.5 49.7 55.5 49.7 116.6s-30.8 99-49.7 116.6c-8.8 8.2-20.7 11.4-32.6 11.4l-123.3 0c-12 0-23.9-3.3-32.6-11.4-18.9-17.5-49.7-55.5-49.7-116.6zm112-56c0-13.3-10.7-24-24-24s-24 10.7-24 24l0 32c0 13.3 10.7 24 24 24s24-10.7 24-24l0-32zm112 0c0-13.3-10.7-24-24-24s-24 10.7-24 24l0 32c0 13.3 10.7 24 24 24s24-10.7 24-24l0-32zM192 320l0 16 64 0 0-16c0-17.7-14.3-32-32-32s-32 14.3-32 32z"/></svg>