<svg xmlns="http://www.w3.org/2000/svg" viewBox="0 0 448 512"><path fill="currentColor" d="M352 48c26.5 0 48 21.5 48 48l0 80-352 0 0-80c0-26.5 21.5-48 48-48l256 0zm48 176l0 224c0 8.8-7.2 16-16 16L64 464c-8.8 0-16-7.2-16-16l0-224 352 0zM96 0C43 0 0 43 0 96L0 448c0 35.3 28.7 64 64 64l320 0c35.3 0 64-28.7 64-64l0-352c0-53-43-96-96-96L96 0zm32 112a24 24 0 1 0 -48 0 24 24 0 1 0 48 0zm56 24a24 24 0 1 0 0-48 24 24 0 1 0 0 48zm104-24a24 24 0 1 0 -48 0 24 24 0 1 0 48 0zm56 24a24 24 0 1 0 0-48 24 24 0 1 0 0 48zM96 296c0 13.3 10.7 24 24 24l208 0c13.3 0 24-10.7 24-24s-10.7-24-24-24l-208 0c-13.3 0-24 10.7-24 24z"/></svg>