<svg xmlns="http://www.w3.org/2000/svg" viewBox="0 0 512 512"><path fill="currentColor" d="M256-16c74.3 0 140.1 36.2 180.8 91.8 12.8-4.1 24.6-11.1 34.2-20.8 9.4-9.4 24.6-9.4 33.9 0 9.4 9.4 9.4 24.6 0 33.9-12.6 12.6-27.6 22.5-43.8 29.1 12.1 27.5 18.9 57.9 18.9 89.9l0 296c0 13.2-10.8 24-24 24l-208 0C128.7 528 32 431.3 32 312l0-104c0-32 6.7-62.4 18.8-89.9-16.2-6.6-31.1-16.5-43.8-29.1-9.4-9.4-9.4-24.6 0-33.9S31.6 45.7 41 55C50.6 64.7 62.4 71.8 75.2 75.9 115.9 20.2 181.7-16 256-16zM80.1 315.4C81.9 406.6 156.4 480 248 480l58.5 0C275.4 449.5 256 407 256 360l0-8-80 0c-36.9 0-70.5-13.9-95.9-36.7zm351.9-.1c-25.5 22.8-59.1 36.7-96 36.7l-32 0 0 8c0 66.3 53.7 120 120 120l8 0 0-164.7zM410.8 128l-58.7 0-7.4 .3C308.3 132 280 162.7 280 200l0 32c0 13.2-10.8 24-24 24s-24-10.8-24-24l0-32c0-37.3-28.3-68-64.7-71.7l-7.3-.3-58.8 0c-.7 0-1.3-.1-2-.1-12.3 24-19.2 51.2-19.2 80.1l.1 4.9C82.7 263.7 124.7 304 176 304l160 0c51.4 0 93.3-40.3 95.9-91.1l.1-4.9c0-28.8-7-56-19.3-80.1-.6 0-1.3 .1-1.9 .1zM160 216a24 24 0 1 1 0-48 24 24 0 1 1 0 48zm192 0a24 24 0 1 1 0-48 24 24 0 1 1 0 48zM256 32c-46.8 0-89.2 18.3-120.8 48l24.8 0 6.2 .1c36.7 1.9 69.1 20.2 89.8 47.8 21.9-29.1 56.8-48 96-48l24.7 0c-31.5-29.7-74-48-120.7-48z"/></svg>