<svg xmlns="http://www.w3.org/2000/svg" viewBox="0 0 384 512"><path fill="currentColor" d="M64 48c-8.8 0-16 7.2-16 16l0 384c0 8.8 7.2 16 16 16l256 0c8.8 0 16-7.2 16-16l0-261.5c0-4.2-1.7-8.3-4.7-11.3L208.8 52.7c-3-3-7.1-4.7-11.3-4.7L64 48zM0 64C0 28.7 28.7 0 64 0L197.5 0c17 0 33.3 6.7 45.3 18.7L365.3 141.3c12 12 18.7 28.3 18.7 45.3L384 448c0 35.3-28.7 64-64 64L64 512c-35.3 0-64-28.7-64-64L0 64zM100.2 307.1l78.7-93c3.3-3.9 8.1-6.1 13.2-6.1s9.9 2.2 13.2 6.1l78.7 93c2.7 3.2 4.2 7.2 4.2 11.3 0 9.7-7.9 17.6-17.6 17.6l-156.9 0c-9.7 0-17.6-7.9-17.6-17.6 0-4.2 1.5-8.2 4.2-11.3z"/></svg>