<svg xmlns="http://www.w3.org/2000/svg" viewBox="0 0 576 512"><path fill="currentColor" d="M41-24.9c-9.4-9.4-24.6-9.4-33.9 0S-2.3-.3 7 9.1l528 528c9.4 9.4 24.6 9.4 33.9 0s9.4-24.6 0-33.9L373.9 308 554.1 127.9c14.1-14 21.9-33.1 21.9-53 0-41.4-33.5-74.9-74.9-74.9-19.9 0-38.9 7.9-53 21.9L268 202.1 41-24.9zM301.9 236L482.1 55.9c5-5 11.9-7.9 19-7.9 14.9 0 26.9 12 26.9 26.9 0 7.1-2.8 14-7.9 19L340 274.1 301.9 236zM264.7 350.5c4.7 10.2 7.3 21.5 7.3 33.5 0 44.2-35.8 80-80 80l-92.1 0c.5-.7 1-1.5 1.5-2.2 11.5-17.5 16.6-39.9 12.2-62-1-5.1-1.6-10.4-1.6-15.8 0-44.2 35.8-80 80-80 12 0 23.3 2.6 33.5 7.3l-53.7-53.7c-61.1 9.7-107.8 62.6-107.8 126.4 0 8.6 .9 17.1 2.5 25.2 3.6 18.1-8.5 38.8-27 38.8L32 448c-17.7 0-32 14.3-32 32s14.3 32 32 32l160 0c63.8 0 116.7-46.7 126.4-107.8l-53.7-53.7z"/></svg>