<svg xmlns="http://www.w3.org/2000/svg" viewBox="0 0 576 512"><path fill="currentColor" d="M482.1 55.9L261.5 276.5c15.2 9.8 28.2 22.8 38.1 38.1L520.1 93.9c5-5 7.9-11.9 7.9-19 0-14.9-12-26.9-26.9-26.9-7.1 0-14 2.8-19 7.9zM212.4 257.6L448.1 21.9c14-14 33.1-21.9 53-21.9 41.4 0 74.9 33.5 74.9 74.9 0 19.9-7.9 38.9-21.9 53L318.4 363.6c1.1 6.7 1.6 13.5 1.6 20.4 0 70.7-57.3 128-128 128L32 512c-17.7 0-32-14.3-32-32s14.3-32 32-32l7.5 0c18.5 0 30.6-20.6 27-38.8-1.6-8.2-2.5-16.6-2.5-25.2 0-70.7 57.3-128 128-128 7 0 13.8 .6 20.4 1.6zM272 384c0-44.2-35.8-80-80-80s-80 35.8-80 80c0 5.5 .5 10.8 1.6 15.8 4.4 22.1-.7 44.5-12.2 62-.5 .7-1 1.5-1.5 2.2l92.1 0c44.2 0 80-35.8 80-80z"/></svg>