<svg xmlns="http://www.w3.org/2000/svg" viewBox="0 0 576 512"><path fill="currentColor" d="M191.1 21.2C177.6 7.6 159.2 0 140 0S102.4 7.6 88.9 21.2L53.2 56.9C39.6 70.4 32 88.8 32 108s7.6 37.6 21.2 51.1l74.5 74.5c15.8-5.6 32.7-8.9 50.4-9.6l4-4-94.9-94.9C82.6 120.6 80 114.4 80 108s2.6-12.6 7.1-17.2l35.7-35.7c4.6-4.6 10.7-7.1 17.2-7.1s12.6 2.6 17.2 7.1l94.9 94.9 33.9-33.9-94.9-94.9zm156 431.9c10.7 10.7 24.1 18.5 38.7 22.6l127.8 35.5c8.3 2.3 17.3 0 23.4-6.2s8.5-15.1 6.2-23.4L507.6 353.8c-4.1-14.6-11.8-27.9-22.6-38.7l-25.2-25.2-33.9 33.9 25.2 25.2c4.9 4.9 8.4 10.9 10.3 17.6l24.1 86.9-86.9-24.1c-6.6-1.8-12.7-5.4-17.6-10.3l-25.2-25.2-4 4c-.6 17.6-3.9 34.5-9.6 50.4l4.8 4.8zM501.1 48c14.9 0 26.9 12 26.9 26.9 0 7.1-2.8 14-7.9 19L285.7 328.3c-9.6-15.4-22.7-28.4-38.1-38.1L482.1 55.9c5-5 11.9-7.9 19-7.9zm-53-26.1L197.3 272.7c-4.4-.5-8.8-.7-13.3-.7-66.3 0-120 53.7-120 120 0 6.2 .5 12.4 1.4 18.4 2.7 17.9-9.3 37.6-27.4 37.6l-6 0c-17.7 0-32 14.3-32 32s14.3 32 32 32l152 0c66.3 0 120-53.7 120-120 0-4.5-.2-9-.7-13.3L554.1 127.9c14.1-14 21.9-33.1 21.9-53 0-41.4-33.5-74.9-74.9-74.9-19.9 0-38.9 7.9-53 21.9zM184 464l-85.6 0 .7-.9c11.6-16.9 17.1-38.6 13.8-60-.5-3.6-.8-7.3-.8-11.1 0-39.8 32.2-72 72-72s72 32.2 72 72-32.2 72-72 72z"/></svg>