<svg xmlns="http://www.w3.org/2000/svg" viewBox="0 0 512 512"><path fill="currentColor" d="M352 48c8.8 0 16 7.2 16 16l0 64c0 8.8-7.2 16-16 16L64 144c-8.8 0-16-7.2-16-16l0-64c0-8.8 7.2-16 16-16l288 0zM64 0C28.7 0 0 28.7 0 64l0 64c0 35.3 28.7 64 64 64l288 0c35.3 0 64-28.7 64-64l0-8 16 0c13.3 0 24 10.7 24 24l0 96c0 13.3-10.7 24-24 24l-160 0c-39.8 0-72 32.2-72 72l0 .7c-22.7 3.8-40 23.6-40 47.3l0 112c0 26.5 21.5 48 48 48l32 0c26.5 0 48-21.5 48-48l0-112c0-23.8-17.3-43.5-40-47.3l0-.7c0-13.3 10.7-24 24-24l160 0c39.8 0 72-32.2 72-72l0-96c0-39.8-32.2-72-72-72l-16 0 0-8c0-35.3-28.7-64-64-64L64 0zM240 384l0 112-32 0 0-112 32 0z"/></svg>