<svg xmlns="http://www.w3.org/2000/svg" viewBox="0 0 576 512"><path fill="currentColor" d="M240 48l0 160-160 0 0-160 160 0zM80 0C53.5 0 32 21.5 32 48l0 160c0 26.5 21.5 48 48 48l160 0c26.5 0 48-21.5 48-48l0-160c0-26.5-21.5-48-48-48L80 0zM24 320c-13.3 0-24 10.7-24 24s10.7 24 24 24l48 0 0 96-48 0c-13.3 0-24 10.7-24 24s10.7 24 24 24l528 0c13.3 0 24-10.7 24-24s-10.7-24-24-24l-48 0 0-96 48 0c13.3 0 24-10.7 24-24s-10.7-24-24-24L24 320zm432 48l0 96-144 0 0-96 144 0zM264 464l-144 0 0-96 144 0 0 96zM400 112l96 0 0 96-96 0 0-96zm-48 0l0 96c0 26.5 21.5 48 48 48l96 0c26.5 0 48-21.5 48-48l0-96c0-26.5-21.5-48-48-48l-96 0c-26.5 0-48 21.5-48 48z"/></svg>