<svg xmlns="http://www.w3.org/2000/svg" viewBox="0 0 576 512"><path fill="currentColor" d="M176 48l0 160 224 0 0-160-224 0zm-48 0c0-26.5 21.5-48 48-48L400 0c26.5 0 48 21.5 48 48l0 160c0 26.5-21.5 48-48 48l-224 0c-26.5 0-48-21.5-48-48l0-160zM0 344c0-13.3 10.7-24 24-24l528 0c13.3 0 24 10.7 24 24s-10.7 24-24 24l-48 0 0 96 48 0c13.3 0 24 10.7 24 24s-10.7 24-24 24L24 512c-13.3 0-24-10.7-24-24s10.7-24 24-24l48 0 0-96-48 0c-13.3 0-24-10.7-24-24zm312 24l0 96 144 0 0-96-144 0zm-48 0l-144 0 0 96 144 0 0-96z"/></svg>