<svg xmlns="http://www.w3.org/2000/svg" viewBox="0 0 576 512"><path fill="currentColor" d="M400 224a176 176 0 1 0 -352 0 176 176 0 1 0 352 0zM364.8 398.3C326.3 429.4 277.3 448 224 448 100.3 448 0 347.7 0 224S100.3 0 224 0 448 100.3 448 224c0 33.4-7.3 65.1-20.4 93.6l123.7 79.9c15.5 11.7 24.7 29.7 24.7 50.5 0 35.3-28.7 64-64 64-15.2 0-28.3-4.6-39.3-13.5L364.8 398.3zM528 448a16 16 0 1 0 -32 0 16 16 0 1 0 32 0zM254.1 115.6c15.2 15.8 44.5 32.9 65.8 38.4 13.7 3.5 26.4 11.6 35.5 23.9 21 28.4 15.1 68.5-13.3 89.5-8.9 6.6-18.9 10.5-29.2 12-18.6 2.6-42.2 16.3-51.6 32.6-22.1 38.3-71 51.4-109.3 29.3s-51.4-71-29.3-109.3c12.4-21.4 19.4-53 21.5-77.6 1.3-14.9 7.8-29.4 19.4-40.5 25.5-24.5 66-23.7 90.5 1.8zM272 224a48 48 0 1 0 -96 0 48 48 0 1 0 96 0z"/></svg>