<svg xmlns="http://www.w3.org/2000/svg" viewBox="0 0 512 512"><path fill="currentColor" d="M256 192c-9.5 0-18.8-.2-27.9-.7-19.2-1-36.1 13.8-36.1 33.1L192 352c0 13.3-10.7 24-24 24s-24-10.7-24-24l0-147.5c0-14.7-10.1-27.3-24.1-32-17.4-5.8-32.3-12.7-43.9-20.4-9.8 8.8-12 17.1-12 23.9 0 10 4.8 23.5 32 36.9L96 265c-9.1-3.4-17.6-7.1-25.4-11.2-5.3 6.7-6.6 12.9-6.6 18.2 0 10 4.8 23.5 32 36.9L96 361c-9.1-3.4-17.6-7.1-25.4-11.2-5.3 6.7-6.6 12.9-6.6 18.2 0 11.1 5.8 26.2 40.9 41 35.1 14.8 87.8 23 151.1 23s116-8.3 151.1-23c35.1-14.8 40.9-29.9 40.9-41 0-5.3-1.3-11.5-6.6-18.2-44 23.4-110.7 34.2-185.4 34.2-5.4 0-10.7-.1-16-.2l0-48c5.3 .1 10.6 .2 16 .2 63.3 0 116-8.3 151.1-23 35.1-14.8 40.9-29.9 40.9-41 0-5.3-1.3-11.5-6.6-18.2-44 23.4-110.7 34.2-185.4 34.2-5.4 0-10.7-.1-16-.2l0-48c5.3 .1 10.6 .2 16 .2 63.3 0 116-8.3 151.1-23 35.1-14.8 40.9-29.9 40.9-41 0-6.8-2.2-15.1-12-23.9-36 23.9-103.1 39.9-180 39.9zm208-80c0 .3 0 .6 0 1 20.4 16.5 32 37.4 32 63 0 18.4-6 34.4-16.9 48 10.9 13.6 16.9 29.6 16.9 48s-6 34.4-16.9 48c10.9 13.6 16.9 29.6 16.9 48 0 77.9-107.5 112-240 112S16 445.9 16 368c0-18.4 6-34.4 16.9-48-10.9-13.6-16.9-29.6-16.9-48s6-34.4 16.9-48c-10.9-13.6-16.9-29.6-16.9-48 0-25.6 11.7-46.5 32-63 0-.3 0-.6 0-1 0-44.2 93.1-80 208-80s208 35.8 208 80zM216 80c-13.3 0-24 10.7-24 24s10.7 24 24 24l80 0c13.3 0 24-10.7 24-24s-10.7-24-24-24l-80 0z"/></svg>