<svg xmlns="http://www.w3.org/2000/svg" viewBox="0 0 576 512"><path fill="currentColor" d="M416 80L96 80c-8.8 0-16 7.2-16 16l0 320c0 8.8 7.2 16 16 16l118 0c4.1 16.8 10.2 32.9 18.1 48L96 480c-35.3 0-64-28.7-64-64L32 96c0-35.3 28.7-64 64-64l320 0c35.3 0 64 28.7 64 64l0 76.2c-12 .3-23.8 3.9-34.1 11-4.6-4.6-9.2-9.1-13.9-13.5L432 96c0-8.8-7.2-16-16-16zm-78.2 79.9c-33 29.5-61.8 62.9-83.7 96.1L160 256c-17.7 0-32-14.3-32-32l0-64c0-17.7 14.3-32 32-32l192 0c11.8 0 22.2 6.4 27.7 16-15 0-30 5.3-41.9 15.9zM160 296a24 24 0 1 1 0 48 24 24 0 1 1 0-48zm281.7-55.9L454 226.3c5.4-6.1 13.3-8.8 20.9-8.9 7.2 0 14.3 2.6 19.9 7.8 19.7 18.3 39.8 43.2 55 70.6 15.1 27.2 26.2 58.1 26.2 88.1 0 88.7-71.3 159.8-160 159.8-89.6 0-160-71.3-160-159.8 0-37.3 16-73.4 36.8-104.5 20.9-31.3 47.5-59 70.9-80.2 5.7-5.2 13.1-7.7 20.3-7.5s13.4 3.2 18.8 7.5c14.4 11.4 38.9 40.7 38.9 40.7zM480 432c0-36.5-37-73-54.8-88.4-5.4-4.7-13.1-4.7-18.5 0-17.7 15.4-54.8 51.9-54.8 88.4 0 35.3 28.7 64 64 64s64-28.7 64-64z"/></svg>