<svg xmlns="http://www.w3.org/2000/svg" viewBox="0 0 448 512"><path fill="currentColor" d="M64 80c-8.8 0-16 7.2-16 16l0 240 48 0c22.1 0 40-17.9 40-40l0-8-8 0c-17.7 0-32-14.3-32-32l0-96c0-17.7 14.3-32 32-32l64 0c17.7 0 32 14.3 32 32l0 96c0 17.7-14.3 32-32 32l-8 0 0 8c0 48.6-39.4 88-88 88l-48 0 0 32c0 8.8 7.2 16 16 16l320 0c8.8 0 16-7.2 16-16l0-320c0-8.8-7.2-16-16-16L64 80zM0 96C0 60.7 28.7 32 64 32l320 0c35.3 0 64 28.7 64 64l0 320c0 35.3-28.7 64-64 64L64 480c-35.3 0-64-28.7-64-64L0 96zM288 288l32 0c17.7 0 32 14.3 32 32l0 32c0 17.7-14.3 32-32 32l-32 0c-17.7 0-32-14.3-32-32l0-32c0-17.7 14.3-32 32-32zM256 152c0-13.3 10.7-24 24-24l48 0c13.3 0 24 10.7 24 24s-10.7 24-24 24l-48 0c-13.3 0-24-10.7-24-24zm0 80c0-13.3 10.7-24 24-24l48 0c13.3 0 24 10.7 24 24s-10.7 24-24 24l-48 0c-13.3 0-24-10.7-24-24z"/></svg>