<svg xmlns="http://www.w3.org/2000/svg" viewBox="0 0 576 512"><path fill="currentColor" d="M48 97.7l0 316.6C74.3 405 165.7 376 288 376s213.7 29 240 38.3l0-316.6C501.7 107 410.3 136 288 136S74.3 107 48 97.7zM516.4 50.9c5-1.9 10.2-2.9 15.7-2.9 24.3 0 43.9 19.7 43.9 43.9l0 328.2c0 24.3-19.7 43.9-43.9 43.9-5.5 0-10.7-1-15.7-2.9-12.9-4.9-103.4-37.1-228.4-37.1S72.5 456.3 59.6 461.1C54.6 463 49.4 464 43.9 464 19.7 464 0 444.3 0 420.1L0 91.9C0 67.7 19.7 48 43.9 48 49.4 48 54.6 49 59.6 50.9 72.5 55.7 163 88 288 88S503.5 55.7 516.4 50.9zM96 192a32 32 0 1 1 64 0 32 32 0 1 1 -64 0zm232.8-22.7c6.3 0 12.3 3 16.1 8.1L450.8 316.5c5.1 6.7 5.5 15.8 1.2 22.9s-12.6 10.9-20.9 9.5c-38.9-6.6-87.8-12.1-143.2-12.1-55.8 0-104.9 5.5-143.9 12.2-8.3 1.4-16.7-2.4-21-9.7s-3.6-16.5 1.6-23.1l59-73.7c3.9-4.8 9.7-7.7 15.9-7.7s12.1 2.8 15.9 7.7L239 272 312.6 177.2c3.9-5 9.9-7.9 16.2-7.9z"/></svg>