<svg xmlns="http://www.w3.org/2000/svg" viewBox="0 0 512 512"><path fill="currentColor" d="M73.7 35.5C79.7 5.6 106-16 136.5-16l239.7 0C406.7-16 433 5.6 439 35.5l79.5 399.7c6.9 34.8-15.8 68.6-50.7 75.3l-95.2 18.3c-34 6.5-67-15.1-74.5-48.9L256.3 293.8 214.7 480c-7.6 33.8-40.6 55.4-74.5 48.9L44.9 510.6C10.1 503.8-12.7 470-5.8 435.2L73.7 35.5zM136.5 32c-7.6 0-14.2 5.4-15.7 12.9l-7 35.1 38.5 0c13.3 0 24 10.7 24 24s-10.7 24-24 24l-48.1 0-62.9 316.6c-1.7 8.7 4 17.2 12.7 18.8l95.2 18.3c8.5 1.6 16.7-3.8 18.6-12.2l65.1-290.8c2.5-11 12.2-18.8 23.4-18.8s21 7.8 23.4 18.8l65.1 290.8c1.9 8.4 10.1 13.8 18.6 12.2l95.2-18.3c8.7-1.7 14.4-10.1 12.7-18.8l-62.9-316.6-48.1 0c-13.3 0-24-10.7-24-24s10.7-24 24-24l38.5 0-7-35.1c-1.5-7.5-8.1-12.9-15.7-12.9L136.5 32z"/></svg>