<svg xmlns="http://www.w3.org/2000/svg" viewBox="0 0 384 512"><path fill="currentColor" d="M16 120C16 53.7 69.7 0 136 0L360 0c13.3 0 24 10.7 24 24s-10.7 24-24 24l-24 0 0 280c0 13.3-10.7 24-24 24s-24-10.7-24-24l0-280-48 0 0 280c0 13.3-10.7 24-24 24s-24-10.7-24-24l0-88-56 0C69.7 240 16 186.3 16 120zm176 72l0-144-56 0c-39.8 0-72 32.2-72 72s32.2 72 72 72l56 0zM113 359c9.4 9.4 9.4 24.6 0 33.9l-31 31 278.1 0c13.3 0 24 10.7 24 24s-10.7 24-24 24l-278.1 0 31 31c9.4 9.4 9.4 24.6 0 33.9s-24.6 9.4-33.9 0L7 465c-9.4-9.4-9.4-24.6 0-33.9l72-72c9.4-9.4 24.6-9.4 33.9 0z"/></svg>