<svg xmlns="http://www.w3.org/2000/svg" viewBox="0 0 384 512"><path fill="currentColor" d="M320 48c8.8 0 16 7.2 16 16l0 384c0 8.8-7.2 16-16 16L64 464c-8.8 0-16-7.2-16-16L48 64c0-8.8 7.2-16 16-16l256 0zM64 0C28.7 0 0 28.7 0 64L0 448c0 35.3 28.7 64 64 64l256 0c35.3 0 64-28.7 64-64l0-384c0-35.3-28.7-64-64-64L64 0zM96 392c0 13.3 10.7 24 24 24l144 0c13.3 0 24-10.7 24-24s-10.7-24-24-24l-144 0c-13.3 0-24 10.7-24 24zM270.4 216c-4.5 22.3-18.4 41.3-37.3 52.7 5.4-15 9.1-33 10.4-52.7l26.9 0zm-156.8 0l26.9 0c1.3 19.7 5 37.7 10.4 52.7-18.9-11.4-32.8-30.3-37.3-52.7zm70.7 49.7c-5.6-12.1-10.1-29.3-11.6-49.7l38.8 0c-1.6 20.4-6 37.6-11.6 49.7-3.2 6.9-5.9 10.6-7.7 12.6-1.8-1.9-4.5-5.6-7.7-12.6zm0-131.4c3.2-6.9 5.9-10.6 7.7-12.6 1.8 1.9 4.5 5.6 7.7 12.6 5.6 12.1 10.1 29.3 11.6 49.7l-38.8 0c1.6-20.4 6-37.6 11.6-49.7zM270.4 184l-26.9 0c-1.3-19.7-5-37.7-10.4-52.7 18.9 11.4 32.8 30.3 37.3 52.7zm-129.9 0l-26.9 0c4.5-22.3 18.4-41.3 37.3-52.7-5.4 15-9.1 33-10.4 52.7zM312 200a120 120 0 1 0 -240 0 120 120 0 1 0 240 0z"/></svg>