<svg xmlns="http://www.w3.org/2000/svg" viewBox="0 0 576 512"><path fill="currentColor" d="M288 224c41.2 0 134.3 28.4 186.7 169 3.7 9.9 5.3 20.4 5.3 31l-.3 5.7C477 456 456 477 429.7 479.7l-5.7 .3-3.4 0-6.2-.3c-4.1-.4-8.2-1.2-12.1-2.3l-5.8-2-72.7-29.1c-22.9-9.2-48.4-9.2-71.3 0l-72.7 29.1-5.8 2c-4 1.2-8 2-12.1 2.3l-6.2 .3-3.4 0-5.7-.3C120 477 99 456 96.3 429.7l-.3-5.7c0-7.9 .9-15.8 2.9-23.4l2.4-7.5C153.7 252.4 246.8 224 288 224zm0 48c-20 0-91.5 14.4-137.4 126.6l-4.3 11.2c-1.4 3.7-2.3 8.5-2.3 14.2 0 4.5 3.6 8.1 8.1 8.1l3.4 0c2.2 0 4.3-.4 6.3-1.2l72.7-29.1 6.5-2.4c32.6-11.3 68.3-10.5 100.5 2.4l72.7 29.1 3.1 .9c1.1 .2 2.1 .3 3.2 .3l3.4 0c4.5 0 8.1-3.6 8.1-8.1 0-4.3-.5-8-1.3-11.2l-.9-3C384.1 287.4 308.6 272 288 272zM48 112c13.3 0 24 10.7 24 24l0 18.7c10.5-1.1 21 .7 30.2 4.5 15.2 6.2 28.8 18 38 33.3 9.2 15.3 13.3 32.7 11.2 49.1-2.1 16.5-10.7 33-27.5 42.2-16.5 9.1-35 7.9-50.2 1.7-13.3-5.4-25.4-15.1-34.3-27.7l-3.7-5.6C29 241 25.1 228.8 24.2 216.7l-.2-5.2 0-75.5c0-13.3 10.7-24 24-24zm480 0c13.3 0 24 10.7 24 24l0 72c0 .3 0 .7-.1 1 .5 14.6-3.6 29.7-11.7 43.2-9.2 15.3-22.8 27-38 33.2-15.2 6.2-33.7 7.4-50.2-1.7-16.7-9.2-25.4-25.7-27.5-42.2-2.1-16.4 2-33.8 11.3-49.1 9.2-15.3 22.8-27 38-33.3 9.2-3.8 19.7-5.6 30.2-4.5l0-18.7c0-13.3 10.7-24 24-24zM76.3 202.5l-1.1 .4c-.6 .3-1.3 .9-1.9 2.1-.3 .6-.7 1.5-.9 2.6l-.4 3.9 .2 3.5c.5 3.7 2 7.9 4.6 12.3l3.4 4.8c3.6 4.3 7.8 7.3 11.6 8.8 5.1 2.1 7.9 1.2 8.9 .7 .8-.4 2.5-1.8 3-6.2 .6-4.5-.4-11.2-4.7-18.2-4.2-7-10-11.6-15.1-13.6-3.8-1.6-6.4-1.4-7.8-1.1zm424.5 .4c-1-.5-3.8-1.4-8.9 .7-5.1 2.1-10.8 6.6-15.1 13.6-4.2 7-5.3 13.7-4.7 18.2 .6 4.4 2.3 5.7 3 6.2 1 .5 3.8 1.4 8.9-.7 5.1-2.1 10.8-6.6 15.1-13.6 4.2-7 5.3-13.7 4.7-18.2-.6-4.4-2.3-5.7-3-6.2zM152-16c13.3 0 24 10.7 24 24l0 22.1c19.9-5.4 39.6 .2 55 10.8 16.1 11.2 28.8 28.6 35.7 49.1s7.1 42.1 .8 60.7c-6.3 18.6-19.7 35.5-40.6 42.4-20.9 6.8-41.8 1.2-57.9-10-14.1-9.8-25.6-24.3-32.8-41.6l-2.8-7.5c-2.7-8.1-4.3-16.3-5-24.4l-.3-8 0-93.6c0-13.3 10.7-24 24-24zm272 0c13.3 0 24 10.7 24 24l0 93.6c0 .1 0 .3 0 .4-.1 10.5-1.8 21.4-5.3 31.9-6.9 20.5-19.6 37.9-35.7 49.1s-37 16.8-57.9 10c-20.9-6.8-34.3-23.8-40.6-42.4-6.2-18.6-6-40.1 .8-60.7S328.9 52.1 345 40.9c15.4-10.6 35.1-16.3 55-10.8l0-22.1 .1-2.5C401.4-6.6 411.6-16 424-16zM188 76.6c-4 1.3-10.2 6.9-11.7 19.3l-.3 5.7 .2 4.1c.3 4.2 1.2 8.6 2.7 13.1l1.6 4.2c4 9.5 9.9 16.5 15.9 20.7 6.8 4.7 12.2 4.9 15.6 3.8 3.3-1.1 7.5-4.4 10.1-12.1 2.6-7.7 3-18.5-.9-30.2s-10.7-20.1-17.5-24.8c-5.1-3.5-9.4-4.5-12.7-4.3l-2.9 .5zm199.9 0c-3.4-1.1-8.8-.9-15.6 3.8s-13.6 13.2-17.5 24.8-3.5 22.4-.9 30.2c2.6 7.7 6.7 11 10.1 12.1 3.4 1.1 8.8 .9 15.6-3.8s13.6-13.2 17.5-24.8 3.5-22.4 .9-30.2c-2.6-7.7-6.7-11-10.1-12.1z"/></svg>