<svg xmlns="http://www.w3.org/2000/svg" viewBox="0 0 576 512"><path fill="currentColor" d="M288 224c41.2 0 134.3 28.4 186.7 169 3.7 9.9 5.3 20.4 5.3 31l-.3 5.7c-2.7 26.4-23.7 47.4-50.1 50.1l-5.7 .3-3.4 0-6.2-.3c-6.2-.6-12.2-2.1-18-4.4l0 0-72.7-29.1 0 0c-22.9-9.1-48.4-9.1-71.3 0l-72.7 29.1c-5.8 2.3-11.8 3.8-18 4.4l-6.2 .3-3.4 0-5.7-.3C120 477 99 456.1 96.3 429.7l-.3-5.7c0-10.5 1.6-21.1 5.3-31 52.4-140.6 145.4-169 186.7-169zm0 48c-20 0-91.5 14.5-137.4 126.6l-4.3 11.2c-1.4 3.7-2.3 8.5-2.3 14.2 0 4.4 3.6 8.1 8.1 8.1l3.4 0c2.2 0 4.3-.4 6.3-1.2l72.7-29.1c34.3-13.7 72.6-13.7 106.9 0l72.7 29.1c2 .8 4.2 1.2 6.3 1.2l3.4 0c4.4 0 8-3.6 8.1-8.1 0-4.3-.5-8-1.3-11.2l-.9-3C384.1 287.4 308.6 272 288 272zM52 160.9c16.5-9.1 35-7.9 50.2-1.8 15.2 6.2 28.8 18 38 33.2s13.3 32.7 11.2 49.1c-2.1 16.5-10.7 33-27.5 42.2-16.5 9.1-35 7.9-50.2 1.8-15.2-6.2-28.8-18-38-33.2s-13.3-32.7-11.2-49.1c2.1-16.5 10.7-33 27.5-42.2zm421.8-1.8c15.2-6.2 33.7-7.4 50.2 1.8 16.7 9.2 25.4 25.7 27.5 42.2 2.1 16.4-2 33.8-11.2 49.1s-22.8 27-38 33.2c-15.2 6.2-33.7 7.4-50.2-1.8-16.7-9.2-25.4-25.7-27.5-42.2-2.1-16.4 2-33.8 11.3-49.1s22.8-27 38-33.2zM84.1 203.6c-5.1-2.1-7.9-1.2-8.9-.7-.8 .4-2.5 1.8-3 6.2-.6 4.5 .4 11.2 4.7 18.3s10 11.6 15.1 13.6c5.1 2.1 7.9 1.2 8.9 .7 .8-.4 2.5-1.8 3-6.2 .6-4.5-.4-11.2-4.7-18.2s-10-11.6-15.1-13.6zm416.7-.7c-1-.5-3.8-1.4-8.9 .7-5.1 2.1-10.8 6.6-15.1 13.6-4.2 7-5.3 13.7-4.7 18.2 .6 4.4 2.3 5.7 3 6.2 1 .5 3.8 1.4 8.9-.7 5.1-2.1 10.8-6.6 15.1-13.6 4.2-7 5.3-13.7 4.7-18.3-.6-4.4-2.3-5.7-3-6.2zM173.1 30.9c20.9-6.8 41.8-1.2 57.9 10s28.8 28.6 35.7 49.1 7.1 42.1 .8 60.7c-6.3 18.6-19.7 35.5-40.6 42.4-20.9 6.8-41.8 1.2-57.9-10s-28.8-28.6-35.7-49.1-7.1-42.1-.8-60.7c6.3-18.6 19.7-35.5 40.6-42.4zM345 40.9c16.1-11.2 37-16.8 57.9-10 20.9 6.8 34.3 23.8 40.6 42.4 6.2 18.6 6 40.1-.8 60.7s-19.6 37.9-35.7 49.1-37 16.8-57.9 10c-20.9-6.8-34.3-23.8-40.6-42.4-6.2-18.5-6-40.1 .8-60.7S328.9 52.1 345 40.9zM188 76.6c-3.3 1.1-7.5 4.4-10.1 12.1-2.6 7.7-3 18.5 .9 30.2s10.7 20.1 17.5 24.8 12.2 4.9 15.6 3.8c3.3-1.1 7.5-4.4 10.1-12.1 2.6-7.7 3-18.5-.9-30.2s-10.7-20.1-17.5-24.8-12.2-4.9-15.6-3.8zm199.9 0c-3.4-1.1-8.8-.9-15.6 3.8s-13.6 13.2-17.5 24.8-3.5 22.4-.9 30.2c2.6 7.7 6.7 11 10.1 12.1 3.4 1.1 8.8 .9 15.6-3.8s13.6-13.2 17.5-24.8c3.9-11.6 3.5-22.4 .9-30.2-2.6-7.7-6.7-11-10.1-12.1z"/></svg>