<svg xmlns="http://www.w3.org/2000/svg" viewBox="0 0 512 512"><path fill="currentColor" d="M96 32c0 34.7 18.4 65.1 46 82-80.5 12.5-142 82.1-142 166 0 136.2 199.3 214.6 240.6 229.4 5 1.8 10.1 2.6 15.4 2.6s10.4-.8 15.4-2.6c41.3-14.8 240.6-93.2 240.6-229.4 0-84-61.6-153.5-142-166 27.6-16.9 46-47.3 46-82l0-8c0-13.3-10.7-24-24-24L352 0c-53 0-96 43-96 96 0-53-43-96-96-96L120 0C106.7 0 96 10.7 96 24l0 8zm72 128c58.1 0 106.6 41.3 117.6 96.2 2.6 13 13.1 23.8 26.4 23.8s24.2-10.8 22.3-23.9c-4.7-32.9-19-62.8-39.9-86.7 4.1-1 8.2-2.1 12.2-3.5 11.7-3.8 24.2-5.9 37.4-5.9 66.3 0 120 53.7 120 120 0 43.4-32.4 84.6-84.3 120.9-49.2 34.4-103.9 55.9-123.7 63-19.8-7.1-74.5-28.6-123.7-63-51.9-36.3-84.3-77.5-84.3-120.9 0-66.3 53.7-120 120-120z"/></svg>