<svg xmlns="http://www.w3.org/2000/svg" viewBox="0 0 512 512"><path fill="currentColor" d="M280.4 85.6C306.7 61.4 341.2 48 376.9 48L424 48c22.1 0 40 17.9 40 40l0 47.1c0 35.8-13.4 70.2-37.6 96.6l-3.2 3.5c-22.2 24.3-52.8 39.3-85.6 42-32.2 2.7-57.8 28.3-60.5 60.5l-.2 2.2c-2.6 31.4-17 60.7-40.2 82l-7.1 6.5c-25.1 23-57.9 35.7-91.9 35.7L88 464c-22.1 0-40-17.9-40-40l0-54c0-35.9 14.3-70.4 39.7-95.8l1.1-1.1c22-22 51-35.4 82-38l3.7-.3c32.2-2.7 57.8-28.3 60.5-60.5 2.7-32.8 17.7-63.4 42-85.6l3.5-3.2zM376.9 0c-47.8 0-93.8 17.9-129 50.2l-3.5 3.2c-33.2 30.4-53.7 72.2-57.4 117-.7 8.9-7.8 15.9-16.7 16.7l-3.7 .3c-42.3 3.5-81.9 21.9-111.9 51.9l-1.1 1.1C19.3 274.7 0 321.4 0 370l0 54c0 48.6 39.4 88 88 88l49.8 0c46 0 90.4-17.3 124.3-48.4l7.1-6.5c32.1-29.5 52-69.9 55.6-113.4l.2-2.2c.7-8.9 7.8-15.9 16.7-16.7 44.8-3.7 86.6-24.2 117-57.4l3.2-3.5c32.3-35.2 50.2-81.2 50.2-129L512 88c0-48.6-39.4-88-88-88L376.9 0zm34.3 136a19.2 19.2 0 1 0 -38.4 0 19.2 19.2 0 1 0 38.4 0zm-64 64a19.2 19.2 0 1 0 -38.4 0 19.2 19.2 0 1 0 38.4 0zm-192 192a19.2 19.2 0 1 0 -38.4 0 19.2 19.2 0 1 0 38.4 0zM200 411.2a19.2 19.2 0 1 0 0-38.4 19.2 19.2 0 1 0 0 38.4zM411.2 200a19.2 19.2 0 1 0 -38.4 0 19.2 19.2 0 1 0 38.4 0zM200 347.2a19.2 19.2 0 1 0 0-38.4 19.2 19.2 0 1 0 0 38.4z"/></svg>