<svg xmlns="http://www.w3.org/2000/svg" viewBox="0 0 576 512"><path fill="currentColor" d="M408.9 48c-35.8 0-70.2 13.4-96.6 37.6l-3.5 3.2c-24.3 22.2-39.3 52.8-42 85.6-2.7 32.2-28.3 57.8-60.5 60.5l-3.7 .3c-31 2.6-60 16-82 38l-1.1 1.1C94.3 299.7 80 334.1 80 370l0 54c0 22.1 17.9 40 40 40l49.8 0c34 0 66.8-12.8 91.9-35.7l7.1-6.5c23.2-21.3 37.6-50.6 40.2-82l.2-2.2c2.7-32.2 28.3-57.8 60.5-60.5 32.8-2.7 63.4-17.7 85.6-42l3.2-3.5c24.2-26.4 37.6-60.8 37.6-96.6L496 88c0-22.1-17.9-40-40-40l-47.1 0zm-129 2.2C315.1 17.9 361.2 0 408.9 0L456 0c48.6 0 88 39.4 88 88l0 47.1c0 47.8-17.9 93.8-50.2 129l-3.2 3.5c-30.4 33.2-72.2 53.7-117 57.4-8.9 .7-15.9 7.8-16.7 16.7l-.2 2.2c-3.6 43.4-23.5 83.9-55.6 113.4l-7.1 6.5C260.2 494.7 215.8 512 169.8 512L120 512c-48.6 0-88-39.4-88-88l0-54c0-48.7 19.3-95.3 53.7-129.7l1.1-1.1c30-30 69.6-48.4 111.9-51.9l3.7-.3c8.9-.7 15.9-7.8 16.7-16.7 3.7-44.8 24.2-86.6 57.4-117l3.5-3.2zM424 116.8a19.2 19.2 0 1 1 0 38.4 19.2 19.2 0 1 1 0-38.4zm-64 64a19.2 19.2 0 1 1 0 38.4 19.2 19.2 0 1 1 0-38.4zm-192 192a19.2 19.2 0 1 1 0 38.4 19.2 19.2 0 1 1 0-38.4zM212.8 392a19.2 19.2 0 1 1 38.4 0 19.2 19.2 0 1 1 -38.4 0zM424 180.8a19.2 19.2 0 1 1 0 38.4 19.2 19.2 0 1 1 0-38.4zM212.8 328a19.2 19.2 0 1 1 38.4 0 19.2 19.2 0 1 1 -38.4 0zm225.9 22.6c2.6-.7 5.2-1.3 7.9-1.7l11.5-1.9c14.8-2.5 28.5-9.5 39.1-20.1l9.7-9.7c5-5 9.2-10.6 12.5-16.7 .8-.8 1.6-1.6 2.5-2.4l4.6-4.6c21.7-21.7 38.4-47.3 49.6-75.2 0 .6 0 1.1 0 1.7l0 46.3c0 31.8-12.6 62.3-35.1 84.9l-9.7 9.7c-17.7 17.7-40.5 29.4-65.1 33.5l-11.5 1.9c-13.5 2.2-24.1 12.8-26.3 26.3l-1.9 11.5c-4.1 24.7-15.8 47.4-33.5 65.1l-9.7 9.7c-22.5 22.5-53 35.1-84.9 35.1l-44.6 0c24.8-10.4 47.7-25.5 67.1-44.9l11.8-11.8c6.1-3.3 11.7-7.4 16.6-12.4l9.7-9.7c10.6-10.6 17.6-24.3 20.1-39.1l1.9-11.5c.1-.8 .3-1.6 .4-2.4 2.2-5.9 4.1-11.8 5.8-17.9 8.6-18.6 23.9-33.2 43-40.8 2.9-.9 5.7-1.9 8.6-2.9z"/></svg>