<svg xmlns="http://www.w3.org/2000/svg" viewBox="0 0 512 512"><path fill="currentColor" d="M505 7c9.4 9.4 9.4 24.6 0 33.9L457.9 88.1c14 20.5 22.1 45.3 22.1 71.9 0 30.7-10.8 58.9-28.9 81-29.9 36.5-61.4 81.8-73.3 127.4-8.3 32-25 62.3-50.1 87.3-75 75-196.5 75-271.5 0s-75-196.5 0-271.5c25.1-25.1 55.3-41.8 87.3-50.1 45.7-11.8 90.9-43.4 127.4-73.3 22.1-18 50.3-28.9 81-28.9 26.7 0 51.4 8.2 71.9 22.1L471 7c9.4-9.4 24.6-9.4 33.9 0zM367 111l22-22c-11.1-5.8-23.7-9.1-37-9.1-19.2 0-36.8 6.7-50.6 18-37.4 30.6-89.4 68-145.8 82.6-23.9 6.2-46.6 18.7-65.5 37.5-56.2 56.2-56.2 147.4 0 203.6s147.4 56.2 203.6 0c18.9-18.9 31.3-41.5 37.5-65.5 14.6-56.3 52-108.4 82.6-145.8 11.3-13.8 18-31.3 18-50.6 0-13.4-3.3-25.9-9.1-37l-22 22c-9.4 9.4-24.6 9.4-33.9 0s-9.4-24.6 0-33.9zM288 312c0 57.4-46.6 104-104 104-13.3 0-24-10.7-24-24s10.7-24 24-24c30.9 0 56-25.1 56-56 0-13.3 10.7-24 24-24s24 10.7 24 24z"/></svg>