<svg xmlns="http://www.w3.org/2000/svg" viewBox="0 0 576 512"><path fill="currentColor" d="M432 0c-1.8 0-3.5 .2-5.2 .6-60.5 5.2-110.8 45.8-130.2 100.9L162.7 34.5c-7.4-3.7-16.3-3.3-23.4 1.1S128 47.7 128 56c0 81 33.4 133.2 67.7 164.8 16.9 15.6 33.8 26 46.6 32.5 6.4 3.3 11.8 5.6 15.7 7.2 2 .8 3.6 1.4 4.7 1.8 .5 .2 1 .3 1.3 .5 2.5 .9 5.1 1.3 7.9 1.3 13.3 0 24-10.7 24-24 0-10.8-7.2-20-17-23l-.4-.1c-.6-.2-1.6-.6-2.9-1.1-2.6-1-6.6-2.8-11.5-5.2-9.8-5-22.9-13.1-35.9-25.1-19.9-18.3-40.3-46.4-48.5-88.8l121.5 60.8c3.6 1.8 7.4 2.6 11.2 2.5l.5 0c12.1 0 22.3-9 23.8-21 6.1-49.1 46.6-87.7 96.6-90.8 .7 0 1.3-.1 2-.2l37.1 0c19.9 0 36.8 14.6 39.6 34.3l9.9 69.2c2.1 14.8-6.2 29.1-20 34.7-13.3 5.3-28.4 1.3-37.3-9.8l-5.9-7.3c-6.4-8-17.1-11-26.7-7.7S416 173.8 416 184l0 55c0 .5 0 1 0 1.5 0 .6 0 1.2 0 1.7 0 23.5-9.6 44.1-24.7 58.8-4.6 4.5-7.3 10.7-7.3 17.2l0 145.8-48 0 0-117.8c0-11.3-7.9-21.1-19-23.5-2.1-.4-4.2-1-6.3-1.6l-88-25.7c-7.3-2.1-15.3-.7-21.3 4s-9.6 11.9-9.4 19.5c0 .4 0 .9 0 1.3 0 8-1.4 16-4.3 23.5L175.6 376c-4.2 11.1-4.7 23.2-1.5 34.6l14.8 53.3-49.8 0-11.2-40.5c-5.9-21.2-4.9-43.7 2.8-64.4l8.2-21.7c4.2-11.2 4.1-23.6-.4-34.7l-21.9-54.6c-3-7.6-4.6-15.7-4.6-23.9 0-15.5 5.5-29.7 14.6-40.8-7.7-14.2-14.5-30.1-19.6-47.6-8.8 6.9-16.5 15-22.9 24.2-46.8 2-84.1 40.6-84.1 87.9l0 64c0 13.3 10.7 24 24 24s24-10.7 24-24l0-64c0-13.2 6.4-25 16.3-32.2-.2 2.8-.3 5.6-.3 8.5 0 14.3 2.7 28.4 8 41.7l21.9 54.6-8.2 21.7c-11.3 30.1-12.7 63.1-4.1 94.1l11.2 40.5c5.8 20.8 24.7 35.2 46.2 35.2l49.8 0c31.7 0 54.7-30.3 46.2-60.8l-14.8-53.3c-.5-1.6-.4-3.4 .2-5l12.1-32.3c1.4-3.7 2.6-7.4 3.6-11.2l51.8 15.1 0 99.5c0 26.5 21.5 48 48 48l48 0c26.5 0 48-21.5 48-48l0-136.2c19.8-22.6 32-52.3 32-85.5l0-1.6 0-.7 0-7.8c17.7 6 37.5 5.8 55.8-1.5 34.4-13.8 55-49.3 49.7-86l-9.9-69.2c-1.6-11.3-5.3-21.9-10.7-31.3 6.7-4.3 11.1-11.7 11.1-20.3 0-13.3-10.7-24-24-24L432 0zm48 96a16 16 0 1 0 -32 0 16 16 0 1 0 32 0z"/></svg>