<svg xmlns="http://www.w3.org/2000/svg" viewBox="0 0 640 512"><path fill="currentColor" d="M569.3 27.1c-9.4-9.4-24.7-9.4-34.1 .1L514.4 48.4 560.1 94.1 581.2 73c9.4-9.4 9.4-24.6 0-33.9L569.3 27.1zM360 204.8c-3.2 3.3-5.5 7.4-6.4 11.9l-10.4 49.7 49.5-10.4c4.6-1 8.7-3.2 12-6.5L526.2 128 480.7 82.5 360 204.8zM501.1-6.5c28.1-28.4 73.9-28.6 102.2-.3L615.2 5.1c28.1 28.1 28.1 73.7 0 101.8L438.7 283.5c-9.9 9.9-22.4 16.7-36.1 19.6L317.1 321c-7.9 1.7-16.2-.8-21.9-6.5s-8.2-14-6.5-21.9l18-85.7c2.8-13.5 9.5-26 19.2-35.8L501.1-6.5zM64.1 168c0-39.8 32.2-72 72-72l128 0c13.3 0 24 10.7 24 24s-10.7 24-24 24l-128 0c-13.3 0-24 10.7-24 24l0 240c0 13.3 10.7 24 24 24l368 0c13.3 0 24-10.7 24-24l0-128c0-13.3 10.7-24 24-24s24 10.7 24 24l0 128c0 39.8-32.2 72-72 72l-368 0c-39.8 0-72-32.2-72-72l0-240zm112 120a32 32 0 1 1 64 0 32 32 0 1 1 -64 0z"/></svg>