<svg xmlns="http://www.w3.org/2000/svg" viewBox="0 0 576 512"><path fill="currentColor" d="M41-24.9c-9.4-9.4-24.6-9.4-33.9 0S-2.3-.3 7 9.1l528 528c9.4 9.4 24.6 9.4 33.9 0s9.4-24.6 0-33.9l-157.6-157.6 32.9-120.5 10.4-10.4 71-71c21.9-21.9 21.9-57.3 0-79.2L479.6 18.3c-21.9-21.9-57.3-21.9-79.2 0L329.4 89.4 319 99.8 198.5 132.6 41-24.9zM237.6 171.7l91.3-24.9 68.3 68.3-24.9 91.3-134.7-134.7zm73.9 209.5L125.8 446.5 223.3 349c5.2 1.9 10.8 3 16.7 3 11.8 0 22.6-4.2 30.9-11.3l-67.6-67.6c-7 8.3-11.3 19.1-11.3 30.9 0 5.9 1.1 11.5 3 16.7L97.5 418.2 162.7 232.6 125.1 194.9 39 440c-6.5 18.5-1.8 39.1 12 52.9s34.4 18.5 52.9 12l245.1-86.1-37.6-37.7z"/></svg>