<svg xmlns="http://www.w3.org/2000/svg" viewBox="0 0 512 512"><path fill="currentColor" d="M58.9 315.1c-10.7 10.7-18.5 24.1-22.6 38.7L.9 481.6c-2.3 8.3 0 17.3 6.2 23.4s15.1 8.5 23.4 6.2l127.8-35.5c14.6-4.1 27.9-11.8 38.7-22.6l294-294C504.4 145.6 512 127.2 512 108s-7.6-37.6-21.2-51.1L455.1 21.2C441.6 7.6 423.2 0 404 0s-37.6 7.6-51.1 21.2L300 74.1 282.9 57c-28.1-28.1-73.7-28.1-101.8 0L71 167c-9.4 9.4-9.4 24.6 0 33.9s24.6 9.4 33.9 0L215 90.9c9.4-9.4 24.6-9.4 33.9 0L266.1 108 58.9 315.1zM300 141.9L370.1 212 162.9 419.1c-4.9 4.9-10.9 8.4-17.6 10.3l-86.9 24.1 24.1-86.9c1.8-6.6 5.4-12.7 10.3-17.6L300 141.9zM404 48c6.4 0 12.6 2.6 17.2 7.1l35.7 35.7c4.6 4.6 7.1 10.7 7.1 17.2s-2.6 12.6-7.1 17.2L404 178.1 333.9 108 386.8 55.1c4.6-4.6 10.7-7.1 17.2-7.1z"/></svg>