<svg xmlns="http://www.w3.org/2000/svg" viewBox="0 0 576 512"><path fill="currentColor" d="M41-24.9c-9.4-9.4-24.6-9.4-33.9 0S-2.3-.3 7 9.1l528 528c9.4 9.4 24.6 9.4 33.9 0s9.4-24.6 0-33.9l-209.2-209.2 157-146.2C534.2 131.6 544 109 544 85.3 544 38.2 505.8 0 458.7 0 435 0 412.4 9.8 396.2 27.2L250.1 184.2 41-24.9zm243 243L431.4 59.9c7.1-7.6 17-11.9 27.3-11.9 20.6 0 37.3 16.7 37.3 37.3 0 10.4-4.3 20.3-11.9 27.3L325.8 260 284 218.2zM261.8 331.6l-21.2 69c-2.3 7.6-8.3 13.5-15.9 15.9l-99.5 30.6 47.6-47.6c11-2.2 19.2-11.9 19.2-23.5 0-13.3-10.7-24-24-24-11.6 0-21.3 8.3-23.5 19.2l-47.6 47.6 30.6-99.5c2.3-7.6 8.3-13.5 15.9-15.9l69-21.2-38.4-38.4-44.8 13.8c-22.8 7-40.6 24.9-47.6 47.6L33.9 460.1c-9.4 30.7 19.3 59.4 50 50l154.8-47.6c22.8-7 40.6-24.9 47.6-47.6l13.8-44.8-38.4-38.4z"/></svg>