<svg xmlns="http://www.w3.org/2000/svg" viewBox="0 0 512 512"><path fill="currentColor" d="M426.7 48c20.6 0 37.3 16.7 37.3 37.3 0 10.4-4.3 20.2-11.9 27.3l-195.5 182-39.2-39.2 182-195.5c7.1-7.6 17-11.9 27.3-11.9zM228.8 334.8l-20.3 65.9c-2.3 7.6-8.3 13.5-15.9 15.9l-99.5 30.6 47.6-47.6c11-2.2 19.2-11.9 19.2-23.5 0-13.3-10.7-24-24-24-11.6 0-21.3 8.3-23.5 19.2l-47.6 47.6 30.6-99.5c2.3-7.6 8.3-13.5 15.9-15.9l65.9-20.3 51.6 51.6zM364.2 27.2L170.8 234.9 97.2 257.6c-22.8 7-40.6 24.9-47.6 47.6L1.9 460.1c-9.4 30.7 19.3 59.4 50 50l154.8-47.6c22.8-7 40.6-24.9 47.6-47.6l22.6-73.6 207.8-193.4C502.2 131.6 512 109 512 85.3 512 38.2 473.8 0 426.7 0 403 0 380.4 9.8 364.2 27.2z"/></svg>