<svg xmlns="http://www.w3.org/2000/svg" viewBox="0 0 576 512"><path fill="currentColor" d="M41-24.9c-9.4-9.4-24.6-9.4-33.9 0S-2.3-.3 7 9.1l528 528c9.4 9.4 24.6 9.4 33.9 0s9.4-24.6 0-33.9L373.9 308 522.8 159.1C536.4 145.6 544 127.2 544 108s-7.6-37.6-21.2-51.1L487.1 21.2C473.6 7.6 455.2 0 436 0s-37.6 7.6-51.1 21.2L332 74.1 314.9 57c-28.1-28.1-73.7-28.1-101.8 0L168 102.1 41-24.9zM201.9 136L247 90.9c9.4-9.4 24.6-9.4 33.9 0L298.1 108 236 170.1 201.9 136zm68 68L332 141.9 402.1 212 340 274.1 269.9 204zm36.2 171.8l-33.9-33.9-77.2 77.2c-4.9 4.9-10.9 8.4-17.6 10.3l-86.9 24.1 24.1-86.9c1.8-6.6 5.4-12.7 10.3-17.6l77.2-77.2-33.9-33.9-77.2 77.2c-10.7 10.7-18.5 24.1-22.6 38.7L32.9 481.6c-2.3 8.3 0 17.3 6.2 23.4s15.1 8.5 23.4 6.2l127.8-35.5c14.6-4.1 27.9-11.8 38.7-22.6l77.2-77.2zM418.8 55.1c4.6-4.6 10.7-7.1 17.2-7.1s12.6 2.6 17.2 7.1l35.7 35.7c4.6 4.6 7.1 10.7 7.1 17.2s-2.6 12.6-7.1 17.2L436 178.1 365.9 108 418.8 55.1z"/></svg>