<svg xmlns="http://www.w3.org/2000/svg" viewBox="0 0 576 512"><path fill="currentColor" d="M116.1 222.1l33.9-33.9-94.2-94.2c-5-5-7.9-11.9-7.9-19 0-14.9 12-26.9 26.9-26.9 7.1 0 14 2.8 19 7.9l94.2 94.2 33.9-33.9-94.2-94.2C113.8 7.9 94.8 0 74.9 0 33.5 0 0 33.5 0 74.9 0 94.8 7.9 113.8 21.9 127.9l94.2 94.2zM291.8 458c21.5 32.5 58.3 54 100.2 54l152 0c17.7 0 32-14.3 32-32s-14.3-32-32-32l-6 0c-18.1 0-30.1-19.8-27.4-37.6 .9-6 1.4-12.1 1.4-18.4 0-41.9-21.5-78.7-54-100.2l-35.2 35.2c24.3 11.6 41.1 36.3 41.1 65.1 0 3.8-.3 7.5-.8 11.1-3.3 21.4 2.2 43.1 13.8 60l.7 .9-85.6 0c-28.7 0-53.5-16.8-65.1-41.1L291.8 458zM90.9 315.1c-10.7 10.7-18.5 24.1-22.6 38.7L32.9 481.6c-2.3 8.3 0 17.3 6.2 23.4s15.1 8.5 23.4 6.2l127.8-35.5c14.6-4.1 27.9-11.8 38.7-22.6l294-294C536.4 145.6 544 127.2 544 108s-7.6-37.6-21.2-51.1L487.1 21.2C473.6 7.6 455.2 0 436 0s-37.6 7.6-51.1 21.2l-294 294zM436 48c6.4 0 12.6 2.6 17.2 7.1l35.7 35.7c4.6 4.6 7.1 10.7 7.1 17.2s-2.6 12.6-7.1 17.2L436 178.1 365.9 108 418.8 55.1c4.6-4.6 10.7-7.1 17.2-7.1zM124.9 349.1L332 141.9 402.1 212 194.9 419.1c-4.9 4.9-10.9 8.4-17.6 10.3l-86.9 24.1 24.1-86.9c1.8-6.6 5.4-12.7 10.3-17.6z"/></svg>