<svg xmlns="http://www.w3.org/2000/svg" viewBox="0 0 576 512"><path fill="currentColor" d="M216 24a56 56 0 1 0 -112 0 56 56 0 1 0 112 0zm256 0a56 56 0 1 0 -112 0 56 56 0 1 0 112 0zM456 336l-99.5 0 59.5-163.5 59.5 163.5-19.5 0zm24 48l41.2 0c11.1 0 18.8-11 15-21.5l-35.9-98.9 23.5 37.2c7.1 11.2 21.9 14.6 33.1 7.5s14.6-21.9 7.5-33.1L485.4 150.2c-15-23.8-41.2-38.2-69.4-38.2s-54.3 14.4-69.4 38.2l-56.3 89.2-34.8-68.7c-18.2-36-55.2-58.7-95.6-58.7s-77.3 22.7-95.6 58.7L10.6 277.2c-6 11.8-1.2 26.3 10.6 32.2s26.3 1.2 32.3-10.6L80 246.3 80 520c0 13.3 10.7 24 24 24s24-10.7 24-24l0-152 64 0 0 152c0 13.3 10.7 24 24 24s24-10.7 24-24l0-273.7 26.6 52.5c3.9 7.7 11.6 12.7 20.3 13.1s16.8-3.9 21.4-11.2l23.5-37.2-36 98.9c-3.8 10.4 3.9 21.5 15 21.5l41.1 0 0 136c0 13.3 10.7 24 24 24s24-10.7 24-24l0-136 32 0 0 136c0 13.3 10.7 24 24 24s24-10.7 24-24l0-136zM192 169.4l0 150.6-64 0 0-150.6c9.4-6 20.4-9.4 32-9.4s22.6 3.4 32 9.4z"/></svg>