<svg xmlns="http://www.w3.org/2000/svg" viewBox="0 0 576 512"><path fill="currentColor" d="M288 0a64 64 0 1 1 0 128 64 64 0 1 1 0-128zM72 88A56 56 0 1 1 184 88 56 56 0 1 1 72 88zm63.1 152.6c-31.2 4.3-55.1 31.1-55.1 63.4 0 19.9 9 37.6 23.3 49.4 5.5 4.6 8.7 11.3 8.7 18.5l0 44.1-48 0 0-33.6c-19.8-20.2-32-47.9-32-78.4 0-61.9 50.1-112 112-112 5.2 0 10.2 .3 15.2 1-10.5 14.2-18.7 30.3-24.1 47.6zM368 382.4l0 33.6-48 0 0-44.1c0-7.2 3.2-13.9 8.7-18.5 14.3-11.8 23.3-29.5 23.3-49.4l0-16c0-35.3-28.7-64-64-64s-64 28.7-64 64l0 16c0 19.9 9 37.6 23.3 49.4 5.5 4.6 8.7 11.3 8.7 18.5l0 44.1-48 0 0-33.6c-19.8-20.2-32-47.9-32-78.4l0-16c0-61.9 50.1-112 112-112s112 50.1 112 112l0 16c0 30.5-12.2 58.2-32 78.4zM464 416l0-44.1c0-7.2 3.2-13.9 8.7-18.5 14.3-11.8 23.3-29.5 23.3-49.4 0-32.3-24-59.1-55.1-63.4-5.4-17.3-13.6-33.3-24.1-47.6 5-.7 10.1-1 15.2-1 61.9 0 112 50.1 112 112 0 30.5-12.2 58.2-32 78.4l0 33.6-48 0zM504 88a56 56 0 1 1 -112 0 56 56 0 1 1 112 0zM24 464l528 0c13.3 0 24 10.7 24 24s-10.7 24-24 24L24 512c-13.3 0-24-10.7-24-24s10.7-24 24-24z"/></svg>