<svg xmlns="http://www.w3.org/2000/svg" viewBox="0 0 512 512"><path fill="currentColor" d="M256 0a64 64 0 1 1 0 128 64 64 0 1 1 0-128zM40 88A56 56 0 1 1 152 88 56 56 0 1 1 40 88zm63.1 152.6c-31.2 4.3-55.1 31.1-55.1 63.4 0 19.9 9 37.6 23.3 49.4 5.5 4.6 8.7 11.3 8.7 18.5L80 456c0 13.3-10.7 24-24 24s-24-10.7-24-24l0-73.6c-19.8-20.2-32-47.9-32-78.4 0-61.9 50.1-112 112-112 5.2 0 10.2 .3 15.2 1-10.5 14.2-18.7 30.3-24.1 47.6zm305.7 0c-5.4-17.3-13.6-33.3-24.1-47.6 5-.7 10.1-1 15.2-1 61.9 0 112 50.1 112 112 0 30.5-12.2 58.2-32 78.4l0 73.6c0 13.3-10.7 24-24 24s-24-10.7-24-24l0-84.1c0-7.2 3.2-13.9 8.7-18.5 14.3-11.8 23.3-29.5 23.3-49.4 0-32.3-24-59.1-55.1-63.4zM472 88a56 56 0 1 1 -112 0 56 56 0 1 1 112 0zM256 224c-35.3 0-64 28.7-64 64l0 16c0 19.9 9 37.6 23.3 49.4 5.5 4.6 8.7 11.3 8.7 18.5l0 84.1c0 4.4 3.6 8 8 8l48 0c4.4 0 8-3.6 8-8l0-84.1c0-7.2 3.2-13.9 8.7-18.5 14.3-11.8 23.3-29.5 23.3-49.4l0-16c0-35.3-28.7-64-64-64zM144 288c0-61.9 50.1-112 112-112s112 50.1 112 112l0 16c0 30.5-12.2 58.2-32 78.4l0 73.6c0 30.9-25.1 56-56 56l-48 0c-30.9 0-56-25.1-56-56l0-73.6c-19.8-20.2-32-47.9-32-78.4l0-16z"/></svg>