<svg xmlns="http://www.w3.org/2000/svg" viewBox="0 0 576 512"><path fill="currentColor" d="M104 24a56 56 0 1 1 112 0 56 56 0 1 1 -112 0zM80 237L45 299.7c-6.5 11.6-21.1 15.7-32.7 9.2s-15.7-21.1-9.2-32.7L63.6 167.9c19.3-34.5 55.7-55.9 95.2-55.9 41.1 0 78.7 23.1 97.3 59.8l33 65.1 38.6-69.1c19.3-34.5 55.7-55.9 95.2-55.9 41.1 0 78.7 23.1 97.3 59.8l53.3 105.4c6 11.8 1.3 26.3-10.6 32.3s-26.3 1.3-32.2-10.6L504 246.3 504 520c0 13.3-10.7 24-24 24s-24-10.7-24-24l0-152-64 0 0 152c0 13.3-10.7 24-24 24s-24-10.7-24-24l0-283-35 62.7c-4.3 7.7-12.6 12.5-21.4 12.3s-16.9-5.2-20.9-13.2L240 246.3 240 520c0 13.3-10.7 24-24 24s-24-10.7-24-24l0-152-64 0 0 152c0 13.3-10.7 24-24 24s-24-10.7-24-24l0-283zm112-67.2c-9.7-6.3-21.2-9.8-33.2-9.8-11 0-21.6 3-30.8 8.4l0 151.6 64 0 0-150.2zm200-1.5l0 151.6 64 0 0-150.2c-9.7-6.3-21.2-9.8-33.2-9.8-11 0-21.6 3-30.8 8.4zM368 24a56 56 0 1 1 112 0 56 56 0 1 1 -112 0z"/></svg>