<svg xmlns="http://www.w3.org/2000/svg" viewBox="0 0 576 512"><path fill="currentColor" d="M160.5-32a56 56 0 1 1 0 112 56 56 0 1 1 0-112zm63.9 368L176 171.5c-2-6.7-8.3-11.5-15.5-11.5S147 164.8 145 171.5L96.7 336 224.4 336zm43.6-35.6l-7.5-11.9 22.1 75c3 10.2-4.7 20.5-15.3 20.5l-42.6 0 0 136c0 13.3-10.7 24-24 24s-24-10.7-24-24l0-136-32 0 0 136c0 13.3-10.7 24-24 24s-24-10.7-24-24l0-136-42.6 0c-10.7 0-18.4-10.3-15.3-20.5l27.6-93.8-21.8 31.9c-7.5 10.9-22.4 13.7-33.4 6.3s-13.7-22.4-6.3-33.4L92 146.8C106.9 125 131.6 112 158 112l3.6 0c27.4 0 53 14.1 67.6 37.3l59.2 93.8 59.2-93.8c14.7-23.2 40.2-37.3 67.6-37.3l3.6 0c26.4 0 51.1 13 66 34.8l87.3 127.6c7.5 10.9 4.7 25.9-6.3 33.4s-25.9 4.7-33.4-6.3l-21.8-31.9 27.6 93.8c3 10.2-4.7 20.5-15.4 20.5l-42.6 0 0 136c0 13.3-10.7 24-24 24s-24-10.7-24-24l0-136-32 0 0 136c0 13.3-10.7 24-24 24s-24-10.7-24-24l0-136-42.6 0c-10.7 0-18.4-10.3-15.3-20.5l22.1-75-7.5 11.9c-1 1.6-2.2 3.2-3.6 4.6-2 2-4.4 3.7-7 4.8-6.5 3-13.8 2.8-20 0-2.6-1.2-4.9-2.8-7-4.8-1.4-1.4-2.6-2.9-3.6-4.6zM416.5 160c-7.2 0-13.5 4.8-15.5 11.5L352.7 336 480.3 336 432 171.5c-2-6.7-8.3-11.5-15.5-11.5zm0-192a56 56 0 1 1 0 112 56 56 0 1 1 0-112z"/></svg>