<svg xmlns="http://www.w3.org/2000/svg" viewBox="0 0 448 512"><path fill="currentColor" d="M160 64A64 64 0 1 0 32 64 64 64 0 1 0 160 64zM64 208l64 0c8.8 0 16 7.2 16 16l0 64c0 8.8-7.2 16-16 16l-64 0c-8.8 0-16-7.2-16-16l0-64c0-8.8 7.2-16 16-16zm0-48c-35.3 0-64 28.7-64 64l0 64c0 23.7 12.9 44.4 32 55.4L32 488c0 13.3 10.7 24 24 24s24-10.7 24-24l0-136 32 0 0 136c0 13.3 10.7 24 24 24s24-10.7 24-24l0-144.6c19.1-11.1 32-31.7 32-55.4l0-64c0-35.3-28.7-64-64-64l-64 0zM416 64a64 64 0 1 0 -128 0 64 64 0 1 0 128 0zM320 208l64 0c8.8 0 16 7.2 16 16l0 64c0 8.8-7.2 16-16 16l-64 0c-8.8 0-16-7.2-16-16l0-64c0-8.8 7.2-16 16-16zm0-48c-35.3 0-64 28.7-64 64l0 64c0 23.7 12.9 44.4 32 55.4L288 488c0 13.3 10.7 24 24 24s24-10.7 24-24l0-136 32 0 0 136c0 13.3 10.7 24 24 24s24-10.7 24-24l0-144.6c19.1-11.1 32-31.7 32-55.4l0-64c0-35.3-28.7-64-64-64l-64 0z"/></svg>