<svg xmlns="http://www.w3.org/2000/svg" viewBox="0 0 512 512"><path fill="currentColor" d="M192.1 64a64 64 0 1 0 -128 0 64 64 0 1 0 128 0zm-96 144l64 0c8.8 0 16 7.2 16 16l0 64c0 8.8-7.2 16-16 16l-64 0c-8.8 0-16-7.2-16-16l0-64c0-8.8 7.2-16 16-16zm0-48c-35.3 0-64 28.7-64 64l0 64c0 23.7 12.9 44.4 32 55.4l0 144.6c0 13.3 10.7 24 24 24s24-10.7 24-24l0-136 32 0 0 136c0 13.3 10.7 24 24 24s24-10.7 24-24l0-144.6c19.1-11.1 32-31.7 32-55.4l0-64c0-35.3-28.7-64-64-64l-64 0zm352-96a64 64 0 1 0 -128 0 64 64 0 1 0 128 0zm.4 272l-128.7 0 28.9-101.3c4.5-15.8 19-26.7 35.4-26.7s30.9 10.9 35.4 26.7L448.5 336zM384.1 160c-37.9 0-71.2 25.1-81.6 61.5L267.8 343.2c-5.8 20.4 9.5 40.8 30.8 40.8l21.6 0 0 104c0 13.3 10.7 24 24 24s24-10.7 24-24l0-104 32 0 0 104c0 13.3 10.7 24 24 24s24-10.7 24-24l0-104 21.6 0c21.3 0 36.6-20.3 30.8-40.8L465.7 221.5C455.3 185.1 422 160 384.1 160z"/></svg>