<svg xmlns="http://www.w3.org/2000/svg" viewBox="0 0 512 512"><path fill="currentColor" d="M32 64A64 64 0 1 1 160 64 64 64 0 1 1 32 64zM64 208c-8.8 0-16 7.2-16 16l0 64c0 8.8 7.2 16 16 16l26.2 0 69.8 69.8 0 114.2c0 13.3-10.7 24-24 24s-24-10.7-24-24l0-136-32 0 0 136c0 13.3-10.7 24-24 24s-24-10.7-24-24l0-144.6C12.9 332.4 0 311.7 0 288l0-64c0-35.3 28.7-64 64-64l64 0c3.2 0 6.4 .2 9.5 .7L90.2 208 64 208zM352 488l0-114.2 69.8-69.8 26.2 0c8.8 0 16-7.2 16-16l0-64c0-8.8-7.2-16-16-16l-26.2 0-47.3-47.3c3.1-.5 6.3-.7 9.5-.7l64 0c35.3 0 64 28.7 64 64l0 64c0 23.7-12.9 44.4-32 55.4L480 488c0 13.3-10.7 24-24 24s-24-10.7-24-24l0-136-32 0 0 136c0 13.3-10.7 24-24 24s-24-10.7-24-24zm0-424a64 64 0 1 1 128 0 64 64 0 1 1 -128 0zM295 183c9.4-9.4 24.6-9.4 33.9 0l56 56c9.4 9.4 9.4 24.6 0 33.9l-56 56c-9.4 9.4-24.6 9.4-33.9 0s-9.4-24.6 0-33.9l15-15-108.1 0 15 15c9.4 9.4 9.4 24.6 0 33.9s-24.6 9.4-33.9 0l-56-56c-9.4-9.4-9.4-24.6 0-33.9l56-56c9.4-9.4 24.6-9.4 33.9 0s9.4 24.6 0 33.9l-15 15 108.1 0-15-15c-9.4-9.4-9.4-24.6 0-33.9z"/></svg>