<svg xmlns="http://www.w3.org/2000/svg" viewBox="0 0 576 512"><path fill="currentColor" d="M298.7 10.5c-6.8-3.4-14.7-3.4-21.5 0l-256 128c-11.9 5.9-16.7 20.3-10.7 32.2s20.3 16.7 32.2 10.7L288 58.8 533.3 181.5c11.9 5.9 26.3 1.1 32.2-10.7s1.1-26.3-10.7-32.2l-256-128zM288 272a56 56 0 1 0 0-112 56 56 0 1 0 0 112zm0 48c-61.9 0-112 50.1-112 112l0 24c0 13.3 10.7 24 24 24s24-10.7 24-24l0-24c0-35.3 28.7-64 64-64s64 28.7 64 64l0 24c0 13.3 10.7 24 24 24s24-10.7 24-24l0-24c0-61.9-50.1-112-112-112zM160 256a48 48 0 1 0 -96 0 48 48 0 1 0 96 0zm352 0a48 48 0 1 0 -96 0 48 48 0 1 0 96 0zM124 336c-50.8 0-92 41.2-92 92l0 28c0 13.3 10.7 24 24 24s24-10.7 24-24l0-28c0-24.3 19.7-44 44-44 3.8 0 7.4 .5 10.9 1.4 4.8-15.7 11.9-30.4 21-43.7-9.9-3.7-20.7-5.7-31.9-5.7zm317.1 49.4c3.5-.9 7.1-1.4 10.9-1.4 24.3 0 44 19.7 44 44l0 28c0 13.3 10.7 24 24 24s24-10.7 24-24l0-28c0-50.8-41.2-92-92-92-11.2 0-22 2-31.9 5.7 9.1 13.3 16.2 28 21 43.7z"/></svg>