<svg xmlns="http://www.w3.org/2000/svg" viewBox="0 0 512 512"><path fill="currentColor" d="M192.1 64a64 64 0 1 0 -128 0 64 64 0 1 0 128 0zm.4 272L63.7 336 92.7 234.7c4.5-15.8 19-26.7 35.4-26.7s30.9 10.9 35.4 26.7L192.5 336zM128.1 160c-37.9 0-71.2 25.1-81.6 61.5L11.8 343.2C5.9 363.7 21.3 384 42.5 384l21.6 0 0 104c0 13.3 10.7 24 24 24s24-10.7 24-24l0-104 32 0 0 104c0 13.3 10.7 24 24 24s24-10.7 24-24l0-104 21.6 0c21.3 0 36.6-20.3 30.8-40.8L209.7 221.5C199.3 185.1 166 160 128.1 160zm320-96a64 64 0 1 0 -128 0 64 64 0 1 0 128 0zm.4 272l-128.7 0 28.9-101.3c4.5-15.8 19-26.7 35.4-26.7s30.9 10.9 35.4 26.7L448.5 336zM384.1 160c-37.9 0-71.2 25.1-81.6 61.5L267.8 343.2c-5.8 20.4 9.5 40.8 30.8 40.8l21.6 0 0 104c0 13.3 10.7 24 24 24s24-10.7 24-24l0-104 32 0 0 104c0 13.3 10.7 24 24 24s24-10.7 24-24l0-104 21.6 0c21.3 0 36.6-20.3 30.8-40.8L465.7 221.5C455.3 185.1 422 160 384.1 160z"/></svg>