<svg xmlns="http://www.w3.org/2000/svg" viewBox="0 0 576 512"><path fill="currentColor" d="M64-32A56 56 0 1 1 64 80 56 56 0 1 1 64-32zM0 176.4c0-35.6 28.8-64.4 64.4-64.4 23.3 0 44.7 12.5 56.1 32.8l42.1 74.8c6.2 11 17.1 18.3 29.4 20L192 128c0-17.7 14.3-32 32-32l128 0c17.7 0 32 14.3 32 32l0 111.6c12.3-1.7 23.2-9 29.4-20l42.1-74.8c11.4-20.3 32.9-32.8 56.1-32.8 35.6 0 64.4 28.8 64.4 64.4l0 95.6c0 27.7-13 53.8-35.2 70.4L464 400c-10.1 7.6-16 19.4-16 32l0 88c0 13.3-10.7 24-24 24s-24-10.7-24-24l0-88c0-27.7 13-53.8 35.2-70.4l12.8-9.6 0-97.9c-16.5 21.2-42.1 33.9-69.4 33.9l-181.1 0c-27.4 0-52.9-12.7-69.4-33.9l0 97.9 12.8 9.6C163 378.2 176 404.3 176 432l0 88c0 13.3-10.7 24-24 24s-24-10.7-24-24l0-88c0-12.6-5.9-24.4-16-32L35.2 342.4C13 325.8 0 299.7 0 272l0-95.6zM0 369.6c3.5 3.5 7.2 6.8 11 9.9L48 409 48 520c0 13.3-10.7 24-24 24S0 533.3 0 520L0 369.6zM64 160c-8.8 0-16 7.2-16 16l0 95.4c0 10.6 4.2 20.8 11.7 28.3L80 320 80 176c0-8.8-7.2-16-16-16zm176-16l0 96 96 0 0-96-96 0zM568 24a56 56 0 1 1 -112 0 56 56 0 1 1 112 0zm8 496c0 13.3-10.7 24-24 24s-24-10.7-24-24l0-111 37-29.6c3.9-3.1 7.6-6.4 11-9.9L576 520zM496 176l0 144 20.3-20.3c7.5-7.5 11.7-17.7 11.7-28.3l0-95.4c0-8.8-7.2-16-16-16s-16 7.2-16 16z"/></svg>