<svg xmlns="http://www.w3.org/2000/svg" viewBox="0 0 512 512"><path fill="currentColor" d="M280 64c0-22.1 17.9-40 40-40 13.3 0 24-10.7 24-24s-10.7-24-24-24c-48.6 0-88 39.4-88 88l0 3c-14-3.6-29-4.1-44.1-.9-8.1 1.7-15.8 4.5-23 8.1-20.5-9.8-44.4-13-68.3-7.5-56 12.9-90.9 68.8-78 124.7l48 208c12.9 56 68.8 90.9 124.7 78 7.6-1.8 14.8-4.3 21.6-7.5 18.8 9.5 40.9 12.8 63.2 8.1 6.7-1.4 13-3.5 19.1-6.2 4.4 1.9 9 3.5 13.8 4.8 55.5 14.9 112.5-17.9 127.5-73.4l56-208c14.9-55.5-17.9-112.5-73.4-127.5-25-6.7-50.3-3.7-71.9 6.6-7.3-3.7-15.2-6.4-23.5-8.2-14.9-3.1-29.8-2.6-43.6 1l0-3zm80.3 57.8c13.1-9 29.8-12.3 46.3-7.9 29.9 8 47.6 38.8 39.5 68.6l-56 208c-8 29.9-38.8 47.6-68.6 39.5-5.2-1.4-9.9-3.4-14.3-6-7.8-4.7-17.6-4.5-25.3 .4-4.7 3-10 5.2-15.8 6.5-14 3-27.8-.4-38.5-8.3-8.2-6.1-19.4-6.2-27.8-.5-5.6 3.8-12 6.7-19.1 8.4-30.1 7-60.2-11.8-67.2-42l-48-208c-7-30.1 11.8-60.2 42-67.2 15.9-3.7 31.8-.2 44.3 8.4 8.4 5.8 19.6 5.6 27.8-.5 5.3-3.9 11.5-6.8 18.4-8.3 15.6-3.3 31 1.3 42.1 11.2 9.1 8.1 22.9 8.1 32 0 11-9.8 26.3-14.4 41.8-11.2 7 1.5 13.3 4.4 18.7 8.3 8.2 6.1 19.4 6.3 27.8 .5z"/></svg>