<svg xmlns="http://www.w3.org/2000/svg" viewBox="0 0 448 512"><path fill="currentColor" d="M232 80a56 56 0 1 0 0-112 56 56 0 1 0 0 112zm-8 80c11.2 0 22.1 2.5 32 7.1l0 152.9-64 0 0-152.9c9.9-4.6 20.8-7.1 32-7.1zm32 208l0 152c0 13.3 10.7 24 24 24s24-10.7 24-24l0-302.4 60.5 84.4c7.7 10.8 22.7 13.2 33.5 5.5s13.2-22.7 5.5-33.5L324.3 163.5C301.1 131.2 263.8 112 224 112s-77.2 19.2-100.3 51.5L44.5 274c-7.7 10.8-5.2 25.8 5.5 33.5s25.8 5.2 33.5-5.5L144 217.6 144 520c0 13.3 10.7 24 24 24s24-10.7 24-24l0-152 64 0zm136 16c4.4 0 8 3.6 8 8l0 128c0 13.3 10.7 24 24 24s24-10.7 24-24l0-128c0-30.9-25.1-56-56-56s-56 25.1-56 56c0 13.3 10.7 24 24 24s24-10.7 24-24c0-4.4 3.6-8 8-8z"/></svg>