<svg xmlns="http://www.w3.org/2000/svg" viewBox="0 0 512 512"><path fill="currentColor" d="M192 39c0-13 10-23.8 22.9-24.9L366.7 1.4C376 .7 384 8 384 17.4L384 48c0 8.8-7.2 16-16 16L217 64c-13.8 0-25-11.2-25-25zM0 248c0-13.3 10.7-24 24-24l288.6 0c42.9 0 82.5 22.9 103.9 60l92.3 160c6.6 11.5 2.7 26.2-8.8 32.8s-26.2 2.7-32.8-8.8L384 323.8 384 480c0 17.7-14.3 32-32 32l-128 0c-17.7 0-32-14.3-32-32l0-208-168 0c-13.3 0-24-10.7-24-24zm240 24l0 82.1 73.4-82.1c-.5 0-1 0-1.4 0l-72 0zm0 192l96 0 0-32-96 0 0 32zm96-145.2l-58.3 65.2 58.3 0 0-65.2zM208 112c0-5.5 .6-10.8 1.6-16l50.7 0c-2.7 4.7-4.3 10.2-4.3 16 0 17.7 14.3 32 32 32s32-14.3 32-32c0-5.8-1.6-11.3-4.3-16l50.7 0c1 5.2 1.6 10.5 1.6 16 0 44.2-35.8 80-80 80s-80-35.8-80-80z"/></svg>