<svg xmlns="http://www.w3.org/2000/svg" viewBox="0 0 384 512"><path fill="currentColor" d="M352-8c0-13.3-10.7-24-24-24S304-21.3 304-8l0 49.8c0 29.9-20.7 55.8-49.8 62.4l-90.6 20.6c-39.5 9-73.8 33.4-95.2 67.7L11.6 283.3c-7 11.2-3.6 26 7.6 33.1s26 3.6 33.1-7.6l56.7-90.8c.9-1.5 1.9-3 2.9-4.5L112 520c0 13.3 10.7 24 24 24s24-10.7 24-24l0-152 64 0 0 152c0 13.3 10.7 24 24 24s24-10.7 24-24l0-370.9c47.2-14 80-57.5 80-107.3L352-8zM224 320l-64 0 0-144.1c4.6-1.8 9.3-3.2 14.2-4.3L224 160.3 224 320zM192 80a56 56 0 1 0 0-112 56 56 0 1 0 0 112z"/></svg>