<svg xmlns="http://www.w3.org/2000/svg" viewBox="0 0 512 512"><path fill="currentColor" d="M64-32A56 56 0 1 1 64 80 56 56 0 1 1 64-32zM0 176.4c0-35.6 28.8-64.4 64.4-64.4 23.3 0 44.7 12.5 56.1 32.8l42.1 74.8c7.1 12.6 20.4 20.4 34.9 20.4l58.6 0 0-56c0-13.3 10.7-24 24-24s24 10.7 24 24l0 280 184 0c13.3 0 24 10.7 24 24s-10.7 24-24 24l-170.7 0c-6.6 18.6-24.4 32-45.3 32-26.5 0-48-21.5-48-48 0-20.9 13.4-38.7 32-45.3l0-162.7-58.6 0c-27.4 0-52.9-12.7-69.4-33.9l0 97.9 12.8 9.6C163 378.2 176 404.3 176 432l0 88c0 13.3-10.7 24-24 24s-24-10.7-24-24l0-88c0-12.6-5.9-24.4-16-32L35.2 342.4C13 325.8 0 299.7 0 272l0-95.6zM0 369.6c3.5 3.5 7.2 6.8 11 9.9L48 409 48 520c0 13.3-10.7 24-24 24S0 533.3 0 520L0 369.6zM64 160c-8.8 0-16 7.2-16 16l0 95.4c0 10.6 4.2 20.8 11.7 28.3L80 320 80 176c0-8.8-7.2-16-16-16zm320 96l96 0c17.7 0 32 14.3 32 32l0 96c0 17.7-14.3 32-32 32l-96 0c-17.7 0-32-14.3-32-32l0-96c0-17.7 14.3-32 32-32z"/></svg>