<svg xmlns="http://www.w3.org/2000/svg" viewBox="0 0 512 512"><path fill="currentColor" d="M224 80a32 32 0 1 1 64 0 32 32 0 1 1 -64 0zm112 0a80 80 0 1 0 -160 0 80 80 0 1 0 160 0zM120 376c0-37.6 15.3-71.7 40-96.3l0 136.3 48 0 0-167.3c14.9-5.6 31.1-8.7 48-8.7s33.1 3.1 48 8.7l0 167.3 48 0 0-136.3c24.7 24.6 40 58.7 40 96.3l0 40 48 0 0-40c0-101.6-82.4-184-184-184S72 274.4 72 376l0 40 48 0 0-40zm144-8a24 24 0 1 0 -48 0 24 24 0 1 0 48 0zM24 464c-13.3 0-24 10.7-24 24s10.7 24 24 24l464 0c13.3 0 24-10.7 24-24s-10.7-24-24-24L24 464zm96-272a24 24 0 1 0 -48 0 24 24 0 1 0 48 0zm360 88a24 24 0 1 0 0-48 24 24 0 1 0 0 48z"/></svg>