<svg xmlns="http://www.w3.org/2000/svg" viewBox="0 0 640 512"><path fill="currentColor" d="M136 24a56 56 0 1 1 112 0 56 56 0 1 1 -112 0zM112 520l0-304.7-52.7 71c-7.9 10.6-22.9 12.9-33.6 5s-12.9-22.9-5-33.6L88.1 167c25.7-34.6 66.2-55 109.2-55l122.7 0 0-64c0-26.5 21.5-48 48-48L592 0c26.5 0 48 21.5 48 48l0 224c0 26.5-21.5 48-48 48l-224 0c-26.5 0-48-21.5-48-48l0-64 48 0 0 64 224 0 0-224-224 0 0 64 32 0c13.3 0 24 10.7 24 24s-10.7 24-24 24l-128 0 0 360c0 13.3-10.7 24-24 24s-24-10.7-24-24l0-152-64 0 0 152c0 13.3-10.7 24-24 24s-24-10.7-24-24zm48-200l64 0 0-160-26.7 0c-13.1 0-25.8 2.9-37.3 8.3L160 320z"/></svg>