<svg xmlns="http://www.w3.org/2000/svg" viewBox="0 0 448 512"><path fill="currentColor" d="M364.3 394.3c26.8-5.3 51.7 15.1 51.7 42.4 0 23.9-19.4 43.3-43.3 43.3L75.2 480c-23.9 0-43.2-19.4-43.2-43.3 0-27.3 25-47.8 51.7-42.4l140.3 28 140.3-28zM224 176c48.2 0 92.7 25.8 116.6 67.7l25.3 44.3 58.1 0c13.3 0 24 10.7 24 24s-10.7 24-24 24l-72 0c-8.6 0-16.6-4.6-20.8-12.1l-11.2-19.5 0 58-48 9.6 0-133.4c-14-9.3-30.6-14.6-48-14.6s-34 5.2-48 14.6l0 133.4-48-9.6 0-58-11.2 19.5C112.6 331.4 104.6 336 96 336l-72 0c-13.3 0-24-10.7-24-24s10.7-24 24-24l58.1 0 25.3-44.3C131.3 201.8 175.8 176 224 176zm0-48a56 56 0 1 1 0-112 56 56 0 1 1 0 112z"/></svg>