<svg xmlns="http://www.w3.org/2000/svg" viewBox="0 0 512 512"><path fill="currentColor" d="M280 0c13.3 0 24 10.7 24 24l0 13.4c0 49.9-20.2 96.9-54.9 131.1l74 87.5 93 0c12.3 0 24 5.7 31.6 15.4l51.2 65.8c8.1 10.5 6.3 25.5-4.2 33.7s-25.5 6.3-33.7-4.2l-48.8-62.7-75.1 0-46.7 41.5 104.2 127.3c8.4 10.3 6.9 25.4-3.4 33.8s-25.4 6.9-33.8-3.4L156.5 257.6c-8.1 17.6-12.5 37-12.5 57l0 77.4c0 13.3-10.7 24-24 24s-24-10.7-24-24l0-77.4c0-64.6 33.9-124.5 89.3-157.8L190 154c41-24.6 66-68.8 66-116.6L256 24c0-13.3 10.7-24 24-24zM260 308.3l25.4-22.6-74.6-88.2-.7 .4c-9.1 5.4-17.3 11.8-24.7 19L260 308.3zM48 88A56 56 0 1 1 160 88 56 56 0 1 1 48 88z"/></svg>