<svg xmlns="http://www.w3.org/2000/svg" viewBox="0 0 384 512"><path fill="currentColor" d="M192 80a56 56 0 1 0 0-112 56 56 0 1 0 0 112zm-16 32.8c-33.2 4-63.6 21.7-83.3 49.3L12.5 274c-7.7 10.8-5.2 25.8 5.5 33.5s25.8 5.2 33.5-5.5L113.6 215.3 70 363.5C67 373.7 74.7 384 85.4 384l42.6 0 0 136c0 13.3 10.7 24 24 24s24-10.7 24-24l0-184-47.8 0 47.8-162.7 0-60.5zm48 3.4L224 520c0 13.3 10.7 24 24 24s24-10.7 24-24l0-302.4 60.5 84.4c7.7 10.8 22.7 13.2 33.5 5.5s13.2-22.7 5.5-33.5L292.3 163.5c-16.8-23.5-41.1-40-68.3-47.3z"/></svg>