<svg xmlns="http://www.w3.org/2000/svg" viewBox="0 0 640 512"><path fill="currentColor" d="M155.3 32.5c13-2.6 25.6 5.8 28.2 18.8l6.9 34.5C202.8 147.6 257 192 320 192S437.2 147.6 449.6 85.8l6.9-34.5c2.6-13 15.2-21.4 28.2-18.8s21.4 15.2 18.8 28.2l-6.9 34.5c-11.2 56.2-47.9 101.9-96.6 126.1l0 106c-16.3 5.2-32 13.2-46.4 24.1l-1.6 1.2 0-115.4c-10.4 1.9-21.1 2.8-32 2.8s-21.6-1-32-2.8l0 104.6c-15.1-9-31.3-15.2-48-18.6l0-101.8c-48.7-24.2-85.4-69.9-96.6-126.1l-6.9-34.5c-2.6-13 5.8-25.6 18.8-28.2zM264 88a56 56 0 1 1 112 0 56 56 0 1 1 -112 0zm139.4 324C379.1 430.3 351.1 448 320 448s-59.1-17.7-83.4-35.9c-21.3-16.1-49.9-16.1-71.2 0-23.8 17.9-54.1 35.5-88.1 35.3-20.4-.1-40.7-6.7-59.8-21.1-10.6-8-12.7-23-4.7-33.6s23-12.7 33.6-4.7c11.3 8.5 21.6 11.4 31.2 11.5 17.6 .1 37.3-9.4 58.9-25.7 38.4-29 90.5-29 129 0 24 18.1 40.7 26.3 54.5 26.3s30.5-8.2 54.5-26.3c38.4-29 90.5-29 129 0 16.9 12.7 32.9 21.5 47.8 24.6 13.7 2.8 27.4 .9 42.3-10.3 10.6-8 25.6-5.9 33.6 4.7s5.9 25.6-4.7 33.6c-26.4 19.9-54.2 24.4-80.7 19-25.3-5.1-48.1-18.9-67.2-33.3-21.3-16.1-49.9-16.1-71.2 0z"/></svg>