<svg xmlns="http://www.w3.org/2000/svg" viewBox="0 0 576 512"><path fill="currentColor" d="M224 64a64 64 0 1 1 128 0 64 64 0 1 1 -128 0zm32 144c-8.8 0-16 7.2-16 16l0 64c0 8.8 7.2 16 16 16l64 0c8.8 0 16-7.2 16-16l0-64c0-8.8-7.2-16-16-16l-64 0zm0-48l64 0c35.3 0 64 28.7 64 64l0 64c0 23.7-12.9 44.4-32 55.4L352 488c0 13.3-10.7 24-24 24s-24-10.7-24-24l0-136-32 0 0 136c0 13.3-10.7 24-24 24s-24-10.7-24-24l0-144.6c-19.1-11.1-32-31.7-32-55.4l0-64c0-35.3 28.7-64 64-64zM176 64c0 22.1 6.4 42.8 17.5 60.1-29.9-27.4-69.7-44.1-113.5-44.1l-32 0 0 56c0 59.6 31 112 77.9 141.8 6.3 4 10.3 10.7 11 18.1s-2.1 14.7-7.6 19.8C108.8 334.7 96 361.8 96 392l0 24 24 0c20.6 0 39.8-6 56-16.4l0 53.7c-17.3 6.9-36.2 10.6-56 10.6l-32 0c-22.1 0-40-17.9-40-40l0-32C48 358.3 59 327.1 77.6 301.8 30.2 262.3 0 202.7 0 136L0 72C0 49.9 17.9 32 40 32l40 0c34.6 0 67.4 8.2 96.4 22.6-.3 3.1-.4 6.2-.4 9.4zm224 0c0-3.2-.1-6.3-.4-9.4 29-14.5 61.7-22.6 96.4-22.6l40 0c22.1 0 40 17.9 40 40l0 64c0 66.7-30.2 126.3-77.6 165.8 18.6 25.2 29.6 56.4 29.6 90.2l0 32c0 22.1-17.9 40-40 40l-32 0c-19.8 0-38.7-3.8-56-10.6l0-53.7C416.2 410 435.4 416 456 416l24 0 0-24c0-30.2-12.8-57.3-33.3-76.3-5.5-5.1-8.3-12.4-7.6-19.8s4.7-14.1 11-18.1C497 248 528 195.6 528 136l0-56-32 0c-43.8 0-83.6 16.7-113.5 44.1 11.1-17.4 17.5-38 17.5-60.1z"/></svg>