<svg xmlns="http://www.w3.org/2000/svg" viewBox="0 0 512 512"><path fill="currentColor" d="M256.5-32a56 56 0 1 1 0 112 56 56 0 1 1 0-112zm-32 352l64 0 0-152.9c-9.9-4.6-20.8-7.1-32-7.1s-22.1 2.5-32 7.1l0 152.9zm0 48l0 152c0 13.3-10.7 24-24 24s-24-10.7-24-24l0-302.4-60.5 84.4c-7.7 10.8-22.7 13.3-33.5 5.5S69.3 284.8 77 274l79.2-110.5c23.2-32.4 60.5-51.5 100.3-51.5s77.2 19.2 100.3 51.5L436 274c7.7 10.8 5.2 25.8-5.5 33.5s-25.8 5.2-33.5-5.5l-60.5-84.4 0 302.4c0 13.3-10.7 24-24 24s-24-10.7-24-24l0-152-64 0zM7.5 7c9.4-9.4 24.6-9.4 33.9 0l80 80c9.4 9.4 9.4 24.6 0 33.9s-24.6 9.4-33.9 0L7.5 41C-1.8 31.6-1.8 16.4 7.5 7zm464 0c9.4-9.4 24.6-9.4 33.9 0s9.4 24.6 0 33.9l-80 80c-9.4 9.4-24.6 9.4-33.9 0s-9.4-24.6 0-33.9l80-80zM7.5 505c-9.4-9.4-9.4-24.6 0-33.9l80-80c9.4-9.4 24.6-9.4 33.9 0s9.4 24.6 0 33.9l-80 80c-9.4 9.4-24.6 9.4-33.9 0zm464 0l-80-80c-9.4-9.4-9.4-24.6 0-33.9s24.6-9.4 33.9 0l80 80c9.4 9.4 9.4 24.6 0 33.9s-24.6 9.4-33.9 0z"/></svg>