<svg xmlns="http://www.w3.org/2000/svg" viewBox="0 0 576 512"><path fill="currentColor" d="M424.8 128a56 56 0 1 0 0-112 56 56 0 1 0 0 112zM512 241.9c7.5-6.7 10.2-17.6 6.1-27.4-5.2-12.2-19.3-17.8-31.5-12.6l-33.4 14.3c-3.3 1.4-7.2 .4-9.5-2.4L416.6 179c-29.4-37.6-70.4-64.4-116.7-76.3l-36-9.2c-40.5-10.4-81.2 15.8-88.7 56.9l-6.8 37.3c-.7 3.8-.4 7.5 .6 11L23.1 432 60.9 432 196.1 215.7c9.6-1.7 17.7-9.2 19.5-19.4l6.8-37.3c2.5-13.7 16.1-22.4 29.6-19l24.3 6.2-46.2 76.9c-21.6 36-8 82.7 29.5 101.5l71.6 35.8c3.7 1.8 5.4 6.2 3.9 10l-36 93.5-124.4 0 49.3-61.6c3.2-3.9 5.8-8.3 7.7-12.9l8.8-20.6-2.4-1.2c-14.6-7.3-27-17.1-37-28.6l-13.5 31.6c-.3 .7-.7 1.3-1.1 1.8L125.3 449c-3.5 4.4-5.3 9.7-5.3 15l-96 0c-13.3 0-24 10.7-24 24s10.7 24 24 24l484.6 0c17.4 0 34.4-5.1 48.8-14.8l7.9-5.3c11-7.4 14-22.3 6.7-33.3s-22.3-14-33.3-6.7l-7.9 5.3c-6.6 4.4-14.3 6.7-22.2 6.7l-158 0 29.4-76.3c10.4-26.9-1.4-57.3-27.2-70.2l-22.6-11.3 52.9-92.2 22.9 29.3c15.6 20 42.8 27 66.2 17l7.9-3.4 0 175 32 0 0-190.1zm-164.1-63l-60.7 105.9-6-3c-12.5-6.3-17-21.8-9.8-33.8l51.4-85.6c10.2 5.2 19.8 11.4 28.7 18.5l-3.5-2z"/></svg>