<svg xmlns="http://www.w3.org/2000/svg" viewBox="0 0 640 512"><path fill="currentColor" d="M104 24a56 56 0 1 1 112 0 56 56 0 1 1 -112 0zm24 138.2l0 107.6c0 13.4 6.7 25.9 17.8 33.3L168 317.8 168 163c-7-2-14.2-3-21.6-3-6.3 0-12.4 .7-18.4 2.2zM80 193.9L59.7 214.2C52.2 221.7 48 231.9 48 242.5L48 296c0 13.3-10.7 24-24 24S0 309.3 0 296l0-53.5c0-23.3 9.3-45.7 25.8-62.2L57 149c23.7-23.7 55.8-37 89.4-37 35.8 0 70 15.2 93.9 41.8l22.4 24.9c7.6 8.4 18.4 13.2 29.7 13.2l35.5 0c13.3 0 24 10.7 24 24s-10.7 24-24 24l-35.5 0c-24.9 0-48.7-10.6-65.4-29.1l-11.1-12.3 0 151.3 21.2 14.1c21.1 14 35.1 36.5 38.4 61.6l12.2 91.3c1.8 13.1-7.5 25.2-20.6 27s-25.2-7.5-27-20.6L228 431.9c-1.5-11.4-7.9-21.6-17.5-28L119.2 343C94.7 326.6 80 299.2 80 269.7l0-75.8zM99.7 387.7l41.9 28-2 7c-4.1 14.4-11.8 27.5-22.4 38L41 537c-9.4 9.4-24.6 9.4-33.9 0S-2.3 512.4 7 503l76.3-76.3c4.8-4.8 8.3-10.8 10.2-17.3l6.2-21.8zM537 345c-9.4 9.4-24.6 9.4-33.9 0s-9.4-24.6 0-33.9l31-31-102.1 0c-13.3 0-24-10.7-24-24s10.7-24 24-24l102.1 0-31-31c-9.4-9.4-9.4-24.6 0-33.9s24.6-9.4 33.9 0l72 72c9.4 9.4 9.4 24.6 0 33.9l-72 72zM408-16c13.3 0 24 10.7 24 24l0 32c0 13.3-10.7 24-24 24s-24-10.7-24-24l0-32c0-13.3 10.7-24 24-24zm24 152l0 32c0 13.3-10.7 24-24 24s-24-10.7-24-24l0-32c0-13.3 10.7-24 24-24s24 10.7 24 24zM408 320c13.3 0 24 10.7 24 24l0 32c0 13.3-10.7 24-24 24s-24-10.7-24-24l0-32c0-13.3 10.7-24 24-24zm24 152l0 32c0 13.3-10.7 24-24 24s-24-10.7-24-24l0-32c0-13.3 10.7-24 24-24s24 10.7 24 24z"/></svg>