<svg xmlns="http://www.w3.org/2000/svg" viewBox="0 0 448 512"><path fill="currentColor" d="M17.2-15.6C20.5-25.4 29.7-32 40-32l304 0c13.3 0 24 10.7 24 24 0 9.8-5.8 18.2-14.2 21.9l30.6 61.3c17.5 35 3.8 77.7-30.9 95.9l-21.4 11.2 44.8 115.3c4.8 12.4 6.8 25.7 5.7 38.9L367.9 521.9c-1.1 13.2-12.6 23.1-25.8 22s-23.1-12.6-22-25.8l12-150.1-34.2 0c-2.4 6.3-5.6 12.4-9.5 18L187.8 533.5c-7.5 11-22.4 13.8-33.3 6.3s-13.8-22.4-6.3-33.4L248.7 359c7.6-11.1 9.1-25.3 3.9-37.8l-31.8-77.2c-11-26.7 .1-57.4 25.7-70.9l84.6-44.5c11.6-6.1 16.1-20.3 10.3-32L301.2 16 89.3 16 78.8 47.6C75.5 57.4 66.3 64 56 64L24 64C16.3 64 9 60.3 4.5 54S-1.2 39.7 1.2 32.4l16-48zM302.1 320l31.8 0c-.4-1.7-.9-3.3-1.6-5L289.5 204.9 269 215.7c-3.7 1.9-5.2 6.3-3.7 10.1L297.1 303c2.3 5.5 4 11.3 5.1 17zM224 40a56 56 0 1 1 0 112 56 56 0 1 1 0-112z"/></svg>