<svg xmlns="http://www.w3.org/2000/svg" viewBox="0 0 576 512"><path fill="currentColor" d="M40 24A56 56 0 1 1 152 24 56 56 0 1 1 40 24zm56.4 88c23.3 0 44.7 12.5 56.1 32.8l42.1 74.8c7.1 12.6 20.4 20.4 34.9 20.4l34.6 0c13.3 0 24 10.7 24 24s-10.7 24-24 24l-34.6 0c-27.4 0-52.9-12.7-69.4-33.9l0 97.9 12.8 9.6C195 378.2 208 404.3 208 432l0 88c0 13.3-10.7 24-24 24s-24-10.7-24-24l0-88c0-12.6-5.9-24.4-16-32L67.2 342.4C45 325.8 32 299.7 32 272l0-95.6C32 140.8 60.8 112 96.4 112zM32 520l0-150.4c3.5 3.5 7.2 6.8 11 9.9L80 409 80 520c0 13.3-10.7 24-24 24s-24-10.7-24-24zm80-344c0-8.8-7.2-16-16-16s-16 7.2-16 16l0 95.4c0 10.6 4.2 20.8 11.7 28.3L112 320 112 176zm301.8 54c2 4.4 2.7 9.3 1.8 14.1L388.5 400 528 400 528 56c0-4.4-3.6-8-8-8l-189.6 0 83.4 182zM528 520l0-72-168 0c-7.1 0-13.8-3.1-18.4-8.6s-6.5-12.6-5.3-19.6l30.7-176.7-63.1-137.6 0 88.2c-5.1-1.2-10.5-1.8-16-1.8l-32 0 0-136c0-30.9 25.1-56 56-56L520 0c30.9 0 56 25.1 56 56l0 464c0 13.3-10.7 24-24 24s-24-10.7-24-24zM304 334.2L304 520c0 13.3-10.7 24-24 24s-24-10.7-24-24l0-184 32 0c5.5 0 10.9-.6 16-1.8z"/></svg>