<svg xmlns="http://www.w3.org/2000/svg" viewBox="0 0 640 512"><path fill="currentColor" d="M224-32a56 56 0 1 1 0 112 56 56 0 1 1 0-112zM192 320l64 0 0-152.9c-9.9-4.6-20.8-7.1-32-7.1s-22.1 2.5-32 7.1L192 320zm0 48l0 152c0 13.3-10.7 24-24 24s-24-10.7-24-24l0-302.4-60.5 84.4c-7.7 10.8-22.7 13.3-33.5 5.5S36.8 284.8 44.5 274l79.2-110.5C146.8 131.2 184.2 112 224 112s77.2 19.2 100.3 51.5L382.7 245c-13.1 9.6-24.9 20.8-35.2 33.3L304 217.6 304 520c0 13.3-10.7 24-24 24s-24-10.7-24-24l0-152-64 0zM496 256a144 144 0 1 1 0 288 144 144 0 1 1 0-288zm0 228a20 20 0 1 0 0-40 20 20 0 1 0 0 40zm0-140c13.3 0 24 10.7 24 24 0 7.2-4.2 13.7-10.8 16.6l-12.4 5.5c-10.2 4.5-16.8 14.7-16.8 25.9 0 8.8 7.2 16 16 16 8 0 14.6-5.9 15.8-13.5l10.4-4.6c18.1-8.1 29.8-26 29.8-45.9 0-30.9-25.1-56-56-56-27.1 0-49.7 19.2-54.9 44.8-1.8 8.7 3.8 17.1 12.5 18.9s17.1-3.8 18.9-12.5c2.2-11 11.9-19.2 23.5-19.2z"/></svg>