<svg xmlns="http://www.w3.org/2000/svg" viewBox="0 0 512 512"><path fill="currentColor" d="M268.1 3.3c-7.5-4.4-16.8-4.4-24.3 0l-232 136C4.5 143.6 0 151.5 0 160L0 488c0 13.3 10.7 24 24 24s24-10.7 24-24L48 173.8 256 51.8 464 173.8 464 488c0 13.3 10.7 24 24 24s24-10.7 24-24l0-328c0-8.5-4.5-16.4-11.9-20.7l-232-136zM256 208a40 40 0 1 0 0-80 40 40 0 1 0 0 80zm-16 66.3c5.1-1.5 10.5-2.3 16-2.3s10.9 .8 16 2.3l0 93.7-32 0 0-93.7zM240 416l32 0 0 72c0 13.3 10.7 24 24 24s24-10.7 24-24l0-159.7 18.9 35c6.3 11.7 20.8 16 32.5 9.8s16-20.8 9.8-32.5l-33.2-61.7C329.7 245.1 294.4 224 256 224s-73.7 21.1-91.9 54.9l-33.2 61.7c-6.3 11.7-1.9 26.2 9.8 32.5s26.2 1.9 32.5-9.8l18.9-35 0 159.7c0 13.3 10.7 24 24 24s24-10.7 24-24l0-72z"/></svg>