<svg xmlns="http://www.w3.org/2000/svg" viewBox="0 0 448 512"><path fill="currentColor" d="M160 128a56 56 0 1 0 0-112 56 56 0 1 0 0 112zM48 184c0-13.3-10.7-24-24-24S0 170.7 0 184L0 360c0 66.3 53.7 120 120 120l80 0c13.3 0 24-10.7 24-24s-10.7-24-24-24l-80 0c-39.8 0-72-32.2-72-72l0-176zm112 24c8.8 0 16 7.2 16 16l0 112-8 0c-13.3 0-24-10.7-24-24l0-88c0-8.8 7.2-16 16-16zm64 128l0-112c0-35.3-28.7-64-64-64s-64 28.7-64 64l0 88c0 39.8 32.2 72 72 72l80 0c13.3 0 24 10.7 24 24l0 80c0 13.3 10.7 24 24 24l48 0c13.3 0 24-10.7 24-24s-10.7-24-24-24l-24 0 0-56c0-39.8-32.2-72-72-72l-24 0zM352 80l32 0c8.8 0 16 7.2 16 16l0 96c0 8.8-7.2 16-16 16l-32 0c-8.8 0-16-7.2-16-16l0-96c0-8.8 7.2-16 16-16zM288 96l0 96c0 35.3 28.7 64 64 64l32 0c35.3 0 64-28.7 64-64l0-96c0-35.3-28.7-64-64-64l-32 0c-35.3 0-64 28.7-64 64z"/></svg>