<svg xmlns="http://www.w3.org/2000/svg" viewBox="0 0 512 512"><path fill="currentColor" d="M192 48a48 48 0 1 0 -96 0 48 48 0 1 0 96 0zM309.8 62C304.3 50 290.1 44.7 278 50.2S260.7 69.9 266.2 82l27.2 59.5-16.5 26.8-98.8-35.3c-9.2-3.3-18.9-5-28.7-5-47.1 0-85.4 38.2-85.4 85.4l0 16c-18.9 9-32 28.3-32 50.6l0 56c-19.4 14.6-32 37.8-32 64 0 44.2 35.8 80 80 80l160 0c44.2 0 80-35.8 80-80 0-11.4-2.4-22.2-6.7-32l51.6 0 29.5 64-19.5 0c-13.3 0-24 10.7-24 24s10.7 24 24 24l56.5 0c.4 0 .7 0 1.1 0l23.5 0c30.9 0 56-25.1 56-56 0-13.3-10.7-24-24-24s-24 10.7-24 24c0 4.4-3.6 8-8 8l-8.6 0-30.1-65.3C470.9 358.4 512 312 512 256l0-16c0-8.6-4.6-16.6-12.1-20.8l-160-91.4-30.1-65.7zM112 224l0-10.6c0-20.6 16.7-37.4 37.4-37.4 4.3 0 8.5 .7 12.6 2.2l89.2 31.9-8.6 14-130.6 0zm87.9 96L80 320 80 280c0-4.4 3.6-8 8-8l168 0c8.3 0 16.1-4.3 20.4-11.4l51.8-84.2 135.7 77.6 0 2.1c0 35.3-28.7 64-64 64l-200.1 0zM80 368l160 0c17.7 0 32 14.3 32 32s-14.3 32-32 32L80 432c-17.7 0-32-14.3-32-32s14.3-32 32-32z"/></svg>