<svg xmlns="http://www.w3.org/2000/svg" viewBox="0 0 448 512"><path fill="currentColor" d="M168 72a56 56 0 1 1 112 0 56 56 0 1 1 -112 0zM88 160c13.3 0 24 10.7 24 24l0 176c0 39.8 32.2 72 72 72l80 0c13.3 0 24 10.7 24 24s-10.7 24-24 24l-80 0c-66.3 0-120-53.7-120-120l0-176c0-13.3 10.7-24 24-24zm120 64l0 88c0 13.3 10.7 24 24 24l8 0 0-112c0-8.8-7.2-16-16-16s-16 7.2-16 16zm80 0l0 112 24 0c39.8 0 72 32.2 72 72l0 56 24 0c13.3 0 24 10.7 24 24s-10.7 24-24 24l-48 0c-13.3 0-24-10.7-24-24l0-80c0-13.3-10.7-24-24-24l-80 0c-39.8 0-72-32.2-72-72l0-88c0-35.3 28.7-64 64-64s64 28.7 64 64z"/></svg>