<svg xmlns="http://www.w3.org/2000/svg" viewBox="0 0 512 512"><path fill="currentColor" d="M264.3 24a56 56 0 1 1 112 0 56 56 0 1 1 -112 0zm24 138.2l0 107.6c0 13.4 6.7 25.9 17.8 33.3l22.2 14.8 0-154.8c-7-2-14.2-3-21.6-3-6.3 0-12.4 .7-18.4 2.2zm-48 31.7L220 214.2c-7.5 7.5-11.7 17.7-11.7 28.3l0 45.1c0 .1 0 .3 0 .4l0 17.4c0 8.1-1.9 16-5.5 23.3l-69 138.1-.8-.4-27.7 55.3c-9.9 19.8-33.9 27.8-53.7 17.9L14.6 521c-19.8-9.9-27.8-33.9-17.9-53.7L47.3 366.3c9.9-19.8 33.9-27.8 53.7-17.9l30.7 15.3 28.3-56.6c.3-.6 .4-1.2 .4-1.8l0-9c0-.1 0-.3 0-.4l0-53.5c0-23.3 9.3-45.7 25.8-62.2L217.4 149c23.7-23.7 55.8-37 89.4-37 35.8 0 70 15.2 93.9 41.8l22.4 24.9c7.6 8.4 18.4 13.2 29.7 13.2l35.5 0c13.3 0 24 10.7 24 24s-10.7 24-24 24l-35.5 0c-24.9 0-48.7-10.6-65.4-29.1l-11.1-12.3 0 151.3 21.2 14.1c21.1 14 35.1 36.5 38.4 61.6l12.2 91.3c1.8 13.1-7.5 25.2-20.6 27s-25.2-7.5-27-20.6l-12.2-91.3c-1.5-11.4-7.9-21.6-17.5-28L279.5 343c-24.5-16.3-39.2-43.8-39.2-73.2l0-75.8zM260 387.7l41.9 28-2 7c-4.1 14.4-11.8 27.5-22.4 38L201.3 537c-9.4 9.4-24.6 9.4-33.9 0s-9.4-24.6 0-33.9l76.3-76.3c4.8-4.8 8.3-10.8 10.2-17.3l6.2-21.8z"/></svg>