<svg xmlns="http://www.w3.org/2000/svg" viewBox="0 0 512 512"><path fill="currentColor" d="M424 0a56 56 0 1 1 0 112 56 56 0 1 1 0-112zM263 176l-111 0c-13.3 0-24-10.7-24-24s10.7-24 24-24l192.3 0c16.4 0 32.1 6.5 43.7 18.1 25.5 25.5 23.9 67.3-3.5 90.7l-54.8 47 22.5 10c14.4 6.4 23.8 20.7 23.8 36.6l0 93.6c0 13.3-10.7 24-24 24s-24-10.7-24-24l0-88.4-84-37.3c-37.4-16.6-44.9-66.4-14.1-93.3L263 176zm84.5 29.2c7.2-6.2 6.8-17.3-.7-23-5.6-4.2-13.4-3.9-18.7 .7l-66.6 58.2c-4.4 3.8-3.3 11 2 13.3l17.6 7.8 66.3-57.1zM174.7 287.3c6.6 14.5 16.8 27.4 30.5 37.4L129 401c-9.4 9.4-24.6 9.4-33.9 0s-9.4-24.6 0-33.9l79.7-79.7zM447.5 467.9l-.4 1.7c-6.2 24.9-28.6 42.4-54.3 42.4L304 512c-8.8 0-16-7.2-16-16s7.2-16 16-16l88.8 0c11 0 20.6-7.5 23.3-18.2l.4-1.7c2.1-8.6 10.8-13.8 19.4-11.6s13.8 10.8 11.6 19.4zm-297.2-3c4 7.9 .7 17.5-7.2 21.5l-6.2 3.1c-21.6 10.8-47.6 6.6-64.6-10.5L12.7 419.3c-6.2-6.2-6.2-16.4 0-22.6s16.4-6.2 22.6 0l59.6 59.6c7.3 7.3 18.5 9.1 27.7 4.5l6.2-3.1c7.9-4 17.5-.7 21.5 7.2z"/></svg>