<svg xmlns="http://www.w3.org/2000/svg" viewBox="0 0 640 512"><path fill="currentColor" d="M208 40.1c-13.3 0-24-10.7-24-24l0-48c0-13.3 10.7-24 24-24s24 10.7 24 24l0 48c0 13.3-10.7 24-24 24zM8 144.1c0-13.3 10.7-24 24-24l48 0c13.3 0 24 10.7 24 24s-10.7 24-24 24l-48 0c-13.3 0-24-10.7-24-24zm92.5 141.4c-9.4 9.4-24.6 9.4-33.9 0s-9.4-24.6 0-33.9l33.9-33.9c9.4-9.4 24.6-9.4 33.9 0s9.4 24.6 0 33.9l-33.9 33.9zM66.6 2.7c9.4-9.4 24.6-9.4 33.9 0l33.9 33.9c9.4 9.4 9.4 24.6 0 33.9s-24.6 9.4-33.9 0L66.6 36.6c-9.4-9.4-9.4-24.6 0-33.9zM296 24a56 56 0 1 1 112 0 56 56 0 1 1 -112 0zm40.6 147.5l-48.4 164.5 127.7 0-48.4-164.5c-2-6.7-8.3-11.5-15.5-11.5s-13.5 4.8-15.5 11.5zM288 520l0-136-42.6 0c-10.7 0-18.4-10.3-15.3-20.5l43.6-148.2-62.1 86.7c-7.7 10.8-22.7 13.3-33.5 5.5s-13.2-22.7-5.5-33.5l80.2-111.9c22.5-31.5 58.9-50.1 97.5-50.1l3.5 0c38.7 0 75 18.7 97.5 50.1L531.5 274c7.7 10.8 5.2 25.8-5.5 33.5s-25.8 5.2-33.5-5.5L430.4 215.3 474 363.5c3 10.2-4.7 20.5-15.4 20.5l-42.6 0 0 136c0 13.3-10.7 24-24 24s-24-10.7-24-24l0-136-32 0 0 136c0 13.3-10.7 24-24 24s-24-10.7-24-24z"/></svg>