<svg xmlns="http://www.w3.org/2000/svg" viewBox="0 0 576 512"><path fill="currentColor" d="M352 64a64 64 0 1 0 -128 0 64 64 0 1 0 128 0zm.4 272l-128.7 0 28.9-101.3c4.5-15.8 19-26.7 35.4-26.7s30.9 10.9 35.4 26.7L352.4 336zM288 160c-37.9 0-71.2 25.1-81.6 61.5L171.7 343.2c-5.8 20.4 9.5 40.8 30.8 40.8l21.6 0 0 104c0 13.3 10.7 24 24 24s24-10.7 24-24l0-104 32 0 0 104c0 13.3 10.7 24 24 24s24-10.7 24-24l0-104 21.6 0c21.3 0 36.6-20.3 30.8-40.8L369.6 221.5C359.2 185.1 325.9 160 288 160zM176.4 54.6C147.4 40.2 114.6 32 80 32L40 32C17.9 32 0 49.9 0 72l0 64C0 202.7 30.2 262.3 77.6 301.8 59 327.1 48 358.3 48 392l0 32c0 22.1 17.9 40 40 40l32 0c19.8 0 38.7-3.8 56-10.6l0-25.8c-10-3.5-19-8.9-26.7-15.7-9.3 2.7-19.1 4.2-29.3 4.2l-24 0 0-24c0-30.2 12.8-57.3 33.3-76.3l.4-.3 6.6-23.1C134.8 286.3 131.1 281.2 125.9 277.8 79 248 48 195.6 48 136l0-56 32 0c43.8 0 83.6 16.7 113.5 44.1-11.1-17.4-17.5-38-17.5-60.1 0-3.2 .1-6.3 .4-9.4zm223.2 0c.3 3.1 .4 6.2 .4 9.4 0 22.1-6.4 42.8-17.5 60.1 29.9-27.4 69.7-44.1 113.5-44.1l32 0 0 56c0 59.6-31 112-77.9 141.8-5.2 3.3-8.9 8.5-10.4 14.4l6.6 23.1 .3 .3c20.5 19 33.3 46.2 33.3 76.3l0 24-24 0c-10.2 0-20-1.5-29.3-4.2-7.7 6.8-16.7 12.3-26.7 15.8l0 25.8c17.3 6.9 36.2 10.6 56 10.6l32 0c22.1 0 40-17.9 40-40l0-32c0-33.7-11-64.9-29.6-90.2 47.4-39.6 77.6-99.2 77.6-165.8l0-64c0-22.1-17.9-40-40-40l-40 0c-34.6 0-67.4 8.2-96.4 22.6z"/></svg>