<svg xmlns="http://www.w3.org/2000/svg" viewBox="0 0 384 512"><path fill="currentColor" d="M192-32a56 56 0 1 1 0 112 56 56 0 1 1 0-112zM173.5 160c-10.9 0-21.2 5.2-27.7 14L51.3 302.2c-7.9 10.7-22.9 12.9-33.6 5.1s-12.9-22.9-5.1-33.6l94.5-128.2c15.5-21.1 40.2-33.5 66.4-33.5 45.5 0 82.4 36.9 82.5 82.4l25.2 15.1c34 20.4 54.8 57.1 54.8 96.7l0 6.3c0 32.5-15.7 62.9-42.1 81.8-11.5 8.2-24.4 14.2-37.9 17.8L256 520c0 13.3-10.7 24-24 24s-24-10.7-24-24l0-104-32 0 0 104c0 13.3-10.7 24-24 24s-24-10.7-24-24l0-104-32 0c-7.6 0-14.8-3.6-19.3-9.7s-5.9-14-3.6-21.3l32-104c3.9-12.7 17.3-19.8 30-15.9s19.8 17.3 15.9 30l-22.4 72.9 98.1 0c14.1 0 27.9-4.4 39.4-12.6 13.8-9.9 22-25.8 22-42.7l0-6.3c0-22.8-11.9-43.9-31.5-55.6l-36.9-22.1c-7.2-4.3-11.7-12.1-11.7-20.6l0-13.5c0-19-15.4-34.5-34.5-34.5z"/></svg>