<svg xmlns="http://www.w3.org/2000/svg" viewBox="0 0 640 512"><path fill="currentColor" d="M224-32a56 56 0 1 1 0 112 56 56 0 1 1 0-112zM192 320l64 0 0-152.9c-9.9-4.6-20.8-7.1-32-7.1s-22.1 2.5-32 7.1L192 320zm0 48l0 152c0 13.3-10.7 24-24 24s-24-10.7-24-24l0-302.4-60.5 84.4c-7.7 10.8-22.7 13.3-33.5 5.5S36.8 284.8 44.5 274l79.2-110.5C146.8 131.2 184.2 112 224 112s77.2 19.2 100.3 51.5L382.7 245c-13.1 9.6-24.9 20.8-35.2 33.3L304 217.6 304 520c0 13.3-10.7 24-24 24s-24-10.7-24-24l0-152-64 0zM496 256a144 144 0 1 1 0 288 144 144 0 1 1 0-288zm16 80c0-8.8-7.2-16-16-16s-16 7.2-16 16l0 48-48 0c-8.8 0-16 7.2-16 16s7.2 16 16 16l48 0 0 48c0 8.8 7.2 16 16 16s16-7.2 16-16l0-48 48 0c8.8 0 16-7.2 16-16s-7.2-16-16-16l-48 0 0-48z"/></svg>