<svg xmlns="http://www.w3.org/2000/svg" viewBox="0 0 512 512"><path fill="currentColor" d="M136 72a56 56 0 1 1 112 0 56 56 0 1 1 -112 0zM67.2 160.5c13-2.7 25.7 5.7 28.3 18.7l40.2 195.4c6.9 33.5 36.4 57.5 70.5 57.5l89.8 0c13.3 0 24 10.7 24 24s-10.7 24-24 24l-89.8 0c-56.9 0-106.1-40-117.5-95.8L48.5 188.8c-2.7-13 5.7-25.7 18.7-28.3zm143.1 65.8l20.7 91c2.5 10.9 12.2 18.7 23.4 18.7l11.6 0-26.4-116.3c-1.6-6.8-7.6-11.7-14.6-11.7-9.6 0-16.8 8.9-14.6 18.3zM286.3 209l28.9 127 37.4 0c28.6 0 54.5 16.9 66 43.1l34.6 79.2 27.2-9.1c12.6-4.2 26.2 2.6 30.4 15.2s-2.6 26.2-15.2 30.4l-48 16c-11.8 3.9-24.6-1.8-29.6-13.1l-43.4-99.2c-3.8-8.7-12.5-14.4-22-14.4l-56.1 0c-.3 0-.7 0-1 0l-41.2 0c-33.6 0-62.8-23.3-70.2-56l-20.7-91c-9-39.4 21-77 61.4-77 29.4 0 54.9 20.4 61.4 49z"/></svg>