<svg xmlns="http://www.w3.org/2000/svg" viewBox="0 0 576 512"><path fill="currentColor" d="M424.5 16a56 56 0 1 1 0 112 56 56 0 1 1 0-112zM172.9 50.2c7.6-10.8 22.6-13.4 33.4-5.8l272 192c10.8 7.6 13.4 22.6 5.8 33.4s-22.6 13.4-33.4 5.8l-69.5-49.1-76.2 65.3 13.6 11.4c16.4 13.7 25.9 33.9 25.9 55.3l0 86.3 85.5 16.7c6.2 1.2 12.6 .9 18.7-.8l41.2-11.8c12.7-3.6 26 3.7 29.7 16.5s-3.7 26-16.5 29.7l-41.2 11.8c-13.4 3.8-27.4 4.4-41.1 1.8L87.1 443.3c-17.2-3.4-33-11.8-45.3-24.1L15.5 393c-9.4-9.4-9.4-24.6 0-33.9s24.6-9.4 33.9 0l26.2 26.2c5.6 5.6 12.8 9.4 20.6 11l72.2 14.1 0-125.3c0-25.4 11-49.5 30.1-66.2l76.6-67.1-96.5-68.1C167.8 76 165.2 61 172.9 50.2zm43.6 369.6l80 15.7 0-76.9c0-7.1-3.2-13.9-8.6-18.4l-71.1-59.3c-.2 1.4-.2 2.8-.2 4.3l0 134.7zM340.7 198l-25.1-17.7-70.5 61.7 22.5 18.7 73.1-62.7z"/></svg>