<svg xmlns="http://www.w3.org/2000/svg" viewBox="0 0 576 512"><path fill="currentColor" d="M416 56a56 56 0 1 1 112 0 56 56 0 1 1 -112 0zM2.7 300.9c6.1-11.8 20.6-16.3 32.4-10.2l204.9 106.4 65.3-91.5-86.2-97c-7.6-8.5-12-18.5-13.5-28.8l90.8 43.4 49.1 55.2c12.4 14 13.5 34.6 2.7 49.8L283 419.5 418.5 489.8c13.6 7.1 29.8 7.2 43.6 .3l15.2-7.6c11.9-5.9 26.3-1.1 32.2 10.7s1.1 26.3-10.7 32.2l-15.2 7.6c-27.5 13.7-59.9 13.5-87.2-.7L12.9 333.3C1.2 327.2-3.4 312.7 2.7 300.9zm100-251.5l18.5 8.5 8.5-17.1c4-7.9 13.6-11.1 21.5-7.2s11.1 13.6 7.2 21.5l-8.1 16.1 97.6 44.7 66.4-29.5c27.4-12.2 59.4-.6 72.8 26.1l30.7 61.5 72.8 36.4c11.9 5.9 16.7 20.3 10.7 32.2s-20.3 16.7-32.2 10.7l-18.8-9.4-314.5-144.2-9.6 19.3c-4 7.9-13.6 11.1-21.5 7.2s-11.1-13.6-7.2-21.5l9.1-18.3-17.5-8c-8-3.7-11.6-13.2-7.9-21.2s13.2-11.6 21.2-7.9zm241.5 84.6c-1.9-3.8-6.5-5.5-10.4-3.7l-27.7 12.3 55.1 25.2-16.9-33.8z"/></svg>