<svg xmlns="http://www.w3.org/2000/svg" viewBox="0 0 512 512"><path fill="currentColor" d="M208 48a32 32 0 1 1 0 64 32 32 0 1 1 0-64zm0 112a80 80 0 1 0 0-160 80 80 0 1 0 0 160zM128 268.1L128 488c0 13.3 10.7 24 24 24s24-10.7 24-24l0-244c10.2-2.6 21-4 32-4 23.3 0 45.2 6.2 64 17.1l0-53.1c-19.8-7.7-41.4-12-64-12-97.2 0-176 78.8-176 176l0 56c0 13.3 10.7 24 24 24s24-10.7 24-24l0-56c0-40.4 18.7-76.5 48-99.9zM384 0c-8.8 0-16 7.2-16 16s7.2 16 16 16l0 100.3c-9.6 5.5-16 15.9-16 27.7l0 32-16 0c-17.7 0-32 14.3-32 32l0 128c0 17.7 14.3 32 32 32l32 0 0 112c0 8.8 7.2 16 16 16l59.5 0c10.4 0 18-9.8 15.5-19.9l-23-92.1 44 0c8.8 0 16-7.2 16-16l0-16c0-8.8-7.2-16-16-16l-48 0 0-26.7 53.1-17.7c6.5-2.2 10.9-8.3 10.9-15.2l0-84.5c0-8.8-7.2-16-16-16l-16 0c-8.8 0-16 7.2-16 16l0 56-16 5.3 0-109.3c0-11.8-6.4-22.2-16-27.7L432 16c0-8.8-7.2-16-16-16L384 0zm16 336l-32 0 0-96 32 0 0 96z"/></svg>