<svg xmlns="http://www.w3.org/2000/svg" viewBox="0 0 640 512"><path fill="currentColor" d="M552 152a56 56 0 1 0 -112 0 56 56 0 1 0 112 0zM446 272c4.7 0 9.4 .2 14.1 .5-12.3-34.7-33.8-66-62.8-90.1-22.2-18.5-48.1-32.2-76-40.2l-47-13.4c-24.2-6.9-50.2-3.1-71.4 10.4l-63.7 40.6c-11.2 7.1-14.5 22-7.4 33.1s22 14.5 33.1 7.4l63.7-40.6c9.6-6.1 21.5-7.9 32.5-4.7l41.4 11.8-99.5 85.3c1.7-.1 3.3-.1 5-.1 19.2-.1 38.5 3.3 56.7 10.4l86.6-74.3c5.2 3.4 10.3 7.1 15.1 11.2 18.9 15.7 33.6 35.3 43.4 57.2 11.8-2.9 23.9-4.4 36-4.5zM403.4 380.1c21.3-16.1 49.9-16.1 71.2 0 19 14.4 41.9 28.2 67.2 33.3 26.5 5.4 54.3 .8 80.7-19.1 10.6-8 12.7-23 4.7-33.6s-23-12.7-33.6-4.7c-14.9 11.2-28.6 13.1-42.3 10.3-14.9-3-30.9-11.9-47.8-24.6-38.4-29-90.5-29-129 0-24 18.1-40.7 26.3-54.5 26.3s-30.5-8.2-54.5-26.3c-38.4-29-90.5-29-129 0-21.6 16.3-41.3 25.8-58.9 25.7-9.6-.1-19.9-3-31.2-11.5-10.6-8-25.6-5.9-33.6 4.7S7 386.3 17.6 394.3c19.1 14.4 39.4 21 59.8 21.1 33.9 .2 64.3-17.4 88.1-35.3 21.3-16.1 49.9-16.1 71.2 0 24.2 18.3 52.3 35.9 83.4 35.9s59.1-17.7 83.4-35.9z"/></svg>