<svg xmlns="http://www.w3.org/2000/svg" viewBox="0 0 512 512"><path fill="currentColor" d="M352 40a56 56 0 1 1 112 0 56 56 0 1 1 -112 0zM112 136c0-13.3 10.7-24 24-24l185.9 0c50.1 0 75 60.8 39.3 95.9l-158.6 156.2-8.8 41.1 240-124.1c18.6-9.6 30.3-28.8 30.3-49.7l0-7.3c0-13.3 10.7-24 24-24s24 10.7 24 24l0 7.3c0 38.9-21.7 74.5-56.2 92.4L35 541.3C23.3 547.4 8.8 542.8 2.7 531S1.2 504.8 13 498.7l125.5-64.9 41.7-194.8c3.8-17.9 13.1-34.1 26.6-46.4L242.3 160 136 160c-13.3 0-24-10.7-24-24zm201.3 24l-74.1 67.9c-6.1 5.6-10.3 13-12.1 21.1l-6.4 29.7 106.7-105c5.1-5 1.5-13.7-5.6-13.7l-8.5 0z"/></svg>