<svg xmlns="http://www.w3.org/2000/svg" viewBox="0 0 512 512"><path fill="currentColor" d="M490.5-31.9C502.6-30.6 512-20.4 512-8l0 528c0 13.3-10.7 24-24 24s-24-10.7-24-24l0-120-256 0 0 120c0 13.3-10.7 24-24 24s-24-10.7-24-24l0-234.1-89.2-114.7c-1.6-2-4-3.2-6.5-3.2-4.5 0-8.2 3.7-8.2 8.2l0 103.7c0 9.7 3.5 19.1 9.9 26.3l24.3 27.8 5 6.2c10.9 15 16.8 33.1 16.8 51.8L112 520c0 13.3-10.7 24-24 24s-24-10.7-24-24l0-127.9c0-8.5-2.7-16.7-7.6-23.5l-2.3-2.8-24.3-27.8c-14-16-21.8-36.7-21.8-58L8 176.2c0-31.1 25.2-56.2 56.2-56.2 17.3 0 33.7 8 44.4 21.7l86.6 111.3 223.3-47-59.5-107.2c-4.6-8.3-7.1-17.7-7.1-27.2l0-79.7 .1-2.5C353.4-22.6 363.6-32 376-32l112 0 2.5 .1zM208 299.5l0 52.5 256 0 0-106.4-256 53.9zM400 71.7c0 1.4 .3 2.7 1 3.9l63 113.4 0-173-64 0 0 55.7zM64 80A56 56 0 1 1 64-32 56 56 0 1 1 64 80z"/></svg>