<svg xmlns="http://www.w3.org/2000/svg" viewBox="0 0 576 512"><path fill="currentColor" d="M224-32a56 56 0 1 1 0 112 56 56 0 1 1 0-112zM144 193.5l-23 28.1c-5.8 7.1-9 16.1-9 25.3l0 49.2c0 13.3-10.7 24-24 24s-24-10.7-24-24l0-49.2c0-20.3 7-40 19.9-55.7l27.2-33.3c23.8-29 59.3-45.9 96.8-45.9 37.7 0 73.3 17 97.1 46.2l73.7 90.7c8.4 10.3 6.8 25.4-3.5 33.8s-25.4 6.8-33.8-3.5l-61.4-75.5 0 146.2 21.2 14.1c21.1 14 35.1 36.5 38.4 61.6l12.2 91.3c1.8 13.1-7.5 25.2-20.6 27s-25.2-7.5-27-20.6L292 431.9c-1.5-11.4-7.9-21.6-17.5-28L183.2 343c-24.5-16.3-39.2-43.8-39.2-73.2l0-76.3zm88-29.6c-7.7-2.5-15.8-3.9-24.1-3.9-5.4 0-10.7 .6-15.9 1.7l0 108.1c0 13.4 6.7 25.9 17.8 33.3l22.2 14.8 0-154zM163.7 387.7l41.9 28-2 7c-4.1 14.4-11.8 27.5-22.4 38L105 537c-9.4 9.4-24.6 9.4-33.9 0s-9.4-24.6 0-33.9l76.3-76.3c4.8-4.8 8.3-10.8 10.2-17.3l6.2-21.8zm229.9-78.9c10.6-8 25.6-5.8 33.6 4.8l144 192c8 10.6 5.8 25.6-4.8 33.6s-25.6 5.8-33.6-4.8l-144-192c-8-10.6-5.8-25.6 4.8-33.6z"/></svg>