<svg xmlns="http://www.w3.org/2000/svg" viewBox="0 0 448 512"><path fill="currentColor" d="M192 80a56 56 0 1 0 0-112 56 56 0 1 0 0 112zm-16 96c0-7.3 4.9-13.5 11.6-15.4 1.4-.4 2.9-.6 4.4-.6 6.8 0 12.7 4.3 15 10.3 .7 1.8 1 3.7 1 5.7l0 142.1-17-13.6c-9.5-7.6-15-19.1-15-31.2l0-97.2zm80 180.5l0-138.7C272.1 232 292.9 240 314.5 240l53.5 0 0 280c0 13.3 10.7 24 24 24s24-10.7 24-24l0-400c0-13.3-10.7-24-24-24s-24 10.7-24 24l0 72-53.5 0c-10.6 0-20.8-4.2-28.3-11.7l-44.2-44.2c-11.6-14.5-29.4-23.9-49.4-24.1-.4 0-.8 0-1.3 0-35.1 .3-63.4 28.9-63.4 64l0 97.2c0 26.7 12.2 52 33 68.7l75.9 60.7c8 6.4 13.3 15.7 14.7 25.9l12.6 94.5c1.8 13.1 13.8 22.4 27 20.6s22.4-13.8 20.6-27l-12.6-94.5c-3-22.5-14.6-42.9-32.3-57.1L256 356.5zM132.4 375l-7.2 21.7c-1.6 4.8-4.1 9.3-7.4 13.2l-80 94.6c-8.6 10.1-7.3 25.3 2.8 33.8s25.3 7.3 33.8-2.8l80-94.6c7.2-8.5 12.8-18.4 16.3-29l1-3.1-36.2-31c-1.1-.9-2.1-1.8-3.1-2.8zM64 96C28.7 96 0 124.7 0 160l0 96c0 17.7 14.3 32 32 32l32 0c17.7 0 32-14.3 32-32l0-128c0-17.7-14.3-32-32-32z"/></svg>