<svg xmlns="http://www.w3.org/2000/svg" viewBox="0 0 384 512"><path fill="currentColor" d="M55.5-12.7c-2.6-13-15.2-21.4-28.2-18.8S5.9-16.3 8.5-3.3l6.9 34.5C26.6 87.4 63.3 133.1 112 157.3L112 520c0 13.3 10.7 24 24 24s24-10.7 24-24l0-152 64 0 0 152c0 13.3 10.7 24 24 24s24-10.7 24-24l0-362.7c48.7-24.2 85.4-69.9 96.6-126.1l6.9-34.5c2.6-13-5.8-25.6-18.8-28.2s-25.6 5.8-28.2 18.8l-6.9 34.5C309.2 83.5 255 128 192 128S74.8 83.5 62.4 21.8L55.5-12.7zM224 320l-64 0 0-146.8c10.4 1.9 21.1 2.8 32 2.8s21.6-1 32-2.8L224 320zM192 80a56 56 0 1 0 0-112 56 56 0 1 0 0 112z"/></svg>