<svg xmlns="http://www.w3.org/2000/svg" viewBox="0 0 576 512"><path fill="currentColor" d="M272 24c0-13.3-10.7-24-24-24s-24 10.7-24 24l0 13.4c0 47.8-25.1 92-66 116.6l-4.6 2.8C97.9 190.1 64 250 64 314.6L64 392c0 13.3 10.7 24 24 24s24-10.7 24-24l0-77.4c0-20 4.4-39.4 12.5-57L325.4 503.2c8.4 10.3 23.5 11.8 33.8 3.4s11.8-23.5 3.4-33.8l-104-127.1 45.3-39.6 2.4-2.1 74.1 0 48.8 62.7c8.1 10.5 23.2 12.3 33.7 4.2s12.3-23.2 4.2-33.7l-51.2-65.8c-7.6-9.7-19.2-15.4-31.6-15.4l-92.3 0-1.6-1.9-.4 .4-72.7-86C251.8 134.3 272 87.3 272 37.4L272 24zM253.7 286.1l-25.6 22.4-74.9-91.5c7.4-7.2 15.7-13.6 24.7-19l.7-.4 74.9 88.6zM72 144a56 56 0 1 0 0-112 56 56 0 1 0 0 112zM392 80.1l0-48c0-13.3-10.7-24-24-24s-24 10.7-24 24l0 48c0 13.3 10.7 24 24 24s24-10.7 24-24zm104 152l48 0c13.3 0 24-10.7 24-24s-10.7-24-24-24l-48 0c-13.3 0-24 10.7-24 24s10.7 24 24 24zm-54.5-97.5c9.4 9.4 24.6 9.4 33.9 0l33.9-33.9c9.4-9.4 9.4-24.6 0-33.9s-24.6-9.4-33.9 0l-33.9 33.9c-9.4 9.4-9.4 24.6 0 33.9z"/></svg>