<svg xmlns="http://www.w3.org/2000/svg" viewBox="0 0 640 512"><path fill="currentColor" d="M204 40.1c13.3 0 24-10.7 24-24l0-48c0-13.3-10.7-24-24-24s-24 10.7-24 24l0 48c0 13.3 10.7 24 24 24zM4 144.1c0 13.3 10.7 24 24 24l48 0c13.3 0 24-10.7 24-24s-10.7-24-24-24l-48 0c-13.3 0-24 10.7-24 24zM96.5 285.5l33.9-33.9c9.4-9.4 9.4-24.6 0-33.9s-24.6-9.4-33.9 0L62.6 251.6c-9.4 9.4-9.4 24.6 0 33.9s24.6 9.4 33.9 0zM62.6 2.7c-9.4 9.4-9.4 24.6 0 33.9L96.5 70.6c9.4 9.4 24.6 9.4 33.9 0s9.4-24.6 0-33.9L96.5 2.7C87.1-6.7 72-6.7 62.6 2.7zM408.4 24a56 56 0 1 0 -112 0 56 56 0 1 0 112 0zm-88 143.1c9.9-4.6 20.8-7.1 32-7.1s22.1 2.5 32 7.1l0 152.9-64 0 0-152.9zm0 352.9l0-152 64 0 0 152c0 13.3 10.7 24 24 24s24-10.7 24-24l0-302.4 60.5 84.4c7.7 10.8 22.7 13.2 33.5 5.5s13.2-22.7 5.5-33.5L452.7 163.5C429.6 131.2 392.2 112 352.4 112s-77.2 19.2-100.3 51.5L172.9 274c-7.7 10.8-5.2 25.8 5.5 33.5s25.8 5.2 33.5-5.5l60.5-84.4 0 302.4c0 13.3 10.7 24 24 24s24-10.7 24-24z"/></svg>