<svg xmlns="http://www.w3.org/2000/svg" viewBox="0 0 576 512"><path fill="currentColor" d="M176.5 80a56 56 0 1 0 0-112 56 56 0 1 0 0 112zm-80 137.4l0 302.6c0 13.3 10.7 24 24 24s24-10.7 24-24l0-152 64 0 0 152c0 13.3 10.7 24 24 24s24-10.7 24-24l0-299.5c12.9 16 29.7 28.4 48.8 36l49.4 19.8-9.1 25.1c-4.5 12.5 1.9 26.2 14.3 30.8s26.2-1.9 30.8-14.3l44.6-122.6 60.6 22c12.5 4.5 26.2-1.9 30.8-14.3L564.9 97.7c4.5-12.5-1.9-26.2-14.3-30.8l-60.6-22 4.6-12.7c4.5-12.5-1.9-26.2-14.3-30.8S454 3.3 449.5 15.8l-4.6 12.7-59.7-21.7c-12.5-4.5-26.2 1.9-30.8 14.3L316.1 126.3c-4.5 12.5 1.9 26.2 14.3 30.8l59.7 21.7-19.1 52.4-48-19.2c-12.6-5-23.5-13.5-31.5-24.5l-19.1-26.2c-22.5-31-58.5-49.3-96.8-49.3-37.3 0-72.4 17.4-95.1 47L5.4 257.4C-2.6 268-.6 283 9.9 291.1s25.6 6 33.6-4.5l52.9-69.2zm48-50.2c9.6-4.7 20.3-7.2 31.3-7.2 11.5 0 22.7 2.8 32.7 7.9l0 152.1-64 0 0-152.8zm224.9-47l21.9-60.1 120.3 43.8-21.9 60.1-120.3-43.8z"/></svg>