<svg xmlns="http://www.w3.org/2000/svg" viewBox="0 0 384 512"><path fill="currentColor" d="M120 24A56 56 0 1 0 8 24 56 56 0 1 0 120 24zM64.4 112C28.8 112 0 140.8 0 176.4L0 272c0 27.7 13 53.8 35.2 70.4L112 400c10.1 7.6 16 19.4 16 32l0 88c0 13.3 10.7 24 24 24s24-10.7 24-24l0-88c0-27.7-13-53.8-35.2-70.4l-12.8-9.6 0-97.9c16.5 21.2 42.1 33.9 69.4 33.9L352 288c17.7 0 32-14.3 32-32l0-128c0-17.7-14.3-32-32-32L224 96c-17.7 0-32 14.3-32 32l0 111.6c-12.3-1.7-23.2-9-29.4-20l-42.1-74.8C109.1 124.5 87.6 112 64.4 112zM0 520c0 13.3 10.7 24 24 24s24-10.7 24-24l0-111-37-29.6c-3.9-3.1-7.6-6.4-11-9.9L0 520zM80 176l0 144-20.3-20.3C52.2 292.2 48 282 48 271.4L48 176c0-8.8 7.2-16 16-16s16 7.2 16 16zm160 64l0-96 96 0 0 96-96 0z"/></svg>