<svg xmlns="http://www.w3.org/2000/svg" viewBox="0 0 640 512"><path fill="currentColor" d="M496 64a56 56 0 1 1 0 112 56 56 0 1 1 0-112zM460 240.6c-4.7-.4-9.4-.6-14.1-.5-12.1 .1-24.2 1.6-36 4.5-9.8-21.9-24.6-41.5-43.4-57.2-4.8-4-9.9-7.7-15.1-11.2l-86.6 74.3c-18.3-7.1-37.5-10.5-56.7-10.4-1.7 0-3.3 0-5 .1l99.5-85.3-41.4-11.8c-11-3.1-22.8-1.4-32.5 4.7l-63.7 40.6c-11.2 7.1-26 3.8-33.1-7.4s-3.8-26 7.4-33.1l63.7-40.6c21.2-13.5 47.2-17.3 71.4-10.4l47 13.4c27.8 8 53.7 21.6 76 40.2 29 24.1 50.5 55.4 62.8 90.1zm14.6 107.5c-21.3-16.1-49.9-16.1-71.2 0-24.2 18.3-52.3 35.9-83.4 35.9s-59.1-17.7-83.4-35.9c-21.3-16.1-49.9-16.1-71.2 0-23.8 17.9-54.1 35.5-88.1 35.3-20.4-.1-40.7-6.7-59.8-21.1-10.6-8-12.7-23-4.7-33.6s23-12.7 33.6-4.7c11.3 8.5 21.6 11.4 31.2 11.5 17.6 .1 37.3-9.4 58.9-25.7 38.4-29 90.5-29 129 0 24 18.1 40.7 26.3 54.5 26.3s30.5-8.2 54.5-26.3c38.4-29 90.5-29 129 0 16.9 12.7 32.9 21.5 47.8 24.6 13.7 2.8 27.4 .9 42.3-10.3 10.6-8 25.6-5.9 33.6 4.7s5.9 25.6-4.7 33.6c-26.4 19.9-54.2 24.4-80.7 19.1-25.3-5.1-48.1-18.9-67.2-33.3zm-71.2 96C379.1 462.3 351.1 480 320 480s-59.1-17.7-83.4-35.9c-21.3-16.1-49.9-16.1-71.2 0-23.8 17.9-54.1 35.5-88.1 35.3-20.4-.1-40.7-6.7-59.8-21.1-10.6-8-12.7-23-4.7-33.6s23-12.7 33.6-4.7c11.3 8.5 21.6 11.4 31.2 11.5 17.6 .1 37.3-9.4 58.9-25.7 38.4-29 90.5-29 129 0 24 18.1 40.7 26.3 54.5 26.3s30.5-8.2 54.5-26.3c38.4-29 90.5-29 129 0 16.9 12.7 32.9 21.5 47.8 24.6 13.7 2.8 27.4 .9 42.3-10.3 10.6-8 25.6-5.9 33.6 4.7s5.9 25.6-4.7 33.6c-26.4 19.9-54.2 24.4-80.7 19.1-25.3-5.1-48.1-18.9-67.2-33.3-21.3-16.1-49.9-16.1-71.2 0z"/></svg>