<svg xmlns="http://www.w3.org/2000/svg" viewBox="0 0 512 512"><path fill="currentColor" d="M120 24A56 56 0 1 0 8 24 56 56 0 1 0 120 24zM64.4 112C28.8 112 0 140.8 0 176.4L0 272c0 27.7 13 53.8 35.2 70.4L112 400c10.1 7.6 16 19.4 16 32l0 88c0 13.3 10.7 24 24 24s24-10.7 24-24l0-88c0-27.7-13-53.8-35.2-70.4l-12.8-9.6 0-97.9c16.5 21.2 42.1 33.9 69.4 33.9l58.6 0 0 162.7c-18.6 6.6-32 24.4-32 45.3 0 26.5 21.5 48 48 48 20.9 0 38.7-13.4 45.3-32L488 512c13.3 0 24-10.7 24-24s-10.7-24-24-24l-184 0 0-280c0-13.3-10.7-24-24-24s-24 10.7-24 24l0 56-58.6 0c-14.5 0-27.8-7.8-34.9-20.4l-42.1-74.8C109.1 124.5 87.6 112 64.4 112zM0 520c0 13.3 10.7 24 24 24s24-10.7 24-24l0-111-37-29.6c-3.9-3.1-7.6-6.4-11-9.9L0 520zM80 176l0 144-20.3-20.3C52.2 292.2 48 282 48 271.4L48 176c0-8.8 7.2-16 16-16s16 7.2 16 16z"/></svg>