<svg xmlns="http://www.w3.org/2000/svg" viewBox="0 0 384 512"><path fill="currentColor" d="M192 80a56 56 0 1 0 0-112 56 56 0 1 0 0 112zM128.2 336l48.4-164.5c2-6.7 8.3-11.5 15.5-11.5s13.5 4.8 15.5 11.5l48.4 164.5-127.7 0zm-.2 48l0 136c0 13.3 10.7 24 24 24s24-10.7 24-24l0-136 32 0 0 136c0 13.3 10.7 24 24 24s24-10.7 24-24l0-136 42.6 0c10.7 0 18.4-10.3 15.4-20.5L270.4 215.3 332.5 302c7.7 10.8 22.7 13.2 33.5 5.5s13.2-22.7 5.5-33.5L291.3 162.1c-22.5-31.4-58.9-50.1-97.5-50.1l-3.5 0c-38.7 0-75 18.7-97.5 50.1L12.5 274c-7.7 10.8-5.2 25.8 5.5 33.5s25.8 5.2 33.5-5.5L113.6 215.3 70 363.5C67 373.7 74.7 384 85.4 384l42.6 0z"/></svg>