<svg xmlns="http://www.w3.org/2000/svg" viewBox="0 0 640 512"><path fill="currentColor" d="M320 144a56 56 0 1 0 0-112 56 56 0 1 0 0 112zM150.2 78.8c-5.1-12.2-19.1-18-31.4-12.9s-18 19.1-12.9 31.4l14.7 35.3c18.9 45.3 58.9 78.4 106.9 88.3 .6 .1 1.2 .3 1.9 .4l-24.8 82.8c1.2 0 2.3-.1 3.5-.1 15.1-.1 30.2 2 44.8 6.3l25.9-86.3 75.8 0c.7 0 1.4 0 2.1 0L319.9 346.2c10.6 4.1 18.7 .5 33.7-10.8 7.7-5.8 15.8-10.8 24.1-15l29.3-97.5 1.8-5.8c3.6-.9 7.2-2 10.7-3.1l123.8-39.1c12.6-4 19.7-17.5 15.7-30.1s-17.5-19.7-30.1-15.7L405 168.2c-16.4 5.2-33.4 7.8-50.6 7.8l-96.7 0c-6.9 0-13.8-.7-20.5-2.1-32.5-6.8-59.6-29.1-72.4-59.8L150.2 78.8zM403.4 412.1c21.3-16.1 49.9-16.1 71.2 0 19 14.4 41.9 28.2 67.2 33.3 26.5 5.4 54.3 .8 80.7-19.1 10.6-8 12.7-23 4.7-33.6s-23-12.7-33.6-4.7c-14.9 11.2-28.6 13.1-42.3 10.3-14.9-3-30.9-11.9-47.8-24.6-38.4-29-90.5-29-129 0-24 18.1-40.7 26.3-54.5 26.3s-30.5-8.2-54.5-26.3c-38.4-29-90.5-29-129 0-21.6 16.3-41.3 25.8-58.9 25.7-9.6-.1-19.9-3-31.2-11.5-10.6-8-25.6-5.9-33.6 4.7S7 418.3 17.6 426.3c19.1 14.4 39.4 21 59.8 21.1 33.9 .2 64.3-17.4 88.1-35.3 21.3-16.1 49.9-16.1 71.2 0 24.2 18.3 52.3 35.9 83.4 35.9s59.1-17.7 83.4-35.9z"/></svg>