<svg xmlns="http://www.w3.org/2000/svg" viewBox="0 0 512 512"><path fill="currentColor" d="M389.3 493.8c-3.2 12.8-16.2 20.6-29.1 17.4-12.9-3.2-20.7-16.2-17.5-29.1l46.6 11.7zM458.8 18.1C462 5.3 475-2.5 487.9 .7s20.7 16.2 17.5 29.1l-116 464c-15.5-3.9-31-7.8-46.6-11.7l116-464zM248 64c13.3 0 24 10.8 24 24s-10.7 24-24 24l-130 0c-29.8 0-54 24.2-54 54 0 26.4 19.1 48.9 45.1 53.2l106.1 17.7c51.2 8.5 88.8 52.9 88.8 104.8 0 58.7-47.6 106.3-106.3 106.3L56 448c-13.3 0-24-10.7-24-24s10.8-24 24-24l141.7 0c32.2 0 58.3-26.1 58.3-58.3 0-28.5-20.6-52.8-48.7-57.5L101.2 266.5C52.1 258.3 16 215.8 16 166 16 109.7 61.7 64 118 64l130 0z"/></svg>