<svg xmlns="http://www.w3.org/2000/svg" viewBox="0 0 448 512"><path fill="currentColor" d="M104 32C90.7 32 80 42.7 80 56l0 72-24 0c-13.3 0-24 10.7-24 24s10.7 24 24 24l24 0 0 32-24 0c-13.3 0-24 10.7-24 24s10.7 24 24 24l24 0 0 200c0 13.3 10.7 24 24 24s24-10.7 24-24l0-104 96 0c65.6 0 122-39.5 146.7-96l37.3 0c13.3 0 24-10.7 24-24s-10.7-24-24-24l-24.8 0c.5-5.3 .8-10.6 .8-16s-.3-10.7-.8-16l24.8 0c13.3 0 24-10.7 24-24s-10.7-24-24-24l-37.3 0C346 71.5 289.6 32 224 32L104 32zm211.9 96l-187.9 0 0-48 96 0c38.1 0 71.7 19 91.9 48zM128 176l206.9 0c.7 5.2 1.1 10.6 1.1 16s-.4 10.8-1.1 16l-206.9 0 0-32zm187.9 80c-20.2 29-53.9 48-91.9 48l-96 0 0-48 187.9 0z"/></svg>