<svg xmlns="http://www.w3.org/2000/svg" viewBox="0 0 512 512"><path fill="currentColor" d="M0 147.9L0 176c0 26.5 21.5 48 48 48l11.6 0 32-48-43.6 0 0-25.9C78.3 126.6 151.7 80 256 80s177.7 46.6 208 70.1l0 25.9-43.6 0 32 48 11.6 0c26.5 0 48-21.5 48-48l0-28.1c0-12.7-5-24.9-15-32.9-32.8-26.2-118-83-241-83S47.7 88.8 15 115C5 123 0 135.2 0 147.9zM80 373.8c0-4.7 1.4-9.4 4-13.3l96.9-145.4c3-4.5 8-7.1 13.3-7.1l123.5 0c5.4 0 10.3 2.7 13.3 7.1L428 360.5c2.6 3.9 4 8.6 4 13.3l0 42.2c0 8.8-7.2 16-16 16L96 432c-8.8 0-16-7.2-16-16l0-42.2zm-48 0L32 416c0 35.3 28.7 64 64 64l320 0c35.3 0 64-28.7 64-64l0-42.2c0-14.2-4.2-28.1-12.1-39.9L371 188.5c-11.5-17.2-30.5-27.7-51-28.5l0-28c0-11-9-20-20-20s-20 9-20 20l0 28-48 0 0-28c0-11-9-20-20-20s-20 9-20 20l0 28c-20.5 .7-39.5 11.3-51 28.5L44.1 333.9C36.2 345.7 32 359.6 32 373.8zM320 320a64 64 0 1 0 -128 0 64 64 0 1 0 128 0z"/></svg>