<svg xmlns="http://www.w3.org/2000/svg" viewBox="0 0 512 512"><path fill="currentColor" d="M181.6 40.9c-11.9-26.2-41.6-39.1-68.9-30-62.3 20.8-116.2 83.7-102.6 160.9 30.6 173.7 156.5 299.6 330.2 330.2 77.2 13.6 140.1-40.4 160.9-102.6 9.1-27.3-3.9-57-30-68.9l-87.3-39.7c-23.4-10.6-51-4-67.1 16l-21.2 26.6c-48.9-27.3-88.9-68.8-114.4-118.8l24.2-19.3c20.1-16.1 26.7-43.7 16-67.1L181.6 40.9zM127.9 56.4c4-1.3 8.3 .6 10 4.4L177.6 148c1.5 3.4 .6 7.4-2.3 9.7l-38.9 31.1c-8.4 6.8-11.3 18.3-7 28.2 31.9 73.9 89.9 133.8 162.4 168.2 10.1 4.8 22.1 2 29-6.7l33.5-41.9c2.3-2.9 6.3-3.9 9.7-2.3l87.3 39.7c3.8 1.7 5.7 6 4.4 10-15.1 45.3-58.6 79.1-107 70.5-153.8-27.1-264.1-137.4-291.2-291.3-8.5-48.4 25.3-91.9 70.5-107zm364-36.3c-9.4-9.4-24.6-9.4-33.9 0L424 54.1 390.1 20.1c-9.4-9.4-24.6-9.4-33.9 0s-9.4 24.6 0 33.9l33.9 33.9-33.9 33.9c-9.4 9.4-9.4 24.6 0 33.9s24.6 9.4 33.9 0L424 121.9 458 155.9c9.4 9.4 24.6 9.4 33.9 0s9.4-24.6 0-33.9L458 88 491.9 54.1c9.4-9.4 9.4-24.6 0-33.9z"/></svg>