<svg xmlns="http://www.w3.org/2000/svg" viewBox="0 0 576 512"><path fill="currentColor" d="M493.2 387.5c26.9 10.1 57.1-1.8 69.9-27.5 29.3-58.7 23-141.3-41.2-186.3-144.5-101.2-322.5-101.2-467 0-64.2 45-70.5 127.6-41.2 186.3 12.9 25.7 43 37.6 69.9 27.5l89.8-33.7c24.1-9 38.9-33.2 36.1-58.8l-3.8-33.8c53.9-15.3 111.5-14.2 164.9 3.1l-3.4 30.7c-2.8 25.5 12 49.7 36.1 58.8l89.8 33.7zm27-48.9c-1.9 3.7-6.2 5.4-10.2 4l-89.8-33.7c-3.5-1.3-5.7-4.8-5.2-8.5l5.5-49.5c1.2-10.7-4.9-21-15-25-74.8-29.7-158.2-31.1-233.8-4.1-10.5 3.7-17 14.2-15.8 25.3l5.9 53.3c.4 3.7-1.7 7.2-5.2 8.5L66.9 342.5c-3.9 1.5-8.3-.3-10.2-4-21.3-42.7-14.5-97.3 25.8-125.5 127.9-89.6 283.9-89.6 411.9 0 40.3 28.2 47.1 82.9 25.8 125.5z"/></svg>