<svg xmlns="http://www.w3.org/2000/svg" viewBox="0 0 576 512"><path fill="currentColor" d="M535-24.9c9.4-9.4 24.6-9.4 33.9 0s9.4 24.6 0 33.9L41 537.1c-9.4 9.4-24.6 9.4-33.9 0s-9.4-24.6 0-33.9L137.1 373c-48.1-54.5-81.2-123.1-95-201.3-13.6-77.2 40.4-140.1 102.6-160.9 27.3-9.1 57 3.9 68.9 30l39.7 87.3c10.6 23.4 4 51-16 67.1l-24.2 19.3c9.1 17.8 20 34.6 32.5 50L535-24.9zM211.5 298.6c-20.5-24.4-37.5-51.8-50.3-81.5-4.3-9.9-1.4-21.5 7-28.2l38.9-31.1c2.9-2.3 3.9-6.3 2.3-9.7L169.9 60.7c-1.7-3.8-6-5.7-10-4.4-45.2 15.1-79.1 58.6-70.5 107 12 68.3 40.4 128 81.8 175.6l40.4-40.4zM372.3 501.9c-60.9-10.7-115.9-33.2-163.1-65.3L243.8 402c39.9 25.7 85.9 43.7 136.8 52.7 48.4 8.5 91.9-25.3 107-70.5 1.3-4-.6-8.3-4.4-10L396 334.4c-3.4-1.5-7.4-.6-9.7 2.3l-33.5 41.9c-7 8.7-19 11.5-29 6.7-14.1-6.7-27.6-14.3-40.4-22.8L318 327.8c3.1 1.9 6.3 3.8 9.5 5.5l21.2-26.6c16.1-20.1 43.7-26.7 67.1-16l87.3 39.7c26.2 11.9 39.1 41.6 30 68.9-20.7 62.3-83.7 116.2-160.9 102.6z"/></svg>