<svg xmlns="http://www.w3.org/2000/svg" viewBox="0 0 640 512"><path fill="currentColor" d="M495.5-49c9.4-9.4 24.6-9.4 33.9 0l96 96c9.4 9.4 9.4 24.6 0 33.9s-24.6 9.4-33.9 0l-96-96c-9.4-9.4-9.4-24.6 0-33.9zM177.2 10.9c27.3-9.1 57 3.9 68.9 30l39.7 87.3c10.6 23.4 4 51-16 67.1l-24.2 19.3c25.5 50 65.5 91.4 114.4 118.8l21.2-26.6c16.1-20.1 43.7-26.7 67.1-16l87.3 39.7c26.2 11.9 39.1 41.6 30 68.9-20.7 62.3-83.7 116.2-160.9 102.6-173.7-30.6-299.6-156.5-330.2-330.2-13.6-77.2 40.4-140.1 102.6-160.9zm25.2 49.9c-1.7-3.8-6-5.7-10-4.4-45.2 15.1-79.1 58.6-70.5 107 27.1 153.8 137.4 264.2 291.2 291.3 48.4 8.5 91.9-25.3 107-70.5 1.3-4-.6-8.3-4.4-10l-87.3-39.7c-3.4-1.5-7.4-.6-9.7 2.3l-33.5 41.9c-7 8.7-19 11.5-29 6.7-72.5-34.4-130.5-94.3-162.4-168.2-4.3-9.9-1.4-21.5 7-28.2l38.9-31.1c2.9-2.3 3.9-6.3 2.3-9.7L202.4 60.7zM401.5 79l96 96c9.4 9.4 9.4 24.6 0 33.9s-24.6 9.4-33.9 0l-96-96c-9.4-9.4-9.4-24.6 0-33.9s24.6-9.4 33.9 0zm63 1a32 32 0 1 1 64 0 32 32 0 1 1 -64 0zm-96 96a32 32 0 1 1 0 64 32 32 0 1 1 0-64z"/></svg>