<svg xmlns="http://www.w3.org/2000/svg" viewBox="0 0 576 512"><path fill="currentColor" d="M152.5 0L254.3 0c13.3 0 24 10.7 24 24s-10.7 24-24 24l-43.9 0 78.1 78.1 79-79c9.4-9.4 24.6-9.4 33.9 0s9.4 24.6 0 33.9l-96 96c-9.4 9.4-24.6 9.4-33.9 0l-95-95 0 43.9c0 13.3-10.7 24-24 24s-24-10.7-24-24l0-101.8c0-13.3 10.7-24 24-24zM563.1 488c-12.8 25.7-43 37.6-69.9 27.5l-89.8-33.7c-24.1-9-38.9-33.2-36.1-58.8l3.4-30.7c-53.4-17.3-111-18.3-164.9-3.1l3.8 33.8c2.8 25.5-12 49.8-36.1 58.8L83.7 515.5c-26.9 10.1-57.1-1.8-69.9-27.5-29.3-58.7-23-141.3 41.2-186.3 144.5-101.2 322.5-101.2 467 0 64.2 45 70.5 127.6 41.2 186.3zM510 470.6c3.9 1.5 8.3-.3 10.2-4 21.3-42.7 14.5-97.3-25.8-125.5-127.9-89.6-284-89.6-411.9 0-40.3 28.2-47.1 82.9-25.8 125.5 1.9 3.7 6.2 5.4 10.1 4l89.8-33.7c3.5-1.3 5.7-4.8 5.2-8.5L156 375c-1.2-11.1 5.3-21.5 15.8-25.3 75.6-27 159-25.6 233.8 4.1 10 4 16.2 14.2 15 25L415 428.4c-.4 3.7 1.7 7.2 5.2 8.5L510 470.6z"/></svg>