<svg xmlns="http://www.w3.org/2000/svg" viewBox="0 0 448 512"><path fill="currentColor" d="M64 80c-8.8 0-16 7.2-16 16l0 320c0 8.8 7.2 16 16 16l320 0c8.8 0 16-7.2 16-16l0-320c0-8.8-7.2-16-16-16L64 80zM0 96C0 60.7 28.7 32 64 32l320 0c35.3 0 64 28.7 64 64l0 320c0 35.3-28.7 64-64 64L64 480c-35.3 0-64-28.7-64-64L0 96zm296 32.7l2.8 .8c32.3 8.8 59.9 40.1 51.8 78.2-18.5 87.5-87.4 156.3-174.9 174.9-38.1 8.1-69.4-19.5-78.2-51.8l-.8-2.8c-2.7-9.8 2.4-20.1 11.8-24l48.7-20.3c8.3-3.4 17.8-1.1 23.5 5.9L193 304.6c34.3-17.3 62-45.9 78.1-80.9l-13.6-11.1c-6.9-5.7-9.3-15.2-5.9-23.5l20.3-48.7c3.9-9.4 14.2-14.4 24-11.8z"/></svg>