<svg xmlns="http://www.w3.org/2000/svg" viewBox="0 0 512 512"><path fill="currentColor" d="M64 80l384 0c8.8 0 16 7.2 16 16l0 320c0 8.8-7.2 16-16 16l-240 0 0 48 240 0c35.3 0 64-28.7 64-64l0-320c0-35.3-28.7-64-64-64L64 32C28.7 32 0 60.7 0 96L0 416c0 35.3 28.7 64 64 64l32 0c35.3 0 64-28.7 64-64l0-224c0-35.3-28.7-64-64-64l-32 0c-5.5 0-10.9 .7-16 2l0-34c0-8.8 7.2-16 16-16zM48 208l0-16c0-8.8 7.2-16 16-16l32 0c8.8 0 16 7.2 16 16l0 224c0 8.8-7.2 16-16 16l-32 0c-8.8 0-16-7.2-16-16l0-208zm192-80c-17.7 0-32 14.3-32 32l0 32c0 17.7 14.3 32 32 32l144 0c17.7 0 32-14.3 32-32l0-32c0-17.7-14.3-32-32-32l-144 0zm16 248a24 24 0 1 0 -48 0 24 24 0 1 0 48 0zm56 24a24 24 0 1 0 0-48 24 24 0 1 0 0 48zm104-24a24 24 0 1 0 -48 0 24 24 0 1 0 48 0zM232 320a24 24 0 1 0 0-48 24 24 0 1 0 0 48zm104-24a24 24 0 1 0 -48 0 24 24 0 1 0 48 0zm56 24a24 24 0 1 0 0-48 24 24 0 1 0 0 48z"/></svg>