<svg xmlns="http://www.w3.org/2000/svg" viewBox="0 0 512 512"><path fill="currentColor" d="M64 80c-8.8 0-16 7.2-16 16l0 320c0 8.8 7.2 16 16 16l48 0c8.8 0 16-7.2 16-16l0-320c0-8.8-7.2-16-16-16L64 80zm88 386c-11 8.8-24.9 14-40 14l-48 0c-35.3 0-64-28.7-64-64L0 96C0 60.7 28.7 32 64 32l48 0c15.1 0 29 5.3 40 14 11-8.8 24.9-14 40-14l256 0c35.3 0 64 28.7 64 64l0 320c0 35.3-28.7 64-64 64l-256 0c-15.1 0-29-5.3-40-14zM176 96l0 320c0 8.8 7.2 16 16 16l256 0c8.8 0 16-7.2 16-16l0-320c0-8.8-7.2-16-16-16L192 80c-8.8 0-16 7.2-16 16zm40 240a24 24 0 1 1 48 0 24 24 0 1 1 -48 0zm104-24a24 24 0 1 1 0 48 24 24 0 1 1 0-48zm56 24a24 24 0 1 1 48 0 24 24 0 1 1 -48 0zM259.2 128l121.6 0c19.4 0 35.2 15.8 35.2 35.2l0 57.6c0 19.4-15.8 35.2-35.2 35.2l-121.6 0c-19.4 0-35.2-15.8-35.2-35.2l0-57.6c0-19.4 15.8-35.2 35.2-35.2z"/></svg>