<svg xmlns="http://www.w3.org/2000/svg" viewBox="0 0 640 512"><path fill="currentColor" d="M576 48c8.8 0 16 7.2 16 16l0 224c0 8.8-7.2 16-16 16l-320 0c-8.8 0-16-7.2-16-16l0-224c0-8.8 7.2-16 16-16l320 0zM256 0c-35.3 0-64 28.7-64 64l0 224c0 35.3 28.7 64 64 64l320 0c35.3 0 64-28.7 64-64l0-224c0-35.3-28.7-64-64-64L256 0zM456 96c-8.3 0-16 4.3-20.4 11.3l-47.5 76.1-17.2-22.1c-4.5-5.8-11.5-9.3-18.9-9.3s-14.4 3.4-18.9 9.3l-56 72c-5.6 7.2-6.6 17-2.6 25.3S286.8 272 296 272l240 0c8.7 0 16.8-4.7 21-12.4s4-17-.6-24.4l-80-128C472 100.3 464.3 96 456 96zM336 112a32 32 0 1 0 -64 0 32 32 0 1 0 64 0zM120 128l-56 0c-35.3 0-64 28.7-64 64L0 416c0 35.3 28.7 64 64 64l320 0c35.3 0 64-28.7 64-64l0-16-48 0 0 16c0 8.8-7.2 16-16 16l-32 0 0-32-48 0 0 32-160 0 0-304-24 0zM96 176l0 56-48 0 0-40c0-8.8 7.2-16 16-16l32 0zm0 256l-32 0c-8.8 0-16-7.2-16-16l0-40 48 0 0 56zM48 328l0-48 48 0 0 48-48 0z"/></svg>