<svg xmlns="http://www.w3.org/2000/svg" viewBox="0 0 640 512"><path fill="currentColor" d="M256 48l288 0c8.8 0 16 7.2 16 16l0 125.9 27.1-4.9c7.1-1.3 14.1-1.5 20.9-.6L608 64c0-35.3-28.7-64-64-64L256 0c-35.3 0-64 28.7-64 64l0 224c0 35.3 28.7 64 64 64l96 0 0-48-96 0c-8.8 0-16-7.2-16-16l0-224c0-8.8 7.2-16 16-16zm97.8 224c6.2-27.7 28.5-49.7 57.4-55l120.2-21.8-54.9-87.9C472 100.3 464.3 96 456 96s-16 4.3-20.4 11.3l-47.5 76.1-17.2-22.1c-4.5-5.8-11.5-9.3-18.9-9.3s-14.4 3.4-18.9 9.3l-56 72c-5.6 7.2-6.6 17-2.6 25.3S286.8 272 296 272l57.8 0zM273.5 480c3.7-19.4 13.9-35.7 26.5-48l-156 0 0-304-80 0c-35.3 0-64 28.7-64 64L0 416c0 35.3 28.7 64 64 64l209.5 0zM304 144a32 32 0 1 0 0-64 32 32 0 1 0 0 64zM96 232l-48 0 0-40c0-8.8 7.2-16 16-16l32 0 0 56zm0 144l0 56-32 0c-8.8 0-16-7.2-16-16l0-40 48 0zm0-48l-48 0 0-48 48 0 0 48zm528-72.1c0-7.1-3.2-13.9-8.6-18.4s-12.7-6.5-19.7-5.2l-176 32c-11.4 2.1-19.7 12-19.7 23.6l0 161.6c-5.9-1.1-11.4-1.6-16-1.6-9.5 0-22.9 2.1-34.9 7.5-11.1 5-29.1 17.2-29.1 40.5s18 35.4 29.1 40.5c11.9 5.4 25.4 7.5 34.9 7.5s22.9-2.1 34.9-7.5c11.1-5 29.1-17.2 29.1-40.5l0-139.9 128-23.3 0 84.9c-5.9-1.1-11.4-1.6-16-1.6-9.5 0-22.9 2.1-34.9 7.5-11.1 5-29.1 17.2-29.1 40.5s18 35.4 29.1 40.5c11.9 5.4 25.4 7.5 34.9 7.5s22.9-2.1 34.9-7.5c11.1-5 29.1-17.2 29.1-40.5l0-208z"/></svg>