<svg xmlns="http://www.w3.org/2000/svg" viewBox="0 0 448 512"><path fill="currentColor" d="M24 32C10.8 32 0 42.7 0 56S10.8 80 24 80l88 0 0 229.4c0 44.9-11.4 89-33.2 128.2L75 444.3c-6.4 11.6-2.3 26.2 9.3 32.6s26.2 2.3 32.6-9.3l3.8-6.8c25.8-46.4 39.3-98.5 39.3-151.5l0-229.4 144 0 0 326.6c0 40.6 32.9 73.4 73.4 73.4 27.8 0 53.2-15.7 65.7-40.6l2.3-4.7c5.9-11.9 1.1-26.3-10.7-32.2s-26.3-1.1-32.2 10.7l-2.3 4.7c-4.3 8.6-13.1 14.1-22.8 14.1-14.1 0-25.4-11.4-25.4-25.4l0-326.6 72 0c13.3 0 24-10.7 24-24s-10.7-24-24-24L24 32z"/></svg>