<svg xmlns="http://www.w3.org/2000/svg" viewBox="0 0 576 512"><path fill="currentColor" d="M528 224l0 160c0 8.8-7.2 16-16 16l-76 0 0-87c7.3-5.9 12-14.9 12-25l0-64 80 0zM396 400l-88 0 0-87c7.3-5.9 12-14.9 12-25l0-64 64 0 0 64c0 10.1 4.7 19.1 12 25l0 87zm-128 0l-88 0 0-87c7.3-5.9 12-14.9 12-25l0-64 64 0 0 64c0 10.1 4.7 19.1 12 25l0 87zm-128 0l-76 0c-8.8 0-16-7.2-16-16l0-160 80 0 0 64c0 10.1 4.7 19.1 12 25l0 87zM528 176l-480 0 0-48c0-8.8 7.2-16 16-16l448 0c8.8 0 16 7.2 16 16l0 48zm48 0l0-48c0-35.3-28.7-64-64-64L64 64C28.7 64 0 92.7 0 128L0 384c0 35.3 28.7 64 64 64l448 0c35.3 0 64-28.7 64-64l0-208z"/></svg>