<svg xmlns="http://www.w3.org/2000/svg" viewBox="0 0 512 512"><path fill="currentColor" d="M432 384l0 32c0 8.8-7.2 16-16 16s-16-7.2-16-16l0-32-32 0 0 32c0 8.8-7.2 16-16 16s-16-7.2-16-16l0-32-96 0 0 32c0 8.8-7.2 16-16 16s-16-7.2-16-16l0-32-32 0 0 32c0 8.8-7.2 16-16 16s-16-7.2-16-16l0-32-32 0 0 32c0 8.8-7.2 16-16 16s-16-7.2-16-16l0-32-32 0 0 64c0 8.8 7.2 16 16 16l384 0c8.8 0 16-7.2 16-16l0-64-32 0zM48 336l416 0 0-8.4c0-6.1-3.4-11.6-8.8-14.3L396.8 284C359.5 265.4 336 227.4 336 185.7 336 109.7 274.3 48 198.3 48L192 48C112.5 48 48 112.5 48 192l0 144zm464-8.4L512 448c0 35.3-28.7 64-64 64L64 512c-35.3 0-64-28.7-64-64L0 192C0 86 86 0 192 0l6.3 0c102.6 0 185.7 83.2 185.7 185.7 0 23.5 13.2 44.9 34.2 55.4l58.4 29.2c21.7 10.8 35.4 33 35.4 57.2z"/></svg>