<svg xmlns="http://www.w3.org/2000/svg" viewBox="0 0 576 512"><path fill="currentColor" d="M528 224c0 20.4-2.9 40.2-8.4 58.8-54.8-112.3-146-203.6-258.4-258.4 18.6-5.5 38.3-8.4 58.8-8.4 114.9 0 208 93.1 208 208zm17.1 122l.4-.7c19.5-36.1 30.5-77.4 30.5-121.3 0-62-22.1-118.9-58.8-163.3L537 41c9.4-9.4 9.4-24.6 0-33.9S512.4-2.3 503 7L483.3 26.8C438.9-9.9 382-32 320-32 276.1-32 234.8-21 198.7-1.5l-.7 .4c-2.7 1.5-5.3 3-7.9 4.5-6.2 3.6-12.2 7.5-18 11.7-10.4 7.3-6.8 22.9 5.2 26.9 6.2 2.1 12.4 4.2 18.5 6.5 2.5 .9 5.1 1.9 7.6 2.9l.4 .2c58.3 23 111.4 56.4 157 97.9L39 471c-9.4 9.4-9.4 24.6 0 33.9s24.6 9.4 33.9 0L394.6 183.3c41.5 45.6 74.9 98.6 97.9 157l.2 .4c1 2.5 2 5 2.9 7.6 2.3 6.1 4.5 12.3 6.5 18.5 4 12.1 19.5 15.6 26.9 5.2 4.1-5.8 8-11.8 11.7-18 1.5-2.6 3-5.3 4.5-7.9z"/></svg>