<svg xmlns="http://www.w3.org/2000/svg" viewBox="0 0 576 512"><path fill="currentColor" d="M448 544a128 128 0 1 1 0-256 128 128 0 1 1 0 256zm0-76a20 20 0 1 0 0 40 20 20 0 1 0 0-40zM257.8 28.3c34.4-34.3 90.1-34.4 124.4 0L517.5 163.5c26.9 26.9 32.6 66.9 17.4 99.4-13.8-7.9-28.8-13.9-44.7-17.8 8.4-15.2 6.2-34.7-6.7-47.7L348.3 62.2c-15.6-15.6-40.9-15.6-56.6 0L178 176 309.6 307.2c-10.2 13-18.6 27.4-24.9 43L155.4 221.3 167.9 333.3c.8 7.3-1.8 14.6-7.1 19.8L97.5 415.1c-8.5 8.3-8.5 21.9-.2 30.2l3.3 2.7c8.2 5.4 19.3 4.6 26.6-2.5l64-62.6 2-1.8c4.9-3.8 11.2-5.6 17.4-4.9l64.4 7.1c-2 10.6-3.1 21.5-3.1 32.7 0 5.2 .3 10.3 .7 15.3l-56-6.2-55.9 54.7C135.4 504.6 95.6 506 68.6 484l-5.2-4.7c-27.2-27.3-27-71.5 .5-98.5l54.9-53.8-11.3-101.8c-2.9-26.6 6.4-53 25.2-71.9l125-125zM376 396a20 20 0 1 0 0 40 20 20 0 1 0 0-40zm72 0a20 20 0 1 0 0 40 20 20 0 1 0 0-40zm72 0a20 20 0 1 0 0 40 20 20 0 1 0 0-40zm-72-72a20 20 0 1 0 0 40 20 20 0 1 0 0-40z"/></svg>