<svg xmlns="http://www.w3.org/2000/svg" viewBox="0 0 512 512"><path fill="currentColor" d="M448 32c35.3 0 64 28.7 64 64l0 112-48 0 0-112c0-8.8-7.2-16-16-16L64 80c-8.8 0-16 7.2-16 16l0 320c0 8.8 7.2 16 16 16l144 0 0 48-144 0-6.5-.3c-30.1-3.1-54.1-27-57.1-57.1L0 416 0 96C0 62.9 25.2 35.6 57.5 32.3L64 32 448 32zm16 224c26.5 0 48 21.5 48 48l0 128-.2 4.9C509.3 461.1 488.9 480 464 480l-160 0-4.9-.2c-22.6-2.3-40.6-20.3-42.8-42.8l-.2-4.9 0-128c0-26.5 21.5-48 48-48l160 0zM304 432l160 0 0-128-160 0 0 128z"/></svg>