<svg xmlns="http://www.w3.org/2000/svg" viewBox="0 0 576 512"><path fill="currentColor" d="M352.4 54l0 138 138 0C473 124.6 419.9 71.4 352.4 54zm-144 210l0-173.1c-74.6 26.4-128 97.5-128 181.1 0 106 86 192 192 192 24.6 0 48-4.6 69.5-12.9L225 309.9c-10.7-12.9-16.6-29.2-16.6-45.9zm333.9-55.9c2.3 17.5-12.2 31.9-29.9 31.9l-176 0c-17.7 0-32-14.3-32-32l0-176c0-17.7 14.4-32.2 31.9-29.9 107 14.2 191.8 99 206 206zM256.4 66.7l0 197.3c0 5.6 2 11 5.5 15.3L394 438.7c11.7 14.1 9.2 35.4-6.9 44.1-34.1 18.6-73.2 29.2-114.7 29.2-132.5 0-240-107.5-240-240 0-115.5 81.5-211.9 190.2-234.8 18.1-3.8 33.8 11 33.8 29.5zM541.7 288c18.5 0 33.3 15.7 29.5 33.8-10.2 48.4-35 91.4-69.6 124.2-12.3 11.7-31.6 9.2-42.4-3.9L374.9 340.4c-17.3-20.9-2.4-52.4 24.6-52.4l142.2 0z"/></svg>