<svg xmlns="http://www.w3.org/2000/svg" viewBox="0 0 576 512"><path fill="currentColor" d="M192 64a96 96 0 1 1 192 0 96 96 0 1 1 -192 0zM40 286.5c0-72.9 47-133.2 114.9-167.5 6.2 15 14.9 28.7 25.5 40.6-56.9 27.7-92.4 76.2-92.4 126.9 0 45.8 27.8 87.3 75.9 114.6 7.5 4.3 12.1 12.2 12.1 20.9l0 34c0 4.4 3.6 8 8 8l30.1 0c2.9 0 5.6-1.6 7-4.2l9.4-17.4c4.7-8.7 14.2-13.6 24-12.4 10.9 1.3 22.1 2 33.6 2s22.7-.7 33.6-2c9.8-1.2 19.3 3.8 24 12.4l9.4 17.4c1.4 2.6 4.1 4.2 7 4.2l30.1 0c4.4 0 8-3.6 8-8l0-34c0-8.6 4.6-16.6 12.1-20.9 13.6-7.7 25.6-16.6 35.8-26.5 4.5-4.3 10.4-6.7 16.6-6.7l63.4 0 0-96-21.5 0c-10.7 0-20.1-7.1-23.1-17.3-3-10.2-7.3-20.1-13-29.6-3.5-5.9-4.4-13-2.3-19.5l19.2-61.5-7.4 0c-18.2 0-34.7 6.7-47.4 17.8-7.6 6.6-18.5 7.8-27.3 3-3.2-1.7-6.4-3.4-9.7-5 12.9-14.4 22.9-31.5 29.1-50.3 16.6-8.6 35.4-13.5 55.3-13.5l18.2 0c27 0 46.2 26.2 38.2 51.9L517 210c2.4 4.6 4.5 9.2 6.5 14l4.5 0c26.5 0 48 21.5 48 48l0 96c0 26.5-21.5 48-48 48l-54.1 0c-8 7-16.7 13.6-25.9 19.5l0 20.5c0 30.9-25.1 56-56 56l-30.1 0c-20.6 0-39.5-11.3-49.3-29.4l-1.8-3.4c-15 1-30.7 1-45.7 0l-1.8 3.4c-9.8 18.1-28.7 29.4-49.3 29.4L184 512c-30.9 0-56-25.1-56-56l0-20.5c-52.4-34-88-86.4-88-149zM424 272a24 24 0 1 1 0 48 24 24 0 1 1 0-48zM216 192l144 0c13.3 0 24 10.7 24 24s-10.7 24-24 24l-144 0c-13.3 0-24-10.7-24-24s10.7-24 24-24z"/></svg>