<svg xmlns="http://www.w3.org/2000/svg" viewBox="0 0 512 512"><path fill="currentColor" d="M175.5 408c-3.9 31.6-30.9 56-63.5 56-35.3 0-64-28.7-64-64l0-128 153.7 0c6.4-11.1 13.9-21.5 22.3-31l0-129C224 50.1 173.9 0 112 0S0 50.1 0 112L0 400c0 61.9 50.1 112 112 112 37.3 0 70.3-18.2 90.7-46.3-10.4-17.6-18.1-37.1-22.5-57.7l-4.7 0zm.5-184l-128 0 0-112c0-35.3 28.7-64 64-64s64 28.7 64 64l0 112zM368 464c-17.8 0-34.5-4.8-48.8-13.3L450.7 319.2c8.4 14.3 13.3 31 13.3 48.8 0 53-43 96-96 96zm-82.7-47.2c-8.4-14.3-13.3-31-13.3-48.8 0-53 43-96 96-96 17.8 0 34.5 4.8 48.8 13.3L285.3 416.8zM368 512a144 144 0 1 0 0-288 144 144 0 1 0 0 288z"/></svg>