<svg xmlns="http://www.w3.org/2000/svg" viewBox="0 0 512 512"><path fill="currentColor" d="M224-32c35.3 0 64 28.7 64 64l0 112 120 0c57.4 0 104 46.6 104 104l0 200c0 35.3-28.7 64-64 64l-32 0c-35.3 0-64-28.7-64-64l0-16-96 0 0 16c0 35.3-28.7 64-64 64l-32 0c-35.3 0-64-28.7-64-64l0-241.2-47.2-23.6C18.9 168.3 0 137.7 0 104.3 0 55.5 39.5 16 88.3 16l73.8 0c7.1-27.6 32.1-48 61.9-48zM412.8 362.3c-11.5 7.5-26.1 7.8-37.8 1l-4.8-3.3-18.7-15.3-26.8 17.6c-11.5 7.5-26.1 7.8-37.8 1l-4.8-3.3-18.7-15.3-26.8 17.6c-11.5 7.5-26.1 7.8-37.7 1l-4.8-3.3-18.7-15.3-31.6 20.7 0 82.6c0 8.8 7.2 16 16 16l32 0c8.8 0 16-7.2 16-16l0-40c0-13.3 10.7-24 24-24l144 0c13.3 0 24 10.7 24 24l0 40c0 8.8 7.2 16 16 16l32 0c8.8 0 16-7.2 16-16l0-83.3-24.4-20-26.8 17.6zm0-88c-11.5 7.5-26.1 7.8-37.8 1l-4.8-3.3-18.7-15.3-26.8 17.6c-11.5 7.5-26.1 7.8-37.8 1l-4.8-3.3-18.7-15.3-26.8 17.6c-11.5 7.5-26.1 7.8-37.7 1l-4.8-3.3-18.7-15.3-31.6 20.7 0 40.2 12.1-7.9 5.1-2.8c10.5-4.7 22.7-4 32.6 1.8l4.8 3.3 18.7 15.3 26.8-17.5 5.1-2.8c10.5-4.7 22.7-4 32.6 1.8l4.8 3.3 18.7 15.3 26.8-17.5 5.1-2.8c10.5-4.7 22.7-4 32.6 1.8l4.8 3.3 18.7 15.3 26.8-17.5 5.1-2.8c10.5-4.7 22.7-4 32.6 1.8l4.8 3.3 1.4 1.1 0-36.3-24.4-20-26.8 17.6zM224 16c-8.8 0-16 7.2-16 16l0 8-.1 2.5C206.6 54.6 196.4 64 184 64L88.3 64c-22.2 0-40.3 18-40.3 40.3 0 15.3 8.6 29.2 22.2 36l60.5 30.2 2.9 1.7C140.1 176.7 144 184 144 192l0 37.6 12.1-7.9 5.1-2.8c10.5-4.7 22.7-4 32.6 1.8l4.8 3.3 18.7 15.3 26.8-17.5 5.1-2.8c10.5-4.7 22.7-4 32.6 1.8l4.8 3.3 18.7 15.3 26.8-17.5 5.1-2.8c10.5-4.7 22.7-4 32.6 1.8l4.8 3.3 18.7 15.3 26.8-17.5 5.1-2.8c10-4.5 21.5-4 31.2 1-9.7-16.7-27.7-27.9-48.4-27.9l-144 0c-13.3 0-24-10.7-24-24l0-136c0-8.8-7.2-16-16-16zM168 144a24 24 0 1 1 0-48 24 24 0 1 1 0 48z"/></svg>