<svg xmlns="http://www.w3.org/2000/svg" viewBox="0 0 448 512"><path fill="currentColor" d="M400 128a48 48 0 1 0 -96 0 48 48 0 1 0 96 0zM352 32a96 96 0 1 1 0 192 96 96 0 1 1 0-192zM22.5 226.3c34.1-40.6 94.6-45.9 135.2-11.8l246 208.3-19.7 25.2-.1 .1 .1 0 28 15.4-1.4 2.4c-7.8 11.6-22.6 17.2-36.5 12.6L66.3 379.3c-9-2.9-17.4-7.1-24.8-12.3l-7.2-5.5c-40.6-34.1-46-94.7-11.9-135.3zM384 448l19.7-25.2c12.5 9.8 15.8 27.1 8.3 40.6L384 448zM122.9 248.3c-20.1-13.7-47.7-10.2-63.7 8.9-17 20.3-14.4 50.6 5.9 67.7l0 0c4.5 3.8 9.9 6.9 16 8.8l0 0 230.8 74.3-185.1-156.8-3.9-2.9zM96 264a24 24 0 1 1 0 48 24 24 0 1 1 0-48z"/></svg>