<svg xmlns="http://www.w3.org/2000/svg" viewBox="0 0 640 512"><path fill="currentColor" d="M426.5 36.6C442 13.7 467.8 0 495.4 0L616 0c13.3 0 24 10.7 24 24s-10.7 24-24 24l-43 0-252.3 385.1C288.4 482.3 233.5 512 174.6 512 78.2 512 0 433.8 0 337.4L0 231.7c0-29.4 23.7-53.3 53.1-53.6l180.8-1.8c29.8-.3 54.1 23.8 54.1 53.6l0 11.7 138.5-205zM515.6 48l-20.1 0c-11.7 0-22.6 5.8-29.2 15.5l-76 112.5 41.5 0 83.9-128zM400.3 224l-42.4 0-73.9 109.4c-5.9 8.7-16.8 12.6-26.9 9.5s-17-12.4-17-22.9l0-90.1c0-3.1-2.5-5.6-5.7-5.6L53.5 226.1c-3.1 0-5.5 2.5-5.5 5.6l0 105.7c0 69.9 56.7 126.6 126.6 126.6 42.7 0 82.5-21.5 105.9-57.2L400.3 224z"/></svg>