<svg xmlns="http://www.w3.org/2000/svg" viewBox="0 0 448 512"><path fill="currentColor" d="M376.8 5.4C386.3-2.3 400.2-1.8 409 7s9.3 22.7 1.7 32.1c-5.1 5.6-10.2 11.2-15 17.1-8.4 10.4-19.7 25.6-30.9 44.9-19.7 33.7-38.9 78.7-43.6 130.9L424 232c13.3 0 24 10.7 24 24s-10.7 24-24 24l-102.9 0c4.7 52.2 23.9 97.2 43.6 130.9 11.3 19.3 22.5 34.5 30.9 44.9 4.8 5.9 9.9 11.5 15 17.1 7.7 9.4 7.1 23.3-1.7 32.1s-22.7 9.3-32.1 1.7c-6.8-6.2-12.7-13.5-18.5-20.7-9.6-11.9-22.3-29.1-35.1-50.8-22.5-38.5-45.5-92-50.3-155.1L175 280c-4.8 63.2-27.8 116.6-50.3 155.1-12.7 21.7-25.5 39-35.1 50.8-5.8 7.2-11.7 14.4-18.5 20.7-9.4 7.7-23.3 7.1-32.1-1.7s-9.3-22.7-1.7-32.1c5.1-5.6 10.2-11.2 15-17.1 8.4-10.4 19.7-25.6 30.9-44.9 19.7-33.7 38.9-78.7 43.6-130.9L24 280c-13.3 0-24-10.7-24-24s10.7-24 24-24l102.9 0c-4.7-52.2-23.9-97.2-43.6-130.9-11.3-19.3-22.5-34.5-30.9-44.9-4.8-5.9-9.9-11.5-15-17.1-7.7-9.4-7.1-23.3 1.7-32.1S61.7-2.3 71.2 5.4c6.8 6.2 12.7 13.5 18.5 20.7 9.6 11.9 22.3 29.1 35.1 50.8 22.5 38.5 45.5 92 50.3 155.1l97.9 0c4.8-63.2 27.8-116.6 50.3-155.1 12.7-21.7 25.5-39 35.1-50.8 5.8-7.2 11.7-14.4 18.5-20.7z"/></svg>