<svg xmlns="http://www.w3.org/2000/svg" viewBox="0 0 576 512"><path fill="currentColor" d="M254.2 322.1c-8.4 3.8-14.2 12.2-14.2 21.9 0 13.3 10.7 24 24 24 9.8 0 18.2-5.8 21.9-14.2L315.1 383c-17.9 8.4-38 13-59.1 13-77.3 0-140-62.7-140-140s62.7-140 140-140c21.1 0 41.1 4.7 59.1 13l-81.7 81.7c-25 25-25 65.5 0 90.5l20.8 20.8zm90.5 90.5l20.4 20.4C333.5 452.7 296.1 464 256 464 141.1 464 48 370.9 48 256S141.1 48 256 48c40.1 0 77.5 11.3 109.2 30.9L344.7 99.4C318.6 84.5 288.2 76 256 76 156.6 76 76 156.6 76 256s80.6 180 180 180c32.2 0 62.6-8.5 88.7-23.4zM425.4 448c6.6-5.8 6.6-16 .3-22.3L267.3 267.3c-6.2-6.2-6.2-16.4 0-22.6L425.7 86.3C432 80 432 69.9 425.4 64 380.2 24.2 320.9 0 256 0 114.6 0 0 114.6 0 256S114.6 512 256 512c64.9 0 124.2-24.2 169.4-64zm71.7-82.8l-20.4-20.4C491.5 318.6 500 288.2 500 256s-8.5-62.6-23.4-88.7l20.4-20.4C516.7 178.5 528 215.9 528 256s-11.3 77.5-30.9 109.2zM460 256c0 21.1-4.7 41.1-13 59.1L387.9 256 447 196.9c8.4 17.9 13 38 13 59.1zm52 169.4c39.8-45.1 64-104.4 64-169.4S551.8 131.8 512 86.6c-5.8-6.6-16-6.6-22.3-.3L331.3 244.7c-6.2 6.2-6.2 16.4 0 22.6L489.7 425.7c6.2 6.2 16.4 6.3 22.3-.3zM216 192a24 24 0 1 0 0-48 24 24 0 1 0 0 48zm-32 64a24 24 0 1 0 -48 0 24 24 0 1 0 48 0z"/></svg>