<svg xmlns="http://www.w3.org/2000/svg" viewBox="0 0 512 512"><path fill="currentColor" d="M188.8 198.4l-44.8 33.6 0 232 48 0 0-80c0-35.3 28.7-64 64-64s64 28.7 64 64l0 80 48 0 0-232c-34.1-25.6-55.5-41.6-64-48l0-97.5-48-40-48 40 0 97.5-19.2 14.4zM416 464l32 0c8.8 0 16-7.2 16-16l0-104.4c0-6.1-3.4-11.6-8.8-14.3L416 309.7 416 464zm0-208l60.6 30.3c21.7 10.8 35.4 33 35.4 57.2L512 448c0 35.3-28.7 64-64 64-576 0-296 0-384 0-35.3 0-64-28.7-64-64L0 343.6c0-24.2 13.7-46.4 35.4-57.2L96 256 96 232c0-15.1 7.1-29.3 19.2-38.4L160 160 160 79c0-9.5 4.2-18.5 11.5-24.6L240.6-3.2c8.9-7.4 21.8-7.4 30.7 0l69.1 57.6C347.8 60.5 352 69.5 352 79l0 81 44.8 33.6c12.1 9.1 19.2 23.3 19.2 38.4l0 24zM96 309.7L56.8 329.2c-5.4 2.7-8.8 8.2-8.8 14.3L48 448c0 8.8 7.2 16 16 16l16 0 0 0 16 0 0-154.3z"/></svg>