<svg xmlns="http://www.w3.org/2000/svg" viewBox="0 0 512 512"><path fill="currentColor" d="M256-32c-44.2 0-80 35.8-80 80L176 148.1 7.8 302.3c-5 4.5-7.8 11-7.8 17.7l0 72c0 7.7 3.7 15 10 19.5s14.3 5.7 21.6 3.3l144.4-48.1 0 39.4-57 57c-4.5 4.5-7 10.6-7 17l0 40c0 7.5 3.5 14.5 9.4 19s13.6 6.1 20.8 4.2L256 512.8 369.8 543.2c7.2 1.9 14.9 .4 20.8-4.2s9.4-11.6 9.4-19l0-40c0-6.4-2.5-12.5-7-17l-57-57 0-39.4 144.4 48.1c7.3 2.4 15.4 1.2 21.6-3.3s10-11.8 10-19.5l0-80c0-6.9-3-13.5-8.2-18.1L336 147.1 336 48c0-44.2-35.8-80-80-80zM224 48c0-17.7 14.3-32 32-32s32 14.3 32 32l0 110c0 .7 0 1.3 .1 2l-.1 0 0 256c0 6.4 2.5 12.5 7 17l55.4 55.4-88.2-23.5c-4.1-1.1-8.3-1.1-12.4 0L161.6 488.3 217 433c4.5-4.5 7-10.6 7-17l0-256 0 0c0-.4 0-.9 0-1.3L224 48zM176 213.2l0 102.8-128 42.7 0-28.1 128-117.3zM336 316l0-105.1 128 112 0 35.8-128-42.7z"/></svg>