<svg xmlns="http://www.w3.org/2000/svg" viewBox="0 0 512 512"><path fill="currentColor" d="M344-32c61.9 0 112 50.1 112 112l0 11.4c31.3 9.2 52.6 36.3 55.6 71l.4 8.7c0 27.9-25.3 74.8-66 111.7-3.8 3.5-8.8 5.3-14 5.3s-10.2-1.8-14-5.3c-40.7-36.8-66-83.7-66-111.7l.4-8.7c3.1-34.6 24.3-61.8 55.6-71L408 80c0-35.3-28.7-64-64-64s-64 28.7-64 64l0 440c0 13.3-10.7 24-24 24s-24-10.7-24-24l0-312c0-35.3-28.7-64-64-64s-64 28.7-64 64l0 40.2c0 1-.1 2-.2 3 31.4 9.1 52.8 36.3 55.8 71.1l.4 8.7c0 27.9-25.3 74.8-66 111.7-3.8 3.5-8.8 5.3-14 5.3s-10.2-1.8-14-5.3C25.3 405.9 0 359 0 331.1l.4-8.7c3.1-34.7 24.4-61.9 55.8-71-.1-1-.2-2-.2-3.1L56 208c0-61.9 50.1-112 112-112 23.8 0 45.9 7.4 64 20.1L232 80c0-61.9 50.1-112 112-112zM80 296c-18.3 0-32 11.9-32 35.1 0 0 0 .7 .3 2.3 .3 1.6 .8 3.7 1.7 6.4 1.8 5.4 4.9 12.2 9.3 19.8 5.4 9.3 12.3 19.2 20.7 28.8 8.3-9.7 15.3-19.6 20.7-28.8 4.4-7.7 7.4-14.4 9.3-19.8 .9-2.7 1.4-4.8 1.7-6.4 .3-1.5 .3-2.3 .3-2.3 0-23.1-13.7-35.1-32-35.1zM432 136c-18.3 0-32 11.9-32 35.1 0 0 0 .7 .3 2.3 .3 1.6 .8 3.7 1.8 6.4 1.8 5.4 4.9 12.2 9.3 19.8 5.4 9.3 12.3 19.2 20.7 28.8 8.3-9.7 15.3-19.6 20.7-28.8 4.4-7.7 7.4-14.4 9.3-19.8 .9-2.7 1.4-4.8 1.8-6.4 .3-1.5 .3-2.3 .3-2.3 0-23.1-13.7-35.1-32-35.1z"/></svg>