<svg xmlns="http://www.w3.org/2000/svg" viewBox="0 0 640 512"><path fill="currentColor" d="M288-32c-44.2 0-80 35.8-80 80l0 100.1-168.2 154.2c-5 4.5-7.8 11-7.8 17.7l0 72c0 7.7 3.7 15 10 19.5s14.3 5.7 21.6 3.3l144.4-48.1 0 39.4-57 57c-4.5 4.5-7 10.6-7 17l0 40c0 7.5 3.5 14.5 9.4 19s13.6 6.1 20.8 4.2l113.8-30.4 89 23.7c-5.8-12.3-9-26.1-9-40.7l0-11.4-73.8-19.7c-4.1-1.1-8.3-1.1-12.4 0L193.6 488.3 249 433c4.5-4.5 7-10.6 7-17l0-256 0 0c0-.4 0-.9 0-1.3L256 48c0-17.7 14.3-32 32-32s32 14.3 32 32l0 110c0 .7 0 1.3 .1 2l-.1 0 0 256c0 6.4 2.5 12.5 7 17l41 41 0-107.3 5.3 1.8c5.4-15.6 14.7-29.3 26.7-40l0-1.7-32-10.7 0-105.1 44.1 38.6c6.9-14.7 16.6-27.9 28.4-39L368 147.1 368 48c0-44.2-35.8-80-80-80zM208 213.2l0 102.8-128 42.7 0-28.1 128-117.3zm352 90.9l0 47.9-64 0 0-47.9c0-17.7 14.3-32 32-32s32 14.3 32 32zM416 400l0 96c0 26.5 21.5 48 48 48l128 0c26.5 0 48-21.5 48-48l0-96c0-20.9-13.4-38.7-32-45.3l0-50.6c0-44.2-35.8-80-80-80s-80 35.8-80 80l0 50.6c-18.6 6.6-32 24.4-32 45.3z"/></svg>