<svg xmlns="http://www.w3.org/2000/svg" viewBox="0 0 640 512"><path fill="currentColor" d="M517.6 134.1c16.6-6 35 2.5 41 19.1s-2.5 35-19.1 41L201.2 317.4c-3.4 1.2-11.7 4.3-25 9.1-18.2 6.6-38.5-.7-48.2-17.4l-48.8-83.5 1.2-.4 73 34c5.8 2.7 12.4 3 18.4 .8l77.7-28.3c7.2-2.6 12.8-8.6 14.9-16s.5-15.4-4.3-21.4L165.5 75 191.9 65.3 394.4 170.7c6 3.1 13 3.6 19.3 1.3l104-37.8zm86.1 2.7c-15.1-41.5-61-62.9-102.5-47.8L407.1 123.2 204.7 17.9c-6-3.1-13-3.6-19.3-1.3L117.8 41.3c-7.2 2.6-12.8 8.6-14.9 16s-.5 15.4 4.3 21.4l94.6 119.2-37 13.5-73-34c-5.8-2.7-12.4-3-18.4-.8L35.8 190.3c-6.7 2.4-11.9 7.7-14.4 14.4s-1.7 14.1 1.9 20.3L86.6 333.3c21.5 36.7 66.1 52.8 106.1 38.3 13.3-4.8 21.6-7.9 25-9.1L555.9 239.3c41.5-15.1 62.9-61 47.8-102.5zM56.1 464c-13.3 0-24 10.7-24 24s10.7 24 24 24l528 0c13.3 0 24-10.7 24-24s-10.7-24-24-24l-528 0z"/></svg>