<svg xmlns="http://www.w3.org/2000/svg" viewBox="0 0 512 512"><path fill="currentColor" d="M68.8 9.6C73.3 3.6 80.5 0 88 0l75.6 0c24.9 0 48.6 10.5 65.3 29l204.9 226.9-.1 .1 78.3 0 0 48-417.9 0c-7.8 0-14.1 6.3-14.1 14.1 0 4.2 1.9 8.2 5.1 10.9 105.6 87.3 238.5 135.1 375.5 135.1l51.4 0 0 48-51.4 0C312.4 512 168.8 460.3 54.5 365.9 40.3 354.1 32 336.6 32 318.1 32 283.8 59.8 256 94.1 256L130.4 256 65 30.7c-2.1-7.2-.7-15.1 3.9-21.1zM193.2 61.2C185.7 52.8 174.9 48 163.6 48l-43.6 0 60.4 208 188.9 0-176-194.8zM304 352l120 0c13.3 0 24 10.7 24 24s-10.7 24-24 24l-120 0c-13.3 0-24-10.7-24-24s10.7-24 24-24z"/></svg>