<svg xmlns="http://www.w3.org/2000/svg" viewBox="0 0 576 512"><path fill="currentColor" d="M464.7 398.9l47.7 15.9c7.3 2.4 15.4 1.2 21.6-3.3s10-11.8 10-19.5l0-80c0-6.9-3-13.5-8.2-18.1L368 147.1 368 48c0-44.2-35.8-80-80-80S208 3.8 208 48l0 94.2-167-167c-9.4-9.4-24.6-9.4-33.9 0S-2.3-.3 7 9.1l528 528c9.4 9.4 24.6 9.4 33.9 0s9.4-24.6 0-33.9L464.7 398.9zM245.1 179.2l3.1-2.9c5-4.5 7.8-11 7.8-17.7L256 48c0-17.7 14.3-32 32-32s32 14.3 32 32l0 110c0 6.9 3 13.5 8.2 18.1L496 322.9 496 358.7 388.8 323 245.1 179.2zM320 389.8l0 26.2c0 6.4 2.5 12.5 7 17l55.4 55.4-88.2-23.5c-4.1-1.1-8.3-1.1-12.4 0L193.6 488.3 249 433c4.5-4.5 7-10.6 7-17l0-82.7c0-3.3-.7-6.5-1.9-9.4l-12.6-12.6c-5.3-2.3-11.4-2.6-17-.7l-144.4 48.1 0-28.1 94.3-86.4-34-34-100.5 92.2c-5 4.5-7.8 11-7.8 17.7l0 72c0 7.7 3.7 15 10 19.5s14.3 5.7 21.6 3.3l144.4-48.1 0 39.4-57 57c-4.5 4.5-7 10.6-7 17l0 40c0 7.5 3.5 14.5 9.4 19s13.6 6.1 20.8 4.2L288 512.8 401.8 543.2c7.2 1.9 14.9 .4 20.8-4.2s9.4-11.6 9.4-19l0-18.2-112-112z"/></svg>