<svg xmlns="http://www.w3.org/2000/svg" viewBox="0 0 576 512"><path fill="currentColor" d="M41-24.9c-9.4-9.4-24.6-9.4-33.9 0S-2.3-.3 7 9.1l528 528c9.4 9.4 24.6 9.4 33.9 0s9.4-24.6 0-33.9L401.8 336 496 336c44.2 0 80-35.8 80-80s-35.8-80-80-80L395.9 176 241.7 7.8c-4.5-5-11-7.8-17.7-7.8L152 0c-7.7 0-15 3.7-19.5 10s-5.7 14.3-3.3 21.6L145.1 79.3 41-24.9zM221 155.2L185.3 48 213.4 48 367.6 216.2c4.5 5 11 7.8 17.7 7.8L496 224c17.7 0 32 14.3 32 32s-14.3 32-32 32l-110 0c-6.9 0-13.5 3-18.1 8.2l-2.8 3.1-144.2-144.2zm80.9 216.5l-80.8 92.3-35.8 0 48.1-144.4c1.9-5.6 1.6-11.7-.7-17l-12.6-12.6c-2.9-1.3-6.2-1.9-9.4-1.9L128 288c-6.4 0-12.5 2.5-17 7l-55.4 55.4 23.5-88.2c1.1-4.1 1.1-8.3 0-12.4L55.7 161.6 111 217c4.5 4.5 10.6 7 17 7l26.2 0-112-112-18.2 0c-7.5 0-14.5 3.5-19 9.4S-1.1 135 .8 142.2L31.2 256 .8 369.8C-1.1 377 .4 384.7 5 390.6S16.5 400 24 400l40 0c6.4 0 12.5-2.5 17-7l57-57 39.4 0-48.1 144.4c-2.4 7.3-1.2 15.4 3.3 21.6s11.8 10 19.5 10l80 0c6.9 0 13.5-3 18.1-8.2l85.8-98.1-34-34z"/></svg>