<svg xmlns="http://www.w3.org/2000/svg" viewBox="0 0 640 512"><path fill="currentColor" d="M288-32c-44.2 0-80 35.8-80 80l0 100.1-168.2 154.2c-5 4.5-7.8 11-7.8 17.7l0 72c0 7.7 3.7 15 10 19.5s14.3 5.7 21.6 3.3l144.4-48.1 0 39.4-57 57c-4.5 4.5-7 10.6-7 17l0 40c0 7.5 3.5 14.5 9.4 19s13.6 6.1 20.8 4.2l113.8-30.4 67.5 18c-16.1-17.3-29-37.5-37.9-59.8l-23.4-6.2c-4.1-1.1-8.3-1.1-12.4 0L193.6 488.3 249 433c4.5-4.5 7-10.6 7-17l0-256 0 0c0-.4 0-.9 0-1.3L256 48c0-17.7 14.3-32 32-32s32 14.3 32 32l0 110c0 .7 0 1.3 .1 2l-.1 0 0 163.1c11.1-25.4 27.6-48 48-66.3l0-46 28.5 24.9c15.1-9.1 31.5-16.3 48.9-21L368 147.1 368 48c0-44.2-35.8-80-80-80zM208 213.2l0 102.8-128 42.7 0-28.1 128-117.3zM496 544a144 144 0 1 0 0-288 144 144 0 1 0 0 288zm0-100a20 20 0 1 1 0 40 20 20 0 1 1 0-40zm0-140c8.8 0 16 7.2 16 16l0 80c0 8.8-7.2 16-16 16s-16-7.2-16-16l0-80c0-8.8 7.2-16 16-16z"/></svg>