<svg xmlns="http://www.w3.org/2000/svg" viewBox="0 0 576 512"><path fill="currentColor" d="M576 256c0-44.2-35.8-80-80-80l-146.5 0-9.6-72 28.1 0 0 24c0 8.8 7.2 16 16 16s16-7.2 16-16l0-25.4c9.3-3.3 16-12.2 16-22.6s-6.7-19.3-16-22.6L400 32c0-8.8-7.2-16-16-16s-16 7.2-16 16l0 24-34.5 0-5.8-43.2C326.2 .9 316-8 304-8L248-8c-12 0-22.2 8.9-23.8 20.8L218.5 56 200 56c-13.3 0-24 10.7-24 24s10.7 24 24 24l12.1 0-9.6 72-25.6 0c-6.8 0-13.6 .3-20.3 1l-22.5-50.7c-3.9-8.7-12.4-14.3-21.9-14.3l-40 0c-10.8 0-20.3 7.2-23.2 17.7l-20.2 74C11.3 214.8 0 234.3 0 256s11.2 41.2 28.6 52.3l20.2 74C51.7 392.8 61.2 400 72 400l40 0c9.5 0 18.1-5.6 21.9-14.3L156.5 335c6.8 .6 13.6 1 20.3 1l25.6 0 9.6 72-12.1 0c-13.3 0-24 10.7-24 24s10.7 24 24 24l18.5 0 5.8 43.2c.2 1.5 .5 2.9 1 4.3 3.2 9.7 12.3 16.5 22.8 16.5l56 0c12 0 22.2-8.9 23.8-20.8l5.8-43.2 34.5 0 0 24c0 8.8 7.2 16 16 16s16-7.2 16-16l0-25.4c9.3-3.3 16-12.2 16-22.6s-6.7-19.3-16-22.6l0-25.4c0-8.8-7.2-16-16-16s-16 7.2-16 16l0 24-28.1 0 9.6-72 146.5 0c44.2 0 80-35.8 80-80zM107.5 327.1l-11.1 24.9-6.1 0-8-29.3 25.1 4.4zM96.4 160l11.1 24.9-25.1 4.4 8-29.3 6.1 0zM301.1 336l-18.1 136-14 0-18.1-136 50.2 0zM250.9 176l18.1-136 14 0 18.1 136-50.2 0zM192 224l304 0c17.7 0 32 14.3 32 32s-14.3 32-32 32l-319.2 0c-9.8 0-19.6-.9-29.2-2.6L59.7 269.9C53 268.7 48 262.9 48 256s4.9-12.7 11.7-13.9l87.9-15.5c9.6-1.7 19.4-2.6 29.2-2.6l15.2 0z"/></svg>