<svg xmlns="http://www.w3.org/2000/svg" viewBox="0 0 576 512"><path fill="currentColor" d="M528 304c0-17.7-14.3-32-32-32l-103.7 0c-6.6 0-12.8-2.7-17.3-7.4l-161.3-168.6-28 0 50.1 144.1c2.6 7.3 1.4 15.5-3.1 21.8S221 272 213.2 272l-86.7 0c-6.5 0-12.7-2.6-17.2-7.2l-55.5-56.8-1.1 0 17.3 95.2c3.5 19 20 32.8 39.4 32.8L496 336c17.7 0 32-14.3 32-32zm-32-80c44.2 0 80 35.8 80 80s-35.8 80-80 80l-386.6 0c-42.5 0-79-30.4-86.6-72.3L.4 188.3c-1.3-7 .6-14.2 5.2-19.7S16.9 160 24 160l40 0c6.5 0 12.7 2.6 17.2 7.2l55.5 56.8 42.8 0-50.1-144.1c-2.6-7.3-1.4-15.5 3.1-21.8S144.2 48 152 48l72 0c6.6 0 12.8 2.7 17.3 7.4L402.6 224 496 224zM192 448a32 32 0 1 1 64 0 32 32 0 1 1 -64 0zm192-32a32 32 0 1 1 0 64 32 32 0 1 1 0-64z"/></svg>