<svg xmlns="http://www.w3.org/2000/svg" viewBox="0 0 576 512"><path fill="currentColor" d="M512 0a64 64 0 1 1 0 128 64 64 0 1 1 0-128zM224 464c97.2 0 176-78.8 176-176 0-82.2-56.4-151.3-132.6-170.6l-71 82.9c-11.5 13.4-10.7 33.4 1.8 45.9 6.3 6.3 14.9 9.9 23.9 9.9l66 0c17.7 0 32 14.3 32 32l0 15.9c0 10.6-2.6 21-7.7 30.3l-41.3 76.6c-4.4 8.1-12.8 13.2-22 13.2-13.8 0-25-11.2-25-25l0-47c-17.7 0-32-14.3-32-32l0-32-49.9-49.9c-9-9-21.2-14.1-33.9-14.1L60 224c-7.7 19.8-12 41.4-12 64 0 97.2 78.8 176 176 176zM0 288c0-52.3 17.9-100.5 48-138.6 1-1.3 2.1-2.6 3.2-3.9 41.1-49.8 103.3-81.5 172.8-81.5 13.3 0 26.4 1.2 39.1 3.4 105.1 18.5 184.9 110.2 184.9 220.6 0 123.7-100.3 224-224 224S0 411.7 0 288z"/></svg>