<svg xmlns="http://www.w3.org/2000/svg" viewBox="0 0 576 512"><path fill="currentColor" d="M496 208c17.7 0 32 14.3 32 32s-14.3 32-32 32l-386.6 0c-19.3 0-35.9-13.8-39.4-32.8l-17.3-95.2 1.1 0 55.5 56.8c4.5 4.6 10.7 7.2 17.2 7.2l86.7 0c7.8 0 15.1-3.8 19.6-10.1s5.7-14.5 3.1-21.8L185.8 32 213.7 32 375 200.6c4.5 4.7 10.8 7.4 17.3 7.4L496 208zm80 32c0-44.2-35.8-80-80-80L402.6 160 241.3-8.6C236.8-13.3 230.6-16 224-16l-72 0c-7.8 0-15.1 3.8-19.6 10.1s-5.7 14.5-3.1 21.8l50.1 144.1-42.8 0-55.5-56.8C76.7 98.6 70.5 96 64 96L24 96c-7.1 0-13.9 3.2-18.4 8.6S-.9 117.3 .4 124.3L22.8 247.7c7.6 41.8 44.1 72.3 86.6 72.3L496 320c44.2 0 80-35.8 80-80zM24 464c-13.3 0-24 10.7-24 24s10.7 24 24 24l528 0c13.3 0 24-10.7 24-24s-10.7-24-24-24L24 464z"/></svg>