<svg xmlns="http://www.w3.org/2000/svg" viewBox="0 0 576 512"><path fill="currentColor" d="M576 256c0-44.2-35.8-80-80-80l-100.1 0-44-48 .1 0c17.7 0 32-14.3 32-32s-14.3-32-32-32l-58.8 0-51.5-56.2c-4.5-5-11-7.8-17.7-7.8L152 0c-7.7 0-15 3.7-19.5 10s-5.7 14.3-3.3 21.6l48.1 144.4-39.4 0-57-57c-4.5-4.5-10.6-7-17-7l-40 0c-7.5 0-14.5 3.5-19 9.4S-1.1 135 .8 142.2L31.2 256 .8 369.8C-1.1 377 .4 384.7 5 390.6S16.5 400 24 400l40 0c6.4 0 12.5-2.5 17-7l57-57 39.4 0-48.1 144.4c-2.4 7.3-1.2 15.4 3.3 21.6s11.8 10 19.5 10l80 0c6.9 0 13.5-3 18.1-8.2l48.8-55.8 53.1 0c17.7 0 32-14.3 32-32 0-16.7-12.8-30.5-29.2-31.9l42.1-48.1 99.1 0c44.2 0 80-35.8 80-80zm-80-32c17.7 0 32 14.3 32 32s-14.3 32-32 32l-110 0c-.7 0-1.3 0-2 .1l0-.1-256 0c-6.4 0-12.5 2.5-17 7l-55.4 55.4 23.5-88.2c1.1-4.1 1.1-8.3 0-12.4L55.7 161.6 111 217c4.5 4.5 10.6 7 17 7l256 0 0 0c.4 0 .9 0 1.3 0L496 224zM330.8 176l-102.8 0-42.7-128 28.1 0 117.3 128zM228 336l105.1 0-112 128-35.8 0 42.7-128z"/></svg>