<svg xmlns="http://www.w3.org/2000/svg" viewBox="0 0 576 512"><path fill="currentColor" d="M490.1 243.9c17.4 3.1 29 19.7 26 37.1s-19.7 29-37.1 26l-354.5-62.5-26.2-4.6c-19-3.4-33-19.8-33.1-39.2l-.5-96.7 1.3 .2 46.2 66c3.7 5.2 9.2 8.8 15.5 9.9l81.4 14.4c7.6 1.3 15.4-1.1 20.9-6.4s8.1-13.1 7-20.7L214.6 16.6 242.4 21.5 365 213.9c3.6 5.7 9.4 9.6 16.1 10.7l109 19.2zm73.2 45.4c7.7-43.5-21.4-85-64.9-92.7L399.8 179.2 277.2-13.2c-3.6-5.7-9.4-9.6-16.1-10.7L190.2-36.5c-7.6-1.3-15.4 1.1-20.9 6.4s-8.1 13.1-7 20.7l22.3 150.6-38.8-6.8-46.2-66c-3.7-5.2-9.2-8.8-15.5-9.9L44.7 51.6c-7-1.2-14.2 .7-19.6 5.3s-8.6 11.4-8.5 18.5l.7 125.5c.2 42.5 30.8 78.8 72.7 86.2 13.9 2.5 22.7 4 26.2 4.6l354.5 62.5c43.5 7.7 85-21.4 92.7-64.9zM224 400a32 32 0 1 0 0-64 32 32 0 1 0 0 64zm128.5-15.6a32 32 0 1 0 -64 0 32 32 0 1 0 64 0zM24 464c-13.3 0-24 10.7-24 24s10.7 24 24 24l528 0c13.3 0 24-10.7 24-24s-10.7-24-24-24L24 464z"/></svg>