<svg xmlns="http://www.w3.org/2000/svg" viewBox="0 0 512 512"><path fill="currentColor" d="M176 32c-8.8 0-16 7.2-16 16l0 16c0 44.2 35.8 80 80 80 8.8 0 16-7.2 16-16l0-16c0-44.2-35.8-80-80-80zM56 64C42.7 64 32 74.7 32 88s10.7 24 24 24l48 0c13.3 0 24-10.7 24-24s-10.7-24-24-24L56 64zM24 136c-13.3 0-24 10.7-24 24s10.7 24 24 24l112 0c13.3 0 24-10.7 24-24s-10.7-24-24-24L24 136zm8 96c0 13.3 10.7 24 24 24l48 0c13.3 0 24-10.7 24-24s-10.7-24-24-24l-48 0c-13.3 0-24 10.7-24 24zM272 48l0 16c0 44.2 35.8 80 80 80 8.8 0 16-7.2 16-16l0-16c0-44.2-35.8-80-80-80-8.8 0-16 7.2-16 16zM400 32c-8.8 0-16 7.2-16 16l0 16c0 44.2 35.8 80 80 80 8.8 0 16-7.2 16-16l0-16c0-44.2-35.8-80-80-80zm80 160c0-8.8-7.2-16-16-16-44.2 0-80 35.8-80 80l0 16c0 8.8 7.2 16 16 16 44.2 0 80-35.8 80-80l0-16zM352 176c-44.2 0-80 35.8-80 80l0 16c0 8.8 7.2 16 16 16 44.2 0 80-35.8 80-80l0-16c0-8.8-7.2-16-16-16zm-96 16c0-8.8-7.2-16-16-16-44.2 0-80 35.8-80 80l0 16c0 8.8 7.2 16 16 16 44.2 0 80-35.8 80-80l0-16zM130 423.7c-7.3-13.2-20.4-22.2-35.3-24.3-18.7-2.6-34.3-14.8-41.9-31.5l406.4 0c-7.5 16.6-23.2 28.8-41.9 31.5-14.9 2.1-28 11.1-35.3 24.3-2.8 5-8.1 8.3-14 8.3l-224 0c-6 0-11.2-3.2-14-8.3zM25.6 320C11.5 320 0 331.5 0 345.6 0 397.3 38.3 440 88 447 98.9 466.7 119.9 480 144 480l224 0c24.1 0 45.1-13.3 56-33 49.7-7 88-49.7 88-101.4 0-14.1-11.5-25.6-25.6-25.6L25.6 320z"/></svg>