<svg xmlns="http://www.w3.org/2000/svg" viewBox="0 0 640 512"><path fill="currentColor" d="M352 400a144 144 0 1 1 288 0 144 144 0 1 1 -288 0zm144-80c-8.8 0-16 7.2-16 16l0 48-48 0c-8.8 0-16 7.2-16 16s7.2 16 16 16l48 0 0 48c0 8.8 7.2 16 16 16s16-7.2 16-16l0-48 48 0c8.8 0 16-7.2 16-16s-7.2-16-16-16l-48 0 0-48c0-8.8-7.2-16-16-16zM208-8c0-13.3-10.7-24-24-24S160-21.3 160-8l0 104-72 0c-13.3 0-24 10.7-24 24s10.7 24 24 24l8 0 0 80c0 97.9 73.3 178.7 168 190.5l0 73.5c0 13.3 10.7 24 24 24s24-10.7 24-24l0-33c-11.4-38.4-8.1-71.1-5.1-88.2-6.2 .8-12.5 1.2-18.9 1.2-79.5 0-144-64.5-144-144l0-80 288 0 0 74.9c15.2-5.4 31.3-8.9 48-10.3l0-64.7 8 0c13.3 0 24-10.7 24-24s-10.7-24-24-24l-72 0 0-104c0-13.3-10.7-24-24-24S368-21.3 368-8l0 104-160 0 0-104z"/></svg>