<svg xmlns="http://www.w3.org/2000/svg" viewBox="0 0 640 512"><path fill="currentColor" d="M184-32c13.3 0 24 10.7 24 24l0 104 160 0 0-104c0-13.3 10.7-24 24-24s24 10.7 24 24l0 104 72 0c13.3 0 24 10.7 24 24s-10.7 24-24 24l-8 0 0 64.7c-16.7 1.4-32.8 4.9-48 10.3l0-74.9-288 0 0 80c0 79.5 64.5 144 144 144 6.4 0 12.7-.4 18.9-1.2-3 17.2-6.3 49.8 5.1 88.2l0 33c0 13.3-10.7 24-24 24s-24-10.7-24-24l0-73.5C169.3 402.7 96 321.9 96 224l0-80-8 0c-13.3 0-24-10.7-24-24S74.7 96 88 96l72 0 0-104c0-13.3 10.7-24 24-24zM352 400a144 144 0 1 1 288 0 144 144 0 1 1 -288 0zm177.4-77c-5.8-4.2-13.8-4-19.4 .5l-80 64c-5.3 4.2-7.4 11.4-5.1 17.8S433.2 416 440 416l32.9 0-15.9 42.4c-2.5 6.7-.2 14.3 5.6 18.6s13.8 4 19.4-.5l80-64c5.3-4.2 7.4-11.4 5.1-17.8S558.8 384 552 384l-32.9 0 15.9-42.4c2.5-6.7 .2-14.3-5.6-18.6z"/></svg>