<svg xmlns="http://www.w3.org/2000/svg" viewBox="0 0 640 512"><path fill="currentColor" d="M184-32c13.3 0 24 10.7 24 24l0 104 160 0 0-104c0-13.3 10.7-24 24-24s24 10.7 24 24l0 104 72 0c13.3 0 24 10.7 24 24s-10.7 24-24 24l-8 0 0 64.7c-16.7 1.4-32.8 4.9-48 10.3l0-74.9-288 0 0 80c0 79.5 64.5 144 144 144 6.4 0 12.7-.4 18.9-1.2-3 17.2-6.3 49.8 5.1 88.2l0 33c0 13.3-10.7 24-24 24s-24-10.7-24-24l0-73.5C169.3 402.7 96 321.9 96 224l0-80-8 0c-13.3 0-24-10.7-24-24S74.7 96 88 96l72 0 0-104c0-13.3 10.7-24 24-24zM496 256a144 144 0 1 1 0 288 144 144 0 1 1 0-288zm59.3 107.3c6.2-6.2 6.2-16.4 0-22.6s-16.4-6.2-22.6 0l-36.7 36.7-36.7-36.7c-6.2-6.2-16.4-6.2-22.6 0s-6.2 16.4 0 22.6l36.7 36.7-36.7 36.7c-6.2 6.2-6.2 16.4 0 22.6s16.4 6.2 22.6 0l36.7-36.7 36.7 36.7c6.2 6.2 16.4 6.2 22.6 0s6.2-16.4 0-22.6l-36.7-36.7 36.7-36.7z"/></svg>