<svg xmlns="http://www.w3.org/2000/svg" viewBox="0 0 640 512"><path fill="currentColor" d="M184-32c13.3 0 24 10.7 24 24l0 104 160 0 0-104c0-13.3 10.7-24 24-24s24 10.7 24 24l0 104 72 0c13.3 0 24 10.7 24 24s-10.7 24-24 24l-8 0 0 64.7c-16.7 1.4-32.8 4.9-48 10.3l0-74.9-288 0 0 80c0 79.5 64.5 144 144 144 6.4 0 12.7-.4 18.9-1.2-3 17.2-6.3 49.8 5.1 88.2l0 33c0 13.3-10.7 24-24 24s-24-10.7-24-24l0-73.5C169.3 402.7 96 321.9 96 224l0-80-8 0c-13.3 0-24-10.7-24-24S74.7 96 88 96l72 0 0-104c0-13.3 10.7-24 24-24zM496 256a144 144 0 1 1 0 288 144 144 0 1 1 0-288zm0 228a20 20 0 1 0 0-40 20 20 0 1 0 0 40zm0-180c-8.8 0-16 7.2-16 16l0 80c0 8.8 7.2 16 16 16s16-7.2 16-16l0-80c0-8.8-7.2-16-16-16z"/></svg>