<svg xmlns="http://www.w3.org/2000/svg" viewBox="0 0 448 512"><path fill="currentColor" d="M336 359.8c39.1-32.3 64-81.1 64-135.8 0-97.2-78.8-176-176-176S48 126.8 48 224C48 278.7 72.9 327.5 112 359.8 112.4 377.4 115.2 400.2 118.4 421.6 48 383.9 0 309.5 0 224 0 100.3 100.3 0 224 0S448 100.3 448 224c0 85.6-48 159.9-118.5 197.6 3.3-21.4 6-44.2 6.4-61.8zm-14-53.4c-8.3-12.6-19.2-21.6-30.4-27.8-2.1-1.1-4.2-2.2-6.3-3.2 11.7-13.9 18.8-31.9 18.8-51.5 0-44.2-35.8-80-80-80s-80 35.8-80 80c0 19.6 7.1 37.6 18.8 51.5-2.1 1-4.2 2-6.3 3.2-11.2 6.2-22.1 15.2-30.4 27.8-18.8-22.3-30.1-51-30.1-82.4 0-70.7 57.3-128 128-128s128 57.3 128 128c0 31.4-11.3 60.2-30.1 82.4zm-143 181.3c-8.1-29.6-21.5-103.7-21.5-138.2 0-36.5 32.4-45.5 66.6-45.5s66.6 9 66.6 45.5c0 34.3-13.4 108.3-21.4 138.2-5.3 19.8-25.5 24.3-45.1 24.3s-39.8-4.6-45.1-24.3zM225.5 464c3.1-13.4 6.8-32 10-51.5 3.9-23.7 6.5-45.3 7-58.8-.6-.1-1.4-.3-2.2-.4-4.3-.8-9.7-1.2-16.3-1.2s-12 .4-16.3 1.2c-.8 .1-1.5 .3-2.2 .4 .5 13.6 3.1 35.3 7 59 3.2 19.5 6.9 38 9.9 51.4 .5 0 1 0 1.5 0s1 0 1.5 0zM224 184a40 40 0 1 1 0 80 40 40 0 1 1 0-80z"/></svg>