<svg xmlns="http://www.w3.org/2000/svg" viewBox="0 0 448 512"><path fill="currentColor" d="M168 72l14.4 0c8.3 14.3 23.8 24 41.6 24l64 0c26.5 0 48-21.5 48-48S314.5 0 288 0L224 0c-17.8 0-33.3 9.7-41.6 24L168 24c-48.6 0-88 39.4-88 88l0 32-40 0c-13.3 0-24 10.7-24 24s10.7 24 24 24l12.2 0 22.7 261.5c2.9 33.1 30.6 58.5 63.8 58.5l170.6 0c33.2 0 60.9-25.4 63.8-58.5L395.8 192 408 192c13.3 0 24-10.7 24-24s-10.7-24-24-24l-280 0 0-32c0-22.1 17.9-40 40-40zM122.7 449.4l-22.4-257.4 247.3 0-22.4 257.4c-.7 8.3-7.6 14.6-15.9 14.6l-170.6 0c-8.3 0-15.2-6.3-15.9-14.6zm112-203.6c-4.4-8.9-17.1-8.9-21.5 0l-17.5 35.4-39 5.7c-9.8 1.4-13.8 13.5-6.7 20.5l28.2 27.5-6.7 38.9c-1.7 9.8 8.6 17.3 17.4 12.6L224 368 258.9 386.4c8.8 4.6 19.1-2.8 17.4-12.6l-6.7-38.9 28.2-27.5c7.1-6.9 3.2-19-6.7-20.5l-39-5.7-17.5-35.4z"/></svg>