<svg xmlns="http://www.w3.org/2000/svg" viewBox="0 0 448 512"><path fill="currentColor" d="M182.4 72L168 72c-22.1 0-40 17.9-40 40l0 32 280 0c13.3 0 24 10.7 24 24s-10.7 24-24 24l-12.2 0-22.7 261.5c-2.9 33.1-30.6 58.5-63.8 58.5l-170.6 0c-33.2 0-60.9-25.4-63.8-58.5L52.2 192 40 192c-13.3 0-24-10.7-24-24s10.7-24 24-24l40 0 0-32c0-48.6 39.4-88 88-88l14.4 0C190.7 9.7 206.2 0 224 0l64 0c26.5 0 48 21.5 48 48s-21.5 48-48 48l-64 0c-17.8 0-33.3-9.7-41.6-24zM100.4 192l22.4 257.4c.7 8.3 7.6 14.6 15.9 14.6l170.6 0c8.3 0 15.2-6.3 15.9-14.6l22.4-257.4-247.3 0z"/></svg>