<svg xmlns="http://www.w3.org/2000/svg" viewBox="0 0 512 512"><path fill="currentColor" d="M256 512a256 256 0 1 1 0-512 256 256 0 1 1 0 512zm32.2-115.7c-10.3 2.4-21.1 3.7-32.2 3.7s-21.8-1.3-32.2-3.7L199.1 456c18.1 5.1 37.1 8 56.9 8 19.7 0 38.8-2.8 56.9-8l-24.7-59.7zM74.3 357.2c18.8 33.7 46.8 61.6 80.5 80.5L179.5 378c-18.4-11.5-34-27.1-45.5-45.5L74.3 357.2zM378 332.5c-11.5 18.4-27.1 33.9-45.4 45.5l24.7 59.7c33.7-18.8 61.6-46.7 80.4-80.4L378 332.5zM256 160a96 96 0 1 0 0 192 96 96 0 1 0 0-192zM55.9 199.1c-5.1 18.1-7.9 37.2-7.9 56.9 0 19.7 2.8 38.8 7.9 56.8l59.7-24.7c-2.4-10.3-3.6-21.1-3.6-32.1 0-11.1 1.3-21.8 3.6-32.2L55.9 199.1zm340.4 24.8c2.4 10.3 3.7 21.1 3.7 32.2 0 11-1.3 21.8-3.7 32.1l59.7 24.7c5.1-18.1 7.9-37.1 7.9-56.8 0-19.7-2.8-38.8-8-56.9l-59.7 24.8zM154.8 74.3C121 93.1 93.1 121 74.3 154.7L134 179.5c11.5-18.4 27.1-33.9 45.5-45.5L154.8 74.3zM332.5 134c18.4 11.5 33.9 27.1 45.5 45.4l59.7-24.7C418.9 121 391 93.1 357.3 74.3L332.5 134zM256 48c-19.7 0-38.8 2.8-56.9 7.9l24.7 59.7c10.3-2.4 21.1-3.6 32.2-3.6s21.8 1.3 32.2 3.6l24.7-59.7C294.8 50.8 275.7 48 256 48z"/></svg>