<svg xmlns="http://www.w3.org/2000/svg" viewBox="0 0 448 512"><path fill="currentColor" d="M352 32c13.3 0 24 10.7 24 24l0 141.4 31.6-11.8c12.4-4.7 26.2 1.6 30.9 14s-1.6 26.2-14 30.9L376 248.6 376 456c0 13.3-10.7 24-24 24s-24-10.7-24-24l0-189.4-31.6 11.8c-12.4 4.7-26.2-1.6-30.9-14s1.6-26.2 14-30.9L328 215.4 328 56c0-13.3 10.7-24 24-24zM24 192l176 0c9 0 17.3 5.1 21.4 13.2s3.3 17.7-2.1 25L71.4 432 200 432c13.3 0 24 10.7 24 24s-10.7 24-24 24L24 480c-9 0-17.3-5.1-21.4-13.2s-3.3-17.7 2.1-25L152.6 240 24 240c-13.3 0-24-10.7-24-24s10.7-24 24-24z"/></svg>