<svg xmlns="http://www.w3.org/2000/svg" viewBox="0 0 384 512"><path fill="currentColor" d="M192 0c13.3 0 24 10.7 24 24l0 8 72 0c17.7 0 32 14.3 32 32 17.7 0 32 14.3 32 32l0 368 8 0c13.3 0 24 10.7 24 24s-10.7 24-24 24L24 512c-13.3 0-24-10.7-24-24s10.7-24 24-24l8 0 0-368c0-17.7 14.3-32 32-32 0-17.7 14.3-32 32-32l72 0 0-8c0-13.3 10.7-24 24-24zM80 464l224 0 0-354.7c-13.6-4.8-24.4-15.6-29.3-29.3L109.3 80c-4.8 13.6-15.6 24.4-29.3 29.3L80 464zm48-320l32 0c8.8 0 16 7.2 16 16l0 32c0 8.8-7.2 16-16 16l-32 0c-8.8 0-16-7.2-16-16l0-32c0-8.8 7.2-16 16-16zm0 96l32 0c8.8 0 16 7.2 16 16l0 32c0 8.8-7.2 16-16 16l-32 0c-8.8 0-16-7.2-16-16l0-32c0-8.8 7.2-16 16-16zm80-80c0-8.8 7.2-16 16-16l32 0c8.8 0 16 7.2 16 16l0 32c0 8.8-7.2 16-16 16l-32 0c-8.8 0-16-7.2-16-16l0-32z"/></svg>