<svg xmlns="http://www.w3.org/2000/svg" viewBox="0 0 512 512"><path fill="currentColor" d="M80 128a48 48 0 1 0 0-96 48 48 0 1 0 0 96zm0 256a48 48 0 1 0 0-96 48 48 0 1 0 0 96zM0 458.7C0 470.4 9.6 480 21.3 480l117.3 0c11.8 0 21.3-9.6 21.3-21.3 0-23.6-19.1-42.7-42.7-42.7l-74.7 0C19.1 416 0 435.1 0 458.7zM42.7 160C19.1 160 0 179.1 0 202.7 0 214.4 9.6 224 21.3 224l117.3 0c11.8 0 21.3-9.6 21.3-21.3 0-23.6-19.1-42.7-42.7-42.7l-74.7 0zM320 336l0 64-48 0 0-64 48 0zm48 0l96 0 0 64-96 0 0-64zm-96-48c-26.5 0-48 21.5-48 48l0 64c0 26.5 21.5 48 48 48l192 0c26.5 0 48-21.5 48-48l0-64c0-26.5-21.5-48-48-48l-192 0zm0-176l80 0 0 64-80 0 0-64zm128 0l64 0 0 64-64 0 0-64zm-176 0l0 64c0 26.5 21.5 48 48 48l192 0c26.5 0 48-21.5 48-48l0-64c0-26.5-21.5-48-48-48L272 64c-26.5 0-48 21.5-48 48z"/></svg>