<svg xmlns="http://www.w3.org/2000/svg" viewBox="0 0 512 512"><path fill="currentColor" d="M54.3 72.2C100.4 3.5 189.8-23.2 254.9 22.9l0 0c45.1 31.3 55.1 91.2 37.8 147.1 45.1-35.6 103.5-47.2 148.4-15.1l5.9 4.4c59.2 47.2 64.4 137.9 19.9 203.8l0 0C387.2 480.8 219.7 542 99 455.5L88 447.2c-109.6-88.8-111-260.9-33.7-375zM227.2 62.1c-38-26.9-98.3-15-133 36.9l-.1 .1c-69.9 103.1-60.2 251 32.8 317.4l.1 0 8.7 5.9c88.6 55.3 215.3 16.6 284.8-76.6l6.7-9.5c34.9-51.7 24.7-114.9-13.8-142.1l-.1-.1c-25.8-18.5-73.9-11.6-112 34.5-13 17-37.1 21-54.9 8.1-17.4-12.6-21.8-36.1-10.8-54.1 29.1-52.9 18.3-102.1-8.2-120.4l-.2-.2z"/></svg>