<svg xmlns="http://www.w3.org/2000/svg" viewBox="0 0 512 512"><path fill="currentColor" d="M464 256c0-48.9-16.9-93.9-45.1-129.4 3.4 13.2 5.1 27.1 5.1 41.4 0 92.8-75.2 168-168 168S88 260.8 88 168c0-14.3 1.8-28.2 5.1-41.4-28.3 35.5-45.1 80.5-45.1 129.4 0 114.9 93.1 208 208 208s208-93.1 208-208zM256 512a256 256 0 1 1 0-512 256 256 0 1 1 0 512zm0-464a120 120 0 1 0 0 240 120 120 0 1 0 0-240zm0 88a16 16 0 1 0 0-32 16 16 0 1 0 0 32zm43.8 18.9c10.1 10.7 16.2 25.2 16.2 41.1 0 33.1-26.9 60-60 60s-60-26.9-60-60c0-15.9 6.2-30.3 16.2-41.1-7.7-9.6-12.2-21.7-12.2-34.9 0-30.9 25.1-56 56-56s56 25.1 56 56c0 13.2-4.6 25.4-12.2 34.9zM256 176a20 20 0 1 0 0 40 20 20 0 1 0 0-40z"/></svg>