<svg xmlns="http://www.w3.org/2000/svg" viewBox="0 0 512 512"><path fill="currentColor" d="M201.8 14.8C205.5 5.8 214.3 0 224 0l8 0c71.6 0 131.6 49.5 147.7 116.1 31.1 16.9 52.3 49.9 52.3 87.9 0 1.1 0 2.2-.1 3.3 33 14 56.1 46.6 56.1 84.7 0 14.3-3.3 27.8-9.1 39.9 20.3 19 33.1 46 33.1 76.1 0 57.4-46.6 104-104 104l-304 0c-57.4 0-104-46.6-104-104 0-30.1 12.8-57.1 33.1-76.1-5.8-12.1-9.1-25.6-9.1-39.9 0-38.1 23.1-70.7 56.1-84.7 0-1.1-.1-2.2-.1-3.3 0-48.1 33.9-88.2 79.1-97.8 5.7-1.4 11.7-2.2 17.8-2.2l17.8 0c16.2 0 29.3-13.1 29.3-29.3l0-3.2c0-8.6-3.4-16.9-9.5-23L207 41c-6.9-6.9-8.9-17.2-5.2-26.2zm68.5 40.5c1.1 5.3 1.6 10.7 1.6 16.1l0 3.2c0 42.7-34.6 77.3-77.3 77.3l-17.8 0c-2.2 0-4.3 .3-6.3 .8-.4 .1-.8 .2-1.2 .3-23.6 4.9-41.4 25.9-41.4 50.9 0 4.9 .7 9.7 1.9 14.1 1.9 6.7 .8 13.9-3 19.7s-10 9.7-16.9 10.6c-21.5 2.9-38 21.3-38 43.6 0 11.4 4.3 21.8 11.4 29.6 5 5.4 7.1 12.9 5.9 20.1s-5.7 13.6-12.2 17.1c-17.5 9.5-29.2 28-29.2 49.2 0 30.9 25.1 56 56 56l304 0c30.9 0 56-25.1 56-56 0-21.2-11.8-39.7-29.2-49.2-6.5-3.5-10.9-9.8-12.2-17.1s1-14.7 5.9-20.1c7.1-7.8 11.4-18.2 11.4-29.6 0-22.3-16.6-40.7-38-43.6-6.9-.9-13-4.8-16.9-10.6s-4.9-13-3-19.7c1.3-4.5 1.9-9.2 1.9-14.1 0-22.3-14-41.4-33.8-48.7-8.2-3-14-10.3-15.3-18.9-5.6-37-30.7-67.6-64.5-81z"/></svg>