<svg xmlns="http://www.w3.org/2000/svg" viewBox="0 0 384 512"><path fill="currentColor" d="M2.7 160l378.5 0c1.8-5 2.7-10.4 2.7-16 0-26.5-21.5-48-48-48-3.9 0-7.6 .5-11.2 1.3 2.1-5.4 3.2-11.2 3.2-17.3 0-26.5-21.5-48-48-48-12.8 0-24.4 5-33 13.2-5-25.8-27.7-45.2-55-45.2s-49.9 19.4-55 45.2c-8.6-8.2-20.2-13.2-33-13.2-26.5 0-48 21.5-48 48 0 6.1 1.1 11.9 3.2 17.3-3.6-.9-7.4-1.3-11.2-1.3-26.5 0-48 21.5-48 48 0 5.6 1 11 2.7 16zm1.6 48L26.7 453.8c3 33 30.6 58.2 63.7 58.2l203.1 0c33.1 0 60.7-25.2 63.7-58.2l22.3-245.8-48.2 0-22 241.4c-.7 8.2-7.7 14.6-15.9 14.6l-31.1 0 16.5-256-48.1 0-16.5 256-44.8 0-16.5-256-48.1 0 16.5 256-31.1 0c-8.3 0-15.2-6.3-15.9-14.6L52.6 208 4.4 208z"/></svg>