<svg xmlns="http://www.w3.org/2000/svg" viewBox="0 0 576 512"><path fill="currentColor" d="M69 58.3C82.1 18.9 95.6 16 100 16s17.9 2.9 31 42.3c10 30.2 17.4 76.2 20 142.6l28.3-67.9c3.3-7.9 7.4-15.2 12.2-22-3.8-26.8-8.9-49.2-15-67.7-14.5-43.8-39-75.2-76.5-75.2S38-.6 23.5 43.2C8.5 88.5 0 157.5 0 256S8.5 423.5 23.5 468.8c14.5 43.8 39 75.2 76.5 75.2 34.3 0 57.6-26.1 72.5-64L152 480c-10.4 0-20.2-2.2-29.2-6.1-10.1 20.3-19.3 22.1-22.8 22.1-4.4 0-17.9-2.9-31-42.3-12.5-37.9-21-100.9-21-197.7S56.5 96.2 69 58.3zM416 80a56 56 0 1 0 0-112 56 56 0 1 0 0 112zM267.9 169.8c2.5-6 8.3-9.8 14.8-9.8l33 0-2.7 9.2-30.7 104.3c-8.9 30.3 9 62 39.6 70l124.7 32.5-52.5 118.2c-5.4 12.1 .1 26.3 12.2 31.7s26.3-.1 31.7-12.2L494.3 387c10-22.6-2.6-48.7-26.5-55l-55.4-14.4 26.1-82.7 3.1 6.2c9.5 19 28.9 31 50.1 31l60.2 0c13.3 0 24-10.7 24-24s-10.7-24-24-24l-60.2 0c-3 0-5.8-1.7-7.2-4.4l-29.5-58.9c-14.9-29.8-45.4-48.6-78.7-48.6l-93.8 0c-25.8 0-49.1 15.5-59.1 39.4l-29.7 71.4c-5.1 12.2 .7 26.3 12.9 31.4s26.3-.7 31.4-12.9l29.7-71.4zM359 182.8l6.7-22.8 10.7 0c12.1 0 23.4 5.4 30.9 14.5l-41.3 130.9-32-8.3c-4.4-1.1-6.9-5.7-5.7-10L359 182.8zM272.4 371.7c-7.4 7.7-17.8 12.3-28.9 12.3L152 384c-13.3 0-24 10.7-24 24s10.7 24 24 24l91.5 0c30.2 0 57.8-15.4 73.8-40l-7.5-2c-14-3.7-26.6-10-37.4-18.3z"/></svg>