<svg xmlns="http://www.w3.org/2000/svg" viewBox="0 0 448 512"><path fill="currentColor" d="M24 32C10.7 32 0 42.7 0 56L0 77.4C0 86.7 5.3 95.1 13.7 99.1 24.6 104.2 32 115.3 32 128s-7.4 23.8-18.3 28.9C5.3 160.9 0 169.3 0 178.6l0 26.8c0 9.3 5.3 17.7 13.7 21.7 10.9 5.2 18.3 16.2 18.3 28.9s-7.4 23.8-18.3 28.9C5.3 288.9 0 297.3 0 306.6l0 26.8c0 9.3 5.3 17.7 13.7 21.7 10.9 5.2 18.3 16.2 18.3 28.9s-7.4 23.8-18.3 28.9C5.3 416.9 0 425.3 0 434.6L0 456c0 13.3 10.7 24 24 24l21.4 0c9.3 0 17.7-5.3 21.7-13.7 5.2-10.9 16.2-18.3 28.9-18.3s23.8 7.4 28.9 18.3c4 8.4 12.4 13.7 21.7 13.7l26.8 0c9.3 0 17.7-5.3 21.7-13.7 5.2-10.9 16.2-18.3 28.9-18.3s23.8 7.4 28.9 18.3c4 8.4 12.4 13.7 21.7 13.7l26.8 0c9.3 0 17.7-5.3 21.7-13.7 5.2-10.9 16.2-18.3 28.9-18.3s23.8 7.4 28.9 18.3c4 8.4 12.4 13.7 21.7 13.7l21.4 0c13.3 0 24-10.7 24-24l0-21.4c0-9.3-5.3-17.7-13.7-21.7-10.9-5.2-18.3-16.2-18.3-28.9s7.4-23.8 18.3-28.9c8.4-4 13.7-12.4 13.7-21.7l0-26.8c0-9.3-5.3-17.7-13.7-21.7-10.9-5.2-18.3-16.2-18.3-28.9s7.4-23.8 18.3-28.9c8.4-4 13.7-12.4 13.7-21.7l0-26.8c0-9.3-5.3-17.7-13.7-21.7-10.9-5.2-18.3-16.2-18.3-28.9s7.4-23.8 18.3-28.9c8.4-4 13.7-12.4 13.7-21.7L448 56c0-13.3-10.7-24-24-24l-21.4 0c-9.3 0-17.7 5.3-21.7 13.7-5.2 10.9-16.2 18.3-28.9 18.3s-23.8-7.4-28.9-18.3c-4-8.4-12.4-13.7-21.7-13.7l-26.8 0c-9.3 0-17.7 5.3-21.7 13.7-5.2 10.9-16.2 18.3-28.9 18.3s-23.8-7.4-28.9-18.3c-4-8.4-12.4-13.7-21.7-13.7l-26.8 0c-9.3 0-17.7 5.3-21.7 13.7-5.2 10.9-16.2 18.3-28.9 18.3S72.2 56.6 67.1 45.7C63.1 37.3 54.7 32 45.4 32L24 32zm56 96c0-6.2-.7-12.2-2-18 5.8 1.3 11.8 2 18 2 26.2 0 49.4-12.6 64-32 14.6 19.4 37.8 32 64 32s49.4-12.6 64-32c14.6 19.4 37.8 32 64 32 6.2 0 12.2-.7 18-2-1.3 5.8-2 11.8-2 18 0 26.2 12.6 49.4 32 64-19.4 14.6-32 37.8-32 64s12.6 49.4 32 64c-19.4 14.6-32 37.8-32 64 0 6.2 .7 12.2 2 18-5.8-1.3-11.8-2-18-2-26.2 0-49.4 12.6-64 32-14.6-19.4-37.8-32-64-32s-49.4 12.6-64 32c-14.6-19.4-37.8-32-64-32-6.2 0-12.2 .7-18 2 1.3-5.8 2-11.8 2-18 0-26.2-12.6-49.4-32-64 19.4-14.6 32-37.8 32-64s-12.6-49.4-32-64c19.4-14.6 32-37.8 32-64zm32 48l0 160c0 17.7 14.3 32 32 32l160 0c17.7 0 32-14.3 32-32l0-160c0-17.7-14.3-32-32-32l-160 0c-17.7 0-32 14.3-32 32zm48 144l0-128 128 0 0 128-128 0z"/></svg>