<svg xmlns="http://www.w3.org/2000/svg" viewBox="0 0 384 512"><path fill="currentColor" d="M336 48l0 48-288 0 0-48 288 0zM0 96c0 20.9 13.4 38.7 32 45.3L32 448c0 35.3 28.7 64 64 64l192 0c35.3 0 64-28.7 64-64l0-306.7c18.6-6.6 32-24.4 32-45.3l0-48c0-26.5-21.5-48-48-48L48 0C21.5 0 0 21.5 0 48L0 96zM80 448l0-304 224 0 0 304c0 8.8-7.2 16-16 16L96 464c-8.8 0-16-7.2-16-16zm84-208l0 36-36 0c-8.8 0-16 7.2-16 16l0 24c0 8.8 7.2 16 16 16l36 0 0 36c0 8.8 7.2 16 16 16l24 0c8.8 0 16-7.2 16-16l0-36 36 0c8.8 0 16-7.2 16-16l0-24c0-8.8-7.2-16-16-16l-36 0 0-36c0-8.8-7.2-16-16-16l-24 0c-8.8 0-16 7.2-16 16z"/></svg>