<svg xmlns="http://www.w3.org/2000/svg" viewBox="0 0 384 512"><path fill="currentColor" d="M336 48l0 48-288 0 0-48 288 0zM0 96c0 20.9 13.4 38.7 32 45.3L32 448c0 35.3 28.7 64 64 64l192 0c35.3 0 64-28.7 64-64l0-306.7c18.6-6.6 32-24.4 32-45.3l0-48c0-26.5-21.5-48-48-48L48 0C21.5 0 0 21.5 0 48L0 96zm80 96l0-48 224 0 0 304c0 8.8-7.2 16-16 16L96 464c-8.8 0-16-7.2-16-16l0-16 56 0c13.3 0 24-10.7 24-24s-10.7-24-24-24l-56 0 0-48 56 0c13.3 0 24-10.7 24-24s-10.7-24-24-24l-56 0 0-48 56 0c13.3 0 24-10.7 24-24s-10.7-24-24-24l-56 0z"/></svg>