<svg xmlns="http://www.w3.org/2000/svg" viewBox="0 0 576 512"><path fill="currentColor" d="M368 48l0 48-288 0 0-48 288 0zM32 96c0 20.9 13.4 38.7 32 45.3L64 448c0 35.3 28.7 64 64 64l148 0c-10.5-14.6-19-30.7-25.1-48L128 464c-8.8 0-16-7.2-16-16l0-16 56 0c13.3 0 24-10.7 24-24s-10.7-24-24-24l-56 0 0-48 56 0c13.3 0 24-10.7 24-24s-10.7-24-24-24l-56 0 0-48 56 0c13.3 0 24-10.7 24-24s-10.7-24-24-24l-56 0 0-48 224 0 0 89.7c14.9-8.6 31-15.3 48-19.6l0-72.8c18.6-6.6 32-24.4 32-45.3l0-48c0-26.5-21.5-48-48-48L80 0C53.5 0 32 21.5 32 48l0 48zM432 496c-17.8 0-34.5-4.8-48.8-13.3L514.7 351.2c8.4 14.3 13.3 31 13.3 48.8 0 53-43 96-96 96zm48.8-178.7L349.3 448.8c-8.4-14.3-13.3-31-13.3-48.8 0-53 43-96 96-96 17.8 0 34.5 4.8 48.8 13.3zM432 544a144 144 0 1 0 0-288 144 144 0 1 0 0 288z"/></svg>