<svg xmlns="http://www.w3.org/2000/svg" viewBox="0 0 512 512"><path fill="currentColor" d="M56 184.2c0 52.5 20.3 100.3 53.5 135.9l19-26.8C103.3 264 88 225.9 88 184.2 88 144.3 120.3 112 160.2 112l3.8 0c42 0 76 34 76 76l0 5.1c0 16.8-5.2 33.2-14.9 46.9l-45.9 64.9-.1 .2-46.2 65.2-.1 .2-25.8 36.4c-5.1 7.2-3.4 17.2 3.8 22.3s17.2 3.4 22.3-3.8L163.7 382c6.2-8.7 17.3-12.3 27.4-8.8 20.3 7 42.2 10.8 65 10.8 11.2 0 22.3-.9 33-2.7l-21-29.7c-3.9 .3-7.9 .4-11.9 .4-9.2 0-18.3-.7-27.2-2.2-8.2-1.3-15.1-6.8-18.3-14.4s-2.2-16.4 2.6-23.1l23.3-32.9c4.5-6.4 11.8-10.1 19.6-10.1s15.1 3.8 19.6 10.1c7.7 10.8 15.4 21.8 23.3 32.9l.1 .1 49.3 69.5c0 0 .1 .1 .1 .1l30.6 43.2c5.1 7.2 15.1 8.9 22.3 3.8s8.9-15.1 3.8-22.3l-25.8-36.4c-7.3-10.2-5.4-24.3 4.3-32.4 44.3-36.7 72.4-92 72.4-153.8 0-57.6-46.7-104.2-104.2-104.2L348 80c-29.3 0-55.8 11.6-75.3 30.6-9.3 9.1-24.1 9.1-33.5 0-19.5-18.9-46-30.6-75.3-30.6l-3.8 0C102.7 80 56 126.7 56 184.2zM81.2 360C36.1 315.1 8 253 8 184.2 8 100.1 76.1 32 160.2 32l3.8 0c34.4 0 66.2 11.2 92 30 25.8-18.9 57.6-30 92-30l3.8 0C435.8 32 504 100.1 504 184.2 504 253 475.9 315.1 430.8 360l13.5 19c20.4 28.8 13.6 68.8-15.2 89.2s-68.8 13.6-89.2-15.2l0 0-20.6-29.1C299 429.2 277.8 432 256 432s-43-2.8-63.2-8.1L172.2 453c-20.4 28.8-60.4 35.7-89.2 15.2 13.3-18.8 13.3-18.8 0 0-28.8-20.4-35.7-60.4-15.2-89.2l0 0 13.5-19zM136 184.2c0 25.3 7.9 48.9 21.4 68.3l28.5-40.2c4-5.6 6.1-12.3 6.1-19.1l0-5.1c0-15.5-12.5-28-28-28l-3.8 0c-13.4 0-24.2 10.8-24.2 24.2zM320 188l0 5.1c0 6.9 2.1 13.5 6.1 19.1l28.5 40.2c13.5-19.4 21.4-42.9 21.4-68.3 0-13.4-10.8-24.2-24.2-24.2l-3.8 0c-15.5 0-28 12.5-28 28zm28-76l3.8 0c39.9 0 72.2 32.3 72.2 72.2 0 49.4-21.5 93.9-55.5 124.6-5.1 4.6-11.9 6.8-18.7 6s-13-4.4-16.9-10L286.9 240c-9.7-13.7-14.9-30.1-14.9-46.9l0-5.1c0-42 34-76 76-76z"/></svg>