<svg xmlns="http://www.w3.org/2000/svg" viewBox="0 0 576 512"><path fill="currentColor" d="M384 106.5c0-4.2-1.7-8.3-4.7-11.3L336.8 52.7c-3-3-7.1-4.7-11.3-4.7L144 48c-8.8 0-16 7.2-16 16l0 80-48 0 0-80c0-35.3 28.7-64 64-64L325.5 0c17 0 33.3 6.7 45.3 18.7l42.5 42.5c12 12 18.7 28.3 18.7 45.3l0 37.5-48 0 0-37.5zM240.2 368l-96.2 0 0 96 132.1 0c16 20.3 36.7 36.8 60.3 48L128 512c-17.7 0-32-14.3-32-32l0-64-64 0c-17.7 0-32-14.3-32-32L0 256c0-35.3 28.7-64 64-64l344 0c-45.8 0-87.3 18.3-117.6 48L64 240c-8.8 0-16 7.2-16 16l0 112 48 0 0-16c0-17.7 14.3-32 32-32l116.8 0c-3.1 12.8-4.8 26.2-4.8 40 0 2.7 .1 5.4 .2 8zM408 432.1a72 72 0 1 0 0-144 72 72 0 1 0 0 144zm0 48c-66.3 0-120-53.7-120-120s53.7-120 120-120 120 53.7 120 120c0 24.5-7.3 47.2-19.9 66.2L569 487.1c9.4 9.4 9.4 24.6 0 33.9s-24.6 9.4-33.9 0l-60.8-60.9c-19 12.6-41.7 19.9-66.2 19.9z"/></svg>