<svg xmlns="http://www.w3.org/2000/svg" viewBox="0 0 576 512"><path fill="currentColor" d="M41-24.9c-9.4-9.4-24.6-9.4-33.9 0S-2.3-.3 7 9.1l528 528c9.4 9.4 24.6 9.4 33.9 0s9.4-24.6 0-33.9L481.8 416 512 416c17.7 0 32-14.3 32-32l0-128c0-35.3-28.7-64-64-64L257.8 192 160 94.2 160 64c0-8.8 7.2-16 16-16l181.5 0c4.2 0 8.3 1.7 11.3 4.7l42.5 42.5c3 3 4.7 7.1 4.7 11.3l0 37.5 48 0 0-37.5c0-17-6.7-33.3-18.7-45.3L402.7 18.7C390.7 6.7 374.5 0 357.5 0L176 0c-29.9 0-55 20.5-62 48.1l-73-73zM305.8 240L480 240c8.8 0 16 7.2 16 16l0 112-62.2 0-128-128zM435.5 505.4l-41.4-41.4-218.2 0 0-96 122.2 0-48-48-90.2 0c-17.7 0-32 14.3-32 32l0 16-48 0 0-112c0-8.8 7.2-16 16-16l74.2 0-48-48-26.2 0c-35.3 0-64 28.7-64 64l0 128c0 17.7 14.3 32 32 32l64 0 0 64c0 17.7 14.3 32 32 32l256 0c7.4 0 14.1-2.5 19.5-6.6z"/></svg>