<svg xmlns="http://www.w3.org/2000/svg" viewBox="0 0 576 512"><path fill="currentColor" d="M376-8l0 56c0 13.3-10.7 24-24 24s-24-10.7-24-24l0-56c0-13.3 10.7-24 24-24s24 10.7 24 24zM225 15l40 40c9.4 9.4 9.4 24.6 0 33.9s-24.6 9.4-33.9 0L191 49c-9.4-9.4-9.4-24.6 0-33.9s24.6-9.4 33.9 0zM513 49L473 89c-9.4 9.4-24.6 9.4-33.9 0s-9.4-24.6 0-33.9l40-40c9.4-9.4 24.6-9.4 33.9 0s9.4 24.6 0 33.9zM352 352a96 96 0 1 0 0-192 96 96 0 1 0 0 192zm0 48c-79.5 0-144-64.5-144-144 0-5.4 .3-10.7 .9-16L64 240c-8.8 0-16 7.2-16 16l0 160c0 8.8 7.2 16 16 16l448 0c8.8 0 16-7.2 16-16l0-160c0-8.8-7.2-16-16-16l-16.9 0c.6 5.3 .9 10.6 .9 16 0 79.5-64.5 144-144 144zm0-288c56.5 0 105.5 32.6 129 80l31 0c35.3 0 64 28.7 64 64l0 160c0 35.3-28.7 64-64 64l0 8c0 13.3-10.7 24-24 24s-24-10.7-24-24l0-8-352 0 0 8c0 13.3-10.7 24-24 24s-24-10.7-24-24l0-8c-35.3 0-64-28.7-64-64L0 256c0-35.3 28.7-64 64-64l159 0c23.6-47.4 72.5-80 129-80zM80 296c0-13.3 10.7-24 24-24l48 0c13.3 0 24 10.7 24 24s-10.7 24-24 24l-48 0c-13.3 0-24-10.7-24-24zm24 56l64 0c13.3 0 24 10.7 24 24s-10.7 24-24 24l-64 0c-13.3 0-24-10.7-24-24s10.7-24 24-24z"/></svg>