<svg xmlns="http://www.w3.org/2000/svg" viewBox="0 0 576 512"><path fill="currentColor" d="M160 160c0 5.6 .4 11.2 1.1 16.6 4.9-.4 9.9-.6 14.9-.6 42.5 0 81.6 15.1 112 40.2 30.4-25.1 69.5-40.2 112-40.2 5 0 10 .2 14.9 .6 .7-5.4 1.1-11 1.1-16.6 0-70.7-57.3-128-128-128S160 89.3 160 160zm-45.9 27.2c-1.4-8.9-2.1-17.9-2.1-27.2 0-97.2 78.8-176 176-176S464 62.8 464 160c0 9.2-.7 18.3-2.1 27.2 66.7 25.1 114.1 89.4 114.1 164.8 0 97.2-78.8 176-176 176-42.5 0-81.6-15.1-112-40.2-30.4 25.1-69.5 40.2-112 40.2-97.2 0-176-78.8-176-176 0-75.4 47.4-139.7 114.1-164.8zM398.9 224c-29.6 .3-56.7 10.5-78.3 27.6 5.9 8.5 11.1 17.6 15.5 27.1 26.5-10.8 48.6-30.1 62.8-54.7zm-49 100.8c1.4 8.9 2.1 17.9 2.1 27.2 0 37.3-11.6 71.9-31.4 100.4 21.8 17.3 49.4 27.6 79.4 27.6 70.7 0 128-57.3 128-128 0-53.7-33.1-99.7-80-118.7-19.3 42-54.6 75.1-98.1 91.5zm-76.8 10.6c-.7 5.4-1.1 11-1.1 16.6 0 22.5 5.8 43.6 16 62 10.2-18.4 16-39.5 16-62 0-5.6-.4-11.2-1.1-16.6-9.8 .8-20.1 .8-29.9 0zm-47-10.6c-43.5-16.4-78.9-49.5-98.1-91.5-46.9 19-80 65-80 118.7 0 70.7 57.3 128 128 128 30 0 57.6-10.3 79.4-27.6-19.8-28.5-31.4-63.1-31.4-100.4 0-9.3 .7-18.3 2.1-27.2zM240 278.7c4.4-9.5 9.5-18.6 15.5-27.1-21.5-17.1-48.7-27.4-78.3-27.6 14.2 24.5 36.3 43.9 62.8 54.7z"/></svg>