<svg xmlns="http://www.w3.org/2000/svg" viewBox="0 0 512 512"><path fill="currentColor" d="M311.9 305.5c12.5-4.5 26.2 2 30.7 14.4 21.1 58.6 3.3 129.3-46.5 179.2-2 2-4.1 4-6.2 5.9-9.8 9-24.9 8.3-33.9-1.5s-8.3-24.9 1.4-33.9c1.6-1.4 3.1-3 4.7-4.5 38.4-38.4 49.3-90.1 35.3-129-4.5-12.5 2-26.2 14.5-30.7zm-83.2 36.2c5.6-12 19.9-17.1 31.9-11.5s17.1 19.9 11.5 31.9c-26.5 56.4-89.1 93.8-159.6 93.8-2.9 0-5.7-.1-8.5-.2-13.2-.6-23.5-11.8-22.9-25s11.8-23.5 25-22.9c2.1 .1 4.3 .1 6.5 .1 54.3 0 98.6-28.8 116.2-66.2zm102-90c5.6-12 19.9-17.1 31.9-11.5 56.4 26.5 93.8 89.1 93.8 159.6 0 2.9-.1 5.7-.2 8.5-.6 13.2-11.8 23.5-25 22.9s-23.5-11.8-22.9-25c.1-2.1 .1-4.3 .1-6.5 0-54.3-28.8-98.6-66.2-116.2-12-5.6-17.1-19.9-11.5-31.9zM8.8 255.6c9.8-8.9 24.9-8.3 33.9 1.5 1.4 1.6 3 3.1 4.5 4.7 38.4 38.4 90 49.3 128.9 35.3 12.5-4.5 26.2 2 30.7 14.5 4.5 12.5-2 26.2-14.4 30.7-58.6 21.1-129.3 3.3-179.2-46.6-2-2-4-4.1-5.9-6.2-9-9.8-8.3-24.9 1.5-33.9zM255.7 288a32 32 0 1 1 .7-64 32 32 0 1 1 -.7 64zM81.5 80.7c13.2 .6 23.5 11.8 22.9 25-.1 2.1-.1 4.3-.1 6.5 0 54.3 28.8 98.6 66.2 116.2 12 5.6 17.1 19.9 11.5 31.9-5.6 12-19.9 17.1-31.9 11.5-56.4-26.5-93.8-89.1-93.8-159.6 0-2.9 .1-5.7 .2-8.5 .6-13.2 11.8-23.5 25-22.9zm238.8 89.1c58.6-21.1 129.3-3.3 179.2 46.5 2 2 4 4.1 5.9 6.2 9 9.8 8.3 24.9-1.5 33.9s-24.9 8.3-33.9-1.5c-1.4-1.6-3-3.1-4.5-4.7-38.4-38.4-90.1-49.3-129-35.3-12.5 4.5-26.2-2-30.7-14.4s2-26.2 14.4-30.7zM222.8 7c9.8-9 24.9-8.3 33.9 1.4 9 9.8 8.3 24.9-1.4 33.9-1.6 1.4-3.2 3-4.7 4.5-38.4 38.4-49.3 90-35.3 128.9 4.5 12.5-2 26.2-14.4 30.7-12.5 4.5-26.2-2-30.7-14.4-21.1-58.6-3.3-129.3 46.5-179.2 2-2 4.1-4 6.2-5.9zM408.7 56.2c13.2 .6 23.5 11.8 22.9 25s-11.8 23.5-25 22.9c-2.1-.1-4.3-.1-6.5-.1-54.3 0-98.6 28.8-116.2 66.2-5.6 12-19.9 17.1-31.9 11.5-12-5.6-17.1-19.9-11.5-31.9 26.5-56.4 89.1-93.8 159.6-93.8 2.9 0 5.7 .1 8.5 .2z"/></svg>