<svg xmlns="http://www.w3.org/2000/svg" viewBox="0 0 320 512"><path fill="currentColor" d="M128 48l64 0 0 80-64 0 0-80zM80 32l0 96-16 0c-35.3 0-64 28.7-64 64L0 448c0 35.3 28.7 64 64 64l192 0c35.3 0 64-28.7 64-64l0-256c0-35.3-28.7-64-64-64l-16 0 0-40 56 0c13.3 0 24-10.7 24-24s-10.7-24-24-24l-56 0 0-8c0-17.7-14.3-32-32-32L112 0C94.3 0 80 14.3 80 32zM192 176l64 0c8.8 0 16 7.2 16 16l0 256c0 8.8-7.2 16-16 16L64 464c-8.8 0-16-7.2-16-16l0-256c0-8.8 7.2-16 16-16l128 0zm32 168c0-32.5-37-80.9-50.9-97.9-3.2-3.9-8.1-6.1-13.1-6.1s-9.9 2.2-13.1 6.1c-13.8 16.9-50.9 65.3-50.9 97.9 0 35.3 28.7 56 64 56s64-20.7 64-56z"/></svg>