<svg xmlns="http://www.w3.org/2000/svg" viewBox="0 0 512 512"><path fill="currentColor" d="M208.9 125.4c14.6-8.7 30.5-13.4 47.1-13.4s32.6 4.8 47.1 13.4l-23.6-61.4-47 0-23.6 61.4zm-48.6-7.3l31.4-81.6C196.4 24.2 208.3 16 221.5 16l69 0c13.2 0 25.1 8.2 29.9 20.5l31.4 81.6c10.3-4 21.1-6.1 32.2-6.1 70.7 0 128 86 128 192S454.7 496 384 496c-16.7 0-32.6-4.8-47.2-13.5-10.3-6.1-23.4-6.1-33.7 0-14.6 8.7-30.5 13.5-47.2 13.5s-32.6-4.8-47.2-13.5c-10.3-6.1-23.4-6.1-33.7 0-14.6 8.7-30.5 13.5-47.2 13.5-70.7 0-128-86-128-192S57.3 112 128 112c11.1 0 21.9 2.1 32.2 6.1zm-9.6 323.2c25.4-15.1 57.3-15.1 82.7 0 7.9 4.7 15.5 6.7 22.6 6.7s14.7-2 22.6-6.7c25.4-15.1 57.3-15.1 82.7 0 7.9 4.7 15.5 6.7 22.6 6.7 14.3 0 33.1-8.7 50.6-34.9 17.2-25.8 29.4-64.3 29.4-109.1s-12.2-83.3-29.4-109.1c-17.4-26.2-36.3-34.9-50.6-34.9-7.2 0-14.7 2-22.6 6.7-25.4 15.1-57.3 15.1-82.7 0-7.9-4.7-15.5-6.7-22.6-6.7s-14.7 2-22.6 6.7c-25.4 15.1-57.3 15.1-82.7 0-7.9-4.7-15.5-6.7-22.6-6.7-14.3 0-33.1 8.7-50.6 34.9-17.2 25.8-29.4 64.3-29.4 109.1s12.2 83.3 29.4 109.1c17.4 26.2 36.3 34.9 50.6 34.9 7.2 0 14.7-2 22.6-6.7z"/></svg>