<svg xmlns="http://www.w3.org/2000/svg" viewBox="0 0 320 512"><path fill="currentColor" d="M128 128l64 0 0-80-64 0 0 80zm-48 0l0-96C80 14.3 94.3 0 112 0l96 0c17.7 0 32 14.3 32 32l0 8 56 0c13.3 0 24 10.7 24 24s-10.7 24-24 24l-56 0 0 40 16 0c35.3 0 64 28.7 64 64l0 256c0 35.3-28.7 64-64 64L64 512c-35.3 0-64-28.7-64-64L0 192c0-35.3 28.7-64 64-64l16 0zm160 48L64 176c-8.8 0-16 7.2-16 16l0 256c0 8.8 7.2 16 16 16l192 0c8.8 0 16-7.2 16-16l0-256c0-8.8-7.2-16-16-16l-16 0zM132 256c0-8.8 7.2-16 16-16l24 0c8.8 0 16 7.2 16 16l0 36 36 0c8.8 0 16 7.2 16 16l0 24c0 8.8-7.2 16-16 16l-36 0 0 36c0 8.8-7.2 16-16 16l-24 0c-8.8 0-16-7.2-16-16l0-36-36 0c-8.8 0-16-7.2-16-16l0-24c0-8.8 7.2-16 16-16l36 0 0-36z"/></svg>