<svg xmlns="http://www.w3.org/2000/svg" viewBox="0 0 640 512"><path fill="currentColor" d="M112 0C98.7 0 88 10.7 88 24s10.7 24 24 24l0 160-64 0c0-13.3-10.7-24-24-24S0 194.7 0 208L0 400c0 13.3 10.7 24 24 24s24-10.7 24-24l256 0 0-48-256 0 0-96 112 0 0-208 96 0 0 208 48 0 0-208c13.3 0 24-10.7 24-24S317.3 0 304 0L112 0zM576 144c8.8 0 16 7.2 16 16l0 288c0 8.8-7.2 16-16 16l-160 0c-8.8 0-16-7.2-16-16l0-288c0-8.8 7.2-16 16-16l160 0zM416 96c-35.3 0-64 28.7-64 64l0 288c0 35.3 28.7 64 64 64l160 0c35.3 0 64-28.7 64-64l0-288c0-35.3-28.7-64-64-64L416 96zm40 96c-13.3 0-24 10.7-24 24s10.7 24 24 24l80 0c13.3 0 24-10.7 24-24s-10.7-24-24-24l-80 0zm0 88c-13.3 0-24 10.7-24 24s10.7 24 24 24l80 0c13.3 0 24-10.7 24-24s-10.7-24-24-24l-80 0zm0 88c-13.3 0-24 10.7-24 24s10.7 24 24 24l80 0c13.3 0 24-10.7 24-24s-10.7-24-24-24l-80 0z"/></svg>