<svg xmlns="http://www.w3.org/2000/svg" viewBox="0 0 640 512"><path fill="currentColor" d="M168 112c-4.4 0-8 3.6-8 8l0 79.1c0 22.6-18.3 40.9-40.9 40.9-15 0-26.5-8.1-33.5-16.3-4.9-5.9-9.8-7.7-13.6-7.7-4 0-9.5 2.1-14.7 9.1S48 243 48 256 52 279.8 57.3 286.9 68 296 72 296c3.7 0 8.6-1.8 13.6-7.7 7-8.3 18.5-16.3 33.5-16.3 22.6 0 40.9 18.3 40.9 40.9l0 79.1c0 4.4 3.6 8 8 8l76.5 0c-2.9-7.4-4.5-15.5-4.5-24 0-43.1 39.4-72 80-72s80 28.9 80 72c0 8.5-1.6 16.6-4.5 24l76.5 0c4.4 0 8-3.6 8-8l0-79.1c0-22.6 18.3-40.9 40.9-40.9 15 0 26.5 8.1 33.5 16.3 4.9 5.9 9.8 7.7 13.6 7.7 4 0 9.5-2.1 14.7-9.1s9.3-17.9 9.3-30.9-4-23.8-9.3-30.9-10.7-9.1-14.7-9.1c-3.7 0-8.6 1.8-13.6 7.7-7 8.3-18.5 16.3-33.5 16.3-22.6 0-40.9-18.3-40.9-40.9l0-79.1c0-4.4-3.6-8-8-8l-76.5 0c2.9 7.4 4.5 15.5 4.5 24 0 43.1-39.4 72-80 72s-80-28.9-80-72c0-8.5 1.6-16.6 4.5-24L168 112zm-56 8c0-30.9 25.1-56 56-56l102.1 0c18.7 0 33.9 15.2 33.9 33.9 0 10.1-4.5 18.5-9.9 24.2-4.2 4.3-6.1 9.2-6.1 13.9 0 9.9 10.7 24 32 24s32-14.1 32-24c0-4.7-1.9-9.5-6.1-13.9-5.5-5.7-9.9-14.1-9.9-24.2 0-18.7 15.2-33.9 33.9-33.9L472 64c30.9 0 56 25.1 56 56l0 62.6c10.9-8.8 24.6-14.6 40-14.6 22.5 0 41 12.2 53.1 28.3s18.9 37.3 18.9 59.7-6.8 43.5-18.9 59.7-30.6 28.3-53.1 28.3c-15.4 0-29.1-5.8-40-14.6l0 62.6c0 30.9-25.1 56-56 56l-102.1 0c-18.7 0-33.9-15.2-33.9-33.9 0-10.1 4.5-18.5 9.9-24.2 4.2-4.3 6.1-9.2 6.1-13.9 0-9.9-10.7-24-32-24s-32 14.1-32 24c0 4.7 1.9 9.5 6.1 13.9 5.5 5.7 9.9 14.1 9.9 24.2 0 18.7-15.2 33.9-33.9 33.9L168 448c-30.9 0-56-25.1-56-56l0-62.6c-10.9 8.8-24.6 14.6-40 14.6-22.5 0-41-12.2-53.1-28.3S0 278.4 0 256 6.8 212.5 18.9 196.3 49.5 168 72 168c15.4 0 29.1 5.8 40 14.6l0-62.6z"/></svg>