<svg xmlns="http://www.w3.org/2000/svg" viewBox="0 0 512 512"><path fill="currentColor" d="M64 0C28.7 0 0 28.7 0 64l0 72c0 13.3 10.7 24 24 24s24-10.7 24-24l0-72c0-8.8 7.2-16 16-16l72 0c13.3 0 24-10.7 24-24S149.3 0 136 0L64 0zM376 0c-13.3 0-24 10.7-24 24s10.7 24 24 24l72 0c8.8 0 16 7.2 16 16l0 72c0 13.3 10.7 24 24 24s24-10.7 24-24l0-72c0-35.3-28.7-64-64-64L376 0zM48 376c0-13.3-10.7-24-24-24S0 362.7 0 376l0 72c0 35.3 28.7 64 64 64l72 0c13.3 0 24-10.7 24-24s-10.7-24-24-24l-72 0c-8.8 0-16-7.2-16-16l0-72zm464 0c0-13.3-10.7-24-24-24s-24 10.7-24 24l0 72c0 8.8-7.2 16-16 16l-72 0c-13.3 0-24 10.7-24 24s10.7 24 24 24l72 0c35.3 0 64-28.7 64-64l0-72zM144 144l48 0 0 48-48 0 0-48zm-48 0l0 48c0 26.5 21.5 48 48 48l48 0c26.5 0 48-21.5 48-48l0-48c0-26.5-21.5-48-48-48l-48 0c-26.5 0-48 21.5-48 48zm224 0l48 0 0 48-48 0 0-48zm-48 0l0 48c0 26.5 21.5 48 48 48l48 0c26.5 0 48-21.5 48-48l0-48c0-26.5-21.5-48-48-48l-48 0c-26.5 0-48 21.5-48 48zM192 320l0 48-48 0 0-48 48 0zm-48-48c-26.5 0-48 21.5-48 48l0 48c0 26.5 21.5 48 48 48l48 0c26.5 0 48-21.5 48-48l0-48c0-26.5-21.5-48-48-48l-48 0zm160 0a32 32 0 1 0 0 64 32 32 0 1 0 0-64zM272 384a32 32 0 1 0 64 0 32 32 0 1 0 -64 0zM384 272a32 32 0 1 0 0 64 32 32 0 1 0 0-64zM352 384a32 32 0 1 0 64 0 32 32 0 1 0 -64 0z"/></svg>