<svg xmlns="http://www.w3.org/2000/svg" viewBox="0 0 448 512"><path fill="currentColor" d="M48 80l0 96 96 0 0-96-96 0zM0 80C0 53.5 21.5 32 48 32l96 0c26.5 0 48 21.5 48 48l0 96c0 26.5-21.5 48-48 48l-96 0c-26.5 0-48-21.5-48-48L0 80zM48 336l0 96 96 0 0-96-96 0zM0 336c0-26.5 21.5-48 48-48l96 0c26.5 0 48 21.5 48 48l0 96c0 26.5-21.5 48-48 48l-96 0c-26.5 0-48-21.5-48-48l0-96zM400 80l-96 0 0 96 96 0 0-96zM304 32l96 0c26.5 0 48 21.5 48 48l0 96c0 26.5-21.5 48-48 48l-96 0c-26.5 0-48-21.5-48-48l0-96c0-26.5 21.5-48 48-48zM288 352a32 32 0 1 1 0-64 32 32 0 1 1 0 64zm0 64c17.7 0 32 14.3 32 32s-14.3 32-32 32-32-14.3-32-32 14.3-32 32-32zm96 32c0-17.7 14.3-32 32-32s32 14.3 32 32-14.3 32-32 32-32-14.3-32-32zm32-96a32 32 0 1 1 0-64 32 32 0 1 1 0 64zm-32 32a32 32 0 1 1 -64 0 32 32 0 1 1 64 0z"/></svg>