<svg xmlns="http://www.w3.org/2000/svg" viewBox="0 0 512 512"><path fill="currentColor" d="M245.7 0c-24.4 0-45.1 17.9-48.5 42.1l-.7 4.9c-7.8 54.3 8.4 108.9 43.5 150.1l0 20.6c-66.8 20.7-119.8 73-141.4 139.4-8.2-3.3-17.2-5.1-26.6-5.1-39.8 0-72 32.2-72 72s32.2 72 72 72c14.7 0 28.3-4.4 39.7-11.9 16.1 17.2 38.9 27.9 64.3 27.9l128 0c23.9 0 44.7-13.1 55.7-32.4l5.1 6.8c21.2 28.3 61.3 34 89.6 12.8s34-61.3 12.8-89.6L388 304c46.4-.1 84-37.8 84-84.3 0-25.3-11.4-49.3-31-65.3L404 124.3c-5.6-4.5-11.5-8.6-17.6-12 10.1-24.8 13.6-52.1 9.8-79.4l-.9-6c-2.2-15.4-15.4-26.8-31-26.8-8.2 0-16.2 3.3-22 9.1l-2 2c-5.8 5.7-11 11.9-15.7 18.3 14.7 21.5 25.1 45.4 30.7 70.4-8.4-2.1-17-3.4-25.7-3.7-8.2-29.3-23.8-56.6-46.2-78.8l-3.1-3.1 0 0C271 5.1 258.6 0 245.7 0zM88.7 406.7c-.4 5.7-.7 11.4-.7 17.3 0 5.6 .5 11.1 1.5 16.4-4.4 4.7-10.6 7.6-17.5 7.6-13.3 0-24-10.7-24-24s10.7-24 24-24c6.5 0 12.4 2.6 16.7 6.7zm156-357.9c.1-.5 .5-.9 1-.9 .3 0 .5 .1 .7 .3l3.1 3.1 0 0c20.4 20.2 33.2 46.2 37.2 73.7 1 6.7 4.7 12.6 10.3 16.4s12.5 5 19 3.5c2.7-.6 5.5-1 8.5-1 17.9 0 35.3 6.2 49.3 17.5l36.9 30.1c8.4 6.9 13.4 17.2 13.4 28.1 0 20-16.2 36.3-36.3 36.3L352 256c-13.3 0-24 10.7-24 24l0 16c0 5.2 1.7 10.2 4.8 14.4l96 128c5.3 7.1 3.9 17.1-3.2 22.4s-17.1 3.9-22.4-3.2l-68.6-91.4c-4.2-5.6-10.6-9-17.5-9.5s-13.8 2.1-18.7 7L271 391c-6.9 6.9-8.9 17.2-5.2 26.2S278.3 432 288 432l16 0c8.8 0 16 7.2 16 16s-7.2 16-16 16l-128 0c-22.1 0-40-17.9-40-40 0-80.8 57-148.2 133-164.3 11.1-2.4 19-12.1 19-23.5l0-48.3c0-6.1-2.4-12.1-6.6-16.5-29.7-31.3-43.6-74.6-37.4-117.6l.7-4.9zM352 208a16 16 0 1 0 0-32 16 16 0 1 0 0 32z"/></svg>