<svg xmlns="http://www.w3.org/2000/svg" viewBox="0 0 512 512"><path fill="currentColor" d="M336 93.1C348.7 77 369.6 68.8 390.1 72.5 376.5 57 356.8 48 336 48s-40.5 9-54.1 24.5c20.5-3.6 41.4 4.5 54.1 20.6zm0 69.5c-2.6 3.4-5.7 6.5-9.1 9.2l-35.8 28.6c3.4 1.9 6.8 4 10.1 6.2l10.9 7.3c1.1-12.3 11.4-21.9 23.9-21.9s22.8 9.6 23.9 21.9l10.9-7.3c3.3-2.2 6.7-4.2 10.1-6.2l-35.8-28.6c-3.4-2.7-6.5-5.8-9.1-9.2zm78.8 23.9l31.9-9.6c5.6-1.7 9.4-6.8 9.4-12.6 0-2.8-.9-5.6-2.6-7.9l-17.8-23.7-42.9-25.7c-14.4-8.6-32.9-.4-36.2 16-1.8 8.9 1.5 18 8.6 23.7l49.6 39.7zM306.9 146.8c7.1-5.7 10.4-14.8 8.6-23.7-3.3-16.4-21.9-24.7-36.2-16l-42.9 25.7-17.7 23.7c-1.7 2.3-2.6 5-2.6 7.9 0 5.8 3.8 10.9 9.4 12.6l31.9 9.6 49.6-39.7zM206.2 93.1L194.2 57.3c-1.5-4.4-2.2-9.1-2.2-13.8 0-24 19.5-43.5 43.5-43.5l1.3 0c3.3 0 6.5 .4 9.7 1.1l41 9.1C302.7 3.6 319.1 0 336 0s33.3 3.6 48.4 10.2l41-9.1c3.2-.7 6.5-1.1 9.7-1.1l1.3 0c24 0 43.5 19.5 43.5 43.5 0 4.7-.8 9.3-2.2 13.8l-11.9 35.8 25.9 34.6c7.9 10.6 12.2 23.5 12.2 36.7 0 27-17.7 50.8-43.6 58.5l-35.3 10.6c-9.8 2.9-19.2 7.3-27.7 13l-18.8 12.6C366 267.5 351.2 272 336 272s-30-4.5-42.6-12.9l-18.8-12.6c-8.5-5.7-17.9-10.1-27.7-13l-35.3-10.6c-25.9-7.8-43.6-31.6-43.6-58.5 0-13.2 4.3-26.1 12.2-36.7l25.9-34.6zM144 241.9c4.7-4.5 9.6-8.8 14.6-12.8 11.3 10.9 25.2 19.2 40.9 24l6 1.8c-46.5 28-77.5 78.9-77.5 137.1 0 13.3-10.7 24-24 24s-24-10.7-24-24c0-10.9 .8-21.6 2.4-32l-34.4 0 0 32c0 39.8 32.2 72 72 72l184 0 0-8c0-13.3-10.7-24-24-24l-48 0c-13.3 0-24-10.7-24-24s10.7-24 24-24l48 0c39.8 0 72 32.2 72 72l0 8 80 0 0-8c0-13.3-10.7-24-24-24s-24-10.7-24-24 10.7-24 24-24c39.8 0 72 32.2 72 72l0 32c0 13.3-10.7 24-24 24l-336 0C53.7 512 0 458.3 0 392L0 104C0 64.2 32.2 32 72 32s72 32.2 72 72l0 137.9zm-48 70l0-47.9-48 0 0 48 47.9 0 .1-.1zM96 216l0-48-48 0 0 48 48 0zM307.3 364.4l-64-40c-11.2-7-14.7-21.8-7.6-33.1s21.8-14.7 33.1-7.6l64 40c11.2 7 14.7 21.8 7.6 33.1s-21.8 14.7-33.1 7.6zm56.4-7.6c-7-11.2-3.6-26 7.6-33.1l64-40c11.2-7 26-3.6 33.1 7.6s3.6 26-7.6 33.1l-64 40c-11.2 7-26 3.6-33.1-7.6zM48 120l48 0 0-16c0-13.3-10.7-24-24-24S48 90.7 48 104l0 16zm240-8a16 16 0 1 1 0 32 16 16 0 1 1 0-32zm80 16a16 16 0 1 1 32 0 16 16 0 1 1 -32 0z"/></svg>