<svg xmlns="http://www.w3.org/2000/svg" viewBox="0 0 576 512"><path fill="currentColor" d="M404.7-7.8C443-6.2 479.8 8 507.9 36.1l5.4 5.7C539.6 71.1 552 108.6 552.1 147l-.2 9.7c-2.6 48.9-24.8 99.1-64.3 138.6-68 68-171.2 86.2-240.9 36l-70.1 70.1c8.9 16.7 7.3 37.6-5.1 52.8l-3.3 3.7-54.1 54.1c-17.6 17.6-45.4 18.6-64.2 3.3l-3.7-3.3-14.1-14.1c-18.7-18.7-18.7-49.1 0-67.9l54.1-54.1 3.7-3.3c15.1-12.3 36-14.1 52.8-5.2l70.1-70.1c-17.8-24.9-27.1-54.4-28.4-84.8l-.2-7.7c0-51.9 22.4-106.2 64.6-148.4S345.1-8 397-8l7.7 .2zM66 464L80.1 478.1 134.1 424 120.1 409.9 66 464zM397 40c-38.3 0-80.6 16.7-114.4 50.5S232 166.7 232.1 205l.1 5.6c1.2 27.8 11.3 52.8 29.9 71.4 44.4 44.4 129.9 41.1 191.4-20.5 31.7-31.7 48.4-70.9 50.3-107.2l.2-7.2c0-28.1-9-53.7-26.4-73.2L474 70.1c-18.6-18.6-43.6-28.7-71.4-29.9L397 40z"/></svg>