<svg xmlns="http://www.w3.org/2000/svg" viewBox="0 0 512 512"><path fill="currentColor" d="M304.8 173.3c-14.3-8.4-31-13.3-48.8-13.3-53 0-96 43-96 96s43 96 96 96 96-43 96-96l48 0c0 79.5-64.5 144-144 144s-144-64.5-144-144 64.5-144 144-144c31.1 0 59.9 9.9 83.4 26.6l45.7-45.7C349.7 64.8 304.8 48 256 48 141.1 48 48 141.1 48 256s93.1 208 208 208 208-93.1 208-208l48 0c0 141.4-114.6 256-256 256S0 397.4 0 256 114.6 0 256 0c62.1 0 118.9 22.1 163.3 58.8L463 15c9.4-9.4 24.6-9.4 33.9 0s9.4 24.6 0 33.9L273 273c-9.4 9.4-24.6 9.4-33.9 0s-9.4-24.6 0-33.9l65.7-65.7z"/></svg>