<svg xmlns="http://www.w3.org/2000/svg" viewBox="0 0 576 512"><path fill="currentColor" d="M422.9 10.6c-11.4-6.3-25.8-2.3-32.4 9l-68 117.9c-3.3 5.7-4.1 12.4-2.3 18.7s6.2 11.6 12 14.6c30.8 16 51.8 48.2 51.8 85.3 0 13.3 10.7 24 24 24l136 0c6.4 0 12.5-2.5 17-7s7-10.6 7-17c0-105.8-58.7-197.8-145.1-245.4zm-237.4 9C179 8.3 164.6 4.3 153.1 10.6 66.7 58.2 8 150.2 8 256 8 262.4 10.5 268.5 15 273s10.6 7 17 7l136 0c13.3 0 24-10.7 24-24 0-37 21-69.2 51.8-85.3 5.8-3 10.1-8.3 12-14.6s1-13.1-2.3-18.7l-68-117.9zm190 122L419.7 65c54.4 37.6 91.9 97.8 99.1 167L430 232c-6.2-36.7-26.2-68.7-54.5-90.4zM146 232l-88.8 0c7.1-69.2 44.6-129.4 99.1-167l44.2 76.6c-28.3 21.7-48.4 53.7-54.5 90.4zm90.3 104.9c-5.5-3.5-12.3-4.7-18.6-3.1s-11.8 5.6-15.1 11.3L134.5 463c-6.5 11.3-2.8 25.7 8.3 32.5 42.3 25.7 92.1 40.5 145.2 40.5s102.8-14.8 145.2-40.5c11.2-6.8 14.9-21.2 8.3-32.5l-68-117.9c-3.3-5.7-8.7-9.8-15.1-11.3s-13.1-.4-18.6 3.1C324.8 346.5 307.1 352 288 352s-36.8-5.5-51.7-15.1zM188.4 465.6L232.7 389c17.1 7.1 35.8 11 55.3 11s38.3-3.9 55.3-11l44.2 76.6C357.4 480 323.7 488 288 488s-69.4-8-99.6-22.4zM288 304a48 48 0 1 0 0-96 48 48 0 1 0 0 96z"/></svg>