<svg xmlns="http://www.w3.org/2000/svg" viewBox="0 0 448 512"><path fill="currentColor" d="M102.4 101.6L148.5 7.2C150.6 2.8 155.1 0 160 0s9.4 2.8 11.5 7.2l46.1 94.4c4.2 8.6 6.4 18 6.4 27.6 0 34.7-28.1 62.8-62.8 62.8l-2.4 0c-34.7 0-62.8-28.1-62.8-62.8 0-9.6 2.2-19 6.4-27.6zm-96 224l46.1-94.4c2.1-4.4 6.6-7.2 11.5-7.2s9.4 2.8 11.5 7.2l46.1 94.4c4.2 8.6 6.4 18 6.4 27.6 0 34.7-28.1 62.8-62.8 62.8l-2.4 0c-34.7 0-62.8-28.1-62.8-62.8 0-9.6 2.2-19 6.4-27.6zM320 160c5 0 9.6 2.6 12.2 6.8l14.7 24 1.2 2 0 0 81.8 133.3c11.8 19.2 18 41.3 18 63.8 0 67.4-54.6 122-122 122l-12 0c-67.4 0-122-54.6-122-122 0-22.5 6.2-44.6 18-63.8l81.8-133.3 0 0 1.2-2 14.7-24c2.6-4.2 7.2-6.8 12.2-6.8zM250.9 351.3c-7.1 11.6-10.9 25-10.9 38.7 0 40.9 33.1 74 74 74l12 0c40.9 0 74-33.1 74-74 0-13.7-3.8-27.1-10.9-38.7L320 238.7 250.9 351.3z"/></svg>