<svg xmlns="http://www.w3.org/2000/svg" viewBox="0 0 576 512"><path fill="currentColor" d="M242.7 432L64 432c-8.8 0-16-7.2-16-16l0-144c0-8.8 7.2-16 16-16l241 0c33.8-29.9 78.3-48 127-48L64 208c-35.3 0-64 28.7-64 64L0 416c0 35.3 28.7 64 64 64l193.4 0c-6.9-15.1-11.9-31.2-14.8-48zM464 128c0-13.3-10.7-24-24-24L72 104c-13.3 0-24 10.7-24 24s10.7 24 24 24l368 0c13.3 0 24-10.7 24-24zM416 24c0-13.3-10.7-24-24-24L120 0C106.7 0 96 10.7 96 24s10.7 24 24 24l272 0c13.3 0 24-10.7 24-24zM576 400a144 144 0 1 0 -288 0 144 144 0 1 0 288 0zm-66.3 80.7C489.5 500.1 462.2 512 432 512s-57.5-11.9-77.7-31.3c6.2-19 24-32.7 45.1-32.7l65.2 0c21 0 38.9 13.7 45.1 32.7zM384 368a48 48 0 1 1 96 0 48 48 0 1 1 -96 0z"/></svg>