<svg xmlns="http://www.w3.org/2000/svg" viewBox="0 0 512 512"><path fill="currentColor" d="M240 112l0 96-192 0 0-96 192 0zM48 64C21.5 64 0 85.5 0 112l0 96c0 26.5 21.5 48 48 48l192 0c26.5 0 48-21.5 48-48l0-96c0-26.5-21.5-48-48-48L48 64zm416 48l0 256-64 0 0-256 64 0zM400 64c-26.5 0-48 21.5-48 48l0 256c0 26.5 21.5 48 48 48l64 0c26.5 0 48-21.5 48-48l0-256c0-26.5-21.5-48-48-48l-64 0zM112 368l128 0 0 64-128 0 0-64zm-48 0l0 64c0 26.5 21.5 48 48 48l128 0c26.5 0 48-21.5 48-48l0-64c0-26.5-21.5-48-48-48l-128 0c-26.5 0-48 21.5-48 48z"/></svg>