<svg xmlns="http://www.w3.org/2000/svg" viewBox="0 0 576 512"><path fill="currentColor" d="M496 64c35.3 0 64 28.7 64 64l0 256-.3 6.5c-3.1 30.1-27 54.1-57.1 57.1l-6.5 .3-416 0-6.5-.3c-30.1-3.1-54.1-27-57.1-57.1L16 384 16 128c0-35.3 28.7-64 64-64l416 0zM80 112c-8.8 0-16 7.2-16 16l0 256c0 8.8 7.2 16 16 16l416 0c8.8 0 16-7.2 16-16l0-256c0-8.8-7.2-16-16-16L80 112zm48 48c13.3 0 24 10.7 24 24l0 144c0 13.3-10.7 24-24 24s-24-10.7-24-24l0-144c0-13.3 10.7-24 24-24zm124 0c37.6 0 68 30.4 68 68 0 17.4-6.6 33.2-17.3 45.2 10.8 12.6 17.3 28.9 17.3 46.8l0 8c0 13.3-10.7 24-24 24s-24-10.7-24-24l0-8c0-13.3-10.7-24-24-24l-8 0 0 32c0 13.3-10.7 24-24 24s-24-10.7-24-24l0-144c0-13.3 10.7-24 24-24l36 0zm172 0c30.9 0 56 25.1 56 56 0 13.3-10.7 24-24 24s-24-10.7-24-24c0-4.4-3.6-8-8-8l-16 0c-4.4 0-8 3.6-8 8l0 80c0 4.4 3.6 8 8 8l16 0c4.4 0 8-3.6 8-8 0-13.3 10.7-24 24-24s24 10.7 24 24c0 30.9-25.1 56-56 56l-16 0c-30.9 0-56-25.1-56-56l0-80c0-30.9 25.1-56 56-56l16 0zM240 248l12 0c11 0 20-9 20-20s-9-20-20-20l-12 0 0 40z"/></svg>