<svg xmlns="http://www.w3.org/2000/svg" viewBox="0 0 512 512"><path fill="currentColor" d="M272 48c-8.8 0-16 7.2-16 16l0 384c0 8.8 7.2 16 16 16l144 0c8.8 0 16-7.2 16-16l0-384c0-8.8-7.2-16-16-16L272 48zM208 64c0-35.3 28.7-64 64-64L416 0c35.3 0 64 28.7 64 64l0 384c0 35.3-28.7 64-64 64l-144 0c-35.3 0-64-28.7-64-64l0-384zM104 72c0-13.3 10.7-24 24-24s24 10.7 24 24l0 368c0 13.3-10.7 24-24 24s-24-10.7-24-24l0-368zM0 120c0-13.3 10.7-24 24-24s24 10.7 24 24l0 272c0 13.3-10.7 24-24 24S0 405.3 0 392L0 120z"/></svg>