<svg xmlns="http://www.w3.org/2000/svg" viewBox="0 0 512 512"><path fill="currentColor" d="M448 112c8.8 0 16 7.2 16 16l0 256c0 8.8-7.2 16-16 16L64 400c-8.8 0-16-7.2-16-16l0-256c0-8.8 7.2-16 16-16l384 0zM64 64C28.7 64 0 92.7 0 128L0 384c0 35.3 28.7 64 64 64l384 0c35.3 0 64-28.7 64-64l0-256c0-35.3-28.7-64-64-64L64 64zm56 96c-13.3 0-24 10.7-24 24l0 48c0 30.9 25.1 56 56 56l40 0 0 40c0 13.3 10.7 24 24 24s24-10.7 24-24l0-144c0-13.3-10.7-24-24-24s-24 10.7-24 24l0 56-40 0c-4.4 0-8-3.6-8-8l0-48c0-13.3-10.7-24-24-24zm176 0c-13.3 0-24 10.7-24 24l0 144c0 13.3 10.7 24 24 24s24-10.7 24-24l0-48c26.5 0 48 21.5 48 48 0 13.3 10.7 24 24 24s24-10.7 24-24c0-28.7-12.6-54.4-32.5-72 19.9-17.6 32.5-43.3 32.5-72 0-13.3-10.7-24-24-24s-24 10.7-24 24c0 26.5-21.5 48-48 48l0-48c0-13.3-10.7-24-24-24z"/></svg>