<svg xmlns="http://www.w3.org/2000/svg" viewBox="0 0 640 512"><path fill="currentColor" d="M576 64c35.3 0 64 28.7 64 64l0 256c0 35.3-28.7 64-64 64L64 448c-35.3 0-64-28.7-64-64L0 128C0 92.7 28.7 64 64 64l512 0zM64 112c-8.8 0-16 7.2-16 16l0 256c0 8.8 7.2 16 16 16l512 0c8.8 0 16-7.2 16-16l0-256c0-8.8-7.2-16-16-16L64 112zm124 48c11 0 20 9 20 20l0 152c0 9-6.1 17-14.8 19.3s-18-1.5-22.5-9.3L120 254.5 120 332c0 11-9 20-20 20s-20-9-20-20l0-152c0-9 6.1-17 14.8-19.3s18 1.5 22.5 9.3l50.7 87.5 0-77.5c0-11 9-20 20-20zm160 0c11 0 20 9 20 20s-9 20-20 20l-68 0 0 36 56 0c11 0 20 9 20 20s-9 20-20 20l-56 0 0 36 68 0c11 0 20 9 20 20s-9 20-20 20l-88 0c-11 0-20-9-20-20l0-152c0-11 9-20 20-20l88 0zm192 0c11 0 20 9 20 20l0 79.9c0 13.8-3.4 27.5-10 39.7l-22.4 41.8c-3.5 6.5-10.3 10.6-17.6 10.6s-14.1-4.1-17.6-10.6l-12.4-23.1-12.4 23.1c-3.5 6.5-10.3 10.6-17.6 10.6s-14.1-4.1-17.6-10.6L410 299.6c-6.5-12.2-10-25.8-10-39.7l0-79.9c0-11 9-20 20-20s20 9 20 20l0 79.9c0 7.3 1.8 14.4 5.2 20.8l4.8 8.9 12.4-23.1 1.4-2.3c3.7-5.1 9.7-8.2 16.2-8.2 7.4 0 14.1 4.1 17.6 10.6l12.3 23.1 4.8-8.9c3.4-6.4 5.2-13.5 5.2-20.8l0-79.9c0-11 9-20 20-20z"/></svg>