<svg xmlns="http://www.w3.org/2000/svg" viewBox="0 0 640 512"><path fill="currentColor" d="M582.5 64.3C614.8 67.6 640 94.9 640 128l0 256-.3 6.5c-3.1 30.1-27 54.1-57.1 57.1l-6.5 .3-512 0-6.5-.3c-30.1-3.1-54.1-27-57.1-57.1L0 384 0 128C0 94.9 25.2 67.6 57.5 64.3l6.5-.3 512 0 6.5 .3zM64 112c-8.8 0-16 7.2-16 16l0 256c0 8.8 7.2 16 16 16l512 0c8.8 0 16-7.2 16-16l0-256c0-8.8-7.2-16-16-16L64 112zm80 64c26.5 0 48 21.5 48 48 0 10.3-3.3 19.8-8.8 27.6 10.2 8.8 16.8 21.8 16.8 36.4 0 26.5-21.5 48-48 48l-40 0c-7.7 0-14.2-5.5-15.7-12.8L96 320 96 192c0-8.8 7.2-16 16-16l32 0zm160 0c8.8 0 16 7.2 16 16s-7.2 16-16 16l-48 0 0 32 32 0c8.8 0 16 7.2 16 16s-7.2 16-16 16l-32 0 0 32 48 0c8.8 0 16 7.2 16 16s-7.2 16-16 16l-64 0c-8.8 0-16-7.2-16-16l0-128 .3-3.2c1.5-7.3 8-12.8 15.7-12.8l64 0zm112 0c8.8 0 16 7.2 16 16s-7.2 16-16 16l-16 0 0 112c0 8.8-7.2 16-16 16s-16-7.2-16-16l0-112-16 0c-8.8 0-16-7.2-16-16s7.2-16 16-16l64 0zm88 0c22.1 0 40 17.9 40 40l0 104c0 8.8-7.2 16-16 16s-16-7.2-16-16l0-32-32 0 0 32c0 8.8-7.2 16-16 16s-16-7.2-16-16l0-104c0-22.1 17.9-40 40-40l16 0zM128 304l24 0c8.8 0 16-7.2 16-16s-7.2-16-16-16l-24 0 0 32zm360-96c-4.4 0-8 3.6-8 8l0 40 32 0 0-40c0-4.4-3.6-8-8-8l-16 0zM128 240l16 0c8.8 0 16-7.2 16-16s-7.2-16-16-16l-16 0 0 32z"/></svg>