<svg xmlns="http://www.w3.org/2000/svg" viewBox="0 0 576 512"><path fill="currentColor" d="M496 64c35.3 0 64 28.7 64 64l0 256-.3 6.5c-3.1 30.1-27 54.1-57.1 57.1l-6.5 .3-416 0-6.5-.3c-30.1-3.1-54.1-27-57.1-57.1L16 384 16 128c0-35.3 28.7-64 64-64l416 0zM80 112c-8.8 0-16 7.2-16 16l0 256c0 8.8 7.2 16 16 16l416 0c8.8 0 16-7.2 16-16l0-256c0-8.8-7.2-16-16-16L80 112zm96 48c35.3 0 64 28.7 64 64l0 104c0 13.3-10.7 24-24 24s-24-10.7-24-24l0-24-32 0 0 24c0 13.3-10.7 24-24 24s-24-10.7-24-24l0-104c0-35.3 28.7-64 64-64zm160 0c35.3 0 64 28.7 64 64s-28.7 64-64 64l-16 0 0 40c0 13.3-10.7 24-24 24s-24-10.7-24-24l0-144c0-13.3 10.7-24 24-24l40 0zm112 0c13.3 0 24 10.7 24 24l0 144c0 13.3-10.7 24-24 24s-24-10.7-24-24l0-144c0-13.3 10.7-24 24-24zM176 208c-8.8 0-16 7.2-16 16l0 32 32 0 0-32c0-8.8-7.2-16-16-16zm144 32l16 0c8.8 0 16-7.2 16-16s-7.2-16-16-16l-16 0 0 32z"/></svg>