<svg xmlns="http://www.w3.org/2000/svg" viewBox="0 0 640 512"><path fill="currentColor" d="M80 112c-8.8 0-16 7.2-16 16l0 256c0 8.8 7.2 16 16 16l480 0c8.8 0 16-7.2 16-16l0-256c0-8.8-7.2-16-16-16L80 112zM16 128c0-35.3 28.7-64 64-64l480 0c35.3 0 64 28.7 64 64l0 256c0 35.3-28.7 64-64 64L80 448c-35.3 0-64-28.7-64-64l0-256zm104 32l40 0c35.3 0 64 28.7 64 64s-28.7 64-64 64l-16 0 0 40c0 13.3-10.7 24-24 24s-24-10.7-24-24l0-144c0-13.3 10.7-24 24-24zm40 80c8.8 0 16-7.2 16-16s-7.2-16-16-16l-16 0 0 32 16 0zm120-80l36 0c37.6 0 68 30.4 68 68 0 17.4-6.5 33.2-17.2 45.3 10.8 12.6 17.2 28.9 17.2 46.7l0 8c0 13.3-10.7 24-24 24s-24-10.7-24-24l0-8c0-13.3-10.7-24-24-24l-8 0 0 32c0 13.3-10.7 24-24 24s-24-10.7-24-24l0-144c0-13.3 10.7-24 24-24zm32 88l4 0c11 0 20-9 20-20s-9-20-20-20l-12 0 0 40 8 0zm152-32l0 80c0 4.4 3.6 8 8 8l16 0c4.4 0 8-3.6 8-8l0-80c0-4.4-3.6-8-8-8l-16 0c-4.4 0-8 3.6-8 8zm8-56l16 0c30.9 0 56 25.1 56 56l0 80c0 30.9-25.1 56-56 56l-16 0c-30.9 0-56-25.1-56-56l0-80c0-30.9 25.1-56 56-56z"/></svg>