<svg xmlns="http://www.w3.org/2000/svg" viewBox="0 0 640 512"><path fill="currentColor" d="M80 112c-8.8 0-16 7.2-16 16l0 256c0 8.8 7.2 16 16 16l480 0c8.8 0 16-7.2 16-16l0-256c0-8.8-7.2-16-16-16L80 112zM16 128c0-35.3 28.7-64 64-64l480 0c35.3 0 64 28.7 64 64l0 256c0 35.3-28.7 64-64 64L80 448c-35.3 0-64-28.7-64-64l0-256zm128 56l0 64.2c0 16.5 5.7 32.5 16 45.3 10.3-12.8 16-28.7 16-45.3l0-64.2c0-13.3 10.7-24 24-24s24 10.7 24 24l0 64.2c0 31.8-12.6 62.3-35.1 84.9L177 345c-4.5 4.5-10.6 7-17 7s-12.5-2.5-17-7l-11.9-11.9c-22.5-22.5-35.1-53-35.1-84.9L96 184c0-13.3 10.7-24 24-24s24 10.7 24 24zm168 24c-4.4 0-8 3.6-8 8l0 80c0 4.4 3.6 8 8 8l16 0c4.4 0 8-3.6 8-8l0-80c0-4.4-3.6-8-8-8l-16 0zm-56 8c0-30.9 25.1-56 56-56l16 0c30.9 0 56 25.1 56 56l0 80c0 30.9-25.1 56-56 56l-16 0c-30.9 0-56-25.1-56-56l0-80zm184-56l40 0c35.3 0 64 28.7 64 64l0 64c0 35.3-28.7 64-64 64l-40 0c-13.3 0-24-10.7-24-24l0-144c0-13.3 10.7-24 24-24zm24 144l16 0c8.8 0 16-7.2 16-16l0-64c0-8.8-7.2-16-16-16l-16 0 0 96z"/></svg>