<svg xmlns="http://www.w3.org/2000/svg" viewBox="0 0 512 512"><path fill="currentColor" d="M318.6 84c-27.7-48-97-48-124.7 0l-9.3 16.1c-6.6 11.5-21.3 15.4-32.8 8.8S136.4 87.6 143 76.1L152.3 60C198.5-20 314-20 360.2 60l56.3 97.5 8.4-31.5c3.4-12.8 16.6-20.4 29.4-17s20.4 16.6 17 29.4l-23.4 87.4c-3.4 12.8-16.6 20.4-29.4 17L331 219.5c-12.8-3.4-20.4-16.6-17-29.4s16.6-20.4 29.4-17l31.5 8.4-56.3-97.5zM456.7 275.1c11.5-6.6 26.2-2.7 32.8 8.8l9.3 16.1c46.2 80-11.5 180-103.9 180l-112.6 0 23 23c9.4 9.4 9.4 24.6 0 33.9s-24.6 9.4-33.9 0l-64-64c-9.4-9.4-9.4-24.6 0-33.9l64-64c9.4-9.4 24.6-9.4 33.9 0s9.4 24.6 0 33.9l-23 23 112.6 0c55.4 0 90.1-60 62.4-108l-9.3-16.1c-6.6-11.5-2.7-26.2 8.8-32.8zM120.1 257.9l-8.4-31.5-56.3 97.5c-27.7 48 6.9 108 62.4 108l18.6 0c13.3 0 24 10.7 24 24s-10.7 24-24 24l-18.6 0C25.3 480-32.4 380 13.8 300l56.3-97.5-31.5 8.4c-12.8 3.4-26-4.2-29.4-17s4.2-26 17-29.4l87.4-23.4c12.8-3.4 26 4.2 29.4 17l23.4 87.4c3.4 12.8-4.2 26-17 29.4s-26-4.2-29.4-17z"/></svg>