<svg xmlns="http://www.w3.org/2000/svg" viewBox="0 0 448 512"><path fill="currentColor" d="M87 73L207 193c9.4 9.4 24.6 9.4 33.9 0L361 73c6.9-6.9 8.9-17.2 5.2-26.2S353.7 32 344 32L104 32c-9.7 0-18.5 5.8-22.2 14.8S80.2 66.1 87 73zm137 69.1L161.9 80 286.1 80 224 142.1zM41 119c-6.9-6.9-17.2-8.9-26.2-5.2S0 126.3 0 136L0 376c0 9.7 5.8 18.5 14.8 22.2S34.1 399.8 41 393L161 273c9.4-9.4 9.4-24.6 0-33.9L41 119zm69.1 137L48 318.1 48 193.9 110.1 256zM87 439c-6.9 6.9-8.9 17.2-5.2 26.2S94.3 480 104 480l240 0c9.7 0 18.5-5.8 22.2-14.8s1.7-19.3-5.2-26.2L241 319c-9.4-9.4-24.6-9.4-33.9 0L87 439zm137-69.1l62.1 62.1-124.1 0 62.1-62.1zM433.2 113.8c-9-3.7-19.3-1.7-26.2 5.2L287 239c-9.4 9.4-9.4 24.6 0 33.9L407 393c6.9 6.9 17.2 8.9 26.2 5.2S448 385.7 448 376l0-240c0-9.7-5.8-18.5-14.8-22.2zM400 318.1l-62.1-62.1 62.1-62.1 0 124.1z"/></svg>