<svg xmlns="http://www.w3.org/2000/svg" viewBox="0 0 448 512"><path fill="currentColor" d="M224 137.4L313.4 48 134.6 48 224 137.4zM66.4 19.8C71.4 7.8 83.1 0 96 0L352 0c12.9 0 24.6 7.8 29.6 19.8s2.2 25.7-6.9 34.9l-128 128c-12.5 12.5-32.8 12.5-45.3 0l-128-128c-9.2-9.2-11.9-22.9-6.9-34.9zM0 256c0-13.3 10.7-24 24-24l400 0c13.3 0 24 10.7 24 24s-10.7 24-24 24L24 280c-13.3 0-24-10.7-24-24zM134.6 464l178.7 0-89.4-89.4-89.4 89.4zM96 512c-12.9 0-24.6-7.8-29.6-19.8s-2.2-25.7 6.9-34.9l128-128c12.5-12.5 32.8-12.5 45.3 0l128 128c9.2 9.2 11.9 22.9 6.9 34.9S364.9 512 352 512L96 512z"/></svg>