<svg xmlns="http://www.w3.org/2000/svg" viewBox="0 0 512 512"><path fill="currentColor" d="M256 32c13.3 0 24 10.7 24 24l0 400c0 13.3-10.7 24-24 24s-24-10.7-24-24l0-400c0-13.3 10.7-24 24-24zM14.8 97.8c9-3.7 19.3-1.7 26.2 5.2L177 239c9.4 9.4 9.4 24.6 0 33.9L41 409c-6.9 6.9-17.2 8.9-26.2 5.2S0 401.7 0 392L0 120c0-9.7 5.8-18.5 14.8-22.2zM48 334.1L126.1 256 48 177.9 48 334.1zM471 103c6.9-6.9 17.2-8.9 26.2-5.2S512 110.3 512 120l0 272c0 9.7-5.8 18.5-14.8 22.2s-19.3 1.7-26.2-5.2L335 273c-9.4-9.4-9.4-24.6 0-33.9L471 103zM385.9 256l78.1 78.1 0-156.1-78.1 78.1z"/></svg>