<svg xmlns="http://www.w3.org/2000/svg" viewBox="0 0 576 512"><path fill="currentColor" d="M41-24.9c-9.4-9.4-24.6-9.4-33.9 0S-2.3-.3 7 9.1l528 528c9.4 9.4 24.6 9.4 33.9 0s9.4-24.6 0-33.9l-251-251 46.6-172.1 124.7 0-8.5 34.2c-3.2 12.9 4.6 25.9 17.5 29.1s25.9-4.6 29.1-17.5l11-44.1C544.6 56.5 525.5 32 499.5 32l-335 0c-17.7 0-33.2 11.6-38.3 28.4L41-24.9zM165.8 99.9l5-19.9 144.1 0-36 132.9-113-113zm84.1 219.8L219.5 432 160 432c-13.3 0-24 10.7-24 24s10.7 24 24 24l160 0c13.3 0 24-10.7 24-24s-10.7-24-24-24l-50.8 0 19.8-73.2-39.1-39.1z"/></svg>