<svg xmlns="http://www.w3.org/2000/svg" viewBox="0 0 320 512"><path fill="currentColor" d="M256-32c35.3 0 64 28.7 64 64l0 352-.2 8.2C315.5 476.8 245.6 544 160 544S4.5 476.8 .2 392.2L0 384 0 32C0-3.3 28.7-32 64-32l192 0zM64 16c-8.8 0-16 7.2-16 16l0 352c0 61.9 50.1 112 112 112s112-50.1 112-112l0-352c0-8.8-7.2-16-16-16L64 16zm56 320c13.3 0 24 10.7 24 24s-10.7 24-24 24-24-10.7-24-24 10.7-24 24-24zm80 0c13.3 0 24 10.7 24 24s-10.7 24-24 24-24-10.7-24-24 10.7-24 24-24zm-80-32a24 24 0 1 1 0-48 24 24 0 1 1 0 48zm80 0a24 24 0 1 1 0-48 24 24 0 1 1 0 48zm-40-96a80 80 0 1 1 0-160 80 80 0 1 1 0 160zm0-112a32 32 0 1 0 0 64 32 32 0 1 0 0-64z"/></svg>