<svg xmlns="http://www.w3.org/2000/svg" viewBox="0 0 576 512"><path fill="currentColor" d="M576 112a144 144 0 1 0 -288 0 144 144 0 1 0 288 0zM432 32c8.8 0 16 7.2 16 16l0 48 32 0c8.8 0 16 7.2 16 16s-7.2 16-16 16l-48 0c-8.8 0-16-7.2-16-16l0-64c0-8.8 7.2-16 16-16zm80 304c0-16.2-2.2-31.8-6.3-46.7-14.6 6.1-30.1 10.4-46.3 12.7 3 10.8 4.5 22.2 4.5 33.9 0 15.3-1.9 29.1-5.2 41.5-8.3-30.1-26.1-56.2-50-74.9-30.3-3.7-58.5-14.4-82.8-30.5-2-.1-4-.1-6-.1l-120 0c-13.3 0-24 10.7-24 24L176 361.4 54.6 240 176 118.6 176 184c0 13.3 10.7 24 24 24l65.7 0c-8.6-14.9-15.3-31-19.6-48l-22 0 0-80c0-12.9-7.8-24.6-19.8-29.6s-25.7-2.2-34.9 6.9l-160 160c-12.5 12.5-12.5 32.8 0 45.3l160 160c9.2 9.2 22.9 11.9 34.9 6.9S224 412.9 224 400l0-80 96 0c53 0 96 43 96 96 0 17.3-4.2 30.5-9.5 40.2-1.6 2.9-3.3 5.5-5 7.9-2.6 3.5-5.3 6.4-7.7 8.6-.5 .5-1 .9-1.4 1.4-4.8 4.9-8.3 11.3-8.3 18.1 0 10.9 8.8 19.7 19.7 19.7 2.8 0 5.6-.6 8.1-1.9 2.6-1.4 6.3-3.5 10.8-6.5 2.7-1.8 5.7-3.8 8.9-6.2 3.7-2.7 7.6-5.8 11.7-9.3 30.2-25.8 68.7-74.1 68.7-152.1z"/></svg>