<svg xmlns="http://www.w3.org/2000/svg" viewBox="0 0 640 512"><path fill="currentColor" d="M152 32C68.1 32 0 100.1 0 184L0 424c0 30.9 25.1 56 56 56l32 0c30.9 0 56-25.1 56-56l0-40 160 0 0 40c0 30.9 25.1 56 56 56l32 0c30.9 0 56-25.1 56-56l0-40 48 0 0 24c0 39.8 32.2 72 72 72s72-32.2 72-72l0-64c0-13.3-10.7-24-24-24s-24 10.7-24 24l0 64c0 13.3-10.7 24-24 24s-24-10.7-24-24l0-224c0-83.9-68.1-152-152-152L152 32zM496 288l0 48-72 0c-13.3 0-24 10.7-24 24l0 64c0 4.4-3.6 8-8 8l-32 0c-4.4 0-8-3.6-8-8l0-64c0-13.3-10.7-24-24-24l-208 0c-13.3 0-24 10.7-24 24l0 64c0 4.4-3.6 8-8 8l-32 0c-4.4 0-8-3.6-8-8l0-136 448 0zm0-48l-448 0 0-56C48 126.6 94.6 80 152 80l240 0c57.4 0 104 46.6 104 104l0 56zM128 184a24 24 0 1 0 0-48 24 24 0 1 0 0 48zm280-24a24 24 0 1 0 -48 0 24 24 0 1 0 48 0zM256 184a24 24 0 1 0 0-48 24 24 0 1 0 0 48z"/></svg>