<svg xmlns="http://www.w3.org/2000/svg" viewBox="0 0 576 512"><path fill="currentColor" d="M120 176l31 0c22.6 0 41-18.3 41-41 0-10.9-4.3-21.3-12-29L113 39c-4.5-4.5-10.6-7-17-7s-12.5 2.5-17 7l-67 67c-7.7 7.7-12 18.1-12 29 0 22.6 18.3 41 41 41l31 0 0 208c0 53 43 96 96 96l128 0c13.3 0 24-10.7 24-24s-10.7-24-24-24l-128 0c-26.5 0-48-21.5-48-48l0-208zM96 89.9L134.1 128 57.9 128 96 89.9zM576 377c0-22.6-18.3-41-41-41l-31 0 0-208c0-53-43-96-96-96L280 32c-13.3 0-24 10.7-24 24s10.7 24 24 24l128 0c26.5 0 48 21.5 48 48l0 208-31 0c-22.6 0-41 18.3-41 41 0 10.9 4.3 21.3 12 29l67 67c4.5 4.5 10.6 7 17 7s12.5-2.5 17-7l67-67c7.7-7.7 12-18.1 12-29zm-57.9 7l-38.1 38.1-38.1-38.1 76.1 0z"/></svg>