<svg xmlns="http://www.w3.org/2000/svg" viewBox="0 0 384 512"><path fill="currentColor" d="M229.5 48l-75 0c-21.6 0-41.3 12.4-50.6 31.9l-2.3 4.8 15.4 19.3 149.9 0 15.4-19.3-2.3-4.8c-9.3-19.5-29-31.9-50.6-31.9zM155.2 152l36.8 46.2 36.8-46.2-73.6 0zM257.9 281.1l52-65c13.4-16.8 16.1-39.7 6.8-59.1l-11.5-24.1-82.6 103.9 35.3 44.3zm89.5-35l-58.8 73.6 90.2 113.4c8.2 10.4 6.5 25.4-3.8 33.7l-80 64c-5 4-11.3 5.8-17.6 5.1s-12.1-3.9-16.1-8.9L36.6 246.1C11.7 215 6.7 172.4 23.9 136.4L60.6 59.3C77.9 23.1 114.4 0 154.5 0l75 0c40.1 0 76.6 23.1 93.9 59.3l36.7 77.2c17.1 36 12.2 78.6-12.7 109.7zM5.2 433.1l59.5-74.9 30.8 38.4-37.8 47.6 42.6 34.1 30.3-37.8 30.7 38.4-38.5 48.2c-4 5-9.8 8.2-16.1 8.9S94 534.7 89 530.7l-80-64c-10.3-8.3-12-23.3-3.8-33.7zM78.7 132.9L67.2 157.1c-9.2 19.4-6.6 42.3 6.8 59.1l209.7 262.1 42.6-34.1-247.6-311.3z"/></svg>