<svg xmlns="http://www.w3.org/2000/svg" viewBox="0 0 512 512"><path fill="currentColor" d="M488 64c-13.3 0-24 10.7-24 24l0 336c0 13.3 10.7 24 24 24s24-10.7 24-24l0-336c0-13.3-10.7-24-24-24zM377 273c4.5-4.5 7-10.6 7-17s-2.5-12.5-7-17L233 95c-6.9-6.9-17.2-8.9-26.2-5.2S192 102.3 192 112l0 64-64 0 0 0-80 0c-26.5 0-48 21.5-48 48l0 64c0 26.5 21.5 48 48 48l144 0 0 64c0 9.7 5.8 18.5 14.8 22.2s19.3 1.7 26.2-5.2L377 273zM128 288l-80 0 0-64 80 0 0 0 88 0c6.4 0 12.5-2.5 17-7s7-10.6 7-17l0-30.1 86.1 86.1-86.1 86.1 0-30.1c0-13.3-10.7-24-24-24l-88 0z"/></svg>