<svg xmlns="http://www.w3.org/2000/svg" viewBox="0 0 576 512"><path fill="currentColor" d="M400 70.6l0 57.4c0 13.3-10.7 24-24 24l-64 0c-13.3 0-24-10.7-24-24s10.7-24 24-24l40 0 0-72c0-12.9 7.8-24.6 19.8-29.6l0 0c12-5 25.7-2.2 34.9 6.9l160 160c12.5 12.5 12.5 32.8 0 45.3l-160 160c-9.2 9.2-22.9 11.9-34.9 6.9S352 364.9 352 352l0-72-152 0c-6.4 0-12.5-2.5-17-7s-7-10.6-7-17L176 198.6 54.6 320 176 441.4 176 384c0-13.3 10.7-24 24-24l64 0c13.3 0 24 10.7 24 24s-10.7 24-24 24l-40 0 0 72c0 12.9-7.8 24.6-19.8 29.6l0 0c-12 5-25.7 2.2-34.9-6.9l-160-160c-12.5-12.5-12.5-32.8 0-45.3l160-160c9.2-9.2 22.9-11.9 34.9-6.9S224 147.1 224 160l0 72 152 0c6.4 0 12.5 2.5 17 7s7 10.6 7 17L400 313.4 521.4 192 400 70.6zM372.7 340.7l0 0zm-169.4 128l0 0s0 0 0 0zm-160-160s0 0 0 0l0 0 0 0z"/></svg>