<svg xmlns="http://www.w3.org/2000/svg" viewBox="0 0 640 512"><path fill="currentColor" d="M640 120c0-13.3-10.7-24-24-24s-24 10.7-24 24l0 272c0 13.3 10.7 24 24 24s24-10.7 24-24l0-272zM368 166.6l89.4 89.4-89.4 89.4 0-33.4c0-13.3-10.7-24-24-24l-296 0 0-64 296 0c13.3 0 24-10.7 24-24l0-33.4zm134.6 112c12.5-12.5 12.5-32.8 0-45.3l-128-128c-9.2-9.2-22.9-11.9-34.9-6.9l0 0c-12 5-19.8 16.6-19.8 29.6l0 48-272 0c-26.5 0-48 21.5-48 48l0 64c0 26.5 21.5 48 48 48l272 0 0 48c0 12.9 7.8 24.6 19.8 29.6l0 0c12 5 25.7 2.2 34.9-6.9l128-128z"/></svg>