<svg xmlns="http://www.w3.org/2000/svg" viewBox="0 0 512 512"><path fill="currentColor" d="M505 239c9.4 9.4 9.4 24.6 0 33.9L361 417c-6.9 6.9-17.2 8.9-26.2 5.2S320 409.7 320 400l0-64-144 0c-26.5 0-48-21.5-48-48l0-64c0-26.5 21.5-48 48-48l80 0 0 0 64 0 0-64c0-9.7 5.8-18.5 14.8-22.2S354.1 88.2 361 95L505 239zM256 224l0 0-80 0 0 64 168 0c13.3 0 24 10.7 24 24l0 30.1 86.1-86.1-86.1-86.1 0 30.1c0 13.3-10.7 24-24 24l-88 0zM0 416a32 32 0 1 1 64 0 32 32 0 1 1 -64 0zM0 309.3a32 32 0 1 1 64 0 32 32 0 1 1 -64 0zM32 170.7a32 32 0 1 1 0 64 32 32 0 1 1 0-64zM0 96A32 32 0 1 1 64 96 32 32 0 1 1 0 96z"/></svg>