<svg xmlns="http://www.w3.org/2000/svg" viewBox="0 0 512 512"><path fill="currentColor" d="M377 0c-22.6 0-41 18.3-41 41l0 63-312 0c-13.3 0-24 10.7-24 24s10.7 24 24 24l312 0 0 63c0 22.6 18.3 41 41 41 10.9 0 21.3-4.3 29-12l99-99c4.5-4.5 7-10.6 7-17s-2.5-12.5-7-17l-99-99c-7.7-7.7-18.1-12-29-12zm7 57.9l70.1 70.1-70.1 70.1 0-140.1zM176 360l0-63c0-22.6-18.3-41-41-41-10.9 0-21.3 4.3-29 12L7 367c-4.5 4.5-7 10.6-7 17s2.5 12.5 7 17l99 99c7.7 7.7 18.1 12 29 12 22.6 0 41-18.3 41-41l0-63 312 0c13.3 0 24-10.7 24-24s-10.7-24-24-24l-312 0zM57.9 384l70.1-70.1 0 140.1-70.1-70.1z"/></svg>