<svg xmlns="http://www.w3.org/2000/svg" viewBox="0 0 512 512"><path fill="currentColor" d="M505 273c9.4-9.4 9.4-24.6 0-33.9L361 95c-6.9-6.9-17.2-8.9-26.2-5.2S320 102.3 320 112l0 64-112 0c-26.5 0-48 21.5-48 48l0 64c0 26.5 21.5 48 48 48l112 0 0 64c0 9.7 5.8 18.5 14.8 22.2s19.3 1.7 26.2-5.2L505 273zM368 200l0-30.1 86.1 86.1-86.1 86.1 0-30.1c0-13.3-10.7-24-24-24l-136 0 0-64 136 0c13.3 0 24-10.7 24-24zM168 80c13.3 0 24-10.7 24-24s-10.7-24-24-24L96 32C43 32 0 75 0 128L0 384c0 53 43 96 96 96l72 0c13.3 0 24-10.7 24-24s-10.7-24-24-24l-72 0c-26.5 0-48-21.5-48-48l0-256c0-26.5 21.5-48 48-48l72 0z"/></svg>