<svg xmlns="http://www.w3.org/2000/svg" viewBox="0 0 512 512"><path fill="currentColor" d="M119.9 105.1c-69.7 23.4-119.9 89.3-119.9 166.9 0 97.2 78.8 176 176 176 7.8 0 15.5-.5 23-1.5 32.3 39.9 81.6 65.5 137 65.5 97.2 0 176-78.8 176-176 0-84.8-60-155.6-139.9-172.3 10 18.1 17.6 37.7 22.3 58.4 41.3 21.2 69.6 64.3 69.6 113.9 0 70.7-57.3 128-128 128S208 406.7 208 336c0-54.9 34.6-101.8 83.2-119.9 8.2 16.9 12.8 35.9 12.8 55.9 0 37.5-16.2 71.3-41.9 94.7 6.3 15.2 17.2 28 30.9 36.8 36.2-32.2 59-79.2 59-131.5 0-77.6-50.2-143.4-119.9-166.9l22.5-50.6c1.9-4.4 1.8-9.4-.3-13.7l-16-32C235.6 3.4 230.1 0 224 0L128 0c-6.1 0-11.6 3.4-14.3 8.8l-16 32c-2.1 4.3-2.3 9.3-.3 13.7l22.5 50.6zM147.8 48l56.4 0 .4 .8-17.4 39.2-22.4 0-17.4-39.2 .4-.8zM160 336c0 22.6 4.2 44.1 12 63.9-68.8-2.1-124-58.6-124-127.9 0-70.7 57.3-128 128-128 32.8 0 62.7 12.3 85.3 32.6-59.9 28.1-101.3 88.9-101.3 159.4z"/></svg>