<svg xmlns="http://www.w3.org/2000/svg" viewBox="0 0 512 512"><path fill="currentColor" d="M59.7 168c8.9-9.4 22.9-19 42.1-27.6 38.2-17.1 92.7-28.4 154.2-28.4s116 11.2 154.2 28.4c19.1 8.6 33.2 18.2 42.1 27.6 8.8 9.3 11.7 17.4 11.7 24s-2.9 14.7-11.7 24c-.8 .9-1.7 1.7-2.5 2.6-47.3-26.8-117.6-42.6-193.8-42.6S109.6 191.8 62.2 218.6c-.9-.9-1.7-1.7-2.5-2.6-8.8-9.3-11.7-17.4-11.7-24s2.9-14.7 11.7-24zM464 268.6l0 51.4c0 6.6-2.9 14.7-11.7 24-8.9 9.4-22.9 19-42.1 27.6-38.2 17.1-92.7 28.4-154.2 28.4s-116-11.2-154.2-28.4c-19.1-8.6-33.2-18.2-42.1-27.6-8.8-9.3-11.7-17.4-11.7-24l0-51.4c10.3 7.1 21.8 13.3 34.1 18.9 45.7 20.5 107.2 32.6 173.9 32.6s128.1-12.1 173.9-32.6c12.4-5.5 23.9-11.8 34.1-18.9zM0 192L0 320c0 22.1 10.1 41.4 24.8 57 14.6 15.4 34.5 28.2 57.4 38.5 45.7 20.5 107.2 32.6 173.9 32.6s128.1-12.1 173.9-32.6c22.8-10.2 42.8-23 57.4-38.5 14.7-15.6 24.8-34.9 24.8-57l0-128c0-22.1-10.1-41.4-24.8-57-14.6-15.4-34.5-28.2-57.4-38.5-45.7-20.5-107.2-32.6-173.9-32.6S127.9 76.1 82.1 96.6C59.3 106.8 39.3 119.6 24.8 135 10.1 150.6 0 169.9 0 192zm256 80c-56.1 0-106.4-9.3-143.8-24 37.1-14.5 87.3-24 143.8-24s106.7 9.5 143.8 24c-37.4 14.7-87.7 24-143.8 24z"/></svg>