<svg xmlns="http://www.w3.org/2000/svg" viewBox="0 0 512 512"><path fill="currentColor" d="M48.8 403.7c-.6 2-.8 4-.8 6.1 0 12.3 10 22.3 22.3 22.3l161.7 0 0-40c0-13.3 10.7-24 24-24s24 10.7 24 24l0 40 161.7 0c12.3 0 22.3-10 22.3-22.3 0-2-.3-4.1-.8-6.1L375 91.6C373 84.8 366.7 80 359.6 80l-79.6 0 0 40c0 13.3-10.7 24-24 24s-24-10.7-24-24l0-40-79.6 0c-7.2 0-13.4 4.8-15.4 11.6l-88.2 312zM2.6 390.6l88.2-312C98.6 51 123.8 32 152.4 32l207.2 0c28.6 0 53.8 19 61.6 46.6l88.2 312c1.8 6.2 2.6 12.6 2.6 19.1 0 38.8-31.5 70.3-70.3 70.3L70.3 480c-38.8 0-70.3-31.5-70.3-70.3 0-6.5 .9-12.9 2.6-19.1zM280 216l0 80c0 13.3-10.7 24-24 24s-24-10.7-24-24l0-80c0-13.3 10.7-24 24-24s24 10.7 24 24z"/></svg>