<svg xmlns="http://www.w3.org/2000/svg" viewBox="0 0 576 512"><path fill="currentColor" d="M81.3 403.7l88.2-312c1.9-6.9 8.2-11.6 15.4-11.6l79.7 0 0 40c0 13.3 10.7 24 24 24s24-10.7 24-24l0-40 79.5 0c7.2 0 13.4 4.8 15.4 11.6l25 88.4c10.2-2.6 21-4 32-4 5.8 0 11.5 .4 17 1.1L453.7 78.6C445.9 51 420.7 32 392.1 32L184.9 32c-28.6 0-53.8 19-61.6 46.6l-88.2 312c-1.8 6.2-2.6 12.6-2.6 19.1 0 38.8 31.5 70.3 70.3 70.3l201.7 0 0-80.1c0-7.9 1-15.6 2.8-23-4.4-5.4-11.1-8.9-18.7-8.9-13.3 0-24 10.7-24 24l0 40-161.8 0c-12.3 0-22.3-10-22.3-22.3 0-2 .3-4.1 .8-6.1zM312.6 216c0-13.3-10.7-24-24-24s-24 10.7-24 24l0 80c0 13.3 10.7 24 24 24s24-10.7 24-24l0-80zm183.9 88.1l0 47.9-64 0 0-47.9c0-17.7 14.3-32 32-32s32 14.3 32 32zM352.5 400l0 96c0 26.5 21.5 48 48 48l128 0c26.5 0 48-21.5 48-48l0-96c0-20.9-13.4-38.7-32-45.3l0-50.6c0-44.2-35.8-80-80-80s-80 35.8-80 80l0 50.6c-18.6 6.6-32 24.4-32 45.3z"/></svg>