<svg xmlns="http://www.w3.org/2000/svg" viewBox="0 0 576 512"><path fill="currentColor" d="M24 32C10.7 32 0 42.7 0 56S10.7 80 24 80l16 0 0 64-16 0c-13.3 0-24 10.7-24 24l0 88c0 9.1 5.1 17.4 13.3 21.5l3.8 1.9c19 9.5 31 28.9 31 50.1L48 440c0 22.1 17.9 40 40 40l64 0c22.1 0 40-17.9 40-40l0-72c0-29.8 20.4-54.9 48-62l0-48.9c-54.3 7.8-96 54.4-96 110.9l0 64-48 0 0-102.6c0-35.7-18.3-68.7-48-87.6l0-49.8 192 0 0-48-24 0 0-64 24 0 0-48-216 0zM168 80l0 64-80 0 0-64 80 0zm360 0l0 352-72 0 0-40c0-13.3-10.7-24-24-24s-24 10.7-24 24l0 40-72 0 0-352 72 0 0 40c0 13.3 10.7 24 24 24s24-10.7 24-24l0-40 72 0zm0-48L336 32c-26.5 0-48 21.5-48 48l0 352c0 26.5 21.5 48 48 48l192 0c26.5 0 48-21.5 48-48l0-352c0-26.5-21.5-48-48-48zM432 208c-13.3 0-24 10.7-24 24l0 48c0 13.3 10.7 24 24 24s24-10.7 24-24l0-48c0-13.3-10.7-24-24-24z"/></svg>