<svg xmlns="http://www.w3.org/2000/svg" viewBox="0 0 640 512"><path fill="currentColor" d="M201 91.6l-88.2 312c-.6 2-.8 4-.8 6.1 0 12.3 10 22.3 22.3 22.3l172.4 0c2.8 16.8 7.8 32.9 14.8 48l-187.1 0c-38.8 0-70.3-31.5-70.3-70.3 0-6.5 .9-12.9 2.6-19.1l88.2-312C162.6 51 187.8 32 216.4 32l207.2 0c28.6 0 53.8 19 61.6 46.6l37.1 131.2c-8.6-1.2-17.3-1.8-26.2-1.8-8 0-16 .5-23.7 1.5L439 91.6C437 84.8 430.7 80 423.6 80l-79.6 0 0 40c0 13.3-10.7 24-24 24s-24-10.7-24-24l0-40-79.6 0c-7.2 0-13.4 4.8-15.4 11.6zM321.4 320c-.5 0-.9 0-1.4 0-13.3 0-24-10.7-24-24l0-80c0-13.3 10.7-24 24-24s24 10.7 24 24l0 66.7c-8.9 11.5-16.5 24-22.6 37.3zM352 400a144 144 0 1 1 288 0 144 144 0 1 1 -288 0zm201.4-60.9c-7.1-5.2-17.2-3.6-22.4 3.5l-53 72.9-26.8-26.8c-6.2-6.2-16.4-6.2-22.6 0s-6.2 16.4 0 22.6l40 40c3.3 3.3 7.9 5 12.6 4.6s8.9-2.8 11.7-6.5l64-88c5.2-7.1 3.6-17.2-3.5-22.3z"/></svg>