<svg xmlns="http://www.w3.org/2000/svg" viewBox="0 0 640 512"><path fill="currentColor" d="M192 352l-128 0 0-235.2c0-15.8 20.5-22 29.3-8.9 3.3 5 8.5 12.7 15.5 23.2l3.2 4.8 80 120 0-139.2c0-15.8 20.5-22 29.3-8.9 3.3 5 8.5 12.7 15.5 23.2l3.2 4.8 80 120 0-139.2c0-15.8 20.5-22 29.3-8.9 3.3 5 8.5 12.7 15.5 23.2l3.2 4.8 80 120 0-139.2c0-15.8 20.5-22 29.3-8.9 3.3 5 8.5 12.7 15.5 23.2L496 136 606.8 302.2c14.2 21.3-1.1 49.8-26.6 49.8L192 352zm-25.7-48l-54.3-81.5 0 81.5 54.3 0zM0 424c0-13.3 10.7-24 24-24l592 0c13.3 0 24 10.7 24 24s-10.7 24-24 24L24 448c-13.3 0-24-10.7-24-24zM240 222.5l0 81.5 54.3 0-54.3-81.5zM422.3 304l-54.3-81.5 0 81.5 54.3 0zM496 222.5l0 81.5 54.3 0-54.3-81.5z"/></svg>