<svg xmlns="http://www.w3.org/2000/svg" viewBox="0 0 640 512"><path fill="currentColor" d="M344-8c0-13.3-10.7-24-24-24S296-21.3 296-8l0 72-104 0c-53 0-96 43-96 96l0 224c0 53 43 96 96 96l256 0c53 0 96-43 96-96l0-224c0-53-43-96-96-96l-104 0 0-72zM320 112l128 0c26.5 0 48 21.5 48 48l0 224c0 26.5-21.5 48-48 48l-256 0c-26.5 0-48-21.5-48-48l0-224c0-26.5 21.5-48 48-48l128 0zM176 360c0 13.3 10.7 24 24 24l32 0c13.3 0 24-10.7 24-24s-10.7-24-24-24l-32 0c-13.3 0-24 10.7-24 24zm112 0c0 13.3 10.7 24 24 24l16 0c13.3 0 24-10.7 24-24s-10.7-24-24-24l-16 0c-13.3 0-24 10.7-24 24zm96 0c0 13.3 10.7 24 24 24l32 0c13.3 0 24-10.7 24-24s-10.7-24-24-24l-32 0c-13.3 0-24 10.7-24 24zM240 288a48 48 0 1 0 0-96 48 48 0 1 0 0 96zm208-48a48 48 0 1 0 -96 0 48 48 0 1 0 96 0zM48 216c0-13.3-10.7-24-24-24S0 202.7 0 216L0 328c0 13.3 10.7 24 24 24s24-10.7 24-24l0-112zm568-24c-13.3 0-24 10.7-24 24l0 112c0 13.3 10.7 24 24 24s24-10.7 24-24l0-112c0-13.3-10.7-24-24-24z"/></svg>