<svg xmlns="http://www.w3.org/2000/svg" viewBox="0 0 512 512"><path fill="currentColor" d="M460.7 32.5c9.5 1.9 16.9 9.3 18.8 18.8 9 45 14.7 114-19.7 180.7-20.7 40-54.8 77.3-107.8 107.7l0 81.1c0 16.9-8.8 32.5-23.3 41.2l-88.2 52.9c-21.3 12.8-48.5-2.6-48.5-27.4L192 384c0-35.3-28.7-64-64-64L24.5 320c-24.9 0-40.2-27.1-27.4-48.5L50 183.3C58.7 168.8 74.3 160 91.2 160l81.1 0C202.7 106.9 240 72.8 280 52.2 346.7 17.7 415.7 23.5 460.7 32.5zM240 384.7l0 74.5 64-38.4 0-57.8c-19.4 8-40.7 15.2-64 21.6zM417.2 210c23.7-45.9 23.8-94.6 18.1-133.2-38.6-5.8-87.3-5.6-133.2 18.1-47.8 24.7-97.1 77.3-127.7 187.2 24.6 11.2 44.5 31 55.7 55.7 109.9-30.6 162.5-79.9 187.2-127.7zM149 208l-57.8 0-38.4 64 74.5 0c6.4-23.3 13.6-44.6 21.6-64zM336 136a40 40 0 1 1 0 80 40 40 0 1 1 0-80z"/></svg>