<svg xmlns="http://www.w3.org/2000/svg" viewBox="0 0 448 512"><path fill="currentColor" d="M211.1-20c8.1-5.4 18.6-5.4 26.6 0 37.6 25.1 88.9 68.8 111.9 138.2 14.1 42.7 16.9 93.2 1.4 152.4l61.8 61.8c12.2 12.2 16.9 30 12.4 46.6l-26.2 95.9c-6.5 23.7-36.1 31.6-53.5 14.2l-64.4-64.4c-31.2-31.2-81.9-31.2-113.1 0L103.4 489c-17.4 17.4-47 9.5-53.5-14.2L23.7 378.9c-4.5-16.6 .2-34.4 12.4-46.6l61.8-61.8C82.3 211.4 85.1 160.9 99.2 118.2 122.2 48.8 173.4 5.1 211.1-20zm93.5 401.3c3.6 2.9 7 6 10.3 9.3l44.9 44.9 18.9-69.3-45-45c-7.9 19.2-17.5 39.2-29.2 60zM304 133.3c-15.8-47.6-49-81.2-79.6-103.9-30.6 22.7-63.8 56.3-79.6 103.9-17.1 51.5-15.3 124.4 41.8 225.5 24.6-7.6 51-7.6 75.5 0 57.1-101.2 58.9-174 41.8-225.5zm-189 188l-45 45 18.9 69.3 44.9-44.9c3.3-3.3 6.8-6.4 10.3-9.3-11.7-20.8-21.4-40.8-29.2-60zM224.4 120a40 40 0 1 1 0 80 40 40 0 1 1 0-80z"/></svg>