<svg xmlns="http://www.w3.org/2000/svg" viewBox="0 0 576 512"><path fill="currentColor" d="M136 113.1c-49.8 7.4-88 50.3-88 102.1L48 456c0 13.3-10.7 24-24 24S0 469.3 0 456L0 215.2C0 131.7 67.7 64 151.2 64 204.8 64 254.4 92.4 281.6 138.6l92.1 156.6c14.9 25.3 42.1 40.9 71.4 40.9l2.9 0c44.2 0 80-35.8 80-80 0-.2 0-.5 0-.7-.3-35.5-23.8-65.5-56-75.6l0 97.5c-5.9 6.6-14.4 10.8-24 10.8l-2.9 0c-7.8 0-15.1-2.6-21.1-7.1l0-101.2c-10.9 3.4-21 9.1-29.6 16.9l-14.6 13.1c-2.8-4-5.5-8.1-8-12.4l-17.3-29.4 7.8-7c23.5-21.2 54.1-32.9 85.7-32.9 70.7 0 128.1 57.3 128.1 128 0 .3 0 .6 0 .9 0 2.4-.1 4.8-.2 7.1l.2 0 0 192c0 13.3-10.7 24-24 24s-24-10.7-24-24l0-100.1c-21.9 17.6-49.7 28.1-80 28.1l-2.9 0c-1.7 0-3.4 0-5.1-.1l0 72.1c0 13.3-10.7 24-24 24s-24-10.7-24-24l0-83.3c-24.6-10.9-45.6-29.3-59.7-53.3L312 284.9 312 456c0 13.3-10.7 24-24 24s-24-10.7-24-24l0-252.7-23.8-40.4c-12.8-21.8-32.9-37.8-56.2-45.6L184 456c0 13.3-10.7 24-24 24s-24-10.7-24-24l0-342.9z"/></svg>