<svg xmlns="http://www.w3.org/2000/svg" viewBox="0 0 512 512"><path fill="currentColor" d="M489.3 256.2c13.2 1.4 22.7 13.2 21.4 26.3-5.8 56.4-30.4 111.3-73.6 154.5-100 100-262.1 100-362 0L48 409.9 48 488c0 13.3-10.7 24-24 24S0 501.3 0 488L0 352c0-13.3 10.7-24 24-24l120.1 0c13.3 0 24 10.7 24 24s-10.7 24-24 24l-62.2 0 27.1 27.1c81.2 81.2 212.9 81.2 294.2 0 35.1-35.1 55-79.7 59.8-125.5 1.4-13.2 13.2-22.8 26.4-21.4zM256.1 384a32 32 0 1 1 0-64 32 32 0 1 1 0 64zm0-256c18.2 0 32.7 15.5 31.4 33.7l-7.4 104c-.9 12.6-11.4 22.3-23.9 22.3-12.6 0-23-9.7-23.9-22.3l-7.4-104c-1.3-18.2 13.1-33.7 31.4-33.7zM488.2 0c13.3 0 24 10.7 24 24l0 136c0 13.3-10.7 24-24 24l-120.1 0c-13.3 0-24-10.7-24-24s10.7-24 24-24l62.2 0-27.1-27.1c-81.2-81.2-212.9-81.2-294.2 0-35.1 35.1-55.1 79.7-59.8 125.6-1.4 13.2-13.2 22.7-26.3 21.4S.1 242.7 1.5 229.5c5.8-56.4 30.4-111.3 73.6-154.6 100-100 262.1-100 362 0l27.1 27.1 0-78.1c0-13.3 10.7-24 24-24z"/></svg>