<svg xmlns="http://www.w3.org/2000/svg" viewBox="0 0 512 512"><path fill="currentColor" d="M14.8 1.8C23.8-1.9 34.1 .2 41 7L92.8 58.8c100.6-83.5 250.1-78.1 344.3 16.2 100 100 100 262.1 0 362s-262.1 100-362 0c-14.9-14.9-27.6-31.2-38.1-48.5-6.9-11.3-3.2-26.1 8.1-33s26.1-3.2 33 8.1c8.5 14 18.8 27.3 31 39.4 81.2 81.2 212.9 81.2 294.2 0s81.2-212.9 0-294.2c-75.5-75.5-194.6-80.8-276.2-16L177.1 143c6.9 6.9 8.9 17.2 5.2 26.2S169.8 184 160.1 184L24 184c-13.3 0-24-10.7-24-24L0 24C0 14.3 5.8 5.5 14.8 1.8zM48 81.9l0 54.1 54.1 0-54.1-54.1z"/></svg>