<svg xmlns="http://www.w3.org/2000/svg" viewBox="0 0 512 512"><path fill="currentColor" d="M497.4 1.8c-9-3.7-19.3-1.7-26.2 5.2L419.4 58.8C318.8-24.7 169.3-19.3 75.1 75-24.9 175-24.9 337 75.1 437s262.1 100 362 0c14.9-14.9 27.6-31.2 38.1-48.5 6.9-11.3 3.2-26.1-8.1-33s-26.1-3.2-33 8.1c-8.5 14-18.8 27.3-31 39.4-81.2 81.2-212.9 81.2-294.2 0s-81.2-212.9 0-294.2c75.5-75.5 194.6-80.8 276.2-16L335.1 143c-6.9 6.9-8.9 17.2-5.2 26.2S342.4 184 352.1 184l136.1 0c13.3 0 24-10.7 24-24l0-136c0-9.7-5.8-18.5-14.8-22.2zM464.2 81.9l0 54.1-54.1 0 54.1-54.1z"/></svg>