<svg xmlns="http://www.w3.org/2000/svg" viewBox="0 0 512 512"><path fill="currentColor" d="M0 24C0 14.3 5.8 5.5 14.8 1.8S34.1 .2 41 7L92.8 58.8c100.6-83.5 250.1-78.1 344.3 16.2 43.2 43.2 67.8 98.1 73.6 154.5 1.4 13.2-8.2 25-21.4 26.3s-25-8.2-26.3-21.4c-4.7-45.9-24.7-90.4-59.8-125.5-75.5-75.5-194.6-80.8-276.2-16L177.1 143c6.9 6.9 8.9 17.2 5.2 26.2S169.8 184 160.1 184L24 184c-13.3 0-24-10.7-24-24L0 24zm75.1 85l-27.1-27.1 0 54.1 54.1 0-27-27zM1.5 282.5c-1.4-13.2 8.2-25 21.4-26.3s25 8.2 26.3 21.4c4.8 45.8 24.7 90.4 59.8 125.5 75.5 75.5 194.6 80.8 276.2 16L335.1 369c-6.9-6.9-8.9-17.2-5.2-26.2S342.4 328 352.1 328l136.1 0c13.3 0 24 10.7 24 24l0 136c0 9.7-5.8 18.5-14.8 22.2s-19.3 1.7-26.2-5.2l-51.8-51.8C318.8 536.7 169.3 531.3 75.1 437 31.9 393.8 7.3 338.9 1.5 282.5zM464.2 430.1l0-54.1-54.1 0 54.1 54.1z"/></svg>