<svg xmlns="http://www.w3.org/2000/svg" viewBox="0 0 512 512"><path fill="currentColor" d="M320.2 48c58.8 0 112.5 21.8 153.4 57.9 9.9 8.8 25.1 7.8 33.9-2.1s7.8-25.1-2.1-33.9C456 26.4 391.2 0 320.2 0S184.5 26.4 135.1 69.9c-9.9 8.8-10.9 23.9-2.1 33.9s23.9 10.9 33.9 2.1C207.8 69.8 261.4 48 320.2 48zm24 200c0-13.3-10.7-24-24-24s-24 10.7-24 24l0 40-232 0c-35.3 0-64 28.7-64 64l0 64c0 35.3 28.7 64 64 64l384 0c35.3 0 64-28.7 64-64l0-64c0-35.3-28.7-64-64-64l-104 0 0-40zm-280 88l384 0c8.8 0 16 7.2 16 16l0 64c0 8.8-7.2 16-16 16l-384 0c-8.8 0-16-7.2-16-16l0-64c0-8.8 7.2-16 16-16zM244.7 186.7C265.4 170 291.6 160 320.2 160s54.9 10 75.5 26.7c10.3 8.3 25.4 6.8 33.8-3.5s6.8-25.4-3.5-33.8C397.1 126 360.2 112 320.2 112s-76.8 14-105.7 37.4c-10.3 8.3-11.9 23.5-3.5 33.8s23.5 11.9 33.8 3.5zM96.2 384a24 24 0 1 0 48 0 24 24 0 1 0 -48 0zm120-24a24 24 0 1 0 0 48 24 24 0 1 0 0-48z"/></svg>