<svg xmlns="http://www.w3.org/2000/svg" viewBox="0 0 448 512"><path fill="currentColor" d="M236.3 3.4c-7.6-4.6-17.1-4.6-24.7 0L202.3 9c-37.5 22.5-83.6 25.1-123.3 7-18.7-8.5-40.7-1.4-50.9 16.4L7.4 68.7c-6.6 11.6-7 25.8-1 37.7l8.5 16.9c11.3 22.6 17.2 47.5 17.2 72.7 0 20.7-3.9 41.2-11.6 60.4L8.7 285.7C2.9 300 0 315.3 0 330.7 0 377.4 26.8 419.9 68.8 440.1l144.8 69.5c6.6 3.2 14.2 3.2 20.8 0l144.8-69.5c42.1-20.2 68.8-62.7 68.8-109.4 0-15.4-2.9-30.7-8.7-45.1l-11.7-29.2c-7.7-19.2-11.6-39.7-11.6-60.4 0-25.2 5.9-50.1 17.2-72.7l8.5-16.9c6-12 5.6-26.1-1-37.7L419.9 32.5c-10.2-17.8-32.2-24.9-50.9-16.4-39.8 18.1-85.9 15.4-123.3-7l-9.4-5.6zM80 192L368 192c0 1.4 0 2.7 0 4.1 0 26.8 5.1 53.3 15.1 78.2l11.7 29.2c3.5 8.7 5.2 17.9 5.2 27.2 0 28.2-16.2 53.9-41.6 66.1L224 461.4 89.6 396.9c-25.4-12.2-41.6-37.9-41.6-66.1 0-9.3 1.8-18.6 5.2-27.2l11.7-29.2c10-24.9 15.1-51.4 15.1-78.2 0-1.4 0-2.7 0-4.1z"/></svg>