<svg xmlns="http://www.w3.org/2000/svg" viewBox="0 0 576 512"><path fill="currentColor" d="M24 64C10.7 64 0 74.7 0 88s10.7 24 24 24l8 0 0 40-8 0c-13.3 0-24 10.7-24 24s10.7 24 24 24l8 0 0 32-8 0c-13.3 0-24 10.7-24 24s10.7 24 24 24l8 0 0 32-8 0c-13.3 0-24 10.7-24 24s10.7 24 24 24l8 0 0 40-8 0c-13.3 0-24 10.7-24 24s10.7 24 24 24l528 0c13.3 0 24-10.7 24-24s-10.7-24-24-24l-8 0 0-40 8 0c13.3 0 24-10.7 24-24s-10.7-24-24-24l-8 0 0-32 8 0c13.3 0 24-10.7 24-24s-10.7-24-24-24l-8 0 0-32 8 0c13.3 0 24-10.7 24-24s-10.7-24-24-24l-8 0 0-40 8 0c13.3 0 24-10.7 24-24s-10.7-24-24-24L24 64zm56 48l48 0 0 288-48 0 0-288zM400 400l-224 0 0-288 224 0 0 288zm48 0l0-288 48 0 0 288-48 0z"/></svg>