<svg xmlns="http://www.w3.org/2000/svg" viewBox="0 0 512 512"><path fill="currentColor" d="M119.3 119.8c96.2-96.2 276.4-138 343.1-71.3 66.7 66.8 28.8 250.8-67.4 347l-9.2 8.8c-95.1 86.7-261.2 120.2-330.4 63.7l-6.6-6c-64.6-64.7-28.1-235.1 61.7-333.1l8.8-9.2zm324.7 75c-26.5 45.4-66.1 97.7-109.1 140.7-42.8 42.8-94.9 82.2-140.1 108.6 2.2-.4 4.5-.7 6.8-1.2 58.4-11.4 119.2-41 159.5-81.2l7.4-7.8c36.5-40.1 63.3-97.1 74.2-152.2 .5-2.3 .8-4.6 1.2-6.9zm-16.1-112c-20.6-20.5-123.2 39.6-202 113.3l-15.4 14.9C130.2 291.3 61 405.9 82.9 427.8 103.4 448.4 206.6 390 285.5 316.5l15.4-14.9C378.7 223.8 445.5 112 429.7 85.2l-1.8-2.3zM312 70c-54 11.7-110.5 39.3-150.9 76.2l-7.9 7.5c-40.7 40.7-71.1 100.9-83.3 158.3 0 .1 0 .2-.1 .2 26.6-43.9 65.2-93.8 106.7-135.2 41.6-41.6 91.8-80.4 135.8-107.2-.1 0-.2 0-.3 .1z"/></svg>