<svg xmlns="http://www.w3.org/2000/svg" viewBox="0 0 576 512"><path fill="currentColor" d="M175.1 482.3l339.4-339.4-113.1-113.1-33.9 33.9 50.9 50.9c9.4 9.4 9.4 24.6 0 33.9s-24.6 9.4-33.9 0l-50.9-50.9-45.3 45.3 28.3 28.3c9.4 9.4 9.4 24.6 0 33.9s-24.6 9.4-33.9 0l-28.3-28.3-45.3 45.3 50.9 50.9c9.4 9.4 9.4 24.6 0 33.9s-24.6 9.4-33.9 0l-50.9-50.9-45.3 45.3 28.3 28.3c9.4 9.4 9.4 24.6 0 33.9s-24.6 9.4-33.9 0L95.9 335.2 62 369.1 175.1 482.3zm33.9 33.9c-18.7 18.7-49.1 18.7-67.9 0L28.1 403.1c-18.7-18.7-18.7-49.1 0-67.9L367.5-4.2c18.7-18.7 49.1-18.7 67.9 0L548.5 108.9c18.7 18.7 18.7 49.1 0 67.9L209.1 516.2z"/></svg>