<svg xmlns="http://www.w3.org/2000/svg" viewBox="0 0 512 512"><path fill="currentColor" d="M80 70.6L163.7 154.3 127 191c-9.4 9.4-9.4 24.6 0 33.9s24.6 9.4 33.9 0l36.7-36.7 46.1 46.1-12.7 12.7c-9.4 9.4-9.4 24.6 0 33.9s24.6 9.4 33.9 0l12.7-12.7 46.1 46.1-36.7 36.7c-9.4 9.4-9.4 24.6 0 33.9s24.6 9.4 33.9 0l36.7-36.7 83.7 83.7-361.4 0 0-361.4zM86.6 9.4C77.5 .2 63.7-2.5 51.8 2.4S32 19.1 32 32l0 416c0 17.7 14.3 32 32 32l416 0c12.9 0 24.6-7.8 29.6-19.8s2.2-25.7-6.9-34.9L86.6 9.4zM168.2 272c-3-3-8.2-.9-8.2 3.4l0 68.6c0 4.4 3.6 8 8 8l68.6 0c4.3 0 6.4-5.2 3.4-8.2L168.2 272z"/></svg>