<svg xmlns="http://www.w3.org/2000/svg" viewBox="0 0 448 512"><path fill="currentColor" d="M0 56C0 42.7 10.7 32 24 32l96 0c75.1 0 136 60.9 136 136 0 54.4-32 101.4-78.1 123.1l45.2 158.3c3.6 12.7-3.7 26-16.5 29.7s-26-3.7-29.7-16.5L131.5 303.5c-3.8 .3-7.6 .5-11.5 .5l-72 0 0 152c0 13.3-10.7 24-24 24S0 469.3 0 456L0 56zM48 256l72 0c48.6 0 88-39.4 88-88s-39.4-88-88-88l-72 0 0 176zm293.5-32l50.5 0c13.3 0 24 10.7 24 24s-10.7 24-24 24l-50.5 0c-11.9 0-21.5 9.6-21.5 21.5 0 9.2 5.8 17.4 14.5 20.3l63.4 21.8c29.9 10.3 50.1 38.5 50.1 70.1 0 41-33.2 74.2-74.2 74.2L312 480c-13.3 0-24-10.7-24-24s10.7-24 24-24l61.8 0c14.5 0 26.2-11.7 26.2-26.2 0-11.2-7.1-21.1-17.7-24.8l-63.4-21.8c-28.1-9.7-46.9-36.1-46.9-65.7 0-38.4 31.1-69.5 69.5-69.5z"/></svg>