<svg xmlns="http://www.w3.org/2000/svg" viewBox="0 0 512 512"><path fill="currentColor" d="M0 56C0 42.7 10.7 32 24 32l96 0c75.1 0 136 60.9 136 136 0 54.4-32 101.4-78.1 123.1l45.2 158.3c3.6 12.7-3.7 26-16.5 29.7s-26-3.7-29.7-16.5L131.5 303.5c-3.8 .3-7.6 .5-11.5 .5l-72 0 0 152c0 13.3-10.7 24-24 24S0 469.3 0 456L0 56zM48 256l72 0c48.6 0 88-39.4 88-88s-39.4-88-88-88l-72 0 0 176zm264-32l88 0c61.9 0 112 50.1 112 112S461.9 448 400 448l-64 0 0 72c0 13.3-10.7 24-24 24s-24-10.7-24-24l0-272c0-13.3 10.7-24 24-24zm88 176c35.3 0 64-28.7 64-64s-28.7-64-64-64l-64 0 0 128 64 0z"/></svg>