<svg xmlns="http://www.w3.org/2000/svg" viewBox="0 0 576 512"><path fill="currentColor" d="M224 64l248 0c28.2 0 51.6 20.9 55.4 48L360 112c-13.3 0-24 10.7-24 24l0 280-99.3 0c-10.4-36.9-44.4-64-84.7-64-25.8 0-49.1 11.1-65.2 28.9L59.7 353.8C52.2 346.3 48 336.1 48 325.5L48 136c0-39.8 32.2-72 72-72l104 0zM339.3 464c10.4 36.9 44.4 64 84.7 64s74.2-27.1 84.7-64l11.3 0c30.9 0 56-25.1 56-56l0-86.3c0-11.1-3.3-21.9-9.4-31.1l-49.1-73.7c-10.4-15.6-27.9-24.9-46.6-24.9l-86.9 0 0-32 168 0c13.3 0 24-10.7 24-24l0-16c0-57.4-46.6-104-104-104L347.7 16C342.2 6.4 331.8 0 320 0L224 0c-11.8 0-22.2 6.4-27.7 16L120 16C53.7 16 0 69.7 0 136L0 325.5c0 23.3 9.3 45.7 25.8 62.2L65 426.9c-.6 4.3-1 8.6-1 13.1 0 48.6 39.4 88 88 88 40.3 0 74.2-27.1 84.7-64l102.6 0zM384 288l0-48 86.9 0c2.7 0 5.2 1.3 6.7 3.6L507.2 288 384 288zm0 48l144 0 0 72c0 4.4-3.6 8-8 8l-11.3 0c-10.4-36.9-44.4-64-84.7-64-14.4 0-28 3.5-40 9.6l0-25.6zm40 64a40 40 0 1 1 0 80 40 40 0 1 1 0-80zM112 440a40 40 0 1 1 80 0 40 40 0 1 1 -80 0zM96 160l0 64c0 17.7 14.3 32 32 32l96 0c17.7 0 32-14.3 32-32l0-64c0-17.7-14.3-32-32-32l-96 0c-17.7 0-32 14.3-32 32z"/></svg>