<svg xmlns="http://www.w3.org/2000/svg" viewBox="0 0 512 512"><path fill="currentColor" d="M332.6 138L379 56.7c3.3-5.7 5-12.2 5-18.8 0-20.9-17-37.9-37.9-37.9L165.9 0c-20.9 0-37.9 17-37.9 37.9 0 6.6 1.7 13.1 5 18.8L179.4 138C95.5 214.5 16 291.7 16 416.8 16 469.4 58.6 512 111.2 512l289.6 0c52.6 0 95.2-42.6 95.2-95.2 0-125.1-79.5-202.3-163.4-278.8zm-47.2 22l.9 .9c91.5 83.6 161.7 147.7 161.7 256 0 26.1-21.1 47.2-47.2 47.2l-289.6 0c-26.1 0-47.2-21.1-47.2-47.2 0-108.3 70.2-172.4 161.7-256l.9-.9 58.7 0zm6.8-48l-72.3 0-36.6-64 145.4 0-36.6 64z"/></svg>