<svg xmlns="http://www.w3.org/2000/svg" viewBox="0 0 512 512"><path fill="currentColor" d="M379 56.7L332.6 138c83.9 76.5 163.4 153.7 163.4 278.8 0 52.6-42.6 95.2-95.2 95.2l-289.6 0C58.6 512 16 469.4 16 416.8 16 291.7 95.5 214.5 179.4 138L133 56.7C129.7 51 128 44.5 128 37.9 128 17 145 0 165.9 0L346.1 0c20.9 0 37.9 17 37.9 37.9 0 6.6-1.7 13.1-5 18.8zM226.6 160l-.9 .9C134.2 244.4 64 308.6 64 416.8 64 442.9 85.1 464 111.2 464l289.6 0c26.1 0 47.2-21.1 47.2-47.2 0-108.3-70.2-172.4-161.7-256l-.9-.9-58.7 0zm-6.8-48l72.3 0 36.6-64-145.4 0 36.6 64zm104 156.1c9.4 9.4 9.4 24.6 0 33.9l-33.9 33.9 33.9 33.9c9.4 9.4 9.4 24.6 0 33.9s-24.6 9.4-33.9 0l-33.9-33.9-33.9 33.9c-9.4 9.4-24.6 9.4-33.9 0s-9.4-24.6 0-33.9l33.9-33.9-33.9-33.9c-9.4-9.4-9.4-24.6 0-33.9s24.6-9.4 33.9 0l33.9 33.9 33.9-33.9c9.4-9.4 24.6-9.4 33.9 0z"/></svg>