<svg xmlns="http://www.w3.org/2000/svg" viewBox="0 0 512 512"><path fill="currentColor" d="M379 56.7L332.6 138c83.9 76.5 163.4 153.7 163.4 278.8 0 52.6-42.6 95.2-95.2 95.2l-289.6 0C58.6 512 16 469.4 16 416.8 16 291.7 95.5 214.5 179.4 138L133 56.7C129.7 51 128 44.5 128 37.9 128 17 145 0 165.9 0L346.1 0c20.9 0 37.9 17 37.9 37.9 0 6.6-1.7 13.1-5 18.8zM226.6 160l-.9 .9C134.2 244.4 64 308.6 64 416.8 64 442.9 85.1 464 111.2 464l289.6 0c26.1 0 47.2-21.1 47.2-47.2 0-108.3-70.2-172.4-161.7-256l-.9-.9-58.7 0zm-6.8-48l72.3 0 36.6-64-145.4 0 36.6 64zM260 208c11 0 20 9 20 20l0 4 8 0c11 0 20 9 20 20s-9 20-20 20l-47.5 0c-6.9 0-12.5 5.6-12.5 12.5 0 6.1 4.4 11.3 10.4 12.3l41.7 7c25.3 4.2 43.9 26.1 43.9 51.8 0 26.1-19 47.7-44 51.8l0 4.7c0 11-9 20-20 20s-20-9-20-20l0-4-24 0c-11 0-20-9-20-20s9-20 20-20l55.5 0c6.9 0 12.5-5.6 12.5-12.5 0-6.1-4.4-11.3-10.4-12.3l-41.7-7c-25.3-4.2-43.9-26.1-43.9-51.8 0-28.8 23.2-52.2 52-52.5l0-4c0-11 9-20 20-20z"/></svg>