<svg xmlns="http://www.w3.org/2000/svg" viewBox="0 0 512 512"><path fill="currentColor" d="M48 112l416 0 0 32-416 0 0-32zM32 64C14.3 64 0 78.3 0 96l0 64c0 17.7 14.3 32 32 32l448 0c17.7 0 32-14.3 32-32l0-64c0-17.7-14.3-32-32-32L32 64zM48 368l416 0 0 32-416 0 0-32zM32 320c-17.7 0-32 14.3-32 32l0 64c0 17.7 14.3 32 32 32l448 0c17.7 0 32-14.3 32-32l0-64c0-17.7-14.3-32-32-32L32 320zm-8-24c11.8 0 23.1-2.9 33.1-6.3 8.8-3 17.8-6.8 26.1-10.3l0 0 3.1-1.3c19.6-8.3 35.3-14.1 49.7-14.1 18.2 0 30.9 5.7 48.7 13.8 17.9 8.1 39.9 18.2 71.3 18.2s53.4-10 71.3-18.2c17.8-8.1 30.5-13.8 48.7-13.8 14.4 0 30.1 5.9 49.7 14.1l3.1 1.3 0 0c8.3 3.5 17.3 7.3 26.1 10.3 9.9 3.4 21.3 6.3 33.1 6.3 13.3 0 24-10.7 24-24s-10.7-24-24-24c-4.2 0-9.9-1.1-17.7-3.7-7-2.4-14.3-5.5-22.8-9.1l0 0-3.1-1.3c-18.4-7.7-42.7-17.9-68.3-17.9-28.8 0-49.9 9.6-66.9 17.4l-1.7 .8C290.1 242 276.2 248 256 248s-34.1-6-51.4-13.8l-1.7-.8c-17-7.8-38.1-17.4-66.9-17.4-25.6 0-49.9 10.1-68.3 17.9l-3.2 1.3 0 0c-8.5 3.6-15.9 6.7-22.8 9.1-7.8 2.6-13.5 3.7-17.7 3.7-13.3 0-24 10.7-24 24s10.7 24 24 24z"/></svg>