<svg xmlns="http://www.w3.org/2000/svg" viewBox="0 0 512 512"><path fill="currentColor" d="M232 0c-13.3 0-24 10.7-24 24s10.7 24 24 24c128.1 0 232 103.9 232 232 0 13.3 10.7 24 24 24s24-10.7 24-24C512 125.4 386.6 0 232 0zM48 256c0-23 3.7-45 10.5-65.6l263 263C301 460.3 279 464 256 464 141.1 464 48 370.9 48 256zM72.8 136.8c-14.1-14.1-37.6-12-46.5 5.8-16.9 34.2-26.4 72.6-26.4 113.3 0 141.4 114.6 256 256 256 40.7 0 79.2-9.5 113.3-26.4 17.9-8.8 19.9-32.4 5.8-46.5L241 305 281 265c9.4-9.4 9.4-24.6 0-33.9s-24.6-9.4-33.9 0L207 271 72.8 136.8zM208 120c0 13.3 10.7 24 24 24 75.1 0 136 60.9 136 136 0 13.3 10.7 24 24 24s24-10.7 24-24c0-101.6-82.4-184-184-184-13.3 0-24 10.7-24 24z"/></svg>