<svg xmlns="http://www.w3.org/2000/svg" viewBox="0 0 512 512"><path fill="currentColor" d="M199.1 7c9.4-9.4 24.6-9.4 33.9 0l73.4 73.4 55-55c12.5-12.5 32.8-12.5 45.3 0l80 80c12.5 12.5 12.5 32.8 0 45.3l-55 55 73.4 73.4c9.4 9.4 9.4 24.6 0 33.9l-96 96c-9.4 9.4-24.6 9.4-33.9 0l-73.4-73.4-6.5 6.5c5.8 18.3 8.9 37.7 8.9 57.9 0 40.6-12.6 78.3-34.2 109.4-5.4 7.7-16.3 8.2-23 1.5L141 405 89 457c-9.4 9.4-24.6 9.4-33.9 0s-9.4-24.6 0-33.9l52-52-105.9-105.9c-6.6-6.6-6.2-17.6 1.5-23 31-21.5 68.7-34.2 109.4-34.2 20.2 0 39.6 3.1 57.9 8.9l6.5-6.5-73.4-73.4c-9.4-9.4-9.4-24.6 0-33.9l96-96zM335.6 301.7l56.4 56.4 62.1-62.1-56.4-56.4-62.1 62.1zM210.4 176.4l62.1-62.1-56.4-56.4-62.1 62.1 56.4 56.4zM273.4 296l168-168-57.4-57.4-168 168c23 14.8 42.5 34.4 57.4 57.4zM256 400c0-79.5-64.5-144-144-144-15.7 0-30.8 2.5-45 7.1L248.9 445c4.6-14.1 7.1-29.2 7.1-45z"/></svg>