<svg xmlns="http://www.w3.org/2000/svg" viewBox="0 0 512 512"><path fill="currentColor" d="M447.5 69.3l15.2-41.9c.8-2.2 1.2-4.6 1.2-7 0-11.3-9.1-20.4-20.4-20.4L388.4 0c-11.3 0-20.4 9.1-20.4 20.4 0 2.4 .4 4.7 1.2 7l15.2 41.9c-37.5 13-64.5 48.7-64.5 90.7 0 88.4-71.6 160-160 160-42 0-77.7 26.9-90.7 64.5L27.4 369.2c-2.2-.8-4.6-1.2-7-1.2-11.3 0-20.4 9.1-20.4 20.4l0 55.2c0 11.3 9.1 20.4 20.4 20.4 2.4 0 4.7-.4 7-1.2l41.9-15.2c13 37.5 48.7 64.5 90.7 64.5 194.4 0 352-157.6 352-352 0-42-26.9-77.7-64.5-90.7zM112 416c0-26.5 21.5-48 48-48 114.9 0 208-93.1 208-208 0-26.5 21.5-48 48-48s48 21.5 48 48c0 167.9-136.1 304-304 304-26.5 0-48-21.5-48-48z"/></svg>