<svg xmlns="http://www.w3.org/2000/svg" viewBox="0 0 576 512"><path fill="currentColor" d="M96 80c-8.8 0-16 7.2-16 16l0 320c0 8.8 7.2 16 16 16l146.7 0c2.8 16.8 7.8 32.9 14.8 48L96 480c-35.3 0-64-28.7-64-64L32 96c0-35.3 28.7-64 64-64l242.7 0c17 0 33.3 6.7 45.3 18.7L461.3 128c12 12 18.7 28.3 18.7 45.3l0 40.8c-15.3-3.9-31.4-6-48-6l0-34.7c0-4.2-1.7-8.3-4.7-11.3L352 86.6 352 176c0 17.7-14.3 32-32 32l-160 0c-17.7 0-32-14.3-32-32l0-96-32 0zM240.8 382.2c-28-6.8-48.8-32.1-48.8-62.2 0-35.3 28.7-64 64-64 13.7 0 26.4 4.3 36.9 11.7-28.9 30.4-48 70.3-52.1 114.5zM176 80l0 80 128 0 0-80-128 0zM432 256a144 144 0 1 1 0 288 144 144 0 1 1 0-288zm59.3 107.3c6.2-6.2 6.2-16.4 0-22.6s-16.4-6.2-22.6 0l-36.7 36.7-36.7-36.7c-6.2-6.2-16.4-6.2-22.6 0s-6.2 16.4 0 22.6l36.7 36.7-36.7 36.7c-6.2 6.2-6.2 16.4 0 22.6s16.4 6.2 22.6 0l36.7-36.7 36.7 36.7c6.2 6.2 16.4 6.2 22.6 0s6.2-16.4 0-22.6l-36.7-36.7 36.7-36.7z"/></svg>