<svg xmlns="http://www.w3.org/2000/svg" viewBox="0 0 640 512"><path fill="currentColor" d="M158.4 27.6c4.3-4.9 10.6-7.1 16.7-7.1 5.7 0 11.5 2.1 15.9 6.2 15.8 14.6 31.8 34.6 44 56.5 12.1 21.8 20.9 46.5 20.9 70.5 0 2.1-.1 4.2-.1 6.3L169 160c-9.9-16.7-24.8-30.9-33.6-38.6-4.3-3.7-10.5-3.7-14.8 0-8.8 7.7-23.7 21.9-33.6 38.6L.1 160c-.1-2.1-.1-4.2-.1-6.3 0-29.9 12.8-58.7 29.4-83.6 16.7-25 38-47.2 56.7-64.1 4.6-4.1 10.5-6.1 16.3-6 11.3 .3 19 9.1 26.2 17.3 1.6 1.9 3.2 3.7 4.8 5.3l15.2 15.9 9.8-11zM452.3 89.8C468.8 73.3 491.2 64 514.5 64l35 0c23.3 0 45.7 9.3 62.2 25.8l14.6 14.6c8.7 8.7 13.7 20.6 13.7 33 0 25.8-20.9 46.6-46.6 46.6l-50.6 0c-2.3 0-4.6 1-6.1 2.8l-224.5 263c-33.7 39.5-83 62.2-134.9 62.2l-5.5 0C76.9 512 0 435.1 0 340.2 0 330.8 .8 321.3 2.3 312l9.8-59.1C4.9 248.8 0 241 0 232 0 218.7 10.7 208 24 208l224 0c13.3 0 24 10.7 24 24 0 13-10.3 23.6-23.2 24l-21.2 58.3 90.4-90.3-7-7c-9.4-9.4-9.4-24.6 0-33.9s24.6-9.4 33.9 0l7 7 14.1-14.1-7-7c-9.4-9.4-9.4-24.6 0-33.9s24.6-9.4 33.9 0l7 7 14.1-14.1-7-7c-9.4-9.4-9.4-24.6 0-33.9s24.6-9.4 33.9 0l7 7 4.3-4.3zM255.6 354.2c-8.7 8.7-20.6 13.6-33 13.6l-2.4 0c-24.4 0-44.3-19.8-44.3-44.3 0-5.2 .9-10.3 2.7-15.1l19.1-52.4-137.4 0-10.6 63.9c-1.1 6.7-1.7 13.5-1.7 20.3 0 68.4 55.4 123.8 123.8 123.8l5.5 0c37.8 0 73.8-16.6 98.3-45.4l224.5-263c10.6-12.5 26.2-19.6 42.6-19.6l47.3 0-12.3-12.3c-7.5-7.5-17.7-11.7-28.3-11.7l-35 0c-10.6 0-20.8 4.2-28.3 11.7l-20.6 20.6c-.2 .2-.4 .5-.6 .7s-.5 .4-.7 .7L417.9 192c-.3 .3-.6 .7-1 1s-.7 .7-1 1l-45.8 45.8c-.4 .4-.8 .9-1.2 1.3s-.8 .8-1.3 1.2l-112.1 112zM120 288a24 24 0 1 1 0 48 24 24 0 1 1 0-48z"/></svg>