<svg xmlns="http://www.w3.org/2000/svg" viewBox="0 0 640 512"><path fill="currentColor" d="M195.5 352l-79.8 80 2.3 0c55.2 0 108.1-21.9 147.1-60.9l19.1-19.1-88.6 0zM486.2 60.7l-242.8 243.3 108.6 0 0 0c7.8 0 15.2-3.1 20.7-8.6L547.4 120.8c8-8 12.5-19 12.5-30.3-.1-23.2-19.3-42.4-43-42.4-11.5 0-22.7 4.6-30.7 12.7zM67.8 480L0 480 47.9 432 452.2 26.8c17.1-17.1 40.5-26.8 64.7-26.8 49.9 0 90.8 40.3 91 90.2 .1 24.2-9.4 47.4-26.5 64.5L406.6 329.4C392.1 343.9 372.5 352 352 352l-53 53c-48 48-113.1 75-181 75l-50.2 0zM344 432l80 0c13.3 0 24 10.7 24 24s-10.7 24-24 24l-80 0c-13.3 0-24-10.7-24-24s10.7-24 24-24zm176 0l64 0c13.3 0 24 10.7 24 24s-10.7 24-24 24l-64 0c-13.3 0-24-10.7-24-24s10.7-24 24-24z"/></svg>