<svg xmlns="http://www.w3.org/2000/svg" viewBox="0 0 640 512"><path fill="currentColor" d="M540.6 16.7c4 12.6-2.9 26.1-15.5 30.2L397.3 87.7c-3.1 32.4-25.5 59.2-55.6 68.6l0 307.7 176 0c13.3 0 24 10.7 24 24s-10.7 24-24 24l-200 0c-13.3 0-24-10.7-24-24l0-331.7c-14.2-4.5-26.8-12.8-36.4-23.8L125 174.9c-12.6 4-26.1-2.9-30.2-15.5s2.9-26.1 15.5-30.2L238.1 88.3c-.3-2.7-.4-5.5-.4-8.3 0-44.2 35.8-80 80-80 29.8 0 55.8 16.3 69.6 40.5L510.4 1.1c12.6-4 26.1 2.9 30.2 15.5zM509.7 163.8l-72.4 124.2 144.9 0-72.4-124.2zm-126 141.3c-2.6-11 1-22.3 6.7-32.1l95.2-163.2c5-8.6 14.2-13.8 24.1-13.8s19.1 5.3 24.1 13.8L629 273.1c5.7 9.8 9.3 21.1 6.7 32.1-10.8 44.8-63.1 78.9-126 78.9s-115.2-34-126-78.9zM54.4 416l144.9 0-72.4-124.2-72.4 124.2zm72.4 96c-62.9 0-115.2-34-126-78.9-2.6-11 1-22.3 6.7-32.1l95.2-163.2c5-8.6 14.2-13.8 24.1-13.8s19.1 5.3 24.1 13.8l95.2 163.2c5.7 9.8 9.3 21.1 6.7 32.1-10.8 44.8-63.1 78.9-126 78.9zM317.7 112a32 32 0 1 0 0-64 32 32 0 1 0 0 64z"/></svg>