<svg xmlns="http://www.w3.org/2000/svg" viewBox="0 0 512 512"><path fill="currentColor" d="M120-32C106.7-32 96-21.3 96-8l0 56 48 0 0-56c0-13.3-10.7-24-24-24zM392 288c13.3 0 24-10.7 24-24L416-8c0-13.3-10.7-24-24-24S368-21.3 368-8l0 272c0 13.3 10.7 24 24 24zM320-16c0-8.8-7.2-16-16-16s-16 7.2-16 16l0 68.6c11.6 3.4 22.3 8.7 32 15.4L320-16zM256 0c0-17.7-14.3-32-32-32S192-17.7 192 0l0 48 64 0 0-48zM448 0l0 256c0 17.7 14.3 32 32 32s32-14.3 32-32L512 0c0-17.7-14.3-32-32-32S448-17.7 448 0zM256 144c8.8 0 16 7.2 16 16l0 288c0 8.8-7.2 16-16 16L64 464c-8.8 0-16-7.2-16-16l0-288c0-8.8 7.2-16 16-16l192 0zM64 96C28.7 96 0 124.7 0 160L0 448c0 35.3 28.7 64 64 64l192 0c35.3 0 64-28.7 64-64l0-288c0-35.3-28.7-64-64-64L64 96zm64 128l64 0 0 160-64 0 0-160zm-24-48c-13.3 0-24 10.7-24 24l0 208c0 13.3 10.7 24 24 24l112 0c13.3 0 24-10.7 24-24l0-208c0-13.3-10.7-24-24-24l-112 0z"/></svg>