<svg xmlns="http://www.w3.org/2000/svg" viewBox="0 0 576 512"><path fill="currentColor" d="M246.4 208l48 0 18.3-128-200.7 0c-35.3 0-64 28.7-64 64s28.7 64 64 64l134.4 0zm-6.9 48l-79.5 0 0 176 54.4 0 25.1-176zM112 256C50.1 256 0 205.9 0 144S50.1 32 112 32l200.7 0c29.2 0 51.6 25.9 47.5 54.8l-18.3 128c-3.4 23.6-23.6 41.2-47.5 41.2l-6.4 0-26.1 182.8c-3.4 23.6-23.6 41.2-47.5 41.2L160 480c-26.5 0-48-21.5-48-48l0-176zM440 32l112 0c13.3 0 24 10.7 24 24s-10.7 24-24 24L440 80c-13.3 0-24-10.7-24-24s10.7-24 24-24zm0 160l112 0c13.3 0 24 10.7 24 24s-10.7 24-24 24l-112 0c-13.3 0-24-10.7-24-24s10.7-24 24-24zM416 456c0-13.3 10.7-24 24-24l112 0c13.3 0 24 10.7 24 24s-10.7 24-24 24l-112 0c-13.3 0-24-10.7-24-24zm16-328l128 0c8.8 0 16 7.2 16 16s-7.2 16-16 16l-128 0c-8.8 0-16-7.2-16-16s7.2-16 16-16zM416 304c0-8.8 7.2-16 16-16l128 0c8.8 0 16 7.2 16 16s-7.2 16-16 16l-128 0c-8.8 0-16-7.2-16-16zm16 48l128 0c8.8 0 16 7.2 16 16s-7.2 16-16 16l-128 0c-8.8 0-16-7.2-16-16s7.2-16 16-16z"/></svg>