<svg xmlns="http://www.w3.org/2000/svg" viewBox="0 0 448 512"><path fill="currentColor" d="M287.1 90.6c-4.1 3.4-9.4 5.4-15.1 5.4-13.3 0-24-10.7-24-24s10.7-24 24-24c2.9 0 5.7 .5 8.3 1.5-10.8-19.9-32-33.5-56.3-33.5-16.3 0-31.2 6.1-42.5 16.1 .8-.1 1.6-.1 2.5-.1 13.3 0 24 10.7 24 24s-10.7 24-24 24c-10.1 0-18.7-6.2-22.2-15-1.2 4.8-1.8 9.8-1.8 15 0 35.3 28.7 64 64 64 31.7 0 58.1-23.1 63.1-53.4zM281.7 176c-16.9 10.2-36.6 16-57.7 16s-40.9-5.8-57.7-16l-87.6 0c1.1 3.1 1.5 6.4 1.3 9.7-.5 6.9-4 13.3-9.5 17.5l-6.4 4.8 6.4 4.8c5.6 4.2 9 10.6 9.5 17.5 .2 3.3-.2 6.6-1.3 9.7l49.4 0c7.4 0 14.4 3.4 18.9 9.2s6.2 13.4 4.4 20.6l-24.5 98.2 194.5 0-24.5-98.2c-1.8-7.2-.2-14.8 4.4-20.6S312.6 240 320 240l49.4 0c-1.1-3.1-1.5-6.4-1.3-9.7 .5-6.9 4-13.3 9.5-17.5l6.4-4.8-6.4-4.8c-5.6-4.2-9-10.6-9.5-17.5-.2-3.3 .2-6.6 1.3-9.7l-87.7 0zM122.8 128c-6.9-14.5-10.8-30.8-10.8-48 0-61.9 50.1-112 112-112S336 18.1 336 80c0 17.2-3.9 33.5-10.8 48l98.8 0c9.7 0 18.5 5.8 22.2 14.8s1.7 19.3-5.2 26.2l-12.4 12.4 9.9 7.4c6 4.5 9.6 11.6 9.6 19.2s-3.6 14.7-9.6 19.2l-9.9 7.4 12.4 12.4c6.9 6.9 8.9 17.2 5.2 26.2S433.7 288 424 288l-73.3 0 24.5 98.2c1.8 7.2 .2 14.8-4.4 20.6S359.4 416 352 416l-104 0 0 104c0 13.3-10.7 24-24 24s-24-10.7-24-24l0-104-104 0c-7.4 0-14.4-3.4-18.9-9.2s-6.2-13.4-4.4-20.6L97.3 288 24 288c-9.7 0-18.5-5.8-22.2-14.8S.2 253.9 7 247l12.4-12.4-9.9-7.4C3.6 222.7 0 215.6 0 208s3.6-14.7 9.6-19.2L19.5 181.4 7 169c-6.9-6.9-8.9-17.2-5.2-26.2S14.3 128 24 128l98.8 0z"/></svg>