<svg xmlns="http://www.w3.org/2000/svg" viewBox="0 0 640 512"><path fill="currentColor" d="M273.1 13.2c8.7-6.9 21-6.9 29.7 0L448.3 128 512 128c35.3 0 64 28.7 64 64l0 33.4c-15.1-6.9-31.2-11.9-48-14.8l0-18.7c0-8.8-7.2-16-16-16l-72 0c-5.4 0-10.6-1.8-14.9-5.2L288 62.6 150.9 170.8c-4.2 3.3-9.5 5.2-14.9 5.2l-72 0c-8.8 0-16 7.2-16 16l0 256c0 8.8 7.2 16 16 16l160 0 0-80c0-26.5 21.5-48 48-48l32 0c3.6 0 7.1 .4 10.5 1.2-6.8 19.7-10.5 40.8-10.5 62.8 0 41.8 13.4 80.5 36 112L64 512c-35.3 0-64-28.7-64-64L0 192c0-35.3 28.7-64 64-64l63.7 0 145.5-114.8zM144 416l-32 0c-8.8 0-16-7.2-16-16l0-32c0-8.8 7.2-16 16-16l32 0c8.8 0 16 7.2 16 16l0 32c0 8.8-7.2 16-16 16zm16-144c0 8.8-7.2 16-16 16l-32 0c-8.8 0-16-7.2-16-16l0-32c0-8.8 7.2-16 16-16l32 0c8.8 0 16 7.2 16 16l0 32zM288 128a64 64 0 1 1 0 128 64 64 0 1 1 0-128zm64 272a144 144 0 1 1 288 0 144 144 0 1 1 -288 0zm201.4-60.9c-7.1-5.2-17.2-3.6-22.4 3.5l-53 72.9-26.8-26.8c-6.2-6.2-16.4-6.2-22.6 0s-6.2 16.4 0 22.6l40 40c3.3 3.3 7.9 5 12.6 4.6s8.9-2.8 11.7-6.5l64-88c5.2-7.1 3.6-17.2-3.5-22.3z"/></svg>