<svg xmlns="http://www.w3.org/2000/svg" viewBox="0 0 640 512"><path fill="currentColor" d="M302.9 13.2c-8.7-6.9-21-6.9-29.7 0L127.7 128 64 128c-35.3 0-64 28.7-64 64L0 448c0 35.3 28.7 64 64 64l305.3 0c-.9-5.2-1.3-10.6-1.3-16.1l0-31.9-16 0 0-80c0-26.5-21.5-48-48-48l-32 0c-26.5 0-48 21.5-48 48l0 80-160 0c-8.8 0-16-7.2-16-16l0-256c0-8.8 7.2-16 16-16l72 0c5.4 0 10.6-1.8 14.9-5.2L288 62.6 425.1 170.8c4.2 3.3 9.5 5.2 14.9 5.2l72 0c1.4 0 2.8 .2 4.1 .5 3.9-.4 7.9-.5 11.9-.5 16.8 0 32.9 3.3 47.6 9.2-3.4-32.1-30.6-57.2-63.6-57.2l-63.7 0-145.5-114.8zM160 400l0-32c0-8.8-7.2-16-16-16l-32 0c-8.8 0-16 7.2-16 16l0 32c0 8.8 7.2 16 16 16l32 0c8.8 0 16-7.2 16-16zM144 288c8.8 0 16-7.2 16-16l0-32c0-8.8-7.2-16-16-16l-32 0c-8.8 0-16 7.2-16 16l0 32c0 8.8 7.2 16 16 16l32 0zm144-32a64 64 0 1 0 0-128 64 64 0 1 0 0 128zm272 48.1l0 47.9-64 0 0-47.9c0-17.7 14.3-32 32-32s32 14.3 32 32zM416 400l0 96c0 26.5 21.5 48 48 48l128 0c26.5 0 48-21.5 48-48l0-96c0-20.9-13.4-38.7-32-45.3l0-50.6c0-44.2-35.8-80-80-80s-80 35.8-80 80l0 50.6c-18.6 6.6-32 24.4-32 45.3z"/></svg>