<svg xmlns="http://www.w3.org/2000/svg" viewBox="0 0 576 512"><path fill="currentColor" d="M273.1 13.2c8.7-6.9 21-6.9 29.7 0L448.3 128 512 128c35.3 0 64 28.7 64 64l0 256c0 35.3-28.7 64-64 64L64 512c-35.3 0-64-28.7-64-64L0 192c0-35.3 28.7-64 64-64l63.7 0 145.5-114.8zM288 62.6L150.9 170.8c-4.2 3.3-9.5 5.2-14.9 5.2l-72 0c-8.8 0-16 7.2-16 16l0 256c0 8.8 7.2 16 16 16l160 0 0-80c0-26.5 21.5-48 48-48l32 0c26.5 0 48 21.5 48 48l0 80 160 0c8.8 0 16-7.2 16-16l0-256c0-8.8-7.2-16-16-16l-72 0c-5.4 0-10.6-1.8-14.9-5.2L288 62.6zM144 416l-32 0c-8.8 0-16-7.2-16-16l0-32c0-8.8 7.2-16 16-16l32 0c8.8 0 16 7.2 16 16l0 32c0 8.8-7.2 16-16 16zm16-144c0 8.8-7.2 16-16 16l-32 0c-8.8 0-16-7.2-16-16l0-32c0-8.8 7.2-16 16-16l32 0c8.8 0 16 7.2 16 16l0 32zM464 416l-32 0c-8.8 0-16-7.2-16-16l0-32c0-8.8 7.2-16 16-16l32 0c8.8 0 16 7.2 16 16l0 32c0 8.8-7.2 16-16 16zm16-144c0 8.8-7.2 16-16 16l-32 0c-8.8 0-16-7.2-16-16l0-32c0-8.8 7.2-16 16-16l32 0c8.8 0 16 7.2 16 16l0 32zM288 128a64 64 0 1 1 0 128 64 64 0 1 1 0-128z"/></svg>