<svg xmlns="http://www.w3.org/2000/svg" viewBox="0 0 512 512"><path fill="currentColor" d="M256 56c0-13.3 10.7-24 24-24l72 0c11.1 0 20.7 7.6 23.3 18.3l64 264c.5 2 .7 4.1 .7 6.1 40.4 4 72 38.1 72 79.6 0 44.2-35.8 80-80 80-32.8 0-61-19.7-73.3-48l-205.3 0c-12.3 28.3-40.5 48-73.3 48-44.2 0-80-35.8-80-80s35.8-80 80-80c38.7 0 71 27.5 78.4 64l195.2 0c4.8-23.5 19.9-43.3 40.4-54.4-.5-1.3-1-2.6-1.3-3.9L333.1 80 280 80c-13.3 0-24-10.7-24-24zM112 400a32 32 0 1 0 -64 0 32 32 0 1 0 64 0zm352 0a32 32 0 1 0 -64 0 32 32 0 1 0 64 0z"/></svg>