<svg xmlns="http://www.w3.org/2000/svg" viewBox="0 0 640 512"><path fill="currentColor" d="M72 32c27 0 51.2 12.2 67.3 31.4 18.2-19.3 44-31.4 72.7-31.4 30.4 0 57.7 13.7 76 35.1 18.3-21.5 45.6-35.1 76-35.1 55.2 0 100 44.8 100 100l0 309.7c0 12.3 10 22.3 22.3 22.3 6 0 11.7-2.4 15.9-6.7l48-49-15.3-15.3c-6.9-6.9-8.9-17.2-5.2-26.2S542.3 352 552 352l64 0 2.5 .1c12.1 1.2 21.5 11.5 21.5 23.9l0 64-.3 3.6c-1.2 8.2-6.7 15.3-14.5 18.6-9 3.7-19.3 1.6-26.2-5.2l-14.8-14.8-47.7 48.7c-13.2 13.5-31.3 21.1-50.3 21.1-38.8 0-70.3-31.5-70.3-70.3L416 132c0-28.7-23.3-52-52-52s-52 23.3-52 52l0 324c0 13.3-10.7 24-24 24s-24-10.7-24-24l0-324c0-28.7-23.3-52-52-52s-52 23.3-52 52l0 324c0 13.3-10.7 24-24 24s-24-10.7-24-24l0-336c0-22.1-17.9-40-40-40L56 80C42.7 80 32 69.3 32 56S42.7 32 56 32l16 0z"/></svg>