<svg xmlns="http://www.w3.org/2000/svg" viewBox="0 0 640 512"><path fill="currentColor" d="M576 64c0-35.3-28.7-64-64-64L128 0C92.7 0 64 28.7 64 64l0 148.7c10.1-3 20.9-4.7 32-4.7 5.4 0 10.8 .4 16 1.1L112 64c0-8.8 7.2-16 16-16l384 0c8.8 0 16 7.2 16 16l0 145.1c5.2-.7 10.6-1.1 16-1.1 11.1 0 21.9 1.6 32 4.7L576 64zM160 320a64 64 0 1 0 -128 0 64 64 0 1 0 128 0zM0 480c0 17.7 14.3 32 32 32l128 0c17.7 0 32-14.3 32-32 0-35.3-28.7-64-64-64l-64 0c-35.3 0-64 28.7-64 64zM384 320a64 64 0 1 0 -128 0 64 64 0 1 0 128 0zM224 480c0 17.7 14.3 32 32 32l128 0c17.7 0 32-14.3 32-32 0-35.3-28.7-64-64-64l-64 0c-35.3 0-64 28.7-64 64zm320-96a64 64 0 1 0 0-128 64 64 0 1 0 0 128zm-32 32c-35.3 0-64 28.7-64 64 0 17.7 14.3 32 32 32l128 0c17.7 0 32-14.3 32-32 0-35.3-28.7-64-64-64l-64 0z"/></svg>