<svg xmlns="http://www.w3.org/2000/svg" viewBox="0 0 576 512"><path fill="currentColor" d="M485.2-8.7c6.3-4.2 14.8-3.4 20.2 2l45.4 45.4c5.4 5.4 6.2 13.8 2 20.2L473.6 177.8c-5.9 8.9-15.9 14.2-26.6 14.2l-60.9 0-83.2 83.2c19.7 34.5 14.8 79.3-14.7 108.8L162.1 510.1c-18.7 18.7-49.1 18.7-67.9 0L34.1 449.9c-18.7-18.7-18.7-49.1 0-67.9L160.1 256c29.5-29.5 74.2-34.4 108.8-14.7l83.2-83.2 0-60.9c0-10.7 5.3-20.7 14.2-26.6L485.2-8.7zM438.4 144l59.9-89.9-8.3-8.3-89.9 59.9 0 38.3 38.3 0zM68 416l60.1 60.1 126.1-126.1c16.6-16.6 16.6-43.5 0-60.1s-43.5-16.6-60.1 0L68 416z"/></svg>