<svg xmlns="http://www.w3.org/2000/svg" viewBox="0 0 512 512"><path fill="currentColor" d="M64 0l72 0c13.3 0 24 10.7 24 24s-10.7 24-24 24L64 48c-8.8 0-16 7.2-16 16l0 72c0 13.3-10.7 24-24 24S0 149.3 0 136L0 64C0 28.7 28.7 0 64 0zM376 0l72 0c35.3 0 64 28.7 64 64l0 72c0 13.3-10.7 24-24 24s-24-10.7-24-24l0-72c0-8.8-7.2-16-16-16l-72 0c-13.3 0-24-10.7-24-24S362.7 0 376 0zM48 376l0 72c0 8.8 7.2 16 16 16l72 0c13.3 0 24 10.7 24 24s-10.7 24-24 24l-72 0c-35.3 0-64-28.7-64-64l0-72c0-13.3 10.7-24 24-24s24 10.7 24 24zm464 0l0 72c0 35.3-28.7 64-64 64l-72 0c-13.3 0-24-10.7-24-24s10.7-24 24-24l72 0c8.8 0 16-7.2 16-16l0-72c0-13.3 10.7-24 24-24s24 10.7 24 24zM173.8 120.2c6.3-14.7 20.8-24.2 36.8-24.2l90.9 0c16 0 30.5 9.5 36.8 24.2l3.3 7.8 10.5 0c35.3 0 64 28.7 64 64l0 128c0 35.3-28.7 64-64 64l-192 0c-35.3 0-64-28.7-64-64l0-128c0-35.3 28.7-64 64-64l10.5 0 3.3-7.8zm42 23.8l-7.5 17.5c-3.8 8.8-12.5 14.5-22.1 14.5L160 176c-8.8 0-16 7.2-16 16l0 128c0 8.8 7.2 16 16 16l192 0c8.8 0 16-7.2 16-16l0-128c0-8.8-7.2-16-16-16l-26.3 0c-9.6 0-18.3-5.7-22.1-14.5l-7.5-17.5-80.4 0zM200 256a56 56 0 1 1 112 0 56 56 0 1 1 -112 0z"/></svg>