<svg xmlns="http://www.w3.org/2000/svg" viewBox="0 0 512 512"><path fill="currentColor" d="M448 80L64 80c-8.8 0-16 7.2-16 16l0 80.9c-7.5-.6-15-.9-22.7-.9L0 176 0 96C0 60.7 28.7 32 64 32l384 0c35.3 0 64 28.7 64 64l0 320c0 35.3-28.7 64-64 64l-144 0 0-25.3c0-7.6-.3-15.2-.9-22.7L448 432c8.8 0 16-7.2 16-16l0-320c0-8.8-7.2-16-16-16zM24 224c128.1 0 232 103.9 232 232 0 13.3-10.7 24-24 24s-24-10.7-24-24c0-101.6-82.4-184-184-184-13.3 0-24-10.7-24-24s10.7-24 24-24zm8 192a32 32 0 1 1 0 64 32 32 0 1 1 0-64zM0 344c0-13.3 10.7-24 24-24 75.1 0 136 60.9 136 136 0 13.3-10.7 24-24 24s-24-10.7-24-24c0-48.6-39.4-88-88-88-13.3 0-24-10.7-24-24z"/></svg>