<svg xmlns="http://www.w3.org/2000/svg" viewBox="0 0 576 512"><path fill="currentColor" d="M48 112c0-17.7 14.3-32 32-32s32 14.3 32 32l0 48-64 0 0-48zM153.3 80L360 80c22.1 0 40 17.9 40 40l0 24.6c0 2.4-1.1 4.7-3 6.2l-28 22.4c-5.7 4.6-9 11.4-9 18.7s3.3 14.2 9 18.7l28 22.4c1.9 1.5 3 3.8 3 6.2l0 64.6-.6 0c-17 0-33.1 7.7-43.7 21l-3.7 4.6-3.7-4.6c-10.6-13.3-26.7-21-43.7-21L280 304c-30.9 0-56 25.1-56 56l0 40c0 17.7-14.3 32-32 32s-32-14.3-32-32l0-80.6c0-2.4 1.1-4.7 3-6.2l28-22.4c5.7-4.6 9-11.5 9-18.7s-3.3-14.2-9-18.7l-28-22.4c-1.9-1.5-3-3.8-3-6.2L160 112c0-11.4-2.4-22.2-6.7-32zM448 304l0-64.6c0-17-7.7-33.1-21-43.7l-4.6-3.7 4.6-3.7c13.3-10.6 21-26.7 21-43.7l0-24.6c0-48.6-39.4-88-88-88L80 32C35.8 32 0 67.8 0 112l0 48c0 26.5 21.5 48 48 48l64 0 0 16.6c0 17 7.7 33.1 21 43.7l4.6 3.7-4.6 3.7c-13.3 10.6-21 26.7-21 43.7l0 80.6c0 44.2 35.8 80 80 80l264 0c48.6 0 88-39.4 88-88l0-32c0-30.9-25.1-56-56-56l-40 0zm8 128l-190.7 0c4.3-9.8 6.7-20.6 6.7-32l0-40c0-4.4 3.6-8 8-8l24.6 0c2.4 0 4.7 1.1 6.2 3l22.4 28c4.6 5.7 11.5 9 18.7 9s14.2-3.3 18.7-9l22.4-28c1.5-1.9 3.8-3 6.2-3l88.6 0c4.4 0 8 3.6 8 8l0 32c0 22.1-17.9 40-40 40z"/></svg>