<svg xmlns="http://www.w3.org/2000/svg" viewBox="0 0 576 512"><path fill="currentColor" d="M96 88l0 336c0 13.3-10.7 24-24 24s-24-10.7-24-24L48 88c0-13.3 10.7-24 24-24S96 74.7 96 88zM72 496c25 0 47-12.7 59.9-32l312.2 0c12.9 19.3 34.9 32 59.9 32 39.8 0 72-32.2 72-72l0-336c0-39.8-32.2-72-72-72-25 0-47 12.7-59.9 32L131.9 48C119 28.7 97 16 72 16 32.2 16 0 48.2 0 88L0 424c0 39.8 32.2 72 72 72zM480 88c0-13.3 10.7-24 24-24s24 10.7 24 24l0 336c0 13.3-10.7 24-24 24s-24-10.7-24-24l0-336zm-48 8l0 320-288 0 0-320 288 0zM177.9 301c-1.2 2-1.9 4.2-1.9 6.6 0 6.9 5.6 12.5 12.5 12.5l56.9 0 30.5 49.2c2.6 4.2 7.2 6.8 12.2 6.8s9.6-2.6 12.2-6.8l30.5-49.2 56.9 0c6.9 0 12.5-5.6 12.5-12.5 0-2.3-.6-4.6-1.9-6.6l-27.8-45 27.8-45c1.2-2 1.9-4.2 1.9-6.6 0-6.9-5.6-12.5-12.5-12.5l-56.9 0-30.5-49.2c-2.6-4.2-7.2-6.8-12.2-6.8s-9.6 2.6-12.2 6.8l-30.5 49.2-56.9 0c-6.9 0-12.5 5.6-12.5 12.5 0 2.3 .6 4.6 1.9 6.6l27.8 45-27.8 45z"/></svg>