<svg xmlns="http://www.w3.org/2000/svg" viewBox="0 0 640 512"><path fill="currentColor" d="M81.7 336c-1.5-.8-7.5-4.6-15.3-20.3-10.5-21-18.4-53.3-18.4-91.7s7.9-70.7 18.4-91.7c7.8-15.7 13.8-19.5 15.3-20.3l476.7 0c1.5 .8 7.5 4.6 15.3 20.3 10.5 21 18.4 53.3 18.4 91.7s-7.9 70.7-18.4 91.7c-7.8 15.7-13.8 19.5-15.3 20.3l-69 0c-4.9 17.2-12.3 33.4-21.8 48l92.5 0c44.2 0 80-71.6 80-160S604.2 64 560 64L80 64C35.8 64 0 135.6 0 224S35.8 384 80 384l92.5 0c-9.5-14.6-17-30.8-21.8-48l-69 0zM448 288c0-70.7-57.3-128-128-128S192 217.3 192 288c0 32.6 12.2 62.3 32.2 84.9-.1 1-.2 2.1-.2 3.1l0 116.2c0 10.9 8.9 19.8 19.8 19.8 2.8 0 5.5-.6 8-1.7L320 480 388.2 510.3c2.5 1.1 5.3 1.7 8 1.7 10.9 0 19.8-8.9 19.8-19.8L416 376c0-1.1-.1-2.1-.2-3.1 20-22.6 32.2-52.3 32.2-84.9zM320 240a48 48 0 1 1 0 96 48 48 0 1 1 0-96z"/></svg>