<svg xmlns="http://www.w3.org/2000/svg" viewBox="0 0 448 512"><path fill="currentColor" d="M144 384l0-293.5c0-4.2 1.7-8.3 4.7-11.3l58.5-58.5c3-3 7.1-4.7 11.3-4.7L384 16c8.8 0 16 7.2 16 16l0 352c0 8.8-7.2 16-16 16l-224 0c-8.8 0-16-7.2-16-16zm16 64l224 0c35.3 0 64-28.7 64-64l0-352c0-35.3-28.7-64-64-64L218.5-32c-17 0-33.3 6.7-45.3 18.7L114.7 45.3C102.7 57.3 96 73.5 96 90.5L96 384c0 35.3 28.7 64 64 64zM24 160c-13.3 0-24 10.7-24 24L0 480c0 35.3 28.7 64 64 64l264 0c13.3 0 24-10.7 24-24s-10.7-24-24-24L64 496c-8.8 0-16-7.2-16-16l0-296c0-13.3-10.7-24-24-24zM272 88c0-13.3-10.7-24-24-24s-24 10.7-24 24l0 48c0 13.3 10.7 24 24 24s24-10.7 24-24l0-48zm96 0c0-13.3-10.7-24-24-24s-24 10.7-24 24l0 48c0 13.3 10.7 24 24 24s24-10.7 24-24l0-48z"/></svg>