<svg xmlns="http://www.w3.org/2000/svg" viewBox="0 0 384 512"><path fill="currentColor" d="M52.7 113.9c-3 3-4.7 7.1-4.7 11.3L48 448c0 8.8 7.2 16 16 16l256 0c8.8 0 16-7.2 16-16l0-384c0-8.8-7.2-16-16-16L125.3 48c-4.2 0-8.3 1.7-11.3 4.7L52.7 113.9zM320 0c35.3 0 64 28.7 64 64l0 384c0 35.3-28.7 64-64 64L64 512c-35.3 0-64-28.7-64-64L0 125.3C0 108.3 6.7 92 18.7 80L80 18.7C92 6.7 108.3 0 125.3 0L320 0zM208 120l0 48c0 13.3-10.7 24-24 24s-24-10.7-24-24l0-48c0-13.3 10.7-24 24-24s24 10.7 24 24zm88 0l0 48c0 13.3-10.7 24-24 24s-24-10.7-24-24l0-48c0-13.3 10.7-24 24-24s24 10.7 24 24z"/></svg>