<svg xmlns="http://www.w3.org/2000/svg" viewBox="0 0 512 512"><path fill="currentColor" d="M222.2 17.9C241-.8 271.4-.8 290.1 17.9l46.1 46.1 64 0c26.5 0 48 21.5 48 48l0 64 45.6 45.6c18.7 18.7 18.7 49.1 0 67.9l-45.6 45.6 0 64.9c0 26.5-21.5 48-48 48l-64.9 0-45.1 45.1c-18.7 18.7-49.1 18.7-67.9 0l-45.1-45.1-64.9 0c-26.5 0-48-21.5-48-48l0-64.9-45.6-45.6c-18.7-18.7-18.7-49.1 0-67.9l45.6-45.6 0-64c0-26.5 21.5-48 48-48l64 0 46.1-46.1zm-12.1 80c-9 9-21.2 14.1-33.9 14.1l-64 0 0 64c0 12.7-5.1 24.9-14.1 33.9l-45.6 45.6 45.6 45.6c9 9 14.1 21.2 14.1 33.9l0 64.9 64.9 0 4.7 .2c11 1.1 21.3 6 29.2 13.8l45.1 45.1 45.1-45.1c9-9 21.2-14.1 34-14.1l64.9 0 0-64.9c0-12.7 5.1-25 14.1-34l45.6-45.6-45.6-45.6c-9-9-14.1-21.2-14.1-33.9l0-64-64 0c-12.7 0-24.9-5.1-33.9-14.1l-46.1-46.1-46.1 46.1zM256.2 376a32 32 0 1 1 0-64 32 32 0 1 1 0 64zm0-240c18.3 0 32.8 15.7 31.3 34l-7.3 88c-1 12.4-11.4 22-23.9 22s-22.9-9.6-23.9-22l-7.3-88c-1.5-18.3 12.9-34 31.3-34z"/></svg>