<svg xmlns="http://www.w3.org/2000/svg" viewBox="0 0 512 512"><path fill="currentColor" d="M176.1 112c12.7 0 24.9-5.1 33.9-14.1l46.1-46.1 46.1 46.1c9 9 21.2 14.1 33.9 14.1l64 0 0 64c0 12.7 5.1 24.9 14.1 33.9l45.6 45.6-45.6 45.6c-9 9-14.1 21.2-14.1 33.9l0 64.9-64.9 0c-12.7 0-24.9 5.1-33.9 14.1l-45.1 45.1-45.1-45.1c-9-9-21.2-14.1-33.9-14.1l-64.9 0 0-64.9c0-12.7-5.1-24.9-14.1-33.9l-45.6-45.6 45.6-45.6c9-9 14.1-21.2 14.1-33.9l0-64 64 0zM290.1 17.9C271.3-.8 241-.8 222.2 17.9l-46.1 46.1-64 0c-26.5 0-48 21.5-48 48l0 64-45.6 45.6c-18.7 18.7-18.7 49.1 0 67.9l45.6 45.6 0 64.9c0 26.5 21.5 48 48 48l64.9 0 45.1 45.1c18.7 18.7 49.1 18.7 67.9 0l45.1-45.1 64.9 0c26.5 0 48-21.5 48-48l0-64.9 45.6-45.6c18.7-18.7 18.7-49.1 0-67.9l-45.6-45.6 0-64c0-26.5-21.5-48-48-48l-64 0-46.1-46.1zM256.1 184c16.1 0 29.2 13.1 29.2 29.2 0 8.7-3.1 13.9-6.9 17.7-4.5 4.4-10.7 7.5-16.8 9.5-14.9 5-29.5 19.3-29.5 39.5 0 13.3 10.7 24 24 24 11.5 0 21.2-8.1 23.5-19 19.2-7.1 53.7-26.3 53.7-71.8 0-42.6-34.6-77.2-77.2-77.2s-77.2 34.6-77.2 77.2c0 13.3 10.7 24 24 24s24-10.7 24-24c0-16.1 13.1-29.2 29.2-29.2zm28 168a28 28 0 1 0 -56 0 28 28 0 1 0 56 0z"/></svg>