<svg xmlns="http://www.w3.org/2000/svg" viewBox="0 0 512 512"><path fill="currentColor" d="M125.1 28.6l-23.2 56c-3.2 7.8-9.5 14.1-17.3 17.3l-56 23.2c-24.5 10.1-36.1 38.2-26 62.7l23.2 56c3.2 7.8 3.2 16.7 0 24.5l-23.2 56c-10.1 24.5 1.5 52.6 26 62.7l56 23.2c7.8 3.2 14.1 9.5 17.3 17.3l23.2 56c10.1 24.5 38.2 36.1 62.7 26l56-23.2c7.8-3.2 16.7-3.2 24.5 0l56 23.2c24.5 10.1 52.6-1.5 62.7-26l23.2-56c3.2-7.8 9.5-14.1 17.3-17.3l56-23.2c24.5-10.1 36.1-38.2 26-62.7l-23.2-56c-3.2-7.8-3.2-16.6 0-24.5l23.2-56c10.1-24.5-1.5-52.6-26-62.7l-56-23.2c-7.8-3.2-14.1-9.5-17.3-17.3L387 28.6c-10.1-24.5-38.2-36.1-62.7-26l-56 23.2c-7.8 3.2-16.7 3.2-24.5 0l-56-23.2c-24.5-10.1-52.6 1.5-62.7 26zM47 342.6l23.2-56c8.1-19.6 8.1-41.6 0-61.2l-23.2-56 56-23.2c19.6-8.1 35.2-23.7 43.3-43.3l23.2-56 56 23.2c19.6 8.1 41.6 8.1 61.2 0l56-23.2 23.2 56c8.1 19.6 23.7 35.2 43.3 43.3l56 23.2-23.2 56c-8.1 19.6-8.1 41.6 0 61.2l23.2 56-56 23.2c-19.6 8.1-35.2 23.7-43.3 43.3l-23.2 56-56-23.2c-19.6-8.1-41.6-8.1-61.2 0l-56 23.2-23.2-56c-8.1-19.6-23.7-35.2-43.3-43.3L47 342.6z"/></svg>