<svg xmlns="http://www.w3.org/2000/svg" viewBox="0 0 512 512"><path fill="currentColor" d="M96 48c-8.8 0-16 7.2-16 16l0 192 152 0 0-192c0-8.8-7.2-16-16-16L96 48zM432 256l0-192c0-8.8-7.2-16-16-16L296 48c-8.8 0-16 7.2-16 16l0 192 152 0zm48 0l0 2.7c18.6 6.6 32 24.4 32 45.3l0 48c0 20.9-13.4 38.7-32 45.3l0 90.7c0 13.3-10.7 24-24 24s-24-10.7-24-24l0-88-152 0 0 88c0 13.3-10.7 24-24 24s-24-10.7-24-24l0-88-152 0 0 88c0 13.3-10.7 24-24 24s-24-10.7-24-24l0-90.7C13.4 390.7 0 372.9 0 352l0-48c0-20.9 13.4-38.7 32-45.3L32 64C32 28.7 60.7 0 96 0L216 0c15.1 0 29 5.3 40 14 11-8.8 24.9-14 40-14L416 0c35.3 0 64 28.7 64 64l0 192zM56 352l408 0 0-48-416 0 0 48 8 0z"/></svg>