<svg xmlns="http://www.w3.org/2000/svg" viewBox="0 0 384 512"><path fill="currentColor" d="M240 32c-8.8 0-16 7.2-16 16l0 128c0 8.8 7.2 16 16 16l64 0c8.8 0 16-7.2 16-16l0-128c0-8.8-7.2-16-16-16l-64 0zM176 48c0-35.3 28.7-64 64-64l64 0c35.3 0 64 28.7 64 64l0 128c0 35.3-28.7 64-64 64l-64 0c-35.3 0-64-28.7-64-64l0-128zM24 0C37.3 0 48 10.7 48 24l0 122c0 6.5 1.1 12.9 3.3 19l52 144.5c5.7 15.9 20.8 26.5 37.6 26.5l219 0c13.3 0 24 10.7 24 24s-10.7 24-24 24l-219 0c-37.1 0-70.2-23.3-82.8-58.2L6.1 181.3C2.1 170 0 158 0 146L0 24C0 10.7 10.7 0 24 0zm8 488c0-13.3 10.7-24 24-24l304 0c13.3 0 24 10.7 24 24s-10.7 24-24 24L56 512c-13.3 0-24-10.7-24-24z"/></svg>