<svg xmlns="http://www.w3.org/2000/svg" viewBox="0 0 256 512"><path fill="currentColor" d="M105.8 0C47.4 0 0 47.4 0 105.8 0 129.7 8 151.9 21.5 169.8 8 187.6 0 209.8 0 233.8 0 286 38.1 330.5 89.7 338.4L159 349c28.2 4.3 49 28.6 49 57.1 0 31.9-25.9 57.8-57.8 57.8L40 464c-13.3 0-24 10.7-24 24s10.7 24 24 24l110.2 0c58.4 0 105.8-47.4 105.8-105.8 0-23.9-8-46.1-21.5-64 13.5-17.8 21.5-40 21.5-64 0-52.2-38.1-96.6-89.7-104.6L97 163c-28.2-4.3-49-28.6-49-57.1 0-31.9 25.9-57.8 57.8-57.8L216 48c13.3 0 24-10.7 24-24S229.3 0 216 0L105.8 0zm91.6 311.5c-9.6-4.8-20.1-8.2-31.2-9.9L97 291c-28.2-4.3-49-28.6-49-57.1 0-12.4 3.9-23.9 10.6-33.3 9.6 4.8 20.1 8.2 31.2 9.9L159 221c28.2 4.3 49 28.6 49 57.1 0 12.4-3.9 23.9-10.6 33.3z"/></svg>