<svg xmlns="http://www.w3.org/2000/svg" viewBox="0 0 576 512"><path fill="currentColor" d="M160 16c8.8 0 16 7.2 16 16l0 96c0 8.8-7.2 16-16 16l-96 0c-8.8 0-16-7.2-16-16l0-96c0-8.8 7.2-16 16-16l96 0zM64-32C28.7-32 0-3.3 0 32l0 96c0 35.3 28.7 64 64 64l96 0c35.3 0 64-28.7 64-64l0-96c0-35.3-28.7-64-64-64L64-32zM512 368c8.8 0 16 7.2 16 16l0 96c0 8.8-7.2 16-16 16l-96 0c-8.8 0-16-7.2-16-16l0-96c0-8.8 7.2-16 16-16l96 0zm-96-48c-35.3 0-64 28.7-64 64l0 96c0 35.3 28.7 64 64 64l96 0c35.3 0 64-28.7 64-64l0-96c0-35.3-28.7-64-64-64l-96 0zM128 240l0 112c0 35.3 28.7 64 64 64l112 0 0-32c0-61.9 50.1-112 112-112l32 0 0-112c0-35.3-28.7-64-64-64l-112 0 0 32c0 61.9-50.1 112-112 112l-32 0z"/></svg>