<svg xmlns="http://www.w3.org/2000/svg" viewBox="0 0 640 512"><path fill="currentColor" d="M160 80l320 0c8.8 0 16 7.2 16 16l0 73.6c4.7 4.4 9.3 8.9 13.9 13.5 10.3-7.1 22.2-10.7 34.1-11L544 96c0-35.3-28.7-64-64-64L160 32c-35.3 0-64 28.7-64 64l0 320c0 35.3 28.7 64 64 64l136.1 0c-7.9-15.1-14-31.2-18.1-48l-118 0c-8.8 0-16-7.2-16-16l0-320c0-8.8 7.2-16 16-16zm176 72c0-13.3-10.7-24-24-24s-24 10.7-24 24l0 80c0 13.3 10.7 24 24 24 2.4 0 4.6-.3 6.8-1 5.4-8.1 11.1-16.1 17.2-24.2l0-78.9zm-96 0c0-13.3-10.7-24-24-24s-24 10.7-24 24l0 80c0 13.3 10.7 24 24 24s24-10.7 24-24l0-80zm265.7 88.1s-24.5-29.4-38.9-40.7c-5.4-4.3-11.5-7.3-18.8-7.5s-14.6 2.3-20.3 7.5c-23.4 21.1-50 48.9-70.9 80.2-20.8 31.1-36.8 67.2-36.8 104.5 0 88.6 70.4 159.8 160 159.8 88.7 0 160-71.2 160-159.8 0-30-11-60.9-26.2-88.1-15.2-27.4-35.3-52.3-55-70.6-5.6-5.2-12.8-7.8-19.9-7.8-7.6 0-15.5 2.8-20.9 8.9l-12.3 13.8zM544 432c0 35.3-28.7 64-64 64s-64-28.7-64-64c0-36.5 37-73 54.8-88.4 5.4-4.7 13.1-4.7 18.5 0 17.7 15.4 54.8 51.9 54.8 88.4z"/></svg>