<svg xmlns="http://www.w3.org/2000/svg" viewBox="0 0 576 512"><path fill="currentColor" d="M128 80l320 0c8.8 0 16 7.2 16 16l0 122.7c5.1 5.2 9.7 11 13.5 17.5L512 294.2 512 96c0-35.3-28.7-64-64-64L128 32C92.7 32 64 60.7 64 96l0 320c0 35.3 28.7 64 64 64l52.1 0c1.9-6 4.6-11.8 7.8-17.3l18.2-30.7-78.2 0c-8.8 0-16-7.2-16-16l0-320c0-8.8 7.2-16 16-16zm80 72c0-13.3-10.7-24-24-24s-24 10.7-24 24l0 80c0 13.3 10.7 24 24 24s24-10.7 24-24l0-80zm96 0c0-13.3-10.7-24-24-24s-24 10.7-24 24l0 80c0 13.3 10.7 24 24 24s24-10.7 24-24l0-80zM229.2 487.3c-3.4 5.8-5.2 12.4-5.2 19.1 0 20.7 16.8 37.4 37.4 37.4l277.1 0c20.7 0 37.4-16.8 37.4-37.4 0-6.7-1.8-13.3-5.2-19.1L436.3 260.7c-7.6-12.8-21.4-20.6-36.3-20.6s-28.7 7.8-36.3 20.6L229.2 487.3zM416 327.2l0 80.9c0 8.8-7.2 16-16 16s-16-7.2-16-16l0-80.9c0-8.8 7.2-16 16-16s16 7.2 16 16zM400 456.1a24 24 0 1 1 0 48 24 24 0 1 1 0-48z"/></svg>