<svg xmlns="http://www.w3.org/2000/svg" viewBox="0 0 576 512"><path fill="currentColor" d="M128 80l320 0c8.8 0 16 7.2 16 16l0 176.3c17.6 1.3 33.9 7 48 16L512 96c0-35.3-28.7-64-64-64L128 32C92.7 32 64 60.7 64 96l0 320c0 35.3 28.7 64 64 64l49 0c-.7-5.2-1-10.6-1-16 0-11.1 1.4-21.8 4-32l-52 0c-8.8 0-16-7.2-16-16l0-320c0-8.8 7.2-16 16-16zm80 72c0-13.3-10.7-24-24-24s-24 10.7-24 24l0 80c0 13.3 10.7 24 24 24s24-10.7 24-24l0-80zm96 0c0-13.3-10.7-24-24-24s-24 10.7-24 24l0 80c0 13.3 10.7 24 24 24s24-10.7 24-24l0-80zM576 464c0-39-27.9-71.5-64.8-78.6 .5-3.1 .8-6.2 .8-9.4 0-30.9-25.1-56-56-56-12.4 0-23.9 4-33.1 10.8-13.4-25.5-40.1-42.8-70.9-42.8-44.2 0-80 35.8-80 80 0 7.4 1 14.6 2.9 21.5-29.8 11.6-50.9 40.6-50.9 74.5 0 44.2 35.8 80 80 80l192 0c44.2 0 80-35.8 80-80z"/></svg>