<svg xmlns="http://www.w3.org/2000/svg" viewBox="0 0 448 512"><path fill="currentColor" d="M64 80c-8.8 0-16 7.2-16 16l0 64c0 8.8 7.2 16 16 16l320 0c8.8 0 16-7.2 16-16l0-64c0-8.8-7.2-16-16-16L64 80zM0 96C0 60.7 28.7 32 64 32l320 0c35.3 0 64 28.7 64 64l0 64c0 35.3-28.7 64-64 64L64 224c-35.3 0-64-28.7-64-64L0 96zm264 8a24 24 0 1 1 0 48 24 24 0 1 1 0-48zm56 24a24 24 0 1 1 48 0 24 24 0 1 1 -48 0zM64 336c-8.8 0-16 7.2-16 16l0 64c0 8.8 7.2 16 16 16l320 0c8.8 0 16-7.2 16-16l0-64c0-8.8-7.2-16-16-16L64 336zM0 352c0-35.3 28.7-64 64-64l320 0c35.3 0 64 28.7 64 64l0 64c0 35.3-28.7 64-64 64L64 480c-35.3 0-64-28.7-64-64l0-64zm240 32a24 24 0 1 1 48 0 24 24 0 1 1 -48 0zm104-24a24 24 0 1 1 0 48 24 24 0 1 1 0-48z"/></svg>