<svg xmlns="http://www.w3.org/2000/svg" viewBox="0 0 512 512"><path fill="currentColor" d="M432 96a48 48 0 1 0 -96 0 48 48 0 1 0 96 0zm48 0c0 53-43 96-96 96-27.4 0-52.1-11.5-69.6-29.9L188.9 231.8c2 7.7 3.1 15.8 3.1 24.2s-1.1 16.5-3.1 24.2l125.5 69.7c17.5-18.4 42.2-29.9 69.6-29.9 53 0 96 43 96 96s-43 96-96 96-96-43-96-96c0-8.3 1.1-16.5 3.1-24.2L165.6 322.1C148.1 340.5 123.4 352 96 352 43 352 0 309 0 256s43-96 96-96c27.4 0 52.1 11.5 69.6 29.9l125.5-69.7c-2-7.7-3.1-15.8-3.1-24.2 0-53 43-96 96-96s96 43 96 96zM144 256a48 48 0 1 0 -96 0 48 48 0 1 0 96 0zM384 464a48 48 0 1 0 0-96 48 48 0 1 0 0 96z"/></svg>