<svg xmlns="http://www.w3.org/2000/svg" viewBox="0 0 576 512"><path fill="currentColor" d="M370.3 57l151 151-151 151c-9.4 9.4-9.4 24.6 0 33.9s24.6 9.4 33.9 0L566.6 230.6c12.5-12.5 12.5-32.8 0-45.3L404.3 23c-9.4-9.4-24.6-9.4-33.9 0s-9.4 24.6 0 33.9zm23 151L272 329.4 272 264c0-13.3-10.7-24-24-24l-56 0c-66.2 0-122 44.7-138.8 105.7-3.2-12.4-5.2-26.2-5.2-41.7 0-70.7 57.3-128 128-128l72 0c13.3 0 24-10.7 24-24L272 86.6 393.4 208zM68.7 456.1c4.4-5.1 4.4-5.1 0 0 1.5 1.3 3 2.5 4.5 3.7 9.2 7.4 22.3 7.1 31.1-.8s10.6-20.9 4.2-30.9c-8.2-12.7-12.5-27.2-12.5-44.2 0-53 43-96 96-96l32 0 0 80c0 12.9 7.8 24.6 19.8 29.6l0 0c12 5 25.7 2.2 34.9-6.9l160-160c12.5-12.5 12.5-32.8 0-45.3l-160-160c-9.2-9.2-22.9-11.9-34.9-6.9S224 35.1 224 48l0 80-48 0C78.8 128 0 206.8 0 304 0 381.9 38.6 430.2 68.7 456.1z"/></svg>