<svg xmlns="http://www.w3.org/2000/svg" viewBox="0 0 384 512"><path fill="currentColor" d="M64 464l112 0 0-88c0-39.8 32.2-72 72-72l88 0 0-240c0-8.8-7.2-16-16-16L64 48c-8.8 0-16 7.2-16 16l0 384c0 8.8 7.2 16 16 16zm160-19.9l92.1-92.1-68.1 0c-13.3 0-24 10.7-24 24l0 68.1zM64 512c-35.3 0-64-28.7-64-64L0 64C0 28.7 28.7 0 64 0L320 0c35.3 0 64 28.7 64 64l0 261.5c0 17-6.7 33.3-18.7 45.3L242.7 493.3c-12 12-28.3 18.7-45.3 18.7L64 512zm97-383l-32 32c-9.4 9.4-24.6 9.4-33.9 0s-9.4-24.6 0-33.9l32-32c9.4-9.4 24.6-9.4 33.9 0s9.4 24.6 0 33.9zm96 32l-96 96c-9.4 9.4-24.6 9.4-33.9 0s-9.4-24.6 0-33.9l96-96c9.4-9.4 24.6-9.4 33.9 0s9.4 24.6 0 33.9z"/></svg>