<svg xmlns="http://www.w3.org/2000/svg" viewBox="0 0 512 512"><path fill="currentColor" d="M24 0C37.3 0 48 10.7 48 24l0 144 416 0 0-144c0-13.3 10.7-24 24-24s24 10.7 24 24l0 464c0 13.3-10.7 24-24 24s-24-10.7-24-24l0-16-416 0 0 16c0 13.3-10.7 24-24 24S0 501.3 0 488L0 24C0 10.7 10.7 0 24 0zM48 424l416 0 0-208-416 0 0 208zM152 256l48 0c22.1 0 40 17.9 40 40l0 48c0 22.1-17.9 40-40 40l-48 0c-22.1 0-40-17.9-40-40l0-48c0-22.1 17.9-40 40-40zm120 40c0-22.1 17.9-40 40-40l48 0c22.1 0 40 17.9 40 40l0 48c0 22.1-17.9 40-40 40l-48 0c-22.1 0-40-17.9-40-40l0-48zM312 0l48 0c22.1 0 40 17.9 40 40l0 48c0 22.1-17.9 40-40 40l-48 0c-22.1 0-40-17.9-40-40l0-48c0-22.1 17.9-40 40-40z"/></svg>