<svg xmlns="http://www.w3.org/2000/svg" viewBox="0 0 576 512"><path fill="currentColor" d="M41-24.9c-9.4-9.4-24.6-9.4-33.9 0S-2.3-.3 7 9.1l528 528c9.4 9.4 24.6 9.4 33.9 0s9.4-24.6 0-33.9L452.1 386.3c58.5-83.9 75.6-182.2 75.9-246.3 .1-26.2-16.3-47.9-38.3-57.2L301.4 2.9C297.2 1 292.7 0 288 0s-9.2 1-13.4 2.9L130.1 64.2 41-24.9zM166.7 100.8L288 49.4 471 127c5.9 2.5 9.1 7.8 9 12.8-.3 57.2-15.2 140.3-62.5 211.9L166.7 100.8zM352.9 422.8c-17.4 14-37.1 26.5-59.2 37.1-3.6 1.7-7.8 1.7-11.3 0-134.2-64.2-177.9-200-185.2-292.9L51 120.8c-2 6-3 12.4-3 19.2 .5 99.2 41.3 280.7 213.6 363.2 16.7 8 36.1 8 52.8 0 27.5-13.1 51.6-28.8 72.7-46.2l-34.2-34.2z"/></svg>