<svg xmlns="http://www.w3.org/2000/svg" viewBox="0 0 512 512"><path fill="currentColor" d="M73.1 127c-5.9 2.5-9.1 7.8-9 12.8 .1 17.9 1.6 38.4 5.1 60.3l162.9 0 0-140.4-159 67.4zm6.7 121c20.9 73.9 65.9 153.7 152.3 202.3l0-202.3-152.3 0zM280 248l0 202.4C366.5 401.8 411.4 322 432.3 248L280 248zm162.9-48c3.5-21.9 5-42.3 5.1-60.3 0-5-3.1-10.2-9-12.8l-159-67.4 0 140.4 162.9 0zM269.4 2.9L457.8 82.8c22 9.3 38.4 31 38.3 57.2-.5 99.2-41.3 280.7-213.6 363.2-16.7 8-36.1 8-52.8 0-172.4-82.5-213.2-264-213.6-363.2-.1-26.2 16.3-47.9 38.3-57.2L242.7 2.9C246.9 1 251.4 0 256 0s9.2 1 13.4 2.9z"/></svg>