<svg xmlns="http://www.w3.org/2000/svg" viewBox="0 0 512 512"><path fill="currentColor" d="M73.1 127L256 49.4 439 127c5.9 2.5 9.1 7.8 9 12.8-.4 91.4-38.4 249.3-186.3 320.1-3.6 1.7-7.8 1.7-11.3 0-148-70.8-185.9-228.7-186.4-320.1 0-5 3.1-10.2 9-12.8zM457.8 82.8L269.4 2.9C265.2 1 260.7 0 256 0s-9.2 1-13.4 2.9L54.3 82.8c-22 9.3-38.4 31-38.3 57.2 .5 99.2 41.3 280.7 213.6 363.2 16.7 8 36.1 8 52.8 0 172.4-82.5 213.1-264 213.6-363.2 .1-26.2-16.3-47.9-38.3-57.2zM256 144c-13.3 0-24 10.7-24 24l0 48-48 0c-13.3 0-24 10.7-24 24s10.7 24 24 24l48 0 0 48c0 13.3 10.7 24 24 24s24-10.7 24-24l0-48 48 0c13.3 0 24-10.7 24-24s-10.7-24-24-24l-48 0 0-48c0-13.3-10.7-24-24-24z"/></svg>