<svg xmlns="http://www.w3.org/2000/svg" viewBox="0 0 512 512"><path fill="currentColor" d="M285.3 256c36.8 0 66.7 29.8 66.7 66.7 0 7.4-6 13.3-13.3 13.3l-165.3 0c-7.4 0-13.3-6-13.3-13.3 0-36.8 29.8-66.6 66.7-66.7l58.7 0zM256 224a48 48 0 1 1 0-96 48 48 0 1 1 0 96zM229.7 503.2C68.1 425.8 22.1 261.5 16.6 159.5L16 140c-.1-24.6 14.3-45.2 34.3-55.3L243.5 2.5c3.8-1.6 8.3-2.5 12.5-2.5 4.1 0 8.6 1 12.5 2.5L461.7 84.7c19.9 10.2 34.4 30.7 34.2 55.3l-.6 19.5c-5.5 102-51.5 266.3-213.1 343.6-8.6 3.5-16.9 6-26.3 6-9.4 0-17.8-2.5-26.3-6zM64 139.7l.5 17.9c5.1 92.8 47 235.3 185.2 301.8 2.1 .8 4 1.6 6.2 1.6 2.3 0 4.2-.8 6.2-1.6 138.2-66.5 180.1-209.1 185.2-301.8l.5-17.9c0-5-3.2-10.3-9.1-12.8L256 49.4 73.1 127c-5.9 2.5-9.1 7.8-9.1 12.8z"/></svg>