<svg xmlns="http://www.w3.org/2000/svg" viewBox="0 0 512 512"><path fill="currentColor" d="M256.1 0c4.6 0 9.2 1 13.3 2.9L457.8 82.8c22 9.3 38.4 31 38.3 57.2-.5 99.2-41.3 280.7-213.6 363.2-16.7 8-36.1 8-52.7 0-172.4-82.5-213.2-263.9-213.7-363.2-.1-26.2 16.3-47.9 38.3-57.2L242.7 2.9C246.8 1 251.4 0 256.1 0zM73.1 127c-5.9 2.5-9.1 7.7-9 12.7 .5 91.4 38.4 249.3 186.4 320.1 3.6 1.7 7.8 1.7 11.3 0 148-70.8 185.9-228.7 186.3-320.1 0-5-3.1-10.2-9-12.7l-183-77.6-183 77.6zM256 368a32 32 0 1 1 0-64 32 32 0 1 1 0 64zm0-256c18.2 0 32.7 15.5 31.4 33.7l-7.4 104c-.9 12.6-11.4 22.3-23.9 22.3-12.6 0-23-9.7-23.9-22.3l-7.4-104C223.4 127.5 237.8 112 256 112z"/></svg>