<svg xmlns="http://www.w3.org/2000/svg" viewBox="0 0 512 512"><path fill="currentColor" d="M73.1 127L256 49.4 439 127c5.9 2.5 9.1 7.8 9 12.8-.4 91.4-38.4 249.3-186.3 320.1-3.6 1.7-7.8 1.7-11.3 0-148-70.8-185.9-228.7-186.4-320.1 0-5 3.1-10.2 9-12.8zM457.8 82.8L269.4 2.9C265.2 1 260.7 0 256 0s-9.2 1-13.4 2.9L54.3 82.8c-22 9.3-38.4 31-38.3 57.2 .5 99.2 41.3 280.7 213.6 363.2 16.7 8 36.1 8 52.8 0 172.4-82.5 213.1-264 213.6-363.2 .1-26.2-16.3-47.9-38.3-57.2zM256 96c-13.3 0-24 10.7-24 24 0 22.9-27.7 34.4-43.9 18.2-9.4-9.4-24.6-9.4-33.9 0s-9.4 24.6 0 33.9c16.2 16.2 4.7 43.9-18.2 43.9-13.3 0-24 10.7-24 24s10.7 24 24 24c22.9 0 34.4 27.7 18.2 43.9-9.4 9.4-9.4 24.6 0 33.9s24.6 9.4 33.9 0c16.2-16.2 43.9-4.7 43.9 18.2 0 13.3 10.7 24 24 24s24-10.7 24-24c0-22.9 27.7-34.4 43.9-18.2 9.4 9.4 24.6 9.4 33.9 0s9.4-24.6 0-33.9c-16.2-16.2-4.7-43.9 18.2-43.9 13.3 0 24-10.7 24-24s-10.7-24-24-24c-22.9 0-34.4-27.7-18.2-43.9 9.4-9.4 9.4-24.6 0-33.9s-24.6-9.4-33.9 0c-16.2 16.2-43.9 4.7-43.9-18.2 0-13.3-10.7-24-24-24zm-32 88a24 24 0 1 1 0 48 24 24 0 1 1 0-48zm40 88a24 24 0 1 1 48 0 24 24 0 1 1 -48 0z"/></svg>