<svg xmlns="http://www.w3.org/2000/svg" viewBox="0 0 640 512"><path fill="currentColor" d="M272 0c-26.5 0-48 21.5-48 48l0 16-16 0c-44.2 0-80 35.8-80 80l0 108.8-21.6 8.6c-14.8 5.9-22.5 22.4-17.4 37.5 10.4 31.3 26.8 59.3 47.7 83.1 17.3-7.9 35.6-12.5 54.1-13.7-21.3-18.6-38.7-42-50.3-68.9l155.5-62.2 0 163.3c20.3 15 27.7 15 48 0l0-163.3 155.5 62.2c-11.6 26.9-29 50.2-50.3 68.8 18.5 1.2 36.9 5.8 54.1 13.7 20.9-23.7 37.3-51.8 47.7-83.1 5-15.2-2.6-31.6-17.4-37.5L512 252.8 512 144c0-44.2-35.8-80-80-80l-16 0 0-16c0-26.5-21.5-48-48-48L272 0zm24.2 185.5L176 233.6 176 144c0-17.7 14.3-32 32-32l224 0c17.7 0 32 14.3 32 32l0 89.6-120.2-48.1c-15.3-6.1-32.3-6.1-47.5 0zM403.4 476.1c21.3-16.1 49.9-16.1 71.2 0 19 14.4 41.9 28.2 67.2 33.3 26.5 5.4 54.3 .8 80.7-19.1 10.6-8 12.7-23 4.7-33.6s-23-12.7-33.6-4.7c-14.9 11.2-28.6 13.1-42.3 10.3-14.9-3-30.9-11.9-47.8-24.6-38.4-29-90.5-29-129 0-24 18.1-40.7 26.3-54.5 26.3s-30.5-8.2-54.5-26.3c-38.4-29-90.5-29-129 0-21.6 16.3-41.3 25.8-58.9 25.7-9.6-.1-19.9-3-31.2-11.5-10.6-8-25.6-5.9-33.6 4.7S7 482.3 17.6 490.3c19.1 14.4 39.4 21 59.8 21.1 33.9 .2 64.3-17.4 88.1-35.3 21.3-16.1 49.9-16.1 71.2 0 24.2 18.3 52.3 35.9 83.4 35.9s59.1-17.7 83.4-35.9z"/></svg>