<svg xmlns="http://www.w3.org/2000/svg" viewBox="0 0 640 512"><path fill="currentColor" d="M382.3 432.6c37.5-23.8 85.6-22.1 121.6 5.1l6.3 4.6c14.6 10.2 28.5 17.3 41.5 20 13.7 2.8 27.4 .9 42.3-10.3l2-1.4c10.4-6.3 24.1-3.8 31.6 6.1 8 10.6 5.9 25.6-4.7 33.6l-5 3.5c-24.9 16.8-50.9 20.6-75.7 15.5-22.1-4.5-42.4-15.6-59.8-27.9l-7.3-5.3c-20-15.1-46.4-16-67.2-2.8l-4.1 2.8c-22.7 17.1-48.8 33.7-77.6 35.7l-5.8 .2c-27.2 0-52.1-13.5-74.1-29.2l-9.3-6.8c-20-15.1-46.3-16-67.1-2.8l-4.1 2.8c-22.3 16.8-50.4 33.3-81.7 35.2l-6.3 .2c-17.9-.1-35.6-5.2-52.6-16.1l-7.2-5-1.9-1.6c-8.9-8.3-10.3-22.1-2.8-32 7.5-9.9 21.2-12.4 31.6-6.1l2 1.4 4.2 2.9c9.7 6.3 18.6 8.5 27 8.5l6.7-.4c15.9-2 33.3-11 52.2-25.3l7.4-5.1c37.5-23.8 85.6-22 121.6 5.1l8.7 6.3c19.5 13.7 33.8 20 45.8 20l5.3-.4c12.7-1.8 28.2-10.1 49.2-25.9l7.4-5.1zM320.5-32c13.3 0 24 10.7 24 24l0 24 80 0c30.9 0 56 25.1 56 56l0 49.7 30.7 6.6 6.3 1.7c30.6 10.3 46.6 45 33.3 75.5l-37.6 86c-.4 1-.7 2.1-.7 3.2l0 91.7c-15.2-8.2-31.4-13.6-48-16.3l0-75.4c0-7.7 1.6-15.4 4.7-22.4l37.6-86c1.8-4-.1-8.6-3.9-10.4l-1.8-.6-156.7-33.6 0 258.8c-20.3 15.1-27.7 15.1-48 0l0-258.9-156.7 33.6c-4.9 1.1-7.7 6.4-5.7 11l37.6 86c3.1 7.1 4.7 14.7 4.7 22.4l0 75.3c-16.6 2.7-32.8 8.2-48 16.3l0-91.7c0-.5 0-1.1-.2-1.6l-.5-1.6-37.6-86c-14.2-32.5 4.9-69.8 39.6-77.2l30.7-6.6 0-49.7c0-30.9 25.1-56 56-56l80 0 0-24c0-13.3 10.7-24 24-24zm-104 96c-4.4 0-8 3.6-8 8l0 39.4 100.3-21.5 5.8-.9c5.9-.6 11.8-.3 17.6 .9l100.3 21.5 0-39.4c0-4.4-3.6-8-8-8l-208 0z"/></svg>