<svg xmlns="http://www.w3.org/2000/svg" viewBox="0 0 384 512"><path fill="currentColor" d="M88 0c13.3 0 24 10.7 24 24l0 48c0 44.2 35.8 80 80 80s80-35.8 80-80l0-48c0-13.3 10.7-24 24-24s24 10.7 24 24c0 127.9 26.8 181 41.5 200.5 9.6 12.8 22.5 32.8 22.5 56.3L384 448c0 35.3-28.7 64-64 64L64 512c-35.3 0-64-28.7-64-64L0 280.7C0 257.2 12.9 237.2 22.5 224.5 37.2 205 64 151.9 64 24 64 10.7 74.7 0 88 0zM60.8 253.4C52.2 264.8 48 273.9 48 280.7l0 110.1 251.3-181.5c-5.4-13.6-10.4-29.8-14.6-49.1-23.3 24.5-56.2 39.8-92.7 39.8s-69.4-15.3-92.7-39.8C89 206.9 74.1 235.7 60.8 253.4zM48.1 450c1 7.9 7.7 14 15.9 14l256 0c8.8 0 16-7.2 16-16l0-167.3c0-6.8-4.2-15.9-12.8-27.3-.3-.4-.7-.9-1-1.4L48.1 450z"/></svg>