<svg xmlns="http://www.w3.org/2000/svg" viewBox="0 0 640 512"><path fill="currentColor" d="M214.2 48c-9 0-17.7 3-24.8 8.6l-63.3 49.9 53.6 85.8c5.5-1 11.4 0 16.4 2.9 7.3 4.3 11.8 12.2 11.8 20.7l0 240c0 4.4 3.6 8 8 8l208 0c4.4 0 8-3.6 8-8l0-240c0-8.5 4.5-16.4 11.8-20.7 5-2.9 10.8-3.9 16.4-2.9l53.6-85.8-63.3-49.9C443.5 51 434.8 48 425.8 48l-4.6 0c-10.8 45.9-52 80-101.2 80S229.6 93.9 218.8 48l-4.6 0zm331.2 83.5l-49.5 79.2 24.1 13.4 48.1-74.7-22.6-17.9zM72 149.3l48.1 74.7 24.1-13.4-49.5-79.2-22.6 17.9zM159.7 18.9C175.2 6.7 194.4 0 214.2 0L425.8 0c19.8 0 39 6.7 54.5 18.9L614.9 125.2c9.7 7.7 12 21.4 5.3 31.8l-72 112c-6.8 10.6-20.8 14.1-31.8 8L480 256.8 480 456c0 30.9-25.1 56-56 56l-208 0c-30.9 0-56-25.1-56-56l0-199.2-36.3 20.2c-11.1 6.1-25 2.6-31.8-8l-72-112c-6.7-10.4-4.4-24.2 5.3-31.8L159.7 18.9zM320 80c22.3 0 41.6-13.1 50.6-32L269.4 48c9 18.9 28.3 32 50.6 32zm-8 120c-8.8 0-16 7.2-16 16l0 48c0 8.8 7.2 16 16 16l16 0c8.8 0 16-7.2 16-16l0-48c0-8.8-7.2-16-16-16l-16 0zm-56 16c0-30.9 25.1-56 56-56l16 0c30.9 0 56 25.1 56 56l0 48c0 30.9-25.1 56-56 56l-16 0c-30.9 0-56-25.1-56-56l0-48z"/></svg>