<svg xmlns="http://www.w3.org/2000/svg" viewBox="0 0 512 512"><path fill="currentColor" d="M140.7 0C94 0 53.1 31 40.5 76L3.3 209.1C1.1 216.8 0 224.8 0 232.8L0 408c0 22.1 17.9 40 40 40l56 0 0 8c0 30.9 25.1 56 56 56l208 0c30.9 0 56-25.1 56-56l0-8 56 0c22.1 0 40-17.9 40-40l0-175.2c0-8-1.1-16-3.3-23.7L471.5 76C458.9 31 418 0 371.3 0L140.7 0zM96 216l0 184-48 0 0-167.2c0-3.6 .5-7.3 1.5-10.8L86.8 88.9C93.5 64.7 115.6 48 140.7 48l14.1 0c10.8 45.9 52 80 101.2 80s90.4-34.1 101.2-80l14.1 0c25.1 0 47.2 16.7 53.9 40.9L462.5 222c1 3.5 1.5 7.1 1.5 10.8l0 167.2-48 0 0-184c0-13.3-10.7-24-24-24s-24 10.7-24 24l0 240c0 4.4-3.6 8-8 8l-208 0c-4.4 0-8-3.6-8-8l0-240c0-13.3-10.7-24-24-24s-24 10.7-24 24zM306.6 48c-9 18.9-28.3 32-50.6 32s-41.6-13.1-50.6-32l101.2 0z"/></svg>