<svg xmlns="http://www.w3.org/2000/svg" viewBox="0 0 512 512"><path fill="currentColor" d="M416 48c-26.5 0-48 21.5-48 48 0 5.7 1 11.1 2.7 16.1 6.8 19.2 11.3 51.8-11.3 74.5L337 209 361.4 233.4C375.9 247.9 384 267.5 384 288s-8.1 40.1-22.6 54.6l-18.7 18.7c-14.5 14.5-34.1 22.6-54.6 22.6 0 20.5-8.1 40.1-22.6 54.6l-18.7 18.7C232.1 471.9 212.5 480 192 480s-40.1-8.1-54.6-22.6L113 433 41 505c-9.4 9.4-24.6 9.4-33.9 0S-2.3 480.4 7 471l72-72-24.4-24.4C40.1 360.1 32 340.5 32 320s8.1-40.1 22.6-54.6l18.7-18.7c14.5-14.5 34.1-22.6 54.6-22.6 0-20.5 8.1-40.1 22.6-54.6l18.7-18.7C183.9 136.1 203.5 128 224 128s40.1 8.1 54.6 22.6L303 175 325.5 152.6c1.1-1.1 2.5-3.3 2.8-7.8 .3-4.7-.6-10.6-2.7-16.6-3.6-10.1-5.5-20.9-5.5-32.1 0-53 43-96 96-96s96 43 96 96c0 19.7-6 38.1-16.2 53.4-7.4 11-22.3 14-33.3 6.6s-14-22.3-6.6-33.3c5.1-7.6 8.1-16.8 8.1-26.7 0-26.5-21.5-48-48-48zM88.6 340.7l82.7 82.7c5.5 5.5 12.9 8.6 20.7 8.6s15.2-3.1 20.7-8.6l18.7-18.7c5.5-5.5 8.6-12.9 8.6-20.7s-3.1-15.2-8.6-20.7l-82.7-82.7c-5.5-5.5-12.9-8.6-20.7-8.6s-15.2 3.1-20.7 8.6L88.6 299.3C83.1 304.8 80 312.2 80 320s3.1 15.2 8.6 20.7zm178.7-13.3c5.5 5.5 12.9 8.6 20.7 8.6s15.2-3.1 20.7-8.6l18.7-18.7c5.5-5.5 8.6-12.9 8.6-20.7s-3.1-15.2-8.6-20.7l-82.7-82.7c-5.5-5.5-12.9-8.6-20.7-8.6s-15.2 3.1-20.7 8.6l-18.7 18.7c-5.5 5.5-8.6 12.9-8.6 20.7s3.1 15.2 8.6 20.7l82.7 82.7z"/></svg>