<svg xmlns="http://www.w3.org/2000/svg" viewBox="0 0 576 512"><path fill="currentColor" d="M208 77.3l0 67.1c48.7 2.4 83.2 15.6 111.8 27l2.1 .9c29.7 11.9 49.2 19.7 78 19.7 34.8 0 70.4-7.1 95.5-20.4 24-12.7 32.5-27 32.5-43.6 0-11.7-10-31.3-49.5-51.1-36.8-18.4-85.3-28.9-126.5-28.9-25.7 0-60.9 6.7-92.3 14.6-15.1 3.8-28.4 7.6-37.9 10.4-4.7 1.4-8.5 2.6-11 3.4-1.2 .4-2.2 .7-2.8 .9zM160 144l0-64-16 0c-17.7 0-32 14.3-32 32s14.3 32 32 32l16 0zM192 32S288.3 0 352 0c96 0 224 48 224 128S480 240 400 240c-38.2 0-65.4-10.9-93.9-22.4-31.2-12.5-63.9-25.6-114.1-25.6l-48 0c-44.2 0-80-35.8-80-80s35.8-80 80-80l48 0zM96 432l0-64-16 0c-17.7 0-32 14.3-32 32s14.3 32 32 32l16 0zm50.8 3.6c2.5 .8 6.3 2 11 3.4 9.5 2.8 22.8 6.6 37.9 10.4 31.4 7.8 66.6 14.6 92.3 14.6 41.2 0 89.8-10.6 126.5-28.9 39.4-19.7 49.5-39.4 49.5-51.1 0-16.5-8.4-30.9-32.5-43.6-25.1-13.3-60.8-20.4-95.5-20.4-28.8 0-48.4 7.8-78 19.7l-2.1 .9c-28.6 11.4-63.1 24.6-111.8 27l0 67.1c.6 .2 1.6 .5 2.8 .9zM128 480l-48 0c-44.2 0-80-35.8-80-80s35.8-80 80-80l48 0c50.2 0 82.9-13.1 114.1-25.6 28.5-11.4 55.7-22.4 93.9-22.4 80 0 176 32 176 112S384 512 288 512c-63.7 0-160-32-160-32z"/></svg>