<svg xmlns="http://www.w3.org/2000/svg" viewBox="0 0 640 512"><path fill="currentColor" d="M144 368l-96 0 0 32 96 0 0-32zM48 320l521.2 0c-7.9-8.1-17.5-14.5-28.5-18.8l-92.8-35.7c-9.3-3.6-18.3-7.7-27.1-12.4L393 281c-9.4 9.4-24.6 9.4-33.9 0s-9.4-24.6 0-33.9l21.2-21.2c-2.3-1.9-4.5-3.9-6.8-5.9l-25-22.5-27.5 27.5c-9.4 9.4-24.6 9.4-33.9 0s-9.4-24.6 0-33.9l25.8-25.8-53.9-48.5C239.6 180.3 181 224 114.3 224l-66.3 0 0 96zm543.6 48l-356.3 0 47.1 23.6c11.1 5.6 23.4 8.4 35.8 8.4l273.8 0 0-24.1c0-2.7-.1-5.3-.4-7.9zM255.8 64c10.4 0 20.5 3.9 28.2 10.8L405.6 184.3c17.4 15.7 37.6 28.1 59.5 36.5l92.8 35.7c49.4 19 82.1 66.5 82.1 119.5l0 24.1c0 26.5-21.5 48-48 48l-273.8 0c-19.9 0-39.5-4.6-57.2-13.5-12.2-6.1-35.2-17.6-69-34.5 0 15.7-7.5 29.6-19.2 38.4-8 6-18 9.6-28.8 9.6l-96 0c-26.5 0-48-21.5-48-48L0 224c0-26.5 21.5-48 48-48l66.3 0c46 0 86.4-30.5 99-74.7l1.9-6.7C220.4 76.5 237 64 255.8 64z"/></svg>