<svg xmlns="http://www.w3.org/2000/svg" viewBox="0 0 640 512"><path fill="currentColor" d="M121.2 88.8L64.4 202.5c-.3 .5-.4 1.1-.4 1.7 0 2.1 1.7 3.8 3.8 3.8l349.3 0c-8.4 14.5-14 30.7-16.1 48l-49 0 0 176c0 26.5-21.5 48-48 48l-192 0c-26.5 0-48-21.5-48-48l0-176 0-.1c-26.8-1.9-48-24.3-48-51.6 0-8 1.9-16 5.5-23.2L78.3 67.4C89.2 45.7 111.3 32 135.6 32l304.9 0c24.2 0 46.4 13.7 57.2 35.4l38.4 76.9c-2.7-.2-5.4-.3-8.1-.3-14.8 0-28.9 2.5-42.1 7.1L454.8 88.8c-2.7-5.4-8.2-8.8-14.3-8.8L135.6 80c-6.1 0-11.6 3.4-14.3 8.8zM112 336l192 0 0-80-192 0 0 80zm0 48l0 48 192 0 0-48-192 0zM560 272.1c0-17.7-14.3-32-32-32s-32 14.3-32 32l0 47.9 64 0 0-47.9zM416 368c0-20.9 13.4-38.7 32-45.3l0-50.6c0-44.2 35.8-80 80-80s80 35.8 80 80l0 50.6c18.6 6.6 32 24.4 32 45.3l0 96c0 26.5-21.5 48-48 48l-128 0c-26.5 0-48-21.5-48-48l0-96z"/></svg>