<svg xmlns="http://www.w3.org/2000/svg" viewBox="0 0 576 512"><path fill="currentColor" d="M121.2 88.8c2.7-5.4 8.3-8.8 14.3-8.8l304.9 0c6.1 0 11.6 3.4 14.3 8.8l56.8 113.7c.3 .5 .4 1.1 .4 1.7 0 2.1-1.7 3.8-3.8 3.8L67.8 208c-2.1 0-3.8-1.7-3.8-3.8 0-.6 .1-1.2 .4-1.7L121.2 88.8zM16 204.2c0 27.3 21.2 49.7 48 51.6l0 .1 0 176c0 26.5 21.5 48 48 48l192 0c26.5 0 48-21.5 48-48l0-176 112 0 0 200c0 13.3 10.7 24 24 24s24-10.7 24-24l0-200.1c26.8-1.9 48-24.3 48-51.6 0-8-1.9-16-5.5-23.2L497.7 67.4C486.8 45.7 464.7 32 440.4 32L135.6 32c-24.2 0-46.4 13.7-57.2 35.4L21.5 181.1c-3.6 7.2-5.5 15.1-5.5 23.2zM112 336l0-80 192 0 0 80-192 0zm0 48l192 0 0 48-192 0 0-48z"/></svg>