<svg xmlns="http://www.w3.org/2000/svg" viewBox="0 0 512 512"><path fill="currentColor" d="M88.4 32c-13.3 0-24 10.7-24 24l0 69.8-52.7 286.1c-4 21.8 10.4 42.6 32.2 46.6l144.9 26.3c21.3 3.9 41.8-9.9 46.3-31.1l21.3-101.2 21.3 101.2c4.5 21.2 25 35 46.3 31.1l144.9-26.3c21.8-4 36.2-24.8 32.2-46.6l-52.7-286.1 0-69.8c0-13.3-10.7-24-24-24l-336 0zm24 80l0-32 288 0 0 32-288 0zm-5.5 48l299 0 46.5 252.7-129.4 23.5-23.9-113.5C294.9 302.5 277 288 256.4 288s-38.5 14.5-42.8 34.7L189.7 436.2 60.3 412.7 106.9 160z"/></svg>