<svg xmlns="http://www.w3.org/2000/svg" viewBox="0 0 576 512"><path fill="currentColor" d="M431-17c9.4-9.4 24.6-9.4 33.9 0l96 96c9.4 9.4 9.4 24.6 0 33.9l-44.1 44.1c-17.2 17.2-40.6 26.9-65 26.9-16.7 0-32.3-4.4-45.8-12.2L273 305 318.1 350.1c18.7 18.7 18.7 49.1 0 67.9l-84.8 84.8C206.8 529.2 171 544 133.7 544 59.9 544 0 484.1 0 410.3 0 373 14.8 337.2 41.2 310.8l84.8-84.8c18.7-18.7 49.1-18.7 67.9 0L239 271 372.2 137.9c-7.8-13.5-12.2-29.1-12.2-45.8 0-24.4 9.7-47.7 26.9-65L431-17zm17 50.9L420.9 61.1c-8.2 8.2-12.9 19.4-12.9 31 0 24.2 19.6 43.9 43.9 43.9 11.6 0 22.8-4.6 31-12.9L510.1 96 448 33.9zM75.2 344.7c-17.4 17.4-27.2 41-27.2 65.6 0 47.3 38.4 85.7 85.7 85.7 24.6 0 48.2-9.8 65.6-27.2L284.1 384 160 259.9 75.2 344.7z"/></svg>