<svg xmlns="http://www.w3.org/2000/svg" viewBox="0 0 640 512"><path fill="currentColor" d="M497.1-17c-9.4-9.4-24.6-9.4-33.9 0L419 27.1c-17.2 17.2-26.9 40.6-26.9 65 0 16.7 4.4 32.3 12.2 45.8L287.2 255 228.8 196.7c-19.8-19.8-52.2-18.5-70.4 2.7L29.1 350.3c-16.3 19-15.2 47.4 2.5 65.2L160.7 544.6c17.7 17.7 46.1 18.8 65.2 2.5L376.8 417.7c21.2-18.2 22.5-50.6 2.7-70.4L321.1 289 438.3 171.8c13.5 7.8 29.1 12.2 45.8 12.2 24.4 0 47.7-9.7 65-26.9L593.1 113c9.4-9.4 9.4-24.6 0-33.9l-96-96zM453 61.1L480.1 33.9 542.2 96 515 123.1c-8.2 8.2-19.4 12.9-31 12.9-24.2 0-43.9-19.6-43.9-43.9 0-11.6 4.6-22.8 12.9-31zM194.8 230.6L345.5 381.3 194.6 510.6 65.5 381.5 194.8 230.6zM217.1 329c9.4-9.4 9.4-24.6 0-33.9s-24.6-9.4-33.9 0l-64 64c-9.4 9.4-9.4 24.6 0 33.9s24.6 9.4 33.9 0l64-64zm64 64c9.4-9.4 9.4-24.6 0-33.9s-24.6-9.4-33.9 0l-64 64c-9.4 9.4-9.4 24.6 0 33.9s24.6 9.4 33.9 0l64-64z"/></svg>