<svg xmlns="http://www.w3.org/2000/svg" viewBox="0 0 512 512"><path fill="currentColor" d="M400 136l48 0 0-29.5c0-17-6.7-33.3-18.7-45.3L386.7 18.7C374.7 6.7 358.5 0 341.5 0L128 0C92.7 0 64 28.7 64 64l0 72 48 0 0-72c0-8.8 7.2-16 16-16l213.5 0c4.2 0 8.3 1.7 11.3 4.7l42.5 42.5c3 3 4.7 7.1 4.7 11.3l0 29.5zm48 104c8.8 0 16 7.2 16 16l0 112-416 0 0-112c0-8.8 7.2-16 16-16l384 0zm0 176l32 0c17.7 0 32-14.3 32-32l0-128c0-35.3-28.7-64-64-64L64 192c-35.3 0-64 28.7-64 64L0 384c0 17.7 14.3 32 32 32l32 0 0 72c0 13.3 10.7 24 24 24s24-10.7 24-24l0-72 64 0 0 72c0 13.3 10.7 24 24 24s24-10.7 24-24l0-72 64 0 0 72c0 13.3 10.7 24 24 24s24-10.7 24-24l0-72 64 0 0 72c0 13.3 10.7 24 24 24s24-10.7 24-24l0-72z"/></svg>