<svg xmlns="http://www.w3.org/2000/svg" viewBox="0 0 512 512"><path fill="currentColor" d="M425 31l80 80c9.4 9.4 9.4 24.6 0 33.9l-80 80c-9.4 9.4-24.6 9.4-33.9 0s-9.4-24.6 0-33.9l39-39-74.1 0c-15.1 0-29.3 7.1-38.4 19.2l-33.6 44.8-30-40 25.2-33.6C297.3 118.2 325.8 104 356 104l74.1 0-39-39c-9.4-9.4-9.4-24.6 0-33.9s24.6-9.4 33.9 0zM194 336l-25.2 33.6C150.7 393.8 122.2 408 92 408l-68 0c-13.3 0-24-10.7-24-24s10.7-24 24-24l68 0c15.1 0 29.3-7.1 38.4-19.2L164 296 194 336zm197-49c9.4-9.4 24.6-9.4 33.9 0l80 80c9.4 9.4 9.4 24.6 0 33.9l-80 80c-9.4 9.4-24.6 9.4-33.9 0s-9.4-24.6 0-33.9l39-39-74.1 0c-30.2 0-58.7-14.2-76.8-38.4L130.4 171.2C121.3 159.1 107.1 152 92 152l-68 0c-13.3 0-24-10.7-24-24s10.7-24 24-24l68 0c30.2 0 58.7 14.2 76.8 38.4L317.6 340.8c9.1 12.1 23.3 19.2 38.4 19.2l74.1 0-39-39c-9.4-9.4-9.4-24.6 0-33.9z"/></svg>