<svg xmlns="http://www.w3.org/2000/svg" viewBox="0 0 448 512"><path fill="currentColor" d="M24 32l400 0c13.3 0 24 10.7 24 24s-10.7 24-24 24L24 80C10.7 80 0 69.3 0 56S10.7 32 24 32zM.8 196.3l14.4-68.3 49.1 0-13.5 64 346.5 0-13.5-64 49 0 14.4 68.3c.5 2.5 .8 5 .8 7.5 0 14.3-8.2 26.6-20.2 32.5l19 71.3c.8 3 1.2 6 1.2 9.1 0 14.6-8.8 27.1-21.4 32.5L447 436c.6 2.7 1 5.4 1 8.2 0 19.8-16 35.8-35.8 35.8L35.8 480C16 480 0 464 0 444.2 0 441.4 .3 438.6 1 436l20.4-86.8c-12.6-5.4-21.4-17.9-21.4-32.5 0-3.1 .4-6.1 1.2-9.1l19-71.3c-12-5.9-20.2-18.2-20.2-32.5 0-2.5 .3-5 .8-7.5zM70 352l-18.8 80 345.6 0-18.8-80-308 0zM379.1 240l-310.2 0-17.1 64 344.4 0-17.1-64z"/></svg>