<svg xmlns="http://www.w3.org/2000/svg" viewBox="0 0 576 512"><path fill="currentColor" d="M0 432L0 80C0 53.5 21.5 32 48 32l50 0c40.6 0 80.4 11 115.2 31.9L373.3 160 392 160c69.3 0 135 22.7 179.2 81.6 6.4 8.5 6.4 20.3 0 28.8-44.2 58.9-109.9 81.6-179.2 81.6l-18.7 0-160.1 96.1C178.4 469 138.6 480 98 480l-50 0c-26.5 0-48-21.5-48-48zm280-80l-112 0c-6.5 8.6-14.6 15.9-24 21.3l0 52.6c15.6-4.2 30.6-10.6 44.5-19L280 352zM96 432l0-48-48 0 0 48 48 0zM280 160l-91.5-54.9c-14-8.4-28.9-14.7-44.5-19l0 52.6c9.4 5.4 17.5 12.7 24 21.3l112 0zM48 80l0 48 48 0 0-48-48 0zm0 104l0 152 56 0c12.7 0 23.8-7.4 28.9-18.3 4-8.4 12.4-13.7 21.7-13.7L392 304c32.6 0 62.4-5.8 88-18.5l0-59.1c-25.6-12.6-55.4-18.5-88-18.5l-237.4 0c-9.3 0-17.7-5.3-21.7-13.7-5.2-10.9-16.2-18.3-28.9-18.3l-56 0 0 8zm368 40c8.8 0 16 7.2 16 16l0 32c0 8.8-7.2 16-16 16s-16-7.2-16-16l0-32c0-8.8 7.2-16 16-16z"/></svg>