<svg xmlns="http://www.w3.org/2000/svg" viewBox="0 0 448 512"><path fill="currentColor" d="M400 544L48 544c-26.5 0-48-21.5-48-48l0-50c0-40.6 11-80.4 31.9-115.2L128 170.7 128 152c0-69.3 22.7-135 81.6-179.2 8.5-6.4 20.3-6.4 28.8 0 58.9 44.2 81.6 109.9 81.6 179.2l0 18.7 96.1 160.1C437 365.6 448 405.4 448 446l0 50c0 26.5-21.5 48-48 48zM320 264l0 112c8.6 6.5 15.9 14.6 21.3 24l52.6 0c-4.2-15.6-10.6-30.6-19-44.5L320 264zm80 184l-48 0 0 48 48 0 0-48zM128 264L73.1 355.5c-8.4 14-14.7 28.9-19 44.5l52.6 0c5.4-9.4 12.7-17.5 21.3-24l0-112zM48 496l48 0 0-48-48 0 0 48zm104 0l152 0 0-56c0-12.7-7.4-23.8-18.3-28.9-8.4-4-13.7-12.4-13.7-21.7L272 152c0-32.6-5.8-62.4-18.5-88l-59.1 0C181.8 89.6 176 119.4 176 152l0 237.4c0 9.3-5.3 17.7-13.7 21.7-10.9 5.2-18.3 16.2-18.3 28.9l0 56 8 0zm40-368c0-8.8 7.2-16 16-16l32 0c8.8 0 16 7.2 16 16s-7.2 16-16 16l-32 0c-8.8 0-16-7.2-16-16z"/></svg>