<svg xmlns="http://www.w3.org/2000/svg" viewBox="0 0 512 512"><path fill="currentColor" d="M218.7 90.2c56.2-56.2 147.4-56.2 203.6 0 2.3 2.3 4.5 4.7 6.7 7.1-16.4-6-34-9.3-52.5-9.3-83.9 0-152 68.1-152 152 0 17.8 3.1 35 8.7 50.9l-8.7 8.7-5.8-5.8c-56.2-56.2-56.2-147.4 0-203.6zM456.3 56.2c-75-75-196.5-75-271.5 0s-75 196.5 0 271.5l22.8 22.8c9.4 9.4 24.6 9.4 33.9 0l37.1-37.1c7.3-7.3 9.1-18.4 4.6-27.6-6.8-13.8-10.6-29.4-10.6-45.9 0-57.4 46.6-104 104-104 38.7 0 72.5 21.1 90.5 52.6 5.6 9.8 17.3 14.4 28 11s17.7-13.8 16.7-25.1c-3.9-43.2-22.4-85.3-55.4-118.4zM121.5 311c-9.4-9.4-24.6-9.4-33.9 0l-16 16c-9.4 9.4-9.4 24.6 0 33.9l7 7-71 71c-9.4 9.4-9.4 24.6 0 33.9l32 32c9.4 9.4 24.6 9.4 33.9 0l71-71 7 7c9.4 9.4 24.6 9.4 33.9 0l16-16c9.4-9.4 9.4-24.6 0-33.9-34.7-34.7-73.3-73.3-80-80z"/></svg>