<svg xmlns="http://www.w3.org/2000/svg" viewBox="0 0 512 512"><path fill="currentColor" d="M0 128C0 92.7 28.7 64 64 64l384 0c35.3 0 64 28.7 64 64l0 256c0 35.3-28.7 64-64 64L64 448c-35.3 0-64-28.7-64-64L0 128zM176 240c0-13.3-10.7-24-24-24l-80 0c-13.3 0-24 10.7-24 24s10.7 24 24 24l80 0c13.3 0 24-10.7 24-24zm0 88c0-13.3-10.7-24-24-24l-80 0c-13.3 0-24 10.7-24 24s10.7 24 24 24l80 0c13.3 0 24-10.7 24-24zm48 72l224 0c8.8 0 16-7.2 16-16l0-256c0-8.8-7.2-16-16-16l-224 0 0 288zM176 152c0-13.3-10.7-24-24-24l-80 0c-13.3 0-24 10.7-24 24s10.7 24 24 24l80 0c13.3 0 24-10.7 24-24z"/></svg>