<svg xmlns="http://www.w3.org/2000/svg" viewBox="0 0 512 512"><path fill="currentColor" d="M512 128c0-35.3-28.7-64-64-64L64 64C28.7 64 0 92.7 0 128L0 384c0 35.3 28.7 64 64 64l384 0c35.3 0 64-28.7 64-64l0-256zM336 240c0-13.3 10.7-24 24-24l80 0c13.3 0 24 10.7 24 24s-10.7 24-24 24l-80 0c-13.3 0-24-10.7-24-24zm0 88c0-13.3 10.7-24 24-24l80 0c13.3 0 24 10.7 24 24s-10.7 24-24 24l-80 0c-13.3 0-24-10.7-24-24zm-48 72L64 400c-8.8 0-16-7.2-16-16l0-256c0-8.8 7.2-16 16-16l224 0 0 288zm48-248c0-13.3 10.7-24 24-24l80 0c13.3 0 24 10.7 24 24s-10.7 24-24 24l-80 0c-13.3 0-24-10.7-24-24z"/></svg>