<svg xmlns="http://www.w3.org/2000/svg" viewBox="0 0 512 512"><path fill="currentColor" d="M392 0c-13.3 0-24 10.7-24 24l0 40.5c-53.9 5.2-96 50.6-96 105.8 0 52 37.6 96.3 88.8 104.8l54.5 9.1c28.1 4.7 48.7 29 48.7 57.5 0 32.2-26.1 58.3-58.3 58.3L312 400c-13.3 0-24 10.7-24 24s10.7 24 24 24l56 0 0 40c0 13.3 10.7 24 24 24s24-10.7 24-24l0-40.5c53.9-5.2 96-50.6 96-105.8 0-52-37.6-96.3-88.8-104.8l-54.5-9.1c-28.1-4.7-48.7-29-48.7-57.5 0-32.2 26.1-58.3 58.3-58.3l77.7 0c13.3 0 24-10.7 24-24s-10.7-24-24-24l-40 0 0-40c0-13.3-10.7-24-24-24zM106.3 64C47.6 64 0 111.6 0 170.3 0 222.2 37.6 266.6 88.8 275.1l54.5 9.1c28.1 4.7 48.7 29 48.7 57.5 0 32.2-26.1 58.3-58.3 58.3L40 400c-13.3 0-24 10.7-24 24s10.7 24 24 24l93.7 0c58.7 0 106.3-47.6 106.3-106.3 0-52-37.6-96.3-88.8-104.8l-54.5-9.1c-28.1-4.7-48.7-29-48.7-57.5 0-32.2 26.1-58.3 58.3-58.3l69.7 0c13.3 0 24-10.7 24-24s-10.7-24-24-24l-69.7 0z"/></svg>