<svg xmlns="http://www.w3.org/2000/svg" viewBox="0 0 576 512"><path fill="currentColor" d="M112 128c0-26.5 21.5-48 48-48s48 21.5 48 48l0 7.9c0 25.7-2 51.4-6.1 76.8L91.5 250.5C55.9 262.7 32 296.1 32 333.7L32 410c0 38.6 31.3 70 70 70 24.6 0 47.4-12.9 60-34l15.9-26.4c29.6-49.4 51.1-103.3 63.6-159.5l1.8-8.1 .6-2.9 76.8-26.3-23.3 65.1c-2.6 7.4-1.5 15.5 3 21.9 3.9 5.5 9.9 9.1 16.5 10 5.1-8.8 11.6-16.7 19.1-23.4l0-24.4c0-39.4 17.8-74.6 45.8-98.1-1.1-2.5-2.7-4.8-4.7-6.8-6.5-6.6-16.1-8.8-24.9-5.9l-99.5 34.1c2.2-19.7 3.3-39.6 3.3-59.5l0-7.9c0-53-43-96-96-96S64 75 64 128l0 40c0 13.3 10.7 24 24 24s24-10.7 24-24l0-40zM257.5 368c-6.8 16.3-14.3 32.3-22.6 48l69.1 0 0-48-46.5 0zM107.1 295.9l83.3-28.5c-11.7 44.8-29.8 87.7-53.6 127.5l-15.9 26.4c-4 6.6-11.1 10.7-18.8 10.7-12.1 0-22-9.8-22-22l0-76.3c0-17.1 10.9-32.3 27.1-37.8zM496 272.1l0 47.9-64 0 0-47.9c0-17.7 14.3-32 32-32s32 14.3 32 32zM352 368l0 96c0 26.5 21.5 48 48 48l128 0c26.5 0 48-21.5 48-48l0-96c0-20.9-13.4-38.7-32-45.3l0-50.6c0-44.2-35.8-80-80-80s-80 35.8-80 80l0 50.6c-18.6 6.6-32 24.4-32 45.3z"/></svg>