<svg xmlns="http://www.w3.org/2000/svg" viewBox="0 0 576 512"><path fill="currentColor" d="M41-24.9c-9.4-9.4-24.6-9.4-33.9 0S-2.3-.3 7 9.1l528 528c9.4 9.4 24.6 9.4 33.9 0s9.4-24.6 0-33.9l-49-49 0-398.2c0-13.3-10.7-24-24-24s-24 10.7-24 24l0 350.2-56-56 0-198.2c0-13.3-10.7-24-24-24s-24 10.7-24 24l0 150.2-327-327zM312 381.8l-48-48 0 122.2c0 13.3 10.7 24 24 24s24-10.7 24-24l0-74.2zM184 320c-13.3 0-24 10.7-24 24l0 112c0 13.3 10.7 24 24 24s24-10.7 24-24l0-112c0-13.3-10.7-24-24-24zM80 384c-13.3 0-24 10.7-24 24l0 48c0 13.3 10.7 24 24 24s24-10.7 24-24l0-48c0-13.3-10.7-24-24-24z"/></svg>