<svg xmlns="http://www.w3.org/2000/svg" viewBox="0 0 576 512"><path fill="currentColor" d="M41-24.9c-9.4-9.4-24.6-9.4-33.9 0S-2.3-.3 7 9.1l528 528c9.4 9.4 24.6 9.4 33.9 0s9.4-24.6 0-33.9L507.9 442c42.5-50.2 68.1-115.1 68.1-186 0-73.7-27.8-141.1-73.3-192-8.8-9.9-24-10.7-33.9-1.9s-10.7 24-1.9 33.9c38 42.5 61.1 98.5 61.1 160 0 57.7-20.3 110.6-54.2 151.9l-45.6-45.6c22.4-29.5 35.8-66.4 35.8-106.4 0-45.9-17.6-87.7-46.3-119-9-9.8-24.1-10.4-33.9-1.4s-10.4 24.1-1.4 33.9c20.9 22.8 33.7 53.2 33.7 86.5 0 26.7-8.2 51.5-22.2 72l-59.5-59.5c1.1-4 1.6-8.2 1.6-12.5 0-26.5-21.5-48-48-48-4.3 0-8.5 .6-12.5 1.6L41-24.9zM162.2 232.1l-38.7-38.7c-7.4 19.5-11.5 40.6-11.5 62.7 0 45.9 17.6 87.7 46.3 119 9 9.8 24.1 10.4 33.9 1.4s10.4-24.1 1.4-33.9c-20.9-22.8-33.7-53.2-33.7-86.5 0-8.2 .8-16.2 2.2-23.9zM75.2 145L39.9 109.7c-25.3 42.9-39.9 92.9-39.9 146.3 0 73.7 27.7 141.1 73.3 192 8.8 9.9 24 10.7 33.9 1.9s10.7-24 1.9-33.9c-38-42.5-61.1-98.5-61.1-160 0-40.1 9.8-77.8 27.2-111z"/></svg>