<svg xmlns="http://www.w3.org/2000/svg" viewBox="0 0 576 512"><path fill="currentColor" d="M528 143.8c0-8.8-7.2-16-16-16s-16 7.2-16 16l0 37.4c0 10.9-7.3 20.4-17.8 23.2s-21.6-1.8-27-11.2L369.7 52c-2.2-3.8-7.1-5.1-10.9-2.9s-5.1 7.1-2.9 10.9l0 .1 48 83.1c3.3 5.7 4 12.1 2.5 18-18.2-16.9-39.4-31-62.9-41.5l-11.4-5.1c-45.7-79.2-18.5-32.1-33.7-58.3-2.2-3.8-7.1-5.1-10.9-2.9s-5.1 7.1-2.9 10.9c5.3 9.2 10.7 18.5 16 27.7l0 .1 6.6 11.5-32.9-14.6c-20.8-9.2-43-11.1-63.7-6.7 3.8-4.1 8.2-7.8 13.4-10.7 3.8-2.2 7.7-3.9 11.7-5.1-2.3-21.4 7.8-43.2 27.7-54.6s43.8-9.4 61.1 3.3c3.1-2.9 6.5-5.4 10.3-7.6 26.8-15.5 61-6.3 76.5 20.5l46.9 81.2c11.4-17.7 31.3-29.4 53.9-29.4 35.3 0 64 28.7 64 64l0 84.6c0 69.4-36.7 133.6-96.5 168.8-3.8 2.2-7.6 4.3-11.5 6.3 7-20.8 11.1-42.9 11.9-65.9 30.3-27.7 48.1-67.2 48.1-109.1l0-84.6zm-353.9 13c15.1-32 53.2-45.7 85.2-30.7l56.4 26.5c36 16.9 65.4 43.7 85.7 76.1 19.6 29.4 30.7 64.4 30.7 101.2 0 1 0 2 0 3 0 1 0 2.1 0 3.1 0 1.2-.1 2.3-.2 3.4-5 96.1-84.5 172.6-181.8 172.6L120 512c-30.9 0-56-25.1-56-56 0-4.4 .5-8.6 1.5-12.7-19.7-8.7-33.5-28.4-33.5-51.3 0-4.4 .5-8.6 1.5-12.7-19.7-8.7-33.5-28.4-33.5-51.3s13.8-42.6 33.5-51.3c-.9-4.1-1.5-8.3-1.5-12.7 0-30.9 25.1-56 56-56l84.7 0c-6.4-16-6.5-34.5 1.4-51.3zM72 320l-16 0c-4.4 0-8 3.6-8 8s3.6 8 8 8l128 0c13.3 0 24 10.7 24 24s-10.7 24-24 24l-96.1 0c-4.4 0-7.9 3.6-7.9 8 0 4.4 3.6 8 8 8l96 0c13.3 0 24 10.7 24 24s-10.7 24-24 24l-64.1 0c-4.4 .1-7.9 3.6-7.9 8 0 4.4 3.6 8 8 8l129.9 0c72.3 0 131.3-57.3 134-128.9 0-.4 0-.9 .1-1.3l0-.5 0-.6 0-.3c0-.8 0-1.7 0-2.5 0-27.2-8.2-53.1-22.8-74.8-.2-.2-.3-.5-.5-.7-15.5-24.9-38-45.4-65.5-58.4l-56.4-26.5c-8-3.8-17.5-.3-21.3 7.7s-.3 17.5 7.7 21.3l25.1 11.8c10.2 4.8 15.7 16 13.2 27S251.3 256 240.1 256L88 256c-4.4 0-8 3.6-8 8s3.6 8 8 8l96 0c13.3 0 24 10.7 24 24s-10.7 24-24 24L72 320z"/></svg>