<svg xmlns="http://www.w3.org/2000/svg" viewBox="0 0 512 512"><path fill="currentColor" d="M64 40l0 24C28.7 64 0 92.7 0 128L0 384c0 35.3 28.7 64 64 64l0 40c0 13.3 10.7 24 24 24s24-10.7 24-24l0-40 288 0 0 40c0 13.3 10.7 24 24 24s24-10.7 24-24l0-40c35.3 0 64-28.7 64-64l0-256c0-35.3-28.7-64-64-64l0-24c0-13.3-10.7-24-24-24s-24 10.7-24 24l0 24-288 0 0-24c0-13.3-10.7-24-24-24S64 26.7 64 40zm384 72c8.8 0 16 7.2 16 16l0 256c0 8.8-7.2 16-16 16L64 400c-8.8 0-16-7.2-16-16l0-256c0-8.8 7.2-16 16-16l384 0z"/></svg>