<svg xmlns="http://www.w3.org/2000/svg" viewBox="0 0 640 512"><path fill="currentColor" d="M73-24.9c-9.4-9.4-24.6-9.4-33.9 0S29.7-.3 39 9.1l528 528c9.4 9.4 24.6 9.4 33.9 0s9.4-24.6 0-33.9L513.8 416 616 416c13.3 0 24-10.7 24-24s-10.7-24-24-24l-150.2 0-48-48 134.2 0c13.3 0 24-10.7 24-24s-10.7-24-24-24l-101.9 0 28.5-79.9c3.1-8.6 1-18.1-5.3-24.7s-15.7-9-24.4-6.3l-133 41.2c2.7-22 4.1-44.2 4.1-66.4l0-7.9c0-53-43-96-96-96-26 0-49.7 10.4-67 27.2L73-24.9zm118 118c8.6-8.1 20.2-13.1 33-13.1 26.5 0 48 21.5 48 48l0 7.9c0 12.3-.5 24.6-1.4 36.9L191 93.1zM342.2 244.3l75.1-23.2-23.9 66.8c-.7 2.1-1.2 4.2-1.3 6.3l-49.9-49.9zm-142-6.3L158 251.1c-36.9 11.4-62 45.5-62 84.1l0 32.8-72 0c-13.3 0-24 10.7-24 24s10.7 24 24 24l72.3 0c3 35.8 33.1 64 69.7 64 24.6 0 47.4-12.9 60-34l15.9-26.4c18.1-30.2 33.1-62 45-95l-38-38c-11.6 37.9-27.8 74.2-48.2 108.2l-15.9 26.4c-4 6.6-11.1 10.7-18.8 10.7-12.1 0-22-9.8-22-22l0-74.8c0-17.5 11.4-33 28.2-38.2l66.4-20.6-38.4-38.4zm130 130l-8.7 0c-6.8 16.3-14.3 32.3-22.6 48l79.3 0-48-48z"/></svg>