<svg xmlns="http://www.w3.org/2000/svg" viewBox="0 0 640 512"><path fill="currentColor" d="M96 64l0-24c0-13.3 10.7-24 24-24s24 10.7 24 24l0 24 288 0 0-24c0-13.3 10.7-24 24-24s24 10.7 24 24l0 24c35.3 0 64 28.7 64 64l0 50.9c-10.4-1.9-21.1-2.9-32-2.9-5.4 0-10.7 .2-16 .7l0-48.7c0-8.8-7.2-16-16-16L96 112c-8.8 0-16 7.2-16 16l0 256c0 8.8 7.2 16 16 16l246.6 0c4.9 17.2 12.3 33.4 21.8 48l-220.5 0 0 40c0 13.3-10.7 24-24 24s-24-10.7-24-24l0-40c-35.3 0-64-28.7-64-64l0-256c0-35.3 28.7-64 64-64zM448 241.1c7.4-4.3 16 1.5 16 10l0 84.9c0 26.5 21.5 48 48 48s48-21.5 48-48l0-84.9c0-8.5 8.6-14.3 16-10 38.3 22.1 64 63.5 64 110.9s-25.7 88.7-64 110.9l0 45.1c0 19.9-16.1 36-36 36l-56 0c-19.9 0-36-16.1-36-36l0-45.1c-38.3-22.1-64-63.5-64-110.9s25.7-88.8 64-110.9z"/></svg>