<svg xmlns="http://www.w3.org/2000/svg" viewBox="0 0 576 512"><path fill="currentColor" d="M41-24.9c-9.4-9.4-24.6-9.4-33.9 0S-2.3-.3 7 9.1l528 528c9.4 9.4 24.6 9.4 33.9 0s9.4-24.6 0-33.9l-65-65 0-382.2c0-13.3-10.7-24-24-24s-24 10.7-24 24l0 334.2-80-80 0-158.2c0-13.3-10.7-24-24-24s-24 10.7-24 24l0 110.2-287-287zM328 456c0 13.3 10.7 24 24 24s24-10.7 24-24l0-10.2-48-48 0 58.2zM248 317.8l-46.4-46.4c-1 2.7-1.6 5.6-1.6 8.6l0 176c0 13.3 10.7 24 24 24s24-10.7 24-24l0-138.2zM120 408c0-13.3-10.7-24-24-24s-24 10.7-24 24l0 48c0 13.3 10.7 24 24 24s24-10.7 24-24l0-48z"/></svg>