<svg xmlns="http://www.w3.org/2000/svg" viewBox="0 0 448 512"><path fill="currentColor" d="M400 384l0-293.5c0-4.2-1.7-8.3-4.7-11.3L336.8 20.7c-3-3-7.1-4.7-11.3-4.7L160 16c-8.8 0-16 7.2-16 16l0 352c0 8.8 7.2 16 16 16l224 0c8.8 0 16-7.2 16-16zm-16 64l-224 0c-35.3 0-64-28.7-64-64L96 32c0-35.3 28.7-64 64-64l165.5 0c17 0 33.3 6.7 45.3 18.7l58.5 58.5c12 12 18.7 28.3 18.7 45.3L448 384c0 35.3-28.7 64-64 64zM24 160c13.3 0 24 10.7 24 24l0 296c0 8.8 7.2 16 16 16l264 0c13.3 0 24 10.7 24 24s-10.7 24-24 24L64 544c-35.3 0-64-28.7-64-64L0 184c0-13.3 10.7-24 24-24zM304 272l0-48 16 0c17.7 0 32 14.3 32 32l0 16-48 0zm48 48c0 17.7-14.3 32-32 32l-48 0 0-48 80 0 0 16zM224 352c-17.7 0-32-14.3-32-32l0-16 48 0 0 48-16 0zm-32-96c0-17.7 14.3-32 32-32l48 0 0 48-80 0 0-16z"/></svg>