<svg xmlns="http://www.w3.org/2000/svg" viewBox="0 0 384 512"><path fill="currentColor" d="M336 125.3L336 448c0 8.8-7.2 16-16 16L64 464c-8.8 0-16-7.2-16-16L48 64c0-8.8 7.2-16 16-16l194.7 0c4.2 0 8.3 1.7 11.3 4.7l61.3 61.3c3 3 4.7 7.1 4.7 11.3zM64 0C28.7 0 0 28.7 0 64L0 448c0 35.3 28.7 64 64 64l256 0c35.3 0 64-28.7 64-64l0-322.7c0-17-6.7-33.3-18.7-45.3L304 18.7C292 6.7 275.7 0 258.7 0L64 0zm64 240c-17.7 0-32 14.3-32 32l0 40 88 0 0-72-56 0zM96 384c0 17.7 14.3 32 32 32l24 0 0-56-56 0 0 24zm160 32c17.7 0 32-14.3 32-32l0-24-88 0 0 56 56 0zM232 312l56 0 0-40c0-17.7-14.3-32-32-32l-24 0 0 72z"/></svg>