<svg xmlns="http://www.w3.org/2000/svg" viewBox="0 0 640 512"><path fill="currentColor" d="M69.3 36c-11-7.4-25.9-4.4-33.3 6.7S31.7 68.6 42.7 76l48 32c11 7.4 25.9 4.4 33.3-6.7s4.4-25.9-6.7-33.3l-48-32zM597.3 76c11-7.4 14-22.3 6.7-33.3s-22.3-14-33.3-6.7l-48 32c-11 7.4-14 22.3-6.7 33.3s22.3 14 33.3 6.7l48-32zM24 192c-13.3 0-24 10.7-24 24s10.7 24 24 24l64 0c13.3 0 24-10.7 24-24s-10.7-24-24-24l-64 0zm528 0c-13.3 0-24 10.7-24 24s10.7 24 24 24l64 0c13.3 0 24-10.7 24-24s-10.7-24-24-24l-64 0zM185.2 320L216 93.8c1.1-7.9 7.9-13.8 15.9-13.8l176.3 0c8 0 14.8 5.9 15.9 13.8l30.8 226.2-163.1 0 12.2-133.8c1.2-13.2-8.5-24.9-21.7-26.1s-24.9 8.5-26.1 21.7l-12.6 138.2-58.4 0zm318.2 .6L471.5 87.4C467.2 55.6 440.1 32 408.1 32L231.9 32c-32 0-59.1 23.6-63.4 55.4L136.7 320.6C113.6 324.1 96 344 96 368l0 64c0 26.5 21.5 48 48 48l352 0c26.5 0 48-21.5 48-48l0-64c0-24-17.6-43.9-40.6-47.4zM144 368l352 0 0 64-352 0 0-64z"/></svg>