<svg xmlns="http://www.w3.org/2000/svg" viewBox="0 0 448 512"><path fill="currentColor" d="M147.5 320l12.6-138.2c1.2-13.2 12.9-22.9 26.1-21.7s22.9 12.9 21.7 26.1L195.7 320 358.8 320 328 93.8c-1.1-7.9-7.8-13.8-15.9-13.8L135.9 80c-8 0-14.8 5.9-15.9 13.8L89.2 320 147.5 320zm228-232.6l31.8 233.2c23 3.5 40.6 23.4 40.6 47.4l0 64c0 26.5-21.5 48-48 48L48 480c-26.5 0-48-21.5-48-48l0-64c0-24 17.6-43.9 40.7-47.4L72.5 87.4C76.8 55.6 103.9 32 135.9 32l176.3 0c32 0 59.1 23.6 63.4 55.4zM400 368l-352 0 0 64 352 0 0-64z"/></svg>