<svg xmlns="http://www.w3.org/2000/svg" viewBox="0 0 640 512"><path fill="currentColor" d="M344 24c0-13.3-10.7-24-24-24s-24 10.7-24 24l0 40-42 0c-32.1 0-62.3 17.5-76.7 47.4-14.1 29.2-34.2 74.3-50.9 124.3-16.6 49.6-30.3 105.7-30.3 156.3l0 11.7c0 42.1 34.2 76.3 76.3 76.3 11.2 0 22.3-2.5 32.5-7.3l70.9-33.4c6.6-3.1 13.4-5.4 20.3-7.1l0 55.7c0 13.3 10.7 24 24 24s24-10.7 24-24l0-55.7c6.9 1.6 13.7 4 20.3 7.1l70.9 33.4c10.2 4.8 21.3 7.3 32.5 7.3 42.1 0 76.3-34.2 76.3-76.3l0-11.7c0-50.6-13.8-106.7-30.3-156.3-16.7-50-36.9-95.1-50.9-124.3-14.4-29.9-44.6-47.4-76.7-47.4l-42 0 0-40zm-48 88l0 60.3-102.4 20.5c9.7-23.7 19.3-44.6 27-60.6 5.9-12.3 18.7-20.2 33.5-20.2l42 0zM173.6 245.8l122.4-24.5 0 56.7-143.3 41.8c4.9-22.8 11.6-46.1 19.2-68.9 .6-1.7 1.2-3.5 1.8-5.2zM144.8 372.1L296 328 296 383.4c-14 2.2-27.7 6.4-40.7 12.6l-70.9 33.4c-3.8 1.8-7.9 2.7-12.1 2.7-15.6 0-28.3-12.7-28.3-28.3l0-11.7c0-6.5 .3-13.1 .8-19.9zM344 383.4l0-55.4 151.2 44.1c.5 6.8 .8 13.4 .8 19.9l0 11.7c0 15.6-12.7 28.3-28.3 28.3-4.2 0-8.3-.9-12.1-2.7l-70.9-33.4c-13.1-6.1-26.8-10.3-40.7-12.6zm143.3-63.6L344 278 344 221.3 466.4 245.8c.6 1.7 1.2 3.5 1.8 5.2 7.6 22.7 14.3 46 19.2 68.9zm-40.9-127l-102.4-20.5 0-60.3 42 0c14.8 0 27.5 7.9 33.5 20.2 7.7 16 17.3 36.9 27 60.6zM0 128L0 488c0 13.3 10.7 24 24 24s24-10.7 24-24l0-256c0-6.5 3.4-12.4 8.9-15.8L94 194c21.1-12.6 34-35.4 34-60l0-6c0-35.3-28.7-64-64-64S0 92.7 0 128zM576 64c-35.3 0-64 28.7-64 64l0 6c0 24.6 12.9 47.4 34 60l37.1 22.3c5.5 3.3 8.9 9.3 8.9 15.8l0 256c0 13.3 10.7 24 24 24s24-10.7 24-24l0-360c0-35.3-28.7-64-64-64z"/></svg>