<svg xmlns="http://www.w3.org/2000/svg" viewBox="0 0 512 512"><path fill="currentColor" d="M344.4 19.5c2.5-13 15-21.6 28-19.2 13 2.4 21.6 15 19.2 28l-45 240.2 93.3 60.3c25.1 16.2 40.2 44 40.2 73.9l0 61.2 8 0c13.2 0 24 10.7 24 24 0 13.3-10.7 24-24 24L24 512c-13.2 0-24-10.7-24-24l0-28.3c0-9.2 .8-18.4 2.5-27.5l69.9-380.5 1.1-4.1C77 38.3 85.9 32 96 32l246.1 0 2.3-12.4zM243.7 80C207.5 223.1 129.9 281.6 74.7 304.9L49.7 440.9c-1.1 6.2-1.7 12.5-1.7 18.8l0 4.3 384 0 0-61.2c0-13.6-6.9-26.2-18.3-33.6L312.9 304 248 304c-13.2 0-24-10.7-24-24s10.8-24 24-24l52.1 0 9-48-29.1 0c-13.3 0-24-10.7-24-24s10.8-24 24-24l38.1 0 15-80-89.3 0zM85.7 244.9c37.8-24.7 82.4-72.3 108.4-164.9L116 80 85.7 244.9z"/></svg>