<svg xmlns="http://www.w3.org/2000/svg" viewBox="0 0 640 512"><path fill="currentColor" d="M616 392c13.3 0 24 10.7 24 24l0 8c0 48.6-39.4 88-88 88L24 512c-13.3 0-24-10.7-24-24s10.7-24 24-24l528 0c22.1 0 40-17.9 40-40l0-8c0-13.3 10.7-24 24-24zM384.4 19.5c2.5-13 15.1-21.5 28.1-19s21.5 15.1 19 28.1l-36.5 189.6 56.9 26.6 6.7 3.4c32.7 18.3 53.3 52.9 53.3 90.8l0 5.1c0 39.8-32.2 72-72 72l-260.6 0c-45.8 0-80-42.3-70.4-87.1l51.4-240 1.6-6.1c9.2-30 37-50.8 68.8-50.8l151.2 0 2.4-12.5zM298.8 80c-26.3 101.8-81.8 144-121.8 160.9l-21 98c-3.2 14.9 8.2 29 23.5 29L440 368c13.3 0 24-10.7 24-24l0-5.1c0-20.4-11.1-39-28.7-48.9l-3.6-1.9-69.3-32.3c-.8 .1-1.6 .1-2.4 .1l-48 0c-13.3 0-24-10.7-24-24s10.7-24 24-24l36.2 0 9.2-48-29.4 0c-13.3 0-24-10.7-24-24s10.7-24 24-24l38.7 0 6.2-32-74.1 0zm-67.9 0c-11.3 0-21.1 7.9-23.5 19l-19.3 89.9c24.6-18 52.2-50.4 69.3-108.9l-26.5 0z"/></svg>