<svg xmlns="http://www.w3.org/2000/svg" viewBox="0 0 512 512"><path fill="currentColor" d="M368 427.4c0-15.1 7.1-29.3 19.2-38.4 47.6-35.8 76.8-89.6 76.8-149 0-103.2-90.2-192-208-192S48 136.8 48 240c0 59.4 29.3 113.2 76.8 149 12.1 9.1 19.2 23.3 19.2 38.4l0 36.6 40 0 0-24c0-13.3 10.7-24 24-24s24 10.7 24 24l0 24 48 0 0-24c0-13.3 10.7-24 24-24s24 10.7 24 24l0 24 40 0 0-36.6zm48 0l0 36.6c0 26.5-21.5 48-48 48l-224 0c-26.5 0-48-21.5-48-48l0-36.6C37.5 383.4 0 315.8 0 240 0 107.5 114.6 0 256 0S512 107.5 512 240c0 75.8-37.5 143.4-96 187.4zM112 256a56 56 0 1 1 112 0 56 56 0 1 1 -112 0zm232-56a56 56 0 1 1 0 112 56 56 0 1 1 0-112z"/></svg>