<svg xmlns="http://www.w3.org/2000/svg" viewBox="0 0 640 512"><path fill="currentColor" d="M56 32C42.7 32 32 42.7 32 56S42.7 80 56 80l8 0 0 176c0 41.8 26.7 77.4 64 90.5l0 69.5-72 0c-13.3 0-24 10.7-24 24s10.7 24 24 24l504 0c44.2 0 80-35.8 80-80l0-8c0-13.3-10.7-24-24-24s-24 10.7-24 24l0 8c0 17.7-14.3 32-32 32l-80 0 0-64c53 0 96-43 96-96l0-112 8 0c13.3 0 24-10.7 24-24s-10.7-24-24-24l-32 0c-13.3 0-24 10.7-24 24 0 1.3 .1 2.5 .3 3.7-.2 1.4-.3 2.8-.3 4.3 0 35.3-28.7 64-64 64l-71.5 0c-45 0-86.6-23.6-109.8-62.1L261.3 94.1C238.2 55.6 196.5 32 151.5 32L56 32zM432 416l-256 0 0-64 256 0 0 64zm96-196.1l0 36.1c0 26.5-21.5 48-48 48l-320 0c-26.5 0-48-21.5-48-48l0-176 39.5 0c28.1 0 54.1 14.7 68.6 38.8l21.4 35.7c31.8 53 89.1 85.4 150.9 85.4l71.5 0c23.8 0 45.9-7.4 64-20.1z"/></svg>