<svg xmlns="http://www.w3.org/2000/svg" viewBox="0 0 512 512"><path fill="currentColor" d="M440 24c0-13.3-10.7-24-24-24s-24 10.7-24 24l0 91.7c-32.5 10.2-56 40.5-56 76.3s23.5 66.1 56 76.3L392 488c0 13.3 10.7 24 24 24s24-10.7 24-24l0-219.7c32.5-10.2 56-40.5 56-76.3s-23.5-66.1-56-76.3L440 24zM280 24c0-13.3-10.7-24-24-24s-24 10.7-24 24l0 251.7c-32.5 10.2-56 40.5-56 76.3s23.5 66.1 56 76.3l0 59.7c0 13.3 10.7 24 24 24s24-10.7 24-24l0-59.7c32.5-10.2 56-40.5 56-76.3s-23.5-66.1-56-76.3L280 24zM120 24c0-13.3-10.7-24-24-24S72 10.7 72 24l0 59.7C39.5 93.9 16 124.2 16 160s23.5 66.1 56 76.3L72 488c0 13.3 10.7 24 24 24s24-10.7 24-24l0-251.7c32.5-10.2 56-40.5 56-76.3s-23.5-66.1-56-76.3L120 24zM64 160a32 32 0 1 1 64 0 32 32 0 1 1 -64 0zM224 352a32 32 0 1 1 64 0 32 32 0 1 1 -64 0zM416 160a32 32 0 1 1 0 64 32 32 0 1 1 0-64z"/></svg>