<svg xmlns="http://www.w3.org/2000/svg" viewBox="0 0 640 512"><path fill="currentColor" d="M454.5 32.3C486.8 35.6 512 62.9 512 96l0 320-.3 6.5c-.3 3.2-1 6.4-1.8 9.5l18.1 0c22.1 0 40-17.9 40-40l0-206.5c-14.3-8.3-24-23.8-24-41.5 0-26.5 21.5-48 48-48s48 21.5 48 48c0 17.8-9.7 33.2-24 41.5L616 392c0 48.6-39.4 88-88 88l-432 0-6.5-.3c-30.1-3.1-54.1-27-57.1-57.1L32 416 32 96c0-33.1 25.2-60.4 57.5-63.7l6.5-.3 352 0 6.5 .3zM96 80c-8.8 0-16 7.2-16 16l0 320c0 8.8 7.2 16 16 16l352 0c8.8 0 16-7.2 16-16l0-320c0-7.7-5.5-14.2-12.8-15.7L448 80 96 80zm88 80c7.3 0 14.2 3.3 18.7 9s6.3 13.1 4.7 20.3l-32 144c-2.9 12.9-15.7 21.1-28.7 18.2s-21.1-15.7-18.2-28.7L154.1 208 136 208c-13.3 0-24-10.7-24-24s10.7-24 24-24l48 0zm112 0c7.3 0 14.2 3.3 18.7 9s6.3 13.1 4.7 20.3l-32 144c-2.9 12.9-15.7 21.1-28.7 18.2s-21.1-15.7-18.2-28.7L266.1 208 248 208c-13.3 0-24-10.7-24-24s10.7-24 24-24l48 0zm112 0c7.3 0 14.2 3.3 18.7 9s6.3 13.1 4.7 20.3l-32 144c-2.9 12.9-15.7 21.1-28.7 18.2s-21.1-15.7-18.2-28.7L378.1 208 360 208c-13.3 0-24-10.7-24-24s10.7-24 24-24l48 0z"/></svg>