<svg xmlns="http://www.w3.org/2000/svg" viewBox="0 0 576 512"><path fill="currentColor" d="M32 144C32 64.5 96.5 0 176 0 203.2 0 228.6 7.5 250.3 20.6 270.4 7.6 294.3 0 320 0 367.4 0 408.8 25.8 430.9 64l1.1 0c61.9 0 112 50.1 112 112 0 60.3-47.6 109.4-107.2 111.9-22.6 20-52.3 32.1-84.8 32.1-32.5 0-62.1-12.1-84.7-32L176 288C96.5 288 32 223.5 32 144zM176 48c-53 0-96 43-96 96s43 96 96 96l101 0c6.5 0 12.8 2.7 17.3 7.4 14.6 15.2 35 24.6 57.7 24.6s43.1-9.4 57.7-24.6c4.5-4.7 10.8-7.4 17.3-7.4l5 0c35.3 0 64-28.7 64-64s-28.7-64-64-64c-3.9 0-7.6 .3-11.2 1-11.2 2-22.2-4.2-26.5-14.7-11.8-29.5-40.7-50.3-74.3-50.3-20.4 0-39 7.6-53.1 20.2-8.7 7.8-21.8 8.1-30.9 .8-16.4-13.1-37.2-21-59.9-21zM512 392c0 13.3-10.7 24-24 24L24 416c-13.3 0-24-10.7-24-24s10.7-24 24-24l464 0c13.3 0 24 10.7 24 24zM88 464l80 0c13.3 0 24 10.7 24 24s-10.7 24-24 24l-80 0c-13.3 0-24-10.7-24-24s10.7-24 24-24zm176 0l288 0c13.3 0 24 10.7 24 24s-10.7 24-24 24l-288 0c-13.3 0-24-10.7-24-24s10.7-24 24-24z"/></svg>