<svg xmlns="http://www.w3.org/2000/svg" viewBox="0 0 576 512"><path fill="currentColor" d="M48 128c0 32.4 19.3 60.3 47 72.9-3.3 7.4-6.1 15.2-8.3 23.1-8.6 3.9-16.8 8.6-24.6 13.8-37.2-22.4-62.1-63.2-62.1-109.7 0-70.7 57.3-128 128-128 40.1 0 75.9 18.5 99.3 47.3 18.1-9.7 38.7-15.3 60.7-15.3 38.5 0 73 17 96.4 43.8-15.7 6.1-30.2 14.3-43.3 24.3-14.1-12.5-32.7-20.2-53.1-20.2-18.5 0-35.5 6.3-49.1 16.8-10 1-19.7 2.8-29.1 5.3-4.5-2.3-8.2-5.9-10.5-10.5-13.3-26-40.2-43.7-71.3-43.7-44.2 0-80 35.8-80 80zm400 32c-38 0-69.9 26.6-78 62.2-20.1-9.1-42.4-14.2-66-14.2-13.4-10.1-30-16-48-16-20.8 0-39.8 8-54.1 21-13.4-3.3-27.5-5-41.9-5-5.1 0-10.2 .2-15.3 .7 22-38.6 63.6-64.7 111.3-64.7 31.4 0 60.1 11.3 82.3 30 22.4-37.1 63.1-62 109.7-62 70.7 0 128 57.3 128 128 0 37.3-16 70.9-41.4 94.3-9.2-13.3-20.5-24.9-33.5-34.4 16.5-14.7 26.9-36 26.9-59.8 0-44.2-35.8-80-80-80zM32 384c0-70.7 57.3-128 128-128 27.9 0 53.7 8.9 74.7 24 19.1-15 43.1-24 69.3-24 44.9 0 83.6 26.4 101.5 64.6 3.5-.4 7-.6 10.5-.6 53 0 96 43 96 96s-43 96-96 96l-256 0C89.3 512 32 454.7 32 384zm128-80c-44.2 0-80 35.8-80 80s35.8 80 80 80l256 0c26.5 0 48-21.5 48-48s-21.5-48-48-48c-6.2 0-12 1.2-17.4 3.2-6.5 2.5-13.8 2.1-20-1.2s-10.6-9.1-12.1-16c-6.4-28.6-31.9-50.1-62.5-50.1-20.1 0-38 9.2-49.7 23.7-4.4 5.4-10.8 8.6-17.7 8.9s-13.6-2.5-18.4-7.5C203.6 313.6 182.9 304 160 304z"/></svg>