<svg xmlns="http://www.w3.org/2000/svg" viewBox="0 0 640 512"><path fill="currentColor" d="M216 432c13.3 0 24 10.7 24 24s-10.7 24-24 24L56 480c-13.3 0-24-10.7-24-24s10.7-24 24-24l160 0zM226.9 32C243 32 256 45 256 61.1l0 21.7c0 23.4 17.8 42.7 40.6 45l4.6 .2c10.5 0 20.6-3.7 28.7-10.2l3.3-3 37.7-37.7c8.3-8.3 19.6-13 31.4-13 17.9 0 34.1 10.8 41 27.3L512 256c70.7 0 128 57.3 128 128l0 37.8c0 32.1-26.1 58.2-58.2 58.2l-130.8 0-8.6-.3c-19.9-1.3-39.3-7.3-56.6-17.5L114.4 301.8c-26.1-15.4-35.7-47.9-23.1-74.7l2.8-5.3 105.4-175.7c5.3-8.8 14.7-14.1 24.9-14.1l2.4 0zM135.3 246.5c-2.9 4.8-1.3 11.1 3.6 14L410.3 420.9c12.3 7.3 26.4 11.1 40.7 11.1l130.8 0 2.1-.2c4-.8 7.1-4 7.9-7.9l.2-2.1 0-22.9-126.7 0c-14 0-27.8-3.7-40-10.7l-278.6-160.8-11.5 19.2zM104 352c13.3 0 24 10.7 24 24s-10.7 24-24 24l-48 0c-13.3 0-24-10.7-24-24s10.7-24 24-24l48 0zM367.2 148.7c-15.3 15.3-35.4 24.8-56.7 26.9l-9.2 .4c-40 0-74.1-25.3-87.3-60.7l-42.5 70.8 277.9 160.4c4.9 2.8 10.4 4.3 16 4.3l119.4 0C572.1 323.2 544.3 304 512 304l-72 0c-13.3 0-24-10.7-24-24s10.7-24 24-24l20 0-13.3-32-38.7 0c-13.3 0-24-10.7-24-24s10.7-24 24-24l18.7 0-25.6-61.3-33.9 34z"/></svg>