<svg xmlns="http://www.w3.org/2000/svg" viewBox="0 0 640 512"><path fill="currentColor" d="M480-32c13.3 0 24 10.7 24 24l0 32 32 0c13.3 0 24 10.7 24 24s-10.7 24-24 24l-32 0 0 32c0 13.3-10.7 24-24 24s-24-10.7-24-24l0-32-32 0c-13.3 0-24-10.7-24-24s10.7-24 24-24l32 0 0-32c0-13.3 10.7-24 24-24zM224 64c13.3 0 24 10.7 24 24l0 51.7 17.9-17.9c7.8-7.8 20.5-7.8 28.3 0s7.8 20.5 0 28.3l-46.1 46.1 0 50.1 43.4-25.1 16.9-63c2.9-10.7 13.8-17 24.5-14.1s17 13.8 14.1 24.5l-6.5 24.4 44.8-25.9c11.5-6.6 26.2-2.7 32.8 8.8s2.7 26.2-8.8 32.8l-44.8 25.9 24.4 6.5c10.7 2.9 17 13.8 14.1 24.5s-13.8 17-24.5 14.1l-63-16.9-43.4 25.1 43.4 25.1 63-16.9c10.7-2.9 21.6 3.5 24.5 14.1s-3.5 21.6-14.1 24.5l-24.4 6.5 44.8 25.9c11.5 6.6 15.4 21.3 8.8 32.8s-21.3 15.4-32.8 8.8l-44.8-25.9 6.5 24.4c2.9 10.7-3.5 21.6-14.1 24.5s-21.6-3.5-24.5-14.1l-16.9-63-43.4-25.1 0 50.1 46.1 46.1c7.8 7.8 7.8 20.5 0 28.3s-20.5 7.8-28.3 0L248 436.3 248 488c0 13.3-10.7 24-24 24s-24-10.7-24-24l0-51.7-17.9 17.9c-7.8 7.8-20.5 7.8-28.3 0s-7.8-20.5 0-28.3l46.1-46.1 0-50.1-43.4 25.1-16.9 63c-2.9 10.7-13.8 17-24.5 14.1s-17-13.8-14.1-24.5l6.5-24.4-44.8 25.9c-11.5 6.6-26.2 2.7-32.8-8.8s-2.7-26.2 8.8-32.8l44.8-25.9-24.4-6.5c-10.7-2.9-17-13.8-14.1-24.5s13.8-17 24.5-14.1l63 16.9 43.4-25.1-43.4-25.1-63 16.9c-10.7 2.9-21.6-3.5-24.5-14.1s3.5-21.6 14.1-24.5l24.4-6.5-44.8-25.9C27.3 202.2 23.4 187.5 30 176s21.3-15.4 32.8-8.8l44.8 25.9-6.5-24.4c-2.9-10.7 3.5-21.6 14.1-24.5s21.6 3.5 24.5 14.1l16.9 63 43.4 25.1 0-50.2-46.1-46.1c-7.8-7.8-7.8-20.5 0-28.3s20.5-7.8 28.3 0L200 139.7 200 88c0-13.3 10.7-24 24-24zm360 96l0 32 32 0c13.3 0 24 10.7 24 24s-10.7 24-24 24l-32 0 0 32c0 13.3-10.7 24-24 24s-24-10.7-24-24l0-32-32 0c-13.3 0-24-10.7-24-24s10.7-24 24-24l32 0 0-32c0-13.3 10.7-24 24-24s24 10.7 24 24z"/></svg>