<svg xmlns="http://www.w3.org/2000/svg" viewBox="0 0 576 512"><path fill="currentColor" d="M256-32c13.3 0 24 10.7 24 24l0 78.1 23-23c9.4-9.4 24.6-9.4 33.9 0 2.7 2.7 4.6 5.9 5.8 9.2l-18.1 37-44.6 44.6 0 76.5 30-17.3c5.3 15.5 13.9 29.4 25.1 41l-31 17.9 66.2 38.2 77.8-20.9c3.3-.9 6.7-1 9.9-.5-10.9 21.1-21.2 42.5-31.4 64-5.1 10.6-10.2 21.2-15.3 31.7-7.4 15.1-11.2 31.8-11.2 48.6 0 4 .2 8 .6 11.9-1.3 .6-2.7 1.1-4.1 1.5-12.8 3.4-26-4.2-29.4-17l-20.9-77.8-66.2-38.2 0 76.5 57 57c9.4 9.4 9.4 24.6 0 33.9s-24.6 9.4-33.9 0l-23-23 0 78.1c0 13.3-10.7 24-24 24s-24-10.7-24-24l0-78.1-23 23c-9.4 9.4-24.6 9.4-33.9 0s-9.4-24.6 0-33.9l57-57 0-76.5-66.2 38.2-20.9 77.8c-3.4 12.8-16.6 20.4-29.4 17s-20.4-16.6-17-29.4l8.4-31.5-67.6 39c-11.5 6.6-26.2 2.7-32.8-8.8s-2.7-26.2 8.8-32.8l67.6-39-31.5-8.4c-12.8-3.4-20.4-16.6-17-29.4s16.6-20.4 29.4-17l77.8 20.9 66.2-38.2-66.2-38.2-77.8 20.9c-12.8 3.4-26-4.2-29.4-17s4.2-26 17-29.4l31.5-8.4-67.6-39C3.9 138.2 0 123.5 6.6 112s21.3-15.4 32.8-8.8l67.6 39-8.4-31.5c-3.4-12.8 4.2-26 17-29.4s26 4.2 29.4 17l20.9 77.8 66.2 38.2 0-76.5-57-57c-9.4-9.4-9.4-24.6 0-33.9s24.6-9.4 33.9 0l23 23 0-78.1c0-13.3 10.7-24 24-24zM473.6 133.6c4.2 8.6 6.4 18 6.4 27.6 0 34.7-28.1 62.8-62.8 62.8l-2.4 0c-34.7 0-62.8-28.1-62.8-62.8 0-9.6 2.2-19 6.4-27.6l46.1-94.4c2.1-4.4 6.6-7.2 11.5-7.2s9.4 2.8 11.5 7.2l46.1 94.4zm49.9 161.6l46.1 94.4c4.2 8.6 6.4 18 6.4 27.6 0 34.7-28.1 62.8-62.8 62.8l-2.4 0c-34.7 0-62.8-28.1-62.8-62.8 0-9.6 2.2-19 6.4-27.6l46.1-94.4c2.1-4.4 6.6-7.2 11.5-7.2s9.4 2.8 11.5 7.2z"/></svg>