<svg xmlns="http://www.w3.org/2000/svg" viewBox="0 0 640 512"><path fill="currentColor" d="M320 16c-61.9 0-112 50.1-112 112 0 32.1 13.4 60.9 35.1 81.4 5.4 5.1 8.1 12.4 7.4 19.8s-4.8 14-11.1 18c-42.9 26.9-71.3 74.6-71.3 128.8 0 48.8 22.9 92.2 58.7 120l186.6 0c35.8-27.8 58.7-71.2 58.7-120 0-54.3-28.4-101.9-71.3-128.8-6.3-3.9-10.4-10.6-11.1-18s2-14.7 7.4-19.8c21.6-20.4 35.1-49.3 35.1-81.4 0-61.9-50.1-112-112-112zM160 128c0-88.4 71.6-160 160-160S480 39.6 480 128c0 35.6-11.6 68.4-31.2 95 18.4 15.5 34 34.3 45.9 55.5l33.4-14.3 0-40.2c0-13.3 10.7-24 24-24s24 10.7 24 24l0 19.6 22.5-9.7c12.2-5.2 26.3 .4 31.5 12.6s-.4 26.3-12.6 31.5L512.9 322.9c4.6 16.9 7.1 34.7 7.1 53.1 0 67.7-33.6 127.5-85 163.6-4 2.8-8.9 4.4-13.8 4.4l-202.4 0c-4.9 0-9.8-1.5-13.8-4.4-51.3-36.2-85-96-85-163.6 0-18.4 2.5-36.2 7.1-53.1-31.2-13.4-66-28.3-104.6-44.8-12.2-5.2-17.8-19.3-12.6-31.5s19.3-17.8 31.5-12.6L64 243.6 64 224c0-13.3 10.7-24 24-24s24 10.7 24 24l0 40.2 33.4 14.3c11.9-21.2 27.4-40 45.9-55.5-19.6-26.6-31.2-59.4-31.2-95zM296 416a24 24 0 1 1 48 0 24 24 0 1 1 -48 0zm24-120a24 24 0 1 1 0 48 24 24 0 1 1 0-48zM248 96a24 24 0 1 1 48 0 24 24 0 1 1 -48 0zM368 72a24 24 0 1 1 0 48 24 24 0 1 1 0-48zM292.2 175.3c-2.7-4.8-4.2-10.2-4.2-15.7 0-17.5 14.2-31.6 31.6-31.6l.8 0c17.5 0 31.6 14.2 31.6 31.6 0 5.5-1.4 10.9-4.2 15.7L327 211.8c-3.1 5.4-10.8 5.4-13.9 0l-20.9-36.6z"/></svg>