<svg xmlns="http://www.w3.org/2000/svg" viewBox="0 0 640 512"><path fill="currentColor" d="M128 80l0 48c-35.3 0-64 28.7-64 64l0 129.6c-19.8 20.2-32 47.9-32 78.4 0 61.9 50.1 112 112 112l224 0c61.9 0 112-50.1 112-112 0-20.4-5.5-39.5-15-56l63 0 0 80c0 48.6 39.4 88 88 88 13.3 0 24-10.7 24-24s-10.7-24-24-24c-22.1 0-40-17.9-40-40l0-208c0-22.1 17.9-40 40-40 13.3 0 24-10.7 24-24s-10.7-24-24-24c-48.6 0-88 39.4-88 88l0 80-80 0 0-56.9c0-9.9-2.3-19.7-6.8-28.6L353.7 35.4C342.8 13.7 320.7 0 296.4 0L192 0c-35.3 0-64 28.7-64 64l0 16zM400 240l0 52.6c-10.1-3-20.9-4.6-32-4.6l-224 0c-11.1 0-21.9 1.6-32 4.6L112 192c0-8.8 7.2-16 16-16l24.7 0 90 60c3.9 2.6 8.6 4 13.3 4l144 0zM176 133.8L176 64c0-8.8 7.2-16 16-16l104.4 0c6.1 0 11.6 3.4 14.3 8.8l67.6 135.2-115.1 0-87.3-58.2zM80 400c0-35.3 28.7-64 64-64l224 0c35.3 0 64 28.7 64 64s-28.7 64-64 64l-224 0c-35.3 0-64-28.7-64-64zm104 0a24 24 0 1 0 -48 0 24 24 0 1 0 48 0zm168 24a24 24 0 1 0 0-48 24 24 0 1 0 0 48zm-72-24a24 24 0 1 0 -48 0 24 24 0 1 0 48 0z"/></svg>