<svg xmlns="http://www.w3.org/2000/svg" viewBox="0 0 512 512"><path fill="currentColor" d="M208 64a48 48 0 1 0 0-96 48 48 0 1 0 0 96zm-15 96l-97 0c-53 0-96 43-96 96L0 384c0 53 43 96 96 96l320 0c53 0 96-43 96-96l0-128c0-42.4-27.5-78.4-65.7-91.1-2.7 16.3-8.4 31.5-16.6 45.1 19.8 5.9 34.3 24.3 34.3 46l0 128c0 26.5-21.5 48-48 48L96 432c-26.5 0-48-21.5-48-48l0-128c0-26.5 21.5-48 48-48l113.1 0c-8.4-14.5-14-30.7-16.1-48zM368 320c0 8.8-7.2 16-16 16l-192 0c-8.8 0-16-7.2-16-16s7.2-16 16-16l192 0c8.8 0 16 7.2 16 16zM160 256c-35.3 0-64 28.7-64 64s28.7 64 64 64l192 0c35.3 0 64-28.7 64-64s-28.7-64-64-64l-192 0zM320 112a32 32 0 1 1 0 64 32 32 0 1 1 0-64zm0 112a80 80 0 1 0 0-160 80 80 0 1 0 0 160zM384 32a32 32 0 1 0 0-64 32 32 0 1 0 0 64z"/></svg>