<svg xmlns="http://www.w3.org/2000/svg" viewBox="0 0 576 512"><path fill="currentColor" d="M106.2 92.5c1.6-7.3 8.1-12.5 15.6-12.5l76.9 0-8.7 104-104.2 0 20.3-91.5zM75.2 232l110.9 0-8.7 104-105.4 0c-10.2 0-17.8-9.5-15.6-19.5L75.2 232zM225.6 336l8.7-104 107.8 0 8.7 104-125.2 0zm173.3 0l-8.7-104 110.9 0 18.8 84.5c2.2 10-5.4 19.5-15.6 19.5l-105.4 0zm91.5-152l-104.2 0-8.7-104 76.9 0c7.5 0 14 5.2 15.6 12.5L490.4 184zM329.4 80l8.7 104-99.8 0 8.7-104 82.5 0zM121.8 32c-30 0-56 20.8-62.5 50.1L9.6 306.1C.7 346.1 31.1 384 72 384l192.1 0 0 80-80 0c-13.3 0-24 10.7-24 24s10.7 24 24 24l208 0c13.3 0 24-10.7 24-24s-10.7-24-24-24l-80 0 0-80 192.1 0c40.9 0 71.4-37.9 62.5-77.9l-49.8-224C510.4 52.8 484.5 32 454.5 32L121.8 32z"/></svg>