<svg xmlns="http://www.w3.org/2000/svg" viewBox="0 0 512 512"><path fill="currentColor" d="M182.9 61.2c74-27.7 160.6-11.8 220.2 47.7 71.8 71.8 80.1 182.9 25.1 263.8-14.8-2.5-30.6 1.9-42.1 13.4-18.7 18.7-18.7 49.1 0 67.9s49.1 18.7 67.9 0c13.6-13.6 17.3-33.4 11.2-50.3 70.7-99.9 61.3-239.2-28.2-328.7-76-76-187.9-94.2-281.2-54.7 1.3 1.2 2.7 2.5 4 3.7 10.8 10.8 18.5 23.6 23.1 37.1zm-74 341.9c-71.8-71.8-80.1-182.9-25.1-263.8 14.8 2.5 30.6-1.9 42.1-13.4 18.7-18.7 18.7-49.1 0-67.9S76.8 39.3 58 58c-13.6 13.6-17.3 33.4-11.2 50.3-70.7 99.9-61.3 239.2 28.2 328.7 76 76 187.9 94.2 281.2 54.7-1.3-1.2-2.7-2.5-4-3.8-10.8-10.8-18.5-23.6-23.1-37.1-74 27.7-160.6 11.8-220.2-47.7zM144 256c0-61.9 50.1-112 112-112 20.5 0 39.7 5.5 56.2 15.1-.2 10.5 3.7 21 11.7 29s18.6 11.9 29 11.7c9.6 16.5 15.1 35.7 15.1 56.2 0 61.9-50.1 112-112 112S144 317.9 144 256zm246.9-86.1c3.4-13.3 0-28-10.4-38.4s-25.1-13.9-38.4-10.4C317.2 105.2 287.7 96 256 96 167.6 96 96 167.6 96 256s71.6 160 160 160 160-71.6 160-160c0-31.7-9.2-61.2-25.1-86.1zM256 240a16 16 0 1 1 0 32 16 16 0 1 1 0-32zm0 80a64 64 0 1 0 0-128 64 64 0 1 0 0 128z"/></svg>