<svg xmlns="http://www.w3.org/2000/svg" viewBox="0 0 512 512"><path fill="currentColor" d="M233 385l-88 88c-9.4 9.4-24.6 9.4-33.9 0L23 385c-9.4-9.4-9.4-24.6 0-33.9s24.6-9.4 33.9 0l47 47 0-342.1c0-13.3 10.7-24 24-24s24 10.7 24 24l0 342.1 47-47c9.4-9.4 24.6-9.4 33.9 0s9.4 24.6 0 33.9zM336 144l64 0 0-64-64 0 0 64zm-48 0l0-64c0-26.5 21.5-48 48-48l64 0c26.5 0 48 21.5 48 48l0 64c0 26.5-21.5 48-48 48l-64 0c-26.5 0-48-21.5-48-48zm48 288l128 0 0-128-128 0 0 128zm-48 0l0-128c0-26.5 21.5-48 48-48l128 0c26.5 0 48 21.5 48 48l0 128c0 26.5-21.5 48-48 48l-128 0c-26.5 0-48-21.5-48-48z"/></svg>