<svg xmlns="http://www.w3.org/2000/svg" viewBox="0 0 576 512"><path fill="currentColor" d="M301.9 37.2c-3.8-3.5-8.8-5.2-13.9-5.2s-10.1 1.7-13.9 5.2c-16.5 15.3-63.6 64-91.9 146.3 14.6 7.8 28.6 16.7 41.9 26.5 17.2-56 44.6-95.3 63.9-118 19.4 22.7 46.8 62 63.9 118 13.2-9.8 27.2-18.7 41.9-26.5-28.2-82.2-75.3-131-91.9-146.3zM192 469.1c22.9 6.7 47 10.5 72 10.9l48 0c25-.4 49.1-4.1 72-10.9 111-32.7 192-135.4 192-257 0-11.1-9-20.1-20.1-20.1-61.7 0-121.7 17.9-171.9 54.1-41.8 30-75.1 71-96 118.7-20.9-47.7-54.2-88.6-96-118.7-50.2-36.1-110.2-54.1-171.9-54.1-11.1 0-20.1 9-20.1 20.1 0 121.6 81 224.3 192 257zm0-50.5c-75.2-27.7-131.2-95.3-142.1-177.2 55.1 5.9 104.6 30.5 142.1 67.2 33.5 32.9 57.4 75.5 67.2 123.2-23.5-.9-46.1-5.5-67.2-13.3zm192 0c-21.1 7.7-43.6 12.4-67.2 13.3 9.7-47.8 33.7-90.4 67.2-123.2 37.5-36.8 87-61.3 142.1-67.2-10.9 81.9-66.8 149.5-142.1 177.2z"/></svg>