<svg xmlns="http://www.w3.org/2000/svg" viewBox="0 0 512 512"><path fill="currentColor" d="M256 48c-114.9 0-208 93.1-208 208 0 12.8 1.1 25.2 3.3 37.4 .5 .2 1 .4 1.5 .5 34.9 12.6 94.8 34.1 203.2 34.1s168.3-21.5 203.2-34.1l0 0c.5-.2 1-.4 1.5-.5 2.2-12.1 3.3-24.6 3.3-37.4 0-114.9-93.1-208-208-208zM441.3 350.7C402.1 362.7 343 376 256 376S109.9 362.7 70.7 350.7C105.2 417.9 175.2 464 256 464s150.8-46.1 185.3-113.3zM512 256a256 256 0 1 1 -512 0 256 256 0 1 1 512 0zM208 224a48 48 0 1 0 0-96 48 48 0 1 0 0 96zm0-144a96 96 0 1 1 0 192 96 96 0 1 1 0-192z"/></svg>