<svg xmlns="http://www.w3.org/2000/svg" viewBox="0 0 512 512"><path fill="currentColor" d="M254.6 48.8c.5-.5 1.2-.8 1.9-.8s1.4 .3 1.9 .8L441.1 231.4c31.2 31.2 31.2 81.9 0 113.1s-81.9 31.2-113.1 0l-54.5-54.5c-9.4-9.4-24.6-9.4-33.9 0l-54.5 54.5c-31.2 31.2-81.9 31.2-113.1 0s-31.2-81.9 0-113.1L254.6 48.8zM256.5 0C243 0 230.1 5.3 220.6 14.9L38 197.5c-50 50-50 131 0 181l0 0c50 50 131 50 181 0l13.5-13.5 0 99-48 0c-13.3 0-24 10.7-24 24s10.7 24 24 24l144 0c13.3 0 24-10.7 24-24s-10.7-24-24-24l-48 0 0-99 13.5 13.5c50 50 131 50 181 0s50-131 0-181L292.4 14.9C282.9 5.3 270 0 256.5 0z"/></svg>