<svg xmlns="http://www.w3.org/2000/svg" viewBox="0 0 640 512"><path fill="currentColor" d="M192 48a16 16 0 1 1 0 32 16 16 0 1 1 0-32zm48 58.3c10-11.3 16-26.1 16-42.3 0-35.3-28.7-64-64-64s-64 28.7-64 64 28.7 64 64 64c1.7 0 3.4-.1 5.1-.2L212.2 158c-21.1 13.6-37.7 30.2-51.4 46.4-7.1 8.3-13.5 16.6-19.3 24l-1.4 1.8c-6.3 8.1-11.6 14.8-16.7 20.4-10.7 11.7-16.1 13.4-19.4 13.4-2.5 0-4.3-.6-7.1-3.3-3.7-3.5-7.1-8.8-12.5-17.4l-.6-.9c-4.6-7.4-11-17.6-19.4-25.7-9.7-9.3-22.9-16.7-40.4-16.7-13.3 0-24 10.7-24 24s10.7 24 24 24c2.5 0 4.3 .6 7.1 3.3 3.7 3.5 7.1 8.8 12.5 17.4l.6 .9c4.6 7.4 11 17.6 19.4 25.7 9.7 9.3 22.9 16.7 40.4 16.7 18.5 0 32.9-8.5 44.3-18.6 3.1 4 6.6 8.3 10.5 12.7-2.4 7.1-4.5 14.2-6.5 20.6L151 331c-3.4 11.2-6.4 20.3-9.8 27.8-3.5 7.5-6.6 11.5-9.4 13.8-2.3 1.8-5.5 3.4-11.7 3.4-8.7 0-16.9-4.2-33.7-13.2-15-8-35.7-18.8-62.3-18.8-13.3 0-24 10.7-24 24s10.7 24 24 24c13.4 0 24.7 5.2 39.7 13.2 1 .6 2.1 1.1 3.2 1.7l0 0c13.1 7.1 31.6 17.1 53.1 17.1 16.2 0 30.2-4.8 41.7-13.9 10.9-8.7 18-20.2 23-31.1 5-10.9 8.8-22.9 12.2-34l.8-2.7c16.4 12.2 36.1 23.6 58.9 31.3-5.6 16.6-13.8 37.5-24.6 55.5-14.9 24.8-28.9 34.8-40 34.8-13.3 0-24 10.7-24 24s10.7 24 24 24c39.1 0 65.6-32 81.2-58.2 14.5-24.2 24.6-51.4 30.7-70.4 5.2 .4 10.6 .6 16 .6s10.8-.2 16-.6c6.1 19 16.3 46.3 30.7 70.4 15.7 26.2 42.1 58.2 81.2 58.2 13.3 0 24-10.7 24-24s-10.7-24-24-24c-11.2 0-25.2-10-40-34.8-10.8-18-19-39-24.6-55.5 22.8-7.7 42.5-19 58.9-31.3l.8 2.7c3.4 11 7.2 23.1 12.2 34 5.1 10.9 12.1 22.4 23 31.1 11.5 9.1 25.5 13.9 41.7 13.9 21.4 0 39.9-10 53.1-17.1 1.1-.6 2.2-1.2 3.2-1.7 15-8 26.3-13.2 39.7-13.2 13.3 0 24-10.7 24-24s-10.7-24-24-24c-26.6 0-47.3 10.8-62.3 18.8-16.8 9-25 13.2-33.7 13.2-6.3 0-9.5-1.6-11.7-3.4-2.8-2.2-6-6.3-9.4-13.8-3.5-7.5-6.4-16.6-9.8-27.8l-1.3-4.2c-2-6.5-4.1-13.5-6.5-20.6 3.9-4.5 7.4-8.8 10.5-12.7 11.4 10.1 25.9 18.6 44.3 18.6 17.5 0 30.7-7.4 40.4-16.7 8.4-8.1 14.8-18.3 19.4-25.7l.6-.9c5.4-8.6 8.8-13.9 12.5-17.4 2.8-2.7 4.6-3.3 7.1-3.3 13.3 0 24-10.7 24-24s-10.7-24-24-24c-17.5 0-30.7 7.4-40.4 16.7-8.4 8.1-14.8 18.3-19.4 25.7l-.6 .9c-5.4 8.6-8.8 13.9-12.5 17.4-2.8 2.7-4.6 3.3-7.1 3.3-3.3 0-8.7-1.7-19.4-13.4-5.1-5.6-10.4-12.3-16.7-20.4l-1.4-1.8c-5.8-7.4-12.2-15.7-19.3-24-13.8-16.2-30.4-32.8-51.4-46.4l15.1-30.2c1.7 .1 3.4 .2 5.1 .2 35.3 0 64-28.7 64-64s-28.7-64-64-64-64 28.7-64 64c0 16.2 6 31.1 16 42.3l-15.6 31.2c-18.7-6-39.9-9.5-64.4-9.5s-45.8 3.5-64.4 9.5L240 106.3zM459.4 256.3c-.4 .6-.9 1.3-1.4 2-6.3 8.8-15.8 20.5-28.3 32.2-25.2 23.4-61.6 45.6-109.7 45.6s-84.5-22.2-109.7-45.6c-12.6-11.7-22-23.4-28.3-32.2-.5-.7-1-1.3-1.4-2 5.4-6.9 10.8-13.8 16.7-20.7 26.4-31 60.4-59.6 122.7-59.6s96.3 28.6 122.7 59.6c5.9 6.9 11.3 13.8 16.7 20.7zM448 48a16 16 0 1 1 0 32 16 16 0 1 1 0-32z"/></svg>