<svg xmlns="http://www.w3.org/2000/svg" viewBox="0 0 512 512"><path fill="currentColor" d="M256 0c10 0 19 6.2 22.5 15.6l59.4 158.6 158.6 59.4C505.8 237 512 246 512 256s-6.2 19-15.6 22.5l-158.6 59.4-59.4 158.6C275 505.8 266 512 256 512s-19-6.2-22.5-15.6L174.2 337.8 15.6 278.5C6.2 275 0 266 0 256s6.2-19 15.6-22.5l158.6-59.4 59.4-158.6C237 6.2 246 0 256 0zm0 92.5L215.3 201.2c-2.4 6.5-7.6 11.6-14.1 14.1L92.5 256 201.2 296.7c6.5 2.4 11.6 7.6 14.1 14.1L256 419.5 296.7 310.8c2.4-6.5 7.6-11.6 14.1-14.1L419.5 256 310.8 215.3c-6.5-2.4-11.6-7.6-14.1-14.1L256 92.5z"/></svg>