<svg xmlns="http://www.w3.org/2000/svg" viewBox="0 0 448 512"><path fill="currentColor" d="M160 16c-8.8 0-16 7.2-16 16l0 352c0 8.8 7.2 16 16 16l224 0c8.8 0 16-7.2 16-16l0-352c0-8.8-7.2-16-16-16L160 16zM96 32c0-35.3 28.7-64 64-64l224 0c35.3 0 64 28.7 64 64l0 352c0 35.3-28.7 64-64 64l-224 0c-35.3 0-64-28.7-64-64L96 32zM272 176a96 96 0 1 1 0 192 96 96 0 1 1 0-192zm48 96a48 48 0 1 0 -96 0 48 48 0 1 0 96 0zM240 80a32 32 0 1 1 64 0 32 32 0 1 1 -64 0zM48 88l0 392c0 8.8 7.2 16 16 16l264 0c13.3 0 24 10.7 24 24s-10.7 24-24 24L64 544c-35.3 0-64-28.7-64-64L0 88C0 74.7 10.7 64 24 64S48 74.7 48 88z"/></svg>