<svg xmlns="http://www.w3.org/2000/svg" viewBox="0 0 576 512"><path fill="currentColor" d="M120 32c-48.6 0-88 39.4-88 88l0 176c0 13.3 10.7 24 24 24s24-10.7 24-24l0-72 96 0 0 72c0 13.3 10.7 24 24 24s24-10.7 24-24l0-176c0-48.6-39.4-88-88-88l-16 0zm56 144l-96 0 0-56c0-22.1 17.9-40 40-40l16 0c22.1 0 40 17.9 40 40l0 56zM296 32c-13.3 0-24 10.7-24 24l0 240c0 13.3 10.7 24 24 24l84 0c46.4 0 84-37.6 84-84 0-27.8-13.5-52.4-34.3-67.7 11.4-14.3 18.3-32.5 18.3-52.3 0-46.4-37.6-84-84-84l-68 0zm68 120l-44 0 0-72 44 0c19.9 0 36 16.1 36 36s-16.1 36-36 36zM320 272l0-72 60 0c19.9 0 36 16.1 36 36s-16.1 36-36 36l-60 0zm251 54.7c8.1-10.5 6.2-25.6-4.3-33.7s-25.6-6.2-33.7 4.3l-118.4 153.2-52.8-58.6c-8.9-9.9-24-10.7-33.9-1.8s-10.7 24-1.8 33.9l72 80c4.8 5.3 11.6 8.2 18.7 7.9s13.7-3.7 18.1-9.3l136-176z"/></svg>