<svg xmlns="http://www.w3.org/2000/svg" viewBox="0 0 512 512"><path fill="currentColor" d="M142.8-31c11.9 3.5 19 15.5 16.8 27.4l-.6 2.4-36 122.3 53.1 53.1c1-43.3 36.3-78.1 79.9-78.2l8.2 .4c39.7 4 70.8 37.2 71.7 77.7l53.1-53-36-122.3-.6-2.4c-2.2-12 4.9-23.9 16.8-27.4s24.4 2.7 29 13.9l.8 2.3 40 136c2.5 8.4 .1 17.5-6.1 23.8l-64.1 64.1 76.4-20.8 19.9-59.8 .9-2.3c5-11.1 17.7-16.8 29.5-12.9s18.5 16.1 15.8 28l-.7 2.4-24 72c-2.5 7.6-8.7 13.5-16.5 15.6l-91.1 24.8 91.1 24.8c7.7 2.1 13.9 8 16.5 15.6l24 72 .7 2.4c2.7 11.9-4.1 24.1-15.8 28s-24.5-1.8-29.5-12.9l-.9-2.3-19.9-59.8-76.4-20.8 64.1 64.1c6.2 6.2 8.5 15.3 6.1 23.7l-40 136-.8 2.3c-4.6 11.3-17.1 17.4-29 13.9s-19-15.5-16.8-27.4l.6-2.4 36-122.3-25-25c-12.6 45.6-53.2 79.5-102.2 82L256 448c-51.5 0-94.9-34.8-107.9-82.2l-25 25.1 36 122.3 .6 2.4c2.2 12-4.9 23.9-16.8 27.4s-24.4-2.7-29-13.9l-.8-2.3-40-136c-2.5-8.4-.1-17.5 6.1-23.7l64.1-64.1-76.4 20.8-19.9 59.8-.9 2.3c-5 11.1-17.7 16.8-29.5 12.9s-18.5-16.1-15.8-28l.7-2.4 24-72c2.5-7.6 8.7-13.4 16.5-15.6l91.1-24.8-91.1-24.8c-7.7-2.1-13.9-8-16.5-15.6l-24-72-.7-2.4c-2.7-11.9 4.1-24.1 15.8-28s24.5 1.8 29.5 12.9l.9 2.3 19.9 59.8 76.4 20.8-64.1-64.1c-6.2-6.2-8.5-15.3-6.1-23.8l40-136 .8-2.3c4.6-11.3 17.1-17.4 29-13.9zM256 144c-17.7 0-32 14.3-32 32l0 40c0 4.9 1.1 9.5 3.1 13.7 5 10.6 1.7 23.2-7.9 29.9-16.5 11.6-27.2 30.8-27.2 52.4l0 24c0 35.3 28.7 64 64 64l6.5-.3c32.3-3.3 57.5-30.5 57.5-63.7l0-24c0-21.6-10.7-40.7-27.3-52.4-9.6-6.7-12.9-19.4-7.8-29.9 2.1-4.3 3.2-8.9 3.2-13.7l0-40-.2-3.3c-1.5-15-13.5-27-28.6-28.6L256 144z"/></svg>