<svg xmlns="http://www.w3.org/2000/svg" viewBox="0 0 576 512"><path fill="currentColor" d="M415.8 8c9.9-.1 19 6 22.6 15.6l28.9 77.2c11.7 31.1 28.5 60 49.8 85.6l45.3 54.3c7.4 8.9 7.4 21.8 0 30.7l-45.3 54.3c-21.3 25.5-38.1 54.5-49.8 85.6l-28.9 77.2c-4.1 10.9-15.4 17.3-26.9 15.2l-69-12.9c-36.1-6.8-73.1-6.8-109.1 0l-69 12.9c-11.5 2.1-22.8-4.2-26.9-15.2l-28.9-77.2c-11.7-31.1-28.5-60-49.8-85.6L13.6 271.4c-7.4-8.9-7.4-21.8 0-30.7l45.2-54.3c21.3-25.5 38.1-54.5 49.8-85.6l28.9-77.2 1.8-3.9c5.1-8.5 15-13.2 25.1-11.3l69 12.9c36.1 6.8 73.1 6.8 109.1 0l69-12.9 4.3-.4zM374.6 64.2l-23.2 4.4c-41.9 7.9-84.9 7.9-126.8 0l-23.2-4.4 26.5 46.3c39.4 10.2 80.8 10.2 120.1 0l26.5-46.4zm35.1 19.3l-27.3 47.8 3.1 8.7 5.1 13.3c12.3 30.1 29.4 58.1 50.6 82.7l55 0-15.8-18.9c-24.7-29.7-44.3-63.3-57.8-99.4L409.7 83.4zM496.1 276l-55 0c-24.5 28.8-43.4 62.1-55.6 98l-2.6 7.8 26.7 46.8 12.8-34.2c13.6-36.2 33.1-69.8 57.8-99.4L496.1 276zM374.6 447.8l-24.6-43c-39.6-12.5-81.9-13.6-122-3.3l-26.5 46.3 23.1-4.3c41.9-7.9 84.9-7.9 126.8 0l23.1 4.3zM166.3 428.6l27.3-47.8-3.1-8.7c-12.4-35.2-31.3-67.8-55.7-96.1l-55 0 15.8 18.9c24.7 29.7 44.3 63.3 57.8 99.4l12.8 34.2zM79.9 236l55 0 7.7-9.2c20.7-26.1 36.9-55.4 48-86.8l3.1-8.7-27.3-47.8-12.8 34.2c-13.6 36.2-33.1 69.8-57.8 99.4L79.9 236zm139.4-59.9c-9.2 21.1-20.6 41.1-33.8 59.9l68.1 0-34.2-59.9zM185.5 276c13.3 18.8 24.6 38.8 33.8 59.9l34.2-59.9-68.1 0zm68.4 80.1c23-2.6 46.2-2.1 69.1 1.4l-34.9-61.2-34.2 59.8zm103.2-19.6c9.1-21.3 20.4-41.6 33.7-60.6l-68.3 0 34.6 60.6zM390.5 236c-13.3-18.8-24.6-38.8-33.8-59.9l-34.2 59.9 68 0zM322 156.1c-22.6 2.8-45.4 2.8-68 0l34 59.5 34-59.5z"/></svg>