<svg xmlns="http://www.w3.org/2000/svg" viewBox="0 0 448 512"><path fill="currentColor" d="M224 52a12 12 0 1 1 0 24 12 12 0 1 1 0-24zM172 64a52 52 0 1 0 104 0 52 52 0 1 0 -104 0zm20 384c0 17.7 14.3 32 32 32s32-14.3 32-32-14.3-32-32-32-32 14.3-32 32zM448 256a32 32 0 1 0 -64 0 32 32 0 1 0 64 0zM32 220a36 36 0 1 0 0 72 36 36 0 1 0 0-72zm339.1-88.5a16 16 0 1 1 -22.6-22.6 16 16 0 1 1 22.6 22.6zm28.3-50.9a56 56 0 1 0 -79.2 79.2 56 56 0 1 0 79.2-79.2zM65.6 369.1a32 32 0 1 0 45.3 45.3 32 32 0 1 0 -45.3-45.3zm316.8 45.3a32 32 0 1 0 -45.3-45.3 32 32 0 1 0 45.3 45.3zM93.9 125.9a8 8 0 1 1 -11.3-11.3 8 8 0 1 1 11.3 11.3zm28.3-39.6a48 48 0 1 0 -67.9 67.9 48 48 0 1 0 67.9-67.9z"/></svg>