<svg xmlns="http://www.w3.org/2000/svg" viewBox="0 0 512 512"><path fill="currentColor" d="M105.4 72C102 81.6 92.9 88 82.7 88L80 88c-8.8 0-16 7.2-16 16s7.2 16 16 16l2.7 0c10.2 0 19.2 6.4 22.6 16 3.3 9.4 12.2 16 22.6 16l256 0c10.4 0 19.3-6.6 22.6-16 3.4-9.6 12.5-16 22.6-16l2.7 0c8.8 0 16-7.2 16-16s-7.2-16-16-16l-2.7 0c-10.2 0-19.2-6.4-22.6-16-3.3-9.4-12.2-16-22.6-16L128 56c-10.4 0-19.3 6.6-22.6 16zm-31 104c-2.6-2.9-4.9-6-7-9.3-29.3-5.9-51.3-31.7-51.3-62.7S38 47.1 67.3 41.3C80.1 21.3 102.5 8 128 8L384 8C409.5 8 431.9 21.3 444.7 41.3 474 47.1 496 73 496 104s-22 56.9-51.3 62.7c-2.1 3.3-4.4 6.4-7 9.3 4.9 5.5 9 11.7 12 18.5 26.7 7.7 46.3 32.3 46.3 61.5s-19.6 53.9-46.3 61.5c-3.1 6.8-7.1 13-12 18.5 2.6 2.9 4.9 6 7 9.3 29.3 5.9 51.3 31.7 51.3 62.7s-22 56.9-51.3 62.7c-12.8 20-35.2 33.3-60.7 33.3l-256 0C102.5 504 80.1 490.7 67.3 470.7 38 464.9 16 439 16 408s22-56.9 51.3-62.7c2.1-3.3 4.4-6.4 7-9.3-4.9-5.5-9-11.7-12-18.5-26.7-7.7-46.3-32.3-46.3-61.5s19.6-53.9 46.3-61.5c3.1-6.8 7.1-13 12-18.5zM128 200c-11.9 0-21.8 8.6-23.7 20-1.9 11.6-11.9 20-23.7 20l-.7 0c-8.8 0-16 7.2-16 16s7.2 16 16 16l.7 0c11.7 0 21.7 8.5 23.7 20 1.9 11.3 11.8 20 23.7 20l256 0c11.9 0 21.8-8.6 23.7-20 1.9-11.6 11.9-20 23.7-20l.7 0c8.8 0 16-7.2 16-16s-7.2-16-16-16l-.7 0c-11.7 0-21.7-8.5-23.7-20-1.9-11.3-11.8-20-23.7-20l-256 0zM105.4 376c-3.4 9.6-12.5 16-22.6 16L80 392c-8.8 0-16 7.2-16 16s7.2 16 16 16l2.7 0c10.2 0 19.2 6.4 22.6 16 3.3 9.4 12.2 16 22.6 16l256 0c10.4 0 19.3-6.6 22.6-16 3.4-9.6 12.5-16 22.6-16l2.7 0c8.8 0 16-7.2 16-16s-7.2-16-16-16l-2.7 0c-10.2 0-19.2-6.4-22.6-16-3.3-9.4-12.2-16-22.6-16l-256 0c-10.4 0-19.3 6.6-22.6 16z"/></svg>