<svg xmlns="http://www.w3.org/2000/svg" viewBox="0 0 512 512"><path fill="currentColor" d="M72.6 148.4C133.9 54.4 249.3-4.3 443.3 22.5l4.2 .7c21.1 4.6 38.5 21.6 42.1 44.2L491.9 84c10.6 84.6 3.3 194.1-52.5 279.6-59.4 91-169.5 148.9-352.7 128.1l-18-2.2c-21.5-3-40-18.7-45.4-40.5l-.9-4.4C8.8 358.1 13.1 239.6 72.6 148.4zm28.3 296.6c39 3.9 73.7 3.9 104.6 .7-8.1-25.1-20.6-48.3-36.8-68.4l-67.8 67.8zM202.9 343.1c22.8 27.3 40.1 59.3 50.3 94.3 41.8-10.4 74.8-27.7 100.9-49.3l-98.1-98.1-53.1 53.1zM67.4 306.8c-4.5 35.7-4.2 71.6-.8 104.7l68.3-68.2c-19.9-15.9-42.7-28.3-67.4-36.5zM289.9 256l97.6 97.6c4.1-5.3 8-10.7 11.6-16.2 16.8-25.8 28.6-54.7 36.3-84.8-34.3-10.3-65.6-27.4-92.5-49.8L289.9 256zM124.4 158.4c-4.1 5.3-8 10.7-11.6 16.2-16.8 25.8-28.6 54.7-36.3 84.7 34.3 10.3 65.6 27.4 92.5 49.8l53.1-53.1-97.6-97.6zM258.8 74.6C217 85 183.9 102.3 157.8 123.9l98.2 98.2 53.1-53.1c-22.8-27.3-40.1-59.3-50.4-94.3zm118.4 94.2c19.9 15.9 42.6 28.3 67.3 36.4 4.5-35.7 4.3-71.6 .9-104.7l-68.2 68.3zM411 67.1c-39-3.9-73.7-3.9-104.5-.7 8.1 25.1 20.7 48.3 36.8 68.5L411 67.1z"/></svg>