<svg xmlns="http://www.w3.org/2000/svg" viewBox="0 0 576 512"><path fill="currentColor" d="M192 0c-17.7 0-32 14.3-32 32l0 80 128 0 0-80c0-17.7-14.3-32-32-32L192 0zm96 208c26.5 0 48 21.5 48 48l0 184c0 13.3-10.7 24-24 24l-176 0c-13.3 0-24-10.7-24-24l0-184c0-26.5 21.5-48 48-48l128 0zM160 160c-53 0-96 43-96 96l0 184c0 39.8 32.2 72 72 72l176 0c39.8 0 72-32.2 72-72l0-184c0-53-43-96-96-96l-128 0zM288 336a64 64 0 1 0 -128 0 64 64 0 1 0 128 0zM384 64a32 32 0 1 0 -64 0 32 32 0 1 0 64 0zm64 32a32 32 0 1 0 0-64 32 32 0 1 0 0 64zM576 64a32 32 0 1 0 -64 0 32 32 0 1 0 64 0zM544 192a32 32 0 1 0 0-64 32 32 0 1 0 0 64zm32 64a32 32 0 1 0 -64 0 32 32 0 1 0 64 0zM448 192a32 32 0 1 0 0-64 32 32 0 1 0 0 64z"/></svg>