<svg xmlns="http://www.w3.org/2000/svg" viewBox="0 0 576 512"><path fill="currentColor" d="M160 32c0-17.7 14.3-32 32-32l64 0c17.7 0 32 14.3 32 32l0 80-128 0 0-80zm0 176c-26.5 0-48 21.5-48 48l0 184c0 13.3 10.7 24 24 24l176 0c13.3 0 24-10.7 24-24l0-184c0-26.5-21.5-48-48-48l-128 0zM64 256c0-53 43-96 96-96l128 0c53 0 96 43 96 96l0 184c0 39.8-32.2 72-72 72l-176 0c-39.8 0-72-32.2-72-72l0-184zm160 16a64 64 0 1 1 0 128 64 64 0 1 1 0-128zM448 48c0 1.4-1 3-2.2 3.6L416 64 403.6 93.8C403 95 401.4 96 400 96s-3-1-3.6-2.2L384 64 354.2 51.6c-1.2-.6-2.2-2.2-2.2-3.6 0-1.4 1-3 2.2-3.6L384 32 396.4 2.2C397 1 398.6 0 400 0s3 1 3.6 2.2L416 32 445.8 44.4C447 45 448 46.6 448 48zm76.4 45.8L512 64 482.2 51.6c-1.2-.6-2.2-2.2-2.2-3.6 0-1.4 1-3 2.2-3.6L512 32 524.4 2.2C525 1 526.6 0 528 0s3 1 3.6 2.2L544 32 573.8 44.4c1.2 .6 2.2 2.2 2.2 3.6 0 1.4-1 3-2.2 3.6L544 64 531.6 93.8C531 95 529.4 96 528 96s-3-1-3.6-2.2zm7.2 100.4L544 224 573.8 236.4c1.2 .6 2.2 2.2 2.2 3.6 0 1.4-1 3-2.2 3.6L544 256 531.6 285.8c-.6 1.2-2.2 2.2-3.6 2.2s-3-1-3.6-2.2L512 256 482.2 243.6c-1.2-.6-2.2-2.2-2.2-3.6 0-1.4 1-3 2.2-3.6L512 224 524.4 194.2c.6-1.2 2.2-2.2 3.6-2.2s3 1 3.6 2.2zM512 144c0 1.4-1 3-2.2 3.6L480 160 467.6 189.8c-.6 1.2-2.2 2.2-3.6 2.2s-3-1-3.6-2.2L448 160 418.2 147.6c-1.2-.6-2.2-2.2-2.2-3.6 0-1.4 1-3 2.2-3.6L448 128 460.4 98.2C461 97 462.6 96 464 96s3 1 3.6 2.2L480 128 509.8 140.4c1.2 .6 2.2 2.2 2.2 3.6z"/></svg>