<svg xmlns="http://www.w3.org/2000/svg" viewBox="0 0 384 512"><path fill="currentColor" d="M0 0L0 96c0 11.5 8.2 21.4 19.5 23.6L128 140.2 128 91.4 48 76.1 48 0 0 0zM256 91.4l0 48.9 108.5-20.7C375.8 117.4 384 107.5 384 96l0-96-48 0 0 76.1-80 15.2zM160 344a24 24 0 1 0 -48 0 24 24 0 1 0 48 0zm-48 64c0-13.3-10.7-24-24-24s-24 10.7-24 24 10.7 24 24 24 24-10.7 24-24zM24 496c13.3 0 24-10.7 24-24s-10.7-24-24-24-24 10.7-24 24 10.7 24 24 24zM272 344a24 24 0 1 0 -48 0 24 24 0 1 0 48 0zm-80 88c13.3 0 24-10.7 24-24s-10.7-24-24-24-24 10.7-24 24 10.7 24 24 24zm-32 40c0-13.3-10.7-24-24-24s-24 10.7-24 24 10.7 24 24 24 24-10.7 24-24zm136-40c13.3 0 24-10.7 24-24s-10.7-24-24-24-24 10.7-24 24 10.7 24 24 24zm-24 40c0-13.3-10.7-24-24-24s-24 10.7-24 24 10.7 24 24 24 24-10.7 24-24zm88 24c13.3 0 24-10.7 24-24s-10.7-24-24-24-24 10.7-24 24 10.7 24 24 24zM216 56c0-13.3-10.7-24-24-24s-24 10.7-24 24l0 152-80 0c-13.3 0-24 10.7-24 24s10.7 24 24 24l208 0c13.3 0 24-10.7 24-24s-10.7-24-24-24l-80 0 0-152z"/></svg>