<svg xmlns="http://www.w3.org/2000/svg" viewBox="0 0 512 512"><path fill="currentColor" d="M475.3 .2C491.4 1.8 504 15.4 504 32l0 32-.3 11.5c-5.8 114.5-97.7 206.4-212.2 212.2l-11.5 .3 0 200c0 13.3-10.7 24-24 24s-24-10.7-24-24l0-136-8 0C104.2 352 6.3 257.9 .3 139.5L0 128 0 96C0 78.3 14.3 64 32 64l24 0 11.5 .3c72 3.7 135 41.4 173.3 97.3 26-89.8 106.7-156.4 203.6-161.3l11.5-.3 16 0 3.3 .2zM48 128c0 97.2 78.8 176 176 176l8 0 0-16c0-97.2-78.8-176-176-176l-8 0 0 16zM456 48c-97.2 0-176 78.8-176 176l0 16c97.2 0 176-78.8 176-176l0-16z"/></svg>