<svg xmlns="http://www.w3.org/2000/svg" viewBox="0 0 448 512"><path fill="currentColor" d="M64 80c-8.8 0-16 7.2-16 16l0 320c0 8.8 7.2 16 16 16l320 0c8.8 0 16-7.2 16-16l0-320c0-8.8-7.2-16-16-16L64 80zM0 96C0 60.7 28.7 32 64 32l320 0c35.3 0 64 28.7 64 64l0 320c0 35.3-28.7 64-64 64L64 480c-35.3 0-64-28.7-64-64L0 96zm104.5 51.3c2.6-13 15.2-21.4 28.2-18.8l10.6 2.1c28.3 5.7 48.7 30.5 48.7 59.4l0 18 16 0c8.8 0 16 7.2 16 16s-7.2 16-16 16l-16 0 0 83.4c0 6.9 5.6 12.6 12.6 12.6l24 0c37.2 0 67.4-30.2 67.4-67.4l0-16c0-6.9-5.6-12.6-12.6-12.6l-3.4 0c-13.3 0-24-10.7-24-24s10.7-24 24-24l3.4 0c33.5 0 60.6 27.1 60.6 60.6l0 16C344 332.3 292.3 384 228.6 384l-24 0c-33.5 0-60.6-27.1-60.6-60.6l0-83.4-13.7 0c-8.8 0-16-7.2-16-16s7.2-16 16-16l13.7 0 0-18c0-6-4.2-11.2-10.1-12.3l-10.6-2.1c-13-2.6-21.4-15.2-18.8-28.2z"/></svg>