<svg xmlns="http://www.w3.org/2000/svg" viewBox="0 0 448 512"><path fill="currentColor" d="M64 80c-8.8 0-16 7.2-16 16l0 320c0 8.8 7.2 16 16 16l320 0c8.8 0 16-7.2 16-16l0-320c0-8.8-7.2-16-16-16L64 80zM0 96C0 60.7 28.7 32 64 32l320 0c35.3 0 64 28.7 64 64l0 320c0 35.3-28.7 64-64 64L64 480c-35.3 0-64-28.7-64-64L0 96zm240.4 60.7c9.5-22.3 31.4-36.7 55.7-36.7l23.9 0c13.3 0 24 10.7 24 24s-10.7 24-24 24l-23.9 0c-5 0-9.6 3-11.6 7.6L263.8 224 296 224c13.3 0 24 10.7 24 24s-10.7 24-24 24l-52.7 0-35.7 83.3C198 377.6 176.1 392 151.9 392L128 392c-13.3 0-24-10.7-24-24s10.7-24 24-24l23.9 0c5 0 9.6-3 11.6-7.6l27.6-64.4-39 0c-13.3 0-24-10.7-24-24s10.7-24 24-24l59.6 0 28.8-67.3z"/></svg>