<svg xmlns="http://www.w3.org/2000/svg" viewBox="0 0 448 512"><path fill="currentColor" d="M64 80c-8.8 0-16 7.2-16 16l0 320c0 8.8 7.2 16 16 16l320 0c8.8 0 16-7.2 16-16l0-320c0-8.8-7.2-16-16-16L64 80zM0 96C0 60.7 28.7 32 64 32l320 0c35.3 0 64 28.7 64 64l0 320c0 35.3-28.7 64-64 64L64 480c-35.3 0-64-28.7-64-64L0 96zm155.4 57.8l68.6 93.6 68.6-93.6c6.1-8.4 17-11.8 26.8-8.6S336 157.6 336 168l0 176c0 13.3-10.7 24-24 24s-24-10.7-24-24l0-102.7-44.6 60.9c-4.5 6.2-11.7 9.8-19.4 9.8s-14.8-3.6-19.4-9.8L160 241.3 160 344c0 13.3-10.7 24-24 24s-24-10.7-24-24l0-176c0-10.4 6.7-19.6 16.5-22.8s20.7 .2 26.8 8.6z"/></svg>