<svg xmlns="http://www.w3.org/2000/svg" viewBox="0 0 448 512"><path fill="currentColor" d="M400 96c0-8.8-7.2-16-16-16L64 80c-8.8 0-16 7.2-16 16l0 320c0 8.8 7.2 16 16 16l320 0c8.8 0 16-7.2 16-16l0-320zM384 32c35.3 0 64 28.7 64 64l0 320c0 35.3-28.7 64-64 64L64 480c-35.3 0-64-28.7-64-64L0 96C0 60.7 28.7 32 64 32l320 0zM355.3 267.3l-104 104c-4.6 4.6-11.5 5.9-17.4 3.5S224 366.5 224 360l0-72-104 0c-13.3 0-24-10.7-24-24l0-16c0-13.3 10.7-24 24-24l104 0 0-72c0-6.5 3.9-12.3 9.9-14.8s12.9-1.1 17.4 3.5l104 104c6.2 6.2 6.2 16.4 0 22.6z"/></svg>