<svg xmlns="http://www.w3.org/2000/svg" viewBox="0 0 448 512"><path fill="currentColor" d="M64 80c-8.8 0-16 7.2-16 16l0 320c0 8.8 7.2 16 16 16l320 0c8.8 0 16-7.2 16-16l0-320c0-8.8-7.2-16-16-16L64 80zM0 96C0 60.7 28.7 32 64 32l320 0c35.3 0 64 28.7 64 64l0 320c0 35.3-28.7 64-64 64L64 480c-35.3 0-64-28.7-64-64L0 96zm170.6 56.8L272 276.8 272 168c0-13.3 10.7-24 24-24s24 10.7 24 24l0 176c0 10.1-6.4 19.2-15.9 22.6s-20.2 .4-26.6-7.4L176 235.2 176 344c0 13.3-10.7 24-24 24s-24-10.7-24-24l0-176c0-10.1 6.4-19.2 15.9-22.6s20.2-.4 26.6 7.4z"/></svg>