<svg xmlns="http://www.w3.org/2000/svg" viewBox="0 0 448 512"><path fill="currentColor" d="M64 80c-8.8 0-16 7.2-16 16l0 320c0 8.8 7.2 16 16 16l320 0c8.8 0 16-7.2 16-16l0-320c0-8.8-7.2-16-16-16L64 80zM0 96C0 60.7 28.7 32 64 32l320 0c35.3 0 64 28.7 64 64l0 320c0 35.3-28.7 64-64 64L64 480c-35.3 0-64-28.7-64-64L0 96zm319.4 56l0 77.4 10.6-4.2c8.2-3.3 17.5 .7 20.8 8.9s-.7 17.5-8.9 20.8l-22.5 9 0 96.1c0 13.3-10.7 24-24 24s-24-10.7-24-24l0-76.9-9.5 3.8c-8.2 3.3-17.5-.7-20.8-8.9s.7-17.5 8.9-20.8l21.4-8.6 0-96.6c0-13.3 10.7-24 24-24s24 10.7 24 24zM96 216c0-13.3 10.7-24 24-24l96 0c8.7 0 16.7 4.7 20.9 12.3s4.1 16.8-.5 24.3L170.8 336 216 336c13.3 0 24 10.7 24 24s-10.7 24-24 24l-88 0c-8.7 0-16.7-4.7-20.9-12.3s-4.1-16.8 .5-24.3L173.2 240 120 240c-13.3 0-24-10.7-24-24z"/></svg>