<svg xmlns="http://www.w3.org/2000/svg" viewBox="0 0 448 512"><path fill="currentColor" d="M64 80c-8.8 0-16 7.2-16 16l0 320c0 8.8 7.2 16 16 16l320 0c8.8 0 16-7.2 16-16l0-320c0-8.8-7.2-16-16-16L64 80zM0 96C0 60.7 28.7 32 64 32l320 0c35.3 0 64 28.7 64 64l0 320c0 35.3-28.7 64-64 64L64 480c-35.3 0-64-28.7-64-64L0 96zm208 32c0-8.8 7.2-16 16-16s16 7.2 16 16l0 9.1c26.3 3.5 50 15.6 68 33.2 9.5 9.3 9.6 24.5 .3 33.9s-24.5 9.6-33.9 .3c-9.4-9.2-21.2-15.8-34.4-18.8l0 46.2 80 0c13.3 0 24 10.7 24 24 0 60.8-45.3 111.1-104 118.9l0 9.1c0 8.8-7.2 16-16 16s-16-7.2-16-16l0-9.1c-58.7-7.8-104-58.1-104-118.9s45.3-111.1 104-118.9l0-9.1zM152 256c0 34.3 23.9 62.9 56 70.2l0-140.4c-32.1 7.3-56 36-56 70.2zm139.9 24l-51.9 0 0 46.2c24.2-5.5 43.8-23.2 51.9-46.2z"/></svg>