<svg xmlns="http://www.w3.org/2000/svg" viewBox="0 0 448 512"><path fill="currentColor" d="M64 80c-8.8 0-16 7.2-16 16l0 320c0 8.8 7.2 16 16 16l320 0c8.8 0 16-7.2 16-16l0-320c0-8.8-7.2-16-16-16L64 80zM0 96C0 60.7 28.7 32 64 32l320 0c35.3 0 64 28.7 64 64l0 320c0 35.3-28.7 64-64 64L64 480c-35.3 0-64-28.7-64-64L0 96zm224 88c-16.1 0-29.2 13.1-29.2 29.2 0 13.3-10.7 24-24 24s-24-10.7-24-24c0-42.6 34.6-77.2 77.2-77.2s77.2 34.6 77.2 77.2c0 45.5-34.5 64.7-53.7 71.8-2.3 10.8-11.9 19-23.5 19-13.3 0-24-10.7-24-24 0-20.2 14.6-34.6 29.5-39.5 6-2 12.3-5.1 16.8-9.5 3.9-3.8 6.9-9 6.9-17.7 0-16.1-13.1-29.2-29.2-29.2zM196 352a28 28 0 1 1 56 0 28 28 0 1 1 -56 0z"/></svg>