<svg xmlns="http://www.w3.org/2000/svg" viewBox="0 0 448 512"><path fill="currentColor" d="M384 80c8.8 0 16 7.2 16 16l0 320c0 8.8-7.2 16-16 16L64 432c-8.8 0-16-7.2-16-16L48 96c0-8.8 7.2-16 16-16l320 0zM64 32C28.7 32 0 60.7 0 96L0 416c0 35.3 28.7 64 64 64l320 0c35.3 0 64-28.7 64-64l0-320c0-35.3-28.7-64-64-64L64 32zM88 215.6c0 30.3 21.4 56.4 51.1 62.3l16.4 3.3c7.3 1.5 12.5 7.8 12.5 15.3 0 8.6-7 15.6-15.6 15.6L120 312c-13.3 0-24 10.7-24 24s10.7 24 24 24l32.4 0c35.1 0 63.6-28.5 63.6-63.6 0-30.3-21.4-56.4-51.1-62.3l-16.4-3.3c-7.3-1.5-12.5-7.8-12.5-15.3 0-8.6 7-15.6 15.6-15.6l24.4 0c13.3 0 24-10.7 24-24s-10.7-24-24-24l-24.4 0C116.5 152 88 180.5 88 215.6zM312 136c0-8.8-7.2-16-16-16s-16 7.2-16 16l0 17.9c-27.6 6.9-48 31.9-48 61.6 0 30.3 21.4 56.4 51.1 62.3l16.4 3.3c7.3 1.5 12.5 7.8 12.5 15.3 0 8.6-7 15.6-15.6 15.6L264 312c-13.3 0-24 10.7-24 24s10.7 24 24 24l16 0 0 16c0 8.8 7.2 16 16 16s16-7.2 16-16l0-17.9c27.6-6.9 48-31.9 48-61.6 0-30.3-21.4-56.4-51.1-62.3l-16.4-3.3c-7.3-1.5-12.5-7.8-12.5-15.3 0-8.6 7-15.6 15.6-15.6l24.4 0c13.3 0 24-10.7 24-24s-10.7-24-24-24l-8 0 0-16z"/></svg>