<svg xmlns="http://www.w3.org/2000/svg" viewBox="0 0 448 512"><path fill="currentColor" d="M64 80c-8.8 0-16 7.2-16 16l0 320c0 8.8 7.2 16 16 16l320 0c8.8 0 16-7.2 16-16l0-320c0-8.8-7.2-16-16-16L64 80zM0 96C0 60.7 28.7 32 64 32l320 0c35.3 0 64 28.7 64 64l0 320c0 35.3-28.7 64-64 64L64 480c-35.3 0-64-28.7-64-64L0 96zm208 40c0-8.8 7.2-16 16-16s16 7.2 16 16l0 9.1c58.7 7.8 104 58.1 104 118.9l0 96c0 13.3-10.7 24-24 24s-24-10.7-24-24l0-96c0-34.3-23.9-62.9-56-70.2L240 368c0 8.8-7.2 16-16 16s-16-7.2-16-16l0-174.2c-32.1 7.3-56 36-56 70.2l0 96c0 13.3-10.7 24-24 24s-24-10.7-24-24l0-96c0-60.8 45.3-111.1 104-118.9l0-9.1z"/></svg>