<svg xmlns="http://www.w3.org/2000/svg" viewBox="0 0 448 512"><path fill="currentColor" d="M64 80c-8.8 0-16 7.2-16 16l0 320c0 8.8 7.2 16 16 16l320 0c8.8 0 16-7.2 16-16l0-320c0-8.8-7.2-16-16-16L64 80zM0 96C0 60.7 28.7 32 64 32l320 0c35.3 0 64 28.7 64 64l0 320c0 35.3-28.7 64-64 64L64 480c-35.3 0-64-28.7-64-64L0 96zm320 32c8.8 0 16 7.2 16 16l0 8 8 0c13.3 0 24 10.7 24 24s-10.7 24-24 24l-33.8 0c-7.8 0-14.2 6.3-14.2 14.2 0 5.8 3.5 11 8.9 13.1l32 12.8c23.6 9.4 39.1 32.3 39.1 57.7 0 26.5-16.6 49.2-40 58.1l0 12.1c0 8.8-7.2 16-16 16s-16-7.2-16-16l0-8-24 0c-13.3 0-24-10.7-24-24s10.7-24 24-24l33.8 0c7.8 0 14.2-6.3 14.2-14.2 0-5.8-3.5-11-8.9-13.1l-32-12.8c-23.6-9.4-39.1-32.3-39.1-57.7 0-32.3 24.6-58.8 56-61.9l0-8.3c0-8.8 7.2-16 16-16zM104 144l48 0c39.8 0 72 32.2 72 72 0 26.9-14.7 50.3-36.5 62.6l19.3 57.8c4.2 12.6-2.6 26.2-15.2 30.4s-26.2-2.6-30.4-15.2l-21.2-63.6-12 0 0 56c0 13.3-10.7 24-24 24s-24-10.7-24-24l0-176c0-13.3 10.7-24 24-24zm48 96c13.3 0 24-10.7 24-24s-10.7-24-24-24l-24 0 0 48 24 0z"/></svg>