<svg xmlns="http://www.w3.org/2000/svg" viewBox="0 0 448 512"><path fill="currentColor" d="M64 80c-8.8 0-16 7.2-16 16l0 320c0 8.8 7.2 16 16 16l320 0c8.8 0 16-7.2 16-16l0-320c0-8.8-7.2-16-16-16L64 80zM0 96C0 60.7 28.7 32 64 32l320 0c35.3 0 64 28.7 64 64l0 320c0 35.3-28.7 64-64 64L64 480c-35.3 0-64-28.7-64-64L0 96zm208 64l-32 32 80 64-32-64 48-32-24-48 51.4 0c11.4 0 20.6 9.2 20.6 20.6l0 75.4c0 46.2-32.6 84.7-76 93.9l0 58.1 40 0c11 0 20 9 20 20s-9 20-20 20l-120 0c-11 0-20-9-20-20s9-20 20-20l40 0 0-58.1c-43.4-9.2-76-47.8-76-93.9l0-75.4c0-11.4 9.2-20.6 20.6-20.6l35.4 0 24 48z"/></svg>