<svg xmlns="http://www.w3.org/2000/svg" viewBox="0 0 448 512"><path fill="currentColor" d="M64 432c-8.8 0-16-7.2-16-16L48 96c0-8.8 7.2-16 16-16l320 0c8.8 0 16 7.2 16 16l0 320c0 8.8-7.2 16-16 16L64 432zM0 416c0 35.3 28.7 64 64 64l320 0c35.3 0 64-28.7 64-64l0-320c0-35.3-28.7-64-64-64L64 32C28.7 32 0 60.7 0 96L0 416zm280-64c9.7 0 18.5-5.8 22.2-14.8s1.7-19.3-5.2-26.2l-35-35 67-67c9.4-9.4 9.4-24.6 0-33.9l-24-24c-9.4-9.4-24.6-9.4-33.9 0l-67 67-35-35c-6.9-6.9-17.2-8.9-26.2-5.2S128 190.3 128 200l0 128c0 13.3 10.7 24 24 24l128 0z"/></svg>