<svg xmlns="http://www.w3.org/2000/svg" viewBox="0 0 448 512"><path fill="currentColor" d="M64 80c-8.8 0-16 7.2-16 16l0 320c0 8.8 7.2 16 16 16l320 0c8.8 0 16-7.2 16-16l0-320c0-8.8-7.2-16-16-16L64 80zM0 96C0 60.7 28.7 32 64 32l320 0c35.3 0 64 28.7 64 64l0 320c0 35.3-28.7 64-64 64L64 480c-35.3 0-64-28.7-64-64L0 96zM224 202.5l-16.6 37.5 33.2 0-16.6-37.5zm27.4-56.7l41.7 94.2 42.9 0c8.8 0 16 7.2 16 16s-7.2 16-16 16l-28.7 0 10.6 24 18.1 0c8.8 0 16 7.2 16 16s-7.2 16-16 16l-3.9 0 9.9 22.3c5.4 12.1-.1 26.3-12.2 31.7s-26.3-.1-31.7-12.2l-18.5-41.7-111.2 0-18.5 41.7c-5.4 12.1-19.5 17.6-31.7 12.2s-17.6-19.5-12.2-31.7l9.9-22.3-3.9 0c-8.8 0-16-7.2-16-16s7.2-16 16-16l18.1 0 10.6-24-28.7 0c-8.8 0-16-7.2-16-16s7.2-16 16-16l42.9 0 41.7-94.2C201.4 135 212.1 128 224 128s22.6 7 27.4 17.8zM193.2 272l-10.6 24 82.8 0-10.6-24-61.6 0z"/></svg>