<svg xmlns="http://www.w3.org/2000/svg" viewBox="0 0 448 512"><path fill="currentColor" d="M64 80c-8.8 0-16 7.2-16 16l0 320c0 8.8 7.2 16 16 16l320 0c8.8 0 16-7.2 16-16l0-320c0-8.8-7.2-16-16-16L64 80zM0 96C0 60.7 28.7 32 64 32l320 0c35.3 0 64 28.7 64 64l0 320c0 35.3-28.7 64-64 64L64 480c-35.3 0-64-28.7-64-64L0 96zM152 256c0 39.8 32.2 72 72 72 28.3 0 52.7-16.3 64.5-40L248 288c-13.3 0-24-10.7-24-24s10.7-24 24-24l71.7 0c6.7 0 13.1 2.8 17.7 7.7s6.8 11.5 6.3 18.2c-5.1 61.6-56.7 110-119.6 110-66.3 0-120-53.7-120-120s53.7-120 120-120c30.7 0 58.8 11.6 80 30.6 9.9 8.8 10.7 24 1.9 33.9s-24 10.7-33.9 1.9c-12.8-11.4-29.5-18.3-48-18.3-39.8 0-72 32.2-72 72z"/></svg>