<svg xmlns="http://www.w3.org/2000/svg" viewBox="0 0 448 512"><path fill="currentColor" d="M64 80c-8.8 0-16 7.2-16 16l0 320c0 8.8 7.2 16 16 16l320 0c8.8 0 16-7.2 16-16l0-320c0-8.8-7.2-16-16-16L64 80zM0 96C0 60.7 28.7 32 64 32l320 0c35.3 0 64 28.7 64 64l0 320c0 35.3-28.7 64-64 64L64 480c-35.3 0-64-28.7-64-64L0 96zM144 212c0-37.6 30.4-68 68-68l24 0c37.6 0 68 30.4 68 68 0 14.7-4.6 28.2-12.5 39.3 12.7 12.3 20.5 29.6 20.5 48.7 0 37.6-30.4 68-68 68l-40 0c-37.6 0-68-30.4-68-68 0-19.1 7.9-36.3 20.5-48.7-7.9-11.1-12.5-24.7-12.5-39.3zm112 0c0-11-9-20-20-20l-24 0c-11 0-20 9-20 20s9 20 20 20l24 0c11 0 20-9 20-20zm-52 68c-11 0-20 9-20 20s9 20 20 20l40 0c11 0 20-9 20-20s-9-20-20-20l-40 0z"/></svg>