<svg xmlns="http://www.w3.org/2000/svg" viewBox="0 0 448 512"><path fill="currentColor" d="M64 80c-8.8 0-16 7.2-16 16l0 320c0 8.8 7.2 16 16 16l320 0c8.8 0 16-7.2 16-16l0-320c0-8.8-7.2-16-16-16L64 80zM0 96C0 60.7 28.7 32 64 32l320 0c35.3 0 64 28.7 64 64l0 320c0 35.3-28.7 64-64 64L64 480c-35.3 0-64-28.7-64-64L0 96zm246.3 29.1l-4.2 12.5c8.5 1.4 16.7 3.7 24.5 6.7l9.8-29.3c2.8-8.4 11.9-12.9 20.2-10.1s12.9 11.9 10.1 20.2L295 160.2c3.5 2.7 6.9 5.5 10.1 8.5 9.6 9.1 10.1 24.3 1 33.9-7.1 7.6-18 9.5-27.1 5.5L239.8 326c12.3-3 23.4-9.2 32.4-17.6 9.6-9.1 24.8-8.7 33.9 1s8.7 24.8-1 33.9c-21.4 20.2-50.3 32.6-82 32.7l-7 21.1c-2.8 8.4-11.9 12.9-20.2 10.1s-12.9-11.9-10.1-20.2l5.1-15.2c-8.3-2.3-16.2-5.4-23.6-9.3l-11.6 34.7c-2.8 8.4-11.9 12.9-20.2 10.1s-12.9-11.9-10.1-20.2L140 342.9c-22.9-21.9-37.2-52.7-37.2-86.9 0-61.5 46.3-112.2 105.9-119.2l7.3-21.9c2.8-8.4 11.9-12.9 20.2-10.1s12.9 11.9 10.1 20.2zM150.7 256c0 11.5 2.7 22.4 7.5 32l32.1-96.3c-23.5 11.9-39.6 36.2-39.6 64.3zM206 326l45.4-136.1c-7.7-3.3-16-5.4-24.8-5.8L182.7 315.8c7 4.7 14.9 8.2 23.3 10.2z"/></svg>