<svg xmlns="http://www.w3.org/2000/svg" viewBox="0 0 448 512"><path fill="currentColor" d="M64 80c-8.8 0-16 7.2-16 16l0 320c0 8.8 7.2 16 16 16l320 0c8.8 0 16-7.2 16-16l0-320c0-8.8-7.2-16-16-16L64 80zM0 96C0 60.7 28.7 32 64 32l320 0c35.3 0 64 28.7 64 64l0 320c0 35.3-28.7 64-64 64L64 480c-35.3 0-64-28.7-64-64L0 96zm144 72c0-13.3 10.7-24 24-24l68 0c37.6 0 68 30.4 68 68 0 12.7-3.5 24.7-9.6 34.8 15.6 12.5 25.6 31.6 25.6 53.2 0 37.6-30.4 68-68 68l-84 0c-13.3 0-24-10.7-24-24l0-176zm112 44c0-11-9-20-20-20l-44 0 0 40 44 0c11 0 20-9 20-20zM192 320l60 0c11 0 20-9 20-20s-9-20-20-20l-60 0 0 40z"/></svg>