<svg xmlns="http://www.w3.org/2000/svg" viewBox="0 0 448 512"><path fill="currentColor" d="M64 80c-8.8 0-16 7.2-16 16l0 320c0 8.8 7.2 16 16 16l320 0c8.8 0 16-7.2 16-16l0-320c0-8.8-7.2-16-16-16L64 80zM0 96C0 60.7 28.7 32 64 32l320 0c35.3 0 64 28.7 64 64l0 320c0 35.3-28.7 64-64 64L64 480c-35.3 0-64-28.7-64-64L0 96zm119 55c9.4-9.4 24.6-9.4 33.9 0l22.3 22.3c14.3-8.4 31-13.3 48.8-13.3s34.5 4.8 48.8 13.3L295 151c9.4-9.4 24.6-9.4 33.9 0s9.4 24.6 0 33.9l-22.3 22.3c8.4 14.3 13.3 31 13.3 48.8s-4.8 34.5-13.3 48.8L329 327c9.4 9.4 9.4 24.6 0 33.9s-24.6 9.4-33.9 0l-22.3-22.3c-14.3 8.4-31 13.3-48.8 13.3s-34.5-4.8-48.8-13.3L153 361c-9.4 9.4-24.6 9.4-33.9 0s-9.4-24.6 0-33.9l22.3-22.3c-8.4-14.3-13.3-31-13.3-48.8s4.8-34.5 13.3-48.8L119 185c-9.4-9.4-9.4-24.6 0-33.9zm71.1 70.9l-.2 .2c-8.6 8.7-13.9 20.6-13.9 33.8s5.3 25.1 13.9 33.8l.2 .2c8.7 8.6 20.6 13.9 33.8 13.9s25.2-5.3 33.8-13.9l.2-.2c8.6-8.7 13.9-20.6 13.9-33.8s-5.3-25.1-13.9-33.8l-.2-.2c-8.7-8.6-20.6-13.9-33.8-13.9s-25.2 5.3-33.8 13.9z"/></svg>