<svg xmlns="http://www.w3.org/2000/svg" viewBox="0 0 448 512"><path fill="currentColor" d="M64 80c-8.8 0-16 7.2-16 16l0 320c0 8.8 7.2 16 16 16l320 0c8.8 0 16-7.2 16-16l0-320c0-8.8-7.2-16-16-16L64 80zM0 96C0 60.7 28.7 32 64 32l320 0c35.3 0 64 28.7 64 64l0 320c0 35.3-28.7 64-64 64L64 480c-35.3 0-64-28.7-64-64L0 96zm224 48c9.1 0 17.4 5.1 21.5 13.3l88 176c5.9 11.9 1.1 26.3-10.7 32.2s-26.3 1.1-32.2-10.7l-9.4-18.7-114.3 0-9.4 18.7c-5.9 11.9-20.3 16.7-32.2 10.7s-16.7-20.3-10.7-32.2l88-176c4.1-8.1 12.4-13.3 21.5-13.3zm0 77.7l-33.2 66.3 66.3 0-33.2-66.3z"/></svg>