<svg xmlns="http://www.w3.org/2000/svg" viewBox="0 0 448 512"><path fill="currentColor" d="M384 80L64 80c-8.8 0-16 7.2-16 16l0 16-48 0 0-16C0 60.7 28.7 32 64 32l320 0c35.3 0 64 28.7 64 64l0 16-48 0 0-16c0-8.8-7.2-16-16-16zM0 400l48 0 0 16c0 8.8 7.2 16 16 16l320 0c8.8 0 16-7.2 16-16l0-16 48 0 0 16c0 35.3-28.7 64-64 64L64 480c-35.3 0-64-28.7-64-64l0-16zM93 172.3l35 63 0-51.4c0-13.3 10.7-24 24-24s24 10.7 24 24l0 144c0 10.9-7.4 20.5-18 23.2s-21.7-2-27-11.6l-35-63 0 51.4c0 13.3-10.7 24-24 24s-24-10.7-24-24l0-144c0-10.9 7.4-20.5 18-23.2s21.7 2 27 11.6zM208 184c0-13.3 10.7-24 24-24l80 0c13.3 0 24 10.7 24 24s-10.7 24-24 24l-56 0 0 32 40 0c13.3 0 24 10.7 24 24s-10.7 24-24 24l-40 0 0 40c0 13.3-10.7 24-24 24s-24-10.7-24-24l0-144zm192 0l0 144c0 13.3-10.7 24-24 24s-24-10.7-24-24l0-144c0-13.3 10.7-24 24-24s24 10.7 24 24z"/></svg>