<svg xmlns="http://www.w3.org/2000/svg" viewBox="0 0 448 512"><path fill="currentColor" d="M64 80c-8.8 0-16 7.2-16 16l0 320c0 8.8 7.2 16 16 16l320 0c8.8 0 16-7.2 16-16l0-320c0-8.8-7.2-16-16-16L64 80zM0 96C0 60.7 28.7 32 64 32l320 0c35.3 0 64 28.7 64 64l0 320c0 35.3-28.7 64-64 64L64 480c-35.3 0-64-28.7-64-64L0 96zM181.4 234.4l-16 2.5 11.5 11.5c10.8 10.9 15.8 26.2 13.5 41.4l-2.5 16 14.4-7.3c13.7-7 29.9-7 43.5 0l14.4 7.3-2.5-16c-2.4-15.2 2.6-30.5 13.4-41.4l11.5-11.5-16-2.5c-15.2-2.4-28.2-11.9-35.2-25.6l-7.4-14.4-7.4 14.4c-7 13.7-20.1 23.2-35.2 25.6zM274.1 187l50.4 8 .2 0c1 .2 10.1 1.6 27.4 4.4 5.9 .9 10.8 5.1 12.7 10.9s.4 12-3.9 16.3c-12.3 12.4-18.9 18.9-19.6 19.6l-.1 .1-36 36.1 7.9 50.4 0 .2 .9 5.6 3.4 21.8c.9 5.9-1.5 11.9-6.4 15.4s-11.3 4-16.7 1.3l-19.7-10-5-2.6-.2-.1-45.4-23.1-45.4 23.1-.2 .1c-.9 .5-9.1 4.6-24.7 12.6-5.4 2.7-11.8 2.2-16.7-1.3s-7.3-9.5-6.4-15.4c6.6-41.8 4.3-27 12.3-77.9l-36-36.1-.1-.1c-.7-.7-7.2-7.3-19.6-19.6-4.2-4.3-5.8-10.5-3.9-16.3s6.8-9.9 12.7-10.9c41.8-6.6 27-4.3 77.9-12.4l23.2-45.4 .1-.2 2.6-5 0 0 10-19.7c2.7-5.4 8.2-8.7 14.3-8.7s11.5 3.4 14.3 8.7c7.9 15.6 12.1 23.8 12.6 24.7l.1 .2 23.2 45.4z"/></svg>