<svg xmlns="http://www.w3.org/2000/svg" viewBox="0 0 448 512"><path fill="currentColor" d="M64 80c-8.8 0-16 7.2-16 16l0 320c0 8.8 7.2 16 16 16l320 0c8.8 0 16-7.2 16-16l0-320c0-8.8-7.2-16-16-16L64 80zM0 96C0 60.7 28.7 32 64 32l320 0c35.3 0 64 28.7 64 64l0 320c0 35.3-28.7 64-64 64L64 480c-35.3 0-64-28.7-64-64L0 96zm248 32l0 10.7c21.8 4.7 41.5 15.3 57.1 30.1 9.6 9.1 10.1 24.3 1 33.9s-24.3 10.1-33.9 1c-12.9-12.2-30.3-19.6-49.4-19.6-39.8 0-72 32.2-72 72s32.2 72 72 72c19.1 0 36.5-7.4 49.4-19.6 9.6-9.1 24.8-8.7 33.9 1s8.7 24.8-1 33.9c-15.6 14.8-35.3 25.4-57.1 30.1l0 10.7c0 13.3-10.7 24-24 24s-24-10.7-24-24l0-10.2c-55.4-10.6-97.3-59.4-97.3-117.8S144.6 148.8 200 138.2l0-10.2c0-13.3 10.7-24 24-24s24 10.7 24 24z"/></svg>