<svg xmlns="http://www.w3.org/2000/svg" viewBox="0 0 448 512"><path fill="currentColor" d="M64 80c-8.8 0-16 7.2-16 16l0 320c0 8.8 7.2 16 16 16l320 0c8.8 0 16-7.2 16-16l0-320c0-8.8-7.2-16-16-16L64 80zM0 96C0 60.7 28.7 32 64 32l320 0c35.3 0 64 28.7 64 64l0 320c0 35.3-28.7 64-64 64L64 480c-35.3 0-64-28.7-64-64L0 96zM120 352l208 0c13.3 0 24 10.7 24 24s-10.7 24-24 24l-208 0c-13.3 0-24-10.7-24-24s10.7-24 24-24zM79 217c-9.4-9.4-9.4-24.6 0-33.9l48-48c4.5-4.5 10.6-7 17-7s12.5 2.5 17 7l48 48c9.4 9.4 9.4 24.6 0 33.9s-24.6 9.4-33.9 0l-7-7 0 78.1c0 13.3-10.7 24-24 24s-24-10.7-24-24l0-78.1-7 7c-9.4 9.4-24.6 9.4-33.9 0zM239 183l48-48c9.4-9.4 24.6-9.4 33.9 0l48 48c9.4 9.4 9.4 24.6 0 33.9s-24.6 9.4-33.9 0l-7-7 0 78.1c0 13.3-10.7 24-24 24s-24-10.7-24-24l0-78.1-7 7c-9.4 9.4-24.6 9.4-33.9 0s-9.4-24.6 0-33.9z"/></svg>