<svg xmlns="http://www.w3.org/2000/svg" viewBox="0 0 448 512"><path fill="currentColor" d="M384 80c8.8 0 16 7.2 16 16l0 320c0 8.8-7.2 16-16 16L64 432c-8.8 0-16-7.2-16-16L48 96c0-8.8 7.2-16 16-16l320 0zM64 32C28.7 32 0 60.7 0 96L0 416c0 35.3 28.7 64 64 64l320 0c35.3 0 64-28.7 64-64l0-320c0-35.3-28.7-64-64-64L64 32zm160 72c-8.8 0-16 7.2-16 16l0 16-45.7 0c-14.5 0-26.3 11.8-26.3 26.3l0 185.1c0 15.8 12.8 28.6 28.6 28.6l43.4 0 0 16c0 8.8 7.2 16 16 16s16-7.2 16-16l0-16 24 0c39.8 0 72-32.2 72-72 0-23-10.8-43.5-27.6-56.7 7.4-11.3 11.6-24.8 11.6-39.3 0-39.8-32.2-72-72-72l-8 0 0-16c0-8.8-7.2-16-16-16zm-16 80l0 48-24 0 0-48 24 0zm32 48l0-48 8 0c13.3 0 24 10.7 24 24s-10.7 24-24 24l-8 0zm-32 48l0 48-24 0 0-48 24 0zm32 48l0-48 24 0c13.3 0 24 10.7 24 24s-10.7 24-24 24l-24 0z"/></svg>