<svg xmlns="http://www.w3.org/2000/svg" viewBox="0 0 448 512"><path fill="currentColor" d="M64 80c-8.8 0-16 7.2-16 16l0 320c0 8.8 7.2 16 16 16l320 0c8.8 0 16-7.2 16-16l0-320c0-8.8-7.2-16-16-16L64 80zM0 96C0 60.7 28.7 32 64 32l320 0c35.3 0 64 28.7 64 64l0 320c0 35.3-28.7 64-64 64L64 480c-35.3 0-64-28.7-64-64L0 96zm143.2 65.7l26.6 97.6 31.4-98.6c3.2-10 12.4-16.7 22.9-16.7s19.7 6.8 22.9 16.7l31.4 98.6 26.6-97.6c3.5-12.8 16.7-20.3 29.5-16.8s20.3 16.7 16.8 29.5l-48 176c-2.8 10.3-12 17.5-22.7 17.7s-20.1-6.6-23.4-16.7L224 247.2 190.9 351.3c-3.2 10.1-12.7 16.9-23.4 16.7s-19.9-7.4-22.7-17.7l-48-176c-3.5-12.8 4.1-26 16.8-29.5s26 4.1 29.5 16.8z"/></svg>