<svg xmlns="http://www.w3.org/2000/svg" viewBox="0 0 448 512"><path fill="currentColor" d="M64 80c-8.8 0-16 7.2-16 16l0 320c0 8.8 7.2 16 16 16l320 0c8.8 0 16-7.2 16-16l0-320c0-8.8-7.2-16-16-16L64 80zM0 96C0 60.7 28.7 32 64 32l320 0c35.3 0 64 28.7 64 64l0 320c0 35.3-28.7 64-64 64L64 480c-35.3 0-64-28.7-64-64L0 96zm248 48l0 8 16 0c13.3 0 24 10.7 24 24s-10.7 24-24 24l-57.4 0c-8 0-14.6 6.5-14.6 14.6 0 7.2 5.3 13.4 12.5 14.4l45.8 6.5c30.8 4.4 53.7 30.8 53.7 61.9 0 32.3-24.5 58.9-56 62.2l0 8.3c0 13.3-10.7 24-24 24s-24-10.7-24-24l0-8-24 0c-13.3 0-24-10.7-24-24s10.7-24 24-24l65.4 0c8 0 14.6-6.5 14.6-14.6 0-7.2-5.3-13.4-12.5-14.4l-45.8-6.5c-30.8-4.4-53.7-30.8-53.7-61.9 0-32.3 24.5-58.9 56-62.2l0-8.3c0-13.3 10.7-24 24-24s24 10.7 24 24z"/></svg>