<svg xmlns="http://www.w3.org/2000/svg" viewBox="0 0 448 512"><path fill="currentColor" d="M64 80c-8.8 0-16 7.2-16 16l0 320c0 8.8 7.2 16 16 16l320 0c8.8 0 16-7.2 16-16l0-320c0-8.8-7.2-16-16-16L64 80zM0 96C0 60.7 28.7 32 64 32l320 0c35.3 0 64 28.7 64 64l0 320c0 35.3-28.7 64-64 64L64 480c-35.3 0-64-28.7-64-64L0 96zm311.4 90.4l-67.3 56.1 70.6 86.2c8.4 10.3 6.9 25.4-3.4 33.8s-25.4 6.9-33.8-3.4l-70.3-85.9-31.1 25.9 0 44.8c0 13.3-10.7 24-24 24s-24-10.7-24-24l0-176c0-13.3 10.7-24 24-24s24 10.7 24 24l0 68.8 104.6-87.2c10.2-8.5 25.3-7.1 33.8 3.1s7.1 25.3-3.1 33.8z"/></svg>