<svg xmlns="http://www.w3.org/2000/svg" viewBox="0 0 448 512"><path fill="currentColor" d="M64 80c-8.8 0-16 7.2-16 16l0 320c0 8.8 7.2 16 16 16l320 0c8.8 0 16-7.2 16-16l0-320c0-8.8-7.2-16-16-16L64 80zM0 96C0 60.7 28.7 32 64 32l320 0c35.3 0 64 28.7 64 64l0 320c0 35.3-28.7 64-64 64L64 480c-35.3 0-64-28.7-64-64L0 96zM248 352c-13.3 0-24-10.7-24-24l0-144c0-10.5 6.8-19.7 16.8-22.9s20.9 .5 26.9 9.1l36.3 51.9 36.3-51.9c6-8.6 16.9-12.3 26.9-9.1S384 173.5 384 184l0 144c0 13.3-10.7 24-24 24s-24-10.7-24-24l0-67.9-12.3 17.6c-4.5 6.4-11.8 10.2-19.7 10.2s-15.2-3.8-19.7-10.2L272 260.1 272 328c0 13.3-10.7 24-24 24zM88 160l54.7 0c37.6 0 68 30.4 68 68 0 24.1-12.5 45.2-31.4 57.3l17.6 30.8c6.6 11.5 2.6 26.2-8.9 32.7s-26.2 2.6-32.7-8.9l-25.1-43.9-18.1 0 0 32c0 13.3-10.7 24-24 24s-24-10.7-24-24l0-144c0-13.3 10.7-24 24-24zm54.7 88c11 0 20-9 20-20s-9-20-20-20l-30.7 0 0 40 30.7 0z"/></svg>