<svg xmlns="http://www.w3.org/2000/svg" viewBox="0 0 576 512"><path fill="currentColor" d="M41-24.9c-9.4-9.4-24.6-9.4-33.9 0S-2.3-.3 7 9.1l528 528c9.4 9.4 24.6 9.4 33.9 0s9.4-24.6 0-33.9l-62.1-62.1c3.3-7.7 5.1-16.2 5.1-25.1l0-320c0-35.3-28.7-64-64-64L128 32c-8.9 0-17.4 1.8-25.1 5.1l-62-62zM145.8 80L448 80c8.8 0 16 7.2 16 16l0 302.2-99.6-99.6c21.7-17.6 35.6-44.5 35.6-74.6 0-53-43-96-96-96l-80 0c-8.4 0-16 3.2-21.7 8.5L145.8 80zM330.1 264.3L241.8 176 304 176c26.5 0 48 21.5 48 48 0 16.9-8.7 31.7-21.9 40.3zM362.2 432L128 432c-8.8 0-16-7.2-16-16l0-234.2-48-48 0 282.2c0 35.3 28.7 64 64 64l282.2 0-48-48zM192 296l0 64c0 13.3 10.7 24 24 24s24-10.7 24-24l0-40 10.2 0-58.2-58.2 0 34.2z"/></svg>