<svg xmlns="http://www.w3.org/2000/svg" viewBox="0 0 576 512"><path fill="currentColor" d="M144 56c0 13.3-10.7 24-24 24-22.1 0-40 17.9-40 40 0 13.3-10.7 24-24 24s-24-10.7-24-24c0-48.6 39.4-88 88-88 13.3 0 24 10.7 24 24zM32 216c0-13.3 10.7-24 24-24s24 10.7 24 24l0 80c0 13.3-10.7 24-24 24s-24-10.7-24-24l0-80zM56 368c13.3 0 24 10.7 24 24 0 22.1 17.9 40 40 40l122.7 0c2.8 16.8 7.8 32.9 14.8 48L120 480c-48.6 0-88-39.4-88-88 0-13.3 10.7-24 24-24zM480 214c-15.3-3.9-31.4-6-48-6l0-88c0-22.1-17.9-40-40-40-13.3 0-24-10.7-24-24s10.7-24 24-24c48.6 0 88 39.4 88 88l0 94zM296 80l-80 0c-13.3 0-24-10.7-24-24s10.7-24 24-24l80 0c13.3 0 24 10.7 24 24s-10.7 24-24 24zm-8 320a144 144 0 1 1 288 0 144 144 0 1 1 -288 0zm144-80c-8.8 0-16 7.2-16 16l0 48-48 0c-8.8 0-16 7.2-16 16s7.2 16 16 16l48 0 0 48c0 8.8 7.2 16 16 16s16-7.2 16-16l0-48 48 0c8.8 0 16-7.2 16-16s-7.2-16-16-16l-48 0 0-48c0-8.8-7.2-16-16-16z"/></svg>