<svg xmlns="http://www.w3.org/2000/svg" viewBox="0 0 448 512"><path fill="currentColor" d="M64 80c-8.8 0-16 7.2-16 16l0 320c0 8.8 7.2 16 16 16l320 0c8.8 0 16-7.2 16-16l0-320c0-8.8-7.2-16-16-16L64 80zM0 96C0 60.7 28.7 32 64 32l320 0c35.3 0 64 28.7 64 64l0 320c0 35.3-28.7 64-64 64L64 480c-35.3 0-64-28.7-64-64L0 96zm176 64c0-26.5 21.5-48 48-48s48 21.5 48 48l0 80c0 26.5-21.5 48-48 48s-48-21.5-48-48l0-80zm-72 48c13.3 0 24 10.7 24 24l0 8c0 53 43 96 96 96s96-43 96-96l0-8c0-13.3 10.7-24 24-24s24 10.7 24 24l0 8c0 71.4-51.9 130.6-120 142l0 2c0 13.3-10.7 24-24 24s-24-10.7-24-24l0-2C131.9 370.6 80 311.4 80 240l0-8c0-13.3 10.7-24 24-24z"/></svg>