<svg xmlns="http://www.w3.org/2000/svg" viewBox="0 0 448 512"><path fill="currentColor" d="M64 80c-8.8 0-16 7.2-16 16l0 320c0 8.8 7.2 16 16 16l17.1 0c7.8-54.3 54.4-96 110.9-96l64 0c56.4 0 103.1 41.7 110.9 96l17.1 0c8.8 0 16-7.2 16-16l0-320c0-8.8-7.2-16-16-16L64 80zm66 352l188 0c-7.1-27.6-32.2-48-62-48l-64 0c-29.8 0-54.9 20.4-62 48zM0 96C0 60.7 28.7 32 64 32l320 0c35.3 0 64 28.7 64 64l0 320c0 35.3-28.7 64-64 64L64 480c-35.3 0-64-28.7-64-64L0 96zm224 72a40 40 0 1 0 0 80 40 40 0 1 0 0-80zm88 40a88 88 0 1 1 -176 0 88 88 0 1 1 176 0z"/></svg>