<svg xmlns="http://www.w3.org/2000/svg" viewBox="0 0 448 512"><path fill="currentColor" d="M384 432c8.8 0 16-7.2 16-16l0-320c0-8.8-7.2-16-16-16L64 80c-8.8 0-16 7.2-16 16l0 320c0 8.8 7.2 16 16 16l320 0zm64-16c0 35.3-28.7 64-64 64L64 480c-35.3 0-64-28.7-64-64L0 96C0 60.7 28.7 32 64 32l320 0c35.3 0 64 28.7 64 64l0 320zM168 352c-9.7 0-18.5-5.8-22.2-14.8s-1.7-19.3 5.2-26.2l35-35-67-67c-9.4-9.4-9.4-24.6 0-33.9l24-24c9.4-9.4 24.6-9.4 33.9 0l67 67 35-35c6.9-6.9 17.2-8.9 26.2-5.2S320 190.3 320 200l0 128c0 13.3-10.7 24-24 24l-128 0z"/></svg>