<svg xmlns="http://www.w3.org/2000/svg" viewBox="0 0 448 512"><path fill="currentColor" d="M64 80c-8.8 0-16 7.2-16 16l0 320c0 8.8 7.2 16 16 16l320 0c8.8 0 16-7.2 16-16l0-320c0-8.8-7.2-16-16-16L64 80zM0 96C0 60.7 28.7 32 64 32l320 0c35.3 0 64 28.7 64 64l0 320c0 35.3-28.7 64-64 64L64 480c-35.3 0-64-28.7-64-64L0 96zm152 32.7c9.8-2.7 20.1 2.4 24 11.8l20.3 48.7c3.4 8.3 1.1 17.8-5.9 23.5l-13.6 11.1c16.1 35 43.8 63.6 78.1 80.9l12.3-15.1c5.7-6.9 15.2-9.3 23.5-5.9l48.7 20.3c9.4 3.9 14.4 14.2 11.8 24l-.8 2.8c-8.8 32.3-40.1 59.9-78.2 51.8-87.5-18.5-156.3-87.4-174.9-174.9-8.1-38.1 19.5-69.4 51.8-78.2l2.8-.8z"/></svg>