<svg xmlns="http://www.w3.org/2000/svg" viewBox="0 0 448 512"><path fill="currentColor" d="M384 432c8.8 0 16-7.2 16-16l0-320c0-8.8-7.2-16-16-16L64 80c-8.8 0-16 7.2-16 16l0 320c0 8.8 7.2 16 16 16l320 0zm64-16c0 35.3-28.7 64-64 64L64 480c-35.3 0-64-28.7-64-64L0 96C0 60.7 28.7 32 64 32l320 0c35.3 0 64 28.7 64 64l0 320zM212.7 387.3l-104-104c-4.6-4.6-5.9-11.5-3.5-17.4s8.3-9.9 14.8-9.9l72 0 0-104c0-13.3 10.7-24 24-24l16 0c13.3 0 24 10.7 24 24l0 104 72 0c6.5 0 12.3 3.9 14.8 9.9s1.1 12.9-3.5 17.4l-104 104c-6.2 6.2-16.4 6.2-22.6 0z"/></svg>