<svg xmlns="http://www.w3.org/2000/svg" viewBox="0 0 448 512"><path fill="currentColor" d="M64 80c-8.8 0-16 7.2-16 16l0 320c0 8.8 7.2 16 16 16l320 0c8.8 0 16-7.2 16-16l0-320c0-8.8-7.2-16-16-16L64 80zM0 96C0 60.7 28.7 32 64 32l320 0c35.3 0 64 28.7 64 64l0 320c0 35.3-28.7 64-64 64L64 480c-35.3 0-64-28.7-64-64L0 96zm176 49.3l62 0c36.5 0 66 29.6 66 66 0 27.1-16.6 51.5-41.9 61.4l-44.7 17.6c-12.9 5.1-22.1 16.3-24.6 29.6l79.3 0c13.3 0 24 10.7 24 24s-10.7 24-24 24l-104 0c-13.3 0-24-10.7-24-24l0-16.4c0-36.2 22.1-68.7 55.8-81.9l44.7-17.6c6.9-2.7 11.4-9.4 11.4-16.8 0-10-8.1-18-18-18l-62 0c-13.3 0-24-10.7-24-24s10.7-24 24-24z"/></svg>