<svg xmlns="http://www.w3.org/2000/svg" viewBox="0 0 448 512"><path fill="currentColor" d="M64 80c-8.8 0-16 7.2-16 16l0 320c0 8.8 7.2 16 16 16l320 0c8.8 0 16-7.2 16-16l0-320c0-8.8-7.2-16-16-16L64 80zM0 96C0 60.7 28.7 32 64 32l320 0c35.3 0 64 28.7 64 64l0 320c0 35.3-28.7 64-64 64L64 480c-35.3 0-64-28.7-64-64L0 96zM142 256c0 38 26.5 69.8 62 78l0-86c0-11 9-20 20-20 10.1 0 18.4 7.5 19.8 17.2 10.8-5.8 23.1-9.2 36.2-9.2 11 0 20 9 20 20s-9 20-20 20c-19.9 0-36 16.1-36 36l0 20.9c12.5-3.6 23.7-10.1 32.9-18.7 9.6-9.1 24.8-8.7 33.9 1s8.7 24.8-1 33.9C286.9 370.7 256 384 222 384 151.3 384 94 326.7 94 256s57.3-128 128-128c34 0 65 13.3 87.9 34.9 9.6 9.1 10.1 24.3 1 33.9s-24.3 10.1-33.9 1c-14.3-13.5-33.6-21.8-54.9-21.8-44.2 0-80 35.8-80 80z"/></svg>