<svg xmlns="http://www.w3.org/2000/svg" viewBox="0 0 448 512"><path fill="currentColor" d="M64 80c-8.8 0-16 7.2-16 16l0 320c0 8.8 7.2 16 16 16l320 0c8.8 0 16-7.2 16-16l0-320c0-8.8-7.2-16-16-16L64 80zM0 96C0 60.7 28.7 32 64 32l320 0c35.3 0 64 28.7 64 64l0 320c0 35.3-28.7 64-64 64L64 480c-35.3 0-64-28.7-64-64L0 96zm224 32l0 8.1c1.3 0 2.7-.1 4-.1 4 0 8.1 .2 12 .6l0-8.6c0-8.8 7.2-16 16-16s16 7.2 16 16l0 16c39.3 14.9 69 49.2 77.5 91.2 2.6 13-5.8 25.7-18.7 28.3s-25.7-5.8-28.3-18.7C298.6 225.6 287.4 209 272 198l0 26c0 8.8-7.2 16-16 16s-16-7.2-16-16l0-39.1c-3.9-.6-7.9-.9-12-.9-1.3 0-2.7 0-4 .1l0 39.9c0 8.8-7.2 16-16 16s-16-7.2-16-16l0-30.9c-23.8 12.8-40 38-40 66.9 0 42 34 76 76 76l84 0c13.3 0 24 10.7 24 24s-10.7 24-24 24l-176 0c-13.3 0-24-10.7-24-24 0-11.4 7.9-20.9 18.5-23.4-16.6-21.1-26.5-47.7-26.5-76.6 0-56 37.1-103.3 88-118.7l0-13.3c0-8.8 7.2-16 16-16s16 7.2 16 16z"/></svg>