<svg xmlns="http://www.w3.org/2000/svg" viewBox="0 0 448 512"><path fill="currentColor" d="M384 80c8.8 0 16 7.2 16 16l0 320c0 8.8-7.2 16-16 16L64 432c-8.8 0-16-7.2-16-16L48 96c0-8.8 7.2-16 16-16l320 0zM64 32C28.7 32 0 60.7 0 96L0 416c0 35.3 28.7 64 64 64l320 0c35.3 0 64-28.7 64-64l0-320c0-35.3-28.7-64-64-64L64 32zm80 120c0-13.3-10.7-24-24-24s-24 10.7-24 24l0 208c0 13.3 10.7 24 24 24s24-10.7 24-24l0-38.1 15.8-15.8 35.1 65.2c6.3 11.7 20.8 16 32.5 9.8s16-20.8 9.8-32.5L195.2 270.7 233 233c9.4-9.4 9.4-24.6 0-33.9s-24.6-9.4-33.9 0l-55 55 0-102.1zm136 40c-13.3 0-24 10.7-24 24l0 144c0 13.3 10.7 24 24 24s24-10.7 24-24l0-81.4c0-8.1 3.2-15.9 9-21.7s13.5-9 21.7-9l9.4 0c13.3 0 24-10.7 24-24s-10.7-24-24-24l-9.4 0c-11.3 0-22.3 2.4-32.4 7-3.6-8.8-12.2-15-22.2-15zm64 208a24 24 0 1 0 0-48 24 24 0 1 0 0 48z"/></svg>