<svg xmlns="http://www.w3.org/2000/svg" viewBox="0 0 448 512"><path fill="currentColor" d="M64 80c-8.8 0-16 7.2-16 16l0 320c0 8.8 7.2 16 16 16l320 0c8.8 0 16-7.2 16-16l0-320c0-8.8-7.2-16-16-16L64 80zM0 96C0 60.7 28.7 32 64 32l320 0c35.3 0 64 28.7 64 64l0 320c0 35.3-28.7 64-64 64L64 480c-35.3 0-64-28.7-64-64L0 96zm152 24l152 0c8.8 0 16 7.2 16 16s-7.2 16-16 16l-44.1 0c9.3 11.3 15.9 25 18.7 40l25.5 0c8.8 0 16 7.2 16 16s-7.2 16-16 16l-25.5 0c-6.1 33-30.5 59.5-62.3 68.6L287 349.3c10.3 8.3 12 23.4 3.7 33.7s-23.4 12-33.7 3.8l-120-96c-8-6.4-11-17.1-7.7-26.7S141.8 248 152 248l40 0c16.4 0 30.5-9.9 36.7-24L144 224c-8.8 0-16-7.2-16-16s7.2-16 16-16l84.7 0c-6.2-14.1-20.3-24-36.7-24l-40 0c-13.3 0-24-10.7-24-24s10.7-24 24-24z"/></svg>