<svg xmlns="http://www.w3.org/2000/svg" viewBox="0 0 448 512"><path fill="currentColor" d="M64 80c-8.8 0-16 7.2-16 16l0 320c0 8.8 7.2 16 16 16l320 0c8.8 0 16-7.2 16-16l0-320c0-8.8-7.2-16-16-16L64 80zM0 96C0 60.7 28.7 32 64 32l320 0c35.3 0 64 28.7 64 64l0 320c0 35.3-28.7 64-64 64L64 480c-35.3 0-64-28.7-64-64L0 96zm104 48l72 0c13.3 0 24 10.7 24 24s-10.7 24-24 24l-48 0 0 43.2 40 0c13.3 0 24 10.7 24 24s-10.7 24-24 24l-40 0 0 36.8 49.6 0c13.3 0 24 10.7 24 24s-10.7 24-24 24L104 368c-13.3 0-24-10.7-24-24l0-176c0-13.3 10.7-24 24-24zm152 0l88 0c8.3 0 16 4.3 20.4 11.4s4.8 15.9 1 23.4L294.8 320 344 320c13.3 0 24 10.7 24 24s-10.7 24-24 24l-88 0c-8.3 0-16-4.3-20.4-11.4s-4.8-15.9-1-23.4L305.2 192 256 192c-13.3 0-24-10.7-24-24s10.7-24 24-24z"/></svg>