<svg xmlns="http://www.w3.org/2000/svg" viewBox="0 0 448 512"><path fill="currentColor" d="M64 80c-8.8 0-16 7.2-16 16l0 320c0 8.8 7.2 16 16 16l320 0c8.8 0 16-7.2 16-16l0-320c0-8.8-7.2-16-16-16L64 80zM0 96C0 60.7 28.7 32 64 32l320 0c35.3 0 64 28.7 64 64l0 320c0 35.3-28.7 64-64 64L64 480c-35.3 0-64-28.7-64-64L0 96zm139.9 35.3c11.4-6.7 26.1-2.8 32.8 8.6l51.3 87.7 51.3-87.7c6.7-11.4 21.4-15.3 32.8-8.6s15.3 21.4 8.6 32.8L263 256 288 256c8.8 0 16 7.2 16 16s-7.2 16-16 16l-40 0 0 32 40 0c8.8 0 16 7.2 16 16s-7.2 16-16 16l-40 0 0 24c0 13.3-10.7 24-24 24s-24-10.7-24-24l0-24-40 0c-8.8 0-16-7.2-16-16s7.2-16 16-16l40 0 0-32-40 0c-8.8 0-16-7.2-16-16s7.2-16 16-16l25 0-53.7-91.9c-6.7-11.4-2.8-26.1 8.6-32.8z"/></svg>