<svg xmlns="http://www.w3.org/2000/svg" viewBox="0 0 448 512"><path fill="currentColor" d="M64 80c-8.8 0-16 7.2-16 16l0 320c0 8.8 7.2 16 16 16l320 0c8.8 0 16-7.2 16-16l0-320c0-8.8-7.2-16-16-16L64 80zM0 96C0 60.7 28.7 32 64 32l320 0c35.3 0 64 28.7 64 64l0 320c0 35.3-28.7 64-64 64L64 480c-35.3 0-64-28.7-64-64L0 96zm294.5 1.4c8.1 3.6 11.7 13 8.1 21.1L283.8 161c34.2 5.6 60.2 35.3 60.2 71l0 96c0 13.3-10.7 24-24 24s-24-10.7-24-24l0-96c0-13.3-10.7-24-24-24-3.6 0-7.1 .8-10.2 2.2L248 241.4 248 328c0 13.3-10.7 24-24 24-8.5 0-16-4.4-20.2-11.1l-29.1 65.6c-3.6 8.1-13 11.7-21.1 8.1s-11.7-13-8.1-21.1l54.6-122.9 0-38.6 0-.4c-.2-13.1-10.9-23.6-24-23.6-13.3 0-24 10.7-24 24l0 96c0 13.3-10.7 24-24 24s-24-10.7-24-24l0-80 0 0 0-64c0-13.3 10.7-24 24-24 6.6 0 12.6 2.7 17 7 9.4-4.5 19.9-7 31-7 18.4 0 35.3 6.9 48 18.3 6.7-6 14.6-10.8 23.2-13.9l26.2-58.9c3.6-8.1 13-11.7 21.1-8.1z"/></svg>