<svg xmlns="http://www.w3.org/2000/svg" viewBox="0 0 576 512"><path fill="currentColor" d="M96 80l320 0c8.8 0 16 7.2 16 16l0 52c10.2-2.6 21-4 32-4 5.4 0 10.8 .3 16 1l0-49c0-35.3-28.7-64-64-64L96 32C60.7 32 32 60.7 32 96l0 320c0 35.3 28.7 64 64 64l209.3 0c-.9-5.2-1.3-10.6-1.3-16.1l0-31.9-208 0c-8.8 0-16-7.2-16-16L80 96c0-8.8 7.2-16 16-16zm181.5 77.3c-4.1-8.1-12.4-13.3-21.5-13.3s-17.4 5.1-21.5 13.3l-88 176c-5.9 11.9-1.1 26.3 10.7 32.2s26.3 1.1 32.2-10.7l9.4-18.7 110.6 0c5.4-15.4 14.7-29 26.6-39.6l0-22-58.5-117.1zM256 221.7l33.2 66.3-66.3 0 33.2-66.3zm240 50.4l0 47.9-64 0 0-47.9c0-17.7 14.3-32 32-32s32 14.3 32 32zM352 368l0 96c0 26.5 21.5 48 48 48l128 0c26.5 0 48-21.5 48-48l0-96c0-20.9-13.4-38.7-32-45.3l0-50.6c0-44.2-35.8-80-80-80s-80 35.8-80 80l0 50.6c-18.6 6.6-32 24.4-32 45.3z"/></svg>