<svg xmlns="http://www.w3.org/2000/svg" viewBox="0 0 448 512"><path fill="currentColor" d="M384 80c8.8 0 16 7.2 16 16l0 320c0 8.8-7.2 16-16 16L64 432c-8.8 0-16-7.2-16-16L48 96c0-8.8 7.2-16 16-16l320 0zM64 32C28.7 32 0 60.7 0 96L0 416c0 35.3 28.7 64 64 64l320 0c35.3 0 64-28.7 64-64l0-320c0-35.3-28.7-64-64-64L64 32zM248 136c0-13.3-10.7-24-24-24s-24 10.7-24 24l0 2.2c-55.4 10.6-97.3 59.3-97.3 117.8S144.6 363.2 200 373.8l0 2.2c0 13.3 10.7 24 24 24s24-10.7 24-24l0-2.7c21.8-4.7 41.5-15.3 57.1-30.1 9.6-9.1 10.1-24.3 1-33.9s-24.3-10.1-33.9-1c-6.9 6.5-15.1 11.7-24.2 15.1l0-134.9c9.1 3.4 17.2 8.6 24.2 15.1 9.6 9.1 24.8 8.7 33.9-1s8.7-24.8-1-33.9c-15.6-14.8-35.3-25.4-57.1-30.1l0-2.7zm-48 51.7l0 136.7c-28.6-9.5-49.3-36.5-49.3-68.3s20.6-58.8 49.3-68.3z"/></svg>