<svg xmlns="http://www.w3.org/2000/svg" viewBox="0 0 448 512"><path fill="currentColor" d="M64 80c-8.8 0-16 7.2-16 16l0 320c0 8.8 7.2 16 16 16l320 0c8.8 0 16-7.2 16-16l0-320c0-8.8-7.2-16-16-16L64 80zM0 96C0 60.7 28.7 32 64 32l320 0c35.3 0 64 28.7 64 64l0 320c0 35.3-28.7 64-64 64L64 480c-35.3 0-64-28.7-64-64L0 96zm240 40c0-13.3 10.7-24 24-24s24 10.7 24 24l0 8 16 0c8.8 0 16 7.2 16 16s-7.2 16-16 16l-16 0 0 152c0 13.3-10.7 24-24 24-7.6 0-14.4-3.6-18.8-9.1-11.1 5.8-23.7 9.1-37.2 9.1-44.2 0-80-35.8-80-80s35.8-80 80-80c11.4 0 22.2 2.4 32 6.7l0-22.7-32 0c-8.8 0-16-7.2-16-16s7.2-16 16-16l32 0 0-8zM208 240a32 32 0 1 0 0 64 32 32 0 1 0 0-64zM112 392c0-8.8 7.2-16 16-16l192 0c8.8 0 16 7.2 16 16s-7.2 16-16 16l-192 0c-8.8 0-16-7.2-16-16z"/></svg>