<svg xmlns="http://www.w3.org/2000/svg" viewBox="0 0 448 512"><path fill="currentColor" d="M64 80c-8.8 0-16 7.2-16 16l0 320c0 8.8 7.2 16 16 16l320 0c8.8 0 16-7.2 16-16l0-320c0-8.8-7.2-16-16-16L64 80zM0 96C0 60.7 28.7 32 64 32l320 0c35.3 0 64 28.7 64 64l0 320c0 35.3-28.7 64-64 64L64 480c-35.3 0-64-28.7-64-64L0 96zM152 256c0 39.8 32.2 72 72 72 11.1 0 21.6-2.5 31-7l-25.9-25.9c-9.4-9.4-9.4-24.6 0-33.9s24.6-9.4 33.9 0L289 287c4.5-9.4 7-19.9 7-31 0-39.8-32.2-72-72-72s-72 32.2-72 72zm192 0c0 24.5-7.3 47.2-19.9 66.2L337 335c9.4 9.4 9.4 24.6 0 33.9s-24.6 9.4-33.9 0l-12.9-12.9c-19 12.6-41.7 19.9-66.2 19.9-66.3 0-120-53.7-120-120s53.7-120 120-120 120 53.7 120 120z"/></svg>