<svg xmlns="http://www.w3.org/2000/svg" viewBox="0 0 448 512"><path fill="currentColor" d="M384 80c8.8 0 16 7.2 16 16l0 320c0 8.8-7.2 16-16 16L64 432c-8.8 0-16-7.2-16-16L48 96c0-8.8 7.2-16 16-16l320 0zM64 32C28.7 32 0 60.7 0 96L0 416c0 35.3 28.7 64 64 64l320 0c35.3 0 64-28.7 64-64l0-320c0-35.3-28.7-64-64-64L64 32zM288 152l0 9.1c-27.3 5.2-48 29.3-48 58.1 0 28.2 19.9 52.5 47.6 58l23.5 4.7c5.2 1 9 5.6 9 11 0 6.2-5 11.2-11.2 11.2L272 304c-13.3 0-24 10.7-24 24s10.7 24 24 24l16 0 0 8c0 8.8 7.2 16 16 16s16-7.2 16-16l0-9.1c27.3-5.2 48-29.3 48-58.1 0-28.2-19.9-52.5-47.6-58L297 230.1c-5.2-1-9-5.6-9-11 0-6.2 5-11.2 11.2-11.2l28.8 0c13.3 0 24-10.7 24-24s-10.7-24-24-24l-8 0 0-8c0-8.8-7.2-16-16-16s-16 7.2-16 16zM160 239.4l14.4 48.6-28.8 0 14.4-48.6zm33 111.4c3.8 12.7 17.1 20 29.8 16.2s20-17.1 16.2-29.8L188 164.9c-3.7-12.4-15.1-20.9-28-20.9s-24.3 8.5-28 20.9L81 337.2c-3.8 12.7 3.5 26.1 16.2 29.8s26.1-3.5 29.8-16.2l4.4-14.8 57.2 0 4.4 14.8z"/></svg>