<svg xmlns="http://www.w3.org/2000/svg" viewBox="0 0 448 512"><path fill="currentColor" d="M88 32c13.3 0 24 10.7 24 24S101.3 80 88 80c-22.1 0-40 17.9-40 40 0 13.3-10.7 24-24 24S0 133.3 0 120C0 71.4 39.4 32 88 32zM24 192c13.3 0 24 10.7 24 24l0 80c0 13.3-10.7 24-24 24S0 309.3 0 296l0-80c0-13.3 10.7-24 24-24zm400 0c13.3 0 24 10.7 24 24l0 80c0 13.3-10.7 24-24 24s-24-10.7-24-24l0-80c0-13.3 10.7-24 24-24zm0-48c-13.3 0-24-10.7-24-24 0-22.1-17.9-40-40-40-13.3 0-24-10.7-24-24s10.7-24 24-24c48.6 0 88 39.4 88 88 0 13.3-10.7 24-24 24zm24 248c0 48.6-39.4 88-88 88-13.3 0-24-10.7-24-24s10.7-24 24-24c22.1 0 40-17.9 40-40 0-13.3 10.7-24 24-24s24 10.7 24 24zM48 392c0 22.1 17.9 40 40 40 13.3 0 24 10.7 24 24s-10.7 24-24 24c-48.6 0-88-39.4-88-88 0-13.3 10.7-24 24-24s24 10.7 24 24zm136 88c-13.3 0-24-10.7-24-24s10.7-24 24-24l80 0c13.3 0 24 10.7 24 24s-10.7 24-24 24l-80 0zM160 56c0-13.3 10.7-24 24-24l80 0c13.3 0 24 10.7 24 24s-10.7 24-24 24l-80 0c-13.3 0-24-10.7-24-24z"/></svg>