<svg xmlns="http://www.w3.org/2000/svg" viewBox="0 0 448 512"><path fill="currentColor" d="M64 80c-8.8 0-16 7.2-16 16l0 320c0 8.8 7.2 16 16 16l320 0c8.8 0 16-7.2 16-16l0-320c0-8.8-7.2-16-16-16L64 80zM0 96C0 60.7 28.7 32 64 32l320 0c35.3 0 64 28.7 64 64l0 320c0 35.3-28.7 64-64 64L64 480c-35.3 0-64-28.7-64-64L0 96zm314.5 40.8c8.4 10.2 6.9 25.4-3.3 33.8l-84.7 69.7 77.3 0c8.8 0 16 7.2 16 16s-7.2 16-16 16l-77.1 0 84.5 69.2c10.3 8.4 11.8 23.5 3.4 33.8S291 387 280.8 378.6L192 305.9 192 360c0 13.3-10.7 24-24 24s-24-10.7-24-24l0-87.8-15.8 0c-8.8 0-16-7.2-16-16s7.2-16 16-16l15.8 0 0-88.2c0-13.3 10.7-24 24-24s24 10.7 24 24l0 54.5 88.8-73c10.2-8.4 25.4-6.9 33.8 3.3z"/></svg>