<svg xmlns="http://www.w3.org/2000/svg" viewBox="0 0 448 512"><path fill="currentColor" d="M64 80c-8.8 0-16 7.2-16 16l0 320c0 8.8 7.2 16 16 16l320 0c8.8 0 16-7.2 16-16l0-320c0-8.8-7.2-16-16-16L64 80zM0 96C0 60.7 28.7 32 64 32l320 0c35.3 0 64 28.7 64 64l0 320c0 35.3-28.7 64-64 64L64 480c-35.3 0-64-28.7-64-64L0 96zm96.7 33.1c12.6-4 26.1 3 30.2 15.6l30.4 95.3 19.3 0 24.3-94c2.7-10.6 12.2-17.9 23.1-18s20.5 7.2 23.3 17.8l25.4 94.2 19.3 0 29.2-95.1c3.9-12.7 17.3-19.8 30-15.9s19.8 17.3 15.9 30L342 240 352 240c8.8 0 16 7.2 16 16s-7.2 16-16 16l-19.8 0-29.2 95.1c-3.1 10.2-12.7 17.1-23.4 16.9s-20-7.4-22.7-17.8l-25.4-94.2-13.7 0-24.3 94c-2.7 10.4-11.9 17.7-22.6 18s-20.3-6.5-23.5-16.7l-30.4-95.3-21 0c-8.8 0-16-7.2-16-16s7.2-16 16-16l10.8 0-25.7-80.7c-4-12.6 3-26.1 15.6-30.2zm71.2 144.2l.4-1.4-.8 0 .4 1.4zm113.7 0l.4-1.4-.8 0 .4 1.4z"/></svg>