<svg xmlns="http://www.w3.org/2000/svg" viewBox="0 0 448 512"><path fill="currentColor" d="M64 80c-8.8 0-16 7.2-16 16l0 320c0 8.8 7.2 16 16 16l320 0c8.8 0 16-7.2 16-16l0-320c0-8.8-7.2-16-16-16L64 80zM0 96C0 60.7 28.7 32 64 32l320 0c35.3 0 64 28.7 64 64l0 320c0 35.3-28.7 64-64 64L64 480c-35.3 0-64-28.7-64-64L0 96zM150.2 249.5c-.2-.5-.4-1-.6-1.5l-5.6 0c-8.8 0-16-7.2-16-16 0-8.7 6.9-15.7 15.5-16 0-46.5 37.5-88 88.1-88l2.1 0c19.7 0 38.8 6.4 54.5 18.2l14.2 10.6c10.6 8 12.8 23 4.8 33.6s-23 12.8-33.6 4.8l-14.2-10.6C252 179 243 176 233.7 176l-2.1 0c-23 0-40.1 18.9-40 40l80.5 0c8.8 0 16 7.2 16 16s-7.2 16-16 16l-71.5 0c2.1 7.9 3.2 16 3.5 24l68 0c8.8 0 16 7.2 16 16s-7.2 16-16 16l-72 0c-3.2 11.3-8.3 22.1-15.1 32L296 336c13.3 0 24 10.7 24 24s-10.7 24-24 24l-160 0c-9.2 0-17.5-5.2-21.6-13.5s-3-18 2.6-25.3L143.7 311c1.7-2.2 3.3-4.6 4.7-7l-4.4 0c-8.8 0-16-7.2-16-16s7.2-16 16-16l11.9 0c-.4-6.4-1.8-12.9-4.3-19l-1.4-3.5z"/></svg>