<svg xmlns="http://www.w3.org/2000/svg" viewBox="0 0 448 512"><path fill="currentColor" d="M64 80c-8.8 0-16 7.2-16 16l0 320c0 8.8 7.2 16 16 16l320 0c8.8 0 16-7.2 16-16l0-320c0-8.8-7.2-16-16-16L64 80zM0 96C0 60.7 28.7 32 64 32l320 0c35.3 0 64 28.7 64 64l0 320c0 35.3-28.7 64-64 64L64 480c-35.3 0-64-28.7-64-64L0 96zm192 8c8.8 0 16 7.2 16 16l0 16 16 0 0-16c0-8.8 7.2-16 16-16s16 7.2 16 16l0 16.4c36 4 64 34.5 64 71.6 0 14.5-4.3 28-11.6 39.3 16.8 13.2 27.6 33.7 27.6 56.7 0 39.8-32.2 72-72 72l-8 0 0 16c0 8.8-7.2 16-16 16s-16-7.2-16-16l0-16-16 0 0 16c0 8.8-7.2 16-16 16s-16-7.2-16-16l0-16-13.9 0c-14.4 0-26.1-11.7-26.1-26.1L136 160c0-13.3 10.7-24 24-24l16 0 0-16c0-8.8 7.2-16 16-16zm-8 80l0 48 64 0c13.3 0 24-10.7 24-24s-10.7-24-24-24l-64 0zm0 96l0 48 80 0c13.3 0 24-10.7 24-24s-10.7-24-24-24l-80 0z"/></svg>