<svg xmlns="http://www.w3.org/2000/svg" viewBox="0 0 448 512"><path fill="currentColor" d="M64 80c-8.8 0-16 7.2-16 16l0 320c0 8.8 7.2 16 16 16l320 0c8.8 0 16-7.2 16-16l0-320c0-8.8-7.2-16-16-16L64 80zM0 96C0 60.7 28.7 32 64 32l320 0c35.3 0 64 28.7 64 64l0 320c0 35.3-28.7 64-64 64L64 480c-35.3 0-64-28.7-64-64L0 96zm240.8 22.7c42.1-5.3 79.2 27.5 79.2 69.9 0 6.6-.9 13.1-2.7 19.3l2.7 0c8.8 0 16 7.2 16 16s-7.2 16-16 16l-192 0c-8.8 0-16-7.2-16-16s7.2-16 16-16l133 0c6.8-4 11-11.4 11-19.3 0-13.5-11.8-24-25.3-22.3L171 175.8c-13.2 1.6-25.1-7.7-26.8-20.8s7.7-25.1 20.8-26.8l75.8-9.5zM244.6 272l75.4 0c8.8 0 16 7.2 16 16s-7.2 16-16 16l-132.9 0c-6.8 4.1-11.1 11.6-11.1 19.6 0 13.6 11.9 24.3 25.4 22.8l91.9-10.2c13.2-1.5 25 8 26.5 21.2s-8 25-21.2 26.5l-91.9 10.2c-42 4.7-78.7-28.2-78.7-70.5 0-6.7 1-13.3 2.8-19.6l-2.8 0c-8.8 0-16-7.2-16-16s7.2-16 16-16l116.6 0z"/></svg>