<svg xmlns="http://www.w3.org/2000/svg" viewBox="0 0 448 512"><path fill="currentColor" d="M64 80c-8.8 0-16 7.2-16 16l0 320c0 8.8 7.2 16 16 16l320 0c8.8 0 16-7.2 16-16l0-320c0-8.8-7.2-16-16-16L64 80zM0 96C0 60.7 28.7 32 64 32l320 0c35.3 0 64 28.7 64 64l0 320c0 35.3-28.7 64-64 64L64 480c-35.3 0-64-28.7-64-64L0 96zm168 48l80 0c39.8 0 72 32.2 72 72 0 28.9-17 53.8-41.6 65.3l30.2 50.3c6.8 11.4 3.1 26.1-8.2 32.9s-26.1 3.1-32.9-8.2l-41-68.3-34.4 0 0 56c0 13.3-10.7 24-24 24s-24-10.7-24-24l0-176c0-13.3 10.7-24 24-24zm72 96l8 0c13.3 0 24-10.7 24-24s-10.7-24-24-24l-56 0 0 48 48 0z"/></svg>