<svg xmlns="http://www.w3.org/2000/svg" viewBox="0 0 448 512"><path fill="currentColor" d="M384 80c8.8 0 16 7.2 16 16l0 320c0 8.8-7.2 16-16 16L64 432c-8.8 0-16-7.2-16-16L48 96c0-8.8 7.2-16 16-16l320 0zM64 32C28.7 32 0 60.7 0 96L0 416c0 35.3 28.7 64 64 64l320 0c35.3 0 64-28.7 64-64l0-320c0-35.3-28.7-64-64-64L64 32zM171.7 138.3c-6-8.6-16.9-12.4-26.9-9.2S128 141.5 128 152l0 104-16 0c-8.8 0-16 7.2-16 16s7.2 16 16 16l16 0 0 72c0 13.3 10.7 24 24 24s24-10.7 24-24l0-72 41 0 59.3 85.7c6 8.6 16.9 12.4 26.9 9.2S320 370.5 320 360l0-72 16 0c8.8 0 16-7.2 16-16s-7.2-16-16-16l-16 0 0-104c0-13.3-10.7-24-24-24s-24 10.7-24 24l0 104-18.8 0-81.5-117.7zM194.8 256l-18.8 0 0-27.2 18.8 27.2z"/></svg>