<svg xmlns="http://www.w3.org/2000/svg" viewBox="0 0 448 512"><path fill="currentColor" d="M64 80c-8.8 0-16 7.2-16 16l0 320c0 8.8 7.2 16 16 16l320 0c8.8 0 16-7.2 16-16l0-320c0-8.8-7.2-16-16-16L64 80zM0 96C0 60.7 28.7 32 64 32l320 0c35.3 0 64 28.7 64 64l0 320c0 35.3-28.7 64-64 64L64 480c-35.3 0-64-28.7-64-64L0 96zm184 32c13.3 0 24 10.7 24 24l0 44.5 58.9-19.6c8.4-2.8 17.4 1.7 20.2 10.1s-1.7 17.4-10.1 20.2l-69.1 23 0 30.3 58.9-19.6c8.4-2.8 17.4 1.7 20.2 10.1s-1.7 17.4-10.1 20.2l-69.1 23 0 41.8 48 0c26.5 0 48-21.5 48-48 0-13.3 10.7-24 24-24s24 10.7 24 24c0 53-43 96-96 96l-72 0c-13.3 0-24-10.7-24-24l0-49.8-26.9 9c-8.4 2.8-17.4-1.7-20.2-10.1s1.7-17.4 10.1-20.2l37.1-12.4 0-30.3-26.9 9c-8.4 2.8-17.4-1.7-20.2-10.1s1.7-17.4 10.1-20.2l37.1-12.4 0-60.5c0-13.3 10.7-24 24-24z"/></svg>