<svg xmlns="http://www.w3.org/2000/svg" viewBox="0 0 448 512"><path fill="currentColor" d="M64 80c-8.8 0-16 7.2-16 16l0 320c0 8.8 7.2 16 16 16l320 0c8.8 0 16-7.2 16-16l0-320c0-8.8-7.2-16-16-16L64 80zM0 96C0 60.7 28.7 32 64 32l320 0c35.3 0 64 28.7 64 64l0 320c0 35.3-28.7 64-64 64L64 480c-35.3 0-64-28.7-64-64L0 96zm160 56c0-13.3 10.7-24 24-24l112 0c13.3 0 24 10.7 24 24s-10.7 24-24 24l-88 0 0 40 56 0c13.3 0 24 10.7 24 24s-10.7 24-24 24l-56 0 0 24 32 0c8.8 0 16 7.2 16 16s-7.2 16-16 16l-32 0 0 40c0 13.3-10.7 24-24 24s-24-10.7-24-24l0-40-16 0c-8.8 0-16-7.2-16-16s7.2-16 16-16l16 0 0-136z"/></svg>