<svg xmlns="http://www.w3.org/2000/svg" viewBox="0 0 448 512"><path fill="currentColor" d="M64 80c-8.8 0-16 7.2-16 16l0 320c0 8.8 7.2 16 16 16l320 0c8.8 0 16-7.2 16-16l0-320c0-8.8-7.2-16-16-16L64 80zM0 96C0 60.7 28.7 32 64 32l320 0c35.3 0 64 28.7 64 64l0 320c0 35.3-28.7 64-64 64L64 480c-35.3 0-64-28.7-64-64L0 96zm104 48c22.1 0 40 17.9 40 40l0 8c0 13.3-10.7 24-24 24-2.8 0-5.5-.5-8-1.4l0 82.7c2.5-.9 5.2-1.4 8-1.4 13.3 0 24 10.7 24 24l0 8c0 22.1-17.9 40-40 40s-40-17.9-40-40l0-144c0-22.1 17.9-40 40-40zm104 24l0 64 16 0 0-64c0-13.3 10.7-24 24-24s24 10.7 24 24l0 176c0 13.3-10.7 24-24 24s-24-10.7-24-24l0-64-16 0 0 64c0 13.3-10.7 24-24 24s-24-10.7-24-24l0-176c0-13.3 10.7-24 24-24s24 10.7 24 24zm104-24l48 0c13.3 0 24 10.7 24 24s-10.7 24-24 24l-24 0 0 40 16 0c13.3 0 24 10.7 24 24s-10.7 24-24 24l-16 0 0 64c0 13.3-10.7 24-24 24s-24-10.7-24-24l0-176c0-13.3 10.7-24 24-24z"/></svg>