<svg xmlns="http://www.w3.org/2000/svg" viewBox="0 0 448 512"><path fill="currentColor" d="M64 80c-8.8 0-16 7.2-16 16l0 320c0 8.8 7.2 16 16 16l320 0c8.8 0 16-7.2 16-16l0-320c0-8.8-7.2-16-16-16L64 80zM0 96C0 60.7 28.7 32 64 32l320 0c35.3 0 64 28.7 64 64l0 320c0 35.3-28.7 64-64 64L64 480c-35.3 0-64-28.7-64-64L0 96zm136 48c0-13.3 10.7-24 24-24l64 0c43.3 0 80.4 26.4 96 64l16 0c8.8 0 16 7.2 16 16s-7.2 16-16 16l-8.3 0c.4 5.3 .4 10.7 0 16l8.3 0c8.8 0 16 7.2 16 16s-7.2 16-16 16l-16 0c-15.7 37.6-52.8 64-96 64l-40 0 0 40c0 13.3-10.7 24-24 24s-24-10.7-24-24l0-104-8 0c-8.8 0-16-7.2-16-16s7.2-16 16-16l8 0 0-16-8 0c-8.8 0-16-7.2-16-16s7.2-16 16-16l8 0 0-40zm88 24l-40 0 0 16 79.2 0c-10.1-9.9-23.9-16-39.2-16zm-40 64l95.4 0c.4-2.6 .6-5.3 .6-8s-.2-5.4-.6-8l-95.4 0 0 16zm0 32l0 16 40 0c15.3 0 29.1-6.1 39.2-16L184 264z"/></svg>