<svg xmlns="http://www.w3.org/2000/svg" viewBox="0 0 448 512"><path fill="currentColor" d="M64 80c-8.8 0-16 7.2-16 16l0 320c0 8.8 7.2 16 16 16l320 0c8.8 0 16-7.2 16-16l0-320c0-8.8-7.2-16-16-16L64 80zM0 96C0 60.7 28.7 32 64 32l320 0c35.3 0 64 28.7 64 64l0 320c0 35.3-28.7 64-64 64L64 480c-35.3 0-64-28.7-64-64L0 96zM150.2 249.5C126.3 191.6 168.9 128 231.6 128l2.2 0c19.7 0 38.8 6.4 54.5 18.2l14.2 10.6c10.6 8 12.8 23 4.8 33.6s-23 12.8-33.6 4.8l-14.2-10.6C252 179 243 176 233.7 176l-2.2 0c-28.5 0-47.8 28.9-37 55.2l1.4 3.5c2.9 6.9 4.9 14.1 6.3 21.3l69.7 0c8.8 0 16 7.2 16 16s-7.2 16-16 16l-68.8 0c-2.1 17-8.3 33.5-18.3 48L296 336c13.3 0 24 10.7 24 24s-10.7 24-24 24l-160 0c-9.2 0-17.5-5.2-21.6-13.5s-3-18 2.6-25.3L143.7 311c5.4-6.9 9-14.7 10.8-23L144 288c-8.8 0-16-7.2-16-16s7.2-16 16-16l8.8 0c-.4-1-.7-2-1.1-3l-1.4-3.5z"/></svg>