<svg xmlns="http://www.w3.org/2000/svg" viewBox="0 0 448 512"><path fill="currentColor" d="M64 80c-8.8 0-16 7.2-16 16l0 320c0 8.8 7.2 16 16 16l320 0c8.8 0 16-7.2 16-16l0-320c0-8.8-7.2-16-16-16L64 80zM0 96C0 60.7 28.7 32 64 32l320 0c35.3 0 64 28.7 64 64l0 320c0 35.3-28.7 64-64 64L64 480c-35.3 0-64-28.7-64-64L0 96zm344 64c0 30.9-25.1 56-56 56-10.8 0-20.9-3.1-29.5-8.4l-75 40.9c.3 2.5 .5 5 .5 7.5s-.2 5-.5 7.5l75 40.9c8.6-5.3 18.7-8.4 29.5-8.4 30.9 0 56 25.1 56 56s-25.1 56-56 56-56-25.1-56-56c0-5.3 .7-10.5 2.1-15.3l-69.8-38.1c-9.8 8.4-22.5 13.4-36.3 13.4-30.9 0-56-25.1-56-56s25.1-56 56-56c13.9 0 26.6 5 36.3 13.4l69.8-38.1c-1.4-4.9-2.1-10-2.1-15.3 0-30.9 25.1-56 56-56s56 25.1 56 56z"/></svg>