<svg xmlns="http://www.w3.org/2000/svg" viewBox="0 0 512 512"><path fill="currentColor" d="M147.8 48c-55.1 0-99.7 44.7-99.7 99.7s44.7 99.7 99.7 99.7c22.4 0 40 19.2 38 41.5l-.7 7.7c-1 11-5.9 20.4-12 27.3-13.1 14.9-21.1 34.4-21.1 55.8 0 39.1 26.6 72 62.8 81.5-14.3-20-22.8-44.4-22.8-70.9 0-25 7.7-49.3 22-69.8l35-49.9c35.8-51.2 55.1-112.2 55.1-174.6l0-20.8c0-6.2 5-11.2 11.2-11.2 15.2 0 28.7 7.6 36.8 19.2 8.1-11.6 21.6-19.2 36.8-19.2 6.2 0 11.2 5 11.2 11.2l0 20.8 7.6 0c53.4 0 98.2 40.5 103.5 93.7l.8 8c.5 4.5-.4 9.1-2.4 13.1l-4.1 8.2c-14.4 28.8-42 48.1-73.4 52.3l0 54.8c24.3 19 40 48.7 40 82 0 20.6-6 39.8-16.3 56l33.4 0c13.3 0 24 10.7 24 24s-10.7 24-24 24l-252.8 0c-73 0-132.3-59.2-132.3-132.3 0-32.3 11.6-61.9 30.8-84.8-75.5-6.6-134.8-69.9-134.8-147.2 0-81.6 66.1-147.7 147.7-147.7 59.6 0 110.9 35.3 134.2 86 5.5 12 .3 26.3-11.8 31.8s-26.3 .3-31.8-11.8C222.6 71.7 188 48 147.8 48zM352.1 464l16 0c30.9 0 56-25.1 56-56s-25.1-56-56-56c-5.9 0-11.5 .9-16.8 2.6-12.6 4-26.1-3.1-30.1-15.7s3.1-26.1 15.7-30.1c9.9-3.1 20.4-4.8 31.2-4.8 5.4 0 10.8 .4 16 1.2l0-57.2c0-13.3 10.7-24 24-24l11.5 0c18.2 0 34.8-10.3 42.9-26.5l1-2-.1-1.1c-2.9-28.6-27-50.4-55.7-50.4l-58.9 0c-7.6 55.2-28.2 108.1-60.4 154.2l-35 49.9c-8.7 12.4-13.3 27.1-13.3 42.2 0 40.7 33 73.7 73.7 73.7l38.3 0zm32-288a16 16 0 1 1 32 0 16 16 0 1 1 -32 0z"/></svg>