<svg xmlns="http://www.w3.org/2000/svg" viewBox="0 0 512 512"><path fill="currentColor" d="M140.2 4.3c-6.3-6.1-16.3-6.1-22.5 .1l-2.8 2.8c-34 34-33.3 87.7-1.9 121L98.6 142.5c-18.7 18.7-18.7 49.1 0 67.9l28.2 28.2c9.4 9.4 9.4 24.7 0 34.2-9.4 9.4-24.6 9.4-34.1 .1l-.1-.1c-3.2-3.2-9-9-17.4-17.4-18.7-18.7-49.1-18.7-67.9 0-6.2 6.2-6.2 16.4 0 22.6s16.4 6.2 22.6 0 16.4-6.2 22.6 0c8.4 8.4 14.2 14.2 17.4 17.4l.1 .1 38.2 38.2c-4.9 1.8-9.7 4.4-14.1 7.7L65 363.6c-3.5 2.6-7.7 4-12 4-11 0-19.9-8.9-19.9-19.9l0-12.1c0-8.8-7.2-16-16-16s-16 7.2-16 16l0 12.1c0 28.7 23.2 51.9 51.9 51.9 11.3 0 22.3-3.7 31.4-10.5L113.6 367c9.1-6.9 21.9-6 30 2l.2 .2c8 8.1 8.8 20.9 2 30l-22.2 29.3c-6.8 9-10.5 20-10.5 31.4 0 28.7 23.2 51.9 51.9 51.9l12.1 0c8.8 0 16-7.2 16-16s-7.2-16-16-16l-12.1 0c-11 0-19.9-8.9-19.9-19.9 0-4.3 1.4-8.6 4-12l22.2-29.3c3.3-4.4 5.9-9.1 7.7-14.1l43.3 43.3 0 0 11.3 11.3c6.2 6.2 6.2 16.4 0 22.6s-6.2 16.4 0 22.6 16.4 6.2 22.6 0c18.7-18.7 18.7-49.1 0-67.9L239.8 420c-9.3-9.3-9.3-24.6 .1-34.1s24.7-9.4 34.1-.1l28.3 28.3c18.7 18.7 49.1 18.7 67.9 0l14.3-14.3c33.3 31.4 87 32.1 121-1.9l2.8-2.8c6.2-6.2 6.3-16.3 .1-22.5l-36.4-37.1c-18.7-19-49.3-19.2-68.2-.3l-56.3 56.4c-6.2 6.2-16.4 6.2-22.6 0l-28.3-28.3c-3.9-3.9-8.2-7.1-12.9-9.6 47-6.4 103.6-37.7 150.4-111l58.6 13.1c5.3 1.2 10.8-.4 14.6-4.1s5.6-9.2 4.6-14.5L489 118.9c9-29.9 16.8-63.2 23-100.3 .8-5.1-.8-10.3-4.5-13.9S498.7-.6 493.6 .2c-37.4 6.2-71 14.1-101.2 23.3L276.3 .3C271-.8 265.5 .9 261.7 4.8s-5.4 9.4-4.2 14.7l13 58.5c-73.7 47.2-104.8 104.4-111 151.7-2.6-4.9-5.9-9.5-10.1-13.7l-28.2-28.2c-6.2-6.2-6.2-16.4 0-22.6l56.4-56.4c18.9-18.9 18.7-49.5-.3-68.2L140.2 4.3zM185.2 264a16 16 0 1 1 0 32 16 16 0 1 1 0-32zm32 64a16 16 0 1 1 32 0 16 16 0 1 1 -32 0zM432.5 62c11.3-2.8 21.5 7.3 18.6 18.6-41.7 165.6-112.4 204.2-153.5 209.8-13.9 1.9-30.8-6-49.9-25.1s-27-36.1-25.1-49.9c5.6-41 44.3-111.8 209.8-153.5z"/></svg>