<svg xmlns="http://www.w3.org/2000/svg" viewBox="0 0 576 512"><path fill="currentColor" d="M256 32l0-44.8c0-10.6 8.6-19.2 19.2-19.2 3.2 0 6.3 .8 9.1 2.3L377 20.2c4.3 2.3 7 6.9 7 11.8s-2.7 9.5-7 11.8l-73 39.3 0 21.1c53 1.1 102.4 7.7 144 18.6L448 3.2c0-10.6 8.6-19.2 19.2-19.2 3.2 0 6.3 .8 9.1 2.3L569 36.2c4.3 2.3 7 6.9 7 11.8s-2.7 9.5-7 11.8l-73 39.3 0 39.6c20 8.3 37.4 18.2 50.9 29.8 16.3 14 29.1 32.7 29.1 55.6l0 181.2c0 23.1-12.3 42.3-28.7 57.1s-38.6 27-64.1 36.7c-51.1 19.6-120.2 31.1-195.2 31.1S143.9 518.5 92.8 499C67.3 489.2 45 477 28.7 462.3S0 428.3 0 405.2L0 224c0-22.9 12.8-41.6 29.1-55.6 9.7-8.4 21.6-15.9 34.9-22.5L64 3.2c0-10.6 8.6-19.2 19.2-19.2 3.2 0 6.3 .8 9.1 2.3L185 36.2c4.3 2.3 7 6.9 7 11.8s-2.7 9.5-7 11.8l-73 39.3 0 28.2c40.6-12.3 90.2-20.3 144-22.6L256 32zM438.6 169.9l-3.4 4.5-57 76.1c24.9 7.5 43 18.1 50.3 30.2 13.8-3.3 26.5-7.1 38-11.3 22.4-8.1 38.8-17.2 49.1-26.2 10.4-9 12.4-15.5 12.4-19.2s-1.9-10.2-12.4-19.2c-10.4-8.9-26.8-18-49.1-26.2-8.6-3.1-18-6.1-27.9-8.7zm-51.9-10.7c-30.1-4.6-63.4-7.2-98.6-7.2s-68.5 2.6-98.6 7.2l60.9 81.2c12-1.2 24.6-1.9 37.7-1.9s25.7 .6 37.7 1.9l60.9-81.2zM137.4 169.9c-10 2.7-19.3 5.6-27.9 8.7-22.4 8.1-38.8 17.2-49.1 26.2-10.4 9-12.4 15.5-12.4 19.2l0 0c0 3.6 2 10.2 12.4 19.2 10.4 8.9 26.8 18 49.1 26.2 11.5 4.2 24.2 8 38 11.3 7.3-12.1 25.4-22.7 50.3-30.2l-57-76.1-3.4-4.5zM528 293.2c-13.2 8.1-28.5 15.2-45.1 21.2-51 18.6-119.9 29.6-194.9 29.6S144.1 333 93.1 314.4c-16.7-6.1-32-13.1-45.1-21.2l0 112c0 4.8 2.4 12.1 12.8 21.5s26.8 19 49.1 27.5c30.5 11.6 69.7 20.5 114.1 24.9l0-31c0-35.3 28.7-64 64-64s64 28.7 64 64l0 31c44.4-4.4 83.6-13.2 114.1-24.9 22.3-8.5 38.7-18.1 49.1-27.5S528 410 528 405.2l0-112z"/></svg>