<svg xmlns="http://www.w3.org/2000/svg" viewBox="0 0 576 512"><path fill="currentColor" d="M248.1 12.4c10-8 22.4-12.4 35.2-12.4L552 0c13.3 0 24 10.7 24 24s-10.7 24-24 24l-40 0 0 64 40 0c13.3 0 24 10.7 24 24s-10.7 24-24 24l-248 0 0 280c0 13.3-10.7 24-24 24l-43.3 0c-10.4 36.9-44.4 64-84.7 64s-74.2-27.1-84.7-64L56 464c-30.9 0-56-25.1-56-56L0 239.3c0-16.9 7.7-33 20.8-43.6L248.1 12.4zM236.7 416l19.3 0 0-223.4-200.9 162-7.1 5.7 0 47.6c0 4.4 3.6 8 8 8l11.3 0c10.4-36.9 44.4-64 84.7-64s74.2 27.1 84.7 64zM304 112l160 0 0-64-160 0 0 64zM256 67.7L51 233.1c-1.9 1.5-3 3.8-3 6.2l0 59.4 208-167.7 0-63.2zM440 352c38.6 0 71.4 24.8 83.2 59.4 2.9-2.9 4.8-6.9 4.8-11.4l0-85.5c0-4.2-1.7-8.3-4.7-11.3l-42.5-42.5c-3-3-7.1-4.7-11.3-4.7l-69.5 0 0 105.6c12-6.1 25.6-9.6 40-9.6zm136 48c0 30.9-21.9 56.6-50.9 62.7-10 37.6-44.3 65.3-85.1 65.3-48.6 0-88-39.4-88-88l0-200c0-17.7 14.3-32 32-32l85.5 0c17 0 33.3 6.7 45.3 18.7l42.5 42.5c12 12 18.7 28.3 18.7 45.3l0 85.5zM400 440a40 40 0 1 0 80 0 40 40 0 1 0 -80 0zm-208 0a40 40 0 1 0 -80 0 40 40 0 1 0 80 0z"/></svg>