<svg xmlns="http://www.w3.org/2000/svg" viewBox="0 0 512 512"><path fill="currentColor" d="M208 96c0-26.5 21.5-48 48-48s48 21.5 48 48c0 10.4-3.8 20.3-10.2 35.5-.2 .4-.3 .8-.5 1.2-5.7 13.7-13.4 32-13.4 53.3 0 65.2 52.8 118 118 118l18 0c26.5 0 48 21.5 48 48l0 8c0 4.4-3.6 8-8 8L56 368c-4.4 0-8-3.6-8-8l0-8c0-26.5 21.5-48 48-48l18 0c65.2 0 118-52.8 118-118 0-21.2-7.7-39.6-13.4-53.3-.2-.4-.3-.8-.5-1.2-6.3-15.2-10.2-25.1-10.2-35.5zM256 0c-53 0-96 43-96 96 0 20.8 7.6 38.9 13.2 52.4 6.7 16 10.8 26.4 10.8 37.5 0 38.7-31.3 70-70 70l-18 0c-53 0-96 43-96 96l0 8c0 30.9 25.1 56 56 56l400 0c30.9 0 56-25.1 56-56l0-8c0-53-43-96-96-96l-18 0c-38.7 0-70-31.3-70-70 0-11.1 4.1-21.6 10.8-37.5 5.6-13.5 13.2-31.7 13.2-52.4 0-53-43-96-96-96zM56 464c-13.3 0-24 10.7-24 24s10.7 24 24 24l400 0c13.3 0 24-10.7 24-24s-10.7-24-24-24L56 464z"/></svg>