<svg xmlns="http://www.w3.org/2000/svg" viewBox="0 0 512 512"><path fill="currentColor" d="M448 112c8.8 0 16 7.2 16 16l0 256c0 8.8-7.2 16-16 16L64 400c-8.8 0-16-7.2-16-16l0-256c0-8.8 7.2-16 16-16l384 0zM64 64C28.7 64 0 92.7 0 128L0 384c0 35.3 28.7 64 64 64l384 0c35.3 0 64-28.7 64-64l0-256c0-35.3-28.7-64-64-64L64 64zM96 216l0 8c0 30.9 25.1 56 56 56l32 0c4.4 0 8 3.6 8 8l0 8c0 4.4-3.6 8-8 8l-56 0c-13.3 0-24 10.7-24 24s10.7 24 24 24l56 0c30.9 0 56-25.1 56-56l0-8c0-30.9-25.1-56-56-56l-32 0c-4.4 0-8-3.6-8-8l0-8c0-4.4 3.6-8 8-8l56 0c13.3 0 24-10.7 24-24s-10.7-24-24-24l-56 0c-30.9 0-56 25.1-56 56zm200-56c-13.3 0-24 10.7-24 24l0 144c0 13.3 10.7 24 24 24l48 0c39.8 0 72-32.2 72-72l0-48c0-39.8-32.2-72-72-72l-48 0zm24 144l0-96 24 0c13.3 0 24 10.7 24 24l0 48c0 13.3-10.7 24-24 24l-24 0z"/></svg>