<svg xmlns="http://www.w3.org/2000/svg" viewBox="0 0 576 512"><path fill="currentColor" d="M379.9 337.7l-60-77.7c.1-1.3 .1-2.7 .1-4 0-53-43-96-96-96s-96 43-96 96c0 47.6 34.6 87 80 94.7l58.8 76.1c-13.7 3.4-28 5.2-42.8 5.2-97.2 0-176-78.8-176-176S126.8 80 224 80 400 158.8 400 256c0 29.5-7.3 57.3-20.1 81.7zm63.4 30.4c-1.1-.1-2.2-.1-3.4-.1l-22 0c15.3-26.4 25.3-56.2 28.7-88l81.3 0 0 55.2-84.6 32.9zM409.8 130.9l118.2 46 0 55.2-81.3 0c-4-37.2-17-71.6-36.9-101.1zm88.7 267.2l57-22.2c12.3-4.8 20.4-16.6 20.4-29.8l0-180.2c0-13.2-8.1-25-20.4-29.8L347.6 55.2C308.2 39.9 266.3 32 224 32 100.3 32 0 132.3 0 256S100.3 480 224 480c26 0 51.9-3 77.1-8.8L311 484c13.6 17.6 34.7 28 57 28l72 0c39.8 0 72-32.2 72-72 0-15.6-5-30.1-13.4-41.9zM176 256a48 48 0 1 1 96 0 48 48 0 1 1 -96 0zM349 454.7l-85.8-111c14.9-6.7 27.8-17.1 37.5-30L379.8 416 440 416c13.3 0 24 10.7 24 24s-10.7 24-24 24l-72 0c-7.4 0-14.4-3.4-19-9.3z"/></svg>