<svg xmlns="http://www.w3.org/2000/svg" viewBox="0 0 512 512"><path fill="currentColor" d="M420.6 303.9l-37.1 64.1 74.2 0-37.1-64.1zM392.8 256l-64.8-112-144 0-64.8 112 64.8 112 144 0 64.8-112zm55.5 0l58.4 100.9c3.5 6 5.3 12.8 5.3 19.7 0 21.7-17.6 39.4-39.4 39.4l-117 0-61.3 105.8C286.5 535.6 271.8 544 256 544s-30.5-8.4-38.4-22.2l-61.3-105.8-117 0c-21.7 0-39.4-17.6-39.4-39.4 0-6.9 1.8-13.7 5.3-19.7L63.7 256 5.3 155.1C1.8 149.1 0 142.3 0 135.4 0 113.6 17.6 96 39.4 96l117 0 61.3-105.8C225.5-23.6 240.2-32 256-32s30.5 8.4 38.4 22.2l61.3 105.8 117 0c21.7 0 39.4 17.6 39.4 39.4 0 6.9-1.8 13.7-5.3 19.7L448.3 256zM383.5 144l37.1 64.1 37.1-64.1-74.2 0zM300.2 96L256 19.6 211.8 96 300.2 96zM128.5 144l-74.2 0 37.1 64.1 37.1-64.1zM91.4 303.9l-37.1 64.1 74.2 0-37.1-64.1zM211.8 416l44.2 76.4 44.2-76.4-88.4 0z"/></svg>