<svg xmlns="http://www.w3.org/2000/svg" viewBox="0 0 512 512"><path fill="currentColor" d="M278.9 16.7C275.7 6.8 266.5 0 256 0s-19.7 6.8-22.9 16.7L182.5 176 24 176c-10.3 0-19.4 6.5-22.7 16.2s-.1 20.4 8 26.7L140.1 320.7 89.1 480.7c-3.2 10 .5 21 9.1 27s20.2 5.7 28.5-.7L256 406.4 385.3 506.9c8.3 6.5 19.8 6.8 28.5 .7s12.3-16.9 9.1-27L371.9 320.7 502.7 218.9c8.1-6.3 11.3-17 8-26.7S498.3 176 488 176l-158.5 0-50.7-159.3zM236 166l0 195.1-77.7 60.4 32.5-102.3c3-9.6-.2-20-8.1-26.2L94 224 200 224c10.5 0 19.7-6.8 22.9-16.7L236 166zm40 195.1l0-195.1 13.1 41.3c3.2 10 12.4 16.7 22.9 16.7l106.1 0-88.8 69.1c-7.9 6.2-11.2 16.6-8.1 26.2l32.5 102.3-77.7-60.4z"/></svg>