<svg xmlns="http://www.w3.org/2000/svg" viewBox="0 0 512 512"><path fill="currentColor" d="M184.3 64c0-35.3 28.7-64 64-64l16 0c35.3 0 64 28.7 64 64l0 67.3 58.3-33.6c30.6-17.7 69.8-7.2 87.4 23.4l8 13.9c17.7 30.6 7.2 69.8-23.4 87.4l-58.3 33.6 58.3 33.6c30.6 17.7 41.1 56.8 23.4 87.4l-8 13.9c-17.7 30.6-56.8 41.1-87.4 23.4l-58.3-33.6 0 67.3c0 35.3-28.7 64-64 64l-16 0c-35.3 0-64-28.7-64-64l0-67.3-58.3 33.6c-30.6 17.7-69.8 7.2-87.4-23.4l-8-13.9c-17.7-30.6-7.2-69.8 23.4-87.4L112.3 256 54 222.4c-30.6-17.7-41.1-56.8-23.4-87.4l8-13.9C56.3 90.5 95.4 80 126 97.6l58.3 33.6 0-67.3zm64-16c-8.8 0-16 7.2-16 16l0 108.9c0 8.6-4.6 16.5-12 20.8s-16.6 4.3-24 0L102 139.2c-7.7-4.4-17.4-1.8-21.9 5.9l-8 13.9c-4.4 7.7-1.8 17.4 5.9 21.9l94.3 54.4c7.4 4.3 12 12.2 12 20.8s-4.6 16.5-12 20.8L78 331.2c-7.7 4.4-10.3 14.2-5.9 21.9l8 13.9c4.4 7.7 14.2 10.3 21.9 5.9l94.3-54.4c7.4-4.3 16.6-4.3 24 0s12 12.2 12 20.8l0 108.9c0 8.8 7.2 16 16 16l16 0c8.8 0 16-7.2 16-16l0-108.9c0-8.6 4.6-16.5 12-20.8s16.6-4.3 24 0l94.3 54.4c7.7 4.4 17.4 1.8 21.9-5.9l8-13.9c4.4-7.7 1.8-17.4-5.9-21.9l-94.3-54.4c-7.4-4.3-12-12.2-12-20.8s4.6-16.5 12-20.8l94.3-54.4c7.7-4.4 10.3-14.2 5.9-21.9l-8-13.9c-4.4-7.7-14.2-10.3-21.9-5.9l-94.3 54.4c-7.4 4.3-16.6 4.3-24 0s-12-12.2-12-20.8l0-108.9c0-8.8-7.2-16-16-16l-16 0z"/></svg>