<svg xmlns="http://www.w3.org/2000/svg" viewBox="0 0 512 512"><path fill="currentColor" d="M40 256c0 95.9 62.5 177.2 149 205.4-65.8-44.6-109-120-109-205.4S123.2 95.2 189 50.6C102.5 78.8 40 160.1 40 256zM256 0c22.2 0 43.7 2.8 64.2 8.1 2.6 .7 5.2 1.4 7.8 2.1 1.4 .4 2.8 .8 4.2 1.3 4.3 1.3 8.5 2.8 12.7 4.3 1.6 .6 3.1 1.2 4.7 1.8 7.4 2.9 11.5 10.7 9.8 18.4s-8.8 13-16.7 12.4c-1.7-.1-3.4-.2-5-.3-3.2-.1-6.4-.2-9.6-.2-.9 0-1.7 0-2.6 0-3.2 0-6.5 .2-9.7 .3-109.2 6.4-195.7 96.9-195.7 207.6s86.6 201.3 195.7 207.6c3.2 .2 6.4 .3 9.7 .3 .9 0 1.7 0 2.6 0 3.2 0 6.4-.1 9.6-.2 1.7-.1 3.4-.2 5-.3 7.9-.5 15 4.7 16.7 12.4s-2.4 15.5-9.8 18.4c-1.6 .6-3.1 1.2-4.7 1.8-4.2 1.6-8.4 3-12.7 4.3-1.4 .4-2.8 .8-4.2 1.3-2.6 .8-5.2 1.5-7.8 2.1-20.5 5.3-42 8.1-64.2 8.1-141.4 0-256-114.6-256-256S114.6 0 256 0zM357.2 174.2l1.7-3.4c8.2-16.6 13.7-27.8 16.5-33.4 3.5-7.1 13.7-7.1 17.2 0 2.8 5.7 8.3 16.8 16.5 33.4l1.7 3.4 13.3 27c1.4 2.8 4.1 4.8 7.2 5.3l29.8 4.3 3.7 .5c18.3 2.7 30.6 4.5 36.9 5.4 7.9 1.1 11 10.8 5.3 16.4-4.5 4.4-13.4 13.1-26.7 26l-2.7 2.6-21.6 21c-2.3 2.2-3.3 5.4-2.8 8.5l5.1 29.7 .6 3.7c3.1 18.3 5.2 30.5 6.3 36.7 1.3 7.8-6.9 13.8-13.9 10.1-5.6-2.9-16.6-8.7-33-17.3l-3.3-1.7-26.6-14c-2.8-1.5-6.1-1.5-8.9 0l-26.6 14-3.3 1.7c-16.4 8.6-27.4 14.4-33 17.3-7 3.7-15.3-2.3-13.9-10.1 1.1-6.2 3.2-18.5 6.3-36.7l.6-3.7 5.1-29.7c.5-3.1-.5-6.3-2.8-8.5l-21.6-21-2.7-2.6c-13.3-12.9-22.2-21.6-26.7-26-5.7-5.6-2.6-15.2 5.3-16.4 6.3-.9 18.5-2.7 36.9-5.4l3.7-.5 29.8-4.3c3.1-.5 5.8-2.4 7.2-5.3l13.3-27zm-7.7 78.6a36.3 36.3 0 1 0 69 22.4 36.3 36.3 0 1 0 -69-22.4z"/></svg>