<svg xmlns="http://www.w3.org/2000/svg" viewBox="0 0 512 512"><path fill="currentColor" d="M325.8 152.3c1.3 4.6 5.5 7.7 10.2 7.7s8.9-3.1 10.2-7.7L360 104 408.3 90.2c4.6-1.3 7.7-5.5 7.7-10.2s-3.1-8.9-7.7-10.2L360 56 346.2 7.7C344.9 3.1 340.8 0 336 0s-8.9 3.1-10.2 7.7L312 56 263.7 69.8c-4.6 1.3-7.7 5.5-7.7 10.2s3.1 8.9 7.7 10.2L312 104 325.8 152.3zM115.7 346.2L75.5 307 131 298.9c15.6-2.3 29.2-12.1 36.1-26.3l24.8-50.3 24.8 50.3c7 14.2 20.5 24 36.1 26.3l55.5 8.1-40.2 39.2c-11.3 11-16.4 26.9-13.8 42.4l9.5 55.4-49.5-26.1c-14-7.4-30.7-7.4-44.7 0L120 444 129.5 388.7c2.7-15.6-2.5-31.4-13.8-42.4zm54.7-188.8l-46.3 94-103.5 15.1C.9 269.3-7 293.5 7.3 307.4l74.9 73.2-17.7 103.3c-3.4 19.6 17.2 34.6 34.8 25.3l92.6-48.8 92.6 48.8c17.6 9.3 38.2-5.7 34.8-25.3l-17.7-103.3 74.9-73.2c14.2-13.9 6.4-38.1-13.3-40.9l-103.5-15.1-46.3-94c-8.8-17.9-34.3-17.9-43.1 0zm258.4 85.8l11 38.6c1 3.6 4.4 6.2 8.2 6.2s7.1-2.5 8.2-6.2l11-38.6 38.6-11c3.6-1 6.2-4.4 6.2-8.2s-2.5-7.1-6.2-8.2l-38.6-11-11-38.6c-1-3.6-4.4-6.2-8.2-6.2s-7.1 2.5-8.2 6.2l-11 38.6-38.6 11c-3.6 1-6.2 4.4-6.2 8.2s2.5 7.1 6.2 8.2l38.6 11z"/></svg>