<svg xmlns="http://www.w3.org/2000/svg" viewBox="0 0 512 512"><path fill="currentColor" d="M48 56c0-13.3-10.7-24-24-24S0 42.7 0 56L0 456c0 13.3 10.7 24 24 24s24-10.7 24-24l0-136.6 68.3 14.6c27.4 48.9 79.7 82 139.7 82s112.3-33.1 139.7-82L464 319.4 464 456c0 13.3 10.7 24 24 24s24-10.7 24-24l0-400c0-13.3-10.7-24-24-24s-24 10.7-24 24l0 136.6-68.3-14.6C368.3 129.1 316 96 256 96s-112.3 33.1-139.7 82L48 192.6 48 56zM414.1 231l49.9 10.7 0 28.6-49.9 10.7c1.3-8.2 1.9-16.5 1.9-25s-.7-16.9-1.9-25zM97.9 281L48 270.3 48 241.7 97.9 231c-1.3 8.2-1.9 16.5-1.9 25s.7 16.9 1.9 25zM256 144a112 112 0 1 1 0 224 112 112 0 1 1 0-224zm0 168a56 56 0 1 0 0-112 56 56 0 1 0 0 112z"/></svg>