<svg xmlns="http://www.w3.org/2000/svg" viewBox="0 0 576 512"><path fill="currentColor" d="M146.1 39.7c8.7-10 7.6-25.2-2.4-33.9s-25.2-7.6-33.9 2.4l-96.2 111C4.9 129.4 0 142.5 0 155.9L0 356.1c0 13.5 4.9 26.5 13.7 36.7l96.2 111c8.7 10 23.8 11.1 33.9 2.4s11.1-23.8 2.4-33.9L50 361.3c-1.3-1.5-2-3.3-2-5.2l0-36.4 105.8 23.5C182.4 387 231.8 416 288 416s105.6-29 134.2-72.8l105.8-23.5 0 28.9c0 1.8-.6 3.6-1.8 5L429.4 472.9c-8.4 10.3-6.8 25.4 3.5 33.8s25.4 6.8 33.8-3.5L563.5 384c8.1-10 12.5-22.5 12.5-35.3l0-200.1c0-14.1-5.3-27.7-15-38.1L465.6 7.7c-9-9.7-24.2-10.3-33.9-1.3s-10.3 24.2-1.3 33.9l95.4 102.8c1.4 1.5 2.1 3.4 2.1 5.4l0 43.7-105.8-23.5C393.6 125 344.2 96 288 96s-105.6 29-134.2 72.8L48 192.3 48 155.9c0-1.9 .7-3.8 2-5.2l96.2-111zM444.6 222.9l83.4 18.5 0 29.1-83.4 18.5c2.2-10.7 3.4-21.7 3.4-33.1s-1.2-22.4-3.4-33.1zM131.4 289.1l-83.4-18.5 0-29.1 83.4-18.5c-2.2 10.7-3.4 21.7-3.4 33.1s1.2 22.4 3.4 33.1zM288 144a112 112 0 1 1 0 224 112 112 0 1 1 0-224zm0 168a56 56 0 1 0 0-112 56 56 0 1 0 0 112z"/></svg>