<svg xmlns="http://www.w3.org/2000/svg" viewBox="0 0 576 512"><path fill="currentColor" d="M288.1-32c9 0 17.3 5.1 21.4 13.1L383 125.3 542.9 150.7c8.9 1.4 16.3 7.7 19.1 16.3s.5 18-5.8 24.4L441.7 305.9 467 465.8c1.4 8.9-2.3 17.9-9.6 23.2s-17 6.1-25 2L288.1 417.6 143.8 491c-8 4.1-17.7 3.3-25-2s-11-14.2-9.6-23.2L134.4 305.9 20 191.4c-6.4-6.4-8.6-15.8-5.8-24.4s10.2-14.9 19.1-16.3l159.8-25.4 73.6-144.2 1.7-2.9c4.4-6.3 11.8-10.2 19.7-10.2zM230.3 158c-3.5 6.8-10.1 11.6-17.6 12.8L87.2 190.7 177 280.7c5.4 5.4 7.9 13.1 6.7 20.7l-19.8 125.5 113.3-57.6 2.6-1.2c6.2-2.3 13.2-1.9 19.1 1.2l113.3 57.6-19.8-125.5c-1.2-7.6 1.3-15.3 6.7-20.7l89.8-89.9-125.5-19.9c-7.6-1.2-14.1-6-17.6-12.8L288.1 44.8 230.3 158zm57.7 186a24 24 0 1 1 0-48 24 24 0 1 1 0 48zm0-192c18.6 0 33 16.1 31 34.6l-7.1 64.1c-1.4 12.2-11.6 21.3-23.8 21.3s-22.5-9.2-23.8-21.3l-7.1-64.1c-2-18.5 12.4-34.6 31-34.6z"/></svg>