<svg xmlns="http://www.w3.org/2000/svg" viewBox="0 0 576 512"><path fill="currentColor" d="M143.9 240.1l12.8 0c34.4 0 66-18.8 82.4-49.1l45.5-84.1C304.4 70.6 342.3 48 383.6 48 445.7 48 496 98.3 496 160.4L496 288c0 79.5-64.5 144-144 144l-208.1 0C91 432 48 389 48 336.1s43-95.9 95.9-95.9zm12.8-48l-12.8 0C64.4 192.1 0 256.6 0 336.1S64.4 480 143.9 480L352 480c106 0 192-86 192-192l0-127.6C544 71.8 472.2 0 383.6 0 324.7 0 270.5 32.3 242.5 84.1L197 168.2c-8 14.8-23.4 24-40.2 24zm-12.8 96c-26.5 0-47.9 21.5-47.9 47.9S117.5 384 143.9 384L352 384c53 0 96-43 96-96l0-127.6c0-35.6-28.8-64.4-64.4-64.4-23.6 0-45.4 13-56.7 33.8l-45.5 84.1c-24.8 45.8-72.6 74.3-124.6 74.3l-12.8 0zM360 160a24 24 0 1 1 48 0 24 24 0 1 1 -48 0z"/></svg>