<svg xmlns="http://www.w3.org/2000/svg" viewBox="0 0 512 512"><path fill="currentColor" d="M256 464c-8.1 0-16.1-.5-24-1.4l0-30.6c0-79.5-64.5-144-144-144l-37.6 0c-1.6-10.4-2.4-21.1-2.4-32 0-16.5 1.9-32.6 5.6-48l404.9 0c3.6 15.4 5.6 31.5 5.6 48 0 10.9-.8 21.6-2.4 32L424 288c-79.5 0-144 64.5-144 144l0 30.6c-7.9 .9-15.9 1.4-24 1.4zM448.1 336c-22.2 53.2-65.8 95.2-120.1 115.2l0-19.2c0-53 43-96 96-96l24.1 0zM71.4 160C106.1 93.4 175.8 48 256 48S405.9 93.4 440.6 160L71.4 160zM184 451.2c-54.3-20-97.9-62-120.1-115.2L88 336c53 0 96 43 96 96l0 19.2zM256 512a256 256 0 1 0 0-512 256 256 0 1 0 0 512zm0-184a40 40 0 1 0 0-80 40 40 0 1 0 0 80z"/></svg>