<svg xmlns="http://www.w3.org/2000/svg" viewBox="0 0 384 512"><path fill="currentColor" d="M304 96l-160 0 0 142.9c0 26.7-13.4 51.7-35.6 66.6L82.3 322.8C60.9 337.1 48 361.2 48 386.9l0 2.2c0 41.3 33.5 74.8 74.8 74.8 14.8 0 29.2-4.4 41.5-12.6l104.1-69.4c22.3-14.8 35.6-39.8 35.6-66.6L304 96zM96 96C78.3 96 64 81.7 64 64l0-32C64 14.3 78.3 0 96 0L352 0c17.7 0 32 14.3 32 32l0 32c0 17.7-14.3 32-32 32l0 219.5c0 42.8-21.4 82.8-57 106.5L190.9 491.4C170.8 504.8 147.1 512 122.8 512 55 512 0 457 0 389.2l0-2.2c0-41.8 20.9-80.9 55.7-104.1l26.1-17.4c8.9-5.9 14.2-15.9 14.2-26.6L96 96z"/></svg>