<svg xmlns="http://www.w3.org/2000/svg" viewBox="0 0 512 512"><path fill="currentColor" d="M176 24c0-13.3-10.7-24-24-24s-24 10.7-24 24l0 64c0 66.3 53.7 120 120 120l9 0c-.7 5.2-1 10.6-1 16l0 64c0 39.8-32.2 72-72 72l-64 0C53.7 360 0 413.7 0 480l0 8c0 13.3 10.7 24 24 24s24-10.7 24-24l0-8c0-35.3 28.7-64 64-64 9.6 0 19 3.5 30.6 11.1 8.8 5.7 17.1 12.6 26.9 20.7 4.2 3.4 8.6 7.1 13.5 11 31.6 25.2 72.9 53.3 137 53.3 106 0 192-86 192-192l0-96c0-70.7-57.3-128-128-128-47.4 0-88.7 25.7-110.9 64L248 160c-39.8 0-72-32.2-72-72l0-64zM304 224c0-44.2 35.8-80 80-80s80 35.8 80 80l0 80-32 0c-15.6 0-30.7-5.1-43.2-14.4L376 280c-20.8-15.6-46-24-72-24l0-32zM432 352l28.4 0c-14.6 64.1-71.9 112-140.4 112-47.9 0-78.6-20-107-42.7-3.5-2.8-7.2-5.8-10.9-8.9-2-1.6-4-3.3-6-4.9 55.3-5.5 99.6-48.6 106.9-103.4l1.1 0c15.6 0 30.7 5.1 43.2 14.4L360 328c20.8 15.6 46 24 72 24z"/></svg>