<svg xmlns="http://www.w3.org/2000/svg" viewBox="0 0 640 512"><path fill="currentColor" d="M61.5 81.9C72 52 100.2 32 131.9 32l312.2 0c31.7 0 59.9 20 70.4 49.9l18.4 52.6c1.1 3.2 2 6.5 2.7 9.7-2.5-.1-5.1-.2-7.6-.2-14.1 0-27.7 2.3-40.4 6.5l0-.1-18.4-52.6C465.5 87.1 455.4 80 444.1 80l-25.6 0 8.4 83.8c.7 7.5 4.1 14.2 9.1 19.1-11.2 11.6-20.3 25.3-26.5 40.5-2.7-2.1-5.3-4.3-7.7-6.8-14.6 14.4-34.6 23.3-56.9 23.3-22.2 0-42.4-9-57-23.5-14.6 14.5-34.8 23.5-57 23.5-22.3 0-42.3-8.9-56.9-23.3-14.4 14.5-34.3 23.3-56.2 23.3-2 0-4-.1-6-.2l0 80.2 268.8 0c-8.1 14.1-12.8 30.4-12.8 47.9l0 .1-256 0 0 40c0 13.3 10.7 24 24 24l232 0 0 31.9c0 5.5 .5 10.9 1.3 16.1L136 480c-39.8 0-72-32.2-72-72l0-189.2C42.1 198.4 32.1 166 43.1 134.5L61.5 81.9zM205.7 80l-7.6 75.7c-1.9 19.4 13.3 36.3 32.8 36.3 18.2 0 33-14.8 33-33l0-79-58.3 0zM312 159c0 18.2 14.8 33 33 33 19.5 0 34.8-16.9 32.8-36.3l-7.6-75.7-58.3 0 0 79zM118 192c16.1 0 29.5-12.2 31.1-28.2l8.4-83.8-25.6 0c-11.3 0-21.3 7.1-25.1 17.8L88.4 150.4c-7.1 20.4 8 41.6 29.5 41.6zm442 80.1c0-17.7-14.3-32-32-32s-32 14.3-32 32l0 47.9 64 0 0-47.9zM416 368c0-20.9 13.4-38.7 32-45.3l0-50.6c0-44.2 35.8-80 80-80s80 35.8 80 80l0 50.6c18.6 6.6 32 24.4 32 45.3l0 96c0 26.5-21.5 48-48 48l-128 0c-26.5 0-48-21.5-48-48l0-96z"/></svg>