<svg xmlns="http://www.w3.org/2000/svg" viewBox="0 0 512 512"><path fill="currentColor" d="M29.9 81.9C40.4 52 68.6 32 100.3 32l312.2 0c31.7 0 59.9 20 70.4 49.9l18.4 52.6c11 31.5 1 63.9-20.9 84.4l0 189.2c0 39.8-32.2 72-72 72l-304 0c-39.8 0-72-32.2-72-72l0-189.2C10.5 198.4 .5 166 11.5 134.5L29.9 81.9zM80.4 239.8l0 80.2 352 0 0-80.2c-2 .1-3.9 .2-5.9 .2-21.8 0-41.8-8.9-56.2-23.3-14.6 14.4-34.6 23.3-56.9 23.3-22.2 0-42.4-9-57-23.5-14.6 14.5-34.8 23.5-57 23.5-22.3 0-42.3-8.9-56.9-23.3-14.4 14.5-34.3 23.3-56.2 23.3-2 0-4-.1-6-.2zM174.1 80l-7.6 75.7c-1.9 19.4 13.3 36.3 32.8 36.3 18.2 0 33-14.8 33-33l0-79-58.3 0zm106.3 79c0 18.2 14.8 33 33 33 19.5 0 34.8-16.9 32.8-36.3l-7.6-75.7-58.3 0 0 79zm114.9 4.8c1.6 16 15.1 28.2 31.1 28.2 21.6 0 36.7-21.3 29.5-41.6L437.6 97.8C433.9 87.1 423.8 80 412.5 80l-25.6 0 8.4 83.8zM86.4 192c16.1 0 29.5-12.2 31.1-28.2l8.4-83.8-25.6 0C89 80 79 87.1 75.2 97.8L56.8 150.4c-7.1 20.4 8 41.6 29.5 41.6zm-6 216c0 13.3 10.7 24 24 24l304 0c13.3 0 24-10.7 24-24l0-40-352 0 0 40z"/></svg>