<svg xmlns="http://www.w3.org/2000/svg" viewBox="0 0 576 512"><path fill="currentColor" d="M41-24.9c-9.4-9.4-24.6-9.4-33.9 0S-2.3-.3 7 9.1l528 528c9.4 9.4 24.6 9.4 33.9 0s9.4-24.6 0-33.9l-64-64c4.5-9.4 7-20 7-31.1l0-189.2c21.9-20.4 31.9-52.8 20.9-84.4L514.5 81.9C504 52 475.8 32 444.1 32L131.9 32c-10 0-19.6 2-28.4 5.6L41-24.9zM145.8 80l118.2 0 0 79c0 10.7-5.1 20.2-12.9 26.2L145.8 80zM285.1 219.3c1-.9 1.9-1.8 2.9-2.7 14.6 14.5 34.8 23.5 57 23.5 22.3 0 42.3-8.9 56.9-23.3 14.4 14.5 34.3 23.3 56.2 23.3 2 0 4-.1 5.9-.2l0 80.2-78.2 0-100.7-100.7zM433.8 368l30.2 0 0 30.2-30.2-30.2zM410.2 480l-48-48-226.2 0c-13.3 0-24-10.7-24-24l0-40 186.2 0-48-48-138.2 0 0-80.2c2 .1 3.9 .2 6 .2 14.9 0 28.9-4.1 40.9-11.3l-36.9-36.9c-1.3 .2-2.6 .3-4 .3-19.3 0-33.5-17.1-31.1-35.3l-38.2-38.2-5.6 16c-11 31.5-1 63.9 20.9 84.4L64 408c0 39.8 32.2 72 72 72l274.2 0zM312 80l58.3 0 7.6 75.7c1.9 19.4-13.3 36.3-32.8 36.3-18.2 0-33-14.8-33-33l0-79zm106.5 0l25.6 0c11.3 0 21.3 7.1 25.1 17.8l18.4 52.6c7.1 20.4-8 41.6-29.5 41.6-16.1 0-29.5-12.2-31.1-28.2L418.5 80z"/></svg>