<svg xmlns="http://www.w3.org/2000/svg" viewBox="0 0 576 512"><path fill="currentColor" d="M100.3 32C68.6 32 40.4 52 29.9 81.9L11.5 134.5c-11 31.5-1 63.9 20.9 84.4l0 189.2c0 39.8 32.2 72 72 72l168 0 0-48-168 0c-13.3 0-24-10.7-24-24l0-40 192 0c0-19.1 8.4-36.3 21.7-48l-213.7 0 0-80.2c2 .1 3.9 .2 6 .2 21.8 0 41.8-8.9 56.2-23.3 14.6 14.4 34.6 23.3 56.9 23.3 22.2 0 42.4-9 57-23.5 14.6 14.5 34.8 23.5 57 23.5 22.3 0 42.3-8.9 56.9-23.3 14.4 14.5 34.3 23.3 56.2 23.3 2 0 4-.1 5.9-.2l0 64.2 48 0 0-85.2c21.9-20.4 31.9-52.8 20.9-84.4L482.9 81.9C472.5 52 444.2 32 412.5 32L100.3 32zM232.4 80l0 79c0 18.2-14.8 33-33 33-19.5 0-34.8-16.9-32.8-36.3l7.6-75.7 58.3 0zm48 0l58.3 0 7.6 75.7c1.9 19.4-13.3 36.3-32.8 36.3-18.2 0-33-14.8-33-33l0-79zm106.5 0l25.6 0c11.3 0 21.3 7.1 25.1 17.8L456 150.4c7.1 20.4-8 41.6-29.5 41.6-16.1 0-29.5-12.2-31.1-28.2L386.9 80zM117.5 163.8c-1.6 16-15.1 28.2-31.1 28.2-21.6 0-36.7-21.3-29.5-41.6L75.2 97.8C78.9 87.1 89 80 100.3 80l25.6 0-8.4 83.8zM316.4 400c0 11 9 20 20 20s20-9 20-20c0-6.6 5.4-12 12-12s12 5.4 12 12l0 1c0 4.8-1.8 9.4-4.9 13l-52.5 59.1c-4.2 4.7-6.5 10.8-6.5 17.1 0 14.2 11.5 25.8 25.8 25.8l58.2 0c11 0 20-9 20-20s-9-20-20-20l-26.6 0 31.5-35.5c9.7-10.9 15-25 15-39.6l0-1c0-28.7-23.3-52-52-52s-52 23.3-52 52zm128 32c0 5.3 2.1 10.4 5.9 14.1s8.8 5.9 14.1 5.9l44 0 0 44c0 11 9 20 20 20s20-9 20-20l0-128c0-11-9-20-20-20s-20 9-20 20l0 44-24 0 0-44c0-11-9-20-20-20s-20 9-20 20l0 64z"/></svg>