<svg xmlns="http://www.w3.org/2000/svg" viewBox="0 0 576 512"><path fill="currentColor" d="M41-24.9c-9.4-9.4-24.6-9.4-33.9 0S-2.3-.3 7 9.1l528 528c9.4 9.4 24.6 9.4 33.9 0s9.4-24.6 0-33.9l-57-57 0-190.3c26.8-1.9 48-24.3 48-51.6 0-8-1.9-16-5.5-23.2L497.7 67.4C486.8 45.7 464.7 32 440.4 32L135.6 32c-10.7 0-21 2.7-30.2 7.6L41-24.9zM145.8 80l294.6 0c6.1 0 11.6 3.4 14.3 8.8l56.8 113.7c.3 .5 .4 1.1 .4 1.7 0 2.1-1.7 3.8-3.8 3.8l-234.4 0-128-128zm176 176L464 256 464 398.2 321.8 256zM352 421.8l-85.8-85.8-154.2 0 0-80 74.2 0-48-48-70.4 0c-2.1 0-3.8-1.7-3.8-3.8 0-.6 .1-1.2 .4-1.7l22.8-45.5-35.8-35.8-29.9 59.9c-3.6 7.2-5.5 15.1-5.5 23.2 0 27.3 21.2 49.7 48 51.6l0 .1 0 176c0 26.5 21.5 48 48 48l192 0c26.5 0 48-21.5 48-48l0-10.2zM112 432l0-48 192 0 0 48-192 0z"/></svg>