<svg xmlns="http://www.w3.org/2000/svg" viewBox="0 0 512 512"><path fill="currentColor" d="M336.4 49.9l6.5 6.5c21.9 21.9 21.9 57.3 0 79.2l-6.5 6.5-6.5-6.5c-21.9-21.9-21.9-57.3 0-79.2l6.5-6.5zm40.4 119.6c21.9-21.9 57.3-21.9 79.2 0l6.5 6.5-6.5 6.5c-21.9 21.9-57.3 21.9-79.2 0l-6.5-6.5 6.5-6.5zm30-64c2.7-29.7-7.3-60.4-30-83.1L364.7 10.3c-15.6-15.6-40.9-15.6-56.6 0L296 22.5c-18.1 18.1-28.1 41.1-30.1 64.7-21.9-15.4-47.6-23.1-73.3-23.2-96 0-192.2 96-192.2 272 0 128 48 176 176 176 176 0 272-96 272-192 0-25.8-7.7-51.5-23.2-73.5 23.6-2 46.7-12 64.7-30.1L502 204.3c15.6-15.6 15.6-40.9 0-56.6l-12.1-12.1c-22.7-22.7-53.4-32.8-83.1-30zM48.4 336c0-161 84.9-224 144.2-224 20.5 0 40.8 7.8 56.4 23.4l128 128c15.6 15.6 23.4 36 23.4 56.6 0 59.2-62.9 144-224 144-60 0-87.8-11.7-102.1-25.9S48.4 396 48.4 336zM189.8 154.5c-5.9-5.9-22.4-3.2-34.3 8.7s-14.6 28.3-8.7 34.3 22.4 3.2 34.3-8.7 14.6-28.3 8.7-34.3zm47.3 98.3c11.9-11.9 14.6-28.3 8.7-34.3s-22.4-3.2-34.3 8.7-14.6 28.3-8.7 34.3 22.4 3.2 34.3-8.7zm-32 80c11.9-11.9 14.6-28.3 8.7-34.3s-22.4-3.2-34.3 8.7-14.6 28.3-8.7 34.3 22.4 3.2 34.3-8.7zm-32 80c11.9-11.9 14.6-28.3 8.7-34.3s-22.4-3.2-34.3 8.7-14.6 28.3-8.7 34.3 22.4 3.2 34.3-8.7zm96.7-66.3c-5.9-5.9-22.4-3.2-34.3 8.7s-14.6 28.3-8.7 34.3 22.4 3.2 34.3-8.7 14.6-28.3 8.7-34.3zm24-80c-5.9-5.9-22.4-3.2-34.3 8.7s-14.6 28.3-8.7 34.3 22.4 3.2 34.3-8.7 14.6-28.3 8.7-34.3zm55.3 90.3c11.9-11.9 14.6-28.3 8.7-34.3s-22.4-3.2-34.3 8.7-14.6 28.3-8.7 34.3 22.4 3.2 34.3-8.7zm-192-80c11.9-11.9 14.6-28.3 8.7-34.3s-22.4-3.2-34.3 8.7-14.6 28.3-8.7 34.3 22.4 3.2 34.3-8.7zm-23.3 53.7c-5.9-5.9-22.4-3.2-34.3 8.7s-14.6 28.3-8.7 34.3 22.4 3.2 34.3-8.7 14.6-28.3 8.7-34.3z"/></svg>