<svg xmlns="http://www.w3.org/2000/svg" viewBox="0 0 512 512"><path fill="currentColor" d="M232 72a24 24 0 1 1 48 0 24 24 0 1 1 -48 0zm96 0a72 72 0 1 0 -144 0 72 72 0 1 0 144 0zM144 248l0 26.7c0 14.9 5.9 29.1 16.4 39.6l17.3 17.3 9.9 54.3c4.8 26.6 28 46 55.1 46l26.6 0c27.1 0 50.3-19.4 55.1-46l9.9-54.3 17.3-17.3c10.5-10.5 16.4-24.7 16.4-39.6l0-26.7c0-48.6-39.4-88-88-88l-48 0c-48.6 0-88 39.4-88 88zm88-40l48 0c22.1 0 40 17.9 40 40l0 26.7c0 2.1-.8 4.2-2.3 5.7L295 303c-3.5 3.4-5.8 7.9-6.6 12.7l-11.2 61.7c-.7 3.8-4 6.6-7.9 6.6l-26.6 0c-3.9 0-7.2-2.8-7.9-6.6l-11.2-61.7c-.9-4.8-3.2-9.2-6.6-12.7l-22.6-22.6c-1.5-1.5-2.3-3.5-2.3-5.7l0-26.7c0-22.1 17.9-40 40-40zM133.9 344.5c-16.6 2.5-32.2 5.6-46.3 9.3-22.4 5.8-42.6 13.3-57.8 23.3-14.7 9.6-29.8 24.9-29.8 47s15.1 37.4 29.8 47C45 480.9 65.2 488.4 87.6 494.2 132.7 505.9 192.9 512 256 512s123.3-6.1 168.4-17.8c22.4-5.8 42.6-13.3 57.8-23.3 14.7-9.6 29.8-24.9 29.8-47s-15.1-37.4-29.8-47c-15.2-9.9-35.5-17.5-57.8-23.3-14.1-3.6-29.6-6.7-46.3-9.3l-5.3 47.8c14.4 2.2 27.7 4.9 39.6 8 56.6 14.6 56.6 32.9 0 47.5-39.9 10.3-95.8 16.2-156.4 16.2s-116.5-5.9-156.4-16.2c-56.6-14.6-56.6-32.9 0-47.5 11.9-3.1 25.2-5.8 39.6-8l-5.3-47.8z"/></svg>