<svg xmlns="http://www.w3.org/2000/svg" viewBox="0 0 576 512"><path fill="currentColor" d="M552.6 272c13 .3 23.4 10.9 23.4 24 0 13.3-10.7 24-24 24l-116 0-7.7 4.6-93.7 56.2 64.1 38.4c5.4-2.1 11.2-3.2 17.3-3.2 26.5 0 48 21.5 48 48 0 26.5-21.5 48-48 48-26.5 0-48-21.5-48-48 0-2.3 .2-4.7 .5-6.9l-80.5-48.3-80.6 48.3c.3 2.3 .6 4.6 .6 6.9 0 26.5-21.5 48-48 48-26.5 0-48-21.5-48-48 0-26.5 21.5-48 48-48 6.1 0 11.9 1.2 17.2 3.2l64.1-38.4-93.7-56.2-7.7-4.6-116 0c-13.2 0-24-10.8-24-24 0-13 10.4-23.6 23.4-24l529.2 0zM288 352.8l54.7-32.8-109.4 0 54.7 32.8zM15.3 27.5C36.3 .7 73.5-7.7 104 7.5l6.4 3.6 0 0 134.4 84.9 259.2 0 7.4 .4c36.3 3.7 64.6 34.4 64.6 71.6l-.4 7.4c-3.4 33.9-30.4 60.8-64.2 64.2l-7.4 .4-270.7 0c-19.7 0-38.9-5.6-55.5-16.1l-144.2-91C0 111.6-10.1 67.2 11.1 33.5l4.2-6zM84.8 51.7c-10.5-6.6-24.2-4.1-31.7 5.5l-1.4 2c-7.1 11.2-3.7 26 7.5 33.1l144.2 91c8.9 5.7 19.3 8.7 29.9 8.7l270.7 0 2.5-.1c12.1-1.2 21.5-11.5 21.5-23.9l-.1-2.4c-1.1-11.3-10.1-20.3-21.4-21.4l-2.4-.1-273 0-5.9-3.7-140.3-88.6z"/></svg>