<svg xmlns="http://www.w3.org/2000/svg" viewBox="0 0 512 512"><path fill="currentColor" d="M96 151.7C96 85.6 149.6 32 215.7 32L376 32c13.3 0 24 10.7 24 24s-10.7 24-24 24L215.7 80c-39.6 0-71.7 32.1-71.7 71.7 0 34.8 25 64.6 59.2 70.6L303.4 240 488 240c13.3 0 24 10.7 24 24s-10.7 24-24 24L24 288c-13.3 0-24-10.7-24-24s10.7-24 24-24l110.9 0C110.8 217.9 96 186.3 96 151.7zM363.8 336l49.8 0c1.6 7.9 2.5 16 2.5 24.3 0 66.1-53.6 119.7-119.7 119.7L136 480c-13.3 0-24-10.7-24-24s10.7-24 24-24l160.3 0c39.6 0 71.7-32.1 71.7-71.7 0-8.5-1.5-16.7-4.2-24.3z"/></svg>