<svg xmlns="http://www.w3.org/2000/svg" viewBox="0 0 576 512"><path fill="currentColor" d="M88 64C74.7 64 64 74.7 64 88s10.7 24 24 24l27.2 0 96 144-96 144-27.2 0c-13.3 0-24 10.7-24 24s10.7 24 24 24l40 0c8 0 15.5-4 20-10.7l92-138 92 138C336.5 444 344 448 352 448l40 0c13.3 0 24-10.7 24-24s-10.7-24-24-24l-27.2 0-96-144 96-144 27.2 0c13.3 0 24-10.7 24-24s-10.7-24-24-24l-40 0c-8 0-15.5 4-20 10.7l-92 138-92-138C143.5 68 136 64 128 64L88 64zM536 312c0-8-3.9-15.4-10.5-19.9s-15-5.4-22.4-2.4l-40 16c-12.3 4.9-18.3 18.9-13.4 31.2s18.9 18.3 31.2 13.4l7.1-2.8 0 116.6-16 0c-13.3 0-24 10.7-24 24s10.7 24 24 24l80 0c13.3 0 24-10.7 24-24s-10.7-24-24-24l-16 0 0-152z"/></svg>