<svg xmlns="http://www.w3.org/2000/svg" viewBox="0 0 576 512"><path fill="currentColor" d="M41-24.9c-9.4-9.4-24.6-9.4-33.9 0S-2.3-.3 7 9.1l528 528c9.4 9.4 24.6 9.4 33.9 0s9.4-24.6 0-33.9l-61.4-61.4C529.1 431.4 544 409.5 544 384l0-256c0-35.3-28.7-64-64-64L129.8 64 41-24.9zM177.8 112L480 112c8.8 0 16 7.2 16 16l0 256c0 8.8-7.2 16-16 16l-14.2 0-48-48 22.2 0c13.3 0 24-10.7 24-24s-10.7-24-24-24l-70.2 0-192-192zM282.2 352l-48-48-98.2 0c-13.3 0-24 10.7-24 24s10.7 24 24 24l146.2 0zm-96.1-96.1l-47.9-47.9-2.2 0c-13.3 0-24 10.7-24 24s10.7 24 24 24l48 0c.7 0 1.4 0 2.1-.1zM80 384l0-234.2-44-44c-2.6 6.9-4 14.4-4 22.2l0 256c0 35.3 28.7 64 64 64l282.2 0-48-48-234.2 0c-8.8 0-16-7.2-16-16zM440 208l-48 0c-13.3 0-24 10.7-24 24s10.7 24 24 24l48 0c13.3 0 24-10.7 24-24s-10.7-24-24-24z"/></svg>