<svg xmlns="http://www.w3.org/2000/svg" viewBox="0 0 512 512"><path fill="currentColor" d="M192 56l0 40 128 0 0-40c0-4.4-3.6-8-8-8L200 48c-4.4 0-8 3.6-8 8zM144 96l0-40c0-30.9 25.1-56 56-56L312 0c30.9 0 56 25.1 56 56l0 40 80 0c35.3 0 64 28.7 64 64l0 256c0 35.3-28.7 64-64 64L64 480c-35.3 0-64-28.7-64-64L0 160c0-35.3 28.7-64 64-64l80 0zm200 48l-200 0 0 288 224 0 0-288-24 0zm72 0l0 288 32 0c8.8 0 16-7.2 16-16l0-256c0-8.8-7.2-16-16-16l-32 0zM96 432l0-288-32 0c-8.8 0-16 7.2-16 16l0 256c0 8.8 7.2 16 16 16l32 0zM244 208l24 0c8.8 0 16 7.2 16 16l0 36 36 0c8.8 0 16 7.2 16 16l0 24c0 8.8-7.2 16-16 16l-36 0 0 36c0 8.8-7.2 16-16 16l-24 0c-8.8 0-16-7.2-16-16l0-36-36 0c-8.8 0-16-7.2-16-16l0-24c0-8.8 7.2-16 16-16l36 0 0-36c0-8.8 7.2-16 16-16z"/></svg>