<svg xmlns="http://www.w3.org/2000/svg" viewBox="0 0 640 512"><path fill="currentColor" d="M160.1-.2c-7.4 0-14.3 3.4-18.8 9l-1.8 2.6-24.3 40.2-45.6-11.2c-8.2-2-16.8 .4-22.7 6.3s-8.3 14.6-6.3 22.8l11.2 45.6-40.2 24.3C4.4 143.7 0 151.5 0 159.9s4.4 16.2 11.6 20.6l40.2 24.3-11.2 45.6c-2 8.2 .4 16.8 6.3 22.8s14.6 8.3 22.7 6.3l45.6-11.3 24.3 40.2c4.3 7.2 12.2 11.6 20.6 11.6s16.2-4.4 20.5-11.6l24.3-40.2 45.6 11.3c8.2 2 16.8-.4 22.7-6.3 5.9-5.9 8.4-14.6 6.3-22.8l-11.3-45.6 40.2-24.3 2.6-1.8c5.7-4.5 9-11.4 9-18.8s-3.4-14.2-9-18.8l-2.6-1.8-40.2-24.3 11.3-45.6c2-8.2-.4-16.8-6.3-22.8s-14.6-8.3-22.7-6.3l-45.6 11.2-24.3-40.2C176.2 4.2 168.5-.2 160.1-.2zM147.2 91.6l12.8-21.3 12.9 21.3 2.3 3.2c5.8 6.8 15.1 9.9 24 7.7l24.2-6-6 24.2c-2.5 10.2 1.9 20.8 10.9 26.3l21.3 12.9-21.3 12.9c-9 5.4-13.4 16.1-10.9 26.3l6 24.2-24.2-6c-8.9-2.2-18.2 .9-24 7.7l-2.3 3.2-12.9 21.3-12.8-21.3c-4.8-7.9-13.5-12.2-22.5-11.5l-3.8 .6-24.2 6 6-24.2c2.2-8.9-.9-18.2-7.8-24l-3.2-2.3-21.3-12.9 21.3-12.9 3.2-2.3c6.8-5.8 9.9-15.1 7.8-24l-6-24.2 24.2 6c10.2 2.5 20.9-1.9 26.3-10.9zM192 160a32 32 0 1 0 -64 0 32 32 0 1 0 64 0zm376 16l0 53.4c-14.8 7.7-24 23.1-24 44.6 0 16.8 16 44 37.4 67.2 5.8 6.2 15.5 6.2 21.2 0 21.4-23.3 37.4-50.6 37.4-67.2 0-21.5-9.2-37-24-44.6l0-53.4c0-44.2-35.8-80-80-80s-80 35.8-80 80l0 22.7c-9.8-4.3-20.6-6.7-32-6.7-44.2 0-80 35.8-80 80l0 21.4c-14.8 7.7-24 23.1-24 44.6 0 16.8 16 44 37.4 67.2 5.8 6.2 15.5 6.2 21.2 0 21.4-23.3 37.4-50.6 37.4-67.2 0-21.5-9.2-37-24-44.6l0-21.4c0-17.7 14.3-32 32-32s32 14.3 32 32l0 192-432 0c-13.3 0-24 10.7-24 24s10.7 24 24 24l592 0c13.3 0 24-10.7 24-24s-10.7-24-24-24l-112 0 0-288c0-17.7 14.3-32 32-32s32 14.3 32 32z"/></svg>