<svg xmlns="http://www.w3.org/2000/svg" viewBox="0 0 576 512"><path fill="currentColor" d="M192 512a32 32 0 1 1 0-64 32 32 0 1 1 0 64zm160 0a32 32 0 1 1 0-64 32 32 0 1 1 0 64zm160 0a32 32 0 1 1 0-64 32 32 0 1 1 0 64zM288-32c8 0 15.4 4 19.9 10.6l58.8 87.4 103.4-20.2c7.8-1.5 15.9 .9 21.6 6.6l-47.4 47.4 0-.1-84 16.4c-9.5 1.8-19.1-2.2-24.5-10.2l-47.8-71-47.8 71c-5.4 8-15 12-24.5 10.2l-84-16.4 16.4 84c1.8 9.5-2.2 19.1-10.2 24.5L67 256 138 303.8c8 5.4 12 15 10.2 24.5l-16.4 84 .1 0-47.4 47.4c-5.6-5.6-8.1-13.8-6.6-21.6L98 334.7 10.6 275.9C4 271.4 0 264 0 256s4-15.4 10.6-19.9L98 177.3 77.8 73.9c-1.5-7.8 .9-15.9 6.6-21.6s13.8-8.1 21.6-6.6l103.3 20.2 58.8-87.4 1.8-2.3C274.4-29 281-32 288-32zM272 432a32 32 0 1 1 0-64 32 32 0 1 1 0 64zm160 0a32 32 0 1 1 0-64 32 32 0 1 1 0 64zm-80-80a32 32 0 1 1 0-64 32 32 0 1 1 0 64zm160 0a32 32 0 1 1 0-64 32 32 0 1 1 0 64zM288 136c33.1 0 63.1 13.4 84.8 35.2l-33.9 33.9c-13-13-31-21.1-50.9-21.1-39.8 0-72 32.2-72 72 0 19.9 8.1 37.9 21.1 50.9l-33.9 33.9c-21.7-21.7-35.2-51.7-35.2-84.8 0-66.3 53.7-120 120-120zM432 272a32 32 0 1 1 0-64 32 32 0 1 1 0 64zm80-80a32 32 0 1 1 0-64 32 32 0 1 1 0 64z"/></svg>