<svg xmlns="http://www.w3.org/2000/svg" viewBox="0 0 576 512"><path fill="currentColor" d="M416 320c39.5 0 72.3 28.7 78.8 66.4 5.5-1.5 11.2-2.4 17.2-2.4 35.3 0 64 28.7 64 64s-28.7 64-64 64l-184 0c-39.8 0-72-32.2-72-72s32.2-72 72-72c4.8 0 9.5 .5 14.1 1.4 12-29 40.6-49.4 73.9-49.4zM288-32c8 0 15.4 4 19.9 10.6l58.8 87.4 103.4-20.2c7.8-1.5 15.9 .9 21.6 6.6s8.1 13.8 6.6 21.6L478 177.3 565.4 236.1C572 240.5 576 248 576 256s-4 15.4-10.6 19.9l-55.5 37.3c-11.6-12.6-25.7-22.8-41.5-29.9L509 256 438 208.2c-8-5.4-12-15-10.2-24.5l16.4-84-84 16.4c-9.5 1.8-19.1-2.2-24.5-10.2l-47.8-71-47.8 71c-5.4 8-15 12-24.5 10.2l-84-16.4 16.4 84c1.8 9.5-2.2 19.1-10.2 24.5L67 256 138 303.8c8 5.4 12 15 10.2 24.5l-16.4 84 84-16.4 .7-.1c-5.4 13.7-8.4 28.6-8.4 44.2 0 2.1 .1 4.1 .2 6.2l-102.2 20c-7.8 1.5-15.9-.9-21.6-6.6s-8.1-13.8-6.6-21.6L98 334.7 10.6 275.9C4 271.4 0 264 0 256s4-15.4 10.6-19.9L98 177.3 77.8 73.9c-1.5-7.8 .9-15.9 6.6-21.6s13.8-8.1 21.6-6.6l103.3 20.2 58.8-87.4 1.8-2.3C274.4-29 281-32 288-32zm0 168c66.3 0 120 53.7 120 120 0 5.6-.4 11-1.2 16.4-20 1.4-38.7 7.4-55.1 17 5.2-10 8.3-21.3 8.3-33.4 0-39.8-32.2-72-72-72s-72 32.2-72 72c0 38.8 30.8 70.4 69.3 71.8-19.7 7.5-36.8 20-50 36-39.9-19.5-67.3-60.4-67.3-107.8 0-66.3 53.7-120 120-120z"/></svg>