<svg xmlns="http://www.w3.org/2000/svg" viewBox="0 0 576 512"><path fill="currentColor" d="M168 464c13.3 0 24 10.7 24 24s-10.7 24-24 24l-80 0c-13.2 0-24-10.7-24-24s10.7-24 24-24l80 0zm384 0c13.3 0 24 10.7 24 24s-10.7 24-24 24l-288 0c-13.2 0-24-10.7-24-24s10.7-24 24-24l288 0zm-64-96c13.3 0 24 10.7 24 24s-10.7 24-24 24L24 416c-13.2 0-24-10.7-24-24s10.7-24 24-24l464 0zM288-32c8 0 15.4 4 19.9 10.6l58.8 87.4 103.4-20.2c7.8-1.5 15.9 .9 21.6 6.6s8.1 13.8 6.6 21.6L478 177.3 565.4 236.1C572 240.5 576 248 576 256s-4 15.4-10.6 19.9l-65.6 44.1-72 0c1-6.5 4.6-12.4 10.2-16.2l71-47.8-71-47.8c-8-5.4-12-15-10.2-24.5l16.4-84-84 16.4c-9.5 1.8-19.1-2.2-24.5-10.2l-47.8-71-47.8 71c-5.4 8-15 12-24.5 10.2l-84-16.4 16.4 84c1.8 9.5-2.2 19.1-10.2 24.5L67 256 138 303.8c5.7 3.8 9.2 9.8 10.2 16.2l-72 0-65.6-44.1C4 271.4 0 264 0 256s4-15.4 10.6-19.9L98 177.3 77.8 73.9c-1.5-7.8 .9-15.9 6.6-21.6s13.8-8.1 21.6-6.6l103.3 20.2 58.8-87.4 1.8-2.3C274.4-29 281-32 288-32zm0 168c66.3 0 120 53.7 120 120 0 23.5-6.8 45.5-18.5 64l-68.7 0c23.3-11.9 39.2-36.1 39.2-64 0-39.8-32.2-72-72-72s-72 32.2-72 72c0 27.9 15.9 52.1 39.2 64l-68.7 0c-11.7-18.5-18.5-40.5-18.5-64 0-66.3 53.7-120 120-120z"/></svg>