<svg xmlns="http://www.w3.org/2000/svg" viewBox="0 0 576 512"><path fill="currentColor" d="M288 432c13.3 0 24 10.7 24 24l0 64c0 13.3-10.7 24-24 24s-24-10.7-24-24l0-64c0-13.3 10.7-24 24-24zM129.6 380.4c9.4-9.4 24.6-9.4 34 0s9.4 24.6 0 34l-45.3 45.3c-9.4 9.4-24.6 9.4-33.9 0s-9.4-24.6 0-33.9l45.2-45.3zm282.8 0c9.4-9.4 24.6-9.4 34 0l45.3 45.3c9.4 9.4 9.4 24.6 0 33.9s-24.6 9.4-33.9 0l-45.3-45.3c-9.4-9.4-9.4-24.6 0-34zM288 384a128 128 0 1 1 0-256 128 128 0 1 1 0 256zm0-208a80 80 0 1 0 0 160 80 80 0 1 0 0-160zM88 232c13.3 0 24 10.7 24 24s-10.7 24-24 24l-64 0c-13.3 0-24-10.7-24-24s10.7-24 24-24l64 0zm464 0c13.3 0 24 10.7 24 24s-10.7 24-24 24l-64 0c-13.3 0-24-10.7-24-24s10.7-24 24-24l64 0zM84.3 52.3c9.4-9.4 24.6-9.4 33.9 0l45.3 45.2c9.4 9.4 9.4 24.6 0 34s-24.6 9.4-34 0L84.3 86.3c-9.4-9.4-9.4-24.6 0-33.9zm373.4 0c9.4-9.4 24.6-9.4 33.9 0s9.4 24.6 0 33.9l-45.3 45.3c-9.4 9.4-24.6 9.4-34 0s-9.4-24.6 0-34l45.3-45.2zM288-32c13.3 0 24 10.7 24 24l0 64c0 13.3-10.7 24-24 24s-24-10.7-24-24l0-64c0-13.3 10.7-24 24-24z"/></svg>