<svg xmlns="http://www.w3.org/2000/svg" viewBox="0 0 576 512"><path fill="currentColor" d="M520.4 464c13.2 0 24 10.8 24 24s-10.8 24-24 24l-464 0c-13.3 0-24-10.7-24-24s10.7-24 24-24l464 0zM376.2 200.1c6.6-4.4 15.1-5.3 22.5-2.2s12.7 9.6 14.3 17.5l20.9 103.2 103.2 20.9c7.8 1.6 14.3 7 17.4 14.3 3 7.4 2.2 15.8-2.2 22.4l-26.4 39.8-57.6 0 24.2-36.6-83.9-17c-9.4-1.9-16.8-9.3-18.8-18.7l-17-83.9-71.3 47.3c-8 5.3-18.5 5.3-26.5 0l-71.3-47.3-17 83.9c-1.9 9.5-9.3 16.8-18.7 18.8l-83.9 17 24.3 36.6-57.6 0-26.4-39.8c-4.4-6.7-5.3-15.1-2.2-22.5s9.6-12.7 17.4-14.3l103.2-20.9 20.9-103.2 .8-2.9c2.2-6.5 7.1-11.9 13.6-14.5 7.4-3.1 15.8-2.2 22.4 2.2l87.8 58.2 87.8-58.2zm-133.7 153c60.5-25.1 129.8 3.1 155.9 62.9L342 416c-19.8-22.2-52.2-30.6-81.2-18.5-10.3 4.3-19.1 10.7-26 18.5l-56.4 0c12-27.5 34.2-50.5 64-62.9zM273.3-10.6c9.4-7.7 23.3-7.1 32.1 1.7l64 64c9.4 9.4 9.4 24.6 0 33.9-9.4 9.4-24.6 9.4-33.9 0l-23-23 0 102.1c0 13.2-10.8 24-24 24-13.3 0-24-10.7-24-24l0-102.1-23 23c-9.4 9.4-24.6 9.4-33.9 0s-9.4-24.6 0-33.9l64-64 1.8-1.7z"/></svg>