<svg xmlns="http://www.w3.org/2000/svg" viewBox="0 0 576 512"><path fill="currentColor" d="M520.4 464c13.3 0 24 10.7 24 24s-10.7 24-24 24l-464 0c-13.3 0-24-10.7-24-24s10.7-24 24-24l464 0zM376.2 200.1c6.6-4.4 15.1-5.2 22.5-2.2s12.8 9.6 14.3 17.4l20.8 103.2 103.3 20.9c7.8 1.6 14.3 7 17.4 14.3s2.2 15.8-2.2 22.4l-26.4 39.8-57.6 0 24.3-36.6-83.8-17c-9.4-1.9-16.9-9.3-18.8-18.7l-17-83.9-71.3 47.3c-8 5.3-18.5 5.3-26.5 0l-71.3-47.3-17 83.9c-1.9 9.4-9.3 16.8-18.8 18.7l-83.9 17 24.3 36.6-57.6 0-26.4-39.8c-4.4-6.6-5.3-15.1-2.2-22.5s9.6-12.7 17.4-14.3l103.2-20.9 20.9-103.2 .7-2.8c2.2-6.5 7.1-11.9 13.6-14.6 7.4-3.1 15.8-2.2 22.5 2.2l87.7 58.2 87.8-58.2zm-133.7 153C303 328 372.3 356.2 398.4 416L342 416c-19.8-22.2-52.2-30.6-81.2-18.6-10.3 4.3-19.1 10.8-26 18.6l-56.3 0c12-27.5 34.2-50.5 64-62.9zM288.4-16c13.3 0 24 10.7 24 24l0 102.1 23-23c9.4-9.4 24.6-9.4 33.9 0s9.4 24.6 0 33.9l-64 64c-8.8 8.8-22.7 9.3-32.1 1.7l-1.8-1.7-64-64c-9.4-9.4-9.4-24.6 0-33.9s24.6-9.4 33.9 0l23 23 0-102.1c0-13.3 10.7-24 24-24z"/></svg>