<svg xmlns="http://www.w3.org/2000/svg" viewBox="0 0 576 512"><path fill="currentColor" d="M524.5 302.9L425.6 270 510.5 126.5c23.5 25.7 40.2 57.9 47 94.1l8.6 46c4.5 24-18.4 44-41.5 36.3zM398.1 66.2c30 4.6 57.9 16.2 81.9 33.3L386.8 257.1 323.2 236c-7.3-2.4-14.8-4.2-22.3-5.2L398.1 66.2zM352.9 64L253.1 233c-4.1 1-8.2 2.2-12.2 3.6L125.8 276.4 251.3 64 352.9 64zM18.7 220.6C35.6 130.6 113.6 65.2 204.9 64L67.4 296.7 52.2 301.9c-23.2 8-46.5-12-41.9-36.1l8.5-45.2zM80.1 343.1l0 8.9c0 26.5 21.5 48 48 48 8.7 0 16.8-2.3 23.8-6.3 17.5-10 39-10 56.5 0 7 4 15 6.3 23.8 6.3 9.5 0 18.2-2.7 25.6-7.4 18.6-11.7 42.3-11.7 60.8 0 7.4 4.7 16.1 7.4 25.6 7.4 8.7 0 16.8-2.3 23.8-6.3 17.5-10 39-10 56.5 0 7 4 15 6.3 23.8 6.3 26.5 0 48-21.5 48-48l0-8 16.7 5.6c10.6 3.5 21.1 4.7 31.2 3.9-.8 52.3-43.5 94.5-96 94.5-17.3 0-33.6-4.6-47.6-12.6-2.7-1.6-6.1-1.6-8.8 0-14 8-30.3 12.6-47.6 12.6-18.8 0-36.4-5.4-51.2-14.8-2.9-1.8-6.6-1.8-9.5 0-14.8 9.4-32.4 14.8-51.2 14.8-17.3 0-33.6-4.6-47.6-12.6-2.7-1.6-6.1-1.6-8.8 0-14 8-30.3 12.6-47.6 12.6-52.8 0-95.6-42.6-96-95.2 10.5 .8 21.4-.5 32.3-4.3l15.7-5.4z"/></svg>