<svg xmlns="http://www.w3.org/2000/svg" viewBox="0 0 576 512"><path fill="currentColor" d="M28.4 158.2l43.6 0 0 201.8c0 66.3 53.7 120 120 120s120-53.7 120-120l0-208c0-39.8 32.2-72 72-72s72 32.2 72 72l0 200-43.6 0c-15.7 0-28.4 12.7-28.4 28.4 0 7.5 3 14.8 8.3 20.1L463 471.2c9.4 9.4 24.6 9.4 33.9 0l70.7-70.7c5.3-5.3 8.3-12.6 8.3-20.1 0-15.7-12.7-28.4-28.4-28.4l-43.6 0 0-200c0-66.3-53.7-120-120-120S264 85.7 264 152l0 208c0 39.8-32.2 72-72 72s-72-32.2-72-72l0-201.8 43.6 0c15.7 0 28.4-12.7 28.4-28.4 0-7.5-3-14.8-8.3-20.1L113 39c-9.4-9.4-24.6-9.4-33.9 0L8.3 109.7C3 115.1 0 122.3 0 129.8 0 145.5 12.7 158.2 28.4 158.2z"/></svg>