<svg xmlns="http://www.w3.org/2000/svg" viewBox="0 0 576 512"><path fill="currentColor" d="M7 145c-9.4-9.4-9.4-24.6 0-33.9L79 39c9.4-9.4 24.6-9.4 33.9 0l72 72c9.4 9.4 9.4 24.6 0 33.9s-24.6 9.4-33.9 0l-31-31 0 246.1c0 39.8 32.2 72 72 72s72-32.2 72-72l0-208c0-66.3 53.7-120 120-120S504 85.7 504 152l0 246.1 31-31c9.4-9.4 24.6-9.4 33.9 0s9.4 24.6 0 33.9l-72 72c-9.4 9.4-24.6 9.4-33.9 0l-72-72c-9.4-9.4-9.4-24.6 0-33.9s24.6-9.4 33.9 0l31 31 0-246.1c0-39.8-32.2-72-72-72s-72 32.2-72 72l0 208c0 66.3-53.7 120-120 120S72 426.3 72 360l0-246.1-31 31c-9.4 9.4-24.6 9.4-33.9 0z"/></svg>