<svg xmlns="http://www.w3.org/2000/svg" viewBox="0 0 512 512"><path fill="currentColor" d="M96 40c0-13.3-10.7-24-24-24S48 26.7 48 40l0 416c0 13.3 10.7 24 24 24s24-10.7 24-24l0-93.1 44.4-38.6 104 145.7c7.7 10.8 22.7 13.3 33.5 5.6s13.3-22.7 5.6-33.5l-106.7-149.4 94.9-82.5c10-8.7 11.1-23.9 2.4-33.9s-23.9-11.1-33.9-2.4L96 299.3 96 40zM448 208l16 0c13.3 0 24-10.7 24-24s-10.7-24-24-24l-16 0c-26.3 0-51.5 8.6-72 24 0-13.3-10.7-24-24-24s-24 10.7-24 24l0 272c0 13.3 10.7 24 24 24s24-10.7 24-24l0-176c0-15.6 5.1-30.7 14.4-43.2 13.6-18.1 34.9-28.8 57.6-28.8z"/></svg>