<svg xmlns="http://www.w3.org/2000/svg" viewBox="0 0 576 512"><path fill="currentColor" d="M272.2 384l28.9 28.9c10.5 10.5 10.5 27.6 0 38.2-7.8 7.8-19.6 10.1-29.7 5.7l-95.2-40.8-48 48 0 34.7c0 8.5-3.4 16.6-9.4 22.6-12.5 12.5-32.8 12.5-45.3 0L22.9 470.6c-12.5-12.5-12.5-32.8 0-45.3 6-6 14.1-9.4 22.6-9.4l34.7 0 48-48-40.8-95.2c-4.3-10.1-2.1-21.9 5.7-29.7 10.5-10.5 27.6-10.5 38.2 0L160.2 272 438.9-6.6c6-6 14.1-9.4 22.6-9.4l82.7 0c8.8 0 16 7.2 16 16l0 82.7c0 8.5-3.4 16.6-9.4 22.6L272.2 384zm-33.9-33.9l273.9-273.9 0-44.1-44.1 0-273.9 273.9 44.1 44.1z"/></svg>