<svg xmlns="http://www.w3.org/2000/svg" viewBox="0 0 512 512"><path fill="currentColor" d="M48 76.1L48 48 76.1 48 390.1 361.9 361.9 390.1 48 76.1zM256 352l72 72-21.1 21.1c-10.4 10.4-10.4 27.4 0 37.8 7.9 7.9 19.8 10 30 5.4L408 456 441.4 489.4c12.5 12.5 32.8 12.5 45.3 0l2.7-2.7c12.5-12.5 12.5-32.8 0-45.3L456 408 488.3 336.9c4.6-10.1 2.4-22.1-5.4-30-10.4-10.4-27.4-10.4-37.8 0L424 328 105.4 9.4C99.4 3.4 91.2 0 82.7 0L16 0C7.2 0 0 7.2 0 16L0 82.7c0 8.5 3.4 16.6 9.4 22.6L160 256 88 328 66.9 306.9c-10.4-10.4-27.4-10.4-37.8 0-7.9 7.9-10 19.8-5.4 30L56 408 22.6 441.4c-12.5 12.5-12.5 32.8 0 45.3l2.7 2.7c12.5 12.5 32.8 12.5 45.3 0L104 456 175.1 488.3c10.1 4.6 22.1 2.4 30-5.4 10.4-10.4 10.4-27.4 0-37.8L184 424 256 352zm-33.9-33.9l-72 72-28.1-28.1 72-72 28.1 28.1zm161.1-93.2L502.6 105.4c6-6 9.4-14.1 9.4-22.6L512 16c0-8.8-7.2-16-16-16L429.3 0c-8.5 0-16.6 3.4-22.6 9.4l-119.5 119.5 33.9 33.9 114.8-114.8 28.1 0 0 28.1-114.8 114.8 33.9 33.9z"/></svg>