<svg xmlns="http://www.w3.org/2000/svg" viewBox="0 0 640 512"><path fill="currentColor" d="M580.1-3.7L275.2 272.8 303.6 301.2 580.1-3.7zM619 24.9l-281.4 310.3 7.8 7.8c9.4 9.4 9.4 24.6 0 33.9s-24.6 9.4-33.9 0l-8-8-173.1 173.1c-18.7 18.7-49.1 18.7-67.9 0L34.4 513.9c-18.7-18.7-18.7-49.1 0-67.9l173.1-173.1-8-8c-9.4-9.4-9.4-24.6 0-33.9s24.6-9.4 33.9 0l7.8 7.8 310.3-281.4C570.4-59.7 599.4-59 617.4-41S636.1 6 619 24.9zm-377.6 282l-16.9 16.9 28.1 28.1 16.9-16.9-28.1-28.1zm-45.2 45.2l-19.7 19.7 28.1 28.1 19.7-19.7-28.1-28.1zm-48 48l-79.9 79.9 28.1 28.1 79.9-79.9-28.1-28.1z"/></svg>