<svg xmlns="http://www.w3.org/2000/svg" viewBox="0 0 576 512"><path fill="currentColor" d="M96 16C51.8 16 16 51.8 16 96l0 352c0 35.3 28.7 64 64 64l416 0c35.3 0 64-28.7 64-64l0-352c0-44.2-35.8-80-80-80s-80 35.8-80 80l0 10.8-100.3-55.7c-7.2-4-16.1-4-23.3 0L176 106.8 176 96c0-44.2-35.8-80-80-80zm32 112l-64 0 0-32c0-17.7 14.3-32 32-32s32 14.3 32 32l0 32zM64 176l64 0 0 288-48 0c-8.8 0-16-7.2-16-16l0-272zm112-14.3l112-62.2 112 62.2 0 302.3-48 0 0-64c0-35.3-28.7-64-64-64s-64 28.7-64 64l0 64-48 0 0-302.3zM448 176l64 0 0 272c0 8.8-7.2 16-16 16l-48 0 0-288zm64-48l-64 0 0-32c0-17.7 14.3-32 32-32s32 14.3 32 32l0 32zM288 232a40 40 0 1 0 0-80 40 40 0 1 0 0 80z"/></svg>