<svg xmlns="http://www.w3.org/2000/svg" viewBox="0 0 640 512"><path fill="currentColor" d="M423.8 48c-30.8 0-55.8 25.1-55.8 56 0 5.6-2 11.1-5.6 15.4l-40 48c-4.6 5.5-11.3 8.6-18.4 8.6l-41.9 0c-53.6 0-97.9 41.8-101 95.3-1.3 22.9-20.3 40.7-43.2 40.7l-4.3 0c-21 0-39.5-13.7-45.7-33.7l-10.3-33.6-1 2.5c-5.7 14.2-8.6 29.3-8.6 44.6l0 4.3c0 57.4 46.6 104 104 104l40 0 0-24c0-13.3 10.7-24 24-24s24 10.7 24 24l0 30.1 57.9 57.9 86.1 0 0-16c0-8.8-7.2-16-16-16l-24 0c-8 0-15.5-4-20-10.7l-16-24c-5.8-8.7-5.3-20.1 1.2-28.3l18-22.5c5.7-7.1 8.8-15.9 8.8-25l0-1.6c0-26.5-21.5-48-48-48-13.3 0-24-10.7-24-24s10.7-24 24-24c53 0 96 43 96 96l0 1.6c0 20-6.8 39.4-19.3 55l-6 7.5 9.3 0c35.3 0 64 28.7 64 64l0 40c0 13.3-10.7 24-24 24l-120 0c-6.4 0-12.5-2.5-17-7l-57-57-62.1 0C68.1 448 0 379.9 0 296l0-4.3c0-21.4 4.1-42.5 12-62.4l20.3-50.7c4.5-11.3 15.4-18.6 27.5-18.6 13 0 24.5 8.5 28.3 20.9l25.3 82.3C120.6 186.9 184.8 128 262.1 128l30.7 0 27.6-33.2c4.6-53 49.1-94.8 103.4-94.8 8.5 0 16.9 1 25 3.1 7.4-2 15.2-3.1 23.1-3.1 26.7 0 51.7 12 68.3 32.1 55.4 2.3 99.7 47.9 99.7 103.9l0 24c0 30.9-21.9 56.7-51 62.7l-5.8 7.7 0 0C571.1 246.5 552.1 256 532 256l-72 0-15.3 20.5 46.8 26c12.7 7.1 20.6 20.4 20.6 35l0 22.6c0 13.3-10.7 24-24 24s-24-10.7-24-24l0-17.9-48.1-26.7c-.7-21.5-6.4-41.6-15.9-59.4l28.8-38.4c4.5-6 11.6-9.6 19.2-9.6l84 0c.8 0 1.5-.1 2.3-.2-9.3-.8-18-4.9-24.6-11.5l-17.9-17.9c-1.5-1.5-3.5-2.3-5.7-2.3L464 176c-8.8 0-16-7.2-16-16s7.2-16 16-16l22.1 0c10.6 0 20.8 4.2 28.3 11.7l17.9 17.9c1.5 1.5 3.5 2.3 5.7 2.3l38.1 0c8.8 0 16-7.2 16-16l0-24c0-30.9-25.1-56-56-56l-8.2 0c-8.5 0-16.4-4.5-20.7-11.9-7.3-12.4-20.6-20.1-35.1-20.1-5 0-9.8 .9-14.3 2.6-5.2 1.9-10.9 2-16.1 .3-5.7-1.9-11.7-2.9-17.8-2.9zM456 88a16 16 0 1 1 32 0 16 16 0 1 1 -32 0z"/></svg>