<svg xmlns="http://www.w3.org/2000/svg" viewBox="0 0 448 512"><path fill="currentColor" d="M384 32c33.1 0 60.4 25.2 63.7 57.5l.3 6.5 0 320-.3 6.5c-3.1 30.1-27 54.1-57.1 57.1l-6.5 .3-320 0c-35.3 0-64-28.7-64-64L0 96C0 60.7 28.7 32 64 32l320 0zM48 416c0 8.8 7.2 16 16 16l136 0 0-80-152 0 0 64zm200 16l136 0c8.8 0 16-7.2 16-16l0-64-152 0 0 80zM144 304l56 0 0-96-56 0 0 96zm208 0l48 0 0-96-48 0 0 96zm-104 0l56 0 0-96-56 0 0 96zM48 304l48 0 0-96-48 0 0 96zM64 80c-8.8 0-16 7.2-16 16l0 64 152 0 0-80-136 0zm184 80l152 0 0-64c0-8.8-7.2-16-16-16l-136 0 0 80z"/></svg>