<svg xmlns="http://www.w3.org/2000/svg" viewBox="0 0 448 512"><path fill="currentColor" d="M0 96C0 60.7 28.7 32 64 32l32 0 0 48-32 0c-8.8 0-16 7.2-16 16l0 136 352 0 0-136c0-8.8-7.2-16-16-16l-32 0 0-48 32 0c33.1 0 60.4 25.2 63.7 57.5l.3 6.5 0 320-.3 6.5c-3.1 30.1-27 54.1-57.1 57.1l-6.5 .3-320 0c-35.3 0-64-28.7-64-64L0 96zM48 416c0 8.8 7.2 16 16 16l320 0c8.8 0 16-7.2 16-16l0-136-352 0 0 136zM156.1 30.1c-9.4-9.4-9.4-24.6 0-33.9s24.6-9.4 33.9 0l33.9 33.9 34-34c9.4-9.4 24.6-9.4 33.9 0 9.4 9.4 9.4 24.6 0 34L257.9 64 291.9 97.9c9.4 9.4 9.4 24.6 0 33.9s-24.6 9.4-33.9 0L224 97.9 190.1 131.9c-9.4 9.4-24.6 9.4-33.9 0s-9.4-24.6 0-33.9L190 64 156.1 30.1z"/></svg>