<svg xmlns="http://www.w3.org/2000/svg" viewBox="0 0 576 512"><path fill="currentColor" d="M7.5-24.9c9.4-9.4 24.6-9.4 33.9 0l62 62c7.7-3.3 16.2-5.1 25.1-5.1l320 0c35.3 0 64 28.7 64 64l0 320c0 8.9-1.9 17.3-5.2 25l62.1 62.1c9.4 9.4 9.4 24.6 0 33.9s-24.6 9.4-33.9 0L7.5 9.1c-9.4-9.4-9.4-24.6 0-33.9zm105 206.7l0 82.2 82.2 0 48 48-130.2 0 0 104c0 8.8 7.2 16 16 16l234.2 0 48 48-282.2 0-6.5-.3c-30.1-3.1-54.1-27-57.1-57.1l-.3-6.5 0-282.2 48 48zm352 216.3l0-86.2-86.2 0 86.2 86.2zM330.3 264l134.2 0 0-104-238.2 0 104 104z"/></svg>