<svg xmlns="http://www.w3.org/2000/svg" viewBox="0 0 576 512"><path fill="currentColor" d="M448.5 80l-208 0 0 80 152 0c13.3 0 24 10.7 24 24s-10.7 24-24 24l-152 0 0 152c0 13.3-10.7 24-24 24s-24-10.7-24-24l0-152-80 0 0 208c0 8.8 7.2 16 16 16l92.1 0c-5.5 15.5-5.5 32.5 0 48l-92.1 0c-35.3 0-64-28.7-64-64l0-320c0-35.3 28.7-64 64-64l320 0c35.3 0 64 28.7 64 64l0 92.1c-15.5-5.5-32.5-5.5-48 0l0-92.1c0-8.8-7.2-16-16-16zm-336 80l80 0 0-80-64 0c-8.8 0-16 7.2-16 16l0 64zm407 161l-7-7 0 102.1c0 35.3-28.7 64-64 64l-102.1 0 7 7c9.4 9.4 9.4 24.6 0 33.9s-24.6 9.4-33.9 0l-48-48c-9.4-9.4-9.4-24.6 0-33.9l48-48c9.4-9.4 24.6-9.4 33.9 0s9.4 24.6 0 33.9l-7 7 102.1 0c8.8 0 16-7.2 16-16l0-102.1-7 7c-9.4 9.4-24.6 9.4-33.9 0s-9.4-24.6 0-33.9l48-48c9.4-9.4 24.6-9.4 33.9 0l48 48c9.4 9.4 9.4 24.6 0 33.9s-24.6 9.4-33.9 0z"/></svg>