<svg xmlns="http://www.w3.org/2000/svg" viewBox="0 0 448 512"><path fill="currentColor" d="M312 80l0 88 88 0 0-72c0-8.8-7.2-16-16-16l-72 0zm-48 0l-80 0 0 88 80 0 0-88zM136 80L64 80c-8.8 0-16 7.2-16 16l0 72 88 0 0-88zM0 216L0 96C0 60.7 28.7 32 64 32l320 0c35.3 0 64 28.7 64 64l0 320c0 35.3-28.7 64-64 64L64 480c-35.3 0-64-28.7-64-64L0 216zm48 80l88 0 0-80-88 0 0 80zm0 48l0 72c0 8.8 7.2 16 16 16l72 0 0-88-88 0zm136 88l80 0 0-88-80 0 0 88zm128 0l72 0c8.8 0 16-7.2 16-16l0-72-88 0 0 88zm88-136l0-80-88 0 0 80 88 0zm-216 0l80 0 0-80-80 0 0 80z"/></svg>