<svg xmlns="http://www.w3.org/2000/svg" viewBox="0 0 448 512"><path fill="currentColor" d="M0 416c0 35.3 28.7 64 64 64l0-48c-8.8 0-16-7.2-16-16l0-136 352 0 0 136c0 8.8-7.2 16-16 16l0 48c33.1 0 60.4-25.2 63.7-57.5l.3-6.5 0-320-.3-6.5c-3.1-30.1-27-54.1-57.1-57.1L384 32 64 32C28.7 32 0 60.7 0 96L0 416zM48 96c0-8.8 7.2-16 16-16l320 0c8.8 0 16 7.2 16 16l0 136-352 0 0-136zm80 352c0 13.3 10.7 24 24 24l48 0 0 48c0 13.3 10.7 24 24 24s24-10.7 24-24l0-48 48 0c13.3 0 24-10.7 24-24s-10.7-24-24-24l-48 0 0-48c0-13.3-10.7-24-24-24s-24 10.7-24 24l0 48-48 0c-13.3 0-24 10.7-24 24z"/></svg>