<svg xmlns="http://www.w3.org/2000/svg" viewBox="0 0 448 512"><path fill="currentColor" d="M64 80c-8.8 0-16 7.2-16 16l0 48 352 0 0-48c0-8.8-7.2-16-16-16L64 80zM48 192l0 224c0 8.8 7.2 16 16 16l320 0c8.8 0 16-7.2 16-16l0-224-240 0 0 40c0 4.4 3.6 8 8 8l16 0c13.3 0 24 10.7 24 24s-10.7 24-24 24l-16 0c-2.7 0-5.4-.2-8-.6l0 40.6c0 4.4 3.6 8 8 8l48 0c13.3 0 24 10.7 24 24s-10.7 24-24 24l-48 0c-30.9 0-56-25.1-56-56l0-136-64 0zM0 96C0 60.7 28.7 32 64 32l320 0c35.3 0 64 28.7 64 64l0 320c0 35.3-28.7 64-64 64L64 480c-35.3 0-64-28.7-64-64L0 96zM256 264c0-13.3 10.7-24 24-24l48 0c13.3 0 24 10.7 24 24s-10.7 24-24 24l-48 0c-13.3 0-24-10.7-24-24zm56 72l16 0c13.3 0 24 10.7 24 24s-10.7 24-24 24l-16 0c-13.3 0-24-10.7-24-24s10.7-24 24-24z"/></svg>