<svg xmlns="http://www.w3.org/2000/svg" viewBox="0 0 512 512"><path fill="currentColor" d="M384 544a96 96 0 1 1 0-192 96 96 0 1 1 0 192zM318.8 .2C426.4 5.7 512 94.7 512 203.7l-.2 10.1c-2.1 42.8-17.7 83.6-44.3 116.9-13.4-9.6-28.5-16.9-44.8-21.4l1.1-1.1c24.1-26.7 38.3-60.8 40.1-96.8l.2-7.7c0-83.3-65.4-151.3-147.7-155.5l-8-.2c-38.7 0-75.9 14.4-104.4 40.3l-5.6 5.3-67.4 67.4 169.7 169.7c-13.1 9.3-24.6 20.8-34 33.9L97.1 195c-9.5 10.7-15.3 24.1-16.8 38.3L80 240c0 18 7.2 35.3 19.9 48l4.7 5.2c20.3 24.9 20.3 60.8 0 85.7l-4.7 5.2-46.1 46.1c-2.8 2.8-4.7 6.3-5.4 10.2l-.4 3.9c0 11 8.9 19.9 19.9 19.9 5.3 0 10.3-2.1 14.1-5.8l46.1-46.1 5.2-4.7c24.9-20.3 60.8-20.3 85.7 0 3.5 3.1 6.8 6.2 10.1 9.2 4 3.3 8.3 6 12.9 8.2-1.2 7.5-1.8 15.3-1.8 23.1 0 9.6 1 19.1 2.8 28.2-19.8-5.1-38-15.4-52.7-30.1-7.8-7.8-20.4-7.8-28.1 0l-46.1 46.1-5 4.5c-12.1 9.9-27.3 15.4-43 15.4l-6.9-.3C29 508.4 3.6 483 .3 451.1L0 444.1c0-15.8 5.5-31 15.4-43l4.5-5 46.1-46.1c6.8-6.8 7.7-17.3 2.6-25l-2.6-3.1c-20.4-20.4-32.4-47.6-33.8-76.2L32 240c0-28.8 10.7-56.5 30-77.8l4-4.2 98.4-98.4C202.6 21.5 254.3 0 308.3 0l10.5 .2zM384 400a48 48 0 1 0 0 96 48 48 0 1 0 0-96z"/></svg>