<svg xmlns="http://www.w3.org/2000/svg" viewBox="0 0 448 512"><path fill="currentColor" d="M448 96c0-35.3-28.7-64-64-64L64 32C30.9 32 3.6 57.2 .3 89.5L0 96 0 416 .3 422.5c3.1 30.1 27 54.1 57.1 57.1l6.5 .3 320 0c35.3 0 64-28.7 64-64l0-320zM400 416c0 8.8-7.2 16-16 16L64 432c-8.8 0-16-7.2-16-16l0-136 48 0 0-48-48 0 0-136c0-8.8 7.2-16 16-16l320 0c8.8 0 16 7.2 16 16l0 136-48 0 0 48 48 0 0 136zM305 265c9.4-9.4 9.4-24.6 0-33.9l-64-64-1.8-1.7c-9.4-7.7-23.3-7.1-32.1 1.7l-64 64c-9.4 9.4-9.4 24.6 0 33.9s24.6 9.4 33.9 0l23-23 0 86.1c0 13.3 10.7 24 24 24s24-10.7 24-24l0-86.1 23 23c9.4 9.4 24.6 9.4 33.9 0z"/></svg>