<svg xmlns="http://www.w3.org/2000/svg" viewBox="0 0 576 512"><path fill="currentColor" d="M128.4 32c-35.3 0-64 28.7-64 64l0 32 48 0 0-32c0-8.8 7.2-16 16-16l136 0 0 352-136 0c-8.8 0-16-7.2-16-16l0-32-48 0 0 32c0 33.1 25.2 60.4 57.5 63.7l6.5 .3 320 0 6.5-.3c30.1-3.1 54.1-27 57.1-57.1l.3-6.5 0-320c0-35.3-28.7-64-64-64l-320 0zm320 48c8.8 0 16 7.2 16 16l0 320c0 8.8-7.2 16-16 16l-136 0 0-352 136 0zM62.5 188.1c-9.4-9.4-24.6-9.4-33.9 0s-9.4 24.6 0 33.9l33.9 33.9-34 34c-9.4 9.4-9.4 24.6 0 33.9 9.4 9.4 24.6 9.4 34 0l33.9-33.9 33.9 33.9c9.4 9.4 24.6 9.4 33.9 0s9.4-24.6 0-33.9l-33.9-33.9 33.9-33.9c9.4-9.4 9.4-24.6 0-33.9s-24.6-9.4-33.9 0L96.4 222 62.5 188.1z"/></svg>