<svg xmlns="http://www.w3.org/2000/svg" viewBox="0 0 448 512"><path fill="currentColor" d="M64 32C28.7 32 0 60.7 0 96L0 416c0 33.1 25.2 60.4 57.5 63.7l6.5 .3 320 0 6.5-.3c30.1-3.1 54.1-27 57.1-57.1l.3-6.5 0-320c0-35.3-28.7-64-64-64L64 32zM384 80c8.8 0 16 7.2 16 16l0 320c0 8.8-7.2 16-16 16l-136 0 0-48-48 0 0 48-136 0c-8.8 0-16-7.2-16-16L48 96c0-8.8 7.2-16 16-16l136 0 0 48 48 0 0-48 136 0zM233 175c-9.4-9.4-24.6-9.4-33.9 0l-64 64-1.7 1.8c-7.7 9.4-7.1 23.3 1.7 32.1l64 64c9.4 9.4 24.6 9.4 33.9 0s9.4-24.6 0-33.9l-23-23 86.1 0c13.3 0 24-10.7 24-24s-10.7-24-24-24l-86.1 0 23-23c9.4-9.4 9.4-24.6 0-33.9z"/></svg>