<svg xmlns="http://www.w3.org/2000/svg" viewBox="0 0 512 512"><path fill="currentColor" d="M78.2 433.2c-5.1 12.2-19.1 18-31.3 13s-18-19.1-13-31.3l32.7-78.8 52 0-40.3 97.2zm400-18.4c5.1 12.2-.7 26.3-13 31.3s-26.3-.7-31.3-13l-40.3-97.2 52 0 32.7 78.8zM424 64c13.3 0 24 10.7 24 24s-10.7 24-24 24l-71.4 0 53.1 128 82.3 0c13.3 0 24 10.7 24 24s-10.7 24-24 24L24 288c-13.3 0-24-10.7-24-24s10.7-24 24-24l82.3 0 53.1-128-71.4 0c-13.3 0-24-10.7-24-24S74.7 64 88 64l336 0zM158.3 240l195.4 0-53.1-128-89.3 0-53.1 128z"/></svg>