<svg xmlns="http://www.w3.org/2000/svg" viewBox="0 0 640 512"><path fill="currentColor" d="M200 480l169.3 0c-.9-5.2-1.3-10.6-1.3-16.1l0-31.9-120 0 0-88 123 0c4.8-18.7 15.1-35.2 29-47.6l0-.4-152 0 0-80 164.9 0c9.3-19.2 23.3-35.7 40.5-48l-205.4 0 0-88 200 0c8.8 0 16 7.2 16 16l0 65.1c14.5-8.4 30.7-14 48-16.1l0-49c0-35.3-28.7-64-64-64L128 32C92.7 32 64 60.7 64 96l0 320c0 35.3 28.7 64 64 64l72 0zM560 272l48 0c-.1-44.1-35.8-79.9-80-79.9-44.2 0-80 35.8-80 80l0 50.6c-18.6 6.6-32 24.4-32 45.3l0 96c0 26.5 21.5 48 48 48l128 0c26.5 0 48-21.5 48-48l0-96c0-26.5-21.5-48-48-48l-96 0 0-47.9c0-17.7 14.3-32 32-32 17.6 0 31.9 14.3 32 31.9z"/></svg>