<svg xmlns="http://www.w3.org/2000/svg" viewBox="0 0 576 512"><path fill="currentColor" d="M128 32C92.7 32 64 60.7 64 96l48 0c0-8.8 7.2-16 16-16l136 0 0 352-136 0c-8.8 0-16-7.2-16-16l-48 0c0 33.1 25.2 60.4 57.5 63.7l6.5 .3 320 0 6.5-.3c30.1-3.1 54.1-27 57.1-57.1l.3-6.5 0-320c0-35.3-28.7-64-64-64L128 32zM448 80c8.8 0 16 7.2 16 16l0 320c0 8.8-7.2 16-16 16l-136 0 0-352 136 0zM96 160c-13.3 0-24 10.7-24 24l0 48-48 0c-13.3 0-24 10.7-24 24s10.7 24 24 24l48 0 0 48c0 13.3 10.7 24 24 24s24-10.7 24-24l0-48 48 0c13.3 0 24-10.7 24-24s-10.7-24-24-24l-48 0 0-48c0-13.3-10.7-24-24-24z"/></svg>