<svg xmlns="http://www.w3.org/2000/svg" viewBox="0 0 576 512"><path fill="currentColor" d="M64 112c-8.8 0-16 7.2-16 16l0 256c0 8.8 7.2 16 16 16l448 0c8.8 0 16-7.2 16-16l0-256c0-8.8-7.2-16-16-16L64 112zM0 128C0 92.7 28.7 64 64 64l448 0c35.3 0 64 28.7 64 64l0 256c0 35.3-28.7 64-64 64L64 448c-35.3 0-64-28.7-64-64L0 128zm128 32l160 0c17.7 0 32 14.3 32 32l0 32c0 17.7-14.3 32-32 32l-160 0c-17.7 0-32-14.3-32-32l0-32c0-17.7 14.3-32 32-32zM96 328c0-13.3 10.7-24 24-24l104 0c13.3 0 24 10.7 24 24s-10.7 24-24 24l-104 0c-13.3 0-24-10.7-24-24zm224 0c0-13.3 10.7-24 24-24l112 0c13.3 0 24 10.7 24 24s-10.7 24-24 24l-112 0c-13.3 0-24-10.7-24-24zm96-168a48 48 0 1 1 0 96 48 48 0 1 1 0-96z"/></svg>