<svg xmlns="http://www.w3.org/2000/svg" viewBox="0 0 512 512"><path fill="currentColor" d="M237.2 22.4L193.1 56.6c-5.6 4.4-12.6 6.6-19.7 6.4l-55.8-1.7c-14-.4-26.5 8.6-30.4 22.1L71.7 136.9c-2 6.8-6.3 12.8-12.2 16.8L13.4 185C1.9 192.9-2.9 207.6 1.8 220.7L16.3 261C71.9 189.8 158.6 144 256 144s184.1 45.8 239.7 117l14.5-40.3c4.7-13.1 0-27.8-11.6-35.7l-46.1-31.4c-5.9-4-10.2-9.9-12.2-16.8L424.7 83.3c-3.9-13.4-16.4-22.5-30.4-22.1L338.6 63c-7.1 .2-14.1-2-19.7-6.4L274.8 22.4c-11-8.6-26.5-8.6-37.5 0zM256 240c109.5 0 199.2 84.6 207.4 192L48.6 432C56.8 324.6 146.5 240 256 240zM32 480l448 0c17.7 0 32-14.3 32-32 0-141.4-114.6-256-256-256S0 306.6 0 448c0 17.7 14.3 32 32 32zm96-72a24 24 0 1 0 0-48 24 24 0 1 0 0 48zm88-88a24 24 0 1 0 -48 0 24 24 0 1 0 48 0z"/></svg>