<svg xmlns="http://www.w3.org/2000/svg" viewBox="0 0 320 512"><path fill="currentColor" d="M160.3 16C105.8 16 70.7 29 51.8 38.8L72.2 192 32.3 192c-2.9 0-5.7 .2-8.5 .6L4 43.4C1.7 26.1 7.7 8.7 22.8 0 47-14 91.6-32 160.3-32S273.6-14 297.8 0C313 8.7 319 26.1 316.7 43.4L296.8 192.6c-2.8-.4-5.6-.6-8.5-.6l-39.9 0 20.4-153.2C249.9 29 214.9 16 160.3 16zm60.2 176l-40.3 0 16.3-130.5c1.4-11 11.4-18.7 22.3-17.4s18.7 11.4 17.4 22.3L220.5 192zM140.6 382.8l-8.5 67.7c-1.4 11-11.4 18.7-22.3 17.4s-18.7-11.4-17.4-22.3l8.5-67.7c12.8 6.1 26.7 7.5 39.7 5zM256.3 320l32 0c2.9 0 5.7-.2 8.5-.6l19.9 149.1c2.3 17.3-3.7 34.7-18.8 43.4-24.2 14-68.9 32-137.5 32S47 526 22.8 512C7.7 503.3 1.7 485.9 4 468.6L23.9 319.4c2.8 .4 5.6 .6 8.5 .6l32 0c0 8.3 1.6 16.4 4.7 24L51.8 473.2c18.9 9.9 54 22.8 108.5 22.8s89.6-13 108.5-22.8L251.6 344c3.1-7.6 4.7-15.8 4.7-24zM236.2 445.5c1.4 11-6.4 21-17.4 22.3s-21-6.4-22.3-17.4l-8.3-66.6c11 .7 22.3-1.4 32.8-6.6 2.2-1.1 4.3-2.3 6.2-3.6l9 71.8zM148.5 192l-40.3 0-15.7-125.5c-1.4-11 6.4-21 17.4-22.3s21 6.4 22.3 17.4L148.5 192zM8.3 256c0-13.3 10.7-24 24-24l256 0c13.3 0 24 10.7 24 24s-10.7 24-24 24l-89.2 0 14.6 29.3c5.9 11.9 1.1 26.3-10.7 32.2s-26.3 1.1-32.2-10.7l-10.5-21.1-10.5 21.1c-5.9 11.9-20.3 16.7-32.2 10.7s-16.7-20.3-10.7-32.2l14.6-29.3-89.2 0c-13.3 0-24-10.7-24-24z"/></svg>