<svg xmlns="http://www.w3.org/2000/svg" viewBox="0 0 448 512"><path fill="currentColor" d="M212 6.9c2.5-4.3 7-6.9 12-6.9s9.5 2.7 12 6.9l50 87.6c6.5 11.5 10 24.4 10 37.6l0 3.9c0 39.8-32.2 72-72 72s-72-32.2-72-72l0-3.9c0-13.2 3.4-26.2 10-37.6L212 6.9zM64 32l78.4 0-22.1 38.7c-1.7 3-3.3 6.1-4.8 9.3L64 80c-8.8 0-16 7.2-16 16l0 176.6c37.5-23.7 85.5-22 121.5 5.2 24 18.1 40.7 26.3 54.5 26.3s30.5-8.2 54.5-26.3c36-27.1 84-28.8 121.5-5.2L400 96c0-8.8-7.2-16-16-16l-51.5 0c-1.5-3.2-3.1-6.3-4.8-9.3L305.6 32 384 32c35.3 0 64 28.7 64 64l0 320c0 35.3-28.7 64-64 64L64 480c-35.3 0-64-28.7-64-64L0 96C0 60.7 28.7 32 64 32zM48 330.6L48 416c0 8.8 7.2 16 16 16l320 0c8.8 0 16-7.2 16-16l0-85.4c-7.6-4.6-14.7-9.5-21.4-14.6-21.3-16.1-49.9-16.1-71.2 0-24.2 18.3-52.3 35.9-83.4 35.9s-59.1-17.7-83.4-35.9c-21.3-16.1-49.9-16.1-71.2 0-6.6 5-13.8 10-21.4 14.6z"/></svg>