<svg xmlns="http://www.w3.org/2000/svg" viewBox="0 0 448 512"><path fill="currentColor" d="M288-16c35.3 0 64 28.7 64 64l0 69.6c37.3 13.2 64 48.7 64 90.4l0 48 8 0c13.3 0 24 10.7 24 24s-10.7 24-24 24l-8 0 0 64c0 41.8-26.7 77.2-64 90.4l0 21.6c0 17.7-14.3 32-32 32l-192 0c-17.7 0-32-14.3-32-32l0-21.6c-35.8-12.7-61.9-45.8-63.9-85.5l-.1-4.9 0-64-8 0c-13.3 0-24-10.7-24-24s10.7-24 24-24l8 0 0-48c0-41.8 26.7-77.2 64-90.4L96 48c0-35.3 28.7-64 64-64l128 0zM80 368c0 26.5 21.5 48 48 48l192 0c26.5 0 48-21.5 48-48l0-64-288 0 0 64zm48-208c-26.5 0-48 21.5-48 48l0 48 288 0 0-48c0-26.5-21.5-48-48-48l-192 0zM184 32c-13.3 0-24 10.7-24 24s10.7 24 24 24l16 0 0 32 48 0 0-32 16 0c13.3 0 24-10.7 24-24s-10.7-24-24-24l-80 0z"/></svg>