<svg xmlns="http://www.w3.org/2000/svg" viewBox="0 0 512 512"><path fill="currentColor" d="M256 160c35.3 0 64-26.9 64-60 0-24-33.7-70.1-52.2-93.5-6.1-7.7-17.5-7.7-23.6 0-18.5 23.4-52.2 69.5-52.2 93.5 0 33.1 28.7 60 64 60zM368 96c0 5.4-.4 10.8-1.1 16l81.1 0c8.8 0 16 7.2 16 16l0 112-88 0c-39.8 0-72 32.2-72 72l0 88-240 0c-8.8 0-16-7.2-16-16l0-256c0-8.8 7.2-16 16-16l81.1 0c-.7-5.2-1.1-10.6-1.1-16 0-11.1 1.6-21.9 4.6-32L64 64C28.7 64 0 92.7 0 128L0 384c0 35.3 28.7 64 64 64l261.5 0c17 0 33.3-6.7 45.3-18.7L493.3 306.7c12-12 18.7-28.3 18.7-45.3L512 128c0-35.3-28.7-64-64-64l-84.6 0c3 10.1 4.6 20.9 4.6 32zm76.1 192L352 380.1 352 312c0-13.3 10.7-24 24-24l68.1 0zM128 224a32 32 0 1 0 0-64 32 32 0 1 0 0 64z"/></svg>