<svg xmlns="http://www.w3.org/2000/svg" viewBox="0 0 576 512"><path fill="currentColor" d="M96 48l192 0c21.2 0 39.2 13.7 45.5 32.8 3.4-.5 6.9-.8 10.5-.8l38.7 0C375.1 34.6 335.6 0 288 0L96 0C43 0 0 43 0 96L0 352c0 29.8 20.4 54.9 48 62l0 42c0 13.3 10.7 24 24 24s24-10.7 24-24l0-40 48 0 0-48-80 0c-8.8 0-16-7.2-16-16l0-112 139 0 13.8-44c.4-1.3 .9-2.7 1.3-4l-154.1 0 0-48 185.4 0c13.5-12.6 29.9-22 47.8-27.3 4.5-8 10.4-15 17.5-20.7L48 96c0-26.5 21.5-48 48-48zm16 288a32 32 0 1 0 0-64 32 32 0 1 0 0 64zM292.4 224.7c3.1-10 12.4-16.8 22.9-16.8l137.4 0c10.5 0 19.8 6.8 22.9 16.8l19.7 63.2-222.7 0 19.7-63.2zM218.6 300c-16.1 11.6-26.6 30.6-26.6 51.9l0 136c0 13.3 10.7 24 24 24s24-10.7 24-24l0-8 288 0 0 8c0 13.3 10.7 24 24 24s24-10.7 24-24l0-136c0-21.4-10.5-40.3-26.6-51.9l-28-89.5c-9.4-30.1-37.2-50.5-68.7-50.5l-4.7 0 0-7.9c0-13.3-10.7-24-24-24l-80 0c-13.3 0-24 10.7-24 24l0 7.9-4.7 0c-31.5 0-59.3 20.5-68.7 50.5l-28 89.5zM528 431.9l-288 0 0-80c0-8.8 7.2-16 16-16l256 0c8.8 0 16 7.2 16 16l0 80zm-216-48a24 24 0 1 0 -48 0 24 24 0 1 0 48 0zm168 24a24 24 0 1 0 0-48 24 24 0 1 0 0 48z"/></svg>