<svg xmlns="http://www.w3.org/2000/svg" viewBox="0 0 512 512"><path fill="currentColor" d="M360 0c44.2 0 80 35.8 80 80 0 26.3-12.7 49.5-32.2 64.1 .1 2.6 .2 5.2 .2 7.9 0 5.4-.3 10.7-.8 15.9 22.9-11.7 51.3-10.7 73.9 5.1l5.8 4.5c25.8 22.2 32.5 59.7 15.9 89.5l-3.9 6.2c-14.3 20.5-31.3 39.1-50.2 55.4 35.7 4.3 63.3 34.6 63.3 71.4l0 24-.4 8.4c-3.7 38.9-32.7 70.4-70.4 77.9l-8.2 1.2c-.4 0-.8 .1-1.2 .1l-6.5 .3c-.4 0-.8 0-1.3 0L88 512C42.5 512 5 477.4 .5 433l-.5-9 0-24c0-36.8 27.6-67.1 63.3-71.4-11-9.4-21.3-19.6-30.8-30.5l-8.9-10.8c-.1-.2-.3-.4-.4-.6l-9.6-12.9-1.2-1.7-2.6-4.2c-.2-.3-.4-.6-.6-1-17.7-31.9-8.8-72.7 21.8-94l5.8-3.7c21.5-12.1 47-12 68-1.4-.5-5.2-.8-10.5-.8-15.9 0-2.7 .1-5.3 .2-7.9-19.5-14.6-32.2-37.8-32.2-64.1 0-44.2 35.8-80 80-80 27.4 0 51.4 13.8 65.8 34.7 12.4-1.8 25.2-2.7 38.2-2.7 13 0 25.8 .9 38.2 2.7 14.4-20.9 38.4-34.7 65.8-34.7zm93.6 212.3c-10.9-7.6-25.8-4.9-33.4 6l0 0c-33.9 48.6-88.8 81.4-151.5 85.3l-3.4 .1c-3 .2-6.1 .3-9.2 .3l-7.8-.2c-.2 0-.5 0-.7-.1-56.3-2.4-106.6-27.9-141.5-67.5l-7.1-8.5-.4-.6-6.2-8.4 0 0-2.1-2.7c-6.9-7.9-18.3-10.3-27.8-6.1l-4 2.3c-10.1 7-13.1 20.5-7.3 31.1l1.6 2.6 8.5 11.5 7.5 9.1c18 20.7 39.4 38.4 63.3 52.2l2.6 1.8c5.8 4.5 9.3 11.5 9.3 19l0 52.4c0 13.2-10.8 24-24 24l-.7 0c-10.2 0-19.2-6.5-22.6-15.8L95.6 396c-1.7-9.9-9.5-17.8-19.3-19.6L72 376c-13.2 0-24 10.7-24 24l0 24 .2 4.1C50.3 448.3 67.3 464 88 464l335.3 0 5.1-.3c18.7-2 33.6-17.1 35.4-35.9l.2-3.8 0-24-.1-2.4c-1.1-11.3-10.1-20.3-21.4-21.4L440 376c-11.8 0-21.7 8.6-23.6 20-1.9 11.5-11.9 20-23.7 20l-.7 0c-13.2 0-24-10.8-24-24l0-52.4c0-8.6 4.6-16.5 12-20.8 31.6-18.3 58.8-43.3 79.6-73.1l1.3-2.1c5.5-9.9 3.3-22.4-5.3-29.8l-1.9-1.5zM256 336c35.3 0 64 28.7 64 64l0 16-128 0 0-16c0-35.3 28.7-64 64-64zM360 48c-13.9 0-25.7 8.9-30.2 21.4-4.1 11.6-16.2 18.2-28.1 15.4-13.5-3.2-28.9-4.7-45.7-4.8s-32.2 1.6-45.7 4.8c-11.9 2.8-24-3.8-28.1-15.4-4.4-12.5-16.3-21.4-30.2-21.4-17.7 0-32 14.3-32 32 0 13.1 7.9 24.4 19.3 29.4 10.3 4.4 16.1 15.4 14.1 26.4-.9 4.8-1.4 10.2-1.4 16.2 0 55.3 43.2 100.5 97.7 103.8 2.1 .1 4.2 .2 6.3 .2 57.4 0 104-46.6 104-104 0-5.9-.5-11.3-1.4-16.2-2.1-11 3.8-22 14.1-26.4 11.4-4.9 19.3-16.3 19.3-29.4 0-17.7-14.3-32-32-32zM256 176c17.7 0 32 10.7 32 24s-14.3 24-32 24-32-10.7-32-24 14.3-24 32-24zm-48-12a20 20 0 1 1 0-40 20 20 0 1 1 0 40zm96 0a20 20 0 1 1 0-40 20 20 0 1 1 0 40z"/></svg>