<svg xmlns="http://www.w3.org/2000/svg" viewBox="0 0 512 512"><path fill="currentColor" d="M448 80L64 80c-8.8 0-16 7.2-16 16l0 54.7c9.8-4.3 20.6-6.7 32-6.7 16 0 30.9 4.7 43.4 12.8 17.4-17.8 41.7-28.8 68.6-28.8 24.6 0 47 9.2 64 24.4 17-15.2 39.4-24.4 64-24.4 26.9 0 51.1 11 68.6 28.8 12.5-8.1 27.4-12.8 43.4-12.8 11.4 0 22.2 2.4 32 6.7L464 96c0-8.8-7.2-16-16-16zM48 234.7c0 11.8 9.6 21.3 21.3 21.3l21.3 0c3.1 0 6.1-.7 8.8-1.9 7.4-3.3 12.5-10.8 12.5-19.4l0-10.7c0-10.4-4.9-19.6-12.6-25.4-5.4-4.1-12.1-6.6-19.4-6.6-17.7 0-32 14.3-32 32l0 10.7zM0 316L0 96C0 60.7 28.7 32 64 32l384 0c35.3 0 64 28.7 64 64l0 320c0 35.3-28.7 64-64 64L64 480c-35.3 0-64-28.7-64-64L0 316zm48 77.3L48 416c0 8.8 7.2 16 16 16l384 0c8.8 0 16-7.2 16-16l0-22.7c-9.8 4.3-20.6 6.7-32 6.7-16 0-30.9-4.7-43.4-12.8-17.4 17.8-41.7 28.8-68.6 28.8-24.6 0-47-9.2-64-24.4-17 15.2-39.4 24.4-64 24.4-26.9 0-51.1-11-68.6-28.8-12.5 8.1-27.4 12.8-43.4 12.8-11.4 0-22.2-2.4-32-6.7zM464 320l0-4c0-6.6-5.4-12-12-12l-40 0c-6.6 0-12 5.4-12 12l0 4c0 10.1 4.7 19.1 12 25l.6 .5c2.9 2.2 6.2 3.9 9.7 5.1 3.1 1 6.3 1.5 9.7 1.5s6.6-.5 9.7-1.5c3.8-1.2 7.3-3.1 10.3-5.5 7.3-5.9 12-14.9 12-25zM344 304l-56 0c-.7 0-1.3 0-2 .1-7.9 1-14 7.7-14 15.9 0 11.6 4.1 22.3 11 30.6 8.8 10.6 22.1 17.4 37 17.4 15.3 0 28.9-7.1 37.7-18.3 6.5-8.2 10.3-18.5 10.3-29.7 0-1.4-.2-2.7-.5-4-1.7-6.5-7.4-11.4-14.3-12-.4 0-.8 0-1.2 0l-8 0zm-128 0l-56 0c-.4 0-.8 0-1.2 0-6.9 .5-12.6 5.4-14.3 12-.3 1.3-.5 2.6-.5 4 0 11.2 3.8 21.5 10.3 29.7 8.8 11.1 22.4 18.3 37.7 18.3 14.9 0 28.2-6.8 37-17.4 6.9-8.3 11-19 11-30.6 0-8.2-6.1-14.9-14-15.9-.7-.1-1.3-.1-2-.1l-8 0zM90.7 304L60 304c-6.6 0-12 5.4-12 12l0 4c0 10.1 4.7 19.1 12 25 3 2.4 6.5 4.3 10.3 5.5 3.1 1 6.3 1.5 9.7 1.5s6.6-.5 9.7-1.5c3.5-1.1 6.8-2.9 9.7-5.1l.6-.5c7.3-5.9 12-14.9 12-25l0-4c0-6.6-5.4-12-12-12l-9.3 0zm352-48c11.8 0 21.3-9.6 21.3-21.3l0-10.7c0-17.7-14.3-32-32-32-7.3 0-14 2.4-19.4 6.6-7.7 5.8-12.6 15.1-12.6 25.4l0 10.7c0 8.6 5.1 16.1 12.5 19.4 2.7 1.2 5.7 1.9 8.8 1.9l21.3 0zM344 256c3.8 0 7.4-.9 10.6-2.5 7.2-3.5 12.3-10.6 13.3-18.9 .1-.9 .1-1.8 .1-2.7l0-8c0-11.2-3.8-21.5-10.3-29.7-8.8-11.1-22.4-18.3-37.7-18.3-14.9 0-28.2 6.8-37 17.4-6.9 8.3-11 19-11 30.6l0 8c0 9.2 5.2 17.2 12.8 21.2 3.3 1.8 7.1 2.8 11.2 2.8l48 0zm-128 0c4 0 7.8-1 11.2-2.8 7.6-4 12.8-12 12.8-21.2l0-8c0-11.6-4.1-22.3-11-30.6-8.8-10.6-22.1-17.4-37-17.4-15.3 0-28.9 7.1-37.7 18.3-6.5 8.2-10.3 18.5-10.3 29.7l0 8c0 .9 0 1.8 .1 2.7 .9 8.3 6.1 15.3 13.3 18.9 3.2 1.6 6.8 2.5 10.6 2.5l48 0z"/></svg>