<svg xmlns="http://www.w3.org/2000/svg" viewBox="0 0 512 512"><path fill="currentColor" d="M50.9 98.6c-56.4 39.5-61.9 112.1-36.2 163.7 11.3 22.6 37.8 33 61.4 24.1L155 256.9c21.1-7.9 34.2-29.2 31.7-51.6l-3.3-29.7c47.3-13.4 97.9-12.5 144.8 2.7l-3 27c-2.5 22.4 10.6 43.7 31.7 51.6l78.9 29.6c23.6 8.9 50.1-1.5 61.4-24.1 25.8-51.6 20.2-124.1-36.2-163.6-126.9-88.9-283.3-88.9-410.1 0zm6.8 142.2c-18-36-11.3-80.4 20.8-102.9 110.4-77.3 244.7-77.3 355.1 0 32.1 22.5 38.8 66.8 20.8 102.9-.3 .6-1 .9-1.6 .6l-78.9-29.6c-.6-.2-.9-.8-.8-1.4l3-27c2.5-22.6-11.2-43.9-32.9-51-56-18.1-116.2-19.2-172.7-3.2-22.6 6.4-37.2 28.2-34.6 51.5l3.3 29.7c.1 .6-.3 1.2-.8 1.4L59.3 241.5c-.6 .2-1.3 0-1.6-.6zM32 352a32 32 0 1 0 64 0 32 32 0 1 0 -64 0zm96 0a32 32 0 1 0 64 0 32 32 0 1 0 -64 0zM64 416a32 32 0 1 0 0 64 32 32 0 1 0 0-64zm352 32a32 32 0 1 0 64 0 32 32 0 1 0 -64 0zM256 320a32 32 0 1 0 0 64 32 32 0 1 0 0-64zm64 32a32 32 0 1 0 64 0 32 32 0 1 0 -64 0zm128-32a32 32 0 1 0 0 64 32 32 0 1 0 0-64zM128 448c0 13.3 10.7 24 24 24l208 0c13.3 0 24-10.7 24-24s-10.7-24-24-24l-208 0c-13.3 0-24 10.7-24 24z"/></svg>