<svg xmlns="http://www.w3.org/2000/svg" viewBox="0 0 320 512"><path fill="currentColor" d="M96 112c0-35.3 28.7-64 64-64s64 28.7 64 64l0 174.4c0 6.1 2.3 11.9 6.4 16.3 15.9 17.1 25.6 40 25.6 65.3 0 53-43 96-96 96s-96-43-96-96c0-25.2 9.7-48.1 25.6-65.3 4.1-4.4 6.4-10.3 6.4-16.3L96 112zM160 0C98.1 0 48 50.1 48 112l0 165.5c-20 24.7-32 56.2-32 90.5 0 79.5 64.5 144 144 144s144-64.5 144-144c0-34.3-12-65.8-32-90.5L272 112C272 50.1 221.9 0 160 0zm0 416c26.5 0 48-21.5 48-48s-21.5-48-48-48-48 21.5-48 48 21.5 48 48 48z"/></svg>