<svg xmlns="http://www.w3.org/2000/svg" viewBox="0 0 576 512"><path fill="currentColor" d="M336.5 112c0-35.3 28.7-64 64-64s64 28.7 64 64l0 174.4c0 6.1 2.3 11.9 6.4 16.3 15.9 17.1 25.6 40 25.6 65.3 0 53-43 96-96 96s-96-43-96-96c0-25.2 9.7-48.1 25.6-65.3 4.1-4.4 6.4-10.3 6.4-16.3l0-174.4zm64-112c-61.9 0-112 50.1-112 112l0 165.5c-20 24.7-32 56.2-32 90.5 0 79.5 64.5 144 144 144s144-64.5 144-144c0-34.3-12-65.8-32-90.5l0-165.5c0-61.9-50.1-112-112-112zm0 416c26.5 0 48-21.5 48-48 0-17.8-9.7-33.3-24-41.6l0-38.4c0-13.3-10.7-24-24-24s-24 10.7-24 24l0 38.4c-14.3 8.3-24 23.8-24 41.6 0 26.5 21.5 48 48 48zm-160-247.5l-24 13.9 0-55.8 24.3-24.3c.8-12.7 3-25 6.6-36.8-5.9-2.8-13.3-1.8-18.2 3.1l-12.7 12.7 0-25.4c0-13.3-10.7-24-24-24s-24 10.7-24 24l0 25.4-12.7-12.7c-6.2-6.2-16.4-6.2-22.6 0s-6.2 16.4 0 22.6l35.3 35.3 0 55.8-48.3-27.9-12.9-48.2C105 97.7 96.2 92.7 87.6 95S74 106 76.3 114.6l4.6 17.3-22-12.7c-11.5-6.6-26.2-2.7-32.8 8.8s-2.7 26.2 8.8 32.8l22 12.7-17.3 4.6c-8.5 2.3-13.6 11.1-11.3 19.6S39.4 211.3 47.9 209l48.2-12.9 48.3 27.9-48.3 27.9-48.2-12.9c-8.5-2.3-17.3 2.8-19.6 11.3s2.8 17.3 11.3 19.6l17.3 4.6-22 12.7c-11.5 6.6-15.4 21.3-8.8 32.8s21.3 15.4 32.8 8.8l22-12.7-4.6 17.3c-2.3 8.5 2.8 17.3 11.3 19.6s17.3-2.8 19.6-11.3l12.9-48.2 48.3-27.9 0 55.8-35.3 35.3c-6.2 6.2-6.2 16.4 0 22.6s16.4 6.2 22.6 0l12.7-12.7 0 25.4c0 13.3 10.7 24 24 24 8.2 0 15.4-4.1 19.7-10.3-2.4-12.2-3.7-24.8-3.7-37.7 0-19.1 2.8-37.5 8-55l0-47.5 16.1 9.3c2.5-4.4 5.1-8.8 7.9-13l0-93.3z"/></svg>