<svg xmlns="http://www.w3.org/2000/svg" viewBox="0 0 576 512"><path fill="currentColor" d="M336.5 112c0-35.3 28.7-64 64-64s64 28.7 64 64l0 174.4c0 6.1 2.3 11.9 6.4 16.3 15.9 17.1 25.6 40 25.6 65.3 0 53-43 96-96 96s-96-43-96-96c0-25.2 9.7-48.1 25.6-65.3 4.1-4.4 6.4-10.3 6.4-16.3l0-174.4zm64-112c-61.9 0-112 50.1-112 112l0 165.5c-20 24.7-32 56.2-32 90.5 0 79.5 64.5 144 144 144s144-64.5 144-144c0-34.3-12-65.8-32-90.5l0-165.5c0-61.9-50.1-112-112-112zm0 416c26.5 0 48-21.5 48-48 0-17.8-9.7-33.3-24-41.6l0-214.4c0-13.3-10.7-24-24-24s-24 10.7-24 24l0 214.4c-14.3 8.3-24 23.8-24 41.6 0 26.5 21.5 48 48 48zM224.5 49.6L153.8 2.7c-4.4-2.9-10-3.5-14.9-1.4s-8.5 6.4-9.5 11.6L112.5 96 29.3 112.8c-5.2 1.1-9.5 4.6-11.6 9.5s-1.5 10.5 1.4 14.9L66.1 208 19.2 278.7c-2.9 4.4-3.5 10-1.4 14.9s6.4 8.5 11.6 9.5l83.2 16.8 16.8 83.2c1.1 5.2 4.6 9.5 9.5 11.6s10.5 1.5 14.9-1.4l54.9-36.4c-.1-2.9-.2-5.9-.2-8.9 0-22.5 3.9-44.1 11-64.1-50.7-2.6-91-44.5-91-95.9 0-53 43-96 96-96 5.5 0 10.8 .5 16 1.3l0-1.3c0-34.5 10.9-66.5 29.5-92.6L224.5 49.6zm0 110.4c-26.5 0-48 21.5-48 48s21.5 48 48 48c5.6 0 11-1 16-2.7l0-90.5c-5-1.8-10.4-2.7-16-2.7z"/></svg>