<svg xmlns="http://www.w3.org/2000/svg" viewBox="0 0 576 512"><path fill="currentColor" d="M41-24.9c-9.4-9.4-24.6-9.4-33.9 0S-2.3-.3 7 9.1l528 528c9.4 9.4 24.6 9.4 33.9 0s9.4-24.6 0-33.9l-137-137c-.4-33.6-12.4-64.4-32-88.7L400 112C400 50.1 349.9 0 288 0 226.8 0 177 49.2 176 110.2L41-24.9zm183 183l0-46.2c0-35.3 28.7-64 64-64s64 28.7 64 64l0 174.2-40-40 0-126.2c0-13.3-10.7-24-24-24s-24 10.7-24 24l0 78.2-40-40zM326.7 396.5l-67.1-67.1c-11.9 8.7-19.5 22.8-19.5 38.7 0 26.5 21.5 48 48 48 15.9 0 29.9-7.7 38.7-19.5zM217.6 302.7c2.6-2.8 4.5-6.2 5.5-9.8l-47.1-47.1 0 31.7c-20 24.7-32 56.2-32 90.5 0 79.5 64.5 144 144 144 42.4 0 80.4-18.3 106.8-47.4l-34-34c-17.6 20.4-43.7 33.4-72.8 33.4-53 0-96-43-96-96 0-25.2 9.7-48.1 25.6-65.3z"/></svg>