<svg xmlns="http://www.w3.org/2000/svg" viewBox="0 0 576 512"><path fill="currentColor" d="M254 132.7l114.2-75.2 133.4 87.8 20.1 158.7-83.5 0 6.1 48 95.6 0c19.3 0 34.2-16.9 31.7-36l-23.3-184c-1.2-9.3-6.3-17.6-14.2-22.7L385.8 11.6c-10.7-7-24.5-7-35.2 0L202.2 109.2c-4.2 2.8-7.6 6.4-10.1 10.7 20.4-4.2 42-.3 60.1 11.5l1.8 1.2zM361.7 464l-59.3 0-70.3-115.6 0-115.1 109.4 72 20.1 158.7zM184.2 233.3l0 230.7-129.5 0 20.1-158.7 109.4-72zm6.4-61.7L42.2 269.2c-7.8 5.1-13 13.4-14.2 22.7L4.8 476c-2.4 19.1 12.5 36 31.7 36l343.4 0c19.3 0 34.2-16.9 31.7-36l-23.3-184c-1.2-9.3-6.3-17.6-14.2-22.7L225.8 171.6c-10.7-7-24.5-7-35.2 0z"/></svg>