<svg xmlns="http://www.w3.org/2000/svg" viewBox="0 0 512 512"><path fill="currentColor" d="M-.5 113c-9.4-9.4-9.4-24.6 0-33.9l72-72c9.4-9.4 24.6-9.4 33.9 0s9.4 24.6 0 33.9l-31 31 350.1 0c48.6 0 88 39.4 88 88l0 24c0 13.3-10.7 24-24 24s-24-10.7-24-24l0-24c0-22.1-17.9-40-40-40l-350.1 0 31 31c9.4 9.4 9.4 24.6 0 33.9s-24.6 9.4-33.9 0l-72-72zm233 351l0-234-125.6 76.3-20 157.7 145.5 0zm48-126.3l63.9 126.3 81.6 0-19.9-157.5-125.6-75.4 0 106.6zM37.1 476L60.3 292.6c1.2-9.7 6.8-18.3 15.1-23.3L238.8 170c10.2-6.2 22.9-6.2 33.1-.1l165.5 99.4c8.4 5 14 13.7 15.3 23.4L475.9 476c2.4 19.1-12.5 36-31.7 36L68.8 512c-19.3 0-34.2-16.9-31.7-36z"/></svg>