<svg xmlns="http://www.w3.org/2000/svg" viewBox="0 0 576 512"><path fill="currentColor" d="M301.8 12.3c-8.3-5.8-19.3-5.8-27.5 0l-240 168C27.8 184.8 24 192.2 24 200l0 40c0 30.8 17.4 57.5 42.9 70.9L40.1 445c-6.9 34.7 19.6 67 54.9 67L481 512c35.3 0 61.8-32.3 54.9-67L509.1 310.9C534.6 297.6 552 270.8 552 240l0-40c0-7.8-3.8-15.2-10.2-19.7l-240-168zm160 307l27 135.1c1 5-2.8 9.6-7.8 9.6l-62.7 0-29.3-152.1c9.2-4.3 17.5-10.1 24.7-17.1 12.4 13.2 29.2 22.2 48.1 24.6zM369.4 464l-162.8 0 27.8-144.6c21-2.5 39.8-12.4 53.6-27 13.8 14.6 32.6 24.5 53.6 27L369.4 464zM162.3 294.8c7.1 7 15.5 12.8 24.7 17.1L157.7 464 95 464c-5 0-8.8-4.6-7.8-9.6l27-135.1c18.9-2.4 35.7-11.4 48.1-24.6zM288 176L124.1 176 288 61.3 451.9 176 288 176zM72 240l0-16 64 0 0 16c0 17.7-14.3 32-32 32s-32-14.3-32-32zm368-16l64 0 0 16c0 17.7-14.3 32-32 32s-32-14.3-32-32l0-16zm-256 8l0-8 80 0 0 8c0 22.1-17.9 40-40 40s-40-17.9-40-40zm128-8l80 0 0 8c0 22.1-17.9 40-40 40s-40-17.9-40-40l0-8z"/></svg>