<svg xmlns="http://www.w3.org/2000/svg" viewBox="0 0 512 512"><path fill="currentColor" d="M-.5 79c-9.4 9.4-9.4 24.6 0 33.9l72 72c9.4 9.4 24.6 9.4 33.9 0s9.4-24.6 0-33.9l-31-31 54.1 0 0 0 310.1 0-31 31c-9.4 9.4-9.4 24.6 0 33.9s24.6 9.4 33.9 0l72-72c9.4-9.4 9.4-24.6 0-33.9l-72-72c-9.4-9.4-24.6-9.4-33.9 0s-9.4 24.6 0 33.9l31 31-262 0c0 0-.1 0-.1 0l-102.1 0 31-31c9.4-9.4 9.4-24.6 0-33.9S80.9-2.3 71.5 7L-.5 79zm233 151l0 234-145.5 0 20-157.7 125.6-76.3zm48 1l125.6 75.4 19.9 157.5-81.6 0-63.9-126.3 0-106.6zM60.3 292.6L37.1 476c-2.4 19.1 12.5 36 31.7 36l375.4 0c19.3 0 34.2-16.9 31.7-36L452.7 292.7c-1.2-9.7-6.9-18.4-15.3-23.4L271.9 169.9c-10.2-6.1-22.9-6.1-33.1 .1L75.4 269.3c-8.3 5.1-13.9 13.7-15.1 23.3z"/></svg>