<svg xmlns="http://www.w3.org/2000/svg" viewBox="0 0 576 512"><path fill="currentColor" d="M442.2 40.4c-6.8-10.8-23.6-11.6-31.6-1.6-22.6 28.4-66.3 71.8-122.6 71.8S188 67.2 165.4 38.7c-7.9-10-24.8-9.1-31.6 1.6-32.5 51.6-75.6 85.3-107.9 105.2-15.5 9.5-25.9 25.9-25.9 44.1L0 448c0 35.3 28.7 64 64 64l448 0c35.3 0 64-28.7 64-64l0-258.3c0-18.2-10.4-34.6-25.9-44.1-32.3-19.9-75.4-53.6-107.9-105.2zM525 186.4c1.4 .9 2.3 1.9 2.7 2.6 .2 .3 .3 .6 .3 .6l0 34.3-480 0 0-34.3c0-.1 .1-.3 .3-.6 .4-.7 1.3-1.7 2.8-2.6 29.8-18.3 68.2-47.4 101.8-89.9 29.6 29.2 75.9 62.1 135.2 62.1s105.5-32.9 135.2-62.1c33.6 42.6 72 71.6 101.8 89.9zM48 272l208 0 0 192-192 0c-8.8 0-16-7.2-16-16l0-176zm256 0l224 0 0 176c0 8.8-7.2 16-16 16L407.4 464 304 272z"/></svg>