<svg xmlns="http://www.w3.org/2000/svg" viewBox="0 0 576 512"><path fill="currentColor" d="M113.5 185c-9.4 9.4-24.6 9.4-33.9 0l-64-64c-9.4-9.4-9.4-24.6 0-33.9s24.6-9.4 33.9 0l23 23 0-86.1c0-13.3 10.7-24 24-24s24 10.7 24 24l0 86.1 23-23c9.4-9.4 24.6-9.4 33.9 0s9.4 24.6 0 33.9l-64 64zM.5 488c0-13.3 10.7-24 24-24l109.3 0 22.6-203c1.1-9.9 6.7-18.7 15.2-23.8L334.8 138c10.2-6.2 22.9-6.2 33.1-.1l165.3 99.2c8.6 5.1 14.2 14 15.3 23.9l24 215.4c2.1 19-12.7 35.5-31.8 35.5L24.5 512c-13.3 0-24-10.7-24-24zm328-290l-125.2 76.1-21.2 189.9 146.4 0 0-266zm48 1l0 138.6 63.9 126.3 82.5 0-21.1-189.7-125.2-75.2z"/></svg>