<svg xmlns="http://www.w3.org/2000/svg" viewBox="0 0 576 512"><path fill="currentColor" d="M40 32C17.9 32 0 49.9 0 72l0 64c0 13.3 10.7 24 24 24s24-10.7 24-24l0-56 88 0 0 352-48 0c-13.3 0-24 10.7-24 24s10.7 24 24 24l144 0c13.3 0 24-10.7 24-24s-10.7-24-24-24l-48 0 0-352 88 0 0 56c0 13.3 10.7 24 24 24s24-10.7 24-24l0-64c0-22.1-17.9-40-40-40L40 32zM425 367c-9.4-9.4-24.6-9.4-33.9 0s-9.4 24.6 0 33.9l72 72c9.4 9.4 24.6 9.4 33.9 0l72-72c9.4-9.4 9.4-24.6 0-33.9s-24.6-9.4-33.9 0l-31 31 0-284.1 31 31c9.4 9.4 24.6 9.4 33.9 0s9.4-24.6 0-33.9L497 39c-9.4-9.4-24.6-9.4-33.9 0l-72 72c-9.4 9.4-9.4 24.6 0 33.9s24.6 9.4 33.9 0l31-31 0 284.1-31-31z"/></svg>