<svg xmlns="http://www.w3.org/2000/svg" viewBox="0 0 576 512"><path fill="currentColor" d="M48 136l0-56 88 0 0 352-48 0c-13.3 0-24 10.7-24 24s10.7 24 24 24l144 0c13.3 0 24-10.7 24-24s-10.7-24-24-24l-48 0 0-352 88 0 0 56c0 13.3 10.7 24 24 24s24-10.7 24-24l0-64c0-22.1-17.9-40-40-40L40 32C17.9 32 0 49.9 0 72l0 64c0 13.3 10.7 24 24 24s24-10.7 24-24zM304 328l0-56 88 0 0 160-48 0c-13.3 0-24 10.7-24 24s10.7 24 24 24l144 0c13.3 0 24-10.7 24-24s-10.7-24-24-24l-48 0 0-160 88 0 0 56c0 13.3 10.7 24 24 24s24-10.7 24-24l0-64c0-22.1-17.9-40-40-40l-240 0c-22.1 0-40 17.9-40 40l0 64c0 13.3 10.7 24 24 24s24-10.7 24-24z"/></svg>