<svg xmlns="http://www.w3.org/2000/svg" viewBox="0 0 448 512"><path fill="currentColor" d="M40 0C17.9 0 0 17.9 0 40l0 64c0 13.3 10.7 24 24 24s24-10.7 24-24l0-56 152 0 0 192-48 0c-13.3 0-24 10.7-24 24s10.7 24 24 24l144 0c13.3 0 24-10.7 24-24s-10.7-24-24-24l-48 0 0-192 152 0 0 56c0 13.3 10.7 24 24 24s24-10.7 24-24l0-64c0-22.1-17.9-40-40-40L40 0zm73 393c9.4-9.4 9.4-24.6 0-33.9s-24.6-9.4-33.9 0L7 431c-9.4 9.4-9.4 24.6 0 33.9l72 72c9.4 9.4 24.6 9.4 33.9 0s9.4-24.6 0-33.9l-31-31 284.1 0-31 31c-9.4 9.4-9.4 24.6 0 33.9s24.6 9.4 33.9 0l72-72c9.4-9.4 9.4-24.6 0-33.9l-72-72c-9.4-9.4-24.6-9.4-33.9 0s-9.4 24.6 0 33.9l31 31-284.1 0 31-31z"/></svg>