<svg xmlns="http://www.w3.org/2000/svg" viewBox="0 0 320 512"><path fill="currentColor" d="M160 48c-35.3 0-64 28.7-64 64l0 174.4c0 6.1-2.3 11.9-6.4 16.3-15.9 17.1-25.6 40-25.6 65.3 0 53 43 96 96 96s96-43 96-96c0-25.2-9.7-48.1-25.6-65.3-4.1-4.4-6.4-10.3-6.4-16.3L224 112c0-35.3-28.7-64-64-64zM48 112C48 50.1 98.1 0 160 0S272 50.1 272 112l0 165.5c20 24.7 32 56.2 32 90.5 0 79.5-64.5 144-144 144S16 447.5 16 368c0-34.3 12-65.8 32-90.5L48 112zM208 368c0 26.5-21.5 48-48 48s-48-21.5-48-48c0-17.8 9.7-33.3 24-41.6l0-78.4c0-13.3 10.7-24 24-24s24 10.7 24 24l0 78.4c14.3 8.3 24 23.8 24 41.6z"/></svg>