<svg xmlns="http://www.w3.org/2000/svg" viewBox="0 0 576 512"><path fill="currentColor" d="M41-24.9c-9.4-9.4-24.6-9.4-33.9 0S-2.3-.3 7 9.1l528 528c9.4 9.4 24.6 9.4 33.9 0s9.4-24.6 0-33.9l-180.7-180.7 105.7-122.6 9.2 9.2c9.4 9.4 24.6 9.4 33.9 0s9.4-24.6 0-33.9c-4-4-50.9-50.9-140.6-140.6L369 6.9c-9.4-9.4-24.6-9.4-33.9 0s-9.4 24.6 0 33.9L344.2 50.1 221.6 155.8 41-24.9zM255.7 189.8l122.6-105.7 81.6 81.6-105.7 122.6-98.5-98.5zM104.3 174.2c-20 14.2-22.7 43.3-5.1 60.9L309 444.7c17.6 17.6 46.6 15 60.9-5.1L104.3 174.2zm48.9 182.7L39 471c-9.4 9.4-9.4 24.6 0 33.9s24.6 9.4 33.9 0l114.2-114.2-33.9-33.9z"/></svg>