<svg xmlns="http://www.w3.org/2000/svg" viewBox="0 0 512 512"><path fill="currentColor" d="M303.1 6.9c9.4-9.4 24.6-9.4 33.9 0 4 4 50.9 50.9 140.6 140.6L505.2 175c9.4 9.4 9.4 24.6 0 33.9s-24.6 9.4-33.9 0l-9.2-9.2-92 106.8c6.2 43.1-2.8 88.3-28 126.9l-3.2 4.9c-20.1-13.1-20.1-13.1 0 0-13.9 21.3-43.8 24.4-61.8 6.4L67.4 235c-18-18-14.8-47.9 6.4-61.8l4.8-3.2c38.6-25.2 83.8-34.2 126.9-28l106.8-92-9.2-9.2c-9.4-9.4-9.4-24.6 0-33.9zm43.2 77.2L228.3 185.9c-5.7 4.9-13.3 6.9-20.7 5.3-33.2-7.1-68.8-1.7-99.3 16.9L304 403.8c18.6-30.5 24-66 16.9-99.3-1.6-7.3 .4-15 5.3-20.7L428 165.7 346.4 84.1zM121.3 356.9L155.2 390.8 41.1 505c-9.4 9.4-24.6 9.4-33.9 0s-9.4-24.6 0-33.9L121.3 356.9z"/></svg>