<svg xmlns="http://www.w3.org/2000/svg" viewBox="0 0 576 512"><path fill="currentColor" d="M48 128c0-8.8 7.2-16 16-16l448 0c8.8 0 16 7.2 16 16l0 44.9c-28.7 16.6-48 47.6-48 83.1s19.3 66.6 48 83.1l0 44.9c0 8.8-7.2 16-16 16L64 400c-8.8 0-16-7.2-16-16l0-256zM64 64C28.7 64 0 92.7 0 128L0 384c0 35.3 28.7 64 64 64l448 0c35.3 0 64-28.7 64-64l0-64c0-8.8-7.4-15.7-15.7-18.6-18.8-6.5-32.3-24.4-32.3-45.4s13.5-38.9 32.3-45.4c8.3-2.9 15.7-9.8 15.7-18.6l0-64c0-35.3-28.7-64-64-64L64 64zM416 184a24 24 0 1 0 0-48 24 24 0 1 0 0 48zm0 96a24 24 0 1 0 0-48 24 24 0 1 0 0 48zm24 72a24 24 0 1 0 -48 0 24 24 0 1 0 48 0zM152 224l-19.2-25.6c-3-4-7.8-6.4-12.8-6.4l-13.8 0c-5.2 0-9 4.9-7.8 9.9L111 252.1c.6 2.5 .6 5.2 0 7.8L98.5 310.1c-1.3 5 2.6 9.9 7.8 9.9l13.8 0c5 0 9.8-2.4 12.8-6.4l19.2-25.6 40 0-27.6 69c-2.1 5.3 1.8 11 7.4 11l31.7 0c7.8 0 15.2-3.8 19.7-10.2l48.8-69.8 48 0c17.7 0 32-14.3 32-32s-14.3-32-32-32l-48 0-48.8-69.8c-4.5-6.4-11.8-10.2-19.7-10.2l-31.7 0c-5.7 0-9.5 5.7-7.4 11l27.6 69-40 0z"/></svg>