<svg xmlns="http://www.w3.org/2000/svg" viewBox="0 0 576 512"><path fill="currentColor" d="M48 128c0-8.8 7.2-16 16-16l448 0c8.8 0 16 7.2 16 16l0 44.9c-28.7 16.6-48 47.6-48 83.1s19.3 66.6 48 83.1l0 44.9c0 8.8-7.2 16-16 16L64 400c-8.8 0-16-7.2-16-16l0-256zM64 64C28.7 64 0 92.7 0 128L0 384c0 35.3 28.7 64 64 64l448 0c35.3 0 64-28.7 64-64l0-64c0-8.8-7.4-15.7-15.7-18.6-18.8-6.5-32.3-24.4-32.3-45.4s13.5-38.9 32.3-45.4c8.3-2.9 15.7-9.8 15.7-18.6l0-64c0-35.3-28.7-64-64-64L64 64zM416 184a24 24 0 1 0 0-48 24 24 0 1 0 0 48zm0 96a24 24 0 1 0 0-48 24 24 0 1 0 0 48zm24 72a24 24 0 1 0 -48 0 24 24 0 1 0 48 0z"/></svg>