<svg xmlns="http://www.w3.org/2000/svg" viewBox="0 0 640 512"><path fill="currentColor" d="M144 96l0 28.9c28.7 16.6 48 47.6 48 83.1s-19.3 66.6-48 83.1l0 28.9c0 8.8 7.2 16 16 16l384 0c8.8 0 16-7.2 16-16l0-28.9c-28.7-16.6-48-47.6-48-83.1s19.3-66.6 48-83.1L560 96c0-8.8-7.2-16-16-16L160 80c-8.8 0-16 7.2-16 16zM96 96c0-35.3 28.7-64 64-64l384 0c35.3 0 64 28.7 64 64l0 48c0 8.8-7.4 15.7-15.7 18.6-18.8 6.5-32.3 24.4-32.3 45.4s13.5 38.9 32.3 45.4c8.3 2.9 15.7 9.8 15.7 18.6l0 48c0 35.3-28.7 64-64 64l-384 0c-35.3 0-64-28.7-64-64l0-48c0-8.8 7.4-15.7 15.7-18.6 18.8-6.5 32.3-24.4 32.3-45.4s-13.5-38.9-32.3-45.4C103.4 159.7 96 152.8 96 144l0-48zM48 152l0 256c0 13.3 10.7 24 24 24l416 0c13.3 0 24 10.7 24 24s-10.7 24-24 24L72 480c-39.8 0-72-32.2-72-72L0 152c0-13.3 10.7-24 24-24s24 10.7 24 24z"/></svg>