<svg xmlns="http://www.w3.org/2000/svg" viewBox="0 0 576 512"><path fill="currentColor" d="M64 112l448 0c8.8 0 16 7.2 16 16l0 44.9c-28.7 16.6-48 47.6-48 83.1s19.3 66.6 48 83.1l0 44.9c0 8.8-7.2 16-16 16L64 400c-8.8 0-16-7.2-16-16l0-44.9c28.7-16.6 48-47.6 48-83.1s-19.3-66.6-48-83.1L48 128c0-8.8 7.2-16 16-16zm0-48C28.7 64 0 92.7 0 128l0 64C0 200.8 7.4 207.7 15.7 210.6 34.5 217.1 48 235 48 256s-13.5 38.9-32.3 45.4C7.4 304.3 0 311.2 0 320l0 64c0 35.3 28.7 64 64 64l448 0c35.3 0 64-28.7 64-64l0-64c0-8.8-7.4-15.7-15.7-18.6-18.8-6.5-32.3-24.4-32.3-45.4s13.5-38.9 32.3-45.4c8.3-2.9 15.7-9.8 15.7-18.6l0-64c0-35.3-28.7-64-64-64L64 64z"/></svg>