<svg xmlns="http://www.w3.org/2000/svg" viewBox="0 0 640 512"><path fill="currentColor" d="M160 80c-8.8 0-16 7.2-16 16l0 224c0 8.8 7.2 16 16 16l384 0c8.8 0 16-7.2 16-16l0-28.9c-28.7-16.6-48-47.6-48-83.1s19.3-66.6 48-83.1L560 96c0-8.8-7.2-16-16-16L160 80zM96 96c0-35.3 28.7-64 64-64l384 0c35.3 0 64 28.7 64 64l0 48c0 8.8-7.4 15.7-15.7 18.6-18.8 6.5-32.3 24.4-32.3 45.4s13.5 38.9 32.3 45.4c8.3 2.9 15.7 9.8 15.7 18.6l0 48c0 35.3-28.7 64-64 64l-384 0c-35.3 0-64-28.7-64-64L96 96zM24 128c13.3 0 24 10.7 24 24l0 256c0 13.3 10.7 24 24 24l416 0c13.3 0 24 10.7 24 24s-10.7 24-24 24L72 480c-39.8 0-72-32.2-72-72L0 152c0-13.3 10.7-24 24-24zm279.4 48l-21.2-53c-2.1-5.3 1.8-11 7.4-11l31.7 0c7.8 0 15.2 3.8 19.7 10.2l37.6 53.8 51.2 0c17.7 0 32 14.3 32 32s-14.3 32-32 32l-51.2 0-37.6 53.8c-4.5 6.4-11.8 10.2-19.7 10.2l-31.7 0c-5.7 0-9.5-5.7-7.4-11l21.2-53-41.6 0-19.2 25.6c-3 4-7.8 6.4-12.8 6.4L216 272c-5.2 0-9-4.9-7.8-9.9l12.5-50.2c.6-2.5 .6-5.2 0-7.8l-12.5-50.2c-1.3-5 2.6-9.9 7.8-9.9l13.8 0c5 0 9.8 2.4 12.8 6.4l19.2 25.6 41.6 0z"/></svg>