<svg xmlns="http://www.w3.org/2000/svg" viewBox="0 0 576 512"><path fill="currentColor" d="M128 96a32 32 0 1 0 -64 0 32 32 0 1 0 64 0zm48 0c0 35.8-23.5 66.1-56 76.3l0 59.7 208 0 0-59.7c-32.5-10.2-56-40.5-56-76.3 0-44.2 35.8-80 80-80s80 35.8 80 80c0 35.8-23.5 66.1-56 76.3l0 59.7 118.1 0-23-23c-9.4-9.4-9.4-24.6 0-33.9s24.6-9.4 33.9 0l64 64c9.4 9.4 9.4 24.6 0 33.9l-64 64c-9.4 9.4-24.6 9.4-33.9 0s-9.4-24.6 0-33.9l23-23-246.1 0 0 59.7c32.5 10.2 56 40.5 56 76.3 0 44.2-35.8 80-80 80s-80-35.8-80-80c0-35.8 23.5-66.1 56-76.3l0-59.7-176 0c-13.3 0-24-10.7-24-24s10.7-24 24-24l48 0 0-59.7C39.5 162.1 16 131.8 16 96 16 51.8 51.8 16 96 16s80 35.8 80 80zm16 320a32 32 0 1 0 64 0 32 32 0 1 0 -64 0zM352 128a32 32 0 1 0 0-64 32 32 0 1 0 0 64z"/></svg>