<svg xmlns="http://www.w3.org/2000/svg" viewBox="0 0 512 512"><path fill="currentColor" d="M228.9 0c-26.9 0-50.3 16.7-59.6 40.8-1.4 .6-2.8 1.1-4.2 1.7-23.6-10.4-51.9-5.7-71 13.4L55.8 94.1c-19 19-23.7 47.4-13.4 71-.6 1.4-1.2 2.8-1.7 4.2-24 9.4-40.8 32.7-40.8 59.6l0 54.1c0 26.9 16.7 50.3 40.8 59.6 .6 1.4 1.1 2.8 1.7 4.2-10.4 23.6-5.7 51.9 13.4 71l38.3 38.3c19 19 47.4 23.7 71 13.4 1.4 .6 2.8 1.2 4.2 1.7 9.4 24 32.7 40.8 59.6 40.8l54.1 0c26.9 0 50.3-16.7 59.6-40.8 1.4-.6 2.8-1.1 4.2-1.7 23.6 10.4 51.9 5.7 71-13.4l38.3-38.3c19-19 23.7-47.4 13.4-71 .6-1.4 1.2-2.8 1.7-4.2 24-9.4 40.8-32.7 40.8-59.6l0-54.1c0-26.9-16.7-50.3-40.8-59.6-.6-1.4-1.1-2.8-1.7-4.2 10.4-23.6 5.7-51.9-13.4-71L417.9 55.8c-19-19-47.4-23.7-71-13.4-1.4-.6-2.8-1.2-4.2-1.7-9.4-24-32.7-40.8-59.6-40.8L228.9 0zM213.1 62c1-8 7.8-14 15.9-14l54.1 0c8.1 0 14.9 6 15.9 14 1.2 9.1 7.4 16.8 16.1 19.7 7.7 2.6 15.2 5.7 22.4 9.3 8.2 4.1 18.1 3.1 25.3-2.5 6.3-4.9 15.4-4.4 21.1 1.3l38.3 38.3c5.7 5.7 6.3 14.8 1.3 21.1-5.6 7.3-6.6 17.1-2.5 25.3 3.6 7.2 6.7 14.7 9.3 22.4 2.9 8.7 10.6 15 19.7 16.1 8 1 14 7.8 14 15.9l0 54.1c0 8.1-6 14.9-14 15.9-9.1 1.2-16.8 7.4-19.7 16.1-2.6 7.7-5.7 15.2-9.3 22.4-4.1 8.2-3.1 18.1 2.5 25.3 4.9 6.3 4.4 15.4-1.3 21.1l-38.3 38.3c-5.7 5.7-14.8 6.3-21.1 1.3-7.3-5.6-17.1-6.6-25.3-2.5-7.2 3.6-14.7 6.7-22.4 9.3-8.7 2.9-15 10.6-16.1 19.7-1 8-7.8 14-15.9 14l-54.1 0c-8.1 0-14.9-6-15.9-14-1.2-9.1-7.4-16.8-16.1-19.7-7.7-2.6-15.2-5.7-22.4-9.3-8.2-4.1-18.1-3.1-25.3 2.5-6.3 4.9-15.4 4.4-21.1-1.3L89.8 383.9c-5.7-5.7-6.3-14.8-1.3-21.1 5.6-7.3 6.6-17.1 2.5-25.3-3.6-7.2-6.7-14.7-9.3-22.4-2.9-8.7-10.6-15-19.7-16.1-8-1-14-7.8-14-15.9l0-54.1c0-8.1 6-14.9 14-15.9 9.1-1.2 16.8-7.4 19.7-16.1 2.6-7.7 5.7-15.2 9.3-22.4 4.1-8.2 3.1-18.1-2.5-25.3-4.9-6.3-4.4-15.4 1.3-21.1l38.3-38.3c5.7-5.7 14.8-6.3 21.1-1.3 7.3 5.6 17.1 6.6 25.3 2.5 7.2-3.6 14.7-6.7 22.4-9.3 8.7-2.9 15-10.6 16.1-19.7zM360 256a104 104 0 1 1 -208 0 104 104 0 1 1 208 0zM256 104a152 152 0 1 0 0 304 152 152 0 1 0 0-304zm17 112.4A24 24 0 1 0 239 182.5 24 24 0 1 0 273 216.4zM295.6 239A24 24 0 1 0 329.5 273 24 24 0 1 0 295.6 239zM273 329.5A24 24 0 1 0 239 295.6 24 24 0 1 0 273 329.5zM182.5 239A24 24 0 1 0 216.4 273 24 24 0 1 0 182.5 239z"/></svg>