<svg xmlns="http://www.w3.org/2000/svg" viewBox="0 0 576 512"><path fill="currentColor" d="M41-24.9c-9.4-9.4-24.6-9.4-33.9 0S-2.3-.3 7 9.1l528 528c9.4 9.4 24.6 9.4 33.9 0s9.4-24.6 0-33.9l-98.2-98.2c18.9-11.4 33.9-30.3 44.7-51 18.1-34.5 28.5-80.5 28.5-129.9s-10.5-95.4-28.5-129.9C498 60.7 469.7 32 432 32L144 32c-13.3 0-25.5 3.6-36.4 9.7L41-24.9zM145.8 80l210.9 0c-3 4.5-5.7 9.3-8.2 14.1-18.1 34.5-28.5 80.5-28.5 129.9L320 254.2 145.8 80zM433.8 367.9l-48.4-48.4c-10.6-25.3-17.3-58.5-17.3-95.5 0-43.3 9.2-81.3 23-107.7 14.4-27.5 30.1-36.3 41-36.3s26.6 8.9 41 36.3c13.8 26.3 23 64.3 23 107.7s-9.2 81.3-23 107.7c-13.6 26-28.4 35.4-39.2 36.3zM80 224c0-24.1 2.9-46.6 7.8-66.4L49.4 119.2C38.2 149.6 32 185.8 32 224l0 248c0 39.8 32.2 72 72 72l192 0c39.8 0 72-32.2 72-72l0-34.2-48-48 0 82.2c0 13.3-10.7 24-24 24l-192 0c-13.3 0-24-10.7-24-24l0-248zm376 0c0-26.5-10.7-48-24-48s-24 21.5-24 48 10.7 48 24 48 24-21.5 24-48z"/></svg>