<svg xmlns="http://www.w3.org/2000/svg" viewBox="0 0 512 512"><path fill="currentColor" d="M48 224c0 43.3 9.2 81.3 23 107.7 14.4 27.5 30.1 36.3 41 36.3l212.7 0c-3-4.5-5.7-9.3-8.2-14.1-18.1-34.5-28.5-80.5-28.5-129.9s10.5-95.4 28.5-129.9c2.5-4.8 5.3-9.5 8.2-14.1L112 80c-10.9 0-26.6 8.9-41 36.3-13.8 26.3-23 64.3-23 107.7zM359 116.3c-13.8 26.3-23 64.3-23 107.7s9.2 81.3 23 107.7c14.4 27.5 30.1 36.3 41 36.3s26.6-8.9 41-36.3c13.8-26.3 23-64.3 23-107.7s-9.2-81.3-23-107.7C426.6 88.9 410.9 80 400 80s-26.6 8.9-41 36.3zM400 416l-224 0 0 56c0 13.3 10.7 24 24 24l240 0c13.3 0 24-10.7 24-24l0-88.9c-16.6 19.3-38.1 32.9-64 32.9zM128 472l0-56-16 0C74.3 416 46 387.3 28.5 353.9 10.5 319.4 0 273.5 0 224S10.5 128.6 28.5 94.1C46 60.7 74.3 32 112 32l288 0c37.7 0 66 28.7 83.5 62.1 18.1 34.5 28.5 80.5 28.5 129.9l0 248c0 39.8-32.2 72-72 72l-240 0c-39.8 0-72-32.2-72-72zM400 272c-13.3 0-24-21.5-24-48s10.7-48 24-48 24 21.5 24 48-10.7 48-24 48zM243.9 156.1c9.4 9.4 9.4 24.6 0 33.9l-33.9 33.9 33.9 33.9c9.4 9.4 9.4 24.6 0 33.9s-24.6 9.4-33.9 0l-33.9-33.9-33.9 33.9c-9.4 9.4-24.6 9.4-33.9 0s-9.4-24.6 0-33.9l33.9-33.9-33.9-33.9c-9.4-9.4-9.4-24.6 0-33.9s24.6-9.4 33.9 0l33.9 33.9 33.9-33.9c9.4-9.4 24.6-9.4 33.9 0z"/></svg>