<svg xmlns="http://www.w3.org/2000/svg" viewBox="0 0 512 512"><path fill="currentColor" d="M71 116.3C85.4 88.9 101.1 80 112 80l212.7 0c-3 4.5-5.7 9.3-8.2 14.1-18.1 34.5-28.5 80.5-28.5 129.9s10.5 95.4 28.5 129.9c2.5 4.8 5.3 9.5 8.2 14.1L112 368c-10.9 0-26.6-8.9-41-36.3-13.8-26.3-23-64.3-23-107.7s9.2-81.3 23-107.7zM400 80c10.9 0 26.6 8.9 41 36.3 13.8 26.3 23 64.3 23 107.7s-9.2 81.3-23 107.7c-14.4 27.5-30.1 36.3-41 36.3s-26.6-8.9-41-36.3c-13.8-26.3-23-64.3-23-107.7s9.2-81.3 23-107.7C373.4 88.9 389.1 80 400 80zm64 303.1l0 88.9c0 13.3-10.7 24-24 24l-240 0c-13.3 0-24-10.7-24-24l0-56 224 0c25.9 0 47.4-13.6 64-32.9zM128 416l0 56c0 39.8 32.2 72 72 72l240 0c39.8 0 72-32.2 72-72l0-248C512 174.5 501.5 128.6 483.5 94.1 466 60.7 437.7 32 400 32L112 32C74.3 32 46 60.7 28.5 94.1 10.5 128.6 0 174.5 0 224s10.5 95.4 28.5 129.9C46 387.3 74.3 416 112 416l16 0zM424 224c0-26.5-10.7-48-24-48s-24 21.5-24 48 10.7 48 24 48 24-21.5 24-48z"/></svg>