<svg xmlns="http://www.w3.org/2000/svg" viewBox="0 0 448 512"><path fill="currentColor" d="M0 24C0 10.7 10.7 0 24 0L424 0c13.3 0 24 10.7 24 24s-10.7 24-24 24l-8 0 0 159.1 .4 .4c14.1 11.9 23.6 28.3 23.6 48.5 0 72.7-33.4 120.2-78.4 148.3-1.7 1.1-3.5 2.1-5.2 3.2l22.3 40.7c3.5 6.3 5.3 13.5 5.3 20.7 0 23.8-19.3 43.1-43.1 43.1l-233.8 0c-23.8 0-43.1-19.3-43.1-43.1 0-7.2 1.8-14.4 5.3-20.7l22.3-40.7c-1.8-1-3.5-2.1-5.2-3.2-45-28.1-78.4-75.6-78.4-148.3 0-20.3 9.5-36.6 23.6-48.5l.4-.4 0-159.1-8 0C10.7 48 0 37.3 0 24zM74.2 326.8C84 342.5 97.1 354.4 111.8 363.7 145 384.4 188.1 392 224 392s79-7.6 112.2-28.3c14.7-9.2 27.8-21.2 37.6-36.9-2.4 .8-4.9 1.5-7.4 2.3-38 10.9-88.7 14.9-142.4 14.9s-104.4-4-142.4-14.9c-2.5-.7-4.9-1.5-7.4-2.3zm61.5 100l-20.4 37.2 217.3 0-20.4-37.2C281.7 436.5 250.4 440 224 440s-57.7-3.5-88.3-13.2zM392 256c0-3.7-1.2-7.4-6.6-12-6.1-5.1-16.5-10.4-32.2-15-31.5-9.1-76.8-13.1-129.1-13.1s-97.7 4-129.1 13.1c-15.8 4.5-26.2 9.8-32.3 15-5.4 4.6-6.6 8.2-6.6 12s1.2 7.4 6.6 12c6.1 5.1 16.5 10.4 32.3 15 31.5 9.1 76.8 13.1 129.1 13.1s97.7-4 129.1-13.1c15.8-4.5 26.2-9.8 32.2-15 5.4-4.6 6.6-8.2 6.6-12zM368 48l-288 0 0 135.4 1.6-.5C119.6 172 170.3 168 224 168s104.4 4 142.4 14.9l1.6 .5 0-135.4zM128 80l48 0c8.8 0 16 7.2 16 16s-7.2 16-16 16l-48 0c-8.8 0-16-7.2-16-16s7.2-16 16-16z"/></svg>