<svg xmlns="http://www.w3.org/2000/svg" viewBox="0 0 512 512"><path fill="currentColor" d="M400 32c37.7 0 66 28.7 83.5 62.1 18.1 34.5 28.5 80.5 28.5 129.9s-10.4 95.5-28.5 129.9c-17.5 33.3-45.8 62.1-83.5 62.1-25.9 0-47.4-13.6-64-32.9l0 88.9c0 39.8-32.2 72-72 72L72 544c-39.8 0-72-32.2-72-72L0 224C0 174.5 10.4 128.5 28.5 94.1 46 60.7 74.3 32 112 32l288 0zM112 80c-10.9 0-26.6 8.9-41 36.3-13.8 26.3-23 64.3-23 107.7l0 248c0 13.3 10.7 24 24 24l192 0c13.3 0 24-10.7 24-24l0-248c0-49.5 10.4-95.5 28.5-129.9 2.5-4.8 5.3-9.5 8.2-14.1L112 80zm288 0c-10.9 0-26.6 8.9-41 36.3-13.8 26.3-23 64.3-23 107.7s9.2 81.3 23 107.7c14.4 27.5 30.1 36.3 41 36.3s26.6-8.9 41-36.3c13.8-26.3 23-64.3 23-107.7s-9.2-81.3-23-107.7C426.6 88.9 410.9 80 400 80zM204.7 159.9c7.8-10.7 22.8-13.1 33.5-5.3s13.1 22.8 5.3 33.5L167.4 292.8c-4.2 5.7-10.7 9.3-17.8 9.8-7.1 .5-14-2.2-18.9-7.3L94.8 258.2c-9.2-9.5-8.9-24.7 .6-33.9 9.5-9.2 24.7-9 33.9 .6l16.1 16.6 59.3-81.6zM400 176c13.3 0 24 21.5 24 48s-10.7 48-24 48-24-21.5-24-48 10.7-48 24-48z"/></svg>