<svg xmlns="http://www.w3.org/2000/svg" viewBox="0 0 512 512"><path fill="currentColor" d="M71 116.3C85.4 88.9 101.1 80 112 80l212.7 0c-3 4.5-5.7 9.3-8.2 14.1-18.1 34.5-28.5 80.5-28.5 129.9l0 248c0 13.3-10.7 24-24 24L72 496c-13.3 0-24-10.7-24-24l0-248c0-43.3 9.2-81.3 23-107.7zM336 383.1c16.6 19.3 38.1 32.9 64 32.9 37.7 0 66-28.7 83.5-62.1 18.1-34.5 28.5-80.5 28.5-129.9s-10.5-95.4-28.5-129.9C466 60.7 437.7 32 400 32L112 32C74.3 32 46 60.7 28.5 94.1 10.5 128.6 0 174.5 0 224L0 472c0 39.8 32.2 72 72 72l192 0c39.8 0 72-32.2 72-72l0-88.9zM400 80c10.9 0 26.6 8.9 41 36.3 13.8 26.3 23 64.3 23 107.7s-9.2 81.3-23 107.7c-14.4 27.5-30.1 36.3-41 36.3s-26.6-8.9-41-36.3c-13.8-26.3-23-64.3-23-107.7s9.2-81.3 23-107.7C373.4 88.9 389.1 80 400 80zm24 144c0-26.5-10.7-48-24-48s-24 21.5-24 48 10.7 48 24 48 24-21.5 24-48z"/></svg>