<svg xmlns="http://www.w3.org/2000/svg" viewBox="0 0 512 512"><path fill="currentColor" d="M72 48l80 0c13.3 0 24 10.7 24 24l0 24-128 0 0-24c0-13.3 10.7-24 24-24zM0 96L0 488c0 13.3 10.7 24 24 24s24-10.7 24-24l0-8 128 0 0 8c0 13.3 10.7 24 24 24s24-10.7 24-24l0-416c0-39.8-32.2-72-72-72L72 0C32.2 0 0 32.2 0 72L0 96zm176 48l0 80-24 0c-13.3 0-24 10.7-24 24l0 48c0 13.3 10.7 24 24 24l24 0 0 112-128 0 0-288 128 0zM360 48l80 0c13.3 0 24 10.7 24 24l0 24-128 0 0-24c0-13.3 10.7-24 24-24zM336 432l0-288 128 0 0 80-24 0c-13.3 0-24 10.7-24 24l0 48c0 13.3 10.7 24 24 24l24 0 0 112-128 0zm176 0l0-360c0-39.8-32.2-72-72-72L360 0c-39.8 0-72 32.2-72 72l0 416c0 13.3 10.7 24 24 24s24-10.7 24-24l0-8 128 0 0 8c0 13.3 10.7 24 24 24s24-10.7 24-24l0-56z"/></svg>