<svg xmlns="http://www.w3.org/2000/svg" viewBox="0 0 512 512"><path fill="currentColor" d="M256-32c13.3 0 24 10.7 24 24l0 40.3C296.2 22 315.4 16 336 16l32 0c22.1 0 40 17.9 40 40 0 24.5-8.5 47.1-22.7 64.9 75.8 32.6 126.7 95.9 126.7 183.1 0 130.9-114.6 208-256 208S0 434.9 0 304c0-87.2 50.9-150.6 126.7-183.1-14.2-17.8-22.7-40.3-22.7-64.9 0-22.1 17.9-40 40-40l32 0c20.6 0 39.8 6 56 16.3L232-8c0-13.3 10.7-24 24-24zM108.4 185.8c-1.4 1-2.8 2.1-4.2 3.1-35.1 27-56.2 65.2-56.2 115s21.1 88 56.2 115c36.2 27.9 89.2 45 151.8 45s115.5-17.1 151.8-45c35.1-27 56.2-65.2 56.2-115s-21.1-88-56.2-115c-1.4-1.1-2.8-2.1-4.2-3.1 2.9 9.5 4.4 19.7 4.4 30.2 0 22.1-17.9 40-40 40l-32 0c-32.2 0-60.9-14.6-80-37.5-19.1 22.9-47.8 37.5-80 37.5l-32 0c-22.1 0-40-17.9-40-40 0-10.5 1.6-20.6 4.4-30.2zM280.6 160c3.9 27.1 27.2 48 55.4 48l23.4 0c-3.9-27.1-27.2-48-55.4-48l-23.4 0zM208 160c-28.2 0-51.6 20.9-55.4 48l23.4 0c28.2 0 51.6-20.9 55.4-48L208 160zm72.6-48l23.4 0c28.2 0 51.6-20.9 55.4-48L336 64c-28.2 0-51.6 20.9-55.4 48zM208 112l23.4 0c-3.9-27.1-27.2-48-55.4-48l-23.4 0c3.9 27.1 27.2 48 55.4 48z"/></svg>