<svg xmlns="http://www.w3.org/2000/svg" viewBox="0 0 448 512"><path fill="currentColor" d="M368 464l-288 0 0-272c0-79.5 64.5-144 144-144s144 64.5 144 144l0 272zM32 192l0 272-8 0c-13.3 0-24 10.7-24 24s10.7 24 24 24l400 0c13.3 0 24-10.7 24-24s-10.7-24-24-24l-8 0 0-272C416 86 330 0 224 0S32 86 32 192zm216-40c0-13.3-10.7-24-24-24s-24 10.7-24 24l0 40-48 0c-13.3 0-24 10.7-24 24s10.7 24 24 24l48 0 0 120c0 13.3 10.7 24 24 24s24-10.7 24-24l0-120 48 0c13.3 0 24-10.7 24-24s-10.7-24-24-24l-48 0 0-40z"/></svg>