<svg xmlns="http://www.w3.org/2000/svg" viewBox="0 0 512 512"><path fill="currentColor" d="M184 48l144 0c4.4 0 8 3.6 8 8l0 40-160 0 0-40c0-4.4 3.6-8 8-8zm-56 8l0 40-28.1 0c-12.7 0-24.9 5.1-33.9 14.1L14.1 161.9c-9 9-14.1 21.2-14.1 33.9L0 416c0 35.3 28.7 64 64 64l384 0c35.3 0 64-28.7 64-64l0-220.1c0-12.7-5.1-24.9-14.1-33.9l-51.9-51.9c-9-9-21.2-14.1-33.9-14.1l-28.1 0 0-40c0-30.9-25.1-56-56-56L184 0c-30.9 0-56 25.1-56 56zM48 320l88 0 0 16c0 13.3 10.7 24 24 24s24-10.7 24-24l0-16 144 0 0 16c0 13.3 10.7 24 24 24s24-10.7 24-24l0-16 88 0 0 96c0 8.8-7.2 16-16 16L64 432c-8.8 0-16-7.2-16-16l0-96zm0-48l0-76.1 51.9-51.9 312.2 0 51.9 51.9 0 76.1-88 0 0-16c0-13.3-10.7-24-24-24s-24 10.7-24 24l0 16-144 0 0-16c0-13.3-10.7-24-24-24s-24 10.7-24 24l0 16-88 0z"/></svg>