<svg xmlns="http://www.w3.org/2000/svg" viewBox="0 0 448 512"><path fill="currentColor" d="M0 121.1C0 54.2 54.2 0 121.1 0 139.9 0 158.4 4.4 175.2 12.8L224 37.2 272.8 12.8C289.6 4.4 308.1 0 326.9 0 393.8 0 448 54.2 448 121.1l0 72.7c0 23.6-5.5 46.9-16 68l-23.8 47.6c-5.7 11.5-9.3 23.9-10.5 36.6L387.5 452.4c-3.2 33.8-31.6 59.6-65.5 59.6-31.2 0-58.1-21.9-64.4-52.4L229.4 324.4c-.5-2.6-2.8-4.4-5.4-4.4s-4.9 1.8-5.4 4.4L190.4 459.6c-6.4 30.5-33.2 52.4-64.4 52.4-33.9 0-62.3-25.8-65.5-59.6L50.4 346c-1.2-12.8-4.8-25.2-10.5-36.6L16 261.8c-10.6-21.1-16-44.4-16-68l0-72.7zM121.1 48C80.7 48 48 80.7 48 121.1l0 72.7c0 16.1 3.8 32.1 11 46.5l23.8 47.6c8.4 16.8 13.6 34.9 15.4 53.6l10.1 106.4c.9 9.1 8.5 16.1 17.7 16.1 8.4 0 15.7-5.9 17.4-14.2l28.2-135.2c5.2-24.8 27-42.6 52.4-42.6s47.2 17.8 52.4 42.6l28.2 135.2c1.7 8.3 9 14.2 17.4 14.2 9.2 0 16.9-7 17.7-16.1l10.1-106.4c1.8-18.6 7-36.8 15.4-53.6L389 240.3c7.2-14.4 11-30.4 11-46.5l0-72.7c0-40.4-32.7-73.1-73.1-73.1-11.3 0-22.5 2.6-32.7 7.7L234.7 85.5c-6.8 3.4-14.7 3.4-21.5 0L153.8 55.7c-10.1-5.1-21.3-7.7-32.7-7.7z"/></svg>