<svg xmlns="http://www.w3.org/2000/svg" viewBox="0 0 448 512"><path fill="currentColor" d="M36.3 19.4c-7.4-4.4-16.6-4.6-24.2-.3S0 31.4 0 40l0 64c0 40.3 27.1 74.2 64 84.7l0 67.3-24 0c-13.3 0-24 10.7-24 24s10.7 24 24 24l24 0 0 184c0 13.3 10.7 24 24 24s24-10.7 24-24l0-184 224 0 0 184c0 13.3 10.7 24 24 24s24-10.7 24-24l0-184 24 0c13.3 0 24-10.7 24-24s-10.7-24-24-24l-24 0 0-67.3c36.9-10.4 64-44.4 64-84.7l0-64c0-8.6-4.6-16.6-12.2-20.9s-16.8-4.1-24.2 .3L346.9 58.3C340.6 62 333.5 64 326.3 64L121.7 64c-7.2 0-14.4-2-20.6-5.7L36.3 19.4zM336 192l0 64-88 0 0-64 88 0zm-136 0l0 64-88 0 0-64 88 0zM48 104l0-21.6 28.5 17.1c13.7 8.2 29.3 12.5 45.3 12.5l204.5 0c16 0 31.6-4.3 45.3-12.5L400 82.4 400 104c0 22.1-17.9 40-40 40L88 144c-22.1 0-40-17.9-40-40z"/></svg>