<svg xmlns="http://www.w3.org/2000/svg" viewBox="0 0 448 512"><path fill="currentColor" d="M332.4 48L48 48c.3 28 6.3 55.1 17 80l239.1 0c-.1-1.8-.1-3.6-.1-5.4 0-27.6 10.2-54.1 28.4-74.6zM317.5 176L94 176c15.5 19.3 34.6 35.9 56.6 48.9l52.9 31.1 172.5 0-49.6-66.1c-3.3-4.4-6.3-9.1-8.9-13.9zm80.9 128l-115.5 0c19.9 15.1 36.1 34.6 47.3 57 8.9 17.8 14.4 37 16.4 56.5l23.6-23.6c19.1-19.1 29.8-45 29.8-72 0-6-.5-12.1-1.6-17.9zm5.7 123.9l-64.1 64.1-.4 .4c-1.3 1.3-5.9 5.9-13.7 13.7-3.8 3.8-8.9 5.9-14.2 5.9-12.4 0-21.8-11.1-19.8-23.4 1.8-10.9 2.9-17.3 3.2-19.2l.1-.5 2.7-16c4-24 .3-48.7-10.6-70.5-9.9-19.9-25.4-36.5-44.6-47.8L126.2 266.2C48 220.2 0 136.3 0 45.6L0 32C0 14.3 14.3 0 32 0L393.4 0c12.5 0 22.6 10.1 22.6 22.6 0 6-2.4 11.8-6.6 16L370.8 77.2c-12 12-18.8 28.4-18.8 45.4 0 13.9 4.5 27.4 12.8 38.5L418 232c19.4 25.9 30 57.5 30 89.9 0 39.7-15.8 77.8-43.9 105.9z"/></svg>