<svg xmlns="http://www.w3.org/2000/svg" viewBox="0 0 448 512"><path fill="currentColor" d="M144 24c0-13.3 10.7-24 24-24L280 0c13.3 0 24 10.7 24 24s-10.7 24-24 24l-32 0 0 48 176 0c7.4 0 14.4 3.4 19 9.3s6.1 13.5 4.3 20.7l-50.3 194 3.1 0c13.3 0 24 10.7 24 24s-10.7 24-24 24l-16 0 0 144-48 0 0-144-224 0 0 144-48 0 0-144-16 0c-13.3 0-24-10.7-24-24s10.7-24 24-24l3.1 0-50.3-194c-1.9-7.2-.3-14.8 4.3-20.7S16.6 96 24 96l176 0 0-48-32 0c-13.3 0-24-10.7-24-24zM347.4 320l45.6-176-73 0 0 176 27.4 0zM272 320l0-176-96 0 0 176 96 0zm-144 0l0-176-73 0 45.6 176 27.4 0z"/></svg>