<svg xmlns="http://www.w3.org/2000/svg" viewBox="0 0 448 512"><path fill="currentColor" d="M213.7 2.3c6.5-3.1 14.1-3.1 20.6 0l168 80c12 5.7 17 20 11.3 32-5.3 11.2-18.2 16.4-29.7 12.3l0 73.4c0 27.2-19.4 49.9-45.2 55l34.8 209 50.3 0c13.3 0 24 10.7 24 24s-10.7 24-24 24L24 512c-13.3 0-24-10.7-24-24s10.7-24 24-24l50.3 0 34.8-209c-25.7-5-45.2-27.7-45.2-55l0-73.4c-11.4 4.1-24.3-1.1-29.7-12.3-5.7-12-.6-26.3 11.4-32l168-80zM224 50.6l-112 53.3 0 24.1 224 0 0-24.1-112-53.3zM112 176l0 24c0 4.4 3.6 8 8 8l208 0c4.4 0 8-3.6 8-8l0-24-224 0zM298.8 464l-74.8-63.3-74.8 63.3 149.7 0zM157.7 256l-3.7 22.5 70.1 59.3 70.1-59.3-3.7-22.5-132.7 0zm-12.9 77.6l-13.8 83 55.9-47.3-42.1-35.6zm116.4 35.6l55.9 47.3-13.8-83-42.1 35.6z"/></svg>