<svg xmlns="http://www.w3.org/2000/svg" viewBox="0 0 576 512"><path fill="currentColor" d="M288.5 104c30.9 0 56 25.1 56 56 0 22.3-13.1 41.5-32 50.5l0 277.5c0 13.2-10.8 24-24 24s-24-10.8-24-24l0-277.5c-18.9-9-32-28.2-32-50.5 0-30.9 25.1-56 56-56zM112.6 11.5c11.3-6.9 26.1-3.2 32.9 8.1 24.8 41 39 89.1 39 140.4s-14.2 99.4-39 140.4c-6.9 11.3-21.6 15-32.9 8.1s-15-21.6-8.2-32.9c20.4-33.7 32.1-73.3 32.1-115.6S124.8 78.1 104.4 44.4c-6.8-11.3-3.2-26.1 8.2-32.9zm318.9 8.1c6.9-11.3 21.6-15 32.9-8.1s15 21.6 8.2 32.9c-20.4 33.7-32.1 73.3-32.1 115.6s11.7 81.9 32.1 115.6c6.8 11.3 3.2 26.1-8.2 32.9s-26.1 3.2-32.9-8.1c-24.8-41-39-89.1-39-140.4s14.2-99.4 39-140.4zM27.5 57.8c11.2-7.2 26-3.9 33.2 7.2 17.6 27.4 27.8 60 27.8 95s-10.2 67.6-27.8 95c-7.2 11.1-22 14.4-33.2 7.2s-14.4-22-7.2-33.2c12.8-19.9 20.2-43.6 20.2-69.1s-7.4-49.1-20.2-69c-7.2-11.2-3.9-26 7.2-33.2zM516.3 65c7.2-11.1 22-14.4 33.2-7.2 11.1 7.2 14.4 22 7.2 33.2-12.8 19.9-20.2 43.6-20.2 69s7.4 49.2 20.2 69.1c7.2 11.2 3.9 26-7.2 33.2s-26 3.9-33.2-7.2c-17.6-27.4-27.8-60.1-27.8-95s10.2-67.6 27.8-95z"/></svg>