<svg xmlns="http://www.w3.org/2000/svg" viewBox="0 0 576 512"><path fill="currentColor" d="M244.8 32c16.9 0 32.5 8.8 41.2 23.3l82 136.7 64 0 0-72c0-13.3 10.7-24 24-24s24 10.7 24 24l0 72 48 0c26.5 0 48 21.5 48 48l0 41.5c0 14.2-6.3 27.8-17.3 36.9l-35 29.2c26.5 15.2 44.3 43.7 44.3 76.4 0 48.6-39.4 88-88 88s-88-39.4-88-88c0-14.4 3.5-28 9.6-40l-84.8 0C302 457 237.4 512 160 512 71.6 512 0 440.4 0 352 0 286.4 39.5 230 96 205.3L96 64c0-17.7 14.3-32 32-32l116.8 0zm29.4 208c24.8 25.3 41.3 58.8 44.9 96l143.4 0 65.4-54.5 0-41.5-253.7 0zM160 192l152 0-67.2-112-100.8 0 0 112 16 0zM480 384a40 40 0 1 0 0 80 40 40 0 1 0 0-80zM136 461.4c.3-13 10.9-23.4 24-23.4s23.7 10.4 24 23.4c13.1-2.9 25.4-8 36.4-15.1-9-9.4-8.8-24.3 .4-33.5s24.1-9.4 33.5-.4c7-11 12.2-23.3 15.1-36.4-13-.3-23.4-10.9-23.4-24s10.4-23.7 23.4-24c-2.9-13.1-8-25.4-15.1-36.4-9.4 9-24.3 8.8-33.5-.4s-9.4-24.1-.4-33.5c-11-7-23.3-12.2-36.4-15.1-.3 13-10.9 23.4-24 23.4s-23.7-10.4-24-23.4c-13.1 2.9-25.4 8-36.4 15.1 9 9.4 8.8 24.3-.4 33.5s-24.1 9.4-33.5 .4c-7 11-12.2 23.3-15.1 36.4 13 .3 23.4 10.9 23.4 24s-10.4 23.7-23.4 24c2.9 13.1 8 25.4 15.1 36.4 9.4-9 24.3-8.8 33.5 .4s9.4 24.1 .4 33.5c11 7 23.3 12.2 36.4 15.1zM160 312a40 40 0 1 1 0 80 40 40 0 1 1 0-80z"/></svg>