<svg xmlns="http://www.w3.org/2000/svg" viewBox="0 0 512 512"><path fill="currentColor" d="M165.6 32.7c12.9 3.1 20.8 16 17.7 28.9l-10.2 42.4 165.7 0-10.2-42.4c-3.1-12.9 4.8-25.8 17.7-28.9s25.8 4.8 28.9 17.7l12.9 53.6 35.8 0c13.3 0 24 10.7 24 24s-10.7 24-24 24l-24.3 0 19.2 80 37.1 0c13.3 0 24 10.7 24 24s-10.7 24-24 24l-25.6 0 19.2 80 38.4 0c13.3 0 24 10.7 24 24s-10.7 24-24 24l-26.8 0 10.2 42.4c3.1 12.9-4.8 25.8-17.7 28.9s-25.8-4.8-28.9-17.7l-12.9-53.6-311.6 0-12.9 53.6c-3.1 12.9-16 20.8-28.9 17.7s-20.8-16.1-17.7-28.9L50.8 408 24 408c-13.3 0-24-10.7-24-24s10.7-24 24-24l38.4 0 19.2-80-25.6 0c-13.3 0-24-10.7-24-24s10.7-24 24-24l37.1 0 19.2-80-24.3 0c-13.3 0-24-10.7-24-24s10.7-24 24-24l35.8 0 12.9-53.6c3.1-12.9 16-20.8 28.9-17.7zm-4 119.3l-19.2 80 227.1 0-19.2-80-188.7 0zM381.1 280l-250.2 0-19.2 80 288.6 0-19.2-80z"/></svg>