<svg xmlns="http://www.w3.org/2000/svg" viewBox="0 0 384 512"><path fill="currentColor" d="M0 8C0-5.3 10.7-16 24-16l336 0c13.3 0 24 10.7 24 24l0 32c0 13.3-10.7 24-24 24s-24-10.7-24-24l0-8-120 0 0 64 40 0c53 0 96 43 96 96l0 160c0 31.2-14.9 59-38 76.5l64.3 76c8.6 10.1 7.3 25.3-2.8 33.8s-25.3 7.3-33.8-2.8l-74.6-88.1c-3.6 .4-7.3 .6-11.1 .6l-128 0c-3.8 0-7.5-.2-11.1-.6L42.3 535.5c-8.6 10.1-23.7 11.4-33.8 2.8s-11.4-23.7-2.8-33.8l64.3-76C46.9 411 32 383.2 32 352l0-160c0-53 43-96 96-96l40 0 0-64-120 0 0 8c0 13.3-10.7 24-24 24S0 53.3 0 40L0 8zM128 144c-26.5 0-48 21.5-48 48l0 48 224 0 0-48c0-26.5-21.5-48-48-48l-128 0zM80 288l0 64c0 26.5 21.5 48 48 48l128 0c26.5 0 48-21.5 48-48l0-64-224 0zm32 56a24 24 0 1 1 48 0 24 24 0 1 1 -48 0zm136-24a24 24 0 1 1 0 48 24 24 0 1 1 0-48z"/></svg>