<svg xmlns="http://www.w3.org/2000/svg" viewBox="0 0 640 512"><path fill="currentColor" d="M512 0c61.9 0 112 50.1 112 112 0 53.6-37.7 98.4-88 109.4L536 456c0 13.3-10.7 24-24 24s-24-10.7-24-24l0-234.6c-50.3-11-88-55.8-88-109.4 0-61.9 50.1-112 112-112zM280.2 64.4C320.5 68.5 352 102.6 352 144l0 192-.4 8.2c-3.4 33.2-27.1 60.4-58.5 68.9l21.9 28.1c8.1 10.5 6.3 25.5-4.2 33.7-10.5 8.1-25.5 6.3-33.7-4.2l-42.6-54.7-84.9 0-42.6 54.7c-8.1 10.5-23.2 12.3-33.7 4.2s-12.3-23.2-4.2-33.7l21.8-28.1c-31.4-8.6-55.1-35.7-58.5-69L32 336 32 144c0-41.4 31.5-75.5 71.8-79.6l8.2-.4 160 0 8.2 .4zM80 336c0 17.7 14.3 32 32 32l160 0c17.7 0 32-14.3 32-32l0-72-224 0 0 72zm112 0a24 24 0 1 1 0-48 24 24 0 1 1 0 48zM112 112c-17.7 0-32 14.3-32 32l0 72 224 0 0-72c0-17.7-14.3-32-32-32l-160 0zM512 48a64 64 0 1 0 0 128 64 64 0 1 0 0-128z"/></svg>