<svg xmlns="http://www.w3.org/2000/svg" viewBox="0 0 640 512"><path fill="currentColor" d="M96 80c-8.8 0-16 7.2-16 16l0 256c0 8.8 7.2 16 16 16l60.1 0c16.1-19.5 40.6-32 67.9-32s51.7 12.5 67.9 32L480 368c8.8 0 16-7.2 16-16l0-256c0-8.8-7.2-16-16-16L96 80zM327.9 416l-16.3 0c.2 2.6 .4 5.3 .4 8 0 48.6-39.4 88-88 88s-88-39.4-88-88c0-2.7 .1-5.4 .4-8L96 416c-35.3 0-64-28.7-64-64L32 96c0-35.3 28.7-64 64-64l384 0c35.3 0 64 28.7 64 64l0 256c0 5.5-.7 10.9-2 16l74 0c13.3 0 24 10.7 24 24s-10.7 24-24 24l-288.1 0zM384 152c0-13.3 10.7-24 24-24s24 10.7 24 24l0 112c0 13.3-10.7 24-24 24s-24-10.7-24-24l0-112zM168 128c13.3 0 24 10.7 24 24l0 112c0 13.3-10.7 24-24 24s-24-10.7-24-24l0-112c0-13.3 10.7-24 24-24zm96 24c0-13.3 10.7-24 24-24s24 10.7 24 24l0 112c0 13.3-10.7 24-24 24s-24-10.7-24-24l0-112zM224 464a40 40 0 1 0 0-80 40 40 0 1 0 0 80z"/></svg>