<svg xmlns="http://www.w3.org/2000/svg" viewBox="0 0 576 512"><path fill="currentColor" d="M344 24a56 56 0 1 0 -112 0 56 56 0 1 0 112 0zM320 240l48 0 0-22.4 16.1 22.4 59.1 0-54.8-76.5C365.1 131.2 327.8 112 288 112s-77.2 19.2-100.3 51.5l-54.8 76.5 59.1 0 16.1-22.4 0 22.4 48 0 0-72.9c9.9-4.6 20.8-7.1 32-7.1s22.1 2.5 32 7.1l0 72.9zm48 256l-216 0c-13.3 0-24 10.7-24 24s10.7 24 24 24l272 0c13.3 0 24-10.7 24-24s-10.7-24-24-24l-56 0zM128 288c-8.8 0-16 7.2-16 16s7.2 16 16 16l320 0c8.8 0 16-7.2 16-16s-7.2-16-16-16l-320 0zm80 64c-8.8 0-16 7.2-16 16s7.2 16 16 16l160 0c8.8 0 16-7.2 16-16s-7.2-16-16-16l-160 0zm0 64c-8.8 0-16 7.2-16 16s7.2 16 16 16l160 0c8.8 0 16-7.2 16-16s-7.2-16-16-16l-160 0zM64 32L56.7 6.6C55.6 2.7 52.1 0 48 0s-7.6 2.7-8.7 6.6L32 32 6.6 39.3C2.7 40.4 0 43.9 0 48s2.7 7.6 6.6 8.7L32 64 39.3 89.4C40.4 93.3 43.9 96 48 96s7.6-2.7 8.7-6.6L64 64 89.4 56.7C93.3 55.6 96 52.1 96 48s-2.7-7.6-6.6-8.7L64 32zM536.7 326.6c-1.1-3.9-4.7-6.6-8.7-6.6s-7.6 2.7-8.7 6.6l-7.3 25.4-25.4 7.3c-3.9 1.1-6.6 4.7-6.6 8.7s2.7 7.6 6.6 8.7l25.4 7.3 7.3 25.4c1.1 3.9 4.7 6.6 8.7 6.6s7.6-2.7 8.7-6.6l7.3-25.4 25.4-7.3c3.9-1.1 6.6-4.7 6.6-8.7s-2.7-7.6-6.6-8.7l-25.4-7.3-7.3-25.4z"/></svg>