<svg xmlns="http://www.w3.org/2000/svg" viewBox="0 0 576 512"><path fill="currentColor" d="M344 24a56 56 0 1 0 -112 0 56 56 0 1 0 112 0zM320 304l48 0 0-86.4 60.5 84.4c7.7 10.8 22.7 13.2 33.5 5.5s13.2-22.7 5.5-33.5L388.3 163.5C365.1 131.2 327.8 112 288 112s-77.2 19.2-100.3 51.5L108.5 274c-7.7 10.8-5.2 25.8 5.5 33.5s25.8 5.2 33.5-5.5l60.5-84.4 0 86.4 48 0 0-136.9c9.9-4.6 20.8-7.1 32-7.1s22.1 2.5 32 7.1L320 304zm48 192l-216 0c-13.3 0-24 10.7-24 24s10.7 24 24 24l272 0c13.3 0 24-10.7 24-24s-10.7-24-24-24l-56 0zM536.7 134.6c-1.1-3.9-4.7-6.6-8.7-6.6s-7.6 2.7-8.7 6.6l-7.3 25.4-25.4 7.3c-3.9 1.1-6.6 4.7-6.6 8.7s2.7 7.6 6.6 8.7l25.4 7.3 7.3 25.4c1.1 3.9 4.7 6.6 8.7 6.6s7.6-2.7 8.7-6.6l7.3-25.4 25.4-7.3c3.9-1.1 6.6-4.7 6.6-8.7s-2.7-7.6-6.6-8.7l-25.4-7.3-7.3-25.4zm-480 192c-1.1-3.9-4.7-6.6-8.7-6.6s-7.6 2.7-8.7 6.6L32 352 6.6 359.3C2.7 360.4 0 363.9 0 368s2.7 7.6 6.6 8.7L32 384 39.3 409.4c1.1 3.9 4.7 6.6 8.7 6.6s7.6-2.7 8.7-6.6L64 384 89.4 376.7c3.9-1.1 6.6-4.7 6.6-8.7s-2.7-7.6-6.6-8.7L64 352 56.7 326.6zM192 368c0 8.8 7.2 16 16 16l160 0c8.8 0 16-7.2 16-16s-7.2-16-16-16l-160 0c-8.8 0-16 7.2-16 16zm0 64c0 8.8 7.2 16 16 16l160 0c8.8 0 16-7.2 16-16s-7.2-16-16-16l-160 0c-8.8 0-16 7.2-16 16z"/></svg>