<svg xmlns="http://www.w3.org/2000/svg" viewBox="0 0 576 512"><path fill="currentColor" d="M240-32c-8.8 0-16 7.2-16 16s7.2 16 16 16l96 0c8.8 0 16-7.2 16-16s-7.2-16-16-16l-96 0zM208 96c-8.8 0-16 7.2-16 16s7.2 16 16 16l160 0c8.8 0 16-7.2 16-16s-7.2-16-16-16L208 96zM144 224c-8.8 0-16 7.2-16 16s7.2 16 16 16l288 0c8.8 0 16-7.2 16-16s-7.2-16-16-16l-288 0zm64 128c-8.8 0-16 7.2-16 16s7.2 16 16 16l160 0c8.8 0 16-7.2 16-16s-7.2-16-16-16l-160 0zM152 496c-13.3 0-24 10.7-24 24s10.7 24 24 24l272 0c13.3 0 24-10.7 24-24s-10.7-24-24-24l-272 0zM64 160l-7.3-25.4c-1.1-3.9-4.7-6.6-8.7-6.6s-7.6 2.7-8.7 6.6L32 160 6.6 167.3C2.7 168.4 0 171.9 0 176s2.7 7.6 6.6 8.7L32 192 39.3 217.4c1.1 3.9 4.7 6.6 8.7 6.6s7.6-2.7 8.7-6.6L64 192 89.4 184.7c3.9-1.1 6.6-4.7 6.6-8.7s-2.7-7.6-6.6-8.7L64 160zM536.7 6.6C535.6 2.7 532.1 0 528 0s-7.6 2.7-8.7 6.6L512 32 486.6 39.3c-3.9 1.1-6.6 4.7-6.6 8.7s2.7 7.6 6.6 8.7L512 64 519.3 89.4c1.1 3.9 4.7 6.6 8.7 6.6s7.6-2.7 8.7-6.6L544 64 569.4 56.7c3.9-1.1 6.6-4.7 6.6-8.7s-2.7-7.6-6.6-8.7L544 32 536.7 6.6z"/></svg>