<svg xmlns="http://www.w3.org/2000/svg" viewBox="0 0 576 512"><path fill="currentColor" d="M480-8c39.8 0 72 32.2 72 72 0 31.3-20.1 57.9-48 67.8L504 240c0 22.1-17.9 40-40 40l-152 0 0 100.2c27.9 9.9 48 36.5 48 67.8 0 39.8-32.2 72-72 72s-72-32.2-72-72c0-31.3 20.1-57.9 48-67.8l0-100.2-144 0 0 100.2c27.9 9.9 48 36.5 48 67.8 0 39.8-32.2 72-72 72s-72-32.2-72-72c0-31.3 20.1-57.9 48-67.8l0-248.4C44.1 121.9 24 95.3 24 64 24 24.2 56.2-8 96-8s72 32.2 72 72c0 31.3-20.1 57.9-48 67.8l0 100.2 144 0 0-100.2c-27.9-9.9-48-36.4-48-67.8 0-39.8 32.2-72 72-72s72 32.2 72 72c0 31.3-20.1 57.9-48 67.8l0 100.2 144 0 0-100.2c-27.9-9.9-48-36.4-48-67.8 0-39.8 32.2-72 72-72zM96 424a24 24 0 1 0 0 48 24 24 0 1 0 0-48zm192 0a24 24 0 1 0 0 48 24 24 0 1 0 0-48zM480 40a24 24 0 1 0 0 48 24 24 0 1 0 0-48zM96 40a24 24 0 1 0 0 48 24 24 0 1 0 0-48zm192 0a24 24 0 1 0 0 48 24 24 0 1 0 0-48z"/></svg>