<svg xmlns="http://www.w3.org/2000/svg" viewBox="0 0 384 512"><path fill="currentColor" d="M248-32c13.3 0 24 10.7 24 24l0 72c26.5 0 48 21.5 48 48l0 272 16 0c26.5 0 48 21.5 48 48l0 64-.2 4.9C381.3 525.1 360.9 544 336 544L48 544C23.1 544 2.7 525.1 .2 500.9L0 496 0 432c0-26.5 21.5-48 48-48l16 0 0-272c0-26.5 21.5-48 48-48l0-72c0-13.3 10.7-24 24-24s24 10.7 24 24l0 72 64 0 0-72c0-13.3 10.7-24 24-24zM48 496l48 0 0-64-48 0 0 64zm96 0l96 0 0-64-96 0 0 64zm144 0l48 0 0-64-48 0 0 64zM112 384l160 0 0-272-160 0 0 272z"/></svg>