<svg xmlns="http://www.w3.org/2000/svg" viewBox="0 0 576 512"><path fill="currentColor" d="M288-32a56 56 0 1 1 0 112 56 56 0 1 1 0-112zM256 320l64 0 0-152.9c-9.9-4.6-20.8-7.1-32-7.1s-22.1 2.5-32 7.1L256 320zm0 48l0 80-48 0 0-230.4-60.5 84.4c-7.7 10.8-22.7 13.3-33.5 5.5s-13.2-22.7-5.5-33.5l79.2-110.5C210.8 131.2 248.2 112 288 112s77.2 19.2 100.3 51.5L467.5 274c7.7 10.8 5.2 25.8-5.5 33.5s-25.8 5.2-33.5-5.5l-60.5-84.4 0 230.4-48 0 0-80-64 0zM208 496l216 0c13.3 0 24 10.7 24 24s-10.7 24-24 24l-272 0c-13.3 0-24-10.7-24-24s10.7-24 24-24l56 0zM64 96l25.4 7.3c3.9 1.1 6.6 4.7 6.6 8.7s-2.7 7.6-6.6 8.7L64 128 56.7 153.4c-1.1 3.9-4.7 6.6-8.7 6.6s-7.6-2.7-8.7-6.6L32 128 6.6 120.7C2.7 119.6 0 116.1 0 112s2.7-7.6 6.6-8.7L32 96 39.3 70.6C40.4 66.7 43.9 64 48 64s7.6 2.7 8.7 6.6L64 96zM536.7 6.6L544 32 569.4 39.3c3.9 1.1 6.6 4.7 6.6 8.7s-2.7 7.6-6.6 8.7L544 64 536.7 89.4c-1.1 3.9-4.7 6.6-8.7 6.6s-7.6-2.7-8.7-6.6L512 64 486.6 56.7c-3.9-1.1-6.6-4.7-6.6-8.7s2.7-7.6 6.6-8.7L512 32 519.3 6.6C520.4 2.7 523.9 0 528 0s7.6 2.7 8.7 6.6z"/></svg>