<svg xmlns="http://www.w3.org/2000/svg" viewBox="0 0 576 512"><path fill="currentColor" d="M536.7 38.6L544 64 569.4 71.3c3.9 1.1 6.6 4.7 6.6 8.7s-2.7 7.6-6.6 8.7L544 96 536.7 121.4c-1.1 3.9-4.7 6.6-8.7 6.6s-7.6-2.7-8.7-6.6L512 96 486.6 88.7c-3.9-1.1-6.6-4.7-6.6-8.7s2.7-7.6 6.6-8.7L512 64 519.3 38.6c1.1-3.9 4.7-6.6 8.7-6.6s7.6 2.7 8.7 6.6zM64 288l25.4 7.3c3.9 1.1 6.6 4.7 6.6 8.7s-2.7 7.6-6.6 8.7L64 320 56.7 345.4c-1.1 3.9-4.7 6.6-8.7 6.6s-7.6-2.7-8.7-6.6L32 320 6.6 312.7C2.7 311.6 0 308.1 0 304s2.7-7.6 6.6-8.7L32 288 39.3 262.6c1.1-3.9 4.7-6.6 8.7-6.6s7.6 2.7 8.7 6.6L64 288zm64 232c0-13.3 10.7-24 24-24l272 0c13.3 0 24 10.7 24 24s-10.7 24-24 24l-272 0c-13.3 0-24-10.7-24-24z"/></svg>