<svg xmlns="http://www.w3.org/2000/svg" viewBox="0 0 576 512"><path fill="currentColor" d="M136-32c13.3 0 24 10.7 24 24s-10.7 24-24 24L81.9 16 128 62.1 143 47c9.4-9.4 24.6-9.4 33.9 0s9.4 24.6 0 33.9l-15 15 22.2 22.2C212.1 94.4 248.4 80 288 80s75.9 14.4 103.8 38.2L494.1 16 440 16c-13.3 0-24-10.7-24-24s10.7-24 24-24l112 0c13.3 0 24 10.7 24 24l0 112c0 13.3-10.7 24-24 24s-24-10.7-24-24l0-54.1-104.7 104.7c15.6 24.7 24.7 54 24.7 85.4 0 80.2-59 146.6-136 158.2l0 33.8 40 0c13.3 0 24 10.7 24 24s-10.7 24-24 24l-40 0 0 40c0 13.3-10.7 24-24 24s-24-10.7-24-24l0-40-40 0c-13.3 0-24-10.7-24-24s10.7-24 24-24l40 0 0-33.8c-77-11.6-136-78-136-158.2 0-31.4 9-60.7 24.7-85.4l-24.7-24.7-15 15c-9.4 9.4-24.6 9.4-33.9 0s-9.4-24.6 0-33.9L94.1 96 48 49.9 48 104c0 13.3-10.7 24-24 24S0 117.3 0 104L0-8C0-21.3 10.7-32 24-32l112 0zM288 352a112 112 0 1 0 0-224 112 112 0 1 0 0 224z"/></svg>