<svg xmlns="http://www.w3.org/2000/svg" viewBox="0 0 576 512"><path fill="currentColor" d="M240-32c-8.8 0-16 7.2-16 16s7.2 16 16 16l96 0c8.8 0 16-7.2 16-16s-7.2-16-16-16l-96 0zM144 224c-8.8 0-16 7.2-16 16s7.2 16 16 16l288 0c8.8 0 16-7.2 16-16s-7.2-16-16-16l-288 0zm8 272c-13.3 0-24 10.7-24 24s10.7 24 24 24l272 0c13.3 0 24-10.7 24-24s-10.7-24-24-24l-272 0zM64 32L56.7 6.6C55.6 2.7 52.1 0 48 0s-7.6 2.7-8.7 6.6L32 32 6.6 39.3C2.7 40.4 0 43.9 0 48s2.7 7.6 6.6 8.7L32 64 39.3 89.4C40.4 93.3 43.9 96 48 96s7.6-2.7 8.7-6.6L64 64 89.4 56.7C93.3 55.6 96 52.1 96 48s-2.7-7.6-6.6-8.7L64 32zM536.7 358.6c-1.1-3.9-4.7-6.6-8.7-6.6s-7.6 2.7-8.7 6.6l-7.3 25.4-25.4 7.3c-3.9 1.1-6.6 4.7-6.6 8.7s2.7 7.6 6.6 8.7l25.4 7.3 7.3 25.4c1.1 3.9 4.7 6.6 8.7 6.6s7.6-2.7 8.7-6.6l7.3-25.4 25.4-7.3c3.9-1.1 6.6-4.7 6.6-8.7s-2.7-7.6-6.6-8.7l-25.4-7.3-7.3-25.4z"/></svg>