<svg xmlns="http://www.w3.org/2000/svg" viewBox="0 0 576 512"><path fill="currentColor" d="M198.2-16l115.6 0c13.3 0 25.3 8.3 30 20.8L360 48 456 48c13.3 0 24 10.7 24 24s-10.7 24-24 24L56 96C42.7 96 32 85.3 32 72S42.7 48 56 48l96 0 16.2-43.2c4.7-12.5 16.6-20.8 30-20.8zM64 144l48 0 0 304c0 8.8 7.2 16 16 16l122.9 0c6.1 17.3 14.6 33.4 25.1 48l-148 0c-35.3 0-64-28.7-64-64l0-304zm384 0l0 64.7c-5.3-.4-10.6-.7-16-.7-10.9 0-21.6 .9-32 2.7l0-66.7 48 0zM336 216l0 17.7c-18.1 10.5-34.3 23.8-48 39.3l0-57c0-13.3 10.7-24 24-24s24 10.7 24 24zm-112 0l0 176c0 13.3-10.7 24-24 24s-24-10.7-24-24l0-176c0-13.3 10.7-24 24-24s24 10.7 24 24zm64 184a144 144 0 1 1 288 0 144 144 0 1 1 -288 0zm144-80c-8.8 0-16 7.2-16 16l0 64c0 8.8 7.2 16 16 16l48 0c8.8 0 16-7.2 16-16s-7.2-16-16-16l-32 0 0-48c0-8.8-7.2-16-16-16z"/></svg>