<svg xmlns="http://www.w3.org/2000/svg" viewBox="0 0 576 512"><path fill="currentColor" d="M168.2 4.8c4.7-12.5 16.6-20.8 30-20.8l115.6 0c13.3 0 25.3 8.3 30 20.8L360 48 456 48c13.3 0 24 10.7 24 24s-10.7 24-24 24L56 96C42.7 96 32 85.3 32 72S42.7 48 56 48l96 0 16.2-43.2zm-84.6 448l-22.9-308.7 48.1 0 22.6 305.2c.6 8.4 7.6 14.8 16 14.8l103.5 0c6.1 17.3 14.6 33.4 25.1 48l-128.6 0c-33.5 0-61.3-25.9-63.8-59.3zM432 208c-11.5 0-22.9 1-33.8 3l5-67 48.1 0-4.8 64.5c-4.8-.4-9.6-.5-14.5-.5zM288 400a144 144 0 1 1 288 0 144 144 0 1 1 -288 0zm144-80c-8.8 0-16 7.2-16 16l0 64c0 8.8 7.2 16 16 16l48 0c8.8 0 16-7.2 16-16s-7.2-16-16-16l-32 0 0-48c0-8.8-7.2-16-16-16z"/></svg>