<svg xmlns="http://www.w3.org/2000/svg" viewBox="0 0 640 512"><path fill="currentColor" d="M166.2-16c-13.3 0-25.3 8.3-30 20.8L120 48 56 48C42.7 48 32 58.7 32 72S42.7 96 56 96l368 0c13.3 0 24-10.7 24-24s-10.7-24-24-24l-64 0-16.2-43.2C339.1-7.7 327.2-16 313.8-16L166.2-16zM60.7 144L83.6 452.7c2.5 33.4 30.3 59.3 63.8 59.3l185.1 0c33.5 0 61.3-25.9 63.8-59.3l22.9-308.7-48.1 0-22.6 305.2c-.6 8.4-7.6 14.8-16 14.8l-185.1 0c-8.4 0-15.3-6.5-16-14.8L108.9 144 60.7 144zM504 128c-13.3 0-24 10.7-24 24s10.7 24 24 24l112 0c13.3 0 24-10.7 24-24s-10.7-24-24-24l-112 0zm0 128c-13.3 0-24 10.7-24 24s10.7 24 24 24l80 0c13.3 0 24-10.7 24-24s-10.7-24-24-24l-80 0zM480 408c0 13.3 10.7 24 24 24l16 0c13.3 0 24-10.7 24-24s-10.7-24-24-24l-16 0c-13.3 0-24 10.7-24 24z"/></svg>