<svg xmlns="http://www.w3.org/2000/svg" viewBox="0 0 640 512"><path fill="currentColor" d="M166.2-16c-13.3 0-25.3 8.3-30 20.8L120 48 56 48C42.7 48 32 58.7 32 72S42.7 96 56 96l368 0c13.3 0 24-10.7 24-24s-10.7-24-24-24l-64 0-16.2-43.2C339.1-7.7 327.2-16 313.8-16L166.2-16zM64 144l0 304c0 35.3 28.7 64 64 64l224 0c35.3 0 64-28.7 64-64l0-304-48 0 0 304c0 8.8-7.2 16-16 16l-224 0c-8.8 0-16-7.2-16-16l0-304-48 0zm440-16c-13.3 0-24 10.7-24 24s10.7 24 24 24l112 0c13.3 0 24-10.7 24-24s-10.7-24-24-24l-112 0zM480 280c0 13.3 10.7 24 24 24l80 0c13.3 0 24-10.7 24-24s-10.7-24-24-24l-80 0c-13.3 0-24 10.7-24 24zm24 104c-13.3 0-24 10.7-24 24s10.7 24 24 24l16 0c13.3 0 24-10.7 24-24s-10.7-24-24-24l-16 0zM184 192c-13.3 0-24 10.7-24 24l0 176c0 13.3 10.7 24 24 24s24-10.7 24-24l0-176c0-13.3-10.7-24-24-24zm136 24c0-13.3-10.7-24-24-24s-24 10.7-24 24l0 176c0 13.3 10.7 24 24 24s24-10.7 24-24l0-176z"/></svg>