<svg xmlns="http://www.w3.org/2000/svg" viewBox="0 0 448 512"><path fill="currentColor" d="M136.2 4.8c4.7-12.5 16.6-20.8 30-20.8l115.6 0c13.3 0 25.3 8.3 30 20.8L328 48 424 48c13.3 0 24 10.7 24 24s-10.7 24-24 24L24 96C10.7 96 0 85.3 0 72S10.7 48 24 48l96 0 16.2-43.2zm-84.6 448L28.7 144 76.9 144 99.5 449.2c.6 8.4 7.6 14.8 16 14.8l217.1 0c8.4 0 15.3-6.5 16-14.8l22.6-305.2 48.1 0-22.9 308.7c-2.5 33.4-30.3 59.3-63.8 59.3l-217.1 0c-33.5 0-61.3-25.9-63.8-59.3zM225 191c9.4 9.4 9.4 24.6 0 33.9l-23 23 30.1 0c48.6 0 88 39.4 88 88l0 24c0 13.3-10.7 24-24 24s-24-10.7-24-24l0-24c0-22.1-17.9-40-40-40l-30.1 0 23 23c9.4 9.4 9.4 24.6 0 33.9s-24.6 9.4-33.9 0l-64-64c-9.4-9.4-9.4-24.6 0-33.9l64-64c9.4-9.4 24.6-9.4 33.9 0z"/></svg>