<svg xmlns="http://www.w3.org/2000/svg" viewBox="0 0 448 512"><path fill="currentColor" d="M166.2-16c-13.3 0-25.3 8.3-30 20.8L120 48 24 48C10.7 48 0 58.7 0 72S10.7 96 24 96l400 0c13.3 0 24-10.7 24-24s-10.7-24-24-24l-96 0-16.2-43.2C307.1-7.7 295.2-16 281.8-16L166.2-16zM28.7 144L51.6 452.7c2.5 33.4 30.3 59.3 63.8 59.3l217.1 0c33.5 0 61.3-25.9 63.8-59.3l22.9-308.7-48.1 0-22.6 305.2c-.6 8.4-7.6 14.8-16 14.8l-217.1 0c-8.4 0-15.3-6.5-16-14.8L76.9 144 28.7 144zM224 192c-13.3 0-24 10.7-24 24l0 48-48 0c-13.3 0-24 10.7-24 24s10.7 24 24 24l48 0 0 48c0 13.3 10.7 24 24 24s24-10.7 24-24l0-48 48 0c13.3 0 24-10.7 24-24s-10.7-24-24-24l-48 0 0-48c0-13.3-10.7-24-24-24z"/></svg>