<svg xmlns="http://www.w3.org/2000/svg" viewBox="0 0 448 512"><path fill="currentColor" d="M80 448c0 8.8 7.2 16 16 16l256 0c8.8 0 16-7.2 16-16l0-304 48 0 0 304c0 35.3-28.7 64-64 64L96 512c-35.3 0-64-28.7-64-64l0-304 48 0 0 304zM260.7 223.9c7.8-10.7 22.8-13.1 33.5-5.3s13.1 22.8 5.3 33.5L223.4 356.8c-4.2 5.7-10.7 9.3-17.8 9.8-7.1 .5-14-2.2-18.9-7.3l-35.9-37.2c-9.2-9.5-8.9-24.7 .6-33.9 9.5-9.2 24.7-9 33.9 .6l16.1 16.6 59.3-81.6zM281.8-16c13.3 0 25.3 8.3 30 20.8L328 48 424 48c13.3 0 24 10.7 24 24s-10.7 24-24 24L24 96C10.7 96 0 85.3 0 72S10.7 48 24 48l96 0 16.2-43.2c4.7-12.5 16.6-20.8 30-20.8l115.6 0z"/></svg>