<svg xmlns="http://www.w3.org/2000/svg" viewBox="0 0 576 512"><path fill="currentColor" d="M41-24.9c-9.4-9.4-24.6-9.4-33.9 0S-2.3-.3 7 9.1l528 528c9.4 9.4 24.6 9.4 33.9 0s9.4-24.6 0-33.9L464.4 398.6 483.3 144 435.1 144 419.6 353.7 161.8 96 488 96c13.3 0 24-10.7 24-24s-10.7-24-24-24l-96 0-16.2-43.2C371.1-7.7 359.2-16 345.8-16L230.2-16c-13.3 0-25.3 8.3-30 20.8L184 48 113.8 48 41-24.9zM394.2 464l-214.7 0c-8.4 0-15.3-6.5-16-14.8l-17.3-233.2-52-52 21.4 288.7c2.5 33.4 30.3 59.3 63.8 59.3l217.1 0c12.9 0 25-3.8 35.1-10.5L394.2 464z"/></svg>