<svg xmlns="http://www.w3.org/2000/svg" viewBox="0 0 576 512"><path fill="currentColor" d="M41-24.9c-9.4-9.4-24.6-9.4-33.9 0S-2.3-.3 7 9.1l528 528c9.4 9.4 24.6 9.4 33.9 0s9.4-24.6 0-33.9l-89-89 0-270.2-48 0 0 222.2-64-64 0-86.2c0-13.3-10.7-24-24-24s-24 10.7-24 24L320 254.2 161.8 96 488 96c13.3 0 24-10.7 24-24s-10.7-24-24-24l-96 0-16.2-43.2C371.1-7.7 359.2-16 345.8-16L230.2-16c-13.3 0-25.3 8.3-30 20.8L184 48 113.8 48 41-24.9zM208 392c0 13.3 10.7 24 24 24s24-10.7 24-24l0-66.2-48-48 0 114.2zM144 213.8l-48-48 0 282.2c0 35.3 28.7 64 64 64l256 0c7.8 0 15.3-1.4 22.2-4l-44-44-234.2 0c-8.8 0-16-7.2-16-16l0-234.2z"/></svg>