<svg xmlns="http://www.w3.org/2000/svg" viewBox="0 0 448 512"><path fill="currentColor" d="M166.2-16c-13.3 0-25.3 8.3-30 20.8L120 48 24 48C10.7 48 0 58.7 0 72S10.7 96 24 96l400 0c13.3 0 24-10.7 24-24s-10.7-24-24-24l-96 0-16.2-43.2C307.1-7.7 295.2-16 281.8-16L166.2-16zM32 144l0 304c0 35.3 28.7 64 64 64l256 0c35.3 0 64-28.7 64-64l0-304-48 0 0 304c0 8.8-7.2 16-16 16L96 464c-8.8 0-16-7.2-16-16l0-304-48 0zm193 47c-9.4-9.4-24.6-9.4-33.9 0l-64 64c-9.4 9.4-9.4 24.6 0 33.9l64 64c9.4 9.4 24.6 9.4 33.9 0s9.4-24.6 0-33.9l-23-23 30.1 0c22.1 0 40 17.9 40 40l0 24c0 13.3 10.7 24 24 24s24-10.7 24-24l0-24c0-48.6-39.4-88-88-88l-30.1 0 23-23c9.4-9.4 9.4-24.6 0-33.9z"/></svg>