<svg xmlns="http://www.w3.org/2000/svg" viewBox="0 0 512 512"><path fill="currentColor" d="M144 80l224 0 0 168-80 0 0-24c0-17.7-14.3-32-32-32s-32 14.3-32 32l0 24-80 0 0-168zm272 6.7c28.3 12.3 48 40.5 48 73.3l0 88-48 0 0-161.3zM464 296l0 120c0 8.8-7.2 16-16 16l-32 0 0-136 48 0zM368 432l-224 0 0-136 80 0 0 24c0 17.7 14.3 32 32 32s32-14.3 32-32l0-24 80 0 0 136zM96 432l-32 0c-8.8 0-16-7.2-16-16l0-120 48 0 0 136zM48 248l0-88c0-32.8 19.7-61 48-73.3l0 161.3-48 0zM128 32C57.3 32 0 89.3 0 160L0 416c0 35.3 28.7 64 64 64l384 0c35.3 0 64-28.7 64-64l0-256c0-70.7-57.3-128-128-128L128 32z"/></svg>