<svg xmlns="http://www.w3.org/2000/svg" viewBox="0 0 640 512"><path fill="currentColor" d="M432 0c7.1 0 13.9 3.2 18.4 8.6l120 144 2 2.8c4.2 6.8 4.7 15.4 1.3 22.8-4 8.4-12.4 13.8-21.7 13.8l-22.8 0 73.3 88.7c5.9 7.2 7.2 17.1 3.2 25.5S593.3 320 584 320l-24.6 0 74.9 88.5c6 7.1 7.4 17.1 3.5 25.6S625.3 448 616 448l-160 0 0 40c0 13.3-10.7 24-24 24s-24-10.7-24-24l0-40-176 0 0 40c0 13.3-10.7 24-24 24s-24-10.7-24-24l0-40-160 0c-9.3 0-17.8-5.4-21.8-13.9s-2.6-18.5 3.5-25.6L80.6 320 56 320c-9.3 0-17.8-5.4-21.7-13.8s-2.7-18.3 3.2-25.5L110.8 192 88 192c-9.3 0-17.8-5.4-21.7-13.8s-2.7-18.4 3.3-25.6l120-144 1.8-1.9c4.4-4.3 10.4-6.7 16.6-6.7 7.1 0 13.9 3.2 18.4 8.6l120 144 2 2.8c4.2 6.8 4.7 15.4 1.3 22.8-3.9 8.4-12.4 13.8-21.7 13.8l-22.8 0 73.3 88.7c5.9 7.2 7.2 17.1 3.2 25.5S369.3 320 360 320l-24.6 0 67.7 80 161.1 0-74.9-88.5c-6-7.1-7.4-17.1-3.5-25.6S498.3 272 507.7 272l25.4 0-73.3-88.7c-5.9-7.2-7.2-17.1-3.2-25.5S469 144 478.2 144l22.5 0-68.8-82.5-49.5 59.4-31.3-37.5 62.3-74.8 1.8-1.9C419.8 2.4 425.8 0 432 0zM139.2 144l22.5 0c9.3 0 17.8 5.4 21.7 13.8s2.7 18.3-3.2 25.5l-73.3 88.7 25.4 0c9.3 0 17.9 5.4 21.8 13.9s2.6 18.5-3.5 25.6l-74.9 88.5 264.5 0-74.9-88.5c-6-7.1-7.4-17.1-3.5-25.6S274.3 272 283.7 272l25.4 0-73.3-88.7c-5.9-7.2-7.2-17.1-3.2-25.5S245 144 254.2 144l22.5 0-68.8-82.5-68.8 82.5z"/></svg>