<svg xmlns="http://www.w3.org/2000/svg" viewBox="0 0 512 512"><path fill="currentColor" d="M256 0c7.2 0 14 3.2 18.6 8.8l144 176c5.9 7.2 7.1 17.1 3.1 25.5S409.3 224 400 224l-23.4 0 74.5 97.4c5.5 7.3 6.5 17 2.5 25.2S441.1 360 432 360l-30.5 0 89.3 113.1c5.7 7.2 6.8 17.1 2.8 25.3S481.2 512 472 512L40 512c-9.2 0-17.6-5.3-21.6-13.5s-2.9-18.1 2.8-25.3L110.5 360 80 360c-9.1 0-17.5-5.2-21.5-13.4s-3.1-18 2.5-25.2l74.5-97.4-23.4 0c-9.3 0-17.7-5.3-21.7-13.7s-2.7-18.3 3.1-25.5l144-176 1.8-2C243.7 2.5 249.7 0 256 0zM162.6 176l21.4 0c9.1 0 17.5 5.2 21.5 13.4 3.5 7.2 3.2 15.5-.6 22.4l-1.9 2.8-74.5 97.4 31.4 0c9.2 0 17.6 5.3 21.6 13.5s2.9 18.1-2.8 25.3L89.5 464 422.5 464 333.2 350.9c-5.7-7.2-6.8-17.1-2.7-25.3S342.8 312 352 312l31.4 0-74.5-97.4c-5.5-7.2-6.5-17-2.5-25.2 4-8.2 12.4-13.4 21.5-13.4L349.4 176 256 61.9 162.6 176z"/></svg>