<svg xmlns="http://www.w3.org/2000/svg" viewBox="0 0 512 512"><path fill="currentColor" d="M418.6 184.8c5.9 7.2 7.1 17.1 3.1 25.5S409.3 224 400 224l-23.4 0 74.5 97.4c5.5 7.3 6.5 17 2.5 25.2-4 8.2-12.4 13.4-21.5 13.4l-30.5 0 89.3 113.1c5.7 7.2 6.8 17.1 2.7 25.3S481.2 512 472 512L40 512c-9.2 0-17.6-5.3-21.6-13.5s-2.9-18.1 2.7-25.3L110.5 360 80 360c-9.1 0-17.5-5.2-21.5-13.4s-3.1-18 2.5-25.2l74.5-97.4-23.4 0c-9.3 0-17.7-5.3-21.7-13.7s-2.7-18.3 3.1-25.5l88.8-108.6 9.8 3.7 10 26.7 1.7 4.1c1.4 3.1 3.2 6 5.1 8.7L162.6 176 184 176c9.1 0 17.5 5.2 21.5 13.4 3.5 7.2 3.2 15.5-.6 22.4l-1.9 2.8-74.5 97.4 31.4 0c9.2 0 17.6 5.3 21.6 13.5s2.9 18.1-2.8 25.3L89.5 464 422.5 464 333.2 350.9c-5.7-7.2-6.8-17.1-2.7-25.3S342.8 312 352 312l31.4 0-74.5-97.4c-5.5-7.2-6.5-17-2.5-25.2S318.9 176 328 176l21.4 0-46.2-56.5c2.8-3.9 5.1-8.2 6.8-12.8l10-26.7 9.8-3.7 88.8 108.6zM296 416a24 24 0 1 1 0-48 24 24 0 1 1 0 48zM232 288a24 24 0 1 1 0-48 24 24 0 1 1 0 48zM256-64c4 0 7.6 2.5 9 6.2L282.7-10.7 329.8 7c3.8 1.4 6.2 5 6.2 9s-2.5 7.6-6.2 9L282.7 42.7 265 89.8c-1.4 3.8-5 6.2-9 6.2s-7.6-2.5-9-6.2L229.3 42.7 182.2 25c-3.7-1.4-6.2-5-6.2-9s2.5-7.6 6.2-9L229.3-10.7 247-57.8c1.4-3.8 5-6.2 9-6.2z"/></svg>