<svg xmlns="http://www.w3.org/2000/svg" viewBox="0 0 512 512"><path fill="currentColor" d="M256 0c46.5 0 86.5 26.5 106.5 65 4.4-.6 8.9-1 13.5-1 57.4 0 104 46.6 104 104 0 17.1-4.2 33.2-11.6 47.4 26.5 20.5 43.6 52.5 43.6 88.6 0 61.9-50.1 112-112 112l-120 0 0 104c0 13.3-10.7 24-24 24s-24-10.7-24-24l0-104-120 0c-61.9 0-112-50.1-112-112 0-36.1 17.1-68.1 43.5-88.6-7.3-14.2-11.5-30.3-11.5-47.4 0-57.4 46.6-104 104-104 4.6 0 9.1 .4 13.5 1 19.9-38.6 60.1-65 106.5-65zm0 48c-32.7 0-60.4 21.8-69.1 51.8-1.9 6.4-6.3 11.7-12.2 14.7s-12.9 3.4-19.2 1.1c-6.2-2.3-12.7-3.6-19.5-3.6-30.9 0-56 25.1-56 56 0 14.8 5.8 28.3 15.3 38.4l1.9 2.2c4 5.5 5.5 12.5 4.1 19.2-1.6 7.7-6.9 14.1-14.2 17.2-23.1 9.7-39.2 32.5-39.2 59 0 35.3 28.7 64 64 64l120 0 0-120c0-13.3 10.7-24 24-24s24 10.7 24 24l0 120 120 0c35.3 0 64-28.7 64-64 0-26.5-16.1-49.3-39.2-59-7.2-3.1-12.5-9.5-14.2-17.2-1.6-7.7 .6-15.7 6-21.4 9.6-10.1 15.3-23.6 15.3-38.4 0-30.9-25.1-56-56-56-6.8 0-13.3 1.3-19.5 3.6-6.2 2.3-13.2 1.9-19.1-1.1s-10.4-8.3-12.3-14.7C316.3 69.8 288.7 48 256 48z"/></svg>