<svg xmlns="http://www.w3.org/2000/svg" viewBox="0 0 576 512"><path fill="currentColor" d="M103 91.4l30.3 50.5c-4 3.5-8 7.2-12 11.2-71 71-60.2 151-32.7 191.3 5 7.3 15.2 7.3 21.4 1L236.1 219.3c2.3 9.3 4.3 20.3 5.6 32.9 4.9 46.6 .5 115.1-26.4 208.3-7.3 25.3 11.3 51.5 38.5 51.5l84.1 0c20 0 37.6-15 39.6-35.7 9.2-95.5-5.9-202-34.3-284.3l103.5 0c2.8 0 5.4-1.5 6.9-3.9l19.6-32.7c3.1-5.2 10.6-5.2 13.7 0l19.6 32.7c1.4 2.4 4.1 3.9 6.9 3.9l46.7 0C569 192 576.2 184.8 574.6 176.1 565.5 128.2 516.5 64 416.2 64 372.5 64 338.6 76.2 313.4 93.8 296.7 49.4 248.2 0 160.2 0 59.8 0 10.8 64.2 1.7 112.1 .1 120.8 7.3 128 16.2 128l46.7 0c2.8 0 5.4-1.5 6.9-3.9L89.3 91.4c3.1-5.2 10.6-5.2 13.7 0zM292.2 192c28.6 74.1 46 177.9 38.3 272l-66.2 0c25.8-92.9 30.7-164.5 25.2-216.8-2.2-21.5-6.2-39.9-11.4-55.2l14.1 0z"/></svg>