<svg xmlns="http://www.w3.org/2000/svg" viewBox="0 0 512 512"><path fill="currentColor" d="M256 0c7 0 13.7 3.1 18.2 8.4l144 168c6.1 7.1 7.5 17.1 3.6 25.7s-12.4 14-21.8 14l-25 0 76.5 105.9c5.3 7.3 6 17 1.9 25S441 360 432 360l-30.5 0 89.3 113.1c5.7 7.2 6.8 17.1 2.8 25.3S481.2 512 472 512L40 512c-9.2 0-17.6-5.3-21.6-13.5s-2.9-18.1 2.8-25.3L110.5 360 80 360c-9 0-17.3-5-21.4-13.1s-3.4-17.7 1.9-25L137 216 112 216c-9.4 0-17.9-5.5-21.8-14s-2.5-18.5 3.6-25.7l144-168 1.8-1.9C244 2.4 249.9 0 256 0zM164.2 168l19.8 0c9 0 17.3 5 21.4 13.1s3.4 17.7-1.9 25L127 312 160 312c9.2 0 17.6 5.3 21.6 13.5s2.9 18.1-2.8 25.3L89.5 464 422.5 464 333.2 350.9c-5.7-7.2-6.8-17.1-2.7-25.3S342.8 312 352 312l33 0-76.5-105.9c-5.3-7.3-6-17-1.9-25S319 168 328 168L347.8 168 256 60.9 164.2 168zM296 416a24 24 0 1 1 0-48 24 24 0 1 1 0 48zM232 288a24 24 0 1 1 0-48 24 24 0 1 1 0 48zm24-104a24 24 0 1 1 0-48 24 24 0 1 1 0 48z"/></svg>