<svg xmlns="http://www.w3.org/2000/svg" viewBox="0 0 512 512"><path fill="currentColor" d="M280-8c0-13.3-10.7-24-24-24S232-21.3 232-8l0 32c-4.4 3.3-8.1 7.5-10.9 12.4l-216 384c-7 12.4-6.8 27.5 .3 39.8S25.8 480 40 480l432 0c14.2 0 27.4-7.5 34.5-19.8s7.3-27.4 .3-39.8l-95.6-169.9-35.2 35.2 82.3 146.2-404.6 0 202.3-359.7 71.2 126.6-52.4 52.4c-5.9-2.1-12.2-3.2-18.8-3.2-30.9 0-56 25.1-56 56s25.1 56 56 56 56-25.1 56-56c0-6.6-1.1-12.9-3.2-18.8L505 89c9.4-9.4 9.4-24.6 0-33.9s-24.6-9.4-33.9 0L362.4 163.6 290.9 36.4c-2.8-4.9-6.5-9.1-10.9-12.4l0-32z"/></svg>