<svg xmlns="http://www.w3.org/2000/svg" viewBox="0 0 512 512"><path fill="currentColor" d="M188.3 176L323.7 176 256 63.1 188.3 176zM256 0c11.2 0 21.7 5.9 27.4 15.5l96 160c5.9 9.9 6.1 22.2 .4 32.2S363.5 224 352 224l-192 0c-11.5 0-22.2-6.2-27.8-16.2s-5.5-22.3 .4-32.2l96-160C234.3 5.9 244.8 0 256 0zM128 448a64 64 0 1 0 0-128 64 64 0 1 0 0 128zm0-176a112 112 0 1 1 0 224 112 112 0 1 1 0-224zM336 432l96 0 0-96-96 0 0 96zm-8-144l112 0c22.1 0 40 17.9 40 40l0 112c0 22.1-17.9 40-40 40l-112 0c-22.1 0-40-17.9-40-40l0-112c0-22.1 17.9-40 40-40z"/></svg>