<svg xmlns="http://www.w3.org/2000/svg" viewBox="0 0 512 512"><path fill="currentColor" d="M312 32c-13.3 0-24 10.7-24 24s10.7 24 24 24l43.5 0c6.9 0 12.5 5.6 12.5 12.5 0 4.2-2.1 8.1-5.6 10.4l-190.9 127.2-36.1-54.1 .5 0c13.3 0 24-10.7 24-24s-10.7-24-24-24l-80 0c-13.3 0-24 10.7-24 24s10.7 24 24 24l21.8 0 53.8 80.7-1.2 .8c-6-1-12.2-1.5-18.5-1.5-61.9 0-112 50.1-112 112s50.1 112 112 112 112-50.1 112-112c0-35.3-16.3-66.8-41.8-87.3l125-83.3 14.3 42.9C282.4 262.2 256 304 256 352 256 422.7 313.3 480 384 480s128-57.3 128-128-57.3-128-128-128c-5.8 0-11.4 .4-17 1.1l-18.4-55.3 40.5-27c16.8-11.2 26.9-30.1 26.9-50.3 0-33.4-27.1-60.5-60.5-60.5L312 32zm25.1 255.2l24.1 72.4c4.2 12.6 17.8 19.4 30.4 15.2S411 357 406.8 344.4L382.6 272c.5 0 .9 0 1.4 0 44.2 0 80 35.8 80 80s-35.8 80-80 80-80-35.8-80-80c0-26.7 13-50.3 33.1-64.8zM112 304a64 64 0 1 1 0 128 64 64 0 1 1 0-128z"/></svg>