<svg xmlns="http://www.w3.org/2000/svg" viewBox="0 0 640 512"><path fill="currentColor" d="M288 88c0-13.3 10.7-24 24-24l48 0c7.8 0 15.1 3.8 19.6 10.2L511.5 261.6c10.1-3.6 21.1-5.6 32.5-5.6 53 0 96 43 96 96s-43 96-96 96-96-43-96-96c0-24.3 9-46.4 23.9-63.3l-19.2-27.3-64.9 64.9c-16.5 16.5-38.9 25.8-62.2 25.8l-102.6 0c-7.8 54.3-54.4 96-110.9 96-61.9 0-112-50.1-112-112 0-48.3 30.6-89.5 73.5-105.2-1.2-2.6-2.3-5.3-3.2-8L49.2 159.6C45 147 51.8 133.4 64.4 129.2s26.2 2.6 30.4 15.2l21.1 63.2c3.3 9.8 12.4 16.4 22.8 16.4l61.4 0c13.3 0 24 10.7 24 24 0 12-8.8 21.9-20.3 23.7 6.8 9.7 12.2 20.6 15.6 32.3l106.1 0c10.6 0 20.8-4.2 28.3-11.7l70.8-70.8-77-109.5-35.5 0c-13.3 0-24-10.7-24-24zM176 336a64 64 0 1 0 -128 0 64 64 0 1 0 128 0zm368 64a48 48 0 1 0 0-96 48 48 0 1 0 0 96z"/></svg>