<svg xmlns="http://www.w3.org/2000/svg" viewBox="0 0 512 512"><path fill="currentColor" d="M232.8-11.1c13.8-10.7 33-10.7 46.8 0l2.9 2.4 11.4 11.1c12.8 13 29.4 31.4 44.3 53 5.3 7.7 10.5 16.1 15.3 25 13-.8 25.7-.5 37.6 .4 26.2 2 50.4 7.2 68.1 11.8L474.4 97c19.5 5.9 30.9 25.7 26.3 45.5l-3.9 15.4c-4.8 17.6-12.5 41.1-23.8 64.8-4.6 9.5-9.9 19.4-16.1 29 6.1 9.7 11.5 19.5 16.1 29.1 15.1 31.6 23.7 63 27.7 80.2l.7 3.7c2.3 17.3-7.3 33.9-23.4 40.6l-3.6 1.3c-16.9 5.1-48.4 13.4-83.3 16.1-12 .9-24.8 1.2-37.9 .4-4.8 8.9-10 17.3-15.3 25.1-19.8 28.9-42.7 52-55.6 64.1l-2.9 2.4c-13.8 10.7-33 10.6-46.8 0l-2.9-2.4-11.4-11.1c-12.8-12.9-29.4-31.4-44.3-53-5.3-7.8-10.5-16.2-15.3-25.1-13 .8-25.7 .6-37.6-.3-26.2-2-50.4-7.2-68.1-11.8l-15.2-4.3c-19.5-5.9-30.9-25.7-26.3-45.5l3.9-15.4c4.8-17.6 12.5-41.1 23.8-64.8 4.6-9.5 9.9-19.4 16.1-29.1-6.2-9.6-11.5-19.5-16.1-29-15.1-31.6-23.7-63-27.7-80.2l-.7-3.7C8.5 121.6 18.1 105 34.3 98.3L37.8 97c16.9-5.1 48.4-13.4 83.3-16.1 12-.9 24.8-1.2 37.8-.4 4.8-8.9 10.1-17.3 15.4-25.1 19.8-28.9 42.7-52 55.6-64.1l2.9-2.4zm23.3 394.9c-5.4 5.4-11.3 10.5-17.8 14.9l-7.5 4.7c-7.1 4.1-14.5 7.3-22.1 10 1.6 2.5 3.3 5.1 5 7.6 14.2 20.7 30.6 38.3 42.3 49.9 11.8-11.6 28.1-29.2 42.3-49.9 1.7-2.5 3.4-5.1 5-7.6-5.2-1.9-10.4-4-15.4-6.5l-6.5-3.5c-9.5-5.5-18-12.2-25.4-19.7zm.1-351.1c-11.8 11.6-28.1 29.2-42.3 49.9-17.4 25.4-29.7 52.5-29.7 77.4 0 11.8 2.8 22.9 7.8 32.6 3.8 7.4 3.4 16.3-.9 23.4s-12.1 11.5-20.4 11.5c-10.6 0-21.4 2.4-31.6 7.4l-4.3 2.3c-21.5 12.4-38.9 36.6-52.2 64.4-10.8 22.7-17.8 45.6-22 61.6 15.9 4.4 39.3 9.8 64.3 11.8 30.7 2.4 60.3-.6 81.9-13l4.5-2.8c10.2-7 18.2-16.1 23.5-26.5l1.7-2.8c4.5-6.3 11.8-10.2 19.6-10.2 9 0 17.2 5 21.3 13 6.1 11.9 15.5 22.2 28 29.4l4.1 2.2c21.1 10.6 49 13.1 77.8 10.8 25-2 48.4-7.4 64.3-11.8-4.2-16-11.2-38.9-22-61.6-12.4-26.1-28.5-48.9-48.2-61.9l-4-2.5c-11.3-6.5-23.6-9.6-35.7-9.7-8.3 0-16.1-4.4-20.4-11.5s-4.7-16-.9-23.4c5-9.8 7.8-20.8 7.8-32.6l-.1-4.7c-1.4-23.6-13.2-48.9-29.5-72.7-14.2-20.7-30.6-38.3-42.3-49.9zm0 247.3a40 40 0 1 1 0-80 40 40 0 1 1 0 80zm116-151.9c2.5 10.4 4 21 4 31.9l-.2 7.3c-.3 5.7-1.1 11.2-2.2 16.7 9.5 2.7 18.8 6.5 27.7 11.7l6.2 3.8c5.9 3.9 11.5 8.3 16.7 13 1.8-3.4 3.6-6.8 5.3-10.3 10.8-22.6 17.8-45.6 22-61.6-15.9-4.4-39.3-9.8-64.3-11.8-5.1-.4-10.1-.6-15.1-.7zm-232.1 0c-5 .1-10.1 .3-15.2 .7-25 2-48.4 7.4-64.3 11.8 4.2 16 11.2 38.9 22 61.6 1.7 3.5 3.4 6.9 5.2 10.3 7-6.3 14.7-12 23-16.8l7.2-3.8c6.7-3.3 13.7-5.9 20.7-7.9-1.6-7.7-2.4-15.7-2.4-23.9 0-10.9 1.4-21.5 3.9-31.9z"/></svg>