<svg xmlns="http://www.w3.org/2000/svg" viewBox="0 0 320 512"><path fill="currentColor" d="M145.3 357.4c9.4-7.7 23.3-7.1 32.1 1.7l136 136 1.7 1.8c7.7 9.4 7.1 23.3-1.7 32.1s-22.7 9.3-32.1 1.7l-1.8-1.7-119-119-119 119c-9.4 9.4-24.6 9.4-33.9 0s-9.4-24.6 0-33.9l136-136 1.8-1.7zm0-192c9.4-7.7 23.3-7.1 32.1 1.7l136 136 1.7 1.8c7.7 9.4 7.1 23.3-1.7 32.1s-22.7 9.3-32.1 1.7l-1.8-1.7-119-119-119 119c-9.4 9.4-24.6 9.4-33.9 0s-9.4-24.6 0-33.9l136-136 1.8-1.7zm0-192c9.4-7.7 23.3-7.1 32.1 1.7l136 136 1.7 1.8c7.7 9.4 7.1 23.3-1.7 32.1s-22.7 9.3-32.1 1.7l-1.8-1.7-119-119-119 119c-9.4 9.4-24.6 9.4-33.9 0s-9.4-24.6 0-33.9l136-136 1.8-1.7z"/></svg>