<svg xmlns="http://www.w3.org/2000/svg" viewBox="0 0 320 512"><path fill="currentColor" d="M279 367c9.4-9.4 24.6-9.4 33.9 0 9.4 9.4 9.4 24.6 0 33.9l-136 136-1.8 1.7c-9.4 7.7-23.3 7.1-32.1-1.7L7 401 5.4 399.1c-7.7-9.4-7.1-23.3 1.7-32.1 8.8-8.8 22.7-9.3 32.1-1.7L41 367 160 486 279 367zm0-192c9.4-9.4 24.6-9.4 33.9 0 9.4 9.4 9.4 24.6 0 33.9l-136 136-1.8 1.7c-9.4 7.7-23.3 7.1-32.1-1.7L7 209 5.4 207.1c-7.7-9.4-7.1-23.3 1.7-32.1 8.8-8.8 22.7-9.3 32.1-1.7L41 175 160 294 279 175zm0-192c9.4-9.4 24.6-9.4 33.9 0 9.4 9.4 9.4 24.6 0 33.9l-136 136-1.8 1.7c-9.4 7.7-23.3 7.1-32.1-1.7L7 17 5.4 15.1C-2.3 5.7-1.8-8.2 7-17 15.8-25.8 29.7-26.3 39.2-18.6L41-17 160 102 279-17z"/></svg>