<svg xmlns="http://www.w3.org/2000/svg" viewBox="0 0 576 512"><path fill="currentColor" d="M144.8 101.4c9.4-7.7 23.3-7.1 32.1 1.7 8.8 8.8 9.3 22.7 1.7 32.1L177 137 57.9 256 177 375c9.4 9.4 9.4 24.6 0 33.9s-24.6 9.4-33.9 0L7 273 5.4 271.1C-2.3 261.7-1.8 247.8 7 239l136-136 1.8-1.7zm192 0c9.4-7.7 23.3-7.1 32.1 1.7 8.8 8.8 9.3 22.7 1.7 32.1l-1.7 1.8-119 119 119 119c9.4 9.4 9.4 24.6 0 33.9s-24.6 9.4-33.9 0l-136-136-1.7-1.8c-7.7-9.4-7.1-23.3 1.7-32.1l136-136 1.8-1.7zm192 0c9.4-7.7 23.3-7.1 32.1 1.7 8.8 8.8 9.3 22.7 1.7 32.1l-1.7 1.8-119 119 119 119c9.4 9.4 9.4 24.6 0 33.9s-24.6 9.4-33.9 0l-136-136-1.7-1.8c-7.7-9.4-7.1-23.3 1.7-32.1l136-136 1.8-1.7z"/></svg>