<svg xmlns="http://www.w3.org/2000/svg" viewBox="0 0 576 512"><path fill="currentColor" d="M398.5 35.5L385.9 48 480 142.1 492.5 129.5c12.5-12.5 19.5-29.4 19.5-47 0-36.7-29.8-66.5-66.5-66.5-17.6 0-34.6 7-47 19.5zM352 81.9c-8.6 8.6-21.4 21.4-38.4 38.4-2.6 2.6-5 5.2-7.5 7.8L400 222.1 446.1 176 352 81.9zM366.1 256l-88.7-88.7c-16.7 28.6-27.2 60.6-30.6 94L241 319.1c-2.5 24.6-32.5 35.4-50 17.8L63 209c-17.5-17.5-6.8-47.5 17.8-50l57.8-5.8c53.3-5.3 103.1-28.9 141-66.8 9.2-9.2 37.5-37.5 84.9-84.9 21.5-21.5 50.6-33.5 81-33.5 59.3 0 108.1 45.1 113.9 102.8 .4 3.8 .6 7.8 .6 11.7 0 26.6-9.2 52.2-25.9 72.6-2.4 2.9-4.9 5.7-7.6 8.4-114.6 114.6-232.4 232.4-353.6 353.6-17.2 17.2-40.6 26.9-65 26.9-50.7 0-91.9-41.1-91.9-91.9 0-24.4 9.7-47.7 26.9-65l65.2-65.2 33.9 33.9-65.2 65.2c-8.2 8.2-12.9 19.4-12.9 31 0 24.2 19.6 43.9 43.9 43.9 11.6 0 22.8-4.6 31-12.9L319 303.1c0 0 0 0 0 0l47-47zM143.5 201l-18.7 1.9 72.4 72.4 1.9-18.7c2.5-25.2 8.4-49.7 17.4-73-23.3 9-47.8 14.9-73 17.4z"/></svg>