<svg xmlns="http://www.w3.org/2000/svg" viewBox="0 0 512 512"><path fill="currentColor" d="M176 66.1L176 189.9 71.2 128 176 66.1zM163.7 17.6L35.1 93.6C8.9 109 8.9 147 35.1 162.4l128.5 76c26.7 15.8 60.3-3.5 60.3-34.4l0-52 264 0c13.3 0 24-10.7 24-24s-10.7-24-24-24l-264 0 0-52c0-31-33.7-50.2-60.3-34.4zM288 384l176 0 0 80-208 0 0-80 32 0zm-80 0l0 80-160 0 0-80 160 0zm256-48l-128 0 0-80 128 0 0 80zM288 256l0 80-240 0c-26.5 0-48 21.5-48 48l0 80c0 26.5 21.5 48 48 48l416 0c26.5 0 48-21.5 48-48l0-80c0-1.3-.1-2.7-.2-4 .1-1.3 .2-2.7 .2-4l0-120c0-26.5-21.5-48-48-48l-128 0c-26.5 0-48 21.5-48 48z"/></svg>