<svg xmlns="http://www.w3.org/2000/svg" viewBox="0 0 448 512"><path fill="currentColor" d="M80 80c-17.7 0-32 14.3-32 32l0 118.7c9.8-4.3 20.6-6.7 32-6.7l0-32c0-44.2 35.8-80 80-80l128 0c44.2 0 80 35.8 80 80l0 32c11.4 0 22.2 2.4 32 6.7L400 112c0-17.7-14.3-32-32-32L80 80zm48 144l192 0 0-32c0-17.7-14.3-32-32-32l-128 0c-17.7 0-32 14.3-32 32l0 32zM80 272c-17.7 0-32 14.3-32 32l0 64c0 17.7 14.3 32 32 32l288 0c17.7 0 32-14.3 32-32l0-64c0-17.7-14.3-32-32-32L80 272zM448 112l0 256c0 26.2-12.6 49.4-32 64l0 56c0 13.3-10.7 24-24 24s-24-10.7-24-24l0-40-288 0 0 40c0 13.3-10.7 24-24 24s-24-10.7-24-24l0-56C12.6 417.4 0 394.2 0 368L0 112C0 67.8 35.8 32 80 32l288 0c44.2 0 80 35.8 80 80zM100 336a28 28 0 1 1 56 0 28 28 0 1 1 -56 0zm220-28a28 28 0 1 1 0 56 28 28 0 1 1 0-56z"/></svg>