<svg xmlns="http://www.w3.org/2000/svg" viewBox="0 0 576 512"><path fill="currentColor" d="M384 32c-35.3 0-64 28.7-64 64L320 374.1 17.1 465C4.4 468.8-2.8 482.2 1 494.9S18.2 514.8 30.9 511l316.6-95 52.8 0c-.2 2.6-.4 5.3-.4 8 0 48.6 39.4 88 88 88s88-39.4 88-88-39.4-88-88-88c-27.3 0-51.7 12.5-67.9 32l-52.1 0 0-272c0-8.8 7.2-16 16-16l192 0 0-48-192 0zm64 392a40 40 0 1 1 80 0 40 40 0 1 1 -80 0zM60.5 158.2c-30.7 9.4-49.2 39.7-44.6 70.5 8-6.7 17.4-12 28.1-15.2 37-11.3 75.9 5.5 93.7 38.3L272 210.6 272 93.5 60.5 158.2zm92.7 139l-45.9 14-9.4-30.6c-5.2-16.9-23.1-26.4-40-21.2s-26.4 23.1-21.2 40l18.7 61.2c5.2 16.9 23.1 26.4 40 21.2l176.6-54 0-66.9-118.8 36.3z"/></svg>