<svg xmlns="http://www.w3.org/2000/svg" viewBox="0 0 576 512"><path fill="currentColor" d="M240 160l164 0-55.2-73.6c-3-4-7.8-6.4-12.8-6.4l-96 0 0 80zm-48 0l0-96c0-17.7 14.3-32 32-32l112 0c20.1 0 39.1 9.5 51.2 25.6L464 160 528 160c26.5 0 48 21.5 48 48l0 64c0 16.9-8.7 31.8-21.9 40.3 13.8 20.5 21.9 45.1 21.9 71.7 0 70.7-57.3 128-128 128S320 454.7 320 384c0-23.3 6.2-45.2 17.1-64l-98.2 0c10.9 18.8 17.1 40.7 17.1 64 0 70.7-57.3 128-128 128S0 454.7 0 384C0 357.4 8.1 332.8 21.9 312.3 8.7 303.8 0 288.9 0 272l0-64c0-26.5 21.5-48 48-48l144 0zM510 272l18 0 0-64-480 0 0 64 18 0c18.4-10.2 39.5-16 62-16s43.6 5.8 62 16l196 0c18.4-10.2 39.5-16 62-16s43.6 5.8 62 16zM106.6 461.1c4-7.8 12.1-13.1 21.4-13.1s17.4 5.3 21.4 13.1c6.4-1.8 12.4-4.3 18-7.5-2.7-8.3-.7-17.8 5.9-24.4s16.1-8.6 24.4-5.9c3.2-5.6 5.7-11.6 7.5-18-7.8-4-13.1-12.1-13.1-21.4s5.3-17.4 13.1-21.4c-1.8-6.4-4.3-12.4-7.5-18-8.3 2.7-17.8 .7-24.4-5.9s-8.6-16.1-5.9-24.4c-5.6-3.2-11.6-5.7-18-7.5-4 7.8-12.1 13.1-21.4 13.1s-17.4-5.3-21.4-13.1c-6.4 1.8-12.4 4.3-18 7.5 2.7 8.3 .7 17.8-5.9 24.4s-16.1 8.6-24.4 5.9c-3.2 5.6-5.7 11.7-7.5 18 7.8 4 13.1 12.1 13.1 21.4s-5.3 17.4-13.1 21.4c1.8 6.4 4.3 12.4 7.5 18 8.3-2.7 17.8-.7 24.4 5.9s8.6 16.1 5.9 24.4c5.6 3.2 11.6 5.7 18 7.5zM128 352a32 32 0 1 1 0 64 32 32 0 1 1 0-64zm320 96c9.3 0 17.4 5.3 21.4 13.1 6.4-1.8 12.4-4.3 18-7.5-2.7-8.3-.7-17.8 5.9-24.4s16.1-8.6 24.4-5.9c3.2-5.6 5.7-11.6 7.5-18-7.8-4-13.1-12.1-13.1-21.4s5.3-17.4 13.1-21.4c-1.8-6.4-4.3-12.4-7.5-18-8.3 2.7-17.8 .7-24.4-5.9s-8.6-16.1-5.9-24.4c-5.6-3.2-11.7-5.7-18-7.5-4 7.8-12.1 13.1-21.4 13.1s-17.4-5.3-21.4-13.1c-6.4 1.8-12.4 4.3-18 7.5 2.7 8.3 .7 17.8-5.9 24.4s-16.1 8.6-24.4 5.9c-3.2 5.6-5.7 11.7-7.5 18 7.8 4 13.1 12.1 13.1 21.4s-5.3 17.4-13.1 21.4c1.8 6.4 4.3 12.4 7.5 18 8.3-2.7 17.8-.7 24.4 5.9s8.6 16.1 5.9 24.4c5.6 3.2 11.7 5.7 18 7.5 4-7.8 12.1-13.1 21.4-13.1zm-32-64a32 32 0 1 1 64 0 32 32 0 1 1 -64 0z"/></svg>