<svg xmlns="http://www.w3.org/2000/svg" viewBox="0 0 640 512"><path fill="currentColor" d="M352 80c8.8 0 16 7.2 16 16l0 240-148.1 0c-16.1-19.5-40.6-32-67.9-32s-51.7 12.5-67.9 32L80 336 80 96c0-8.8 7.2-16 16-16l256 0zM32 336c0 21.1 13.7 39.1 32.6 45.5-.4 3.4-.6 7-.6 10.5 0 48.6 39.4 88 88 88s88-39.4 88-88c0-2.7-.1-5.4-.4-8l128.7 0c-.2 2.6-.4 5.3-.4 8 0 48.6 39.4 88 88 88s88-39.4 88-88c0-2.7-.1-5.4-.4-8l16.4 0c26.5 0 48-21.5 48-48l0-80c0-26.5-21.5-48-48-48l-24.3 0-37.1-84.9C487.1 96.9 461.2 80 432.6 80L414 80c-7.1-27.6-32.2-48-62-48L96 32C60.7 32 32 60.7 32 96l0 32c-17.7 0-32 14.3-32 32l0 96c0 17.7 14.3 32 32 32l0 48zm424-32c-14.4 0-28 3.5-40 9.6l0-57.6 144 0 0 80-36.1 0c-16.1-19.5-40.6-32-67.9-32zm27.3-96l-67.3 0 0-80 16.6 0c9.5 0 18.2 5.6 22 14.4L483.3 208zM112 392a40 40 0 1 1 80 0 40 40 0 1 1 -80 0zm344-40a40 40 0 1 1 0 80 40 40 0 1 1 0-80z"/></svg>