<svg xmlns="http://www.w3.org/2000/svg" viewBox="0 0 576 512"><path fill="currentColor" d="M374.8 88.8l51.6 103.2-178.3 0 0-112 112.4 0c6.1 0 11.6 3.4 14.3 8.8zM200 80l0 112-143 0 49-102.9c2.7-5.6 8.3-9.1 14.4-9.1L200 80zM464 240l48 0c8.8 0 16 7.2 16 16l0 64c0 8.8-7.2 16-16 16l-4.1 0c-16.1-19.5-40.6-32-67.9-32s-51.7 12.5-67.9 32l-168.2 0c-16.1-19.5-40.6-32-67.9-32s-51.7 12.5-67.9 32L64 336c-8.8 0-16-7.2-16-16l0-80 416 0zm63.5 142.1C555.3 375.2 576 350 576 320l0-64c0-35.3-28.7-64-64-64l-32 0-62.3-124.6C406.8 45.7 384.7 32 360.4 32l-240 0C95.7 32 73.2 46.2 62.6 68.5L6.2 186.9c-4.1 8.6-6.2 18-6.2 27.5L0 320c0 30 20.7 55.2 48.5 62.1-.4 3.2-.5 6.5-.5 9.9 0 48.6 39.4 88 88 88s88-39.4 88-88c0-2.7-.1-5.4-.4-8l128.7 0c-.2 2.6-.4 5.3-.4 8 0 48.6 39.4 88 88 88s88-39.4 88-88c0-3.3-.2-6.6-.5-9.9zM96 392a40 40 0 1 1 80 0 40 40 0 1 1 -80 0zm344-40a40 40 0 1 1 0 80 40 40 0 1 1 0-80z"/></svg>