<svg xmlns="http://www.w3.org/2000/svg" viewBox="0 0 640 512"><path fill="currentColor" d="M272 192l168 0-62.5-104.2c-2.9-4.8-8.1-7.8-13.7-7.8l-91.8 0 0 112zm-48 0l0-128c0-17.7 14.3-32 32-32l107.8 0c22.5 0 43.3 11.8 54.9 31.1L496 192 560 192c26.5 0 48 21.5 48 48l0 96 8 0c13.3 0 24 10.7 24 24s-10.7 24-24 24l-40.4 0c.2 2.6 .4 5.3 .4 8 0 48.6-39.4 88-88 88s-88-39.4-88-88c0-2.7 .1-5.4 .4-8l-160.7 0c.2 2.6 .4 5.3 .4 8 0 48.6-39.4 88-88 88s-88-39.4-88-88c0-2.7 .1-5.4 .4-8L24 384c-13.3 0-24-10.7-24-24s10.7-24 24-24l8 0 0-96c0-26.5 21.5-48 48-48l144 0zm0 48l-144 0 0 96 4.1 0c16.1-19.5 40.6-32 67.9-32s51.7 12.5 67.9 32l200.2 0c16.1-19.5 40.6-32 67.9-32s51.7 12.5 67.9 32l4.1 0 0-96-336 0zM192 392a40 40 0 1 0 -80 0 40 40 0 1 0 80 0zm296 40a40 40 0 1 0 0-80 40 40 0 1 0 0 80z"/></svg>