<svg xmlns="http://www.w3.org/2000/svg" viewBox="0 0 576 512"><path fill="currentColor" d="M352 80c8.8 0 16 7.2 16 16l0 260.1c-13.6 11.2-23.8 26.5-28.7 43.9l-102.6 0c-10.4-36.9-44.4-64-84.7-64s-74.2 27.1-84.7 64L64 400c-8.8 0-16-7.2-16-16L48 96c0-8.8 7.2-16 16-16l288 0zM64 448l3.3 0c10.4 36.9 44.4 64 84.7 64s74.2-27.1 84.7-64l102.6 0c10.4 36.9 44.4 64 84.7 64s74.2-27.1 84.7-64l3.3 0c35.3 0 64-28.7 64-64l0-151.4c0-17-6.7-33.3-18.7-45.3l-40.6-40.6c-12-12-28.3-18.7-45.3-18.7l-55.4 0 0-32c0-35.3-28.7-64-64-64L64 32C28.7 32 0 60.7 0 96L0 384c0 35.3 28.7 64 64 64zM416 176l55.4 0c4.2 0 8.3 1.7 11.3 4.7l40.6 40.6c3 3 4.7 7.1 4.7 11.3l0 23.4-112 0 0-80zm0 160.4l0-32.4 112 0 0 80c0 8.8-7.2 16-16 16l-3.3 0c-10.4-36.9-44.4-64-84.7-64-2.7 0-5.4 .1-8 .4zM112 424a40 40 0 1 1 80 0 40 40 0 1 1 -80 0zm272 0a40 40 0 1 1 80 0 40 40 0 1 1 -80 0zM176 136l0 40-40 0c-8.8 0-16 7.2-16 16l0 32c0 8.8 7.2 16 16 16l40 0 0 40c0 8.8 7.2 16 16 16l32 0c8.8 0 16-7.2 16-16l0-40 40 0c8.8 0 16-7.2 16-16l0-32c0-8.8-7.2-16-16-16l-40 0 0-40c0-8.8-7.2-16-16-16l-32 0c-8.8 0-16 7.2-16 16z"/></svg>