<svg xmlns="http://www.w3.org/2000/svg" viewBox="0 0 640 512"><path fill="currentColor" d="M24 32C10.7 32 0 42.7 0 56S10.7 80 24 80l8 0 0 64-8 0c-13.3 0-24 10.7-24 24s10.7 24 24 24l304 0c13.3 0 24-10.7 24-24s-10.7-24-24-24l-8 0 0-64 8 0c13.3 0 24-10.7 24-24s-10.7-24-24-24L24 32zM272 80l0 64-32 0 0-64 32 0zm-80 0l0 64-32 0 0-64 32 0zm-80 0l0 64-32 0 0-64 32 0zM80 288l480 0 0 64c0 8.8-7.2 16-16 16l-3.3 0c-10.4-36.9-44.4-64-84.7-64s-74.2 27.1-84.7 64l-102.6 0c-10.4-36.9-44.4-64-84.7-64s-74.2 27.1-84.7 64l-19.3 0 0-80zm304-48L80 240c-26.5 0-48 21.5-48 48l0 80c0 26.5 21.5 48 48 48l19.3 0c10.4 36.9 44.4 64 84.7 64s74.2-27.1 84.7-64l102.6 0c10.4 36.9 44.4 64 84.7 64s74.2-27.1 84.7-64l3.3 0c35.3 0 64-28.7 64-64l0-95.4c0-11.4-3-22.1-8.1-31.1l-53.7-96.6C535 108.6 513.6 96 490.3 96L416 96c-17.7 0-32 14.3-32 32l0 112zm48 0l0-96 58.3 0c5.8 0 11.2 3.2 14 8.2L553.1 240 432 240zM144 392a40 40 0 1 1 80 0 40 40 0 1 1 -80 0zm312-40a40 40 0 1 1 0 80 40 40 0 1 1 0-80z"/></svg>