<svg xmlns="http://www.w3.org/2000/svg" viewBox="0 0 640 512"><path fill="currentColor" d="M64 80c-8.8 0-16 7.2-16 16l0 249.6c12-6.1 25.6-9.6 40-9.6 25.2 0 48 10.6 64 27.6 16-17 38.8-27.6 64-27.6 40.3 0 74.2 27.1 84.7 64l131.3 0 0-304c0-8.8-7.2-16-16-16L64 80zM480 345.6c12-6.1 25.6-9.6 40-9.6 29.8 0 56.1 14.8 72 37.4l0-69.4-112 0 0 41.6zM640 384c0 24.3-13.5 45.4-33.5 56.3-7.6 40.8-43.5 71.7-86.5 71.7-40.3 0-74.2-27.1-84.7-64l-134.6 0c-10.4 36.9-44.4 64-84.7 64-25.2 0-48-10.6-64-27.6-16 17-38.8 27.6-64 27.6-48.6 0-88-39.4-88-88L0 96C0 60.7 28.7 32 64 32l352 0c35.3 0 64 28.7 64 64l0 32 55.4 0c17 0 33.3 6.7 45.3 18.7l40.6 40.6c12 12 18.7 28.3 18.7 45.3L640 384zM592 256l0-23.4c0-4.2-1.7-8.3-4.7-11.3l-40.6-40.6c-3-3-7.1-4.7-11.3-4.7l-55.4 0 0 80 112 0zM88 464a40 40 0 1 0 0-80 40 40 0 1 0 0 80zm472-40a40 40 0 1 0 -80 0 40 40 0 1 0 80 0zM216 464a40 40 0 1 0 0-80 40 40 0 1 0 0 80z"/></svg>