<svg xmlns="http://www.w3.org/2000/svg" viewBox="0 0 640 512"><path fill="currentColor" d="M96 80c-8.8 0-16 7.2-16 16l0 240 4.1 0c16.1-19.5 40.6-32 67.9-32s51.7 12.5 67.9 32l148.1 0 0-240c0-8.8-7.2-16-16-16L96 80zM64.6 381.5C45.7 375.1 32 357.1 32 336l0-48c-17.7 0-32-14.3-32-32l0-96c0-17.7 14.3-32 32-32l0-32c0-35.3 28.7-64 64-64l256 0c29.8 0 54.9 20.4 62 48l18.6 0c28.6 0 54.5 16.9 66 43.1l37.1 84.9 24.3 0c26.5 0 48 21.5 48 48l0 80c0 26.5-21.5 48-48 48l-16.4 0c.2 2.6 .4 5.3 .4 8 0 48.6-39.4 88-88 88s-88-39.4-88-88c0-2.7 .1-5.4 .4-8l-128.7 0c.2 2.6 .4 5.3 .4 8 0 48.6-39.4 88-88 88s-88-39.4-88-88c0-3.6 .2-7.1 .6-10.5zM416 313.6c12-6.1 25.6-9.6 40-9.6 27.3 0 51.7 12.5 67.9 32l36.1 0 0-80-144 0 0 57.6zM416 208l67.3 0-28.7-65.6c-3.8-8.7-12.5-14.4-22-14.4l-16.6 0 0 80zM152 432a40 40 0 1 0 0-80 40 40 0 1 0 0 80zm344-40a40 40 0 1 0 -80 0 40 40 0 1 0 80 0zM272.6 132.9l27.4 41 0-29.9c0-11 9-20 20-20s20 9 20 20l0 96c0 8.8-5.8 16.6-14.2 19.1s-17.5-.7-22.4-8l-27.4-41 0 29.9c0 11-9 20-20 20s-20-9-20-20l0-96c0-8.8 5.8-16.6 14.2-19.1s17.5 .7 22.4 8zM148 144l0 64c0 6.6 5.4 12 12 12s12-5.4 12-12l0-64c0-11 9-20 20-20s20 9 20 20l0 64c0 28.7-23.3 52-52 52s-52-23.3-52-52l0-64c0-11 9-20 20-20s20 9 20 20z"/></svg>