<svg xmlns="http://www.w3.org/2000/svg" viewBox="0 0 576 512"><path fill="currentColor" d="M400 240l121.1 0-48.8-87.8c-2.8-5.1-8.2-8.2-14-8.2l-58.3 0 0 96zm-48 0l0-112c0-17.7 14.3-32 32-32l74.3 0c23.2 0 44.7 12.6 55.9 32.9l53.7 96.6c5 9 8.1 19.6 8.1 31.1l0 95.4c0 35.3-28.7 64-64 64l-3.3 0c-10.4 36.9-44.4 64-84.7 64s-74.2-27.1-84.7-64l-102.6 0c-10.4 36.9-44.4 64-84.7 64s-74.2-27.1-84.7-64L48 416c-26.5 0-48-21.5-48-48l0-80c0-26.5 21.5-48 48-48l304 0zm176 48l-480 0 0 80 19.3 0c10.4-36.9 44.4-64 84.7-64s74.2 27.1 84.7 64l102.6 0c10.4-36.9 44.4-64 84.7-64s74.2 27.1 84.7 64l3.3 0c8.8 0 16-7.2 16-16l0-64zM192 392a40 40 0 1 0 -80 0 40 40 0 1 0 80 0zm232 40a40 40 0 1 0 0-80 40 40 0 1 0 0 80z"/></svg>