<svg xmlns="http://www.w3.org/2000/svg" viewBox="0 0 640 512"><path fill="currentColor" d="M432 152c0-13.3 10.7-24 24-24l79.4 0c17 0 33.3 6.7 45.3 18.7l40.6 40.6c12 12 18.7 28.3 18.7 45.3L640 392c0 29.3-22.5 53.4-51.3 55.8-10.4 37-44.4 64.2-84.7 64.2-40.3 0-74.2-27.1-84.7-64l-118.6 0c-10.4 36.9-44.4 64-84.7 64-25.2 0-48-10.6-64-27.6-16 17-38.8 27.6-64 27.6-48.6 0-88-39.4-88-88s39.4-88 88-88c25.2 0 48 10.6 64 27.6 16-17 38.8-27.6 64-27.6 40.3 0 74.2 27.1 84.7 64l118.6 0c2.7-9.6 7.1-18.6 12.7-26.6L432 152zM592 392l0-88-112 0 0 35.3c7.6-2.2 15.7-3.3 24-3.3 39.8 0 73.5 26.4 84.3 62.7 2.2-1.4 3.7-3.9 3.7-6.7zm0-136l0-23.4c0-4.2-1.7-8.3-4.7-11.3l-40.6-40.6c-3-3-7.1-4.7-11.3-4.7l-55.4 0 0 80 112 0zM88 464a40 40 0 1 0 0-80 40 40 0 1 0 0 80zm456-40a40 40 0 1 0 -80 0 40 40 0 1 0 80 0zM216 464a40 40 0 1 0 0-80 40 40 0 1 0 0 80z"/></svg>