<svg xmlns="http://www.w3.org/2000/svg" viewBox="0 0 640 512"><path fill="currentColor" d="M0 64L0 224c0 35.3 28.7 64 64 64l256 0c35.3 0 64-28.7 64-64l0-160c0-35.3-28.7-64-64-64L64 0C28.7 0 0 28.7 0 64zM64 48l256 0c8.8 0 16 7.2 16 16l0 160c0 8.8-7.2 16-16 16L64 240c-8.8 0-16-7.2-16-16L48 64c0-8.8 7.2-16 16-16zm40 32c-13.3 0-24 10.7-24 24l0 80c0 13.3 10.7 24 24 24s24-10.7 24-24l0-80c0-13.3-10.7-24-24-24zm88 0c-13.3 0-24 10.7-24 24l0 80c0 13.3 10.7 24 24 24s24-10.7 24-24l0-80c0-13.3-10.7-24-24-24zm88 0c-13.3 0-24 10.7-24 24l0 80c0 13.3 10.7 24 24 24s24-10.7 24-24l0-80c0-13.3-10.7-24-24-24zm176 48c-13.3 0-24 10.7-24 24l0 221.4c-5.6 8-10 17-12.7 26.6l-118.6 0c-10.4-36.9-44.4-64-84.7-64-25.2 0-48 10.6-64 27.6-16-17-38.8-27.6-64-27.6-48.6 0-88 39.4-88 88s39.4 88 88 88c25.2 0 48-10.6 64-27.6 16 17 38.8 27.6 64 27.6 40.3 0 74.2-27.1 84.7-64l118.6 0c10.4 36.9 44.4 64 84.7 64 40.4 0 74.4-27.2 84.7-64.2 28.7-2.4 51.3-26.5 51.3-55.8l0-159.4c0-17-6.7-33.3-18.7-45.3l-40.6-40.6c-12-12-28.3-18.7-45.3-18.7L456 128zM588.3 398.7c-10.9-36.3-44.5-62.7-84.3-62.7-8.3 0-16.4 1.2-24 3.3l0-35.3 112 0 0 88c0 2.8-1.5 5.3-3.7 6.7zM480 256l0-80 55.4 0c4.2 0 8.3 1.7 11.3 4.7l40.6 40.6c3 3 4.7 7.1 4.7 11.3l0 23.4-112 0zM48 424a40 40 0 1 1 80 0 40 40 0 1 1 -80 0zm456-40a40 40 0 1 1 0 80 40 40 0 1 1 0-80zM176 424a40 40 0 1 1 80 0 40 40 0 1 1 -80 0z"/></svg>