<svg xmlns="http://www.w3.org/2000/svg" viewBox="0 0 640 512"><path fill="currentColor" d="M224 16c-17.7 0-32 14.3-32 32l0 336c0 6.4-2.5 12.5-7 17l-55.4 55.4 88.2-23.5c4.1-1.1 8.3-1.1 12.4 0l33.1 8.8c2.7 3.8 5.6 7.5 8.7 11l0 41-48-12.8-113.8 30.4c-7.2 1.9-14.9 .4-20.8-4.2S80 495.5 80 488l0-40c0-6.4 2.5-12.5 7-17l57-57 0-41.1-110.3 49c-7.4 3.3-16 2.6-22.8-1.8S0 368.1 0 360l0-72c0-5.5 1.9-10.9 5.4-15.2L144 103.4 144 48c0-44.2 35.8-80 80-80s80 35.8 80 80l0 49.1c-20.1 11.6-36.7 28.5-48 48.9l0-98c0-17.7-14.3-32-32-32zM48 296.6l0 26.5 96-42.7 0-101.2-96 117.3zM560 176l-192 0c-17.7 0-32 14.3-32 32l0 86.7c9.8-4.3 20.6-6.7 32-6.7l0-40c0-22.1 17.9-40 40-40l112 0c22.1 0 40 17.9 40 40l0 40c11.4 0 22.2 2.4 32 6.7l0-86.7c0-17.7-14.3-32-32-32zM512 288l0-32-96 0 0 32 96 0zm128 80c0 26.2-12.6 49.4-32 64l0 56c0 13.3-10.7 24-24 24s-24-10.7-24-24l0-40-192 0 0 40c0 13.3-10.7 24-24 24s-24-10.7-24-24l0-56c-19.4-14.6-32-37.8-32-64l0-160c0-44.2 35.8-80 80-80l192 0c44.2 0 80 35.8 80 80l0 160zm-48 0c0-17.7-14.3-32-32-32l-192 0c-17.7 0-32 14.3-32 32s14.3 32 32 32l192 0c17.7 0 32-14.3 32-32z"/></svg>