<svg xmlns="http://www.w3.org/2000/svg" viewBox="0 0 640 512"><path fill="currentColor" d="M181.4 96.6l46.9 159.4 81.5 0-128.4-159.4zM148.3-21L368 251.7 368 144c0-26.5 21.5-48 48-48l95.6 0c19.8 0 37.6 12.2 44.7 30.6l47.9 123.1c2.5 6.5 3.8 13.4 3.8 20.3l0 114c0 35.3-28.7 64-64 64l-3.3 0c-10.4 36.9-44.4 64-84.7 64s-74.2-27.1-84.7-64l-102.6 0c-10.4 36.9-44.4 64-84.7 64s-74.2-27.1-84.7-64L96 448c-35.3 0-64-28.7-64-64l0-64c0-35.3 28.7-64 64-64l82.3 0-34.9-118.8c-4.5 31-31.1 54.8-63.3 54.8-35.3 0-64-28.7-64-64l0-8c0-13.3 10.7-24 24-24s24 10.7 24 24l0 8c0 8.8 7.2 16 16 16s16-7.2 16-16L96-2.6c0-16.2 13.2-29.4 29.4-29.4 8.9 0 17.3 4 22.9 11zM544 400c8.8 0 16-7.2 16-16l0-80-464 0c-8.8 0-16 7.2-16 16l0 64c0 8.8 7.2 16 16 16l3.3 0c10.4-36.9 44.4-64 84.7-64s74.2 27.1 84.7 64l102.6 0c10.4-36.9 44.4-64 84.7-64s74.2 27.1 84.7 64l3.3 0zm11.1-144l-43.6-112-95.6 0 0 112 139.1 0zM224 424a40 40 0 1 0 -80 0 40 40 0 1 0 80 0zm232 40a40 40 0 1 0 0-80 40 40 0 1 0 0 80z"/></svg>