<svg xmlns="http://www.w3.org/2000/svg" viewBox="0 0 576 512"><path fill="currentColor" d="M0 24C0 10.7 10.7 0 24 0L552 0c13.3 0 24 10.7 24 24s-10.7 24-24 24l-248 0 0 80 112 0c0-17.7 14.3-32 32-32s32 14.3 32 32l32 0c35.3 0 64 28.7 64 64l0 192c0 35.3-28.7 64-64 64l-3.3 0c-10.4 36.9-44.4 64-84.7 64s-74.2-27.1-84.7-64l-102.6 0c-10.4 36.9-44.4 64-84.7 64s-74.2-27.1-84.7-64L64 448c-35.3 0-64-28.7-64-64L0 192c0-23.7 12.9-44.4 32-55.4l0-88.6-8 0C10.7 48 0 37.3 0 24zM256 128l0-80-64 0 0 80 64 0zM80 48l0 80 64 0 0-80-64 0zM368 176L64 176c-8.8 0-16 7.2-16 16l0 48 320 0 0-64zm48 0l0 64 112 0 0-48c0-8.8-7.2-16-16-16l-96 0zM528 288l-480 0 0 96c0 8.8 7.2 16 16 16l3.3 0c10.4-36.9 44.4-64 84.7-64s74.2 27.1 84.7 64l102.6 0c10.4-36.9 44.4-64 84.7-64s74.2 27.1 84.7 64l3.3 0c8.8 0 16-7.2 16-16l0-96zM192 424a40 40 0 1 0 -80 0 40 40 0 1 0 80 0zm232 40a40 40 0 1 0 0-80 40 40 0 1 0 0 80z"/></svg>