<svg xmlns="http://www.w3.org/2000/svg" viewBox="0 0 640 512"><path fill="currentColor" d="M176 80l91.8 0c5.6 0 10.8 2.9 13.7 7.8L344 192 176 192 176 80zM128 64l0 128-80 0c-26.5 0-48 21.5-48 48l0 96c0 21.1 13.7 39.1 32.6 45.5-.4 3.4-.6 7-.6 10.5 0 48.6 39.4 88 88 88s88-39.4 88-88c0-2.7-.1-5.4-.4-8l96.7 0c-.2 2.6-.4 5.3-.4 8 0 48.6 39.4 88 88 88s88-39.4 88-88l0-80 48 0 0 80c0 48.6 39.4 88 88 88 13.3 0 24-10.7 24-24s-10.7-24-24-24c-22.1 0-40-17.9-40-40l0-208c0-22.1 17.9-40 40-40 13.3 0 24-10.7 24-24s-10.7-24-24-24c-48.6 0-88 39.4-88 88l0 80-48 0 0-24c0-26.5-21.5-48-48-48l-32 0-77.4-128.9C311.1 43.8 290.2 32 267.8 32L160 32c-17.7 0-32 14.3-32 32zM432 264l0 49.6c-12-6.1-25.6-9.6-40-9.6-27.3 0-51.7 12.5-67.9 32l-136.2 0c-16.1-19.5-40.6-32-67.9-32s-51.7 12.5-67.9 32l-4.1 0 0-96 384 0 0 24zM80 392a40 40 0 1 1 80 0 40 40 0 1 1 -80 0zm312-40a40 40 0 1 1 0 80 40 40 0 1 1 0-80z"/></svg>