<svg xmlns="http://www.w3.org/2000/svg" viewBox="0 0 640 512"><path fill="currentColor" d="M592 128.7l0 222.7c-10-10.5-21.8-22-35.2-33.2-36.9-30.8-88.9-62.2-148.8-62.2l-360 0 0-32 360 0c59.9 0 111.9-31.4 148.8-62.2 13.4-11.2 25.2-22.6 35.2-33.2zM348.7 304l3.3 0 0 112-40 0 0-112 36.7 0zM400 416l0-112 8 0c43.4 0 84.6 23.1 118 51 33 27.6 55.5 57.3 61 64.9 5.7 7.9 14.6 12.1 23.7 12.1 16.2 0 29.2-13.1 29.2-29.2l0-325.5c0-16.1-13.1-29.2-29.2-29.2-9.1 0-18.1 4.2-23.7 12.1-5.5 7.6-27.9 37.3-61 64.9-33.4 27.9-74.6 51-118 51l-8 0 0-8c0-13.3-10.7-24-24-24s-24 10.7-24 24l0 8-40 0 0-8c0-13.3-10.7-24-24-24s-24 10.7-24 24l0 8-40 0 0-8c0-13.3-10.7-24-24-24s-24 10.7-24 24l0 8-128 0 0-8c0-13.3-10.7-24-24-24S0 154.7 0 168L0 312c0 13.3 10.7 24 24 24s24-10.7 24-24l0-8 32.3 0C70 320.2 64 339.4 64 360 64 417.4 110.6 464 168 464l240 0c46.4 0 85.8-30.4 99.1-72.5-2.2-1.9-4.4-3.9-6.7-5.8-12-10-24.2-18.6-36.4-25.3-.2 30.7-25.2 55.5-56 55.5l-8 0zm-136 0l-40 0 0-112 40 0 0 112zm-88 0l-8 0c-30.9 0-56-25.1-56-56s25.1-56 56-56l8 0 0 112z"/></svg>