<svg xmlns="http://www.w3.org/2000/svg" viewBox="0 0 640 512"><path fill="currentColor" d="M496 24c-13.3 0-24 10.7-24 24 0 1.3 0 2.7 0 4.2 .1 8.4 .1 19.3-1.3 29.6-1.8 12.5-6.1 27.7-18.3 39.8l-31.1 31.1c-6.7 6.7-16.8 8.9-25.7 5.4-23.4-9.1-48.9-14.2-75.6-14.2-114.9 0-208 93.1-208 208l0 64c0 26.5 21.5 48 48 48l320 0c26.5 0 48-21.5 48-48l0-64c0-47.8-16.1-91.8-43.2-126.9-8.9 9.6-12.8 25.6-12.8 46.9 0 75.1-60.9 136-136 136S200 347.1 200 272c0-13.3 10.7-24 24-24s24 10.7 24 24c0 48.6 39.4 88 88 88s88-39.4 88-88c0-24.9 4.1-58.1 27.7-81.7 11.6-11.6 23.1-23.1 34.7-34.7 12.1-12.1 27.3-16.5 39.8-18.3 10.3-1.4 21.3-1.4 29.6-1.3 1.5 0 2.9 0 4.2 0 13.3 0 24-10.7 24-24s-10.7-24-24-24c-12.5 0-22.3-7-27.6-12.4S520 60.5 520 48c0-13.3-10.7-24-24-24zm22.9 166.9C554.6 234.9 576 291 576 352l0 64c0 53-43 96-96 96l-320 0c-53 0-96-43-96-96l0-64c0-141.4 114.6-256 256-256 27.2 0 53.4 4.2 78.1 12.1l20.4-20.4c1.7-1.7 3.6-5.1 4.7-12.5 .9-6.5 .9-13.4 .9-21.8 0-1.7 0-3.5 0-5.3 0-39.8 32.2-72 72-72 37.2 0 67.8 28.2 71.6 64.4 36.2 3.8 64.4 34.4 64.4 71.6 0 39.8-32.2 72-72 72-1.8 0-3.6 0-5.3 0-8.4 0-15.3-.1-21.8 .9-7.5 1-10.8 2.9-12.5 4.7l-1.4 1.4z"/></svg>