<svg xmlns="http://www.w3.org/2000/svg" viewBox="0 0 384 512"><path fill="currentColor" d="M120 32c13.3 0 24 10.7 24 24l0 56.2 137.4-39.3c12.7-3.6 26 3.7 29.7 16.5s-3.7 26-16.5 29.7l-150.6 43 0 46.1 137.4-39.3c12.7-3.6 26 3.7 29.7 16.5s-3.7 26-16.5 29.7l-150.6 43 0 173.9 72 0c66.3 0 120-53.7 120-120 0-13.3 10.7-24 24-24s24 10.7 24 24c0 92.8-75.2 168-168 168l-96 0c-13.3 0-24-10.7-24-24l0-184.2-25.4 7.3c-12.7 3.6-26-3.7-29.7-16.5s3.7-26 16.5-29.7l38.6-11 0-46.1-25.4 7.3c-12.7 3.6-26-3.7-29.7-16.5s3.7-26 16.5-29.7L96 125.9 96 56c0-13.3 10.7-24 24-24z"/></svg>