<svg xmlns="http://www.w3.org/2000/svg" viewBox="0 0 512 512"><path fill="currentColor" d="M54.6 256l89.4 89.4 0-33.4c0-13.3 10.7-24 24-24l200 0c17.7 0 32 14.3 32 32l0 80 64 0 0-64c0-61.9-50.1-112-112-112l-184 0c-13.3 0-24-10.7-24-24l0-33.4-89.4 89.4zM9.4 278.6c-12.5-12.5-12.5-32.8 0-45.3l128-128c9.2-9.2 22.9-11.9 34.9-6.9l0 0c12 5 19.8 16.6 19.8 29.6l0 48 160 0c88.4 0 160 71.6 160 160l0 80c0 17.7-14.3 32-32 32l-96 0c-17.7 0-32-14.3-32-32l0-80-160 0 0 48c0 12.9-7.8 24.6-19.8 29.6l0 0c-12 5-25.7 2.2-34.9-6.9l-128-128 0 0z"/></svg>