<svg xmlns="http://www.w3.org/2000/svg" viewBox="0 0 384 512"><path fill="currentColor" d="M192 54.6L102.6 144 136 144c13.3 0 24 10.7 24 24l0 200c0 17.7-14.3 32-32 32l-80 0 0 64 64 0c61.9 0 112-50.1 112-112l0-184c0-13.3 10.7-24 24-24l33.4 0-89.4-89.4zM169.4 9.4c12.5-12.5 32.8-12.5 45.3 0l128 128c9.2 9.2 11.9 22.9 6.9 34.9l0 0c-5 12-16.6 19.8-29.6 19.8l-48 0 0 160c0 88.4-71.6 160-160 160l-80 0c-17.7 0-32-14.3-32-32l0-96c0-17.7 14.3-32 32-32l80 0 0-160-48 0c-12.9 0-24.6-7.8-29.6-19.8l0 0c-5-12-2.2-25.7 6.9-34.9l128-128 0 0z"/></svg>