<svg xmlns="http://www.w3.org/2000/svg" viewBox="0 0 576 512"><path fill="currentColor" d="M512 80c8.8 0 16 7.2 16 16l0 320c0 8.8-7.2 16-16 16L64 432c-8.8 0-16-7.2-16-16L48 96c0-8.8 7.2-16 16-16l448 0zM64 32C28.7 32 0 60.7 0 96L0 416c0 35.3 28.7 64 64 64l448 0c35.3 0 64-28.7 64-64l0-320c0-35.3-28.7-64-64-64L64 32zM224 400a144 144 0 1 0 0-288 144 144 0 1 0 0 288zm0-176a32 32 0 1 1 0 64 32 32 0 1 1 0-64zm256-88c0-13.3-10.7-24-24-24s-24 10.7-24 24l0 143.8c0 1.3-.3 2.7-1 3.8l-44.1 80.8c-6.3 11.6-2.1 26.2 9.6 32.6s26.2 2.1 32.6-9.6l44.1-80.8c4.5-8.2 6.8-17.4 6.8-26.8L480 136z"/></svg>