<svg xmlns="http://www.w3.org/2000/svg" viewBox="0 0 512 512"><path fill="currentColor" d="M457.4 256L368 166.6 368 200c0 13.3-10.7 24-24 24l-200 0c-17.7 0-32-14.3-32-32l0-80-64 0 0 64c0 61.9 50.1 112 112 112l184 0c13.3 0 24 10.7 24 24l0 33.4 89.4-89.4zm45.3-22.6c12.5 12.5 12.5 32.8 0 45.3l-128 128c-9.2 9.2-22.9 11.9-34.9 6.9l0 0c-12-5-19.8-16.6-19.8-29.6l0-48-160 0C71.6 336 0 264.4 0 176L0 96C0 78.3 14.3 64 32 64l96 0c17.7 0 32 14.3 32 32l0 80 160 0 0-48c0-12.9 7.8-24.6 19.8-29.6l0 0c12-5 25.7-2.2 34.9 6.9l128 128 0 0z"/></svg>