<svg xmlns="http://www.w3.org/2000/svg" viewBox="0 0 384 512"><path fill="currentColor" d="M192 457.4L102.6 368 136 368c13.3 0 24-10.7 24-24l0-200c0-17.7-14.3-32-32-32l-80 0 0-64 64 0c61.9 0 112 50.1 112 112l0 184c0 13.3 10.7 24 24 24l33.4 0-89.4 89.4zm-22.6 45.3c12.5 12.5 32.8 12.5 45.3 0l128-128c9.2-9.2 11.9-22.9 6.9-34.9l0 0c-5-12-16.6-19.8-29.6-19.8l-48 0 0-160C272 71.6 200.4 0 112 0L32 0C14.3 0 0 14.3 0 32l0 96c0 17.7 14.3 32 32 32l80 0 0 160-48 0c-12.9 0-24.6 7.8-29.6 19.8l0 0c-5 12-2.2 25.7 6.9 34.9l128 128 0 0z"/></svg>