<svg xmlns="http://www.w3.org/2000/svg" viewBox="0 0 576 512"><path fill="currentColor" d="M512 80c8.8 0 16 7.2 16 16l0 256c0 8.8-7.2 16-16 16L64 368c-8.8 0-16-7.2-16-16L48 96c0-8.8 7.2-16 16-16l448 0zM64 32C28.7 32 0 60.7 0 96L0 352c0 35.3 28.7 64 64 64l448 0c35.3 0 64-28.7 64-64l0-256c0-35.3-28.7-64-64-64L64 32zm64 456c0 13.3 10.7 24 24 24l272 0c13.3 0 24-10.7 24-24s-10.7-24-24-24l-272 0c-13.3 0-24 10.7-24 24zM352 128l-40 0c-13.3 0-24 10.7-24 24l0 57.8c-5.1-1.2-10.5-1.8-16-1.8-35.3 0-64 25.1-64 56s28.7 56 64 56 64-25.1 64-56c0-1.3-.1-2.6-.2-3.9l.2 .1 0-84.2 16 0c13.3 0 24-10.7 24-24s-10.7-24-24-24z"/></svg>