<svg xmlns="http://www.w3.org/2000/svg" viewBox="0 0 512 512"><path fill="currentColor" d="M135 7c9.4-9.4 24.6-9.4 33.9 0l87 87 87-87c9.4-9.4 24.6-9.4 33.9 0s9.4 24.6 0 33.9l-55 55 126.1 0c35.3 0 64 28.7 64 64l0 256c0 35.3-28.7 64-64 64L64 480c-35.3 0-64-28.7-64-64L0 160c0-35.3 28.7-64 64-64l126.1 0-55-55c-9.4-9.4-9.4-24.6 0-33.9zM64 144c-8.8 0-16 7.2-16 16l0 256c0 8.8 7.2 16 16 16l384 0c8.8 0 16-7.2 16-16l0-256c0-8.8-7.2-16-16-16L64 144zm80 48l160 0c26.5 0 48 21.5 48 48l0 96c0 26.5-21.5 48-48 48l-160 0c-26.5 0-48-21.5-48-48l0-96c0-26.5 21.5-48 48-48zm240 40a24 24 0 1 1 48 0 24 24 0 1 1 -48 0zm24 56a24 24 0 1 1 0 48 24 24 0 1 1 0-48z"/></svg>