<svg xmlns="http://www.w3.org/2000/svg" viewBox="0 0 448 512"><path fill="currentColor" d="M112 64c0-8.8 7.2-16 16-16l151.4 0c4.2 0 8.3 1.7 11.3 4.7l40.6 40.6c3 3 4.7 7.1 4.7 11.3l0 39.4 48 0 0-39.4c0-17-6.7-33.3-18.7-45.3L324.7 18.7C312.7 6.7 296.4 0 279.4 0L128 0C92.7 0 64 28.7 64 64l0 80 48 0 0-80zM0 224l0 32c0 17.7 14.3 32 32 32l0 160c0 35.3 28.7 64 64 64l256 0c35.3 0 64-28.7 64-64l0-160c17.7 0 32-14.3 32-32l0-32c0-17.7-14.3-32-32-32l-98.7 0c-8.5 0-16.6 3.4-22.6 9.4l-13.3 13.3c-6 6-14.1 9.4-22.6 9.4l-69.5 0c-8.5 0-16.6-3.4-22.6-9.4l-13.3-13.3c-6-6-14.1-9.4-22.6-9.4L32 192c-17.7 0-32 14.3-32 32zM80 448l0-160 288 0 0 160c0 8.8-7.2 16-16 16L96 464c-8.8 0-16-7.2-16-16zm64-128a24 24 0 1 0 0 48 24 24 0 1 0 0-48zm56 24a24 24 0 1 0 48 0 24 24 0 1 0 -48 0zm104-24a24 24 0 1 0 0 48 24 24 0 1 0 0-48zM160 408a24 24 0 1 0 48 0 24 24 0 1 0 -48 0zm104-24a24 24 0 1 0 0 48 24 24 0 1 0 0-48z"/></svg>