<svg xmlns="http://www.w3.org/2000/svg" viewBox="0 0 512 512"><path fill="currentColor" d="M6.8 147.7c-10.3-12.8-7.2-28-1.1-37.7l3-4 1-1 111.7-111.7 0 0 3.9-3.3c20.3-14.8 50.7-.6 50.7 26l0 32 120 0 11.1 .3C421.3 54.1 512 148.4 512 264S421.3 473.9 307.1 479.7L296 480 96 480c-17.7 0-32-14.3-32-32l0-96c0-17.7 14.3-32 32-32l200 0 5.7-.3C330 316.9 352 293 352 264s-22-52.9-50.3-55.7l-5.7-.3-120 0 0 32c0 24.4-26.2 39.2-47 28.3l-3-1.9-1.9-1.4-2.7-2.3-112-112-2.6-2.9zM128 201.4l0-17.4c0-13.3 10.7-24 24-24l144 0 5.3 .1c55 2.8 98.7 48.2 98.7 103.9s-43.7 101.1-98.7 103.9l-5.3 .1-184 0 0 64 184 0 8.7-.2C393.4 427.3 464 353.9 464 264S393.4 100.7 304.7 96.2L296 96 152 96c-13.3 0-24-10.7-24-24l0-17.4-73.4 73.4 73.4 73.4z"/></svg>