<svg xmlns="http://www.w3.org/2000/svg" viewBox="0 0 576 512"><path fill="currentColor" d="M180.2 6.8c-12.8-10.3-28-7.2-37.7-1.1l-4 3-1 1-111.7 111.7 0 0-3.3 3.9c-14.8 20.3-.6 50.7 26 50.7l32 0 0 120 .3 11.1C86.5 421.3 180.9 512 296.5 512s209.9-90.8 215.7-204.9l.3-11.1 0-200c0-17.7-14.3-32-32-32l-96 0c-17.7 0-32 14.3-32 32l0 200-.3 5.7C349.3 330 325.5 352 296.5 352s-52.9-22-55.7-50.3l-.3-5.7 0-120 32 0c24.4 0 39.2-26.2 28.3-47l-1.9-3-1.4-1.9-2.3-2.7-112-112-2.9-2.6zM233.8 128l-17.4 0c-13.3 0-24 10.7-24 24l0 144 .1 5.3c2.8 55 48.2 98.7 103.9 98.7s101.1-43.7 103.9-98.7l.1-5.3 0-184 64 0 0 184-.2 8.7C459.7 393.4 386.3 464 296.5 464S133.2 393.4 128.7 304.7l-.2-8.7 0-144c0-13.3-10.7-24-24-24l-17.4 0 73.4-73.4 73.4 73.4z"/></svg>