<svg xmlns="http://www.w3.org/2000/svg" viewBox="0 0 512 512"><path fill="currentColor" d="M505.3 147.7c10.3-12.8 7.2-28 1.1-37.7l-3-4-1-1-111.7-111.7 0 0-3.9-3.3C366.4-24.8 336-10.6 336 16l0 32-120 0-11.1 .3C90.8 54.1 0 148.4 0 264S90.8 473.9 204.9 479.7l11.1 .3 200 0c17.7 0 32-14.3 32-32l0-96c0-17.7-14.3-32-32-32l-200 0-5.7-.3C182 316.9 160 293 160 264s22-52.9 50.3-55.7l5.7-.3 120 0 0 32c0 24.4 26.2 39.2 47 28.3l3-1.9 1.9-1.4 2.7-2.3 112-112 2.6-2.9zM384 201.4l0-17.4c0-13.3-10.7-24-24-24l-144 0-5.3 .1c-55 2.8-98.7 48.2-98.7 103.9s43.7 101.1 98.7 103.9l5.3 .1 184 0 0 64-184 0-8.7-.2C118.6 427.3 48 353.9 48 264S118.6 100.7 207.3 96.2l8.7-.2 144 0c13.3 0 24-10.7 24-24l0-17.4 73.4 73.4-73.4 73.4z"/></svg>