<svg xmlns="http://www.w3.org/2000/svg" viewBox="0 0 576 512"><path fill="currentColor" d="M396.7 505.2c12.8 10.3 28 7.2 37.7 1.1l4-3 1-1 111.7-111.7 0 0 3.3-3.9c14.8-20.3 .6-50.7-26-50.7l-32 0 0-120-.3-11.1C490.4 90.8 396 0 280.5 0S70.5 90.8 64.7 204.9l-.3 11.1 0 200c0 17.7 14.3 32 32 32l96 0c17.7 0 32-14.3 32-32l0-200 .3-5.7c2.9-28.2 26.7-50.3 55.7-50.3s52.9 22 55.7 50.3l.3 5.7 0 120-32 0c-24.4 0-39.2 26.2-28.3 47l1.9 3 1.4 1.9 2.3 2.7 112 112 2.9 2.6zM343.1 384l17.4 0c13.3 0 24-10.7 24-24l0-144-.1-5.3c-2.8-55-48.2-98.7-103.9-98.7s-101.1 43.7-103.9 98.7l-.1 5.3 0 184-64 0 0-184 .2-8.7C117.2 118.6 190.6 48 280.5 48s163.3 70.6 167.8 159.3l.2 8.7 0 144c0 13.3 10.7 24 24 24l17.4 0-73.4 73.4-73.4-73.4z"/></svg>