<svg xmlns="http://www.w3.org/2000/svg" viewBox="0 0 512 512"><path fill="currentColor" d="M256-32c13.3 0 24 10.7 24 24l0 9.1c124.4 11.6 223 112.2 231.4 237.6 .6 9.4 .7 19.1 .3 28.6-.3 6.9-5 12.8-11.7 14.7s-13.8-.7-17.6-6.5c-2.3-3.5-4.9-6.8-7.8-9.8-15-16.2-36.6-25.7-58.7-25.7-29.3 0-54.9 15.7-68.9 39.3-2.7 4.6-7.6 7.6-13 7.8s-10.5-2.2-13.7-6.5c-14.6-19.8-38-32.6-64.5-32.6s-49.9 12.8-64.5 32.6c-3.2 4.3-8.3 6.8-13.7 6.5s-10.2-3.2-13-7.8c-14-23.6-39.6-39.3-68.9-39.3-23.2 0-44.1 9.9-58.7 25.7-2.8 3.1-5.4 6.3-7.8 9.8-3.9 5.7-11 8.4-17.6 6.5S.5 274.2 .2 267.3c-.4-9.5-.3-19.1 .3-28.6 8.4-125.3 107-226 231.4-237.5L232-8c0-13.3 10.7-24 24-24zM232 306.8c5.9-6.6 14.4-10.8 24-10.8s18.1 4.2 24 10.8l0 130c0 41.5-33.6 75.1-75.1 75.1-32.3 0-61.1-20.7-71.3-51.4l-4.3-13c-4.2-12.6 2.6-26.2 15.2-30.4s26.2 2.6 30.4 15.2l4.3 13c3.7 11.1 14.1 18.6 25.7 18.6 15 0 27.1-12.2 27.1-27.1l0-130zM96 192c32.6 0 62.4 12.2 85 32.3 21.1-15.3 47-24.3 75-24.3s53.9 9 75 24.3c22.6-20.1 52.4-32.3 85-32.3 13.9 0 27.4 2.2 39.9 6.3-25-86.8-105-150.3-199.9-150.3S81.1 111.5 56.1 198.3c12.6-4.1 26-6.3 39.9-6.3z"/></svg>