<svg xmlns="http://www.w3.org/2000/svg" viewBox="0 0 512 512"><path fill="currentColor" d="M280.2-8c0-13.3-10.7-24-24-24s-24 10.7-24 24l0 9.1C112.7 12.2 17 105.6 2.2 224.1 0 241.6 14.6 256 32.2 256l448 0c17.7 0 32.2-14.4 30-31.9-14.7-118.5-110.5-211.8-230-223l0-9.1zM458.7 208L53.8 208C75.5 116.3 157.9 48 256.2 48S437 116.3 458.7 208zM280.2 304l-48 0 0 132.9c0 15-12.2 27.1-27.1 27.1-11.7 0-22.1-7.5-25.7-18.6l-4.3-13c-4.2-12.6-17.8-19.4-30.4-15.2s-19.4 17.8-15.2 30.4l4.3 13c10.2 30.7 38.9 51.4 71.3 51.4 41.5 0 75.1-33.6 75.1-75.1l0-132.9z"/></svg>