<svg xmlns="http://www.w3.org/2000/svg" viewBox="0 0 384 512"><path fill="currentColor" d="M88 0c13.3 0 24 10.7 24 24s10.7 24 24 24l128 0c13.3 0 24 10.7 24 24s-10.7 24-24 24l-48 0 0 65.6c85.8 11.7 152 85.3 152 174.4 0 97.2-78.8 176-176 176S16 433.2 16 336c0-89.1 66.2-162.7 152-174.4l0-65.6-32 0C96.2 96 64 63.8 64 24 64 10.7 74.7 0 88 0zm80 210.2c-59.2 11.2-104 63.3-104 125.8 0 70.7 57.3 128 128 128s128-57.3 128-128c0-62.5-44.8-114.5-104-125.8L216 352c0 13.3-10.7 24-24 24s-24-10.7-24-24l0-141.8z"/></svg>