<svg xmlns="http://www.w3.org/2000/svg" viewBox="0 0 384 512"><path fill="currentColor" d="M192 16c-44.2 0-80 35.8-80 80l0 64 208 0c35.3 0 64 28.7 64 64l0 224c0 35.3-28.7 64-64 64L64 512c-35.3 0-64-28.7-64-64L0 224c0-35.3 28.7-64 64-64l0-64c0-70.7 57.3-128 128-128 67.4 0 122.5 52 127.6 118.1 1 13.2-8.9 24.8-22.1 25.8s-24.8-8.9-25.8-22.1C268.6 48.5 234.1 16 192 16zM48 224l0 224c0 8.8 7.2 16 16 16l256 0c8.8 0 16-7.2 16-16l0-224c0-8.8-7.2-16-16-16l-208 0 0 0-48 0 0 0c-8.8 0-16 7.2-16 16zM232 360l-80 0c-13.3 0-24-10.7-24-24s10.7-24 24-24l80 0c13.3 0 24 10.7 24 24s-10.7 24-24 24z"/></svg>