<svg xmlns="http://www.w3.org/2000/svg" viewBox="0 0 512 512"><path fill="currentColor" d="M215 176c22.6 0 41-18.3 41-41 0-10.9-4.3-21.3-12-29L145 7c-4.5-4.5-10.6-7-17-7s-12.5 2.5-17 7l-99 99c-7.7 7.7-12 18.1-12 29 0 22.6 18.3 41 41 41l63 0 0 312c0 13.3 10.7 24 24 24s24-10.7 24-24l0-312 63 0zM128 57.9L198.1 128 57.9 128 128 57.9zM512 377c0-22.6-18.3-41-41-41l-63 0 0-312c0-13.3-10.7-24-24-24s-24 10.7-24 24l0 312-63 0c-22.6 0-41 18.3-41 41 0 10.9 4.3 21.3 12 29l99 99c4.5 4.5 10.6 7 17 7s12.5-2.5 17-7l99-99c7.7-7.7 12-18.1 12-29zm-57.9 7l-70.1 70.1-70.1-70.1 140.1 0z"/></svg>