<svg xmlns="http://www.w3.org/2000/svg" viewBox="0 0 384 512"><path fill="currentColor" d="M209 7c-9.4-9.4-24.6-9.4-33.9 0L31 151c-6.9 6.9-8.9 17.2-5.2 26.2S38.3 192 48 192l64 0 0 64 0 0 0 80c0 26.5 21.5 48 48 48l64 0c26.5 0 48-21.5 48-48l0-144 64 0c9.7 0 18.5-5.8 22.2-14.8s1.7-19.3-5.2-26.2L209 7zm15 249l0 80-64 0 0-80 0 0 0-88c0-13.3-10.7-24-24-24l-30.1 0 86.1-86.1 86.1 86.1-30.1 0c-13.3 0-24 10.7-24 24l0 88zM0 488c0 13.3 10.7 24 24 24l336 0c13.3 0 24-10.7 24-24s-10.7-24-24-24L24 464c-13.3 0-24 10.7-24 24z"/></svg>