<svg xmlns="http://www.w3.org/2000/svg" viewBox="0 0 320 512"><path fill="currentColor" d="M296-64c13.3 0 24 10.7 24 24s-10.7 24-24 24L24-16C10.7-16 0-26.7 0-40S10.7-64 24-64l272 0zM249.4 208L160 118.6 70.6 208 104 208c13.3 0 24 10.7 24 24l0 296 64 0 0-296c0-13.3 10.7-24 24-24l33.4 0zM137.4 73.4c12.5-12.5 32.8-12.5 45.3 0l128 128c9.2 9.2 11.9 22.9 6.9 34.9l0 0c-5 12-16.6 19.8-29.6 19.8l-48 0 0 272c0 26.5-21.5 48-48 48l-64 0c-26.5 0-48-21.5-48-48l0-272-48 0c-12.9 0-24.6-7.8-29.6-19.8l0 0c-5-12-2.2-25.7 6.9-34.9l128-128z"/></svg>