<svg xmlns="http://www.w3.org/2000/svg" viewBox="0 0 448 512"><path fill="currentColor" d="M248 328c0 13.3-10.7 24-24 24s-24-10.7-24-24l0-246.1-63 63c-9.4 9.4-24.6 9.4-33.9 0s-9.4-24.6 0-33.9L207 7c9.4-9.4 24.6-9.4 33.9 0L345 111c9.4 9.4 9.4 24.6 0 33.9s-24.6 9.4-33.9 0l-63-63 0 246.1zm-96-8l-88 0c-8.8 0-16 7.2-16 16l0 80c0 8.8 7.2 16 16 16l320 0c8.8 0 16-7.2 16-16l0-80c0-8.8-7.2-16-16-16l-88 0 0-48 88 0c35.3 0 64 28.7 64 64l0 80c0 35.3-28.7 64-64 64L64 480c-35.3 0-64-28.7-64-64l0-80c0-35.3 28.7-64 64-64l88 0 0 48zm168 56a24 24 0 1 1 48 0 24 24 0 1 1 -48 0z"/></svg>