<svg xmlns="http://www.w3.org/2000/svg" viewBox="0 0 320 512"><path fill="currentColor" d="M136 24c0-13.3 10.7-24 24-24s24 10.7 24 24l0 40 64 0c13.3 0 24 10.7 24 24s-10.7 24-24 24l-130 0c-29.8 0-54 24.2-54 54 0 26.4 19.1 48.9 45.1 53.2l106.1 17.7c51.3 8.5 88.8 52.9 88.8 104.8 0 58.7-47.6 106.3-106.3 106.3l-13.7 0 0 40c0 13.3-10.7 24-24 24s-24-10.7-24-24l0-40-80 0c-13.3 0-24-10.7-24-24s10.7-24 24-24l141.7 0c32.2 0 58.3-26.1 58.3-58.3 0-28.5-20.6-52.8-48.7-57.5L101.2 266.5C52 258.3 16 215.8 16 166 16 109.6 61.6 64 118 64l18 0 0-40z"/></svg>