<svg xmlns="http://www.w3.org/2000/svg" viewBox="0 0 448 512"><path fill="currentColor" d="M288 176l-128 0c14.6 19.4 37.8 32 64 32s49.4-12.6 64-32zm-183-.8c-14.3-3.2-25-16-25-31.2l0-64c0-17.7 14.3-32 32-32l12.1 0C147.5 18.7 183.6 0 224 0s76.5 18.7 99.9 48L336 48c17.7 0 32 14.3 32 32l0 64c0 15.3-10.7 28-25 31.2-18.8 47.3-65 80.8-119 80.8s-100.2-33.5-119-80.8zM176 352c-70.7 0-128 57.3-128 128l0 8c0 13.3-10.7 24-24 24S0 501.3 0 488l0-8c0-97.2 78.8-176 176-176l96 0c97.2 0 176 78.8 176 176l0 8c0 13.3-10.7 24-24 24s-24-10.7-24-24l0-8c0-70.7-57.3-128-128-128l-96 0zm118.5 59.1c3.9-7.9 15.1-7.9 19.1 0l40.2 80.3c4.6 9.2-5.1 18.9-14.3 14.3l-30.6-15.3c-3-1.5-6.5-1.5-9.5 0l-30.6 15.3c-9.2 4.6-18.9-5.1-14.3-14.3l40.2-80.3zM128 128l192 0 0-32-192 0 0 32z"/></svg>