<svg xmlns="http://www.w3.org/2000/svg" viewBox="0 0 448 512"><path fill="currentColor" d="M224 208c38.7 0 71-27.5 78.4-64l-156.8 0c7.4 36.5 39.7 64 78.4 64zm-.9-160c-32.4 .4-60.2 20-72.4 48l43.6 0 28.8-48zm40.4 10.4L240.9 96 297.3 96c-6.9-15.9-18.9-29.1-33.9-37.6zM352 128a128 128 0 1 1 -256 0 128 128 0 1 1 256 0zM50.4 464l109.7 0-44.5-84c-33.1 16.1-57.7 46.9-65.3 84zM24 512c-13.3 0-24-10.7-24-24 0-92.8 75.2-168 168-168l112 0c92.8 0 168 75.2 168 168 0 13.3-10.7 24-24 24s-24-10.7-24-24c0-66.3-53.7-120-120-120l-112 0c-1.5 0-2.9 0-4.3 .1l12.7 23.9 83.7 0c33.1 0 60 26.9 60 60s-26.9 60-60 60l-59.5 0c-.3 0-.6 0-1 0L24 512zm190.4-48l45.6 0c6.6 0 12-5.4 12-12s-5.4-12-12-12l-58.3 0 12.7 24z"/></svg>