<svg xmlns="http://www.w3.org/2000/svg" viewBox="0 0 576 512"><path fill="currentColor" d="M0 24C0 37.3 10.7 48 24 48l528 0c13.3 0 24-10.7 24-24S565.3 0 552 0L24 0C10.7 0 0 10.7 0 24zM0 488c0 13.3 10.7 24 24 24l528 0c13.3 0 24-10.7 24-24s-10.7-24-24-24L24 464c-13.3 0-24 10.7-24 24zM288 128a32 32 0 1 1 0 64 32 32 0 1 1 0-64zm0 112a80 80 0 1 0 0-160 80 80 0 1 0 0 160zM160 160c0-16.2 3-31.8 8.5-46.1-5.3-1.2-10.9-1.9-16.5-1.9-39.8 0-72 32.2-72 72s32.2 72 72 72c14.6 0 28.2-4.4 39.6-11.8-10.6-12.1-18.9-26.2-24.3-41.6-4.1 3.4-9.5 5.5-15.2 5.5-13.3 0-24-10.7-24-24s10.7-24 24-24c2.8 0 5.5 .5 8 1.4l0-1.4zm264 96c39.8 0 72-32.2 72-72s-32.2-72-72-72c-5.7 0-11.2 .7-16.5 1.9 5.5 14.3 8.5 29.8 8.5 46.1l0 1.4c2.5-.9 5.2-1.4 8-1.4 13.3 0 24 10.7 24 24s-10.7 24-24 24c-5.8 0-11.1-2-15.2-5.5-5.4 15.4-13.8 29.5-24.3 41.6 11.4 7.5 25 11.8 39.6 11.8zM32 384l0 8c0 13.3 10.7 24 24 24s24-10.7 24-24l0-8c0-25 19.1-45.5 43.4-47.8 7.4-18 18-34.3 31.2-48.2L128 288c-53 0-96 43-96 96zm420.6-47.8C476.9 338.5 496 359 496 384l0 8c0 13.3 10.7 24 24 24s24-10.7 24-24l0-8c0-53-43-96-96-96l-26.7 0c13.2 13.9 23.9 30.2 31.2 48.2zM256 288c-53 0-96 43-96 96l0 8c0 13.3 10.7 24 24 24s24-10.7 24-24l0-8c0-26.5 21.5-48 48-48l64 0c26.5 0 48 21.5 48 48l0 8c0 13.3 10.7 24 24 24s24-10.7 24-24l0-8c0-53-43-96-96-96l-64 0z"/></svg>