<svg xmlns="http://www.w3.org/2000/svg" viewBox="0 0 448 512"><path fill="currentColor" d="M96 44.9L96 144c0 70.7 57.3 128 128 128s128-57.3 128-128l0-99.1c0-12.7-7.5-24.2-19.2-29.3l-96-42c-8.2-3.6-17.5-3.6-25.7 0l-96 42C103.5 20.7 96 32.2 96 44.9zM304 128l0 16c0 44.2-35.8 80-80 80s-80-35.8-80-80l0-16 160 0zM161.4 314.9c-5.8-6.1-14.3-8.7-22.5-7-79.4 17-139 87.6-139 172.1l0 8c0 13.3 10.7 24 24 24s24-10.7 24-24l0-8c0-56.8 37.1-105.1 88.4-121.8l70.2 74.2c4.5 4.8 10.8 7.5 17.4 7.5s12.9-2.7 17.4-7.5l70.2-74.2C362.9 374.9 400 423.2 400 480l0 8c0 13.3 10.7 24 24 24s24-10.7 24-24l0-8c0-84.5-59.6-155.1-139-172.1-8.2-1.8-16.7 .9-22.5 7l-62.6 66.2-62.6-66.2zM208 16c0-4.4 3.6-8 8-8l16 0c4.4 0 8 3.6 8 8l0 16 16 0c4.4 0 8 3.6 8 8l0 16c0 4.4-3.6 8-8 8l-16 0 0 16c0 4.4-3.6 8-8 8l-16 0c-4.4 0-8-3.6-8-8l0-16-16 0c-4.4 0-8-3.6-8-8l0-16c0-4.4 3.6-8 8-8l16 0 0-16z"/></svg>