<svg xmlns="http://www.w3.org/2000/svg" viewBox="0 0 448 512"><path fill="currentColor" d="M248 24c0-13.3-10.7-24-24-24s-24 10.7-24 24l0 40-56 0c-44.2 0-80 35.8-80 80l0 24-24 0c-13.3 0-24 10.7-24 24s10.7 24 24 24l24 0 0 24c0 44.2 35.8 80 80 80l160 0c44.2 0 80-35.8 80-80l0-24 24 0c13.3 0 24-10.7 24-24s-10.7-24-24-24l-24 0 0-24c0-44.2-35.8-80-80-80l-56 0 0-40zm88 120l0 96c0 17.7-14.3 32-32 32l-160 0c-17.7 0-32-14.3-32-32l0-96c0-17.7 14.3-32 32-32l160 0c17.7 0 32 14.3 32 32zM48 448c0-26.5 21.5-48 48-48l256 0c26.5 0 48 21.5 48 48l0 40c0 13.3 10.7 24 24 24s24-10.7 24-24l0-40c0-53-43-96-96-96L96 352c-53 0-96 43-96 96l0 40c0 13.3 10.7 24 24 24s24-10.7 24-24l0-40zm120 24c0-13.3-10.7-24-24-24s-24 10.7-24 24l0 16c0 13.3 10.7 24 24 24s24-10.7 24-24l0-16zm56-24c-13.3 0-24 10.7-24 24l0 16c0 13.3 10.7 24 24 24s24-10.7 24-24l0-16c0-13.3-10.7-24-24-24zm104 24c0-13.3-10.7-24-24-24s-24 10.7-24 24l0 16c0 13.3 10.7 24 24 24s24-10.7 24-24l0-16zM140.7 140.7c-6.2 6.2-6.2 16.4 0 22.6l12.7 12.7-12.7 12.7c-6.2 6.2-6.2 16.4 0 22.6s16.4 6.2 22.6 0l12.7-12.7 12.7 12.7c6.2 6.2 16.4 6.2 22.6 0s6.2-16.4 0-22.6l-12.7-12.7 12.7-12.7c6.2-6.2 6.2-16.4 0-22.6s-16.4-6.2-22.6 0l-12.7 12.7-12.7-12.7c-6.2-6.2-16.4-6.2-22.6 0zM272 153.4l-12.7-12.7c-6.2-6.2-16.4-6.2-22.6 0s-6.2 16.4 0 22.6l12.7 12.7-12.7 12.7c-6.2 6.2-6.2 16.4 0 22.6s16.4 6.2 22.6 0l12.7-12.7 12.7 12.7c6.2 6.2 16.4 6.2 22.6 0s6.2-16.4 0-22.6l-12.7-12.7 12.7-12.7c6.2-6.2 6.2-16.4 0-22.6s-16.4-6.2-22.6 0L272 153.4z"/></svg>