<svg xmlns="http://www.w3.org/2000/svg" viewBox="0 0 576 512"><path fill="currentColor" d="M198.9 0l50.1 0c56.8 0 102.9 46.1 102.9 102.9 0 6 1 12 3.1 17.6l25.2 69.3c2.4 6.7 3.7 13.8 3.7 21 0 24.6-14.6 46-35.7 55.7 2.4 6.7 3.7 14 3.7 21.5 0 15.9-5.8 30.5-15.5 41.7-1 1.2-2.1 2.4-3.3 3.5-11.6 11.6-27.6 18.7-45.3 18.7-7.2 0-14.2-1.2-20.6-3.4-.2 .5-.5 1-.7 1.5-3.8 7.2-9.3 13.4-16.1 17.9-7.6 5.1-16.7 8-26.5 8s-18.9-2.9-26.5-8c-.7-.5-1.5-1-2.2-1.5-6.2-4.7-11.3-10.8-14.7-17.9-.8 .3-1.6 .5-2.4 .8-5.8 1.7-11.9 2.6-18.2 2.6-19.4 0-36.8-8.6-48.5-22.3-9.7-11.2-15.5-25.8-15.5-41.7 0-7.5 1.3-14.8 3.7-21.5-21.1-9.7-35.7-31-35.7-55.7 0-7.1 1.2-14.3 3.7-21l25.2-69.3C95 114.9 96 108.9 96 102.9 96 46.1 142.1 0 198.9 0zM304 128c0-11.4-2.4-22.2-6.7-32L280 96c-24.1 0-45.1-13.3-56-33-10.9 19.7-31.9 33-56 33l-17.3 0c-4.3 9.8-6.7 20.6-6.7 32l0 16c0 12.5 2.9 24.4 8 35 .9-.5 1.8-1.1 2.6-1.8l.6-.6c18.2-18.2 43-28.5 68.8-28.5s50.5 10.2 68.8 28.5l.6 .6c.8 .8 1.6 1.4 2.6 1.8 5.1-10.6 8-22.4 8-35l0-16zm-42.1 86.5c2.8-1.5 5.4-3.1 8-4.9-1.6-1.3-3.2-2.7-4.7-4.2l-.6-.6C253.7 194 239.2 188 224 188s-29.7 6-40.5 16.8l-.6 .6c-1.5 1.5-3.1 2.9-4.7 4.2 2.6 1.8 5.2 3.4 8 4.9 11.3 6.1 24.2 9.5 37.9 9.5s26.6-3.4 37.9-9.5zM0 488c0-55.5 27-104.8 68.5-135.4 9.6 13.6 22.2 24.9 36.7 33.1-34.3 21.1-57.2 59-57.2 102.3 0 13.3-10.7 24-24 24S0 501.3 0 488zm368.6-72c-9.2 0-16.6-7.4-16.6-16.6 0-4.7 2-9.2 5.5-12.4L498.7 260.7c3.4-3 7.8-4.7 12.4-4.7 12.4 0 21.3 12 17.8 23.9l-31.2 104.1 61.8 0c9.2 0 16.6 7.4 16.6 16.6 0 4.7-2 9.2-5.5 12.4L429.3 539.3c-3.4 3-7.8 4.7-12.4 4.7-12.4 0-21.3-12-17.8-23.9l31.2-104.1-61.8 0z"/></svg>