<svg xmlns="http://www.w3.org/2000/svg" viewBox="0 0 640 512"><path fill="currentColor" d="M176.5 128a80 80 0 1 1 160 0 80 80 0 1 1 -160 0zm208 0a128 128 0 1 0 -256 0 128 128 0 1 0 256 0zM80.5 480c0-70.7 57.3-128 128-128l80.2 0c.8-16.8 4-32.9 9.4-48l-89.6 0c-97.2 0-176 78.8-176 176l0 8c0 13.3 10.7 24 24 24s24-10.7 24-24l0-8zm376-192a72 72 0 1 1 0 144 72 72 0 1 1 0-144zm0 192c24.4 0 47.1-7.3 66.1-19.8l60.9 60.9c9.4 9.4 24.6 9.4 33.9 0s9.4-24.6 0-33.9l-60.9-60.9c12.6-19 19.9-41.8 19.9-66.3 0-66.3-53.7-120-120-120s-120 53.7-120 120 53.7 120 120 120z"/></svg>