<svg xmlns="http://www.w3.org/2000/svg" viewBox="0 0 448 512"><path fill="currentColor" d="M112 175c0-74.3 54.1-127 112-127s112 52.7 112 127c0 36.3-18.4 70.9-45.1 101.5-23.8 27.2-51 47.4-66.9 58-15.9-10.6-43-30.8-66.9-58-26.8-30.6-45.1-65.1-45.1-101.5zM224 0c-88.4 0-160 78.3-160 175 0 105.5 105.8 181.8 138.8 203 6.3 4.1 13.7 6 21.2 6s14.9-1.9 21.2-6C278.2 356.8 384 280.5 384 175 384 78.3 312.4 0 224 0zM0 488c0 13.3 10.7 24 24 24s24-10.7 24-24c0-48.6 39.4-88 88-88l14.5 0C135.8 388.9 118.2 374.3 100.7 356.6 42.7 372.2 0 425.1 0 488zm312-88c48.6 0 88 39.4 88 88 0 13.3 10.7 24 24 24s24-10.7 24-24c0-62.9-42.7-115.8-100.7-131.4-17.5 17.7-35.1 32.3-49.8 43.4l14.5 0zM240 228.6c0 6.3 5.1 11.4 11.4 11.4 37.9 0 68.6-30.7 68.6-68.6 0-6.3-5.1-11.4-11.4-11.4-37.9 0-68.6 30.7-68.6 68.6zM139.4 160c-6.3 0-11.4 5.1-11.4 11.4 0 37.9 30.7 68.6 68.6 68.6 6.3 0 11.4-5.1 11.4-11.4 0-37.9-30.7-68.6-68.6-68.6z"/></svg>