<svg xmlns="http://www.w3.org/2000/svg" viewBox="0 0 448 512"><path fill="currentColor" d="M215.6-29.7L65.7 11.2C55.3 14 48 23.5 48 34.4 48 42.8 52.4 50.7 59.7 55L80 67.2 80 91.8c0 11.4 6 21.8 16 26.7l0 25.5 0 .3 0 8c0 25.5-10.1 49.9-28.1 67.9L54.6 233.4c-4.2 4.2-6.6 10-6.6 16 0 12.5 10.1 22.6 22.6 22.6l306.7 0c12.5 0 22.6-10.1 22.6-22.6 0-6-2.4-11.8-6.6-16l-13.3-13.3c-18-18-28.1-42.4-28.1-67.9l0-33.7c10-5 16-15.4 16-26.7l0-24.6 20.3-12.2c7.2-4.3 11.7-12.2 11.7-20.6 0-10.8-7.3-20.4-17.7-23.2L232.4-29.7c-5.5-1.5-11.3-1.5-16.8 0zM304 144c0 44.2-35.8 80-80 80s-80-35.8-80-80l0-10.3c23.2 5.7 50.9 10.3 80 10.3s56.8-4.6 80-10.3l0 10.3zM139 307.9C59.6 324.9 0 395.5 0 480l0 8c0 13.3 10.7 24 24 24s24-10.7 24-24l0-8c0-56.8 37.1-105.1 88.4-121.8l70.2 74.2c4.5 4.8 10.8 7.5 17.4 7.5s12.9-2.7 17.4-7.5l70.2-74.2C362.9 374.9 400 423.2 400 480l0 8c0 13.3 10.7 24 24 24s24-10.7 24-24l0-8c0-84.5-59.6-155.1-139-172.1-8.2-1.8-16.7 .9-22.5 7l-62.6 66.2-62.6-66.2c-5.8-6.1-14.3-8.7-22.5-7zM320 480c17.7 0 32-14.3 32-32s-14.3-32-32-32-32 14.3-32 32 14.3 32 32 32zM229.7 29.7l28.7 28.7c3.1 3.1 3.1 8.2 0 11.3L229.7 98.3c-3.1 3.1-8.2 3.1-11.3 0L189.7 69.7c-3.1-3.1-3.1-8.2 0-11.3l28.7-28.7c3.1-3.1 8.2-3.1 11.3 0z"/></svg>