<svg xmlns="http://www.w3.org/2000/svg" viewBox="0 0 448 512"><path fill="currentColor" d="M65.7 11.2L215.6-29.7c5.5-1.5 11.3-1.5 16.8 0L382.3 11.2c10.5 2.9 17.7 12.4 17.7 23.2 0 8.5-4.4 16.3-11.7 20.6L368 67.2 368 91.8c0 11.4-6 21.8-16 26.7l0 33.7c0 25.5 10.1 49.9 28.1 67.9l13.3 13.3c4.2 4.2 6.6 10 6.6 16 0 12.5-10.1 22.6-22.6 22.6L70.6 272c-12.5 0-22.6-10.1-22.6-22.6 0-6 2.4-11.8 6.6-16l13.3-13.3c18-18 28.1-42.4 28.1-67.9l0-33.7c-10-5-16-15.4-16-26.7L80 67.2 59.7 55C52.4 50.7 48 42.8 48 34.4 48 23.5 55.3 14 65.7 11.2zM304 144l0-10.3c-23.2 5.7-50.9 10.3-80 10.3s-56.8-4.6-80-10.3l0 10.3c0 44.2 35.8 80 80 80s80-35.8 80-80zM161.4 314.9l62.6 66.2 62.6-66.2c5.8-6.1 14.3-8.7 22.5-7 79.4 17 139 87.6 139 172.1l0 8c0 13.3-10.7 24-24 24s-24-10.7-24-24l0-8-56 0c-13.3 0-24-10.7-24-24s10.7-24 24-24l46.7 0c-14.1-34.8-43.1-62.1-79.1-73.8L248 425.5 248 488c0 13.3-10.7 24-24 24s-24-10.7-24-24l0-62.5-63.6-67.3C85.1 374.9 48 423.2 48 480l0 8c0 13.3-10.7 24-24 24S0 501.3 0 488l0-8c0-84.5 59.6-155.1 139-172.1 8.2-1.8 16.7 .9 22.5 7zM183.2 33.7c-7.9-4-17.5-.7-21.5 7.2s-.7 17.5 7.2 21.5l48 24c4.5 2.3 9.8 2.3 14.3 0l48-24c7.9-4 11.1-13.6 7.2-21.5s-13.6-11.1-21.5-7.2L224 54.1 183.2 33.7z"/></svg>