<svg xmlns="http://www.w3.org/2000/svg" viewBox="0 0 640 512"><path fill="currentColor" d="M73.5-24.9c-9.4-9.4-24.6-9.4-33.9 0S30.2-.3 39.5 9.1l528 528c9.4 9.4 24.6 9.4 33.9 0s9.4-24.6 0-33.9L337.1 238.8c54-8 95.4-54.6 95.4-110.8 0-61.9-50.1-112-112-112-56.2 0-102.7 41.4-110.8 95.4L73.5-24.9zM636.1 469.8c2.7-3.9 4.4-8.7 4.4-13.8 0-83.1-66.6-150.6-149.3-152-.9 0-1.8 0-2.7 0l-18.2 0 54.5 54.5c28.2 10.5 50.6 32.9 61.1 61.1l50.2 50.2zM206.8 244.1l-37-37c-3 .6-6.1 .9-9.3 .9-26.5 0-48-21.5-48-48 0-3.2 .3-6.3 .9-9.3l-37-37c-7.6 13.7-11.9 29.5-11.9 46.3 0 53 43 96 96 96 16.8 0 32.6-4.3 46.3-11.9zM298.7 336l-42.6-42.6C191.8 311.1 144.5 370 144.5 440l0 16c0 13.3 10.7 24 24 24s24-10.7 24-24l0-16c0-57.4 46.6-104 104-104l2.2 0zM256.5 128a64 64 0 1 1 128 0 64 64 0 1 1 -128 0zm204.8 76c-7.8 14.4-17.7 27.5-29.4 38.8 14.2 8.4 30.9 13.2 48.6 13.2 53 0 96-43 96-96s-43-96-96-96c-4.4 0-8.7 .3-12.9 .9 6.3 14.7 10.5 30.6 12.2 47.1l.8 0c26.5 0 48 21.5 48 48s-21.5 48-48 48c-6.8 0-13.3-1.4-19.2-4zM.5 456c0 13.3 10.7 24 24 24s24-10.7 24-24c0-43.6 26.8-80.9 64.8-96.4 9-20.6 21.5-39.4 36.5-55.6-82.7 1.4-149.3 68.9-149.3 152z"/></svg>