<svg xmlns="http://www.w3.org/2000/svg" viewBox="0 0 448 512"><path fill="currentColor" d="M168 368c-66.3 0-120 53.7-120 120 0 13.3-10.7 24-24 24S0 501.3 0 488c0-92.8 75.2-168 168-168l112 0c92.8 0 168 75.2 168 168 0 13.3-10.7 24-24 24s-24-10.7-24-24c0-66.3-53.7-120-120-120l-112 0zM304 128c0-18-5.9-34.6-16-48l0 0-38.4 28.8C233 121.3 212.8 128 192 128l-48 0 0 16c0 44.2 35.8 80 80 80s80-35.8 80-80l0-16zM96 128C96 57.3 153.3 0 224 0S352 57.3 352 128l0 16c0 70.7-57.3 128-128 128S96 214.7 96 144l0-16z"/></svg>