<svg xmlns="http://www.w3.org/2000/svg" viewBox="0 0 448 512"><path fill="currentColor" d="M215.6-29.7L65.7 11.2C55.3 14 48 23.5 48 34.4 48 42.8 52.4 50.7 59.7 55L80 67.2 80 91.8c0 11.4 6 21.8 16 26.7L96 144c0 70.7 57.3 128 128 128s128-57.3 128-128l0-25.5c10-5 16-15.4 16-26.7l0-24.6 20.3-12.2c7.2-4.3 11.7-12.2 11.7-20.6 0-10.8-7.3-20.4-17.7-23.2L232.4-29.7c-5.5-1.5-11.3-1.5-16.8 0zM144 133.7c23.2 5.7 50.9 10.3 80 10.3s56.8-4.6 80-10.3l0 10.3c0 44.2-35.8 80-80 80s-80-35.8-80-80l0-10.3zm-5 174.2C59.6 324.9 0 395.5 0 480l0 8c0 13.3 10.7 24 24 24s24-10.7 24-24l0-8c0-56.8 37.1-105.1 88.4-121.8l63.6 67.3 0 62.5c0 13.3 10.7 24 24 24s24-10.7 24-24l0-62.5 63.6-67.3c36 11.7 65 38.9 79.1 73.8L344 432c-13.3 0-24 10.7-24 24s10.7 24 24 24l56 0 0 8c0 13.3 10.7 24 24 24s24-10.7 24-24l0-8c0-84.5-59.6-155.1-139-172.1-8.2-1.8-16.7 .9-22.5 7l-62.6 66.2-62.6-66.2c-5.8-6.1-14.3-8.7-22.5-7zM183.2 33.7L224 54.1 264.8 33.7c7.9-4 17.5-.7 21.5 7.2s.7 17.5-7.2 21.5l-48 24c-4.5 2.3-9.8 2.3-14.3 0l-48-24c-7.9-4-11.1-13.6-7.2-21.5s13.6-11.1 21.5-7.2z"/></svg>