<svg xmlns="http://www.w3.org/2000/svg" viewBox="0 0 448 512"><path fill="currentColor" d="M352 160a128 128 0 1 0 -256 0 128 128 0 1 0 256 0zM224-16c74.6 0 138.4 46.4 164 112l4 0c13.3 0 24 10.7 24 24l0 80c0 13.3-10.7 24-24 24l-4 0c-25.6 65.6-89.4 112-164 112S85.6 289.6 60 224l-4 0c-13.3 0-24-10.7-24-24l0-80c0-13.3 10.7-24 24-24l4 0C85.6 30.4 149.4-16 224-16zM128 176c0-44.2 35.8-80 80-80l32 0c44.2 0 80 35.8 80 80s-35.8 80-80 80l-32 0c-44.2 0-80-35.8-80-80zm85.3-13.3l-6-21.2c-.9-3.3-3.9-5.5-7.3-5.5s-6.4 2.2-7.3 5.5l-6 21.2-21.2 6c-3.3 .9-5.5 3.9-5.5 7.3s2.2 6.4 5.5 7.3l21.2 6 6 21.2c.9 3.3 3.9 5.5 7.3 5.5s6.4-2.2 7.3-5.5l6-21.2 21.2-6c3.3-.9 5.5-3.9 5.5-7.3s-2.2-6.4-5.5-7.3l-21.2-6zM89.7 339.3c17 12.8 35.9 23.2 56.2 30.7-55.7 10.4-97.9 59.2-97.9 118 0 13.3-10.7 24-24 24S0 501.3 0 488c0-64.5 36.4-120.5 89.7-148.7zM302.1 370c20.3-7.5 39.2-17.9 56.2-30.7 53.4 28.1 89.7 84.2 89.7 148.7 0 13.3-10.7 24-24 24s-24-10.7-24-24c0-58.7-42.2-107.6-97.9-118zM128 432l192 0c17.7 0 32 14.3 32 32l0 48-56 0 0-24c0-13.3-10.7-24-24-24s-24 10.7-24 24l0 24-48 0 0-24c0-13.3-10.7-24-24-24s-24 10.7-24 24l0 24-56 0 0-48c0-17.7 14.3-32 32-32z"/></svg>