<svg xmlns="http://www.w3.org/2000/svg" viewBox="0 0 576 512"><path fill="currentColor" d="M272 48C272 35.4 274.4 23.3 278.9 12.3 262.2 4.4 243.6 0 224 0 153.3 0 96 57.3 96 128s57.3 128 128 128c33.8 0 64.5-13.1 87.4-34.5-13.1-9.6-23.7-22.4-30.5-37.2-14.5 14.6-34.6 23.7-56.8 23.7-44.2 0-80-35.8-80-80s35.8-80 80-80c18 0 34.6 6 48 16l0-16zM168 422.4l0-54.4 96 0 0 41c-21.2 9.3-36 30.4-36 55l0 24c0 11 9 20 20 20s20-9 20-20l0-24c0-11 9-20 20-20s20 9 20 20l0 24c0 11 9 20 20 20s20-9 20-20l0-24c0-24.6-14.8-45.7-36-55l0-36.7c50.7 14 88 60.5 88 115.7 0 13.3 10.7 24 24 24s24-10.7 24-24c0-92.8-75.2-168-168-168l-112 0c-92.8 0-168 75.2-168 168 0 13.3 10.7 24 24 24s24-10.7 24-24c0-49.2 29.6-91.5 72-110l0 44.4c-14.3 8.3-24 23.8-24 41.6 0 26.5 21.5 48 48 48s48-21.5 48-48c0-17.8-9.7-33.3-24-41.6zM320 48l0 96c0 26.5 21.5 48 48 48l16 0 0 41.4c0 14.3 17.2 21.4 27.3 11.3l52.7-52.7 64 0c26.5 0 48-21.5 48-48l0-96c0-26.5-21.5-48-48-48L368 0c-26.5 0-48 21.5-48 48z"/></svg>