<svg xmlns="http://www.w3.org/2000/svg" viewBox="0 0 448 512"><path fill="currentColor" d="M248 24c0-13.3-10.7-24-24-24s-24 10.7-24 24l0 40-56 0c-44.2 0-80 35.8-80 80l0 24-24 0c-13.3 0-24 10.7-24 24s10.7 24 24 24l24 0 0 24c0 44.2 35.8 80 80 80l160 0c44.2 0 80-35.8 80-80l0-24 24 0c13.3 0 24-10.7 24-24s-10.7-24-24-24l-24 0 0-24c0-44.2-35.8-80-80-80l-56 0 0-40zm88 120l0 96c0 17.7-14.3 32-32 32l-160 0c-17.7 0-32-14.3-32-32l0-96c0-17.7 14.3-32 32-32l160 0c17.7 0 32 14.3 32 32zM48 448c0-26.5 21.5-48 48-48l256 0c26.5 0 48 21.5 48 48l0 40c0 13.3 10.7 24 24 24s24-10.7 24-24l0-40c0-53-43-96-96-96L96 352c-53 0-96 43-96 96l0 40c0 13.3 10.7 24 24 24s24-10.7 24-24l0-40zm120 24c0-13.3-10.7-24-24-24s-24 10.7-24 24l0 16c0 13.3 10.7 24 24 24s24-10.7 24-24l0-16zm56-24c-13.3 0-24 10.7-24 24l0 16c0 13.3 10.7 24 24 24s24-10.7 24-24l0-16c0-13.3-10.7-24-24-24zm104 24c0-13.3-10.7-24-24-24s-24 10.7-24 24l0 16c0 13.3 10.7 24 24 24s24-10.7 24-24l0-16zM208 176a32 32 0 1 0 -64 0 32 32 0 1 0 64 0zm64 32a32 32 0 1 0 0-64 32 32 0 1 0 0 64z"/></svg>