<svg xmlns="http://www.w3.org/2000/svg" viewBox="0 0 448 512"><path fill="currentColor" d="M115.2 15.6l96-42c8.2-3.6 17.5-3.6 25.7 0l96 42C344.5 20.7 352 32.2 352 44.9l0 99.1c0 70.7-57.3 128-128 128S96 214.7 96 144l0-99.1c0-12.7 7.5-24.2 19.2-29.3zM249.6 140.8C233 153.3 212.8 160 192 160l-46.4 0c7.4 36.5 39.7 64 78.4 64 44.2 0 80-35.8 80-80l0-16-37.3 0-17.1 12.8zM139 307.9c8.2-1.8 16.7 .9 22.5 7l62.6 66.2 62.6-66.2c5.8-6.1 14.3-8.7 22.5-7 79.4 17 139 87.6 139 172.1l0 8c0 13.3-10.7 24-24 24s-24-10.7-24-24l0-8c0-56.8-37.1-105.1-88.4-121.8l-70.2 74.2c-4.5 4.8-10.8 7.5-17.4 7.5s-12.9-2.7-17.4-7.5l-70.2-74.2C85.1 374.9 48 423.2 48 480l0 8c0 13.3-10.7 24-24 24S0 501.3 0 488l0-8c0-84.5 59.6-155.1 139-172.1zM208 16l0 16-16 0c-4.4 0-8 3.6-8 8l0 16c0 4.4 3.6 8 8 8l16 0 0 16c0 4.4 3.6 8 8 8l16 0c4.4 0 8-3.6 8-8l0-16 16 0c4.4 0 8-3.6 8-8l0-16c0-4.4-3.6-8-8-8l-16 0 0-16c0-4.4-3.6-8-8-8L216 8c-4.4 0-8 3.6-8 8z"/></svg>