<svg xmlns="http://www.w3.org/2000/svg" viewBox="0 0 640 512"><path fill="currentColor" d="M256.5 128a64 64 0 1 1 128 0 64 64 0 1 1 -128 0zm176 0a112 112 0 1 0 -224 0 112 112 0 1 0 224 0zm-240 312c0-57.4 46.6-104 104-104l48 0c3.8 0 7.6 .2 11.3 .6 5.6-11.1 12.4-21.6 20.2-31.2 3.5-4.4 7.5-8.1 11.7-11.2-13.7-4-28.2-6.2-43.2-6.2l-48 0c-83.9 0-152 68.1-152 152l0 16c0 13.3 10.7 24 24 24s24-10.7 24-24l0-16zM532 241c26.8-17 44.5-47 44.5-81 0-53-43-96-96-96-4.4 0-8.7 .3-12.9 .9 6.3 14.7 10.5 30.6 12.2 47.1l.8 0c26.5 0 48 21.5 48 48s-21.5 48-48 48c-6.8 0-13.3-1.4-19.2-4-7.8 14.4-17.7 27.5-29.4 38.8 8.1 4.8 17 8.4 26.4 10.6 7.6-5.6 16.7-9.7 27.3-11.3 15.1-2.4 31-2.7 46.3-1.1zM173.4 64.9c-4.2-.6-8.5-.9-12.9-.9-53 0-96 43-96 96s43 96 96 96c17.7 0 34.3-4.8 48.6-13.2-11.7-11.3-21.6-24.4-29.4-38.8-5.9 2.6-12.4 4-19.2 4-26.5 0-48-21.5-48-48s21.5-48 48-48l.8 0c1.6-16.6 5.8-32.4 12.1-47.1zM.5 456c0 13.3 10.7 24 24 24s24-10.7 24-24c0-43.6 26.8-80.9 64.8-96.4 9-20.6 21.5-39.4 36.5-55.6-82.7 1.4-149.3 68.9-149.3 152zm624.6-68.1c6.3-3.6 9.5-11.1 6.8-18-4.8-12.4-11.5-24.1-19.9-34.4-4.6-5.7-12.7-6.7-19-3-21.8 12.6-48.6-2.8-48.6-28.1 0-7.3-4.9-13.8-12.1-14.9-12.9-2-26.8-2-39.7 0-7.2 1.1-12.1 7.6-12.1 14.9 0 25.2-26.8 40.7-48.6 28.1-6.3-3.6-14.4-2.6-19 3-8.4 10.3-15.1 22-19.9 34.4-2.6 6.8 .5 14.3 6.8 17.9 21.9 12.6 21.9 43.5 0 56.2-6.3 3.6-9.5 11.1-6.8 17.9 4.8 12.4 11.5 24.1 19.9 34.4 4.6 5.7 12.7 6.7 19 3 21.8-12.6 48.6 2.9 48.6 28.1 0 7.3 4.9 13.8 12.1 14.9 12.9 2 26.8 2 39.7 0 7.2-1.1 12.1-7.6 12.1-14.9 0-25.2 26.8-40.7 48.6-28.1 6.3 3.6 14.4 2.6 19-3 8.4-10.3 15.1-22 19.9-34.4 2.6-6.8-.5-14.3-6.8-17.9-21.9-12.6-21.9-43.5 0-56.2zM472.5 416a40 40 0 1 1 80 0 40 40 0 1 1 -80 0z"/></svg>