<svg xmlns="http://www.w3.org/2000/svg" viewBox="0 0 448 512"><path fill="currentColor" d="M304 144c0 44.2-35.8 80-80 80s-80-35.8-80-80l0-16 48 0c20.8 0 41-6.7 57.6-19.2L288 80 288 80c10 13.4 16 30 16 48l0 16zM224 0C153.3 0 96 57.3 96 128l0 16c0 70.7 57.3 128 128 128s128-57.3 128-128l0-16C352 57.3 294.7 0 224 0zM168 422.4l0-54.4 96 0 0 41c-21.2 9.3-36 30.4-36 55l0 24c0 11 9 20 20 20s20-9 20-20l0-24c0-11 9-20 20-20s20 9 20 20l0 24c0 11 9 20 20 20s20-9 20-20l0-24c0-24.6-14.8-45.7-36-55l0-36.7c50.7 14 88 60.5 88 115.7 0 13.3 10.7 24 24 24s24-10.7 24-24c0-92.8-75.2-168-168-168l-112 0c-92.8 0-168 75.2-168 168 0 13.3 10.7 24 24 24s24-10.7 24-24c0-49.2 29.6-91.5 72-110l0 44.4c-14.3 8.3-24 23.8-24 41.6 0 26.5 21.5 48 48 48s48-21.5 48-48c0-17.8-9.7-33.3-24-41.6z"/></svg>