<svg xmlns="http://www.w3.org/2000/svg" viewBox="0 0 448 512"><path fill="currentColor" d="M215.6-29.7L65.7 11.2C55.3 14 48 23.5 48 34.4 48 42.8 52.4 50.7 59.7 55L80 67.2 80 91.8c0 11.4 6 21.8 16 26.7L96 144c0 70.7 57.3 128 128 128s128-57.3 128-128l0-25.5c10-5 16-15.4 16-26.7l0-24.6 20.3-12.2c7.2-4.3 11.7-12.2 11.7-20.6 0-10.8-7.3-20.4-17.7-23.2L232.4-29.7c-5.5-1.5-11.3-1.5-16.8 0zM144 133.7c23.2 5.7 50.9 10.3 80 10.3s56.8-4.6 80-10.3l0 10.3c0 44.2-35.8 80-80 80s-80-35.8-80-80l0-10.3zM254.5 304l-61 0c-9.7 0-17.5 7.8-17.5 17.5 0 4.2 1.5 8.2 4.2 11.4l27.2 31.8-18.5 67.8-55.9-102C127 319.5 113.3 315 101.9 320.3 41.8 348.3 0 409.2 0 480l0 8c0 13.3 10.7 24 24 24s24-10.7 24-24l0-8c0-43.4 21.6-81.8 54.7-105L171 499.5c4.2 7.7 12.3 12.5 21 12.5l64 0c8.8 0 16.8-4.8 21-12.5L345.3 375c33.1 23.2 54.7 61.6 54.7 105l0 8c0 13.3 10.7 24 24 24s24-10.7 24-24l0-8c0-70.8-41.8-131.7-101.9-159.7-11.5-5.3-25.1-.9-31.2 10.2l-56.2 102.5-18.4-68.2 27.4-32c2.7-3.2 4.2-7.2 4.2-11.4 0-9.7-7.8-17.5-17.5-17.5zM229.7 29.7l28.7 28.7c3.1 3.1 3.1 8.2 0 11.3L229.7 98.3c-3.1 3.1-8.2 3.1-11.3 0L189.7 69.7c-3.1-3.1-3.1-8.2 0-11.3l28.7-28.7c3.1-3.1 8.2-3.1 11.3 0z"/></svg>