<svg xmlns="http://www.w3.org/2000/svg" viewBox="0 0 448 512"><path fill="currentColor" d="M304 128c0-20.2-7.5-38.6-19.8-52.7l-33.1 28.9c-17.5 15.3-40 23.8-63.2 23.8l-43.9 0 0 16c0 44.2 35.8 80 80 80s80-35.8 80-80l0-16zM96 128c0-38.9 17.4-73.8 44.8-97.3 3.6-3.8 7.9-7.1 12.6-9.5 20.2-13.4 44.5-21.2 70.6-21.2 70.7 0 128 57.3 128 128l0 24.2c0 25.5 10.1 49.9 28.1 67.9l13.3 13.3c4.2 4.2 6.6 10 6.6 16 0 12.5-10.1 22.6-22.6 22.6L70.6 272c-12.5 0-22.6-10.1-22.6-22.6 0-6 2.4-11.8 6.6-16l13.3-13.3c18-18 28.1-42.4 28.1-67.9L96 128zm72 294.4c14.3 8.3 24 23.8 24 41.6 0 26.5-21.5 48-48 48s-48-21.5-48-48c0-17.8 9.7-33.3 24-41.6l0-44.4c-42.4 18.5-72 60.8-72 110 0 13.3-10.7 24-24 24S0 501.3 0 488c0-92.8 75.2-168 168-168l112 0c92.8 0 168 75.2 168 168 0 13.3-10.7 24-24 24s-24-10.7-24-24c0-55.2-37.3-101.7-88-115.7l0 36.7c21.2 9.3 36 30.4 36 55l0 24c0 11-9 20-20 20s-20-9-20-20l0-24c0-11-9-20-20-20s-20 9-20 20l0 24c0 11-9 20-20 20s-20-9-20-20l0-24c0-24.6 14.8-45.7 36-55l0-41-96 0 0 54.4z"/></svg>