<svg xmlns="http://www.w3.org/2000/svg" viewBox="0 0 448 512"><path fill="currentColor" d="M144 144c0 44.2 35.8 80 80 80s80-35.8 80-80l0-32-17.9 0c-27.5 0-52-17.6-60.7-43.8l-1.4-4.2-1.4 4.2c-8.7 26.1-33.2 43.8-60.7 43.8l-17.9 0 0 32zm208 0c0 24.7-7 47.8-19.1 67.3l15 22.5c2.7 4 4.1 8.8 4.1 13.6 0 13.6-11 24.6-24.6 24.6l-206.9 0c-13.6 0-24.6-11-24.6-24.6 0-4.8 1.4-9.6 4.1-13.6l15-22.5C103 191.8 96 168.7 96 144l0-32 0-1.4c-9.3-3.3-16-12.2-16-22.6 0-13.3 10.7-24 24-24 .9 0 1.8 .1 2.7 .2 17.9-37.9 56.6-64.2 101.3-64.2l32 0c44.7 0 83.4 26.2 101.3 64.2 .9-.1 1.8-.2 2.7-.2 13.3 0 24 10.7 24 24 0 10.5-6.7 19.3-16 22.6l0 1.4 0 32zM193.5 304l61 0c9.7 0 17.5 7.8 17.5 17.5 0 4.2-1.5 8.2-4.2 11.4l-27.4 32 18.4 68.2 56.2-102.5C321 319.5 334.7 315 346.1 320.3 406.2 348.3 448 409.2 448 480l0 8c0 13.3-10.7 24-24 24s-24-10.7-24-24l0-8c0-43.4-21.6-81.8-54.7-105L277 499.5c-4.2 7.7-12.3 12.5-21 12.5l-64 0c-8.8 0-16.8-4.8-21-12.5L102.7 375C69.6 398.2 48 436.6 48 480l0 8c0 13.3-10.7 24-24 24S0 501.3 0 488l0-8c0-70.8 41.8-131.7 101.9-159.7 11.5-5.3 25.1-.9 31.2 10.2l55.9 102 18.5-67.8-27.2-31.8c-2.7-3.2-4.2-7.2-4.2-11.4 0-9.7 7.8-17.5 17.5-17.5z"/></svg>