<svg xmlns="http://www.w3.org/2000/svg" viewBox="0 0 640 512"><path fill="currentColor" d="M256 128a64 64 0 1 1 128 0 64 64 0 1 1 -128 0zm176 0a112 112 0 1 0 -224 0 112 112 0 1 0 224 0zM192 440c0-57.4 46.6-104 104-104l18.9 0c6.1-17.3 14.6-33.4 25.1-48l-44 0c-83.9 0-152 68.1-152 152l0 16c0 13.3 10.7 24 24 24s24-10.7 24-24l0-16zM556.7 217.8c12.1-16.1 19.3-36.1 19.3-57.8 0-53-43-96-96-96-4.4 0-8.7 .3-12.9 .9 6.3 14.7 10.5 30.6 12.2 47.1l.8 0c26.5 0 48 21.5 48 48 0 17.8-9.7 33.3-24 41.6l0 6.6c18.3 .8 36 4.1 52.7 9.6zM172.9 64.9c-4.2-.6-8.5-.9-12.9-.9-53 0-96 43-96 96s43 96 96 96c17.7 0 34.3-4.8 48.6-13.2-11.7-11.3-21.6-24.4-29.4-38.8-5.9 2.6-12.4 4-19.2 4-26.5 0-48-21.5-48-48s21.5-48 48-48l.8 0c1.6-16.6 5.8-32.4 12.1-47.1zM0 456c0 13.3 10.7 24 24 24s24-10.7 24-24c0-43.6 26.8-80.9 64.8-96.4 9-20.6 21.5-39.4 36.5-55.6-82.7 1.4-149.3 68.9-149.3 152zm496 88a144 144 0 1 0 0-288 144 144 0 1 0 0 288zM485.3 320l21.3 0c8.8 0 16 7.2 16 16l0 37.3 37.3 0c8.8 0 16 7.2 16 16l0 21.3c0 8.8-7.2 16-16 16l-37.3 0 0 37.3c0 8.8-7.2 16-16 16l-21.3 0c-8.8 0-16-7.2-16-16l0-37.3-37.3 0c-8.8 0-16-7.2-16-16l0-21.3c0-8.8 7.2-16 16-16l37.3 0 0-37.3c0-8.8 7.2-16 16-16z"/></svg>