<svg xmlns="http://www.w3.org/2000/svg" viewBox="0 0 576 512"><path fill="currentColor" d="M304 128a80 80 0 1 0 -160 0 80 80 0 1 0 160 0zM96 128a128 128 0 1 1 256 0 128 128 0 1 1 -256 0zM48 480l0 8c0 13.3-10.7 24-24 24S0 501.3 0 488l0-8c0-97.2 78.8-176 176-176l96 0c22.6 0 44.2 4.3 64 12l0 12.4c-9.5 8.5-17.3 18.8-22.8 30.4-12.9-4.4-26.8-6.8-41.2-6.8l-96 0c-70.7 0-128 57.3-128 128zM496 304.1c0-17.7-14.3-32-32-32s-32 14.3-32 32l0 47.9 64 0 0-47.9zM352 400c0-20.9 13.4-38.7 32-45.3l0-50.6c0-44.2 35.8-80 80-80s80 35.8 80 80l0 50.6c18.6 6.6 32 24.4 32 45.3l0 96c0 26.5-21.5 48-48 48l-128 0c-26.5 0-48-21.5-48-48l0-96z"/></svg>