<svg xmlns="http://www.w3.org/2000/svg" viewBox="0 0 448 512"><path fill="currentColor" d="M148 .3c8.8-10 21.7-16.3 36-16.3 16.7 0 31.4 8.5 40 21.5 8.6-12.9 23.3-21.5 40-21.5 14.3 0 27.2 6.3 36 16.3 8.8-10 21.7-16.3 36-16.3 26.5 0 48 21.5 48 48 0 20.9-13.4 38.7-32 45.3l0 66.7c0 70.7-57.3 128-128 128S96 214.7 96 144l0-66.7c-18.6-6.6-32-24.4-32-45.3 0-26.5 21.5-48 48-48 14.3 0 27.2 6.3 36 16.3zM304 128l-160 0 0 16c0 44.2 35.8 80 80 80s80-35.8 80-80l0-16zM80 328c0-7.7 3.7-15 10-19.5s14.3-5.7 21.6-3.3L224 342.7c.8-.3 1.6-.6 2.4-.8l109.9-36.6c7.3-2.4 15.4-1.2 21.6 3.3s10 11.8 10 19.5l0 16.2c48.7 24.1 80 74 80 129l0 14.8c0 13.3-10.7 24-24 24s-24-10.7-24-24l0-14.8c0-39.3-23.9-74.6-60.3-89.1l-4.6-1.8c-8.7-3.5-14.6-11.7-15.1-21l-78.4 26.1c-39.2 13.1-65.6 49.8-65.6 91.1l0 9.5c0 13.3-10.7 24-24 24s-24-10.7-24-24l0-9.5c0-39.6 16.2-76.3 43.2-102.8L128 361.3c-.5 9.3-6.3 17.5-15.1 21l-4.6 1.8C71.9 398.7 48 434 48 473.2L48 488c0 13.3-10.7 24-24 24S0 501.3 0 488l0-14.8c0-55 31.3-104.9 80-129L80 328zM232 480c-13.3 0-24-10.7-24-24s10.7-24 24-24 24 10.7 24 24-10.7 24-24 24zm80 0c-13.3 0-24-10.7-24-24s10.7-24 24-24 24 10.7 24 24-10.7 24-24 24z"/></svg>