<svg xmlns="http://www.w3.org/2000/svg" viewBox="0 0 448 512"><path fill="currentColor" d="M216-32c-13.3 0-24 10.7-24 24l0 72-8 0c-13.3 0-24-10.7-24-24l0-46.9C123.9 14 99 52 96.2 96L96 96c-13.3 0-24 10.7-24 24s10.7 24 24 24c0 70.7 57.3 128 128 128s128-57.3 128-128c13.3 0 24-10.7 24-24s-10.7-24-24-24l-.2 0C349 52 324.1 14 288-6.9L288 40c0 13.3-10.7 24-24 24l-8 0 0-72c0-13.3-10.7-24-24-24l-16 0zm88 176c0 44.2-35.8 80-80 80s-80-35.8-80-80l160 0zM48 488c0-66.3 53.7-120 120-120l112 0c66.3 0 120 53.7 120 120 0 13.3 10.7 24 24 24s24-10.7 24-24c0-92.8-75.2-168-168-168l-112 0c-92.8 0-168 75.2-168 168 0 13.3 10.7 24 24 24s24-10.7 24-24z"/></svg>