<svg xmlns="http://www.w3.org/2000/svg" viewBox="0 0 448 512"><path fill="currentColor" d="M102.7 96c10.4-53.7 31.9-112 68.3-112 9.6 0 19 3.9 27.5 8.2 8.2 4.1 18.4 7.8 25.5 7.8s17.3-3.7 25.5-7.8c8.5-4.3 17.9-8.2 27.5-8.2 36.4 0 57.8 58.3 68.3 112L376 96c13.3 0 24 10.7 24 24s-10.7 24-24 24l-24 0 0 32c0 17-3.3 33.2-9.3 48l33.3 0c8.1 0 15.6 4 20 10.8s5.2 15.2 2.1 22.6l-31.5 74.2c48.9 31.2 81.4 86 81.4 148.5l0 8c0 13.3-10.7 24-24 24s-24-10.7-24-24l0-8c0-51.4-30.3-95.8-74.1-116.1-11.7-5.5-17-19.2-12-31.2l25.8-60.7-27.7 0c-1.1 0-2.1-.1-3.1-.2-22.6 20-52.3 32.2-84.9 32.2s-62.3-12.2-84.9-32.2c-1 .1-2.1 .2-3.1 .2l-27.7 0 25.8 60.7c5.1 11.9-.2 25.7-12 31.2-43.8 20.4-74.1 64.7-74.1 116.1l0 8c0 13.3-10.7 24-24 24S0 501.3 0 488l0-8c0-62.4 32.5-117.2 81.4-148.5L49.9 257.4c-3.2-7.4-2.4-15.9 2.1-22.6S63.9 224 72 224l33.3 0c-6-14.8-9.3-31-9.3-48l0-32-24 0c-13.3 0-24-10.7-24-24S58.7 96 72 96l30.7 0zm45.9 107c11.1 30.9 40.6 53 75.3 53s64.2-22.1 75.3-53c-5.7 3.2-12.3 5-19.3 5l-12.4 0c-16.5 0-31.1-10.6-36.3-26.2-2.3-7-12.2-7-14.5 0-5.2 15.6-19.9 26.2-36.3 26.2L168 208c-7 0-13.6-1.8-19.3-5zm44.8 133l61 0c9.7 0 17.5 7.8 17.5 17.5 0 4.2-1.5 8.2-4.2 11.4l-27.9 32.5 28.9 82.6c5.5 15.6-6.1 31.9-22.7 31.9l-44.3 0c-16.5 0-28.1-16.3-22.7-31.9l28.9-82.6-27.9-32.5c-2.7-3.2-4.2-7.2-4.2-11.4 0-9.7 7.8-17.5 17.5-17.5z"/></svg>