<svg xmlns="http://www.w3.org/2000/svg" viewBox="0 0 448 512"><path fill="currentColor" d="M65.7 11.2L215.6-29.7c5.5-1.5 11.3-1.5 16.8 0L382.3 11.2c10.5 2.9 17.7 12.4 17.7 23.2 0 8.5-4.4 16.3-11.7 20.6L368 67.2 368 91.8c0 11.4-6 21.8-16 26.7l0 25.5c0 70.7-57.3 128-128 128S96 214.7 96 144l0-25.5c-10-5-16-15.4-16-26.7L80 67.2 59.7 55C52.4 50.7 48 42.8 48 34.4 48 23.5 55.3 14 65.7 11.2zM224 144c-29.1 0-56.8-4.6-80-10.3l0 10.3c0 44.2 35.8 80 80 80s80-35.8 80-80l0-10.3c-23.2 5.7-50.9 10.3-80 10.3zM193.5 304l61 0c9.7 0 17.5 7.8 17.5 17.5 0 4.2-1.5 8.2-4.2 11.4l-27.4 32 18.4 68.2 56.2-102.5C321 319.5 334.7 315 346.1 320.3 406.2 348.3 448 409.2 448 480l0 8c0 13.3-10.7 24-24 24s-24-10.7-24-24l0-8-40 0c-13.3 0-24-10.7-24-24s10.7-24 24-24l30.7 0c-9.3-23.1-25.2-42.8-45.4-57L277 499.5c-4.2 7.7-12.3 12.5-21 12.5l-64 0c-8.8 0-16.8-4.8-21-12.5L102.7 375C69.6 398.2 48 436.6 48 480l0 8c0 13.3-10.7 24-24 24S0 501.3 0 488l0-8c0-70.8 41.8-131.7 101.9-159.7 11.5-5.3 25.1-.9 31.2 10.2l55.9 102 18.5-67.8-27.2-31.8c-2.7-3.2-4.2-7.2-4.2-11.4 0-9.7 7.8-17.5 17.5-17.5zM183.2 33.7c-7.9-4-17.5-.7-21.5 7.2s-.7 17.5 7.2 21.5l48 24c4.5 2.3 9.8 2.3 14.3 0l48-24c7.9-4 11.1-13.6 7.2-21.5s-13.6-11.1-21.5-7.2L224 54.1 183.2 33.7z"/></svg>