<svg xmlns="http://www.w3.org/2000/svg" viewBox="0 0 448 512"><path fill="currentColor" d="M206.7-13c11.4-2.3 23.1-2.3 34.5 0L428.7 24.5C439.9 26.7 448 36.6 448 48s-8.1 21.3-19.3 23.5L352 86.9 352 148c0 68.5-55.5 124-124 124S104 216.5 104 148l0-59.5-56-11.2 0 66.7 15.7 78.6c.2 .9 .3 1.9 .3 2.9 0 8-6.5 14.6-14.6 14.6l-34.9 0c-8 0-14.6-6.5-14.6-14.6 0-1 .1-1.9 .3-2.9L16 144 16 70.6C6.5 67.3 0 58.3 0 48 0 36.6 8.1 26.7 19.3 24.5L206.7-13zM152 144l0 4c0 42 34 76 76 76s76-34 76-76l0-4-152 0zM139 307.9c8.2-1.8 16.7 .9 22.5 7l62.6 66.2 62.6-66.2c5.8-6.1 14.3-8.7 22.5-7 79.4 17 139 87.6 139 172.1l0 8c0 13.3-10.7 24-24 24s-24-10.7-24-24l0-8c0-56.8-37.1-105.1-88.4-121.8L248 425.5 248 488c0 13.3-10.7 24-24 24s-24-10.7-24-24l0-62.5-63.6-67.3C85.1 374.9 48 423.2 48 480l0 8c0 13.3-10.7 24-24 24S0 501.3 0 488l0-8c0-84.5 59.6-155.1 139-172.1z"/></svg>