<svg xmlns="http://www.w3.org/2000/svg" viewBox="0 0 448 512"><path fill="currentColor" d="M304 128l0 16c0 44.2-35.8 80-80 80s-80-35.8-80-80l0-16c0-5.5 .6-10.8 1.6-16l6.4 0c31.7 0 59-18.4 72-45.1 13 26.7 40.3 45.1 72 45.1l6.4 0c1 5.2 1.6 10.5 1.6 16zM84 192c7 0 13.7-1.6 19.6-4.6 17.8 49.3 65 84.6 120.4 84.6s102.7-35.3 120.4-84.6c5.9 2.9 12.5 4.6 19.6 4.6 24.3 0 44-19.7 44-44l0-40c0-24.3-19.7-44-44-44-9.3 0-17.9 2.9-25 7.8-20.8-42.5-64.5-71.8-115-71.8S129.8 29.3 109 71.8c-7.1-4.9-15.7-7.8-25-7.8-24.3 0-44 19.7-44 44l0 40c0 24.3 19.7 44 44 44zM48 488c0-66.3 53.7-120 120-120l112 0c66.3 0 120 53.7 120 120 0 13.3 10.7 24 24 24s24-10.7 24-24c0-92.8-75.2-168-168-168l-112 0c-92.8 0-168 75.2-168 168 0 13.3 10.7 24 24 24s24-10.7 24-24z"/></svg>