<svg xmlns="http://www.w3.org/2000/svg" viewBox="0 0 448 512"><path fill="currentColor" d="M215.6-29.7L65.7 11.2C55.3 14 48 23.5 48 34.4 48 42.8 52.4 50.7 59.7 55L80 67.2 80 91.8c0 11.4 6 21.8 16 26.7l0 33.7c0 25.5-10.1 49.9-28.1 67.9L54.6 233.4c-4.2 4.2-6.6 10-6.6 16 0 12.5 10.1 22.6 22.6 22.6l306.7 0c12.5 0 22.6-10.1 22.6-22.6 0-6-2.4-11.8-6.6-16l-13.3-13.3c-18-18-28.1-42.4-28.1-67.9l0-33.7c10-5 16-15.4 16-26.7l0-24.6 20.3-12.2c7.2-4.3 11.7-12.2 11.7-20.6 0-10.8-7.3-20.4-17.7-23.2L232.4-29.7c-5.5-1.5-11.3-1.5-16.8 0zM304 144c0 44.2-35.8 80-80 80s-80-35.8-80-80l0-10.3c23.2 5.7 50.9 10.3 80 10.3s56.8-4.6 80-10.3l0 10.3zM193.5 304c-9.7 0-17.5 7.8-17.5 17.5 0 4.2 1.5 8.2 4.2 11.4l27.2 31.8-18.5 67.8-55.9-102C127 319.5 113.3 315 101.9 320.3 41.8 348.3 0 409.2 0 480l0 8c0 13.3 10.7 24 24 24s24-10.7 24-24l0-8c0-43.4 21.6-81.8 54.7-105L171 499.5c4.2 7.7 12.3 12.5 21 12.5l64 0c8.8 0 16.8-4.8 21-12.5L345.3 375c20.2 14.1 36.1 33.9 45.4 57L360 432c-13.3 0-24 10.7-24 24s10.7 24 24 24l40 0 0 8c0 13.3 10.7 24 24 24s24-10.7 24-24l0-8c0-70.8-41.8-131.7-101.9-159.7-11.5-5.3-25.1-.9-31.2 10.2l-56.2 102.5-18.4-68.2 27.4-32c2.7-3.2 4.2-7.2 4.2-11.4 0-9.7-7.8-17.5-17.5-17.5l-61 0zM183.2 33.7L224 54.1 264.8 33.7c7.9-4 17.5-.7 21.5 7.2s.7 17.5-7.2 21.5l-48 24c-4.5 2.3-9.8 2.3-14.3 0l-48-24c-7.9-4-11.1-13.6-7.2-21.5s13.6-11.1 21.5-7.2z"/></svg>