<svg xmlns="http://www.w3.org/2000/svg" viewBox="0 0 448 512"><path fill="currentColor" d="M65.7 11.2L215.6-29.7c5.5-1.5 11.3-1.5 16.8 0L382.3 11.2c10.5 2.9 17.7 12.4 17.7 23.2 0 8.5-4.4 16.3-11.7 20.6L368 67.2 368 91.8c0 11.4-6 21.8-16 26.7l0 25.5c0 70.7-57.3 128-128 128S96 214.7 96 144l0-25.5c-10-5-16-15.4-16-26.7L80 67.2 59.7 55C52.4 50.7 48 42.8 48 34.4 48 23.5 55.3 14 65.7 11.2zM224 144c-29.1 0-56.8-4.6-80-10.3l0 10.3c0 44.2 35.8 80 80 80s80-35.8 80-80l0-10.3c-23.2 5.7-50.9 10.3-80 10.3zM161.4 314.9l62.6 66.2 62.6-66.2c5.8-6.1 14.3-8.7 22.5-7 79.4 17 139 87.6 139 172.1l0 8c0 13.3-10.7 24-24 24s-24-10.7-24-24l0-8c0-56.8-37.1-105.1-88.4-121.8l-70.2 74.2c-4.5 4.8-10.8 7.5-17.4 7.5s-12.9-2.7-17.4-7.5l-70.2-74.2C85.1 374.9 48 423.2 48 480l0 8c0 13.3-10.7 24-24 24S0 501.3 0 488l0-8c0-84.5 59.6-155.1 139-172.1 8.2-1.8 16.7 .9 22.5 7zM352 448c0 17.7-14.3 32-32 32s-32-14.3-32-32 14.3-32 32-32 32 14.3 32 32zM229.7 29.7c-3.1-3.1-8.2-3.1-11.3 0L189.7 58.3c-3.1 3.1-3.1 8.2 0 11.3l28.7 28.7c3.1 3.1 8.2 3.1 11.3 0l28.7-28.7c3.1-3.1 3.1-8.2 0-11.3L229.7 29.7z"/></svg>