<svg xmlns="http://www.w3.org/2000/svg" viewBox="0 0 576 512"><path fill="currentColor" d="M128 144c0 44.2 35.8 80 80 80s80-35.8 80-80l-160 0zm-48 0L80 16C80 7.2 87.2 0 96 0l3.2 0c3.2 0 6.2 .9 8.9 2.7l20 13.3 2.2 1.4c12.7 8.5 29.6 6.8 40.4-4l23.8-23.8C198-14 202.9-16 208-16s10 2 13.7 5.7l23.8 23.8c10.8 10.8 27.7 12.5 40.4 4L288 16 308 2.7c2.6-1.8 5.7-2.7 8.9-2.7L320 0c8.8 0 16 7.2 16 16l0 128c0 70.7-57.3 128-128 128S80 214.7 80 144zm88 224c-66.3 0-120 53.7-120 120 0 13.3-10.7 24-24 24S0 501.3 0 488c0-92.8 75.2-168 168-168l80 0c92.8 0 168 75.2 168 168 0 13.3-10.7 24-24 24s-24-10.7-24-24c0-66.3-53.7-120-120-120l-80 0zM400 96c-5.5 0-10.9 .7-16 2l0-48.9c5.2-.7 10.6-1.1 16-1.1 61.9 0 112 50.1 112 112S461.9 272 400 272c-20.7 0-40.1-5.6-56.7-15.4 10.2-12.3 18.8-26 25.4-40.7 9.3 5.2 19.9 8.2 31.3 8.2 35.3 0 64-28.7 64-64s-28.7-64-64-64zM528 488c0-59.2-42.8-108.3-99.2-118.2-12.4-18.9-27.6-35.7-45-49.8l24.2 0c92.8 0 168 75.2 168 168 0 13.3-10.7 24-24 24s-24-10.7-24-24z"/></svg>