<svg xmlns="http://www.w3.org/2000/svg" viewBox="0 0 448 512"><path fill="currentColor" d="M72 128l24 0 0 16c0 70.7 57.3 128 128 128s128-57.3 128-128l0-16 24 0c13.3 0 24-10.7 24-24s-10.7-24-24-24l-30.7 0c-10.4-53.7-31.9-112-68.3-112-9.6 0-19 3.9-27.5 8.2-8.2 4.1-18.4 7.8-25.5 7.8s-17.3-3.7-25.5-7.8c-8.5-4.3-17.9-8.2-27.5-8.2-36.4 0-57.8 58.3-68.3 112L72 80c-13.3 0-24 10.7-24 24s10.7 24 24 24zm152 0l80 0 0 16c0 44.2-35.8 80-80 80s-80-35.8-80-80l0-16 80 0zM193.5 304c-9.7 0-17.5 7.8-17.5 17.5 0 4.2 1.5 8.2 4.2 11.4l27.2 31.8-18.5 67.8-55.9-102C127 319.5 113.3 315 101.9 320.3 41.8 348.3 0 409.2 0 480l0 8c0 13.3 10.7 24 24 24s24-10.7 24-24l0-8c0-43.4 21.6-81.8 54.7-105L171 499.5c4.2 7.7 12.3 12.5 21 12.5l64 0c8.8 0 16.8-4.8 21-12.5L345.3 375c33.1 23.2 54.7 61.6 54.7 105l0 8c0 13.3 10.7 24 24 24s24-10.7 24-24l0-8c0-70.8-41.8-131.7-101.9-159.7-11.5-5.3-25.1-.9-31.2 10.2l-56.2 102.5-18.4-68.2 27.4-32c2.7-3.2 4.2-7.2 4.2-11.4 0-9.7-7.8-17.5-17.5-17.5l-61 0z"/></svg>