<svg xmlns="http://www.w3.org/2000/svg" viewBox="0 0 448 512"><path fill="currentColor" d="M144 144l0-32 17.9 0c27.5 0 52-17.6 60.7-43.8l1.4-4.2 1.4 4.2c8.7 26.1 33.2 43.8 60.7 43.8l17.9 0 0 32c0 44.2-35.8 80-80 80s-80-35.8-80-80zm208 0l0-32 0-1.4c9.3-3.3 16-12.2 16-22.6 0-13.3-10.7-24-24-24-.9 0-1.8 .1-2.7 .2-17.9-37.9-56.6-64.2-101.3-64.2L208 0c-44.7 0-83.3 26.2-101.3 64.2-.9-.1-1.8-.2-2.7-.2-13.3 0-24 10.7-24 24 0 10.5 6.7 19.3 16 22.6l0 1.4 0 32c0 24.7 7 47.8 19.1 67.3l-15 22.5c-2.7 4-4.1 8.8-4.1 13.6 0 13.6 11 24.6 24.6 24.6l206.9 0c13.6 0 24.6-11 24.6-24.6 0-4.8-1.4-9.6-4.1-13.6l-15-22.5C345 191.8 352 168.7 352 144zM161.4 314.9c-5.8-6.1-14.3-8.7-22.5-7-79.4 17-139 87.6-139 172.1l0 8c0 13.3 10.7 24 24 24s24-10.7 24-24l0-8c0-56.8 37.1-105.1 88.4-121.8l70.2 74.2c4.5 4.8 10.8 7.5 17.4 7.5s12.9-2.7 17.4-7.5l70.2-74.2C362.9 374.9 400 423.2 400 480l0 8c0 13.3 10.7 24 24 24s24-10.7 24-24l0-8c0-84.5-59.6-155.1-139-172.1-8.2-1.8-16.7 .9-22.5 7l-62.6 66.2-62.6-66.2z"/></svg>