<svg xmlns="http://www.w3.org/2000/svg" viewBox="0 0 448 512"><path fill="currentColor" d="M65.7 11.2L215.6-29.7c5.5-1.5 11.3-1.5 16.8 0L382.3 11.2c10.5 2.9 17.7 12.4 17.7 23.2 0 8.5-4.4 16.3-11.7 20.6L368 67.2 368 91.8c0 11.4-6 21.8-16 26.7l0 33.7c0 25.5 10.1 49.9 28.1 67.9l13.3 13.3c4.2 4.2 6.6 10 6.6 16 0 12.5-10.1 22.6-22.6 22.6L70.6 272c-12.5 0-22.6-10.1-22.6-22.6 0-6 2.4-11.8 6.6-16l13.3-13.3c18-18 28.1-42.4 28.1-67.9l0-33.7c-10-5-16-15.4-16-26.7L80 67.2 59.7 55C52.4 50.7 48 42.8 48 34.4 48 23.5 55.3 14 65.7 11.2zM304 144l0-10.3c-23.2 5.7-50.9 10.3-80 10.3s-56.8-4.6-80-10.3l0 10.3c0 44.2 35.8 80 80 80s80-35.8 80-80zM254.5 304c9.7 0 17.5 7.8 17.5 17.5 0 4.2-1.5 8.2-4.2 11.4l-27.4 32 18.4 68.2 56.2-102.5C321 319.5 334.7 315 346.1 320.3 406.2 348.3 448 409.2 448 480l0 8c0 13.3-10.7 24-24 24s-24-10.7-24-24l0-8c0-43.4-21.6-81.8-54.7-105L277 499.5c-4.2 7.7-12.3 12.5-21 12.5l-64 0c-8.8 0-16.8-4.8-21-12.5L102.7 375C69.6 398.2 48 436.6 48 480l0 8c0 13.3-10.7 24-24 24S0 501.3 0 488l0-8c0-70.8 41.8-131.7 101.9-159.7 11.5-5.3 25.1-.9 31.2 10.2l55.9 102 18.5-67.8-27.2-31.8c-2.7-3.2-4.2-7.2-4.2-11.4 0-9.7 7.8-17.5 17.5-17.5l61 0zM229.7 29.7c-3.1-3.1-8.2-3.1-11.3 0L189.7 58.3c-3.1 3.1-3.1 8.2 0 11.3l28.7 28.7c3.1 3.1 8.2 3.1 11.3 0l28.7-28.7c3.1-3.1 3.1-8.2 0-11.3L229.7 29.7z"/></svg>