<svg xmlns="http://www.w3.org/2000/svg" viewBox="0 0 576 512"><path fill="currentColor" d="M304 128a80 80 0 1 0 -160 0 80 80 0 1 0 160 0zM96 128a128 128 0 1 1 256 0 128 128 0 1 1 -256 0zM48 480l0 8c0 13.3-10.7 24-24 24S0 501.3 0 488l0-8c0-97.2 78.8-176 176-176l96 0c8.5 0 16.8 .6 24.9 1.8-13.3 11.5-22.4 27.8-24.5 46.2L176 352c-70.7 0-128 57.3-128 128zM400 272c0-26.5 21.5-48 48-48s48 21.5 48 48l0 96c0 26.5-21.5 48-48 48s-48-21.5-48-48l0-96zm-56 64c13.3 0 24 10.7 24 24l0 8c0 44.2 35.8 80 80 80s80-35.8 80-80l0-8c0-13.3 10.7-24 24-24s24 10.7 24 24l0 8c0 62.5-44.8 114.5-104 125.8l0 26.2c0 13.3-10.7 24-24 24s-24-10.7-24-24l0-26.2C364.8 482.5 320 430.5 320 368l0-8c0-13.3 10.7-24 24-24z"/></svg>