<svg xmlns="http://www.w3.org/2000/svg" viewBox="0 0 512 512"><path fill="currentColor" d="M0 64l0 72c0 13.3 10.7 24 24 24s24-10.7 24-24l0-72c0-8.8 7.2-16 16-16l72 0c13.3 0 24-10.7 24-24S149.3 0 136 0L64 0C28.7 0 0 28.7 0 64zM352 24c0 13.3 10.7 24 24 24l72 0c8.8 0 16 7.2 16 16l0 72c0 13.3 10.7 24 24 24s24-10.7 24-24l0-72c0-35.3-28.7-64-64-64L376 0c-13.3 0-24 10.7-24 24zM24 352c-13.3 0-24 10.7-24 24l0 72c0 35.3 28.7 64 64 64l72 0c13.3 0 24-10.7 24-24s-10.7-24-24-24l-72 0c-8.8 0-16-7.2-16-16l0-72c0-13.3-10.7-24-24-24zm464 0c-13.3 0-24 10.7-24 24l0 72c0 8.8-7.2 16-16 16l-72 0c-13.3 0-24 10.7-24 24s10.7 24 24 24l72 0c35.3 0 64-28.7 64-64l0-72c0-13.3-10.7-24-24-24zM256 208a32 32 0 1 1 0-64 32 32 0 1 1 0 64zm-80-32a80 80 0 1 0 160 0 80 80 0 1 0 -160 0zm48 112c-53 0-96 43-96 96l0 8c0 13.3 10.7 24 24 24s24-10.7 24-24l0-8c0-26.5 21.5-48 48-48l64 0c26.5 0 48 21.5 48 48l0 8c0 13.3 10.7 24 24 24s24-10.7 24-24l0-8c0-53-43-96-96-96l-64 0z"/></svg>