<svg xmlns="http://www.w3.org/2000/svg" viewBox="0 0 448 512"><path fill="currentColor" d="M216-16c-8.8 0-16 7.2-16 16l-8 0C139 0 96 43 96 96l0 64-52.4 104.8C38.3 275.5 46 288 57.9 288l72.5 0c10.5 9.9 24.7 16 40.3 16l106.7 0c15.6 0 29.8-6.1 40.3-16l72.5 0c11.9 0 19.6-12.5 14.3-23.2L352 160 352 96c0-53-43-96-96-96l-8 0c0-8.8-7.2-16-16-16l-16 0zM176 112l16 0c8.8 0 16 7.2 16 16l0 16c0 8.8-7.2 16-16 16l-32 0c-8.8 0-16-7.2-16-16 0-17.7 14.3-32 32-32zm128 32c0 8.8-7.2 16-16 16l-32 0c-8.8 0-16-7.2-16-16l0-16c0-8.8 7.2-16 16-16l16 0c17.7 0 32 14.3 32 32zm-64 48l0 12 43.7 32.8c2.7 2 4.3 5.2 4.3 8.5 0 5.9-4.8 10.7-10.7 10.7l-106.7 0c-5.9 0-10.7-4.8-10.7-10.7 0-3.4 1.6-6.5 4.3-8.5l43.7-32.8 0-12c0-8.8 7.2-16 16-16s16 7.2 16 16zM136 400l176 0c48.6 0 88 39.4 88 88 0 13.3 10.7 24 24 24s24-10.7 24-24c0-75.1-60.9-136-136-136l-176 0c-75.1 0-136 60.9-136 136 0 13.3 10.7 24 24 24s24-10.7 24-24c0-48.6 39.4-88 88-88zm-8 32c-13.3 0-24 10.7-24 24l0 32c0 13.3 10.7 24 24 24s24-10.7 24-24l0-32c0-13.3-10.7-24-24-24zm96 0c-13.3 0-24 10.7-24 24l0 32c0 13.3 10.7 24 24 24s24-10.7 24-24l0-32c0-13.3-10.7-24-24-24zm96 0c-13.3 0-24 10.7-24 24l0 32c0 13.3 10.7 24 24 24s24-10.7 24-24l0-32c0-13.3-10.7-24-24-24z"/></svg>