<svg xmlns="http://www.w3.org/2000/svg" viewBox="0 0 448 512"><path fill="currentColor" d="M224 224c-44.2 0-80-35.8-80-80l160 0c0 44.2-35.8 80-80 80zM96 16l0 128c0 70.7 57.3 128 128 128s128-57.3 128-128l0-128c0-8.8-7.2-16-16-16l-3.2 0c-3.2 0-6.2 .9-8.9 2.7l-20 13.3-2.2 1.4c-12.7 8.5-29.6 6.8-40.4-4L237.7-10.3C234-14 229.1-16 224-16s-10 2-13.7 5.7L186.6 13.4c-10.8 10.8-27.7 12.5-40.4 4L144 16 124 2.7C121.4 .9 118.3 0 115.2 0L112 0c-8.8 0-16 7.2-16 16zM48 488c0-66.3 53.7-120 120-120l112 0c66.3 0 120 53.7 120 120 0 13.3 10.7 24 24 24s24-10.7 24-24c0-92.8-75.2-168-168-168l-112 0c-92.8 0-168 75.2-168 168 0 13.3 10.7 24 24 24s24-10.7 24-24z"/></svg>