<svg xmlns="http://www.w3.org/2000/svg" viewBox="0 0 448 512"><path fill="currentColor" d="M352 128c0-70.7-57.3-128-128-128-49.6 0-92.6 28.2-113.8 69.4-3-5.8-6.8-11.3-11.7-16.1-15.8-15.8-38.8-20.7-53.6-22.1-8.1-.8-14.6 5.7-13.8 13.8 1.4 14.7 6.3 37.8 22.1 53.6 5.8 5.8 12.6 10.1 19.6 13.4-7 3.2-13.8 7.6-19.6 13.4-15.8 15.8-20.7 38.8-22.1 53.6-.8 8.1 5.7 14.6 13.8 13.8 14.7-1.4 37.8-6.3 53.6-22.1 1.2-1.2 2.4-2.5 3.5-3.8 16.4 51.8 64.8 89.3 122 89.3 70.7 0 128-57.3 128-128zM144 112c0-8.8 7.2-16 16-16l128 0c8.8 0 16 7.2 16 16s-7.2 16-16 16l-128 0c-8.8 0-16-7.2-16-16zm-1.2 195.4c-1.4 .1-2.9 .3-4.3 .6-79.2 17.2-138.5 87.6-138.5 172l0 8c0 13.3 10.7 24 24 24s24-10.7 24-24l0-8c0-56.8 37.1-105.1 88.4-121.8l70.2 74.2 0 0 56 59.2c9.1 9.6 24.3 10.1 33.9 1s10.1-24.3 1-33.9L257 416 311.6 358.2C362.9 374.9 400 423.2 400 480l0 8c0 13.3 10.7 24 24 24s24-10.7 24-24l0-8c0-84.5-59.6-155.1-139-172.1-8.2-1.8-16.7 .9-22.5 7l-62.6 66.2-62.6-66.2c-4.1-4.4-9.5-6.9-15.1-7.4-1.2-.1-2.3-.1-3.5-.1z"/></svg>