<svg xmlns="http://www.w3.org/2000/svg" viewBox="0 0 640 512"><path fill="currentColor" d="M336.1 128a80 80 0 1 0 -160 0 80 80 0 1 0 160 0zm-208 0a128 128 0 1 1 256 0 128 128 0 1 1 -256 0zm-48 352l0 8c0 13.3-10.7 24-24 24s-24-10.7-24-24l0-8c0-97.2 78.8-176 176-176l96 0 1.6 0c-1.1 5.2-1.6 10.6-1.6 16.1l0 31.9-96 0c-70.7 0-128 57.3-128 128zm272-67.8l0-92.1c0-17.7 14.3-32 32-32l92.1 0c12.7 0 24.9 5.1 33.9 14.1l96 96c18.7 18.7 18.7 49.1 0 67.9l-76.1 76.1c-18.7 18.7-49.1 18.7-67.9 0l-96-96c-9-9-14.1-21.2-14.1-33.9zm104-44.2a24 24 0 1 0 -48 0 24 24 0 1 0 48 0z"/></svg>