<svg xmlns="http://www.w3.org/2000/svg" viewBox="0 0 448 512"><path fill="currentColor" d="M304 144c0 44.2-35.8 80-80 80s-80-35.8-80-80l0-16 48 0c20.8 0 41-6.7 57.6-19.2L288 80 288 80c10 13.4 16 30 16 48l0 16zM224 0C153.3 0 96 57.3 96 128l0 16c0 70.7 57.3 128 128 128s128-57.3 128-128l0-16C352 57.3 294.7 0 224 0zM161.4 314.9c-5.8-6.1-14.3-8.7-22.5-7-79.4 17-139 87.6-139 172.1l0 8c0 13.3 10.7 24 24 24s24-10.7 24-24l0-8c0-56.8 37.1-105.1 88.4-121.8l70.2 74.2c4.5 4.8 10.8 7.5 17.4 7.5s12.9-2.7 17.4-7.5l70.2-74.2C362.9 374.9 400 423.2 400 480l0 8c0 13.3 10.7 24 24 24s24-10.7 24-24l0-8c0-84.5-59.6-155.1-139-172.1-8.2-1.8-16.7 .9-22.5 7l-62.6 66.2-62.6-66.2z"/></svg>