<svg xmlns="http://www.w3.org/2000/svg" viewBox="0 0 576 512"><path fill="currentColor" d="M272 48C272 35.4 274.4 23.3 278.9 12.3 262.2 4.4 243.6 0 224 0 153.3 0 96 57.3 96 128s57.3 128 128 128c33.8 0 64.5-13.1 87.4-34.5-13.1-9.6-23.7-22.4-30.5-37.2-14.5 14.6-34.6 23.7-56.8 23.7-44.2 0-80-35.8-80-80s35.8-80 80-80c18 0 34.6 6 48 16l0-16zM48 480c0-70.7 57.3-128 128-128l96 0c70.7 0 128 57.3 128 128l0 8c0 13.3 10.7 24 24 24s24-10.7 24-24l0-8c0-97.2-78.8-176-176-176l-96 0C78.8 304 0 382.8 0 480l0 8c0 13.3 10.7 24 24 24s24-10.7 24-24l0-8zM320 48l0 96c0 26.5 21.5 48 48 48l16 0 0 41.4c0 14.3 17.2 21.4 27.3 11.3l52.7-52.7 64 0c26.5 0 48-21.5 48-48l0-96c0-26.5-21.5-48-48-48L368 0c-26.5 0-48 21.5-48 48z"/></svg>