<svg xmlns="http://www.w3.org/2000/svg" viewBox="0 0 448 512"><path fill="currentColor" d="M148 .3c-8.8-10-21.7-16.3-36-16.3-26.5 0-48 21.5-48 48 0 20.9 13.4 38.7 32 45.3l0 75c0 25.5-10.1 49.9-28.1 67.9L54.6 233.4c-4.2 4.2-6.6 10-6.6 16 0 12.5 10.1 22.6 22.6 22.6l306.7 0c12.5 0 22.6-10.1 22.6-22.6 0-6-2.4-11.8-6.6-16l-13.3-13.3c-18-18-28.1-42.4-28.1-67.9l0-75c18.6-6.6 32-24.4 32-45.3 0-26.5-21.5-48-48-48-14.3 0-27.2 6.3-36 16.3-8.8-10-21.7-16.3-36-16.3-16.7 0-31.4 8.5-40 21.5-8.6-12.9-23.3-21.5-40-21.5-14.3 0-27.2 6.3-36 16.3zM304 128l0 16c0 44.2-35.8 80-80 80s-80-35.8-80-80l0-16 160 0zM80 328l0 16.2c-48.7 24.1-80 74-80 129L0 488c0 13.3 10.7 24 24 24s24-10.7 24-24l0-14.8c0-39.3 23.9-74.6 60.3-89.1l4.6-1.8c8.7-3.5 14.6-11.7 15.1-21l43.2 14.4c-27 26.5-43.2 63.2-43.2 102.8l0 9.5c0 13.3 10.7 24 24 24s24-10.7 24-24l0-9.5c0-41.3 26.4-78 65.6-91.1L320 361.3c.5 9.3 6.3 17.5 15.1 21l4.6 1.8C376.1 398.7 400 434 400 473.2l0 14.8c0 13.3 10.7 24 24 24s24-10.7 24-24l0-14.8c0-55-31.3-104.9-80-129l0-16.2c0-7.7-3.7-15-10-19.5s-14.3-5.7-21.6-3.3L226.5 341.9c-.8 .3-1.6 .5-2.4 .8L111.6 305.2c-7.3-2.4-15.4-1.2-21.6 3.3S80 320.3 80 328zM232 480c13.3 0 24-10.7 24-24s-10.7-24-24-24-24 10.7-24 24 10.7 24 24 24zm80 0c13.3 0 24-10.7 24-24s-10.7-24-24-24-24 10.7-24 24 10.7 24 24 24z"/></svg>