<svg xmlns="http://www.w3.org/2000/svg" viewBox="0 0 576 512"><path fill="currentColor" d="M224 208a80 80 0 1 0 0-160 80 80 0 1 0 0 160zM224 0a128 128 0 1 1 0 256 128 128 0 1 1 0-256zM176 352c-70.7 0-128 57.3-128 128l0 8c0 13.3-10.7 24-24 24S0 501.3 0 488l0-8c0-97.2 78.8-176 176-176l96 0c97.2 0 176 78.8 176 176l0 8c0 13.3-10.7 24-24 24s-24-10.7-24-24l0-8c0-70.7-57.3-128-128-128l-96 0zM496 120c-16.1 0-29.2 13.1-29.2 29.2 0 13.3-10.7 24-24 24s-24-10.7-24-24c0-42.6 34.6-77.2 77.2-77.2s77.2 34.6 77.2 77.2c0 45.5-34.5 64.7-53.7 71.8-2.3 10.8-11.9 19-23.5 19-13.3 0-24-10.7-24-24 0-20.2 14.6-34.6 29.5-39.5 6-2 12.3-5.1 16.8-9.5 3.9-3.8 6.9-9 6.9-17.7 0-16.1-13.1-29.2-29.2-29.2zM468 288a28 28 0 1 1 56 0 28 28 0 1 1 -56 0z"/></svg>