<svg xmlns="http://www.w3.org/2000/svg" viewBox="0 0 448 512"><path fill="currentColor" d="M333.1 286c-9 10.4-13.1 24.2-11.2 37.9s9.5 25.8 21 33.5c34.6 23 57.2 62.2 57.2 106.7l0 24c0 13.3 10.7 24 24 24s24-10.7 24-24l0-24c0-45.3-17.1-86.7-45.3-117.9-9.8-10.9-21-20.6-33.3-28.7 10.4-12.1 19.4-25.5 26.6-39.9 12.8-25.7 20-54.8 20-85.5 0-106-86-192-192-192S32 86 32 192c0 30.7 7.2 59.8 20 85.5 7.2 14.4 16.1 27.8 26.6 39.9-12.3 8.2-23.4 17.8-33.3 28.7-28.2 31.2-45.3 72.5-45.3 117.9l0 24c0 13.3 10.7 24 24 24s24-10.7 24-24l0-24c0-44.4 22.6-83.6 57.2-106.7 11.5-7.6 19.1-19.8 21-33.5s-2.2-27.4-11.2-37.9C93.1 260.8 80 228 80 192 80 112.5 144.5 48 224 48s144 64.5 144 144c0 36-13.1 68.8-34.9 94zM168 384c-13.3 0-24 10.7-24 24l0 48c0 13.3 10.7 24 24 24s24-10.7 24-24l0-48c0-13.3-10.7-24-24-24zm112 0c-13.3 0-24 10.7-24 24l0 48c0 13.3 10.7 24 24 24s24-10.7 24-24l0-48c0-13.3-10.7-24-24-24zM136 190.7c0 50.7 47.1 92.2 72.4 110.8 9.4 6.9 21.8 6.9 31.2 0 25.3-18.6 72.4-60 72.4-110.8 0-47.9-39.4-86.7-88-86.7s-88 38.8-88 86.7z"/></svg>