<svg xmlns="http://www.w3.org/2000/svg" viewBox="0 0 640 512"><path fill="currentColor" d="M176 128a80 80 0 1 1 160 0 80 80 0 1 1 -160 0zm208 0a128 128 0 1 0 -256 0 128 128 0 1 0 256 0zM80 480c0-70.7 57.3-128 128-128l96 0c17 0 33.2 3.3 48 9.3l0-50.7c-15.3-4.3-31.4-6.6-48-6.6l-96 0c-97.2 0-176 78.8-176 176l0 8c0 13.3 10.7 24 24 24s24-10.7 24-24l0-8zM624 256c0-7.1-3.2-13.9-8.6-18.4s-12.7-6.5-19.7-5.2l-176 32c-11.4 2.1-19.7 12-19.7 23.6l0 161.6c-5.9-1.1-11.4-1.6-16-1.6-9.5 0-22.9 2.1-34.9 7.5-11.1 5-29.1 17.2-29.1 40.5s18 35.4 29.1 40.5c11.9 5.4 25.4 7.5 34.9 7.5s22.9-2.1 34.9-7.5c11.1-5 29.1-17.2 29.1-40.5l0-139.9 128-23.3 0 84.9c-5.9-1.1-11.4-1.6-16-1.6-9.5 0-22.9 2.1-34.9 7.5-11.1 5-29.1 17.2-29.1 40.5s18 35.4 29.1 40.5c11.9 5.4 25.4 7.5 34.9 7.5s22.9-2.1 34.9-7.5c11.1-5 29.1-17.2 29.1-40.5l0-208z"/></svg>