<svg xmlns="http://www.w3.org/2000/svg" viewBox="0 0 448 512"><path fill="currentColor" d="M224 256c14.7 0 28.9-2.5 42.1-7.1l-24.7-42.8c-5.6 1.2-11.4 1.9-17.4 1.9s-11.8-.7-17.4-1.9l-24.7 42.8c13.2 4.6 27.4 7.1 42.1 7.1zm-83.7-31.1l24.7-42.8c-7.8-8.5-13.8-18.8-17.4-30.1l-49.4 0c5.5 28.9 20.7 54.4 42.1 72.9zM300.3 104l49.4 0c-5.5-28.9-20.7-54.4-42.1-72.9L282.9 73.9c7.8 8.5 13.8 18.8 17.4 30.1zm-59-54.1L266.1 7.1C252.9 2.5 238.7 0 224 0s-28.9 2.5-42.1 7.1l24.7 42.8C212.2 48.7 218 48 224 48s11.8 .7 17.4 1.9zM98.2 104l49.4 0c3.6-11.3 9.6-21.6 17.4-30.1L140.3 31.1c-21.4 18.5-36.6 44-42.1 72.9zM307.7 224.9c21.4-18.5 36.6-44 42.1-72.9l-49.4 0c-3.6 11.3-9.6 21.6-17.4 30.1l24.7 42.8zM141.2 356.8c11.1-3.1 22.7-4.8 34.8-4.8l24 0 0-48-24 0c-19.8 0-38.8 3.3-56.5 9.3l21.8 43.5zM98.3 378.3L76.6 334.8c-21.1 14.5-38.9 33.5-52 55.6l45.3 18.1c7.8-11.6 17.4-21.8 28.5-30.2zM50.9 452.6l-45-18C2.1 449.1 0 464.3 0 480l0 8c0 13.3 10.7 24 24 24s24-10.7 24-24l0-8c0-9.4 1-18.6 2.9-27.4zM248 304l0 48 24 0c12.1 0 23.7 1.7 34.8 4.8l21.8-43.5c-17.7-6-36.8-9.3-56.5-9.3l-24 0zm123.4 30.8l-21.8 43.5c11 8.5 20.7 18.7 28.5 30.2l45.3-18.1c-13.1-22.1-30.9-41.1-52-55.6zm70.6 99.8l-45 18c1.9 8.8 2.9 18 2.9 27.4l0 8c0 13.3 10.7 24 24 24s24-10.7 24-24l0-8c0-15.7-2.1-30.9-5.9-45.4z"/></svg>