<svg xmlns="http://www.w3.org/2000/svg" viewBox="0 0 448 512"><path fill="currentColor" d="M304 128c0-20.2-7.5-38.6-19.8-52.7l-33.1 28.9c-17.5 15.3-40 23.8-63.2 23.8l-43.9 0 0 16c0 44.2 35.8 80 80 80s80-35.8 80-80l0-16zM96 128c0-38.9 17.4-73.8 44.8-97.3 3.6-3.8 7.9-7.1 12.6-9.5 20.2-13.4 44.5-21.2 70.6-21.2 70.7 0 128 57.3 128 128l0 24.2c0 25.5 10.1 49.9 28.1 67.9l13.3 13.3c4.2 4.2 6.6 10 6.6 16 0 12.5-10.1 22.6-22.6 22.6L70.6 272c-12.5 0-22.6-10.1-22.6-22.6 0-6 2.4-11.8 6.6-16l13.3-13.3c18-18 28.1-42.4 28.1-67.9L96 128zm65.4 186.9l62.6 66.2 62.6-66.2c5.8-6.1 14.3-8.7 22.5-7 79.4 17 139 87.6 139 172.1l0 8c0 13.3-10.7 24-24 24s-24-10.7-24-24l0-8c0-56.8-37.1-105.1-88.4-121.8l-70.2 74.2c-4.5 4.8-10.8 7.5-17.4 7.5s-12.9-2.7-17.4-7.5l-70.2-74.2C85.1 374.9 48 423.2 48 480l0 8c0 13.3-10.7 24-24 24S0 501.3 0 488l0-8c0-84.5 59.6-155.1 139-172.1 8.2-1.8 16.7 .9 22.5 7z"/></svg>