<svg xmlns="http://www.w3.org/2000/svg" viewBox="0 0 576 512"><path fill="currentColor" d="M272 304c97.2 0 176 78.8 176 176l0 8c0 13.3-10.7 24-24 24s-24-10.7-24-24l0-8c0-70.7-57.3-128-128-128l-96 0c-70.7 0-128 57.3-128 128l0 8c0 13.3-10.7 24-24 24S0 501.3 0 488l0-8c0-97.2 78.8-176 176-176l96 0zm-48-48a128 128 0 1 1 0-256 128 128 0 1 1 0 256zM529.9 108.1c9.4-9.4 24.6-9.4 33.9 0s9.4 24.6 0 33.9l-33.9 33.9 33.9 33.9c9.4 9.4 9.4 24.6 0 33.9s-24.6 9.4-33.9 0l-33.9-33.9-33.9 33.9c-9.4 9.4-24.6 9.4-33.9 0s-9.4-24.6 0-33.9l33.9-33.9-33.9-33.9c-9.4-9.4-9.4-24.6 0-33.9s24.6-9.4 33.9 0l33.9 33.9 33.9-33.9zM224 48a80 80 0 1 0 0 160 80 80 0 1 0 0-160z"/></svg>