<svg xmlns="http://www.w3.org/2000/svg" viewBox="0 0 576 512"><path fill="currentColor" d="M144 128a80 80 0 1 1 160 0 80 80 0 1 1 -160 0zm208 0a128 128 0 1 0 -256 0 128 128 0 1 0 256 0zM48 480c0-70.7 57.3-128 128-128l64 0 0-26.7c0-7.3 1-14.5 2.9-21.3L176 304C78.8 304 0 382.8 0 480l0 8c0 13.3 10.7 24 24 24s24-10.7 24-24l0-8zm397.3 8.5l-13.3 6.3 0-188.1 96 32 0 19.6c0 55.8-32.2 106.5-82.7 130.3zM421.9 259.5l-112 37.3c-13.1 4.4-21.9 16.6-21.9 30.4l0 31.1c0 74.4 43 142.1 110.2 173.7l18.5 8.7c4.8 2.2 10 3.4 15.2 3.4s10.5-1.2 15.2-3.4l18.5-8.7C533 500.3 576 432.6 576 358.2l0-31.1c0-13.8-8.8-26-21.9-30.4l-112-37.3c-6.6-2.2-13.7-2.2-20.2 0z"/></svg>