<svg xmlns="http://www.w3.org/2000/svg" viewBox="0 0 448 512"><path fill="currentColor" d="M304 128c0-44.2-35.8-80-80-80s-80 35.8-80 80l0 16c0 38.7 27.5 71 64 78.4l0-6.4c0-8.8 7.2-16 16-16s16 7.2 16 16l0 6.4c36.5-7.4 64-39.7 64-78.4l0-16zM96 128C96 57.3 153.3 0 224 0S352 57.3 352 128l0 11.3c0 8.4 2.2 16.6 6.3 23.8L379 199.3c3.3 5.7 5 12.2 5 18.8 0 20.9-17 37.9-37.9 37.9L286 256c-18.4 10.2-39.5 16-62 16s-43.6-5.8-62-16l-60.1 0c-20.9 0-37.9-17-37.9-37.9 0-6.6 1.7-13.1 5-18.8l20.7-36.2c4.1-7.3 6.3-15.5 6.3-23.8L96 128zm135.2 9.7l32 16c7.9 4 11.1 13.6 7.2 21.5s-13.6 11.1-21.5 7.2l-24.8-12.4-24.8 12.4c-7.9 4-17.5 .7-21.5-7.2s-.7-17.5 7.2-21.5l32-16c4.5-2.3 9.8-2.3 14.3 0zM128 304l22.6 0c22.3 10.3 47.2 16 73.4 16s51.1-5.7 73.4-16l22.6 0c17.7 0 32 14.3 32 32l0 .2c56.8 27 96 84.8 96 151.8 0 13.3-10.7 24-24 24s-24-10.7-24-24c0-44.5-24.2-83.3-60.1-104l-91.9 0 0 104c0 13.3-10.7 24-24 24s-24-10.7-24-24l0-104-91.9 0c-35.9 20.7-60.1 59.5-60.1 104 0 13.3-10.7 24-24 24S0 501.3 0 488c0-67 39.2-124.9 96-151.8l0-.2c0-17.7 14.3-32 32-32z"/></svg>