<svg xmlns="http://www.w3.org/2000/svg" viewBox="0 0 640 512"><path fill="currentColor" d="M31-33C21.7-23.6 21.7-8.4 31 1L87 57c9.4 9.4 24.6 9.4 33.9 0s9.4-24.6 0-33.9L65-33c-9.4-9.4-24.6-9.4-33.9 0zM609-33c-9.4-9.4-24.6-9.4-33.9 0L519 23c-9.4 9.4-9.4 24.6 0 33.9s24.6 9.4 33.9 0L609 1c9.4-9.4 9.4-24.6 0-33.9zM65 545l56-56c9.4-9.4 9.4-24.6 0-33.9s-24.6-9.4-33.9 0L31 511c-9.4 9.4-9.4 24.6 0 33.9s24.6 9.4 33.9 0zm544 0c9.4-9.4 9.4-24.6 0-33.9l-56-56c-9.4-9.4-24.6-9.4-33.9 0s-9.4 24.6 0 33.9l56 56c9.4 9.4 24.6 9.4 33.9 0zM320 112a32 32 0 1 1 0 64 32 32 0 1 1 0-64zm0 112a80 80 0 1 0 0-160 80 80 0 1 0 0 160zM192 144c0-16.4 3.1-32 8.7-46.4-32.4 7-56.7 35.9-56.7 70.4 0 39.8 32.2 72 72 72 5.9 0 11.6-.7 17.1-2-25.3-23.4-41.1-56.8-41.1-94zm232 96c39.8 0 72-32.2 72-72 0-34.5-24.3-63.3-56.7-70.4 5.6 14.4 8.7 30 8.7 46.4 0 37.1-15.8 70.6-41.1 94 5.5 1.3 11.2 2 17.1 2zM202.5 272.2C152.1 275 112 316.8 112 368l0 8c0 13.3 10.7 24 24 24s24-10.7 24-24l0-8c0-4.6 .6-9 1.8-13.1 4.9-31.8 19.5-60.4 40.7-82.7zm275.7 82.7c1.2 4.2 1.8 8.6 1.8 13.1l0 8c0 13.3 10.7 24 24 24s24-10.7 24-24l0-8c0-51.2-40.1-93-90.5-95.8 21.2 22.3 35.8 50.9 40.7 82.7zM304 272c-53 0-96 43-96 96l0 8c0 13.3 10.7 24 24 24s24-10.7 24-24l0-8c0-26.5 21.5-48 48-48l32 0c26.5 0 48 21.5 48 48l0 8c0 13.3 10.7 24 24 24s24-10.7 24-24l0-8c0-53-43-96-96-96l-32 0z"/></svg>