<svg xmlns="http://www.w3.org/2000/svg" viewBox="0 0 448 512"><path fill="currentColor" d="M304 128c0-20.2-7.5-38.6-19.8-52.7l-33.1 28.9c-17.5 15.3-40 23.8-63.2 23.8l-43.9 0 0 16c0 44.2 35.8 80 80 80s80-35.8 80-80l0-16zM96 128c0-38.9 17.4-73.8 44.8-97.3 3.6-3.8 7.9-7.1 12.6-9.5 20.2-13.4 44.5-21.2 70.6-21.2 70.7 0 128 57.3 128 128l0 24.2c0 25.5 10.1 49.9 28.1 67.9l13.3 13.3c4.2 4.2 6.6 10 6.6 16 0 12.5-10.1 22.6-22.6 22.6L70.6 272c-12.5 0-22.6-10.1-22.6-22.6 0-6 2.4-11.8 6.6-16l13.3-13.3c18-18 28.1-42.4 28.1-67.9L96 128zm97.5 176l61 0c9.7 0 17.5 7.8 17.5 17.5 0 4.2-1.5 8.2-4.2 11.4l-27.4 32 18.4 68.2 56.2-102.5C321 319.5 334.7 315 346.1 320.3 406.2 348.3 448 409.2 448 480l0 8c0 13.3-10.7 24-24 24s-24-10.7-24-24l0-8c0-43.4-21.6-81.8-54.7-105L277 499.5c-4.2 7.7-12.3 12.5-21 12.5l-64 0c-8.8 0-16.8-4.8-21-12.5L102.7 375C69.6 398.2 48 436.6 48 480l0 8c0 13.3-10.7 24-24 24S0 501.3 0 488l0-8c0-70.8 41.8-131.7 101.9-159.7 11.5-5.3 25.1-.9 31.2 10.2l55.9 102 18.5-67.8-27.2-31.8c-2.7-3.2-4.2-7.2-4.2-11.4 0-9.7 7.8-17.5 17.5-17.5z"/></svg>