<svg xmlns="http://www.w3.org/2000/svg" viewBox="0 0 576 512"><path fill="currentColor" d="M64 48c-8.8 0-16 7.2-16 16l0 384c0 8.8 7.2 16 16 16l448 0c8.8 0 16-7.2 16-16l0-384c0-8.8-7.2-16-16-16L64 48zM0 64C0 28.7 28.7 0 64 0L512 0c35.3 0 64 28.7 64 64l0 384c0 35.3-28.7 64-64 64L64 512c-35.3 0-64-28.7-64-64L0 64zM288 192a32 32 0 1 0 0-64 32 32 0 1 0 0 64zm0-112a80 80 0 1 1 0 160 80 80 0 1 1 0-160zM160 160c0 37.1 15.8 70.6 41.1 94-5.5 1.3-11.2 2-17.1 2-39.8 0-72-32.2-72-72 0-34.5 24.3-63.3 56.7-70.4-5.6 14.4-8.7 30-8.7 46.4zm232 96c-5.9 0-11.6-.7-17.1-2 25.3-23.4 41.1-56.8 41.1-94 0-16.4-3.1-32-8.7-46.4 32.4 7 56.7 35.9 56.7 70.4 0 39.8-32.2 72-72 72zM170.5 288.2c-21.2 22.3-35.8 50.9-40.7 82.7-1.2 4.2-1.8 8.6-1.8 13.1l0 8c0 13.3-10.7 24-24 24s-24-10.7-24-24l0-8c0-51.2 40.1-93 90.5-95.8zm275.7 82.7c-4.9-31.8-19.5-60.4-40.7-82.7 50.5 2.8 90.5 44.7 90.5 95.8l0 8c0 13.3-10.7 24-24 24s-24-10.7-24-24l0-8c0-4.6-.6-9-1.8-13.1zM272 288l32 0c53 0 96 43 96 96l0 8c0 13.3-10.7 24-24 24s-24-10.7-24-24l0-8c0-26.5-21.5-48-48-48l-32 0c-26.5 0-48 21.5-48 48l0 8c0 13.3-10.7 24-24 24s-24-10.7-24-24l0-8c0-53 43-96 96-96z"/></svg>