<svg xmlns="http://www.w3.org/2000/svg" viewBox="0 0 576 512"><path fill="currentColor" d="M144 128a80 80 0 1 1 160 0 80 80 0 1 1 -160 0zm208 0a128 128 0 1 0 -256 0 128 128 0 1 0 256 0zM48 480c0-70.7 57.3-128 128-128l96 0c14.4 0 28.3 2.4 41.2 6.8 5.5-11.6 13.3-21.9 22.8-30.4l0-12.4c-19.8-7.7-41.4-12-64-12l-96 0C78.8 304 0 382.8 0 480l0 8c0 13.3 10.7 24 24 24s24-10.7 24-24l0-8zM496 304l48 0c0-44.2-35.8-80-80-80s-80 35.8-80 80l0 50.7c-18.6 6.6-32 24.4-32 45.3l0 96c0 26.5 21.5 48 48 48l128 0c26.5 0 48-21.5 48-48l0-96c0-26.5-21.5-48-48-48l-96 0 0-48c0-17.7 14.3-32 32-32s32 14.3 32 32z"/></svg>