<svg xmlns="http://www.w3.org/2000/svg" viewBox="0 0 576 512"><path fill="currentColor" d="M41-24.9c-9.4-9.4-24.6-9.4-33.9 0S-2.3-.3 7 9.1l528 528c9.4 9.4 24.6 9.4 33.9 0s9.4-24.6 0-33.9L297.8 232c9-13.8 14.2-30.3 14.2-47.9l0-17.3-.1-1.3-16-144C294.4 8.2 282.5-1.3 269.4 .1s-22.7 13.3-21.2 26.5L264 169.3 264 184c0 4.3-.7 8.4-1.9 12.2L216 150.2 216 24c0-13.3-10.7-24-24-24s-24 10.7-24 24l0 78.1-36.5-36.5 4.3-39c1.5-13.2-8-25-21.2-26.5s-25 8-26.5 21.2l-.1 .9-47.1-47.1zM400 266.2l0-90.2c0-57.7 21.7-88.6 41.4-105.7 7.7-6.6 15.5-11.6 22.6-15.2l0 248.9-26.2 0 74.2 74.2 0-346.2c0-17.7-14.3-32-32-32-16 0-128 32-128 176l0 42.2 48 48zM153.7 223.5c-17-2.7-30.5-16.2-33.2-33.2l-46-46-2.3 21-.1 1.3 0 17.3c0 48.6 39.4 88 88 88l8 0 0 216c0 13.3 10.7 24 24 24s24-10.7 24-24l0-202.2-62.3-62.3z"/></svg>