<svg xmlns="http://www.w3.org/2000/svg" viewBox="0 0 512 512"><path fill="currentColor" d="M280 24c0-13.3-10.7-24-24-24s-24 10.7-24 24l0 56-104 0 0-24c0-13.3-10.7-24-24-24S80 42.7 80 56l0 24-15.8 0c-.1 0-.3 0-.4 0L48 80 48 56c0-13.3-10.7-24-24-24S0 42.7 0 56l0 48c0 13.3 10.7 24 24 24L55.6 128 232 267.6 232 488c0 13.3 10.7 24 24 24s24-10.7 24-24l0-220.4 176.3-139.6 31.7 0c13.3 0 24-10.7 24-24l0-48c0-13.3-10.7-24-24-24s-24 10.7-24 24l0 24-15.8 0c-.1 0-.3 0-.4 0l-15.8 0 0-24c0-13.3-10.7-24-24-24s-24 10.7-24 24l0 24-104 0 0-56zm99 104l-99 78.4 0-78.4 99 0zM232 206.4l-99-78.4 99 0 0 78.4z"/></svg>