<svg xmlns="http://www.w3.org/2000/svg" viewBox="0 0 512 512"><path fill="currentColor" d="M280 24c0-13.3-10.7-24-24-24s-24 10.7-24 24l0 56-104 0 0-24c0-13.3-10.7-24-24-24S80 42.7 80 56l0 24-15.6 0c-.3 0-.5 0-.8 0L48 80 48 56c0-13.3-10.7-24-24-24S0 42.7 0 56l0 48c0 13.3 10.7 24 24 24l33.1 0 174.9 109.3 0 34.7-104 0 0-24c0-13.3-10.7-24-24-24s-24 10.7-24 24l0 24-15.6 0c-.3 0-.5 0-.8 0l-15.6 0 0-24c0-13.3-10.7-24-24-24S0 234.7 0 248l0 48c0 13.3 10.7 24 24 24l33.1 0 174.9 109.3 0 58.7c0 13.3 10.7 24 24 24s24-10.7 24-24l0-58.7 174.9-109.3 33.1 0c13.3 0 24-10.7 24-24l0-48c0-13.3-10.7-24-24-24s-24 10.7-24 24l0 24-15.6 0c-.3 0-.5 0-.8 0l-15.6 0 0-24c0-13.3-10.7-24-24-24s-24 10.7-24 24l0 24-104 0 0-34.7 174.9-109.3 33.1 0c13.3 0 24-10.7 24-24l0-48c0-13.3-10.7-24-24-24s-24 10.7-24 24l0 24-15.6 0c-.3 0-.5 0-.8 0l-15.6 0 0-24c0-13.3-10.7-24-24-24s-24 10.7-24 24l0 24-104 0 0-56zm84.3 104l-84.3 52.7 0-52.7 84.3 0zM232 180.7l-84.3-52.7 84.3 0 0 52.7zM364.3 320l-84.3 52.7 0-52.7 84.3 0zM232 372.7l-84.3-52.7 84.3 0 0 52.7z"/></svg>