<svg xmlns="http://www.w3.org/2000/svg" viewBox="0 0 512 512"><path fill="currentColor" d="M256 48a208 208 0 1 1 0 416 208 208 0 1 1 0-416zm0 464a256 256 0 1 0 0-512 256 256 0 1 0 0 512zm79-335c43.6 43.6 43.6 114.4 0 158.1-9.4 9.4-9.4 24.6 0 33.9s24.6 9.4 33.9 0c62.4-62.4 62.4-163.6 0-225.9S205.4 80.6 143 143c-9.4 9.4-9.4 24.6 0 33.9s24.6 9.4 33.9 0c43.6-43.6 114.4-43.6 158.1 0zM225 223c-9.4-9.4-24.6-9.4-33.9 0s-9.4 24.6 0 33.9l64 64c9.4 9.4 24.6 9.4 33.9 0s9.4-24.6 0-33.9l-64-64zm-64 64c-9.4-9.4-24.6-9.4-33.9 0s-9.4 24.6 0 33.9l64 64c9.4 9.4 24.6 9.4 33.9 0s9.4-24.6 0-33.9l-64-64z"/></svg>