<svg xmlns="http://www.w3.org/2000/svg" viewBox="0 0 640 512"><path fill="currentColor" d="M233.7 93.5C239.4 67 262.8 48 290 48l238 0c35.3 0 64 28.7 64 64 0 30.7-21.7 56.5-50.6 62.6-33.6-29-77.5-46.6-125.4-46.6-35.3 0-64 28.7-64 64l0 100c10.2-2.6 21-4 32-4 5.4 0 10.8 .3 16 1l0-97c0-8.8 7.2-16 16-16 79.5 0 144 64.5 144 144l0 128c0 8.8-7.2 16-16 16l-41.3 0c-7.5 18.6-19.3 35-34 48l75.3 0c35.3 0 64-28.7 64-64l0-128c0-39.5-11.9-76.1-32.3-106.6 38-17.9 64.3-56.6 64.3-101.4 0-61.9-50.1-112-112-112L290 0c-49.8 0-92.8 34.8-103.2 83.5L122.9 384 96 384c-53 0-96 43-96 96 0 17.7 14.3 32 32 32l128 0c35.3 0 64-28.7 64-64 0-31.3-22.5-57.4-52.3-62.9l62-291.5zM384 368a48 48 0 1 1 0 96 48 48 0 1 1 0-96zm0 144a96 96 0 1 0 0-192 96 96 0 1 0 0 192zM96 432l64 0c8.8 0 16 7.2 16 16s-7.2 16-16 16L50.7 464c6.6-18.6 24.4-32 45.3-32zm304-16a16 16 0 1 0 -32 0 16 16 0 1 0 32 0z"/></svg>