<svg xmlns="http://www.w3.org/2000/svg" viewBox="0 0 512 512"><path fill="currentColor" d="M24 64C10.7 64 0 74.7 0 88L0 424c0 13.3 10.7 24 24 24s24-10.7 24-24L48 88c0-13.3-10.7-24-24-24zm145 71c-9.4-9.4-24.6-9.4-33.9 0s-9.4 24.6 0 33.9l87 87-87 87c-9.4 9.4-9.4 24.6 0 33.9s24.6 9.4 33.9 0l87-87 87 87c9.4 9.4 24.6 9.4 33.9 0s9.4-24.6 0-33.9l-87-87 87-87c9.4-9.4 9.4-24.6 0-33.9s-24.6-9.4-33.9 0l-87 87-87-87zM512 88c0-13.3-10.7-24-24-24s-24 10.7-24 24l0 336c0 13.3 10.7 24 24 24s24-10.7 24-24l0-336z"/></svg>