<svg xmlns="http://www.w3.org/2000/svg" viewBox="0 0 576 512"><path fill="currentColor" d="M48 128l0 80 120 0 0-96-104 0c-8.8 0-16 7.2-16 16zm0 128l0 80c0 8.8 7.2 16 16 16l9.6 0c14.6-28.5 44.2-48 78.4-48s63.8 19.5 78.4 48l123.2 0c14.6-28.5 44.2-48 78.4-48s63.8 19.5 78.4 48l1.6 0c8.8 0 16-7.2 16-16l0-80-480 0zm461.6-48l-68.6-89.7c-3-4-7.7-6.3-12.7-6.3l-52.2 0 0 96 133.6 0zM328 208l0-96-112 0 0 96 112 0zM576 336c0 32.7-24.6 59.8-56.3 63.5-3.8 45.1-41.6 80.5-87.7 80.5-45.9 0-83.6-35.1-87.6-80l-104.7 0c-4 44.9-41.7 80-87.6 80s-83.6-35.1-87.6-80l-.4 0c-35.3 0-64-28.7-64-64L0 128C0 92.7 28.7 64 64 64l364.2 0c19.9 0 38.7 9.3 50.8 25.1l83.8 109.5c8.5 11.2 13.2 24.8 13.2 38.9l0 98.5zM472 392a40 40 0 1 0 -80 0 40 40 0 1 0 80 0zM152 432a40 40 0 1 0 0-80 40 40 0 1 0 0 80z"/></svg>