<svg xmlns="http://www.w3.org/2000/svg" viewBox="0 0 576 512"><path fill="currentColor" d="M64 112l288 0 0 80c0 35.3 28.7 64 64 64l112 0 0 80c0 8.8-7.2 16-16 16l-9.6 0c-14.6-28.5-44.2-48-78.4-48s-63.8 19.5-78.4 48l-115.2 0c-14.6-28.5-44.2-48-78.4-48s-63.8 19.5-78.4 48L64 352c-8.8 0-16-7.2-16-16l0-208c0-8.8 7.2-16 16-16zM511.6 400l.4 0c35.3 0 64-28.7 64-64l0-98.5c0-14.1-4.6-27.7-13.2-38.9L479.1 89.1C467 73.3 448.2 64 428.2 64L64 64C28.7 64 0 92.7 0 128L0 336c0 35.3 28.7 64 64 64l.4 0c4 44.9 41.7 80 87.6 80s83.6-35.1 87.6-80l96.7 0c4 44.9 41.7 80 87.6 80s83.6-35.1 87.6-80zM400 112l28.2 0c5 0 9.7 2.3 12.7 6.3l68.6 89.7-93.6 0c-8.8 0-16-7.2-16-16l0-80zM384 392a40 40 0 1 1 80 0 40 40 0 1 1 -80 0zM152 352a40 40 0 1 1 0 80 40 40 0 1 1 0-80z"/></svg>