<svg xmlns="http://www.w3.org/2000/svg" viewBox="0 0 512 512"><path fill="currentColor" d="M64 80c-8.8 0-16 7.2-16 16l0 320c0 8.8 7.2 16 16 16l384 0c8.8 0 16-7.2 16-16l0-320c0-8.8-7.2-16-16-16L64 80zM0 96C0 60.7 28.7 32 64 32l384 0c35.3 0 64 28.7 64 64l0 320c0 35.3-28.7 64-64 64l0 8c0 13.3-10.7 24-24 24s-24-10.7-24-24l0-8-288 0 0 8c0 13.3-10.7 24-24 24s-24-10.7-24-24l0-8c-35.3 0-64-28.7-64-64L0 96zM288 256a80 80 0 1 0 -160 0 80 80 0 1 0 160 0zM80 256a128 128 0 1 1 256 0 128 128 0 1 1 -256 0zm320-96c13.3 0 24 10.7 24 24l0 144c0 13.3-10.7 24-24 24s-24-10.7-24-24l0-144c0-13.3 10.7-24 24-24zM208 224a32 32 0 1 1 0 64 32 32 0 1 1 0-64z"/></svg>