<svg xmlns="http://www.w3.org/2000/svg" viewBox="0 0 512 512"><path fill="currentColor" d="M448 88a24 24 0 1 0 0-48 24 24 0 1 0 0 48zM388.7 40c9.5-23.5 32.5-40 59.3-40 35.3 0 64 28.7 64 64s-28.7 64-64 64c-1.9 0-3.9-.1-5.8-.3l-6.8 9.4-61.3 84.8c6.2 9.9 9.8 21.5 9.8 34.1s-3.6 24.2-9.8 34.1l61.3 84.8 6.8 9.4c1.9-.2 3.8-.3 5.8-.3 35.3 0 64 28.7 64 64s-28.7 64-64 64c-26.9 0-49.9-16.5-59.3-40l-265.3 0c-9.5 23.5-32.5 40-59.3 40-35.3 0-64-28.7-64-64 0-26.9 16.5-49.9 40-59.3l0-265.3C16.5 113.9 0 90.9 0 64 0 28.7 28.7 0 64 0 90.9 0 113.9 16.5 123.3 40l265.3 0zm0 48L123.3 88c-6.5 16-19.3 28.9-35.3 35.3l0 265.3c16 6.5 28.9 19.3 35.3 35.3l265.3 0c2.6-6.4 6.1-12.2 10.5-17.4l-2.6-3.6-61.3-84.8c-4.9 1.2-10 1.8-15.3 1.8-35.3 0-64-28.7-64-64s28.7-64 64-64c5.3 0 10.4 .6 15.3 1.8l61.3-84.8 2.6-3.6c-4.4-5.2-7.9-11-10.5-17.4zM40 448a24 24 0 1 0 48 0 24 24 0 1 0 -48 0zm384 0a24 24 0 1 0 48 0 24 24 0 1 0 -48 0zM296 256a24 24 0 1 0 48 0 24 24 0 1 0 -48 0zM64 88a24 24 0 1 0 0-48 24 24 0 1 0 0 48z"/></svg>