<svg xmlns="http://www.w3.org/2000/svg" viewBox="0 0 512 512"><path fill="currentColor" d="M40 64a24 24 0 1 1 48 0 24 24 0 1 1 -48 0zm48 59.3c16-6.5 28.9-19.3 35.3-35.3l265.3 0c6.5 16 19.3 28.9 35.3 35.3l0 265.3c-16 6.5-28.9 19.3-35.3 35.3l-265.3 0c-6.5-16-19.3-28.9-35.3-35.3l0-265.3zM123.3 40C113.9 16.5 90.9 0 64 0 28.7 0 0 28.7 0 64 0 90.9 16.5 113.9 40 123.3l0 265.3c-23.5 9.5-40 32.5-40 59.3 0 35.3 28.7 64 64 64 26.9 0 49.9-16.5 59.3-40l265.3 0c9.5 23.5 32.5 40 59.3 40 35.3 0 64-28.7 64-64 0-26.9-16.5-49.9-40-59.3l0-265.3c23.5-9.5 40-32.5 40-59.3 0-35.3-28.7-64-64-64-26.9 0-49.9 16.5-59.3 40L123.3 40zM64 424a24 24 0 1 1 0 48 24 24 0 1 1 0-48zm384 0a24 24 0 1 1 0 48 24 24 0 1 1 0-48zm0-384a24 24 0 1 1 0 48 24 24 0 1 1 0-48z"/></svg>