<svg xmlns="http://www.w3.org/2000/svg" viewBox="0 0 576 512"><path fill="currentColor" d="M288 56a24 24 0 1 0 0-48 24 24 0 1 0 0 48zM226.1 15.8C233.2-11.7 258.3-32 288-32s54.8 20.3 61.9 47.8c87.2 22.4 155.9 91.1 178.3 178.3 27.5 7.2 47.8 32.2 47.8 61.9s-20.3 54.8-47.8 61.9c-22.4 87.2-91.1 155.9-178.3 178.3-7.2 27.5-32.2 47.8-61.9 47.8s-54.8-20.3-61.9-47.8C138.9 473.8 70.2 405.1 47.8 317.9 20.3 310.8 0 285.7 0 256s20.3-54.8 47.8-61.9C70.2 106.9 138.9 38.2 226.1 15.8zm6.4 48c-65.8 19-117.7 70.8-136.6 136.6 19.2 11 32.2 31.8 32.2 55.5s-13 44.5-32.2 55.5c19 65.8 70.8 117.7 136.6 136.6 11-19.2 31.8-32.2 55.5-32.2s44.5 13 55.5 32.2c65.8-19 117.7-70.8 136.6-136.6-19.2-11-32.2-31.8-32.2-55.5s13-44.5 32.2-55.5C461.2 134.7 409.3 82.8 343.5 63.8 332.5 83 311.8 96 288 96s-44.5-13-55.5-32.2zM488 256a24 24 0 1 0 48 0 24 24 0 1 0 -48 0zM264 480a24 24 0 1 0 48 0 24 24 0 1 0 -48 0zM40 256a24 24 0 1 0 48 0 24 24 0 1 0 -48 0z"/></svg>