<svg xmlns="http://www.w3.org/2000/svg" viewBox="0 0 640 512"><path fill="currentColor" d="M192 304a128 128 0 1 0 0-256 128 128 0 1 0 0 256zM368 176c0 89.1-66.2 162.7-152 174.4l0 65.6 48 0c13.3 0 24 10.7 24 24s-10.7 24-24 24l-48 0 0 40c0 13.3-10.7 24-24 24s-24-10.7-24-24l0-40-48 0c-13.3 0-24-10.7-24-24s10.7-24 24-24l48 0 0-65.6C82.2 338.7 16 265.1 16 176 16 78.8 94.8 0 192 0S368 78.8 368 176zM357.5 327c10.8-11.9 20.4-24.9 28.5-39 18.4 10.2 39.5 16 62 16 70.7 0 128-57.3 128-128S518.7 48 448 48c-22.5 0-43.6 5.8-62 16-8.1-14-17.7-27.1-28.5-38.9 26.4-15.9 57.4-25 90.5-25 97.2 0 176 78.8 176 176 0 89.1-66.2 162.7-152 174.4l0 65.6 48 0c13.3 0 24 10.7 24 24s-10.7 24-24 24l-48 0 0 40c0 13.3-10.7 24-24 24s-24-10.7-24-24l0-40-48 0c-13.3 0-24-10.7-24-24s10.7-24 24-24l48 0 0-65.6c-24.1-3.3-46.6-11.4-66.5-23.4z"/></svg>