<svg xmlns="http://www.w3.org/2000/svg" viewBox="0 0 640 512"><path fill="currentColor" d="M488-16c-13.3 0-24-10.7-24-24s10.7-24 24-24l128 0c13.3 0 24 10.7 24 24l0 128c0 13.3-10.7 24-24 24s-24-10.7-24-24l0-70.1-74.9 74.9c26.7 30.9 42.9 71.1 42.9 115.2 0 97.2-78.8 176-176 176-35.4 0-68.4-10.5-96-28.5-21.3 13.9-45.7 23.3-72.1 26.8 0 .5 .1 1.1 .1 1.6l0 48 48 0c13.3 0 24 10.7 24 24s-10.7 24-24 24l-48 0 0 40c0 13.3-10.7 24-24 24s-24-10.7-24-24l0-40-48 0c-13.3 0-24-10.7-24-24s10.7-24 24-24l48 0 0-48c0-.5 0-1.1 .1-1.6-85.9-11.7-152.1-85.3-152.1-174.4 0-97.2 78.8-176 176-176 35.4 0 68.4 10.5 96 28.5 27.6-18 60.6-28.5 96-28.5 35.8 0 69.2 10.7 97 29.1L558.1-16 488-16zM250 93.9C232.6 85 212.9 80 192 80 121.3 80 64 137.3 64 208s57.3 128 128 128c20.9 0 40.6-5 58-13.9-26.2-30.7-42-70.6-42-114.1s15.8-83.4 42-114.1zm38 198.8c19.9-22.6 32-52.2 32-84.7s-12.1-62.1-32-84.7c-19.9 22.6-32 52.2-32 84.7s12.1 62.1 32 84.7zm38 29.5c17.4 8.9 37.1 13.9 58 13.9 70.7 0 128-57.3 128-128S454.7 80 384 80c-20.9 0-40.6 5-58 13.9 26.2 30.7 42 70.6 42 114.1s-15.8 83.4-42 114.1z"/></svg>