<svg xmlns="http://www.w3.org/2000/svg" viewBox="0 0 448 512"><path fill="currentColor" d="M180.7 82.1C193.2 85.7 207.6 88 224 88s30.8-2.3 43.3-5.9l-43.3 130-43.3-130zM327.5 53.5c1.1-3.3 4.1-5.5 7.6-5.5l8.9 0c.6 0 1.1 .1 1.6 .2 3.6 .7 6.4 4 6.4 7.8l0 130.7c0 13 3.5 25.9 10.3 37l34.3 57.2c2.2 3.7 3.4 8 3.4 12.3L400 456c0 4.4-3.6 8-8 8l-144 0 0-168.2c0-2.6 .4-5.1 1.2-7.6L327.5 53.5zM400 186.7L400 56c0-30.9-25.1-56-56-56L330.7 0c-19.4 0-35.2 10-45.5 19.2-9.4 8.4-28.5 20.8-61.2 20.8s-51.7-12.4-61.2-20.8C152.5 10 136.7 0 117.3 0L104 0C73.1 0 48 25.1 48 56l0 130.7c0 4.4-1.2 8.6-3.4 12.3L10.3 256.3C3.5 267.4 0 280.2 0 293.3L0 456c0 30.9 25.1 56 56 56l336 0c30.9 0 56-25.1 56-56l0-162.7c0-13-3.5-25.9-10.3-37l-34.3-57.2c-2.2-3.7-3.4-8-3.4-12.3zM120.5 53.5l78.2 234.7c.8 2.4 1.2 5 1.2 7.6l0 168.2-144 0c-4.4 0-8-3.6-8-8l0-162.7c0-4.4 1.2-8.6 3.4-12.3l34.3-57.2c6.7-11.2 10.3-24 10.3-37L96 56c0-4.4 3.6-8 8-8l8.9 0c3.4 0 6.5 2.2 7.6 5.5zM120 273.4l-12.7-12.7c-6.2-6.2-16.4-6.2-22.6 0s-6.2 16.4 0 22.6L97.4 296 84.7 308.7c-6.2 6.2-6.2 16.4 0 22.6s16.4 6.2 22.6 0l12.7-12.7 12.7 12.7c6.2 6.2 16.4 6.2 22.6 0s6.2-16.4 0-22.6l-12.7-12.7 12.7-12.7c6.2-6.2 6.2-16.4 0-22.6s-16.4-6.2-22.6 0L120 273.4zM288 280l0 40c0 8.8 7.2 16 16 16l40 0c13.3 0 24-10.7 24-24s-10.7-24-24-24l-8 0 0-8c0-13.3-10.7-24-24-24s-24 10.7-24 24zM152 400a40 40 0 1 0 -80 0 40 40 0 1 0 80 0z"/></svg>