<svg xmlns="http://www.w3.org/2000/svg" viewBox="0 0 448 512"><path fill="currentColor" d="M224 212.1l43.3-130C254.8 85.7 240.4 88 224 88s-30.8-2.3-43.3-5.9l43.3 130zM335.1 48c-3.4 0-6.5 2.2-7.6 5.5L249.2 288.2c-.8 2.4-1.2 5-1.2 7.6l0 168.2 144 0c4.4 0 8-3.6 8-8l0-162.7c0-4.4-1.2-8.6-3.4-12.3l-34.3-57.2c-6.7-11.2-10.3-24-10.3-37L352 56c0-3.9-2.7-7.1-6.4-7.8-.5-.1-1.1-.2-1.6-.2l-8.9 0zM400 128l0 58.7c0 4.4 1.2 8.6 3.4 12.3l34.3 57.2c6.7 11.2 10.3 24 10.3 37L448 456c0 30.9-25.1 56-56 56L56 512c-30.9 0-56-25.1-56-56L0 293.3c0-13 3.5-25.9 10.3-37l34.3-57.2c2.2-3.7 3.4-8 3.4-12.3L48 56C48 25.1 73.1 0 104 0l13.3 0c19.4 0 35.2 10 45.5 19.2 9.4 8.4 28.5 20.8 61.2 20.8s51.7-12.4 61.2-20.8C295.5 10 311.3 0 330.7 0L344 0c30.9 0 56 25.1 56 56l0 72zM112.9 48L104 48c-4.4 0-8 3.6-8 8l0 130.7c0 13-3.5 25.9-10.3 37L51.4 280.9c-2.2 3.7-3.4 8-3.4 12.3L48 456c0 4.4 3.6 8 8 8l144 0 0-168.2c0-2.6-.4-5.1-1.2-7.6L120.5 53.5c-1.1-3.3-4.1-5.5-7.6-5.5z"/></svg>