<svg xmlns="http://www.w3.org/2000/svg" viewBox="0 0 576 512"><path fill="currentColor" d="M64 24C64 10.7 74.7 0 88 0L328 0c13.3 0 24 10.7 24 24s-10.7 24-24 24l-8 0 0 167.7c-18.5 0-37 7-51.1 21.1-1.1 1.1-2.1 2.1-3 3.2l-121.9 0 0 160c0 35.3 28.7 64 64 64 15.7 0 30.1-5.7 41.2-15 1.5 .7 3.1 1.4 4.7 2-7.3 16.5-8 35.2-2.3 52.2-13.4 5.7-28.2 8.8-43.6 8.8-61.9 0-112-50.1-112-112l0-352-8 0C74.7 48 64 37.3 64 24zm80 24l0 144 128 0 0-144-128 0zM280 408c-13.3 0-24-10.7-24-24s10.7-24 24-24c28.8 0 43.2-34.8 22.9-55.2-9.4-9.4-9.4-24.6 0-33.9s24.6-9.4 33.9 0c20.4 20.4 55.2 5.9 55.2-22.9 0-13.3 10.7-24 24-24s24 10.7 24 24c0 28.8 34.8 43.2 55.2 22.9 9.4-9.4 24.6-9.4 33.9 0s9.4 24.6 0 33.9c-20.4 20.4-5.9 55.2 22.9 55.2 13.3 0 24 10.7 24 24s-10.7 24-24 24c-28.8 0-43.2 34.8-22.9 55.2 9.4 9.4 9.4 24.6 0 33.9s-24.6 9.4-33.9 0c-20.4-20.4-55.2-5.9-55.2 22.9 0 13.3-10.7 24-24 24s-24-10.7-24-24c0-28.8-34.8-43.2-55.2-22.9-9.4 9.4-24.6 9.4-33.9 0s-9.4-24.6 0-33.9c20.4-20.4 5.9-55.2-22.9-55.2zm104-32a24 24 0 1 0 0-48 24 24 0 1 0 0 48zm88 40a24 24 0 1 0 -48 0 24 24 0 1 0 48 0z"/></svg>