<svg xmlns="http://www.w3.org/2000/svg" viewBox="0 0 576 512"><path fill="currentColor" d="M41-24.9c-9.4-9.4-24.6-9.4-33.9 0S-2.3-.3 7 9.1l528 528c9.4 9.4 24.6 9.4 33.9 0s9.4-24.6 0-33.9l-153-153 0-222.2c0-35.3-28.7-64-64-64L129.8 64 41-24.9zM177.8 112L352 112c8.8 0 16 7.2 16 16L368 302.2 177.8 112zM80 384l0-234.2-44-44c-2.6 6.9-4 14.4-4 22.2l0 256c0 35.3 28.7 64 64 64l256 0c7.8 0 15.3-1.4 22.2-4l-44-44-234.2 0c-8.8 0-16-7.2-16-16zM537.6 116.8l-73.6 55.2 0 60 64-48 0 144-64-48 0 60 73.6 55.2c4.2 3.1 9.2 4.8 14.4 4.8 13.3 0 24-10.7 24-24l0-240c0-13.3-10.7-24-24-24-5.2 0-10.2 1.7-14.4 4.8z"/></svg>