<svg xmlns="http://www.w3.org/2000/svg" viewBox="0 0 576 512"><path fill="currentColor" d="M168 80c-22.1 0-40 17.9-40 40l0 40 224 0c35.3 0 64 28.7 64 64l0 192c0 35.3-28.7 64-64 64L96 480c-35.3 0-64-28.7-64-64l0-192c0-29.8 20.4-54.9 48-62l0-42c0-48.6 39.4-88 88-88l160 0c13.3 0 24 10.7 24 24s-10.7 24-24 24L168 80zM96 208c-8.8 0-16 7.2-16 16l0 192c0 8.8 7.2 16 16 16l256 0c8.8 0 16-7.2 16-16l0-192c0-8.8-7.2-16-16-16L96 208zm56 48l144 0c13.3 0 24 10.7 24 24s-10.7 24-24 24l-144 0c-13.3 0-24-10.7-24-24s10.7-24 24-24zm385.6-75.2c4.2-3.1 9.2-4.8 14.4-4.8 13.3 0 24 10.7 24 24l0 240c0 13.3-10.7 24-24 24-5.2 0-10.2-1.7-14.4-4.8l-73.6-55.2 0-60 64 48 0-144-64 48 0-60 73.6-55.2z"/></svg>