<svg xmlns="http://www.w3.org/2000/svg" viewBox="0 0 576 512"><path fill="currentColor" d="M352 112c8.8 0 16 7.2 16 16l0 256c0 8.8-7.2 16-16 16L96 400c-8.8 0-16-7.2-16-16l0-256c0-8.8 7.2-16 16-16l256 0zM96 64c-35.3 0-64 28.7-64 64l0 256c0 35.3 28.7 64 64 64l256 0c35.3 0 64-28.7 64-64l0-256c0-35.3-28.7-64-64-64L96 64zM464 172l0 60 64-48 0 144-64-48 0 60 73.6 55.2c4.2 3.1 9.2 4.8 14.4 4.8 13.3 0 24-10.7 24-24l0-240c0-13.3-10.7-24-24-24-5.2 0-10.2 1.7-14.4 4.8L464 172zM224 160c-13.3 0-24 10.7-24 24l0 48-48 0c-13.3 0-24 10.7-24 24s10.7 24 24 24l48 0 0 48c0 13.3 10.7 24 24 24s24-10.7 24-24l0-48 48 0c13.3 0 24-10.7 24-24s-10.7-24-24-24l-48 0 0-48c0-13.3-10.7-24-24-24z"/></svg>