<svg xmlns="http://www.w3.org/2000/svg" viewBox="0 0 448 512"><path fill="currentColor" d="M24 496c-13.3 0-24 10.7-24 24s10.7 24 24 24l400 0c13.3 0 24-10.7 24-24s-10.7-24-24-24L24 496zM336 256c0 8.8-7.2 16-16 16l-192 0c-8.8 0-16-7.2-16-16l0-192c0-8.8 7.2-16 16-16l192 0c8.8 0 16 7.2 16 16l0 192zM128 320l12.8 0-23.4 39.1c-3.5 5.8-5.4 12.5-5.4 19.3 0 20.8 16.8 37.6 37.6 37.6l148.8 0c20.8 0 37.6-16.8 37.6-37.6 0-6.8-1.9-13.5-5.4-19.3L307.2 320 320 320c35.3 0 64-28.7 64-64l0-192c0-35.3-28.7-64-64-64L128 0C92.7 0 64 28.7 64 64l0 192c0 35.3 28.7 64 64 64zm40 48l28.8-48 54.4 0 28.8 48-112 0z"/></svg>