<svg xmlns="http://www.w3.org/2000/svg" viewBox="0 0 576 512"><path fill="currentColor" d="M273.6-3.2c8.5-6.4 20.3-6.4 28.8 0L443.2 102.4c8.3 6.2 18.4 9.6 28.8 9.6 13.3 0 24 10.7 24 24s-10.7 24-24 24c-8.1 0-16.2-1-24-3l0 35-.6 0 61.7 96 10.9 0c13.3 0 24 10.7 24 24s-10.7 24-24 24l-14.6 0 36.6 64 10.1 0c13.3 0 24 10.7 24 24s-10.7 24-24 24l-24 0 0 40c0 13.3-10.7 24-24 24s-24-10.7-24-24l0-40-168 0 0 40c0 13.3-10.7 24-24 24s-24-10.7-24-24l0-40-168 0 0 40c0 13.3-10.7 24-24 24s-24-10.7-24-24l0-40-24 0c-13.3 0-24-10.7-24-24s10.7-24 24-24l17.2 0 32-64-17.2 0c-13.3 0-24-10.7-24-24s10.7-24 24-24l10.9 0 61.7-96-.6 0 0-35c-7.8 2-15.9 3-24 3-13.3 0-24-10.7-24-24s10.7-24 24-24c10.4 0 20.5-3.4 28.8-9.6L273.6-3.2zM124 288l328.1 0-41.1-64-245.8 0-41.1 64zM94.8 400l391.8 0-36.6-64-323.2 0-32 64zM400 130l-112-84-112 84 0 46 224 0 0-46z"/></svg>