<svg xmlns="http://www.w3.org/2000/svg" viewBox="0 0 640 512"><path fill="currentColor" d="M270.4 270.4A110.8 110.8 0 1 1 113.6 113.6 110.8 110.8 0 1 1 270.4 270.4zM224 32c0-17.7-14.3-32-32-32s-32 14.3-32 32c0 30.5-36.9 45.8-58.5 24.2-12.5-12.5-32.8-12.5-45.3 0s-12.5 32.8 0 45.3C77.8 123.1 62.5 160 32 160 14.3 160 0 174.3 0 192s14.3 32 32 32c30.5 0 45.8 36.9 24.2 58.5-12.5 12.5-12.5 32.8 0 45.3s32.8 12.5 45.3 0c21.6-21.6 58.5-6.3 58.5 24.2 0 17.7 14.3 32 32 32s32-14.3 32-32c0-30.5 36.9-45.8 58.5-24.2 12.5 12.5 32.8 12.5 45.3 0s12.5-32.8 0-45.3c-21.6-21.6-6.3-58.5 24.2-58.5 17.7 0 32-14.3 32-32s-14.3-32-32-32c-30.5 0-45.8-36.9-24.2-58.5 12.5-12.5 12.5-32.8 0-45.3s-32.8-12.5-45.3 0C260.9 77.8 224 62.5 224 32zM520 280c0-13.3-10.7-24-24-24s-24 10.7-24 24c0 22.9-27.7 34.4-43.9 18.2-9.4-9.4-24.6-9.4-33.9 0s-9.4 24.6 0 33.9c16.2 16.2 4.7 43.9-18.2 43.9-13.3 0-24 10.7-24 24s10.7 24 24 24c22.9 0 34.4 27.7 18.2 43.9-9.4 9.4-9.4 24.6 0 33.9s24.6 9.4 33.9 0c16.2-16.2 43.9-4.7 43.9 18.2 0 13.3 10.7 24 24 24s24-10.7 24-24c0-22.9 27.7-34.4 43.9-18.2 9.4 9.4 24.6 9.4 33.9 0s9.4-24.6 0-33.9c-16.2-16.2-4.7-43.9 18.2-43.9 13.3 0 24-10.7 24-24s-10.7-24-24-24c-22.9 0-34.4-27.7-18.2-43.9 9.4-9.4 9.4-24.6 0-33.9s-24.6-9.4-33.9 0C547.7 314.4 520 302.9 520 280zM456 384a24 24 0 1 1 48 0 24 24 0 1 1 -48 0zM184 160a24 24 0 1 0 -48 0 24 24 0 1 0 48 0zm40 88a24 24 0 1 0 0-48 24 24 0 1 0 0 48z"/></svg>