<svg xmlns="http://www.w3.org/2000/svg" viewBox="0 0 576 512"><path fill="currentColor" d="M41-24.9c-9.4-9.4-24.6-9.4-33.9 0S-2.3-.3 7 9.1l528 528c9.4 9.4 24.6 9.4 33.9 0s9.4-24.6 0-33.9l-86.3-86.3c9.9-23.3 5.4-51.3-13.7-70.3-9.8-9.8-2.9-26.5 11-26.5 35.3 0 64-28.7 64-64s-28.7-64-64-64c-13.8 0-20.8-16.7-11-26.5 25-25 25-65.5 0-90.5s-65.5-25-90.5 0c-9.8 9.8-26.5 2.9-26.5-11 0-35.3-28.7-64-64-64s-64 28.7-64 64c0 13.8-16.7 20.8-26.5 11-19-19-47-23.6-70.3-13.7L41-24.9zM191.2 125.3c37.8 10.7 80.8-16.5 80.8-61.3 0-8.8 7.2-16 16-16s16 7.2 16 16c0 56.6 68.4 84.9 108.5 44.9 6.2-6.2 16.4-6.2 22.6 0s6.2 16.4 0 22.6c-40 40-11.7 108.4 44.9 108.4 8.8 0 16 7.2 16 16s-7.2 16-16 16c-44.9 0-72 43-61.3 80.8L191.2 125.3zM328.2 398c-14.4 11.2-24.2 28.5-24.2 50 0 8.8-7.2 16-16 16s-16-7.2-16-16c0-56.6-68.4-84.9-108.4-44.9-6.2 6.2-16.4 6.2-22.6 0s-6.2-16.4 0-22.6c40-40 11.7-108.5-44.9-108.5-8.8 0-16-7.2-16-16s7.2-16 16-16c21.4 0 38.8-9.8 50-24.2l-35-35c-1.8 6.2-7.3 11.2-14.9 11.2-35.3 0-64 28.7-64 64s28.7 64 64 64c13.8 0 20.8 16.7 11 26.5-25 25-25 65.5 0 90.5s65.5 25 90.5 0c9.8-9.8 26.5-2.9 26.5 11 0 35.3 28.7 64 64 64s64-28.7 64-64c0-7.6 5.1-13.1 11.2-14.9l-35-35z"/></svg>