<svg xmlns="http://www.w3.org/2000/svg" viewBox="0 0 512 512"><path fill="currentColor" d="M192 64c0-35.3 28.7-64 64-64s64 28.7 64 64c0 13.8 16.7 20.8 26.5 11 25-25 65.5-25 90.5 0s25 65.5 0 90.5c-9.8 9.8-2.9 26.5 11 26.5 35.3 0 64 28.7 64 64s-28.7 64-64 64c-13.8 0-20.8 16.7-11 26.5 25 25 25 65.5 0 90.5s-65.5 25-90.5 0c-9.8-9.8-26.5-2.9-26.5 11 0 35.3-28.7 64-64 64s-64-28.7-64-64c0-13.8-16.7-20.8-26.5-11-25 25-65.5 25-90.5 0s-25-65.5 0-90.5c9.8-9.8 2.9-26.5-11-26.5-35.3 0-64-28.7-64-64s28.7-64 64-64c13.8 0 20.8-16.7 11-26.5-25-25-25-65.5 0-90.5s65.5-25 90.5 0c9.8 9.8 26.5 2.9 26.5-11zm64-16c-8.8 0-16 7.2-16 16 0 56.6-68.4 84.9-108.5 44.9-6.2-6.2-16.4-6.2-22.6 0s-6.2 16.4 0 22.6c40 40 11.7 108.4-44.9 108.4-8.8 0-16 7.2-16 16s7.2 16 16 16c56.6 0 84.9 68.4 44.9 108.5-6.2 6.2-6.2 16.4 0 22.6s16.4 6.2 22.6 0c40-40 108.4-11.7 108.4 44.9 0 8.8 7.2 16 16 16s16-7.2 16-16c0-56.6 68.4-84.9 108.5-44.9 6.2 6.2 16.4 6.2 22.6 0s6.2-16.4 0-22.6c-40-40-11.7-108.5 44.9-108.5 8.8 0 16-7.2 16-16s-7.2-16-16-16c-56.6 0-84.9-68.4-44.9-108.4 6.2-6.2 6.2-16.4 0-22.6s-16.4-6.2-22.6 0c-40 40-108.5 11.7-108.5-44.9 0-8.8-7.2-16-16-16zM160 224a32 32 0 1 1 64 0 32 32 0 1 1 -64 0zm160 32a32 32 0 1 1 0 64 32 32 0 1 1 0-64z"/></svg>