<svg xmlns="http://www.w3.org/2000/svg" viewBox="0 0 512 512"><path fill="currentColor" d="M160 144c-35.3 0-64-28.7-64-64s28.7-64 64-64c15.7 0 30 5.6 41.2 15 11.2-18.6 31.6-31 54.8-31s43.6 12.4 54.8 31c11.1-9.4 25.5-15 41.2-15 35.3 0 64 28.7 64 64s-28.7 64-64 64c-14.7 0-28.3-5-39.1-13.3l-32 48C275.3 187 266 192 256 192s-19.3-5-24.9-13.3l-32-48C188.3 139 174.7 144 160 144zM48 459.8c0 2.3 1.9 4.2 4.2 4.2l407.7 0c2.3 0 4.2-1.9 4.2-4.2 0-1-.4-2-1.1-2.8l-101.7-114.4-15 15c-6.6 6.6-15.5 10.3-24.8 10.3-11 0-21.4-5.2-28-14l-18-24c-12.3-16.4-31.5-26-52-26-15.2 0-29.9 5.3-41.6 15.1l-39.4 32.8-93.5 105.2c-.7 .8-1.1 1.7-1.1 2.8zM163.4 256.2c18.2-20.5 44.3-32.2 71.8-32.2l41.8 0c27.4 0 53.5 11.7 71.8 32.2l150.2 169c8.5 9.5 13.2 21.9 13.2 34.7 0 28.8-23.4 52.2-52.2 52.2L52.2 512C23.4 512 0 488.6 0 459.8 0 447.1 4.7 434.7 13.2 425.2l150.2-169z"/></svg>