<svg xmlns="http://www.w3.org/2000/svg" viewBox="0 0 512 512"><path fill="currentColor" d="M256 512a256 256 0 1 1 0-512 256 256 0 1 1 0 512zM161.6 381.9c-8.8 14.8-16.2 30.3-22.3 46.2 33.3 22.6 73.5 35.8 116.7 35.8 42.8 0 82.5-12.9 115.6-35.1-71.4 7-145.1-8.1-210-47zm53.3-225.1c-74.7 32.8-129.2 92.9-156.7 163.6 9.1 27.9 23.8 53.2 43 74.5 26.6-60.7 70.8-114.3 130.5-152.1-1.3-30-7.2-58.9-16.8-85.9zm41.7 126.8c-25.9 16.5-48.4 36.5-67.2 58.9 75.2 43.8 163.5 50.9 242.2 24.8 9.2-14.5 16.7-30.1 22.1-46.7-65.9 7.4-134.4-4.1-197.1-36.9zM357.6 74.5c35.7 58.4 54.3 127.7 49.8 200.3 18.8 .5 37.6-.8 56.1-3.8 .4-5 .6-10 .6-15 0-78-42.9-145.9-106.4-181.5zM256 48c-14.7 0-29 1.5-42.8 4.4 39.3 53.4 63.5 118.5 66.5 189.2 25.8 13.4 52.7 22.5 79.9 27.8 4.6-84.1-27-162.9-81.8-220.3-7.2-.7-14.4-1.1-21.8-1.1zM165.2 68.8c-63.5 30.8-108.9 93-116.2 166.4 35.1-52 84.7-95.1 146.2-122.2-8.7-15.7-18.8-30.5-30-44.3z"/></svg>