<svg xmlns="http://www.w3.org/2000/svg" viewBox="0 0 576 512"><path fill="currentColor" d="M252.7 32c-9.4 0-18.3 3.7-25 10.3L110.1 160 48 160c-26.5 0-48 21.5-48 48l0 96c0 26.5 21.5 48 48 48l62.1 0 117.7 117.7c6.6 6.6 15.6 10.3 25 10.3 19.5 0 35.3-15.8 35.3-35.3l0-377.4C288 47.8 272.2 32 252.7 32zM137 201l103-103 0 316.1-103-103c-4.5-4.5-10.6-7-17-7l-72 0 0-96 72 0c6.4 0 12.5-2.5 17-7zM367 175c-9.4 9.4-9.4 24.6 0 33.9l47 47-47 47c-9.4 9.4-9.4 24.6 0 33.9s24.6 9.4 33.9 0l47-47 47 47c9.4 9.4 24.6 9.4 33.9 0s9.4-24.6 0-33.9l-47-47 47-47c9.4-9.4 9.4-24.6 0-33.9s-24.6-9.4-33.9 0l-47 47-47-47c-9.4-9.4-24.6-9.4-33.9 0z"/></svg>