<svg xmlns="http://www.w3.org/2000/svg" viewBox="0 0 576 512"><path fill="currentColor" d="M41-24.9c-9.4-9.4-24.6-9.4-33.9 0S-2.3-.3 7 9.1l528 528c9.4 9.4 24.6 9.4 33.9 0s9.4-24.6 0-33.9l-249-249 0-186.8c0-19.5-15.8-35.3-35.3-35.3-9.4 0-18.3 3.7-25 10.3L184 118.1 41-24.9zM217.9 152l54.1-54.1 0 108.2-54.1-54.1zm-79.7 56l-48-48-10.2 0c-26.5 0-48 21.5-48 48l0 96c0 26.5 21.5 48 48 48l62.1 0 117.7 117.7c6.6 6.6 15.6 10.3 25 10.3 19.5 0 35.3-15.8 35.3-35.3l0-54.9-48-48 0 72.2-103-103c-4.5-4.5-10.6-7-17-7l-72 0 0-96 58.2 0zm301.2-97.5c-8.4 10.3-6.8 25.4 3.5 33.8 32.5 26.4 53.2 66.7 53.2 111.8 0 33-11.1 63.4-29.8 87.7l34.2 34.2c27.2-33.1 43.6-75.6 43.6-121.9 0-60.1-27.7-113.8-70.9-149-10.3-8.4-25.4-6.8-33.8 3.5zM396.5 274l35.3 35.3c10.2-15.2 16.2-33.6 16.2-53.3 0-30.1-13.9-56.9-35.5-74.5-10.3-8.4-25.4-6.8-33.8 3.5s-6.8 25.4 3.5 33.8c10.9 8.8 17.7 22.2 17.7 37.3 0 6.4-1.2 12.4-3.5 18z"/></svg>