<svg xmlns="http://www.w3.org/2000/svg" viewBox="0 0 640 512"><path fill="currentColor" d="M533.6 32.5c-10.3-8.4-25.4-6.8-33.8 3.5s-6.8 25.4 3.5 33.8C557.5 113.8 592 180.8 592 256s-34.5 142.2-88.7 186.3c-10.3 8.4-11.8 23.5-3.5 33.8s23.5 11.8 33.8 3.5C598.5 426.8 640 346.2 640 256S598.5 85.3 533.6 32.5zM473.1 107c-10.3-8.4-25.4-6.8-33.8 3.5s-6.8 25.4 3.5 33.8C475.3 170.7 496 210.9 496 256s-20.7 85.3-53.2 111.8c-10.3 8.4-11.8 23.5-3.5 33.8s23.5 11.8 33.8 3.5c43.2-35.2 70.9-88.9 70.9-149s-27.7-113.8-70.9-149zm-60.5 74.5c-10.3-8.4-25.4-6.8-33.8 3.5s-6.8 25.4 3.5 33.8C393.1 227.6 400 241 400 256s-6.9 28.4-17.7 37.3c-10.3 8.4-11.8 23.5-3.5 33.8s23.5 11.8 33.8 3.5C434.1 312.9 448 286.1 448 256s-13.9-56.9-35.5-74.5zM284.7 32c-9.4 0-18.3 3.7-25 10.3L142.1 160 80 160c-26.5 0-48 21.5-48 48l0 96c0 26.5 21.5 48 48 48l62.1 0 117.7 117.7c6.6 6.6 15.6 10.3 25 10.3 19.5 0 35.3-15.8 35.3-35.3l0-377.4C320 47.8 304.2 32 284.7 32zM169 201l103-103 0 316.1-103-103c-4.5-4.5-10.6-7-17-7l-72 0 0-96 72 0c6.4 0 12.5-2.5 17-7z"/></svg>