<svg xmlns="http://www.w3.org/2000/svg" viewBox="0 0 512 512"><path fill="currentColor" d="M464 256a208 208 0 1 0 -416 0 208 208 0 1 0 416 0zM0 256a256 256 0 1 1 512 0 256 256 0 1 1 -512 0zM272 88l0 56 64 0 0-32c0-8.8 7.2-16 16-16s16 7.2 16 16l0 32 32 0c8.8 0 16 7.2 16 16s-7.2 16-16 16l-32 0 0 64 32 0c8.8 0 16 7.2 16 16s-7.2 16-16 16l-32 0 0 64 32 0c8.8 0 16 7.2 16 16s-7.2 16-16 16l-32 0 0 32c0 8.8-7.2 16-16 16s-16-7.2-16-16l0-32-64 0 0 64c0 8.8-7.2 16-16 16s-16-7.2-16-16l0-64-64 0 0 32c0 8.8-7.2 16-16 16s-16-7.2-16-16l0-32-32 0c-8.8 0-16-7.2-16-16s7.2-16 16-16l32 0 0-64-32 0c-8.8 0-16-7.2-16-16s7.2-16 16-16l32 0 0-64-32 0c-8.8 0-16-7.2-16-16s7.2-16 16-16l32 0 0-32c0-8.8 7.2-16 16-16s16 7.2 16 16l0 32 64 0 0-56c0-8.8 7.2-16 16-16s16 7.2 16 16zm-96 88l0 64 64 0 0-64-64 0zm0 96l0 64 64 0 0-64-64 0zm96 0l0 64 64 0 0-64-64 0zm0-32l64 0 0-64-64 0 0 64z"/></svg>