<svg xmlns="http://www.w3.org/2000/svg" viewBox="0 0 576 512"><path fill="currentColor" d="M176 208L75.9 208 54.2 95.6C49.5 70.9 68.4 48 93.5 48l82.5 0 0 160zm48 0l0-160 128 0 0 160-128 0zm176 0l0-160 82.5 0c25.1 0 44 22.9 39.3 47.6L500.2 208 400 208zm144 26.3L569 104.6C579.4 50.3 537.8 0 482.6 0L400.1 0c0-13.3-10.7-24-24-24s-24 10.7-24 24l0 0-128 0c0-13.3-10.7-24-24-24s-24 10.7-24 24l0 0-82.5 0C38.3 0-3.3 50.3 7.1 104.6L32 234.3 32 400c0 61.9 50.1 112 112 112 56.4 0 103.1-41.7 110.9-96l66.3 0c7.8 54.3 54.4 96 110.9 96 61.9 0 112-50.1 112-112l0-165.7zm-48 73.8c-18.1-12.7-40.2-20.1-64-20.1-50.7 0-93.6 33.7-107.4 80l-73.3 0c-13.8-46.3-56.6-80-107.4-80-23.8 0-45.9 7.4-64 20.1l0-52.1 416 0 0 52.1zM80 400c0-11.9 3.2-23 8.9-32.5l32.5 32.5-32.5 32.5C83.3 423 80 411.9 80 400zm31.5-55.1c9.5-5.6 20.6-8.9 32.5-8.9s23 3.2 32.5 8.9l-32.5 32.5-32.5-32.5zM144 422.6l32.5 32.5c-9.5 5.6-20.6 8.9-32.5 8.9s-23-3.2-32.5-8.9L144 422.6zm55.1 9.9l-32.5-32.5 32.5-32.5c5.6 9.5 8.9 20.6 8.9 32.5s-3.2 23-8.9 32.5zm288 0l-32.5-32.5 32.5-32.5c5.6 9.5 8.9 20.6 8.9 32.4l0 .1c0 11.9-3.2 23-8.9 32.5zm-22.6 22.6c-9.5 5.6-20.6 8.9-32.5 8.9s-23-3.2-32.5-8.9l32.5-32.5 32.5 32.5zM432 377.4l-32.5-32.5c9.5-5.6 20.6-8.9 32.5-8.9s23 3.2 32.5 8.9L432 377.4zm-55.1-9.9l32.5 32.5-32.5 32.5c-5.6-9.5-8.9-20.6-8.9-32.5s3.2-23 8.9-32.5z"/></svg>