<svg xmlns="http://www.w3.org/2000/svg" viewBox="0 0 512 512"><path fill="currentColor" d="M488 0c13.3 0 24 10.7 24 24s-10.7 24-24 24l-8 0 0 440c0 13.3-10.7 24-24 24s-24-10.7-24-24l0-8-352 0 0 8c0 13.3-10.7 24-24 24s-24-10.7-24-24l0-440-8 0C10.7 48 0 37.3 0 24S10.7 0 24 0L488 0zM80 432l152 0 0-384-152 0 0 384zm200 0l152 0 0-384-152 0 0 384zM168 192c13.3 0 24 10.7 24 24l0 48c0 13.3-10.7 24-24 24s-24-10.7-24-24l0-48c0-13.3 10.7-24 24-24zm176 0c13.3 0 24 10.7 24 24l0 48c0 13.3-10.7 24-24 24s-24-10.7-24-24l0-48c0-13.3 10.7-24 24-24z"/></svg>