<svg xmlns="http://www.w3.org/2000/svg" viewBox="0 0 384 512"><path fill="currentColor" d="M123 16l-5.3 48 148.7 0-5.3-48-138.1 0zm185.8-5.3l6 54C353.8 70 384 103.5 384 144l0 224c0 40.5-30.2 74-69.3 79.3l-6 54C306 525.6 285.5 544 261 544L123 544c-24.5 0-45-18.4-47.7-42.7l-6-54C30.2 442 0 408.5 0 368L0 144c0-40.5 30.2-74 69.3-79.3l6-54C78-13.6 98.5-32 123-32L261-32c24.5 0 45 18.4 47.7 42.7zM117.6 448l5.3 48 138.1 0 5.3-48-148.7 0zM304 112L80 112c-17.7 0-32 14.3-32 32l0 224c0 17.7 14.3 32 32 32l224 0c17.7 0 32-14.3 32-32l0-224c0-17.7-14.3-32-32-32zM192 224a32 32 0 1 1 0 64 32 32 0 1 1 0-64zm24 112a24 24 0 1 1 48 0 24 24 0 1 1 -48 0zm-72-24a24 24 0 1 1 0 48 24 24 0 1 1 0-48zm72-136a24 24 0 1 1 48 0 24 24 0 1 1 -48 0zm-72-24a24 24 0 1 1 0 48 24 24 0 1 1 0-48zM88 256a24 24 0 1 1 48 0 24 24 0 1 1 -48 0zm184-24a24 24 0 1 1 0 48 24 24 0 1 1 0-48z"/></svg>