<svg xmlns="http://www.w3.org/2000/svg" viewBox="0 0 384 512"><path fill="currentColor" d="M123-32L261-32c24.5 0 45 18.4 47.7 42.7l6 54C353.8 70 384 103.5 384 144l0 224c0 40.5-30.2 74-69.3 79.3l-6 54C306 525.6 285.5 544 261 544L123 544c-24.5 0-45-18.4-47.7-42.7l-6-54C30.2 442 0 408.5 0 368L0 144c0-40.5 30.2-74 69.3-79.3l6-54C78-13.6 98.5-32 123-32zM304 128L80 128c-8.8 0-16 7.2-16 16l0 224c0 8.8 7.2 16 16 16l224 0c8.8 0 16-7.2 16-16l0-224c0-8.8-7.2-16-16-16zm-88 56l0 62.1 41 41c9.4 9.4 9.4 24.6 0 33.9s-24.6 9.4-33.9 0l-48-48c-4.5-4.5-7-10.6-7-17l0-72c0-13.3 10.7-24 24-24s24 10.7 24 24z"/></svg>