<svg xmlns="http://www.w3.org/2000/svg" viewBox="0 0 384 512"><path fill="currentColor" d="M123 16l-5.3 48 148.7 0-5.3-48-138.1 0zm185.8-5.3l6 54C353.8 70 384 103.5 384 144l0 224c0 40.5-30.2 74-69.3 79.3l-6 54C306 525.6 285.5 544 261 544L123 544c-24.5 0-45-18.4-47.7-42.7l-6-54C30.2 442 0 408.5 0 368L0 144c0-40.5 30.2-74 69.3-79.3l6-54C78-13.6 98.5-32 123-32L261-32c24.5 0 45 18.4 47.7 42.7zM117.6 448l5.3 48 138.1 0 5.3-48-148.7 0zM304 112L80 112c-17.7 0-32 14.3-32 32l0 224c0 17.7 14.3 32 32 32l224 0c17.7 0 32-14.3 32-32l0-224c0-17.7-14.3-32-32-32zM182.9 190.9l9.1 9.1 9.1-9.1c9.5-9.5 22.5-14.9 36-14.9l2.9 0c26.5 0 48 21.5 48 48 0 53.4-66.9 95.7-89 108.2-4.4 2.5-9.6 2.5-14 0-22.1-12.5-89-54.8-89-108.2 0-26.5 21.5-48 48-48l2.9 0c13.5 0 26.5 5.4 36 14.9z"/></svg>