<svg xmlns="http://www.w3.org/2000/svg" viewBox="0 0 448 512"><path fill="currentColor" d="M155-32L293-32c24.5 0 45 18.4 47.7 42.7l10.1 90.6C395.5 138 424 193.7 424 256s-28.5 118-73.2 154.7l-10.1 90.6C338 525.6 317.5 544 293 544L155 544c-24.5 0-45-18.4-47.7-42.7L97.2 410.7C52.5 374 24 318.3 24 256S52.5 138 97.2 101.3l10.1-90.6C110-13.6 130.5-32 155-32zm69 184c13.3 0 24 10.7 24 24l0 70.1 41 41c9.4 9.4 9.4 24.6 0 33.9s-24.6 9.4-33.9 0l-48-48c-4.5-4.5-7-10.6-7-17l0-80c0-13.3 10.7-24 24-24zM376 256a152 152 0 1 0 -304 0 152 152 0 1 0 304 0z"/></svg>