<svg xmlns="http://www.w3.org/2000/svg" viewBox="0 0 640 512"><path fill="currentColor" d="M375 437.7c38.4-29 90.6-29 129 0 16.8 12.7 32.9 21.5 47.8 24.6 13.7 2.8 27.4 .9 42.3-10.3 10.6-8 25.6-5.8 33.6 4.7 8 10.6 5.9 25.7-4.7 33.6-26.4 19.8-54.2 24.4-80.7 19.1-25.3-5.1-48.1-18.9-67.2-33.3-21.3-16.1-49.9-16.1-71.2 0-24.2 18.3-52.3 35.9-83.4 35.9s-59.1-17.7-83.4-35.9c-21.3-16.1-49.9-16.1-71.2 0-23.7 17.9-54.1 35.5-88 35.3-20.4-.1-40.7-6.7-59.8-21.1-10.6-8-12.7-23-4.7-33.6 8-10.6 23-12.7 33.6-4.7 11.3 8.5 21.6 11.4 31.2 11.5 17.6 .1 37.3-9.4 58.9-25.7 38.4-29 90.6-29 129 0 24 18.1 40.7 26.3 54.5 26.3s30.5-8.2 54.5-26.3zM392.5 0c13.3 0 24 10.7 24 24s-10.7 24-24 24l-48 0 0 48 48 0c13.3 0 24 10.7 24 24s-10.7 24-24 24l-48 0 0 83.7c32.5 10.2 56 40.5 56 76.3 0 44.2-35.8 80-80 80-44.2 0-80-35.8-80-80 0-35.8 23.5-66.1 56-76.3l0-203.7c0-13.2 10.8-24 24-24l72 0zm-199 288.3c-.6 5.1-1 10.4-1 15.7 0 11.1 1.4 21.9 4.1 32.2-10.8 .9-21.4 4.9-30.7 11.9-23.7 17.9-54.1 35.5-88 35.3-20.4-.1-40.7-6.7-59.8-21.1-10.6-8-12.7-23-4.7-33.6 8-10.6 23-12.7 33.6-4.7 11.3 8.5 21.6 11.4 31.2 11.5 17.6 .1 37.3-9.4 58.9-25.7 16.9-12.8 36.6-19.9 56.5-21.4zm254 0c19.9 1.5 39.5 8.6 56.5 21.4 16.8 12.7 32.9 21.5 47.8 24.6 13.7 2.8 27.4 .9 42.3-10.3 10.6-8 25.6-5.8 33.6 4.7 8 10.6 5.9 25.7-4.7 33.6-26.4 19.8-54.2 24.4-80.7 19.1-25.3-5.1-48.1-18.9-67.2-33.3-9.3-7-19.9-10.9-30.7-11.8 2.7-10.3 4.1-21.1 4.1-32.2 0-5.3-.4-10.5-1-15.7zM320.5 272a32 32 0 1 0 0 64 32 32 0 1 0 0-64z"/></svg>