<svg xmlns="http://www.w3.org/2000/svg" viewBox="0 0 512 512"><path fill="currentColor" d="M280 216c0 13.3-10.7 24-24 24s-24-10.7-24-24l0-134.1-47 47c-9.4 9.4-24.6 9.4-33.9 0s-9.4-24.6 0-33.9L239 7c9.4-9.4 24.6-9.4 33.9 0l88 88c9.4 9.4 9.4 24.6 0 33.9s-24.6 9.4-33.9 0l-47-47 0 134.1zM410.6 348.1c-21.3-16.1-49.9-16.1-71.2 0-24.2 18.3-52.3 35.9-83.4 35.9s-59.1-17.7-83.4-35.9c-21.3-16.1-49.9-16.1-71.2 0-20.7 15.6-46 30.7-74.2 34.5-13.1 1.8-25.2-7.5-27-20.6s7.5-25.2 20.6-27c15.9-2.1 33.2-11.3 51.7-25.2 38.4-29 90.5-29 129 0 24 18.1 40.7 26.3 54.5 26.3s30.5-8.2 54.5-26.3c38.4-29 90.5-29 129 0 18.5 13.9 35.8 23.1 51.7 25.2 13.1 1.8 22.4 13.8 20.6 27s-13.8 22.4-27 20.6c-28.2-3.8-53.6-18.9-74.2-34.5zm0 128c-21.3-16.1-49.9-16.1-71.2 0-24.2 18.3-52.3 35.9-83.4 35.9s-59.1-17.7-83.4-35.9c-21.3-16.1-49.9-16.1-71.2 0-20.7 15.6-46 30.7-74.2 34.5-13.1 1.8-25.2-7.5-27-20.6s7.5-25.2 20.6-27c15.9-2.1 33.2-11.3 51.7-25.2 38.4-29 90.5-29 129 0 24 18.1 40.7 26.3 54.5 26.3s30.5-8.2 54.5-26.3c38.4-29 90.5-29 129 0 18.5 13.9 35.8 23.1 51.7 25.2 13.1 1.8 22.4 13.8 20.6 27s-13.8 22.4-27 20.6c-28.2-3.8-53.6-18.9-74.2-34.5z"/></svg>