<svg xmlns="http://www.w3.org/2000/svg" viewBox="0 0 640 512"><path fill="currentColor" d="M381.9 400.6c37.5-23.8 85.6-22.1 121.6 5.1l6.3 4.6c14.6 10.2 28.5 17.3 41.5 20 13.7 2.8 27.4 .9 42.3-10.3l2-1.4c10.4-6.3 24.1-3.8 31.6 6.1 8 10.6 5.9 25.6-4.7 33.6l-5 3.5c-24.9 16.8-50.9 20.5-75.7 15.5-25.3-5.1-48.1-18.9-67.2-33.3-20-15.1-46.4-16-67.2-2.8l-4.1 2.8c-24.2 18.3-52.3 35.9-83.4 35.9-27.2 0-52.1-13.5-74.1-29.2l-9.3-6.8c-20-15.1-46.3-16-67.1-2.8l-4.1 2.8c-23.7 17.9-54.1 35.5-88 35.3-17.9-.1-35.6-5.2-52.6-16.1l-7.2-5-1.9-1.6c-8.9-8.3-10.3-22.1-2.8-32 7.5-9.9 21.2-12.4 31.6-6.1l2 1.4 4.2 2.9c9.7 6.3 18.6 8.5 27 8.5 17.6 .1 37.3-9.4 58.9-25.7l7.4-5.1c37.5-23.7 85.6-22.1 121.6 5.1l8.7 6.3c19.5 13.7 33.8 20 45.8 20 13.7 0 30.5-8.2 54.5-26.3l7.4-5.1zM512 32c53 0 96 43 96 96l0 8c0 13.3-10.7 24-24 24-13.2 0-24-10.8-24-24l0-8c0-26.5-21.5-48-48-48-26.5 0-48 21.5-48 48l0 208.9c-6-.7-12-1-18-.9-10 .1-20.1 1.1-30 3.2l0-67-208 0 0 63.8c-16.2 .1-32.4 2.8-48 8l0-216c0-53 43-96 96-96 53 0 96 43 96 96l0 8c0 13.3-10.7 24-24 24-13.2 0-24-10.8-24-24l0-8c0-26.5-21.5-48-48-48-26.5 0-48 21.5-48 48l0 96.2 208 0 0-96.2c0-53 43-96 96-96z"/></svg>