<svg xmlns="http://www.w3.org/2000/svg" viewBox="0 0 576 512"><path fill="currentColor" d="M0 424c0-13.3 10.7-24 24-24 28.9 0 54.9-17.5 65.8-44.3l14.5-35.7 25.6 63.3C109.7 422.8 68.9 448 24 448 10.8 448 0 437.3 0 424zM156 320c-20-49.4-31.8-78.5-35.4-87.5l0 0-30.8-76.2C78.9 129.5 52.9 112 24 112 10.8 112 0 101.3 0 88S10.8 64 24 64c48.5 0 92.1 29.4 110.3 74.3L156 192 177.8 138.3C195.9 93.4 239.5 64 288 64s92.1 29.4 110.3 74.3L420 192 441.7 138.3C459.9 93.4 503.5 64 552 64 565.3 64 576 74.7 576 88s-10.7 24-24 24c-28.9 0-54.9 17.5-65.8 44.3l-40.3 99.7 40.3 99.7c10.8 26.8 36.9 44.3 65.8 44.3 13.3 0 24 10.7 24 24s-10.7 24-24 24c-48.3 0-91.7-29.1-110-73.7-14-34.6-30-74-47.9-118.3l-7.7-19.1 0 0-32.6-80.6C342.9 129.5 316.9 112 288 112s-54.9 17.5-65.8 44.3l-40.3 99.7 40.3 99.7C233.1 382.5 259.1 400 288 400s54.9-17.5 65.8-44.3l14.5-35.7 25.6 63.3c-20.2 39.4-60.9 64.7-105.9 64.7-48.2 0-91.7-29.1-110-73.7L156 320z"/></svg>