<svg xmlns="http://www.w3.org/2000/svg" viewBox="0 0 576 512"><path fill="currentColor" d="M248 0c13.3 0 24 10.7 24 24l0 464c0 13.3-10.7 24-24 24s-24-10.7-24-24l0-464c0-13.3 10.7-24 24-24zM440 64c13.3 0 24 10.7 24 24l0 336c0 13.3-10.7 24-24 24s-24-10.7-24-24l0-336c0-13.3 10.7-24 24-24zM152 96c13.3 0 24 10.7 24 24l0 272c0 13.3-10.7 24-24 24s-24-10.7-24-24l0-272c0-13.3 10.7-24 24-24zm192 32c13.3 0 24 10.7 24 24l0 208c0 13.3-10.7 24-24 24s-24-10.7-24-24l0-208c0-13.3 10.7-24 24-24zM56 192c13.3 0 24 10.7 24 24l0 80c0 13.3-10.7 24-24 24s-24-10.7-24-24l0-80c0-13.3 10.7-24 24-24zm480 0c13.3 0 24 10.7 24 24l0 80c0 13.3-10.7 24-24 24s-24-10.7-24-24l0-80c0-13.3 10.7-24 24-24z"/></svg>