<svg xmlns="http://www.w3.org/2000/svg" viewBox="0 0 576 512"><path fill="currentColor" d="M146.5 112c-34.5 0-65.2 21.7-76.7 54.3L46.6 232C42.2 244.5 28.5 251 16 246.6S-3 228.5 1.4 216l23.2-65.7c18.3-51.7 67.1-86.3 122-86.3 51.7 0 98.5 30.8 118.9 78.4l89.3 208.3c12.8 29.9 42.2 49.3 74.8 49.3 34.5 0 65.2-21.8 76.7-54.3L529.4 280c4.4-12.5 18.1-19.1 30.6-14.6s19.1 18.1 14.6 30.6l-23.2 65.7c-18.2 51.7-67.1 86.3-122 86.3-51.7 0-98.5-30.8-118.9-78.4L221.3 161.3c-12.8-29.9-42.2-49.3-74.8-49.3z"/></svg>