<svg xmlns="http://www.w3.org/2000/svg" viewBox="0 0 512 512"><path fill="currentColor" d="M120 232c0-83.9 68.1-152 152-152 26.1 0 50.6 6.6 72 18.1-63.7 11.3-112 67-112 133.9 0 48.6 39.4 88 88 88l3.1 0c11.6 0 23.1-2.2 33.9-6.5l10.2-4.1c10.1-4 17-4.9 21.9-3.7 7.5 1.9 14.9 5.3 21.5 10.3 20.7 15.6 46 30.7 74.2 34.5 13.1 1.8 25.2-7.5 27-20.6s-7.5-25.2-20.6-27c-15.9-2.1-33.2-11.3-51.7-25.2-11.8-8.9-25-15.1-38.8-18.6-19.6-4.9-38 .3-51.4 5.7l-10.2 4.1c-5.1 2-10.5 3.1-16 3.1l-3.1 0c-22.1 0-40-17.9-40-40 0-48.6 39.4-88 88-88 13.5 0 26.3 3 37.7 8.5 9.8 4.7 21.6 2.1 28.6-6.2s7.6-20.4 1.3-29.3c-36.2-51.3-96-85-163.6-85-110.5 0-200 89.5-200 200l0 1.6c0 31.4-20.4 59.2-50.3 68.7l-4.9 1.5C4.1 307.8-2.9 321.3 1.1 334s17.5 19.7 30.1 15.7l4.9-1.5C86.1 332.3 120 286 120 233.6l0-1.6zM339.4 444.1c21.3-16.1 49.9-16.1 71.2 0 20.7 15.6 46 30.7 74.2 34.5 13.1 1.8 25.2-7.5 27-20.6s-7.5-25.2-20.6-27c-15.9-2.1-33.2-11.3-51.7-25.2-38.4-29-90.5-29-129 0-24 18.1-40.7 26.3-54.5 26.3s-30.5-8.2-54.5-26.3c-38.4-29-90.5-29-129 0-18.5 13.9-35.8 23.1-51.7 25.2-13.1 1.8-22.4 13.8-20.6 27s13.8 22.4 27 20.6c28.2-3.8 53.6-18.9 74.2-34.5 21.3-16.1 49.9-16.1 71.2 0 24.2 18.3 52.3 35.9 83.4 35.9s59.1-17.7 83.4-35.9z"/></svg>