<svg xmlns="http://www.w3.org/2000/svg" viewBox="0 0 640 512"><path fill="currentColor" d="M372.2 52c0 20.9-12.4 39-30.2 47.2l106 92.8 102.2-20.4 2.2-.4c-5.3-7.7-8.4-17.1-8.4-27.1 0-26.5 21.5-48 48-48s48 21.5 48 48c0 26-20.6 47.1-46.4 48L583.8 213.8 481 442.3c-10.3 23-33.2 37.7-58.4 37.7l-205.2 0c-25.2 0-48-14.8-58.4-37.7L56.2 213.8 46.4 192C20.6 191.1 0 170 0 144 0 117.5 21.5 96 48 96s48 21.5 48 48c0 10.1-3.1 19.4-8.4 27.1l2.2 .4 102.2 20.4 106.1-92.9c-17.7-8.3-30-26.3-30-47.1 0-28.7 23.3-52 52-52s52 23.3 52 52zm44.2 176.1l-96.4-84.3-96.4 84.3c-11.2 9.8-26.4 13.9-41 10.9L114 225.4 202.8 422.6c2.6 5.7 8.3 9.4 14.6 9.4l205.2 0c6.3 0 12-3.7 14.6-9.4l88.7-197.2-68.5 13.7c-14.6 2.9-29.8-1.1-41-10.9z"/></svg>