<svg xmlns="http://www.w3.org/2000/svg" viewBox="0 0 576 512"><path fill="currentColor" d="M205.1 225.5L138.7 344.4c-19.6 2.6-34.7 19.4-34.7 39.6 0 22.1 17.9 40 40 40s40-17.9 40-40c0-5.8-1.2-11.3-3.4-16.2l76.9-137.6c6.4-11.5 2.4-26.1-9.1-32.6-30.4-17.3-46.9-53.3-38-88.9 10.7-42.9 54.1-69 97-58.3 35.6 8.9 59.7 40.3 60.6 75.3 .4 13.2 11.4 23.7 24.7 23.3s23.7-11.4 23.3-24.7c-1.6-56-40-106.3-97-120.5-68.6-17.1-138.1 24.7-155.2 93.3-12.2 48.8 5.5 98 41.3 128.5zm119.5-81.4c2.2-4.9 3.4-10.4 3.4-16.1 0-22.1-17.9-40-40-40s-40 17.9-40 40c0 20.3 15.2 37.1 34.8 39.7l77.3 137.4c3.1 5.5 8.3 9.6 14.5 11.3s12.7 .9 18.2-2.2c30.5-17.2 69.9-12.7 95.8 13.2 31.2 31.2 31.2 81.9 0 113.1-25.9 25.9-65.3 30.4-95.8 13.2-11.5-6.5-26.2-2.4-32.7 9.1s-2.4 26.2 9.1 32.7c48.8 27.5 111.7 20.5 153.3-21.1 50-50 50-131 0-181-35.5-35.5-86.7-45.8-131.2-30.9L324.6 144.1zM432 424c22.1 0 40-17.9 40-40s-17.9-40-40-40c-13.1 0-24.7 6.3-32 16l-152 0c-6.4 0-12.5 2.5-17 7s-7 10.6-7 17c0 34.8-22.9 66.8-58 76.9-42.5 12.2-86.8-12.4-99-54.9-10.1-35.3 5.1-71.8 34.9-90.2 11.3-6.9 14.8-21.7 7.9-33s-21.7-14.8-33-7.9c-47.7 29.3-72.1 87.8-55.9 144.3 19.5 68 90.4 107.2 158.3 87.8 48-13.8 81.7-53.2 90.5-99L400 408c7.3 9.7 18.9 16 32 16z"/></svg>