<svg xmlns="http://www.w3.org/2000/svg" viewBox="0 0 576 512"><path fill="currentColor" d="M7-24.9c8.8-8.8 22.7-9.3 32.1-1.7l1.8 1.7 528 528 1.7 1.8c7.7 9.4 7.1 23.3-1.7 32.1s-22.7 9.3-32.1 1.7L535 537.1 7 9.1 5.4 7.2C-2.3-2.2-1.8-16.1 7-24.9zM72 240c6.4 0 12.5 2.5 17 7L135 293.1c23.4 23.4 33.4 55.4 29.7 86.2 30.8-3.8 62.9 6.3 86.2 29.7L296.9 455c4.5 4.5 7 10.6 7 17s-2.5 12.5-7 17l-7.4 7.4C248.9 537 183 537 142.4 496.4l-30.5-30.5-63 63c-9.4 9.4-24.5 9.4-33.9 0-9.4-9.4-9.4-24.6 0-33.9l63-63-30.5-30.5C7 360.9 7 295.1 47.6 254.5l7.4-7.4 3.7-3c3.9-2.6 8.6-4 13.3-4zm145 202.9c-18.4-18.4-46.7-21.5-68.5-8.3l27.9 27.9c18.6 18.6 46.9 21.3 68.4 8.3l-27.9-27.9zm126.8-29.4c-31.6 4.8-65-4.8-89.3-29.1l-94.9-94.9c-24.3-24.3-34-57.7-29.2-89.3L343.7 413.5zM73.2 299.1c-13 21.5-10.2 49.9 8.3 68.5l27.9 27.9c13.1-21.8 10.1-50.1-8.3-68.4L73.2 299.1zM296 16c6.4 0 12.5 2.5 17 7L359 69.1c23.4 23.4 33.4 55.4 29.7 86.2 30.8-3.8 62.9 6.3 86.2 29.7L520.9 231c4.5 4.5 7 10.6 7 17s-2.5 12.5-7 17l-7.4 7.4c-36.6 36.5-93.6 40.2-134.2 10.9L260.6 164.6c-29.2-40.6-25.5-97.6 11-134.1l7.4-7.4 3.7-3c3.9-2.6 8.5-4 13.3-4zm145 202.9c-18.4-18.4-46.7-21.5-68.5-8.3l27.9 27.9c18.6 18.6 46.9 21.3 68.4 8.3l-27.9-27.9zM297.2 75.1c-13 21.5-10.2 49.9 8.3 68.5l27.9 27.9c13.1-21.8 10.1-50.1-8.3-68.4L297.2 75.1zM544-24c6.4 0 12.5 2.5 17 7s7 10.6 7 17l0 35-.1 5.2c-2.6 51.7-44 93.1-95.7 95.7l-5.2 .1-35 0c-6.4 0-12.5-2.5-17-7s-7-10.6-7-17l0-35c0-55.8 45.2-101 101-101l35 0zM509 24c-29.3 0-53 23.7-53 53l0 11 11 0 5.4-.3c25-2.5 44.8-22.4 47.3-47.3l.3-5.4 0-11-11 0z"/></svg>