<svg xmlns="http://www.w3.org/2000/svg" viewBox="0 0 576 512"><path fill="currentColor" d="M88.5 224c6.4 0 12.5 2.5 17 7l46.1 46.1c23.3 23.4 33.4 55.4 29.7 86.2 30.8-3.8 62.9 6.3 86.2 29.7L313.5 439c4.5 4.5 7 10.6 7 17s-2.5 12.5-7 17l-7.4 7.4C265.4 521 199.6 521 159 480.4l-30.5-30.5-79 79.1c-9.4 9.4-24.5 9.4-33.9 0s-9.4-24.6 0-33.9l79-79-30.5-30.5c-40.6-40.6-40.6-106.4 0-147.1l7.4-7.4 3.7-3c3.9-2.6 8.5-4 13.3-4zm145 202.9c-18.4-18.4-46.7-21.5-68.5-8.3l27.9 27.9c18.6 18.6 46.9 21.3 68.4 8.3l-27.9-27.9zM192.5 120c6.4 0 12.5 2.5 17 7l46.1 46.1c23.3 23.4 33.4 55.4 29.7 86.2 30.8-3.8 62.9 6.3 86.2 29.7L417.5 335c4.5 4.5 7 10.6 7 17s-2.5 12.5-7 17l-7.4 7.4C369.4 417 303.6 417 263 376.4l-94.9-94.9c-40.6-40.6-40.6-106.4 0-147.1l7.4-7.4 3.7-3c3.9-2.6 8.5-4 13.3-4zM89.7 283.1c-13 21.5-10.2 49.9 8.3 68.5l27.9 27.9c13.1-21.8 10.1-50.1-8.3-68.4L89.7 283.1zm247.8 39.8c-18.4-18.4-46.7-21.5-68.5-8.3l27.9 27.9c18.6 18.6 46.9 21.3 68.4 8.3l-27.9-27.9zM495.2 15c9.4-9.4 24.6-9.4 33.9 0 8.8 8.8 9.3 22.7 1.6 32.2L529.2 49 421.7 156.4c7.4 1.4 14.7 3.7 21.7 6.7L495.5 111c9.4-9.4 24.6-9.4 34 0 8.8 8.8 9.3 22.7 1.6 32.1l-1.6 1.8-47 47 39 39c4.5 4.5 7 10.6 7 17s-2.5 12.5-7 17l-7.4 7.4C473.4 313 407.6 313 367 272.4l-94.9-94.9c-40.6-40.6-40.6-106.4 0-147.1l7.4-7.4 3.7-3c3.9-2.6 8.5-4 13.3-4 6.4 0 12.5 2.5 17 7l39 39 47-47c9.4-9.4 24.6-9.4 34 0 8.8 8.8 9.3 22.7 1.6 32.1l-1.6 1.8-52.2 52.2c3 6.8 5.2 13.9 6.7 21.2L495.2 15zM193.7 179.1c-13 21.5-10.2 49.9 8.3 68.5l27.9 27.9c13.1-21.8 10.1-50.1-8.3-68.4l-27.9-27.9zm247.8 39.8c-18.4-18.4-46.7-21.5-68.5-8.3l27.9 27.9c18.6 18.6 46.9 21.3 68.4 8.3l-27.9-27.9zM297.7 75.1c-13 21.5-10.2 49.9 8.3 68.5l27.9 27.9c13.1-21.8 10.1-50.1-8.3-68.4L297.7 75.1z"/></svg>