<svg xmlns="http://www.w3.org/2000/svg" viewBox="0 0 640 512"><path fill="currentColor" d="M496 576a144 144 0 1 1 0-288 144 144 0 1 1 0 288zM104 240c6.4 0 12.5 2.5 17 7L167 293.1c23.3 23.4 33.4 55.4 29.7 86.2 30.8-3.8 62.9 6.3 86.2 29.7L304 430.1c0 .6 0 1.2 0 1.9 0 24.3 4.5 47.5 12.7 68.8-40.8 36.1-103.2 34.6-142.3-4.4L144 465.9 81 529c-9.4 9.4-24.5 9.4-33.9 0-9.4-9.4-9.4-24.6 0-33.9l63-63-30.5-30.5C39 360.9 39 295.1 79.6 254.5l7.4-7.4 3.7-3c3.9-2.6 8.5-4 13.3-4zM496 476a20 20 0 1 0 0 40 20 20 0 1 0 0-40zM249 442.9c-18.4-18.4-46.7-21.5-68.5-8.3l27.9 27.9c18.6 18.6 46.9 21.3 68.4 8.3L249 442.9zM496 336c-8.8 0-16 7.2-16 16l0 80c0 8.8 7.2 16 16 16 8.8 0 16-7.2 16-16l0-80c0-8.8-7.2-16-16-16zM216 128c6.4 0 12.5 2.5 17 7L279 181.1c23.3 23.4 33.4 55.4 29.7 86.2 23.2-2.8 47.1 2.2 67.4 14.8-13.1 10.5-24.8 22.6-34.8 36.1-15.8-6-33.9-4.7-48.9 4.4l27.9 27.9c.4 .4 .8 .7 1.2 1.1-7 15.2-12.2 31.5-15 48.6-7.2-4.3-14-9.5-20.2-15.7l-94.9-94.9c-40.6-40.6-40.6-106.5 0-147.1l7.4-7.4 3.7-3c3.9-2.6 8.5-4 13.3-4zM105.2 299.1c-13 21.5-10.2 49.9 8.3 68.5l27.9 27.9c13.1-21.8 10.1-50.1-8.3-68.4l-27.9-27.9zm112-112c-13 21.5-10.2 49.9 8.3 68.5l27.9 27.9c13.1-21.8 10.1-50.1-8.3-68.4l-27.9-27.9zM526.7 15c9.4-9.4 24.6-9.4 33.9 0 8.8 8.8 9.3 22.7 1.6 32.2L560.7 49 453.2 156.4c7.4 1.4 14.7 3.7 21.7 6.7L527 111c9.4-9.4 24.6-9.4 34 0 8.8 8.8 9.3 22.7 1.6 32.1l-1.6 1.8-47.1 47 39 39c4.5 4.5 7 10.6 7 17 0 1-.2 1.9-.3 2.8-19.9-7-41.3-10.8-63.7-10.8-.6 0-1.3 0-1.9 0L473 218.9c-18.4-18.4-46.7-21.5-68.5-8.3l27.9 27.9c3.5 3.5 7.3 6.4 11.3 8.8-17.4 4.9-33.8 12.2-48.9 21.6l-91.3-91.3C263 136.9 263 71.1 303.6 30.5l7.4-7.4 3.7-3c3.9-2.6 8.5-4 13.3-4 6.4 0 12.5 2.5 17 7l39 39 47-47c9.4-9.4 24.6-9.4 34 0 8.8 8.8 9.3 22.7 1.6 32.1L465 49 412.8 101.1c3 6.8 5.2 13.9 6.6 21.2L526.7 15zM329.2 75.1c-13 21.5-10.2 49.9 8.3 68.5l27.9 27.9c13.1-21.8 10.1-50.1-8.3-68.4L329.2 75.1z"/></svg>