<svg xmlns="http://www.w3.org/2000/svg" viewBox="0 0 576 512"><path fill="currentColor" d="M72.5 240c6.4 0 12.5 2.5 17 7l46.1 46.1c23.4 23.4 33.4 55.4 29.7 86.2 30.8-3.8 62.9 6.3 86.2 29.7L297.4 455c4.5 4.5 7 10.6 7 17s-2.5 12.5-7 17l-7.4 7.4c-40.6 40.6-106.5 40.6-147.1 0l-30.5-30.5-63 63c-9.4 9.4-24.5 9.4-33.9 0-9.4-9.4-9.4-24.6 0-33.9l63-63-30.5-30.5c-40.6-40.6-40.6-106.5 0-147.1l7.4-7.4 3.7-3c3.9-2.6 8.5-4 13.3-4zm145 202.9c-18.4-18.4-46.7-21.5-68.5-8.3l27.9 27.9c18.6 18.6 46.9 21.3 68.4 8.3l-27.9-27.9zM184.5 128c6.4 0 12.5 2.5 17 7l46.1 46.1c23.4 23.4 33.4 55.4 29.7 86.2 30.8-3.8 62.9 6.3 86.2 29.7L409.4 343c4.5 4.5 7 10.6 7 17s-2.5 12.5-7 17l-7.4 7.4c-40.6 40.6-106.5 40.6-147.1 0l-94.9-94.9c-40.6-40.6-40.6-106.5 0-147.1l7.4-7.4 3.7-3c3.9-2.6 8.5-4 13.3-4zM73.7 299.1c-13 21.5-10.2 49.9 8.3 68.5l27.9 27.9c13.1-21.8 10.1-50.1-8.3-68.4L73.7 299.1zm255.8 31.8c-18.4-18.4-46.7-21.5-68.5-8.3l27.9 27.9c18.6 18.6 46.9 21.3 68.4 8.3l-27.9-27.9zM296.5 16c6.4 0 12.5 2.5 17 7l46.1 46.1c23.4 23.4 33.4 55.4 29.7 86.2 30.8-3.8 62.9 6.3 86.2 29.7L521.4 231c4.5 4.5 7 10.6 7 17s-2.5 12.5-7 17l-7.4 7.4c-40.6 40.6-106.5 40.6-147.1 0l-94.9-94.9c-40.6-40.6-40.6-106.5 0-147.1l7.4-7.4 3.7-3c3.9-2.6 8.5-4 13.3-4zM185.7 187.1c-13 21.5-10.2 49.9 8.3 68.5l27.9 27.9c13.1-21.8 10.1-50.1-8.3-68.4l-27.9-27.9zm255.8 31.8c-18.4-18.4-46.7-21.5-68.5-8.3l27.9 27.9c18.6 18.6 46.9 21.3 68.4 8.3l-27.9-27.9zM297.7 75.1c-13 21.5-10.2 49.9 8.3 68.5l27.9 27.9c13.1-21.8 10.1-50.1-8.3-68.4L297.7 75.1zM544.5-24c6.4 0 12.5 2.5 17 7s7 10.6 7 17l0 35-.1 5.2c-2.6 51.7-44 93.1-95.7 95.7l-5.2 .1-35 0c-6.4 0-12.5-2.5-17-7s-7-10.6-7-17l0-35c0-55.8 45.2-101 101-101l35 0zm-35 48c-29.3 0-53 23.7-53 53l0 11 11 0 5.4-.3c25-2.5 44.8-22.4 47.3-47.3l.3-5.4 0-11-11 0z"/></svg>