<svg xmlns="http://www.w3.org/2000/svg" viewBox="0 0 576 512"><path fill="currentColor" d="M7-24.9c8.8-8.8 22.7-9.3 32.1-1.7l1.8 1.7 528 528 1.7 1.8c7.7 9.4 7.1 23.3-1.7 32.1s-22.7 9.3-32.1 1.7L535 537.1 7 9.1 5.4 7.2C-2.3-2.2-1.8-16.1 7-24.9zM72 240c6.4 0 12.5 2.5 17 7L135 293.1c23.3 23.4 33.4 55.4 29.7 86.2 30.8-3.8 62.9 6.3 86.2 29.7L296.9 455c4.5 4.5 7 10.6 7 17s-2.5 12.5-7 17l-7.4 7.4C248.9 537 183 537 142.4 496.4l-30.5-30.5-63 63c-9.4 9.3-24.5 9.3-33.9 0-9.4-9.4-9.4-24.6 0-33.9l63-63-30.5-30.5C7 360.9 7 295.1 47.6 254.5l7.4-7.4 3.7-3c3.9-2.6 8.6-4 13.3-4zm145 202.9c-18.4-18.4-46.7-21.5-68.5-8.3l27.9 27.9c18.6 18.6 46.9 21.3 68.4 8.3l-27.9-27.9zm126.8-29.4c-31.6 4.8-64.9-4.8-89.3-29.1l-94.9-94.9c-24.3-24.3-34-57.7-29.2-89.3L343.7 413.5zM73.2 299.1c-13 21.5-10.2 49.9 8.3 68.5l27.9 27.9c13.1-21.8 10.1-50.1-8.3-68.4L73.2 299.1zM494.7 15c9.4-9.4 24.6-9.4 33.9 0 8.8 8.8 9.3 22.7 1.6 32.2L528.7 49 421.2 156.4c7.4 1.4 14.7 3.7 21.7 6.7L495 111c9.4-9.4 24.6-9.4 34 0 8.8 8.8 9.3 22.7 1.6 32.1l-1.6 1.8-47.1 47 39 39c4.5 4.5 7 10.6 7 17s-2.5 12.5-7 17l-7.4 7.4c-36.5 36.5-93.5 40.2-134.1 11L260.6 164.6C231.4 124 235 67 271.6 30.5l7.4-7.4 3.7-3c3.9-2.6 8.6-4 13.3-4 6.4 0 12.5 2.5 17 7l39 39 47-47c9.4-9.4 24.6-9.4 34 0 8.8 8.8 9.3 22.7 1.6 32.1L433 49 380.8 101.1c3 6.8 5.2 14 6.6 21.2L494.7 15zM440.9 218.9c-18.4-18.4-46.7-21.5-68.5-8.3l27.9 27.9c18.6 18.6 46.9 21.3 68.4 8.3l-27.9-27.9zM297.2 75.1c-13 21.5-10.2 49.9 8.3 68.5l27.9 27.9c13.1-21.8 10.1-50.1-8.3-68.4L297.2 75.1z"/></svg>