<svg xmlns="http://www.w3.org/2000/svg" viewBox="0 0 512 512"><path fill="currentColor" d="M136 40a56 56 0 1 1 112 0 56 56 0 1 1 -112 0zM114.1 198.7c.4 5.6 1.2 11.2 2.5 16.9l6.9 30.5c-44 15.1-75.5 56.8-75.5 105.9 0 61.9 50.1 112 112 112 44.7 0 83.2-26.2 101.2-64l33.2 0c1 0 2 0 3 0l15.2 0c-20.4 64.9-81 112-152.7 112-88.4 0-160-71.6-160-160 0-72.4 48.1-133.6 114.1-153.3zm96.1-4.4l20.7 91c2.5 10.9 12.2 18.7 23.4 18.7l11.6 0-26.4-116.3c-1.6-6.8-7.6-11.7-14.6-11.7-9.6 0-16.8 8.9-14.6 18.3zM286.3 177l28.9 127 37.4 0c28.6 0 54.5 16.9 66 43.1l34.6 79.2 27.2-9.1c12.6-4.2 26.2 2.6 30.4 15.2s-2.6 26.2-15.2 30.4l-48 16c-11.8 3.9-24.6-1.8-29.6-13.1l-43.4-99.2c-3.8-8.7-12.5-14.4-22-14.4l-56.1 0c-.3 0-.7 0-1 0l-41.2 0c-33.6 0-62.8-23.3-70.2-56l-20.7-91c-9-39.4 21-77 61.4-77 29.4 0 54.9 20.4 61.4 49z"/></svg>