<svg xmlns="http://www.w3.org/2000/svg" viewBox="0 0 448 512"><path fill="currentColor" d="M368 112a56 56 0 1 0 0-112 56 56 0 1 0 0 112zm-188.5-1.6c8.4-8.4 21.8-9.4 31.4-2.2l26.8 20.1-64.2 64.3c-4.5-.4-9-.6-13.5-.6-88.4 0-160 71.6-160 160s71.6 160 160 160 160-71.6 160-160c0-11-1.1-21.7-3.2-32l69.6 0-25.9 123.1c-2.7 13 5.6 25.7 18.5 28.4s25.7-5.6 28.4-18.5l27.9-132.7c5.2-24.9-13.7-48.2-39.1-48.2l-91.8 0 29.8-32.8c28.6-31.4 23.9-80.6-10.1-106L239.7 69.8c-28.7-21.5-68.8-18.6-94.1 6.7L103 119c-9.4 9.4-9.4 24.6 0 33.9s24.6 9.4 33.9 0l42.6-42.6zm91.8 126.7c-12.8-12.4-27.7-22.7-44.1-30.3l49.3-49.3 18.9 14.1c11.3 8.5 12.9 24.9 3.4 35.3l-27.4 30.2zM160 240a112 112 0 1 1 0 224 112 112 0 1 1 0-224z"/></svg>