<svg xmlns="http://www.w3.org/2000/svg" viewBox="0 0 448 512"><path fill="currentColor" d="M48 104c0-13.3 10.7-24 24-24l304 0c13.3 0 24 10.7 24 24l0 120-72.9 0-7.6-28.2c-9-33.7-43.6-53.6-77.3-44.6l-94.4 25.3c-23.6 6.3-40.5 25.2-45.3 47.5L48 224 48 104zm60 168l20.4 76.2c9 33.7 43.6 53.6 77.3 44.6l94.4-25.3c33.7-9 53.6-43.6 44.6-77.3l-4.9-18.2 60 0 0 72c0 48.6-39.4 88-88 88l-176 0c-48.6 0-88-39.4-88-88l0-72 60 0zM72 32C32.2 32 0 64.2 0 104L0 344c0 75.1 60.9 136 136 136l176 0c75.1 0 136-60.9 136-136l0-240c0-39.8-32.2-72-72-72L72 32zM254.7 197.5c8.1-2.2 16.3 2.6 18.5 10.7l25.3 94.4c2.2 8.1-2.6 16.3-10.7 18.5l-94.4 25.3c-8.1 2.2-16.3-2.6-18.5-10.7l-25.3-94.4c-2.2-8.1 2.6-16.3 10.7-18.5l94.4-25.3z"/></svg>