<svg xmlns="http://www.w3.org/2000/svg" viewBox="0 0 576 512"><path fill="currentColor" d="M288.1 32c13.3 0 24 10.7 24 24l0 256c0 13.3-10.7 24-24 24s-24-10.7-24-24l0-256c0-13.3 10.7-24 24-24zm-69.7 6.1c-1.5 5.7-2.3 11.7-2.3 17.9l0 31.4c-67.5 14-127.9 47.4-175.2 94.1-9.4 9.3-24.6 9.2-33.9-.2s-9.2-24.6 .2-33.9C63.7 91.5 136.7 52.4 218.3 38.1zm-2.3 181.8l0 51.5c-23.9 10.7-45 26.7-61.9 46.4-8.6 10.1-23.8 11.3-33.8 2.7s-11.3-23.8-2.7-33.8c25.9-30.3 59.8-53.6 98.4-66.7zm144 51.5l0-51.5c38.6 13.1 72.5 36.4 98.4 66.7 8.6 10.1 7.4 25.2-2.7 33.8s-25.2 7.4-33.8-2.7c-16.8-19.7-37.9-35.7-61.9-46.4zm0-184l0-31.4c0-6.2-.8-12.2-2.3-17.9 81.6 14.4 154.7 53.4 211.2 109.2 9.4 9.3 9.5 24.5 .2 33.9s-24.5 9.5-33.9 .2c-47.3-46.7-107.7-80-175.2-94.1zM288.1 384a48 48 0 1 1 0 96 48 48 0 1 1 0-96z"/></svg>