<svg xmlns="http://www.w3.org/2000/svg" viewBox="0 0 640 512"><path fill="currentColor" d="M256 32c118.3 0 215.2 91.8 223.4 208l-48.2 0C423.2 150.3 347.8 80 256 80 158.8 80 80 158.8 80 256s78.8 176 176 176c49.3 0 93.9-20.3 125.8-52.9 8.1 3.2 17 4.9 26.2 4.9l31.8 0c-40.5 58-107.7 96-183.8 96-123.7 0-224-100.3-224-224S132.3 32 256 32zM520 288c48.6 0 88 39.4 88 88s-39.4 88-88 88l-16 0c-13.3 0-24-10.7-24-24s10.7-24 24-24l16 0c22.1 0 40-17.9 40-40s-17.9-40-40-40l-112 0c-13.3 0-24-10.7-24-24s10.7-24 24-24l112 0zM256 384a32 32 0 1 1 0-64 32 32 0 1 1 0 64zm0-256c18.2 0 32.7 15.5 31.4 33.7l-7.4 104c-.9 12.6-11.4 22.3-23.9 22.3-12.6 0-23-9.7-23.9-22.3l-7.4-104C223.3 143.5 237.8 128 256 128zM552 48c48.6 0 88 39.4 88 88s-39.4 88-88 88l-25.8 0c-1.9-16.5-5.3-32.5-10.1-48l35.9 0c22.1 0 40-17.9 40-40s-17.9-40-40-40l-16 0c-13.3 0-24-10.7-24-24s10.7-24 24-24l16 0z"/></svg>