<svg xmlns="http://www.w3.org/2000/svg" viewBox="0 0 512 512"><path fill="currentColor" d="M316.2 382.8c9.1 14.8 32 6.5 29.5-10.7L317.3 180c-.5-3.4 .1-6.9 1.8-9.9L411.4-.8c8.3-15.3-10.4-31-24-20.1L235.2 99.7c-2.7 2.1-6 3.4-9.5 3.5L31.6 108.6C14.2 109 9.9 133 26.1 139.4l180.6 71.5c3.2 1.3 5.9 3.5 7.7 6.5L316.2 382.8zm-35.8 32.4c-1.8-2.3-3.5-4.7-5.1-7.3l-42.9-69.7 0 125.7-80 0c-13.3 0-24 10.7-24 24s10.7 24 24 24l208 0c13.3 0 24-10.7 24-24s-10.7-24-24-24l-80 0 0-48.7zM256.5 136a24 24 0 1 1 0 48 24 24 0 1 1 0-48z"/></svg>