<svg xmlns="http://www.w3.org/2000/svg" viewBox="0 0 320 512"><path fill="currentColor" d="M40.7 18.4C43.2 7.6 52.9 0 64 0L256 0c11.1 0 20.8 7.6 23.3 18.4l36.3 152.5c2.9 12.1 4.4 24.6 4.4 37.1 0 80.2-59 146.7-136 158.2l0 129.8 64 0c13.3 0 24 10.7 24 24s-10.7 24-24 24L72 544c-13.3 0-24-10.7-24-24s10.7-24 24-24l64 0 0-129.8C59 354.6 0 288.2 0 208 0 195.5 1.5 183 4.4 170.9L40.7 18.4zM52.5 176L51 182c-2 8.5-3 17.2-3 26 0 61.9 50.2 112 112 112s112-50.2 112-112c0-8.7-1-17.5-3-26l-1.4-6-215 0zm11.4-48l192.2 0-19-80-154.1 0-19 80z"/></svg>