<svg xmlns="http://www.w3.org/2000/svg" viewBox="0 0 320 512"><path fill="currentColor" d="M64-40c0 10.4 6.7 19.3 16 22.6l0 142.8C32.2 153.1 0 204.7 0 264L0 488c0 48.6 39.4 88 88 88l144 0c48.6 0 88-39.4 88-88l0-224c0-59.3-32.2-110.9-80-138.6l0-142.8c9.3-3.3 16-12.2 16-22.6 0-13.3-10.7-24-24-24L88-64C74.7-64 64-53.3 64-40zm64 88l0-64 64 0 0 64-64 0zm0 48l64 0 0 44c0 9.4 5.5 18 14.1 21.9 38.9 17.6 65.9 56.7 65.9 102.1l0 8-224 0 0-8c0-45.4 27-84.5 65.9-102.1 8.6-3.9 14.1-12.4 14.1-21.9l0-44zM272 320l0 96-224 0 0-96 224 0zm0 144l0 24c0 22.1-17.9 40-40 40L88 528c-22.1 0-40-17.9-40-40l0-24 224 0z"/></svg>