<svg xmlns="http://www.w3.org/2000/svg" viewBox="0 0 448 512"><path fill="currentColor" d="M368 192l0 176c0 35.3-28.7 64-64 64s-64-28.7-64-64l0-48c0-53-43-96-96-96s-96 43-96 96l0 128c0 8.8 7.2 16 16 16s16-7.2 16-16l0-128c0-35.3 28.7-64 64-64s64 28.7 64 64l0 48c0 53 43 96 96 96s96-43 96-96l0-272c0-26.5-21.5-48-48-48l-48 0c-26.5 0-48 21.5-48 48s21.5 48 48 48l64 0 0 48zM144 176c15.9 0 31.2 2.6 45.5 7.3 27.7 9.2 51.7 26.6 69 49.3 5.1 6.7 9.6 13.8 13.5 21.3 10.2 19.8 16 42.2 16 66l0 48c0 8.8 7.2 16 16 16s16-7.2 16-16l0-176-16 0c-6.3 0-12.5-.6-18.5-1.8-27.6-5.4-51-22.6-64.7-46.2-8.2-14.1-12.8-30.5-12.8-48 0-53 43-96 96-96l48 0c53 0 96 43 96 96l0 272c0 79.5-64.5 144-144 144-55.7 0-104.1-31.7-128-78-10.2-19.8-16-42.2-16-66l0-48c0-8.8-7.2-16-16-16s-16 7.2-16 16l0 128c0 35.3-28.7 64-64 64S0 483.3 0 448L0 320c0-79.5 64.5-144 144-144zM344 72a24 24 0 1 1 0 48 24 24 0 1 1 0-48z"/></svg>