<svg xmlns="http://www.w3.org/2000/svg" viewBox="0 0 512 512"><path fill="currentColor" d="M99.7 377.8c1.6-19.9-9.2-38.8-27.3-47.3-8.3-3.9-14.7-11.2-17.3-20.7s-.6-19 4.6-26.5c11.4-16.4 11.4-38.2 0-54.6-5.2-7.6-7.1-17.1-4.6-26.5s9-16.7 17.3-20.7c18.1-8.5 28.9-27.4 27.3-47.3-.7-9.2 2.4-18.4 9.3-25.3s16.1-10 25.3-9.3c19.9 1.6 38.8-9.2 47.3-27.3 3.9-8.3 11.2-14.7 20.7-17.3s19-.6 26.5 4.6c16.4 11.4 38.2 11.4 54.6 0 7.6-5.2 17.1-7.1 26.5-4.6s16.7 9 20.7 17.3c8.5 18.1 27.4 28.9 47.3 27.3 9.2-.7 18.4 2.4 25.3 9.3s10 16.1 9.3 25.3c-1.6 19.9 9.2 38.8 27.3 47.3 8.3 3.9 14.7 11.2 17.3 20.7s.6 19-4.6 26.5c-11.4 16.4-11.4 38.2 0 54.6 5.2 7.6 7.1 17.1 4.6 26.5s-9 16.7-17.3 20.7c-18.1 8.5-28.9 27.4-27.3 47.3 .7 9.2-2.4 18.4-9.3 25.3-4.6 4.6-10.2 7.5-16.1 8.7 8.2 11.2 13.1 25 13.1 40l0 6.2c13.6-3.4 26.4-10.4 37-21 17.3-17.3 25-40.5 23.2-63.1 20.5-9.7 36.8-28 43.1-51.6s1.4-47.6-11.5-66.3c12.9-18.6 17.8-42.6 11.5-66.3s-22.6-41.9-43.1-51.6c1.8-22.6-5.9-45.8-23.2-63.1s-40.5-25-63.1-23.2c-9.7-20.5-28-36.8-51.6-43.1S274.7 7.3 256 20.2C237.4 7.3 213.4 2.4 189.8 8.7s-41.9 22.6-51.6 43.1C115.5 50 92.3 57.7 75 75s-25 40.5-23.2 63.1c-20.5 9.7-36.8 28-43.1 51.6S7.4 237.3 20.3 256C7.3 274.6 2.4 298.6 8.7 322.3s22.6 41.9 43.1 51.6c-1.9 22.6 5.9 45.8 23.2 63.1 10.6 10.6 23.5 17.6 37 21l0-6.2c0-15 4.8-28.8 13.1-40-5.9-1.2-11.5-4.1-16.1-8.7-6.9-6.9-10-16.1-9.3-25.3zM289.2 192c-4.2 0-8.3-1.7-11.3-4.7l-10.5-10.5c-6.2-6.2-16.4-6.2-22.6 0l-10.5 10.5c-3 3-7.1 4.7-11.3 4.7L208 192c-8.8 0-16 7.2-16 16l0 14.9c0 4.2-1.7 8.3-4.7 11.3l-10.5 10.5c-6.2 6.2-6.2 16.4 0 22.6l10.5 10.5c3 3 4.7 7.1 4.7 11.3l0 14.9c0 8.8 7.2 16 16 16l14.9 0c4.2 0 8.3 1.7 11.3 4.7l10.5 10.5c6.2 6.2 16.4 6.2 22.6 0l10.5-10.5c3-3 7.1-4.7 11.3-4.7l14.9 0c8.8 0 16-7.2 16-16l0-14.9c0-4.2 1.7-8.3 4.7-11.3l10.5-10.5c6.2-6.2 6.2-16.4 0-22.6l-10.5-10.5c-3-3-4.7-7.1-4.7-11.3l0-14.9c0-8.8-7.2-16-16-16l-14.9 0zM160 451.8l0 72.4c0 10.9 8.9 19.8 19.8 19.8 2.8 0 5.5-.6 8-1.7L256 512 324.2 542.3c2.5 1.1 5.3 1.7 8 1.7 10.9 0 19.8-8.9 19.8-19.8l0-72.4c0-10.9-8.9-19.8-19.8-19.8-2.8 0-5.5 .6-8 1.7L256 464 187.9 433.7c-2.5-1.1-5.3-1.7-8-1.7-10.9 0-19.8 8.9-19.8 19.8z"/></svg>