<svg xmlns="http://www.w3.org/2000/svg" viewBox="0 0 576 512"><path fill="currentColor" d="M208 168c0-92.8 75.2-168 168-168 27.1 0 52.8 6.4 75.5 17.9 6.9 3.5 11.7 10 12.9 17.6s-1.3 15.3-6.7 20.8l-73.7 73.7 0 30.1 30.1 0 73.7-73.7c5.4-5.4 13.2-7.9 20.8-6.7s14.2 6 17.6 12.9c11.4 22.7 17.9 48.4 17.9 75.5 0 92.8-75.2 168-168 168-16.6 0-32.7-2.4-47.9-6.9L152.6 504.6c-31.2 31.2-81.9 31.2-113.1 0s-31.2-81.9 0-113.1L214.9 215.9c-4.5-15.2-6.9-31.3-6.9-47.9zM376 48c-66.3 0-120 53.7-120 120 0 16 3.1 31.3 8.8 45.2 3.6 8.9 1.6 19.2-5.3 26l-186.2 186.2 0 0c-12.5 12.5-12.5 32.8 0 45.3s32.8 12.5 45.3 0L304.8 284.5c6.8-6.8 17.1-8.9 26-5.3 13.9 5.7 29.2 8.8 45.2 8.8 66.3 0 120-53.7 120-120 0-6.9-.6-13.7-1.7-20.3L441 201c-4.5 4.5-10.6 7-17 7l-64 0c-13.3 0-24-10.7-24-24l0-64c0-6.4 2.5-12.5 7-17l53.3-53.3C389.7 48.6 382.9 48 376 48z"/></svg>