<svg xmlns="http://www.w3.org/2000/svg" viewBox="0 0 384 512"><path fill="currentColor" d="M133 10.3c6.9 4.4 11 12 11 20.2l0 119.6 48 48 48-48 0-119.6c0-8.2 4.2-15.8 11-20.2s15.5-5 23-1.6c64.3 29.5 110 89.9 110 167.3 0 64.3-31.6 121.1-80 156l0 156c0 13.3-10.7 24-24 24s-24-10.7-24-24l0-168.9c0-8.3 4.3-16.1 11.4-20.4 41.2-25.4 68.6-70.9 68.6-122.7 0-42.2-18.3-77.7-48-102.4l0 86.4c0 6.4-2.5 12.5-7 17l-72 72c-4.5 4.5-10.6 7-17 7s-12.5-2.5-17-7l-72-72c-4.5-4.5-7-10.6-7-17l0-86.4c-29.7 24.7-48 60.2-48 102.4 0 51.8 27.4 97.3 68.6 122.7 7.1 4.4 11.4 12.1 11.4 20.4L128 488c0 13.3-10.7 24-24 24s-24-10.7-24-24l0-156c-48.4-34.8-80-91.7-80-156 0-77.5 45.7-137.8 110-167.3 7.4-3.4 16.1-2.8 23 1.6z"/></svg>