<svg xmlns="http://www.w3.org/2000/svg" viewBox="0 0 576 512"><path fill="currentColor" d="M416 80c8.8 0 16 7.2 16 16l0 224c0 8.8-7.2 16-16 16l-256 0c-8.8 0-16-7.2-16-16l0-224c0-8.8 7.2-16 16-16l256 0zM160 32c-35.3 0-64 28.7-64 64l0 224c0 35.3 28.7 64 64 64l256 0c35.3 0 64-28.7 64-64l0-224c0-35.3-28.7-64-64-64L160 32zM24 288c-13.3 0-24 10.7-24 24L0 416c0 35.3 28.7 64 64 64l448 0c35.3 0 64-28.7 64-64l0-104c0-13.3-10.7-24-24-24s-24 10.7-24 24l0 104c0 8.8-7.2 16-16 16L64 432c-8.8 0-16-7.2-16-16l0-104c0-13.3-10.7-24-24-24zM355.9 140.1c-9.4-9.4-24.6-9.4-33.9 0l-33.9 33.9-33.9-33.9c-9.4-9.4-24.6-9.4-33.9 0s-9.4 24.6 0 33.9l33.9 33.9-33.9 33.9c-9.4 9.4-9.4 24.6 0 33.9s24.6 9.4 33.9 0l33.9-33.9 33.9 33.9c9.4 9.4 24.6 9.4 33.9 0s9.4-24.6 0-33.9l-33.9-33.9 33.9-33.9c9.4-9.4 9.4-24.6 0-33.9z"/></svg>