<svg xmlns="http://www.w3.org/2000/svg" viewBox="0 0 512 512"><path fill="currentColor" d="M464 256c0 114.9-93.1 208-208 208-50.9 0-92.2-41.2-92.2-92s41.3-92 92.2-92c77.3 0 140-62.7 140-140 0-15.4-2.5-30.1-7-44 45.9 38.2 75 95.7 75 160zM256 48c50.8 0 92 41.2 92 92s-41.2 92-92 92c-77.3 0-140.2 62.6-140.2 140 0 15.3 2.5 30 7 43.8-45.7-38.2-74.8-95.6-74.8-159.8 0-114.9 93.1-208 208-208zm0 464a256 256 0 1 0 0-512 256 256 0 1 0 0 512zm32-368a32 32 0 1 0 -64 0 32 32 0 1 0 64 0zM256 400a32 32 0 1 0 0-64 32 32 0 1 0 0 64z"/></svg>