<svg xmlns="http://www.w3.org/2000/svg" viewBox="0 0 448 512"><path fill="currentColor" d="M341.2-12.1c9.1 6 13 17.3 9.6 27.6L292 192 412.9 192c19.4 0 35.1 15.7 35.1 35.1 0 10-4.2 19.5-11.7 26.1L136 521.9c-8.1 7.3-20.1 8.2-29.2 2.2s-13-17.3-9.6-27.6L156 320 35.1 320C15.7 320 0 304.3 0 284.9 0 275 4.2 265.5 11.7 258.8L312-9.9c8.1-7.3 20.1-8.1 29.2-2.2zM68.9 272l120.4 0c7.7 0 15 3.7 19.5 10s5.7 14.3 3.3 21.6L171.3 425.9 379.1 240 258.7 240c-7.7 0-15-3.7-19.5-10s-5.7-14.3-3.3-21.6L276.7 86.1 68.9 272z"/></svg>