<svg xmlns="http://www.w3.org/2000/svg" data-name="Layer 1" viewBox="0 0 75 75"><path d="M68.366 35.114v3.164a17.6 17.6 0 0 1-2.858 9.261 34.7 34.7 0 0 1-7.131 8.032 36 36 0 0 1-8.01 5.329 40 40 0 0 1-5.935 2.569 45 45 0 0 1-5.032 1.158 41.3 41.3 0 0 1-8.891.243 13.5 13.5 0 0 1-5.326-1.449c-2.329-1.142-4.723-2.154-6.983-3.435a21.3 21.3 0 0 1-4.756-3.52 11.35 11.35 0 0 1-2.91-5.3 23.7 23.7 0 0 1-.642-8.466c.207-1.856.177-3.706.322-5.551a26.6 26.6 0 0 1 .94-5.827 19.3 19.3 0 0 1 3.946-6.88 18.8 18.8 0 0 1 3.263-3.03 14 14 0 0 0 1.237-1.123 55 55 0 0 1 7.022-5.467 23.4 23.4 0 0 1 7.01-2.84 42 42 0 0 1 4.317-.97 23 23 0 0 1 3.335-.148c1.3-.014 2.611-.05 3.908.05a42.2 42.2 0 0 1 8.031 1.175 27 27 0 0 1 3.51 1.146 19.2 19.2 0 0 1 7.986 6.438 13.2 13.2 0 0 1 1.563 3.14 36 36 0 0 1 1.765 6.017 38 38 0 0 1 .319 6.284m-3.431-.132h.01v-1.3a29 29 0 0 0-.3-4.624c-.188-1.177-.62-2.265-.876-3.41-.8-3.6-3.1-6.109-6.055-8.089a15.9 15.9 0 0 0-4.69-2.159 31 31 0 0 0-3.973-.858 63 63 0 0 0-6.425-.654 26.2 26.2 0 0 0-7.536.709 30.5 30.5 0 0 0-5.41 1.861 20.6 20.6 0 0 0-6.054 4.2c-2.025 2.085-4.039 4.179-5.891 6.418a17.7 17.7 0 0 0-2.909 4.508 29.6 29.6 0 0 0-1.487 4.378 37 37 0 0 0-1.149 6.366 25.8 25.8 0 0 0 1.041 9.128 7.14 7.14 0 0 0 2.4 3.656 28 28 0 0 0 7.494 4.363 11 11 0 0 1 1 .485 15.7 15.7 0 0 0 7.252 1.99 1.2 1.2 0 0 1 .548.07 5.4 5.4 0 0 0 2.015.226c.821.073 1.585-.3 2.38-.292a18 18 0 0 0 3.68-.448 22.5 22.5 0 0 0 3.755-.952 36.9 36.9 0 0 0 13.506-8.6c.257-.268.542-.511.814-.764a13.7 13.7 0 0 0 1.863-1.771 35.4 35.4 0 0 0 3.095-4.391 15 15 0 0 0 1.9-6.514c.031-1.173.002-2.353.002-3.532m-42.46 6.79c-.239-3.753 1.313-6.973 3.236-10.043A37 37 0 0 0 28 27.7a5.35 5.35 0 0 1 1.933-2.187 15.2 15.2 0 0 1 5.424-2.313c4.013-.879 3.069-.836 6.777-.826h2.049a9.3 9.3 0 0 1 6.649 2.819 8.9 8.9 0 0 1 2.353 3.725 19.8 19.8 0 0 1 1.365 6.675 14.97 14.97 0 0 1-2.25 7.732 3.4 3.4 0 0 1-.453.584c-1.22 1.236-2.409 2.507-3.685 3.684a12.75 12.75 0 0 1-5.1 2.935 15 15 0 0 1-3.069.65 18 18 0 0 0-2.927.4 15.7 15.7 0 0 1-4.551.377 14.1 14.1 0 0 1-4.154-.829 7.93 7.93 0 0 1-5.192-5.17 9.25 9.25 0 0 1-.694-4.184m19.233-17.445a21 21 0 0 0-5.969.832 11.4 11.4 0 0 0-3.439 1.324 9.5 9.5 0 0 0-2.9 2.531c-.663.9-1.232 1.854-1.838 2.784a21.3 21.3 0 0 0-2.623 5.894 12.3 12.3 0 0 0-.158 6.753 5.53 5.53 0 0 0 3.63 4.108 18.8 18.8 0 0 0 3.926.964 9.9 9.9 0 0 0 3.491-.16 17.5 17.5 0 0 1 3.465-.561 9.2 9.2 0 0 0 2.89-.524 13.05 13.05 0 0 0 4.738-2.839c.617-.608 1.217-1.233 1.842-1.833a11.9 11.9 0 0 0 1.848-2.538c1.222-2.028 1.29-4.337 1.581-6.588a3.3 3.3 0 0 0-.131-.908c-.05-.3-.126-.6-.156-.907a11.9 11.9 0 0 0-1.27-4.222 6.63 6.63 0 0 0-2.814-2.865 8.5 8.5 0 0 0-4.949-1.248c-.246.023-.496.003-1.164.003m-8.431 13.079a6.7 6.7 0 0 1 2.278-5.561c.279-.243.565-.48.83-.736a3.05 3.05 0 0 1 2.175-.851 5.2 5.2 0 0 1 3.032.578 4.91 4.91 0 0 1 2.561 4.2 7.68 7.68 0 0 1-1.584 4.628 12.5 12.5 0 0 1-1.516 1.864 4.08 4.08 0 0 1-3.328 1.14 4.974 4.974 0 0 1-4.445-4.856 2 2 0 0 1-.003-.406m2.308-.731h-.009c0 .308.009.616 0 .924a1.9 1.9 0 0 0 .7 1.447 4.2 4.2 0 0 0 1.837.786.65.65 0 0 0 .493-.174A9.35 9.35 0 0 0 40.91 36.8a3.96 3.96 0 0 0 .5-2.126c-.054-.653-.8-1.69-1.423-1.753a8.2 8.2 0 0 0-2.208.014 2.75 2.75 0 0 0-2.188 2.447 11 11 0 0 0-.006 1.293"/></svg>