<svg xmlns="http://www.w3.org/2000/svg" data-name="Layer 1" viewBox="0 0 75 75"><path d="M68.443 37.691a40.7 40.7 0 0 1-3.125 15.181q-1.087 2.6-2.209 5.186a6 6 0 0 1-.644 1.13 1.993 1.993 0 0 1-3.665-1.017 4.4 4.4 0 0 1 .131-1.5 26 26 0 0 1 1.294-3.448 36.5 36.5 0 0 0 3.275-10.28 42.6 42.6 0 0 0 .571-9.09 58 58 0 0 0-.894-8.4 37 37 0 0 0-2.8-8.182 15.4 15.4 0 0 1-1.252-3c-.09-.4.051-.622.578-.648a1.28 1.28 0 0 1 1 .337 10 10 0 0 1 1.344 1.419 26.8 26.8 0 0 1 3.865 7.244c.312 1.035.735 2.029 1.038 3.075a27 27 0 0 1 1.142 6.812 12.8 12.8 0 0 0 .307 2.575 11.6 11.6 0 0 1 .044 2.606M5.687 49.033a40.7 40.7 0 0 0 1.4 6.773A16.2 16.2 0 0 0 9.4 60.444a2.62 2.62 0 0 0 2.942.763c.343-.135.485-1.433.22-2.267-.11-.343-.29-.664-.433-1-.457-1.064-.959-2.111-1.353-3.2a23.4 23.4 0 0 1-1.068-3.511c-.286-1.485.009-3.039-.4-4.526.47-.959-.236-1.958.12-2.938s.059-2.027.254-3.018c.223-1.138.235-2.324.523-3.416.279-1.06.266-2.139.561-3.191a56.3 56.3 0 0 1 7.093-15.071 8.7 8.7 0 0 1 2.517-2.666c.113-.075.3-.2.287-.276-.028-.244-.272-.247-.465-.281a2.9 2.9 0 0 0-2.4.78 17.3 17.3 0 0 0-2.538 2.681A50 50 0 0 0 12 24.183a38.9 38.9 0 0 0-4.441 10.075 54 54 0 0 0-1.885 12.817 15 15 0 0 0 .013 1.958m24.439-13.292a9.8 9.8 0 0 0 .029 2.172 16.3 16.3 0 0 1 .27 3.457c.015.726.09 1.453.066 2.177a5.9 5.9 0 0 0 .593 2.293 1.474 1.474 0 0 0 1.958.849 57 57 0 0 0 3.046-1.135 50 50 0 0 0 5.946-2.654 24 24 0 0 0 2.712-1.8 1.415 1.415 0 0 0 .463-1.925 2.37 2.37 0 0 0-1.562-1.675 9 9 0 0 1-.789-.363 35.6 35.6 0 0 1-7.48-3.936 5.45 5.45 0 0 0-3.751-.776A1.72 1.72 0 0 0 30.082 34c-.045.578-.009 1.162-.009 1.743Zm2.934 3.7c.112-.334.025-.733.118-1.077.2-.738-.274-1.587.379-2.243a7.4 7.4 0 0 1 2.026 1.182 18 18 0 0 0 3.622 1.936 5 5 0 0 1 1.108.661c.165.1.167.241.025.357a3 3 0 0 1-.511.393q-3.3 1.656-6.608 3.291c-.323.159-.472.023-.473-.4v-1.3a9.3 9.3 0 0 1 .314-2.796Zm-10.76-9.02a4.97 4.97 0 0 0-2.343 2.733 12.4 12.4 0 0 0-1.332 5.2 26.2 26.2 0 0 0 .864 6.406 13 13 0 0 0 1.506 3.573 1.135 1.135 0 0 0 1.457.606c.638-.276.826-.8.493-1.631a43 43 0 0 1-2.119-6.8 7.7 7.7 0 0 1-.228-1.7 14.26 14.26 0 0 1 1.5-6.467q.439-.871.861-1.752c.016-.034-.04-.118-.082-.16a1 1 0 0 0-.173-.109 2.6 2.6 0 0 0-.404.101m32.147 5.2a14.9 14.9 0 0 0-1.647-4.443 1.7 1.7 0 0 0-.725-.773.53.53 0 0 0-.4-.023.47.47 0 0 0-.237.332 5.5 5.5 0 0 0 .08 1.07 28 28 0 0 1 .7 3.8c.1 2.367.379 4.757-.307 7.106a5.3 5.3 0 0 0-.064 1.722 1.25 1.25 0 0 0 .923 1.083 1.3 1.3 0 0 0 1.169-.427 2 2 0 0 0 .608-1.116 10.8 10.8 0 0 0 .379-4c.374-1.395-.187-2.868-.48-4.331Z"/></svg>