<svg xmlns="http://www.w3.org/2000/svg" viewBox="0 0 51.41 86.387"><g data-name="Layer 2"><path d="M.857 59c0-4.538.018-9.076-.008-13.614-.01-1.8-.384-3.591-.556-5.363C-.108 35.89.062 31.705 0 27.542c1.316-2.345-.068-4.9.649-7.4.63-2.193.233-4.683.278-7.042.055-2.9.036-5.81.166-8.71A4.38 4.38 0 0 1 5.223.118 35 35 0 0 1 9.029 0c5.082.016 10.164.112 15.245.059 2.733-.028 5.382.7 8.052.8 3.948.14 7.9.476 11.863.3a11.6 11.6 0 0 1 2.173.059 5.62 5.62 0 0 1 4.72 4.553 25.5 25.5 0 0 1 .294 4.34c-.064 7.623.278 15.286-.376 22.86-1.08 12.494-.614 25-1.041 37.487-.141 4.145-.641 8.281-1.062 12.413a2.81 2.81 0 0 1-2.031 2.33 20.83 20.83 0 0 1-11.245.742 30.3 30.3 0 0 0-5.911-.543c-6.172-.017-12.343.026-18.514.036-1.452 0-2.9.007-4.355-.058-3.908-.175-5.289-1.327-5.3-5.259-.008-3.07-.77-6.053-.578-9.14.192-3.079.008-6.173-.009-9.259-.005-.908 0-1.815 0-2.723Zm5.725-15.557H6.43c0 5.629-.012 11.258 0 16.887.012 4.54.152 9.082.065 13.619-.11 5.778 1.162 6.115 5.811 5.827 2.894-.18 5.819.126 8.71-.069 2.776-.187 5.358.766 8.063.973 2.96.226 5.693-.943 8.618-.907 6.173.078 5.461.72 5.572-5.483.1-5.81-.108-11.652.443-17.42.449-4.7.63-9.382.721-14.082.114-5.81.136-11.623.288-17.432.052-1.975.843-4.036.475-5.9-.646-3.257-.318-6.512-.65-9.749-.144-1.4-.608-1.936-2.043-1.933-5.446.01-10.892.068-16.338.112q-7.9.063-15.795.14a10.6 10.6 0 0 0-2.145.216A1.89 1.89 0 0 0 6.758 9.7a13.6 13.6 0 0 0-.17 2.694q-.015 15.526-.006 31.049m8.925 9.316Q25.1 43.171 34.7 33.6c1.343-1.346 1.606-2.382 1.021-3.324-.656-1.057-2.047-1.054-3.835.133a38.8 38.8 0 0 0-8.239 7.8 47 47 0 0 1-4.841 5.021 71 71 0 0 0-6.45 7.27 3.4 3.4 0 0 0-.487 1.5c-.144.729.975 1.761 1.747 1.655a2.76 2.76 0 0 0 1.891-.896m10-.1c3.587-3.529 6.7-7.549 10.91-10.438.742-.509.361-1.331-.082-1.914-.99-1.3-2.392-1.405-3.719-.142-3.135 2.982-6.215 6.023-9.277 9.081a7.2 7.2 0 0 0-1.557 2.175 3.7 3.7 0 0 0-.053 2.08 1.147 1.147 0 0 0 1.263.913 4.82 4.82 0 0 0 2.513-1.754Zm.446-40.759c-2.52.125-5.045.205-7.557.425-.376.032-.871.677-.989 1.124a1.7 1.7 0 0 0 .344 1.428 5.23 5.23 0 0 0 3.349 1.592c3.43.064 6.865.049 10.291-.1 1.147-.049 1.813-1.048 2.186-2.138.3-.886-.257-2.052-1.12-2.074-2.163-.056-4.328-.019-6.493-.019Zm2.14 62.828a3.06 3.06 0 0 0-.669-3.009 5.6 5.6 0 0 0-1.595-1.387 3.03 3.03 0 0 0-4.34 2.463 3.368 3.368 0 0 0 3.573 3.768 3.17 3.17 0 0 0 3.031-1.831Z" data-name="Layer 2 Image"/></g></svg>