<svg xmlns="http://www.w3.org/2000/svg" xml:space="preserve" viewBox="0 0 453.814 331.222"><path d="M.964 66.115c.019-.03.038-.066.057-.098l.07.02-.074.118c-.019-.013-.034-.027-.053-.04m-.353 2.781c.206.263.513.51.821.597.117.033.469-.374.54-.629.311-1.116.019-2.046-.955-2.71-.534.851-1.235 1.682-.406 2.742m5.704 7.981-.002.251.171-.077q-.015-.02-.029-.041zm-.603-.578.604.577.006-.824zm184.39-4.081.489-.527-.726-.107zm52.683 84.468c-1.009-.287-2.499-.051-3.02-.676-2.108-2.531-6.071-.994-7.964-3.842-.166-.249-1.068-.191-1.537-.022-1.549.56-3.06 1.301-4.318-.511-.078-.113-.328-.107-.637-.196-.367.204-.904.373-1.265.724-1.297 1.263-2.533 2.587-3.794 3.887-.957.986-1.487 2.08-.77 3.426.569 1.069 2.099 1.247 3.909.356 1.625-.8 3.167-1.771 4.785-2.586 1.722-.867 2.005-.727 2.722 1.066.134.334.153.718.304 1.042.688 1.476 1.546 1.75 3.039.935.471-.257.871-.646 1.302-.976.686-.525 1.359-.404 1.941.131.531.49.933 1.125 1.482 1.59 1.971 1.666 3.522 1.494 5.082-.5 1.143-1.463.56-3.33-1.261-3.848m27.679 18.105c-.532-.082-1.037-.34-1.568-.417-1.713-.247-3.69 1.069-4.12 2.788-.173.688-.142 1.428-.14 1.404-.143 3.98.635 4.527 3.842 3.418a24 24 0 0 0 2.503-1.01c1.468-.698 3.138-1.43 2.967-3.373-.171-1.926-1.761-2.546-3.484-2.81m-80.45-11.06c-1.92-.181-6.419 1.458-6.879 2.304-.506.93 1.564 3.84 3.683 5.025.943.528 1.959.997 3.001 1.262 2.284.581 4.72-.523 6.007-2.68.233-.391.296-1.117.089-1.499-1.363-2.516-3.222-4.406-5.901-4.412m145.289-2.291c-.388.221-.815.915-.738 1.289.131.628.557 1.278 1.042 1.719.347.316.988.408 1.503.424 3.507.111 6.738-.563 9.315-3.512-.724-.368-1.326-.705-1.954-.988-3.263-1.472-6.279-.581-9.168 1.068M189.142 68.982l-.146-.327-.203.295zm218.171 155.375c.707 1.594.61 3.159-.568 4.586-1.522 1.844-3.316 3.212-5.499 4.308-8.017 4.025-16.641 6.133-25.201 8.527-9.589 2.682-19.103 5.636-28.633 8.527-1.551.47-3.015 1.227-4.517 1.857-1.272.534-1.858 1.403-2.076 2.864-1.13 7.572-6.234 7.949-11.284 4.082-.998-.764-1.819-1.758-2.742-2.624-1.43-1.341-2.267-1.507-3.8-.258-2.434 1.983-5.12 3.435-8.07 4.434-2.757.934-5.528 1.638-8.505 1.611-2.951-.027-3.267.239-4.115 3.26-.828 2.949-1.382 5.981-1.919 9.001-.103.582.26 1.433.692 1.892 2.232 2.372 4.544 4.67 6.851 6.97 2.437 2.431 5.021 4.726 7.325 7.276 3.981 4.407 5.966 9.885 7.785 15.418.057.172.161.365.129.525-.844 4.223 1.771 7.202 3.725 10.421.565.931 1.181 1.839 1.653 2.816 1.453 3.007.95 4.865-1.528 7.141-1.521 1.397-3.185 2.424-5.182 2.822-4.498.896-8.198-.074-10.737-4.327-1.965-3.291-3.703-6.656-4.927-10.283-.921-2.73-1.813-5.469-3.177-7.846-.438-.055-.662-.149-.742-.078-.12.105-.185.323-.193.496-.152 3.446-.328 6.891-.416 10.339-.032 1.265.251 2.539.208 3.803-.054 1.589.526 3.358-.774 4.69-1.531 1.568-3.203 3.084-5.501 3.293-2.88.261-5.791.53-8.668.382-3.623-.186-7.137-.372-10.782.425-3.134.685-6.493.388-9.754.435-4.358.064-8.719-.026-13.075.078-2.905.07-4.801-1.402-6.127-3.723-1.441-2.523-2.588-5.15-2.529-8.195.027-1.391-.418-2.791-.671-4.318-2.184.969-2.607 2.771-3.106 4.485-.251.862-.226 1.804-.478 2.665-1.128 3.843-2.945 5.326-7.036 5.567-4.348.257-8.718.216-13.053.595-6.746.59-13.363-.553-20.017-1.182-3.818-.361-7.58-.47-11.384.199-4.679.823-7.308-1.038-8.141-5.627-.45-2.477-.853-4.905-.181-7.516.567-2.204.314-4.62.471-7.907-1.001 1.195-1.486 1.602-1.755 2.122a646 646 0 0 0-5.403 10.668c-.861 1.745-2.196 2.93-4.042 3.366-3.686.87-7.39 1.684-11.115 2.368-2.662.489-5.361.897-8.059 1.042-4.377.236-7.237-3.076-6.318-7.328 1.066-4.929 3.552-9.105 7.383-12.423a173 173 0 0 1 5.463-4.51c3.729-2.97 6.852-6.515 9.408-10.492 1.985-3.088 4.003-6.043 7.152-8.062 1.247-.8 1.405-1.885.963-3.308-.751-2.419-1.292-4.904-1.906-7.365-1.097-4.395-2.315-8.765-3.244-13.195-1.524-7.266-3.006-14.548-4.221-21.871-.83-5-.609-10.083-.147-15.135.165-1.806.32-3.615.386-5.427.078-2.17.691-4.617-.094-6.443-.853-1.983-3.788-1.483-5.726-2.351-4.538-2.032-8.544-4.818-12.117-8.191-4.921-4.647-10.286-8.598-16.338-11.648-4.597-2.317-8.462-5.624-11.851-9.464a36.2 36.2 0 0 0-8.759-7.273c-3.93-2.331-7.317-5.248-10.259-8.823-3.001-3.648-6.827-6.48-10.894-8.926-2.791-1.679-3.907-4.336-2.239-6.755 4.113-5.963 5.826-12.842 7.94-19.57 2.01-6.398 3.871-12.844 5.734-19.288 1.262-4.363 2.869-8.573 5.077-12.548.871-1.567 1.707-3.154 2.61-4.826-.824-.866-1.575-1.641-2.31-2.431-.61-.655-1.315-1.256-1.782-2.003-1.985-3.175-1.479-5.947 1.6-7.982 1.496-.989 3.177-1.774 4.874-2.363 1.673-.581 2.322-1.539 2.109-3.24-.09-.714.081-1.482-.112-2.155-.117-.409-.696-.965-1.076-.973-2.209-.045-4.264-.25-6.147-1.719-.714-.557-2.08-.436-3.134-.373-4.515.271-9.038.512-13.534.995-6.33.68-12.653.941-19.018.691-3.248-.128-6.513.077-9.767.219-4.099.178-8.196.344-12.266-.217-.033.065-.049.112-.022.128 0 0-.047.089-.107.159 0 0-.102.047-.135-.081-.09-.054-.134-.081-.146.019l-.17.218c-.145.016-.314.23-.228.289l.057-.072s.057-.072.101-.044c.087.057.03.131-.145.35q-.44.546-.476.341c-.026-.138-.293.126-.297.348-.022.094-.046.189-.085.155l-.08-.068c.023-.094.023-.094-.102.026s-.125.12-.047.189c.039.034-.024.095-.024.095l-.063.061c-.039-.035-.165.086-.356.267s-.255.241-.329.168c-.111-.109-.174-.051-.1.023.086.208-.268.617-.705.731-.167.061-.298.161-.264.201 0 0-.066.05-.166.061-.199.02-.199.02-.066.05.133.029.101.119.001.13-.066.05-.067.05-.033.09l-.133.1-.066-.081c.033-.09-.066-.081-.166.059-.066.05-.1.14-.135.231l-.035.091c-.067.049-.102.142-.237.24-.141.211-.376.297-.339.212l-.092-.126c-.129-.042-.232.084-.375.295-.038.085-.076.17-.106.127s-.098 0-.233.084c-.038.085-.068.042-.097-.001.009-.128-.126-.044-.135.084s-.01.128-.097-.001c-.029-.043-.125-.045-.125-.045-.067.042-.039.085.019.172s-.079.171-.232.082q-.017.194-.203.125c-.096.003-.327.072-.34.193.028.044-.068.036-.164.028l-.095-.008c.027.044-.041.08-.109.116 0 0-.204.108-.246.188l-.341.18c-.026-.045-.163.027-.231.063s-.162.027-.188-.018c-.12-.055-.12-.055-.068.036.026.045-.042.081-.111.117-.026-.045-.162.026-.23.062-.111.117-.205.107-.323.052-.143-.101-.143-.101-.161.026s-.019.128-.111.112c-.093-.015-.254.002-.458.095l-.321.032c-.024-.046-.024-.046-.136.062-.044.077-.112.109-.228.047-.183-.031-.183-.031-.204.093-.044.077-.089.155-.113.109-.023-.046-.16.016-.228.047-.113.109-.136.062-.159.016-.045-.09-.115-.061-.304.025l-.09.086c.015.011.013.028-.014.075-.073.125-.091.146-.164.094-.387.366-.777.729-1.157 1.102-1.797 1.759-3.642 2.768-6.284 2.301-1.165-.206-2.534.175-3.691.607-3.74 1.396-7.324 1.705-10.782-.765-.326-.233-.997-.113-1.466.008-2.814.725-4.827-.361-6.331-2.672l.801-.361-.843-.708-2.647-4.63c1.11-1.947-1.879-3.291-.762-5.329.307-.56-.135-1.609-.994-1.501-.396.05-.689.925-1.019 1.494-.319-.1-.799-.164-.836-.328-.803-3.608 1.097-8.778 3.907-10.545.565-.355 1.341-.544 2.012-.528 1.344.032 1.447-.799 1.378-1.741-.073-1.003.205-1.78 1.117-2.252 2.723-1.408 5.403-2.911 8.192-4.173a88 88 0 0 0 1.282-.595c-.093-.017-.208-.076-.231-.122-.072-.139-.143-.108-.166.016l-.072-.139c.023-.124.214-.094.356.015.047.093.047.093.071-.031a.3.3 0 0 1 .118-.108c.071-.031 0 0 .023.047-.095.155-.048.248.141.109.166-.186.26-.17.164-.015l-.032.053c.71-.337 1.421-.671 2.138-.992-.044-.082.01-.113.13-.058l.167-.074-.007-.008c-.093-.022-.02-.048.054-.074.072-.025.14-.048.093.02a44 44 0 0 1 .717-.304l.024-.008.171-.069c-.002-.055-.011-.097-.011-.097.074-.026.148-.051.166-.003-.018-.049.056-.074.148-.051l.148-.051c-.017-.046.036-.13.19-.168l.076-.021c-.016.019.002.056.034.097q.65-.24 1.319-.441c.028-.017.054-.034.096-.045a.2.2 0 0 1 .086-.006l.149-.042c-.014-.06.004-.069.133-.103.133-.068.187-.05.189.013a17 17 0 0 1 1.584-.345c2.199-.355 4.237-.782 6.317.012.002-.059.017-.044.068.022.124.049.25.119.374.177.236-.119.529-.1.526-.001-.001.052.078.109.241.068.161.011.322.021.401.079a.21.21 0 0 0 .241.016c.163-.057.734-.009.806.104-.004.052.237.089.559.139s.558.141.711.218c.073.064.233.09.233.09l.016-.103c.024-.162.643.16.613.312-.01.051-.019.102-.089.031s-.15-.092-.159-.04q-.145.124-.027.154c.149.091.226.111.414-.002.089-.031.189-.113.199-.164q.016-.076.24.062l.24.062c.08.021.08.021.148.092s.159.042.332.033c.093-.029.093-.029.08.021-.012.046.147.095.541.243.315.116.647.184.647.184l.158.059c-.016.049.141.109.22.138.175.01.316.12.394.149.061.078.059.084.155.071.019-.049.096-.011.173.028.058.087.135.125.212.164l.174.029c-.02.048.113.173.267.251.307.156.285.204.294.383.031.133-.015.226.06.264q.148-.012.137-.28c-.054-.086.023-.047.099-.007s.23.117.205.166l.146.096c.146.096.171.05.196.004-.024-.141.049-.092.025-.046.023.141.173.235.874.773.294.19.534.312.599.379.129-.026.198.034.137.119s.074.202.204.179c.1.018.136.12.104.161s.036.101.103.161c.1.019.067.06.002.141s-.065.22-.065.22c.066.059.099.019.132-.021.066-.08.133-.02.2.039l.133.12c.034-.039.135-.018.236.004.104.019.162.094.127.131l-.106.116c-.035.039-.035.039-.095-.03-.062-.065-.131-.121-.165-.084-.034.039-.003.137-.003.137.124.124.536.215.672.211l.023.107c.023.107.045.213.202.318.097.034.276.248.335.319.197.32.195.319.018.348-.159.134-.159.133-.022.137.139.003.223.054.184.085 0 0 .09.046.14.125.041-.032.14.126.281.255.148.241.147.241.062.301s-.08.168-.08.168c.005.108.095.158.048.079.038-.139.366.204.464.476.101.158.118.254.29.376.165.126.166.127.12.151-.092.05-.077.359.005.424 0 0 .082.065.129.043.083.066.083.067.036.089l-.141.067c-.094.044-.06.131-.012.109.082.065.165.133.151.242 0 0 .069.175.185.334.115.158.099.132.055.157l.022.07c.022.07.044.139.017.227-.027.087.017.226.115.192.049-.017.071.052.093.122-.023.075.069.389.082.436.049-.017.071.053.115.192l.022.07c-.022-.07-.071-.053-.12-.036s.127.57.285.761c.112.2.195.491.068.612-.049.016-.078.105-.008.161s.091.129.041.144l.041.145.104.362c.047.387.203.832.286.726-.018-.076.05-.015.018.076.018.076.037.152.068.062.05-.014.168.033.187.11.137.125.087.14.018.077-.1.028-.15.042-.132.118s-.032.09-.082.104c-.1.028-.128.358-.092.509.033.155.044.239-.006.251-.051.013-.087.105-.073.185 0 0 .051-.012.087-.105.087-.105.138-.119.208.285.042.242.056.323.005.334-.037.092-.037.091.028.161.051-.011.065.07.014.081-.088.102-.01.251.157.303.116.061.116.062.027.162-.102.019-.138.107-.081.186q.166.102.022.259l-.052.008c.059.078.066.164.08.337a1 1 0 0 0-.019.205c3.794.022 7.59.035 11.382-.067 5.795-.157 11.586-.462 17.381-.611 4.524-.117 9.034-.077 13.55-.71 3.57-.5 7.223-.48 10.842-.528 3.044-.04 5.771-.711 7.754-3.165 2.156-2.669 4.988-2.656 7.924-2.065 1.226.247 2.549.624 3.534 1.343 3.958 2.89 8.519 2.709 13.023 2.767 9.966.128 19.934.109 29.898.277 6.868.116 13.726.293 20.59-.234 1.917-.147 3.119-.831 3.568-2.638.462-1.855 1.536-2.702 3.458-2.711.787-.004 1.365-.711 1.103-1.518-.39-1.204-.107-2.075.811-2.866 1.777-1.532 3.38-3.369 6.076-3.137.343.029.762-.058 1.047-.243 1.302-.849 2.66-1.386 4.049-1.735-.095-.08-.106-.128.053-.11.177.069.251.053.211-.098-.027-.101-.054-.201-.205-.169-.089-.034-.192-.119-.206-.169-.042-.151-.118-.134-.165-.018l-.043-.15c.047-.116.228-.048.346.086.028.1.027.1.076-.016.062-.066.138-.082.138-.082.076-.016 0 0 .014.05-.124.133-.097.233.116.135.2-.148.289-.114.164.019-.124.132-.124.132.013.05.134-.028.507.18.493.253q.348-.065.698-.119c.008-.04.009-.067.009-.067-.087-.035.029-.218.104-.234s.151-.031.173.07c.012.053.096.081.248.059.152-.021.152-.021.163.03-.014.014-.027.035-.041.052q.385-.043.772-.075c-.091-.074-.242-.13-.285-.09-.152.021-.183-.133-.117-.194.076-.01.056-.113.046-.164-.118-.194.038-.215.24.02a.21.21 0 0 0 .106.143c.057-.113.441-.164.612-.082.094.092.17.082.162.031s.145-.072.221-.082.069-.062.069-.062c-.008-.051-.008-.051-.085-.041 0 0-.016-.103.053-.164.061-.113.045-.215.045-.215.078-.01.155-.02.163.031-.008-.051.07-.062.155-.02l.155-.02c-.007-.048.062-.12.22-.126l.079-.005c-.071.056.212.404.289.399.078-.005.084.047.091.099.013.103.103.202.257.193.166.094.166.094.071-.056-.101-.202-.029-.259.143-.113.083.047.166.094.089.099s-.072.056-.066.108l.154-.009c.072-.056.072-.056.067-.108-.083-.047-.094-.151-.027-.259l.062-.16.016.155c.099.203.18.25.321.086s.142-.164-.024-.259c-.245-.09-.182-.25.055-.263.158-.009.167.095.014.155-.079.004-.074.056.005.052.166.095.309-.069.222-.169-.009-.104-.009-.104.149-.112.234-.065.241.039.095.203-.149.112-.062.211.09.151a.3.3 0 0 1 .153-.06c.086.099.163.094.232-.064.069-.155.234-.048.167.159l.009.156.232-.048c.23-.1.231-.1.471.008.159.055.159.055.157.003-.003-.104.155-.101.314.006.001.052.158.055.237.057.157.003.157.003.156-.101-.08-.106-.001-.104.078-.102.158.003.316.059.316.163 0 0 .078.054.157.055.157.055.157.004.158-.048.001-.107.16-.095.314.078.078.06.156.067.235.075.161-.089.317-.021.389.142.147.223.305.187.317-.021l.157.016c.154.068.232.075.476-.004.245-.08.324-.071.324-.071q.105.168.237.025c.005-.05.005-.055.074.063s.068.118.147.132c.005-.052.084-.038.162-.024s.242-.009.248-.061.085-.037.073.066c.073.066.073.066.079.014s.085-.037.164-.023c.066.118.237.043.165-.023.007-.052.007-.052.086-.037.159.029.223.147.216.198-.004.028.02.044.053.057q.532.08 1.044.203c.016-.075.027-.067.066.015a12.3 12.3 0 0 1 3.368 1.397q.235.138.465.286l.03-.081c.057-.154.598.287.537.429-.005.013-.012.02-.018.03q.086.06.171.123c.082-.022.166-.065.183-.105q.03-.072.223.109l.223.11c.074.037.074.037.127.12.052.084.148.073.318.1.097-.01.097-.01.074.037-.021.042.124.123.48.348.285.177.597.311.597.311l.143.09c-.026.045.117.135.188.18.169.046.285.181.356.226.044.088.041.094.138.101.028-.044.096.009.164.062.039.097.107.15.174.203l.165.064c-.029.043.076.193.21.3.269.215.238.257.211.435.003.136-.06.218.005.271q.147.019.191-.246c-.035-.095.032-.041.099.013s.201.161.167.204l.124.124c.124.124.157.084.191.044.005-.143.067-.08.034-.04-.006.143.122.266.699.934.25.246.46.414.51.493.131 0 .187.073.11.144s.031.213.164.216c.094.038.109.145.069.179s.014.106.068.178c.094.039.054.072-.026.138s-.108.203-.108.203c.052.071.093.038.134.006.081-.065.134.007.188.079l.106.144c.041-.031.136.01.231.052.098.039.14.125.098.154l-.127.092c-.042.031-.042.031-.087-.049-.048-.076-.104-.145-.144-.115-.041.031-.031.133-.031.133.096.146.481.319.615.343l.001.11c.001.11.001.218.133.352.088.053.22.299.263.381.128.353.127.352-.052.345-.182.099-.183.098-.049.129.135.031.207.098.163.121 0 0 .079.063.112.15.047-.023.112.151.223.306.096.266.096.266 0 .307-.096.042-.113.149-.113.149-.017.107.061.174.031.087.065-.129.317.274.358.56.067.175.064.273.208.426.137.157.137.158.086.172-.1.031-.148.337-.081.416 0 0 .068.08.118.068.068.082.068.082.017.094l-.152.037c-.101.024-.085.116-.034.105.067.081.134.164.099.267 0 0 .032.186.113.364s.07.149.022.165l.007.073c.007.073.015.145-.03.225-.044.08-.03.225.073.211.052-.007.059.066.066.138-.038.068-.011.395-.008.443.051-.007.059.066.073.211l.007.073c-.007-.073-.059-.066-.11-.059s.009.584.125.803c.069.219.092.52-.058.613-.052.006-.098.087-.04.156.057.069.063.144.011.15l.011.15.028.375c-.032.388.031.856.133.769-.003-.078.052-.004.003.078.003.078.005.157.054.074.052-.004.158.067.161.146.109.15.057.154.003.079-.104.007-.156.011-.153.089.002.078-.049.082-.101.085-.104.007-.198.325-.193.48.001.158-.005.243-.056.244s-.107.085-.109.166c0 0 .052-.002.107-.085.107-.085.159-.088.146.321-.008.246-.011.328-.063.328-.055.082-.055.082-.006.164.052 0 .049.082-.003.082-.107.082-.061.244.092.329.101.084.101.084-.006.164-.104-.002-.156.077-.117.166q.141.133-.031.258l-.052-.002c.042.088.031.174.01.346-.073.169-.095.34-.117.512s-.045.344-.097.338c-.089.067-.333.769-.246.873l-.089.354c-.096.166-.045.177.056.199l.152.033-.171.246c-.21.232-.448.467-.424.57l-.107.265q-.183.239-.109.265c.012.106.012.106.061.123l-.15.355c-.142.358-.23.429-.171.454.096.042.095.043-.05.085-.146.041-.145.04-.051.085.048.022.043.13-.102.169-.051.085-.098.061-.145.038s-.144.036-.241.094c-.148.14-.148.139-.005.107a.7.7 0 0 1 .136-.02.5.5 0 0 0-.05.178c-.007.109-.052.084-.143.033s-.142.03-.104.165c-.06.191-.061.192-.158.247-.141.027-.138.028-.113.157.07.159-.12.383-.187.22l-.024-.132-.038.205c-.04.206-.063.312-.169.354s-.17.114-.128.146c.041.032-.088.179-.285.397-.131.145-.198.217-.159.252 0 0-.064.078-.137.134 0 0-.109.025-.116-.106-.077-.071-.115-.107-.147-.011l-.21.179c-.145-.013-.354.162-.282.237l.071-.059s.071-.059.107-.022c.074.074.003.134-.213.313q-.542.445-.536.238c.002-.14-.312.064-.361.28-.041.088-.083.176-.115.135l-.064-.082c.041-.088.041-.088-.105.005-.147.093-.147.093-.084.176.032.042-.043.088-.043.088l-.074.047c-.031-.042-.179.051-.402.19-.223.138-.299.184-.356.098-.087-.13-.16-.085-.103.002.042.221-.387.55-.839.573-.175.026-.325.097-.299.143 0 0-.075.036-.175.026-.199-.021-.199-.021-.075.036s.075.137-.026.127c-.075.036-.075.036-.051.082l-.151.071-.048-.092c.051-.081-.048-.092-.174.025-.075.035-.127.117-.179.199l-.052.082c-.076.035-.129.119-.281.187-.18.178-.428.215-.375.139l-.065-.142c-.118-.067-.244.035-.427.213-.054.075-.109.151-.129.103s-.095-.02-.245.035c-.055.075-.075.027-.095-.021.034-.123-.114-.069-.15.055s-.036.124-.095-.021c-.02-.048-.114-.069-.114-.069-.075.027-.055.076-.016.172s-.112.151-.244.034q-.056.186-.225.082c-.095-.016-.335.004-.372.121.018.049-.074.021-.166-.006l-.002-.001q-.193.066-.387.128a.3.3 0 0 0-.111.071l-.37.107c-.005-.014-.034-.009-.054-.011-.967.276-1.984.464-3.054.546-2.143.164-4.283.72-6.361 1.319-4.453 1.283-8.981.909-13.492.771-2.014-.061-2.062-.277-2.687-2.555-.272-.993-.696-1.959-.843-2.967-.123-.842-.274-1.221-1.262-1.264-.996-.044-1.976-.447-2.962-.716-.199-4.896-.236-4.839-5.102-4.567-7.222.404-14.449.715-21.674 1.048-.905.042-1.849.128-2.718-.063-6.82-1.497-13.717-.744-20.588-.834-3.248-.043-6.492-.409-9.737-.642-1.16-.083-1.652.663-1.809 1.594-.148.875-.073 1.79-.073 2.688-.001 3.4.038 3.276 3.255 4.186 1.882.533 3.771 1.323 5.403 2.387 2 1.305 2.238 3.686.972 5.786-1.281 2.126-3.07 3.501-5.539 4.07-.524.121-1.288.992-1.255 1.471.52 7.578.224 15.215 1.536 22.734.351 2.011.532 2.042 2.473 1.723 1.244-.205 2.498-.382 3.755-.476 3.831-.285 7.248.468 9.527 3.958.194.297.499.525.765.772q3.186 2.963 6.375 5.922c2.612-1.211 4.683-3.222 7.006-4.849 2.819-1.974 5.786-2.948 9.18-2.712 3.065.213 5.877.669 8.753 2.344 6.292 3.664 10.195 9.108 13.381 15.318.329.641.483 1.369.761 2.039 2.112 5.088 2.116 5.102 7.409 4.856 1.448-.067 2.908-.156 4.334-.404 4.482-.781 8.978-1.235 13.539-1.143 2.31.047 2.608-.329 3.367-2.708.537-1.685.146-2.208-1.767-2.269-1.27-.041-2.553.078-3.811-.055-1.248-.132-2.545-.312-3.691-.784-2.584-1.063-2.856-3.905-.574-5.589.711-.525 1.61-.799 2.426-1.179 3.446-1.605 6.921-3.149 10.327-4.834 1.564-.774 3.075-5.073 2.459-6.722-.166-.445-.671-.885-1.126-1.07-.655-.268-1.403-.316-2.116-.43-1.075-.173-2.181-.22-3.226-.499-4.052-1.083-5.144-3.643-3.194-7.362 1.682-3.209 3.211-6.506 6.141-8.881.813-.659 1.346-1.684 1.944-2.583.601-.905 1.186-1.831 1.668-2.803 2.281-4.605 6.091-6.442 11.074-6.252.905.035 1.818-.02 2.722-.091 2.196-.174 2.5-.45 2.134-2.634-.587-3.495-.215-6.875.955-10.173.738-2.081 1.839-3.927 3.876-5.071 1.113-.625 2.163-.578 2.971.3.973 1.057 1.807 2.259 2.585 3.473.483.754.705 1.669 1.125 2.471.887 1.695 1.745 2.019 3.5 1.377.681-.249 1.326-.607 2.017-.814 4.519-1.353 9.032-2.728 13.578-3.982 1.412-.389 2.835-.306 4.008.949 1.322 1.415 1.518 2.218.409 3.749-1.148 1.585-2.369 3.117-3.655 4.797 1.732.653 3.045-.108 4.384-.424 3.354-.792 6.669-1.766 10.179-1.602 3.275.153 6.305 2.575 7.041 5.738.355 1.523-.063 2.86-1.02 4.071-.788.998-1.517 2.042-2.302 3.042-.759.966-1.556 1.903-2.367 2.889 3.032.892 5.806 1.633 8.524 2.542a12.7 12.7 0 0 1 3.368 1.749c2.728 1.976 3.601 5.793 2.105 8.801-.701 1.41-2.013 2.138-3.438 2.458-3.536.793-7.083 1.753-10.763 1.139-2.808-.469-5.423-.316-7.588 1.821-.125.124-.333.163-.461.286-.995.96-2.654 1.121-3.857 1.71l.009-.001-.009.001a3 3 0 0 0-.807.553q.008.001.016.001c.109.016.287-.145.229-.168-.014-.064.14-.088.198-.064.007.032.109.016.16.007.198-.064.212-.001-.031.104-.103.016-.147.056-.147.056.109.016.143.175.054.255-.096.048-.089.08-.038.072s.065.056.071.087c.007.032.058.024.058.024.051-.008.051-.008.044-.04 0 0 .103-.016.161.007.109.016.212-.001.212-.001.007.032.013.064-.038.072.051-.008.058.024.013.064l.014.064c.051-.008.109.016.123.079l.007.032c-.058-.024-.397.129-.39.161s-.044.04-.096.048c-.103.016-.198.064-.185.128-.089.08-.089.08.058.024.198-.064.256-.041.116.047-.045.04-.089.08-.096.048s-.058-.024-.109-.016l.013.064c.058.024.058.024.109.016.045-.04.147-.056.256-.041l.16.007-.154.024c-.198.064-.243.104-.076.144s.167.039.256-.041c.082-.112.243-.104.263-.009.013.064-.089.08-.154.024-.007-.032-.058-.024-.051.008-.089.08.078.119.174.071.103-.016.103-.016.116.047.071.087-.031.104-.198.064-.116-.047-.212.001-.147.056.058.024.065.056.065.056-.096.048-.089.08.071.087.161.007.072.087-.14.088l-.154.024.072.087c.123.079.123.079.04.191-.038.072-.038.072.014.064.102-.016.116.047.027.127-.051.008-.038.072-.031.104.013.064.013.064.116.047.096-.048.102-.016.109.016.013.064-.024.136-.127.152 0 0-.045.04-.038.072-.038.072.013.064.065.056.103-.016.116.047-.024.136-.045.04-.038.072-.031.104.116.047.078.119-.069.176-.192.096-.127.152.078.119l.013.064c-.038.072-.031.104.092.183s.13.111.13.111q-.144.072.02.096c.051-.008.051-.008-.045.04s-.096.048-.089.08c.051-.008.058.024.065.056s.071.087.123.079c.051-.008.058.024-.044.04-.045.04-.045.04.007.032.051-.008.058.024.065.056-.096.048.02.096.065.056.051-.008.051-.008.058.024.014.064-.082.112-.134.12-.051.008-.044.04-.038.072s.02.096-.031.104c-.044.04-.038.072.027.127.071.087.071.087-.031.104-.007-.032-.007-.032-.058-.024-.096.048-.024.136.123.079.154-.024.154-.024.058.024-.044.04-.147.056-.147.056q-.076.012.02.096c.174.071.201.199.098.215-.051.008-.096.048-.031.104.013.064.027.127-.018.167q-.067.06.02.096c.065.056.163.27.067.319-.051.008-.031.104-.004.231a.44.44 0 0 1-.042.303c-.044.04-.031.104-.031.104l.103-.016c.154-.024.054.255-.1.279-.051.008-.103.016-.058-.024s.038-.072-.013-.064q-.163-.023-.154.024c-.038.072-.031.104.136.143a.5.5 0 0 0 .219.031q.077-.012.02.096l.02.096c.007.032.007.032-.038.072s.013.064.078.119c.058.024.058.024.007.032s-.038.072-.004.231a.9.9 0 0 0 .105.247l.013.064c-.051.008-.038.072-.031.104.065.056.027.127.034.159-.045.04-.045.04.013.064.051-.008.058.024.065.056-.045.04-.038.072-.031.104l.065.056c-.051.008-.089.08-.076.144.027.128-.024.136-.171.192-.096.048-.198.064-.192.096q.087.035.308-.049c.044-.04.051-.008.058.024s.02.096-.031.104l.013.064c.014.064.065.056.116.047.096-.048.103-.016.051-.008-.096.048-.082.112-.066.439.027.127.098.215.105.247.109.016.116.047.013.064s-.089.08.02.096c.058.024.013.064-.038.072s-.044.04-.038.072c.058.024.007.032-.096.048s-.198.064-.198.064c.007.032.058.024.109.016.102-.016.109.016.116.047l.013.064c.051-.008.109.016.167.039.058.024.065.056.014.064l-.154.024c-.051.008-.051.008-.058-.024s-.014-.064-.065-.056-.096.048-.096.048c.013.064.297.15.406.166l-.045.04c-.045.04-.089.08-.024.136.058.024.078.119.085.151-.024.136-.024.136-.185.128-.205.033-.205.033-.096.048s.167.039.116.047c0 0 .058.024.065.056.051-.008.065.056.129.111.02.096.02.096-.082.112s-.147.056-.147.056c-.045.04.013.064.007.032.096-.048.232.095.201.199.013.064.02.096.136.143s.116.047.065.056c-.103.016-.185.128-.127.152 0 0 .058.024.109.016.058.024.058.024.007.032l-.154.024c-.103.016-.096.048-.045.04.058.024.116.047.071.087 0 0 .014.064.078.119.065.056.065.056.014.064l.007.032c.007.032.014.064-.031.104-.044.04-.031.104.072.087.051-.008.058.024.065.056-.038.034-.014.178-.011.199.051-.008.058.024.071.087l.007.032c-.007-.032-.058-.024-.109-.016s.003.263.125.342c.071.087.098.215-.049.271-.051.008-.096.048-.038.072s.065.056.013.064l.014.064.034.159c-.018.167.074.351.17.302-.007-.032.051-.008.007.032.007.032.013.064.058.024.051-.008.161.007.167.039.116.047.065.056.007.032-.103.016-.154.024-.147.056s-.045.04-.096.048c-.103.016-.178.16-.165.224.014.064.02.096-.031.104s-.096.048-.089.08c0 0 .051-.008.096-.048.096-.048.147-.056.181.103.02.096.027.127-.024.136-.044.04-.044.04.014.064.051-.008.058.024.007.032-.096.048-.031.104.129.111.109.016.109.016.014.064-.102.016-.147.056-.089.08q.164.023.02.096l-.051.008c.058.024.065.056.078.119-.038.072-.024.136-.011.199.013.064.027.127-.024.136-.096.048-.093.311.016.327l.027.127c-.038.072.013.064.116.047l.154-.024-.082.112c-.134.12-.216.232-.158.256l.02.096q-.057.108.02.096c.058.024.058.024.109.016l.027.127c.027.127.034.159.085.151.103-.016.103-.016.007.032s-.096.048.007.032c.051-.008.109.016.013.064.007.032-.044.04-.096.048-.051.008-.096.048-.14.088-.038.072-.038.072.058.024a1 1 0 0 1 .098-.043c.004.01.019.032.063.05.058.024.007.032-.096.048s-.096.048.013.064c.065.056.065.056.02.096-.096.048-.096.048.013.064.161.007.181.103.02.096l-.109-.016.116.047c.116.047.174.071.13.111-.045.04-.038.072.013.064s.065.056.085.151c.013.064.02.096.071.087l.014.064s-.045.04-.154.024c-.103.016-.154.024-.096.048l.02.096c-.096.048-.076.144.027.127l-.007-.032s-.007-.032.045-.04c.103-.016.109.016.13.111q.05.239-.113.216c-.163-.023-.134.12.034.159.058.024.116.047.065.056l-.103.016c-.058-.024-.058-.024-.045.04s.014.064.116.047c.051-.008.058.024.058.024l.007.032c-.051.008-.038.072-.018.167s.027.127-.076.144c-.154.024-.147.056-.044.04.212-.001.303.182.183.366-.038.072-.024.136.027.127 0 0 .007.032-.038.072-.089.08-.089.08.007.032s.154-.024.109.016c.007.032.007.032.058.024l.013.064-.103.016c-.058-.024-.102.016-.038.072.007.032.065.056.123.079l.058.024c.007.032.065.056.078.119.123.079.092.183.034.159l-.154.024c-.096.048-.031.104.092.183.058.024.116.047.065.056-.051.008-.045.04-.031.104.058.024.007.032-.045.04-.109-.016-.096.048.014.064s.109.016-.045.04c-.051.008-.096.048-.096.048.007.032.058.024.16.007.103-.016.116.047-.031.104q.164.023.02.096c-.045.04-.076.144.034.159.051-.008.007.032-.038.072l-.044.04c.051-.008.058.024.065.056 0 0 .02.096.078.119l.034.159c-.051.008-.038.072-.031.104s-.038.072-.089.08c-.096.048-.096.048.007.032.051-.008.058.024.065.056-.051.008-.038.072-.031.104.065.056.02.096-.076.144-.147.056-.147.056-.038.072s.109.016.065.056a.21.21 0 0 0-.062.207l-.076.144c-.051.008-.051.008.013.064.058.024.065.056-.031.104-.089.08-.089.08.02.096.058.024.116.047.065.056-.051.008-.038.072-.031.104.065.056.013.064-.038.072-.103.016-.096.048-.076.144l.014.064c.044-.04.044-.04.103-.016.116.047.116.047-.031.104l-.096.048.109.016c-.212.001-.198.064-.031.104l.161.007-.133.119c.517.28 1.243.346 2.165.203 4.296-.662 8.589-1.345 12.887-1.999 1.074-.163 2.169-.405 3.238-.344 6.054.349 11.909-1.073 17.838-1.857 1.595-.211 3.383-.56 4.809-.062 2.136.745 3.814.322 5.687-.586 5.059-2.451 10.143-4.856 15.28-7.138 4.83-2.145 9.885-3.557 15.135-4.323 1.767-.258 3.292.088 4.654 1.012 3.969 2.694 7.125 6.033 8.928 10.649 2.316 5.929 4.353 11.9 5.192 18.241.189 1.43.602 2.839 1.008 4.231.853 2.925 1.411 5.862 1.361 8.884.077.037.063.16-.007.277l-.003.11.009.002c.078.042.11.108.11.108.032.066 0 0-.046.024-.029-.016-.053-.022-.076-.028q-.002.095-.005.191c.156.134.142.212-.004.135-.016.305-.048.612-.078.919.004.012.003.027-.003.034l-.015.161c.027.01.056.026.088.057.124.017.17-.007.17-.007.014-.091.216-.032.248.034s.064.132-.027.181c-.046.024-.059.115.005.248.064.132.064.132.019.157-.078-.042-.202-.059-.28-.101l-.11-.108.065.132c.143.174.056.471-.173.593-.034.018-.072.022-.108.027-.008.152-.007.301-.006.451h.001c.059-.115.059-.115.092-.049l.046-.025c-.032-.066.146-.412.238-.461.046-.025.078.042.078.042.019.157.207.307.299.258.124.017.178-.346.1-.387-.064-.132.073-.206.151-.164.032.066.124.017.17-.007.151-.164.216-.032.051.223a.2.2 0 0 0-.105.14c.124.017.285.348.258.53-.06.115-.027.181.019.157s.11.108.143.174.078.042.078.042c.046-.025.046-.025.014-.091 0 0 .092-.049.17-.007.124.017.216-.032.216-.032.032.066.064.132.019.157.046-.025.078.042.065.132l.065.132c.046-.025.124.017.188.15l.032.066c-.078-.042-.302.328-.27.395.032.066-.014.091-.059.115-.092.049-.151.164-.087.297-.027.181-.027.181.078.042.151-.164.229-.123.156.083-.014.091-.027.181-.06.115-.032-.066-.078-.042-.124-.017l.065.132c.078.042.078.042.124.017.014-.091.105-.14.229-.123l.17-.007-.138.073c-.151.164-.165.255.037.314s.202.059.229-.123c-.005-.248.165-.255.262-.056.064.132-.027.181-.138.073-.032-.066-.078-.042-.046.025-.027.181.175.24.234.125.092-.049.092-.049.156.083.143.174.051.223-.151.164-.156-.083-.216.032-.105.14.078.042.11.108.11.108-.06.115-.027.181.143.174s.143.174-.073.206l-.138.074.143.174c.189.15.189.15.194.397.019.157.019.157.065.132.092-.049.156.083.129.265-.046.024.019.157.051.223.065.132.065.132.156.083.059-.115.092-.049.124.017.065.132.083.289-.009.338 0 0-.014.091.019.157.019.157.064.132.11.108.092-.049.156.083.083.289-.014.091.019.157.051.223.156.083.175.24.07.38-.119.23-.009.338.175.24l.064.132c.019.157.051.223.24.373.188.15.221.216.221.216q-.089.172.097.199c.046-.025.046-.025-.014.091s-.06.115-.027.181c.046-.025.078.042.11.108s.143.174.189.15.078.042-.014.091c-.014.091-.014.091.032.066s.078.042.11.108c-.059.115.097.199.11.108.046-.024.046-.024.078.042.065.132.005.248-.041.272s-.014.091.019.157c.032.066.097.199.051.223-.014.091.019.157.129.265.143.174.143.174.051.223-.032-.066-.032-.066-.078-.042-.059.115.083.289.188.15.138-.074.138-.074.078.042-.014.091-.105.14-.105.14q-.07.037.097.199c.234.125.363.39.272.439-.046.024-.059.115.051.223.064.132.129.265.115.355q-.02.136.097.199c.11.108.382.547.323.662-.046.025.051.223.18.488s.18.488.199.645c-.014.091.051.223.051.223l.092-.049c.138-.074.258.53.12.603-.046.025-.092.049-.078-.042s-.019-.157-.064-.132q-.186-.026-.138.073c.019.157.051.223.253.282.078.042.202.059.248.034q.069-.037.097.199l.097.199c.032.066.032.066.019.157s.064.132.175.24c.078.042.078.042.032.066s.019.157.18.488c.129.265.304.505.304.505l.064.132c-.046.024.019.157.051.223.11.108.129.265.161.331-.014.091-.014.091.065.132.046-.025.078.042.11.108-.014.091.019.157.051.223l.11.108c-.046.025-.027.181.037.314.129.265.083.289-.022.429-.042.081-.085.129-.104.173l.03.055c.068.008.144-.03.231-.145.014-.091.046-.024.078.042s.097.199.051.223l.032.066.014-.091c.046-.025.078.042.078.042.032.066.032.066-.014.091 0 0-.046.024-.078-.042l.032.066c.065.132.11.108.156.083.059-.115.092-.049.046-.025-.059.115.005.248.282.934.129.265.272.439.304.505.124.017.156.083.064.132s-.027.181.097.199c.078.042.065.132.019.157s-.014.091.019.157c.078.042.032.066-.059.115-.009.005-.013.014-.022.02l.081.16q.044.026.07.085l.065.132c.046-.024.124.017.202.059s.11.108.065.132l-.138.074c-.01.005-.012.003-.018.005l.089.177c.091.038.179.068.228.075l-.013.091c-.014.091-.027.181.083.289.078.042.175.24.207.307.068.238.074.279-.018.291q.07.155.137.311l.001.002c.046-.024.11.108.221.216.097.199.097.199.005.248-.008.004-.008.01-.015.015q.054.121.107.243c.084.083.17.216.198.337.064.132.097.199.253.282s.156.083.11.108c-.092.049-.087.297-.009.338 0 0 .078.042.124.017.078.042.078.042.032.066l-.138.073c-.042.023-.054.048-.054.067l.003.009c.006.013.018.025.037.015.078.042.156.083.143.174 0 0 .065.132.175.24s.11.108.064.132l.032.066c.032.066.065.132.051.223s.051.223.143.174c.046-.024.078.042.11.108-.012.078.127.378.148.422.046-.024.078.042.143.174l.041.084-.009-.018c-.032-.066-.078-.042-.124-.017-.046.024.212.554.401.704.143.174.272.439.166.579-.046.024-.06.115.019.157.078.042.11.108.065.132l.065.132.161.331c.115.356.355.728.414.613-.032-.066.046-.024.032.066.032.066.064.132.078.042.046-.024.17-.007.202.059.156.083.11.108.032.066-.092.049-.138.074-.105.14.032.066-.014.091-.059.115-.092.049-.054.363.01.495.065.132.097.199.051.223-.046.025-.06.115-.027.181 0 0 .046-.024.06-.115.059-.115.105-.14.267.191.097.199.129.265.083.289-.014.091-.014.091.064.132.046-.024.078.042.032.066-.059.115.051.223.221.216.124.017.124.017.065.132-.092.049-.105.14-.027.181q.186.025.097.199l-.046.024c.078.042.11.108.175.24.019.157.083.289.148.422.065.132.129.265.083.289-.059.115.153.669.277.687l.129.265c.019.157.065.132.156.083l.138-.073.005.248c-.041.272-.036.52.042.561l.097.199q.028.235.097.199c.078.042.078.042.124.017l.129.265c.129.265.161.331.207.307.092-.049.092-.049.032.066-.059.115-.059.115.032.066.046-.024.124.017.065.132.032.066-.014.091-.06.115s-.059.115-.073.206c.019.157.019.157.078.042.028-.054.052-.086.065-.105.012.02.045.066.104.097.078.042.032.066-.059.115s-.06.115.064.132c.11.108.11.108.097.199-.06.115-.06.115.064.132.17-.007.267.191.097.199l-.124-.017.156.083c.156.083.234.125.221.216s.019.157.064.132.11.108.207.307c.064.132.097.199.143.174l.065.132s-.014.091-.138.073c-.092.049-.138.074-.06.115l.097.199c-.059.115.037.314.129.265l-.032-.066s-.032-.066.014-.091c.092-.049.124.017.221.216q.242.496.056.471c-.124-.017-.041.272.161.331.078.042.156.083.11.108l-.092.049c-.078-.042-.078-.042-.014.091.064.132.064.132.156.083.046-.025.078.042.078.042l.032.066c-.046.024.019.157.115.355.097.199.129.265.037.314-.138.074-.105.14-.014.091.216-.032.455.341.479.745.019.157.083.289.129.265 0 0 .032.066.019.157-.027.181-.027.181.032.066s.138-.074.124.017c.032.066.032.066.078.042l.065.132-.092.049c-.078-.042-.092.049.019.157.032.066.11.108.189.15l.078.042c.032.066.11.108.175.24.189.15.24.373.161.331l-.138.074c-.059.115.051.223.24.373.078.042.156.083.11.108s-.014.091.051.223c.078.042.032.066-.014.091-.124-.017-.06.115.064.132s.124.017-.014.091c-.046.024-.059.115-.059.115.032.066.078.042.17-.007s.156.083.051.223q.186.025.097.199c-.014.091.037.314.161.331.046-.025.032.066.019.157l-.014.091c.046-.024.078.042.11.108 0 0 .097.199.175.24l.161.331c-.046.024.019.157.051.223s.019.157-.027.181c-.059.115-.059.115.032.066.046-.024.078.042.11.108-.046.025.019.157.051.223.11.108.097.199.037.314-.105.14-.105.14.019.157s.124.017.11.108.005.248.102.446l.037.314c-.046.024-.046.024.064.132.078.042.11.108.051.223-.027.181-.027.181.097.199.078.042.156.083.11.108s.019.157.051.223c.11.108.064.132.019.157-.092.049-.059.115.037.314l.064.132c.014-.091.014-.091.092-.049.156.083.156.083.051.223l-.059.115.124.017c-.216.032-.151.164.051.223l.17-.007-.041.272c-.073.206-.073.206.037.314.267.191.557.787.53.969-.014.091-.138.073-.156-.083-.032-.066-.065-.132-.143-.174s-.078-.042-.092.049c.035.072.022.116-.013.127l.193.355c.107-.142.325-.136.34-.009.044.091-.048.284-.145.368l.053.098.024-.013s.078.042.11.108c.052.028.06.041-.03.095l.147.27c.527.95 1.267 1.791 1.702 2.772M206.534 43.499l.064-.012-.007-.028q.093-.1-.039-.151c-.251-.053-.238-.003-.036.167.009.007.011.015.018.024m197.959 176.007c0 .003-.002.001-.003.003l.172.318c.029-.018.029-.032-.027-.147-.032-.066-.065-.132-.019-.157l.046-.024c-.031-.066-.077-.042-.169.007m-23.158-51.793-.046.024-.01-.02-.012.143a.14.14 0 0 1 .04.034c.032.066.032.066.124.017.046-.025.046-.025.014-.091-.032-.065-.11-.107-.11-.107m-101.813-63.507c-.475.37-.746 1.202-.812 1.85-.089.86.116 1.75.261 3.376 3.027-1.565 5.584-2.201 8.409-1.958 1.965.17 3.976-.122 5.96-.278 2.201-.173 4.261-.834 6.059-2.145.647-.471.842-1.166.276-1.847-1.446-1.743-3.332-2.674-5.544-3.138-5.612-1.174-10.315.795-14.609 4.14m-6.009-16.358c4.015 2.89 3.928 6.844 4.392 10.571.577-.165 1.014-.157 1.234-.372 3.632-3.53 7.265-7.061 10.824-10.663.742-.751 1.266-1.757 1.719-2.725.111-.238-.363-.978-.728-1.152-.442-.21-1.055-.093-1.592-.069-5.31.239-10.296 1.675-15.849 4.41m-18.906-4.22c-.216.206-.343.671-.275.96.062.266.41.578.691.656.512.143 1.068.171 1.606.174 3.078.014 6.157.007 9.236.007l-.001.213c1.249.2 2.755.932 3.69.481 1.614-.778.226-2.596.512-3.941.262-1.236.307-2.516.538-3.761.208-1.119-.54-1.27-1.237-1.154-1.423.237-2.867.517-4.213 1.018-3.714 1.381-7.57 2.518-10.547 5.347m-4.701-1.394c2.09-1.429 3.427-3.176 4.798-4.974l-3.363-4.794c-1.87 3.296-2.197 6.278-1.435 9.768m-17.529 27.343c1.933.473 2 .876 1.832 3.547-.056.894.028 1.8.087 2.698.158 2.415.169 2.393 2.348 2.737 3.036.48 6.109.818 9.091 1.531 7.895 1.887 15.872-2.465 18.43-10.237 1.136-3.451 2.128-6.931 1.965-10.629-.009-.21.386-.609.604-.617.308-.012.756.176.918.425.892 1.373 1.663 2.796 1.642 4.521-.035 2.902.228 5.832-.086 8.701-.575 5.269-2.087 10.249-5.303 14.63-2.697 3.673-6.111 6.203-10.575 7.087-4.084.808-8.2 1.52-12.334 1.979-2.306.256-4.68-.076-7.021-.174-.894-.037-1.828-.357-2.662-.175-.538.118-1.224.874-1.297 1.417-.065.487.506 1.36.996 1.551.807.315 1.774.278 2.674.281 5.258.021 10.516.01 15.774.01l.001.362c5.618 0 11.236.038 16.854-.017 2.492-.024 3.24-.037 3.791-3.483.399-2.492.53-5.06 1.23-7.462a30 30 0 0 0 1.209-9.11c-.143-6.886-.266-13.773-.44-20.658-.032-1.26-.269-2.514-.401-3.771-.128-1.221-.81-2.041-1.96-2.317-3.343-.801-6.679-1.682-10.066-2.235-3.557-.581-7.187-.709-10.755-1.238-3.747-.555-7.545.646-11.288-.577-1.515-.495-2.783.48-3.525 1.923-.91 1.771-1.756 3.579-2.74 5.308-.709 1.247-1.337 2.881-2.461 3.482-2.702 1.446-3.679 3.817-4.591 6.42-.927 2.645-.76 2.927 2.181 3.236 1.97.208 3.963.386 5.878.854M131.35 80.537l.132.338c.245-.109.496-.206.725-.341.026-.015-.076-.247-.119-.378zm-11.604-8.873c.103.347.179.71.335 1.033.455.944 1.282 1.227 2.247 1.088 1.044-.15 1.594-.918 1.643-1.868.093-1.805.027-3.618.027-5.428h.33c0-1.448.022-2.896-.005-4.344-.037-1.931-.56-2.844-2.181-3.325-2.413-.716-4.866-1.301-7.314-1.893-.3-.073-.815.044-.99.264-1.341 1.684-2.745 3.339-3.876 5.161-.707 1.138.09 2.416 1.45 2.843.346.108.693.264 1.047.286 3.973.247 6.202 2.535 7.287 6.183m-10.11 15.141c1.607-.313 3.023-2.82 2.572-4.271-.046-.149-.283-.377-.372-.352-1.132.314-2.341.508-3.349 1.062-.761.418-.702 2.076-.013 2.911.295.357.861.49 1.162.65m57.616 107.043a.26.26 0 0 0-.032-.136c-.052-.002.018-.121.088-.239l.07-.118c-.052-.002-.034-.123-.016-.244 0 0 .054-.363.02-.486l.09-.604c.052.003.088-.239.106-.36s.088-.239.14-.237c.122-.116.122-.116.018-.121-.052-.003-.034-.123-.016-.244.052.003.088-.239.106-.36-.016-.244.054-.363.176-.478.175-.113.175-.113.088-.239-.086-.126-.086-.126-.016-.244s.158-.358.212-.72l.176-.478q.03.003.038-.018l.006-.034a2 2 0 0 0-.008-.19c-.034-.122-.015-.241.103-.355q.033-.18.063-.358l-.006-.009c-.034-.123-.068-.247-.016-.244.052.002.088-.239.106-.36-.013-.193.018-.231.057-.238l.133-.754c-.049-.177-.047-.22.05-.288q.061-.369.109-.735l-.042-.039.061-.103c.181-1.511.104-3.015-.972-4.562-.834-1.2-.636-3.117-.903-4.697.167-1.503.181-2.965.513-4.35a276 276 0 0 1 3.014-11.546c1.769-6.178 4.907-11.673 8.682-16.828.871-1.189 1.817-2.177 3.477-2.249 3.256-.14 3.293-.201 2.405-3.431-1.055-3.838-2.094-7.684-3.312-11.471-1.024-3.184-2.383-4.126-5.636-3.642-4.446.663-9.077 1.02-12.241 4.999-.654.823-1.705 1.334-2.588 1.97-.992.715-1.397 1.513-.847 2.772.724 1.659 1.376 3.369 1.839 5.115.211.796-.029 1.747-.208 2.598-.141.671-1.445.968-1.748.403-1.072-1.996-3.055-2.986-4.598-4.457-3.123-2.976-6.311-5.889-7.997-10.147-1.919-4.846-6.64-7.314-11.785-6.781-1.208.125-2.059.69-2.175 1.989-.097 1.081.058 2.217-.216 3.244-.522 1.96-2.056 2.859-3.98 3.169-1.19.191-2.445-.844-3.044-2.547-.179-.51-.354-1.039-.411-1.573-.459-4.318-1.424-8.564-1.26-12.972.133-3.603-.277-7.226-.453-10.84-.016-.338.047-.806-.143-.992-2.349-2.29-1.417-5.03-1.149-7.7.27-2.683.499-5.372.668-8.063.057-.911-.138-1.83-1.314-2.016-1.241-.196-2.452.281-2.708 1.218-1.693 6.172-4.871 11.649-7.907 17.202-.952 1.742-1.872 3.542-2.487 5.419-2.478 7.569-4.945 15.146-7.193 22.785-1.639 5.567-3.26 11.121-5.604 16.446-.497 1.13-.731 2.403-.917 3.635-.257 1.707.198 3.118 1.668 4.3 2.116 1.701 4.238 3.468 6.009 5.509 2.799 3.226 6.192 5.541 9.957 7.383 2.974 1.455 5.662 3.353 7.886 5.734 4.477 4.794 10.079 7.635 16.093 9.802 2.916 1.051 5.622 2.394 8.281 4.003 5.42 3.279 10.94 6.418 16.579 9.301 2.985 1.526 4.168 2.033 4.861.901m6.813-7.964.052.003c.024-.04.043-.047.062-.059a2.1 2.1 0 0 0-.614.079c.008.018.018.033.012.076l.157.007c.052.003.104.005.068.247l-.018.121c.07-.118.088-.239.175-.113.104.005.157.007.175-.113s-.017-.246-.069-.248m8.522 85.469c.014-.137-.034-.117-.131-.078-.007.003-.011-.001-.017 0l.194.679a.33.33 0 0 0 .008-.229c-.034-.118-.103-.352-.054-.372m112.816 9.061c-1.449-1.718-1.787-1.871-3.615-.91-1.272.668-2.646 1.343-3.606 2.362-1.854 1.966-4.011 3.006-6.657 3.276-.887.09-1.771.418-2.609.754-7.675 3.079-15.725 4.259-23.91 4.521-9.962.319-19.932.571-29.898.543-5.217-.015-10.442-.169-15.654-1.085-9.1-1.599-18.281-2.736-27.416-4.141-1.66-.255-2.711.2-3.656 1.585-2.76 4.043-5.453 8.154-8.511 11.966-3.658 4.559-6.644 9.506-9.381 14.626-.452.846-1.403 1.711-.714 3.005.46.112.97.241 1.483.361 2.292.538 4.696 1.772 6.846 1.426 2.421-.389 2.338-3.834 4.061-5.438.265-.247.526-.509.738-.8 1.38-1.9 2.767-3.796 4.11-5.723.934-1.34 1.727-2.784 2.718-4.077.969-1.264 1.84-3.114 3.656-2.832.995.155 1.782 1.602 2.677 2.452.92.873 1.991 1.626 2.748 2.621.627.824 1.222 1.911 1.256 2.901a94 94 0 0 1-.151 9.191c-.186 2.958-.09 3.369 2.674 3.28 7.644-.247 15.225.675 22.836.982 4.727.19 9.406.393 14.034 1.514 1.336.323 2.85.037 4.265-.124 1.452-.165 2.186-1.264 2.488-2.559.202-.868.175-1.806.142-2.709-.148-4.086 2.407-6.78 5.035-9.268 2.192-2.076 4.953-1.564 7.157.677 2.424 2.465 3.231 5.558 3.811 8.799.896 5.01 1.206 5.264 6.27 5.63.724.052 1.451.113 2.176.111 9.255-.017 18.51-.021 27.765-.096 1.252-.01 2.494-.464 3.754-.586 1.636-.159 2.559-.902 3.086-2.533 1.339-4.143 2.783-8.234 3.314-12.602.26-2.143.847-4.264 1.471-6.34.393-1.308 2.154-1.548 3.077-.515 3.525 3.941 6.635 8.182 8.838 13.008 1.139 2.495 2.562 4.783 4.229 6.938.824 1.066 1.888 1.682 3.268 1.661 1.989-.03 3.999.027 5.772-1.32-.219-.513-.351-1.027-.63-1.443-3.24-4.841-6.207-9.789-7.834-15.477-.417-1.459-1.61-2.903-2.822-3.894-7.074-5.788-12.845-12.784-18.691-19.718m12.15-71.283c.762-1.784 1.443-3.933 1.167-5.765-.741-4.918.127-9.762.257-14.62.048-1.793-.248-3.114-1.118-4.508-2.3-3.687-4.567-7.394-6.878-11.074-.144-.23-.557-.292-1.05-.532-.411 1.009-.808 2.007-1.224 2.997-2.554 6.085-6.543 10.809-12.65 13.628-4.282 1.977-8.548 4.012-13.141 5.132-8.113 1.978-16.276 3.099-24.635 1.356-10.136-2.114-17.61-7.377-21.361-17.313-.242-.64-.62-1.229-1.067-2.099-4.776 2.182-9.651 3.613-13.833 6.647-1.292.937-2.874 1.543-4.402 2.072-3.97 1.373-8.125 1.769-12.274 2.301-4.384.562-8.593.374-12.887-.733-2.446-.63-5.064-.617-7.624-.769a.32.32 0 0 1-.055.188c-.106.36-.158.358-.193.234l.067-.433-.274-.016c-.054-.004-.099.003-.151.002.017.013.034.023.046.067.034.123.068.247.173.252.052.002.086.126.086.126-.018.121-.036.242.016.244l-.018.121-.157-.007c-.052-.002-.157-.007-.122.116l-.018.121.068.247c.068.247.068.247.104.005.07-.118.07-.118.122-.116.052.003.052.003.034.123a.9.9 0 0 0-.002.365c-.018.121-.036.242-.088.239s-.034-.123-.068-.247c.018-.121-.329-.259-.365-.017-.018.121-.088.239-.088.239-.052-.003-.052-.003-.07.118s-.106.36-.158.358c-.018.121.034.123.139.128.261.012.416.385.31.745-.07.118-.036.242.016.244s.104.005.086.126c0 0-.07.118-.122.116-.104-.005-.086-.126-.068-.247s-.034-.123-.139-.128c-.052-.003-.052-.003-.07.118l.104.005c-.018.121-.036.242.016.244.034.123-.299.594-.437.466s-.367.348-.247.597l.157.007c.052.002.086.126.068.247 0 0 .034.123.139.128.104.005.086.126-.106.36-.14.237-.227.111-.139-.128s-.016-.244-.157-.007c-.018.121-.14.237-.193.234-.157-.007-.157-.007-.054.363.068.247.068.247.139.128.036-.242.088-.239.104.005.034.123.086.126.104.005s.07-.118.122-.116l-.018.121c-.088.239-.018.121.052.003.14-.237.193-.234.297-.229l.139.128-.193.234c-.07.118-.175.113-.175.113-.052-.003-.104-.005-.14.237-.018.121-.088.239-.175.113-.104-.005-.191-.131-.243-.133-.034-.123-.052-.002-.018.121s.121.249.225.254l.104.005c-.122.116-.122.116-.036.242.052.003.104.005.175-.113s.104.005.086.126-.036.242.016.244c.104.005.034.123-.07.118l-.209-.01q-.263.17-.054.363c.104.005.104.005-.036.242s-.14.237.068.247c.104.005.157.007.121.249-.052.35-.272 1.111-.366 1.049-.052-.007-.102-.014-.106.016q-.002.019-.026.033a.14.14 0 0 1-.078.024c-.156.003-.048.024.161.076.262.09.213.219-.096.379l-.156.019c.052-.006.107.109.107.109l.008.366c.055.116.003.122-.101.135-.156.019-.265-.212-.109-.232 0 0-.003-.122-.06-.36-.055-.116-.106-.109-.158-.103s-.052.006-.055-.116c-.052.006-.052.006-.049.129 0 0-.101.135-.153.141s-.156.019-.153.141q-.074.193-.156.019c-.034-.072-.071-.079-.115-.056q-.008.409-.014.817c.201.206.203.202.195-.157-.057-.238-.008-.366-.005-.244.052-.006.106.109.109.232q.016.734.172.714c.104-.013.096-.379-.014-.611-.106-.109-.106-.109.049-.129.104-.013.21.097.265.212.003.122.055.116.158.103.101-.135.101-.135.003.122-.049.129-.046.251-.044.373-.041.495-.079 1.112-.131 1.119l-.104.013c-.052.006-.147.386-.145.508.057.238-.147.386-.205.148l-.055-.116c.003.122-.046.251-.098.257l-.003-.122c.038-.1-.049-.182-.163-.206l-.001.378a1 1 0 0 1 .12.201l.057.238-.052.006c.003.122.106.109.21.097.259-.032.259-.032.21.097-.049.128-.046.251.06.36s.106.109.153-.141c-.003-.122 0 0 .057.238.063.482.065.604.016.733-.101.135-.098.257.06.36.104-.013.112.354-.044.373-.052.006-.052.006.003.122l.005.244-.104.013c-.15.263.065.604.273.579.104-.013.156-.019.106.109.003.122.055.116.158.103.153-.141.153-.141.106.109-.049.129-.049.129.005.244.052-.006.106.109.109.232l-.156.019c-.109-.232-.21-.097-.306.283-.049.129-.15.263-.202.27-.104.013-.101.135.005.244l.104-.013c.046-.251.098-.257.106.109.003.122-.044.373-.044.373-.052.006-.052.006-.049.128l.207-.026.257-.154-.202.27c-.101.135-.254.276-.355.411-.153.141-.153.141-.049.129.104-.013.216.341.112.354-.052.006-.052.006-.049.129.003.122.005.244.057.238l.049-.129c-.003-.122-.003-.122.049-.129 0 0 .052-.006.055.116s.005.244.057.238l.055.116c-.101.135-.096.379.008.366l.104-.013c.003.122-.101.135-.205.148l-.104.013c.101-.135.096-.379-.005-.244-.104.013-.156.019-.158-.103l.052-.006c.052-.006.049-.129.046-.251l-.104.013c-.049.128-.101.135-.101.135l.005.244.109.232c.052-.006.106.109.213.219.109.232.109.232.005.244-.052.006-.098.257-.096.379s-.046.251-.15.263-.156.019-.158-.103l-.104.013c-.052.006-.049.129-.046.251.052-.006.003.122-.104.013-.088-.09-.268.328-.325.684l.015 1.076c.109.052.289-.432.328-.904.046-.251.096-.379.248-.521.202-.27.202-.27.314.084.106.109.216.341.267.334s.106.109.106.109c.055.116.003.122-.153.141-.158-.103-.158-.103-.049.129.005.244.112.354.112.354.052-.006.052-.006.055.116-.049.129-.049.129-.153.141-.158-.103-.153.141-.046.251.21.097.016.733-.194.636-.158-.103-.267-.335-.221-.585.041-.495-.019-.855-.12-.72-.104.013-.104.013.003.122-.052.006-.049.129-.046.251.005.244-.046.251-.098.257l-.156.019.005.244c.104-.013.109.232.008.366l.156-.019c.207-.026.317.206.278.823l-.038.617.207-.026c.052-.006.207-.026.262.09.106.109.106.109.005.244s-.101.135.055.116c.104-.013.158.103.158.103.055.116.005.244.003.122-.055-.116-.104.013-.046.251.005.244.008.367-.096.379l-.052.006c-.003-.122-.003-.122.049-.129 0 0 .049-.129-.003-.122-.055-.116-.308.161-.303.405l-.104.013c-.003-.122-.052.006.003.122 0 0 .057.238.161.225.106.109.106.109.005.244l-.052.006c.055.116.057.238.06.36.005.244.008.366-.096.379s-.202.27-.3.527c-.147.386-.188.881-.036.739.052-.006.104-.013.055.116.003.122-.046.251-.098.257-.055-.116-.052.006-.046.251s-.041.495-.09.624c-.098.257-.087.746-.036.739s.049-.129.046-.251c-.005-.244.044-.373.096-.379.101-.135.156-.019.21.097.003.122.052-.006.101-.135.046-.251.098-.257.15-.263l.052-.006c-.003-.122-.055-.116-.106-.109-.104.013-.115-.476-.065-.604l.207-.026c.106.109.109.232.123.842.011.489.016.733-.033.861-.052.006-.046.251-.044.373.055.116.005.244-.049.129-.106-.109-.109-.232-.112-.354s-.003-.122-.055-.116c-.101.135-.096.379-.09.624.055.116.055.116.106.109-.003-.122.049-.129.101-.135.106.109.106.109.115.476-.046.251.008.366.005.244 0 0 .052-.006.109.232.055.116.109.232.161.225.052-.006.052-.006-.049.129s-.246.643-.24.887c.003.122.055.116.104-.013.104-.013.156-.019.158.103s.005.244.06.36.057.238.008.366c-.049.129-.15.263-.199.392 0 0 .003.122.109.232l.112.354-.104.013c-.156.019-.156.019-.049.129.057.238.109.232.161.225l-.049.129c.003.122-.046.251-.098.257-.003-.122-.052.006 0 0l.005.244-.052.006c-.003-.122-.055-.116-.106-.109s-.049.129-.046.251c0 0-.049.129-.101.135l-.104.013c.003.122.005.244.109.232.052-.006.101-.135.153-.141-.005-.244.355-.411.36-.167 0 0-.049.129-.153.141-.049.129-.049.129.005.244.003.122.06.36.063.482.06.36.063.482.011.489-.363.045-.516.186-.51.43 0 0 .055.116.369.2.104-.013.21.097.213.219l-.049.129c-.052.006-.052.006-.049.129.003.122-.049.128-.101.135-.104.013-.104.013-.153.141.005.244-.202.27-.205.148-.005-.244-.161-.225-.207.026a.45.45 0 0 0 .008.366s.003.122-.046.251c-.046.251.008.366.109.232.15-.263.467-.058.472.187l.052-.006c.052-.006.055.116.06.36.008.366.011.489-.046.251-.109-.232-.109-.232-.098.257l.008.082a.3.3 0 0 0-.158-.011c-.104.012-.158-.02-.158-.02-.039-.022-.082-.03-.247-.022.009.083.013.167.023.25l.008.017s.007.022.022.047c.016.026.062.142.1.18.034.117.083.098.063-.156.018-.122.07-.12.054-.17-.025-.073.144-.052.274.001.05-.023.144.118.191.09l.048-.02c.034.117-.029.274-.077.293l-.097.039c.165.196.399.626.35.645-.014.137.04.508.19.841.151.332.287.802.239.821s-.048.02-.014.137c.068.235-.029.274-.145.059-.048.02-.048.02-.063.156.02.254.02.254.199.313.131.078.165.196.199.313s.068.235.117.215c.097-.039.199.313.171.587-.063.156-.029.274.068.235l-.014.137c-.063.156-.063.156-.029.274 0 0-.014.137-.063.156-.126.313-.126.313.054.372.083.098.131.078.18.059.014-.137.014-.137.083.098.102.352.37.899.384.763-.034-.117.048-.02.048-.02.034.117.02.254-.029.274 0 0-.014.137.054.372.034.117.02.254-.029.274s-.048.02-.014.137c.083.098.302.665.253.684s.034.117.117.215c.165.196.199.313.185.45l.083.098c.048-.02.083.098.034.117s-.063.156-.029.274c.102.352.108.743-.023.665s-.111.176.054.372c.165.195.165.195.097-.039.014-.137.014-.137.063-.156l.034.117c.034.117.054.371.054.371.034.117.068.235.117.215.048-.02.097-.039.131.078l-.048.02c-.048.02-.097.039-.16.196l-.029.274.233.43.199.313-.077.293-.029.274c.048-.02.097-.039.131.078s.034.117-.014.137c-.131-.078-.029.274.102.352.083.098.131.078.18.059.014-.137.014-.137.034.117-.014.137.02.254.136.469.083.098.165.195.117.215q-.094.234.102.352c.048-.02.048-.02-.014.137-.014.137-.111.176-.16.196-.034-.117-.048.02.034.117l.083.098c.048-.02.048-.02.083.098s.02.254-.029.274c-.131-.078-.097.039.117.215.083.098.083.098.034.117-.131-.078-.043.411.156.724.151.332.287.802.205.704-.034-.117-.048.02.034.117.034.117.02.254-.029.274-.014.137-.063.156-.048.02-.068-.235-.185-.45-.151-.332-.014.137-.014.137.088.489.034.117.02.254-.029.274l-.034-.117-.068-.235c-.117-.215-.373.02-.436.176.02.254.02.254.034.117.063-.156.063-.156.194-.078.083.098.199.313.199.313l.034.117q-.051-.176.145-.059c.097-.039.145-.059.111-.176s-.034-.117.014-.137l.034.117c-.014.137.068.235.165.196.014-.137.014-.137-.068-.235.063-.156.214.176.185.45-.014.137.02.254.151.332l-.097.039-.097.039c-.02-.254-.117-.215-.145.059.02.254.02.254-.131-.078-.034-.117-.117-.215-.311-.137l-.291.117-.111.176.18.059c.131.078.18.059.242-.098.014-.137.063-.156.18.059.131.078.131.078.102.352-.014.137.054.372.122.606.068.235.102.352.117.215.111-.176.451-.313.533-.215s.117.215.151.332c0 0 .117.215.151.332.117.215.117.215-.014.137-.083-.098-.131-.078-.18-.059-.014.137-.097.039-.311-.137-.131-.078-.262-.156-.359-.117-.145.059-.194.078.005.391.117.215.165.196.097-.039-.034-.117-.034-.117.014-.137l.048-.02c-.063.156.171.587.233.43.049-.02.097-.039.131.078.117.215.117.215.165.196.014-.137.063-.156.063-.156.034.117.02.254-.029.274q-.094.234-.145.059l-.014.137c.034.117.02.254-.029.274-.048.02-.048.02.02.254s.054.371.005.391c-.048.02-.048.02.068.235.068.235.185.45.185.45q.051.176.145-.059c.077-.293.126-.313.208-.215.165.196.268.547.253.684-.048.02-.014.137.02.254 0 0-.014.137-.063.156-.097.039-.111.176-.023.665.034.117.068.235.117.215.048-.02.083.098.083.098l.068.235c.048-.02.097-.039.063-.156s-.034-.117.014-.137c.097-.039.097-.039.083.098-.048.02-.014.137.02.254l.048-.02c-.034-.117.014-.137.063-.156.048-.02.151.332.088.489s-.029.274.034.117c.077-.293.126-.313.111-.176l.068.235c.048-.02.083.098.054.372-.014.137-.063.156-.063.156l-.097.039.068.235c.097-.039.165.195.102.352-.048.02-.014.137.083.098.083.098.165.195.199.313s.034.117.083.098l-.068-.235.083.098c.117.215.117.215.102.352-.111.176-.126.313.054.371.131.078.117.215-.077.293-.083-.098-.077.293.054.372.083.098.151.332.054.372-.048.02-.083-.098-.117-.215s-.083-.098-.131-.078-.048.02-.014.137c.199.313.356 1.036.259 1.075-.048.02-.048.02.054.372.137.469.137.469-.057.547q-.145.058.102.352c.083.098.131.078.228.039.063-.156.145-.059.296.274.165.195.199.313.219.567.088.489.088.489.219.567.097-.039.131.078.233.43l.136.469c-.083-.098-.271.371-.237.489.048-.02.131.078.165.195s.151.332.199.313c.097-.039.097-.039.034.117.02.254-.029.274-.111.176l-.102-.352c-.034-.117-.034-.117-.083-.098 0 0-.014.137.054.372s.068.235-.048.02c-.165-.195-.165-.195-.048.02.068.235.151.332.282.411q-.145.059-.043.411c.005.391.137.469.214.176-.005-.391.043-.411.126-.313.034.117.034.117.02.254-.063.156-.063.156-.014.137.048-.02.083.098.054.372-.014.137-.029.274.005.391 0 0 .034.117-.014.137l.034.117-.097.039c-.18-.059-.18-.059-.165-.195a.7.7 0 0 0-.02-.254c-.034-.117-.083-.098-.131-.078q-.021.205-.145.059c-.131-.078-.131-.078-.063.156.034.117.185.45.268.547s.165.196.199.313.083.098.131.078c.097-.039.145-.059.111-.176s-.034-.117.063-.156l.097-.039c-.068-.235.029-.274.228.039.131.078.165.195.068.235-.048.02-.048.02-.014.137.083.098.068.235-.111.176-.145.059-.194.078-.091.43.117.215.02.254-.145.059-.083-.098-.131-.078-.16.196-.014.137-.077.293-.077.293l-.145.059c-.145.059-.325 0-.345-.254.014-.137-.083-.098-.111.176-.077.293.059.763.122.606.048-.02.131.078.165.195l.137.469.034.117c.034.117.048-.02.063-.156s.111-.176.16-.195c.083.098.083.098.102.352-.014.137-.063.156-.111.176s0 0 .014-.137c.048-.02.014-.137-.048.02-.194.078-.242.098-.262-.156-.034-.117-.068-.235-.165-.196l-.112.045.227.783c.01-.053.024-.098.041-.105.111-.176.111-.176.131.078.068.235.287.802.384.763 0 0 .014-.137-.02-.254s.048-.02.131.078.165.195.131.078c.048-.02-.068-.235-.199-.313-.083-.098-.165-.196-.199-.313s.126-.313.271-.372c.097-.039.111-.176.077-.293.014-.137-.034-.117-.083-.098-.063.156-.165-.195-.102-.352 0 0-.034-.117-.117-.215-.117-.215-.117-.215-.102-.352l.145-.059c.034.117.117.215.165.195.18.059.18.059.145-.059l-.034-.117c.097-.039.063-.156.302.665.102.352.171.587.122.606-.048.02-.111.176-.174.332-.029.274-.029.274.054.371.131.078.194-.078.126-.313 0 0 .131.078.18.059.145-.059.276.02.413.489.034.117.02.254-.029.274l-.068-.235c-.034-.117-.034-.117-.083-.098-.048.02-.18-.059-.214-.176s-.083-.098-.131-.078l.034.117c.034.117.02.254-.029.274-.063.156-.063.156.034.117.083.098.083.098.068.235s.068.235.117.215c.048-.02.097-.039.083.098-.063.156.02.254.117.215-.014.137-.063.156-.111.176-.083-.098-.048.02.151.332.117.215.165.196.214.176s.097-.039.117.215c.034.117.068.235.083.098.048-.02.097-.039.131.078s.068.235.117.215.097-.039.131.078.034.117-.097.039c-.165-.195-.359-.117-.242.098.083.098-.014.137-.18-.059-.199-.313-.296-.274-.18-.059l-.083-.098c-.083-.098-.131-.078-.18-.059-.077.293.025.645.122.606l-.034-.117-.068-.235.097-.039c.287.802.239.821.025.645q-.124-.147-.145.059c-.014.137-.097.039-.18-.059-.117-.215-.296-.274-.276-.02l-.081.033q.14.488.277.977c.039-.001.053-.039-.005-.169-.117-.215-.117-.215.111-.176.18.059.228.039.16-.196s-.068-.235.048-.02q.196.118.102.352c.012.159-.003.222-.028.255.022-.25-.071-.208-.146.077-.063.156-.029.274-.029.274l.097-.039c.048-.02.097-.039.18.059.117.215.214.176.194-.078.048-.02.111-.176.16-.196.097-.039.145-.059.131.078.068.235.02.254-.16.195-.083-.098-.048.02-.014.137.068.235-.223.352-.305.254-.077-.141-.188-.092-.263-.007.168.576.394 1.046.675 1.437q-.001-.012-.002-.022c.014-.137.319-.391.388-.156 0 0-.014.137-.077.293a1 1 0 0 1-.119.143c.674.775 1.64 1.168 2.974 1.346 6.647.89 13.255 2.065 19.89 3.049 6.64.985 13.297 1.928 20.034 1.742 10.7-.296 21.396-.721 32.095-1.006 6.795-.181 13.217-2.129 19.668-3.947.811-.229 1.729-.754 2.194-1.423 2.38-3.425 4.766-6.859 6.882-10.449 2.209-3.748 4.169-7.648 6.13-11.536 1.22-2.418 2.571-4.845 3.286-7.428 1.836-6.635 3.837-13.286 4.852-20.068.988-6.516 2.323-12.796 4.91-18.85m14.577 39.178c-.752-.689-1.765-1.603-2.625-1.565-2.271.101-4.222-.537-6.152-1.567-.939-.502-1.915-1.03-2.937-1.243-.536-.112-1.63.301-1.751.698-.889 2.909-1.629 5.865-2.343 8.824-.292 1.21.493 1.996 2.398 2.003 4.357-.312 8.893-1.879 13.134-4.35.942-.55 1.135-2.013.276-2.8m3.634-17.492c-.393.486-.839.795-.892 1.161-.084.574-.251 1.529.706 1.44.443-.041.936-.807 1.154-1.346.085-.212-.524-.703-.968-1.255m3.797-2.117c.961-1.594 1.963-2.905 2.597-4.375 2.081-4.819 4.146-9.651 5.986-14.565 1.331-3.554 2.32-7.238 3.404-10.881.287-.963-.569-1.73-1.534-1.376-4.548 1.665-9.174 1.753-13.909.996-3.676-.588-6.759-2.452-10.657-4.777.118 3.858.181 6.899.31 9.937.216 5.093.394 10.244-1.512 15.044-2.184 5.503-1.874 11.423-3.346 17.024-.109.416.171 1.244.508 1.418 2.407 1.24 4.853 2.41 7.338 3.485.752.325 1.474-.178 1.513-1.02.123-2.718.134-5.441.211-8.161.026-.905.005-1.835.207-2.707.555-2.402 2.815-3.456 5.054-2.34 1.267.633 2.44 1.455 3.83 2.298m7.658 26.443c-.3-.525-.48-1.054-.616-1.043a14.3 14.3 0 0 0-2.585.449c-.119.032-.229.834-.098.925.544.378 1.215.898 1.778.834.557-.063 1.04-.769 1.521-1.165m60.192-35.543c-.142-.517-.428-1.003-.693-1.477-3.465-6.201-5.599-12.973-8.377-19.468-1.28-2.992-2.57-6.001-4.142-8.844-3.687-6.669-7.646-13.187-11.296-19.875-1.991-3.649-3.625-7.498-5.318-11.302-.488-1.096-1.3-2.5-.057-3.506 1.634-1.322 2.546.347 3.615 1.22.984.804 1.943.473 2.213-.812.14-.667.176-1.419.021-2.077-1.629-6.941-5.068-13.17-7.81-19.673-.139-.33-.376-.62-.582-.919-1.329-1.928-2.962-2.84-5.498-2.64-3.467.273-6.797.848-10.075 2.01-4.78 1.694-9.608 3.255-14.427 4.835-5.921 1.941-11.495 4.461-15.853 9.121-.742.793-1.494 1.646-2.406 2.197-2.467 1.491-5.014 2.852-7.56 4.207-.203.108-.732-.135-.938-.368-.19-.216-.318-.758-.182-.944.629-.862 1.31-1.7 2.066-2.453.912-.909 1.918-1.724 3.046-2.725-8.863-1.071-17.459.095-25.834-2.003-1.942-.487-3.953-.134-5.866.65-.785.322-1.842.675-2.534.403-2.148-.845-4.307-.41-6.465-.457-6.341-.14-12.696-.077-19.02-.487a418 418 0 0 0-32.056-.826c-11.401.138-22.722 2.515-34.179 1.275-.352-.038-.721.069-1.081.113-2.135.262-3.526 1.263-4.53 3.334-3.294 6.794-4.948 13.986-5.737 21.424-.094.882.091 1.797.171 2.694.124 1.379.768 2.352 2.117 2.87 3.238 1.244 6.538 2.247 10.029 2.307 4.176.073 8.36.17 12.529-.016 4.552-.204 8.913-1.06 12.82-3.83 3.271-2.319 7.133-3.53 11.031-4.506 1.951-.489 3.628-.234 4.756 1.581 1.235 1.988 2.519 3.961 3.568 6.048 2.311 4.6 5.742 7.78 10.651 9.523 5.371 1.907 10.867 3.152 16.527 2.735 5.046-.372 10.055-1.336 15.055-2.186 1.196-.203 2.377-.864 3.418-1.54 2.884-1.874 5.688-3.872 8.53-5.812 3.315-2.263 6.486-4.723 8.771-8.059 1.423-2.078 2.482-4.405 3.71-6.616.931-1.677 2.539-1.945 4.009-.686 1.855 1.588 2.888 3.628 3.455 5.978.723 2.998 1.456 5.993 3.496 8.473 1.381 1.679 2.623 3.473 3.945 5.201 2.981 3.897 6.848 6.534 11.65 7.487 4.111.816 8.297.981 12.387-.331 2.063-.662 4.101-1.401 6.209-2.126 3.296 7.068 2.941 13.839.448 20.476-1.653 4.4-3.659 8.703-5.896 12.838-3.359 6.21-7.039 12.246-10.635 18.325-.501.846-.75 1.601-.407 2.533.25.681.479 1.372.678 2.069 1.294 4.555 1.31 4.619 5.681 3.235 2.75-.87 5.435-1.95 8.141-2.957 2.04-.759 4.016-1.743 6.107-2.299 11.557-3.073 23.138-6.058 34.718-9.044 2.633-.679 5.29-1.272 7.946-1.855 3.553-.78 5.391-3.597 7.136-6.306 1.392-2.167-.638-4.109-1.196-6.137M335.728 67.416c.35 3.053.678 6.109 1.101 9.151.058.413.548.944.957 1.092.805.292.837-.545.881-.978.363-3.609.697-7.221.977-10.837.52-6.704 1.814-13.265 3.471-19.77.876-3.441 2.543-6.337 5.201-8.72 1.205-1.08 2.129-2.465 3.281-3.612 1.142-1.137 2.311-2.295 3.642-3.182 2.402-1.6 4.929-3.013 7.417-4.481.438-.258 1.008-.661 1.402-.559 1.771.461 3.181-.507 4.669-1.059 2.72-1.009 5.664-1.279 8.379-1.147 4.49.218 8.504 1.871 8.881 7.443.035.517.427 1 .571 1.522.664 2.403.316 4.631-1.036 6.761-2.585 4.071-6.08 7.206-10.145 9.662-1.671 1.01-3.673 1.494-5.559 2.114-.892.293-1.651-.375-1.774-1.464-.08-.713-.015-1.443-.015-2.179-.371.124-.783.147-1.019.363a10.7 10.7 0 0 0-1.437 1.613c-2.038 2.829-.853 7.854 3.985 8.629 2.085.334 3.937-.118 5.795-.948 4.169-1.862 7.82-4.471 11.208-7.508 7.137-6.399 12.835-13.75 15.483-23.139 1.461-5.181 1.009-9.987-2.852-14.127-1.964-2.106-3.63-4.537-5.792-6.402-2.862-2.469-6.114-4.304-9.97-5.145-4.366-.952-8.596-.386-12.877.192-6.762.912-13.049 3.423-18.783 6.87-6.529 3.925-10.507 10.384-13.744 17.086-1.783 3.692-3.334 7.61-3.469 11.895-.268 8.504-.14 16.994.579 25.473.154 1.801.386 3.595.592 5.391m47.906 148.618c-.363-.443-1.704-.065-1.831.5-.193.86-.543 1.797-.37 2.604.469 2.178-.281 3.374-2.364 4.085-1.694.578-3.309 1.412-4.907 2.232a19 19 0 0 0-3.151 2.006c-.309.245-.437 1.031-.293 1.447.137.395.724.65 1.14.925.133.088.351.046 1.441.153 3.169-.801 7.246-1.592 11.154-2.891 3.592-1.194 4.331-3.56 2.441-6.802-.895-1.534-2.127-2.875-3.26-4.259M6.442 75.982l-.12-.101-.001.171.131-.053zm151.997 83.203c-1.222-.494-2.845.102-4.183-.222-4.275-1.036-7.191 1.616-10.34 3.602-.926.584-1.41 1.648-1.144 2.838.309 1.383 1.221 2.438 2.602 2.278 2.061-.238 2.768.783 3.598 2.407.912 1.787 2.077 1.866 4.08.934.163-.076.31-.186.472-.264 2.082-1.004 2.176-1.062 3.475 1.009.925 1.475 2.51 1.658 3.686.728.699-.554.86-1.788 1.144-2.443-.354-2.358-.333-4.436-1.034-6.232-.626-1.6-.496-3.883-2.356-4.635m32.152-87.494.242.036-.005-.117q-.064-.02-.128-.037zm91.564 224.611c-7.706-.271-14.065 2.852-19.727 7.703-.545.467-.793 1.663-.669 2.44.184 1.154 1.195 1.8 2.391 1.81.888.007 1.809-.08 2.659-.322.86-.245 1.618-.852 2.479-1.09 3.125-.865 6.262-1.693 9.424-2.407.588-.133 1.311.33 1.972.518-.233.63-.29 1.451-.73 1.857a109 109 0 0 1-6.174 5.303c-1.8 1.425-1.282 3.951.509 4.995 1.505.878 3.176 1.137 4.678.33 2.03-1.09 4.108-2.236 5.651-4.609l-4.036-.662c1.827-1.608 3.67-3.07 5.312-4.73 1.125-1.138 2.057-2.5 2.898-3.871.32-.521.374-1.43.157-2.019-1.153-3.134-3.198-5.119-6.794-5.246M147.308 143.735c.127-.18.087-.737-.025-.787-2.138-.962-4.285-1.909-6.462-2.776-.639-.255-1.376-.309-2.075-.354-.607-.039-1.337 1.024-1.155 1.575.837 2.536 3.142 4.395 5.578 4.498 1.798.085 3.14-.734 4.139-2.156m-33.268 4.171c-.483-.506-1.176-.831-1.812-1.166-1.378-.727-2.245-1.51-1.853-3.392.23-1.105-.384-2.428-.77-3.603-.245-.746-1.907-.91-2.345-.243-1.692 2.579-3.16 5.262-2.843 8.509.199 2.036.924 2.838 3.043 3.169 1.773.277 3.578.353 5.458.526l3.598-.594c-.071-1.644-1.545-2.231-2.476-3.206m339.774-85.992c.027 6.686-1.684 13.008-3.903 19.126-1.011 2.787-3.198 5.159-4.917 7.675-3.612 5.287-8.479 9.335-13.383 13.329-.677.552-1.547 1.111-2.373 1.19-2.299.217-3.031 2.457-4.764 3.416-1.623.898-3.57-.059-5.088 1.357-1.171 1.091-2.684 1.864-4.479 1.286-.314-.101-.736-.025-1.062.095-2.535.936-5.058 2.311-7.599.02-1.794 1.686-3.699.153-5.549.183-4.697.078-8.203-2.253-11.393-5.453-2.839-2.848-5.22-5.855-6.924-9.599-2.605-5.724-7.669-8.09-13.743-7.562-2.386.207-4.828 1.533-6.924 2.857-2.57 1.623-5.219 3.314-6.839 6.099-.149.257-1.126.395-1.235.242-.277-.386-.537-1.12-.347-1.449.808-1.399 1.6-2.885 2.729-4.005 3.602-3.571 7.258-7.101 11.069-10.445 5.139-4.509 11.214-4.881 17.388-2.906 2.109.674 4.136 1.65 5.93 2.978l.007-.02-.007.02q.1.074.199.15l.011-.036c-.077-.022-.05-.105.026-.082.052-.165.128-.143.076.022.051.105.051.105.076.022s.102-.06.178-.038c.152.044.128.128-.152.226-.018.011-.032.014-.05.022q.741.581 1.419 1.249c.045-.081.11-.071.176-.056.112.026.173.244.151.37.225.234.436.485.649.735-.018-.178-.194-.41-.272-.361-.167-.039-.11-.292-.009-.358.083.019.12-.15.138-.235-.005-.359.152-.316.23.137-.036.169.03.27.03.27.12-.153.536-.071.671.133.052.187.136.204.152.119s.183-.051.269-.039c.085.014.1-.071.1-.071.015-.085.015-.085-.069-.099 0 0 .031-.17.13-.242.114-.157.144-.327.144-.327.083.013.166.027.151.112.015-.085.098-.072.166.027l.166.027c.014-.085.111-.157.276-.13l.083.014c-.097.07.061.716.148.723.085.011.073.096.06.182-.025.171.037.354.209.376.149.194.149.194.097-.075-.039-.354.057-.429.194-.149.074.097.149.194.063.183s-.097.075-.108.161l.172.023c.097-.075.097-.075.107-.161-.075-.097-.053-.269.053-.43l.116-.247-.032.258c.042.355.119.453.319.216.2-.242.198-.241.049-.43-.232-.206-.116-.45.133-.421.167.015.149.187-.029.258-.084-.008-.094.078-.01.086.15.188.347-.055.281-.235.019-.172.019-.172.185-.157.259-.063.243.109.049.352-.186.156-.119.336.059.266.093-.078.177-.07.177-.07.068.18.154.189.261-.062.106-.251.259-.062.147.275l-.021.259.262-.065c.269-.158.268-.158.512.029.165.096.166.096.171.01.011-.173.18-.163.341.02-.005.086.166.097.252.102.171.01.171.01.178-.163-.078-.179.007-.171.092-.171.169.003.336.092.331.265 0 0 .083.088.168.09.169.09.171.003.173-.083.004-.173.173-.17.339.093.084.088.17.09.255.092.172-.167.34-.084.428.172.174.342.347.252.342-.094l.171-.004c.172.083.259.081.51-.097.25-.178.334-.18.334-.18.091.174.177.164.254-.013-.004-.086-.004-.086.089.081s.093.167.178.162c-.004-.086.08-.092.165-.097s.249-.103.244-.189.079-.092.09.081c.09.081.09.081.085-.005s.079-.092.163-.097c.097.167.253-.016.162-.097-.006-.086-.006-.086.078-.092.168-.011.266.158.273.243.007.086.091.077.176.068s.253-.028.261.059c.093.077.178.068.338-.036.244-.113.243-.113.262.059-.084.009-.084.009-.075.095.104.163.349.05.234-.199-.029-.258-.03-.258.074-.095.094.077.115.249.115.249q.015.129.254-.027c.221-.286.552-.346.577-.172.012.086.109.158.264.047.168-.026.335-.052.433.021s.182.06.252-.038c.156-.102.721-.3.835-.151.016.085.266.034.599-.034.333-.067.6-.033.786.019.102.065.267.021.267.021l-.039-.168c-.059-.253.656-.169.721.083.021.084.042.168-.062.105s-.186-.042-.166.042q-.063.284.062.252c.188.041.273.02.374-.274.062-.105.1-.294.078-.377q-.033-.126.247-.063l.247-.062c.082-.021.083-.019.188.04s.163-.051.301-.185c.057-.108.057-.108.081-.025s.187.032.592-.094c.325-.101.621-.283.621-.283l.161-.05c.028.085.188.029.267-.003.131-.141.318-.118.397-.148.108.052.109.052.159-.059-.029-.081.05-.111.129-.14.109.052.188.023.268-.007l.128-.14c.03.081.22.103.379.045.318-.115.349-.037.524.169.143.126.209.286.288.252q.07-.172-.196-.48c-.111-.046-.032-.08.045-.114s.234-.102.267-.022l.156-.068c.156-.068.122-.147.088-.227-.146-.125-.068-.159-.034-.08.146.126.301.057 1.116-.199.305-.152.495-.346.57-.384 0-.194.075-.232.151-.076.076.155.229.079.227-.114.037-.115.151-.076.19.001s.115.039.191.001c.037-.115.076-.038.155.116s.236.27.236.27c.077-.038.037-.115-.003-.192-.08-.154-.004-.192.073-.23l.153-.076c-.041-.078-.004-.189.029-.307.033-.119.106-.161.147-.085l.124.228c.041.076.041.076-.033.119s-.149.086-.109.161c.042.078.157.111.157.111.151-.087.241-.638.229-.831l.116.033c.116.033.233.066.338-.095.031-.118.252-.245.326-.287.339-.094.34-.094.398.171.177.298.177.298.163.106-.014-.191.015-.308.06-.234 0 0 .03-.117.104-.159-.044-.071.1-.165.197-.333.214-.141.214-.141.307.006a.37.37 0 0 0 .211.172c.119.026.145-.094.072-.047-.164-.099.101-.48.363-.547.143-.093.216-.14.262-.377s.046-.236.094-.165c.097.144.41.147.432.029 0 0 .022-.118-.028-.19.019-.122.019-.122.069-.051l.148.213c.099.142.168.09.119.019.02-.122.039-.244.158-.225 0 0 .139-.103.226-.275s.087-.172.138-.102l.069-.051c.069-.051.138-.102.259-.083s.26-.083.156-.222c-.052-.069.017-.12.086-.171.104.016.42-.203.466-.235-.054-.071.02-.113.15-.225l.084-.07-.018.015c-.066.055-.013.123.041.191.053.068.586-.375.674-.674.144-.232.406-.45.641-.306.056.066.179.077.189-.044s.076-.175.133-.11l.133-.11c.067-.054.201-.162.325-.285.375-.232.699-.651.518-.719-.063.059-.059-.064.063-.059.063-.059.126-.118.005-.122-.059-.064-.113-.249-.051-.307.007-.243.066-.18.063-.058.118.127.177.19.24.131s.122.004.182.067c.118.126.493.016.621-.103.128-.118.191-.177.252-.115.06.061.186.066.248.004 0 0-.059-.06-.184-.063-.189-.07-.237-.116.063-.434.181-.189.242-.252.303-.191.122-.002.122-.002.121-.126-.062-.061-.001-.124.061-.063.184.058.244-.129.118-.372-.064-.183-.064-.183.121-.125.125.12.248.117.246-.006q-.098-.273.181-.188l.063.059c-.002-.122.058-.185.179-.31.184-.066.306-.192.427-.317.118-.13.23-.266.295-.207.186.049.713-.43.64-.61l.23-.266c.181-.077.115-.133-.017-.245l-.198-.169.303-.086c.37-.031.677-.121.668-.242l.173-.199c.178-.083.231-.156.164-.209-.013-.124-.013-.124-.08-.179l.216-.28c.216-.279.27-.349.202-.403-.136-.107-.136-.107.054-.07s.191.037.054-.07c-.068-.053-.083-.176.108-.139.054-.07.122-.017.191.036s.191.036.314.018c.177-.088.177-.088-.014-.123a1 1 0 0 1-.184-.048.3.3 0 0 0 .031-.18c-.015-.122.054-.07.192.035s.192.035.108-.14c.039-.192.039-.191.162-.209.193.034.193.034.108-.139-.154-.225.007-.432.163-.209l.085.173-.031-.242c-.032-.242-.056-.37.066-.391.121-.022.171-.095.101-.146s.031-.196.182-.414c.101-.146.151-.218.081-.268l.101-.145s.121-.023.213.149c.142.099.213.149.193.026l.152-.219c.193.025.346-.194.203-.292l-.051.073s-.051.073-.122.024c-.143-.098-.092-.171.06-.389q.38-.544.52-.291c.093.169.37-.076.254-.364-.025-.123-.05-.246.022-.199l.145.094c.025.123.025.123.12-.029s.095-.152-.051-.246c-.073-.047-.025-.123-.025-.123l.047-.076c.073.047.167-.105.309-.332s.189-.303.336-.211c.22.138.268.061.121-.03-.246-.26-.037-.757.422-1.001.169-.107.264-.258.19-.303 0 0 .047-.076.169-.107.244-.063.244-.063.048-.076-.197-.013-.224-.132-.102-.164.047-.075.047-.075-.027-.119l.088-.156.149.087c.031.122.149.087.163-.114.044-.079.013-.201-.018-.322l-.031-.122c.044-.078.013-.2.1-.356-.019-.32.187-.511.219-.391l.226.127c.195.006.208-.193.188-.512-.032-.12-.064-.24.012-.198s.12-.036.208-.193c-.032-.119.044-.078.12-.037.108.161.196.004.088-.156s-.109-.16.12-.037c.076.041.197.004.197.004.044-.078-.032-.119-.185-.201s-.065-.237.208-.194q-.163-.239.131-.235c.117-.041.316-.244.203-.404-.077-.04.041-.081.158-.122l.117-.041c-.077-.04-.036-.12.004-.201 0 0 .122-.242.085-.362l.203-.403c.077.039.158-.123.199-.203s.159-.123.237-.085c.196-.004.196-.004.041-.081-.078-.038-.037-.119.004-.2.078.038.159-.123.2-.204.003-.199.122-.242.319-.248.275.031.275.031.16-.124s-.116-.155.003-.199a.66.66 0 0 0 .274-.213h.001l-.524 1.579a1.5 1.5 0 0 0 .147-.229l.358-.344c.084.007.083.007.093-.18-.036-.097.014-.186.22-.263.252-.166.249-.167.139-.27-.032-.096-.061-.192.016-.186s.17-.173.217-.263c.02-.186.094-.18.167-.174.147.012.191-.079.326-.349l.09-.18c-.114.085-.115.085-.138-.01-.044-.19-.04-.189.207-.265l.179-.08-.086-.099c.219.109.303-.072.203-.265l-.143-.103.327-.257c.273-.168.269-.169.301-.353.003-.261.223-.732.418-1.053-.019-.523-.484-1.317-.918-1.553-.929-.505-2.045-.854-3.101-.905-4.307-.207-8.633-.125-12.927-.458-2.272-.177-4.277.65-6.405.971-1.911.288-3.26 1.747-4.051 3.362-1.611 3.29-1.461 6.648.46 9.84.758 1.26 1.996 1.358 3.307 1.338.207-.003.568.481.588.759.018.247-.283.666-.537.763-5.025 1.919-6.9 1.421-9.397-3.155-2.854-5.229-3.748-11.075-2.776-16.805.757-4.465 4.041-7.726 8.608-8.94 4.191-1.114 8.447-1.986 12.881-1.641 2.428.189 4.643.79 6.701 1.994 2.348 1.374 4.648 2.831 6.955 4.273 3.733 2.332 6.139 5.626 6.864 9.989.562 3.394.921 6.818 1.371 10.227M392.32 82.001l.006.006.004-.015zM218.646 201.112c1.099-.808 1.518-.232 2.025.609 1.613 2.674 1.621 2.664 4.279 1.443.482-.221.984-.401 1.482-.585 2.561-.945 2.556-1.371 1.819-3.819-.731-2.427-2.869-3.145-4.51-4.401-3.148-2.41-3.735-2.504-6.029.617-.956 1.3-2.075 2.48-3.034 3.779-.41.556-.884 1.309-.814 1.913.085.732.715 1.401 1.238 2.326 1.391-.722 2.568-1.165 3.544-1.882m80.955-14.539c-1.51-.713-2.871-.517-3.732.981-1.703 2.96-3.273 6.001-4.756 9.077-.227.472.112 1.508.539 1.918.395.379 1.283.419 1.912.325.47-.07.862-.605 1.308-.906 1.478-.996 1.481-.991 2.593.603 1.553 2.226 2.772 2.389 4.835.73 1.242-.999 2.562-1.9 3.814-2.887.416-.328.729-.785 1.069-1.161-.08-.4-.083-.78-.23-1.093-1.584-3.365-3.944-5.979-7.352-7.587m-72.21 70.545c-1.425-1.054-4.09-.328-4.613-2.229-.438-1.594.381-3.532.631-5.319.05-.357.044-.723.063-1.085-.001-.181.041-.375-.008-.541-.15-.505-.335-1-.506-1.499-.559.332-1.421.536-1.626 1.018-.918 2.16-1.638 4.404-2.45 6.61-.406 1.103-1.137 1.816-2.393 1.849-1.263.033-2.555-.056-3.775.197-.556.115-1.246.866-1.367 1.436-.126.594.247 1.394.62 1.96.26.394.886.77 1.35.771 3.9.015 4.853 2.295 4.541 5.665a3.8 3.8 0 0 0 .226 1.607c.488 1.339 1.015 2.669 1.65 3.941.087.174 1.157.17 1.28-.04.44-.752.861-1.61.936-2.46.143-1.618.024-3.257.05-4.887.042-2.651.058-2.634 2.521-3.359 1.026-.302 2.07-.603 3.018-1.079.383-.192.753-.868.724-1.295-.031-.443-.47-.964-.872-1.261m-.203-26.562c-9.703-.43-8.272-1.217-16.889 5.216-3.849 2.873-6.827 6.557-8.689 10.977-2.688 6.381-4.052 13.108-4.424 20.016-.107 1.978-.029 4.012 1.746 5.826 1.888-6.557 3.495-12.867 5.539-19.032 1.901-5.734 4.854-10.916 9.509-14.993 3.05-2.671 6.37-3.951 10.419-2.827 1.573.437 3.187.726 4.772 1.122 5.464 1.362 9.384 5.017 11.958 9.624 2.45 4.385 3.993 9.323 4.007 14.549.01 3.629.151 7.258.271 10.886.036 1.079.102 2.176.349 3.218.104.437.681 1.001 1.103 1.057.419.055 1.116-.344 1.333-.741.511-.931.992-1.95 1.163-2.986 1.499-9.068 1.171-18.183-2.277-26.637-3.516-8.619-9.675-14.823-19.89-15.275m28.341-124.396c1.255-.443 2.456-1.577 3.205-2.709.45-.681-.02-1.972-.093-3.279-1.005.393-1.626.688-2.277.881-4.407 1.303-8.577 1.347-12.031-2.327-.241-.256-.643-.624-.878-.566-.44.108-1.157.502-1.149.758.027.866.122 1.841.547 2.566 2.579 4.398 7.808 6.395 12.676 4.676m-40.825 114.411c.553.251 1.537.314 1.944-.014 1.375-1.112 2.445-1.144 3.706.181.393.413 1.379.565 1.988.413 1.717-.431 3.402-1.028 5.048-1.686.415-.166.64-.808.949-1.227l-.586-1.555c-1.339-3.547-4.138-4.725-7.646-4.558-.831.04-1.864.384-2.409.961-1.343 1.422-2.523 3.016-3.636 4.632-.599.871-.232 2.457.642 2.853M189.381 71.43l.296.126.188.028-.056-.149zm93.635 59.741c.051-.008.051-.008.045-.04l-.007-.032-.044.04zm-.472-.979c.007.032.058.024.109.016l-.013-.064c-.058-.024-.109-.015-.096.048m.131-.383c-.007-.032-.013-.064-.065-.056-.103.016-.192.096-.127.152.051-.008.065.056.071.087.013.064.02.096.065.056.051-.008.038-.072-.027-.128-.02-.096-.027-.127.031-.104zm.103-1.268-.02-.096c-.065-.056-.116-.047-.096.048.013.065.071.088.116.048m-.098-.214-.005-.021.01.046zm-.061-1.539-.102.016c-.045.04-.024.136.027.127.102-.015.14-.087.075-.143m-.299-.413c.051-.008.103-.016.096-.048a.14.14 0 0 0-.154.024c.007.032.007.032.058.024m.185-.128-.007-.032-.058-.024-.045.04c.007.032.058.024.11.016m-.231-.589c.051-.008.051-.008.045-.04l-.007-.032-.044.04zm.012-.694s.044-.04.038-.072c-.065-.056-.065-.056.051-.008s.116.047.096-.048c-.007-.032.031-.104.031-.104.051-.008.051-.008.044-.04s-.058-.024-.096.048c.007.032-.045.04-.103.016-.123-.079-.219-.031-.185.128.015.065.08.12.124.08m.036-.335-.007-.032-.058-.024-.045.04c.007.033.058.024.11.016m-.099-.215c.045-.04-.013-.064-.058-.024-.103.016-.154.024-.16-.007-.014-.064-.014-.064-.058-.024.007.032-.038.072.014.064.115.048.269.023.262-.009m.035-.335c-.007-.032-.007-.032-.065-.056 0 0-.051.008-.045.04-.043.041.014.065.11.016m-.45-.126-.045.04c.007.032.058.024.058.024.051-.008.051-.008.044-.04.001 0-.006-.032-.057-.024m.516-.312c-.051.008-.096.048-.096.048.007.032.058.024.058.024s.051-.008.044-.04zm-.167-.04c-.102.016-.096.048-.038.072l.103-.016c-.007-.032-.014-.064-.065-.056m-.033-.159c-.045.04.034.159.129.111l-.02-.096c-.021-.095-.072-.087-.109-.015m-.521-.707-.044.04c.007.032.058.024.058.024.051-.008.051-.008.045-.04-.001-.001-.008-.033-.059-.024m.382-.95-.013-.064c-.058-.024-.109-.016-.096.048.006.032.058.024.109.016m-.112-.279c.051-.008.051-.008.044-.04s.031-.104.127-.152l.082-.112-.103.016c-.103.016-.147.056-.089.08.007.032.014.064-.031.104-.088.08-.081.112-.03.104m-.272-1.537.103-.016-.013-.064-.103.016zm-.359-1.195c.051-.008.051-.008.045-.04l-.007-.032-.045.04zm-.296-2.653c.007.032.058.024.058.024.051-.008.051-.008.045-.04-.007-.032-.013-.064-.065-.056 0 0-.044.04-.038.072m-.192-1.913-.007-.032s-.007-.032-.058-.024-.045.04-.045.04c.007.033.059.025.11.016m.082-.112-.051.008c.051-.008.058.024.065.056s.058.024.109.016.051-.008.031-.104l-.065-.056c.007.032-.037.072-.089.08m.453-.111-.005-.025-.005-.021zm-.616-.159c-.007-.032-.014-.064-.058-.024 0 0-.051.008-.044.04s.058.024.058.024c.058.024.051-.008.044-.04m.059-.47-.035.005zm1.517 13.434-.002-.008zM174.21 188.081l.07-.118c.052.003.07-.118.07-.118-.034-.124-.104-.005-.14.236m-.272 2.178c.018-.121.018-.121-.016-.244-.086-.126-.209-.01-.122.116.034.123.086.126.138.128m-.126.846c-.018.121-.036.242.016.244s.07-.118.07-.118c.018-.121.018-.121.07-.118.104.005.14-.237.054-.363s-.174.113-.21.355m-.414 2.78c-.036.242-.036.242.052.002.07-.118.14-.237.088-.239-.034-.123-.104-.005-.14.237m-.277 2.649c-.156.019-.156.019-.101.135.057.238.057.238.158.103s.098-.257-.057-.238m-.189.881c.049-.129-.003-.122-.055-.116s-.052.006-.049.129l.005.244zm.109.231c-.104.013-.104.013-.101.135 0 0 .055.116.107.109l.049-.129c-.003-.121-.003-.121-.055-.115m.022.978c.005.244.005.244.055.116l-.005-.244c-.053.005-.053.005-.05.128m-.191.758c-.003-.122-.055-.116-.055-.116-.052.006-.052.006-.049.129 0 0 .003.122.055.116zm.204 2.18.003.122.049-.128-.003-.122c-.051.006-.051.006-.049.128m-.106-.11c.044-.373-.112-.354-.259.032-.049.129-.049.129.057.238.207-.025.207-.025.202-.27m-.142.63c-.052.006-.153.141-.153.141.003.122.106.109.262.09s.208-.026.205-.148c.046-.25-.112-.353-.314-.083m.207 2.302.156-.019c-.006-.244-.11-.232-.156.019m-1.087 4.911.003.122c.057.238.161.225.158.103-.005-.244-.112-.353-.161-.225m1.173 3.653.003.122.049-.129-.003-.122c-.051.006-.051.006-.049.129m-.655 3.265c-.153.141-.15.263.063.482a.28.28 0 0 0 .262.09c-.052.006-.055-.116-.057-.238-.009-.366-.115-.475-.268-.334m-.123 1.485.003.122c.057.238.109.231.052-.006-.003-.122-.055-.116-.055-.116m1.517 15.096.068.235c.083.098.16-.196.126-.313-.034-.118-.179-.059-.194.078m.663 2.092c-.048.02-.048.02-.014.137 0 0 .034.117.083.098l.014-.137c-.034-.117-.083-.098-.083-.098m1.816 4.38c.034.117.068.235.117.215l.014-.137-.083-.098zm-.363.802.034.117.014-.137-.034-.117c-.048.019-.048.019-.014.137m1.777 7.41c-.048.02-.048.02-.014.137l.034.117c.048-.02.063-.156.063-.156-.034-.117-.034-.117-.083-.098m.313 1.447s-.048.02-.014.137l.034.117c.048-.02.063-.156.063-.156-.035-.117-.083-.098-.083-.098m.882 2.66c-.034-.117-.068-.235-.02-.254s.014-.137-.02-.254c-.117-.215-.117-.215-.165-.195s-.048.02-.083-.098c-.034-.117-.083-.098-.083-.098-.063.156.19.841.273.939s.18.057.098-.04m-.043.41c-.068-.235-.117-.215-.194.078-.063.156-.063.156.068.235l.194-.078.048-.02c-.048.02-.082-.097-.116-.215m.185.45.068.235.034.117c.014-.137.014-.137.097-.039l.097-.039c-.068-.235-.282-.411-.296-.274m-.417.43s-.048.02-.014.137l.034.117c.048-.02.063-.156.063-.156-.034-.117-.083-.098-.083-.098m1.045 1.545c-.048.02-.083-.098-.117-.215 0 0-.131-.078-.18-.059-.097.039-.097.039.034.117.048-.02.131.078.165.195s.068.235.117.215c.048-.02.063-.156.063-.156-.033-.117-.082-.097-.082-.097m1.362 5.612c-.063.156-.18-.059-.199-.313l.097-.039c.034.117.117.215.165.196.048-.02.014-.137-.068-.235-.131-.078-.165-.196-.054-.371.063-.156-.02-.254-.165-.196-.097.039-.145.059-.063.156a.9.9 0 0 1 .054.371c-.029.274.04.508.122.606.117.215.262.156.194-.078-.034-.117-.083-.097-.083-.097m.011.782c-.048.02-.048.02-.014.137 0 0 .034.117.083.098l.014-.137c-.034-.118-.083-.098-.083-.098m.214.176c.083.098.083.098.097-.039.048-.02.063-.156.063-.156l-.097.039c-.146.058-.146.058-.063.156m.327 1.31.034.117.083.098.014-.137c-.034-.117-.083-.098-.131-.078m.916 2.776-.048.02c-.048.02-.048.02-.014.137s.068.235.117.215l-.034-.117c-.035-.118-.07-.235-.021-.255m0 0c.02-.008.029-.011 0 0m.313 1.447c-.02-.254-.117-.215-.097.039-.063.156.005.391.02.254l.097-.039c.034.117.117.215.165.196l-.068-.235c-.083-.097-.117-.215-.117-.215m.027 1.956c-.048.02-.097.039-.063.156 0 0 .034.117.083.098.048-.02.063-.156.063-.156-.035-.118-.083-.098-.083-.098m-.576.625c.034.117.034.117.117.215s.145-.059.029-.274zm1.086-.176-.083-.098c.063-.156-.219-.567-.282-.411s.205.704.302.665c.048-.02.097-.039.131.078 0 0 .034.117.083.098.048-.019-.054-.371-.151-.332m.81 3.344c.034.117.102.352.219.567.185.45.199.313-.02-.254-.185-.45-.185-.45-.199-.313m.053 2.601c-.048.02-.014.137-.014.137.034.117.034.117.083.098.048-.02.048-.02.014-.137-.001-.001-.035-.118-.083-.098m.273.938c-.048.02-.048.02-.014.137l.048-.02s.048-.02.083.098l.034.117c.014-.136-.103-.351-.151-.332m-.417.43c-.048.02-.097.039-.063.156 0 0 .083.098.18.059.048-.02.063-.156.063-.156-.034-.117-.131-.078-.18-.059m.587.157c-.048.02-.014.137.02.254s.097-.039.063-.156c.014-.137-.034-.118-.083-.098m-1.25-5.788c-.034-.117 0 0 0 0m.487 4.654.001-.019a.1.1 0 0 1-.05.038c-.048.02.001 0 .049-.019m-9.963-85.977c.052.003.018-.12 0 0m58.727-119.534c.047.022.047.022.099-.064l.052-.087-.099.065zm.899-2.933c-.022.089.029.099.08.11l.045-.179c-.029-.099-.08-.108-.125.069m.191-.337c.051.009.096-.172.087-.358.069-.27.076-.355.115-.262l.052.006c.012-.087.023-.173-.028-.179-.104-.011-.222.145-.22.331.052.007.009.185-.012.274-.045.179-.067.268.006.188m.786-4.001c-.005.166.045.247.099.161l.007-.249c-.058-.153-.104-.156-.106.088m.045-.4-.002-.052.003.115c.001-.012 0-.03-.001-.063m-.002-.053-.001-.026zm-.03-3.271c.103-.013.14-.166.074-.305l-.103.013c-.044.08-.023.299.029.292m-.235-1.298c.052-.007.103-.014.096-.087q-.088-.098-.155.022c.008.072.008.072.059.065m.184-.247-.007-.073-.059-.066-.044.08c.007.073.059.066.11.059m-.344-1.808-.019-.096-.032.111.018.095c.051-.015.051-.015.033-.11m-.667-2.113c.067.179.18.338.194.225 0 0 .014-.114-.02-.205-.114-.158-.115-.159.047-.023.161.137.162.138.059-.139-.035-.091-.056-.302-.062-.298.046-.025.046-.025.001-.111s-.09-.06-.047.135c.041.088-.007.113-.091.049-.236-.196-.241-.085-.081.367m-.096-.705-.045-.085-.09-.058v.11c.044.084.089.059.135.033m-.625-.504c.177.108.31.026.265-.058-.002-.112-.091-.167-.089-.055-.088.057-.131.085-.176.003-.09-.164-.09-.164-.089-.053.045.082.045.191.089.163m-.114-.947c-.055-.076-.055-.076-.151-.12 0 0-.041.031.013.106.014.105.106.153.138.014m-.547-.047c.041-.032.041-.032-.013-.105 0 0-.054-.073-.095-.041l.013.105c.054.073.095.041.095.041m.019-.846s.04-.034-.017-.109l-.056-.075c-.039.035-.022.143-.022.143.056.075.095.041.095.041m-.23-.047.078-.069c-.056-.075-.112-.149-.151-.114-.077.071-.022.144.073.183m-.051-.327-.17-.223c-.172-.221-.208-.183-.132-.001.018.109.28.368.302.224m-1.913-1.37c.033-.04.033-.04-.029-.103 0 0-.062-.062-.095-.021l.029.102c.062.062.095.022.095.022m-1.778-1.983c.073.046.099.002.126-.043l-.146-.093c-.099-.001-.125.044.02.136m-.75-.595c.097.183.169.228.194.183s.025-.046-.048-.091a.57.57 0 0 1-.22-.321l-.174-.23-.047.093c-.047.093.003.185.1.184a.5.5 0 0 1 .195.182m-3.369-1.754-.155-.059-.032.099.155.058zm-9.379-1.87c-.001-.052-.001-.052-.08-.054s-.158-.003-.157.049c0 0 .08.054.159.055s.078-.05.078-.05m-4.862.139c.008.051.086.041.086.041.077-.01.069-.062.061-.113l-.077.01c-.001.001-.079.011-.07.062m-.103-.143.009.051c-.009-.051.069-.062.147-.072s.069-.062.061-.113-.008-.051-.242-.02l-.147.072c.077-.011.163.03.172.082m-.314-.431c-.06.008-.028.004.026-.003zm.141-.018-.114.015.052-.007zm-.486.746c.077-.01.068-.062.068-.062.068-.062-.009-.051-.087-.041-.077.01-.154.021-.068.062 0 .001.01.052.087.041m-1.11-.002-.01-.047zm-.011-.051-.011-.051.012.054zm.153.342.011.051c.011.051.098.092.174.081.153-.021-.053-.255-.207-.234-.077.011-.152.03-.13.13.023.103.098.083.152-.028m26.187 15.495-.002-.019zm-24.172-16.133-.026.003zm-.026.004q-.013.002 0 0m-2.675.402.076-.016c-.012-.051-.012-.051-.088-.035l-.076.016zm-.094-.404-.077.016-.065.066.089.035c.076-.016.065-.067.053-.117m-.086.654c.012.051.088.035.163.019s.064-.066.064-.066l-.076.016zm.045-.487c-.077.016-.077.016-.065.066s.012.051.088.035c0 0 .076-.016.065-.066-.012-.051-.088-.035-.088-.035m-.423.566c.076-.016.063-.066.051-.117-.012-.05-.012-.05-.088-.035 0 0-.076.016-.063.066s.1.086.1.086m-.416-.072c.102.085.164.019.126-.133-.013-.05-.013-.05-.165-.018-.153.032-.153.032.039.151m-.358-.137c-.062.066.089.034.215-.098.203-.149.19-.199.037-.167-.077.016-.153.032-.14.083.013.05.013.05-.076.016-.027-.101-.104-.084-.076.016-.076.016-.063.066.014.05zm-.247-.019.005.017zm0 0-.02-.073.011.04zm-.385.897c.075-.016.06-.066.06-.066s-.014-.05-.089-.034l-.075.016c.015.05.104.084.104.084M50.102 59.027l-.044-.245c-.088-.139-.133-.132-.086.107.029.163.094.232.13.138m-.153-.479-.027-.112.012.051zm-.033-.138.006.026zm-.686-3.171c.098-.034.104-.191.011-.314l-.098.034c-.027.087.038.297.087.28m-.492-1.224c.049-.017.098-.035.076-.105q-.106-.078-.147.052c.022.071.022.071.071.053m.13-.279-.022-.07-.071-.052-.027.087c.022.07.071.052.12.035m-.703-1.701-.037-.09-.009.115.037.09c.046-.025.046-.025.009-.115m-.845-1.753s-.01-.114-.061-.197c-.144-.132-.144-.132.041-.032.186.102.187.102.03-.148-.053-.083-.115-.284-.121-.279.04-.033.04-.033-.021-.109-.062-.075-.1-.041-.018.142.058.078.016.112-.08.066-.271-.145-.253-.036-.005.375.101.163.244.296.235.182m-.473-.852-.061-.074-.099-.039.022.108c.06.073.099.039.138.005m-.713-.367c.195.07.309-.037.247-.11-.024-.109-.123-.145-.099-.036-.074.073-.112.11-.172.038-.121-.142-.121-.142-.097-.034.061.071.084.178.121.142m-.304-.905c-.069-.063-.069-.063-.172-.086 0 0-.034.039.034.101.036.1.136.128.138-.015m-.545.066c.034-.039.034-.039-.034-.1 0 0-.068-.061-.101-.021l.034.1c.067.06.101.021.101.021m-.152-.834s.032-.041-.039-.104l-.07-.062c-.031.042.007.145.007.145.07.063.102.021.102.021m-.172-.082c-.07-.062-.14-.123-.171-.081-.062.084.007.145.108.164zm-.18-.226-.212-.184c-.213-.182-.241-.137-.13.025.041.103.351.304.342.159m-2.149-.956c.024-.046.024-.046-.049-.095 0 0-.074-.048-.097-.002l.049.094c.072.05.097.003.097.003m-2.143-1.582c.08.03.098-.018.115-.067l-.162-.061c-.097.018-.114.068.047.128m-1.083-.57c.081.03.162.06.228.139.132.16.212.189.227.14.015-.05.015-.05-.065-.08a.57.57 0 0 1-.281-.27l-.217-.19-.027.101c-.027.101.04.181.135.16m-3.426-.897-.164-.026-.011.104.163.026zm-3.102-.111c0-.052 0-.052-.081-.057l-.081-.005.081.057zm-11.325 1.178.019.048c-.019-.048.055-.074.129-.1s.055-.074.037-.123-.019-.049-.241.029l-.129.1c.073-.025.166-.002.185.046m-.319-.384-.05.017.109-.038zm-1.353 1.031-.035-.078.014.031zm-.043-.095.007.016zm29.021 10.227-.006-.019zM19.36 44.96l.071-.031c-.022-.047-.022-.047-.093-.016l-.071.031zm-.175-.377-.072.031-.05.078.094.016c.072-.031.05-.078.028-.125m.049.658c.022.047.093.016.164-.014.071-.031.049-.078.049-.078l-.071.031zm-.105-.408c.022.047.022.047.094.016 0 0 .072-.031.05-.078s-.094-.016-.094-.016c-.072.031-.072.031-.05.078m-.223.437c-.022-.047-.022-.047-.094-.016 0 0-.071.031-.048.078s.116.063.116.063c.071-.031.049-.078.026-.125m-.449.139c.117.062.165-.015.096-.155-.023-.047-.023-.047-.165.015s-.142.062.069.14m-.377-.063c-.048.078.094.016.191-.14.168-.187.146-.234.002-.171-.072.031-.144.063-.12.109.023.047.023.047-.072.031-.047-.093-.119-.062-.072.031-.072.031-.048.078.023.047zm-.246.032.008.016zm0 0-.035-.068.019.037zm387.728 175.727c.092-.049.059-.115-.065-.132l-.092.049.032.066c.033.066.079.042.125.017m-6.634-16.815-.032-.066-.014.091.032.066c.047-.025.047-.025.014-.091m-1.151-1.889-.064-.132c-.078-.042-.124-.017-.06.115.032.066.078.042.124.017m-.295-.843c-.032-.066-.064-.132-.11-.108-.092.049-.119.23-.009.338.046-.024.11.108.143.174.064.132.097.199.11.108.046-.025-.019-.157-.129-.265-.097-.199-.129-.265-.051-.223zm-.905-2.687-.097-.199c-.11-.108-.156-.083-.059.115.064.133.142.174.156.084m-.272-.439-.021-.044.047.096zm-.032-.067.011.022zm-1.255-3.167-.092.049c-.014.091.083.289.129.265.092-.05.073-.207-.037-.314m-.635-.829c.046-.024.092-.049.059-.115q-.117-.062-.138.073c.033.066.033.066.079.042m.087-.297-.032-.066-.078-.042-.014.091c.032.066.078.042.124.017m-.692-1.299-.032-.066-.014.091.032.066c.047-.025.047-.025.014-.091m-.504-1.984c-.032-.066-.078-.042-.059.115.032.066-.014.091-.092.049-.188-.15-.248-.034-.087.297.064.132.175.24.188.15 0 0 .014-.091-.019-.157-.11-.108-.11-.108.046-.025s.156.083.059-.115a1 1 0 0 1-.051-.223c.048-.025.048-.025.015-.091m-.39-.209-.014.091c.032.066.078.042.124.017l-.032-.066zm-.488-.407c.032.066.019.157.065.132.156.083.294.01.261-.056.014-.091-.064-.132-.078-.042-.092.049-.137.074-.17.007-.064-.131-.064-.131-.078-.041m-.015-.743s-.046.025-.014.091c-.014.091.064.132.124.017-.032-.066-.032-.066-.11-.108m-.45-.093-.014.091c.032.066.078.042.078.042.046-.025.046-.025.014-.091 0 0-.032-.066-.078-.042m.297-.576s.046-.024.014-.091l-.032-.066c-.046.024-.059.115-.059.115.031.067.077.042.077.042m-.22-.216c-.092.049-.059.115.019.157l.092-.049c-.033-.066-.066-.132-.111-.108m-.162-.331c-.014.091.161.331.221.216l-.097-.199c-.097-.198-.143-.174-.124-.017m-1.462-3.474-.065-.132c-.078-.042-.124-.017-.059.115.033.066.078.041.124.017m-.319-1.248-.092.049c-.092.049-.105.14-.027.181.032.066.065.132.051.223-.027.181.005.248.051.223s.046-.025.014-.091a.43.43 0 0 1 .009-.338zm-1.492-2.707-.092.049.065.132.092-.049zm-1.345-2.286c.046-.025.046-.025.014-.091l-.032-.066-.014.091zm-2.338-5.509c.046-.025.046-.025.014-.091s-.065-.132-.11-.108c0 0-.014.091.019.157.031.066.077.042.077.042m-1.909-4.154c-.046.024-.014.091-.014.091.032.066.078.042.124.017l-.032-.066s-.032-.066-.078-.042m.06-.115c.046-.025.078.042.11.108s.078.042.124.017.046-.025-.051-.223l-.11-.108c.032.066.019.157-.027.181zm.372-.422-.011-.022zm.022.044-.021-.044.047.096zm-.744-.103c.078.042.046-.025.014-.091s-.065-.132-.078-.042c0 0-.046.025-.014.091.032.067.078.042.078.042m-.358-1.06.028-.015-.016.009zm.057-.031-.03.016zm-.057.031-.034.018zm-.342.099c-.092.049-.059.115.065.132l-.046.025c-.046.024-.06.115-.027.181.065.132.229-.123.165-.255-.033-.066-.065-.132-.157-.083m.173-.593-.032-.066-.014.091.032.066c.047-.025.047-.025.014-.091m.322-.172-.032-.066-.078-.042-.014.091c.032.066.078.042.124.017m-.551.294-.032-.066-.065-.132c-.046.024-.014.091.019.157.032.066.078.041.078.041m.303-.328c-.046.025-.046.025-.014.091 0 0 .032.066.078.042s.014-.091.014-.091c-.032-.067-.032-.067-.078-.042m-.437-.184c.046-.025.046-.025.014-.091 0 0-.032-.066-.078-.042-.046.025-.059.115-.059.115.031.067.077.042.123.018m-.01-.495c-.065-.132-.065-.132-.138.073-.06.115.019.157.156.083.047-.024.047-.024-.018-.156m.059-.116c.188.15.234.125.17-.007-.032-.066-.065-.132-.11-.108-.046.024-.046.024-.032-.066.092-.049.059-.115-.032-.066-.032-.066-.078-.042-.046.025l-.092.049c-.078-.043-.014.09.142.173m-.193-.397.015-.008zm.015-.008.067-.036-.036.019zm52.682-97.531c-.068-.053-.068-.053-.122.016l-.054.069.122-.016zm-1.516 2.264-.115.133c.008.123.073.18.188.047.058-.067-.008-.124-.073-.18m-.286.331c-.065-.057-.179.075-.229.266-.172.199-.229.266-.236.142l-.064-.058c-.057.066-.114.133-.05.191.128.116.372.097.423-.093-.065-.057.05-.19.107-.257.114-.134.171-.2.049-.191m-3.231 2.312-.188.174c-.065.178-.005.241.183.066.126-.116.128-.235.005-.24m-.379.469-.042.039zm-.063.058c-.048.045-.022.021.021-.019zm-2.86 2.17c-.109-.135-.292-.094-.369.082l.107.136c.12.013.317-.151.262-.218m-1.1 1.076c-.052-.069-.104-.139-.172-.089q-.024.18.155.208c.069-.05.069-.05.017-.119m-.411-.128-.068.05-.017.12.119.02c.069-.051.018-.12-.034-.19m-1.202 1.081c-.049-.072-.049-.072-.119-.026l-.071.046.119.026zm-2.015.588c-.072.041-.26.049-.26.049-.044-.074-.044-.074-.116-.033s-.028.116.16.108c.072-.041.117.033.089.149-.129.273.031.381.397.173.146-.085.238-.257.123-.283 0 0-.115-.027-.186.019-.1.157-.1.157-.045-.074.049-.242.052-.234-.162-.108m-.489.48-.029.117.116.033c.073-.042.029-.116-.015-.191zm-.392.325c-.115-.034-.145.084-.03.117.085.151.127.226.054.268-.147.084-.147.085-.031.118.073-.042.189-.009.147-.085.061-.234-.068-.459-.14-.418m-.799.462c.114.034.145-.084-.009-.194-.072.042-.072.043-.106.156 0 0 .041.077.115.038m-.134.648.116.039c.076-.038.036-.115.036-.115-.041-.077-.041-.077-.116-.039 0 .001-.076.039-.036.115m-.77-.583s-.039-.077-.113-.04l-.074.037c.039.078.152.118.152.118.074-.037.035-.115.035-.115m-.22.305c.077.155.152.117.188.003l-.077-.155c-.075.037-.149.074-.111.152m-.151-.118-.222.112c-.222.112-.186.191.001.193.112.041.373-.188.221-.305m-1.657 1.622c-.034-.08-.034-.08-.111-.046 0 0-.078.034-.044.114l.111.046c.078-.034.044-.114.044-.114m-2.606-.002-.156.058c-.05.111-.023.193.134.134.078-.029.05-.111.022-.192m-1.21.303c.079-.025.158-.049.263.009.211.116.291.091.264.009s-.027-.082-.106-.058-.264-.009-.394-.149l-.286-.092.05.166c.051.164.156.222.209.115m-3.36.97-.035-.17-.163.033.034.17zm-3.125.707c-.011-.086-.01-.086-.095-.077l-.084.009.094.077zm-7.126-.282s.08.091.165.096.089-.081.089-.081c.004-.086.004-.087-.08-.091s-.169-.011-.174.076m-4.948-.752c-.016.085.067.101.067.101.084.014.099-.072.115-.157l-.083-.013c0-.001-.083-.017-.099.069m.244-.396c.016-.086.014-.081-.23-.131l-.18.053c.082.016.147.117.131.203l-.016.085c.016-.085.098-.069.18-.053.084.013.1-.072.115-.157m-.375-.689.027.005c-.055-.011-.089-.018-.027-.005m.081.015-.053-.01.117.023zm-.86.89s-.018.085.065.101.1-.068.1-.068c.1-.069.017-.085-.065-.101-.082-.017-.165-.033-.1.068m-1.025-.406.041-.168-.021.084zm2.314.387s-.083-.014 0 0m40.298-14.068.008-.012c-.039-.014-.045-.016-.008.012m-43.074 13.477c.022-.084.022-.084-.058-.105l-.08-.021.058.105zm.097-.69-.078-.02-.101.063.056.104c.079.02.101-.063.123-.147m-.089.335c.022-.084-.057-.104-.057-.104-.079-.021-.079-.021-.101.063s-.022.084.057.104c0 0 .079.02.101-.063"/></svg>