<svg xmlns="http://www.w3.org/2000/svg" viewBox="0 0 475.105 518.467"><g data-name="Layer 2"><path d="M119.46 463.222c.214 10.883.386 21.766.662 32.647.119 4.7.44 9.4.7 14.1a10.43 10.43 0 0 1-.767 5.329c-1.346 2.744-4.137 3.148-6.124.807a8.32 8.32 0 0 1-1.827-5.554c-.129-11.6-.415-23.2-.44-34.808-.021-9.6-1.128-19.2-1.5-28.806-.259-6.706-.073-13.43-.124-20.145-.005-.6.387-1.605-.735-1.616-.343 0-.827.631-1.017 1.073-5.061 11.7-12.586 22.063-18.147 33.488-3.654 7.5-7.209 15.058-10.81 22.588-2.658 5.559-5.362 11.1-7.962 16.681-1.762 3.785-3.355 7.647-5.072 11.453-.82 1.818-1.613 3.71-3.767 4.4-1.939.623-3.977 1.192-5.7-.288-1.867-1.6-2.06-3.836-1.256-6.011 1.256-3.4 2.586-6.777 4.122-10.053 5.7-12.139 11.265-24.346 17.333-36.3a197 197 0 0 1 11.209-19.876c5.917-8.922 11.069-18.3 16.181-27.693 1.3-2.386 1.086-2.83-1.54-2.886-5.083-.108-10.175-.245-15.253-.072a42.9 42.9 0 0 1-11.332-1.027c-3.81-.89-5.357-2.291-5.672-6.027a13.9 13.9 0 0 1 .107-3.805c1.418-7.153 1.274-14.432 1.846-21.651.043-.544.079-1.089.153-1.629.591-4.34 1.831-5.74 6.173-6.181 4.874-.5 9.776-.718 14.667-1.033 4.668-.3 4.669-.287 5.451-4.658 1.21-6.764 1.216-6.68-5.838-6.206-6.135.413-12.294.475-18.424.928-6.809.5-13.31-1.587-20-2.1-3.287-.25-5.1-2.923-4.883-6.752.269-4.707.851-9.4 1.471-14.08.716-5.4.8-5.39-4.463-3.958-7.841 2.134-9.185 1.092-10.333-6.752-.852-5.827.324-11.569.049-17.363s-.035-11.621-.154-17.43c-.1-4.611 1.572-6.348 6.143-5.757 2.5.323 5.045.778 6.948 2.763.606.632 1.318 1.547 2.255.993.458-.27.627-1.273.672-1.962.338-5.06.677-10.122.884-15.188.168-4.125.007-4.311-4.029-4.713a140 140 0 0 1-17.656-2.975A33.03 33.03 0 0 1 10.664 250.8c-3.854-5.883-7.578-11.957-9.454-18.9-1.153-4.267-1.77-8.541-.522-12.9 1.44-5.026 1.567-10.294 3.851-15.234a55.4 55.4 0 0 1 7.765-11.63c3.426-4.212 7.42-7.968 11.232-11.86a26.75 26.75 0 0 1 10.276-6.936c10.435-3.655 20.789-7.489 32-8.212a59.6 59.6 0 0 1 23.516 3.572c8.542 2.966 14.883 8.858 19.426 16.672 1.268 2.183 2.55 4.358 3.825 6.536 1.912-1.708 3.189-3.913 4.667-5.962 5.8-8.036 12.579-15.038 21.369-19.821a36.6 36.6 0 0 1 18.71-4.6 114.3 114.3 0 0 1 31.082 4.792c12.345 3.742 22.188 10.89 27.9 22.662 3.006 6.2 4.269 13.058 4.923 19.956a1.8 1.8 0 0 1-.029.543c-2.016 9.615-4.068 19.1-11.86 26.232-7.076 6.475-13.517 13.624-21.779 18.758-2.232 1.387-5.615 1.548-6.543 4.357-.775 2.345-.533 5.025-.755 7.556-.063.723-.235 1.442-.247 2.165-.031 1.783-.98 4.447.265 5.129 1.553.851 2.865-1.643 4.286-2.664 5.875-4.223 11.081-9.381 17.653-12.633.323-.159.588-.557.905-.586 6.137-.58 7.536-5.9 10.019-10.07 3.986-6.7 7.768-13.513 11.788-20.188q8.408-13.959 17.054-27.775c4.708-7.527 9.536-14.98 14.384-22.418 3.76-5.769 7.455-11.593 11.491-17.167 7.553-10.433 13.623-21.849 21.446-32.1a42.5 42.5 0 0 0 2.8-4.656c4.526-7.856 10.12-15.01 15.141-22.531 5.918-8.865 11.842-17.773 18.245-26.342 6.055-8.1 11.309-16.8 17.088-25.117 7.356-10.577 14.726-21.161 22.418-31.505 3.565-4.8 7.524-9.316 11.074-14.146a13.5 13.5 0 0 1 2.7-2.679A4.81 4.81 0 0 1 384.4.747c2.039 1.238 2.039 3.393 1.273 5.349a54.8 54.8 0 0 1-5.852 11.055c-8.1 11.8-16.3 23.527-24.412 35.312-7.8 11.332-15.533 22.714-23.33 34.05-6.467 9.4-12.853 18.865-19.51 28.13-8.257 11.491-15.727 23.522-24.007 34.98-7.552 10.453-14.267 21.447-21.471 32.119-3.847 5.7-7.44 11.6-11.283 17.326-7.175 10.685-14.229 21.456-21.449 32.1-5.489 8.1-10.925 16.251-16.693 24.16a8.2 8.2 0 0 0-1.487 7.078 55.8 55.8 0 0 1 .827 15.7c-.963 11.123.366 22.124 1.249 33.159.289 3.614.621 7.243.581 10.861a13.84 13.84 0 0 0 2.893 8.5c8.544 12.165 16.415 24.814 24.969 36.943 10.58 15 18.448 31.654 29.364 46.389 3.883 5.242 7.9 10.388 11.893 15.545 6.781 8.75 12.779 18.06 19.3 26.989 6.1 8.35 12.344 16.612 18.851 24.648 5.7 7.043 11.038 14.416 17.647 20.711a10.46 10.46 0 0 1 3.265 7.3c.086 2.119-.812 3.043-2.89 2.7a11.08 11.08 0 0 1-6.051-3.377c-5.174-5.1-9.9-10.586-14.554-16.142-9.192-10.987-18.5-21.892-27.343-33.154-11.754-14.963-23.332-30.052-34.177-45.73-10.861-15.7-20.388-32.2-30.641-48.253-5.179-8.111-9.878-16.5-14.737-24.79-.878-1.5-1.619-2.389-3.772-2.114-3.939.5-7.494-1.506-10.719-3.357-5.592-3.211-11.951-4.213-17.7-6.892-1.779-.829-2.522-.04-2.367 2.148.23 3.242.653 6.477.719 9.72.188 9.211-1.949 11.854-10.954 12.706-5.974.565-11.87 1.576-17.8 2.358-5.567.734-11.112 1.632-16.68 2.354-2.539.329-3.829 1.49-4.046 4.153a51 51 0 0 1-1.328 7.5c-.469 1.99.456 2.737 2.168 2.82 5.8.281 11.6.494 17.406.723.907.036 1.817.018 2.725.028 10.145.119 11.662 1.583 12.251 11.524.526 8.887-.529 17.739-.493 26.616.009 2.232-1.559 3.6-3.859 3.774a27 27 0 0 1-4.891-.058c-9.936-1.075-19.923-1.273-29.89-1.808-.905-.049-1.817 0-2.724.02-1.944.049-2.15.925-1.143 2.4 4.413 6.469 7.792 13.516 11.533 20.369 6.005 11 10.833 22.554 16.454 33.726 7.018 13.948 11.4 29.037 18.791 42.808a6.64 6.64 0 0 1 .829 3.113 3.04 3.04 0 0 1-1.766 3.1 2.86 2.86 0 0 1-3.821-1.1 40 40 0 0 1-3.621-6.058c-3.473-7.795-7.683-15.207-11.589-22.776-6.913-13.4-12.459-27.422-18.778-41.091-3.425-7.412-6.907-14.8-10.367-22.192-.282-.6-.395-1.544-1.351-1.184-.253.094-.284.977-.29 1.5q-.133 12.242-.225 24.482c-.03 4.5 0 9.007 0 13.51Zm53.8-172.3c0-6.352-.036-12.706.021-19.058.019-2.195-.664-3.539-3.1-3.319-7.054.639-14.051-.773-21.063-.659-10.324.167-20.6-.66-30.91-.748s-20.61-.061-30.786 1.662a100.5 100.5 0 0 1-20.006 1.076c-3.045-.094-3.192.01-3.226 3.406-.068 6.712.079 13.431-.178 20.135-.637 16.68.583 33.388-.823 50.053-.045.54.01 1.088.005 1.632-.016 1.619.9 2.241 2.392 2.247.908 0 1.815-.008 2.722-.013a244 244 0 0 0 25.5-1.16c10.072-1.112 20.232-.278 30.356-.8 9.074-.468 18.008-1.855 26.992-2.92 5.381-.638 10.625-2.3 16.066-2.524 4.3-.179 4.322-.052 4.686-4.477.119-1.445.135-2.9.166-4.352.126-5.971-.165-11.986.461-17.905.788-7.434.351-14.865.723-22.28ZM55.123 257.9c4.626.832 8.873-.468 13.114-1.307 12.142-2.4 21.708-9.435 28.988-18.875 8.346-10.823 10.778-23.7 8.051-37.136-2.134-10.518-7.891-18.762-18.016-23.062a49.2 49.2 0 0 0-27.2-3.22c-9.79 1.515-18.168 5.885-25.707 12.134-10.3 8.534-18.642 18.111-19.813 32.369-1.467 17.86 6.674 29.5 22.216 35.746 5.896 2.367 12.088 3.833 18.367 3.351m102.748-8.986c2.821-.283 7.067-.232 11.055-1.219 6.122-1.516 12.215-3.374 17.647-6.8 6.9-4.348 13.98-8.507 17.544-16.433a53.4 53.4 0 0 0 3.907-12.941c.364-2.124 1.007-4.237.565-6.46-2.259-11.374-7.754-20.581-17.711-26.9a57.9 57.9 0 0 0-26.132-8.417c-12.18-1.115-23.325 1.55-32.546 10.43a48.8 48.8 0 0 0-7.746 9.737c-5.72 9.347-10.553 19-8.072 30.675 2.379 11.195 6.408 20.816 19.017 23.681a10.4 10.4 0 0 1 1.532.561c6.295 2.537 12.899 3.543 20.94 4.084Zm-27.423 157.12c5.069 0 10.143-.143 15.2.047 3.667.138 6.09-1.515 8.288-4.221 3.682-4.534 4.379-9.794 4.265-15.325-.025-1.2-.448-2.242-1.833-2.178-5.479.252-10.735-1.433-16.172-1.717-11.918-.62-23.81-1.743-35.728-2.389-7.051-.382-14.13-.229-21.2-.352-1.711-.029-2.839.408-2.6 2.427.646 5.42-.085 10.833-.09 16.25-.006 5.514.035 5.636 5.329 5.553 14.874-.229 29.693.957 44.541 1.903ZM180.75 295.4l-.1.01c.346 4.706 1.008 9.418.936 14.118-.054 3.451 1.376 5.139 4.239 6.633 6.92 3.612 14.564 5.529 21.375 9.387 1.467.831 1.773-.474 1.651-1.707-.664-6.68-1.533-13.348-1.948-20.043-.629-10.143-.942-20.306-1.387-30.46-.032-.725.013-1.459-.077-2.176-.2-1.6-.674-2.321-2.4-1.126-4.927 3.4-9.928 6.7-14.944 9.972-7.583 4.946-7.6 4.921-7.338 14.3.002.369-.007.733-.007 1.092m-70.066-40.81c2.689 0 5.039.01 7.388 0 .891-.006 1.951.087 2.251-1 .206-.743-.522-1.246-1.023-1.757a34.4 34.4 0 0 1-5.847-7.761 36.7 36.7 0 0 0-3.571-4.776c-.777-1-1.563-.768-2.108.184a52.3 52.3 0 0 1-12.681 14.7 1.24 1.24 0 0 0-.433.884c.048.748.733.7 1.209.662 5.051-.364 10.099-.769 14.815-1.136m-65.273 55.5h.15c.138 3.081.206 6.168.444 9.242.106 1.365-.473 3.241 1.14 3.9 1.646.673 3.059-.675 4.431-1.5 1.674-1.012 1.548-2.709 1.582-4.352.081-3.994-1.531-7.857-.916-11.887.508-3.331-1.453-4.94-4.139-6.132-2.133-.946-2.605-.779-2.67 1.475-.088 3.077-.022 6.164-.022 9.25Zm71.6 48.964v.148c-.719 0-1.439-.026-2.156 0-4.172.179-4.173.184-4.7 4.115-.048.358-.094.717-.115 1.077-.382 6.665-1.511 6.014 5.53 6.567 6.648.521 6.659.379 7.5-6.369.693-5.573.694-5.572-4.969-5.542q-.55.001-1.088 0Zm218.657-125.893c3.333.523 7.139.6 10.941.825 14.3.846 28.591 1.942 42.878 3.025a34.5 34.5 0 0 1 6.956 1.218 3.993 3.993 0 0 1 2.745 5.56 25.6 25.6 0 0 1-5.609 9.238 78 78 0 0 1-16.374 12.48 187 187 0 0 1-27.251 13.571c-1.013.4-2 .873-3.043 1.189-4.381 1.334-5.819.667-7.328-3.809q-4.256-12.626-8.263-25.333a58 58 0 0 0-2.932-7.59c-2.935-6.147-.026-10.301 7.28-10.374m27.16 8.67c-7.642.245-14.691.5-21.741.679-2 .051-2.313.893-1.962 2.731 1.467 7.685 4.678 14.826 6.779 22.309.458 1.628 1.349 1.963 2.75.889 4.736-3.634 9.433-7.322 14.258-10.836 6.438-4.688 12.983-9.23 19.475-13.845.559-.4 1.406-.806.823-1.65-.2-.294-.973-.266-1.484-.267-6.495-.016-12.99-.01-18.898-.01m-46.492 141.325a21 21 0 0 1-.017 2.714c-.489 3.809-3.5 5.582-7.112 4.094a23.8 23.8 0 0 1-4.245-2.406c-8.224-5.605-16.5-11.141-24.591-16.933a178 178 0 0 1-14.942-11.735c-5.856-5.221-6.723-8.949-1.943-16.147a71.96 71.96 0 0 1 28.4-24.594q1.935-.969 3.854-1.973c4.241-2.23 7.521-1.12 8.876 3.477 1.12 3.8 1.616 7.789 2.41 11.69 2.169 10.648 4.381 21.288 6.514 31.943a147 147 0 0 1 2.796 19.87m-7.169-5.8c-.065-.439-.244-1.694-.44-2.947-1.714-10.929-3.388-21.864-5.17-32.781-.64-3.923-.826-7.95-2.524-11.662-.59-1.288-.905-2.448-2.53-.935-7.918 7.372-17.361 13.09-23.745 22.14-1.848 2.62-2.058 2.5.6 4.532 6.63 5.06 13.237 10.152 19.927 15.13 3.917 2.915 7.961 5.661 11.981 8.433 1.214.84 2.034.601 1.901-1.905Zm127.355-315.63c2.723-.042 4.256 1.784 3.662 5.2a14.3 14.3 0 0 1-1.982 4.443c-3.463 6.2-7.926 11.687-12.4 17.159-4.929 6.034-9.915 12.034-13.886 18.763-2.585 4.382-6.44 7.838-8.71 12.456-1.035 2.106-3.228 2.407-5.2 1.552a13.1 13.1 0 0 1-4.433-3.054c-4.856-5.369-9.828-10.645-13.342-17.1-1.988-3.65-4.39-7.077-6.645-10.578a28.4 28.4 0 0 1-3.486-7.937c-1.229-4.486.731-8.234 5.119-9.108 10.105-2.014 20.027-4.787 30.073-7.015 7.408-1.643 14.96-2.648 22.462-3.846 2.678-.427 5.399-.585 8.768-.935m-35.582 48.7c1.142-1.256 2.472-2.494 3.538-3.928q11.839-15.921 23.57-31.921c.826-1.126 2.555-2.465 1.717-3.666-.731-1.046-2.674-.169-4.1.143-13.262 2.9-26.1 7.464-39.431 10.1-3.219.636-3.308.944-1.845 3.966 4.035 8.334 9.49 15.823 14.3 23.7a5.1 5.1 0 0 0 1.081 1.211 4.1 4.1 0 0 0 1.17.392ZM295.2 256.046c.015 6.243-2.557 11.623-5.981 16.606a174 174 0 0 1-11.838 15.589 133 133 0 0 0-10.456 13.878c-3.646 5.513-8.858 5.967-13.635 1.356a44 44 0 0 1-7.867-9.651c-2.527-4.4-5.348-8.624-7.969-12.97a33.6 33.6 0 0 1-3.916-9.528c-.925-3.843-.267-5.719 3.229-7.665a35.4 35.4 0 0 1 12.766-4.5c8.74-1.057 16.846-4.3 25.216-6.6 4.5-1.237 9.171-1.842 13.425-4.165 2.987-1.631 6.323.465 6.988 3.847a20 20 0 0 1 .038 3.803m-16.074 2.918c-.669.089-1.216.124-1.746.239-7.448 1.611-14.907 3.178-22.335 4.874A47.3 47.3 0 0 0 244 268.623c-1.8.929-2.048 2.037-1.056 3.931a107 107 0 0 0 9.355 13.983 43 43 0 0 0 5.43 5.312c1.051.983 1.779.658 2.526-.545a469 469 0 0 1 7.357-11.43c4.1-6.2 8.255-12.367 12.386-18.548.4-.606.882-1.309.522-1.975-.174-.316-.984-.287-1.393-.387Zm142.024-99.2c5.629 0 11.259-.012 16.888 0a50.7 50.7 0 0 0 11.359-.925c3.849-.862 5.336.931 4.718 4.906a11.1 11.1 0 0 1-3.1 5.645q-10.99 12.453-22.034 24.859a30.6 30.6 0 0 0-4.53 6.08c-1.988 3.795-5.683 6.027-8.818 8.725-1.515 1.3-3.012.6-3.991-1.175-2.8-5.085-5.662-10.133-8.472-15.211a199 199 0 0 1-11-23.685 14 14 0 0 1-.788-2.021c-1.015-4.536 1.157-7.564 5.819-7.755 3.619-.148 7.253.115 10.88.142 4.357.032 8.713.007 13.07.007Zm2.465 6.83v.747c-5.065 0-10.131-.074-15.194.027-3.148.063-3.387.6-1.916 3.594a195 195 0 0 0 10.729 18.213c1.456 2.3 1.536 2.339 3.55.484a24.5 24.5 0 0 0 2.984-3.148 163 163 0 0 1 14.058-15.824c.635-.646 1.276-1.286 1.9-1.942.507-.533 1.055-1.179.552-1.869-.219-.3-.991-.269-1.513-.271-5.05-.017-10.099-.005-15.149-.005ZM391.08 468.359a26.9 26.9 0 0 1-8.817-2.678q-12.361-6.279-24.6-12.8c-8.954-4.769-17.822-9.7-26.77-14.479-3.781-2.02-4.043-3.373-1.031-6.391 5.128-5.138 10.415-10.136 15.266-15.526 4.114-4.572 7.707-9.613 11.523-14.452.337-.427.583-.925.924-1.347 4.436-5.471 6.19-5.25 9.585.772 7.145 12.675 12.436 26.2 18.258 39.475 2.766 6.309 5.285 12.73 9.209 18.465a9.8 9.8 0 0 1 1.271 2.982c.945 3.561-1.154 6.12-4.818 5.979M361.718 412.1c-.857-.036-1.27.613-1.642 1.187-4.278 6.588-9.972 11.891-15.58 17.278a52 52 0 0 0-3.363 3.547c-1.742 2.026-1.695 2.344.6 3.544 4.807 2.517 9.608 5.051 14.474 7.45 8.587 4.234 17.217 8.383 25.846 12.534.727.35 1.613 1.249 2.372.219.6-.819-.007-1.722-.4-2.509-2.325-4.7-4.651-9.409-7.019-14.092q-6.849-13.553-13.754-27.078c-.392-.771-.51-1.774-1.534-2.08m48.371-115c.124-10.472-.326-19.178.279-27.864a18.7 18.7 0 0 1 1.105-5.865c1.308-3.188 3.325-4.15 6.491-2.668 8.068 3.777 16.554 6.424 24.863 9.554 8.861 3.338 18.058 5.439 27.113 8.066.522.151 1.067.222 1.6.348 1.865.442 3.618 1.153 3.566 3.427-.05 2.209-1.785 2.828-3.615 3.444a131.4 131.4 0 0 0-34.069 16.7c-3.23 2.267-6.781 4.144-10 6.512a22 22 0 0 1-4.293 2.351c-5.878 2.552-9.194 1.047-10.986-5.154-1.004-3.471-1.643-7.051-2.054-8.851m11.56-13.837h.172c0 4.348-.087 8.7.031 13.044.076 2.774.84 3.169 3.323 2.019q17.229-7.973 34.437-15.986a7.4 7.4 0 0 0 1.266-.962 7 7 0 0 0-1.286-.755q-17.814-5.815-35.639-11.6c-1.643-.535-2.336 0-2.318 1.737.044 4.171.014 8.34.014 12.506Zm-91.357-71.039a5.78 5.78 0 0 1-5.8-3.052c-6.9-11.885-15.37-22.889-20.189-35.94a25.5 25.5 0 0 1-1.605-5.167c-.519-3.724 1.29-6.077 5.09-6.076 14.342 0 27.911-3.917 41.535-7.7a94 94 0 0 1 11.725-2.343c3.85-.558 5.632 1.728 3.964 5.248a70 70 0 0 1-5.561 9.315 305 305 0 0 0-20.969 36.186c-1.207 2.426-2.774 4.672-4.123 7.031a4.67 4.67 0 0 1-4.067 2.501Zm26.328-54.079a.866.866 0 0 0-1.177-.8c-1.391.387-2.787.783-4.131 1.305a147 147 0 0 1-19.572 6.5c-4.756 1.116-9.49 2.32-14.245 3.439-3.941.928-4.05 1.044-2.421 4.526 1 2.131 2.2 4.169 3.161 6.313 2.549 5.666 6.678 10.316 9.877 15.561 2.529 4.144 2.771 4.3 5.316.353 7.655-11.858 15.109-23.845 22.626-35.791a8 8 0 0 0 .566-1.403ZM453.159 424.8a166 166 0 0 0-35.724 4.745 36.8 36.8 0 0 1-8.58 1.148c-5.64-.026-7.79-3.1-5.766-8.487a52.4 52.4 0 0 1 3.145-6.917c4.821-8.716 9.578-17.463 13.938-26.422a24.6 24.6 0 0 1 2.216-3.731c2.941-4.031 7.052-4.208 11.17-1.189 12.649 9.274 22.879 21.081 33.977 31.981a15 15 0 0 1 1.813 2.018c1.992 2.85.981 5.8-2.382 6.709a17.9 17.9 0 0 1-6.469.576c-1.082-.108-2.17-.15-3.256-.214s-2.173-.117-4.082-.217m-38.043-3.443c.389-.068 1.278-.246 2.173-.378 8.075-1.19 16.128-2.51 24.271-3.234 5.069-.45 10.134-.693 15.213-.815.709-.017 1.546.027 1.96-.648.62-1.012-.243-1.669-.82-2.311a18 18 0 0 0-1.967-1.877c-4.77-3.91-9.47-7.915-14.369-11.658-3.586-2.74-7-5.724-11.07-7.839-1.965-1.022-2.87-.595-3.821 1.214-4.22 8.022-8.527 16-12.8 24a9 9 0 0 0-.695 1.474c-.391 1.244-.197 2.162 1.925 2.074Zm-11.391-69.884a117 117 0 0 0-11.533-.853 286 286 0 0 0-36.992 1.22 63 63 0 0 1-8.7.171c-3.872-.123-5.867-2.6-4.613-6.1 4.093-11.441 8.334-22.828 16.2-32.4 3.316-4.038 5.625-4.769 9.647-1.6 13.092 10.329 27.017 19.622 39.074 31.245a9 9 0 0 1 .76.78c1.24 1.532 3.029 2.974 2.117 5.228-1.007 2.486-3.333 2.423-5.96 2.311Zm-21.7-6.224c3.811 0 8.707.012 13.6-.018a2.02 2.02 0 0 0 1.428-.432c.6-.788-.19-1.337-.682-1.766-2.735-2.376-5.545-4.665-8.271-7.05-6.537-5.722-13.6-10.835-19.746-17.01-1.217-1.222-2.25-.866-2.877.658-2.962 7.194-6.878 13.961-9.5 21.309-.985 2.761-.967 2.9 2.162 3.074 7.596.415 15.196.791 23.884 1.237Zm-260.97-17.509c-7.683.5-15.613-.434-23.566-.449a50 50 0 0 1-7.577-.66c-4.242-.661-5.841-2.426-6.379-6.82a170 170 0 0 1-.9-21.183c0-1.628-.06-3.256-.131-4.883-.211-4.86 2.192-7.511 7.148-7.34a134 134 0 0 1 14.608 1.174 54.2 54.2 0 0 0 12.418.325c8.879-.768 17.744-.684 26.618-.677 5.307 0 6.8 2.175 6.484 7.545-.442 7.6-.71 15.22-.636 22.828.066 6.881-1.711 8.377-8.272 9.8-2.869.623-5.776.389-8.677.35-3.621-.05-7.241-.01-11.138-.01m-4.291-30.92v.192c-8.35 0-16.7.014-25.05-.01-2.017-.006-2.956.76-2.847 2.921.249 4.9.127 9.8.861 14.682.663 4.41.881 4.8 5.2 5.152a25 25 0 0 0 2.715-.107c5.8-.171 11.594-.42 17.393-.481 7.813-.081 15.629.025 23.442-.032 3.528-.026 3.859-.285 4.081-3.579.354-5.252.585-10.516.732-15.778.078-2.812-.24-2.97-3.121-2.964q-11.703.02-23.406.004m-43.83-109.529c-.86 5.535-1.908 11.866-8.361 15.665-4.5 2.65-6.976 2.336-10.031-1.726-4.078-5.421-4.974-11.073-1.616-17.158a12.28 12.28 0 0 1 11.546-6.685c5.661.049 8.604 3.284 8.462 9.904M60.3 192.828a6.4 6.4 0 0 0 .51 3.68c.847 2.555 2.542 2.888 4.3.8 2.552-3.033 3.162-6.741 3.344-10.552a3.065 3.065 0 0 0-2.647-3.464 3.276 3.276 0 0 0-4.284 2.146c-.986 2.375-.872 4.918-1.223 7.39M81.968 232.6a18.69 18.69 0 0 1-6.515 13.017c-2.891 2.543-6.379 3.658-10.069 1.852a10.03 10.03 0 0 1-5.617-9.3c-.11-5.329 2.579-9.871 5.9-13.646 2.879-3.273 7.011-2.374 10.617-.69 3.751 1.746 5.897 4.697 5.684 8.767m-4.96 1.38c.377-3.115-1.365-5.575-4.016-5.936-2.325-.315-3.012 1.44-3.6 3.224a18.75 18.75 0 0 0-.911 8.021c.241 2.119 1.432 2.87 3.278 1.98 3.234-1.562 4.465-4.546 5.249-7.294Zm18.429-31.206c.036 3.375-1.234 6.4-2.674 9.329-2.568 5.226-6.986 7.21-12.063 5.565-4.246-1.375-7.275-6.47-6.622-11.33a21.2 21.2 0 0 1 5.427-11.077c2.177-2.509 6.787-2.83 10.68-1.113 3.741 1.644 5.359 4.302 5.252 8.621Zm-12.953 2.565c.1 1.74.121 2.829.241 3.907.117 1.057.12 2.3 1.421 2.64a2.88 2.88 0 0 0 2.962-.955 11.93 11.93 0 0 0 3.115-8.436c-.105-2.224-1.61-3.053-3.583-3.366-2.065-.328-3.028.849-3.475 2.591-.357 1.386-.537 2.823-.681 3.614Zm-38.218 3.931c-.32 1.632-.543 3.448-1.042 5.185-1.9 6.6-7.495 9.527-14.023 7.5a4.02 4.02 0 0 1-2.341-2.065c-3.424-5.718-2.275-15.632 2.382-20.378 3.468-3.534 8.151-3.531 11.549.122a13.42 13.42 0 0 1 3.475 9.631Zm-13.023 2.582a11.6 11.6 0 0 0 .458 3.136c1.123 2.886 4 3.242 6.026.876 2.73-3.183 2.943-9.092.435-12.13-1.441-1.746-3.02-1.82-4.555-.109-1.941 2.158-2.187 4.875-2.364 8.222Zm4.329 22.248c.065-.808.113-1.351.152-1.894.469-6.428 3.247-9.65 8.156-9.421 5.034.234 12.431 4.5 11.607 11.214-.6 4.907-2.705 8.739-7.558 10.3-2.473.793-5.187 3-7.72 1.2-2.878-2.047-4.215-5.375-4.621-8.935a20 20 0 0 1-.016-2.464m7 .06c.182.942.307 1.653.457 2.359.286 1.347-.083 3.075 1.785 3.571 1.754.467 3.149-.413 4.439-1.467a6.33 6.33 0 0 0 2.133-4.258c.348-2.477-1.409-4.7-4.225-5.416-1.767-.452-3.333.791-4.14 3.329-.221.675-.336 1.386-.451 1.877Zm106.76-31.13a16.37 16.37 0 0 1-6.3 12.185c-4.143 3.268-11.75 1.018-13.616-4.261a20.44 20.44 0 0 1 .877-15.9c1.875-3.943 5.232-5.056 9.581-3.755 6.139 1.827 9.353 5.617 9.456 11.726Zm-11.992.7c-.15 2.574.978 4.224 2.01 5.884.663 1.066 1.5.639 2.2-.01a7.62 7.62 0 0 0 .1-10.608c-1.793-1.694-3.227-1.35-3.735.96-.302 1.39-.435 2.82-.577 3.772Zm27.216-30.073c6.174.05 10.035 2.657 11.133 7.519 1.213 5.377-3.546 14.28-8.689 16.181-3.156 1.166-5.689-.159-7.883-2.269-3.445-3.312-5.115-11.878-3.289-16.347 1.405-3.441 4.28-5.121 8.726-5.086Zm-.033 12.716c.026.544.007 1.094.086 1.629.2 1.338-.77 3.388 1.081 3.779 1.82.384 2.7-1.5 3.381-2.982a14.3 14.3 0 0 0 1.235-3.573c.368-2.22-.987-3.544-3.527-3.733-2.564-.19-2.365 1.591-2.334 3.251.008.541.055 1.084.076 1.627Zm16.99 15.317c-.445-4.419 1.76-7.332 5.441-9.213 2.953-1.509 7.491-.133 10.363 2.852 5.21 5.414 4.327 15.432-1.741 19.768-4.8 3.428-10.356 1.722-12.222-3.832a48 48 0 0 1-1.426-5.8c-.25-1.237-.286-2.517-.417-3.777Zm14.465 3.728a7.4 7.4 0 0 0-3.436-6.362c-1.377-.886-2.375-.5-2.673 1.119-.579 3.147.31 6.058 1.573 8.882.344.77.36 1.932 1.509 1.992 1.318.07 1.678-1.1 2.185-2.022a5.77 5.77 0 0 0 .84-3.611ZM138.2 230.781c.1-3.435 1.11-6.515 4.377-8.151 3.816-1.911 7.6-.653 10.889 1.287 6.671 3.935 6.973 11.918.556 16.726-6.878 5.154-11.09 4.021-14.566-3.5a12.57 12.57 0 0 1-1.256-6.362m10.733-3.53c-.28.18-.671.3-.822.552-1.072 1.822.175 7.978 1.877 9.092a1.85 1.85 0 0 0 1.478.129c1.684-.686 3.1-3.767 2.619-5.5-.552-1.993-3.502-4.441-5.153-4.273ZM185 230.466c-.277 4.858-3.157 9.159-8.026 11.814-5.042 2.75-11.588-1.327-12.294-7.577a18.99 18.99 0 0 1 3.488-12.811c1.916-2.853 4.708-3.677 8.11-2.746a11.255 11.255 0 0 1 8.722 11.32m-13.229 1.255c-.155 1.2.79 3.18 1.612 5.18a1.863 1.863 0 0 0 2.589 1.19c3.813-1.3 6.439-7.238 4.764-10.764a5.76 5.76 0 0 0-5.736-3.281c-2.681.309-2.6 2.608-3.064 4.462a22 22 0 0 0-.17 3.213Z" data-name="Layer 1"/></g></svg>