<svg xmlns="http://www.w3.org/2000/svg" viewBox="0 0 852 130"><path d="M199.2 54h-7.4c-1.2 0-2-.5-2.4-1.8l-2.5-8h-17.7l-2.4 8c-.4 1.3-1.3 1.9-2.5 1.9H157c-1.6-.1-2.4-1.1-1.8-2.6l15.5-45c.4-1.3 1.2-1.9 2.5-1.9h9.7c1.3 0 2.1.6 2.6 1.8L201 51.5c.5 1.6-.3 2.6-1.9 2.6zm-15-18.9-6.2-21-6.2 21zM260.4 31.8v20c0 1.5-.8 2.3-2.2 2.3h-6.4c-1.4 0-2.3-.8-2.3-2.2V32.6c0-3.8-2.1-6-5.3-6-3.5 0-5.7 2.6-5.7 6.8V52c0 1.4-.8 2.2-2.2 2.2H230c-1.4 0-2.3-.8-2.3-2.2V32.6c0-3.8-2-6-5.3-6-3.4 0-5.6 2.5-5.7 6.6l.1 18.7c0 1.4-.8 2.2-2.2 2.2h-6.4c-1.4 0-2.2-.8-2.2-2.2v-31c0-1.4.8-2.2 2.2-2.2h5.1c1.4 0 2.2.8 2.2 2.2v3.3a11 11 0 0 1 10.5-6.5c5 0 8.9 2.4 10.9 6.5 2-4.1 5.9-6.5 11-6.5 7.7 0 12.5 5.6 12.5 14.1M266.1 36.1c0-11 6.5-18.4 18-18.4 10.6 0 17 6.2 17.6 18.8 0 1.5-.7 2.3-2.1 2.3h-22c.7 5.2 3.4 8.4 8 8.4 2.5 0 4.5-1 5.6-2.9.8-1 1.5-1.5 2.8-1.3l5 .8c1.4.2 2.2 1.2 1.5 2.6-2.4 5.5-8 8.6-15.7 8.6-11.5 0-18.7-7-18.7-18.9m24.2-3.3c-.6-4.7-2.6-7.4-6.2-7.4-3.7 0-6 2.6-6.5 7.4zM330.2 19.6v6.3c0 1.2-.6 1.8-1.6 1.8h-.5c-6 0-9.6 3.7-9.8 9.8V52c0 1.4-.7 2.2-2.2 2.2h-6.4c-1.4 0-2.2-.8-2.2-2.2V21c0-1.4.8-2.2 2.2-2.2h4.7c1.4 0 2.2.8 2.2 2.2v5.9c1.8-5.5 5.9-9 11.2-9h.6c1.2 0 1.8.7 1.8 1.8zM334.2 8a6 6 0 0 1 6.2-6 6 6 0 1 1-6.1 6zm9.4 46h-6.4c-1.5 0-2.2-.7-2.2-2.1v-31c0-1.4.7-2.2 2.2-2.2h6.4c1.4 0 2.2.8 2.2 2.2v31c0 1.4-.8 2.2-2.2 2.2zM369.6 17.7c8.3 0 14.2 4.1 16.3 10.8.5 1.5-.3 2.4-1.7 2.7l-5.8.9c-1.3.2-2-.4-2.7-1.6-1-2.4-2.7-4-5.6-4-4 0-6.6 3.7-6.6 9.8 0 6 2.5 10 6.8 10 2.7 0 4.7-1.6 5.7-4.7.5-1.3 1.3-1.9 2.6-1.8l5.8.9c1.4.3 2.1 1.2 1.8 2.7-2 7.4-8 11.5-16.4 11.5-10.9 0-17.7-7.1-17.7-18.6 0-11.4 6.8-18.6 17.5-18.6M423 30.7v21.2q0 2.1-2.1 2.1h-5c-1.5 0-2.3-.7-2.3-2.1v-2.5c-2.2 3.6-6.2 5.6-11.4 5.6-7.5 0-12.2-4-12.2-10.5 0-7 5.5-11.2 14.5-11.2 2.9 0 5.8.4 8 1.2v-3.7c0-3.4-2-5.4-5-5.4-2.2 0-3.8 1-4.8 2.6-.8 1.2-1.4 1.7-2.7 1.5l-6.1-1c-1.5-.3-2.3-1.2-1.6-2.6 2.3-5 7.7-8.2 15.3-8.2 9.5 0 15.5 5 15.5 13zm-10.6 10.9v-1.4c-1.8-.8-3.8-1.2-5.7-1.2-3.7 0-5.9 1.6-5.9 4.4 0 2.6 2 4.2 5.2 4.2 4 0 6.4-2.3 6.4-6M463.7 31.8v20c0 1.5-.8 2.3-2.3 2.3H455c-1.4 0-2.2-.8-2.2-2.2V32.7c0-3.8-2.2-6.2-5.6-6.2-3.6 0-6 2.7-6 6.8v18.6c0 1.4-.7 2.2-2.1 2.2h-6.4c-1.5 0-2.3-.8-2.3-2.2v-31c0-1.4.8-2.2 2.3-2.2h5c1.4 0 2.3.8 2.3 2.2v3.3c2-4.1 5.8-6.5 11-6.5 7.7 0 12.7 5.6 12.7 14.1M524.5 7.8v5.6c0 1.3-.9 2.2-2.3 2.2h-18.8v13h15.5c1.5 0 2.3.8 2.3 2.2v5.6c0 1.4-.8 2.2-2.3 2.2h-15.6V53c0 1.4-.8 2.2-2.2 2.2h-6.9c-1.4-.2-2.2-.9-2.2-2.3v-45c0-1.5.8-2.3 2.2-2.3h28c1.4 0 2.3.8 2.3 2.2M526.6 37.3c0-11.3 7.1-18.5 18.6-18.5 11.4 0 18.5 7.2 18.5 18.5 0 11.5-7.1 18.7-18.5 18.7-11.5 0-18.6-7.2-18.6-18.7m25.8 0c0-6-2.8-10-7.2-10s-7.2 4-7.2 10c0 6.2 2.8 10 7.2 10s7.2-3.8 7.2-10M602 22v30.9c0 1.4-.8 2.2-2.2 2.2h-5c-1.3 0-2.1-.8-2.1-2.2v-3c-2.1 4-6 6-11.4 6-7.4 0-12.1-4.4-12.1-13.8V22c0-1.4.8-2.2 2.2-2.2h6.4c1.4 0 2.2.8 2.2 2.2v19.5c0 3.6 2.1 5.8 5.5 5.8s5.7-2.5 5.7-6.5V22c0-1.4.8-2.2 2.2-2.2h6.4c1.4 0 2.2.8 2.2 2.2m41.6 10.8v20c0 1.5-.8 2.3-2.2 2.3H635c-1.5 0-2.2-.8-2.2-2.2V33.7c0-3.8-2.3-6.2-5.7-6.2-3.6 0-6 2.7-6 6.8v18.6c0 1.4-.7 2.2-2.1 2.2h-6.4c-1.5 0-2.2-.8-2.2-2.2v-31c0-1.4.7-2.2 2.2-2.2h5c1.4 0 2.3.8 2.3 2.2v3.3c2-4.1 5.8-6.4 11-6.4 7.7 0 12.7 5.5 12.7 14M684.7 5.7v47.2c0 1.4-.8 2.2-2.2 2.2h-5.1c-1.4 0-2.2-.8-2.2-2.2V49a12.8 12.8 0 0 1-11.6 6.8c-8.8 0-14.4-7.1-14.4-18.5s5.6-18.6 14.5-18.6c4.2 0 7.7 1.7 10.2 4.8v-18c0-1.3.8-2.1 2.2-2.1h6.4c1.4 0 2.2.8 2.2 2.2zM674 37.3c0-6-2.5-10-6.6-10s-6.7 4-6.7 10c0 6.1 2.6 10 6.7 10 4 0 6.6-3.9 6.6-10m50.3-5.6v21.2c0 1.4-.8 2.2-2.2 2.2h-5c-1.5 0-2.2-.8-2.2-2.2v-2.5c-2.2 3.6-6.3 5.6-11.5 5.6-7.4 0-12.1-4-12.1-10.5 0-7 5.4-11.2 14.5-11.2 2.8 0 5.7.4 7.8 1.2v-3.7c0-3.4-1.8-5.4-4.9-5.4-2.2 0-3.8 1-4.7 2.7-.8 1-1.4 1.6-2.7 1.4l-6.2-1c-1.5-.2-2.2-1.2-1.6-2.6 2.3-5 7.8-8.2 15.3-8.2 9.5 0 15.5 5 15.5 13m-10.7 10.9v-1.4c-1.7-.8-3.8-1.2-5.7-1.2-3.6 0-5.8 1.6-5.8 4.4 0 2.6 1.9 4.2 5.1 4.2 4 0 6.4-2.3 6.4-6M752.2 48.7v4.4c0 1.4-.8 2.2-2.2 2.2h-5c-7.5 0-12.1-4.1-12.1-10.8v-16h-2.1c-1.5 0-2.2-.8-2.2-2.3l-.1-4.3c0-1.4.8-2.2 2.2-2.2h2.5l2.9-7c.5-1.1 1.3-1.6 2.6-1.6h2.7c1.4 0 2.2.7 2.2 2.2v6.5h5.6c1.5 0 2.3.7 2.3 2.1v4.4c0 1.4-.8 2.2-2.3 2.2h-5.5v13.3c0 2.9 1.8 4.7 4.6 4.7h1.7c1.4 0 2.2.8 2.2 2.2M756.8 9a6 6 0 0 1 6.1-6 6 6 0 1 1-6.1 6m9.3 46h-6.4c-1.4 0-2.2-.7-2.2-2.1v-31c0-1.4.8-2.2 2.2-2.2h6.4c1.4 0 2.2.8 2.2 2.2v31c0 1.4-.8 2.2-2.2 2.2zm8.6-17.7c0-11.3 7.1-18.5 18.6-18.5 11.3 0 18.5 7.2 18.5 18.5 0 11.5-7.2 18.7-18.5 18.7-11.5 0-18.6-7.2-18.6-18.7m25.7 0c0-6-2.7-10-7.1-10-4.5 0-7.2 4-7.2 10 0 6.2 2.8 10 7.2 10s7.1-3.8 7.1-10M851.3 32.8v20c0 1.5-.8 2.3-2.2 2.3h-6.4c-1.4 0-2.2-.8-2.2-2.2V33.7c0-3.8-2.3-6.2-5.7-6.2-3.5 0-5.9 2.7-6 6.8l.1 18.6c0 1.4-.7 2.2-2.2 2.2h-6.4c-1.4 0-2.2-.8-2.2-2.2v-31c0-1.4.8-2.2 2.2-2.2h5.2c1.3 0 2.2.8 2.2 2.2v3.3c2-4.1 5.8-6.4 11-6.4 7.7 0 12.6 5.5 12.6 14M247.4 111.8l7-1.2c1.4-.2 2.1.3 2.8 1.5 1.6 3.8 4.9 5.8 9.6 5.8 4.4 0 7-1.8 7-5 0-9.8-26.9-5.4-26.9-22.7 0-9.9 8.2-14.7 18.4-14.7 10 0 16.2 5 18.5 11.7.4 1.4-.3 2.3-1.8 2.6l-7 1.1c-1.2.3-2.1-.3-2.7-1.5-1.3-3-3.9-4.8-7.4-4.8-4 0-6.5 2.3-6.5 5 0 8.8 27 4.8 27 22.2 0 9.3-7.2 15.2-18.5 15.2-11.4 0-18.6-5.3-21.2-12.6-.5-1.4.2-2.3 1.7-2.6M324 93v30.9c0 1.4-1 2.2-2.4 2.2h-4.9c-1.3 0-2.2-.8-2.2-2.2v-3c-2 4-6 6-11.3 6-7.5 0-12.2-4.4-12.2-13.8V93c0-1.4.8-2.2 2.2-2.2h6.4c1.5 0 2.3.8 2.3 2.2v19.5c0 3.6 2 5.8 5.5 5.8 3.4 0 5.6-2.5 5.7-6.5V93c0-1.4.8-2.2 2.1-2.2h6.4c1.5 0 2.3.8 2.3 2.2zM331.5 80a6 6 0 0 1 6.1-6 6 6 0 1 1-6.1 6m9.3 46h-6.4c-1.4 0-2.2-.7-2.2-2.1v-31c0-1.4.8-2.2 2.2-2.2h6.4c1.5 0 2.3.8 2.3 2.2v31c0 1.4-.8 2.2-2.3 2.2zM367 89.8c8.2 0 14.1 4 16.3 10.8.5 1.4-.3 2.3-1.8 2.6l-5.7.9c-1.4.2-2.2-.4-2.7-1.6-1-2.4-2.8-4-5.6-4-4 0-6.7 3.7-6.7 9.8s2.5 10 6.8 10c2.8 0 4.8-1.6 5.8-4.7.4-1.3 1.3-1.9 2.5-1.7l5.9.8c1.4.3 2.1 1.2 1.7 2.7-2 7.4-8 11.5-16.4 11.5-10.9 0-17.6-7.1-17.6-18.6 0-11.4 6.7-18.5 17.5-18.5M388.5 80a6 6 0 0 1 6.1-6 6 6 0 1 1-6.1 6m9.3 46h-6.4c-1.4 0-2.2-.7-2.2-2.1v-31c0-1.4.8-2.2 2.2-2.2h6.4c1.5 0 2.2.8 2.2 2.2v31c0 1.4-.7 2.2-2.2 2.2zM442 76.7v47.2c0 1.4-.8 2.2-2.3 2.2h-5c-1.5 0-2.3-.8-2.3-2.2V120a12.9 12.9 0 0 1-11.6 6.8c-8.8 0-14.4-7.1-14.4-18.5S412 89.8 421 89.8c4.3 0 7.7 1.7 10.2 4.8v-18c0-1.3.8-2.1 2.2-2.1h6.4c1.5 0 2.3.8 2.3 2.2zm-11 31.6c0-6-2.5-10-6.6-10s-6.7 4-6.7 10c0 6.1 2.6 10 6.7 10 4 0 6.6-3.9 6.6-10m17.3-.2c0-11 6.5-18.3 18-18.3 10.7 0 17 6.1 17.7 18.7 0 1.5-.7 2.3-2.1 2.3h-22c.6 5.2 3.3 8.4 8 8.4 2.4 0 4.4-1 5.6-2.9.8-1 1.5-1.5 2.7-1.3l5 .8c1.5.2 2.2 1.2 1.6 2.6-2.4 5.5-8.1 8.6-15.7 8.6-11.5 0-18.8-7-18.8-18.9m24.2-3.3c-.5-4.7-2.5-7.3-6.1-7.3-3.7 0-6 2.5-6.5 7.3zM180.7 81.1h-.7c-6.8 0-12 3.7-13.2 11.3l-.2.8H164a2 2 0 0 0-2 1.6l-.4 2a2 2 0 0 0 2 2.2h2l-2.1 13c-.5 2.6-2 3-3.8 3h-1.4c-1 0-1.4.4-1.6 1.3l-1 4c-.2 1.1 1.6 2.3 4 2.3 5.2 0 10-2.4 11.5-9.4l2.3-14.2h3.3a2 2 0 0 0 1.9-1.6l.3-2a2 2 0 0 0-1.8-2.2h-2.6l.1-.8c.5-2.7 2.1-3.9 4-3.9h1.3a2 2 0 0 0 2-1.5l.6-3.7c.2-1.2-.7-2.2-1.9-2.2M195.8 92.6a15 15 0 0 0-14.5 12.2c-1.3 7.2 3.7 12 10.2 12a15 15 0 0 0 14.6-12c1.4-7.3-3.7-12-10.3-12zm2.7 12.2a6 6 0 0 1-5.7 4.8 4 4 0 0 1-4-4.8c.5-2.6 3.1-4.8 5.8-4.8 2.6 0 4.4 2.2 3.9 4.8M227.9 92.6c-2.3 0-6.5.2-8.5 4.6l.6-1.7a2 2 0 0 0-1.9-2.3h-3.6a2 2 0 0 0-1.9 1.6l-3.4 19.3a2 2 0 0 0 1.9 2.2h4a2 2 0 0 0 2-1.6l1-6c1.2-7 3.3-8.6 6.3-8.6.5 0 1.2 0 2.1.2a2 2 0 0 0 2.1-1.2l1.7-3.8c.5-1.2-.2-2.7-2.4-2.7M543 92.8c0 10-7.2 16.3-18.5 16.3h-8.1V124c0 1.4-.9 2.2-2.2 2.2h-7c-1.4-.2-2.2-.9-2.2-2.3v-45c0-1.5.8-2.3 2.2-2.3h17.3c11.3 0 18.4 6.2 18.4 16.2zm-12 0c0-4.3-3-7-7.7-7h-6.9v14.1h7c4.6 0 7.7-2.7 7.7-7.1zM571.2 91.6v6.3c0 1.2-.7 1.8-1.7 1.8h-.4c-6 0-9.7 3.7-9.9 9.8l.1 14.4c0 1.4-.8 2.2-2.2 2.2h-6.4c-1.4 0-2.2-.8-2.2-2.2v-31c0-1.4.8-2.2 2.2-2.2h4.7c1.3 0 2.2.8 2.2 2.2v5.9c1.8-5.4 5.8-9 11.2-9h.5c1.2 0 1.9.7 1.9 1.8M572.7 108.1c0-11 6.5-18.4 18-18.4 10.6 0 17 6.2 17.6 18.8.1 1.5-.7 2.3-2.1 2.3h-22c.6 5.2 3.4 8.4 8 8.4 2.5 0 4.5-1 5.6-2.9.8-1 1.5-1.6 2.8-1.3l5 .8c1.4.2 2.2 1.2 1.5 2.6-2.4 5.5-8 8.6-15.7 8.6-11.5 0-18.7-7-18.7-18.9m24.2-3.3c-.6-4.7-2.6-7.4-6.2-7.4-3.7 0-6 2.6-6.5 7.4zM646.5 93.3l-10 31c-.4 1.1-1.3 1.8-2.6 1.8h-10.8c-1.3 0-2.2-.7-2.5-1.9l-10-31c-.5-1.5.2-2.5 1.8-2.5h7.1c1.4 0 2.1.6 2.5 1.9l6.7 24 6.7-24c.3-1.3 1.1-1.9 2.4-1.9h6.9c1.6 0 2.3 1 1.8 2.6M649.3 108.1c0-11 6.5-18.4 18-18.4 10.6 0 17 6.2 17.7 18.8 0 1.5-.8 2.3-2.2 2.3h-22c.7 5.2 3.4 8.4 8 8.4 2.5 0 4.5-1 5.6-2.9.8-1 1.5-1.6 2.8-1.3l5 .8c1.5.2 2.2 1.2 1.6 2.6-2.5 5.5-8.2 8.6-15.8 8.6-11.4 0-18.7-7-18.7-18.9m24.2-3.3c-.6-4.7-2.6-7.4-6.2-7.4-3.7 0-5.9 2.6-6.5 7.4zM724 103.8v20c0 1.5-.8 2.3-2.2 2.3h-6.4c-1.4 0-2.2-.8-2.2-2.2v-19.2c0-3.8-2.3-6.2-5.7-6.2-3.5 0-5.9 2.7-6 6.8l.1 18.6c0 1.4-.8 2.2-2.2 2.2H693c-1.4 0-2.2-.8-2.2-2.2v-31c0-1.4.8-2.2 2.2-2.2h5.1c1.4 0 2.2.8 2.2 2.2v3.3c2-4.1 5.9-6.4 11-6.4 7.7 0 12.7 5.5 12.7 14m28.1 15.9v4.4c0 1.4-.8 2.2-2.3 2.2h-5c-7.4 0-12-4.1-12-10.8l-.1-16h-2c-1.5 0-2.3-.8-2.3-2.3V93c0-1.4.8-2.2 2.2-2.2h2.4l3-7c.5-1.2 1.3-1.7 2.6-1.7h2.6c1.4 0 2.3.8 2.3 2.2v6.5h5.6c1.4 0 2.2.8 2.2 2.2v4.3c0 1.5-.7 2.2-2.2 2.2h-5.5v13.4c0 2.9 1.8 4.6 4.5 4.6h1.7c1.5 0 2.3.9 2.3 2.3zM756.7 80a6 6 0 0 1 6-6 6 6 0 1 1-6.1 6zm9.3 46h-6.4c-1.4 0-2.2-.7-2.2-2.1v-31c0-1.4.8-2.2 2.2-2.2h6.4c1.4 0 2.2.8 2.2 2.2v31c0 1.4-.8 2.2-2.2 2.2zm8.6-17.7c0-11.3 7.1-18.5 18.6-18.5 11.4 0 18.6 7.2 18.6 18.5 0 11.5-7.2 18.7-18.6 18.7-11.5 0-18.6-7.2-18.6-18.7m25.8 0c0-6-2.8-10-7.2-10s-7.2 4-7.2 10c0 6.2 2.8 10 7.2 10s7.2-3.8 7.2-10M851.3 103.8v20c0 1.5-.8 2.3-2.2 2.3h-6.4c-1.4 0-2.2-.8-2.2-2.2v-19.2c0-3.8-2.3-6.2-5.7-6.2-3.6 0-6 2.7-6 6.8V124c0 1.4-.7 2.2-2.1 2.2h-6.4c-1.4 0-2.2-.8-2.2-2.2V93c0-1.4.7-2.2 2.2-2.2h5c1.4 0 2.3.8 2.3 2.2v3.3c2-4.1 5.8-6.5 11-6.5 7.7 0 12.7 5.6 12.7 14.1zM125 40.1a65 65 0 1 0-120 50A65 65 0 0 0 125 40zM36.4 77.6a31.3 31.3 0 0 1 17-41.2 31.3 31.3 0 0 1 41.2 17 31.5 31.5 0 0 1-58.2 24.2M88 9.6 79.4 30a37.9 37.9 0 0 0-28.8 0L42 9.5c14.8-6 31.2-6 46 0zM9.6 42 30 50.6a37.9 37.9 0 0 0 0 28.8L9.5 88a60.6 60.6 0 0 1 0-46zM42 119.5 50.6 99a38.3 38.3 0 0 0 28.8 0l8.6 20.5c-14.8 6-31.2 6-46 0M119.5 88 99 79.4a37.9 37.9 0 0 0 0-28.8l20.5-8.6c6 14.8 6 31.2 0 46"/></svg>