<svg xmlns="http://www.w3.org/2000/svg" width="40" height="40"><path d="M0 0h40v40H0z"/><path d="M15.13 33.258c-1.425-1.322-1.84-4.098-1.247-6.11 1.029 1.269 2.455 1.67 3.932 1.897 2.28.35 4.52.22 6.638-.838.242-.121.466-.282.73-.445a4 4 0 0 1 .182 1.776c-.169 1.465-.887 2.596-2.03 3.453-.456.343-.94.65-1.41.973-1.45.994-1.842 2.16-1.298 3.854l.054.184a3.83 3.83 0 0 1-1.692-1.469c-.435-.679-.642-1.43-.653-2.242-.005-.395-.005-.795-.057-1.184-.128-.95-.568-1.376-1.396-1.4-.85-.026-1.523.507-1.701 1.347-.014.064-.034.128-.053.203M7 26.81s4.219-2.085 8.449-2.085l3.19-10.016c.119-.485.467-.814.86-.814.395 0 .743.33.863.814l3.19 10.016c5.01 0 8.448 2.085 8.448 2.085L24.82 6.963C24.616 6.377 24.269 6 23.8 6H15.2c-.468 0-.801.377-1.02.963C14.164 7.002 7 26.81 7 26.81"/></svg>