<svg xmlns="http://www.w3.org/2000/svg" viewBox="0 0 367 83"><path d="M2.1 2.9C.7 5.5 4.3 10.2 7.4 9.8c2.5-.4 3.5-5 1.5-7.4-1.6-2-5.6-1.7-6.8.5M14.9 16.9c-3.6 3.7-3.8 7.6-.5 15.7 3.5 8.5 4.1 15.8 2.2 23.5-2 7.8-5.3 13-11.4 18.5L.6 78.8l3.5 1.8c5.3 2.9 15.9 2.5 23.1-.8 22.4-10.3 28.2-37.6 11.9-56-4.7-5.3-12.9-9.8-17.9-9.8-2.4 0-4.2.8-6.3 2.9M96.828 16.109C89.952 18.164 82.948 26.127 81 33.962c-2.983 12.46.779 23.506 10.249 30.185 4.8 3.34 6.616 3.853 14.14 3.853 10.378-.128 15.697-2.569 20.367-9.376L129 53.87l-4.151-1.413c-3.892-1.284-4.54-1.027-6.746 1.799-11.286 14.128-32.302 1.67-28.8-17.084 2.725-14 21.016-18.88 28.67-7.578 2.465 3.597 2.984 3.854 6.746 2.57l4.151-1.414-2.075-4.367c-4.411-8.734-18.68-13.743-29.967-10.275M136 43.5V69h9.1V47.325h20.8V69h9.1V18h-9.1v21.674999999999997h-20.8V18H136zM185 43.5V69h8V18h-8zM206 43.5V69h26v-7.65h-16.9V18H206zM242 43.5V69h26v-7.65h-16.9V18H242zM266.216 23.355c15.182 26.52 14.924 25.755 14.924 36.082V69h7.72v-9.563c0-10.327-.258-9.562 14.924-36.082L307 18h-4.889c-4.76 0-5.017.127-10.678 10.837-3.217 5.993-6.047 10.838-6.433 10.838s-3.216-4.845-6.433-10.838C272.907 18.127 272.65 18 267.89 18H263zM314 25.609c0 8.116 1.067 9.13 5.333 5.073 1.734-1.65 2.667-4.185 2.667-7.61 0-4.818-.267-5.072-4-5.072h-4zM338.84 19.328c-8.058 3.195-11.958 10.863-9.098 17.764 2.08 4.857 5.719 7.03 15.727 9.585 4.55 1.15 9.099 2.684 10.009 3.451 2.47 2.045 1.82 7.03-1.3 9.202-4.81 3.323-11.048 2.556-15.598-1.79-3.899-3.833-5.719-4.472-9.358-3.067-4.29 1.662 3.51 11.247 11.048 13.547 11.958 3.451 24.046-2.556 25.476-12.652.65-4.856.26-5.879-3.64-9.713-3.119-3.067-6.498-4.856-11.568-6.007-12.477-2.811-16.507-7.668-10.138-12.013 4.55-3.195 9.878-2.556 13.908 1.661 2.73 2.812 4.29 3.579 7.019 3.068 2.99-.64 3.379-1.15 2.73-3.45-2.6-8.564-15.338-13.42-25.217-9.586"/></svg>