<svg xmlns="http://www.w3.org/2000/svg" xml:space="preserve" viewBox="0 0 1200 1200"><path d="M600 28.644C284.449 28.644 28.644 284.448 28.644 600S284.45 1171.356 600 1171.356c315.553 0 571.356-255.804 571.356-571.356S915.553 28.644 600 28.644M151.414 605.956l442.629 442.63c-243.054-3.168-439.462-199.576-442.629-442.63m549.003 431.414L162.63 499.583C208.232 300.142 386.734 151.339 600 151.339c149.077 0 281.147 72.727 362.734 184.616l-62.12 54.812C834.433 295.859 724.478 233.746 600 233.746c-158.485 0-293.447 100.668-344.46 241.545l469.17 469.17c113.938-41.26 201.566-137.44 230.914-256.56H761.152v-87.9h205.102v-.002h82.407V600c0 213.266-148.802 391.768-348.244 437.37"/></svg>