<svg xmlns="http://www.w3.org/2000/svg" xml:space="preserve" viewBox="0 0 85.039 85.039"><path d="M75.138 53.746V28.668a9.2 9.2 0 0 0-4.539-7.931L47.374 7.091a10.8 10.8 0 0 0-11.135.119L15.625 19.922a11.88 11.88 0 0 0-5.647 10.115v25.677c0 4.09 2.17 7.872 5.701 9.936L37.16 78.208a9.35 9.35 0 0 0 9.272.096l23.784-13.247a9.58 9.58 0 0 0 4.917-8.37v-2.942z" style="fill-rule:evenodd;clip-rule:evenodd;fill:#ff4088"/><path d="M41.934 2.835h.057l.051.001h.29l.051.002h.006l.051.002h.006l.051.002h.003l.051.002h.006l.049.002h.006l.049.002h.004l.051.002h.006l.051.004h.006l.049.004h.004l.049.004h.006l.051.004h.004l.049.004h.006l.051.004h.006l.051.004h.006l.051.004h.006l.049.004h.006l.049.004h.006l.051.004h.006l.051.006h.006l.051.006h.004l.049.006h.006l.049.006h.006l.051.006h.006l.051.006h.004l.049.006h.006l.051.006h.006l.049.008.006.002.051.008h.006l.049.008h.004l.051.008h.006l.049.008h.006l.049.008h.004l.051.008h.006l.049.008.006.002.049.008.006.002.049.01h.006l.049.008h.006l.049.01h.006l.051.01h.004l.049.01h.006l.049.01h.004l.051.01.006.002.051.01h.004l.049.012.006.002.049.012h.006l.051.012.021.009.049.01.006.002.049.01.004.002.049.012h.006l.049.012.006.002.049.012.004.002.051.012.004.002.049.012.006.002.049.012h.004l.049.014h.006l.051.012.006.002.049.012h.006l.049.014.006.002.049.014.006.002.049.014.006.002.049.014.004.002.049.014.006.002.049.014.006.002.049.014.006.002.049.016.004.002.049.016H46l.049.016h.006l.049.016.006.002.049.016.006.002.049.016.004.002.049.016.006.002.049.016.004.002.049.016.004.002.047.016.006.002.047.016.006.002.047.018.006.002.049.018.006.002.047.018.004.002.049.016.004.002.049.018.006.002.049.018.006.002.047.018.006.002.047.021.004.002.049.018.006.002.047.021.006.002.049.021.006.002.049.021.004.002.049.021.004.002.047.021.004.002.047.021.004.002.049.021.004.002.047.021.006.002.047.021.006.002.047.021.004.002.047.023.006.002.047.023.006.002.047.023.004.002.047.023.004.002.047.023.006.002.047.023.006.002.047.023.006.002.047.023.004.002.047.025.004.004.047.023.004.002.045.025.006.002.047.023.004.002.047.025.006.002.045.025.006.004.061.03.006.002.047.025.004.002.045.025.006.004.047.025.004.004.045.027.004.004.045.027.006.002.045.027.004.002.045.027.004.004.045.027.006.004.043.027h.004l23.242 13.656.039.023.004.004.039.023.006.002.037.025.004.004.037.023.004.004.037.023.004.002.037.023.004.002.037.023.004.002.037.023.006.002.037.025.004.002.037.025.006.002.037.023.004.002.037.025.004.004.037.025.004.004.035.023.006.002.037.025.004.002.037.025.004.002.035.025.004.002.035.025.004.002.035.025.004.004.035.025.004.002.035.027.006.004.035.025.004.002.035.025.004.002.035.025.004.004.035.025.004.002.035.025.004.004.035.025.004.004.035.027.006.004.033.027.006.004.035.027.006.002.035.027.004.004.035.027.004.004.033.027.006.004.035.029.006.006.066.053.008.006.066.055.008.006.068.055.008.006.068.055.008.006.066.055.008.008.066.055.008.006.064.057.008.006.064.057.008.006.064.059.008.006.062.057.008.006.064.059.008.008.062.059.008.008.062.059.008.008.059.059.008.008.059.062.008.008.059.062.006.008.059.062.008.008.057.062.008.008.057.062.008.008.057.062.008.008.057.064.008.008.055.066.006.008.057.064.008.008.055.066.008.008.055.066.006.008.055.066.008.008.053.066.006.008.053.066.008.008.053.068.006.008.051.068.006.008.051.068.006.008.051.068.006.01.051.07.006.008.051.068.006.01.049.07.006.008.049.07.006.008.049.07.006.01.047.07.006.01.047.072.006.01.045.07.006.008.045.07.006.008.047.072.006.008.045.072.006.01.043.072.006.01.045.072.006.01.043.072.006.01.043.074.006.008.041.074.006.01.041.074.006.01.041.074.006.01.041.074.004.01.041.076.004.01.039.076.004.01.039.076.006.008.037.078.004.01.039.076.004.01.037.076.006.01.035.078.004.01.035.078.004.01.035.078.004.01.035.078.004.01.033.078.004.01.033.078.004.01.048.076.004.01.031.078.004.01.031.08.004.01.031.08.004.01.031.08.004.01.029.08.004.01.027.08.004.01.027.08.004.01.027.08.004.01.027.082.002.01.025.08.004.01.025.082.002.01.025.082.004.01.025.082.004.01.023.082.004.01.023.082.002.01.021.082.004.012.023.084.002.01.021.084.004.01.018.084.004.01.021.084.002.012.018.084.002.01.018.084.002.01.016.084.002.01.016.084.002.01.016.084.002.01.014.086.002.01.014.084.002.012.014.086.002.012.012.086.002.012.012.084v.008l.006.045v.004l.004.043v.006l.006.043v.004l.006.043v.006l.006.043.002.006.006.043v.006l.004.043.002.004.004.043.002.006.004.043v.006l.004.043.002.006.004.043.002.006.004.043v.006l.004.043v.006l.004.043v.006l.004.043v.006l.004.043v.006l.002.043v.006l.002.045v.006l.004.045v.004l.002.043v.006l.002.043v.006l.002.043v.006l.002.043v.006l.002.045v.006l.002.043v.006l.002.043v.004l.002.043v28.637l-.002.047v.059l-.002.047v.006l-.002.045v.021l-.002.047v.006l-.002.045v.004l-.002.045v.006l-.002.045-.002.006-.002.045v.006l-.002.045v.004l-.002.047v.006l-.004.047v.004l-.004.047v.006l-.004.045v.006l-.002.045v.006l-.004.045v.006l-.004.045v.006l-.004.045v.006l-.004.045-.002.004-.004.047-.002.006-.004.045v.006l-.004.045-.002.006-.006.045v.006l-.006.045v.004l-.006.045v.006l-.006.045-.002.006-.006.047-.002.006-.006.045-.002.006-.006.045v.006l-.006.045v.006l-.006.045-.002.006-.006.045-.002.006-.008.045v.004l-.006.045v.004l-.008.045-.002.006-.006.045-.002.006-.006.045v.004l-.008.045v.004l-.008.045v.004l-.008.045v.006l-.008.043-.002.006-.008.043-.002.006-.008.045-.002.006-.01.045v.004l-.01.045v.004l-.008.043v.006l-.01.045v.004l-.008.045-.002.004-.01.043v.004l-.01.043v.006l-.01.043-.002.006-.01.043-.002.006-.01.043-.002.004-.01.043-.002.004-.01.043-.002.006-.012.043-.002.006-.01.043-.002.006-.012.043v.006l-.012.045-.002.006-.012.043v.006l-.012.043-.002.006-.012.043-.011.021-.012.045-.002.004-.012.043-.002.004-.012.043-.002.006-.014.043-.002.006-.012.043-.002.004-.012.043-.002.006-.012.043-.002.004-.014.043-.002.006-.014.043-.002.006-.014.043-.002.006-.014.043-.002.006-.014.043-.002.004-.014.043-.002.006-.014.043-.007.009-.014.043-.002.004-.014.043-.002.006-.014.043-.002.006-.016.041-.002.006-.017.042-.002.006-.014.041-.002.006-.014.043-.002.006-.016.043-.002.006-.016.041-.002.006-.016.041-.004.007-.016.041-.002.006-.016.041-.002.006-.016.041-.002.006-.016.041-.002.004-.018.041-.002.006-.018.043-.002.006-.016.041-.002.006-.018.041-.002.006-.018.041-.002.006-.018.041-.002.004-.018.041-.002.006-.018.041-.002.004-.018.041-.002.004-.018.041-.002.004-.018.041-.002.004-.021.041-.002.004-.021.039-.002.006-.018.041-.002.004-.021.039-.002.006-.018.041-.002.004-.021.041-.002.006-.021.041-.002.004-.021.039-.002.004-.021.041-.002.006-.021.041-.002.006-.021.041-.004.006-.021.039-.002.004-.021.041-.002.006-.021.041-.002.006-.023.039-.004.004-.025.044-.002.004-.023.039-.002.004-.023.039-.002.004-.023.039-.002.004-.023.039-.002.006-.023.039-.002.004-.023.039v.007l-.023.039-.004.004-.023.039-.004.004-.023.039-.002.004-.023.039-.002.006-.025.039-.002.004-.023.037-.002.006-.023.037-.004.004-.025.039-.002.006-.025.037-.004.004-.025.037-.002.004-.025.039-.004.006-.025.037-.004.004-.025.037-.002.004-.025.039-.002.004-.025.037-.004.004-.027.037-.002.004-.025.037-.002.004-.027.037-.002.004-.025.037-.004.004-.025.037-.004.004-.027.037-.004.004-.025.037-.002.004-.027.037-.004.006-.025.037-.004.004-.027.037-.004.004-.027.037-.004.004-.027.037-.004.004-.027.037-.002.004-.027.035-.004.004-.027.035-.002.004-.029.035-.004.004-.027.035-.002.004-.027.037-.004.004-.029.037-.004.004-.029.035-.004.004-.029.035-.002.004-.029.035-.004.004-.029.035-.004.004-.029.035-.004.004-.029.035-.004.004-.029.035-.002.004-.029.035-.004.004-.031.035-.004.004-.029.035-.004.004-.029.035-.004.004-.029.035-.004.004-.029.035-.004.004-.029.033-.004.004-.031.035-.004.004-.029.035-.004.004-.031.035-.004.004-.029.035-.004.004-.031.033-.004.004-.031.033-.004.004-.031.033-.004.004-.031.033-.004.004-.031.033-.004.004-.031.033-.004.004-.031.033-.004.004-.031.033-.004.004-.033.033-.004.004-.031.033-.004.004-.031.031-.004.004-.033.033-.006.004-.033.033-.004.004-.033.031-.004.004-.033.033-.004.004-.033.031-.004.004-.033.031-.004.004-.033.031-.004.004-.033.031-.004.004-.033.031-.004.004-.033.031-.004.004-.035.031-.004.002-.033.031-.004.004-.035.031-.004.004-.035.031-.004.002-.035.031-.004.004-.035.029-.006.004-.035.029-.004.004-.035.031-.004.004-.035.031-.004.004-.035.031-.004.004-.035.029-.004.004-.037.029-.004.002-.035.029-.004.004-.035.029-.006.004-.035.029-.004.004-.02.025-.004.004-.035.029-.004.004-.037.029-.004.004-.035.027-.004.004-.037.028-.004.004-.037.029-.004.004-.037.029-.004.004-.037.029-.004.002-.037.027-.004.002-.037.027-.004.002-.037.027-.006.002-.037.027-.004.004-.037.027-.004.004-.037.027-.004.004-.037.027-.006.004-.037.027-.004.002-.039.027-.006.002-.039.027-.004.004-.039.027-.004.004-.039.025-.004.004-.039.027-.004.004-.037.027-.006.004-.039.025-.004.002-.039.025-.006.002-.039.025-.005-.001-.039.025-.004.004-.039.025-.004.002-.039.025-.006.002-.039.025-.004.004-.039.025-.006.002-.039.025-.006.004-.039.025-.006.004-.041.025-.004.004-.039.023-.006.002-.039.023-.004.004-.041.025-.006.004-.041.023-.004.004-.039.023-.006.002-.041.023-.006.002-.041.023-.004.002-.039.023-.002.002L47.754 80.68h-.002l-.037.023-.006.002-.039.023-.006.004-.039.021-.006.002-.039.021-.004.002-.039.021-.006.002-.039.021-.006.002-.039.021-.006.002-.039.021-.004.002-.039.021-.004.002-.039.018-.004.002-.041.021-.004.004-.039.021-.004.002-.039.018-.004.002-.039.018-.004.002-.039.021-.004.002-.041.018-.004.002-.039.018-.004.002-.041.018-.004.002-.039.018-.004.002-.039.018-.006.004-.041.018-.004.002-.041.016-.004.002-.041.018-.004.004-.041.018-.006.002-.039.016-.004.002-.041.018-.004.002-.041.016-.004.002-.041.016-.004.002-.045.02-.006.002-.041.016-.006.002-.041.016-.006.002-.039.016-.004.002-.041.014-.004.002-.041.018-.006.002-.041.016-.006.002-.041.016-.006.002-.041.014-.006.002-.041.016-.006.002-.041.014-.005.005-.041.014-.006.002-.041.014-.006.002-.041.014-.006.002-.041.014-.004.002-.041.014-.041.014-.006.002-.043.012-.006.002-.041.012-.004.002-.041.014-.004.002-.043.012-.006.002-.041.012-.006.002-.041.012-.006.002-.043.014-.008.002-.082.025-.01.004-.084.025-.01.002-.084.025-.01.002-.084.023-.01.004-.084.023-.01.002-.084.023-.012.002-.089.023-.01.002-.084.021-.012.002-.084.021-.01.002-.084.018-.01.002-.086.018-.012.002-.086.018-.01.002-.086.016-.01.002-.084.014-.01.002-.084.016-.01.002-.086.014-.01.002-.086.014-.01.002-.086.012-.01.002-.086.012-.01.002-.086.012-.01.002-.086.012-.012.002-.086.01-.01.002-.086.01-.01.002-.086.01-.086.008h-.01l-.086.006-.01.002-.086.006h-.01l-.086.006h-.01l-.086.006-.012.002-.086.006h-.01l-.086.004h-.01l-.086.004h-.022l-.086.002h-.01l-.086.002h-.01l-.086.002h-.304l-.086-.002-.086-.002h-.012l-.086-.002h-.002l-.086-.004-.01-.002-.086-.004h-.01l-.086-.004-.01-.002-.086-.004h-.01l-.086-.006-.01-.002-.086-.008-.012-.002-.086-.008-.012-.002-.086-.008-.01-.002-.086-.008h-.01l-.086-.008-.01-.002-.086-.01h-.012l-.086-.01-.012-.002-.086-.012-.01-.002-.086-.012-.01-.002-.086-.012-.01-.002-.086-.012-.01-.002-.084-.014h-.006l-.086-.016-.011-.002-.084-.016-.01-.002-.084-.016-.01-.002-.084-.016-.012-.002-.085-.016-.01-.002-.084-.018-.012-.004-.084-.018-.01-.002-.084-.021-.011-.004-.084-.021-.01-.004-.084-.023-.01-.002-.084-.023-.01-.004-.084-.023-.01-.004-.084-.023-.01-.004-.084-.025-.012-.004-.084-.025-.01-.004-.084-.025-.01-.004-.084-.025-.01-.002-.082-.027-.008-.002-.043-.014h-.006l-.041-.012-.006-.002-.041-.014-.006-.002-.041-.014-.006-.002-.041-.014-.006-.002-.041-.014-.006-.002-.041-.014-.004-.002-.041-.014-.004-.002-.041-.014-.004-.002-.041-.016-.006-.002-.041-.016-.006-.002-.041-.016-.004-.002-.041-.016-.006-.002-.041-.016-.004-.002-.041-.016-.006-.002-.041-.016-.004-.002-.041-.016-.004-.002-.041-.016-.006-.002-.041-.016-.006-.002-.041-.016-.006-.002-.041-.016-.024-.009-.041-.016-.004-.002-.041-.018-.006-.002-.039-.018-.004-.002-.041-.018-.004-.004-.041-.018-.004-.002-.041-.016-.006-.002-.039-.018-.006-.002-.041-.018-.006-.002-.039-.018-.004-.004-.039-.018-.004-.002-.039-.018-.004-.002-.041-.018-.004-.004-.041-.021-.004-.004-.039-.018-.006-.002-.041-.018-.004-.004-.039-.021-.006-.002-.041-.021-.004-.002-.039-.021-.006-.002-.039-.021-.004-.002-.039-.021-.006-.004-.039-.021-.004-.002-.039-.021-.004-.002-.039-.021-.006-.004-.039-.021-.004-.002-.039-.023-.006-.004-.039-.021-.006-.002-.039-.021-.006-.002-.039-.021-.006-.002-.039-.023-.006-.002-.037-.023-.006-.002-.037-.023-.002-.002-21.502-12.546-.002-.002-.045-.027-.004-.002-.045-.027-.006-.002-.047-.027-.006-.002-.045-.029-.004-.002-.045-.029-.004-.004-.045-.029-.004-.004-.045-.029-.006-.002-.045-.027-.006-.004-.045-.029-.004-.004-.045-.029h.01l-.045-.029-.006-.004-.045-.029-.004-.004-.045-.029-.006-.004-.045-.031-.006-.004-.045-.031-.004-.004-.045-.029-.004-.004-.045-.031-.004-.004-.045-.031-.004-.004-.043-.031-.006-.004-.044-.031-.004-.004-.043-.031-.005-.004-.043-.031-.006-.004-.043-.031-.004-.002-.043-.031-.004-.004-.042-.031-.004-.004-.042-.031-.006-.002-.043-.031-.004-.004-.043-.033-.004-.004-.043-.031-.005-.004-.049-.028-.005-.004-.041-.033-.004-.004-.041-.033-.004-.002-.041-.033-.004-.004-.041-.033-.004-.004-.041-.033-.004-.004-.042-.033-.004-.004-.041-.033-.004-.004-.041-.033-.004-.004-.041-.035-.004-.002-.041-.033-.004-.004-.04-.033-.004-.004-.041-.035-.004-.004-.041-.033-.004-.004-.041-.035-.004-.002-.04-.033-.004-.004-.039-.033-.004-.004-.04-.034-.004-.004-.039-.035-.004-.004-.039-.035-.004-.004-.039-.035-.004-.004-.039-.035-.004-.004-.039-.037-.004-.002-.039-.035-.006-.004-.038-.037-.004-.004-.039-.035-.005-.004-.038-.037-.004-.004-.037-.037-.004-.004-.037-.037-.004-.004-.039-.037-.004-.004-.039-.037-.004-.002-.037-.037-.004-.004-.037-.037-.004-.004-.037-.037-.004-.004-.037-.037-.004-.004-.037-.037-.004-.004-.037-.037-.004-.004-.035-.037-.004-.004-.037-.037-.004-.004-.037-.039-.004-.004-.035-.039-.004-.004-.035-.039-.004-.004-.037-.039-.004-.004-.035-.039-.004-.004-.035-.039-.004-.004-.035-.039-.004-.004-.035-.039-.004-.004-.035-.039-.002-.004-.033-.039-.004-.004-.035-.039-.004-.004-.037-.041-.004-.004-.035-.039-.004-.004-.035-.041-.004-.004-.033-.039-.002-.004-.033-.039-.004-.004-.033-.041-.004-.004-.035-.041-.004-.004-.033-.039-.004-.004-.035-.039-.004-.004-.033-.039-.004-.004-.033-.041-.004-.004-.033-.041-.004-.004-.033-.041-.004-.004-.033-.041-.004-.004-.033-.041-.002-.004-.031-.041-.004-.004-.031-.041-.002-.004-.031-.041-.004-.004-.031-.043-.003-.007-.031-.041-.004-.004-.031-.041-.002-.004-.031-.043-.002-.004-.031-.043-.002-.004-.031-.041-.001-.005-.031-.041-.004-.004-.031-.043-.004-.004-.031-.043-.004-.006-.029-.043-.004-.004-.029-.043-.004-.004-.028-.044-.004-.004-.029-.043-.002-.004-.029-.043-.004-.006-.029-.043-.004-.004-.028-.044-.004-.004-.029-.043-.004-.004-.029-.043-.004-.004-.027-.043-.002-.004-.027-.043-.004-.006-.029-.043-.004-.006-.028-.044-.002-.004-.029-.045-.002-.006-.027-.043-.004-.004-.026-.043-.004-.004-.027-.045-.004-.006-.027-.043-.002-.004-.027-.046-.002-.004-.027-.043-.004-.006-.026-.046-.004-.006-.027-.045-.004-.006-.025-.045-.004-.004-.026-.045-.002-.004-.025-.046-.002-.004-.025-.045-.002-.006-.024-.045-.004-.006-.025-.045-.002-.006-.025-.047-.002-.004-.025-.045-.001-.007-.025-.045-.002-.006-.025-.045-.002-.006-.022-.048-.002-.004-.025-.047-.002-.006-.025-.047-.004-.004-.022-.048-.002-.004-.023-.045-.002-.006-.023-.047v.002l-.023-.047-.003-.007-.023-.047-.002-.006-.023-.045-.002-.006-.023-.047-.001-.004-.023-.047-.002-.004-.021-.047-.002-.004-.022-.048-.002-.004-.023-.047-.002-.004-.023-.047-.002-.006-.021-.047-.002-.004-.023-.047-.002-.006-.023-.047v-.006l-.021-.047-.002-.004-.021-.047-.002-.006-.021-.047-.002-.004-.018-.047-.002-.004-.021-.047-.001-.007-.018-.05-.002-.004-.021-.047-.002-.006-.018-.045-.002-.006-.021-.049-.002-.005-.018-.049-.002-.006-.018-.049-.003-.004-.018-.05-.002-.006-.019-.049-.002-.004-.018-.049-.002-.004-.016-.049-.002-.006-.018-.049-.002-.004-.018-.05L8 60.423l-.016-.049-.002-.006-.018-.049-.002-.006-.016-.049-.002-.004-.018-.05-.002-.004-.016-.049-.002-.006-.016-.049-.002-.006-.016-.049-.003-.007-.016-.049-.003-.007-.016-.049-.002-.006-.014-.049-.002-.004-.016-.051-.002-.006-.014-.051-.002-.006-.014-.049-.002-.006-.016-.051-.002-.006-.014-.051-.002-.006-.014-.051-.002-.004-.014-.051-.002-.002-.014-.051-.002-.004-.014-.051-.002-.004-.012-.049v-.004l-.014-.051v-.006l-.012-.049-.002-.006-.013-.05-.002-.006-.013-.052h.002l-.012-.051-.002-.004-.012-.051-.002-.004-.013-.052-.002-.004-.012-.051.002-.002-.012-.051-.002-.006-.012-.051-.003-.007-.01-.051-.002-.006-.012-.051-.002-.004-.01-.051-.002-.006-.01-.051-.003-.008-.01-.051-.01-.051v-.006l-.01-.053v-.006l-.01-.051-.002-.006-.012-.049v-.006l-.01-.055-.002-.006-.01-.053-.002-.006-.008-.051-.002-.006-.01-.054v-.006l-.008-.051v-.006l-.008-.051-.002-.006-.008-.051v.002l-.008-.051v-.004l-.008-.051v-.006l-.008-.051v-.006l-.008-.051v-.004l-.008-.057v-.006l-.006-.051v-.004l-.008-.053-.002-.006-.006-.051v-.006l-.006-.053-.002-.006-.006-.053v-.006l-.007-.055-.002-.007-.006-.053v-.006l-.006-.053-.002-.004-.006-.053L7.235 57v-.006l-.006-.054-.002-.006-.006-.053v-.006l-.004-.053-.002-.006-.004-.053v-.006l-.004-.053v-.006l-.004-.053-.005-.055v-.006l-.004-.054v-.006l-.004-.053v-.066l-.002-.053v-.006l-.002-.053v-.006l-.002-.053-.002-.006-.002-.055v-.057l-.002-.053v-.006l-.002-.053v-25.97l.002-.051v-.066l.002-.053v-.189l.002-.053v-.004l.002-.053v-.006l.002-.053V29.5l.002-.053v-.004l.002-.053v-.01l.002-.053v-.007l.004-.055v-.006l.004-.054v-.004l.002-.053v-.006l.004-.053v-.006l.002-.053v-.006l.002-.053v-.006l.004-.053v-.006l.004-.053v-.006l.006-.053v-.006l.004-.053.002-.004.004-.053v-.008l.006-.053v-.004l.006-.053.002-.006.008-.054v-.006l.006-.053v-.004l.006-.053v-.004l.006-.053.002-.006.006-.053v-.008l.006-.051v-.006l.006-.053v-.006l.006-.053.002-.006.006-.051v-.006l.008-.053v-.006l.006-.053.002-.006.006-.051.002-.006.008-.053.002-.004.008-.053v-.004l.008-.053v-.004l.008-.051.002-.006.008-.051v-.006l.014-.053.002-.006.008-.051v-.006l.01-.051v-.011l.01-.051v-.004l.01-.053.002-.004.01-.051.002-.004.01-.051.002-.006.01-.051.002-.006.01-.051v-.006l.01-.051v-.004l.01-.051.002-.004.01-.051.002-.004.012-.051v-.006l.012-.051.002-.006.01-.051.002-.006.012-.051v-.006l.012-.051.002-.006.012-.051v-.006l.012-.051.002-.004.012-.051v-.004l.012-.051.002-.006.014-.051v-.004l.014-.051v-.004l.014-.051.002-.006.014-.051v-.006l.014-.051.002-.006.014-.049.002-.004.014-.051.002-.005.014-.051.002-.006.014-.05.002-.004.016-.051.002-.004.014-.049.002-.004.014-.05.002-.004.014-.051.002-.006.016-.05.002-.006.016-.049v-.004l.016-.049v-.006l.016-.049.002-.004.016-.049.002-.006.016-.049.002-.006.016-.049.002-.006.016-.049.002-.004.018-.049.002-.004.016-.049.002-.005.016-.049.002-.004.018-.049.002-.004.018-.049v-.004l.018-.049.002-.004.018-.049.002-.006.018-.049.002-.004.018-.049.002-.006.021-.047.002-.004.021-.049.002-.004.021-.049.002-.006.021-.049.002-.006.021-.049.002-.006.021-.049.002-.006.021-.049.002-.006.021-.049.002-.005.04-.068.002-.006.021-.047.002-.006.021-.049.002-.004.023-.049.002-.004.023-.047.002-.004.021-.047.002-.006.023-.047.002-.004.023-.047.002-.004.019-.049.002-.004.023-.047.002-.006.023-.047.002-.004.023-.047.002-.006.023-.047.002-.004.023-.047.002-.004.023-.047.002-.004.023-.047.002-.004.025-.045.002-.004.025-.047.001-.009.025-.047.002-.004.025-.047.002-.006.024-.046.002-.004.025-.045.002-.004.025-.045.002-.006.025-.045.004-.004.025-.045.002-.006.025-.045.004-.004.025-.045.002-.004.025-.045.004-.006.025-.047.002-.004.025-.045.002-.004.027-.045.002-.004.027-.045.002-.004.027-.045.004-.004.027-.045.002-.004.027-.045.004-.004.027-.045.002-.004.027-.045.004-.004.027-.045.002-.004.029-.045.004-.006.029-.045.002-.004.027-.043.004-.004.029-.043.004-.004.027-.045.002-.004.029-.043.002-.004.029-.043.004-.004.029-.045.004-.004.029-.043.002-.006.029-.043.002-.004.029-.043.002-.004.031-.043.004-.004.029-.043.004-.004.031-.043.002-.004.031-.043.002-.004.031-.043.002-.004.031-.043-.002-.01.031-.043.002-.004.031-.043.004-.004.031-.041.001-.004.031-.043.004-.004.031-.041.004-.004.031-.041.004-.004.031-.041.004-.004.031-.041.002-.004.031-.041.004-.004.033-.041.004-.004.033-.041.004-.004.033-.041.004-.004.033-.041.004-.004.033-.041.004-.006.033-.041.002-.004.033-.041.004-.004.033-.041.004-.004.033-.039.004-.004.033-.041.004-.004.033-.041.004-.004.035-.039.004-.004.033-.041.004-.004.033-.039.004-.004.033-.041.004-.004.035-.041.002-.004.035-.039.004-.004.035-.039.004-.004.035-.039.004-.004.035-.039.002-.004.035-.039.004-.004.035-.039.004-.004.035-.039.002-.004.035-.039.004-.004.037-.039.002-.004.037-.039.004-.004.039-.037.004-.004.037-.039.004-.004.037-.039.004-.004.037-.037.004-.004.037-.037.004-.004.037-.037.004-.004.039-.037.004-.004.037-.037.004-.004.037-.037.004-.004.037-.037.004-.004.037-.037.004-.004.037-.037.004-.004.037-.037.004-.004.037-.037.004-.004.039-.035.004-.004.039-.035.004-.004.039-.037.004-.004.039-.037.004-.002.039-.035.004-.002.039-.035.004-.004.039-.035.004-.004.039-.035.004-.004.039-.035.004-.002.041-.035.004-.004.041-.035.004-.004.041-.035.004-.004.041-.033.004-.004.041-.033.004-.004.039-.033.004-.004.041-.033.004-.004.041-.033.004-.002.041-.033.004-.004.041-.033.004-.004.041-.033.004-.004.043-.033.004-.004.041-.033.004-.004.043-.033.004-.004.043-.033.004-.004.041-.033.004-.002.043-.033.004-.004.041-.033.004-.004.043-.031.004-.004.043-.033.004-.004.043-.031.004-.002.043-.031.006-.004.043-.031.004-.002.043-.031.004-.004.043-.033.004-.002.045-.031.004-.004.043-.031.006-.002.043-.031.004-.002.043-.031.004-.002.045-.031.004-.004.043-.031.004-.002.045-.029.004-.002.043-.031.006-.004.045-.029.004-.004.045-.031.004-.004.045-.029.006-.002.045-.029.004-.004.045-.029.004-.002.045-.029.004-.002.045-.029.004-.002.045-.029.006-.002.045-.027h.002L34.754 4.875l.002-.002.043-.027.004-.002.045-.029.006-.004.046-.026.006-.004.045-.027.006-.004.045-.027.006-.002.047-.027.004-.004.045-.027.006-.002.045-.027.004-.002.047-.025.004-.004.047-.025.004-.004.045-.025.006-.002.047-.025.004-.004.045-.025.006-.004.045-.025.006-.004.045-.025.004-.004.047-.025.004-.002.045-.025.006-.002.045-.025.006-.002.047-.025.006-.002.047-.025.004-.002.047-.023.006-.002.047-.023.006-.002.045-.023.006-.002.047-.023.004-.002.047-.023.006-.002.047-.023.006-.004.047-.023.006-.002.047-.023.006-.002.047-.021.006-.002.047-.021.004-.004.047-.021.004-.002.047-.021.006-.004.047-.021.006-.002.047-.021.006-.002.047-.021.006-.002.047-.021.006-.002.047-.021.006-.002.047-.018.006-.002.047-.021.006-.002.049-.021.006-.002.049-.021.006-.004.047-.018.004-.002.049-.018.006-.002.047-.018.004-.002.049-.018.006-.002.049-.016.006-.002.049-.018.006-.002.049-.018.006-.002.049-.016.006-.002.049-.016.006-.002.047-.016.006-.002.049-.016.006-.002.047-.016.006-.002.049-.016.004-.002.049-.016.006-.002.049-.016.006-.002.049-.016.006-.002.049-.014.004-.002.049-.014.006-.002.049-.014h.006l.049-.014.006-.002.049-.014.004-.002.049-.014h.024l.049-.014.006-.002.049-.014.006-.002.049-.014.006-.002.049-.012.006-.002.049-.012.004-.002.049-.014.005-.002.051-.012h.004l.049-.014h.006l.051-.012.006-.002.051-.012.006-.002.049-.012h.006l.051-.012h.006l.049-.012.006-.002.049-.01.006-.002.049-.012.006-.002.049-.01h.006l.049-.01.006-.002.049-.01h.004l.049-.01.006-.002.051-.01h.004l.051-.01.004-.002.051-.01.006-.002.051-.01.006-.002.051-.008h.006l.049-.008.006-.002.051-.01.006-.002.051-.008h.006l.049-.008.006-.002.051-.008.006-.002.049-.008h.004l.049-.008h.006l.051-.008.006-.002.051-.008h.006L39.971 3h.006l.051-.008h.006l.051-.006h.006l.049-.006h.006l.051-.006.006-.002.051-.006.004-.002.051-.004h.006l.049-.006h.006l.049-.006h.006l.051-.006h.006l.051-.006h.006l.049-.004h.006l.051-.006.006-.002.051-.004.006-.002.051-.004h.006l.05-.004h.006l.051-.004h.006l.051-.002.006-.002.051-.004.004-.002.051-.002h.006l.051-.004h.004l.051-.002h.006l.051-.002h.006l.051-.002h.006l.051-.002.006-.002.051-.002h.006l.051-.002h.006l.051-.002h.006l.051-.002h.006l.051-.002h.004l.051-.002h.064l.051-.002h.119zm-.047 5.538h-.101l-.035.001-.035.001-.035.001-.035.002-.035.002-.035.002-.033.002-.035.002-.033.002-.033.002-.033.002-.035.002-.033.002-.035.004-.035.004-.033.004-.035.004-.035.004-.035.004-.033.004-.032.006-.033.004-.033.004-.035.004-.033.004-.032.004-.033.004-.033.004-.035.004-.033.006-.033.004-.035.006-.033.006-.033.006-.033.006-.031.008-.033.006-.033.006-.033.004-.035.006-.033.006-.035.006-.033.006-.033.006-.032.007-.033.008-.033.008-.033.008-.033.006-.033.006-.033.008-.032.009-.033.008-.033.008-.033.008-.033.008-.033.008-.031.01-.033.008-.033.008-.033.01-.033.008-.033.01-.031.01-.033.01-.033.01-.033.01-.033.01-.033.01-.031.01-.033.01-.033.012-.033.01-.033.01-.03.016-.033.01-.033.01-.031.01-.033.013-.033.012-.032.013-.031.012-.033.012-.031.012-.03.013-.033.014-.033.012-.033.012-.033.013-.031.014-.031.012-.033.014-.031.014-.03.016-.031.014-.033.014-.031.014-.033.014-.031.014-.031.014-.029.016-.033.015-.031.014-.031.014-.03.017-.031.016-.031.014-.031.016-.031.014-.031.016-.031.016-.031.016-.031.016-.031.016-.029.022-.029.016-.031.016-.029.016-.03.02-.031.018-.03.018-.029.016-.031.019-.029.019-.031.018-.03.019-.033.021-20.596 12.693-.035.023-.033.021-.031.021-.031.021-.031.021-.031.021-.031.021-.031.021-.031.021-.031.021-.031.021-.031.021-.031.023-.029.021-.029.021-.031.021-.029.021-.029.021-.029.021-.029.021-.029.021-.029.021-.029.023-.023.01-.029.023-.029.023-.029.023-.029.023-.029.023-.029.023-.027.023-.029.023-.029.023-.027.023-.029.023-.029.023-.027.023-.029.023-.027.023-.027.023-.027.025-.027.025-.027.023-.027.023-.027.025-.027.025-.027.025-.027.025-.027.025-.027.025-.027.025-.027.025-.027.025-.027.025-.027.025-.025.025-.027.025-.025.027-.027.025-.025.027-.025.025-.025.027-.025.025-.025.027-.025.027-.027.027-.025.025-.025.027-.025.027-.025.027-.007.008-.025.027-.025.027-.025.027-.025.029-.025.027-.023.027-.023.027-.025.029-.023.027-.025.027-.023.029-.023.027-.023.029-.023.029-.023.029-.023.029-.023.029-.023.029-.021.029-.023.029-.023.029-.023.029-.023.029-.021.029-.021.029-.021.029-.021.031-.021.029-.021.029-.021.031-.021.029-.021.029-.021.029-.021.029-.018.031-.021.031-.021.029-.021.031-.018.031-.018.029-.018.031-.018.031-.018.031-.018.031-.021.031-.021.031-.018.031-.018.031-.018.031-.018.031-.018.031-.007.017-.018.031-.018.031-.018.031-.018.031-.018.033-.018.031-.018.031-.018.033-.016.031-.016.033-.016.033-.016.033-.016.031-.016.031-.016.033-.016.031-.016.033-.014.031-.016.033-.016.033-.016.033-.016.033-.016.033-.014.033-.024.028-.014.033-.014.033-.014.033-.014.033-.014.033-.014.033-.014.033-.012.033-.014.033-.014.035-.014.033-.014.033-.014.033-.012.033-.014.035-.014.033-.012.033-.012.035-.012.033-.012.035-.012.033-.012.035-.012.035-.012.035-.01.035-.012.033-.012.035-.01.035-.01.033-.01.035-.012.035-.01.033-.01.033-.01.035-.012.035-.01.035-.01.033-.01.035-.01.035-.01.035-.01.035-.01.035-.008.035-.008.035-.01.035-.008.035-.01.035-.008.035-.008.035-.008.037-.008.035-.008.035-.008.035-.024.027-.008.035-.008.035-.006.035-.008.035-.006.035-.006.037-.006.037-.006.037-.006.037-.006.035-.006.035-.006.037-.006.037-.006.035-.006.035-.006.035-.006.037-.004.037-.004.037-.004.035-.006.037-.006.035-.004.037-.004.037-.004.037-.004.037-.004.037-.008.034-.004.035-.004.037-.004.037-.002.037-.004.037-.004.037-.002.037-.002.037-.002.037-.002.037-.002.037-.002.037-.002.037-.002.037-.002.037-.002.037v.037l-.002.037-.002.037v.037l-.002.037v26.011l.002.037v.111l.002.035.002.037.002.037.002.037.002.037.002.037.002.037.002.037.002.037.004.037.002.037.002.037.002.037.004.035.004.037.004.035.002.037.004.035.004.035.004.035.004.035.004.037.004.035.004.035.004.037.004.037.004.035.004.037.006.035.006.035.006.035.006.035.006.037.006.035.006.035.006.035.006.035.008.035.006.035.006.035.006.035.008.035.008.035.006.035.008.035.008.035.008.035.008.035.008.035.008.035.008.035.008.033.01.033.008.035.008.035.008.035.01.035.008.033.008.035.008.033.01.035.008.033.01.035.01.035.01.033.01.035.01.035.01.033.01.035.012.033.012.033.012.033.012.033.01.033.012.035.012.033.012.033.012.033.012.033.012.033.012.033.012.033.012.033.012.033.014.033.014.033.012.033.012.033.012.033.012.033.012.033.014.033.014.033.014.033.014.033.014.033.014.033.014.033.014.033.014.033.014.033.014.033.014.031.016.033.016.031.016.033.016.031.016.031.016.031.016.031.016.031.016.031.018.031.016.031.016.031.016.031.018.031.018.031.016.031.016.031.016.031.018.031.016.031.018.029.018.031.018.029.018.031.018.031.018.029.018.029.018.029.018.029.018.031.018.031.021.029.018.029.018.031.018.029.018.029.021.029.021.029.021.031.021.029.021.029.021.029.021.029.021.029.021.029.021.029.023.029.023.029.021.029.021.029.021.029.021.029.023.027.023.027.023.029.023.027.023.029.023.027.023.027.023.027.023.027.023.027.023.027.023.027.023.027.023.027.023.027.023.027.025.027.025.027.023.027.025.025.025.027.025.025.025.027.023.027.025.027.025.025.025.025.025.025.025.025.025.027.025.025.025.025.025.025.025.025.025.025.027.025.025.025.025.025.027.025.025.025.025.025.027.025.027.023.027.023.027.025.027.025.027.023.027.023.027.025.027.025.027.023.029.023.029.023.029.023.027.023.027.023.029.023.027.023.029.021.027.023.029.023.029.023.029.023.027.021.029.023.029.021.029.023.029.023.029.021.029.021.031.021.029.021.029.021.029.021.029.021.029.021.029.021.031.021.031.018.031.021.029.021.031.021.031.021.029.018.031.018.031.018.031.018.031.018.031.018.033.018.031.018.031.018.035.021 21.474 12.554.027.016.023.012.025.012.025.012.025.012.023.014.025.012.025.012.025.012.025.014.025.012.025.012.025.012.025.012.025.012.025.012.025.012.025.012.023.012.025.012.025.012.025.01.025.012.025.01.025.01.025.01.025.012.025.012.025.01.025.012.025.01.025.01.025.01.025.01.025.01.025.01.025.01.025.01.025.01.025.008.027.01.025.01.025.01.025.01.025.01.025.008.025.01.025.008.025.008.027.008.025.008.023.008.053.016.051.016.051.014.051.014.051.014.051.014.051.014.051.014.051.014.051.012.051.012.051.012.051.01.051.012.051.01.051.01.051.01.051.008.051.01.051.008.051.008.053.008.051.008.053.006.053.006.053.006.053.004.051.004.053.004.051.004.053.004.053.004.051.004.051.002.051.002.053.002h.263l.053-.002h.053l.053-.002.053-.002.053-.004.053-.004.053-.002.053-.004.053-.004.053-.004.051-.004.053-.006.053-.006.051-.006.053-.006.051-.008.053-.008.051-.008.053-.008.051-.008.051-.01.051-.008.053-.01.051-.01.051-.012.051-.01.051-.012.051-.012.051-.012.051-.012.051-.014.051-.014.051-.014.051-.014.053-.016.025-.008.025-.008.025-.008.027-.008.025-.008.027-.008.025-.008.025-.008.027-.008.025-.008.025-.008.027-.01.025-.008.027-.008.025-.01.025-.008.025-.008.025-.008.027-.01.025-.008.025-.01.025-.01.025-.01.025-.01.025-.01.025-.01.025-.01.025-.01.025-.01.025-.01.025-.012.025-.012.025-.01.025-.012.025-.012.025-.01.025-.012.025-.012.025-.012.023-.012.025-.012.025-.012.025-.012.025-.012.025-.012.025-.012.005-.065.025-.012.023-.012.025-.012.025-.012.027-.014 23.79-13.258.029-.014.027-.014.025-.014.025-.014.025-.014.025-.016.027-.014.025-.014.025-.014.025-.014.025-.016.025-.016.025-.014.025-.014.025-.014.025-.016.025-.016.025-.014.025-.016.025-.014.023-.016.023-.016.023-.016.023-.016.023-.016.025-.016.023-.016.025-.016.023-.016.023-.016.023-.016.023-.016.023-.016.025-.016.023-.018.023-.016.023-.018.023-.016.023-.018.023-.018.023-.018.023-.016.023-.016.023-.018.021-.018.023-.018.023-.018.021-.016.023-.018.023-.021.021-.018.023-.018.021-.018.021-.018.021-.021.023-.018.021-.021.021-.018.021-.021.021-.021.021-.018.021-.021.021-.018.021-.021.021-.021.021-.021.021-.021.018-.021.021-.021.018-.021.021-.021.021-.021.021-.021.018-.021.018-.021.018-.021.018-.021.021-.021.018-.021.018-.021.018-.021.018-.021.018-.021.018-.021.018-.021.018-.023.018-.023.018-.023.018-.021.018-.021.018-.021.018-.023.018-.021.018-.023.016-.021.016-.023-.006-.029.016-.021.018-.023.016-.023.016-.023.016-.023.016-.023.016-.023.016-.023.016-.023.016-.023.016-.023.016-.023.016-.023.016-.023.014-.023.014-.025.016-.025.016-.023.014-.023.014-.023.016-.025.016-.023.014-.023.014-.025.014-.025.014-.025.014-.025.014-.023.014-.025.014-.025.014-.023.014-.025.014-.025.014-.025.012-.025.012-.025.014-.025.014-.025.012-.025.014-.025.014-.025.012-.025.012-.025.012-.027.012-.025.014-.025.014-.025.012-.025.012-.025.012-.025.012-.027.012-.025.012-.025.012-.027.012-.025.012-.025.012-.027.012-.027.012-.027.012-.025.01-.025.01-.027.01-.027.01-.027.01-.025.01-.027.01-.027.01-.027.01-.025.01-.027.01-.027.01-.027.01-.027.01-.027.008-.027.008-.027.008-.027.008-.027.01-.027.01-.027.01-.027.01-.027.008-.027.01-.027.008-.027.008-.027.01-.027.008-.027.008-.027.008-.027.008-.027.006-.027.008-.027.008-.027.008-.027.008-.027.006-.027.006-.029.008-.027.006-.027.006-.029.008-.027.006-.027.006-.027.006-.027.006-.029.006-.027.006-.027.004-.029.006-.029.006-.027.004-.029.006-.027.006-.029.006-.029.006-.027.006-.029.004-.029.006-.029.004-.027.006-.027.004-.029.004-.029.004-.029.038.016.004-.029.004-.029.004-.029.002-.029.004-.027.002-.029.004-.029.004-.027.004-.029.002-.029.002-.029.002-.029.002-.029.004-.029.002-.029.002-.029.002-.029.002-.029.002-.029.002-.029.002-.029.002-.029.002-.029.002-.029.002-.029v-.057l.004-.022V28.502l-.002-.025-.002-.027v-.027l-.002-.027v-.026l-.002-.027v-.027l-.002-.026-.002-.025-.002-.027-.002-.027-.002-.027-.002-.025-.002-.027-.002-.025-.002-.027-.004-.027-.002-.025-.002-.025-.004-.025-.002-.025-.004-.027-.002-.025-.004-.025-.004-.027-.002-.027-.002-.025-.004-.023-.008-.054-.006-.052-.008-.053-.008-.051-.01-.051-.01-.051-.008-.051-.01-.051-.012-.051-.012-.051-.016-.046-.012-.051-.012-.051-.012-.051-.012-.051-.014-.051-.014-.051-.014-.051-.016-.051-.014-.049-.016-.049-.016-.049-.016-.049-.016-.049-.018-.049-.018-.049-.018-.047-.018-.049-.018-.049-.026-.054-.021-.047-.018-.049-.021-.047-.021-.047-.019-.048-.023-.047-.021-.047-.023-.047-.023-.047-.023-.045-.025-.047-.023-.047-.025-.047-.025-.045-.025-.045-.025-.045-.025-.045-.025-.045-.027-.045-.027-.045-.027-.045-.029-.045-.027-.043-.027-.043-.029-.043-.029-.043-.029-.043-.029-.043-.029-.043-.029-.043-.031-.041-.031-.041-.031-.041-.031-.041-.031-.041-.033-.041-.033-.041-.033-.041-.033-.041-.033-.039-.035-.039-.033-.039-.035-.039-.035-.039-.035-.039-.035-.039-.035-.039-.037-.037-.037-.037-.037-.037-.037-.037-.037-.037-.039-.037-.039-.037-.039-.035-.039-.035-.039-.035-.039-.035-.039-.035-.041-.035-.041-.033-.041-.033-.027-.035-.043-.035-.018-.014-.021-.016-.021-.016-.021-.016-.021-.016-.021-.014-.021-.016-.021-.016-.023-.016-.023-.016-.021-.016-.021-.016-.021-.016-.021-.014-.021-.016-.023-.016-.021-.014-.021-.014-.023-.016-.015-.021-.023-.014-.021-.014-.023-.014-.023-.014-.023-.014-.023-.014-.023-.014-.023-.014-.023-.014-.023-.014-.023-.014-.023-.012-.023-.012-.021-.019L45.988 9.484l-.033-.02-.03-.016-.031-.018-.031-.018-.03-.017-.031-.016-.03-.016-.031-.016-.031-.016-.031-.016-.03-.016-.029-.02-.031-.016-.031-.016-.031-.016-.031-.016-.031-.016-.031-.014-.031-.016-.031-.014-.031-.014-.031-.016-.032-.014-.031-.014-.031-.014-.032-.014-.031-.014-.031-.012-.032-.014-.031-.014-.031-.014-.032-.012-.031-.012-.033-.012-.032-.014-.029-.021-.033-.014-.033-.012-.032-.012-.032-.012-.031-.014-.033-.012-.033-.012-.031-.012-.031-.01-.031-.01-.033-.012-.033-.01-.031-.01-.033-.01-.033-.01-.031-.01-.033-.01-.033-.01-.033-.01-.031-.01-.033-.01-.033-.01-.033-.01-.033-.008-.033-.01-.033-.008L44 8.637l-.033-.008-.033-.009-.033-.008-.033-.01-.033-.008-.033-.008-.032-.007-.033-.008-.033-.008-.033-.008-.033-.006-.032-.009-.033-.006-.033-.006-.032-.008-.033-.006-.033-.006-.033-.006-.033-.006-.033-.006-.033-.006-.035-.006-.033-.004-.032-.006-.033-.004-.032-.004-.033-.006-.033-.006-.033-.004-.035-.006-.033-.004-.033-.006-.033-.004-.032-.005-.033-.004-.033-.004-.033-.004-.035-.004-.033-.002-.033-.004-.033-.004-.032-.003-.033-.002-.032-.002-.033-.002-.033-.002-.035-.002-.035-.002-.033-.002-.033-.002h-.033l-.033-.002-.032-.002h-.035l-.033-.002-.032-.002-.031-.002-.033-.002h-.068l-.032-.002h-.066z" style="fill-rule:evenodd;clip-rule:evenodd;fill:#c9177e"/><path d="M26.276 63.604V21.096h8.894V36.58h14.753V21.096h8.919v42.508h-8.919V45.018H35.17v18.587z" style="fill:#fff"/></svg>