<svg xmlns="http://www.w3.org/2000/svg" viewBox="0 0 2029 290"><path d="M831.276 229.22c0 16.63-18.589 37.296-39.925 37.296-19.558 0-37.66-9.526-37.66-44.077l.322-98.97h-48.49l-.647 91.544c0 13.4 4.526 19.858 13.74 19.858 5.171 0 8.243-2.26 11.152-4.52 4.526-3.552 5.819-5.813 10.183-5.813 1.213.052 2.351.6 3.147 1.517a4.4 4.4 0 0 1 1.056 3.327c0 16.63-18.265 37.295-41.218 37.295-18.265 0-36.368-9.526-36.368-44.076l.324-98.97h-9.86c-10.183 0-12.77-1.938-12.77-8.234 0-5.812 1.617-8.234 8.244-11.14 9.213-4.198 14.062-7.911 19.235-15.984 11.799-17.598 11.476-35.035 26.508-35.035 4.849 0 6.789 2.906 6.789 6.942l-.324 39.233h27.802c12.123 0 19.235-.646 26.185-11.14 11.8-17.598 11.476-35.035 26.508-35.035 4.203 0 6.789 2.583 6.789 6.942l-.323 39.233h34.105c5.172 0 8.243 1.292 8.243 8.234 0 6.135-1.293 15.984-11.476 15.984H792.16l-.324 91.543c0 13.4 4.526 19.859 13.416 19.859 5.172 0 8.244-2.26 11.476-4.844 4.526-3.875 5.82-5.49 9.86-5.49a4.14 4.14 0 0 1 3.446 1.12 4.13 4.13 0 0 1 1.242 3.401m89.223 25.833c0 4.197-1.617 7.265-6.466 7.265-7.92 0-20.528-1.615-32.004-1.615h-13.092c-11.153 0-23.6 1.615-31.034 1.615-4.526 0-5.82-2.906-5.82-7.265 0-7.912 6.143-10.172 12.123-12.432 6.143-1.938 13.093-6.135 13.093-15.661l-.647-148.051c-.323-8.234-4.849-16.307-22.305-18.567-4.85-.646-7.597-2.906-7.597-6.781s1.293-7.266 7.273-8.557c43.157-8.88 43.804-16.63 53.664-16.63 4.202 0 6.788 3.552 6.788 9.526 0 3.229-.323 8.88-.323 24.864l-.647 164.357c0 8.88 5.496 12.755 13.093 15.015 6.142 2.1 13.9 4.36 13.9 12.917M591.085 57.274c0-12.432 10.83-22.603 23.922-22.603 13.416 0 23.922 10.171 23.922 22.603s-10.506 22.28-23.922 22.28c-13.092 0-23.922-9.848-23.922-22.28m403.444 99.777c1.616-1.614 1.616-4.52 1.616-8.234 0-16.306-8.243-31.967-21.012-31.967-13.416 0-24.246 16.63-24.246 46.66v4.843c0 52.633 22.63 67.002 37.985 67.002 12.122 0 17.941-3.229 22.952-8.234 3.88-3.552 6.142-8.234 11.476-8.234 4.526 0 6.142 3.23 6.142 7.266 0 17.92-21.659 40.847-50.753 40.847-43.48 0-67.726-38.587-67.726-85.247 0-52.31 32.327-88.152 67.08-88.152 35.72 0 53.016 28.092 53.016 65.71 0 7.589-.323 13.078-2.91 16.63-4.202 5.49-10.183 5.49-23.922 5.49h-33.943c-5.82 0-9.86-2.584-9.86-8.234 0-8.557 5.495-10.818 16.972-12.11 11.8-1.452 15.193-2.098 17.133-4.036m-420.416 36.166c0 8.88-8.89 24.863-14.062 43.107-2.91 10.495-1.94 18.244-3.233 24.218-.646 3.875-3.232 5.49-8.243 5.49-8.567 0-21.66-6.459-65.786-6.459h-11.153c-20.205 0-40.247 2.583-59.805 2.583-10.507 0-10.83-5.812-10.83-9.848 0-15.984 30.71-7.265 30.71-39.233V71.966c0-25.509-29.094-19.212-29.094-35.68a7.02 7.02 0 0 1 1.887-5.039 7.04 7.04 0 0 1 4.902-2.227c5.496 0 20.69 1.938 41.54 1.938h4.85c21.012 0 38.954-1.938 41.54-1.938a6.94 6.94 0 0 1 4.932 2.2 6.92 6.92 0 0 1 1.857 5.065c0 16.307-30.064 10.172-30.064 35.358l-.647 142.4c-.323 16.953 8.567 20.344 25.539 20.344h12.122c11.8 0 21.983-7.266 28.448-18.244l13.093-22.604c5.172-8.556 9.213-10.171 12.769-10.171 6.789.161 8.728 5.328 8.728 9.849m86.637 61.19c0 4.198-1.293 7.91-5.819 7.91-7.92 0-21.012-1.614-32.65-1.614h-13.093c-11.799 0-24.892 1.615-32.65 1.615-4.85 0-6.142-3.552-6.142-7.911 0-7.266 6.142-9.203 12.446-11.14 6.788-2.26 14.709-6.458 14.709-16.307l-.647-82.34c-.323-8.234-4.849-16.63-22.629-18.567-4.85-.646-7.274-3.23-7.274-6.781 0-3.875 1.293-7.266 7.274-8.557 42.834-9.203 39.924-16.953 53.34-16.953 4.526 0 7.597 3.552 7.597 9.849 0 3.229-.647 8.88-.647 24.863l-.646 98.647c0 9.203 5.819 13.4 13.092 15.661 5.98 2.1 13.74 3.714 13.74 11.625m951.713-39.556c0 25.51-18.265 51.342-53.34 51.342a70.9 70.9 0 0 1-34.105-9.203c-5.819 4.844-10.183 6.781-12.123 6.781-6.465 0-8.243-6.458-8.243-13.723 0-9.849 0-16.63-1.293-22.28-1.293-6.459-3.233-11.14-3.233-17.276 0-7.588 3.88-11.786 9.86-11.786 4.849 0 7.273 2.26 10.506 10.171 10.183 25.833 21.66 33.905 37.985 33.905 12.446 0 18.911-7.91 18.911-15.338 0-11.14-8.567-18.244-19.881-24.217l-11.153-5.813c-37.338-18.89-44.127-31.967-44.127-53.602 0-26.478 20.851-50.373 51.4-50.373a47.8 47.8 0 0 1 28.449 8.557c3.879-3.874 6.142-6.458 9.86-6.458a7.52 7.52 0 0 1 5.607 2.079 7.5 7.5 0 0 1 2.313 5.51v10.494c0 10.817 3.556 21.634 3.556 31.321 0 6.781-2.587 11.464-8.567 11.464-7.274 0-10.507-5.49-16.325-17.922-5.82-11.14-12.446-23.249-25.539-23.249-9.536 0-17.618 5.813-17.618 16.953 0 7.91 2.91 14.046 16.002 20.989l16.325 8.556c23.76 12.917 44.773 24.703 44.773 53.118m267.185-103.975c0 14.046-9.86 22.926-19.558 22.926-6.466 0-11.153-3.552-16.972-3.552-16.649 0-23.276 26.478-23.922 50.373l-.323 46.337c0 8.557 5.495 12.432 13.092 15.015 6.466 2.26 14.709 3.552 14.709 11.786 0 4.52-1.293 8.557-6.465 8.557-7.92 0-21.013-1.615-32.974-1.615h-13.093c-13.416 0-42.833.646-60.452.646-8.89 0-17.618.323-24.245.969-10.506 0-9.86-6.943-9.86-32.613l-.323-44.4a45 45 0 0 0-10.83 1.292c-16.325 3.23-28.771 16.952-28.771 31.322 0 15.015 8.567 22.603 24.892 21.311 5.496-.646 7.597.323 7.597 2.906 0 14.047-19.235 24.218-33.782 24.218-20.528 0-38.631-16.306-38.631-40.524 0-31.322 24.892-55.217 69.665-61.19a69 69 0 0 1 9.86-.646v-5.167c0-31.321-5.82-41.816-20.366-41.816-12.77 0-19.235 6.781-24.892 20.666-3.556 9.203-6.95 19.213-14.71 19.213-6.303 0-9.212-4.52-9.212-13.4 0-10.495 3.879-21.312 3.879-31.645v-8.88a7.36 7.36 0 0 1 2.03-5.65 7.38 7.38 0 0 1 5.567-2.261c2.91 0 8.243 2.26 13.739 5.812 8.89-5.166 18.265-9.525 31.68-9.525 20.367 0 34.429 8.556 41.864 22.926 6.466 12.431 8.567 29.061 8.567 48.435v29.384c-.647 46.66 6.465 52.634 21.982 52.634 12.123 0 22.953-8.88 22.953-20.182l-.647-80.403c0-7.588-4.526-15.015-22.629-16.952-4.338-.426-7.556-4.212-7.273-8.557 0-3.875 1.616-7.588 6.788-8.557 39.601-8.234 36.692-16.953 48.814-16.953 5.496 0 9.214 3.552 9.214 9.526 0 3.552-.647 9.203-.647 25.187v6.78c9.86-31.967 25.862-45.367 43.157-45.367 12.446-.162 20.528 9.687 20.528 21.634m-758.559 27.447c0 67.648 21.983 100.261 50.107 99.616 13.74 0 25.539-14.047 34.106-32.29 8.89-18.89 12.122-21.635 18.911-21.958 5.819 0 8.89 3.875 8.89 9.203 0 6.78-2.586 14.369-5.496 23.249-5.818 18.244-6.788 27.77-11.152 40.201-1.94 5.49-6.143 6.781-10.184 7.266-3.556 0-8.243-1.615-12.122-7.912-8.89 6.458-16.326 10.495-33.297 10.818-42.834.645-85.344-42.785-85.344-118.99 0-66.034 42.187-122.542 97.143-123.51 17.942-.324 30.388 4.52 45.42 13.723 6.465-5.49 9.536-8.88 15.679-8.88a8.09 8.09 0 0 1 6.09 2.24 8.07 8.07 0 0 1 2.476 5.994c0 8.557-4.525 12.754-9.213 24.54-4.849 12.432-5.172 21.312-6.465 27.447-1.94 7.911-4.85 16.953-12.77 16.953-6.465 0-10.183-4.521-10.183-10.818l-.323-15.983c-.323-17.921-10.83-30.353-31.034-30.03-28.61.645-51.239 36.326-51.239 89.121m869.28 76.528c0 25.51-19.235 51.342-56.573 51.342a74.7 74.7 0 0 1-35.075-9.203c-5.82 4.844-10.183 6.781-12.123 6.781-6.465 0-8.243-6.458-8.243-13.723 0-9.849 0-16.63-1.293-22.28-1.293-6.459-3.233-11.14-3.233-17.276 0-7.588 3.88-11.786 9.86-11.786 4.849 0 7.273 2.26 10.506 10.171 10.183 25.833 22.306 33.905 38.954 33.905 14.71 0 22.306-7.91 22.306-15.338 0-10.817-8.89-17.275-19.881-23.572l-11.8-6.62c-35.721-19.858-42.833-31.967-42.833-53.601a50.02 50.02 0 0 1 14.788-35.83 50.14 50.14 0 0 1 35.966-14.543 47.8 47.8 0 0 1 28.448 8.557c3.879-3.875 6.142-6.458 9.86-6.458a7.52 7.52 0 0 1 5.607 2.078 7.5 7.5 0 0 1 2.313 5.51v10.494c0 10.818 3.556 21.635 3.556 31.322 0 6.781-2.587 11.463-8.567 11.463-7.274 0-10.506-5.49-16.325-17.921-5.82-11.14-12.446-23.25-25.539-23.25-9.213 0-16.972 5.813-16.972 16.953 0 7.911 2.91 14.047 15.356 20.99l16.325 9.202c23.276 13.4 44.612 24.54 44.612 52.633m-534.37-57.8c1.617-1.614 1.617-4.52 1.617-8.234 0-16.306-8.244-31.967-21.013-31.967-13.416 0-24.245 16.63-24.245 46.66v4.843c0 52.633 22.629 67.002 37.984 67.002 12.123 0 17.942-3.229 22.952-8.234 3.88-3.552 6.143-8.234 11.477-8.234 4.525 0 6.142 3.23 6.142 7.266 0 17.92-21.66 40.847-50.754 40.847-43.48 0-67.726-38.587-67.726-85.247 0-52.31 32.328-88.152 67.08-88.152 35.721 0 53.016 28.092 53.016 65.71 0 7.589-.323 13.078-2.91 16.63-4.202 5.49-10.182 5.49-23.921 5.49h-33.944c-5.819 0-9.86-2.584-9.86-8.234 0-8.557 5.496-10.818 16.972-12.11 11.961-1.452 15.194-2.098 17.133-4.036m-75.16 95.418c0 4.521-1.94 9.849-6.95 9.849-2.264 0-12.447-.969-19.559-.969-9.213 0-17.941.646-24.245.969-10.507 0-9.86-6.943-9.86-32.613l-.323-44.4a45.8 45.8 0 0 0-11.153 1.292c-16.325 3.23-28.448 17.275-28.448 31.322 0 15.015 8.243 22.926 24.892 21.311 5.495-.646 7.597.323 7.597 2.906 0 14.047-19.235 24.218-33.62 24.218-21.013 0-38.632-16.306-38.632-40.524 0-30.999 24.569-54.894 69.666-61.19a69 69 0 0 1 9.86-.646v-5.167c0-31.321-6.143-41.816-20.205-41.816-13.093 0-19.235 7.266-24.892 20.666-3.556 9.203-6.789 19.213-14.71 19.213-6.141 0-9.212-4.52-9.212-13.4 0-10.495 3.556-21.312 3.556-31.645v-8.88a7.52 7.52 0 0 1 2.086-5.596 7.54 7.54 0 0 1 5.51-2.315c3.233 0 8.244 2.26 13.74 5.812 8.89-4.843 18.588-9.525 32.004-9.525 20.527 0 34.266 8.88 42.187 23.249 6.465 12.431 8.243 28.738 8.243 48.112v29.061c0 43.108 4.85 50.05 16.649 52.957 4.849 1.13 5.819 4.197 5.819 7.75M15.96 225.924c5.591 5.215 13.266 7.004 20.776 6.558 23.732-10.137 11.168-40.836 17.803-59.622.345-1.041.697-1.934 1.222-2.832l1.571-.591c9.426 6.856 15.886 15.054 19.723 25.778l14.313 26.38c.351 2.239-.522 2.685-3.316 4.473l.349 14.457c2.617 4.922 6.636 8.049 9.949 10.583.346.296.699.601 1.045.745 1.05.297 2.271.148 3.669.148 1.742-.148 3.313-.148 4.366.744l3.136 5.519 2.967 5.513 5.062 9.392 5.933 10.731h16.235l-6.806-12.815c9.422 3.872 15.365 10.433 24.439 12.815h7.677c8.205-3.275 10.646-11.331 14.311-17.293l1.223.296 9.426 16.994h16.058l-.871-1.346 9.951-16.985 10.647-16.842 7.685-11.925 6.098-9.54c6.108-13.114 11.345-26.678 13.616-42.329 6.986 29.216-3.317 59.322-6.982 86.293 1.918 1.644 2.971 2.089 5.065 2.241 9.95-31.152 14.834-69.901 7.863-105.673l7.677 9.241 6.101-3.276c1.75-1.191 3.496-2.239 5.065-3.28a352 352 0 0 1 7.328-4.474c.873-.448 1.576-.893 2.271-1.335.874-.596 1.751-1.05 2.439-1.496 8.38-4.915 16.411-9.536 23.566-15.499l-11.698-33.832c-.696 1.94-3.134 4.616-5.927 3.128-2.443-8.047 1.743-18.032 4.883-26.525 11.701 18.328 18.151 38.751 24.436 59.319-10.816 8.496-23.56 16.394-35.258 23.547-.69.452-1.567 1.046-2.441 1.491-.695.449-1.398.893-2.271 1.337-2.442 1.641-4.884 3.131-7.328 4.626 0 0 0 .147-.17.147l-4.896 3.581 5.065 6.105 7.328 8.797 2.271 2.681 2.441 2.979 44.157 52.764v-19.672l-26.526-30.553-16.758-20.422c13.967-11.625 31.422-18.342 43.284-29.96v-15.348c-8.723-32.047-23.908-62.304-44.157-89.133-.69-1.042-1.567-2.089-2.441-3.128-.348-.602-.873-1.191-1.398-1.94-.345 0-.528 0-.873-.145-1.738 0-3.141 1.781-3.487 2.681-.357 2.832 2.097 4.919 3.487 6.705.873 1.048 1.398 2.087.873 3.134a4.6 4.6 0 0 1-.873 1.039c-1.571 1.643-3.487 2.389-5.411 3.133-.69 0-1.215-.15-1.917-.3-4.013-1.193-6.448-4.771-10.996-3.58-2.271-.739-3.671 3.727-3.145 4.47-.526 2.684 5.591 3.433 5.591 6.858-5.235 6.114-10.646 12.376-13.264 18.336-.866 12.07-11.876 21.313-22.687 30.404-2.622 2.232-5.237 4.469-7.685 6.708-3.144 2.832-5.937 5.664-8.207 8.644 2.623 1.339 5.417 2.084 8.207 2.533 2.447.446 5.063.446 7.685.3 14.829-1.051 30.361-10.289 44.504-14.161 2.618-.597 5.061-1.197 7.327-1.49.702 0 1.576-.152 2.272-.152v.15499999999999997c.703.598 1.563 1.04 2.439 1.338 2.451.897 5.234.897 6.81 1.343 2.092 7.45 4.362 13.114 5.238 20.117-2.963 2.238-7.335 5.073-12.048 7.754-.689.443-1.566.892-2.439 1.343-.696.443-1.4.888-2.272 1.191a84 84 0 0 1-7.327 3.573c-2.273.901-4.544 1.793-6.635 2.537l-20.423-18.181-10.992 2.687c-2.275.141-4.363.291-6.453.445h-7.685c-15.714-.597-30.361-4.47-43.629-11.328l26.347-9.687c4.546-2.382 11.179-4.323 12.574-8.946l-6.461-9.831c4.011-2.986 7.676-6.26 11.168-9.687 2.619-2.688 5.242-5.224 7.685-8.056 6.281-7.15 11.686-14.457 15.702-21.311 5.057-10.282 9.771-19.521 9.256-30.851-.696-3.134-2.801-7.158-5.93-7.604a113 113 0 0 0-19.028 1.194c-2.623.444-5.238.894-7.685 1.49-28.099 5.957-50.615 21.912-72.438 37.558h-1.923c.527-2.682 1.224-4.62-.169-5.662-1.569-1.039-3.493.597-5.066 1.188-7.159 2.834-9.072 10.138-9.246 15.056l-.703.449c-2.271-2.385-.17-5.666-3.316-7.751-3.317.895-4.536 3.28-4.89 6.11-.528 2.688-.172 5.813-.697 8.354h-1.917c-1.051-2.089-.178-4.026-2.099-5.817-1.223-.296-2.794.296-3.318 1.343-1.046 1.49-1.742 2.979-2.44 4.767-1.4 4.176-1.219 8.944 0 12.972.351 1.189.875 2.235 1.395 3.275-.351.296-.872.742-1.395 1.045-1.564 1.042-3.49 1.786-5.062 2.833-1.225.746-2.094 1.642-2.444 2.982 0 1.188 1.394 1.934 2.444 2.83.176.154.524.452.698.744-.345.891-.521 1.793-.698 2.691-.873 2.976-1.921 5.66-2.966 8.34-2.617 6.41-5.761 12.519-7.502 18.782-.877 2.982-1.398 5.962-1.398 8.943.345.146.868.295 1.398.441 1.573.301 3.135.598 4.366 1.343l.342.749c-.521.893-2.445.893-2.782.296-.708-.146-1.407-.146-1.926-.296-.877 0-1.398-.154-1.925.149l1.925 16.395.696 6.404c-.176.297-.354.747-.696 1.048-1.229 1.639-3.319 3.421-1.743 4.764.866.745 1.394 1.794 1.743 2.833 1.392 3.426.696 8.053 3.66 10.734 1.749.745 2.973 1.932 3.843 3.125 2.267 3.729 1.22 8.648 2.966 12.672 0 .296.176.745.353 1.045 1.912 0 3.491-.297 4.708-.895 2.624-1.041 4.196-2.978 6.107-4.174l4.364 2.681 30.371 18.635c.17 5.807-1.228 11.92-4.886 15.792l-2.794.3c-7.861-4.624-15.707-9.54-22.694-15.053-3.837-2.982-7.157-6.113-10.471-9.54-.35-.296-.695-.743-1.047-1.038l-1.921-.156c-1.225 1.343-.168 3.43.523 4.773.701 1.488 1.57 2.981 2.445 4.325 2.966 4.616 6.459 8.344 10.471 12.065 7.679 7.161 17.279 13.268 27.408 20.123 1.737 0 2.439-.887 3.134-1.338l9.257-20.119c1.737-7.152 3.486-14.457 12.213-17.74.178-3.428.178-6.707-2.785-6.998l-11.873 2.98c-13.968-3.88-27.749-13.413-37.354-23.398-2.093-2.089-4.012-4.327-5.758-6.412l.52-.895c1.045.298 1.922 0 2.796-.296l-.524-9.692c0-1.637-.701-4.621.173-5.065l1.571-.599c.346-.148.874-.297 1.222-.297 2.621-.746 5.412-.3 8.033 1.488 1.044-5.211-3.143-9.388-6.46-12.068.523-4.474 4.708-5.22 4.014-8.349 1.399-2.979-.521-6.26-2.798-7.004 2.44-2.537.527-5.96.699-9.391 5.417-.446 10.299-2.231 12.745-6.556.872-2.084 3.317-6.257.348-8.344-3.319 1.187-8.034 3.126-11.87 2.982-1.925-1.645-1.925-3.43-1.046-3.728l8.378-7.456c4.538 3.133 13.09 4.773 17.099-.296 2.445-2.537 2.272-8.197.874-10.878l.35-1.049c16.924 6.413 23.036-12.517 9.254-16.69 4.015 9.09-4.19 9.833-12.567 14.004l-.876.298c-.869 5.364-5.408 11.182-9.595 8.798-2.447-.747-3.842-3.434-4.538-4.774-2.267-.746-4.369 2.532-6.633 1.791l-1.573-1.045c16.753-20.569 41.366-36.963 64.232-49.337 9.258-3.724 19.378-8.94 29.672-12.068a48.3 48.3 0 0 1 7.682-1.938c3.836-.747 7.679-1.044 11.516-.601l-2.623 12.672-4.36 8.194c-1.214 2.681-2.796 5.367-4.532 7.901-2.275 3.279-4.895 6.262-7.682 9.239-9.777 10.286-22.337 19.079-31.427 28.169l1.229 2.094 9.077 6.105-.176 1.788c-10.651 5.071-23.562 9.394-35.607 9.99-2.614-1.343-2.791-5.367-5.064-7.751-1.737.594-3.136 1.186-5.233 2.833.178 9.092 2.793 22.8 7.862 33.834 1.919.148 3.133.591 3.836.148l.874-12.671.526-.89c16.753 7.749 34.907 10.727 54.107 12.37 2.447.297 5.062.449 7.682.6 4.181.292 8.372.594 12.734.89.347 2.238-2.796 1.94-4.536 4.17l.529.6-1.401 18.785c-.871 1.937-3.314 1.191-4.007 1.489-1.584.591-1.754 2.382-1.754 4.019-.521.154-1.043.301-1.565.452-1.052.149-1.746.297-1.579.892-1.217 1.196.707 1.196 0 3.283-1.743.594-1.743 2.232-2.436 2.527-.877 1.793-2.268 2.534-3.667 1.793-.176 0-.348-.148-.348-.148-.872.297-1.581-1.048-.872-1.488a6 6 0 0 1 1.222-2.681 9.8 9.8 0 0 1 1.399-1.492h-2.097c-3.318-1.192-5.761 3.127-5.239 6.109 0 1.789 2.617 3.131 4.191 4.174-2.789 1.935-3.485 2.238-4.709 5.215-.703 2.685 2.091 4.024 3.135 5.964l-.522 1.043c-1.389.593-2.616-1.344-4.181-.75-1.227 1.343-1.581 4.026-.524 5.964 2.257.747 4.181.747 6.097.893.354 2.238 2.271 4.028 2.271 5.664l-9.949 15.354c-5.762 8.792-10.826 20.569-20.428 27.72l-8.887-16.248c.859-2.083 1.392-4.621.519-6.11.17-3.275-3.145-2.676-5.066-4.47l-2.787.297c-5.246 11.328-9.08 23.552-19.38 33.241l-19.027-10.436c-4.362-3.131-8.726-6.113-12.564-9.391-3.839-3.132-7.505-6.409-10.473-9.836-1.921-2.386-3.667-4.771-5.06-7.305-1.396-2.679-2.444-5.362-2.968-8.194-.524-2.688-.696-5.519-.35-8.499-1.74-1.792-5.062-.446-6.978-2.232 0-.153-.161-.292-.173-.299-1.571-3.133-3.144-6.264-4.715-9.244-8.729-16.695-17.977-33.383-20.419-50.973.869-.453 3.316-1.34 3.316-2.984 1.22-3.129-.178-5.663-2.974-7.15-1.919 0-2.264-.597-3.484-1.045 8.2-4.171 17.104-10.136 23.562-17.288 1.745-1.937 3.317-3.879 4.715-5.964 2.441-3.576 4.185-7.302 5.062-11.326 1.742-7.155 2.089-18.931-3.136-25.041l-1.926 1.047-4.715 2.681-13.965 7.749c-3.138 1.342-5.585 3.873-7.502 2.235l1.224-35.023-23.564 18.776-17.458 13.864c-2.963-2.084-4.188-5.807-7.502-6.855l-1.568.597-.875.294c0 1.796 0 1.796.7 3.134 3.835 17.433-10.826 31.899-20.775 47.248v73.181c2.445 4.02 5.236 7.895 8.895 11.472M291.046 68.382c.179 0 .346-.147.703-.147.522 1.338 1.396 2.681 1.747 3.28l-.186 1.783c-.686-.296-1.217-.894-2.265-1.783-.527-.452-1.224-.891-2.261-1.495 0 .001.871-1.036 2.262-1.638m0 20.266c.346-.294.522-.442.703-.741 1.396 2.385 1.562 5.812-.703 8.645-.174.298-.527.597-.877.898-.515-.151-1.044-.453-1.564-.743-.695-.453-1.569-1.195-2.271-1.94-.699-.747-1.391-1.642-1.738-2.39.348-.744 1.043-1.19 1.738-1.489.702-.44 1.576-.595 2.271-1.042a11.5 11.5 0 0 0 2.441-1.198m-4.714 18.483c.701.897 1.397 1.643 1.923 2.686-.701.448-1.222.892-1.923 1.343-2.095 1.641-4.532 2.984-7.328 4.17-5.932 2.835-12.744 4.774-19.375 7.302l-24.434 8.201 15.187-12.665c.523.593.693 2.979 2.268 4.021 2.446.746 5.583 1.191 8.559 0 .862-2.085 4.014-3.278 3.132-7.007-.871-1.339-.342-2.381-2.793-2.98-.694.147-3.488.448-4.886-.594l15.356-15.952c2.268.746 2.978 2.089 4.543 3.135l-.521 1.039c-3.484-1.039-7.51.455-9.779 3.134-1.22 1.191-.523 4.17 1.397 5.962 1.399 2.683 5.236 1.042 9.257-.451-.352-.744 1.738-2.233 2.091-3.274 1.568-.601.876-1.94 0-3.282 2.965 1.193 5.406 3.127 7.326 5.212m-7.328-30.555c.524-.295 1.044-.443 1.396-.74.874 1.343 4.714 1.487 5.406 4.471-1.396 1.935-4.189 2.68-6.803 4.021-.351.296-.873.451-1.218.747l-3.146-.296s-.873.296-1.397-1.043l-.874-1.343c.875-1.789 3.841-4.323 6.636-5.817m-44.502 122.369c-.712 0-1.23-.744-1.925-2.086.527-.296 1.213-.594 1.925-.893.168 0 .341 0 .521-.139l1.043.293c.527.741 0 1.788-.349 2.681-.523.144-.877.298-1.215.144m-7.687 6.711c.871-.448 2.096-1.641 1.227-2.975l-.353-.749-.871.294-1.574.597 1.574 2.678zM129.07 151.55h.173c.527-1.043 2.1-1.638 1.743-2.381l-.347-.598c-.699.149-1.222.449-1.573.598-1.22.442-1.744.891-2.093 1.64l.524.591zm-10.473-22.954h.176l1.573 1.047c0 1.487-.708 1.932-1.749 2.83 0 .148-.173.3-.35.445l-.345-.74c-.869.297-1.228-1.944-.704-2.981zm-5.06 15.799.351.152c2.09 0 2.787 2.983 1.042 3.569-.697.305 0 1.645-1.394 2.242 0 .149-.177.149-.177.149-.345-.747-1.57.599-2.268-.747 0-1.789 0-3.427 1.049-5.369zm-2.967 19.972.704.147 1.563.897-.696 7.75c-.699-.594-1.224-1.492-1.571-2.387-1.05-1.786-1.746-3.726-2.441-5.065l1.222-1.344zm-7.503 78.7-1.398.594s-1.573-1.04-3.146-2.083l.355-1.047c.169-1.188 1.921-2.082 4.188-2.682.869-.297 1.741-.445 2.617-.597l1.219.3c.351.746 1.229 1.934.179 2.237-.702 1.936-2.439 2.533-3.836 3.125zm-4.716-8.051-2.265.299-.35-2.388s1.222-.446 2.617-1.044c.171 0 .346-.143.53-.143h1.923c.868 1.342-.705 1.934-1.923 3.274zm-43.81-88.09c-6.46 7.16-11.168 15.509-12.568 24.297-4.361 13.415-2.092 28.026-3.839 42.627 0 3.428-2.445 6.116-5.59 7.311-8.897-2.24-10.993-11.333-15.181-16.996-11.345-19.378-6.809-46.499 6.104-64.986l11.701-17.729c1.568-.6 2.963 2.084 3.319 2.83-1.234 2.833-4.193 6.556.874 8.643l15.179-10.285L56.982 121c0-1.642 0-3.281-2.1-4.024-.166-.147-.166-.296-.345-.296-1.051-.891-2.973-.303-3.664-1.492-1.044-1.937-4.016-4.021-4.016-7.454l7.68-7.154 10.121-9.688 1.05 24.899c11.868-1.343 21.294-6.714 31.244-11.479l1.222.445c.52 7.902-8.727 15.794-15.71 22.654-10.295 4.461-20.418 11.32-27.923 19.515M335.203 283.903v-7.154l-15.53 7.154zM263.995 281.071l-1.571.447 1.226 2.385h2.442z"/><path d="m254.046 278.392 3.486 5.511h6.118l-1.226-2.385 1.571-.447 2.097 2.832h7.846l-7.153-12.07zM250.023 280.031l-4.358 2.526.704 1.346h6.1zM293.311 258.713l-12.738 6.709 7.156 11.177 4.365-2.681-2.971-5.218 1.576-.745 5.24 7.751-10.474 5.812-8.906-14.606-4.19 2.537 8.383 14.454h15.006l9.777-4.469zM332.07 266.313l-12.572-19.667-13.088 5.959 7.852 10.883 4.362-2.537-2.612-4.623 1.212-1.341 5.59 8.501-10.645 5.063-9.78-14.308-4.19 2.532 12.924 20.423zM80.544 122.339l-.522.293c-.873.303-2.795.303-3.487-1.185-1.571-.904-1.402-2.686-.702-4.625 1.394-1.338 3.145-2.537 4.708-2.833 1.572-.297 2.971 0 4.017 1.046 1.395 1.044 1.741 3.426.527 4.77-.703 1.939-2.791 1.79-4.366 2.536h-.176zm-18.498 8.942c-.871.152-2.616 0-3.843-.891-.345-.6-1.563-1.045-1.044-3.726-.349-.6 1.227-1.348 1.921-1.642.696-1.34 1.564-1.938 2.966-2.238.697 0 1.577 0 2.618.151 1.568 1.04 3.142 2.086 2.271 4.018-.348.899-1.574 3.88-4.361 4.18-.179-.003-.354.148-.528.148m-5.933-29.512c.696-.143 1.222-.143 1.92-.143 2.269.744 2.968 2.08 2.612 4.763 0 1.643-1.916 3.135-4.53 4.324-.175.149-.523.149-.703.298l-1.22-.448c-1.573-1.042-3.316-2.683-2.439-4.772-.001-1.191 1.918-3.278 4.36-4.022m-9.952 43.222h-.171s-1.923 0-3.143-.298c-.695-1.338-1.918-3.424-.178-5.66.705-.297.877-1.939 1.399-2.982.349-.152 1.221-.297 2.094-.297h2.445c1.921 1.784 2.621 4.769 1.394 6.114-.869 1.782-2.269 2.527-3.84 3.123m-10.821 25.64c-1.742.145-2.968-.896-3.666-2.534-.696-.741-1.05-1.343-1.391-2.091-.533-1.192-.351-2.532 0-3.873.175-.601.52-1.342.869-2.081 1.391-1.05 2.617-1.495 4.188-1.793.522-.299 1.226-.449 1.918-.747 3.148 2.084 3.84 5.071 2.973 8.797-.171 1.636-.868 3.725-3.665 3.871-.524.299-.879.299-1.226.451m0-26.981c-.873.149-1.742.448-3.316.448-1.046-.893-1.567-1.939-1.742-3.125v-1.191c.175-.898.342-1.793.87-2.689.873-1.194 2.617-1.939 4.188-2.533.347-.149.522-.295.874-.295 2.621 1.343 2.963 3.574 3.316 5.961-.352 1.045-2.094 3.275-4.013 3.275zm-5.058 56.788c-.351.152-.872 0-1.395-.15-.538-.143-1.398-.297-2.448-.595-2.971-2.085-2.794-5.511-1.925-9.091.526-1.04.526-1.04 1.749-2.386l2.623-.146c.522.146 1.042.292 1.395.746 1.568 1.192 2.963 3.574 3.486 4.617.354 2.392.171 5.666-2.968 7.003-.177.002-.342.002-.517.002m0-41.731c-.533.15-.872.594-1.395.89-.873.752-1.581 1.642-2.977 1.642l-.87.297c-1.916 0-2.966-2.084-4.012-4.021-1.223-2.084-1.046-5.364 2.096-6.704 0-1.64 2.445-.894 4.891-1.788.336.297.69.743.872 1.188.695.9 1.22 1.94 1.396 3.13.518 1.638.518 3.577-.001 5.366m-10.299 26.528c-.871-.151-2.097-.597-2.97-1.487-.699-1.341-2.621-4.774-1.39-7.75.17-1.642 1.568-2.238 4.185-3.135h.176l2.091.597c2.623 1.494 2.966 5.516 2.79 8.793.354.601-.866.301-2.438 2.533-.706.297-1.573.449-2.444.449"/><path d="m28.887 188.07-2.623.144c-1.225 1.345-1.225 1.345-1.75 2.385-.869 3.583-1.045 7.006 1.926 9.093 2.447.745 3.492 1.047 4.361.745 3.14-1.338 3.321-4.614 2.968-7.003-.696-1.344-2.617-4.769-4.882-5.364M17.012 183.745c1.746 1.786 3.84 1.786 5.413 1.04 1.571-2.23 2.793-1.932 2.438-2.533.177-3.276-.167-7.298-2.791-8.792l-2.267-.597c-2.617.898-4.013 1.492-4.185 3.135-1.228 2.976.693 6.407 1.392 7.747M37.254 157.51c-2.267.898-4.183.898-6.103 2.539-1.402 2.979-1.925 5.666.521 8.051 1.054 1.932 2.45 3.123 4.892 2.079 2.797-.147 3.493-2.236 3.665-3.873.867-3.724.176-6.709-2.975-8.796M25.04 161.533l.869-.297c1.927 0 2.796-1.935 4.372-2.529.869-3.728-.176-7.454-2.269-9.686-2.443.892-4.89.148-4.89 1.788-3.141 1.339-3.318 4.617-2.095 6.701 1.045 1.938 2.097 4.023 4.013 4.023M45.99 144.991c1.568-.444 3.141-1.19 4.012-3.124 1.225-1.346.526-4.331-1.396-6.115-1.916 0-3.838 0-4.539.295-.522 1.044-.694 2.683-1.399 2.984-1.739 2.239-.517 4.321.178 5.661 1.221.299 3.144.299 3.144.299M35.514 143.501c1.921 0 3.663-2.235 4.013-3.275-.351-2.387-.694-4.615-3.315-5.961-1.568.443-3.838 1.486-5.061 2.828-1.402 2.982-1.045 5.218.873 7.006 1.916-.001 2.792-.299 3.49-.598M59.079 125.023c-.695.293-2.271 1.042-1.921 1.642-.521 2.681.699 3.126 1.044 3.726 1.573 1.046 3.501 1.046 4.37.743 2.787-.298 4.012-3.277 4.361-4.181.871-1.93-.702-2.979-2.271-4.019-3.145-.448-4.536.15-5.583 2.089M76.538 121.448c.692 1.488 2.613 1.488 3.486 1.185l.7-.293c1.576-.746 3.663-.597 4.367-2.537 1.218-1.343.868-3.725-.526-4.77-2.265-2.385-6.29-.749-8.729 1.788-.701 1.94-.871 3.721.702 4.627M60.643 106.388c.355-2.681-.345-4.019-2.612-4.762-3.147-.304-6.283 2.675-6.283 4.165-.874 2.089.868 3.732 2.439 4.774l1.22.446c3.146-1.194 5.236-2.831 5.236-4.623"/><path d="M3.158 51.621c2.333-1.477 2.978-1.889 3.499-2.22C35.528 30.956 82.462.968 170.963.968h.032c80.536.011 134.712 31.606 158.979 45.751 3.367 1.967 6.132 3.582 8.17 4.643l2.875 1.498v236.157H.731V53.164zm10.652 5.923c-.383.243-.763.483-1.106.706v220.544h316.35V58.506c-1.724-.969-3.653-2.097-5.823-3.364C299.93 41.555 247.883 11.2 170.993 11.193h-.033c-84.596 0-129.519 28.701-157.15 46.351"/></svg>