<svg xmlns="http://www.w3.org/2000/svg" viewBox="0 0 175 100"><path d="M0 0v18.676h3.164V7.532l5.432 11.144L14 7.532v11.144h3.164V0h-3.052L8.596 11.312 3.052 0zm40.588 0h3.472l7.616 18.676h-3.388l-5.95-15.32-5.95 15.32H33zm26.6 0v3.164h5.236v15.512h3.164V3.164h5.236V0zM98.34 0v3.164h5.236v15.512h3.164V3.164h5.236V0zm30.592 0v18.676h13.636v-3.164h-10.472v-5.376h5.46V6.972h-5.46V3.164h10.164V0zm29.632 0h7.672c2.324 0 2.8.084 3.808.588 1.96 1.008 3.164 2.94 3.164 5.068 0 2.24-1.232 4.144-3.248 5.012l3.528 8.008h-3.528l-3.22-7.392h-5.012v7.392h-3.164zm3.164 8.12h4.956c1.12 0 1.624-.112 2.156-.42a2.43 2.43 0 0 0 1.148-2.044c0-.924-.644-1.904-1.484-2.268-.392-.168-.868-.224-1.764-.224h-5.012zM15.458 42.878c-1.652-1.792-4.296-2.912-6.816-2.912-3.92 0-7.508 1.89-7.508 5.167 0 1.848.836 3.314 2.404 4.126.84.448 2.278 1.017 5.134 1.857 2.38.7 2.8.868 3.164 1.064.56.308.812.7.812 1.288 0 1.54-1.792 2.66-4.2 2.66-.896 0-1.964-.213-2.81-.528-1.154-.474-1.653-1.134-2.717-2.17l-.224-.224L0 55.034c2.025 3.11 5.396 4.37 8.364 4.37 4.312 0 7.588-2.52 7.588-5.824 0-1.26-.504-2.576-1.288-3.304-.924-.868-2.408-1.54-5.18-2.296-2.352-.672-3.622-1.13-4.126-1.381-.728-.364-1.004-.794-1.004-1.55 0-1.316 1.957-2.156 3.945-2.156 1.624 0 3.02.275 4.896 2.08zM35 40v11.228c0 1.708.196 2.604.784 3.808 1.288 2.576 3.668 4.004 6.692 4.004 2.996 0 5.376-1.428 6.664-4.004.588-1.204.784-2.1.784-3.808V40H46.76v11.2c0 .924-.28 1.988-.644 2.632-.7 1.176-2.212 1.988-3.64 1.988-1.456 0-2.968-.812-3.668-1.988-.364-.644-.644-1.708-.644-2.632V40zm32.032 0h7.308c2.856 0 2.912 0 3.948.42 2.296.896 3.668 2.884 3.668 5.292 0 2.548-1.484 4.564-3.976 5.348-.728.224-.98.252-3.164.252h-4.62v7.364h-3.164zm3.164 8.148h5.488c.868 0 1.288-.084 1.764-.364a2.41 2.41 0 0 0 1.232-2.1c0-.896-.532-1.764-1.316-2.184-.532-.308-.728-.336-1.988-.336h-5.18zM98.12 40h7.308c2.856 0 2.912 0 3.948.42 2.296.896 3.668 2.884 3.668 5.292 0 2.548-1.484 4.564-3.976 5.348-.728.224-.98.252-3.164.252h-4.62v7.364H98.12zm3.164 8.148h5.488c.868 0 1.288-.084 1.764-.364a2.41 2.41 0 0 0 1.232-2.1c0-.896-.532-1.764-1.316-2.184-.532-.308-.728-.336-1.988-.336h-5.18zM129.096 40v18.676h13.636v-3.164H132.26V40zm26.924 0 7.756 11.06v7.616h3.164V51.06L174.696 40h-3.892l-5.432 7.84-5.46-7.84zM15.924 84.676C14.748 81.736 12.116 80 8.868 80c-2.24 0-4.616.812-5.932 2.352-1.484 1.68-2.489 4.41-2.489 7.322 0 2.94 1.005 5.642 2.489 7.322 1.316 1.54 3.692 2.408 5.932 2.408 3.248 0 5.88-1.736 7.056-4.676l-2.968-1.064c-1.008 1.736-2.24 2.52-3.976 2.52-3.973 0-5.438-3.249-5.488-6.584.046-3.414 1.151-6.38 5.488-6.38 1.736 0 2.968.784 3.976 2.52zM42.868 80c2.1 0 4.172 1.036 5.628 2.772 1.26 1.54 1.988 4.004 1.988 6.804 0 3.22-.784 5.74-2.268 7.392-1.372 1.54-3.416 2.436-5.46 2.436-2.072 0-4.116-.924-5.516-2.436-1.456-1.652-2.24-4.144-2.24-7.224 0-3.192.812-5.74 2.324-7.364 1.428-1.54 3.388-2.38 5.544-2.38m-.004 3.2c-2.884 0-4.564 2.38-4.564 6.468 0 3.948 1.708 6.384 4.48 6.384s4.452-2.436 4.452-6.44c0-3.92-1.68-6.412-4.368-6.412"/><path stroke="#2D2F45" stroke-width="3" d="M67.5 89.5h106"/></svg>