<svg xmlns="http://www.w3.org/2000/svg" width="40" height="40"><path d="M0 0h40v40H0z"/><g clip-path="url(#a)"><mask id="b" width="30" height="30" x="5" y="5" maskUnits="userSpaceOnUse" style="mask-type:alpha"><path d="M20 35c8.284 0 15-6.716 15-15S28.284 5 20 5 5 11.716 5 20s6.716 15 15 15"/></mask><g mask="url(#b)"><path d="M20 35c8.284 0 15-6.716 15-15S28.284 5 20 5 5 11.716 5 20s6.716 15 15 15"/><path d="M29.918 31.253 16.524 14H14v11.995h2.019v-9.431l12.314 15.91q.835-.559 1.585-1.22"/><path d="M26.168 14h-2v12h2z"/></g></g><defs><clipPath id="a"><path d="M5 5h30v30H5z"/></clipPath></defs></svg>