<svg xmlns="http://www.w3.org/2000/svg" width="40" height="40"><path d="M0 0h40v40H0z"/><path d="M22.04 31h12.58c.401 0 .786-.137 1.133-.33.348-.193.706-.436.907-.77.2-.334.34-.714.34-1.1s-.14-.766-.34-1.1l-8.5-14.19a2.04 2.04 0 0 0-.793-.77 2.8 2.8 0 0 0-1.247-.33c-.401 0-.786.137-1.133.33a2.04 2.04 0 0 0-.794.77l-2.153 3.63-4.307-7.04c-.2-.335-.445-.687-.793-.88S16.208 9 15.807 9c-.402 0-.786.027-1.134.22a2.65 2.65 0 0 0-.906.88L3.227 27.7c-.201.334-.227.714-.227 1.1s.026.765.227 1.1c.2.334.559.577.906.77.348.193.732.33 1.134.33H13.2c3.143 0 5.432-1.369 7.027-3.96l3.853-6.49 2.04-3.41 6.233 10.34H24.08zm-8.953-3.52H7.533l8.274-13.86L20 20.55l-2.778 4.7c-1.059 1.681-2.267 2.23-4.135 2.23"/></svg>