<svg xmlns="http://www.w3.org/2000/svg" data-name="Layer 1" viewBox="0 0 500 79.83"><path d="M185.44 78.66V1.17h66.2v20h-33a4.8 4.8 0 0 0-4.8 4.8 4.8 4.8 0 0 0 4.8 4.81h33v18.71H218.3a4.45 4.45 0 0 0-4.45 4.45 4.45 4.45 0 0 0 4.45 4.45h33.34v20.27ZM409.86 78.66V54.54h-14.59c-4.63 0-8.38-.66-8.38-7.1V1.17h-33.3v77.49ZM86.09 39.84c0 12.09-4.35 22.28-12.63 29.48-7.77 6.76-17.94 10.49-30.19 10.51-12 0-22.88-3.67-30.61-10.4C4.4 62.24 0 52.06 0 40s4.32-22.27 12.55-29.49C20.26 3.75 31.11 0 43.12 0c12.25 0 22.44 3.67 30.23 10.4 8.31 7.16 12.72 17.35 12.74 29.44m-30.5.07A12.55 12.55 0 1 0 43 52.46a12.55 12.55 0 0 0 12.59-12.55M500 39.84c0 12.09-4.34 22.28-12.63 29.48-7.77 6.76-17.94 10.49-30.19 10.51-12 0-22.88-3.67-30.61-10.4-8.26-7.19-12.64-17.37-12.66-29.44s4.32-22.26 12.56-29.48C434.17 3.75 445 0 457 0c12.25 0 22.43 3.67 30.23 10.4C495.58 17.56 500 27.75 500 39.84m-30.49.07A12.55 12.55 0 1 0 457 52.46a12.55 12.55 0 0 0 12.51-12.55M343.81 78.66h-30.29c0-9.52-1.84-19.69-12-19.69h-3.75v19.69h-30.4V1.17h36.84c16.57 0 35.58 2.88 35.58 25.29 0 8.64-3.89 14.43-12.21 19.35-1.44.86-1 2.22 0 2.49 10.79 2.76 16.23 11.57 16.23 30.36m-42.27-59.84a9.85 9.85 0 1 0 9.85 9.84 9.85 9.85 0 0 0-9.85-9.84M173.7 53.52c0 8.57-3 15.08-8.91 19.32-5.36 3.84-13.1 5.8-23 5.82H97.5V1.17h42.8c9.83 0 16.68 1.25 21.57 4 6 3.38 9 8.94 9 17a20.3 20.3 0 0 1-4.7 12.83 2.16 2.16 0 0 0 .28 3 20.25 20.25 0 0 1 7.25 15.52m-40.19-35.21a8.84 8.84 0 1 0 8.84 8.84 8.84 8.84 0 0 0-8.84-8.84m0 26a8.84 8.84 0 1 0 8.84 8.84 8.84 8.84 0 0 0-8.84-8.84"/></svg>