<svg xmlns="http://www.w3.org/2000/svg" xmlns:xlink="http://www.w3.org/1999/xlink" viewBox="0 0 147.67 177.41"><defs><symbol id="a" viewBox="0 0 93.2 112"><path d="M87.25 97.18c-10.4 14.89-30.94 19.3-45.79 9.84L15.38 90.4A29.89 29.89 0 0 1 1.86 70.36c-1.24-6.9-.15-14.02 3.11-20.23A30.1 30.1 0 0 1 .49 38.95c-1.5-8.44.46-17.14 5.45-24.12C16.34-.07 36.88-4.48 51.73 4.99l26.08 16.62a29.92 29.92 0 0 1 13.52 20.04c1.25 6.9.16 14.02-3.1 20.23 2.23 3.39 3.75 7.19 4.47 11.18 1.5 8.44-.46 17.14-5.45 24.12" style="stroke-width:0;fill:#ff3e00"/><path d="M38.91 13.42a20.725 20.725 0 0 0-22.24 8.24c-3 4.2-4.18 9.42-3.28 14.5.15.83.36 1.64.62 2.43l.49 1.5 1.34-.98c3.08-2.27 6.53-3.99 10.2-5.1l.97-.29-.09-.97c-.12-1.38.26-2.75 1.05-3.87a6.26 6.26 0 0 1 6.7-2.49c.57.15 1.11.39 1.6.7l26.08 16.63c1.29.81 2.18 2.13 2.45 3.63.27 1.53-.09 3.11-.99 4.37a6.26 6.26 0 0 1-6.7 2.49c-.57-.15-1.11-.39-1.6-.7l-9.95-6.35a19.5 19.5 0 0 0-5.3-2.33 20.725 20.725 0 0 0-22.24 8.24c-3 4.2-4.18 9.42-3.28 14.5.9 4.98 3.85 9.36 8.14 12.05l26.08 16.62c1.64 1.04 3.42 1.83 5.3 2.33a20.725 20.725 0 0 0 22.24-8.24c3-4.2 4.18-9.42 3.28-14.5-.15-.82-.36-1.64-.62-2.44l-.49-1.5-1.34.98a33.6 33.6 0 0 1-10.2 5.1l-.97.29.09.97c.12 1.38-.26 2.75-1.05 3.88a6.26 6.26 0 0 1-6.7 2.49c-.57-.15-1.11-.39-1.6-.7L30.81 68.27a5.42 5.42 0 0 1-2.45-3.63c-.27-1.53.08-3.11.99-4.37a6.26 6.26 0 0 1 6.7-2.49c.57.15 1.11.39 1.6.7l9.95 6.34c1.64 1.04 3.42 1.83 5.3 2.33 8.41 2.19 17.28-1.11 22.24-8.24 3-4.2 4.18-9.42 3.28-14.5-.89-4.98-3.85-9.36-8.13-12.05L44.21 15.74a19 19 0 0 0-5.3-2.33" style="stroke-width:0;fill:#fff"/></symbol></defs><use xlink:href="#a" width="93.2" height="112" transform="matrix(1.58 0 0 -1.58 .02 177.41)"/><path d="M0 0h147.67v177.41H0z" style="fill:none;stroke-width:0"/></svg>