<svg xmlns="http://www.w3.org/2000/svg" width="40" height="40"><path d="M0 0h40v40H0z"/><path d="M31.396 8.994c-2.809-4.02-8.356-5.211-12.367-2.656l-7.043 4.49a8.08 8.08 0 0 0-3.651 5.412 8.5 8.5 0 0 0 .839 5.464 8.1 8.1 0 0 0-1.209 3.02 8.61 8.61 0 0 0 1.471 6.513c2.81 4.02 8.356 5.211 12.367 2.656l7.043-4.49a8.08 8.08 0 0 0 3.651-5.412 8.5 8.5 0 0 0-.838-5.464 8.1 8.1 0 0 0 1.208-3.02 8.6 8.6 0 0 0-1.471-6.513"/><path d="M18.341 31.617a5.595 5.595 0 0 1-6.005-2.226 5.18 5.18 0 0 1-.885-3.916q.06-.335.168-.658l.133-.405.36.265a9.1 9.1 0 0 0 2.756 1.377l.262.08-.024.26c-.032.372.069.743.284 1.048.403.58 1.125.849 1.808.671.153-.04.3-.105.433-.19l7.044-4.489c.348-.22.588-.575.662-.98a1.57 1.57 0 0 0-.267-1.181 1.69 1.69 0 0 0-1.809-.671 1.6 1.6 0 0 0-.432.19l-2.688 1.713a5.1 5.1 0 0 1-1.43.628 5.595 5.595 0 0 1-6.006-2.226 5.18 5.18 0 0 1-.885-3.916 4.86 4.86 0 0 1 2.196-3.255l7.044-4.49a5.1 5.1 0 0 1 1.43-.628 5.595 5.595 0 0 1 6.006 2.226 5.18 5.18 0 0 1 .885 3.916 5 5 0 0 1-.168.658l-.133.405-.36-.265a9.1 9.1 0 0 0-2.756-1.377l-.262-.08.024-.261a1.58 1.58 0 0 0-.284-1.047 1.685 1.685 0 0 0-1.808-.671 1.6 1.6 0 0 0-.433.19L16.157 16.8c-.348.22-.589.575-.661.98-.074.414.022.84.266 1.181.402.58 1.125.849 1.809.672q.231-.063.432-.19l2.688-1.713a5.1 5.1 0 0 1 1.43-.63 5.595 5.595 0 0 1 6.005 2.227 5.18 5.18 0 0 1 .885 3.916 4.86 4.86 0 0 1-2.195 3.256l-7.044 4.488a5.1 5.1 0 0 1-1.43.629"/></svg>