<svg xmlns="http://www.w3.org/2000/svg" width="116" height="40"><g clip-path="url(#a)"><path d="M19.715.242H0v39.42h19.715c9.858 0 19.71-8.823 19.71-19.707S29.573.242 19.715.242m0 28.668a9.06 9.06 0 0 1-5.01-1.51 8.97 8.97 0 0 1-3.322-4.021 8.9 8.9 0 0 1-.514-5.177 8.94 8.94 0 0 1 2.469-4.588 9.04 9.04 0 0 1 4.618-2.452 9.07 9.07 0 0 1 5.21.51 9 9 0 0 1 4.049 3.3 8.92 8.92 0 0 1-1.122 11.314 9.05 9.05 0 0 1-6.378 2.624M58.71.337c4.675 0 7.078 2.825 7.078 6.689v3.468c0 3.874-2.398 6.689-7.072 6.689h-7.428V.337zm2.908 6.668c0-2.145-1.14-3.273-3.655-3.273h-2.52v10.056h2.52c2.515 0 3.655-1.133 3.655-3.273zm17.434 7.047h-6.117l-.944 3.13h-4.17L73.879.317h4.245l6.059 16.867h-4.17zm-5.109-3.32h4.09l-2.02-6.663zM97.775.336v3.49h-4.578v13.356h-4.165V3.827h-4.579V.337zm10.458 17.183c-5.136 0-7.778-3.273-7.778-7.68V7.675c-.006-4.4 2.637-7.674 7.778-7.674s7.772 3.273 7.772 7.674v2.167c-.005 4.39-2.647 7.68-7.772 7.68m0-14.078c-2.425 0-3.613 1.613-3.613 4.016v2.599c0 2.408 1.188 4.021 3.613 4.021s3.607-1.613 3.607-4.021V7.458c-.005-2.403-1.193-4.016-3.607-4.016M58.467 36.585c2.228 0 3.295-1.445 3.369-3.131h3.852C65.64 37.017 62.998 40 58.515 40c-5.232 0-7.746-3.273-7.746-7.653v-2.214c0-4.38 2.514-7.653 7.746-7.653 4.483 0 7.125 2.983 7.173 6.546h-3.852c-.074-1.681-1.14-3.125-3.37-3.125-2.514 0-3.533 1.66-3.533 4.042v2.599c0 2.382 1.019 4.042 3.534 4.042m23.662-13.768h3.82v16.867h-3.995V30.76l-2.652 5.15h-3.295l-2.653-5.15v8.903H69.36V22.796h3.857l4.457 9.171zM96.562 40c-4.07 0-6.807-1.924-6.807-5.318v-.459h3.995v.338c0 1.417.923 2.287 2.833 2.287 1.719 0 2.86-.7 2.86-1.998a1.37 1.37 0 0 0-.285-.973 1.4 1.4 0 0 0-.877-.518l-4.245-1.054c-2.653-.649-3.995-1.803-3.995-4.549 0-3.347 2.398-5.27 6.42-5.27 3.798 0 6.223 2.044 6.223 5.128v.406h-3.852v-.285c0-1.133-.631-2.072-2.371-2.072-1.454 0-2.377.527-2.377 1.708-.027.324.072.645.274.9.203.254.496.422.819.47l4.504 1.208c2.717.716 3.778 2.203 3.778 4.538 0 3.373-2.993 5.513-6.897 5.513"/></g><defs><clipPath id="a"><path d="M0 0h116v40H0z"/></clipPath></defs></svg>