<svg xmlns="http://www.w3.org/2000/svg" width="310.667" height="268" version="1.0" viewBox="0 0 233 201"><path d="M1.4 17.3c-.3.8-.4 4.9-.2 9.3l.3 7.9 4.5-.3c2.5-.2 6.9-1 9.9-1.8 2.9-.8 5.5-1.3 5.8-1s-1.2 7.1-3.2 15.3c-4.4 17.2-5.3 29.6-3.7 49 2.1 24 14.2 49.7 30.6 65 6.5 6.1 23.2 17.3 25.7 17.3.6 0 3.7 1.3 7 3 3.3 1.6 7.5 3 9.5 3.2 3.5.3 3.6.2 8.9-8.8 2.9-5 8.1-14.6 11.5-21.2 3.5-6.7 6.6-12.2 6.9-12.2.4 0 1.5 1.7 2.6 3.7 2.9 5.5 18 20.4 25 24.6 7.2 4.5 17.8 9.5 26.3 12.7l6.3 2.3 2.4-2.3c1.4-1.3 2.5-3.1 2.5-3.9 0-.9 2.3-5.4 5-10.1 2.8-4.7 8.4-15.4 12.5-23.8 4.2-8.4 10.3-19.3 13.5-24.2 3.3-4.9 6-9.4 6-10s3-6.7 6.6-13.6c7.3-13.8 7.1-11.9 2.8-26.4-6.4-21.5-15.7-42.5-22-49.9l-3.2-3.6-18.6-.3c-12.4-.3-18.6 0-18.6.6s.4 1.3.9 1.7c.6.3 3.3 4 6.2 8.3 15.6 23.1 25.4 50.2 26.6 73.7.7 12.8-1.2 23.1-5.3 29.7l-2.6 4-8.3-.4c-7.4-.4-9.2-.9-17.8-5.2-18.3-9.1-33.4-28-38.6-48.4-4.3-16.8-5.2-23.6-5.6-43.4-.2-10.9-.6-20.2-1-20.8s-6.6-1-16-1c-13 0-15.4.2-15.9 1.6-.9 2.4-.7 16.2.2 16.8.5.3 5.1-.4 10.2-1.4 5.2-1.1 9.6-1.7 9.9-1.5.2.3-1.3 7.4-3.4 15.7-6.3 25.4-5.9 48.6 1.2 70.6 3.5 10.6 3.6 11.5 2.2 14-1.4 2.6-1.8 2.7-10 2.7-7.8-.1-9-.4-17-4.2-4.7-2.3-11.1-6.3-14.3-8.9-6.5-5.4-17.4-19.4-21-27-6.5-13.6-9.7-31.1-10.5-57.4l-.6-20.5-15.8-.3c-12.6-.2-15.8 0-16.3 1.1M209.5 173.3c-.4 3.5-.5 7.4-.3 8.8.4 2.9 1.9 2.8 11.8-.3 11.6-3.6 11-3.1 11-9.3V167h-21.8z"/></svg>