<svg xmlns="http://www.w3.org/2000/svg" viewBox="0 0 399.385 504.728"><g data-name="Layer 2"><path d="M162.4 195.228c1.035-1.959.314-3.923-.049-5.855-1.905-10.151-4.07-20.258-5.744-30.447a194 194 0 0 1-2.267-44.369c.49-7.38 2.284-14.69 3.712-21.987 1.392-7.114 3.2-14.146 4.584-21.26a74.8 74.8 0 0 1 6.612-18.888c3.21-6.5 6.539-12.944 9.485-19.561a71 71 0 0 1 8.63-14.372c3.644-4.763 7.515-9.324 11.315-13.948a14.5 14.5 0 0 1 4.479-3.926c2.749-1.406 5.566-.356 6.268 2.692 4.19 18.2 8.407 36.409 6.685 55.334a164 164 0 0 1-4.231 22.971c-2.388 10.057-3.86 20.319-7.125 30.186-2.288 6.916-5.627 13.338-8.538 19.964a66 66 0 0 0-3.684 9.057c-2.253 8.325-6.115 15.928-10.468 23.233-3.138 5.267-4.706 11.44-9.189 15.927-1.26 1.261-.464 2.781-.186 4.133 1.354 6.573 2.569 13.187 4.273 19.672 2.531 9.631 5.425 19.166 8.189 28.736.2.678.652 1.877.868 1.851.957-.116 1.213-1.15 1.449-1.913a226 226 0 0 1 9.081-23.312 61.5 61.5 0 0 0 4.573-15.635 97 97 0 0 1 3.912-15.244 167.5 167.5 0 0 0 5.8-27.623 116.7 116.7 0 0 1 8.732-31.342 176 176 0 0 0 7.215-19.918 41.5 41.5 0 0 1 3.992-8.9 237 237 0 0 0 11.89-22.622 57 57 0 0 1 5.616-9.931 248 248 0 0 0 13.549-21.616 44.43 44.43 0 0 1 18.243-17.4c1.743-.916 3.222-2.324 4.888-3.4 1.918-1.243 2.9-.807 3.35 1.455a194 194 0 0 1 2.669 23.23c.73 9.624.308 19.25.266 28.875a37 37 0 0 1-1.016 6.435 2034 2034 0 0 1-3.433 18.149 53.13 53.13 0 0 1-13.155 25.755 33 33 0 0 0-4.3 5.607c-4.464 7.848-10.563 14.181-17.327 20.072-3.664 3.191-6.7 7.121-9.895 10.827-7.691 8.922-16.5 16.8-23.932 25.974-5.39 6.654-10.343 13.47-12.986 21.786a81.5 81.5 0 0 1-4.743 10.956q-5.016 10.257-10.316 20.376a14.38 14.38 0 0 0-1.264 11.9c4.9 15.353 9.294 30.875 15.743 45.69 1.516 3.482 2.186 7.293 4.2 10.565.263.428.736.989 1.138 1.011.7.038.546-.729.557-1.19.187-7.854 2.113-15.443 3.579-23.094 1.743-9.1.853-17.994-1.339-26.89-.531-2.155-1.549-2.637-3.452-2.241a10.96 10.96 0 0 1-8.8-1.614c-3.8-2.594-5.169-6.556-3.452-10.911a26.2 26.2 0 0 0 1.738-6.246 5.96 5.96 0 0 1 4.85-5.246c4.619-1.136 9.371-2.4 13.283 1.677 3.123 3.256 3.807 10.9 1.548 15.479-.56 1.135-1.326 2.167-1.961 3.268-.356.617-.944 1.458-.447 1.993 2.636 2.842 2.086 6.392 2.388 9.764a2.8 2.8 0 0 0 .405.856 3.7 3.7 0 0 0 .777-.566c1.582-1.955 2.8-3.75 2.163-6.731-.843-3.969 1.113-7.81 2.117-11.635.432-1.648 2.034-2.383 3.871-2.461 5.88-.252 10.751 6.273 8.889 12.1a16.64 16.64 0 0 1-4.376 6.783c-1.538 1.511-3.14 2.594-5.295 1.566-1.8-.858-2.9.088-3.6 1.383-2.272 4.194-5.682 7.789-5.358 13.254.222 3.734-.88 7.543-1.354 11.323-.063.5-.069 1.369.174 1.483.813.383 1.239-.3 1.607-.948a20.2 20.2 0 0 1 4.144-4.988 4.6 4.6 0 0 0 1.857-3.231c.076-4.136 2.353-7.531 3.587-11.277.821-2.491 2.266-3.1 4.45-2.809 7.733 1.016 10.455 5.589 9.848 12.969a18.54 18.54 0 0 1-3.532 9.009c-2.4 3.4-4.744 3.892-8.408 1.916-.638-.344-1.2-.831-1.849-1.154-1.153-.574-1.559-2.388-2.906-2.274-1.5.126-2.242 1.7-3.194 2.753-4.27 4.718-7.247 9.9-6.578 16.658a42.5 42.5 0 0 1-.448 7.591 29.73 29.73 0 0 0 2.55 14.335c3.444 8 7.581 15.67 11.7 23.339.6 1.117 1.049 2.426 2.434 2.774 3.85.969 7.71 1.909 11.6 2.717.553.114 1.321-.5 1.9-.907a7 7 0 0 0 1.573-1.5q5.877-7.822 11.7-15.686a6.52 6.52 0 0 0 .424-8 81 81 0 0 1-4.368-8.718 82 82 0 0 1-5.163-19.346c-1.174-7.131-2.927-14.191-3.68-21.36-1.113-10.589-3.751-21.006-2.991-31.827a62.67 62.67 0 0 1 11.328-32.4c4.1-5.852 9.157-10.7 14.35-15.487a66.5 66.5 0 0 0 11.431-13.085 25.8 25.8 0 0 0 3.632-8.424c.191-.887.17-1.994.7-2.6 3.165-3.644 1.642-7.757 1.453-11.782a88.5 88.5 0 0 1 5.6-35.2 9.6 9.6 0 0 1 1.5-2.867c.655-.777 1.5-1.719 2.741-1.354 1.067.313 1.1 1.35 1.108 2.24.012 2.243 1.326 3.674 2.914 4.979a34.38 34.38 0 0 1 12.154 19.479 8.57 8.57 0 0 0 3.657 5.686c7.356 5.137 13.581 11.405 17.053 19.927a38.1 38.1 0 0 1 3.022 14.765c-.042 8.422-2.134 16.525-3.171 24.786-.45 3.594-1.025 7.173-1.471 10.767a9.3 9.3 0 0 0 .513 4.28c3.658 10.45 7.747 20.519 15.421 28.986 7.9 8.714 15.574 17.725 21.134 28.26 7.02 13.3 14.275 26.455 18.593 41.013a149 149 0 0 1 5.349 31.536c.849 11.442 2.389 22.72 6.021 33.647 1.28 3.851 1.323 7.827 1.193 11.836a4.77 4.77 0 0 1-2.876 4.286c-1.666.844-3.211-.105-4.456-1.183a19.7 19.7 0 0 1-3.335-3.566c-1.756-2.532-3.281-5.223-4.954-7.813-1.155-1.789-1.583-4.051-3.469-5.365-1.667 2.1-.711 4.45-.469 6.65.416 3.774 1.2 7.506 1.708 11.272a15.66 15.66 0 0 1-1.925 9.972c-1.632 2.885-3.9 3.452-6.887 2.009-4.045-1.955-6.774-5.407-9.724-8.6-.612-.661-1.017-1.51-1.612-2.188-.548-.624-.918-1.8-1.967-1.409-.447.169-.758 1.185-.8 1.838a10.16 10.16 0 0 1-1.815 5.064c-1.97 2.929-3.816 3.454-6.909 1.585-5.512-3.331-9.8-8.03-13.717-13.054-4.933-6.323-8.692-13.379-12.448-20.427-1.433-2.687-1.411-2.738-3.669-.9-2 1.626-3.939 1.8-6.532 1.051-8.351-2.412-14.59-7.855-20.5-13.731-2.3-2.291-4.84-4.354-6.967-6.8-1.647-1.9-2.846-1.507-4.362.15a179 179 0 0 0-12.815 15.49 6.65 6.65 0 0 0-1.361 4.014c-.09 6.937-1.881 13.608-3.359 20.317-.435 1.975-.886 3.681.222 5.7 5.368 9.758 12.481 18.215 19.544 26.717a1.1 1.1 0 0 0 .877.393c.61-.186.585-.783.559-1.315-.162-3.265-.468-6.53-.459-9.794a15.86 15.86 0 0 1 5.721-12.476 11.4 11.4 0 0 1 2.218-1.569 3.52 3.52 0 0 1 4.084.3 3.38 3.38 0 0 1 .992 3.48c-.468 2.77-2.16 4.989-3.5 7.338a20.1 20.1 0 0 0-3.062 10.858c.026.695.032 1.719.446 2 .724.487 1.271-.42 1.677-.95a45 45 0 0 1 6.694-6.368 14.3 14.3 0 0 1 6.891-3.05c3.387-.651 5.565.293 7.028 2.815 1.805 3.114 1.542 5.859-.915 8.472-2.643 2.809-6.034 4.657-9.174 6.8a17.25 17.25 0 0 0-6.487 7.114c-.509 1.115-.615 2.923-2.769 2.808a5.72 5.72 0 0 1-4.382-2.348c-4.6-5.358-9.385-10.556-14.145-15.772a12.46 12.46 0 0 0-5.325-3.695c-6.046-1.928-12.072-3.947-18.2-5.569-2.576-.682-5.391-.528-8.1-.614-1.43-.045-3.239-.707-4.226.334-1.286 1.355.687 2.519 1.047 3.827a5.92 5.92 0 0 1-1.665 6.441 7.5 7.5 0 0 1-8.135 1.317c-4.624-1.893-7.981-7.247-1.863-11.766 3.342-2.469 6.8-4.106 11.053-3.52a3 3 0 0 0 1.039-.256c-.121-.3-.156-.7-.374-.892-4.176-3.681-8.564-6.713-14.637-5.552-1.719.329-3.074.694-3.872 2.439a11.25 11.25 0 0 1-4.32 4.786c-2.63 1.689-5.328 1.238-7.774-.012-2.472-1.264-3.322-3.754-3.163-6.482a17.4 17.4 0 0 1 .586-3.215c.955-3.769 3.43-5.415 7.263-4.759a6.3 6.3 0 0 1 3.05 1.065c3.182 2.832 6.146.5 9.166-.2.957-.219.907-1.014.4-1.653-2.258-2.831-4.287-5.889-7.55-7.747-6.58-3.747-11.775-8.961-16.459-14.87-3.487-4.4-7.552-8.339-11.344-12.5-6.923-7.593-10.768-16.694-13.082-26.57-.643-2.744.164-5.425.017-8.139a13 13 0 0 1 .483-2.1c.239-1.855-1.757-4.595.569-5.344 1.6-.514 2.585 2.592 3.872 4.027a45.3 45.3 0 0 0 7.99 6.512c5.761 4.069 12.168 7.366 16.509 13.21a29 29 0 0 1 3.4 4.907c5.187 11.364 11.542 22.284 13.539 34.893a8.4 8.4 0 0 0 1.054 3.634c4.533 6.049 8.69 12.466 15.13 16.8a25 25 0 0 1 2.8 1.641c6.262 5.6 14.493 7.395 21.651 11.254a1.7 1.7 0 0 0 1.476.088c.5-.43-.144-.876-.407-1.253-9.975-14.275-18.257-29.628-28.531-43.746a348.4 348.4 0 0 1-31.652-51.981c-6.6-13.521-11.911-27.609-17.2-41.68-2.085-5.544-4.521-10.637-9.457-14.251a28 28 0 0 0-4.582-2.9c-.818-.386-1.69-.657-2.524-1.011-1.6-.68-2.993-1.6-2.422-3.633.43-1.531 2.346-1.747 4.713-.6a16.3 16.3 0 0 1 4.437 3.125 7.2 7.2 0 0 0 1.8 1.206c.707.364 1.022-.205.975-.73a11 11 0 0 0-.562-2.08q-5.571-18.773-11.137-37.545c-1.179-4-2.481-7.979-3.322-12.052a23.3 23.3 0 0 0-3.991-8.832q-7.059-10.025-14.009-20.126c-.853-1.245-2.6-2.709-1-4.244s3.04.25 4.241 1.158a28 28 0 0 1 3.406 3.5c1.838 1.991 3.19 4.434 5.54 5.948l.194-.082Zm54.788-37.528c1.2-1 .66-2.432.9-3.67 2.563-1.343 2.319-4.305 3.655-6.381a112.2 112.2 0 0 0 10.762-22.528 44.3 44.3 0 0 1 5.462-10.628c5.631-7.887 9.515-16.631 13.109-25.556 2.569-6.379 5.351-12.673 8.073-18.99a16.4 16.4 0 0 1 1.587-2.806c.257-.372.932-.746 1.011.2a11.6 11.6 0 0 1-.332 4.315c-1.284 4.339-2.313 8.762-3.768 13.041-3.142 9.242-5.921 18.648-10.5 27.323a209 209 0 0 0-10.181 21.606c-1.7 4.37-3.263 9-6.238 12.626-4.678 5.7-6.317 12.531-8.41 19.25-.15.482-.323 1.343-.118 1.48.747.5 1.277-.242 1.685-.712q7.847-9.027 15.634-18.105a72 72 0 0 1 7.562-7.769c6.487-5.57 12.654-11.433 16.512-19.292 1.915-3.9 4.634-7.3 7.2-10.8a35.3 35.3 0 0 0 6.349-13.122c1.646-7.437 2.947-14.952 4.641-22.377 1.2-5.238.544-10.452.325-15.667-.356-8.5-.955-16.987-1.441-25.481-.041-.719.1-1.558-.641-1.942s-1.379.095-1.862.652c-2.6 2.991-5.8 5.358-7.966 8.83-4.118 6.591-7.8 13.486-12.639 19.6a104 104 0 0 0-10.472 17.141c-2.248 4.35-4.425 8.748-6.924 12.952a69.4 69.4 0 0 0-7.315 15.752 104 104 0 0 1-6.295 16.2 82.9 82.9 0 0 0-8.466 31.3l-.764 3.685-.179.238Zm-1.974 232.271q.447.243 0 .307l.135-.22c-3.257-5.91-7.487-11.128-11.682-16.368-1.367-1.709-2.851-3.34-2.822-5.715.007-.527-.02-1.3.289-1.53.785-.6 1.242.284 1.627.753 3.223 3.924 6.385 7.9 9.6 11.826 1.724 2.1 3.5 4.161 5.3 6.205.3.338.753.883 1.274.322.147-.158.02-.661-.1-.958-.271-.671-.649-1.3-.926-1.967-2.663-6.429-7.448-11.593-10.563-17.752a28 28 0 0 0-10.007-11.2c-3.778-2.44-7.11-5.573-10.625-8.417-.547-.443-1.1-1.087-1.777-.547-.293.233-.305 1.026-.2 1.515 1.816 8.819 4.828 17.117 10.924 23.973 5.3 5.961 10.677 11.854 16.045 17.754.93 1.033 1.694 2.479 3.508 2.02Zm86.135-140.647c2.785.239 6.217.119 9.58 1.249 9.46 3.18 16.193 9.417 20.652 18.168 3.371 6.616 6.216 13.512 9.8 20.006a58 58 0 0 1 5.673 15.778c2.039 9.2 4.239 18.363 6.492 27.512 1.346 5.466 2.775 10.875 2.432 16.6a11.17 11.17 0 0 1-3.1 7.239c-1.572 1.691-3.174 2-5.315.8a17.74 17.74 0 0 1-6.012-5.4 1.84 1.84 0 0 0-1.662-1.036 14 14 0 0 0 .2 1.563c.826 3.345.821 6.8 1.521 10.189.79 3.819-2.2 8.838-5.577 10.407-3.543 1.645-5.758-1.021-8.148-2.779-1.6-1.176-2.935-2.7-4.421-4.037a3.1 3.1 0 0 0-.983-.39 5 5 0 0 0-.248 1.041c-.03 2.066.933 3.809 1.741 5.641 4.579 10.375 11.086 19.54 17.858 28.528a76 76 0 0 0 5.868 6.397c.336.354.836.76 1.414.339a1.335 1.335 0 0 0 .547-1.39c-.76-5.9.533-11.986-1.652-17.788-.749-1.988-1.757-4.821.157-6.03 2.631-1.663 4.05 1.307 5.475 3.041 4.848 5.9 8.895 12.353 13 18.771 1.658 2.589 3.6 5 5.487 7.437.4.516 1.018 1.239 1.826.789.68-.38.646-1.2.651-1.917 0-.181 0-.363-.017-.544-.712-10.288-1-20.629-3.259-30.74a24.7 24.7 0 0 1-.485-7.019c.152-2.4 1.745-3.082 3.7-1.66a12.5 12.5 0 0 1 2.282 2.309 53 53 0 0 1 4.963 7.8c2.282 4.123 4.652 8.2 7.043 12.261a1.64 1.64 0 0 0 1.3.715c.56-.094.521-.8.449-1.308-.76-5.372-1.3-10.778-2.671-16.05a146 146 0 0 1-4.652-27.256c-.666-10.288-3.686-19.884-7.953-29.133-3.946-8.555-8.07-17.03-12.231-25.483-4.426-8.991-9.648-17.384-17.509-23.925-13.347-11.107-20.389-25.54-21.751-42.758-.154-1.952-.66-2.9-2.554-3.405a15.14 15.14 0 0 1-8.9-6.757c-.735-1.133-.811-3.393-2-3.3-1.282.1-1.479 2.275-2.124 3.556a37 37 0 0 1-1.623 3.436c-2.152 3.348-5.286 4.116-8.954 2.534-5.074-2.189-7.123-6.643-8.252-11.467-1.4-5.989-2.673-12.05-2.6-18.277a1.9 1.9 0 0 0-.487-1.385c-.467-.343-1.011.065-1.406.466a6 6 0 0 0-.744.794c-4.163 6.09-9.966 10.43-15.639 14.968-14.347 11.476-20.28 26.656-18.147 44.7.889 7.519 2.774 14.956 3.976 22.473a12.9 12.9 0 0 0 2.245 4.918c.274.42.522 1.079 1.211.69a1.56 1.56 0 0 0 .552-.872c.368-1.215.58-2.486 1.035-3.665 3.765-9.742 9.145-18.325 19.147-22.573 6.997-2.977 14.363-5.113 22.799-4.77Zm1.11 7.884c-6.464-.182-12.556 1.637-18.536 3.719a22.15 22.15 0 0 0-8.382 4.9 33.33 33.33 0 0 0-9.857 17.078c-3.044 13.965-1.822 27.574 4.654 40.175a117.8 117.8 0 0 0 14.767 22.765c6.693 7.846 13.794 15.346 20.795 22.925 2.326 2.518 4.844 4.866 7.377 7.179.734.67 1.722 1.643 2.873.9.839-.544.454-1.633.523-2.5 1.155-14.577-2.1-28.439-6.76-42.086-1.171-3.427-2.16-6.917-3.184-10.392a13 13 0 0 1-.438-2.681.98.98 0 0 1 .567-.776c.492-.065 1.3-.078 1.473.2a26 26 0 0 1 1.648 3.4c1.007 2.321 1.634 4.892 3.029 6.944 5.3 7.792 10.8 15.446 16.323 23.08 1.012 1.4 2.361 3.932 3.759 3.346 2-.838.915-3.526.611-5.31-1.55-9.094-2.969-18.215-6.865-26.747-1.8-3.95-2.525-8.306-3.111-12.623a1.8 1.8 0 0 1 1.412-2.04 1.835 1.835 0 0 1 1.874.838 6.3 6.3 0 0 1 1.151 1.829c3.009 8.283 8.307 15.234 13.059 22.5 1.58 2.417 3.242 4.781 4.924 7.129.286.4.9.879 1.3.829 1.017-.128.718-1.09.623-1.687-1.084-6.759-2.037-13.547-3.4-20.251a147 147 0 0 0-4.382-17.345c-4.034-12.054-9.807-23.331-15.832-34.521-3.168-5.882-7.687-8.87-13.88-10.115a29.8 29.8 0 0 0-8.115-.661ZM209.221 39.8c-.75-5.234-.2-11.061-1.587-16.748-.575-2.352.5-6.088-1.992-6.68-1.971-.468-2.653 3.406-3.967 5.276a119 119 0 0 0-9.2 14.681c-3.16 6.287-5.962 12.757-9.626 18.783a67.1 67.1 0 0 0-8.701 22.088c-1.258 6.369-3.25 12.6-4.992 18.865-3.022 10.878-5.017 21.846-3.192 33.183.1.619-.3 1.632.591 1.75.722.1 1.083-.793 1.391-1.437 2.9-6.044 5.966-12.084 7.569-18.58a280 280 0 0 1 8.066-27.064c2.184-6.118 3.572-12.528 6.553-18.359 1.217-2.38 2.031-5.014 4.2-6.806 1.587 2.808.7 5.777.562 8.7-.008.178-.1.35-.128.529-.907 6.178-3.391 11.819-5.879 17.47-5.3 12.024-7.757 24.862-10.51 37.594-.686 3.172-1.032 6.416-2.031 9.543-2.982 9.334-4.67 18.983-6.815 28.52a15 15 0 0 0-.253 2.7c-.012.342.071.879.291 1 .562.311.977-.151 1.222-.6 4.177-7.6 9.175-14.755 11.86-23.168a121 121 0 0 1 7.446-18.062 75 75 0 0 0 6.6-17.216C199.474 93.571 202.72 81.5 206 69.436c2.592-9.507 2.674-19.342 3.221-29.636m35.758 333.133a3.85 3.85 0 0 0 .548 3.12c2.2 3.547 4.418 7.077 6.612 10.625a1.81 1.81 0 0 0 2.724.808c1.247-.721 2.807-1.239 3.622-2.309 3.5-4.6 7.619-8.789 10.283-13.971 2.334-4.541 4.837-8.948 8.389-12.628 1.651-1.711 1.361-3.045.065-4.679-3.261-4.111-6.415-8.308-9.7-12.4-1.89-2.357-2.143-2.411-4.116-.189a171 171 0 0 1-15.055 14.916 5.04 5.04 0 0 0-1.894 3.765 80 80 0 0 1-1.478 12.941Zm85.482-183.006c.895-4.579-1.638-9.057-3.363-13.53-2.17-5.624-6.522-9.922-10.915-14.024-1.372-1.28-2.528-1.057-3.713.193a22.4 22.4 0 0 0-4.519 6.72c-1.493 3.544-1.273 3.351 1.664 6.131 6.919 6.548 9.527 11.524 5.439 21.762a29 29 0 0 1-1.873 3.3c-.53.935-1.311 1.79-1.145 2.98.9 6.474 3.142 12.316 8.326 16.606 1.961 1.622 3.721 1.512 3.971-1.568a61.4 61.4 0 0 1 4.771-19.436 20.5 20.5 0 0 0 1.357-9.135Zm-26.892-14.209a11 11 0 0 0-.672-2.648 55.7 55.7 0 0 0-5.514-8.709 8.75 8.75 0 0 0-3.533-2.48c-2.526-1.055-4.27.154-4.26 2.88a16.4 16.4 0 0 0 .24 2.7c.861 5.032 1.466 10.03-.208 15.057a8.9 8.9 0 0 0-.019 3.769q1.526 11.867 3.178 23.716a29 29 0 0 0 1.016 4.226 8.61 8.61 0 0 0 7.021 6.1c3.2.658 3.337-2.716 4.845-4.29a1.7 1.7 0 0 0 .355-.41c2.833-6.336 4.584-12.525-.487-18.794-4.159-5.142-4.829-11.162-3.088-17.475.335-1.218.743-2.413 1.126-3.643Zm-3.853-39.248c-1.078.12-.933.988-.855 1.627a177 177 0 0 0 3.626 18.637c.41 1.755.965 3.48 1.541 5.19a.96.96 0 0 0 1.18.749c1.032-.337 4.247-5.776 3.857-6.871-2.3-6.464-3.817-13.3-8.488-18.683a5 5 0 0 0-.861-.65ZM201.748 238.8c.077 1.59-.47 3.406 1.5 3.731a7.406 7.406 0 0 0 8.866-8.141c-.258-3.427-1.824-4.577-5.948-4.367-3.281.167-4.022.927-3.722 4.844.116 1.527-1.087 2.684-.696 3.933m92.171-99.951a1.08 1.08 0 0 0-1.094 1.041c-.532 3.574-1 7.159-1.5 10.738-.275 1.968-1.355 4.283-.667 5.81.874 1.939 3.829.16 5.666 1.4 1.482 1 2.271.691 1.841-1.406-1.159-5.654-3.544-11.039-3.731-16.909-.003-.239-.347-.468-.515-.677Zm-64.067 133.542c-.886 2.528.157 4.852 1.352 7.069.85 1.575 2.379 1.568 3.416.073a10.67 10.67 0 0 0 1.546-9.7c-.583-1.866-3.164-4.134-4.653-3.748-2.124.552-1.081 2.689-1.62 4.055a6.8 6.8 0 0 0-.041 2.251M295.7 443.615c.319-.147.65-.271.954-.444 3.746-2.136 7.524-4.218 11.213-6.45a16.6 16.6 0 0 0 3.733-3.07 2.557 2.557 0 0 0-.211-3.47c-.763-.928-1.6-.3-2.427 0-6.064 2.223-10.014 6.793-13.352 12.029-.243.39-.61.983.09 1.405m-84.056-28.079c-.112 2.308.9 3.644 2.815 3.714 2.182.08 5.469-2.633 5.385-4.445-.066-1.413-2.117-2.634-4.695-2.792-2.492-.154-3.366.724-3.503 3.523Zm13.88-167.836c.072.5.178 1.2.271 1.9.121.91.294 1.777 1.328 2.117a2.15 2.15 0 0 0 2.348-.876 6.22 6.22 0 0 0 .835-6.982 2.82 2.82 0 0 0-2.791-1.264 1.728 1.728 0 0 0-1.649 2.261 5.53 5.53 0 0 1-.342 2.844m36.759 147.56c-.536-1.445 1.787-4.191-.072-4.831-1.586-.546-2.061 2.877-3.389 4.276a3.6 3.6 0 0 0-.724 1.442c-.439 1.467 1.645 5.638 2.72 5.288 1.607-.524.91-2.356 1.178-3.629.148-.699.167-1.428.287-2.543Zm27.743 29.749a9 9 0 0 0 .632-.855c.983-1.71 2.016-3.4 2.9-5.158.648-1.288 2.689-2.882 1.015-3.951-1.017-.648-2.411 1.643-3.266 3a10.48 10.48 0 0 0-1.936 6.046c.016.372-.291 1.143.655.921Zm-56.161 6.452c1.479.053 3.071.208 3.153-1.848a2.99 2.99 0 0 0-2.419-3.085c-1.274-.353-3.131 1.369-3.2 2.886-.07 1.723 1.221 1.911 2.466 2.05Zm77.75-240.535c.025-2.121-.445-2.858-1.782-2.688-1.061.135-2.2.379-2.258 1.8-.072 1.636 1.876 4.5 2.775 4.062 1.336-.644 1.072-2.1 1.265-3.171Zm-68.273 175.766c-.188-.576.4-1.66-.712-1.641a1.77 1.77 0 0 0-1.621 1.85c-.021.859.1 2.127 1.124 2.194 1.807.118.795-1.567 1.209-2.403m65.51-183.6c-.1-1.095-.531-2.028-1.746-2.216-.645-.1-.848.571-.965 1.069-.222.942-.086 1.8 1.057 2.014.717.141 1.394.022 1.654-.865ZM236.08 356.684c-.624.043-.979.32-.692.966.392.884.954 1.575 2.076 1.188.492-.17 1.156-.552.93-1.032a2.4 2.4 0 0 0-2.314-1.122m18.771 33.638c.178.237.318.631.539.684.821.2 1.237-.461 1.587-1.015.482-.762-.238-.826-.672-.816a1.366 1.366 0 0 0-1.454 1.147m-183.2-49.064a30 30 0 0 1 3.339.522c2.8.762 5.529 1.593 8.517.8a5.44 5.44 0 0 1 3.165.5c4.235 1.744 8.846 2.683 12.307 6.092 1.4 1.383 3.347 2.2 4.85 3.5 6.039 5.231 14 5.56 21.01 8.306 2.682 1.051 5.55 1.614 8.131 3.021.655.358 1.663 1.228 2.4.32.617-.765-.062-1.7-.4-2.516-1.812-4.358-3.6-8.728-5.441-13.072a17.07 17.07 0 0 0-6.65-7.765c-5.048-3.223-10.236-6.23-15.4-9.268a3.19 3.19 0 0 0-2.573-.574c-6.21 1.832-12.124-.022-18.053-1.516-2.367-.6-4.406-1.764-5.357-4.187-.636-1.62-2.042-2.471-3.187-3.622-5.39-5.418-10.52-11.07-13.913-18.024-.98-2.008-2.52-3.537-3.822-5.275a35 35 0 0 1-3.373-4.924 5.66 5.66 0 0 1 .092-5.723c.938-1.26 3-.12 4.519.185a48.8 48.8 0 0 1 25.058 13.451c1.593 1.567 3.011 2.794 5.641 2.349 3.124-.527 5.544 1.53 7.549 3.664 4.242 4.516 8.488 9.094 8.259 15.956a2.33 2.33 0 0 0 1.141 2.289c3.907 2.312 7.8 4.652 11.708 6.957.257.151.779.245.921.1a1.08 1.08 0 0 0 .223-.97c-.669-1.486-1.365-2.966-2.152-4.392a140 140 0 0 1-6.658-13.712A76.3 76.3 0 0 0 103.3 296.4a38.5 38.5 0 0 0-13.4-10.944 128 128 0 0 1-23.966-15.93c-4.6-3.77-7.186-8.625-8.689-14.138-1.539-5.647-.088-10.823 3.392-15.408a44.4 44.4 0 0 0 5.863-10.411c.872-2.176.55-3.98-1.585-5.088-6.949-3.607-13.214-8.309-19.9-12.34-5.355-3.229-11.32-4.869-17.064-7.021a45.6 45.6 0 0 1-18.833-13.415 16.04 16.04 0 0 1-1.168-19.173 26 26 0 0 1 4.973-5.753 18.8 18.8 0 0 0 4.915-5.757c3.64-7.17 3.348-8.594-3.23-13.249-4.044-2.862-7.355-6.484-10.718-10.053a15.43 15.43 0 0 1-3.808-8.865c-.74-5.735 3.6-11.829 10.308-14.342 3.9-1.46 7.958-2.526 11.991-3.591 3.152-.831 6.379-1.373 9.567-2.067 2.788-.608 3.007-.942 1.749-3.653-3.2-6.907-3.977-14.241-4.224-21.731-.2-6.209 2.534-11.248 5.949-16a90 90 0 0 1 6.391-7.433 20.5 20.5 0 0 1 6.969-5.129c5.475-2.428 9.087-1.7 13.373 2.381a36.55 36.55 0 0 1 9.11 14.626c1.51 4.264 2.865 8.584 4.23 12.9a71.3 71.3 0 0 0 6.495 14.35c1.965 3.377 3.431 3.918 7.208 2.739a30 30 0 0 0 4.479-1.951c4.287-2.158 8.71-3.514 13.611-3.106 2.709.225 5.454-.029 8.177.081 6.781.274 10.614 3.156 13.021 9.414a19.16 19.16 0 0 1 .3 13.8 68.6 68.6 0 0 1-9.408 17.1c-1.368 1.921-2.707 3.864-4.087 5.777-4.178 5.793-5.667 12.47-6.5 19.392-.263 2.178.562 2.758 2.666 2.9 9.516.648 14.3 4.735 16.842 14.041.62 2.273 1.388 4.507 1.96 6.791 1.309 5.225.662 10.009-2.937 14.323-1.744 2.091-3.391 4.244-5.333 6.171a61.5 61.5 0 0 0-5.559 5.975c-4.217 5.475-4.144 7.474-.082 13.037 3.211 4.4 6.5 8.748 9.55 13.253 5.06 7.463 5.491 15.548 2.647 23.905-1.7 4.985-3.8 9.8-5.986 14.605a22.85 22.85 0 0 0-1.42 16.448c1.893 6.251 3.573 12.574 5.675 18.754 4.1 12.057 6.232 24.615 9.679 36.835a173 173 0 0 0 8.67 24.636 194 194 0 0 1 9.18 26.173 17 17 0 0 1 .532 2.645c.036.293-.231.624-.359.937-.311-.182-.755-.289-.907-.559a25 25 0 0 1-1.114-2.429c-1.429-3.338-2.845-6.681-4.28-10.017a7.8 7.8 0 0 0-1.186-2.436c-3.809-3.868-7.355-8.118-11.66-11.345-6.085-4.563-12.792-8.289-19.151-12.5-2.679-1.772-5.044-1.826-8.129-.647-7.741 2.958-15.556 6.51-24.119 5.284-8.524-1.221-17.495-.81-25.193-5.719a78.3 78.3 0 0 1-12.652-9.359c-2.913-2.817-2.483-4.251 1.162-6.021a61.4 61.4 0 0 1 21.775-6.428c.896-.077 1.783-.278 2.584-.407ZM84.982 363.1a7.71 7.71 0 0 0 6.626 1.358c.57-.1 1.651-.261 1.35-1.244a2.68 2.68 0 0 0-1.393-1.521 3.57 3.57 0 0 0-2.064.144c-1.558.434-2.956 1.41-4.657 1.368.474-1.447 1.677-2.27 2.754-3.2.6-.514.994-1.23.512-1.837-.965-1.211-1.68-3.044-3.558-2.881-1.739.151-3.806.584-4.361 2.5a8.12 8.12 0 0 0 .282 5.739c.152.323 1 .529 1.464.448a26 26 0 0 0 3.045-.874m20.623-77.3.291-.155-.4.082c.835-1.22.281-2.384-.053-3.615-2.512-9.237-5.352-18.37-7.2-27.8-1.522-7.789-.589-7.965-9.493-5.192a4.4 4.4 0 0 0-1.508.588c-3.525 2.922-7.643 2.732-11.813 2.344-1.62-.151-3.244-.392-4.864-.381-1.2.007-2.8-1.008-3.539.189-.824 1.333.442 2.723 1.037 4.009a8.5 8.5 0 0 0 2.679 3.342c6.819 5.07 13.363 10.485 20.709 14.866a54.4 54.4 0 0 1 14.154 11.723M77.42 183.621c-.056-.4-.083-.765-.16-1.117-2.919-13.3-7.333-26.145-11.7-39.008a2.45 2.45 0 0 0-2.429-1.733c-8.622-.862-17.083-3.34-25.887-2.418a43 43 0 0 1-5.982-.12 8.2 8.2 0 0 1-4.694-1.181c-4.753-3.468-10.411-5.042-15.606-7.579-.521-.255-1.159-1.212-1.767-.166a2.02 2.02 0 0 0 .13 2.063 29.6 29.6 0 0 0 9.586 10.224c1.847 1.151 3.759 2.222 5.493 3.528a8.44 8.44 0 0 1 3.453 9.509c-1.581 6.625-4.766 12.153-10.214 16.22a11.82 11.82 0 0 0-4.779 7.012c-.634 2.777.243 4.534 2.829 4.872a68 68 0 0 0 12.968.945 52.9 52.9 0 0 0 16.962-3.584 23.48 23.48 0 0 1 17.04-.167c4.287 1.483 8.861 1.951 13.019 3.852 1.118.512 1.65-.073 1.738-1.152m-52.429 5.1c-2.693-.368-5.384-.746-8.079-1.092-.341-.044-.857-.054-1.026.146-.4.471-.03.979.292 1.342a25.1 25.1 0 0 0 11.551 7.869c14.8 4.449 27.37 13.267 40.677 20.641a16.3 16.3 0 0 1 2.606 1.968c4.311 3.694 5.035 6.2 3.272 11.51-1.329 4.007-3.891 7.364-5.959 10.979A13.5 13.5 0 0 0 66.489 246c-.37 1.792.367 3.053 2.055 3.127 5.757.251 11.617.9 16.648-3.068a10.3 10.3 0 0 1 5.572-1.954c4.825-.442 4.831-.489 3.6-4.91-.391-1.4-.889-2.764-1.274-4.162-3.413-12.422-9.137-24.108-11.7-36.806-.392-1.946-1.306-3.789-1.669-5.737-.448-2.4-1.965-3.172-4.105-3.618-4.081-.849-8.194-1.655-12.166-2.889a24.57 24.57 0 0 0-17.051.541c-6.946 2.824-14.106 3.055-21.408 2.201ZM54.284 67.607c.253 1.524.479 3.14.8 4.738.46 2.311 1.155 4.587 1.457 6.916 1.161 8.985 2.3 17.975 3.24 26.985a41.3 41.3 0 0 0 1.691 7.966c3.393 10.924 8.009 21.375 12.669 31.8.812 1.817 1.776 3.572 2.763 5.3.816 1.433 1.654 1.193 2.214-.217 2.328-5.864 6.686-10.348 10.486-15.173 3.831-4.865 6.7-10.467 12.02-14.244 2.9-2.057 5.408-4.756 8.491-6.692a47 47 0 0 0 10.08-8.269c1.582-1.763 1.313-2.688-.88-3.644a5.5 5.5 0 0 0-2.06-.65c-6.153.016-12.34-.264-18.125 2.55a86 86 0 0 1-9.452 4.1c-6.773 2.338-9.595 1.341-13.2-4.7a98.5 98.5 0 0 1-9.785-20.612 64.4 64.4 0 0 0-6.253-14.452 16.5 16.5 0 0 0-4.107-5.023c-.726-.526-1.421-.323-1.657.534a21 21 0 0 0-.392 2.787M95.5 195.178c4.983.726 10.1-1.712 14.44-6.482 2.325-2.556 5.459-4.156 8.572-5.65 3.895-1.87 4.208-3.573 1.139-6.594a8.66 8.66 0 0 0-4.306-2.18c-1.937-.429-3.908-.72-5.875-.993-5.27-.731-7.954-3.31-7.942-8.494.018-8.257 1.377-16.182 6.493-23.108 3.235-4.378 6.634-8.6 10.1-12.791 4.287-5.175 6.909-11.024 6.207-17.96a2.23 2.23 0 0 0-.6-1.407c-.764-.615-1.367.086-1.814.588-3.3 3.7-7.567 6.188-11.448 9.155a29.2 29.2 0 0 0-7.544 7.714 118 118 0 0 1-8.756 13.075c-4.994 6.092-8.207 13.205-12.34 19.781a4.97 4.97 0 0 0-.68 4.627c2.779 7.566 3.2 15.555 4.445 23.417 1.395 8.748 1.009 6.956 9.909 7.302m-49.8-81.354a5.38 5.38 0 0 1-1.384 3.989c-2.922 3.7-6.818 4.628-11.226 3.868-7.15-1.233-13.972.565-20.829 2.094-1.24.277-2.656.654-2.8 2.136-.128 1.3 1.28 1.7 2.179 2.136 5.7 2.741 12.017 3.949 17.639 6.925a2.36 2.36 0 0 0 1.078.093c3.632-.067 7.351.329 10.875-.327 5.553-1.034 10.8.148 16.168.944 1.876.278 4.145 2.5 5.463.657.946-1.318-.666-3.7-1.453-5.516-.216-.5-.489-.978-.672-1.49-2.676-7.5-6.534-14.548-7.785-22.591-1.284-8.256-1.424-16.617-2.718-24.859a99 99 0 0 0-2.75-13.841c-.612-1.99-1.588-1.636-2.667-.573a12 12 0 0 0-2.007 2.56c-5.444 9.515-7.205 19.305-1.5 29.323a37.6 37.6 0 0 1 4.394 14.472Zm79.223 76.556a42 42 0 0 0-.808-4.807 1.519 1.519 0 0 0-2.5-.975 14.5 14.5 0 0 0-5.38 5.274 40 40 0 0 1-5.709 7.251c-3.71 3.907-8.189 5.793-13.662 4.948-2.148-.331-4.315-.546-6.479-.748-1.089-.1-1.779.324-1.341 1.571.36 1.023.831 2.007 1.173 3.036 3.311 9.962 7.286 19.7 9.639 29.984 1.493 6.522 3.36 12.959 5.064 19.432.134.512.287 1.072.923 1.128s.951-.408 1.156-.923c2.358-5.931 6.5-10.856 9.369-16.512 1-1.971 1-3.233-.252-4.816-2.131-2.7-4.1-5.541-6.33-8.156-4.111-4.82-4.659-8.832-1.7-14.422a21.1 21.1 0 0 1 4.212-5.628c3.308-3.1 6.479-6.344 9.825-9.4a7.54 7.54 0 0 0 2.805-6.237ZM73.3 345.809c-8.478.367-16.03.737-22.852 4.694-1.551.9-1.223 1.269-.114 2.11 2.031 1.538 17.9 9.5 20.569 10.448 1.632.581 2.437 1 2.583-1.447a33.4 33.4 0 0 1 3.014-11.433c1.573-3.569 1.425-3.715-2.512-4.274-.538-.075-1.072-.154-.688-.098m50.138-93.4a18.3 18.3 0 0 0-2.216-10.069c-.5-.938-1.286-1.516-2.036-.479-2.545 3.518-5.106 7.163-6.227 11.342a127 127 0 0 0-2.476 14.4 13.6 13.6 0 0 0 1.313 8.965c.329.576.513 1.457 1.3 1.427.337-.013.686-.752.959-1.2 2.909-4.813 4.765-10.127 7.228-15.147a18.7 18.7 0 0 0 2.157-9.242Zm-36.052 55.643a3.68 3.68 0 0 0-1.823-2c-3.549-2.144-7.025-4.427-10.68-6.374a50.5 50.5 0 0 0-7.071-2.7 1.87 1.87 0 0 0-1.5.052c-.794.629-.1 1.292.292 1.8 4.739 6.147 9.481 12.292 14.288 18.386.875 1.11 1.581.165 2.01-.594 1.335-2.358 2.6-4.754 3.877-7.145.251-.477.421-.989.607-1.425m9.528 54.9c1.574.036 4.265-.876 4.432-1.5s-3.007-3.959-3.9-4.081c-1-.138-4.172 2.09-4.192 2.947-.017.942 2.286 2.602 3.66 2.634m-5.786-11.29c-1.58.025-3.346 1.224-3.377 2.217-.035 1.11 2.063 3.209 3.161 3.16 1.121-.05 4.149-2.355 3.919-3.081-.579-1.831-2.265-1.989-3.703-2.296m-3.412-29.353c1.121-.622 2.645-1.073 3.564-2.077 1.162-1.269-.4-2.218-1.12-3.107-.787-.978-1.685-.469-2.15.36a17.5 17.5 0 0 0-1.425 3.492c-.195.646-.192 1.487 1.131 1.332m7.466-7.315c-.39.311-1.336.144-1.305 1.209a3.632 3.632 0 0 0 4.743 2.948 1.05 1.05 0 0 0 .709-1.245 4.355 4.355 0 0 0-4.147-2.912m-1.913 7.963c-1.219.226-2.442.426-3.651.695a2.9 2.9 0 0 0-.831.539c.21.191.4.515.633.551q3.138.486 6.292.869a3.3 3.3 0 0 0 1.022-.208 5.6 5.6 0 0 0-.634-1.374 2.83 2.83 0 0 0-2.831-1.072m7.443.806c-.213-.749.73-2.207-1.135-2.167-.938.02-1.815.45-1.578 1.575.216 1.023.683 2.237 1.775 2.44 1.489.277.926-.984.938-1.848M83.1 352.222c-.353-.961-.671-2.189-1.91-2.11-1.068.068-1.071 1.223-1.095 2.1-.026.916.114 1.933 1.3 1.767a1.95 1.95 0 0 0 1.705-1.757m20.06 5.426a1.9 1.9 0 0 0-.593.061c-.4.206-.325.459-.042.857.832 1.175 1.513 2.567 3.314 2.223a4.5 4.5 0 0 0 1.238-.692c-.2-.285-.332-.686-.6-.832-1.106-.593-2.252-1.107-3.315-1.617Zm-10.528-47a1.518 1.518 0 1 0 .631 2.961c.72-.127 1.635-.277 1.573-1.145-.087-1.242-1.07-1.734-2.202-1.814Zm-5.869 39.8c-.178-1.053-1.222-1.107-1.941-1.465-.377-.188-1.16-.14-.867.731a1.95 1.95 0 0 0 1.469 1.43 1.24 1.24 0 0 0 1.341-.697Zm-1.123 102.63a4.28 4.28 0 0 0 2.186 2.97 69.7 69.7 0 0 0 22.45 7.929 2.8 2.8 0 0 0 1.018-.232c-.091-.339-.072-.8-.291-1-7.223-6.544-9.7-16.541-17.011-23.1-4.864-4.363-10.577-5.195-16.591-5.582a1.4 1.4 0 0 0-1.536 1.231 20 20 0 0 1-.427 2.681c-.957 2.962-2.527 4.144-5.68 3.936a72 72 0 0 1-8.627-1.106 13.92 13.92 0 0 1-10.813-12.041c-.351-4.156 1.194-6.421 5.265-7.72 6.057-1.932 12.219-.224 15.649 5.424 2.443 4.023 5.691 3.8 9.27 3.571 1.644-.1 2.079-1.4.913-2.67-2.32-2.526-4.94-4.719-6.4-8.028-.647-1.467-2.947-1.121-4.478-1.535a14.1 14.1 0 0 1-9.516-7.485c-3.18-6.3.069-13.979 6.973-15.236 4.548-.828 9 .046 12.091 4.272a22.3 22.3 0 0 1 4.367 9.811c.436 2.785.135 5.324-1.8 7.6-2.213 2.6-2.2 2.772-.145 5.408a75.4 75.4 0 0 0 14.22 14.146c1.543 1.157 2.595 4.227 4.876 3.137 1.59-.76 1.408-3.64 2.4-5.3 2.093-3.51 2.144-7.646 3.9-11.244a5.95 5.95 0 0 0-.129-5.305c-2.082-4.067-1.772-8.473-1.915-12.8a6.723 6.723 0 0 1 6.108-7.083 11.7 11.7 0 0 1 3.786.159c8.476 1.729 18.973 13.553 12.451 25.5-2.724 4.987-5.967 6.291-11.208 4.034a26 26 0 0 1-2.414-1.257c-1.117-.626-2.2-.862-2.051.911.414 4.83-1.731 8.9-3.982 12.8s-1.826 7.183.808 10.526c2.919 3.7 5.792 7.447 8.691 11.168a7.46 7.46 0 0 0 7.118 2.983c5.243-.452 10.406-1.553 15.63-1.933 6.863-.5 13.767-.452 20.653-.63a29 29 0 0 0 3.8-.064c1.38-.219 3.787-.6 3.862-1.166.226-1.707-1.921-1.759-3.031-2.558-3.532-2.542-7.081-5.079-10.781-7.365-2.81-1.736-3.262-1.764-5.264.965-4.488 6.117-17.956 5.074-19.956-3.627-.48-2.085-1.636-4.011-2.436-6.028-1.577-3.97-.955-5.442 2.6-7.564 5.364-3.2 10.837-2.478 16.257-.51a7.87 7.87 0 0 1 5.137 6.581c.388 3.436 2.128 5.156 5.094 6.212a9.7 9.7 0 0 1 1.841 1.149c3.261 2.1 2.554 1.758 4.187-1.605 2.1-4.326.816-7.345-1.041-11.2-2.833-5.888-.65-9.6 5.65-11.55 5.508-1.708 9.906-.34 13.449 4.26 2.451 3.183 4.741 6.474 4.8 10.723.076 5.592-3.412 8.781-9.017 8.252a15.44 15.44 0 0 1-6.695-2.107c-1.822-1.115-2.722-.025-3.427 1.313a7.03 7.03 0 0 0-.229 5.315c1.422 5 6.916 8.357 12.194 7.79 5.46-.586 10.412-3.01 15.721-4.13.544-.115.911-1.068 1.36-1.632l-.1.106c2.942.563 5.756-.126 8.571-.858.7-.182 1.426-.267 2.134-.423 3.851-.849 6.38-.034 6.866 2.224.477 2.212-1.856 5.552-4.8 6.473-3.982 1.245-8 2.415-12.06 3.364-5.654 1.323-11.356 2.445-17.049 3.592a26.4 26.4 0 0 0-14.113 7.714 12.2 12.2 0 0 0-2.044 2.52c-1.065 1.968-1.894 4.447-.549 6.181 1.311 1.69 3.668.538 5.5-.1 5.276-1.836 8.568.3 9.306 5.869.635 4.79-.875 8.428-4.917 11.155-4.082 2.754-8.32 4.425-13.283 2.894a6.82 6.82 0 0 1-4.913-5.924c-.553-3.385-.127-6.738 2.138-9.272 2.439-2.73 2.375-5.956 2.87-9.131.256-1.642-.706-1.852-1.955-1.423-2.229.767-4.4 1.713-6.658 2.376-1.569.462-3.556.53-4.419 1.813-.885 1.316 1.048 2.446 1.48 3.8 1.634 5.117.151 9.451-4.316 12.794-5.159 3.861-10.747 4.089-16.549 2.139a11.98 11.98 0 0 1-7.355-7.579c-1.894-5.034.3-9.488 5.625-11.872a17.2 17.2 0 0 1 9.088-1.3c10.385 1.219 18.418-4.24 26.709-9.043.476-.275.869-.754.542-1.319-.126-.22-.646-.309-.981-.3-5.077.176-10.174.142-15.224.619a131.9 131.9 0 0 1-40.123-2.164c-9.451-2.02-17.548.409-25.426 5.086-.938.556-1.025 1.209-.75 2.245 2.4 9.031-.846 14.171-9.979 15.852a22.4 22.4 0 0 1-8.673.066c-4.658-.962-7.218-3.942-7.43-8.695-.3-6.642 2.175-10.285 8.383-12.3a26.7 26.7 0 0 0 6.068-2.3 5.73 5.73 0 0 1 3.607-.96c4.616.831 8.21-2.228 12.389-2.961a4 4 0 0 0 1.2-.715c-.424-.323-.8-.805-1.277-.946-11.54-3.408-23.12-6.545-35.308-3.689a40.5 40.5 0 0 1-13.991.351c-1.11-.126-1.175-.507-.8-1.32 1.146-2.484 2.378-4.572 5.409-5.569a53.6 53.6 0 0 1 24.06-2.555c7.189.9 14.3 1.388 21.038 4.27 1 .426 1.691-.322 2.291-1.036Zm38.874-41.07c.029-4.662-4.507-9.982-9.162-10.765a5.22 5.22 0 0 0-4.126.77c-.928.664-1.662 1.374-1.349 2.656.98 4.019 1.482 8.292 4.648 11.34 1.711 1.647 3.2 4.683 6.161 3.347 2.865-1.294 3.347-4.468 3.828-7.348m-56.086 60.276c-3.228.479-6.45 1.046-8.838 3.592a7.06 7.06 0 0 0-.765 8.065c1.307 2.122 2.4 2.389 6.169 1.306a34 34 0 0 0 4.586-1.641c6.44-2.906 6.449-3.3 2.019-9.021-.908-1.172-1.326-2.566-3.171-2.301m63.927 23.969c6.651.287 8.938-3.01 6.427-8.374-.228-.488-.477-.967-.685-1.464-.914-2.182-2.586-2.84-4.8-2.412a18.6 18.6 0 0 0-3.157.652c-2.447.941-5.885 1.542-5.658 4.763.219 3.111 2.68 5.395 5.825 6.45a11 11 0 0 0 2.048.385m-62.211-95.759a11.6 11.6 0 0 0-6.321 2.324 2.59 2.59 0 0 0-1 2.916c2.163 5.527 7.592 9.206 13.238 7.543 2.515-.74 3-1.519 2.018-3.924-.879-2.154-2.112-4.165-3.208-6.23-.954-1.804-2.75-2.19-4.727-2.629m102.638 29.111a9.4 9.4 0 0 0-4.166 1.123c-3.194 1.387-3.674 2.932-2.119 5.97 1.516 2.965 4.062 4.494 7.145 5.34 3.551.975 6.269-1.526 5.147-5.027a40 40 0 0 0-3.178-6.254c-.611-1.147-1.747-1.126-2.829-1.152m-37.012 7.708c-1.7.36-3.3.638-4.855 1.055a1.363 1.363 0 0 0-.956 1.68c.529 3.416 2.572 5.89 5.113 8 2.158 1.79 4.163-.042 6.049-.657 3.326-1.085 3.915-3.98 1.707-6.733-1.842-2.3-4.491-2.789-7.058-3.345m-69.735-.037a27 27 0 0 0 2.686-.266 1.34 1.34 0 0 0 1.1-1.579c-.2-2.941-4.573-8.477-7.351-9.55a4.86 4.86 0 0 0-4.611.747c-1.619 1.108-.21 2.588.266 3.859a21 21 0 0 0 1.306 2.963c1.442 2.541 3.469 4.15 6.604 3.826m105.6 55.041c-.063-3.938-1.613-5.947-3.618-5.519a11.06 11.06 0 0 0-6.546 3.595c-1.339 1.629-1.193 3.256-.2 5.018 1.01 1.791 2.472 1.967 4.168 1.375 1.362-.475 2.669-1.107 4.008-1.651a3.22 3.22 0 0 0 2.193-2.818Zm-14.58-169.079c.2 2.942-.662 5.748-1.257 8.564a10.8 10.8 0 0 1-2.028 3.785 4 4 0 0 1-4.2 1.907c-2.12-.448-2.655-2.256-3.155-4.006a4.2 4.2 0 0 1 0-1.616 59 59 0 0 1 3.116-13.729 11.4 11.4 0 0 1 1.959-3.223c1.281-1.518 2.969-1.343 3.973.435a15.14 15.14 0 0 1 1.592 7.883m-5.269 3.184a16 16 0 0 0-.1 2.147c.038.471.285 1.289.5 1.311.6.062.735-.615.932-1.1a19.3 19.3 0 0 0 .909-8.5c-.017-.3-.3-.576-.453-.864-.257.219-.628.386-.754.664-.911 2.02-.908 4.19-1.034 6.342m-.3-47.2c.4.116.919.262 1.436.42 5.673 1.732 9.59 5.639 12.6 10.5a4.35 4.35 0 0 1-.773 5.5c-1.187 1.255-2.735 2.074-4.384 1.23-5.2-2.66-9.967-5.794-11.975-11.771a4.86 4.86 0 0 1 .719-4.581 2.8 2.8 0 0 1 2.377-1.299Zm4.056 5.457c-.243.212-.678.407-.7.637-.239 2.8 3.216 7.684 5.931 8.395a1.38 1.38 0 0 0 1-.171c.754-.5.58-1.252.292-1.922-1.258-2.926-3.8-4.732-6.028-6.8-.113-.107-.328-.097-.495-.14Zm39.873 168.864a1.3 1.3 0 0 0-.1-.393c-.035-.059-.18-.052-.275-.076l.475.363Zm-109.672-.354-.351-.083q-.054.5.248-.027Zm190.493-230.627c-.185 3.1-.548 6.9 2.544 8.275 2.723 1.215 3.463 2.7 3.816 5.226.414 2.967 2.549 4.676 5.107 5.9.694.332 1.358.823 1.231 1.572-.2 1.14-1.282 1.175-2.16 1.105a6.16 6.16 0 0 1-3.5-1.326 4.37 4.37 0 0 0-2.945-1.195 6.82 6.82 0 0 1-6.737-3.709 3.18 3.18 0 0 0-2.093-1.588c-1.58-.427-2.74-.472-3.267 1.552a6.4 6.4 0 0 0 .649 5.214c.849 1.385 1.883 2.657 2.767 4.024.525.812 1.859 1.727.521 2.67-.974.686-2-.1-2.83-.9-4.818-4.637-5.093-7.065-2.876-11.45.943-1.866 1-3.187-.242-4.876-1.895-2.577-2.345-5.643-2.3-8.786a1.08 1.08 0 0 1 .922-1.118 1.024 1.024 0 0 1 1.246.763c.266 1.049.309 2.154.562 3.207a14.9 14.9 0 0 0 2.8 6.419c.465.548 1.014 1.223 1.8.976.822-.26.517-1.166.7-1.809 1.185-4.152 2.233-8.314 2.023-12.693a2.64 2.64 0 0 1 .607-1.444 1.13 1.13 0 0 1 .909-.376c.272.036.7.383.714.612.069 1.247.032 2.502.032 3.755m3.332 14.811c.921-2.74-1.636-3.922-3.379-5.609-.508-.491-.945-1.351-1.636-1.064-.643.268-.52 1.213-.381 1.884.5 2.443.99 4.916 3.277 6.45.583.391 1.241.95 1.944.608.85-.412.281-1.205.175-2.269m32.357-6.157c1.568 1.207 2.909.367 3.713-.779.769-1.095-.54-1.813-1.286-2.546s-1.327-1.653-2.135-2.3c-.517-.414-1.417-.747-1.984-.1a35 35 0 0 0-3.285 4.266c-.462.733.2 1.383 1.022 1.433a4.5 4.5 0 0 0 1.455-.4c1.021-.7 1.791-.121 2.5.426m4.4 7.525c.173-.206.278-.765.155-.876-1.3-1.179-2.49-2.692-4.034-3.325s-2.124 1.51-3.266 2.241c-.594.38-1.153.816-1.715 1.244-.421.32-.849.833-.472 1.247a1.9 1.9 0 0 0 1.478.347c1.976-.3 3.858-2.087 5.738-.365a1.87 1.87 0 0 0 2.121-.513Zm.456 39.456a15.1 15.1 0 0 1-1.052 5.869 1.53 1.53 0 0 0 .665 1.887c1.658 1.021 6.747-.249 7.759-1.931a9.3 9.3 0 0 0 .868-1.99c.331-1.046.93-1.465 2.009-1.114 1.2.391.979 1.343.884 2.229-.51 4.8-3.076 7.114-7.9 7.006a25 25 0 0 1-4.3-.512 6.89 6.89 0 0 0-7.657 3.85 51 51 0 0 1-2.25 5.509c-3.146 5.814-8.552 7.175-14.207 3.678-.917-.567-1.763-1.753-2.626-1.738-.661.012-1.385 1.412-1.926 2.29-2 3.25-4.874 4.86-8.657 4.3-4.127-.612-5.966-3.793-7.368-7.266a1.73 1.73 0 0 1 .233-1.473c.4-.48.95-.039 1.4.2 2.715 1.455 5.348 3 8.671 2.7 3.555-.317 3.867-.429 4.754-3.864a4.5 4.5 0 0 1 .225-1.057c1.235-2.211.84-3.461-1.714-4.511-2.112-.869-3.868-2.622-5.734-4.047-.4-.309-.937-1.187-.84-1.3.719-.812 1.265.083 1.8.4a17.9 17.9 0 0 0 7.688 2.447 6.766 6.766 0 0 0 7.683-7.552c-.075-.964-.725-1.085-1.39-1.319-2.266-.8-4.371-1.847-5.519-4.115a1.84 1.84 0 0 1-.087-1.488c.351-.618.889-.193 1.337.106a16.6 16.6 0 0 0 2.716 1.726c3.8 1.571 6.729.355 8.351-3.4.43-1 .653-2.088 1.15-3.044.2-.38.881-.508 1.343-.751.131.331.4.673.371.991-.288 3.481-.7 6.98-4.1 8.97-1.263.739-2.057 1.63-1.728 2.978.28 1.147 1.5 1.492 2.592 1.7q2.133.4 4.282.71c2.765.4 4.927-.332 6.361-2.976.946-1.743 2.353-3.233 3.357-4.95.673-1.149.453-2.813 2.024-3.45q.268 2.157.537 4.305ZM296.04 301.04c4.437-.3 6.977-2.209 8.451-5.725 1.4-3.332 1.409-3.576-1.859-4.507a17 17 0 0 1-4.461-1.9c-1.09-.686-1.89-.726-2.632.553-1.2 2.068-2.66 3.664-5.35 4.091-1.9.3-2.587 3.822-.99 4.7a54 54 0 0 0 6.841 2.788m-7.469 21.013c4.868-.666 6.485-3.95 7.042-8.233a1.84 1.84 0 0 0-.594-1.391c-.485-.407-1.016.025-1.361.431-.581.683-1.03 1.486-1.656 2.12a10.836 10.836 0 0 1-12.84 2.125c-.606-.339-.923-2.07-1.94-.829-.555.678.008 1.876.633 2.444 2.126 1.933 4.25 4 8.594 3.544a31 31 0 0 0 2.122-.211m9.4 9.185a1.825 1.825 0 0 0-.227-2.013c-.708-.654-1.338-.1-1.737.471-2.189 3.128-5.2 4.161-8.882 3.656a1.09 1.09 0 0 0-.908.317c-.305.551.114 1 .481 1.376 1.062 1.1 2.387 1.517 4.477 1.433a7.73 7.73 0 0 0 6.792-5.24Z" data-name="Layer 1"/></g></svg>