<svg xmlns="http://www.w3.org/2000/svg" viewBox="0 0 449.203 492.854"><g data-name="Layer 2"><path d="M147.833 321.686q40.875-.314 81.749-.636c11.959-.105 23.945.136 35.868-.6 14.679-.906 29.367-1.206 44.052-1.756.9-.034 1.813-.05 2.717 0 16.681.83 33.356.3 50.03-.271 3.5-.12 6.823.893 10.232 1.342 1.946.257 3.054 1.988 4.009 3.481 5.383 8.413 11.509 16.3 17.584 24.189 9.747 12.662 17.356 26.8 27.482 39.183a9.8 9.8 0 0 1 1.407 2.316c.953 2.228.243 3.93-2.106 4.716a11 11 0 0 1-3.736.487 116 116 0 0 1-11.96-.542c-9.981-1.308-19.924.717-29.9.6-2.187-.025-2.186 1.5-2.146 2.966.164 6.142.17 12.3.622 18.42.936 12.7.109 25.419.511 38.12.3 9.457-.564 18.859-1.017 28.281-.191 3.963-1.436 5.3-5.327 5.037-4.42-.293-8.693.743-12.944 1.392-9.349 1.427-18.793 1.619-28.154 2.779a46 46 0 0 1-9.794.009 353 353 0 0 0-47.3-.927c-11.43.487-22.855.872-34.3.674a113 113 0 0 0-16.8 1.194c-10.307 1.36-20.664.215-30.992.049-9.057-.145-18.113-1.81-27.166-.589-9.826 1.325-19.57-.288-29.349-.392a303 303 0 0 0-32.07 1.094c-12.648 1.2-25.335.169-37.989-.507-4.52-.242-6.606-2.488-7.914-6.947a17.3 17.3 0 0 1-.5-4.845c-.165-18.678-.331-37.357-.338-56.036 0-6.514.427-13.028.672-19.541.107-2.853-.256-3.4-3.426-3.462-5.635-.107-11.224-.693-16.818-1.267-1.8-.185-3.569-.5-5.351-.859-7.352-1.485-9-6.477-6.1-14.121a16 16 0 0 1 1.99-3.237A145.7 145.7 0 0 0 36.4 358.328c3.657-8.136 9.351-15.123 13.118-23.207 1.454-3.122 3.365-6.038 4.736-9.192 1.289-2.967 3.35-3.852 6.419-3.817 10.712.121 21.426.067 32.139.07q27.508.006 55.017 0Zm100.31 114.345h.316c0 1.994-.065 3.991.011 5.982.445 11.773-.013 23.588 1.547 35.309.864 6.492.919 6.511 7.428 6 8.113-.634 16.211-1.543 24.335-1.924a326 326 0 0 1 35.372-.059 61 61 0 0 0 7.607-.26c12.823-.818 25.631-1.93 38.487-2.09 1.71-.022 2.185-.746 2.375-2.172.627-4.711-.1-9.385-.331-14.072-.682-13.966.769-27.919.29-41.881-.374-10.888.8-21.729.785-32.608-.022-17.6.133-35.192.245-52.788.013-2.16.241-4.318.326-6.479.068-1.717-.638-2.675-2.523-2.686-4.156-.024-8.315-.313-12.465-.2-14.322.378-28.643.713-42.951-.238a98.3 98.3 0 0 0-17.917.771 25 25 0 0 1-3.769.387c-11.069-.435-22.013 1.486-33.049 1.7-4.546.088-4.5.3-4.417 4.723.1 5.233.805 10.4.5 15.707-.6 10.656-1.453 21.311-.916 32.042.415 8.289-.192 16.633-.409 24.95-.254 9.964-.58 19.925-.877 29.886m-77.5-51.895c7.61-.311 15.219-.639 22.83-.923 3.183-.119 5.962-.766 8.126-3.525 7.261-9.256 15.111-18 20.8-28.493 3.6-6.648 8.628-12.519 12.942-18.788 1.327-1.929 1-2.582-1.263-2.649-5.615-.168-11.232-.233-16.849-.307-7.943-.1-15.888-.33-23.829-.232-11.757.144-23.517.89-35.266.715-13.591-.2-27.175.326-40.754.019-9.605-.217-19.16.9-28.778.5-6.509-.277-12.977-.774-19.4-1.693-4.906-.7-8.451.46-10.239 5.433a14.7 14.7 0 0 1-1.984 3.241A128.8 128.8 0 0 0 43.8 361.749a68.6 68.6 0 0 1-6.739 13c-2.79 4.008-5.2 8.286-7.719 12.477-.821 1.364-.715 2.456 1.248 2.509q1.905.053 3.812.039c10.87-.071 21.72-.361 32.584-1.058 22.081-1.417 44.2-2.253 66.3-3.347a26 26 0 0 0 3.769-.457 66.6 66.6 0 0 1 20.541-1 76 76 0 0 0 13.049.224Zm-5.378 79.812c11.023-.351 21.733-.676 32.443-1.043 3.99-.137 7.979-.347 11.966-.577 1.712-.1 2.175-.965 1.426-2.557q-2.427-5.166-4.753-10.379a14.78 14.78 0 0 1 1.064-14.509 101 101 0 0 1 6.523-8.7c2.344-3.062 2.443-3.178-.852-5.314a27.1 27.1 0 0 1-7.688-7.54c-2.76-3.993-2.613-7.557.135-11.484 2.808-4.012 5.295-8.249 8.676-11.836 1.238-1.313.747-1.807-.805-1.918-.9-.065-1.8-.139-2.7-.255-2.97-.384-5.671-.463-7.465 2.771a5.16 5.16 0 0 1-4.694 2.377c-5.1-.141-10.095.966-15.2 1.054-4.945.086-9.705-1.313-14.609-1.084-7.044.328-14.085.733-21.132.987-6.523.235-13.032.659-19.579.529-10.158-.2-20.307.179-30.176 3.086-2.85.84-2.979 1.08-1.47 3.486 1.252 2 2.442 4.032 3.685 6.034a7.89 7.89 0 0 1-.292 9.615c-2.426 3.4-4.82 6.8-7.567 9.952-3.47 3.987-3.443 4.062.528 7.365a33 33 0 0 1 6.709 7.817c1.689 2.658 2.109 5.354.342 8.154-1.449 2.3-2.819 4.645-4.346 6.887-1.226 1.8-2.658 3.455-3.951 5.209-.518.7-1.525 1.4-1.137 2.307.445 1.043 1.551.358 2.375.333a14 14 0 0 0 1.624-.172 140 140 0 0 1 33.1-1.124c12.684 1.137 25.423.294 37.822.529ZM61.316 444.707a247 247 0 0 0-.316 33.11c.255 4.521.244 4.769 4.961 5.048a186.3 186.3 0 0 0 34.188-1.3 100 100 0 0 1 17.327-1.114c6.887.332 13.78.551 20.665.92 4.346.232 8.693 1.04 13.018.9 8.885-.285 17.752-.667 26.62.244 1.986.2 3.979.444 5.971.472 17.785.25 35.569.321 53.345-.441 3.451-.148 3.7-.213 3.751-3.771.153-10.886.175-21.774.224-32.662s-.819-21.773.449-32.628a86 86 0 0 0 .249-17.933c-.811-8.695-.82-17.389-.882-26.09-.052-7.439.14-14.88.132-22.32 0-2.289-.3-4.579-.469-6.868-2.617.677-2.659 3.519-4.254 5.083-1.287 1.262-2.224 2.876-3.469 4.189a43.2 43.2 0 0 0-6.892 9.728 63.2 63.2 0 0 1-9.51 13.864 33.5 33.5 0 0 0-2.687 3.424c-.863 1.211-.715 1.948 1.005 1.861a49.2 49.2 0 0 1 10.329.4c2.806.451 3.421 1.608 3.259 4.437-.163 2.864-2 4.589-3.774 6.372-4.1 4.114-8.418 8.009-11.857 12.737-1.865 2.563-1.944 2.661.266 5 3.982 4.223 8.043 8.371 12.053 12.568 2.816 2.947 2.859 3.23.25 6.254-3.786 4.387-7.643 8.712-11.478 13.056-3.595 4.074-3.494 4.028-1.39 9.321 2.16 5.432 5.635 10.125 8.415 15.2 1.284 2.343.426 3.256-.917 4.457a5.8 5.8 0 0 1-4.038 1.324c-9.97.015-19.869 1.28-29.862 1.4q-23.651.274-47.269-.393c-9.425-.265-18.849-1.652-28.261-.844-8.664.744-17.353.813-26.011 1.518-1.726.141-3.636.613-4.844-1.45-1.272-2.174-.867-4.151.375-6.1a15.5 15.5 0 0 1 3.452-3.445c3.656-3.023 6.539-6.771 9.612-10.346 1.469-1.71 1.273-3.024-.173-4.691-2.373-2.735-4.485-5.695-6.721-8.55-4.051-5.173-3.972-7.588.485-12.262 1.375-1.442 2.872-2.768 4.231-4.223s2.63-3 3.92-4.528c.785-.927 1.033-1.875.046-2.862-3.609-3.606-6.337-7.923-9.528-11.868-.734-.908-1.454-1.625-2.677-1.507-5.96.575-11.967-.089-17.93.8-2.117.315-2.8 1.339-2.861 3.171-.19 5.613-.446 11.226-.505 16.841-.087 8.165-.023 16.332-.023 24.497m326.426-59.2a187 187 0 0 0 20.1-1.167c2.06-.221 1.907-.82.966-2.273-5.329-8.218-10.779-16.368-15.778-24.785a59.7 59.7 0 0 0-7.971-10.941c-2.751-2.891-5.383-5.9-8.118-8.8-.695-.738-1.08-2.415-2.3-1.863-.937.423-.378 1.952-.439 3a5.19 5.19 0 0 0 1.731 4.34c2.208 2.13 4.178 4.508 6.227 6.8 1.443 1.614 1.325 3.14-.068 4.825-2.042 2.471-3.757 2.892-6.841 1.029-1.269-.766-1.887-.871-2.107.761-.362 2.681.181 4.88 2.515 6.683a71 71 0 0 1 6.779 6.286c.7.708 1.6 1.644.963 2.854-.983 1.87-2.8 2.758-4.587 3.654-1.732.867-2.66-.42-3.747-1.362s-1.936-1.031-1.944.768c-.012 2.36.082 4.722.024 7.08-.055 2.236.7 3.284 3.169 3.164 3.801-.194 7.617-.06 11.426-.06Zm-6.177-90.563a174 174 0 0 1-43.5-7.824 65.7 65.7 0 0 1-24.109-13.249q-7.593-6.622-15.436-12.956c-3.438-2.778-5.147-6.552-6.231-10.568-.731-2.706-.146-5.28 1.1-8.162 5.265-12.143 12.38-23.41 16.823-35.934a45.2 45.2 0 0 1 5.884-10.4c1.137-1.638 2.195-3.333 3.383-4.933 1.7-2.288 1.941-4.286.006-6.777-2.111-2.719-3.429-5.8-2.4-9.6 2.285-8.392 9.425-10.532 16.7-7.836 2.971 1.1 5.123 3.461 6.917 5.977 1.571 2.2 1.486 4.854.63 7.305a16.74 16.74 0 0 1-4.931 7.715 4.49 4.49 0 0 0-1.705 5.266c1.65 5.372 3.226 10.766 4.814 16.156.54 1.833 1.658 2.126 3.33 1.476 4.561-1.772 9.438-2.565 13.9-4.7 4-1.913 8.521-1.628 12.79-2.431 3.366-.632 3.377-.574 3.575-4.27.34-6.349 4.229-10.83 10.512-12.074a7.1 7.1 0 0 1 4.243.63 21.7 21.7 0 0 1 8 5.5c3.094 3.516 3.191 5.731.348 9.612a20.2 20.2 0 0 1-8.04 6.32c-1.3.606-2.155 1.279-1.75 2.86q1.886 7.376 3.74 14.759c.4 1.58 1.408 2.074 2.839 1.5 6.95-2.787 14.433-3.4 21.59-5.338a5.46 5.46 0 0 0 4.374-4.042c1.851-5.5 6-9.793 11.227-9.336 4.273.373 11.133 4.907 12.35 8.825a7.6 7.6 0 0 1-.722 6.8c-2.417 3.514-5.125 6.764-9.717 7.167-2.427.214-3.269 1.532-4.148 3.51q-8.28 18.644-16.806 37.177c-1.581 3.456-3.759 6.624-5.474 9.989-2.157 4.235-5.838 6.636-9.652 8.4-4.705 2.181-9.806 3.908-14.454 3.481Zm37.257-64.6c-.4-1.489-1.418-1.064-2.195-.811a75 75 0 0 1-14.737 3.673 58.5 58.5 0 0 0-14.267 3.053c-2.627.994-3.468.557-4.482-2.195-2.442-6.623-4.873-13.257-4.833-20.494.016-3.014-.206-3.114-3.108-2.717-3.222.441-6.42 1.084-9.65 1.435a50.6 50.6 0 0 0-13.7 3.257 92 92 0 0 1-10.862 3.494c-4.223 1.129-5.491.459-6.831-3.765-1.8-5.686-3.273-11.479-5.04-17.177-.636-2.051-.576-5.481-2.246-5.764-1.749-.3-2.273 3.088-3.392 4.821-1.079 1.673-1.927 3.5-3.081 5.117a5.41 5.41 0 0 0-.475 5.6c1.178 3.035 2.226 6.126 3.2 9.233.677 2.162.2 3.8-2.221 4.75a85 85 0 0 1-8.575 3.374 6.58 6.58 0 0 0-4.506 6.062c.154 2.558 1.71 4.024 4.944 4.772 2.455.569 4.882 1.261 7.339 1.824 8.629 1.98 17.339 3.657 25.876 5.976 6.453 1.752 13.071 3.823 18.026 8.536 8.723 8.3 20 12.329 29.864 18.691 1.837 1.184 3.745.329 5.694-1.725 1.606-1.692 1.237-3.067-.1-4.7a24.66 24.66 0 0 1-5.114-10.088c-.98-4.212-.127-5.831 3.6-7.867 3.643-1.987 7.57-2.394 11.565-2.5 2.014-.056 3.388-.615 4.236-2.629 1.4-3.332 3.069-6.554 4.6-9.832a11.5 11.5 0 0 0 .471-1.404m-98.641 16.617h-10.324c-2.311 0-4.157 1.178-5.964 2.393-1.627 1.094-2 2.566-.777 4.176a28.4 28.4 0 0 0 2.884 3.233q4.879 4.725 9.846 9.362c5.742 5.346 11.9 9.957 19.531 12.456a181.7 181.7 0 0 0 39.169 8.188c4.994.484 10.144.663 14.988-1.541 1.7-.774 1.746-1.419.544-2.714-3.329-3.587-6.588-7.187-10.741-9.936a96 96 0 0 1-11.276-8.5c-8.991-8.083-19.542-12.919-31.131-15.779-5.503-1.36-11.138-1.368-16.749-1.338m14.526-70.668a8 8 0 0 0-.674-1.291c-1.288-1.719-5.938-3.365-7.877-2.758a2.58 2.58 0 0 0-1.892 2.382 6.29 6.29 0 0 0 4.512 6.576c2.748.698 5.997-1.902 5.931-4.909m69.214 82.566c.291-.227.66-.378.8-.648q2.243-4.262 4.407-8.564c.23-.459.277-1.049-.389-1.293-.915-.336-7.424 1.784-7.979 2.666-.878 1.394-.392 2.72.352 4.019.793 1.381 1.378 2.906 2.809 3.82m25.747-35.138c.722-.1 1.438-.164 2.142-.294 1.32-.243 2.511-.838 2.728-2.248.253-1.634-1.2-2.1-2.344-2.46a21 21 0 0 0-4.2-.774c-1.013-.1-2.408-.357-2.57 1.145-.167 1.54-.439 3.357 1.6 4.074a20 20 0 0 0 2.644.557M384.2 199.974c2.854.034 5.747-1.232 5.418-2.247-.579-1.785-2.264-2.544-3.945-3.15-.5-.181-.976-.441-1.482-.6-1.482-.482-2.906-.51-3.563 1.21a3.95 3.95 0 0 0 1.925 4.467 8.7 8.7 0 0 0 1.647.32m-65.649 16.17c-.143-1.8-.624-4.668-1.641-4.767-1.953-.192-2 2.465-2.686 4.013-.569 1.288-.959 2.658-1.4 4a.853.853 0 0 0 .68 1.174c1.88.376 5.101-2.479 5.049-4.42Zm-52.6-26.515c.9 5.031-.331 10.247-.2 15.5.2 8.2-3.922 14.941-8.228 21.5a41.5 41.5 0 0 1-4.376 5.551c-3.848 4.116-7.485 8.281-10.015 13.461-2.061 4.219-5.362 7.727-8.725 11.069a67 67 0 0 0-10.418 12.519c-4.17 6.865-9.606 12.755-14.98 18.628-3.8 4.154-8.222 7.692-14.624 7.033-4.028-.414-6.095-1.765-6.461-5.8-.356-3.918-1.287-7.728-1.317-11.741-.039-5.222-1.064-10.45-1.832-15.65a175 175 0 0 1-.732-41.191 230 230 0 0 0 1.343-23.252c-.061-4.7.233-9.492 2.355-13.813 1.242-2.528.287-4.055-1.432-5.693-4.536-4.323-4.7-5.84-1.559-11.2 2.773-4.726 6.334-7.307 12.353-7a210.7 210.7 0 0 1 40.767 6.532c5.28 1.326 10.476 2.984 15.743 4.368a25 25 0 0 1 6.409 2.914c4.689 2.777 7.007 6.671 6.143 12.231a40 40 0 0 0-.208 4.034ZM192.948 247.2a16.4 16.4 0 0 1 .089 2.349c-.809 7.28.646 14.454 1.017 21.677.033.644.033 1.55.956 1.723.856.159 1.259-.545 1.645-1.138a78 78 0 0 1 5.084-7.706c1.85-2.208 1.794-4.124.438-6.382a18.7 18.7 0 0 1-2.756-10.36c.115-4.042 1.962-7.119 5.582-8.6 5.075-2.079 10.387-3.375 15.759-.817.9.43 1.815.862 2.391-.032 3.365-5.228 8.354-9.058 11.986-14.053.876-1.2.45-1.812-.505-2.652-4.693-4.132-6.124-10.149-8.681-15.494-.572-1.2-.344-2.865-.215-4.292.3-3.293 2.17-4.986 5.457-5.779 3.925-.946 6.5.908 9.124 3.443 2.033 1.962 3.435 4.556 5.979 5.994 2-2.371 3.033-5.3 4.622-7.914.094-.154.171-.32.254-.481 1.523-2.961 1.524-3.085-2.036-3.105a34.5 34.5 0 0 1-9.6-1.621 54 54 0 0 0-6.3-1.66 109.8 109.8 0 0 1-19.928-5.277 55 55 0 0 0-10.489-2.718c-7.981-1.265-8.974-.4-8.612 7.744.051 1.158.1 2.06 1.679 2.116 6.257.222 10.777 4.035 15.088 7.881a27.05 27.05 0 0 1 8.062 12.081c.941 3.013 1.337 6.185-.65 8.886-2.7 3.663-5.805 6.911-10.23 8.674a27.75 27.75 0 0 1-12.258 1.633c-2.915-.178-2.951 0-3.081 3.013-.185 4.351.699 8.691.129 12.867m67.543-47.213c-.227-.791.554-2.556-1.049-2.9-1.084-.23-1.571 1.271-2.134 2.159-.775 1.221-1.5 2.476-2.225 3.728-5.718 9.863-10.907 20.071-18.149 28.962a82.5 82.5 0 0 0-10.62 16.978 26.4 26.4 0 0 1-4.679 6.636c-7.107 7.649-15.327 14.345-20.152 23.944-.788 1.567-2.382 2.714-3.51 4.13-.718.9-2.314 1.756-1.121 3.136.983 1.139 2.387.528 3.5-.116a8.4 8.4 0 0 0 2.087-1.725c4.749-5.475 9.716-10.787 14.106-16.54a112 112 0 0 1 12.955-14.63 36.6 36.6 0 0 0 8.827-12.283 32.1 32.1 0 0 1 5.577-8.648c4.626-5.14 8.348-10.9 12.143-16.65 3.24-4.919 4.36-10.179 4.444-16.18Zm-61.179-33.6c-2.605.08-4.237-.246-5.84.286-1.625.539-3.269 1.35-3.291 3.168-.022 1.882 2.015 1.91 3.287 2.186 6.529 1.416 13.1 2.631 19.644 3.976a95 95 0 0 1 10.571 2.422c11.008 3.611 21.979 7.244 33.725 7.59 2.833.083 3.681-.338 3.635-2.827-.034-1.845-.417-3.388-2.406-4.449a26.6 26.6 0 0 0-5.989-2.386 357 357 0 0 0-37.152-7.569c-5.716-.831-11.428-1.694-16.184-2.4Zm-6.3 44.871h-.76c0 3.054.04 6.109-.016 9.162-.032 1.784.357 2.684 2.485 2.229a38.3 38.3 0 0 0 10.951-4.506c2.856-1.63 3.909-3.966 2.5-6.882-2.593-5.372-5.529-10.591-12.408-11.664-1.944-.3-2.728.052-2.746 1.927-.033 3.243-.01 6.487-.01 9.731Zm13.353 40.621c.118.546.3 1.8.667 3 .623 2.043 1.372 2.248 3.025.711a42.7 42.7 0 0 0 4.908-5.083c1.268-1.652 4.051-3.456 2.948-5.312-1.076-1.809-4.008-.26-6.123-.1a5.5 5.5 0 0 0-1.043.3c-3.59 1.043-4.353 2.047-4.386 6.481Zm36.869-40.961c-.217-2.545-6.629-9.455-9.072-9.946a2.08 2.08 0 0 0-1.5.29c-.926.7-.556 1.736-.12 2.447a75.6 75.6 0 0 1 6.154 12.073c.289.742.882 1.35 1.508.526a15.8 15.8 0 0 0 3.026-5.393Zm15.435-152.39a10.83 10.83 0 0 1-1.419 5.538c-5.546 11.408-11.174 22.771-18.5 33.188-.829 1.178-1.372 2.552-2.154 3.767-2.3 3.563-5.072 6.462-9.391 7.681-12.572 3.548-24.4 9.113-36.577 13.731a26.2 26.2 0 0 0-5.252 2.82 10.95 10.95 0 0 1-5.591 1.869c-3.581.227-4.4-.166-5.363-3.839-1.756-6.673-4.744-12.974-6.368-19.62-2.9-11.847-7.639-22.977-11.934-34.3a10.6 10.6 0 0 1-.387-6.363 138.4 138.4 0 0 1 11.25-29.913A21.53 21.53 0 0 1 177 23.449a38 38 0 0 1 10.785-3.67c8.271-1.3 15.313-5.43 22.482-9.256 5.259-2.8 10.725-5.24 15.333-9.24 2.556-2.217 4.889-1.451 6.846 1.455a8.9 8.9 0 0 1 1.142 2.43c2.843 9.72 8.072 18.184 13.879 26.329A72 72 0 0 1 257.7 52.982a22.9 22.9 0 0 1 .969 5.546M245.2 67.757a56.7 56.7 0 0 1-11.234 3.962 46 46 0 0 0-7.633 2.74 2.816 2.816 0 0 0-1.923 3.294c.362 5.381 2.738 10.089 4.71 14.923 1.108 2.716 1.835 2.737 3.489.379 5.112-7.291 8.692-15.42 12.649-23.34a2.15 2.15 0 0 0-.116-2.075l.368.31Zm4.552-13c-.139-.459-.329-1.153-.558-1.833a64.2 64.2 0 0 0-7.582-16.151c-4.494-6.553-9.29-12.938-12.317-20.384-.521-1.28-1.168-1.079-1.715-.022a19 19 0 0 0-1.336 2.95 75.6 75.6 0 0 1-7.835 16.593 83 83 0 0 0-4.287 8.738 4.22 4.22 0 0 0-.055 4.144 73.2 73.2 0 0 1 6.465 16.041c.895 3.066 1.395 2.891 3.747 1.919A92 92 0 0 1 233 63.776a111 111 0 0 0 14.061-5.695c1.345-.615 2.602-1.322 2.69-3.319Zm-64.523 8.924c-5.624 1.8-12.056 2.13-18.009 4.44-1.581.614-1.561 1.929-1.191 3.169.774 2.6 1.7 5.148 2.586 7.71 2 5.809 5.111 11.223 6.371 17.29a68 68 0 0 0 3.232 10.913c.734 1.88.843 5.305 2.618 5.142s1.731-3.583 2.339-5.622c1.7-5.718 2.673-11.9 6.172-16.711 3.008-4.136 3.663-7.784 1.716-12.244a20 20 0 0 1-.611-2.639q-1.308-4.7-2.673-9.389c-.31-1.059-.687-2.105-2.551-2.054Zm6.356-12.606c.48-.2 1-.366 1.484-.614a55.5 55.5 0 0 1 13.055-5.272c1.318-.3 1.545-1.276 2-2.268 2.193-4.766 4.511-9.473 6.679-14.249 1.644-3.624 3.149-7.313 4.671-10.992.328-.793 1-1.717.334-2.516-.806-.965-1.6 0-2.339.359-4.217 2.083-8.533 4-12.6 6.341a61.7 61.7 0 0 1-15.339 6.684 56 56 0 0 0-5.67 1.789c-1.577.592-2.313 1.7-1.419 3.407a142 142 0 0 1 7.255 15.767c.324.875.72 1.673 1.888 1.569Zm-1.619 65.059a40 40 0 0 0 3.9-1.163c9.976-3.879 19.351-9 28.754-14.052 1.754-.943 1.58-1.992.674-3.476-2.547-4.169-5.21-8.286-6.531-13.08-.374-1.356-1.3-1.489-2.493-.824a86.3 86.3 0 0 1-14.236 6.645c-1.727.583-2.325 2.12-2.983 3.648-2.432 5.65-4.925 11.273-7.405 16.9-.584 1.324-1.286 2.6-1.792 3.954-.415 1.101.051 1.714 2.111 1.453Zm10.377-35.458c4.2-1.854 8.648-3.447 12.527-6.192a2.1 2.1 0 0 0 .588-2.474c-1.555-5.385-2.688-10.909-5.4-15.913-.844-1.556-1.847-2.085-3.5-1.347-2.627 1.174-5.3 2.246-7.9 3.47-3.069 1.444-3.256 1.8-1.967 4.975 2.115 5.2 4.434 10.318 4.264 16.119a1.187 1.187 0 0 0 1.387 1.367Zm-16.7-26.631c-.1-.344-.192-.693-.309-1.033a80 80 0 0 0-6.252-13.17c-.521-.926-1.414-1.276-1.992-.114-2.8 5.641-5.578 11.3-8.242 17.005-.7 1.495.336 1.957 1.64 1.576a106 106 0 0 1 12.175-2.509 9 9 0 0 0 2.041-.711c.441-.196 1.078-.289.939-1.039ZM68.68 69.235a17.4 17.4 0 0 1 6.44 1.854A43.3 43.3 0 0 0 85.783 75.1c4.3.832 7.138 3.362 9.368 6.8a85 85 0 0 1 5.588 9.312c3.22 6.733 7.358 12.87 11.517 19.019a198.5 198.5 0 0 1 15.9 27.143 27 27 0 0 0 2.191 3.754c6.026 8.864 10.666 18.457 14.92 28.253a14.9 14.9 0 0 0 3.668 4.647c.915.887 1.59 1.628 1 3.247-4.032 11.147-5.563 22.843-7.288 34.491a19.8 19.8 0 0 1-1.027 4.736c-1.312 3.129-3.487 3.777-6.41 2.086-5.649-3.268-12.054-4.877-17.677-8.228-11.357-6.767-22.8-13.388-34.186-20.11a18.93 18.93 0 0 1-8.642-10.69c-3.234-9.5-8.367-18.092-14.151-26.256a85 85 0 0 1-9.308-15.934 33.4 33.4 0 0 0-7.356-10.67 12.63 12.63 0 0 1-3.218-13.489 54.8 54.8 0 0 1 5.842-12.254 45 45 0 0 0 4.6-9.229c2.474-7.356 7.092-13.415 11.61-19.548 1.552-2.104 3.83-2.547 5.956-2.945m67.773 134.149c1.19-.456 1.131-1.46 1.213-2.3.6-6.092.809-12.266 2.34-18.2.929-3.6-.272-6.131-2.016-9.048-7.8-13.045-17.447-25.042-22.593-39.6a11.4 11.4 0 0 0-.977-1.945c-6.548-11.094-14.348-21.423-20.192-32.949-.642-1.267-1.5-1.475-2.58-.6-4.509 3.643-9.343 6.881-13.472 11a3.21 3.21 0 0 0-.7 4.29 73.2 73.2 0 0 0 11.04 16.731 79.9 79.9 0 0 1 12.822 18.842 106 106 0 0 0 7.235 12.746c3.569 5.455 7.913 10.5 10.367 16.569 3.693 9.137 10.413 16.066 16.281 23.634a4.6 4.6 0 0 0 1.232.83m-66.895-88.228a10.4 10.4 0 0 1-1.835.687c-5.351 1.038-9.289 4.764-13.891 7.225-1.573.842-.891 1.625-.051 2.46 3.288 3.269 5.115 7.41 7.043 11.523a46.2 46.2 0 0 0 5.129 8.267C73.3 155 80.325 164.942 84.518 176.462a12.77 12.77 0 0 0 6.134 7.158c4.572 2.6 9.075 5.3 13.5 8.149 6.1 3.923 12.393 7.54 18.66 11.192.849.495 2.021 1.738 2.838.933 1.12-1.1-.392-2.209-.875-3.25a9.2 9.2 0 0 0-1.6-2.187 62.5 62.5 0 0 1-6.916-9.753c-3.567-5.9-6.523-12.242-10.677-17.681-7.31-9.572-12.047-20.632-18.725-30.574-5.235-7.793-10.847-15.436-15.009-23.938a2.03 2.03 0 0 0-2.29-1.355m-2.068-13.584c-.412-6.142-.8-12.11-1.225-18.077-.047-.678.014-1.608-.945-1.637-.353-.011-.848.622-1.074 1.064-4.877 9.538-8.446 19.628-12.419 29.547-.537 1.343.5 1.511 1.48 1.261 4.088-1.043 7.1-4.43 11.3-5.236 2.449-.47 3.231-2.018 2.9-4.372a17.5 17.5 0 0 1-.017-2.55m5.6-15.833c.424 5.629.83 11.2 1.273 16.76.122 1.527.993 1.84 2.155.972 3.749-2.8 7.5-5.6 11.159-8.515 2.9-2.312 2.773-2.5.559-5.609-2.314-3.248-5.993-4.528-9.1-6.62-1.585-1.067-3.161-3.405-5.066-2.4-1.87.984-.363 3.625-.977 5.412Zm331.6-30.092c0 .726-.024 1.453.007 2.178.2 4.745-.211 5.5-4.69 7a64 64 0 0 1-7.886 2.032 85.6 85.6 0 0 0-14.521 4.472c-2.177.851-2.341 1.52-.575 2.865 2.737 2.083 5.582 4.027 8.424 5.97 2.911 1.991 2.917 1.954 1.988 5.68a58 58 0 0 0-1.937 8.463 5.76 5.76 0 0 1-3.971 5.246c-3.178 1.321-6.391 2.562-9.531 3.968-13.713 6.14-27.66 11.709-41.655 17.161q-17.709 6.9-35.443 13.739a19 19 0 0 1-2.532.991c-3.356.768-5.456-.592-5.6-4.014a42.4 42.4 0 0 1 4.217-20.544c1.2-2.453 3.615-4.009 5.64-5.8 8.573-7.588 15.526-16.781 24.131-24.336 1.069-.938.787-1.832-.024-2.788-1.758-2.071-3.449-4.2-5.211-6.267-2.9-3.405-3.424-7.256-2.854-11.612.42-3.2 2.138-6.207 1.418-9.6-.257-1.207.853-1.924 1.711-2.58 9.48-7.254 17.671-16.147 28.432-21.794a113 113 0 0 0 13.2-8.61c4.095-2.946 8.028-2.849 11.984-.063a118 118 0 0 1 9.987 7.517c5.315 4.663 10.395 9.594 15.556 14.432 1.719 1.612 3.23 3.512 5.417 4.5 3.268 1.479 4.431 4.054 4.323 7.446-.047 1.446-.008 2.901-.006 4.348Zm-67.02 31.531a3.7 3.7 0 0 1-1.655 2.105c-6.287 4.652-11.491 10.507-17.344 15.647-5.566 4.889-11.58 9.343-16.335 15.124-.453.551-1.356 1.1-1.027 1.761.424.854 1.257.119 1.9-.057 6.136-1.675 11.844-4.506 17.8-6.633 15.536-5.547 30.812-11.74 46.087-17.949 1.672-.679 3.444-1.108 5.141-1.733 1.179-.434 3.089-.793 3.294-1.556.408-1.522-1.5-2.255-2.515-3.122a51 51 0 0 0-10.739-7.323 42.7 42.7 0 0 1-6.56-3.842c-3.442-2.51-3.022-6.864.759-8.744a13.6 13.6 0 0 1 3.617-1.12c10.556-1.894 20.485-6.076 30.914-8.427a11.7 11.7 0 0 0 2.026-.786c.923-.4.905-.99.19-1.564a9.4 9.4 0 0 0-1.809-1.181c-8.572-4.083-15.93-9.935-23.211-15.895-4.416-3.615-4.427-3.668-9.23-.343-2.082 1.442-4.049 3.051-6.047 4.61a83.3 83.3 0 0 1-12.077 8.3 119.5 119.5 0 0 0-18.007 12.143c-2.318 1.831-2.439 2.072-.451 4.033 4 3.945 8.042 7.853 12.207 11.621a8.38 8.38 0 0 1 3.072 4.931m-19.057-30.367c.045.273-.082 1.649.389 1.9 1.155.613 1.937-.6 2.63-1.358 5.342-5.817 11.958-9.83 18.736-13.713 5.016-2.873 9.786-6.191 14.568-9.454 1.442-.983 3.3-1.8 3.683-3.8.3-1.544 2.021-3.358.7-4.513-1.053-.922-2.366 1.078-3.553 1.754-9.423 5.365-19.006 10.482-27.189 17.772a24.2 24.2 0 0 1-5.908 3.8c-3.126 1.441-3.999 3.92-4.056 7.612m46.5-29.954c.018 3.9.354 4.606 4.4 7.1A170 170 0 0 1 384.444 44.7a101 101 0 0 0 11.356 7.36c.761.443 1.679 1.123 2.347.134a4.96 4.96 0 0 0 .641-2.558c.022-.98-.843-1.478-1.559-2.053-6.729-5.408-13.4-10.892-20.162-16.258-3.253-2.58-6.66-4.966-10.02-7.409-.986-.717-1.7-.35-1.91.795a12.3 12.3 0 0 0-.02 2.146Zm-70.667 93.56a3.8 3.8 0 0 0 .849-.647c5.7-7.842 13.257-13.8 20.35-20.242 4.02-3.649 7.941-7.406 11.909-11.113 1.47-1.374.818-2.514-.36-3.64-1.058-1.011-1.9-1.25-3.158-.043-3.912 3.75-8.148 7.141-11.625 11.367-3.912 4.755-8.066 9.358-13.283 12.727-4 2.582-4.763 6.583-5.458 10.712-.057.362-.17 1.224.78.879ZM382.521 84.7c.127-1.183-1.013-1.6-1.9-2.119-3.464-2.018-6.861-4.145-9.327-7.376-1.389-1.819-2.872-.957-4.365-.5-1.207.373-1.333 1.33-.364 1.945a72.6 72.6 0 0 1 13.384 11.059c.551.572 1.249.738 1.636-.219.336-.836.578-1.713.936-2.79M28.1 169.543a3 3 0 0 1 .982.291c5.808 4.239 12.5 7.261 17.276 12.929 3.866 4.589 8.764 8.1 13.28 12.006a49.8 49.8 0 0 1 11.571 13.552c1.591 2.9 1.206 4.689-1.582 6.126A30.4 30.4 0 0 1 64 216.363c-5.57 1.589-11.148 3.182-16.308 5.865-4.706 2.446-10.007 3.137-14.8 5.268-1.859.826-3.236-.06-4.392-1.191-7.122-6.966-14.261-13.91-20.547-21.684-2.625-3.247-1.358-6.526.181-9.079a208 208 0 0 1 17.656-24.735 2.88 2.88 0 0 1 2.31-1.264m-12.041 23.635c6.4-.765 8.855-3.119 9.17-8.814.05-.9.1-1.808.091-2.712-.006-.677.457-1.645-.243-1.962-.907-.411-1.02.731-1.425 1.245-3.035 3.838-4.536 8.631-7.7 12.39q.571-.028.087.2Zm37.457 4.661c.066.549.18 1.177.739.325.138-.21-.4-.48-.789-.272.143-1.07-.616-1.631-1.3-2.182-4.228-3.392-8.082-7.185-11.984-10.937a70 70 0 0 0-7.154-5.757c-1.833-1.348-2.248-1.055-2.41 1.366a19 19 0 0 1-.068 2.162c-.627 3.366.7 5.406 3.933 6.539 4.954 1.735 9.386 4.58 14.055 6.924 1.58.793 3.022 2.03 4.978 1.832m-18.6 22.72c8.97-.728 16.894-4.542 25.153-7.175 1.16-.37 1.358-1.079.266-1.79a27 27 0 0 0-4.2-2.488c-5.888-2.446-11.273-5.8-16.777-8.955-2.829-1.621-5.79-3.01-8.668-4.547-.993-.53-1.9-1.042-2.942-.11-3.138 2.814-6.953 4.533-10.614 6.5-1.815.974-1.6 2.1-.434 3.458a142 142 0 0 0 14.352 14.036 4.17 4.17 0 0 0 3.864 1.071m80.6 16.089c-.189.645-.493 1.867-.9 3.053a2460 2460 0 0 1-6.42 18.48 49.5 49.5 0 0 1-6.877 13.523 22.7 22.7 0 0 0-2.832 5.243c-1.247 3.13-3.435 5.511-5.648 7.921-1.476 1.607-3.05 1.851-4.785.55-4.134-3.1-8.916-4.827-13.738-6.409-5.949-1.952-10.9-5.734-16.263-8.732-2.906-1.624-3.009-3.408-1.283-6.316 2.221-3.739 4.641-7.389 6.515-11.3a13.35 13.35 0 0 1 8.484-7.075c6.363-2.093 12.748-4.12 19.129-6.158 4.836-1.545 9.724-2.942 14.5-4.642a38.5 38.5 0 0 1 7.458-1.393c1.744-.257 2.644.881 2.655 3.255Zm-12.575 7.4a3.14 3.14 0 0 0-2.635-.189 110.5 110.5 0 0 1-26.279 6.552c-1.584.211-3.211.675-4.072 2.344-1.578 3.059-3.215 6.087-4.77 9.157-.69 1.362.017 2.092 1.362 2.12 3.8.08 7.619-.105 11.408.145a8.97 8.97 0 0 0 8.068-3.532c5.043-6.224 11.315-11.193 17.026-16.735-.4-.017-.323-.3-.115-.193.63.337.028-.391.002.335Zm-10.956 30.166c.656.1.868-.433 1.135-.829a124 124 0 0 0 9.317-15.881c.186-.39.679-1.033.014-1.334-.2-.09-.816.583-1.155.981-3.626 4.252-6.721 8.961-11.022 12.635-.824.704.587 4.164 1.711 4.428m-15.108-2.329-.036.182a19 19 0 0 0-2.071-.536c-.3-.046-.642.189-.965.3.111.3.145.8.344.88 3.168 1.233 6.339 2.461 9.55 3.574.949.33 1.236-.409 1-1.214-.373-1.251-.965-2.278-2.5-2.43-1.787-.179-3.551-.499-5.322-.756m-54.951 21.5c1.724-3.2.516-6.294-3.33-7.406-4.313-1.246-8.715-2.183-13.085-3.229a4.256 4.256 0 0 0-5.09 2.077 4.66 4.66 0 0 0 1.669 5.73c4.313 2.714 9.315 3.688 13.913 5.209 2.163-.71 4.615.045 5.923-2.38Zm14.835-257.3c.766-1.559-.4-3.595-1.627-4.854a83 83 0 0 0-8.39-7.678c-2.339-1.809-6.163.249-6.441 3.177-.528 5.566 5.273 11.987 10.877 12.04 2.328.046 4.61-.714 5.581-2.687ZM10.35 321.71c4.049-.643 6.787-3.225 9.429-5.945 2.013-2.073 1.932-2.976.15-5.728-1.322-2.042-2.742-2.636-5.038-1.566a77 77 0 0 0-8.075 4.429c-1.353.841-2.676 1.989-2.164 3.882-.095 4.088 1.778 5.551 5.698 4.928m435.087 4.035c3.452-2.136 3.416-5.823-.1-7.924a5.8 5.8 0 0 0-1.513-.6c-2.1-.547-4.19-1.143-6.316-1.56a10.95 10.95 0 0 0-6.379.758 1.28 1.28 0 0 0-.947 1.57c.6 5.324 4.553 9.211 9.511 9.267a15.7 15.7 0 0 0 5.744-1.511m-29.992-203c5.211-1.044 8.872-4.583 12.439-8.085 1.341-1.316-.029-4.179-1.98-4.751a6.84 6.84 0 0 0-4.263.156 24.05 24.05 0 0 0-10.8 7.8c-1.744 2.154-.832 4.182 1.915 4.732a8.6 8.6 0 0 0 1.885.021 3.3 3.3 0 0 0 .804.131ZM436 291.39a4.156 4.156 0 0 0-3.008 5.014c.373 2.52 1.6 3.631 4.283 3.807.706.047 1.588-.326 2.1-.021 3.4 2.015 5.639-.1 8.137-1.936 2.041-1.5 1.947-3.118 1.223-5.19-1.048-3-3.368-2.809-5.859-2.56a19.3 19.3 0 0 0-6.876.886M44.3 27.017c1.455 3.74 2.384 4.348 6.343 3.736 3.711-.574 4.559-1.679 3.9-5.48a27.7 27.7 0 0 0-3.247-8.587c-1.238-2.245-3.347-2.282-5.531-.8-2.4 1.627-1.847 4.11-2.213 6.459a12.2 12.2 0 0 0 .748 4.672M423.519 145.11c.773-.321 1.909-.59 1.739-1.72-.266-1.766-.611-3.611-2.507-4.473a15.6 15.6 0 0 0-11.561-.435c-1.954.631-2.562 2.462-2.232 4.418a2.97 2.97 0 0 0 3.324 2.806c1.435-.059 2.875-.011 4.312-.011 2.328.064 4.7.338 6.925-.585m-113.905 233.8a95.6 95.6 0 0 1-14.075-.126c-6.826-.788-8.936-3.948-6.247-10.346 3.73-8.873 8.9-16.953 14.515-24.749a8 8 0 0 1 .718-.815c4.407-4.646 7.179-4.415 10.577 1.11s6.563 11.222 9.959 16.763c1.792 2.925 3.839 5.695 5.81 8.509 2.426 3.463 2.077 5.847-1.558 7.812a13.26 13.26 0 0 1-6.723 1.875c-4.323-.119-8.651-.032-12.976-.032Zm-3.779-7.412c3.078 0 6.16-.087 9.233.038a11.2 11.2 0 0 0 4.254-.66 1.137 1.137 0 0 0 .781-1.684c-3.374-6.613-6.68-13.262-10.161-19.818-.947-1.784-1.774-.156-2.32.564-4.706 6.2-9.36 12.447-14.032 18.676a7 7 0 0 0-.673.851c-.553 1.057-.21 1.654.975 1.829 3.984.589 7.96-.25 11.943.206Zm.284 55.217a35 35 0 0 1-7.731.367c-5.465-.33-6.639-5.086-5.049-8.541 2.794-6.067 5.8-12.078 9.934-17.4a19.2 19.2 0 0 1 2.978-3.14c3.229-2.63 5.634-2.462 8.461.634a47.3 47.3 0 0 1 5.615 7.306c2.155 3.55 4.115 7.214 6.832 10.426 1.9 2.246 1.68 3.477-.241 5.695a10.81 10.81 0 0 1-7.433 3.954 109 109 0 0 1-13.366.7Zm-5.811-8.378c4.868-1.212 9.912-1.382 14.926-1.816a9 9 0 0 0 1.063-.179 1.1 1.1 0 0 0 .916-1.584c-1.81-3.916-2.8-8.2-5.148-11.864-1.319-2.057-2.526-2.117-4.352-.36a12 12 0 0 0-1.676 2.1q-3.681 5.65-7.3 11.343c-.371.583-1.047 1.324-.5 1.918.376.405 1.292.305 2.071.443Zm4.443 52.046c-1.877.248-5.086.376-6.867-2.864-1.9-3.45.094-6.2 2.2-8.808 1.813-2.247 3.565-4.545 5.407-6.768 1.549-1.87 2.494-1.976 4.4-.44 2.674 2.153 5.3 4.366 7.9 6.61a16.8 16.8 0 0 1 2.62 2.738c2.824 3.869 1.585 7.347-3.05 8.681a9.6 9.6 0 0 1-2.135.293c-1.622.082-3.247.089-4.869.168-1.446.072-2.884.198-5.606.391Zm8.19-6.749c.419-.066 1.263-.006 1.362-.25.332-.809-.4-1.262-.955-1.719-1.264-1.035-2.514-2.086-3.785-3.113-2.727-2.2-3.075-2.105-4.348 1.194-.917 2.378-.724 2.774 1.683 3.129 1.975.292 3.962.502 6.043.76Zm-130.883-38.011c-1.537 1.258-3 2.631-4.626 3.751-3.743 2.572-4.951 2.273-7.429-1.422a40 40 0 0 0-2.937-3.889c-3.559-4.1-5.567-4.452-10.394-1.894a43 43 0 0 0-7.97 5.649c-1.659 1.44-2.845 1.14-4-.528-1.745-2.528-2.867-5.43-4.936-7.777-4.293-4.869-7.466-4.788-11.248.567a45.5 45.5 0 0 0-5.682 12.274 6.57 6.57 0 0 0 .11 4.779c.751 1.778 2.325 2.164 3.858.944a5.1 5.1 0 0 0 1.336-2.3q1.907-4.5 3.8-9c.341-.814.415-1.882 1.481-2.081 1.256-.236 2.037.676 2.6 1.577a16.5 16.5 0 0 1 1.3 2.959c.513 1.348.832 2.787 1.472 4.068 2.889 5.784 7.424 7.143 12.958 3.912a37.7 37.7 0 0 0 5.924-3.8c2.767-2.415 5.019-2.552 8.132-.274 5.393 3.946 9.385 3.113 13.537-2.214 1.2-1.535 2.689-3 2.635-5.2Zm-.079.1.275-.2-.2.1Zm170.468-197.112c-.05-3.173.8-4.6 4.457-5.551a80 80 0 0 0 7.685-2.674c2.5-.93 3.641-.332 4.529 2.2a9.3 9.3 0 0 1 .539 2.648c.141 3.423-.106 6.826.955 10.225.723 2.318-.21 3.542-2.637 3.724a63.6 63.6 0 0 0-11.786 1.8c-1.587.425-2.747-.508-2.883-2.366-.226-3.067-.522-6.13-.859-10.006m11.908 1.841c-.065-.9-.1-1.808-.207-2.7-.059-.486-.084-1.017-.752-1.2-2.224-.6-5.625 1.751-5.692 4-.027.9-.008 1.809.042 2.711.076 1.391.9 1.727 2.186 1.65 3.802-.235 4.5-.901 4.423-4.461m-6.131 46.222c.627-.308 1.411-.48 1.451-1.365a1.92 1.92 0 0 0-1.124-1.717 12.5 12.5 0 0 0-2.02-.763c-6.454-2.348-12.957-4.579-19.076-7.748a8.08 8.08 0 0 0-4.721-.862c-2.471.268-3.22 1.389-2.38 3.618a4.42 4.42 0 0 0 2.88 2.985c2.063.65 4.087 1.435 6.1 2.237A52.9 52.9 0 0 0 354.671 277a5.2 5.2 0 0 0 3.553-.326" data-name="Untitled_Artwork 15 Image"/></g></svg>