<svg xmlns="http://www.w3.org/2000/svg" viewBox="0 0 87.571 64.263"><g data-name="Layer 2"><path d="M24.024 8.012c-.292 2.194-1.713 4.549-2.875 6.994-.675 1.42-.556 2.343 1.095 2.844a9 9 0 0 1 2.463 1.115c2.323 1.589 2.7 3.143 1.239 5.5a14.6 14.6 0 0 1-2.711 3.364c-2.457 2.133-6.1 3.217-5.885 7.535.034.658-1.129 1.4-2.148 1.191-.9-.184-.778-1.091-1.045-1.731-.433-1.041.441-2.915-1.512-2.982-2.039-.07-1.256 1.757-1.558 2.841a18 18 0 0 1-.643 2.05c-.482 1.159-1.144 1.132-1.946.245-1.454-1.609-.878-3.962-1.84-5.53-.991-1.617-3.75-.781-5.232-2.412-1.555-1.712-2.113-3.917-.259-5.205 3.907-2.712 3.807-5.974 2.587-9.876a9.9 9.9 0 0 1-.182-4.315C4.137 5.951 6.891 4.148 10.2 5.8c2.137 1.069 2.824.407 3.873-1.093a7.4 7.4 0 0 1 2.344-2.184 4.84 4.84 0 0 1 5.176-.162c1.813 1.159 2.698 2.881 2.431 5.651m-9.67 7.088c.213.764-.508 1.964.833 2.116.8.09 1.022-.834 1.31-1.475 1.168-2.6 2.393-5.182 3.482-7.817a1.69 1.69 0 0 0-.6-2.342 1.91 1.91 0 0 0-2.295.93c-1.847 2.562-2.201 5.608-2.73 8.588m-6.386-1.464c.141.943.251 1.8.428 2.643a1.02 1.02 0 0 0 .764.01c.8-.651.551-3.823-.308-4.375a5 5 0 0 0-.466-.228Zm77.506-6.958a3.26 3.26 0 0 1-.2 1.345c-1.045 2.644-1.7 4.967 1.479 6.889 1.532.925.614 2.519-.358 3.777-1.191 1.539-3.782 2.372-2.713 5.187.093.248-.906.987-1.473 1.392-1.271.906-2.134-1.6-3.109-.593-.589.608.333 2.141-.694 2.973a1.33 1.33 0 0 1-2.236-.48c-.5-2.559-2.152-3-4.321-2.956a7.2 7.2 0 0 1-2.152-.3c-2.657-.778-3.724-3.049-1.778-4.834 3.365-3.089 3.014-5.822.737-9.244-.951-1.428-1.194-3.411-1.464-5.186A3.726 3.726 0 0 1 69.719.315c1.659-.588 2.671.745 3.585 1.879a14 14 0 0 1 1.09 1.873c.412.719.155 2.164 1.363 1.948.555-.1.905-1.38 1.335-2.132.271-.473.5-.973.781-1.436C78.9.786 80.274-.469 82.336.17a4.455 4.455 0 0 1 3.129 4.068c.058.538.009 1.088.009 2.44m-4.028-1.9c-.121-.314-.153-.788-.379-.913a.833.833 0 0 0-1.215.544q-1 2.774-1.879 5.59c-.09.291.039.922.194.968.588.175.724-.442 1.019-.787 1.333-1.558 1.742-3.501 2.26-5.401Zm-11-.762A2.8 2.8 0 0 0 70.1 5a16.6 16.6 0 0 0 .376 2.637.975.975 0 0 0 1.115.835c.2-.04.384-.567.421-.89a4.7 4.7 0 0 0-.788-3.063c-.148-.235-.509-.339-.775-.502ZM48.093 60.007a10 10 0 0 0-.02-1.667c-.095-.726-.392-1.517-1.164-1.669-.388-.077-.961.352-1.327.687-1.065.975-2.044 2.044-3.108 3.021a.96.96 0 0 1-1.422-.007 1.44 1.44 0 0 1-.2-1.488c.543-1.953 3.657-2.508 3.143-4.551-.387-1.536-2.376-2.612-3.437-4.051a1.944 1.944 0 0 1 .807-3.149 18 18 0 0 1 3.047-1.127c1.935-.553 3.073-1.51 3.033-3.791a7.03 7.03 0 0 1 2.06-4.894c1.567-1.665 3.071-1.672 4.6.059a7.4 7.4 0 0 1 1.451 2.273c.554 1.508 1.488 1.831 2.948 1.46 2.359-.6 4.376-.137 5.4 2.318.926 2.219-.317 3.915-1.788 5.278a5.83 5.83 0 0 0-2.2 5.146c.233 3.147-.713 4.423-3.753 4.722-2.907.285-5.3.444-5.1 4.3a1.635 1.635 0 0 1-2.013 1.342c-1.076-.25-1.191-1.254-1.256-2.146a11.4 11.4 0 0 1 .299-2.066m3.027-15.335c1.435-.572 1.372-1.59.994-2.628-.163-.449-.763-1.189-.859-1.144-1.284.6-1.156 1.889-1.2 3.008-.005.254.73.535 1.065.764" data-name="Untitled_Artwork 14 Image"/></g></svg>