<svg width="1419" height="907" viewBox="0 0 1419 907" fill="none" xmlns="http://www.w3.org/2000/svg">
<g clip-path="url(#clip0_177_799)">
<path d="M1378.66 609.53C1367.2 593.37 1346.3 597.77 1344.85 578.05L1343.63 561.51C1343.15 555.02 1346.46 547.95 1347.95 541.54C1349.5 534.89 1353.23 530.14 1357.03 524.71C1358.92 522.02 1361 517.99 1364.1 517.77C1365.09 517.7 1366.59 515.46 1366.1 514.84C1362.47 510.24 1352.71 521.39 1350.81 523.05C1338.9 533.42 1330.85 552.3 1330.62 567.36C1330.51 574.56 1329.29 581.51 1330.84 588.58C1331.39 591.11 1331.19 597.09 1333.22 598.85L1346.21 610.03C1349.27 612.67 1353.65 613.95 1356.85 616.01C1367.74 623.02 1372.53 636.04 1367.11 647.64C1366.01 649.99 1362.63 652.59 1361.47 654.66C1352.27 671.2 1356.59 657.83 1351.04 673.9C1349.92 677.14 1347.88 680.83 1347.49 683.94L1346.18 694.52C1345.58 699.4 1346.4 705.36 1346.82 710.04C1347.37 716.24 1351.19 718.68 1356.46 721.1C1360.22 722.83 1367.07 725.59 1369.96 720.53C1372.68 715.77 1369.83 708.94 1366.36 704.38C1365.98 686.21 1368.83 679.12 1378.38 665.76C1384.57 657.09 1384.87 658.75 1386.69 647.74C1388.38 637.46 1389.1 624.23 1382.89 615.47L1378.67 609.53H1378.66Z" fill="black"/>
<path d="M64.49 701.88C65.55 700.81 67.35 698.05 68.48 697.07C75.67 690.86 76.21 682.67 76.71 673.83C77.11 666.75 73.47 658.01 69.03 652.98C63.21 646.4 53.71 635.28 53.7 626.29C53.68 610.92 57.93 596.31 65.61 583.29C67.35 580.33 70.76 577.94 67.24 573.7L62.88 578.66C59.65 582.33 56.83 585.99 54.34 590.2C46.33 603.76 43.67 611.35 42.16 627.31C41.42 635.1 42.02 642.57 46.33 649.54L58.2 668.73C60.52 672.49 59.81 678.94 56.53 682.03C48.52 689.57 44.08 698.33 39.36 708.04C36.66 713.61 36.22 718.7 35.62 724.89C33.79 743.62 35.76 753.84 46.68 770.21C51.28 777.1 57.62 783.7 67.1 782.3C72.39 778.8 63.24 763.43 60.88 760.08C53.22 749.26 50.17 740.37 52.35 727.34C54 717.47 57.37 709.09 64.49 701.87V701.88Z" fill="black"/>
<path d="M18.74 631.42C12.72 614.07 15.17 591.42 21.48 573.87C22.71 570.45 27.85 567.88 24.21 562.72C16.36 570.13 12.96 572.95 8.62 582.87C1.22 599.78 0.47 609.49 1.35 627.62C1.66 634.05 4.81 639.85 6.93 645.9C11.35 658.54 16.36 658.64 17.19 667.31C17.45 670 12.58 672.65 11.21 674.57L5.31 682.84C2.71 686.48 2.54 692.22 1.11 696.95C-1.42 705.29 0.789999 713.17 4.14 720.22C11.39 718.65 12.99 713.26 14.54 707.38C15.93 702.12 18.14 696 20.44 691.09C29.94 682.12 37.82 671.25 32.16 658.04C28.19 648.77 22.06 640.94 18.75 631.41L18.74 631.42Z" fill="black"/>
<path d="M1409.67 580.34C1400.6 575.73 1392.26 570.71 1383.49 565.59L1380.08 557.94C1380.03 551.08 1382.84 544.76 1385.8 538.64C1388.34 533.37 1412.24 509.06 1400.58 507.86C1397.83 507.58 1395.61 512.69 1393.67 514.02C1389.4 516 1386.28 518.44 1383.07 521.6C1379.71 524.91 1376.75 527.25 1374.57 531.39C1369.28 541.44 1368.71 533.44 1363.79 557.22C1362.67 562.62 1364.57 567.63 1367.22 571.8C1379.23 590.74 1417.93 598.56 1418.62 589.73C1418.96 585.37 1412.78 581.93 1409.68 580.35L1409.67 580.34Z" fill="black"/>
<path d="M855.38 405.88C859.88 404.99 858.65 394.36 859.41 384.19C859.56 382.23 857.43 379.4 855.6 379.32C848.09 378.98 844.56 394.22 850.91 403.82C851.65 404.95 854.18 406.11 855.37 405.88H855.38Z" fill="black"/>
<path d="M897.34 317.31C902.03 313.59 902.43 304.27 901.8 303.64C900.94 302.79 891.75 298.54 889.25 302.43C886.34 306.97 886.36 313.78 888.59 318.41C890.93 319.47 895.61 318.68 897.35 317.3L897.34 317.31Z" fill="black"/>
<path d="M837.77 327.36L841.82 320.2C843 318.12 842.95 314.72 842.06 312.37C841.37 310.55 837.7 307.3 835.45 309.08C830.42 313.05 829.03 322.21 830.75 328.07C831.7 331.29 836.74 329.17 837.77 327.35V327.36Z" fill="black"/>
<path d="M920.96 403.06C924.75 403.09 928.11 400.2 928.12 394.92C928.12 387.44 926.07 391.75 918.13 386.17C915.7 386.08 914.72 391.35 914.58 393.8C914.3 398.49 916.17 403.01 920.96 403.05V403.06Z" fill="black"/>
<path d="M893.59 356.7C896.64 356.41 899.02 354.28 899.3 349.98C899.42 348.18 898.75 343.96 897.38 343.45C894.9 342.51 890.12 341.8 887.28 341.73C885.39 344.47 885.8 348.62 886.97 351.58C888.27 354.88 890.45 357 893.59 356.7Z" fill="black"/>
<path d="M926.91 706.79C924.86 705.96 920.68 706.06 919.55 707.59C917.13 710.87 916.98 717.62 920.41 719.74C924.54 722.29 929.36 717.75 929.61 713.09C929.77 710.11 928.52 707.45 926.92 706.8L926.91 706.79Z" fill="black"/>
<path d="M652.04 139.21C656.45 137.25 651.58 134.29 656.85 128.68L657.82 116.64C662.89 119.06 666.28 129.98 673.28 129.43C675.78 129.23 677.41 124.67 677.82 122.5L681.02 105.73C681.54 103.02 681.08 100.01 678.94 98.6997C677.35 97.7297 672.87 97.4397 671.84 99.2297C666.81 107.99 670.67 119.43 668.02 117.81C667.56 117.53 665.98 116.54 665.66 116.08L658 105.47C657.32 104.53 654.17 103.7 653.25 104.3C650.13 106.34 648.66 113.77 648.34 116.99L646.77 133.05C646.56 135.15 649.91 138.63 652.04 139.2V139.21Z" fill="black"/>
<path d="M633.55 234.79C633.73 238.11 635.37 240.74 638.88 240.78C640.94 240.8 643.74 237.9 643.95 235.47L645.02 222.89C645.49 217.42 647.05 194.44 642.23 193.47C641.22 193.27 639.03 193.23 638.03 192.97L634.05 191.97C631.47 191.32 632.47 215.23 632.6 217.62L633.54 234.78L633.55 234.79Z" fill="black"/>
<path d="M718.87 152.52L720.04 143.12C711.8 131.21 720.94 129.63 713.37 124.42C710.45 129.26 709.1 133.7 708.28 138.86C707.79 141.92 705.52 146.51 706.51 149.54C707.94 153.94 716.06 154.92 718.87 152.52Z" fill="black"/>
<path d="M687.86 203.61C689.12 203.73 691.38 200.92 691.47 199.38L692.25 186.51C692.4 183.99 691.03 181.09 688.81 180.58C680.25 178.61 681.77 195.34 683.24 200.85C683.57 202.08 686.6 203.48 687.85 203.6L687.86 203.61Z" fill="black"/>
<path d="M552.49 136.19C558.83 131.6 558.57 124.17 555.47 118.43C553.37 117.61 548.05 117.18 546.25 118.65C542.54 122.13 542.51 128.49 543.67 133.04L552.49 136.19Z" fill="black"/>
<path d="M549.72 227.29C551.64 224.1 552.45 219.71 552.44 215.75L545.75 212.97C544.54 212.47 542.5 212.18 541.55 212.53C537.34 214.05 536.46 225.22 540.01 229.1C541.76 231.01 548.42 229.45 549.72 227.29Z" fill="black"/>
<path d="M473.04 211.17C470.11 215.39 468.66 220.54 469.25 225.7C469.55 228.38 474.07 232.75 476.89 230.63C479.22 228.87 482.92 218.89 480.22 214.79C479.09 213.07 475.61 211.56 473.04 211.17Z" fill="black"/>
<path d="M517.26 185.28C522.77 179.98 519.08 170.49 516.01 170.24C507.34 169.52 507.18 182.56 507.76 183.98C509.42 188.06 515.11 187.35 517.26 185.29V185.28Z" fill="black"/>
<path d="M475.55 140.21C481.48 136.68 480.9 127.93 478.92 126.76C477.89 126.15 474.53 125.5 473.33 126.08C469.49 127.91 464.91 134.57 467.27 138.87C468.96 141.96 473.42 141.48 475.55 140.22V140.21Z" fill="black"/>
<path d="M674.18 400.29C664.9 393.69 664.37 420.32 666.01 426.75C666.31 427.92 669.41 429.07 670.43 428.52C677.53 424.69 676.22 416.28 676.59 406.44C676.67 404.25 675.64 401.33 674.18 400.29Z" fill="black"/>
<path d="M642.02 354.12C634.55 363.36 638.7 378.05 644.64 377.78C649.91 377.54 649.44 362.19 649.02 357.8C648.78 355.29 643.71 352.03 642.02 354.12Z" fill="black"/>
<path d="M703.29 324.79C701.96 324.27 698.36 324.57 697.5 325.79C694.98 329.39 694.4 335.58 698.09 338.95C699.45 340.19 703.54 339.74 704.71 338.33C707.43 335.06 707.09 326.28 703.29 324.79Z" fill="black"/>
<path d="M283.47 354.57C273.46 356.16 276.3 367.58 271.18 378.04C268.93 373.53 268.13 370.6 265.12 370.18C261.46 369.67 258.87 371.47 257.75 374.71L253.28 387.71L242.73 367.69C231.91 368.58 243.66 392.02 246.18 396.97C248.3 401.14 251.24 407.19 257.91 405.67C262.9 404.53 258.47 391.08 263.67 390.9L266.23 397.17C269.28 401.58 278.62 401.59 280.96 396.16C283.38 390.53 283.8 384.09 285.37 378.26L290.29 359.98C290.67 358.58 289.65 355.39 288.56 354.56C287.61 353.84 285.15 354.3 283.46 354.57H283.47Z" fill="black"/>
<path d="M342.35 337.27C337.87 341.86 337.93 349.64 340.22 354.71C340.88 356.17 344.39 356.85 345.6 356.25C349.24 354.45 353.92 345.05 349.79 339.38C348.31 337.35 343.99 335.6 342.35 337.27Z" fill="black"/>
<path d="M817.02 225.47C818.4 225.85 822.35 225.53 823.07 224.46C826.7 219.1 824.89 210.64 820.83 210.17C816.32 209.66 813.86 212.12 813.13 215.64C812.38 219.29 812.08 224.11 817.02 225.46V225.47Z" fill="black"/>
<path d="M814.15 118.97C814.66 116.45 814.45 111.79 813.42 109.54C811.85 108.99 809.43 109.2 808.34 110.09C806.34 111.74 806.38 116.79 809.92 120.54C810.57 121.23 813.93 120.05 814.15 118.96V118.97Z" fill="black"/>
<path d="M517.26 559.35C513.19 562.05 512.15 568.53 513.72 573.41C514.78 576.71 518.45 581.63 523.73 581.29C527.98 581.02 530.13 565.52 527.09 562.46C525.34 560.7 520.06 559.5 517.26 559.35Z" fill="black"/>
<path d="M472.51 526.34C467.99 530.19 465.25 539.95 470.79 542.51C474.11 544.05 476.01 542.67 478.32 540.11C481.17 536.95 483.36 531.02 480.63 527.19C479.42 525.5 474.04 525.04 472.51 526.34Z" fill="black"/>
<path d="M844.47 496.92C840.2 501.5 839.31 514.58 844.47 514.27C850.47 513.91 855.5 501.86 851.34 497.97C849.87 496.6 846.47 494.78 844.48 496.92H844.47Z" fill="black"/>
<path d="M844.61 557.89C839.84 560.55 839.23 571.09 844.69 572.79C849.73 574.36 852.13 568.39 851.84 565.06C851.56 562 848.24 557.18 844.61 557.89Z" fill="black"/>
<path d="M884.13 502.21C888.59 501.66 890.9 495.07 889.71 491.18C889.34 489.98 888.44 488.07 887.65 488.31L884.66 489.23C881.39 490.24 879.44 493.06 879.07 496.09C878.75 498.67 880.78 502.62 884.14 502.21H884.13Z" fill="black"/>
<path d="M1069.56 130.98C1071.89 131.02 1073.57 129.05 1075.08 125.95C1077.34 121.3 1074.85 113.01 1069.2 113.36C1063.89 113.68 1063.87 121.08 1064.58 124.88C1065.22 128.3 1066.28 130.93 1069.57 130.98H1069.56Z" fill="black"/>
<path d="M1002.91 194.33C999.55 195.87 996.97 197.61 996.72 200.15C996.43 203.14 996.89 207.13 999.32 208.2C1002.52 209.61 1006.06 207.64 1007.44 205.61C1009.15 203.11 1009.58 200.07 1008.34 196.71C1007.48 194.37 1004.67 193.52 1002.9 194.33H1002.91Z" fill="black"/>
<path d="M1031.75 153.17C1029.24 155.86 1029.12 162.39 1031.84 164.96C1033.61 166.63 1040.05 166.04 1041.12 163.84C1042.77 160.45 1041.7 156.15 1039.62 153.97C1038.24 152.52 1033.08 151.75 1031.75 153.17Z" fill="black"/>
<path d="M1099.05 376.61C1100.78 375.72 1102.5 371.62 1101.19 370.7C1095.43 366.64 1088.17 372.81 1079.1 372.63C1077.63 370.59 1077.21 365.92 1078.43 364.35L1086.23 364.54C1088 364.58 1091 362.65 1091.27 361.06C1091.52 359.57 1090.7 356.1 1089.16 355.52C1086.16 354.39 1082.49 355.5 1078.4 357.6L1076.67 348.18C1085.16 344.63 1092.25 349.33 1094.18 344.39C1094.73 342.98 1094.69 340.29 1093.52 339.63C1092.51 339.07 1089.38 338.36 1088.3 338.8L1076.45 343.55L1072.53 341.38C1070.29 352.83 1072.74 347.77 1070.81 362.49C1069.96 368.96 1068.95 375.29 1072.72 381.28C1077.91 382.59 1093.82 379.3 1099.05 376.6V376.61Z" fill="black"/>
<path d="M1026.74 413.71C1031.48 412.42 1033.07 405.26 1031.89 400.71C1030.84 396.68 1027.6 394.95 1024.58 395.7C1019.18 397.04 1017.59 401.91 1018.03 406.83C1018.31 409.99 1022.44 414.88 1026.74 413.71Z" fill="black"/>
<path d="M1039.97 358.53C1043.1 356.86 1042.46 351.5 1041.28 348.86C1040.34 346.76 1036.09 344.61 1033.27 346.03C1030.08 347.63 1028.85 354.01 1030.78 357.07C1032.01 359.03 1037.74 359.72 1039.98 358.53H1039.97Z" fill="black"/>
<path d="M548.05 690.31C547.23 691.5 546.76 694.04 546.66 696.13C546.51 699.3 549.85 703.26 553.3 701.91C557.25 700.36 559.06 693.37 555.14 689.84C553.87 688.69 548.99 688.95 548.05 690.31Z" fill="black"/>
<path d="M481.95 411.76C482.76 408.75 481.81 404.8 479.81 403.74C477.49 402.51 473.42 401.96 472.14 403.54C468.39 408.16 467.8 412.49 470.77 417.21C474.99 417.7 480.55 416.95 481.94 411.76H481.95Z" fill="black"/>
<path d="M696.39 554.849C699.57 553.769 704.96 543.83 701.44 539.15C700.16 537.45 695.66 536.32 693.31 536.27C689.2 540.57 687.61 548.21 691.68 552.88C692.62 553.96 695.26 555.239 696.39 554.849Z" fill="black"/>
<path d="M738.33 690.32C734.92 694.5 732.46 701.43 736.34 706.2C738.44 708.78 743.9 709.01 747.25 708.02C750.24 702.61 749.22 696.38 746.22 692.15C744.34 691.36 740.67 690.58 738.33 690.33V690.32Z" fill="black"/>
<path d="M270.75 281.72C285.36 284.05 300.29 279.39 311.85 269.65C325.72 257.95 327.43 245.13 323.54 228.19C322.53 223.8 320.16 220.18 318.07 216.36C301.84 186.82 261.99 198.93 254.73 209.82L249.59 217.53C240.53 231.12 234.84 245.34 243.55 261.65C249.29 272.39 257.97 279.68 270.76 281.72H270.75ZM255.29 228.98C259.54 222.69 267.16 218.61 270.47 212.81C279.79 205.55 292.76 207.52 302.89 212.63C308.63 218.93 313.79 226.11 315.07 234.93C316.92 247.73 316.4 254.37 306.61 261.87C298.09 268.39 283.87 274.7 272.71 269.8L261.43 264.85L253 255.24C244.74 245.82 254.76 241.12 255.29 228.99V228.98Z" fill="black"/>
<path d="M1048.36 712.05C1046.16 713.32 1043.15 719.1 1046.27 720.78C1048.37 721.91 1052.85 723.48 1055.51 723.73C1059.22 724.08 1058.62 716.89 1057.55 714.59C1055.91 711.06 1051.15 710.43 1048.35 712.05H1048.36Z" fill="black"/>
<path d="M289.87 248.77C286.73 252.95 283.86 258.09 287.9 262.66C289.37 264.32 294.79 263.23 296.09 261.39C297.59 259.25 299.66 256.69 300.38 254.64C303.13 246.8 301.37 236.58 295.79 230.55C293.35 227.91 290.98 226.8 289.93 223C288.79 218.85 283.89 221.76 281.63 221.6C281.61 221.62 281.59 221.65 281.57 221.67C281.07 222.17 280.48 222.51 279.8 222.7C279.71 222.71 279.61 222.73 279.52 222.74C279.26 223.35 277.37 224.09 275.6 225.21C278.64 227.71 281.45 229.48 285.01 231.35C290.73 234.36 293.85 243.46 289.86 248.78L289.87 248.77Z" fill="black"/>
<path d="M1331.06 726.23C1330.67 724.34 1327.57 721.9 1326.81 720.19L1319.64 704.2C1316.07 696.23 1313.63 687.91 1318.77 679.91L1328.84 664.24C1335.59 653.75 1335.29 642.09 1330.04 631.08C1327.55 625.86 1325.51 619.88 1322.02 615.38C1319.9 612.64 1318.04 611.07 1318.54 607.21C1318.96 603.92 1316.55 601.69 1315.27 598.8C1312.95 593.59 1311.21 587.35 1310.05 581.6C1313.24 569.05 1317.06 565.53 1317.74 554.4C1318.1 548.6 1315.66 545.48 1311.89 541.32C1309 538.13 1306.92 536.12 1301.84 535.86C1290.7 535.27 1275.64 538.85 1264.75 541.95L1246.45 547.16L1202.59 561.17C1205.51 555.11 1202.96 551.78 1202.29 547.45C1200.8 537.87 1201.44 528.31 1199.14 519.01C1198.37 515.9 1199.02 512.75 1198.85 509.54L1197.85 491.37L1197.02 485.52C1195.86 477.36 1196.77 469.74 1195.82 461.67L1193.86 444.91L1191.52 414.93L1190.71 402.56L1188.05 365.77L1186.98 354.07L1186.09 336.02L1185.01 321.08L1238.78 313.55C1242.62 313.01 1246.38 313.95 1250.12 314.04C1254.8 314.15 1259.97 312.59 1264.94 312.08C1269.47 311.61 1275.39 310.89 1279.17 308.92C1285.99 305.36 1284.21 296.79 1281.47 291.76C1282.25 286.56 1281.2 270.88 1280.14 266.42C1279.33 263.04 1276.12 259.4 1276.93 255.94C1278.18 250.56 1278.77 245.92 1276.45 241.05C1274.55 237.06 1271.99 231.1 1266.02 230.76C1262.61 230.57 1257.35 231.15 1253.19 231.49L1233.98 233.03L1225.83 233.38C1226.09 227.91 1225.57 224.46 1222.69 220.91C1218.79 216.12 1202.54 198.07 1198.59 195.05L1182.04 182.4L1181.89 167.45L1180.73 133.15C1180.28 119.85 1178.9 126.61 1178.92 109.42C1178.92 104.68 1178.81 100.35 1178.54 95.7302L1177.96 85.6302C1177.77 82.3802 1175.72 78.4702 1173.02 77.1002C1170.36 75.7502 1166.95 76.9002 1163.8 77.0402C1160.93 77.1702 1157.86 77.2102 1155.02 77.1802L1146 77.0902L1136.34 76.9502C1134.21 76.9202 1133.04 72.1402 1132.95 70.0702L1132.65 63.7002L1132.45 55.8302C1132.3 49.9102 1131.92 45.6702 1128.1 40.7802C1127.18 39.6002 1126.39 36.4602 1125.02 36.2002C1123.76 35.9602 1121.15 36.3802 1119.66 36.5202L1110.1 37.4202L1101.03 38.2702C1097.66 38.5902 1094.35 38.3702 1090.91 38.6702L1081.78 39.4702L1079.65 39.6302C1079.36 39.6502 1079.09 38.5002 1079.31 38.3102L1080.61 37.2102C1084.04 34.3002 1088.29 29.7802 1086.06 24.8702C1085.26 23.1202 1080.87 22.3602 1078.79 22.1502C1085.37 9.9902 1069.46 -1.3998 1065.46 0.100203C1059.1 2.4902 1054.47 8.1302 1050.17 12.9502L1032.62 8.2402C1028.8 7.2202 1023.33 7.0102 1019.31 7.1902L1009.87 7.6302C1004.93 7.8602 997.75 10.4402 994.06 13.5802L985.83 20.5702C978.49 26.8002 976.91 36.8102 974.32 46.2202L954.35 48.0702C947.89 48.6702 941.61 48.9502 934.97 49.1802C931.41 49.3002 926.92 50.5302 923.66 50.2302C916.8 49.5902 911.37 51.4002 904.82 51.6302L892.04 52.0602C887.34 52.2202 882.66 52.8202 878.18 52.9102C874.16 53.0002 870.2 52.9302 866.14 53.4002L856.98 54.4702L841.41 55.2602L832.25 55.5702L817.01 56.7702L806.36 57.6402L793.19 58.6702L777.5 59.3502C767.68 59.7802 758.17 60.1602 748.38 61.0702C745.05 61.3802 741.69 62.0002 738.3 61.9802C730.94 61.9502 724.19 62.7802 717.06 63.1702L701.96 64.0002L679.04 65.3102L661.42 66.5002L648.33 67.6202L633.42 68.1602L624.03 68.7002L607.49 69.7202C603.77 69.9502 599.34 71.2102 595.73 71.1602C592.05 71.1102 588.89 71.0102 585.38 71.2202L564.43 72.4702L548.44 73.5702L525.23 74.9102L507.49 75.9202L477.28 78.3102C471.55 78.7602 465.56 78.2102 459.93 79.2802C455.98 80.0302 452.56 79.8702 448.51 80.0802L423.54 81.3602L411.5 81.8302L398.65 82.8002L382.47 83.9202C374.01 84.5002 366.22 85.4302 357.92 85.5002C343.49 85.6102 344.57 87.7302 329.52 87.0302C324.71 86.8102 319.87 87.8202 315.34 88.0702L298.54 89.0202L283.89 89.7802L260.1 91.2002L247.6 92.1002L233.53 93.1102C223.5 93.8302 213.7 94.0402 203.39 91.6802L192.41 96.9502L189.5 105.34C189.25 106.06 187.32 108.34 187.99 108.58L190.62 109.51L188.97 112.63C188.67 113.19 191.57 114.77 191.56 116.05L191.22 167.99L191.36 182.95L192.1 231.08L192.48 244.6L193.26 273.21L194.24 300.85C189.98 305.73 185.87 310.71 181.29 315.18C173.87 322.39 165.64 334.3 155.47 344.31L150.43 349.28L138.13 361.97C134.04 366.19 122.94 378.25 122.36 382.61C121.51 388.94 125.81 391.02 129.8 393.39C132.83 395.19 135.85 398.09 138.56 400.7C154.14 415.7 148.76 403.43 155.67 409.57C158.73 412.29 162.64 413.04 166.86 412.29C170.06 411.72 171.64 407.1 173.97 404.6L192.23 385.01L196.56 380.37L196.5 396.48L197.08 407.54L198.08 430.33C198.18 432.63 197.97 435.4 198.27 437.81C199.08 444.27 198.23 449.93 197.85 456.63C197.66 459.85 199 464.5 199.36 467.96C199.85 472.73 199.45 477.32 199.6 481.92L200.2 500.57L200.91 524.45L201.85 544.23L202.75 566.95C203.04 574.35 202.07 580.72 203.1 588.22C200.22 588.98 197.33 588.54 194.23 587.73C185.03 585.32 175.5 585.35 166.12 584.57L158.6 583.94L137.38 581.58C133.21 581.12 129.21 581.39 124.85 581.55C122.83 581.63 117.87 580.33 116.6 581.98C105.37 596.52 114.95 588.18 106.46 596.92C95.1 608.62 84.53 618.36 81.67 635.52C77.02 663.36 100.39 662.14 96.16 683.06C95.67 685.46 96.97 690.49 96.19 692.8C88.3 716.04 74.55 722.82 75.39 741.19C75.51 743.84 74.32 748.38 75.08 750.9C81.02 770.77 93.57 772.8 95.97 785.6C97.08 791.53 95.5 798.15 95.45 804.21L95.33 817.97C95.22 829.78 96.33 835.82 103.85 845.79C106.84 849.75 109.4 854.38 114.16 856.8C116.22 857.84 118.08 859.42 119.99 860.62C126.56 864.78 134.72 865.45 142.2 867.63C146.08 868.76 148.19 867.48 151.56 866C157.13 863.56 160.77 861.14 163.81 855.62C166.7 850.39 172.39 847.19 176.86 843.42L186.22 835.54C190.26 832.14 193.74 828.71 197.08 824.54L202.46 821.87C210.86 812.72 215.56 812.55 224.45 803.06C226.93 800.41 228.19 799.88 231.55 799.58C240.96 798.74 249.95 798.02 259.6 797.72C258.69 812.2 262.16 811.3 261.06 819.15C260.54 822.82 260.47 827.65 263.46 830.08C267.11 833.05 272.39 831.92 276.7 832.48C281.46 833.1 285.79 833.62 290.61 833.74L303.57 834.08C307.19 834.17 311.64 833.54 315.59 833.36L322.72 833.03C325.62 832.9 329.41 832.03 332.71 831.4L340.98 829.82L354.74 827.93C357.58 827.54 360.08 826.55 362.98 825.73C365.62 824.99 369.63 825.08 372.72 824.4L382.52 822.23C399.84 818.4 416.81 817.52 433.81 815.65L450.76 813.79C464.98 812.23 479.08 813.08 493.43 813.57L501.59 813.85L524.59 814.65L531.91 830.52L536.95 839.91C541.39 848.18 543.66 855.1 548.49 862.02L560.48 879.2C561.93 881.28 564.6 884.08 566.45 886.04L580.98 901.46C583.49 904.12 585.03 906.05 589.21 906.45C590.85 906.61 593.12 906.77 594.08 906.08C598.64 902.78 593.14 886.74 593.51 877.06C593.84 868.54 593.21 861.32 589.75 853.63L578.7 829.04L573.85 817.13C581.77 817.16 581.69 817.83 592.26 818.07L600.39 818.25L619.81 818.53L638.29 818.95H648.39C654.49 818.97 660.27 818.89 666.48 818.61L684.25 817.83L691.5 817.49L709.28 816.65L720.42 816.21L730.33 816.53L748.2 815.57L764.1 815.53L776.21 815.05L831.76 812.86L860.42 811.63L874.28 810.77L883.06 810.22L895.22 809.47L910.32 808.87L945.58 808.03L966.05 806.91L984.13 805.12L997.95 804.03L1008.28 803.08L1022.62 802.12C1029.54 801.66 1035.99 801.72 1043.17 802C1046.25 802.12 1050.6 801.34 1054.12 801.24L1064.16 800.96C1079.88 800.52 1089.03 798.49 1103.1 798.87C1106.31 798.96 1109.71 798.84 1112.77 798.67L1120.94 798.21L1130.02 797.55L1140.04 796.9L1148.87 796.33L1171.11 794.35C1181.28 793.45 1191.6 792.42 1201.59 790.11C1207.99 788.63 1208.39 777.1 1204.57 773.5L1204.65 765.81L1224.51 773.5L1242.37 781.03L1250.02 784.42L1264.88 791.32L1282.88 800.54C1285.19 801.72 1287.71 803.21 1290.22 803.51L1300.82 804.77L1307.48 798.67C1313.75 792.93 1318.17 785.95 1323.06 779.17C1328.37 771.82 1333.05 760.65 1334.7 751.63C1335.66 746.38 1334.4 742.15 1333.37 737.11L1331.14 726.21L1331.06 726.23ZM1234.85 245.62L1245.91 244.59L1257.05 243.17L1268.24 241.92L1267.35 256.47L1267.73 266.64L1267.24 281.37C1264.96 283.7 1259.81 284.63 1256.15 285.06L1241.5 286.77L1239.55 279.56C1239.18 278.19 1237.69 276.01 1236.49 275.3C1235.22 274.56 1231.67 275.11 1230.88 276.36C1228.34 280.38 1229.06 284.2 1230.61 288.44L1194 293.1C1192.4 288.87 1191.72 282.42 1186.49 282.51C1185.16 282.53 1182.88 285.33 1183.12 286.78L1184.42 294.57L1164.35 297.1C1160.03 297.64 1156.76 297.78 1151.64 297.94L1151.88 288.45C1151.95 285.51 1151.1 283.91 1148.14 283C1146.5 282.5 1143.62 284.55 1143.59 286.79L1143.44 298.73L1131.35 300.2L1120.13 301.33L1108.32 302.46C1107 298.76 1105.94 291.97 1101.58 292C1097.04 292.03 1098.15 299.74 1099.03 303.55L1083.92 305.09L1064.03 307.6C1063.41 304.17 1062 300.12 1059.65 298.42C1058.69 297.72 1055.86 297.61 1054.91 298.01C1053.77 298.49 1052.73 301.14 1052.89 302.37L1053.87 310.03L1047.46 311.39C1041.51 312.65 1036.15 314.29 1030.08 314.86L1026.96 315.16C1025.95 315.26 1024.91 301.16 1018.59 304.49C1014.73 306.52 1016.43 311.83 1018.24 316.45L1011.06 317.33L1002.93 318.61C998.71 306.71 998.86 300.59 994.59 287.03C993.86 284.72 990.13 280.69 992.53 278.11C996.97 275.38 1018.34 273.19 1022.95 273.24C1027 273.28 1028.35 273.55 1032.2 271.67C1036.09 269.77 1042.26 270.67 1046.79 270.05L1064.16 267.66L1077.52 265.91C1089.38 264.35 1090.23 264.71 1101.67 263.42L1119.27 261.44L1132.93 260.08L1145 258.83L1164.01 256.37L1179.16 254.31L1192.88 251.98L1207 249.92C1216.38 248.55 1225.41 246.52 1234.85 245.64V245.62ZM1098.76 534.22C1097.23 530.17 1096.3 527.01 1093.59 523.86L1082.51 510.97L1090.78 504.28C1093.98 501.69 1096.26 496.42 1099.25 493.73C1101.4 491.79 1103.05 490.22 1104.11 487.55C1107.94 477.94 1114.02 483.6 1111.66 472.81C1111.21 470.76 1111.23 468.01 1111.61 466.04C1117.9 462.05 1122.01 455.26 1120.19 447.38L1132 446.1C1132.87 450.22 1133.02 452.81 1133.2 456.3L1134.28 477.77L1136.39 508.15L1137.01 518.39C1137.41 525.07 1137.27 531.56 1138.03 537.97L1140.1 555.29C1140.62 559.68 1139.73 574.36 1141.54 582.88L1095.38 600.09L1098.81 589.35L1103.65 563.55C1105.66 552.81 1102.26 543.53 1098.76 534.23V534.22ZM963.9 550.17L947.4 561.34C943.25 564.15 938.13 565.79 934.26 570.1C933.33 571.14 929.88 572.32 928.73 573.07L923.02 576.85C919.19 573.17 915.49 568.9 913.02 565.09L926.89 553.19L934.12 547.52L942.46 539.88L956.89 527.32L964.78 521.16L982 507.01L998.79 493.08L1009.5 484.9L1015.28 480.34L1022.51 474.75L1031.16 468.37L1044.74 457.1C1055.32 448.32 1052.2 454.85 1061.82 442.43C1065.35 437.87 1069.46 434.71 1074.06 431.28C1078.28 428.14 1088.8 420.4 1093.72 426.91C1096.07 430.02 1109.12 451.59 1106.35 453.24L1097.23 458.67C1094.45 460.32 1090.94 463.27 1088.51 464.46C1084.71 466.31 1081.68 467.5 1078.34 469.75L1066.9 477.44L1049.1 490.47L1030.93 504.25L1019.27 512.58L1004.09 523.31L997.04 528.28L986 536.18L976.74 541.82L963.89 550.18L963.9 550.17ZM960.58 603.88C958.87 609.77 955.46 613.42 950.4 616.81C943.06 621.73 931.29 623.91 928.87 615.8C926.58 608.12 924.65 600.61 920.75 593.33L933.92 584.18L940.63 579.79L959.06 568.14L963.46 565.16C968.35 574.01 963.37 594.26 960.57 603.88H960.58ZM866.1 596.4C862.72 599.33 858.78 602.53 855.76 605.95C843.34 619.99 838.99 619.55 829.85 630.64C828.99 631.68 825.54 632.02 824.42 631.48C817.81 628.28 824.28 616.4 808.61 599.23C798.77 588.44 805.52 596.44 789.17 586.43C788.81 574.93 788.82 564.62 787.87 553.68C787.28 546.81 786.83 540.13 786.86 533.23L786.93 514.35C790.86 503.66 794.95 493.7 796.67 482.55C798.84 468.49 791.65 465.4 800.16 464.91L837.46 462.76L868.22 460.51L882.18 459.53C886.34 459.24 891 458.18 894.92 458.17C898.5 458.16 901.58 458.09 905.15 457.79L925.83 456.08L966.46 453.5L967.64 464.27C968.32 470.5 967.88 476.5 967 482.59C960.16 479.14 954.57 479.69 948.74 481.97C938.55 485.95 928.53 490.23 920.65 497.94L902.61 515.57C898 520.08 895.41 525.78 891 530.54L882.98 539.19C876.28 546.42 866.8 555.95 869.71 567.19L879.68 574.96C871.72 580.09 869.09 588.77 866.09 596.4H866.1ZM867.19 609.82C866.96 610.75 865.5 612.19 864.58 612.75L854.39 619.01L865.24 605.61C866.33 606.71 867.42 608.89 867.19 609.81V609.82ZM783.22 426.61C782.34 419.61 782.8 413.4 782.95 406.58L783.27 392.57C783.64 376.31 781.73 380.76 783.37 366.56C784.06 360.56 783.15 354.03 783.18 347.86L783.3 324.07C783.35 314.05 783.83 304.45 783.09 294.52C782.66 288.68 782.62 283.15 782.69 277.15L814.54 275.97L832.07 275.22L843.22 274.64L858.08 274.39L878.87 273.41L919.92 272.67L939.01 272.3L949.21 271.93C952.84 271.8 956.57 272.2 960.55 272.44C961.15 282.85 962.9 293.03 962.11 303.71L961.39 313.37L961.29 329.62L961.69 341.75L962.66 361.37L964.75 410.58C965.01 416.67 964.78 422.53 965.44 428.56L966.97 442.35L953.11 442.92L934.62 443.81L923.98 444.68L899.54 446.59L885.5 447.77L874.13 448.55L845.11 450.86L837.11 451.29L794.64 454.43L784.05 436.76C782.74 434.57 783.53 429.17 783.21 426.61H783.22ZM989.46 314.8C989.65 319.5 991.57 326.32 994.74 330.14C997.56 333.54 1004.69 332.08 1009.07 331.39L1013.6 338.21C1016.63 340.54 1021.1 339.03 1024.68 338.3C1034.34 336.33 1043.94 336.13 1053.74 335.22L1064.09 334.26L1083.78 331.78L1091.85 330.84L1106.01 329.49C1112.13 328.91 1118.36 325.56 1124.79 328.23C1126.36 328.91 1126.25 332.96 1125.87 334.94C1125 339.41 1126.91 343.65 1127 347.39C1127.15 353.4 1126.69 359.25 1127.23 365.2L1128.33 377.39C1128.86 383.21 1129.72 388.68 1129.86 394.39L1130.21 408.54L1131.12 424.73L1131.56 434.54C1130.95 435.46 1127.69 435.82 1126.62 435.41C1130.03 429.43 1124.23 420.94 1120.51 416.1L1118.74 413.1C1115.9 408.3 1104.72 420.96 1103.37 423.91C1100.57 421.71 1096.74 418.62 1094.32 417.17C1088.11 415.12 1084.1 418.58 1079.96 421.03C1070.95 426.38 1063.22 431.77 1056.09 439.74C1053.5 441.64 1047.67 440.85 1044.18 440.86L1013.15 440.92L1000.9 441.26L982.76 441.82C981.86 436.67 981.51 431.89 981.32 426.5L980.85 413.15L979.83 384.45L978.91 369.49L978.45 356.57C978.01 344.08 977.28 332.13 977.39 319.57L977.54 301.54L978.47 287.62L978.85 270.99L986.4 270.93L984.49 276.71C985.39 295.82 988.56 291.68 989.5 314.8H989.46ZM983.22 465.47L982.4 453.48C986.56 453.03 989.97 452.58 994.15 452.49L1008.98 452.18L1028.58 451.7L1041.73 451.77L1026 464.12L1012.16 474.59C1000.85 483.14 1006.06 481.96 993.77 484.67C991.53 485.17 988.63 486.11 986.32 486.42L982.76 486.9C983.5 479.46 983.7 472.65 983.21 465.48L983.22 465.47ZM977.9 500.76C974.35 504.22 971.07 506.82 967.15 509.57C963.06 512.44 959.52 515.78 955.72 519.03L942.78 530.08C939.54 532.85 936.36 535.55 933.49 538.79C930.68 541.96 927.33 543.08 923.86 545.57L915.88 551.31C909.5 555.9 903.64 559.41 896.38 563.23C898.71 557.14 908.38 549.53 900.39 543.27C899.49 542.56 897.72 540.7 897.94 539.77C898.8 536.15 906.68 526.77 910.61 522.96L918.75 515.05L928.25 506.54L933.55 501.92C937.13 498.8 940.62 497.03 945.54 495.76C948.87 494.9 954.56 490.66 958.09 492.19L977.9 500.76ZM893.05 548.66L890.15 551.51C887.18 554.43 884.73 556.66 880.46 558.56C882.09 553.87 884.84 551.29 888.12 548.18L891.6 544.88C892.19 545.69 893.73 548 893.05 548.66ZM882.75 591.88L889.05 586.54C894.99 589.5 899.8 592.69 904.97 597.14L891.82 607.11C888.19 609.86 884.96 611.95 879.88 613.68C877.11 607.75 872.82 592.62 882.75 591.88ZM900 577.64L905.69 572.34L915.04 582.82C913.93 583.89 910.85 585.68 909.8 584.91L900 577.65V577.64ZM1121.19 180.89C1121.53 180.79 1140.07 177.84 1138.26 180.84C1137.77 184.09 1137.11 188.87 1139.22 191.6C1139.87 192.44 1142.67 192.33 1143.51 191.67C1147.33 188.68 1144.77 186.06 1148.28 179.67C1151.78 179.41 1164.67 182.74 1165.53 185.79C1168.78 186.06 1172.33 186.91 1175.25 189.33L1170.81 195.92C1170.03 197.08 1169.9 200.16 1170.72 201.21C1171.64 202.39 1175.52 202.67 1176.53 201.43L1182.45 194.14C1194.05 204.6 1188.21 196.57 1196.87 209.58L1200.41 214.9C1199.29 216.57 1197.98 219.54 1198.16 221.26C1198.25 222.16 1200.74 224.13 1201.49 223.64L1205.82 220.87C1208.03 223.45 1210.84 227.33 1212.9 230.79L1215.54 235.21C1206.42 235.78 1201.82 237.95 1190.98 239.03L1183.6 239.76C1178.57 240.26 1174.1 240.88 1168.81 241.8C1161.54 243.07 1161.81 232.52 1155.14 229.88C1144.88 225.81 1134.39 224.82 1123.92 227.68C1111.27 228.33 1099.17 234.06 1093.49 246.05L1092.49 253.33C1072.92 253.77 1054.3 256.63 1035.92 262.1C1035.16 257.29 1041.97 241.33 1043.94 238.67L1049.91 230.61C1053.22 232.59 1058.22 233.3 1060.05 231.25C1060.86 230.34 1060.67 226.84 1059.7 226.33L1054.14 223.44L1059.6 217.36C1062.57 214.05 1065.42 211.08 1068.92 207.97C1071.45 208.66 1074.64 217.52 1078.45 214.55C1084.73 209.64 1076.71 203.02 1076.71 201.31C1076.71 200.53 1078.09 199 1078.89 198.55L1097.74 188.04L1104.31 197.01C1105.12 198.12 1108.95 198.67 1110.1 197.98C1111.41 197.2 1112.56 193.58 1111.83 192.14L1108.05 184.65L1121.21 180.88L1121.19 180.89ZM1076.81 79.7802C1079.19 74.5802 1078.12 67.8902 1079.69 61.4302L1088.02 60.8302L1108.4 59.5002L1110.72 90.2702C1110.98 93.7602 1111.63 97.6202 1111.39 101.24C1110.7 111.7 1111.89 106.8 1112.4 119.12L1113.75 151.75L1114.51 167.98C1104.22 171.09 1093.89 170.16 1085.14 175.23L1067.53 185.44C1065.27 186.75 1062.21 190.74 1060.03 192.61L1047.05 203.76C1040.38 209.49 1036.24 216.31 1031.91 223.72C1028.59 229.41 1024.84 234.4 1023.43 241.1C1022.47 245.64 1021.16 250.2 1018.4 254.31C1017.11 256.22 1011.38 255.16 1009.11 255.34L997.34 256.29L977.7 257.85C976.65 254.22 976.53 251.12 977.26 247.17C977.66 245 976.02 241.03 975.98 238.78C975.93 235.96 976.48 232.58 975.78 229.64C972.6 216.35 976.3 223.26 974.79 205.57L973.58 191.33L971.58 169.95L977.8 161.46C980.21 158.17 983.12 154.77 985.62 151.76C989.67 154.99 997.17 165.12 1001.74 158.92C1006.75 152.12 995.52 145.75 991.29 140.84C998.53 129.12 995.53 130.49 1003.9 117.64C1009.5 109.05 1011.59 121.69 1034.74 115.25C1037.27 114.55 1042.14 114.87 1044.23 113.91L1052.54 110.07C1061.89 105.75 1068.65 97.6302 1072.97 88.2102L1076.83 79.7802H1076.81ZM1062.64 11.2102C1063.56 10.3102 1065.91 9.2202 1067.01 9.5802C1068.29 10.0002 1070.68 13.0302 1069.64 14.2302L1060.08 25.2402L1055.2 18.4402L1062.64 11.2102ZM1000.76 21.6902C1011 16.3202 1023.42 20.1902 1032.2 21.0202C1039.23 21.6802 1044.29 23.8002 1049.91 27.6602C1061.26 35.4602 1057.33 35.9802 1059.46 51.0802C1061.21 63.5002 1057.02 76.7902 1047.8 85.5602C1040.76 92.2502 1020.76 97.2502 1010.88 91.2602L1018.89 80.1802L1030.31 81.4202C1037.63 82.2202 1043.7 76.1702 1048.11 70.5402C1050.53 67.4502 1050.8 64.1502 1051.57 61.0002C1053.4 53.5202 1053.08 46.9302 1048.75 40.1202C1047.21 37.6902 1045.14 33.1202 1042.11 32.2402C1034.19 29.9302 1027.01 27.5702 1018.87 26.3902C1011.26 25.2802 1002.31 31.1602 999.22 37.7702C996.28 44.0402 997.08 50.6602 997.37 57.3402L988.89 59.5102C987.74 59.8002 984.39 61.1602 984.28 59.9802C982.98 46.0002 988.07 28.3602 1000.76 21.7102V21.6902ZM1027 43.4302C1020.38 43.6202 1014.73 44.4202 1008.25 43.8802C1010.81 39.7802 1014.38 34.9302 1018.85 34.1202C1026.7 32.6902 1034.79 36.3302 1038.65 43.0902L1027 43.4302ZM1037.17 64.0202L1030.04 68.4202C1028.8 69.9102 1027.97 71.2302 1027.1 71.7402C1026.06 72.3502 1022.84 71.6702 1022.1 70.6502L1018.16 65.2002C1026.14 60.8102 1023.95 65.9002 1037.16 64.0102L1037.17 64.0202ZM973.49 79.4102C982.92 74.3902 992.05 69.0102 1002.33 65.8802L1008.54 72.9902L1002.3 84.8902C998.33 92.4602 993.65 99.0402 988.22 105.82L977.08 119.76C972.4 125.61 967.39 130.06 961.38 139.07L951.72 153.56L945.83 162.58L943.05 158C945.67 153.65 948.89 149.1 951.97 144.65L959.23 134.17C963.31 128.28 977.44 102.72 979.82 100.07C982.04 97.6002 985.23 93.2802 981.66 91.2002C973.68 90.2802 944.74 101.22 936.93 104.74L920.88 111.98L909.94 116.67C908.66 117.22 906.04 118.02 904.84 117.99C903.6 117.97 900.05 113.86 899.98 111.4C899.96 110.62 901.5 109.25 902.41 108.87L924.02 99.8402L946.09 91.0102L953.64 87.9902C956.55 86.8302 959.01 86.0402 961.59 84.2402C964.98 81.8602 969.9 81.3202 973.49 79.4102ZM904.7 188.72L915.29 179.07L928.9 192.42C927.02 195.7 924.37 198.88 921.13 202.04L904.7 188.72ZM915.58 205.94C910.63 210.54 906.27 214.08 900.44 217.26C897.78 218.71 894.94 216.91 892.64 215.03C889.48 212.44 885.55 206.66 889.4 202.52C892.99 198.67 897.49 195.26 901.89 191.38L910.57 201.47C911.61 202.68 913.7 204.15 915.58 205.93V205.94ZM923.9 178.86C922.98 178.11 920.16 177.2 919.77 175.82L933.81 163.81C935.47 162.39 939.62 165.03 941.37 166.24C943.4 167.65 943.88 172.65 942.37 174.87L934.03 187.12L923.91 178.87L923.9 178.86ZM771.35 80.0402L792.06 78.2202L805.85 77.3802L814.24 76.9602L844.82 74.9802L866.34 73.5902C870.79 73.3002 875.3 74.0202 880.18 72.8102C884.07 71.8402 887.73 71.9202 891.49 71.8302L910.18 71.3602C919.38 71.1302 927.08 69.9002 939.06 69.3802L952.08 68.8102L955.93 68.6402C956.96 68.5902 957.2 73.0302 956.18 73.8902C951.23 78.0802 941.53 83.7002 934.7 86.9502C926.11 79.9602 920.92 71.3602 911.79 74.9802C910.47 75.5002 909.24 79.5002 910.32 80.4902L922.96 92.1102C921.26 93.1602 919.34 94.4702 917.73 95.2802L901.68 103.35C891.06 108.69 889.33 103.84 880.07 109.45C875.17 112.42 871 114.61 865.59 116.34L861.73 119.33C855.92 121.71 850.68 124.48 845.74 128.09L836.35 134.95C830.33 139.35 825.96 145.82 827.13 153.68C824.37 156.01 821.55 158.27 819.36 160.69L810.58 170.39C809.04 172.1 806.85 176.01 807.84 177.61C810.68 179.34 811.73 181.65 811.91 184.47C817.98 188.04 827.71 184.4 831.51 177.85C838.7 182.68 857.37 183.88 863.35 180.22L876.76 172.04C879.77 170.2 883.67 167.38 886.42 165.04L898.2 154.99C903.28 150.66 905.9 146.03 908.98 140.13C910.93 137.48 918.02 135.64 921.2 136.34C922.42 136.61 924.65 139.55 925.89 139.37C927.12 139.19 929.16 138.45 930.69 137.69L950.27 127.86L935.16 148.07C933.65 150.09 932.28 153.85 931.51 156.21C927.7 156.93 924.17 158.25 921.17 160.81C912.19 168.48 910.45 168.67 900.68 177.34C896.16 181.35 891.4 185.38 886.61 189.12C883.3 191.71 879.96 193.15 877.68 197.42C874.2 203.96 875.88 211.69 878.87 218.14L872.45 226.21C868.97 230.58 865.54 235.45 862.94 240.78C865.66 244.54 871.28 242.92 873.48 240.07C874.58 242.9 877.03 244.54 880.19 243.17C888.94 239.36 895.45 247.72 908.96 237.69L914.79 233.36C921 228.75 926.19 223.8 931.7 218.25C937.02 212.89 940.05 213.03 946.4 203.89C949.43 199.52 953.05 195.74 957.11 191.48L958.03 228.77L959.05 244.47L959.67 258.62L945.73 258.82L934.02 259.34C924.71 259.75 915.6 259.08 906.24 259.46L894.49 259.94L873.43 260.39L847.19 261.71L826.41 262.54C820.29 262.78 814.6 263.39 808.54 263.29C795.14 263.08 793.44 264.68 782.4 264.25C783.13 246.85 781.64 243.72 781.66 227.58L781.68 213.72L780.92 197.74L779.85 173.97C779.65 169.52 779.5 165.28 779.09 160.8L777.99 148.77L775.4 121.8L773.51 106.9L770.98 85.4302C770.83 84.1402 771.08 82.1302 771.32 80.0702L771.35 80.0402ZM852.68 137.65L863.02 130.53C871.17 124.92 869.56 135.03 877.76 141.34L865.75 148.1L852.68 137.65ZM856.44 152.39C851.84 154.07 846.38 156.02 841.18 156.57C838.2 156.88 836.12 150.5 837.82 148.6C840.81 145.27 844.32 142.55 847.92 140.31L856.43 152.39H856.44ZM873.2 125.05C879.83 122.72 887.95 113.21 892.34 114.04C894.88 114.52 898.96 121.31 899.01 123.21C899.05 124.48 897.05 126.56 896.03 127.49L885.39 137.21C882.94 135.07 880.05 131.35 877.86 128.01L873.19 125.05H873.2ZM767.26 302.97L767.3 337.42C767.3 344.72 765.75 352 767.33 359.34C768.21 363.43 767.16 367.43 767.1 371.57L766.67 402L765.96 422.75C741.63 412.73 713.94 415.83 693.16 431.35C689.82 433.85 687.93 438.07 685.8 441.1C682.61 445.65 678.08 449.79 675.33 454.22C671.7 460.06 668.16 461.23 661.11 461.61L638.09 462.86L621.25 463.57C616.91 463.75 612.66 464.59 607.74 465.14C604.63 455.56 605.45 446.21 604.73 436.45C604.44 432.49 603.84 428.36 603.74 423.9L603.39 408.69L602.9 399.45L601.52 374.65L600.3 350.5L599.12 340.26L598.86 318.23C598.79 312.41 598.33 306.62 597.94 300.64L596.66 281.02C600.23 280.26 604.97 280.32 609.27 280.46L621.06 280.84L629.06 280.33C631.78 280.16 633.81 280.45 636.47 280.3C651.78 279.48 657.13 280.57 670.89 280.42L697.54 280.13L729.72 279.7L741.51 279.26L766.74 278.16L767.06 287.67L767.26 302.98V302.97ZM658.72 472.6L651.74 479.69L640.99 490.2C632.65 498.35 621.07 506.61 608.85 504.07L608.36 489.27L607.23 474.93L624.55 473.85L658.73 472.6H658.72ZM586 92.0902C586.97 90.2802 591.87 90.9302 594.36 90.7502L616.99 89.0402L629.53 88.3502L658.16 86.6802L669.31 85.8602L696.16 84.3702C698.62 84.2302 701.02 83.4702 703.76 83.4002L719.82 83.0202C723.44 82.9302 726.65 82.0702 730.28 81.9102L749.26 81.1102C752.97 80.9502 756.35 80.5702 760.72 80.0102L761.26 109.85C761.33 113.73 761.94 117.96 762.39 121.81C763.34 129.94 763.42 137.55 763.88 145.73L764.93 164.47L766.11 205.32L766.65 220.72V237.32L767 264.36C762.54 265.46 757.56 266.03 752.57 266.14L742.37 266.35L728.23 266.88L716.24 267.6L617.33 268.18C613.04 268.21 608.53 269.16 604.72 268.85L596.67 268.19L596.21 242.66L595.11 222.68L594.51 210.49L594.02 197.6C593.67 188.5 591.65 179.06 592.66 172.55C593.62 166.34 591.79 160.06 591.46 153.8L590.83 141.76L589.73 125.78L588.43 114.73L585.97 100.49C585.64 98.6102 585.92 94.9002 585.98 92.0602L586 92.0902ZM593.23 487.27L592.76 498.9C585.91 495.43 580.72 492.58 575.85 487.72L565.92 477.81L576.27 477.09L591.24 476.25C592.45 480.12 593.37 483.93 593.23 487.26V487.27ZM585.63 338.64L586.52 356.19C586.58 357.36 586.05 360.1 586.24 361.36C587.15 367.38 587.37 372.59 587.26 378.55C587.13 385 587.59 391.17 587.89 397.52L588.91 418.93L589.76 435.05C590.2 443.32 590.27 451.43 591.25 459.77C591.43 461.34 593.01 465.24 590.56 465.44L572.68 466.88L561.14 467.76L558.62 456.1C557.49 450.89 556.73 446.56 558 441.09C563.57 416.91 563.22 433.69 572.28 413.08C577.14 402.03 582.56 391.51 581.33 378.32C581.06 375.4 580.31 370.21 579.23 367.73L573.09 353.65C571.46 349.92 567.5 346.33 564.55 343.37L555.69 334.47C553.4 332.17 550.7 330.59 548.09 328.71C540.64 323.33 534.45 315.95 524.75 314.08C496.25 308.57 504.14 311.86 479.69 311.3L466.4 311C457.73 310.8 453.89 309.44 448.58 303.58C445.49 300.16 442.57 297.55 441.44 291.98L466.76 289.05L479.55 287.89L503.32 285.48L521.29 283.84L538.3 282.51L552.38 281.78L568.91 281.13L581.65 280.54C582.96 285.64 584.11 291.95 584.3 297.65L585.62 338.66L585.63 338.64ZM432.71 100.64L451.25 99.4302L465.1 98.3702L475.52 97.6602L487.43 97.3802L503.43 96.3202C510.6 95.8502 517.1 94.9602 524.4 95.4302C528.05 95.6702 532.05 94.7102 535.47 94.4702L548.62 93.5302L560.21 92.5902L577.55 91.3002L577.28 100.05L577.02 110.86L576.6 136.22C576.48 143.41 576.06 150.57 576.66 157.67C577.21 164.28 576.89 170.37 577.03 176.9L577.4 193.75C577.53 199.81 576.63 207.45 578.45 212.92C582.42 224.88 582.12 230.9 581.92 244.11L581.79 252.65L581.2 269.17L560.41 269.53C558.11 269.57 554.85 270.51 552.47 270.47C544.47 270.31 537.27 271 529.36 271.72L514.41 273.09L496.88 274.7L479.71 276.95L467.86 278.16L442.39 280.6L446.2 260.75C446.57 258.8 445.74 254.52 445.64 252.29C445.37 245.7 444.35 238.7 441.74 232.66C440.01 228.64 434.71 226.49 431.23 224.91C423.17 221.24 415.35 221.29 406.89 221.97L396.67 222.79C396.48 217.42 396.47 210.76 395.94 205.18L393.74 181.68L391.27 156.89C391 154.18 388.34 148.51 389.99 146.53L397.6 137.82C406.43 127.72 408.58 117.62 407.01 103.17C415.2 100.64 424.34 101.19 432.72 100.64H432.71ZM319.86 138.5L325.21 125.32C326.03 123.3 326.72 111.94 326.84 107.65L352.54 105.71L366.55 104.65L382.53 103.56L393.4 103.1L401.66 102.75L399.76 113.73C399.17 117.14 396.93 122.9 395.32 125.76L385.41 136.58C380.77 141.65 375.88 145.66 371.62 151.02C367.46 156.26 363.35 160.9 361.43 167.63C359.96 172.79 358.03 178.3 357.38 183.72C355.77 197.18 357.1 210.68 364.03 222.17C376.65 234.27 380.05 237.23 398.3 235.77L404.71 235.26C410.89 234.77 417.65 234.28 423.52 235.44C429.87 236.69 431.73 241.21 432.29 246.79C432.81 252.06 434.07 257.81 432.41 262.78L429.17 272.48C426.73 265.45 414.01 258.45 409.36 257.98C378.58 254.92 378.66 261.15 359.04 261.36C357.89 261.37 354.87 259.63 354.71 258.58C355.43 253.97 355.25 247.02 353.8 242.98C346.3 241.13 354.79 237.61 345.82 218.79C336.81 199.89 346.3 212.15 331.74 192.5C327.14 186.29 321.97 181.51 314.65 178.71C310.23 166.77 315.3 149.67 319.84 138.5H319.86ZM384.18 222.08C359.21 209.63 363.84 167.21 381.77 154.67L382.73 171.37L383.5 191.76C383.89 202.16 385.33 211.26 384.19 222.08H384.18ZM442.31 412.1C441.96 409.7 440.54 406.76 439.89 404.51C437.81 397.26 434.26 393.24 427.19 390.7C415.26 386.42 411.25 393.72 406.36 390.96C406.24 384.12 406.04 377.64 405.53 371.4C404.72 361.32 404.76 351.29 404.63 340.95C404.39 322.5 401.33 314.82 402.35 294.7L417.77 293.72C416.04 301.32 417.56 306.73 420.22 312.86C420.75 315.93 420.91 321.07 422.57 323.4C424.61 326.25 426.8 330.06 428.87 332.07L442.08 344.91C449.76 352.37 458.33 355.42 469.43 356.59L494.03 359.19C502.13 360.05 519.19 364.34 524.35 370.69L530.48 378.22C534.06 382.62 534.14 387.22 535.25 392.14C536.89 399.41 536.34 404.14 531.92 410.51C529.24 414.38 527.66 420.79 524.97 425.14C517.98 436.41 514.15 448.36 513.7 461.61L513.38 471.14L499.03 472.31C495.7 472.58 492.68 473.05 489.44 473.25L475.39 474.14L462.06 475.34C454.51 476.02 448.35 475.87 439.78 477.84C438.9 474.59 439.05 470.38 438.97 466.5C438.59 448.2 440.02 450.39 442.08 432.55C442.89 425.56 443.34 419.1 442.31 412.09V412.1ZM416.56 474.23C418.63 479.7 418.63 486.41 417.5 492.28C411.17 499.81 410.87 502.7 398.33 501.67C394.53 498.23 396.38 490.57 399.8 488.24L409.48 490.84C412.54 487.24 412.23 481.35 407.99 478.9C405.25 477.32 399.77 475.34 396.58 475.87C392.38 476.57 389.25 480.73 385.93 483.01C386.44 478.91 387.06 474.73 387.91 470.87L389.31 464.46L392.46 449.42C393.6 443.95 395.12 438.26 396.62 433.68C396.06 435.34 409.36 442.57 408.62 442.26C413.88 444.46 419.53 442.91 425.42 442.36L423.48 458.68L422.27 468.73L407.32 462.91C406.13 462.45 403.24 464.69 403.24 465.91C403.25 471.41 414.31 468.3 416.55 474.22L416.56 474.23ZM353.93 483.95C357.4 486.19 355.41 491.15 352.72 493.05C348.35 496.15 344.61 496.19 339.94 494.8C336.28 493.71 333.04 491.53 332.76 486.77C332.56 483.45 334.04 478.54 335.5 475.57L338.34 473.57C339.12 473.02 338.27 469.77 337.95 469.78L328.65 474.22V456.34C328.66 453.13 329.38 449.2 330.12 446.47C335.44 447.52 341.06 449.06 345.47 447.73L360.62 443.18C362.02 450.43 363.39 456.85 363.52 463.56L363.71 473.07L364.02 479.86C361.72 477.47 359.42 475.88 356.38 474.43C351.18 471.96 347.12 473.05 342.84 477.03C341.5 478.28 340.32 480.12 340.14 481.94C339.4 489.56 350.06 481.46 353.92 483.96L353.93 483.95ZM346.65 413.55C350.53 414.64 354.94 421.82 355.4 423.7L357.95 434C349.68 437.62 340.97 439.98 331.81 437.05C330.76 429.03 339.7 411.58 346.65 413.54V413.55ZM347.16 400.92C343.59 400.84 337.92 401.41 335.54 403.4C325.73 411.59 321.48 422.95 319.48 434.76L317 449.4C316.02 455.18 314.93 463.87 316.23 469.05C316.36 469.55 315.22 471.66 314.93 471.31C314.52 470.82 313.36 469.36 313.09 468.8L306.02 454.14C302.14 446.1 297.55 439.29 290.11 433.92C283.7 429.3 273.9 428.36 269.31 436.45C263.83 446.13 262.55 457.61 263.4 468.73L264.29 480.4L265.45 493.58C261.94 494.2 258.05 494.11 254.39 493.6L249.33 495.89C248.84 496.11 247.35 494.72 246.99 495.09L245.07 497.02C242.91 494.15 238.15 493.12 235.58 496.17L234.86 500.84L230.11 496.81L228.6 498.12C228.06 498.58 226.64 498.22 225.37 498.05C223.67 499.42 224.55 506.16 227.41 505.84C232.15 505.31 236.11 504.92 240.75 505.78C241.82 505.98 243.5 506.7 243.94 506.08L246.58 502.43L249.23 505.52C249.9 506.3 252.17 506 253.43 506.08C257.92 506.38 260.33 507.92 265.31 502.83L266.6 510.42L267.95 518.68L270.52 533.75L274.18 552.44C274.81 555.63 275.84 558.72 276.66 561.75L280.39 575.58C287.39 601.54 284.82 584.24 290.65 602.32C291.75 605.73 294.02 609.12 296.89 613.1C295.42 613.35 292.43 612.6 289.8 612L270.73 607.68L246.12 601.34L230.02 597.08C228.4 596.65 224.36 595.28 224.19 593.7C223.62 588.42 223.15 581.73 223.1 576.31L222.98 565.34L222.74 554.45L221.8 535.31L221.31 519.71L220.67 504.21C220.62 502.9 221.02 499.88 221.11 498.49C220.19 492.94 220.29 488.05 220.01 482.42L218.57 453.99L218.21 438.33L217.69 427.14L217.39 415.78L216.43 400.35C216.04 394.02 216.57 387.81 216.13 381.47C215.87 377.72 214.85 361.21 216.27 359.4L235.83 334.48C254.95 339.63 259.87 324.74 266.41 320.35C272.93 315.98 281.53 326.53 311.98 313.1C316.76 311 321.65 309.2 325.6 305.75L331.57 300.53C338.73 298.42 348.69 297.63 356.32 297.46L364.16 297.28L386.92 295.23C389.45 302.96 387.61 314.74 388.42 326.5C388.67 330.09 389.46 333.86 389.44 337.48L389.31 360.58C389.27 367.46 390.92 374.58 390.46 381.15C390.18 385.17 389.82 388.81 389.79 393.22C389.76 397.98 392.13 404.49 389.85 408.91C387.65 413.18 385.09 417.27 383.96 422.06C381.95 430.54 379.91 438.16 376.89 446.88C373.29 442.92 373.39 438.39 372.12 433.7L368.62 420.77C367.2 415.53 356.37 401.05 347.15 400.84L347.16 400.92ZM273.99 473.99C288.48 471.79 285.46 468.63 298.44 465.88L304.76 483.94C297.35 480.93 291.43 480.83 285.56 484.6L275.69 490.94L274.28 483.6C273.72 480.68 273.69 476.87 273.99 473.98V473.99ZM271.98 465.52L272.42 455.37C272.65 449.9 272.5 442.99 277.48 439.31C282.1 435.89 291.64 450.25 292.86 454.88C288.37 457.61 276.76 464.45 271.99 465.52H271.98ZM228.2 234.64C234.78 213.92 232.5 213.55 247.9 198.97C256.02 191.28 264.59 186.92 275.56 183.48C279.77 182.16 284.69 184.21 289.08 185.22C292.82 186.08 297.56 185.97 301.63 187.32C309.01 189.77 316.42 194.78 322.05 200.12C335.28 212.67 340.19 232.49 334.7 249.68L330.13 263.97C328.93 267.72 326.57 270.32 323.99 273.08C318.96 278.44 314.39 283.7 308.05 287.32C291.19 296.94 272.14 299.69 254.47 290.75C248.46 287.71 243.74 283.01 238.61 278.36C234.74 274.84 233.18 268.82 231.09 264.04C228.7 258.58 228.24 253.2 227.49 247.23C226.94 242.8 226.76 239.13 228.19 234.65L228.2 234.64ZM343.21 289.54L350.85 274.29C356.71 276.14 363.91 276.35 370.46 275.31L386.75 272.72L386.88 285.7L375.47 286.58L361.46 287.76L343.21 289.54ZM397.86 424.64C408.72 407.6 403.42 414.9 414.19 404.95C415.58 403.67 419.09 403.48 421.2 404.28C422.79 404.88 424.66 407.2 425.34 409.4C429.06 421.55 428.16 415.81 427.15 428.33C413.07 431.61 411.12 429.7 397.86 424.64ZM400.93 271.25C406.92 272.49 410.4 273.32 415.45 274.9C417.87 275.66 418.53 282.54 416.31 282.9L407.19 284.36C405.85 284.57 403.66 284.25 401.23 284.11L400.94 271.26L400.93 271.25ZM202.99 118.69L208.84 117.09C212.25 114.53 215.44 113.96 219.64 114.31C229.03 115.08 233.12 112.96 243.71 112.65C247.99 112.53 266.68 111.92 269.29 111.41C276.27 110.04 282.34 110.27 289.34 109.76L299.5 109.03C303.28 108.76 307.33 108.87 311.29 109.09C311.86 113.89 312.5 119.16 311.25 123.29C308.68 131.79 306.39 139.18 304.44 147.83C303.93 150.11 304.53 154.02 304.16 156.62C303.31 162.52 303.8 167.42 304.74 174.02L287.56 171.79L278.41 170.87C269.78 170 261.73 174.01 253.83 176.54C249.27 178 246.72 180.51 243.33 183.27C238.55 187.16 235.08 190.82 231.94 196.51C230.78 198.61 227.86 201.42 226.7 203.92C224.1 209.55 222.22 215.27 219.17 220.41C214.05 229.04 212.29 238.1 211.11 247.85C210.58 244.76 209.98 241.41 209.81 238.21L209.01 222.9L208.57 214.64L206.58 177.65L205.48 161.7L204.49 148.76L203.23 134.8C202.73 129.29 202.43 124.38 202.96 118.7L202.99 118.69ZM210.42 257.82C209.83 254.94 210.29 251.17 210.97 248.62L213.34 264.51C213.46 265.32 212.52 266.6 211.92 266.78C210.14 267.32 211.82 264.63 210.42 257.82ZM200.51 340.56C196.68 343.9 193.64 347.64 190.4 351.56C182.27 361.37 184.58 357.02 176.31 366.24L158.56 386.02L148.45 396.67L137.79 387.97C136.06 386.56 133.48 385.28 131.01 383.77C135.38 378.26 138.84 373.68 143.06 368.96C144.73 367.1 147.46 365.04 149.3 363.16L161.12 351.09C166.52 345.57 171.03 339.8 176 334.04L197.31 309.35L205.06 300.81C206.82 301.13 208.66 303.42 210.28 304.97L221.59 315.71C218.56 319.78 215.24 323.2 212 327.01L200.5 340.55L200.51 340.56ZM373.94 772.33L361.57 772.76L345.43 773.41L335.57 773.82L319.67 774.49L310.51 774.92L287.11 776.14L276.67 776.69C273.33 776.87 269.29 776.21 266.16 776.96C263.05 777.7 261.08 777.93 258 776.27C260.65 772.3 263.66 769.79 267.83 767.29C281.59 759.06 286.67 750.69 296.93 742.64L307.01 734.72L322.54 721.09L330.45 714.09L341.16 704.67L354.89 691.34C358.4 693.33 361.73 694.61 365.11 693.99L395.66 688.37C399.36 692.42 396.35 698.51 396.87 703.11C397.74 710.66 397.88 716.93 397.13 724.47C396.77 728.14 398.45 750.1 398.5 754.16L398.73 770.69L373.93 772.36L373.94 772.33ZM369.74 678.14L380.67 664.06C379.86 662.06 376.43 661.72 374.69 662.8C373.39 663.6 371.93 665.72 370.45 667.22C366 671.74 360.42 675.09 355.15 678.81C350.87 681.84 347.07 685.36 342.97 688.58L337.41 692.94L328.8 699.53L307.38 715.26L290.88 728.31L277.22 739.05C272.38 742.85 268.34 746.59 262.93 749.52C255.39 753.6 249.84 760.63 242.93 765.26C237.84 768.67 233.16 771.86 228.34 775.78L220.6 782.07C217.9 784.26 214.65 786.43 212.25 788.82C201.82 799.19 188.47 806.68 176.19 817.61L168.21 824.71L156.15 835.4L141.21 848.32C126.56 846.01 119.39 842.62 114.18 827.42C112.53 822.61 111.37 818.46 111.9 813.02L113.34 798.18C113.69 794.63 112.8 780.51 111.26 777.74C108.92 773.57 106.8 768.11 104.05 764.92C100.07 760.29 95.33 758.06 92.73 751.95C91.65 749.42 91.71 745.32 91.35 742.49C90.18 733.25 94.4 727.99 98.36 720.98L105.6 708.17C107.43 704.93 110.02 699.2 110.27 695.52L111.47 677.48C111.67 674.44 109.75 668.72 108.67 666.12C102.23 650.63 95.43 652.67 94.73 641.77C94.5 638.2 94.75 635.51 95.88 632.07C100.3 618.58 100.94 618.34 109.14 607.8C111.25 605.09 114.17 600.02 117.1 598.98L133.38 598.78C139.74 598.7 146.02 598.9 152.33 599.55L161.77 600.53L171.98 600.89L190.67 602.37C197.72 602.93 204.25 604.07 211.04 605.64L229.01 609.82L238.59 611.8L273.54 618.46C281.58 619.99 289.31 619.87 297.33 620.93L310.52 622.67L316.71 622.38L323.28 623.35L326.68 623.85C327.46 623.97 328.63 621.56 328.05 621.18C326.08 620.58 323.43 619.69 321.86 619.37L314.16 617.77L299.71 613.93C299.92 608.85 298.85 605.51 297.71 601.57L291.19 578.99C287.38 565.8 290.5 565.9 287.87 555.52L283.76 539.28L282.84 532.71C282.11 527.43 275.84 505.65 277.82 499.63C280.29 492.14 294.91 487.45 300.87 492.82L303.42 501.81C304.85 506.85 302.27 510.39 298.76 512.2C297.58 512.81 294.02 511.94 293.34 510.73C291.39 507.25 291.45 501.34 293.05 497.6C292.59 496.05 288.45 494.98 286.96 495.8C278.29 500.63 283.05 516.68 289.57 520.16C297.21 524.24 306.91 519.64 312.05 511.56C313.39 513.96 313.81 517.23 314.61 520.32C316.28 526.8 318.35 532.9 320.51 539.25C321.67 542.66 325.66 544.85 328.82 544.19C331.3 543.67 335.29 539.95 334.83 536.44L330.24 501.41C347.7 509.16 352.64 504.82 363.93 494.03C364.74 497.12 364.59 500.02 364.56 503.4L364.44 517.54C364.38 525.14 366.21 541.96 377.36 540.57C379.48 539.31 383.12 534.86 383.14 532.43L383.29 512.35C383.31 510.05 384.1 507.54 384.92 505.65L388.59 510.08C395.65 515.78 412.16 513.1 416.89 507.02L418.03 505.56C418.36 505.14 420.01 506.11 419.78 506.85C417.69 513.55 417.32 524.01 416.8 531.2L416.12 540.55L415.12 554.39C414.63 561.14 412.66 567.39 412.5 574.39C412.43 577.39 411.57 579.67 410.5 582.61C407.82 589.97 407.73 599.74 408.08 607.1C413.74 612.12 420.08 606.39 424.84 606.22C438.24 605.76 451.35 608.36 464.66 609.72L471.72 610.44C477.95 611.07 484.09 610.82 490.39 612.17L515.78 617.62C509.73 626.58 507.63 635.62 509.71 646.76C506.62 648.14 503.01 649.06 499.47 649.37L491.64 650.06C496.52 643.17 496.15 634.41 493.52 627.13C487.46 619.4 482.83 619.6 472.55 619.02C466.68 618.69 463.21 620.64 458.86 623.99C451.61 629.56 447.5 639.75 454.06 648.18C455.5 650.03 466.39 655.24 471.55 650.01C472.66 648.89 473.96 644.99 472.88 643.86C468.87 639.67 461.67 643.9 460.76 640.44C460.48 639.36 461.32 637.11 462.01 636.23C469.82 626.33 482.2 634.67 482.15 634.61C484.9 638.24 485.29 644.01 482.91 648.07C477.58 657.17 468.78 656.3 462.58 657.95L447.45 661.99C444.3 662.83 441.39 662.78 438.37 663.45L409.57 669.92C394.04 673.41 385.91 678.09 369.75 678.22L369.74 678.14ZM558.97 851.1C558.77 851.95 556.42 853.1 555.46 852.6C553.48 851.56 551.67 847.08 550.5 844.29C548.63 839.82 546.41 835.87 544.34 832.05L535.96 816.51L529.48 803.88L524.03 794.45C522.34 791.52 520.98 787.72 519.24 784.95C506.58 764.75 512.65 769.09 504.37 749.29L500.09 739.05L494.62 725.72C494.15 724.58 493.17 722.12 493.48 721.11C493.84 719.92 496.47 718.67 497.62 718.55L504.98 736.6C508.72 745.78 511.52 755.11 516.39 764.06C518.49 767.92 519.72 772.21 521.45 776.27C526.52 788.14 531.63 799.66 537.61 811.04C539.42 814.48 541.04 817.48 542.66 820.99C548.85 834.36 549.98 831.19 552.61 838.95C555.58 847.72 559.94 846.87 558.95 851.1H558.97ZM504.21 714.48L513.81 708.47L528.87 744.56L540.69 771.72L545.7 783.92L557.07 812.16C559.65 818.58 563.05 824.35 565.64 830.66L571.38 844.61L566.55 846.44C564.35 836.49 559.24 829.9 554.71 821.72L544.06 802.49C541.37 797.63 539 792.37 536.61 787.47L529.95 773.81L519.22 752.28C511.57 736.93 511.91 729.77 504.2 714.47L504.21 714.48ZM574.24 850.22L581.75 868.65L581.14 877.28C577.84 879.71 575.47 878.46 573.12 876.37L566.92 870.85C564.84 866.8 562.98 863.87 559.96 859.77L574.24 850.22ZM589.16 761.96L576.29 762.48L567.32 762.7C564.73 762.76 562.65 763 559.34 763.25L554.51 748.63L551.63 739.75C550.56 736.44 547.8 734.11 546.11 731.44C542.88 726.33 542.19 719.56 537.63 714.58C535.45 712.2 529.79 712.46 526.8 712.93C524.26 707.23 519.09 693.67 510.61 698.39C504.15 701.98 498.11 704.63 491.65 707.65L481.46 712.42C479.98 718.11 480.37 723.77 482.68 728.74L493.06 751.09L500.04 766.62C482.54 766.24 483.91 768 467.35 767.46C464.31 767.36 459.87 768.24 456.51 768.45L436.41 769.72C430.45 770.1 424.81 770.13 418.89 769.81L415.36 769.62C414.44 769.57 414.88 766.92 415.03 765.84C416.03 758.56 415.43 751.62 414.5 744.16C414.03 740.37 414.84 735.92 414.77 732.32L414.48 715.85L414.36 684.02L437.08 680.61L443.21 679.54C455.2 677.45 460.46 675.72 474.06 673.27C488.12 670.74 490.58 668.66 508.56 666.09C512.91 665.47 517.85 664.07 521.9 664.18C529.05 664.37 535.37 663.3 542.43 662.75L579.27 659.9C583.89 659.54 587.26 659.5 592.74 658.54C593.73 663.85 593.62 670.23 593.5 676.14L593.01 699.24C592.88 705.52 592.74 711.12 593.49 717.53C593.31 715.94 593.81 736.12 593.81 736.29C593.81 744.9 589.95 753.1 589.16 761.97V761.96ZM524.17 620.98C525.02 619.63 529.1 621.64 530.65 622.07C536.51 623.68 543.16 626.39 547.19 632.14C546.09 637.47 531.35 642.64 526.77 641.74C521.16 640.63 521.89 624.46 524.17 620.98ZM596.21 576.34L595.53 599.59L595.34 641.34C595.33 644.55 594.26 649.43 593.06 651.89L581.61 652.83L574.1 653.72C568.69 654.36 563.98 654.18 558.71 655.12C554.95 655.79 550.7 656.19 547.05 656.53C547.03 652.05 552.69 654.17 554.38 652.04L562.74 641.55C565.82 637.69 566.25 629.2 562.28 624.6C553.16 614.03 538.59 610.01 525.14 606.45C514.07 603.52 503.64 602.52 492.35 602C486.91 601.75 481.44 600.61 476.04 601C470.44 601.4 465.1 601.26 459.54 600.95L452.33 600.55L426.39 600.25L428.27 592.81C429.94 586.19 434.24 556.95 434.03 551.79C433.87 547.97 433.65 544.64 433.89 540.98L435.25 520.76L437.42 501.43L438.54 486.17C442.89 486.19 447.89 486.06 452.32 485.7L471.68 484.12L487.43 482.71C493.04 482.21 498.8 481.88 504.39 481.71L515.15 481.39L517.83 494.36C520.34 506.48 525.34 516.25 533.72 525.15C536.96 528.6 539.7 533.37 543.7 535.93C546.94 538.01 549.93 540.41 553.07 542.18L564.07 548.39C564.56 548.67 580.15 554.18 581.63 554.57L594.99 558.11C595.42 563.99 596.37 570.29 596.2 576.33L596.21 576.34ZM597.88 768.18L609.49 723.23L615.19 700L617.38 692.34L625.5 662.53C629.44 648.07 629.2 642.35 634.04 628.13C634.8 627.12 639.01 628.98 638.43 630.32C634.86 638.49 634.56 647.2 633.34 655.63L630.33 676.5L626.67 694.83L623.88 709.08L618.45 736.72C615.91 749.67 611.13 757.27 608.12 772.04C604.66 771.97 600.98 770.61 597.88 768.17V768.18ZM611.54 596.5L611.51 579.5L610.81 560.29C612.57 558.37 616.44 558.95 619.38 558.6C639.78 556.19 658.96 545.55 672.65 530.61L677.44 525.39L683.14 518.22C690.52 508.94 692.99 503.18 698.61 496.84C715.8 477.44 702.88 490.1 721.52 478.28C725.64 475.67 729.19 479.17 732.59 480.93C738.15 483.8 744.63 488.73 743.84 495.89L741.18 519.76C740.29 527.73 737.37 533.55 733.48 540.24C731.02 544.47 729.42 550.09 727.52 554.81C723.97 563.62 719.04 571.98 717.66 581.23C715.42 596.22 717.8 615.37 723.36 628.89L727.74 639.54L702.37 641.19L680.32 643.13L668.11 644.23L664.85 617.31L660.96 576.73C660.63 573.32 661.21 569.44 653.78 565.35C650.19 563.38 643.13 577.59 641.51 580.54C632.26 597.35 629.17 592.31 624.65 611.11L618.45 636.93L615.76 648.54C615.44 648.85 612.04 649.2 610.62 649.16L611.17 618.2L611.55 612.26L611.52 596.5H611.54ZM653.26 609.12L651.98 622.8L635.25 621.72L639.27 606.26C640.6 601.16 645.19 595.51 648.68 596.39C650.55 596.87 651.19 599.03 651.63 601.19L653.27 609.11L653.26 609.12ZM613.47 658.68L610.32 672.81L609.63 661.25C609.58 660.41 610.06 658.47 610.27 657.75C610.48 657.03 613.63 657.94 613.47 658.68ZM640.01 695.06L636.41 710.74C635.48 714.78 634.28 718.61 633.66 722.68C633.37 724.56 633.03 727.2 632.62 728.59C629.1 740.53 626.5 751.7 623.96 763.83C623.46 766.21 621.93 770.54 620.98 772.64C620.52 773.66 616.21 773.24 616.15 772.21L621.62 752.28C624.48 741.84 627.23 732.07 629.82 721.52L637.07 691.87L641.32 669.7C642.82 661.88 646.39 640.41 646.48 633.09C646.49 632.02 647.76 630.22 648.79 630.04C650.02 629.82 651.52 631.74 651.3 633.09L648.41 650.45C646.55 661.65 644.22 672.35 642.18 683.39L640.01 695.06ZM779.89 752.45L765.87 753.51L756.21 754.08L721.89 755.62L691.96 756.86L667.4 757.91L658.33 758.75L644.06 758.72L648.83 744.66C650.84 738.73 651.88 732.96 653.67 726.99L656.98 715.94L658.35 709.92L660.34 701.49C660.8 699.56 661.85 696.78 662.69 694.26C669.14 716.55 681.35 708.48 686.82 713.69C689.66 716.39 688.04 723.03 685.51 724.96C678.85 730.04 672.07 716.28 666.57 723.79C665.29 725.54 665.71 729.66 667.54 731.89C672.93 738.45 681.56 736.83 687.97 733.16C693.22 730.15 694.98 727.52 695.75 721.13C696.34 716.24 696.97 708.32 690.52 705.89C684.11 703.48 670.69 701.79 673.09 694.73C674.91 689.38 683.84 693.57 686.76 688.22C683.8 685.99 681.11 683.65 677.98 682.7C675.39 681.92 669.33 684.16 667.69 686.32L662.78 692.74C664.2 676.31 669.44 670.24 667.64 654.82C669.34 653.25 672.49 652.87 675.06 652.7L696.31 651.27L715.26 649.95C721.71 649.5 728.56 648.73 734.58 649.45L739.92 656.96C741.01 658.49 743.94 659.89 745.46 661.18C749.12 664.27 751.89 668.51 756.13 670.71C760.68 673.06 764.55 678.16 769.01 680.12C774.84 682.68 777.76 684.33 777.78 691.51L777.81 703.2L778.04 715.37C778.31 729.62 780.45 739.19 779.89 752.47V752.45ZM824.33 724.34C824.14 733.73 823.55 742.58 816.64 750.13C810.19 751.06 803.16 751.68 796.37 751.31C794.74 748.72 796.15 744.71 795.78 742.36C794.61 734.81 794.26 728.59 794.82 721.13C795.69 709.54 793.1 699.68 794.64 689.02C806.4 691.56 812.89 698.94 819.26 707.21C823.33 712.5 824.47 717.31 824.32 724.33L824.33 724.34ZM948.67 744.54L935.16 745.16L922.06 746.01L912.19 745.9L896.03 747.22C893.69 747.41 890.52 747.4 887.91 747.51L867.52 748.38L860.13 748.66L842.31 749.56L832.62 750.56C841.99 736.66 838.35 734.52 839.25 718.14C839.62 711.29 837.32 703.35 833.62 697.78L828.84 690.59C822.18 680.57 812.12 675.61 801.25 672.02C784.04 666.34 785.46 669.84 773.1 661.48L766.58 657.07C763.97 655.3 761.84 653.99 759.97 651.51C756.24 646.54 750.3 643.01 747 637.98C743.69 632.92 742.28 626.75 738.77 621.94C736.73 619.15 736.03 616.98 735.66 613.39C733.81 595.17 729.83 593.85 736.37 575.61C738.63 569.31 740.62 563.29 744.21 557.34C745.76 554.77 746.33 551.82 747.14 548.67C748.19 544.57 751.44 540.32 752.84 536.18C757.61 522.07 759.07 507.21 758.88 492.28C758.65 474.33 737.98 461.49 727.39 461.81C726.39 461.84 724.89 459.53 724.27 459.78L720.93 461.09C710.98 465 701.01 470.62 693.52 478.77C692.01 480.42 689.27 482.32 687.95 484.23L683.14 491.18L676.84 500.18L668 512.27C666.14 514.81 662.91 517.39 660.71 519.76C654.77 526.15 648.74 531.22 641.01 535.16C635.06 538.2 629.1 542.46 622.17 542.84L607.21 543.68C604.76 543.82 600.09 543.3 597.67 542.68L581.01 538.38C576.04 537.1 571.23 534.47 566.61 532.15C545.93 521.78 533.79 502.12 529.81 479.84C528.91 474.83 528.22 470 528.21 464.95C528.19 454.13 527.29 454.13 531.69 444.02L535.51 435.26L545.67 413.71C548 408.76 550.43 401.77 549.43 396.36C546.34 379.65 549.12 380.26 538.44 366.54C534.66 361.69 527.65 355.27 522.11 352.73L511.8 348C509.7 347.04 506.14 347.3 503.9 346.91C498.85 346.01 494.16 345.08 489.13 344.61L476.42 343.42C465.98 342.45 460.23 343.35 451.66 335.42L443.86 328.2C440.14 324.76 432.77 316.39 432.38 310.19C440.32 313.24 433.37 314.92 446.39 320.72C449.67 322.18 460.22 324.63 460.46 324.62L477.77 324.28L492.21 323.6L500.73 323.34C503.91 323.24 508.85 323.82 512.06 324.91C529.42 330.81 526.74 328.88 541.09 340.91C548.78 347.36 556.17 354.38 560.75 363.12C562.87 367.17 565.97 372.22 566.33 376.61C568.7 405.86 544.45 413.04 542.13 439.53C541.45 447.28 541.28 454.32 543.8 461.71L550.75 482.11C552.26 486.53 556.74 491.45 560.35 494.05C564.77 497.23 575.01 506.13 573.57 505.21C582.27 510.75 595.19 515.58 605.66 517.02C618.49 518.79 628.98 516.32 639.61 508.97C641.54 507.63 643.59 504.93 645.46 503.77C650.75 500.5 654.85 496.39 657.91 491.2C664.35 488.24 677.2 472.12 681.85 466.95L688.27 459.8C689.33 458.62 690.69 455.81 691.82 454.23L698.53 444.88C702.34 439.57 708.34 437.27 714.29 434.57C719.18 432.36 724.61 431.5 730.15 430.71C740.94 429.18 746.79 430.55 756.61 434.24C763.04 436.66 768.04 439.96 772.56 445.27C780.82 454.96 782.52 462.77 784.16 476.05C784.84 481.56 781.72 490.19 778.68 494.75C776.62 497.84 774.51 498.15 775.03 502.62C775.64 507.81 772.38 513.06 771.22 518.05L766.82 537.01C765.7 541.84 766.52 547.91 766.09 553.08C765.51 560.13 765.94 567.17 767.66 573.92L769.6 581.51C770.72 585.88 775.14 590.02 777.64 593.96C780.8 598.93 785 601.68 791.11 602.74C799.25 604.16 804.81 618.28 806.89 625.6C808.67 631.85 810.16 638.81 815.7 642.56C819.61 645.21 824.26 648.81 828.99 647.38C832.88 646.21 836.62 642.5 840.33 640.72C843.98 638.98 846.73 637.47 849.75 635.07C853.01 632.47 857.42 630.44 860.41 627.77C864.02 624.55 866.31 621.97 871.4 621.92C877.74 635.97 878.5 663.13 895.28 669.35L920.98 678.88L930.03 682.57C945.27 688.79 954.47 697.14 972.39 701.03C973.68 716.13 970.18 725.25 972.8 743.09L948.72 744.54H948.67ZM1101.23 736.63L1090.95 737.37L1083.1 737.78L1065.98 738.68L1042.12 739.77L1034.18 740.09L1017.04 741.05L994.18 742.32L984.85 743.07C984.44 736.27 984.15 730.39 984.29 723.91L984.64 707.21L996.65 711.86C1006.4 715.64 1016.4 717.42 1026.74 713.99L1041.41 709.12C1043.8 708.33 1048.41 705.06 1050.69 705.78C1057.63 707.97 1064.4 710.45 1070.87 713.51C1076.63 716.24 1081.69 718.88 1088.1 720.51C1086.75 720.17 1102.64 726.74 1106.81 728.13L1116.71 731.42C1119.55 732.36 1121.7 733.16 1123.86 735.29C1114.18 738.88 1114.4 735.67 1101.23 736.62V736.63ZM1317.07 753.35C1316.04 760.9 1311.2 767.12 1306.94 773.36C1303.9 777.82 1300.83 782.98 1295.88 785.28C1292.84 784.09 1288.01 782.6 1285.72 781.3C1281.07 778.67 1277.12 776.98 1272.29 774.62L1258.46 767.87C1257.86 767.58 1239.67 760.63 1238.06 760.01L1220.81 753.42L1210.15 749.03L1198.83 744.66L1185.82 739.55L1171.8 733.74L1139.65 722.56L1099.22 707.96L1086.4 703.35L1076.37 698.73C1073.07 697.21 1068.89 696.25 1066.5 693.87C1065.71 693.08 1064.69 691.38 1063.75 690.55C1063.47 690.28 1063.15 690.03 1062.77 689.81C1051.99 683.68 1041.02 689.29 1031.8 695.54C1025.74 699.65 1017.16 704.24 1009.03 704.59C1005.68 703.94 1002.46 702.92 999.75 701.81L981.84 694.53C974 691.34 965.43 689.33 958.22 685.38L946.18 678.78C940.1 675.45 933.97 672.59 927.7 669.71L915.04 663.89L921.99 658.96C924.5 657.18 927.73 652.16 928.48 649.03C930.43 640.87 923.9 634.2 916.9 631.42C910.98 629.07 905.69 629.32 901.11 634.3C898.16 637.51 894.83 643.55 899.35 647.58C903.01 647.79 908.04 644.68 911.48 642.33C913.26 641.46 917.6 643.89 918.79 645.45C917.23 651.16 911.72 653.47 906.12 652.9L898.46 652.12C886.78 630.68 906.89 628.82 900.22 621.75C899.3 620.77 896.09 620.92 894.99 621.84L885.32 629.93L884.13 622.32C892.08 620.19 898.47 616.11 904.7 610.92L911.51 605.25C914.16 608.95 914.29 614.63 915.26 618.79C918.41 632.32 933.59 636.06 945.6 633.32C950.99 632.09 954.4 631.12 958.5 627.74C964.97 622.41 970.32 616.39 972.73 607.95C974 603.5 975.88 598.3 976.36 593.77L978.27 575.94C978.84 570.65 975.92 564.28 975.34 558.63L983.4 552.59C985.67 550.89 988.12 549.38 990.55 547.81L1004.59 538.77C1005.05 538.48 1006.24 537.62 1006.26 538.01L1006.42 540.53L1008.04 565.41C1008.86 567.66 1013.91 568.95 1015.95 568.14C1019.23 566.84 1021.69 565.13 1022.15 561.53C1025.39 536.47 1014.75 534.71 1016.32 530.41C1017.85 526.24 1021.03 529.05 1033.06 527.98L1044.23 526.99C1044.73 535.13 1044.26 541.88 1043.64 549.39L1042.23 566.51C1043.89 569.4 1049.8 571.67 1053.17 570.76C1057.02 569.72 1057.47 564.99 1057.54 561.69L1057.98 540.48L1058.06 523.88L1064.86 520.27C1067.18 519.04 1070.2 517.92 1073.22 517.27C1077.74 522.49 1082.23 528.14 1084.19 534.78C1088.76 550.32 1087.5 541.59 1088.02 559.4C1088.18 564.95 1085.59 570.27 1084.18 575.45C1083.37 578.4 1083.42 582.39 1082.57 584.83C1080.41 591.04 1078.4 596.89 1076.73 603.06C1075.63 607.14 1074.68 608.88 1071.09 610.68L1062.45 615.03C1058.47 617.03 1054.43 620.88 1051.11 624.51C1059.28 624.44 1064.55 619.73 1071.33 617.48L1101.83 607.36C1107.51 605.48 1112.93 603.6 1118.67 601.96L1130.25 598.65L1162.15 589.49L1174.03 585.21L1187.8 581.79L1205.55 576.73L1223.57 571.29L1244.22 566.05L1253.17 563.86L1262.5 561.15L1277.94 557.38L1287.81 554.91C1292.39 553.77 1297.82 552.81 1302.16 552.69C1304.49 557.35 1301.63 560.96 1300.27 564.8C1295.54 578.2 1293.53 584.75 1299.43 600.02L1305.07 614.62C1307.19 620.1 1309.78 626.41 1312.69 631.44C1318.81 642.02 1319.97 653.78 1311.02 663.55C1306.73 668.23 1304.03 674.19 1301.74 680.28C1294.76 698.79 1301.73 702.58 1306.58 716.27C1311.89 731.23 1319.69 734.02 1317.05 753.34L1317.07 753.35Z" fill="black"/>
</g>
<defs>
<clipPath id="clip0_177_799">
<rect width="1418.62" height="906.66" fill="white"/>
</clipPath>
</defs>
</svg>
