<svg width="1317" height="842" viewBox="0 0 1317 842" fill="none" xmlns="http://www.w3.org/2000/svg">
<g clip-path="url(#clip0_177_855)">
<path d="M1279.63 565.69C1271.71 554.45 1259.06 554.68 1251.08 545.34C1246.95 540.51 1248.96 533.05 1247.91 527.38C1246.98 522.4 1246.98 518.25 1248.24 513.63L1251.03 503.34C1252.72 497.12 1256.08 492.24 1259.74 486.95C1266.45 477.26 1269.23 481.73 1268.17 478.1C1266.99 474.07 1256.37 481.41 1254.68 485.45C1245.89 491.39 1242.09 500.48 1238.52 509.7C1234.32 520.55 1234.01 537.76 1235.53 549.26C1236.1 553.53 1237.26 556.22 1240.41 558.73L1252.26 568.15C1254.26 569.74 1257.94 570.61 1260.28 572.26C1269.53 578.79 1274.96 592.2 1268.04 602.21L1260.19 613.55C1257.36 617.63 1255.39 620.78 1253.98 625.66C1252.99 629.07 1250.91 632.58 1250.57 636.22C1249.69 645.49 1247.76 655.39 1252.23 664.35C1253.92 667.74 1267.6 675.45 1271.97 669.11C1272.96 667.67 1273.19 664.2 1272.33 662.09L1269.08 654.11C1265.33 644.92 1272.13 627.1 1279.36 618.48C1284.35 612.52 1286.93 607.26 1287.6 599.67C1288.4 590.65 1289.63 579.85 1283.81 571.6L1279.64 565.69H1279.63Z" fill="black"/>
<path d="M48.4701 676.1C51.7401 652.03 68.2601 647.76 70.1801 636.04C71.5301 627.84 72.4201 618.27 67.4601 610.98C58.0901 597.21 47.5001 591.11 50.1301 573.7C51.8301 562.44 55.3301 548.97 62.3301 539.83C63.8801 537.8 64.3801 534.02 62.1001 532.7L54.9901 541.53C43.7201 555.53 39.0701 571.1 38.9801 589.21C38.9501 595.58 42.2201 602.25 45.5301 607.32L52.2901 617.67C61.2301 631.36 47.3501 636.03 43.3201 644.1L35.1401 660.45C33.3101 664.11 33.8601 669.18 33.1701 673.37C32.4301 677.87 31.7501 681.73 32.5401 686.23L34.9101 699.82L38.0501 704.67C38.7401 708.58 41.2901 711.87 43.6801 715.5C48.0501 722.15 53.9801 727.16 62.2101 726.44C67.2901 723.04 58.6301 708.59 56.5101 705.5C49.7001 695.57 46.7901 688.34 48.4501 676.1H48.4701Z" fill="black"/>
<path d="M20.29 531.91C21.41 528.82 25.95 526.69 22.57 522.57C20.11 525.15 16.15 527.7 14.14 530.65C2.04001 548.44 -2.57999 570.97 3.49001 591.8C8.03001 607.38 11.82 607.11 16.58 619.56L10.38 626.66C2.75001 635.4 3.46001 636.98 1.41001 645.67C0.270013 650.52 -0.769987 655.38 0.790013 660.11L3.61001 668.64C10.99 666.88 11.89 662.29 13.4 657.08C14.85 652.08 16.96 646.16 19.01 641.47C25.3 635.42 30.96 629.09 31.69 619.91C32.47 610.14 20.93 596.77 17.6 586.53C11.81 568.71 14.02 549.31 20.29 531.91Z" fill="black"/>
<path d="M1316.19 544.96L1312.58 540.78C1303.51 536.23 1294.77 531.64 1286.09 525.93C1276.07 519.33 1284.52 501.71 1288.42 496.91C1290.72 494.07 1308.69 473.77 1301.29 471.51C1300.17 471.17 1297.61 472.28 1296.95 473.41C1294.89 476.9 1291.28 478.18 1288.17 480.65C1278.08 488.67 1278.24 489.95 1270.67 501.04C1268.9 503.64 1268.21 508.78 1267.23 511.83C1263.37 523.84 1268.16 533.07 1278.06 540.24C1285 545.27 1312 555.96 1316.55 548.36C1316.95 547.69 1316.76 545.6 1316.2 544.96H1316.19Z" fill="black"/>
<path d="M605.59 129.21C607.99 129.63 605.85 123.65 609.76 119.54L610.84 108.17L619.9 118.27C620.96 119.46 624.19 120.67 625.53 120.27C626.71 119.92 628.43 117.54 628.7 116.18L632.34 97.6304C632.77 95.4204 631.8 92.5704 630.1 91.6504C628.58 90.8304 624.63 90.4604 623.76 91.9704C619.01 100.25 622.65 110.68 620.1 109.39C619.66 109.17 618.15 108.35 617.87 107.95L612.71 100.54C611.71 99.1004 610.47 97.7604 609.57 97.0904C601.31 90.9704 600.43 123.92 600.66 125.47C600.89 127 603.86 128.92 605.58 129.22L605.59 129.21Z" fill="black"/>
<path d="M997.24 354.66L1014.46 352.05C1017.44 351.6 1022.93 348.5 1022.63 345.84C1020.39 338.63 1008.17 346.96 1001.96 345.87C1000.32 345.14 1000.01 339.46 1000.83 338.36L1009.26 338.39C1010.97 338.39 1013.36 335.73 1013.38 333.98C1013.4 332.38 1011.15 329.52 1009.12 329.64C1006.26 329.8 1004.17 330.59 1000.83 331.69L999.72 323.11C1009.56 320.02 1009.25 324.08 1014.59 321.16C1015.75 320.53 1016.51 317.28 1015.96 316.22C1015.41 315.17 1012.32 314.04 1011.14 314.47L998.78 319.03C998.13 318.45 995.97 316.68 995.8 317.36L995.23 319.76C994.69 322.02 994.9 324.8 994.7 327.44L993.25 346.37C993.07 348.66 995 353.69 997.24 354.65V354.66Z" fill="black"/>
<path d="M267.56 328.98C253.42 327.34 256.81 341.71 251.59 350.53C249.85 346.75 248.6 344.15 245.99 343.59C242.96 342.93 240.19 345.06 239.26 347.89L235.39 359.67C231.7 355.95 229.85 347.04 225.36 341.73C223.73 340.88 220.55 344.42 220.85 346.32C221.99 353.39 229.51 380 239.45 376.83C244.4 373.65 239.77 365.33 244.5 362.55L247.35 368.97C250.15 372.72 259.01 372.74 260.91 367.77C262.91 362.52 263.49 356.93 264.9 351.58L269.62 333.71C269.91 332.61 268.68 329.12 267.56 328.99V328.98Z" fill="black"/>
<path d="M273.31 184.72C261.82 182.25 250.35 184.58 240.16 191.19C237.58 192.86 236.14 196.41 234.39 198.33C227.22 206.18 223.48 214.4 222.59 224.76C222.03 231.27 222.25 235.82 225.32 241.68C230.75 252.04 238.73 259.38 250.99 261.52C264.62 263.9 278.87 259.45 289.67 250.27C302.33 239.51 304.1 227.71 300.41 212.01C299.47 208.02 297.15 204.59 295.42 201.12C290.82 191.85 283.52 186.92 273.31 184.72ZM286.14 242.2C281.51 245.68 276.78 248.41 271.24 250.32C257.88 254.92 254.77 250.83 242.77 245.79L235.51 237.84C230.86 232.75 231.04 227.42 234.89 221.68L237.42 212.14C238.05 209.75 249.83 201.85 251.34 196.84C260.32 192.33 272.79 191.6 281.27 198.16C292.05 206.5 299.69 232.01 286.13 242.2H286.14Z" fill="black"/>
<path d="M268.04 205.72C265.39 203.34 259.61 206.3 256.18 209.12C261.11 215.39 269.1 213.13 270.7 224.37C271.23 228.11 269.14 231.479 266.73 234.76C264.89 237.27 264.92 242.93 267.77 244.09C272.54 246.02 275.91 242.6 277.96 238.47C281.61 231.13 280.55 220.14 274.33 213.97C271.72 211.38 270.11 209.11 268.03 205.73L268.04 205.72Z" fill="black"/>
<path d="M1235.46 673.65C1235.15 672.14 1232.09 669.92 1231.48 668.53L1224.81 653.34C1221.56 645.93 1219.5 638.26 1224.26 630.93L1233.73 616.35C1245.16 598.74 1232.38 581.05 1224.66 566.7C1223.04 563.69 1223.3 558.91 1220.97 555.28C1218.56 551.53 1216.86 545.03 1216.5 540.29C1217.36 529.93 1227.52 516.86 1221.23 506.8C1219.99 504.81 1216.62 501.3 1215.02 499.39C1209.08 495.29 1188.09 499.14 1180.93 501.2L1148.73 510.43L1118.8 520.25C1113.58 521.96 1120.76 516.48 1115.84 508.51L1115.32 501L1112.98 477.62L1112.47 465.43L1111.34 449.44L1110.22 430.38L1108.36 413.3L1105.53 376.51L1102.04 330.91L1101.29 317.46C1101.1 314.01 1100.82 310.92 1100.73 307.47L1100.4 294.61L1117.36 292.61C1130.15 291.1 1142.97 288.28 1156.06 288.02C1161.42 287.92 1166.01 288.35 1171.57 287.18C1177 286.04 1184.01 285.96 1188.75 283.42C1195.22 279.96 1192.69 272.79 1190.92 267.77C1188.65 261.31 1190.11 253.82 1188.28 247.36C1187.49 244.57 1184.65 240.81 1185.45 237.87C1188.05 228.28 1184.89 217.36 1175.07 213.98L1163.23 215.07L1146.76 216.41L1137.59 216.75C1140.9 209.14 1129.51 198.28 1124.07 192.76C1112.28 180.8 1113.43 180.72 1097.71 170.15C1096.81 166.02 1097.31 160.08 1097.14 155.47L1096 124.18C1095.61 113.41 1094.83 116.07 1094.38 101.77L1093.97 88.8498C1093.8 83.5898 1094.02 77.5798 1090.99 73.2898C1088.38 69.5998 1084.21 71.7498 1080.93 71.7298L1053.55 71.5098C1052.17 68.9598 1051.76 65.6898 1051.55 62.8198L1051.22 58.1298L1051.28 52.7598C1051.35 46.8498 1050.66 42.6098 1047.25 37.7898C1045.46 35.2598 1044.95 33.1698 1041.31 33.7298C1029.08 35.6098 1012.21 36.5798 999.89 36.4498L1009.07 25.8598C1010.17 24.5998 1010.46 19.8898 1009.04 19.3698L1003.3 17.2298L1002.16 10.7898C1000.09 6.45977 995.22 0.759766 990.15 0.00976562C983.95 1.38977 979.29 7.24977 975 12.1198L959.72 8.06977C953.57 6.43976 947.17 6.93977 940.75 7.03977C934.07 7.13977 927.14 9.04977 921.93 13.4698L915.34 19.0598C908.44 24.9098 906.78 34.2398 904.47 43.1098L885.52 44.8098L865.55 46.0898C861.07 46.3798 856.93 46.7598 852.24 46.6198C848.24 46.4998 843.84 47.9398 840.15 48.0698L828.29 48.5098C823.88 48.6698 819.58 49.1398 815.34 49.2298C801.75 49.5298 797.1 50.7998 782.41 51.3598L772.22 51.7498L758.9 52.7998L748.45 53.6698L736.88 54.5398L721.63 55.2598C711.86 55.7198 702.49 56.5198 692.77 57.0898L673.77 58.1998L659.42 59.2198L632.81 60.6298L619.69 61.4698L608.42 62.3198L593.44 63.1498L568.68 64.7098L553.49 66.0398L542.53 66.2998L524.49 67.4198L508.53 68.4198L487.56 69.6898L474.16 70.4398L460.09 71.5498L428.71 73.6598L414.82 74.4198L392.61 75.7898L382.4 76.1298L370.6 76.9198L355.64 77.9898C348.04 78.5298 340.9 79.3498 333.41 79.4498C319.26 79.6498 319.81 81.5998 306.65 80.9398C301.86 80.6998 297.05 81.6998 292.58 81.9398L276.72 82.7798L260.96 83.5498L218.72 86.4798C208.27 87.2098 198.2 87.0398 188 85.4898L178.62 90.2898L175.68 98.6098C175.46 99.2198 174.35 101.3 174.94 101.33L177.14 101.45C176.46 102.44 175.24 104.15 175.77 104.87C176.19 105.45 177.41 107.13 177.99 107.86L177.56 155.32L177.81 172.09L178.57 224.72L179.43 253.9C179.68 262.48 180.14 270.7 180.19 279.52C172.64 288.8 168.42 291.69 161.42 300.45C156.15 307.06 150.6 313.45 144.64 319.43L139.67 324.42L128.28 336.02C125.92 338.43 123.8 340.9 121.65 343.46L115.65 350.62C113.58 353.09 113.08 356.9 114.23 360.18C115.05 362.51 117.97 363.74 120.72 365.5C127.35 369.76 136.31 381.41 139.88 379.13L143.86 376.59C146.66 378 150.79 379.78 153.92 379.92C159.13 380.16 160.05 375.05 162.61 372.3L175.2 358.83L182.89 350.3C182.43 359.38 182.35 368.09 182.79 377.11L183.87 399.32L184.08 407.59C184.21 412.67 184.1 417.2 183.76 422.58C183.46 427.26 185.02 432.81 185.13 437.69L185.75 466.14L186.54 487.74L187.41 506.34C187.71 512.8 188.07 519.18 188.11 525.5L188.22 545.74C186.78 547.17 183.07 546.46 180.28 545.7C172.03 543.46 163.49 543.64 154.89 542.82L146.68 542.04C137.31 541.15 128.27 539.6 118.95 539.69L108.39 539.78C99 551.43 106 546.5 99.24 553.73L86.65 567.2C80.96 573.28 76.99 582.14 75.71 590.36C73.87 602.22 76.41 607.73 84.13 616.56C89.45 622.65 89.98 627.75 89.38 635.47C89.06 639.59 89.6 644.21 87.43 648.54C84.9 653.59 82.13 658.78 79.03 663.46C73.62 671.61 70.14 677.18 69.84 687.72C69.71 692.22 68.96 696.85 70.73 700.94C78.67 719.23 91.53 719.23 89.25 738.72C88.42 745.78 88.47 752.79 88.37 759.98C88.2 772.6 90.05 775.74 96.33 785.36C99.71 790.54 103.3 794.24 108.74 797.25C111.12 798.56 114.04 800.9 116.9 801.7C123.26 803.47 130.09 805 136.33 806.03L146.32 801.23C147.54 800.18 149.76 797.67 150.63 796.2C154.22 790.1 159.38 786.92 164.62 782.56L173.77 774.94L183.15 765.95L192.46 758.75C198.13 754.37 203.77 750.31 208.72 745.16C210.64 743.16 211.99 742.58 214.72 742.33C223.75 741.51 232.38 740.84 241.37 740.74C239.96 755.12 243.24 752.43 242.14 761.13C241.73 764.38 242.06 768.88 244.75 770.83C248.23 773.36 252.89 772.26 256.65 772.73C260.95 773.27 265.09 773.78 269.63 773.92L282.05 774.3L299.14 773.32C305.7 772.94 312.66 770.92 319.42 769.99L329.38 768.63L336.69 766.68L356.68 763.2C370.48 760.8 383.95 759.14 397.9 757.69L417.68 755.64C430.9 754.27 444.12 754.86 457.45 755.33L464.56 755.58L486.72 756.26L492.02 767.64L501.47 785.83C503.24 789.24 504.46 792.65 506.39 795.84C510.29 802.28 519.51 815.88 524.37 821.05L539.42 837.07C542.31 840.14 546.01 843 551.16 841.33C555.55 839.9 550.71 822.8 550.91 814.09C551.09 806.08 550.47 799.31 547.24 792.12L537.07 769.5L532.69 758.65C541.18 758.72 538.99 759.3 549.31 759.46L558.85 759.61L574.66 759.94L589.54 760.3L600.89 760.4L621.38 759.91L673.44 757.79L683.6 757.63L713.45 756.98L745.12 755.76L771.92 754.65L798.52 753.48L811.32 752.73L819.97 752.17L831.18 751.46L845.26 750.91L877.82 750.2C883.81 750.07 890.19 749.59 896.11 749.08L921.17 746.91L932.9 745.83L949.39 744.62C955.74 744.16 961.74 744.35 968.27 744.5C971.49 744.57 975.58 743.96 979.08 743.83L988.39 743.46L1005.87 742.44C1011.78 742.1 1017.18 741.69 1023.16 741.63C1035.34 741.5 1047.03 740.56 1059.13 739.76L1066.21 739.3L1085.47 737.6C1095.52 736.71 1105.73 735.66 1115.75 733.44C1120.4 732.41 1121 724.06 1119.59 720.82C1118.27 717.8 1116.13 710.14 1120.23 711.7L1132.85 716.52L1151.16 724.18L1160.22 728.2L1174.65 734.89C1182.15 738.37 1202.54 751.49 1209.39 745.48C1222.69 733.81 1236.13 714.65 1238.99 696.7C1239.64 692.63 1238.63 688.9 1237.79 684.89L1235.46 673.65ZM1152.99 227.43L1162.96 226.34C1167.82 225.81 1173.06 224.87 1177.26 224.72C1175.56 241.09 1177.65 245.86 1176.22 261.73C1173.97 263.28 1169.44 264.37 1166.31 264.71L1152.32 266.22L1149.9 257.52C1149.51 256.13 1145.49 254.66 1144.3 255.36C1140.94 257.32 1139.75 262.99 1142.45 267.74L1108.14 272.18C1107.53 268.32 1106.19 263.24 1102.17 262.43C1100.71 262.14 1097.98 264.98 1098.21 266.36L1099.39 273.42L1081.24 275.83C1077.22 276.36 1073.51 276.5 1069.15 276.57L1068.91 265.15C1068.89 264.07 1065.48 262.79 1064.4 262.77C1063.14 262.75 1061.57 265.49 1061.57 266.81L1061.55 277.38L1050.15 278.8L1039.09 279.91L1028.9 280.86L1026.6 274.32C1026.28 273.42 1025.08 272.08 1024.41 271.62C1023.56 271.05 1020.53 271.62 1020.1 272.53C1019.16 274.53 1019.64 278.83 1020.21 281.85L1007.16 283.19L988.08 285.54C987.29 283.47 986.2 280.68 984.84 277.99C984.17 276.66 980.13 276.14 978.97 276.9C975.67 279.08 978.74 282.99 978.04 287.85C978.05 287.78 955.97 293.3 952.93 292.49C951.43 288.08 952.05 282.83 946.61 282.21C945.26 282.06 943.2 285.11 943.43 286.5L944.7 294.04L931.62 295.53C927.36 288.36 927.58 279.22 923.1 266.36C922.25 263.92 920.06 260.46 921.28 257.91C927.57 255.79 944.87 253.52 950.01 253.74C953.65 253.89 954.73 253.85 958.11 252.32C961.84 250.63 967.24 251.27 971.37 250.72L988.09 248.48L999.98 246.94L1010.13 245.68L1019.31 244.83L1041.1 242.58L1074.33 238.87L1086.18 237.37L1101.53 234.88L1115.09 232.89L1125.84 230.96C1134.95 229.33 1143.81 228.43 1153 227.42L1152.99 227.43ZM1056.83 166.69L1056.17 175.44C1056.07 176.71 1058.62 178.92 1059.72 178.7C1060.99 178.45 1063.06 176.49 1063.44 175.08L1065.69 166.83C1072.49 167.05 1077.51 169.79 1083.33 172.26L1091.02 175.51L1086.96 181.9C1086.27 182.99 1085.94 185.61 1086.53 186.71C1087.12 187.8 1091.17 188.11 1091.96 187.17L1097.77 180.27L1104.8 186.42C1108.22 189.42 1111.55 195.42 1114.03 199.48C1113.12 201.53 1111.28 205.22 1112.97 206.73C1114.68 208.27 1117.56 206.65 1119.62 205.06L1128.35 217.91C1120.68 219.4 1113.76 221.2 1106.06 221.92L1098.49 222.63L1084.86 224.53C1077.84 225.51 1078.96 216.39 1072.35 213.54C1053.4 205.38 1013.83 211.44 1014.32 235.18C996.12 235.71 979.13 238.06 961.71 243.38C961.71 240.31 962.47 236.65 963.8 233.34L966.87 225.7C968.28 222.19 971.84 217.71 974.28 214.74C976.86 215.15 980.98 215.76 983.05 215.74C984.29 215.73 984.95 210.96 983.87 210.37L978.67 207.5L990.06 194.79C994.81 189.49 996.15 203.18 1001.32 199.01C1006.57 194.77 999.84 188.24 999.45 187.16C999.21 186.5 1000.41 185 1001.18 184.57L1018.84 174.59L1025.33 183.18C1026.33 183.85 1029.28 184.29 1030.32 183.9C1031.54 183.45 1032.66 180.07 1032.11 178.85L1028.8 171.53C1038.03 168.1 1047.35 166.68 1056.81 166.68L1056.83 166.69ZM986.13 10.7198C986.96 9.88977 989.26 8.87977 990.38 8.98977C991.69 9.10977 993.88 12.2198 992.97 13.2598L984.18 23.3798L979.52 17.2798L986.13 10.7098V10.7198ZM919.97 28.4398C929.87 13.1698 946.59 18.5098 958.36 19.5998C964.56 20.1698 969.31 22.3498 974.35 25.5198C979.82 28.9498 982.46 32.0498 983.15 38.9198C984.25 50.0098 985.19 61.6898 978.71 71.4298C977.21 73.6898 975.09 76.9998 973.23 78.7998C965.75 86.0298 948.09 90.3598 938.41 84.7798L945.77 74.7098L957.86 75.5398C966.53 76.1298 976.11 65.3498 977.05 50.4998C977.43 44.4598 974.13 34.1998 968.28 31.0698C961.52 27.4598 953.23 25.8098 945.84 24.6798C938.93 23.6198 930.97 28.6298 927.92 34.5198C924.96 40.2398 925.5 47.0298 925.76 53.2298L917.36 55.5498C916.7 55.7298 915.23 56.3698 914.73 56.5698C911.62 57.8198 913.44 38.5198 919.97 28.4398ZM953.16 40.4398C947.12 40.6998 942.12 41.2298 936 40.8798C938.07 37.4798 940.54 33.9398 944.18 32.2298C950.65 29.2098 960.37 33.7798 964.06 39.9698L953.15 40.4398H953.16ZM962.65 59.5398C956.98 61.4198 952.45 70.4098 949.06 65.9398L944.89 60.4298C953.25 57.0098 950.44 61.0298 962.65 59.5298V59.5398ZM920.82 64.9598C923.81 63.4198 927.61 62.0898 930.59 61.5498L936.33 67.5198L930.47 78.8098C926.86 85.7698 922.65 91.9098 917.62 98.1098L907.35 110.78C903.31 115.77 897.54 121.39 892.94 128.36L877.86 151.19L875.36 146.84L883.47 134.76C885.96 131.06 888.91 127.42 891.03 123.63L899.19 108.96C900.08 107.37 909.5 93.1298 909.95 92.6398C911.44 90.9998 914.64 85.5398 911.22 85.2098C901.27 84.2598 892.14 89.3598 882.99 92.2598C876.26 94.3898 870.22 97.1198 863.78 100.01L849.31 106.51C846.74 107.66 843.24 108.81 840.17 109.52C838.22 109.97 835.12 104.99 835.19 102.58C842.57 99.1698 849.83 95.9098 857.3 92.9498L876.74 85.2398L885.17 81.8398C887.89 80.7398 890.04 79.3698 892.81 78.2298L903.6 73.8098L920.82 64.9498V64.9598ZM401.56 93.4598L418.53 92.3898L432.19 91.4098L440.64 90.8598L452.61 90.5798L467.49 89.4998C474.02 89.0198 479.88 88.2098 486.52 88.6398C490.19 88.8698 494.21 87.8198 497.44 87.6398L508.83 87.0198L531.53 85.2098L549.48 84.5698L573.47 82.6698L583.88 82.1898L612.2 80.4898L652.26 77.7398L668.93 76.9798C671.9 76.8398 674.55 76.4198 677.5 76.2698L696.42 75.3198L718.92 73.8998L747.37 71.9898L756.58 71.4298L786.85 69.5598L804.14 68.4698C808.53 68.1898 812.71 68.6798 817.27 67.6698C820.85 66.8798 824.13 66.8698 827.61 66.7798L844.35 66.3598L857.28 65.3698L872.08 64.5598L883.41 63.8398L898.34 62.8698L885.22 70.9698L867.57 80.9898C858.77 73.1498 856 67.5198 846.74 69.5098C845.41 69.7898 843.88 73.5398 844.98 74.5798L856.59 85.5298C850.34 89.9098 838.78 95.2798 832.12 97.9098C823.54 98.5698 817.56 101.38 809.98 105.31L799.65 110.66C794.5 113.33 789.51 115.72 784.94 119.11L775.61 126.03C770.07 130.14 767.02 136.36 767.59 142.68C762.15 147.68 751.22 157.88 748.99 164.47C751.86 166.18 753.92 167.55 756.27 168.55C762.49 171.22 769.51 166.62 773.3 162.11C780.79 165.3 786.06 166.74 793.36 165.58C794.94 165.33 798.78 166.01 800.06 165.29L808.87 160.27C817.07 155.6 821.89 151.98 828.59 145.98C834.89 140.34 842.33 135.69 844.37 126.61C847.83 124.8 852.28 123.49 855.99 122.61L856.11 127.31C856.14 128.35 859.51 129.99 860.67 129.41L882.48 118.47L874.05 129.65C870.34 134.57 866.74 140.14 863.79 145C860.03 146.23 856.29 148.67 853 151.17L843.89 158.1C836.86 163.45 832.13 168.67 823.77 175.09C819.59 178.29 815.28 180.93 813.78 185.66C812.01 191.22 813.25 196.38 815.78 201.97L803.17 219.42C802.31 220.61 801.4 223.71 801.98 224.76C805.03 226.57 810.18 225.47 811.38 221.54L817.06 223.06C825.48 217.77 831.35 227.45 844.91 217.42L850.18 213.52C856.01 209.21 860.87 204.51 866.03 199.33C870.88 194.45 873.28 195.05 879.7 185.95C883.38 180.73 888.67 176.07 891.87 170.45C893.86 166.95 895.56 163.47 897.99 160.41L907.68 148.19C909.77 145.55 911.81 142.75 914.09 140.27C918.16 142.91 924.79 153.01 929.63 148.03C930.73 146.9 931.64 142.31 930.43 141.1L919.99 130.57L924.4 121.82C927.9 114.86 930.86 108.5 936.04 102.3C945.15 106.84 953.32 105.51 962.24 103.98C981.75 100.64 991.35 92.4298 999.1 74.3998C1005.13 60.3698 999.14 72.0198 1003.53 56.7898L1028.99 55.3698L1031.17 84.6498C1031.87 94.0698 1031.68 96.1698 1032.26 105.54L1032.56 110.39L1033.45 129.95L1034.55 155.93C1025.74 158.92 1015.59 158.02 1007.81 162.51L990.88 172.27C988.9 173.41 986.1 177.08 984.26 178.66L971.86 189.32C965.84 194.49 962.1 200.87 958 207.36C950.57 219.09 946.63 232.37 944.79 246.29L927.02 248.82C922.54 249.46 916.2 249.06 914.57 255.13C913.74 258.22 913.9 263.82 914.83 267.06C919.78 284.42 916.68 298.86 923.33 306.5C926.95 310.66 934.63 307.66 938.87 306.7C940.93 309.47 943.28 312.69 947.24 311.84C957.9 309.54 968.26 308.88 978.99 307.9L990.07 306.89L1007.04 304.78C1014.07 303.9 1023.05 303.39 1027.79 302.56C1033.7 301.52 1039.65 299.95 1045.02 301.07L1045.1 308.26L1046 322.98C1046.38 329.22 1046.04 335.32 1046.63 341.52L1047.48 350.32C1047.97 355.46 1048.63 360.27 1048.77 365.43L1049.23 382.45L1050.93 407.56L1052.99 443.53L1054.88 470.38C1055.12 473.79 1055.31 477.73 1055.44 481.51C1055.84 493.02 1056.98 503.87 1058.21 515.31C1058.48 517.85 1058.34 521.36 1058.46 524.06L1059.25 541.34L1016.93 557.07L1020.02 547.02L1024.55 523.2C1026.44 513.29 1023.22 504.78 1020.04 496.09C1018.46 491.76 1017.26 488.66 1014.25 485.19L1004.74 474.21C1011.73 470.04 1015.42 464.86 1020 458.87C1021.76 456.57 1024.23 454.66 1025.56 451.59C1028.17 445.56 1034.83 446.78 1031.98 438.92C1028.88 430.35 1036.11 433.64 1039.97 422.23C1041.45 417.86 1039.04 413.74 1036.63 410.38C1038.93 404.84 1045.45 406.04 1046.63 402.3C1048.44 396.59 1041.17 387.28 1037.07 382.13C1031.61 384.16 1027.44 388.73 1024.27 393.51C1021.67 391.59 1018.44 388.82 1016.29 387.74C1010.79 384.99 1006.55 388.33 1002.72 390.74C995.53 395.28 988.55 399.61 982.69 405.74C981.01 407.49 979.35 409.02 977.51 410.55L958.81 426.07C955.86 428.52 952.88 430.64 949.74 432.79C942.56 437.71 936.73 443.85 929 448.35C926.67 449.71 921.12 449.86 918.28 450.85L910.23 453.64L901.06 449.47C893.57 446.06 888.07 444.56 880.38 447.42C856.97 456.11 853.8 463.98 837.18 479.32C833.07 483.11 830.62 488.76 826.94 492.76L819.71 500.61C814.04 506.77 803.81 516.77 807.78 526.7L816.82 533.84C809.46 538.3 806.86 546.11 804.24 553.17C794.9 560.8 791.42 567.19 781.88 574.51C776.48 578.65 772.3 582.37 768.23 588.76C760.89 583.14 762.87 581.82 758.64 568.12C757.03 562.89 753.83 559.8 750.66 556.2C740.84 545.08 748 554.61 733.52 544.85C728.63 541.55 725.32 533.54 724.64 528.15C719.12 484.63 742.64 462.03 739.64 438.97L738.02 426.48C737.21 420.28 732.34 412.58 728.51 407C724.47 401.12 714.2 393.47 707.73 391.18C686.03 383.52 662.67 386.74 644.05 399.89C642.1 401.26 633.5 413.66 629.53 418.35L617.17 432.95C614.36 436.27 611.5 439.16 608.4 442.16L594.02 456.05C582.73 466.95 573.38 470.7 558.94 466.27C546.9 462.58 537.14 456.5 528.69 447.01C522.27 439.8 520.89 434.41 518.87 424.88C517.79 419.78 516.79 415.39 517.91 410.06C522.68 387.38 522.89 402.36 531.23 383.68C540.32 363.32 543.43 354.88 534.55 333.73C531.94 327.52 528.51 322.9 523.72 318.21L516.22 310.87C513.9 308.6 511.28 306.94 508.66 305.06C502.9 300.93 497.95 295.43 490.9 292.86C476.71 287.7 461.73 289.61 446.58 289.13L433.76 288.72C426.4 288.49 420.78 286.76 416.36 281.9C405.03 269.44 409.56 265.33 413.34 248.16C414.93 240.96 413.83 221.74 409.54 215.56C403.88 207.41 391.89 205.57 382.75 205.95L374.56 206.29C367.79 206.57 360.15 208.08 353.69 204.31C350.73 202.58 344.86 196.25 343.49 192.08C338.63 177.26 340.01 166.28 346.49 152.4C347.21 150.85 349.61 148 350.79 146.81L361.68 135.82C374.18 123.21 379.98 116.42 377.89 95.5898C385.67 93.9298 393.7 93.9398 401.57 93.4398L401.56 93.4598ZM791.69 127.95L801.07 121.32C808.5 116.07 807 124.98 814.86 131.36L803.47 137.58L791.7 127.95H791.69ZM794.84 141.52C791.03 143.08 784.71 145.08 780.53 145.56C779.09 145.56 777.17 142.24 777.17 140.9C777.17 136.59 783.9 131.55 787.52 130.72L794.84 141.52ZM810.66 116.25C819.95 112.39 826.99 100.06 832.28 109.65L834.28 113.28C834.36 113.43 823.92 126.08 821.6 128.16L817.56 122.42C815.83 119.97 813.61 117.68 810.66 116.24V116.25ZM840 175.35L847.47 168.12C847.97 167.64 850.08 166.7 850.54 167.16L852.54 169.13L862.5 178.91C860.24 181.93 857.79 184.76 855 187.62L840 175.36V175.35ZM849.78 191.35C845.55 195.41 840.7 199.35 834.86 202.13C833.36 202.85 829.87 200.65 828.37 199.46C825.24 196.98 822.15 191.43 825.78 187.86C828.8 184.88 832.96 181.41 836.38 178.48C840.16 178.38 842.96 186.36 849.78 191.35ZM858.26 166.72L853.7 163.52L866.93 152.08C868.59 150.64 872.84 153.25 874.21 154.73C875.59 156.22 875.75 161.06 874.54 162.83L867.12 173.73L858.25 166.71L858.26 166.72ZM893.1 511.89L879.8 520.8L867.1 528.9L856.91 535.85L847.45 524.71L861.08 513.14C864.46 510.27 868.28 507.49 871.49 504.4C874.39 501.6 877.12 499.01 880.31 496.36L891.27 487.26L912.76 469.7L925.36 459.34L928.44 456.67L939.86 448.04L945.31 443.63L954.46 436.77C956.51 435.23 958.9 433.74 960.86 432.06L976.45 418.66L984.74 410.99C989.56 406.53 1007.88 388.44 1014.43 395.45C1016.96 398.16 1019.18 402.21 1021.05 405.76L1025.89 414.94C1026.58 416.25 1028.02 419.38 1027.39 420.54L1017.39 426.53C1015.21 427.84 1012.44 430.34 1010.47 431.32C1007.66 432.71 1004.31 433.92 1001.68 435.69L989.57 443.81L974.78 454.73L957.12 468.1L946.46 475.59L925 490.79L915.47 497.6L906.4 503.2L893.1 511.87V511.89ZM891.64 560.71C889.39 568.3 882.6 573.76 874.52 576.21C869.18 577.83 862.56 575.91 861.49 570.11C860.24 563.35 858.07 557.19 854.57 550.84L866.73 542.43L873.27 538.19L889.72 527.76L894.57 524.69C898.76 533.71 894.41 551.37 891.64 560.71ZM821.62 547.69C823.67 546.41 826.18 544.31 828.38 545.85L840.23 554.15L829.37 562.5C825.59 565.41 822.1 568.15 817.07 569.44C813.98 564.43 810.96 554.34 815.39 551.57L821.62 547.69ZM817.86 518.57C818.25 513.6 822.03 511.45 825.28 508.3L827.2 506.44C827.7 505.95 829.12 507.27 829.05 507.98C828.78 510.56 821.96 516.65 817.86 518.57ZM833.33 500.8C835.98 496.03 840.86 489.83 845.35 485.45L852.97 478.03C855.8 475.27 868.98 463.67 871.3 462.74L883.58 457.79C887.25 456.31 890.42 456.95 893.79 458.53L907.96 465.15L892.27 477.56L882.65 485.76L869.43 497.32C865.31 500.92 862.59 504.82 857.07 506.43C850.94 512.08 840.72 518.3 831.81 522.99L836.99 514.95C842.64 506.17 832.06 503.09 833.33 500.81V500.8ZM835.39 536.04L840.83 531.48L849.08 540.52C849.12 541.36 847.38 543.13 846.48 543.14C845.41 543.16 843.25 542.32 842.4 541.64L835.38 536.04H835.39ZM803.91 567.95L793.8 574.08L800.1 565.98L801.98 563.4C802.4 562.82 804.72 563.72 804.86 564.43C805.05 565.31 804.76 567.43 803.91 567.95ZM296.49 129.87C302.92 113.34 302.47 118.89 303.57 99.9698L332.79 97.8198L347.61 96.7298L359.81 96.1098L372.64 95.4898C371.76 104.94 370.92 108.17 366.86 117C353.78 133.11 337.86 141.51 333.18 163.45C330.06 178.06 330.39 188.43 335.72 202.72C336.78 205.57 338.31 207.6 340.95 209.42C344.83 212.09 348.62 216.66 353.29 217.85C358.3 219.12 364.39 219.47 369.41 218.99L375.73 218.39C381.31 217.86 387.44 217.7 392.58 218.48C398.85 219.43 400.44 223.81 401.35 228.78C402.88 237.1 402.58 244.76 398.1 252.61C394.27 244.76 383.37 238.92 374.3 239.01C368.54 239.07 362.6 238.44 356.84 239.4C351.57 240.27 333.21 244.58 330.21 241.38C328.38 239.42 333.18 230.04 329.53 222.16L325.72 220.49C325.1 215.72 324.19 210.74 322.48 206.64L314.78 188.22C313.47 185.1 309.8 181.6 307.83 178.64C303.84 172.66 298.64 169.22 292.52 165.75C287.58 157.46 292.98 138.95 296.5 129.88L296.49 129.87ZM303.37 250.31C301.48 253.3 298.04 256.63 295.37 259.3C281.8 272.84 261.63 278.42 243.11 272.84C235.66 270.59 230.58 266.42 225.29 262C219.81 257.41 216.92 252.07 214.5 245.28C211.82 237.75 209.52 225.2 211.95 217.65C218.05 198.73 215.63 198.64 230.08 184.87C237.54 177.76 245.63 173.72 255.72 170.4C259.51 169.15 264.18 171.11 268.1 171.9C273.66 173.02 279.64 173.21 284.54 175.75C296.57 181.99 305.81 190.67 310.44 203.81C315.49 218.13 311.49 237.47 303.37 250.32V250.31ZM188.42 110.04C197.97 109.25 194.05 105.39 203.05 106.14C213.87 107.03 216.84 104.77 226.61 104.69C230.21 104.66 247.24 103.85 249.6 103.49C256.14 102.48 261.88 102.41 268.42 101.96L277.66 101.31L289 101.21C291.16 115.13 286.97 118.61 283.45 133.47C282.23 138.6 281.3 154.25 282.85 161.41L266.69 159.61L259.32 158.79C251.04 157.87 243.03 161.49 235.24 164.08C231.39 165.36 229.03 167.63 226.06 170C221.66 173.5 218.71 177.03 215.53 181.91C206.61 195.6 209.43 193.09 201.9 207.73C196.29 218.64 195.5 231.28 197.71 243.67L198.26 246.76C197.79 244.11 196.04 254.94 195.47 238.28L194.87 220.54L192.05 168.65L190.76 149.67L188.74 124.73C188.33 119.71 188.07 115.03 188.42 110.05V110.04ZM185.28 316.93L169.88 333.67L148.72 356.82L138.51 367.81C131.37 365.3 131.27 360.46 121.5 356.51C124.67 352.56 127.8 348.16 131.14 344.73C141.38 334.23 151.58 324.21 161.11 312.98L173.97 297.82L190.32 279.56C191.34 278.43 194.09 282.17 195.24 283.24L205.6 292.92C203.35 296.75 200.22 299.77 197.22 303.22L185.29 316.93H185.28ZM211.87 720.21L204.65 726.01L193.28 735.69L164.2 758.42L132.08 786.99C116.44 786.4 110.91 780.98 105.6 767.2C101.43 756.37 105.8 750.33 105.22 736.6C104.49 719.05 104.1 724.27 96.31 709.06C87.61 704.02 84.48 696.36 84.64 687.17C84.76 679.85 87.76 675.65 91.15 669.65L98.05 657.43C99.8 654.33 102.19 648.85 102.42 645.44L103.48 629.17C103.67 626.3 101.91 620.53 100.77 617.97C94.05 602.86 84.77 604.19 88.82 587.67C91.05 578.6 95.15 571.12 101.54 564.12C107.74 557.33 101.2 555.49 124.97 555.78C134.06 555.89 142.62 557.08 151.37 557.48L159.95 557.87L176.72 559.13C184.01 559.68 190.77 561.05 197.8 562.67L210.92 565.7L221.77 567.97L254.71 574.25C262.06 575.65 269.19 575.78 276.52 576.54L286.66 577.59C288.96 577.83 291.53 577.83 293.82 577.89C297.62 578 301.55 580.12 305.75 577.66C297.29 573.27 300.04 575.79 291.72 573.55L278.23 569.91C278.24 566.44 277.71 562.78 276.71 559.32L270.17 536.89C266.53 524.42 269.7 525.84 267.27 516.06L264.8 506.09L262.36 494.55L259.31 478.34C258.41 473.53 255.83 468.02 258.41 462.88C262.12 455.47 275.26 452.38 281.29 458.57C285.74 463.13 282.23 472.52 277.87 475.09C277.13 475.53 274.13 475.63 273.41 475.25C270.87 473.9 269.83 467.06 272.32 462.63C272.39 461.44 269.45 459.71 268.24 459.89C266.83 460.1 264.4 461.48 263.38 463.03C260.14 467.95 263.13 479.29 268.1 482.47C275.21 487.01 284.69 482.47 289.51 475.3C290.9 477.3 291.32 479.69 291.94 482.29C293.42 488.49 295.39 494.32 297.46 500.45C298.52 503.57 302.18 505.67 304.88 505.16C308.07 504.55 311.29 501.13 310.79 497.3L306.71 465.94C317.39 469.4 323.49 471.82 332.5 463.48L337.75 458.61C338.6 461.51 338.57 464.17 338.54 467.29L338.41 480.4C338.34 487.65 339.89 503.22 350.37 501.86C352.55 500.62 355.8 496.01 355.79 493.57L355.75 478.28C355.75 475.31 356.22 472.6 356.97 469.55C363.69 479.82 380.44 478.18 389.39 468.95C388.24 477.38 387.48 484.94 386.88 493.1L386.28 501.36C385.95 505.8 385.95 510.8 385.24 515.09C383.99 522.63 383.56 530.37 381.96 537.33C380.27 544.68 377.46 552.34 379 560.33C379.17 561.2 378.47 563.89 379.34 564.08L384.14 565.12C387.23 565.79 391.33 563.52 393.9 562.46L442.32 566.82C454.85 567.95 466.75 570.34 478.81 573.57C472.5 582.38 471.51 590.82 473.13 600.78C467.61 602.27 462.37 602.97 456.76 603.22C460.58 596.55 461 588.33 458.01 581.97C454.36 577.02 449.13 574.84 443.56 574.72L435.26 574.54C431.83 574.46 428.12 577.76 425.24 579.99C418.75 585 415.73 594.42 421.52 601.4C424.68 605.21 431.3 606.2 436.15 604.68C438.09 604.07 440.24 599.21 438.99 597.76C436.45 594.8 431.67 596.41 428.21 595.47C426.81 592.99 429.35 589.4 431.14 588.14C437.29 583.79 446.59 587.87 447.6 589.19C450.22 592.61 450.44 598.27 448.05 602C443.07 609.77 435.78 609.12 429.67 610.71L414.7 614.6C412.07 615.28 409.85 615.21 407.37 615.77L379.97 621.95C366.6 624.96 359.08 629.2 342.89 629.86C343.86 626.48 354.72 617.33 352.5 615.56C349.15 612.88 346.08 616.54 344.16 619.13C341.96 622.11 338.09 624.33 334.93 626.47C328.9 630.55 323.68 634.96 318.09 639.44C303.04 651.5 290.87 659.32 276.38 670.92L256.92 686.51C252.67 689.91 248.92 693.13 244.15 695.73C237.11 699.57 231.83 706.15 225.33 710.47C220.57 713.64 216.33 716.63 211.85 720.23L211.87 720.21ZM255.84 439.67C266.96 438.67 265.92 434.37 277.26 432.56L282.66 448.89L274.66 446.85C267.9 447.71 263.44 450.86 256.12 455.61L253.74 443.4C253.55 442.42 254.95 439.75 255.84 439.67ZM252.77 432.27C252.77 425.66 251.92 410.52 258.01 407.75C262.45 405.73 269.83 417.02 272.15 422.14L263.43 427.07C259.94 429.04 257.68 430.22 252.76 432.27H252.77ZM319.96 415.85L334.71 411.41C337.03 420.13 337.15 428.35 337.59 436.96L338.01 445.27C335.34 442.85 333.38 441.5 330.6 440.35C322.69 437.06 317.27 442.77 315.6 446.77C315.18 447.78 316.84 450.23 317.88 450.64C320.52 451.7 326.97 445.9 329.37 449.97C330.67 452.17 330.13 455.33 328.44 456.92C324.44 460.68 320.5 460.77 315.21 459.25C309.24 457.54 307.88 452.03 309.57 446.43C312.1 438.08 311.11 444.36 314.78 437.8C317.46 433.02 305.63 441.11 305.14 440.29L305.2 423.14C305.2 420.49 305.92 416.91 306.6 414.49C311.1 415.31 316.21 416.98 319.97 415.85H319.96ZM308.02 405.8C308.25 398.18 311.03 390.81 316.8 385.67C319.26 383.48 322.82 383.28 325.16 386.07C326.51 387.68 329.26 391.11 329.77 393.09L332.29 402.89C325.01 406.1 316.74 408.52 308.02 405.8ZM395.1 410.37L393.21 424.9L392.03 435.34L382.61 431.15C379.61 429.82 375.95 430.13 373.52 431.71C372.75 431.3 370.61 430.07 370.46 430.81L369.82 433.95C369.67 434.69 372.15 434.01 373.24 433.68L378.12 435.92C381.03 436.53 386.04 437.27 387.01 440.77C389.6 450.03 389.16 457.53 381.74 463.67C379.38 465.62 372.33 467.13 369.88 465.41C366.17 462.77 368.33 456.15 370.61 453.37L379.87 455.64C382.61 453.17 382.87 447.29 379.13 444.9C376.49 443.22 371.13 441.19 368.06 441.86C364.37 442.66 361.88 445.8 358.51 448.08C358.95 443.22 359.84 438.65 360.79 434.12L364.16 418.09C365.25 412.92 366.4 407.82 368.25 403.46C379.61 411.08 379.82 413.43 395.1 410.37ZM369.55 394.18C378.05 381.24 373.89 384.25 385.03 375.81C389.09 372.73 394.11 376.5 395.2 380.84C398.06 392.23 397.72 384.95 396.55 397.91C383.23 400.14 382.2 399.59 369.56 394.19L369.55 394.18ZM518.91 790.01C518.82 790.65 517.03 792.03 516.44 791.78C512.21 790.07 512.61 785.63 508.15 777.53L501.45 765.33L493.94 750.86C492.27 747.65 490.68 744.93 489 741.8L481.24 727.39C478.67 722.61 475.62 718.61 474.11 713.35C472.37 707.29 470.63 701.32 468.23 695.56L463.97 685.32L459.36 674.17C458.82 672.85 458.04 670.9 458.05 669.84C458.06 668.6 461.35 667.01 462.17 667.4L468.51 683.32L480.7 712.71L491.08 736.44C494.4 744.02 498.48 750.9 502 758.39L505.48 765.8C506.92 768.86 509.22 771.71 510.84 774.58C513.34 779 515.04 783.3 518.18 787.39C518.58 787.92 519.02 789.37 518.93 790.01H518.91ZM468 663.23L477.08 657.88L485.08 677.26L506.6 727.7L517.2 753.99C519.58 759.88 522.66 765.24 525.07 771.07L530.53 784.3L526.13 785.56C523.6 776.98 519.39 770.62 515.08 762.91L505.18 745.19C502.72 740.78 500.59 735.94 498.38 731.43L492.08 718.59L480.92 696.05C474.8 683.69 474.93 676.38 468.01 663.23H468ZM533.03 789.29L540.25 806.97L539.38 813.7C539.26 814.62 536.69 815.9 535.81 815.69C532.42 814.89 527 809.17 524.05 804.46L519.98 797.96L533.02 789.28L533.03 789.29ZM554.14 715.72L558.23 700.89L570.4 653.01L580.4 615.96C582.04 609.89 583.32 604.25 584.5 597.92C585.14 594.5 586.53 590.82 587.45 587.27L588.42 583.51C588.67 582.54 592.23 583.54 592.58 584.26C590.01 592.1 589.04 600.82 587.83 609.07L584.78 630C584.11 634.59 582.85 639.5 581.93 644.12L578.98 659.07L574.78 680.81C574.22 683.71 573.32 687.18 572.31 690.53L564.42 716.68L554.12 715.72H554.14ZM589.85 577.04L594.66 558.6L599.7 553.64C605.04 551.39 606.43 564.94 606.34 565.97L605.22 578.32L589.85 577.03V577.04ZM591.85 656.64C591.09 660.44 590.05 663.87 589.42 667.55C589 670.04 588.49 672.49 587.75 674.69L581.05 701.72L577.92 714.01C577.49 715.71 576.73 717.54 575.85 718C574.97 718.46 572.25 717.54 571.94 716.86L576.67 700.02L584.8 669.25L591.33 642.92C592.23 639.3 597.48 610.29 597.84 607.01C598.15 604.2 598.1 601.4 598.9 598.63C601.88 588.4 599.09 594.19 600.54 585.76C600.67 584.97 604.01 585.04 604.27 585.8C605.04 588.11 603.79 592.89 603.32 595.67L599.5 618.41L591.85 656.65V656.64ZM765.28 673.22C764.94 681.36 764.55 689.9 757.92 696.28C752.56 697.35 745.23 697.52 739.32 697.84L732.4 698.21L716.32 699.1L706.58 699.74L688.05 700.66L642.02 702.6L618.06 703.73L599.58 704.6C599.04 696.5 604.25 687.56 606.57 677.27C609.1 666.02 612.33 657.58 614.77 645.05L617.88 651.48C623.54 663.18 633.61 658.43 637.82 662.61C639.76 664.53 638.77 672.48 635.51 673.67C628.56 676.22 627.39 667.27 619.89 670.82C617.76 671.83 617.55 676.83 619.43 679.15C624.59 685.53 632.52 684.1 638.68 680.53C643.26 677.87 645.08 675.69 645.85 670.04C646.5 665.21 647.08 657.2 640.79 655.13L627.02 650.61C625.61 650.15 624.28 646.26 624.82 644.93C626.88 639.85 633.82 644.03 637.37 638.94C634.98 636.94 632.26 634.63 630.14 633.87C624.76 632.67 620.62 636.25 616.62 640.01C617.41 625.96 621.38 622.22 621.23 607.37C621.16 600.39 621.39 593.42 620.39 586.2L613.49 536.3C612.97 532.53 613.5 529.94 610.33 527.31C609.24 526.41 607.22 524.98 606.06 525.02C601.59 525.17 595.64 540.52 590.22 547.04C584.65 553.73 581.42 560.13 579.48 568.65L576.23 582.9C575.17 587.56 573.51 592.53 572.78 597.09C571.83 603.07 570.93 608.12 569.51 613.79L564.46 633.96C562.56 641.54 560.82 643.95 559.2 652.49C557.59 660.98 556.05 668.92 553.72 677.12C550.5 688.47 549.35 697.35 546.97 706.24C546.65 707.43 543.23 707.53 541.96 707.57L530.66 707.9L522.34 708.02C520.56 705.13 518.74 700.68 517.58 696.99L514.61 687.52C513.02 682.46 510.09 679.33 507.88 674.78L501.35 661.31C499.22 656.91 492.6 657.26 488.43 660.34C486.03 654.79 481.52 644.44 474.12 648.38C468.51 651.37 463.34 653.57 457.39 656.43L446.84 661.5C445.72 666.37 445.91 671.64 447.85 675.84L464.27 711.46L449.15 712.05C444.12 712.25 439.82 712.56 434.44 712.46C430.61 712.39 425.84 713.25 421.75 713.54C412 714.24 402.68 714.3 392.97 714.74L349.28 716.72L325.08 717.73L316.13 718.09L306.57 718.56L288.55 719.32L266.78 720.42L247.97 721.24C244.98 721.37 242.89 721.79 239.7 720.98C241.09 718.64 242.66 716.16 244.6 714.98C253.85 709.37 261.46 703.04 269.08 695.46C273.15 691.41 277.64 688.29 281.91 684.57L304.92 664.54L317.25 653.66L329.39 641.93C332.78 643.81 335.98 644.7 339.2 644.13L365.8 639.39L376.91 637.41L386.77 634.85L417.19 629.66L440.1 624.99L447.31 623.58L453.75 621.66C458.19 620.33 462.58 619.71 467.02 618.97L474.27 617.76C494.23 614.42 496.35 613.51 514.85 605.24L522.29 595.73C525.35 591.82 525.78 584.11 521.78 579.59C513.19 569.9 499.84 566.26 487.43 562.97C468.18 557.87 441.55 558.05 421.2 557.67L396.07 557.19C398.31 549.4 403.13 518.88 403.02 512.48L402.85 502.1L404.06 483.5L406.07 466.33C407.32 455.67 406.38 455.49 407.41 444.19C408.21 435.39 406.97 426.27 408.19 417.56L410.54 400.73C412.34 387.86 411.22 367.62 396.32 362.63C389.72 360.42 378.85 362.15 373.54 367.29C351.59 388.57 360.11 388.32 349.75 414.98C346.85 410.99 346.57 407.1 345.42 402.71L342.46 391.49C340.86 385.41 330.4 371.92 321.64 372.19C318.59 372.28 313.63 372.79 311.7 374.36C302.65 381.73 298.67 392.09 296.77 402.95L294.26 417.3C292.07 429.81 294.09 433.58 292.82 437.1C292.58 437.78 291.05 435.96 290.66 435.16L283.95 421.38C279.79 412.83 273.78 404.16 264.91 400.55C258.06 397.76 251.93 400.78 249.12 406.67C244.45 416.45 243.35 426.5 244.56 437L247.71 464.46C248.4 470.51 247.3 476.37 248.89 482.62C249.89 486.57 250.36 491.48 251.17 495.67L254.42 512.35L256.97 521.74L260.42 535.39C262.14 542.21 264.72 547.66 267.61 553.65C270.39 559.43 271.54 565.26 276.5 569.62L260.6 566.23L230.73 558.91L212.57 554.15C208.83 553.17 207.6 551.02 207.51 547.26L207.09 529.57L206.98 519.85L206.76 516.13L205.99 497.23L205.45 481.28L204.31 450.18L202.92 419.36L201.18 374.78C201.08 372.34 201.06 370.07 200.98 367.46L199.99 333.45C202.74 328.72 207.03 323.75 210.42 319.49L220.11 307.32C229.15 310.41 238.65 306.37 243.66 298.77C247.57 292.82 252.77 292.72 259.15 293.72C272.98 295.88 297.35 286.82 305.98 278.37C320.27 264.38 313.53 276.27 325.66 254.83C329.13 255.42 333.62 256.78 337.02 256.32L363.81 252.71C369.66 251.92 381.6 252.43 387.54 256.45L387.23 266.43L387.25 278.25C387.25 282.91 389.22 287.94 390.16 292.71C391.97 301.91 396.37 307.14 403.48 313.59C414.44 323.53 417.31 329.15 435.78 331.1L458.82 333.53C463.23 334 469.13 335.73 473.36 336.48C474.47 336.67 476.66 338.07 477.69 338.47C482.68 340.42 487.1 344.15 490.52 348.48C494.43 353.43 495.78 358.38 497.09 363.93C498.91 371.67 496.76 375.57 493.49 382.16L484.8 399.65C481.07 407.15 477.89 414.98 477.18 423.08C475.82 438.51 478.99 454.48 483.69 469.09C486.04 476.4 490.68 481.77 495.33 487.4C498.88 491.69 502.13 496 506.77 499.11C511.6 502.34 521.73 508.62 526.68 510.38C544.35 516.68 557.6 521.24 576.47 518.4C594.21 515.73 610.42 507.21 622.6 494.56C627.43 489.55 631.4 484.67 635.5 479.42C641.52 471.73 643.68 466.98 648.54 461.32C661.24 446.53 654.74 453.02 669.78 444.08C673.51 441.86 677.14 444.72 680.31 446.6C684.74 449.23 690.8 453.07 690.49 459.42C689.99 469.59 688.54 479.48 686.8 489.53C686.09 493.67 682.83 497.3 681.19 500.76C678.94 505.48 677.22 510.35 675.23 515.38C672.26 522.87 668.07 530.17 666.58 538.1C664.14 551.1 666.43 571.85 671.29 583.2C680.75 605.25 685.51 609.54 704.52 624.68C718.57 635.88 720.23 633.92 738.03 639.36C748.36 642.52 755.32 648.96 761.15 657.51C764.52 662.46 765.59 666.82 765.32 673.25L765.28 673.22ZM486.59 576.07C493.2 576.81 504.87 580.92 508.39 587.68C502.67 592.76 496.14 595.81 488.73 595.97C483.91 593.29 484.54 580.94 486.6 576.07H486.59ZM1029.34 683.69L976.22 686.34L951.23 687.58L930.14 688.63L918.02 689.42L892.88 690.47L875.17 691.35L860.3 692.26C857.56 692.43 854.98 692.28 852.23 692.43L832.73 693.52L824.2 693.91L806.53 694.62L798 695.02L781.51 695.85L773.13 696.83C782.49 681.64 777.77 681.22 779.04 668.02C779.81 660.06 776.95 652.18 772.7 645.87C768.24 639.24 764 633.5 756.94 629.57C753.8 627.82 750.78 625.95 747.23 625.11C744.65 624.5 740.98 622.56 738.81 622.22C724.81 620.05 723.22 617.6 711.66 610.03C709.26 608.46 707.49 607.05 705.64 605.01C702.01 601.01 698.53 597.8 694.53 593.83C692.59 591.91 691.34 587.54 689.91 584.88L684 573.9C682.05 570.27 682.83 563.72 681.67 559.73C676.94 543.37 686.36 528.13 691.88 514.41L698.66 497.57C703.44 485.7 707.24 459.16 701.98 447.05C696.35 434.08 675.9 422.78 660.27 432.26C655.97 434.87 651.08 436.95 647.74 440.57C636.61 452.63 645.63 440.07 632.45 458.55L624.2 470.12C616.49 480.94 605.88 490.74 594.3 497.39C577.91 506.81 562.74 506.24 544.9 501.31C538.27 499.48 532.36 497.4 525.98 494.04C498.14 479.38 488.63 450.61 490.58 421.23C490.74 418.85 492.64 414.39 493.54 412.31L497.17 403.96L506.11 384.92C513.33 369.55 509.22 369.02 508.39 357.36C507.62 346.58 492.78 331.03 485.19 327.68C480.51 325.62 475.67 322.88 470.8 322.22L463.2 321.18C455.01 320.06 446.95 319.23 438.63 318.6C428.8 317.85 425.39 317.03 418.96 311.17L413.01 305.75C405.03 298.48 398.98 286.37 402.2 288.41C407.83 291.99 406.49 296.62 422.42 300.28C426.09 301.12 429.66 301.56 433.38 301.4L458.01 300.31C471.85 299.7 486.3 302.95 496.94 312.01C512.04 324.86 518.89 330.01 526.19 349.64C525.91 363.24 522.75 371.45 514.44 382.18C502.61 397.45 499.29 415.82 506.57 434.14C512.32 448.63 509.09 449.85 523.61 461.26C532.37 468.14 530.56 468.97 539.23 472.83C552.13 478.58 566.42 482.81 580.01 479.12C587.72 477.03 593.41 472.74 599.17 468.07C603.77 464.34 608.06 460.89 610.88 455.99C613.96 454.73 615.74 452.19 618.04 449.9C623.36 444.61 628.2 439.56 632.7 433.8L642.77 420.89L648.27 413.34C652.01 408.2 657.63 405.82 663.45 403.3C667.97 401.34 673.1 400.58 678.19 399.79C686.31 398.53 694.38 399.56 701.86 403.05C706.03 405 711.47 406.72 714.37 410.18L719.64 416.46C724.45 422.2 727.57 434.36 727.81 441.63C728.18 452.85 722.71 463.08 718.56 473.16C716.23 478.82 715.2 484.24 713.7 490.05C710.05 504.2 709.89 524.37 713.94 538.53C715.23 543.03 718.68 546.97 721.57 551.07C730.52 563.75 734.46 554.7 742.21 565.69C752.72 580.61 746.5 590.31 760.69 598.97C765.53 601.93 770.06 602.12 774.75 598.23C777.48 595.96 781.72 594.31 784.69 592.33L797.85 583.58C801.48 581.17 803 577.25 808.98 577.18C814.57 592.98 812.86 594.1 820.26 611.49C822.99 617.9 830.18 621.19 836.26 623.4L856.64 630.82C864.99 633.86 872.64 637.75 880.4 642.19C886.99 645.96 894.08 647.87 900.86 650.79L917.49 657.95C926.45 661.81 933.27 664.16 940.29 664.48C940.66 664.58 941.05 664.65 941.49 664.66C942.46 664.68 943.42 664.59 944.36 664.43C948.78 664.14 953.43 663.05 958.88 661.01L974.42 655.19C981.02 656.72 988.01 659.59 994.08 662.42C1005.45 667.72 1022.39 674.35 1034.2 678.25C1037.74 679.42 1040.49 680.59 1045.03 682.62C1039.98 684.67 1034.89 683.44 1029.38 683.72L1029.34 683.69ZM1222.61 699.3C1221.69 706.66 1209.66 725.42 1203.06 729.13C1200.12 727.95 1196.16 726.56 1193.81 725.32C1189.05 722.8 1184.85 721.05 1180.01 718.66L1168.39 712.9L1158.45 708.94C1148.19 704.85 1143.74 703.8 1132.88 699.26L1123.34 695.28L1112.89 691.34L1089.38 681.85L1057.56 670.61L1020.43 657.28L1007.71 652.53C1004.55 651.35 1001.21 649.16 997.92 648.2C994.85 647.3 992.34 646.1 990.25 644.14C991.1 641.87 990.39 639.16 987.34 638.64C979.25 637.28 972.24 639.85 965.03 643.39C961.06 645.34 957.21 647.52 953.41 649.8C951.34 651.04 949.05 652.86 946.65 654.14C937.42 655.57 929.82 652.7 912.11 645.05C904.62 641.81 896.34 640.04 889.42 636.25L878.23 630.12C866.71 623.8 860.44 622.04 849.51 616.02C855.84 612.21 859.54 609.46 861.6 603.36C864.15 595.82 858.19 588.59 850.97 586.42C845.74 584.84 841.27 584.26 837.41 587.92C834.1 591.06 830.98 596.09 834.55 601.28C838.15 601.04 842.63 598.78 845.85 596.53C847.53 595.36 852.19 597.43 852.74 599.56C849.77 608.09 841.8 606.07 834.12 605.55C828.22 598.07 830.24 587.79 836.61 581.75C837.41 580.99 836.6 578.08 835.85 577.29C835.11 576.5 832.26 576.28 831.32 577.05L821.91 584.7L820.5 577.64C825.03 576.34 829.59 574.87 833.08 572.22L846.19 562.29C848.7 565.96 848.66 570.72 849.7 574.71C852.9 587.06 866.59 590.57 877.61 587.99C882.9 586.75 886.3 585.81 890.25 582.42C896.06 577.43 900.92 571.88 903.07 564.13C904.25 559.88 905.99 555.05 906.4 550.86L907.99 534.91C908.49 529.89 906.02 523.92 905.42 518.5C914.63 511.6 925.05 504.54 933.93 499.65L935.87 525.08C936.62 527.41 941.91 528.07 944.11 527.12C947.08 525.84 948.63 523.95 949.01 520.48C951.34 499.37 943.55 497.41 943.3 493C943.05 488.59 951.28 490.95 954.87 490.63L969.49 489.34C969.59 497.65 969.21 503.26 968.74 510.34L967.69 526.16C969.22 529.08 975.22 531 978.3 529.61C980.84 528.46 981.67 524.81 981.73 522.34L982.21 502.22C982.34 496.83 981.33 490.8 982.75 485.83L995.41 479.96C1004.14 486.69 1009.12 501.33 1009.91 511.46C1010.53 519.4 1009.6 526.05 1006.58 533.74C1005.63 536.17 1005.7 540.58 1004.88 543.11L997.67 565.36L990.62 568.69C979.11 574.12 984.2 573.96 976.32 577.89C975.85 578.12 977.1 580.51 977.71 580.26L994.93 573.27L1023.62 563.58L1079.52 547.08L1090.24 543.23L1102.85 540.02L1118.69 535.57L1137.47 529.99L1152.64 526.18L1174.89 520.33L1192.25 515.99L1205.01 513.15C1205.83 512.97 1208.21 513.31 1208.85 513.75C1209.65 514.29 1209.89 516.45 1209.56 517.42C1202.19 538.99 1199.74 539.18 1207.91 561.15L1211.48 570.73C1217.86 587.89 1231.01 600.81 1216.82 616.2C1213.1 620.24 1210.83 625.93 1208.66 630.81C1203.9 641.51 1205.73 650.32 1210.74 660.42C1213.85 666.69 1216.44 673.42 1220.07 679.84C1223.25 685.47 1223.45 692.56 1222.61 699.33V699.3Z" fill="black"/>
</g>
<defs>
<clipPath id="clip0_177_855">
<rect width="1316.75" height="841.83" fill="white"/>
</clipPath>
</defs>
</svg>
