<svg xmlns="http://www.w3.org/2000/svg" viewBox="0 0 72.193 67.541"><g data-name="Layer 2"><path d="M71.1 24.53c.2 5.533 0 10.039.738 14.563a58.4 58.4 0 0 1 .252 10.327 8.156 8.156 0 0 1-8.245 8.28q-8.164.193-16.333.167a9.48 9.48 0 0 0-5.538 1.7c-3.625 2.375-7.459 4.449-11.3 6.468a10.64 10.64 0 0 1-4.609 1.5c-1.895.059-3.267-1.713-2.642-3.139a26 26 0 0 0 1.185-3.596c.063-.23-.228-.792-.409-.818-1.785-.25-3.458-1-5.329-.933-3.081.111-6.171-.045-9.255.005a10.09 10.09 0 0 1-8.461-4.118A4.52 4.52 0 0 1 .04 51.948a61 61 0 0 1 .131-7.071c.76-5.528.216-11.026.05-16.541-.147-4.9-.121-9.8-.164-14.7C.012 8.592 2.434 5.051 6.765 2.7c.461-.25 6.076-.864 8.307-1.441A14.8 14.8 0 0 1 18.305.94a40 40 0 0 0 5.361-.657c4.3-.712 19.972.136 21.031.2 4.673.287 9.352.559 14.003 1.05 1.951.206 3.829 1.023 5.771 1.41A8.04 8.04 0 0 1 68.2 5.061 5.28 5.28 0 0 1 70.123 8.8c.237 2.866.766 5.71.942 8.578.167 2.715.035 5.445.035 7.152M32.543 6.629c-2.9 0-5.8-.019-8.7.005-4.335.035-8.667-.1-12.943 1.008a6.575 6.575 0 0 0-5.285 5.983c-.049.723-.042 1.449-.041 2.174q.027 11.15.066 22.3c.018 3.989.1 7.978.1 11.967a3.71 3.71 0 0 0 2.638 3.682 8.25 8.25 0 0 0 3.161.631c3.082.055 6.17.283 9.244.155 2.939-.123 5.742.575 8.6.955 1.462.194 1.9 1.066 1.933 3.216.013.848.553 1.35 1.177 1.009a39 39 0 0 0 4.651-2.727 12.33 12.33 0 0 1 5.945-2.47c4.474-.491 8.911-1.5 13.468-1.189 1.8.123 3.628-.073 5.438-.008 2.091.075 5.171-2.693 5.1-6.655-.361-.871.411-7.246-.293-9.58A14.2 14.2 0 0 1 66.6 33.3c-.074-4.9-.225-9.794-.15-14.689a40 40 0 0 0-.91-6.959 3.25 3.25 0 0 0-2.8-2.854c-5.632-1.4-11.4-1.717-17.14-2.107-4.337-.298-8.7-.061-13.057-.062m29.774 28.622c0 2.606.058 5.148-.015 7.686-.08 2.766-1.986 5.5-4.576 6.008-2.466.481-4.873 1.36-7.468 1.254-2.535-.1-5.081-.012-7.62.066a68 68 0 0 0-10.244.691 21.84 21.84 0 0 1-10.764-.415 8.9 8.9 0 0 0-2.668-.433 5.82 5.82 0 0 1-5.224-3.364c-1.666-3.016-3.075-6.184-2.825-9.768.2-2.874.032-5.738.737-8.631a18.4 18.4 0 0 0-.026-7.567 5.52 5.52 0 0 1 4.125-6.585c2.452-.531 4.93-1.035 7.427-1.432 6.664-1.058 13.353-.834 20.033-1.086a15 15 0 0 0 3.187-.5c4.065-1.033 7.908-.034 11.538 1.756 2.979 1.47 4.775 3.753 4.454 7.374a94 94 0 0 0 .422 9.634 26 26 0 0 1-.493 5.312m-25.94 10.384v-.051c3.994 0 7.989-.063 11.982.025a22.5 22.5 0 0 0 6.39-1.114 2.08 2.08 0 0 0 1.574-1.361c1.323-4.375 2.178-8.9 1.25-13.375a38.3 38.3 0 0 1-.756-9.144 3.945 3.945 0 0 0-3.017-4.048c-4.023-1.057-8.141-1.969-12.3-.735a14.7 14.7 0 0 1-4.833.568 75.5 75.5 0 0 0-16.2 1.119 4.336 4.336 0 0 0-3.9 3.857A21 21 0 0 0 16.5 24.1c.041 4.9.3 9.814.071 14.7-.157 3.313 1.334 5.006 4.112 6.2a9.2 9.2 0 0 0 3.711.629c3.994.017 7.989.006 11.983.006m-8.669-15.047a4.6 4.6 0 0 1-1.381-.259 2.2 2.2 0 0 1-1.1-1.038 4.894 4.894 0 0 1 3.761-6.5c1.635-.27 4.269 1.4 4.633 2.977a2 2 0 0 1-.09 1.043c-.996 2.976-2.395 3.906-5.823 3.777m3.449-4.025a3 3 0 0 0-.244-.479 1.42 1.42 0 0 0-1.844-.607 3.55 3.55 0 0 0-2.169 2.238c-.019.075.209.262.353.318a2.9 2.9 0 0 0 3.452-.553 3.4 3.4 0 0 0 .452-.917m9.213 1.056c.117-2.332 1.556-4.359 3.333-4.817a3.4 3.4 0 0 1 3.492.71 3.99 3.99 0 0 1 .684 4 4.44 4.44 0 0 1-6.7 1.593 4.1 4.1 0 0 1-.809-1.486m5.306-1.685c-.22-.233-.414-.63-.664-.669a2 2 0 0 0-2.1 1.771.874.874 0 0 0 .966.93 1.83 1.83 0 0 0 1.798-2.032M30.947 36.693a1.33 1.33 0 0 0 .171 1.01 5.67 5.67 0 0 0 5.074 2.59 4.79 4.79 0 0 0 4.686-3.087 1.15 1.15 0 0 0-.025-.935 1.12 1.12 0 0 0-.905-.438 7 7 0 0 0-1.955.835 3.416 3.416 0 0 1-4.776-.458c-.306-.306-.993-.23-1.423-.314-.364.324-.75.511-.847.797" data-name="Layer 2 Image"/></g></svg>