<svg width="559" height="749" viewBox="0 0 559 749" fill="none" xmlns="http://www.w3.org/2000/svg">
<g clip-path="url(#clip0_177_845)">
<path d="M376.56 463.55C431.66 359.29 576.62 473.27 494.49 551.43C484.79 562.52 454.97 567.26 483.08 551.41C492.4 537.5 501.76 521.76 502.92 504.52C502.02 467.02 455.56 425.86 419.46 449.77C390.04 465.69 396.62 515.16 358.18 518.41C319.94 523.85 163.21 524.24 142.34 494.14C110.48 443.98 120.4 383.09 117.03 327.29C104.39 190.9 209.67 217.74 305.26 219.65C336.65 222.38 368.9 223.17 399.38 231.49C421.31 244.16 407.84 280.88 428.2 294.43C443.34 300.44 449.86 273.94 462.53 273.17C479.46 317.75 399.32 344.82 395.1 272.19C398.64 239.92 366.62 245.93 343.22 243.15C326.23 243.25 306.25 237.57 289.16 238.36C179.51 228.22 127.27 224.65 139.19 352.94C140.06 391.16 137.99 437.54 156.23 472.4C164.26 496.71 195.54 488.02 215 494.17C250.61 494.61 290.87 498.97 326.26 494.88C349.44 496.38 372.12 489.43 376.56 463.55Z" fill="black"/>
<path d="M303.1 268.25C415.85 257.02 359.54 324.96 391.67 331.16C410.79 335.59 429.99 333.11 448.32 335.17C487.91 345.84 487.15 317.72 485.21 287C482.46 259.34 483.02 244.4 485.19 217.76C488.76 205.03 470.16 203.25 463.71 201.65C434.37 189.91 314.74 196.33 301.86 174.4C288.71 132.13 299.6 87.8097 298.95 45.0097C306.71 -1.23033 215.64 26.8097 189.06 25.9097C137.54 23.3797 193.84 106.48 148.92 104.77C135.66 92.8897 142.36 62.1797 140.78 46.2897C141.2 12.8997 169.78 -1.37033 199.77 1.12967C230.94 -2.01033 262.62 1.30967 292.25 10.9797C334.34 13.7997 311.82 109.26 320.89 141.62C314.46 190.5 500.14 148.4 511.54 201.27C519.48 213.28 510.24 228.09 511.41 241.55C510.3 260.79 510.96 289.13 511.23 308.64C514.67 382.32 434.19 357.18 386.97 353.91C314.55 336.08 412.54 284.23 293.33 288.13C166.89 284.64 213.07 273.3 303.1 268.23V268.25Z" fill="black"/>
<path d="M181.4 604.91C216.83 584.4 267.44 591.9 307.87 588.89C347.32 573.23 381.58 634.49 341.31 653.32C311.31 658.83 291.92 652.55 302.9 692.84C305.56 705.96 307.49 730.22 326.23 729.15C346.31 731.3 371.2 729.78 390.11 726.43C441.82 725.5 414.86 697.94 420.7 661.7C417.98 629.12 402.62 502.46 446.78 503.18C431.2 536.66 440.11 579.63 443.87 615.9C443.7 654.52 464.92 705.27 433.79 736.41C404.4 748.85 363.62 748.05 331.12 747.98C306.83 749.68 294.83 733.35 286.99 713.17C258.16 591.81 358.63 663.93 333.81 613.83C309.68 600.16 266.01 609.58 237.69 606.81C230.91 608.8 220.81 608.72 214.1 606.81C201.9 605.41 191.18 612.35 181.4 604.9V604.91Z" fill="black"/>
<path d="M57.41 364.76C55.7 339.34 59.34 306.35 55.36 281.78C37.9 285.46 -11.42 297.9 2.43001 267.67C20.13 250.8 66.59 290.53 59.38 245.19C65.72 166.63 119.44 183.15 175.49 161.65C228.81 142.1 216.38 110.69 234.4 70.5195C242.52 87.7095 238.33 110.07 238 129.13C231.93 187.95 161.02 197.2 114.45 207.32C64.89 212.45 88.18 333.91 85.03 370.89C83.14 405.33 57.84 396.24 57.42 364.75L57.41 364.76Z" fill="black"/>
<path d="M517.87 385.65C431.43 428.91 387.1 367.74 355.6 446.13C346.94 460.78 331.68 468.86 314.79 464.66C291.16 463.14 264.2 466.2 240.51 462.39C152.74 473.63 185.22 384.78 177.86 330.67C181.98 315.99 183.69 287.21 200.55 283.46C199.13 300.44 195.46 316.57 197.1 333.21C208.27 464.5 179.78 438.66 330.23 441.57C357 415.58 369.58 372.32 417.62 387.21C463.14 389.04 521.88 382.48 553.24 346.35C573.79 343.68 524.01 385.93 517.88 385.66L517.87 385.65Z" fill="black"/>
<path d="M362.73 682.86C377.89 685.95 376.18 594 378.38 581.03C377.67 542.68 303.09 565.02 284.11 552.31C296.79 544.74 318.02 546.03 333.36 544.41C376.16 539.46 397.39 551.62 390.43 595.31C396.91 633.48 414.51 707.44 354.83 706C331.72 711.22 321.18 690.87 345.45 683.52C349.38 683.67 358.72 683 362.73 682.85V682.86Z" fill="black"/>
<path d="M302.28 345.05C320.56 368.46 308.04 407.34 295.92 365.42C283.06 337.69 294.15 376.54 277.33 376.64C268.56 378.17 271.02 351.6 264.53 363.66C266.93 379.81 274.34 379.96 276.78 395.19C257.18 410.14 234.36 346.22 262.07 343.93C274.96 342.27 281.83 347.3 284.49 341.13C286.9 335.55 292.73 338.2 295.51 338.6C298.23 340.72 301.7 344.43 302.21 344.98C302.25 345.03 302.27 345.05 302.27 345.05H302.28Z" fill="black"/>
<path d="M322.23 322.52C300.25 320.08 336.41 306.75 320.8 299.88C302.01 292.01 290.35 317.76 297.87 333.18C297.87 333.18 297.87 333.18 297.87 333.19C297.99 333.43 298.11 333.67 298.24 333.9C298.4 334.24 298.51 334.53 298.61 334.8C298.89 335.23 299.13 335.69 299.3 336.18C299.74 337.41 302.15 338.29 303.22 338.86C304.61 339.61 306.02 340.03 307.44 340.5C335.43 342.8 323.11 337.49 324.02 360.5C350.77 373.74 352.87 316.43 322.21 322.5L322.23 322.52Z" fill="black"/>
<path d="M262.61 399.76C271.06 428.54 215.02 439.34 222.68 404.25C221.02 396.46 230.33 371.44 237.58 383.16C232.87 435.1 244.79 392.96 262.61 399.76Z" fill="black"/>
</g>
<defs>
<clipPath id="clip0_177_845">
<rect width="558.17" height="748.1" fill="white"/>
</clipPath>
</defs>
</svg>
