<svg width="556" height="724" viewBox="0 0 556 724" fill="none" xmlns="http://www.w3.org/2000/svg">
<g clip-path="url(#clip0_177_892)">
<path d="M552.42 476.05C555.72 462.7 556.25 423.21 554.7 413.8L552.33 399.4C551.28 393 550.9 386.26 549.54 379.91C547.56 370.6 546.82 362.25 546.14 352.68C545.84 348.46 543.11 343.34 542.04 339.1C539.54 329.13 539.02 320.82 536.37 312.23C534.01 304.59 531.55 296.83 528 289.78L522.38 278.64C518.7 271.34 514.81 263.49 509.32 257.28C502.3 249.34 494.82 242.18 487.07 235.1C483.16 231.53 477.95 229.83 474.55 225.62C472.46 223.02 469.95 219.82 467.08 218.34C461.55 215.48 456.83 212.62 451.66 209.46C448.38 207.45 444.88 205.83 441.71 203.52C439.15 201.64 436.59 199.87 433.95 198.31C424.72 192.87 432.97 185.04 436.15 175.73C438.61 168.52 446.35 173.32 452.93 171.25C470.79 165.64 472.35 171.75 482.68 165.57C492.66 159.6 494.72 165.39 503.7 158.8C510 154.18 517.23 154.33 526.55 146.16C529.34 143.72 531.03 140.05 533.37 137.15C535.26 134.82 538.2 132.41 539.2 129.69C541.36 123.82 543.43 118.83 546.53 113.44C547.48 111.78 548.79 108.73 548.85 106.76C549.02 101.23 549.69 95.5402 548.59 90.3202C546.54 80.5602 540.76 65.7902 535.75 57.3402C528.77 45.5302 523.3 42.1302 517.46 32.6802C514.88 28.4902 510.98 26.6202 507.1 23.9602C501.95 20.4302 497.34 16.6502 491.45 14.2602C487 12.4602 483.13 10.3402 478.76 8.05017C476.47 6.85017 473.01 6.46017 470.38 5.67017C461.87 3.12017 451.11 0.510173 442.39 0.560173C430.34 0.630173 424.14 -0.259827 411.66 0.120173L395.12 0.620173C391.17 0.740173 369.53 7.98017 365.17 10.3502C343.79 21.9602 357.24 17.8402 342.64 28.0602C340.63 29.4702 339.07 32.9802 337.39 34.6202C333.08 38.8102 332.25 43.7002 330.33 48.6902C326.58 58.4202 326.85 66.8002 330.08 76.5802C332.01 82.4302 332.85 87.9202 336.51 93.7002L342.6 103.3C345.04 107.14 348.53 110.23 350.5 114.26C355.91 125.29 359.37 124.01 366.97 131.77C372.32 137.24 365.2 140.93 361 150.46L357.02 159.5C353.27 168 340.4 163.32 335.17 158.4C325.71 155.33 316.12 153.98 306.11 154.26C300.13 154.43 294.99 152.92 289.22 151.7C274.83 148.64 267.6 154.77 252.49 154.39C240.01 154.08 237.66 154.53 225.17 157.95C220.83 159.14 217.18 160.65 212.47 160.4C209.47 160.24 206.23 161.22 203.61 162.47L196.69 165.79C191.65 168.21 186.77 169.46 181.31 170.84C175.81 172.24 170.78 175.97 165.46 178.09C160.27 180.16 156.05 182.96 151.2 185.71C141.46 191.25 131.72 196.24 123.45 204.02C121.04 206.29 118.21 208.8 115.07 209.73C110.7 211.02 108.57 214.22 105.32 216.74C99.7001 221.09 95.5602 225.51 90.8302 230.99L77.2701 246.69L49.5602 292.78L42.7102 306.3C40.4402 310.79 39.9302 316.58 37.8002 321.25L32.2902 333.28C30.2202 337.81 29.9202 342.21 28.6602 347.01L20.2602 379C19.1802 383.12 18.3002 386.85 17.2002 390.92C15.1002 398.69 14.6802 406.94 11.9902 414.59C9.55016 421.53 8.00016 428.19 8.05016 435.56C6.70016 442.39 4.93016 449.1 4.51016 456.01L3.61016 471.11C3.26016 476.88 0.920156 482.62 0.890156 488.43C0.840156 499.81 -1.24984 511.27 1.18016 522.29L4.82016 538.78C5.84016 543.39 6.21016 548.24 7.25016 552.88C8.84016 560 12.6902 566.32 15.6402 572.99L23.5802 590.96L34.2402 611.14C36.3702 615.17 39.2202 619.33 41.9002 623.03L50.4202 634.82C53.0802 638.5 56.7602 641.59 59.2502 645.46C68.4002 659.68 72.6102 656.28 77.2902 663.76C82.2302 671.65 89.4602 676.02 97.3401 680.69L112.34 689.57L126.18 696.87L142.73 705.33C147.56 707.8 152.91 708.06 158.16 709.77L176.11 715.6L191.01 718.01C196.88 718.96 202.38 719.77 208.23 721.16C216.77 723.2 228.51 721.61 238.75 722.67C244.73 723.29 250.1 724.47 256.05 723.57C271.76 721.19 294.33 723.57 301.64 720.86C306.92 718.91 311.87 718.94 317.4 718.15C321.76 717.53 326.48 716.34 330.78 715.25L343.54 711.99C345.56 711.47 348.11 710.33 350.11 709.96C358.33 708.44 365.86 706.63 373.05 702.39C379.18 698.78 396.31 693.86 407.49 686.43C413.11 682.7 417.66 679.52 423.8 676.69C430.8 673.47 437.42 668.36 443.35 663.45C447.5 660.02 451.36 658.05 456.26 655.67C459.57 654.06 462.03 649.72 465.08 647.63C470.89 643.63 474.79 638.91 479.05 633.49C483.48 627.86 487.88 622.17 492.59 616.78C496.22 612.62 500.18 609.56 502.7 604.33C504.91 599.73 507.46 595.12 510.46 590.94C512.63 587.92 515.53 585.21 516.97 581.85L522.03 570L529.98 555.42C532.57 550.68 533.55 546.02 534.27 540.51C534.62 537.82 537.06 534.8 538.53 532.42C543.62 524.22 547.98 508.38 549.34 498.5C549.86 494.72 552.45 490.75 552.45 486.99C552.45 483.23 551.57 479.59 552.45 476.07L552.42 476.05ZM368.79 102.9C366.68 100.19 364.73 96.8602 362.75 93.8502C358.38 87.1902 355.19 79.8102 352.56 72.3402C350.41 66.2402 351.15 60.5102 353.64 54.7202C354.69 52.2802 355.33 48.8302 356.89 46.7502C361.59 40.4802 367.81 36.4002 373.87 31.8502C380.98 26.5302 388.26 23.7402 397.52 23.6902C401.04 23.6702 405.14 21.1302 408.79 20.9202C416.03 20.5102 423.22 20.2602 430.31 21.0502C433.97 21.4502 437.37 22.3702 441.09 22.1802C445.99 21.9202 450.64 22.3402 455.25 23.9102C459.42 25.3302 464.13 26.0802 468.09 27.7702L490.88 37.5102C497.98 40.5402 502.54 46.8302 507.38 52.4202C516.23 62.6502 512.68 61.7702 519.16 69.2502C523.25 73.9702 525.13 79.2902 525.76 85.5602C526.3 90.9802 531.04 98.7902 527.51 104.94L521.01 116.27C517.65 122.13 513.6 125.65 508.41 129.52C502.26 134.1 496.53 137.87 488.77 139.57L475.81 142.4C469.86 143.7 441.69 155.49 439.73 142.16C439.12 138.05 438.07 134.57 436.79 130.61C436.06 128.36 435.75 124.38 434.3 122.69C429.25 116.84 421.78 116.11 414.76 115.45C401.86 114.24 402.15 118.54 385.17 120.82C382.43 121.19 379.65 118.06 378.51 115.8C375.91 110.67 372.23 107.32 368.81 102.91L368.79 102.9ZM369.04 165.29L377.84 154.4L392.88 142.32C397.54 138.57 403.65 136.73 409.45 135.43C413.86 134.44 418.07 137.45 418.78 141.93C420.12 150.37 419.46 157.28 416.72 165.21C414.93 170.38 413.66 175.35 409.88 179.64C406.72 183.23 396.06 174.89 380.06 174.66C376.54 174.61 368.98 175.02 367.64 170.05C367.32 168.87 368.23 166.29 369.03 165.3L369.04 165.29ZM39.8902 412.19C39.9002 405.31 41.7302 398.58 42.5402 391.81C43.2702 385.67 44.8202 380.16 46.0202 374.18C47.0502 369.05 47.4002 363.77 48.7802 358.65L51.8102 347.41C54.0002 339.28 56.9402 332 60.5202 324.42L66.7902 311.15C68.5002 307.52 70.1902 304.07 72.2902 300.7L79.7802 288.62C82.7001 283.92 85.8902 278.84 88.2001 273.91C90.7102 268.53 92.3502 264.15 96.2902 259.81L105.64 249.52L119.95 235.12C123.57 231.48 127.82 228.75 132.27 226.26C140.33 218.96 147.17 217.45 156.28 211.03C161.06 207.67 165.53 204.86 170.78 202.17C175.27 199.87 179.42 196.31 184.15 194.59L194.7 190.76C199.57 188.99 204.98 188.18 209.61 186.05C215.47 183.35 220.96 182.05 227.16 180.69L243.86 177.03C249.44 175.8 254.21 174.34 260.15 174.34C263.35 174.34 267.38 174.08 270.39 173.47C275.54 172.43 279.56 173.86 284.64 173.44L296.9 172.42L307.06 174.38C310.81 175.1 315.76 173.85 319.45 174.98L341.98 181.91L353.81 185.79C360.11 187.85 365.96 189.66 372.37 191.54C377.06 192.91 380.91 197.16 385.13 199.62C392.31 203.81 400.01 207.03 406.44 212.28C416.97 220.86 423.88 229.77 434.01 238.33C439 243.96 444.38 249.79 447.96 256.55L455.29 270.4C460.57 280.39 459.34 283.47 467.35 294.75C473.23 303.03 470.39 310.96 477.02 322.05C482.55 331.29 483.52 342.21 485.26 351.76L487.5 364.1C488.19 367.9 488.64 371.07 489.92 374.68C491.84 380.09 490.17 386.29 491.74 391.84L494.37 401.15L494.68 422.08C494.85 433.51 490.35 432.46 492 441.26C493.89 451.33 490.35 451.11 488.4 457.73C483.98 472.7 473.81 491.16 465.23 504.3C461.03 510.74 458.18 518 452.86 523.57C448.93 527.69 445.74 531.83 441.84 535.97L431.63 546.78C428.21 550.41 425.8 554.35 421.63 557.25C417.32 560.26 413.74 563.72 409.82 567.34C397.02 579.16 398.96 578.81 381.92 587.57L367.48 594.99C362.57 597.52 357.84 600.89 352.5 602.55L332.86 608.64C323.55 611.53 315.29 615.41 305.62 617.28C300.77 618.22 296 620.77 291.12 622.08C286.74 623.26 282.03 623.08 277.62 623.89C271.64 624.99 266.21 625.73 259.68 625.82L239.73 626.1L226.88 625.79C216.78 625.55 207.37 625.15 197.45 623.58C193.61 622.97 189.28 623.7 185.63 622.27C179.86 620.02 174.16 617.45 168 616.89C161.8 616.33 156.92 614.14 151.4 611.64C145.63 609.03 140.14 606.61 134.96 602.98L120.28 592.69C118.15 591.2 116.23 587.58 114.15 586.4C109.73 583.89 107.42 581.37 104.71 577.26C95.3602 563.07 87.4002 557.09 79.6702 544.94C77.9101 542.18 75.4602 539.46 74.1702 536.46C72.2402 531.97 70.2502 528.08 67.3202 524.32C64.4202 520.6 63.3802 516.2 61.4402 511.91L55.6502 499.09L50.1602 482.05C47.4702 473.7 45.9102 465.52 41.9302 457.59C40.1702 454.09 39.7902 450.11 39.8002 446.19L39.8602 412.19H39.8902ZM535.8 456.17C535.05 461.02 534.99 466.01 533.52 470.7C531.97 475.64 531.67 480.17 531.44 485.46C531.31 488.36 530.11 491.67 529.63 494.65C529.07 498.11 529.13 502.07 528.04 505.27L524.54 515.52C522.35 521.95 518.13 527.77 516.62 534.44L513.25 549.32C512.82 551.21 511.42 553.75 509.97 554.91C505.97 558.1 504.48 562.15 502.19 566.33L492.88 583.3C490.78 587.13 487.55 591.21 484.75 594.64L470.15 612.52L456.79 628.71C447.54 639.91 443.79 638.53 433.73 646.35C428.84 650.15 423.88 655.01 418.47 658C410.7 662.3 402.65 664.9 395.64 670.88C393.13 673.02 388.84 673.8 386.03 675.58C379.78 679.54 373.06 681.27 366.55 684.16C346.07 693.25 348.12 689.61 328.69 695.94C321.06 698.43 313.97 700.66 305.9 700.96C301.55 701.12 297 700.94 292.66 701.51C288.62 702.04 284.69 704.25 280.44 704.24L225.37 704.16C221.46 704.16 217.6 701.76 213.79 701.5L202.33 700.72L184.01 697.74C181.53 697.34 178.62 696.18 176.08 695.6C164.98 693.08 152.93 688.28 142.26 684.24C137.74 682.53 134.65 680.06 130.59 677.69L113.96 667.99C108.7 664.92 103.82 662.44 99.1902 658.29C94.3802 653.97 90.2502 648.54 85.0702 644.68C79.9501 640.85 76.8102 636.72 72.8502 631.9C68.3602 626.43 64.7902 621 61.0302 614.89C57.5702 609.27 52.6002 604.72 49.9702 598.32C46.9602 591.01 42.3802 584.81 39.1602 577.59L32.6102 562.92C30.6102 558.44 28.8502 553.99 27.1002 549.44C20.8402 533.13 27.7402 541.67 20.2902 524.6C18.7702 521.13 18.5502 517.65 19.3002 514C22.6102 497.79 18.6902 491.42 23.2502 482.99C28.5702 486.05 29.5702 491.71 31.5002 496.86C34.6402 505.23 37.7202 513.34 41.3102 521.56C43.1702 525.83 46.3302 529.65 47.6702 534.04C48.9102 538.09 50.2502 541.44 53.2102 544.54C55.7402 547.18 56.6002 551.25 58.6602 554.19L68.3502 567.99L76.8002 577.4C82.8302 584.12 87.6702 591.07 92.7902 598.6C94.4702 601.07 97.9702 602.61 100.49 604.31C103.73 606.49 106.05 609.91 109.17 612.28C115.05 616.76 120.61 622.19 127.21 625.71C135.49 630.12 144.37 633.64 153.3 636.43C159.96 638.51 166.91 638.03 173.16 641.97C174.4 642.75 177.68 643.26 179.25 643.18C194.88 642.4 205.82 647.85 217.91 648.86C227.22 649.63 236.41 649.46 245.76 648.94L259.34 648.18C263.61 647.94 267.78 646.54 272.13 646.85C277.25 647.22 281.62 646.17 286.39 644.53C290.26 643.2 295.14 643.73 299.09 642.75L311.8 639.63L323.82 636.5L336.83 632.87C341.81 631.48 346.64 628.62 351.59 626.71C362.27 622.6 372.88 618.97 382.97 613.45C386.5 611.52 390.49 609.78 393.71 607.61L415.74 592.82C421.27 589.11 426.04 584.68 431.4 580.55C433.59 578.86 435.15 575.51 437.12 573.52C441.76 568.83 447.57 565.8 451.73 560.77L459.14 551.82C462.43 547.84 466.44 545.13 469.16 540.7C476.37 528.93 481.48 527.53 485.02 517.37C487.87 509.19 489.3 513.89 493.95 502.81C496.1 497.7 499.59 493.06 501.47 487.87C503.05 483.5 504.4 479.84 506.88 475.83C508.24 473.64 508.6 470.28 509.4 467.65L513.78 453.24C515.75 446.77 513.98 439.42 515.39 432.87C516.57 427.36 518.22 422.47 518.12 416.78L517.85 401.7L515.17 392.52C518.11 402.6 505.62 337.75 505.87 340.59C504.34 322.93 499.01 319.31 496.63 310.84L491.95 294.16C490.32 288.34 475.34 268.37 481.63 264.52C484.46 262.79 494.52 274.33 495.27 275.54L502.3 286.88C506.88 294.26 511.8 303.29 513.35 311.86C514.28 317.02 517.17 321.48 518.32 326.38L525.05 355.01C526.43 360.9 526.05 366.72 527.99 372.66C529.44 377.11 530.24 382.02 531.28 386.76C532.08 390.42 530.95 394.86 531.87 398.51L534.42 408.62C536.07 415.19 536.34 422 536.54 428.73C536.66 432.66 535.49 436.75 536.42 440.6C537.71 445.92 536.61 450.9 535.8 456.17Z" fill="black"/>
<path d="M251.83 315.36C249.98 311.66 244.47 308.35 240.57 307.38C234.45 310.38 232.54 317.65 233.86 323.99C235.02 329.53 239.48 344.96 233.09 348.05C227.65 350.68 221.32 349.56 215.54 349.1C209.98 348.65 204.55 348.74 199.07 349.1L188.39 349.82C186.44 349.95 183.94 350.91 183.28 352.36C179.18 361.3 197.06 369.97 201.76 374.03C205.92 377.63 208.35 382.25 213.62 384.95C215.77 386.05 218.72 388.78 218.97 391.33C219.26 394.39 216.78 397.93 214.32 399.62L199.97 409.45C195.89 412.25 188.83 419.72 192.42 424.38C195.78 428.75 204.73 426.22 209.47 424.22C214.24 422.21 227.73 416.95 231.2 421.18C234.26 424.92 229.53 431.22 229.31 440.05C229.15 446.49 227.82 452.03 225.05 457.82C223.53 460.99 223 465.96 225.61 468.42C228.1 470.76 231.89 468.86 233.94 466.42L241.7 457.2L262.09 433.83C263.05 432.73 265.89 431.52 267.07 432C270.35 433.32 277.13 448.45 278.2 453.19L286.27 461.66C287.32 462.76 290.24 463.17 291.64 462.63C295.68 461.06 297.31 449.94 297.14 446.26C296.63 435.55 297.54 425.81 299.25 415.23C299.83 411.67 302.06 406.46 306.76 408.11C312.12 409.99 317.43 411.45 323.55 410.67C329.64 409.9 335.45 410.56 341.61 410.42L352.1 410.17C359.13 410 370.91 407.35 372.67 401.31C374.45 395.2 365.22 390.87 360.31 389.03L342.24 382.23C334.35 379.26 316.94 376.16 322.57 366.21C325.72 360.64 329.61 355.8 334.2 351.32C338.27 347.34 343.67 338.78 339.2 334.9C335.28 331.5 332.55 335.87 321.42 337.29C314.77 338.14 306.16 346.08 303.41 342.84C300.55 339.47 303.1 335.62 303.68 332.16C305.12 323.55 307.2 315.78 309.96 307.5C310.88 304.75 312.8 291.35 306.22 290.12C304.55 289.81 301.92 290.73 300.67 292.08C297.78 295.2 293.8 297.53 291.47 300.89C287.64 306.42 284.3 311.45 279.9 316.61C278.33 318.44 277.79 322.44 276.12 324.12C273.33 326.9 270.58 329.12 267.67 331.66C260.7 337.73 254.44 320.51 251.89 315.4L251.83 315.36ZM209.94 366.53C208.86 365.76 207.81 363.31 207.93 362.15C208.05 360.99 209.6 358.91 210.82 358.51C224.82 354 224.63 359.14 229.01 358.39C233.49 357.62 236.59 358.22 240.55 360.03C244.1 361.65 246.89 364.48 245.3 368.88L242.1 377.75C241.61 379.1 240.48 381.03 239.44 381.56C234.72 383.93 214.98 370.13 209.94 366.54V366.53ZM260.12 415.91L252.43 427.91L244.46 438.66C243.86 439.47 241.8 440.33 241.12 439.85C240.43 439.37 239.53 437.42 239.61 436.47L240.74 422.96C241.09 418.78 244.1 414.58 245.6 410.83C247.2 406.84 250.28 405.46 254.47 406.53C256.46 407.04 259.3 407.64 260.95 409.14C262.61 410.65 261.21 414.21 260.13 415.9L260.12 415.91ZM279.92 386.79C277.05 391.72 271.35 395.64 265.29 395.58C262.39 395.55 258.22 393.15 256.24 391C252.72 387.18 253.31 381.76 256.26 377.72L262.71 383.01C265.94 385.66 270.11 385.83 272.97 383.3C275.77 380.82 277.52 376.43 274.46 372.81C272 369.9 268.71 370.84 265.85 367.75C265.35 367.21 266.42 365.48 267.19 364.84C269.83 362.64 275.35 361.98 278.3 364.7C281.27 367.44 284.69 372.45 284.67 376.7C284.65 380.2 281.67 383.79 279.92 386.8V386.79ZM296.81 377.94C299.54 373.61 310.78 380.64 314.05 382.48C319.06 385.29 323.83 387.54 329.67 388.68C333.81 389.49 341.65 393.48 340 396.65C337.38 401.71 313.91 395.9 302.42 397.35L294.2 398.38C292.64 398.58 290.11 397.05 289.45 395.86C288.71 394.52 288.52 391.07 289.44 389.61L296.8 377.93L296.81 377.94ZM269.09 343.74C269.83 338.2 273.3 335.39 276.84 331.58L286.88 320.77C287.55 320.05 290.29 319.91 290.96 320.53C294.19 323.46 291.41 329.78 289.97 333.5C288.38 337.59 287.27 341.4 286.31 345.75C285.84 347.87 283.8 351.05 280.97 350.4L271.83 348.3C269.97 347.87 268.84 345.58 269.09 343.75V343.74Z" fill="black"/>
<path d="M86.8504 366.73C87.9004 368.61 90.7004 370.56 92.4604 370.85C99.0704 371.93 110.93 357.85 116.73 361.95C117.76 362.68 119.46 365.02 119.54 366.43L120.15 377.12C120.53 383.71 123.52 389.61 129.66 392.55C139.26 397.14 148.82 382.56 152.7 375.66C155.58 370.54 158.57 365.54 161.84 360.69L169.47 349.35C172.6 344.69 176.48 340.71 176.41 334.15C176.37 330.03 174.26 327.67 171.04 326.06C160.96 321.02 156.82 332.93 150.62 342.74C148.59 345.96 145.32 348.59 142.36 351.24C140.84 352.6 137.88 351.69 136.93 349.85C132.97 342.19 136.28 338.41 133.51 329.17C132.36 325.33 128.42 324.27 125.1 325.41C120.4 327.03 116.5 329.54 113.25 333.26L107.51 339.83C106.67 340.8 103.59 341.64 102.48 341C96.0104 337.28 101.71 323.22 102.1 320.02C102.79 314.37 102.55 308.7 102.42 302.78C102.37 300.72 100.52 298.05 99.1504 297.06C97.5704 295.92 93.9704 295.54 92.0004 296.21C86.3904 298.12 83.3204 303.45 83.1204 309.23L82.5204 326.78C82.3104 332.92 76.3404 347.96 80.9104 356.12L86.8504 366.72V366.73Z" fill="black"/>
<path d="M225.41 493.63C219.34 493.61 214.05 493.45 207.91 493.85C203.74 494.12 198.02 497.44 196.17 501.12C193.68 506.08 193.16 511.33 191.44 516.45C190.14 520.29 188.09 524.27 188.48 528.28C189.11 534.61 193.45 538.52 197.14 543.02C199.89 546.37 201.89 550.25 204.5 553.81C207.09 557.33 209.8 561.69 207.17 566.26C205.16 569.75 198.55 572.69 194.6 570.44C190.68 568.21 187.6 564.11 185.5 560.15C183.22 555.86 185.56 544.72 176 544.28C171.63 544.08 168.87 546.38 166.86 549.9C164.44 554.16 165.21 557.36 166.31 561.71C168.02 568.5 171.31 573.57 175.14 579.18C178.92 584.71 182.02 588.78 189.48 590.66C192.95 591.53 195.91 591.62 199.5 590.92L211.07 588.68C221.65 586.63 228.03 577.77 228.93 567.33C229.55 560.18 227.91 553.39 226.31 546.47C225.23 541.8 223.42 539.33 219.97 535.88C217.31 533.22 215.32 528.95 213.07 525.66C210.81 522.36 211.61 517.93 215.02 515.74C226.55 508.31 235.3 524.61 239.98 518C243 513.73 242.59 506.2 238.66 502.32C234.89 498.59 230.02 496.15 225.41 493.61V493.63Z" fill="black"/>
<path d="M304.85 252.51C308.65 247.72 312.56 243.35 316.62 238.78C319.66 235.37 321.85 231.38 326.63 229.77C327.73 229.4 330.06 230.39 330.46 231.4C333.11 238.14 321.69 250.05 330.77 276.18C331.74 278.96 331.53 282.38 334.19 283.76C339.53 286.53 344.7 284.42 348.62 280.5C355.27 273.84 371.72 249.85 377.39 242.76L381.7 237.37C383.55 235.05 383.3 231.51 381.83 228.98C379.06 224.18 370.54 223.82 366.32 227.2C356.5 235.04 357.24 244.06 351.7 243.38C350.53 243.24 349 240.97 349.09 239.58L349.57 231.97L348.91 216.13C348.6 208.74 341.89 202.31 334.39 204.61C329.23 206.19 323.52 208.56 319.24 211.92C309.34 219.67 307.57 225.09 300 234.14C295.18 239.89 283.5 256.52 288.29 263.95C292.37 270.29 302.22 255.82 304.85 252.51Z" fill="black"/>
<path d="M386.43 498.95C384.95 497.64 381.57 496.85 379.48 497.76C363.25 504.89 366.82 508.67 356.32 514.46C351.42 517.16 346.45 519.55 341.94 522.85C338.52 525.35 335.43 528.7 331.46 530.18C327.14 531.79 323.82 533.68 320.01 536.2C316.13 538.77 310.93 539.79 306.84 542.11C301.44 545.17 296.11 547.53 289.68 547.36C284.35 550.38 278.83 550.29 272.87 550.56L260.01 551.14C257.99 551.23 255.63 552.89 255.13 554.8C254.73 556.32 256.08 559.28 257.75 560.22C268.6 566.31 282.03 570.79 294.25 567.04C298.76 565.66 302.98 563.99 307.64 563.28C312.19 562.59 316.06 561.14 320.13 559.14L337.03 550.87C339.49 549.67 342.26 547.12 344.73 546.26C350.28 544.31 353.59 541.48 357.73 537.75C366.48 529.88 380 525.23 384.4 516.35C386.78 511.55 390.67 502.7 386.43 498.94V498.95Z" fill="black"/>
<path d="M145.76 288.08C148.88 289.27 153.6 287.78 156.08 285.5C159.31 282.53 162.86 279.61 165.73 276.24C172.44 268.4 180.82 262.05 189.16 256.65C191.49 255.14 193.84 252.46 196.39 251.44C202.87 248.85 208.71 246.31 214.91 243.38L224.58 238.81L245.9 229.79C252.14 227.15 257.38 224.1 264.39 223.27C266.56 223.02 269.73 220.79 269.7 218.5C269.67 216.07 266.52 214.2 264.17 214.15C256.76 213.99 249.01 212.92 241.68 214.41C233.54 216.06 225.51 218.62 217.92 221.58C212.54 223.68 208.21 225.93 202.33 226.54C198.53 226.94 195.09 230.59 191.6 231.99C182.1 235.81 174.42 241.3 168.31 249.62C166.79 251.7 162.74 252.45 160.83 254.15C157.08 257.49 153.57 260.88 150.41 264.73C146.79 269.13 138.72 285.39 145.76 288.06V288.08Z" fill="black"/>
<path d="M144.72 510.84C140.62 507.62 136.95 504.33 132.51 501.33C130.32 499.85 128.81 497.35 127.35 495.05C124.76 490.98 121.4 487.1 119.79 482.52C111.16 457.85 106.66 452.77 102.08 426.02C101.16 420.66 99.12 415.87 99.1 410.17C99.1 409.03 97.05 406.93 95.93 406.85C91.66 406.56 89.1 419.83 89.07 421.31C88.89 430.71 88.18 439.81 89.22 449.21C90.64 462.02 94.74 474.69 100.21 486.14C102.95 491.87 106.84 496.4 108.78 502.57C110.71 508.71 121.4 517.27 126.55 521.73C131.08 525.66 135.45 529.55 141.73 530.65C146.83 531.55 150.83 527.95 151.51 522.86C152.37 516.45 148.67 513.94 144.72 510.83V510.84Z" fill="black"/>
<path d="M408.61 483.03L417.8 480.31L438.65 479.88C443.57 479.78 446.6 475.63 446.39 471.15C446.15 466.18 443.23 462.53 438.35 461.74L422.5 459.16C415.16 457.96 407.76 464.34 404.47 459.85C403.73 458.84 403.35 456.31 403.73 455.02C406.1 447.03 415.52 449.79 427.93 448.07C432.06 447.5 432.78 441.92 432.98 438.78C433.27 434.44 431.86 431.23 427.58 430.16C417.83 427.71 411.4 433.05 406.73 429.03C402.68 425.54 405.3 419.26 402.03 415.47C396.46 418.69 394.84 423.97 393.39 429.45L388.38 448.36L385.28 465.81C384.4 470.78 384.17 475.59 387.2 479.97C390.78 485.14 408.25 483.13 408.59 483.03H408.61Z" fill="black"/>
<path d="M409.18 302.96C410.21 323.9 416.69 322.23 419.79 339.89C420.64 344.73 424.08 347.75 428.58 347.4C433.01 347.06 435.09 343.45 436.1 338.9C439.98 321.41 433.49 318.7 430.44 303.11C429.54 298.49 428.74 294.57 426.12 290.77L418.29 279.44C416.46 276.79 405.32 268.83 400.37 272.25C395.34 275.72 401.46 288.71 403.82 292.75C405.69 295.97 408.99 299.03 409.18 302.96Z" fill="black"/>
<path d="M409.88 411.94C411.32 416.29 416.95 415.91 421.03 416.19C428.8 416.73 435.43 416.94 442.6 416.81C447.14 416.73 450.91 414.71 452.04 410.71C453.15 406.77 451.6 402.24 447.8 400.47C441.98 397.77 436.76 400.06 431.23 401.47C427.82 402.34 407.88 405.92 409.87 411.92L409.88 411.94Z" fill="black"/>
</g>
<defs>
<clipPath id="clip0_177_892">
<rect width="555.53" height="723.87" fill="white"/>
</clipPath>
</defs>
</svg>
