<svg width="969" height="913" viewBox="0 0 969 913" fill="none" xmlns="http://www.w3.org/2000/svg">
<g clip-path="url(#clip0_177_866)">
<path d="M434.6 657.88C408.55 656.23 376.58 649.58 353.99 636.56L327.34 621.2C323.28 618.86 319.29 615.75 316.68 611.96C313.65 607.57 309.73 604.96 306.1 601.15C296.18 590.71 287.09 579.3 279.65 566.85C272.88 555.53 263.08 534.89 258.07 522.45C253.84 511.94 251.67 500.16 250.72 488.73C248.87 466.47 252.5 428.47 257.6 406.76L266.1 370.59L274.99 337.26C279.08 321.91 284.89 306.97 292.99 293.4L307.6 268.94C316.87 253.41 334.96 231.04 351.54 223.43C357.93 217.11 365.27 212.88 372.99 208.35C390.35 198.15 392.23 197.93 410.5 190.94C418.04 188.06 424.7 185.63 432.83 184.79C438.9 184.16 444.81 180.97 450.99 180.47L471.53 178.8C481.57 177.98 490.27 176.73 500.2 178.76C505.86 179.91 512.15 179.51 518.01 180.31C524.6 181.21 530.56 183.68 536.75 185.96C541.32 187.64 547.17 187.05 549.63 182.48L555.78 171.02C558.15 166.61 556.31 162.2 552.59 159.3C548.92 156.44 546.11 153.02 543.69 149.05C534.26 133.62 529.18 133.06 525.07 111.04C522.27 96.0296 529.01 82.1396 539.57 71.8496C548.27 63.3696 557.51 57.2296 569.44 54.0196C576.23 52.1896 582.99 50.5896 590.25 50.6196L615.1 50.7396C630.61 50.8196 645.13 53.8496 658.94 60.2196C672.37 66.4196 682.7 74.4796 691.77 85.9896C700.06 96.4996 705.75 107.25 709.71 120.02C713.26 131.49 713.29 141.33 707.68 152.25C704.96 157.53 702.84 163.25 698.89 168.11C687.49 182.16 676.44 185.24 660.33 190.18C653.58 192.25 647.68 194.3 640.44 194.93C633.96 195.49 627.16 196.38 620.97 198.37C615.68 200.06 612.83 208.67 614.55 213.46C617.49 221.65 635.63 227.86 643.16 234.16L660.57 248.75C674.87 260.74 683.52 271.74 691.82 288.34C699.1 302.9 702.65 317.82 706.04 333.68L709.21 348.53L712.99 372.23C714.58 382.19 716.7 391.97 717.58 402.03C720.32 433.23 716.16 466.38 704.65 495.45L697.39 513.78C691.44 528.8 680.48 549.1 670.82 561.98C663.36 571.94 655.51 581.18 647.32 590.31C641.34 596.97 634.37 601.86 626.88 606.26C619.17 613.48 610.22 617.86 601.44 623.32C593.1 628.5 585.18 632.85 576.12 636.88C551.29 647.92 521.2 656.56 494.09 657.89L460.77 659.53L434.6 657.87V657.88ZM632.99 173.78C655.57 170.07 685.37 163.01 691.19 137.79C692.8 130.8 690.68 122.35 688.07 115.92C686.49 112.03 683.44 108.94 681.12 105.45C666.87 84.0896 664.13 85.2296 640 75.6896C632.38 72.6796 624.93 71.5396 616.78 71.0596C608.58 70.5796 600.56 69.3596 592.51 70.8996C586.91 71.9696 581.21 72.6796 575.83 74.4096C560.03 79.4896 539.95 96.2496 548.97 116.39C554.3 128.29 561.1 138.86 570.16 148.28C577.69 156.11 591.35 141.34 609.88 149.81C623.01 155.81 614.85 176.76 633 173.77L632.99 173.78ZM588.09 200.16C592.04 200.81 595.58 198.31 596.88 195.03C599.54 188.33 602.94 171.47 596.09 168.11C586.16 163.25 549.87 193.85 567.29 196.72L588.09 200.16ZM501.32 569.93L528.85 561.44C540.3 557.91 550.84 554.05 561.2 547.87C569 543.22 577.78 540 584.77 534.13C592.13 527.96 599.04 521.88 606.09 515.34C612.72 509.19 618.25 502.1 624.45 495.45C631.03 488.39 636.32 480.85 640.66 472.27C648.1 461.55 658.33 439.98 661.68 427.59C662.49 424.6 662.12 420.55 662.58 417.4C664.02 407.54 664.97 397.93 663.55 388.03L660.99 370.19L654.68 338.61C653.08 330.6 649.85 323.52 647.23 315.91C644.61 308.3 641.83 300.72 638.06 293.25L627.93 273.18C624.49 266.36 620.83 259.93 615.35 254.53L593.25 232.77C588.66 228.25 582.59 225.55 576.84 222.6C572.9 220.57 569.16 216.8 565.05 215.33L535.48 204.69C526.74 201.55 518.01 200.36 508.89 199.3C494.55 197.62 487.03 197.86 472.59 199.3C458.46 200.71 444.66 202.36 431.3 207.23C425.17 209.46 419.29 211.94 413.02 213.63C406.93 215.27 401.97 217.58 396.65 220.91C383.23 229.31 369.55 236.49 357 246.24C346.96 254.04 337.92 263.14 330.73 273.53C326.76 279.26 315.59 301.62 315.61 301.59C303.31 318.09 293.55 343.89 290.63 364.33C289.05 375.41 286.36 386.09 285.74 397.35C285.16 407.97 285.43 418.22 285.99 428.81C286.27 434.08 289.26 439.17 290.61 444.23C293.87 456.46 297.79 467.75 302.79 479.27C310.49 496.99 316.98 506.45 328.66 521.04L341.76 537.4C350.79 548.68 371.98 562.12 387.11 566.51C417.09 575.22 424.12 574.93 455.21 575.08C470.91 575.15 486.08 574.64 501.34 569.94L501.32 569.93Z" fill="black"/>
<path d="M42.17 330.27L45.03 355.49L46.17 374.44L50.37 394.96C52.59 405.8 61.06 429.05 74.71 426.3C84.54 424.32 89.1 403.67 91.66 394.33C94.17 385.16 97.23 376.43 100.47 367.46C105.52 353.48 111.93 340.42 120.76 328.47C123.97 324.13 128.16 320.63 131.65 316.6C141.67 305.05 144.85 311.5 150.6 303.66C152.59 300.95 155.56 299.14 159.2 300.41C158.95 302.03 156.57 305.43 154.89 305.78C148.79 307.06 147.5 311.75 144.19 315.52C131.53 329.95 122.9 346.15 116.2 364.24L111.51 376.89L105.48 397.9C101.39 412.15 97.57 431.97 84.56 441.02C75.0099 447.67 62.32 445.77 54.1 437.98C47.79 432 43.36 425.43 39.98 417.47C38.61 414.23 36.28 410.74 35.39 407.31C32.64 396.8 30.22 386.31 29.01 375.48L26.26 350.7C24.84 337.88 24.74 324.77 20.63 312.39L10.86 282.94L3.67995 259.19C-1.96005 240.53 -1.47005 225.71 7.85995 208.54C11.87 201.17 15.52 194.17 20.71 187.44C24.66 182.32 27.84 176.13 33.48 172.75C39.78 168.97 44.61 164.79 49.65 159.57C58.32 150.61 68.03 142.85 76.02 133.19L89.74 116.59C93.7 111.8 97.15 107.02 100.4 101.71C104.55 94.9303 109.42 88.3103 116.41 84.0603C122.31 80.4703 131.26 80.9204 137.27 84.7304C143.71 88.8204 150.4 93.3903 155.3 99.3603C172.63 120.47 175.08 151.42 170.58 177.47C169.41 184.22 167.6 191.24 165.03 197.54C161.33 206.61 158.05 215.87 153.25 224.3L137.8 251.4C133.54 258.88 130.49 265.21 130.41 274.39C130.34 281.52 126.99 290.67 119.58 293.2C107.44 297.34 94.15 296.91 81.97 293.03C76.71 291.36 71.56 287.3 68.17 283.13C60.03 273.1 63.62 250.84 68.69 239.83C71.91 232.83 73.45 226.41 74.13 218.83C74.95 209.74 80.58 201.88 89.23 199.27C91.88 198.47 95.29 199.03 97.1 200.8C98.7299 202.39 99.52 206.21 98.82 208.9L91.77 235.86C89.57 244.28 76.8699 265.58 90.89 272.47C97.62 275.77 109.03 275.79 110.32 267.96C111.91 258.35 116.44 250.7 120.17 242.02C135.34 206.66 143.21 214.18 152.04 167.35C154.96 151.88 151.95 137.14 145.93 123.13C142.72 115.67 137.45 109.44 129.67 106.67C125.67 105.24 121.17 107.8 118.98 111.27L111.93 122.42L99.88 136.77C95.1499 142.4 90.83 147.62 85.6 152.77L64.93 173.16C49.42 188.46 46.9 183.13 35.13 200.15C24.02 216.2 16.82 226.43 19.8 247.54C22.23 264.76 38.59 298.63 42.18 330.28L42.17 330.27Z" fill="black"/>
<path d="M849.39 567.46C846.93 562.29 841.48 560.13 835.79 562.02C829.27 564.19 823.59 570.27 822.16 577.24C821.19 581.96 824.74 585.98 825.58 590.33C828.5 605.43 832.04 620.25 833.52 635.64C834.56 646.44 834.58 689.54 858.35 680.67L877.44 673.54L902.13 664.33C912.14 660.59 921.42 655.4 930.63 649.93C937.32 645.96 947.7 636.52 947.92 627.31C948.77 591.94 943.24 600.49 931.53 572.69C928.48 565.46 927.81 558.5 926.58 550.91C924.51 538.16 924.45 526.89 926.75 514.09C928.64 503.59 927.59 492.26 926.88 481.6C926.49 475.75 922.56 470.56 920.09 465.71C916.67 459 910.97 455.77 903.4 455.66C892.64 455.5 881.53 454.45 871.06 457.13L852.66 461.84C845.22 463.75 837.41 467.01 830.9 471.05L807.7 485.43L793.8 496.04C791.18 498.04 788.48 501.26 786.2 503.74L775.27 515.62C771.87 509.13 784.86 493.48 788.68 488.94C794.08 482.53 799.18 476.56 805.97 471.49L823.15 458.69C830.42 453.27 839.24 450.83 847.38 447.2C867.68 438.15 867.66 442.45 885.87 437.36C895.34 434.71 904.32 435.75 913.56 438.07C936.36 443.79 942.79 463.31 945.85 483.95C947.02 491.87 947.37 498.89 946.72 506.93L944.93 529.1C941.64 569.85 956.04 570.61 964.33 598.65C967.94 610.85 970.73 624.16 966.45 636.93C962.29 649.37 952.72 660.8 941.39 667.15C934.21 671.17 927.56 673.93 921.02 678.83C916.29 682.38 910.06 683 904.66 685.32C891.54 690.97 878.89 695.67 865.24 699.93C856.45 702.68 847.03 705.65 837.98 701.77C830.08 698.38 825.11 690.67 821.28 683.31C809.51 660.73 816.24 649.9 810.09 625.05C807.31 613.83 806 602.23 801.45 591.66C796 579.01 797.28 565.96 807.42 555.87C812.99 550.33 819.17 544.58 826.27 540.45C831.93 537.16 840.21 535.1 846.89 536.3C855.21 537.8 863.26 543.91 867.66 550.88C872.43 558.44 874.52 567.08 876.65 575.55C879.63 587.35 889.43 586.78 900.92 592.51C908.46 596.27 911.36 604.13 908.97 612.08C904.76 626.04 888.3 634.42 880.51 628.19C873.8 622.83 878.39 612.36 873.31 608.23C863.33 600.12 855.02 595.69 853.4 581.74C852.82 576.71 851.5 571.96 849.37 567.5L849.39 567.46Z" fill="black"/>
<path d="M364.49 813C341.07 805.61 338.11 777.14 331.26 775.41C325.53 773.96 313.5 789.99 311.63 794.17C303.34 812.77 315.21 832.44 333.77 837.62C340.72 839.56 346.83 842 353.57 844.39C359.81 846.61 365.25 850.84 371.07 853.96C391.61 864.97 394.78 872.49 404.66 878.66C416.72 886.19 430.17 890.73 444.07 893.29C454.82 895.27 471.38 891.99 473.71 879.76C474.92 873.41 474.93 866.25 472.53 860.09C468.8 850.52 464.45 841.66 459.89 832.56L451.05 814.93C442.61 798.1 440.35 780.1 441.85 761.22L443.34 742.51C443.93 735.09 439.29 729.43 431.74 729.37C422.78 729.29 413.95 728.62 404.91 727.43L382.17 724.43C349.37 720.11 352.66 712.08 327.57 710.54C317.82 709.94 311.19 713.57 303.35 718.21C278.3 733.04 280.56 738.61 262.67 757.06C258.82 761.04 255.07 764.59 251.66 768.86C248.32 773.05 244.35 776.66 237.98 775.78C238.47 772.8 240.11 770.05 242.14 767.75C246.44 762.86 250.19 758.02 253.66 752.55L267.81 730.23C273.21 721.72 279.45 714.93 287.41 708.8C308.11 692.86 319.62 687.34 345.45 695.11C351.48 696.93 357.53 698.12 363.31 700.23C374.92 704.48 386.28 707.16 398.68 708.08C410.39 708.95 421.52 709.8 433.33 709.58C440.21 709.45 447.25 710.53 452.35 715.28C464.59 726.69 463.46 747.94 460.39 763.11C458.93 770.32 460.14 776.61 461.29 783.6C462.78 792.63 465.65 800.08 469.53 808.27L480.23 830.83C489.97 851.37 494.39 857.2 492.75 880.28C490.93 905.9 469.77 913.82 447.04 912.6C430.57 911.71 415.42 908.46 401.68 899.09C399.17 897.38 395.45 895.99 393.05 894.1C383.24 886.38 373.7 879.43 363.28 872.67C340.33 857.78 329.46 861.15 310.67 848.78C305.57 845.42 301.21 840.23 297.68 835.41C290.02 824.96 288.55 812.53 289.57 800.05C290.29 791.18 291.9 783.42 297.89 776.62L310.18 762.65C319.18 752.42 339.21 741.74 348.49 755.07C351.48 759.36 353.52 764.16 354.24 769.52C355.71 780.38 362.96 790.56 373.87 793.39C379.43 794.83 384.43 796.35 389.36 799.15C400.96 805.73 404.14 818.77 398.54 822.21C396.82 823.27 393.16 823.8 391.19 822.97C382.15 819.14 373.88 815.96 364.51 813H364.49Z" fill="black"/>
<path d="M658.72 719.77C661.8 713.62 666.32 709.4 673.5 709.39C682.51 709.38 691.2 706.96 700.07 705.64L721.76 702.4C730.8 701.05 738.91 702.64 747.03 706.39C750.72 708.09 755.62 709.21 758.41 712.24C763.33 717.58 766.25 724.41 768.69 731.07C770.98 737.3 769.07 743.03 767.57 748.89C763.95 762.95 755.58 772.87 745.22 782.3C735.07 791.54 724.09 796.97 709.71 795.22C704.27 794.56 698.42 794.67 693.13 792.31C688.11 790.07 682.65 789.56 677.08 789.92L658.74 791.12C647.88 791.83 637.43 793.7 626.71 795.34C614.39 797.22 588.37 799.74 577.37 796.58L559.59 791.46C550.48 788.84 544.36 781 541.49 772.34C535.42 753.99 546.89 734.35 559.45 721.67L574.52 706.47C581.4 699.54 601.02 684.47 609.77 680.95C620.81 676.51 631.86 672.96 643.25 669.58C650.59 667.4 657.19 665.2 664.03 661.71L687.01 649.99C697.46 644.66 706.78 636.54 715.08 628.26C720.14 623.21 724.34 617.36 728.94 611.95C731.73 608.68 738.61 594.21 743.32 594.87C749.82 595.78 735.18 619.27 734.25 621.35C729.67 631.58 723.41 638.37 715.47 645.87C708.66 652.3 702.72 658.98 694.64 664.28C686.75 669.46 679.18 674.24 670.8 678.56C662.88 682.64 655 685.31 646.63 688.52L626.81 696.11C616.58 700.03 606.82 706.05 598.97 713.62L579.43 732.49C572.32 739.35 551.11 758.39 566.79 769.04C571.7 772.37 577.93 774.45 584.3 774.87C594.99 775.57 605.71 775.85 616.4 774.79L635.59 772.88C648 771.64 659.87 767.78 672.44 767.26L686.13 766.69C695.75 766.29 707.53 777.4 720.89 772.58C725.49 770.92 729.15 766.77 732.95 763.72C740.11 757.98 745.11 750.89 746.47 741.52C747.25 736.16 744.59 731.42 739.94 728.7C733.54 724.97 726.46 725.15 719.23 726.22C710.86 727.46 698.76 727.5 697.78 736.63C697.14 742.55 693.33 745.82 688.3 747.2C678.69 749.84 670.82 746.58 663.58 740.48C657.1 735.02 654.55 728.06 658.72 719.75V719.77Z" fill="black"/>
<path d="M116.5 581.9C121.36 574.77 130.54 569.59 138.52 567.71C158.33 563.05 175.53 582.88 180.11 600.62C182.07 608.2 184.08 615.68 182.99 623.63C181.9 631.58 174.25 637.35 166.82 634.68C153.53 629.91 161.58 612.07 150.21 598.25C148.41 596.06 145.31 594.3 142.6 594.42C139.89 594.54 136.8 596.79 134.97 599.28C130.31 605.63 130.68 613.52 129.86 620.95C128.34 634.76 131.97 646.04 138.26 657.72C150.41 680.3 166.72 685.13 191.35 686.18C205.06 686.77 216.57 681.97 225.58 671.54C228.92 667.68 232.58 663.31 229.21 658.08L214.31 634.95C209.24 627.08 207.96 617.87 202.81 609.75C199.51 604.55 197.26 598.24 195.78 592.3L191.75 576.09C188.1 561.4 181.88 548.14 173.72 535.43C167.39 525.57 164.14 514.91 161.6 503.71C159.36 493.87 160.08 485.23 162.94 475.71L168.86 456.03C170.33 451.14 177.94 423.91 183.09 423.19C185.35 430.98 181.72 437.27 179.56 443.99C177.63 449.99 177.31 456.39 176.27 462.7C171.86 489.49 173.05 501.84 188.46 524.45L198.14 538.66C205.53 549.5 213.21 567.45 215.47 580.44C216.11 584.1 217.46 588.02 219.47 591.14C225.75 600.89 230.45 610.69 234.99 621.32C241.78 637.23 266.31 646.87 250.65 679.5C248.85 683.26 244.89 686.09 242.24 689.16C236.95 695.28 231.25 699.68 223.86 703.04C219.11 705.2 214.44 709.17 209.13 709.91C198.39 711.4 187.81 711.21 176.97 710.17C173.3 709.82 169.31 708.08 165.73 707.22C159.04 705.61 153.34 703.09 147.25 700.08C133.91 693.47 123.48 683.47 117.27 669.74C113.03 660.35 108.18 651.21 105.74 641.05C102.05 625.66 107.23 595.48 116.5 581.87V581.9Z" fill="black"/>
<path d="M427.83 107.24C431.29 96.4105 435.74 86.4505 435.31 75.0005C434.95 65.4705 431.24 56.9605 427.01 48.6105C421 36.7405 410.81 28.6505 397.45 26.8405C392.14 26.1205 386.59 24.5305 381.15 24.2405C371.39 23.7105 361.28 24.7805 351.94 27.4405C345.6 29.2405 341.44 34.6605 336.47 38.5705C325.73 47.0305 319.74 60.0705 323.53 73.6905C325.73 81.6105 335.01 85.7005 342.7 83.0505C364.87 75.4105 366.05 60.4205 375.34 60.4005C383.87 60.3805 388.11 72.8705 388.55 80.4605C389.48 96.6205 371.01 97.2505 361.58 102.03C344.4 110.74 324.42 109.94 309.41 97.4705C302.96 92.1105 303.25 85.8305 299.15 74.9305C295.21 64.4405 300.9 57.6305 302.79 46.9005C304.2 38.8905 307.68 32.8505 313.91 27.6505L328.28 15.6605C334.16 10.7505 339.18 6.93047 346.43 4.57047C366.52 -1.94953 386.98 -1.38953 407.02 5.50047C419.09 9.65047 430.31 15.7905 439.24 25.2305C442.25 28.4205 443.43 33.6105 445.71 37.2905C450.01 44.2405 452.75 51.1905 454.74 59.0605C457.1 68.3705 456.44 76.8405 454.64 86.1405C452.99 94.7005 449.67 102.24 447.02 110.37C441.79 126.44 434.26 139.79 421.56 151.04C416.3 155.7 411.71 160.11 405.28 163.84L391.85 171.62C375.02 181.37 340.45 180.8 322.8 181.01C316.82 181.08 311.03 182.37 305.72 184.91C284.56 195.06 264.53 211.41 241.23 221.81C244.95 215.74 248.87 211.71 253 206.91C257.76 201.38 264.08 197.12 269.98 192.83L286.4 180.89C296.21 173.76 305.31 164.68 318.11 164.28L349.35 163.3C356.65 163.07 363.85 160.34 370.97 158.77C387.66 155.09 400.76 144.51 412.31 132.7C419.75 125.09 424.47 117.77 427.83 107.22V107.24Z" fill="black"/>
<path d="M822.93 203.91C803.43 199.58 802.57 201.38 788.53 210.28L770.04 222.01C761.03 227.73 738.81 239.22 740.16 252.12C741.12 261.33 745.58 269.41 751.29 276.55C761.82 289.72 772.39 302.22 781.66 316.36C786.63 323.94 800.13 367.17 803.59 378.47C804.91 382.79 807.76 392.31 804.2 395.44C803.65 395.92 801.36 395.28 800.69 394.57C789.69 382.88 789.88 372.69 781.93 357.47C777.74 349.44 775.39 340.46 770.8 332.67C767 326.21 762.79 320.08 758.38 314.07C741.42 290.94 723.94 283.35 719.22 252.15C718.09 244.71 721.04 237.02 725.61 231.15C746.32 204.56 766.17 200.44 773.63 193.6C784.69 183.46 798.72 178.21 814.08 180.07C837.94 182.97 848.68 189.25 866.89 203.16C880 213.18 892.16 233.3 895.65 248.87L899.84 267.54C903.79 285.12 898.34 301.88 884.63 312.79C870.3 324.2 853.87 325.02 838.44 315.47C832.91 312.05 828.06 308.61 824.07 303.25C820.12 297.93 815.89 292.12 815.6 285.05C815.24 276.29 818.11 256.02 829.33 254.28C833.43 253.65 838.3 254.63 840.28 258.73C844.51 267.48 835.34 280.97 843.6 290.23C848.39 295.59 856.56 298.55 863.41 297.3C872.91 295.56 879.33 288.72 879.16 279.04C878.82 259.91 874.81 256.11 868.02 240.01C864.43 231.5 858.5 225.63 851.86 219.63C843.34 211.93 834.36 206.44 822.92 203.91H822.93Z" fill="black"/>
<path d="M459.41 429.42L447.14 444.21C445.95 445.65 442.04 446.33 440.44 445.66C438.88 445.01 437.39 441.45 437.84 439.47L440.84 426.25L444.06 409.13C445.89 399.43 429.02 407.51 424.32 409.42C420.77 410.86 413.98 412.21 411.26 408.65C407.22 403.37 415.74 395.22 420.74 391.98L431.2 385.19C432.3 384.48 433.42 381.67 433.45 380.43C433.48 379.19 431.89 377.07 430.61 376.38C426.05 373.94 423.65 369.98 420.01 366.75C415.58 362.81 398.44 354 403.22 346.74C404.84 344.27 407.65 344.54 410.5 344.29C419.93 343.46 428.47 343.19 437.91 344.23C440.79 344.55 446.1 343.75 447.05 340.99C448.87 335.69 447.36 330.53 446.08 325.14C444.89 320.14 445.28 312.27 451.03 310.22C457.96 307.75 463.94 314.85 465.65 321.1C466.67 324.81 468.87 329.06 472.43 330C478.34 327.36 480.78 321.64 484.31 316.92L489.73 309.68C492.86 305.5 500.65 293.23 507.89 295.81C515.13 298.39 511.74 309.81 509.57 315.63C508.39 318.79 502.63 337.91 507.19 337.74C512.64 337.53 512.13 335.18 520.92 333.64C529.87 332.07 532.11 328.81 535.59 331.95C541.15 336.99 532 346.35 528.45 350.22C526 352.9 517.05 363.54 523.89 366.07L543.23 373.21C550.32 375.83 562.98 378.97 562.98 386.88C562.98 388.67 561.3 391.59 559.57 392.88C554.58 396.61 548.88 396.85 542.82 396.84H528.29C522.26 396.83 516.21 398.31 510.54 395.87C508.72 395.08 504.82 394.15 504.07 396.85C497.9 419.24 504.19 425.27 498.07 438.67C497.15 440.69 493.53 442.25 491.48 440.7C477.26 429.93 483.32 424.54 474.77 415.84C473.49 414.54 469.9 417.07 468.93 418.39C466.04 422.34 462.72 425.48 459.44 429.43L459.41 429.42ZM489.94 341.87L494.35 326.09C494.6 325.21 493.9 322.41 492.99 322.41C492.26 322.41 490.68 323.06 490.08 323.7L483.09 331.19C480.32 334.16 477.52 337.06 477.11 341.59C480.18 343.75 488.31 347.67 489.93 341.86L489.94 341.87ZM452.44 368.36L455.43 358.11C452.38 353.22 447.02 352.14 441.69 353.58C436.87 351.34 431.17 350.91 426.72 354.45C424.96 355.85 427.29 358.82 428.87 359.75L447.3 370.61C449.04 371.63 451.98 369.92 452.44 368.37V368.36ZM466.4 378.55C467.72 380.61 471.36 382.61 473.24 382.55C482.34 382.27 488.4 369.7 488.68 367.56C488.96 365.42 482.13 354.6 477.3 359.13C482.1 362.14 484.37 366.55 482.1 371.74C478.69 379.55 467.34 371.34 466.26 374.14C465.97 374.9 465.93 377.81 466.4 378.54V378.55ZM533.75 384.5C534.03 382.53 531.98 380.55 530.12 379.94C521.35 377.1 513.37 373.68 505.39 369.17C502.66 367.63 500.11 368.95 498.67 371.38L494.24 378.89C493.55 380.05 493.76 383.13 494.6 384.05C497.38 387.12 500.81 383.4 510.9 383.76C521.49 384.14 525.55 387.46 533.76 384.5H533.75ZM469.03 396.44C467.07 393.76 461 392.15 458.94 394.49C453.36 400.83 451.35 409.39 454.7 416.88C463.8 410.31 464.79 405.78 469.03 396.44Z" fill="black"/>
<path d="M395.85 342.01L386.31 355.83L378.81 368.23C375.45 373.78 368.94 382.72 362.46 382.91C359.98 382.98 356.96 380.97 354.99 378.96C347.47 371.28 352.21 362.69 348.86 357.07C346.87 353.72 337.07 360.41 330.69 363.24C326.41 365.13 322.77 360.18 320.89 357.34C312.36 344.54 318.63 336.11 318.36 315.1C318.31 311.12 319.47 306.44 321.79 303.25C324.19 299.94 328.96 298.93 332.91 299.78C339.43 301.19 337.67 313.97 337.12 320.53C336.72 325.32 333.25 330.92 336.71 335.61C340.99 341.42 347.21 318.92 360.8 324.02C367.37 326.49 362.11 340.65 367.81 345.6C370.64 344.02 373.02 342.21 374.74 339.8L386.1 323.79C388.07 321.02 393.33 323.05 395.29 324.43C401.17 328.56 398.55 338.1 395.86 341.99L395.85 342.01Z" fill="black"/>
<path d="M395.61 536.71C392.99 532.12 390.71 528.34 388.94 523.7C386.6 517.58 387.93 510.12 395.06 507.76C396.94 507.14 401.44 507.75 403.04 508.96C408.57 513.14 403.75 517.45 411.07 526.36C413.78 529.66 416.25 530.61 420.45 528.69C423.29 527.39 426.23 523.59 423.64 519.92L415.4 508.23C412.33 503.87 408.25 499.93 407.96 494.01C407.81 490.94 409.57 487.29 410.46 484.2L414.19 471.23C418.41 465.63 425.91 465.07 432.32 464.86C437.71 464.68 441.74 466.03 446.22 468.22C452.14 471.11 455.13 475.79 454.01 483.06C453.79 484.47 452.58 487.32 451.38 488.02C446.73 490.72 441.82 480.9 432.96 483.92C431.68 484.36 429.76 485.9 429.19 486.96C428.62 488.02 428.94 491 429.73 492.06L438.76 504.23C442.59 509.4 448.67 532.19 436.1 542.5C431.28 546.45 424.09 547.4 418.2 548.38C408.34 550.02 400.41 545.07 395.63 536.71H395.61Z" fill="black"/>
<path d="M528.83 288.37C523.93 279.88 524.12 268.11 524.8 258.56C525.19 253.08 528.8 248.86 526.43 246.14C523.66 242.95 517.83 251.74 516.51 253.15C511.54 258.46 507.34 263.27 503.24 269.26C501.13 272.34 495.89 275.46 492.87 271.87C489.83 268.25 491.78 261.66 494.32 257.66C499.46 249.56 504.82 242.09 510.87 234.76C516.27 228.21 523.67 223.77 532.06 222.54C551.29 219.7 541.37 252.57 546.06 253.88C549.48 254.84 556.07 233.41 567.77 240.65C570.77 242.51 573.34 248.36 570.64 252.07L556.95 270.86C554.64 274.02 552.27 277.2 549.75 280.16L542.92 288.15C539.91 291.68 532.06 294.02 528.81 288.39L528.83 288.37Z" fill="black"/>
<path d="M592.8 437.96C596.57 437.87 600.46 435.75 603.62 436.19L618.67 438.29C623.43 438.95 626.26 442.8 626.14 447.1C625.8 458.69 610.51 454.79 600.53 456.11C592.89 457.12 572.66 461.39 571.69 449.54C571.15 442.93 576.88 420.57 579.37 413.02C584.72 396.77 585.75 400.68 590.61 396.61C596.54 391.64 602.1 388.35 610.15 387.62C614.52 387.22 619.39 385.62 623.95 386.51C627.82 387.27 629.71 390.91 629.94 394.58C630.14 397.85 628.3 401.2 624.61 401.5C615.03 402.3 601.49 402.68 591.92 399.21C589.53 401.59 589.79 407.87 592.18 410.75C594.91 414.05 599.76 409.83 608.32 411.23C613.03 412 614.69 415.82 614.25 420.26C612.66 436.35 595.15 421.7 590.3 432.83C589.71 434.18 590.76 438 592.81 437.96H592.8Z" fill="black"/>
<path d="M504.39 526.54C491.68 530.17 479.21 530.36 468.27 522.86C466.81 521.86 465.5 518.34 465.95 516.7C466.42 514.97 469.6 512.56 471.76 512.53C499.84 512.16 516.31 501.87 538.54 487.89L553.05 478.77C555.49 477.24 565.25 464.94 573.82 470.08C580.49 474.08 573.85 488.19 565.66 493.87L546.74 506.99C540.12 511.58 532.56 514.9 525.5 518.96C518.92 522.75 512.05 524.36 504.39 526.55V526.54Z" fill="black"/>
<path d="M408.95 268.73C391.93 280.36 391.37 285.33 380.68 292.95C378.56 294.46 374.4 294.27 372.71 293.09C370.43 291.49 369.55 287.85 370.18 284.96C371.94 276.97 376.96 270.99 383.04 265.83L397.98 253.15C403.74 248.26 411.35 243.89 418.55 241.34L440.26 233.67C450.54 230.04 460.78 227.97 471.57 230.49C473.26 230.88 475.64 233.04 475.81 234.46C475.98 235.88 474.14 238.77 472.76 239.31L462.63 243.28L424.55 259.92C418.88 262.4 413.98 265.29 408.95 268.72V268.73Z" fill="black"/>
<path d="M368.06 496.94C361.89 496.25 357.99 492.32 353.98 488.51C350.02 484.74 345.09 481.35 342.49 476.49C339.07 470.09 335.14 464.18 332.31 457.58C328.43 448.55 326.14 438.69 324.35 428.97C323.34 423.47 321.55 395.98 331.1 394.84C334.01 395.7 335.59 400.05 336.18 403.16C340 423.19 345.65 442.2 354.86 460.33C361.58 473.57 368.38 473.27 376.56 483.99C378.49 486.52 378.23 490.85 376.72 493.42C375.38 495.72 371.86 497.37 368.06 496.94Z" fill="black"/>
<path d="M616.76 318.68C620.9 330.43 617.24 344.22 608.21 343.33C605.99 343.11 602.57 340.57 601.65 337.82L593.87 314.58C591.83 308.49 591.27 302.54 587.81 296.86C585.37 292.85 582.86 284.26 586.75 280.98C592.25 276.35 600.77 283.34 605.2 289.27C614.18 301.28 611.62 304.08 616.75 318.68H616.76Z" fill="black"/>
</g>
<defs>
<clipPath id="clip0_177_866">
<rect width="968.63" height="912.72" fill="white"/>
</clipPath>
</defs>
</svg>
