<svg xmlns="http://www.w3.org/2000/svg" xml:space="preserve" viewBox="0 0 609.667 496.382"><path d="M224.504 252.947c-.177.143-.354.287-.276.01l.156-.552.197.266c.1.133.1.133-.077.276m-1.613-1.046c-.196-.268-.196-.269-.274.005l.196.269c.176-.139.176-.139.078-.274m.471-1.635s-.094-.134-.27.004l-.082.272c.094.134.271-.004.271-.004.175-.138.175-.138.081-.272m-2.738-1.609.093.136c.175-.133.175-.133.081-.269l-.093-.135zm.618-.264c.105.539.631.134.873-.666.081-.266.081-.266-.362-.134-.698.53-.698.53-.511.8m-.479-1.075c-.522.394-.696.525-.603.661.011.404.628.141 1.138-.656.174-.132.429-.528.429-.528-.094-.133-.442.129-.964.523m-1.712-2.174-.518.381c.178.273.524.018.518-.381m.476-8.026-.088-.132c-.343-.148-.677.084-.59.217.174.266.598.164.678-.085m-6.094-1.808-.081-.138-.083.249.081.138c.164-.11.164-.11.083-.249m-.87-4.962c.238.413.639.339 1.039-.113.4-.451.318-.585-.48-.441-.399.072-.717.279-.877.383.159-.104.239.033.318.171m.553-2.058-.08-.136c-.319-.17-.476-.068-.158.102.08.136.238.034.238.034m-10.557-17.659-.137-.283c-.204-.062-.476.461-.408.604s.478-.1.545-.321m-1.35-2.473c.133-.077.133-.077.067-.22 0 0-.067-.142-.199-.065l-.067.22c.066.143.199.065.199.065m-4.061-5.059-.064.217.188.073.126-.072c-.062-.146-.124-.29-.25-.218m1.316-1.289-.064-.143-.061.214.064.143c.125-.071.125-.071.061-.214m-2.996-9.561-.061-.143c-.113.062-.164.268-.164.268.061.144.061.144.174.081s.113-.062.051-.206m-.564-1.64s.11-.061.049-.205l-.06-.144c-.11.061-.161.266-.161.266.06.145.172.083.172.083m-1.57-2.501c.225.23.226.23.333.171s.107-.059.167.085.167.085.167.085c.155-.262-.313-1.066-.479-1.153s-.378.03-.212.116c.059.144.119.289.012.347-.106.059-.047.204.012.349m-.004-1.589-.105.057c.105-.057.165.087.225.231.119.288.227.23.422-.23.15-.259.15-.258-.121-.287zm-.609-.551-.209.114c.114.291.548.408.593.206l-.118-.289-.058-.145c-.045.202-.046.202-.208.114m-.504-2.195c-.058-.145-.116-.289-.217-.235-.101.055-.145.255-.145.255.058.145.159.09.159.09.101-.055.159.09.218.235 0 0 .262.034.364-.021.204-.111.204-.111-.059-.144-.102.054-.262-.036-.32-.18m-2.536-7.073c.055.146.147.097.147.097.128-.244.332-.002.352.338l-.185.099c-.056-.146-.203-.242-.296-.193s-.038.196.11.292c.241.047.297.192.072.488-.132.246.018.341.299.191.187-.1.281-.151.13-.245-.057-.145-.112-.291-.075-.486.073-.39-.04-.68-.188-.776-.203-.243-.476-.097-.366.195m.178-.972c.091-.048.091-.048.034-.194 0 0-.056-.145-.147-.097l-.034.194c.056.146.147.097.147.097m-.383-.145c-.146-.097-.146-.098-.181.097-.09.048-.126.243-.126.243l.181-.097c.272-.146.272-.146.126-.243m-.521-1.649-.055-.146-.142-.099-.034.193c.054.146.142.099.231.052m-1.383-3.464c.083-.044.083-.044.03-.19s-.106-.293-.189-.249l.052.147c.053.146.107.293.024.337zm-.388-1.891c.109-.232.002-.525-.025-.336l-.161.085c-.053-.147-.185-.251-.266-.209l.104.294a.6.6 0 0 1 .186.251c.023.338.186.251.162-.085m-2.173-7.226a3 3 0 0 0-.321-.703c-.267-.558-.29-.371.029.333.271.555.271.555.292.37m9.855 265.621c-.383-.368-.756-.814-1.223-1.013-.971-.414-4.492 1.51-4.861 2.563-.326.932.033 1.718.42 2.544.537 1.147.984 2.33 2.856 2.033 2.019.533 3.52-.569 4.742-2.312.475-.678.497-1.311-.045-1.91a38 38 0 0 0-1.889-1.905m4.993-22.673c-.619-1.339-1.57-1.868-3.05-1.638-1.765-.32-3.079.488-4.096 1.909-.192.268-.503.745-.409.878.726 1.024.689 2.535 1.882 3.209.584.33 1.34.394 2.03.489 2.215.303 3.775-.792 5.025-2.467.361-.484.301-1.037-.115-1.44-.378-.367-1.074-.523-1.267-.94m-26.937-1.186c-.294-.07-.669.042-.966.168-.647.275-1.327.534-1.885.945-.737.544-1.169 1.34-1.089 2.297.089 1.068 1.64 3.126 2.444 3.298.143.031.345.052.446-.022 1.11-.814 2.785-.869 3.322-2.449.113-.331.177-.68.263-1.02-.029-.768-1.753-3.029-2.535-3.217m170.014 1.958c-1.468-1.8-3.387-2.638-5.72-2.297-.503.074-1.075.292-1.434.634-2.19 2.088-2.438 4.113-1.13 6.775.589 1.197 1.576 1.944 2.503 2.768.366.326.979.374 1.354.504.328-.052.526-.038.681-.114 1.284-.63 2.576-1.245 3.834-1.925 1.469-.794 2.06-2.594 1.323-4.046-.406-.8-.847-1.607-1.411-2.299m43.048 22.025c-2.305-2.266-5.344-2.24-7.546.053-.376.392-.732.804-1.125 1.178-.838.798-1.261 1.738-1.049 3.126-.331 1.836.736 3.264 2.259 4.355.518.371 1.465.602 2.015.387 1.826-.716 3.687-1.482 5.284-2.591.966-.67 1.538-1.97 2.139-3.068.202-.369.117-1.104-.134-1.467-.505-.733-1.2-1.341-1.843-1.973m-30.198.504c-.411-.485-1.2-.723-1.864-.897a2.9 2.9 0 0 0-1.594.075c-1.315.454-2.519.946-3.453 2.222-.98 1.337-.173 2.276.063 3.399.11.522.126 1.068.133 1.605.008.625.373 1.127.872 1.184 1.464.167 2.896 1.485 4.423.205 2.246.29 2.355-2.468 4.107-2.899.077-.019.083-.324.106-.427 0-.24.069-.458-.01-.574-.902-1.316-1.754-2.68-2.783-3.893m-206.43-64.552c-.476-.614-1.239-.798-1.975-.609-1.773.455-3.436 1.168-4.648 2.614-.926 1.105-1.775 2.276-2.679 3.4-.359.447-1.523.522-2.019.203-.945-.606-1.551-1.455-2.09-2.439-.642-1.172-1.667-1.994-3.128-1.603-1.112.297-1.942 1.04-2.046 2.259-.098 1.151-.41 2.281-1.393 2.81-2.097 1.129-1.594 3.521-2.698 5.117-.211.306.047 1.012.214 1.489.53 1.51 1.453 2.966 1.607 4.505.232 2.307 1.876 3.41 3.232 4.812.462.478.94.228 1.375-.142.643-.547 1.115-1.008 2.254-.889 1.273.133 2.61-.611 4.07-.654 1.714-.05 3.75-.442 5.021-1.464 1.756-1.41 3.448-3.284 3.693-5.761.206-2.078 1.047-3.785 2.242-5.417.635-.868 1.152-1.827 1.679-2.769.167-.299.195-.677.286-1.02-.048-.169-.053-.368-.148-.503-.935-1.321-1.855-2.659-2.849-3.939M365.659 86.614c-.297-.828.32-2.072.721-3.044 1.179-2.853 2.632-5.523 5.759-6.716.494-.189 1.037-.249 1.579-.374.521.19 1.049.321 1.52.565 1.919.991 3.803 2.007 5.608 3.237 4.498 3.066 8.646 6.506 12.363 10.47 1.857 1.981 3.376 4.155 3.884 6.924.158.863.729 1.645.934 2.507.322 1.353 1.639 2.656.707 4.089-1.074 1.652-2.355 3.208-4.387 3.823-.51.154-1.086.189-1.528.452-1.772 1.054-3.368.586-5.124-.184-2.394-1.049-3.957-3.072-5.897-4.633-1.533-1.234-2.928-2.629-4.742-3.452-3.564-1.617-6.012-4.555-8.644-7.265-1.705-1.756-1.974-4.223-2.753-6.399m21.623 8.517.365.668.291-.342zm-.947-.676.694.392c-.056-.357-.017-.837-.694-.392m-2.354-2.596c.051.314.008.75.625.333zm-1.18-1.199c.062.594.417.881.97.961-.073-.561-.392-.885-.97-.961m-10.466-6.569c1.016 2.24 2.541 3.91 4.89 4.809 1.791.686 3.326 2.186 5.472 1.688-.224-.456-.357-1.019-.713-1.316a358 358 0 0 0-7.566-6.112c-.256-.202-.687-.257-1.034-.25-.336.006-.691.136-.996.293-.347.177-.243.47-.053.888m49.747 268.033c-2.07-1.735-4.49-3.081-7.136-3.658-4.193-.914-8.449-1.54-12.678-2.289-2.121.81-4.192-.305-6.329-.168-2.171.139-4.279.829-6.357.873-2.839.06-4.631 1.814-6.786 2.998-1.098.603-1.568 2.926-.942 3.939.556.9 1.564.766 2.44.809 1.085.053 2.174.013 3.261.013l-.001.018c1.631 0 3.309-.247 4.885.05 3.671.693 7.271 1.753 10.888 2.681 2.752.707 5.332 2.112 7.958 3.276 3.819 1.693 7.289 3.916 10.257 6.894 1.203 1.207 1.24 1.17 2.755-.126.267-.229.516-.646.796-.666 2.775-.2 3.866-2.285 5.003-4.345.288-.522.246-.962-.068-1.465-2.131-3.415-4.896-6.277-7.946-8.834M267.646 82.821c.193-.758-.415-1.687-.368-2.523.099-1.779-.418-3.613.535-5.343.324-.589.217-1.403.37-2.1.264-1.208-1.054-2.179-.235-3.623.556-.981.216-2.475.258-3.74.042-1.272.032-2.551.751-3.684-1.352-3.053 1.159-5.421 1.489-8.197.346-2.911 2.244-5.225 3.636-7.751 3.877-7.039 9.938-11.754 16.46-15.96 5.767-3.719 5.854-3.44 12.64-3.651 4.099-.127 7.858.698 11.511 2.43 1.786.846 3.683 1.458 5.469 2.304 2.619 1.241 5.236 2.508 7.231 4.731 1.105 1.231 2.532 1.987 4.124 2.382.228.057.838-.388.813-.495-.97-4.177-1.271-8.472-2.447-12.628-.677-2.393-1.57-4.783-1.661-7.344-.122-3.434 2.334-6.608 5.656-6.571 2.12.023 4.091-.933 6.344-.317 2.044.559 4.328.266 6.506.295 1.163.016 2.107.412 2.893 1.258.494.532.991 1.071 1.544 1.538 3.149 2.66 3.823 6.1 2.736 9.83-.571 1.96-.622 3.859-.567 5.82.826.009 1.259-.606 1.596-1.193 2.885-5.028 6.521-9.52 10.1-14.039 2.973-3.754 6.864-6.484 11.31-8.165 3.052-1.154 6.005-2.477 8.918-3.902 3.148-1.54 6.413-2.28 9.925-2.172 2.109.065 3.924.795 5.445 2.105 1.507 1.298 2.819 2.827 4.164 4.303.347.38.648.921.713 1.421.596 4.622.273 9.016-3.31 12.55-.905.893-1.759 1.837-2.636 2.758-1.51 1.587-3.241 2.813-5.198 3.854-4.79 2.547-9.792 4.568-14.896 6.335-1.906.66-3.719 1.308-5.098 2.851-.482.539-1.061.992-1.595 1.485-.727.671-2.378.781-1.833 2.228.35.931 1.576.638 2.455.651q.305.006.61.015c-.035-.12-.023-.233.144.002v.002l.201.005a.3.3 0 0 1 .085-.07c.018.02.023.047.029.072l.188.005c-.02-.151.477-.344.522-.341.114.009.353-.112.394-.099.068.021.394.325.353.348.123-.067.155-.435.153-.584.075.219.118.456.15.694.07-.157.209-.665.368-.652a.5.5 0 0 1-.127.263c.1-.111-.07.17-.032.071l-.049.109c.026-.085 1.079.037 1.207.047.192.305.395-.126.572.012.04.031.062.076.086.119.137-.009.275-.013.412-.026a.7.7 0 0 1 .074-.194c.084-.09.194.036.285.172.13-.012.259-.013.388-.023.05-.088.096-.146.134-.07.009.019.01.041.015.061 4.674-.319 9.211.883 13.807 1.317 2.977.281 5.999 1.267 8.747 2.501.468.21.939.408 1.408.613.1.003.205.004.323.03.592.133 1.143.347 1.708.562.166.063.358.102.534.147.225.252.24-.072.399.02.109.064.046.283-.015.494l.16.066c.082-.117.179-.222.261-.354.039.065.22.343.165.429-.035.003-.06.043-.09.064q.121.05.242.099c.118-.285.279-.613.326-.457.17.567.261.072.572.38.207.206.072.539.526.271.153-.09.237-.303.333-.057.141.04.197-.029.269-.171-.006.03.092.33.191.626l.119.349.156.062c.043-.198.091-.481.227-.438.153-.108.517.062.654.1.463.127.905.43 1.367.52.146.028.475-.256.367.137l-.139.361c.104.09.09.134.035.301l-.003-.001.119.045a.6.6 0 0 0 .167-.237c-.111-.037-.27-.196-.07-.358.07-.056.146.508.41.329.104-.031-.033-.587.372-.288.39.288-.092.418.407.124.336-.197.643.257.182.343.267.137.359-.204.626-.167.182.026.199.438.353.591.083.083.157-.348.362-.176.302.256.728.284 1.066.463.25.133.316.314.687.23.375-.087.513.264.406.675a5 5 0 0 1-.175.516c.089.049.174.104.263.154a.16.16 0 0 1-.038-.099c-.001-.347.211-.292.348-.41.164-.141-.181-.418-.167-.502.001-.008.12.022.301.077s.422.137.667.234c.491.189.998.452 1.061.678.122.013.184-.158.297-.221.039-.022.297.43.295.464.208.085-.444.592-.491.642-.125.13-.155.281-.2.437l.109.077q.02-.092.062-.194c.134-.326 1.058-.874.799-.258-.239.116-.651.11-.312.458.159.325.109.396.012.388q.105.073.209.147c.108-.221.137-.556.235-.783.035-.082.441-.811.435-.343-.007.395-.399.979-.308 1.343-.054-.228.634-.824.799-.948-.204.166-.17-.258.04-.373.175-.213.329-.016.339.195.026.219-.022.489-.006.547.087.315.316.349.586.31.27-.04.58-.16.712-.129.164.014.46.412.584.263.159.159.101.438.167.505.123-.027.293.01.401.001.256.053-.094.295-.085.427.001.02.734.271.825.379.409.492-1.186.553-1.39 1.118l.048.037.091.075c.054-.105.111-.214.135-.238.321-.043.068.179-.028.326l.03.025c.181-.025.717.229.773.253.026.009.182-.357.199-.404.357-.351.02-.289.031-.513.007-.138.301-.15.34-.049.058.145.07.361.122.518.085.263-.604.611-.764.811.066.062.13.119.199.185.078-.02.154-.089.211-.213.04-.268.524-.354.515-.314-.037.156-.355.481-.227.615.037.198-.033.264-.13.27q.181.178.371.37c.178-.159.347-.324.416-.545-.057.023-.494.18-.5.192.106-.221.123-.989.312-1.173.12.125 1.092.705.774 1.004-.126.232-.17.326-.173.346-.12.227-.274.477-.358.454-.097-.026-.14-.139-.24-.171a.2.2 0 0 0-.121.004c.144.147.296.308.446.466.076-.073.071-.195.167-.407.084.458.639-.216.809-.274.404-.138-.06.657.02.687.3.114.248-.228.363-.334.294-.269.501.372.711.183.763.216-1.132 1.501-.348 1.447.458.128.353-.439.683-.46.335.095.06.412-.198.595.223-.048.822-.648.862-.469.095.428-.667.872-1.079 1.218l.147.167c.365-.089.902-.267.978-.299.711-.239.545.041.101.411.131-.11.363-.103.55-.258.398-.332.378.249.419.299.092.113.197.748-.199.669.021.004-.44-.647-.52-.286-.068.302-.339.29-.619.294q.277.326.555.657c.113-.1.213-.17.253-.114.097.139.074.282-.004.416q.164.197.326.396c.161-.043.286.018.17.206l.016.019c.105-.073.246-.258.344-.138-.016-.365.71-.635.888-.415-.111.085-.323.035-.386.107-.073.083.157.148.081.245-.086.11-.558.326-.527.43.051.178.46-.091.565-.088.278.007.379.196.402-.169.019-.317.355-.03.398.074.194.471-.072.351-.348.393.339-.05-.005.867-.247.534-.074-.102-.253-.166-.393.001q.102.127.202.254c.075.012.143.025.167.059.018.025 0 .07-.03.119l.162.21q.004.004.006.008.171.22.338.439l.2-.358c.119-.221.227-.446.227-.446-.328.227-.422.344-.646.036.202.278.51-.455.756-.116.174.24.711-.207.649.058-.111.466-.738.397-.914.667-.144.218.156.188.346.17-.103.058-.237.197-.349.342.066.087.126.172.191.258.37-.141 1.116-.78.859-1.109.077.073 1.16.659-.052.641-.382-.002.069.531.109.606.237.312.189-.231.239-.253.212-.088.387.197.447.327-.114.066-.569.36-.437.422.188.089.516-.298.673-.05.224.353.04.003.368.137.41.169-.11.562-.256.863-.078.161-.251.356-.441.525q.184.272.355.534a.4.4 0 0 1 .091-.092c.308-.185-.03-.582.322-.858.407-.319.413.307.26.508-.122.163-.317.594-.519.676.042.066.077.125.117.19.08.127.151.247.225.369.025-.006.059-.012.08-.018.335-.097.504-.295.647-.03 0 0-.404.332-.508.407.054.094.096.176.146.266.039-.043.061-.085.042-.119-.086.043.465-.461.288-.038-.081.193.21.505-.038.581l-.059.01c.062.12.114.232.166.344.149-.155.352-.151.596.305.079.147-.201.488-.311.283a.13.13 0 0 0-.057-.059c.056.156.122.308.182.463.175-.166.352-.326.545-.431.31-.168.205.187.432.072.266-.024.293-.001.276.229.055.102.299.114.311.177.003.016-.268.242-.279.268-.076.172.491.075.374.243-.128.184-.329.284-.547.231-.291-.07-.448.318-.58.501l.119.266c.408-.085 1.247-.572 1.238-.836.018.144-.156.327-.005.429.148.1.239.133-.05.265-.465.211.508.419.516.371-.015.113-.432.419-.55.478-.327.168.168.336-.16.438-.137.042-.297.024-.448.021l.201.421c.223-.117.78-.43.846-.361a.24.24 0 0 1-.044.093q.009-.004-.004.009a.34.34 0 0 1-.115.094l-.018.006c-.23.092-.437.102-.657.175l.057.119c.127.026.062.404.304.169a.2.2 0 0 0 .004-.186c.011-.07.469-.248.495-.264.168-.1.387-.556.17-.578a.47.47 0 0 1 .452.217c.202.297-.031.264-.204.398.384-.297.616.737.057.57.193.052.998.553.327.626.258.353-.284.425-.203.661.025.073.583.167.587.28.007.206-.415.218-.303.543.113.33.542-.245.796-.091-.014-.006-.679.95.161.573.066-.016-.46.189-.287.212.068.197.366-.061.462-.067 0 0-.437.554-.532.547.31.021.372-.018.47.271-.098-.286.397-.153.365.126-.033.274-.675.226-.564.552l.521-.157c-.208.063.061.595.066.669-.406-.044.022.388.107.426.28.033.094.17-.075.236-.088.036-.453.248-.756.357q.022.088.042.178c.271-.081.555-.163.828-.198.646-.081.237.947.599.855-.203.067-.396.169-.605.223-.377.1.153-.348.129-.444-.049-.196-.454-.028-.823.118l.05.248c.096.009.18.068.218.221.097.391.812-.076 1.11-.044a.36.36 0 0 1-.078.243l-.531.103c-.011.071.038.194-.112.205-.223.016-.252-.213-.409-.275-.035-.014-.073-.017-.11-.02q.054.261.111.521c.28.145.99.053.706-.226-.296-.14.224-.165.288-.18.269-.063.156.277.189.409.024.098-.774.394-1.133.215l.099.432c.584-.131 1.219-.249 1.182-.087 0 0-.397.391-.071.323.159-.033.321.167.345.267.028.156-.505.354-.709.437-.199.081-.149-.083-.358-.073-.282.014.005.191-.083.291-.006.006-.014.029-.021.045l.089.379c.067-.125-.012-.247.043-.298.635-.605 1.564.204.77.482-.231.082-.879.718-.451.621.276-.061.584-.389.796-.557-.27.384.018.328.253.436.022.011-.239.394-.237.5.001.052.624.498.355.604-.067.026-.485-.117-.396.107.007.017.406.263.372.259 0 0-.539-.059-.464.028.114.133.416.157.207.38-.443.47.209.215.273.28.178.181-.465.505-.848.635l.008.072c.507.075 1.351.419.636.541.505.146.415.488.345.785-.014.06.093.299-.005.318-.121.024-.407-.112-.392.097.762-.227.377.476.023.428-.198-.026-.349-.286-.43-.394-.005-.072-.027-.114-.059-.142.002.101.012.2.012.301-.001.492.004.984.004 1.476.267.099.624.14.764.17.467.099-.413.184-.367.177-.223.033.079.271-.03.305.017-.005-.257.047-.365.062l.001.471c.344-.178.756-.333.775-.052-.114-.018-.546-.025-.536.126.402-.092.736.124.706.456-.031.337-.427-.357-.427-.357-.155.005-.162.481-.516.237l.001.532c.53.059.242.223.001.355l.001.206c.176.009.402-.01.531.095.173.142-.192.242-.193.356-.002.156.753-.047.782-.024.12.097-.551.278-.599.283.456.172.522.07.4.447-.061.187.636.537-.177.523.315.004.466.595.057.644.388.022.379.45-.041.435.116-.091.174-.114.226-.249-.129.337-.601-.379-.623-.407q-.19.048-.139.211a4 4 0 0 1-.217-.096l.002.738c.502-.031 1.258.033 1.255.202-.001.076-.24.094-.242.261.089-.005.182.017.272.012-.003.194-.635.446-.821.287.26.512-.271.207-.259.161a.6.6 0 0 0-.201.167v.092c.317.232 1.212-.617 1.349-.466.064.073-.158.196-.277.255.265-.122-.2.128-.072.034a.5.5 0 0 0-.153.096c.312.097.475.791.062.763.118.008.187.144.113.221-.172.178-.636.178-.881.153-.039-.004-.088-.051-.139-.117l.002.845c.104.052.232.079.446-.061.316-.208.485.003.25.235-.448.293.099.203.15.415.099.412.048.893-.041 1.297-.018.083-.046.297-.172.332a6 6 0 0 1-.284.454.64.64 0 0 1 .249.246c.087.176-.16.281.053.495a.56.56 0 0 1-.395.31c-.227.058-.14-.18-.191-.269a.16.16 0 0 0-.058-.048v.131l.006.286c.661-.159.686 1.009.334.955.043.332-.138.397-.315.357-.002.116-.011.231-.018.346l.043-.004c.076.25-.033.773-.174.997-.005.007-.02.006-.027.012a4 4 0 0 1-.113.355c.115.036.238.032.255-.065-.061.188.058.389-.013.567-.047.116-.488.169-.482.184.072.174.615.177.578.056.06.197-.315.572-.432.721.66 1.415-.459 2.704-.797 3.999-.281 1.075-.831 2.078-1.336 3.095a.3.3 0 0 1 .184-.011c-.09.251.213.267.159.482l-.262-.073c-.117-.033-.17-.092-.196-.156l-.059.124c.21.163.39.368.021.405-.066.071-.154.093-.255.087-.505 1.15-.956 2.324-1.46 3.474-.284.648-.509 1.378-.965 1.887-3.611 4.029-6.521 8.599-9.957 12.759-.772.935-1.941 1.539-2.723 2.467-.678.804-1.146 1.658-2.135 2.296-1.499.967-2.638 2.475-4.022 3.646-1.226 1.038-2.643 1.853-3.853 2.907-1.084.944-1.945 2.096-2.76 3.323-.652.983-2.071 1.419-2.942 2.302-3.709 3.763-7.974 6.728-12.628 9.182-1.422.749-2.856 1.513-4.15 2.456-1.466 1.068-2.778 2.325-4.807 2.072-.319-.04-.781.108-.993.339-1.161 1.268-2.744 1.576-4.25 2.175-1.472.585-2.667 1.831-4.065 2.647-2.297 1.34-4.779 2.343-7.014 3.806-1.504.984-2.939 2.25-4.599 2.771-1.746.548-3.347 1.298-4.921 2.142-3.035 1.627-6.314 2.616-9.618 3.352-2.422.54-4.864 1.05-7.24 1.737-1.049.303-1.663-.611-2.526-.355-.853.253-1.686.571-2.527.864-.506.176-1.152.219-1.49.562-2.466 2.504-5.95 2.261-8.914 3.403-.165.064-.383.229-.488.175-3.047-1.567-6.717-1.086-9.674-2.949-.603-.38-1.272-.992-1.884-.961-2.877.142-4.605-1.939-6.62-3.342-1.943-1.353-3.212-3.373-4.231-5.554-1.529-3.272-3.264-6.429-5.109-9.55-1.504-2.544-3.241-4.768-5.256-6.849-2.517-2.601-5.119-5.112-7.154-8.156-2.908-4.351-5.749-8.672-7.673-13.63-3.191-8.223-5.756-16.644-8.606-24.975-.994-2.905-1.053-5.988-2.089-8.86-.996-2.762-1.086-5.652-1.123-8.543-.016-1.266.149-2.572-.682-3.674-.791-1.049.749-2.011.08-3.026-.529-.803.617-1.557-.074-2.482-.692-.93-.172-2.033.103-3.11m173.941 20.86q.012.432.019.863c.334-.062.184-.772-.019-.863m-.012-2.546.001.519.109-.047q.04-.143.045-.29c.017-.173.269.048.288-.146-.052-.006-.255-.012-.443-.036m-.001-.438v.122c.079-.004.155-.003.205.006.008-.079-.085-.107-.205-.128m.133-3.16c-.005-.009-.074-.036-.141-.064v.118c.09-.014.158-.026.141-.054m-.142-.395.001.247c.159-.005.331-.019.334-.192a1.8 1.8 0 0 1-.335-.055m-.005-1.995.001.422a.1.1 0 0 1 0 .049l.001.255c.111-.025.256-.047.416-.076.414-.077-.021-.44-.418-.65m-.002-.62.001.398c.082.014.141.033.126.044.425-.329.175-.419-.127-.442m-.715 13.016c.018.021.029.042.046.063a1 1 0 0 1-.015-.112q-.015.025-.031.049m-7.449-41.25c.12.17.246.344.359.509.038-.023.067-.035.071-.012-.032-.197-.141-.2-.037-.496.038-.108.24-.108.254-.254.009-.091-.108-.369-.278-.26.09.206-.131.372-.369.513m-.211-.298.102.145c.044-.086.077-.166.056-.198-.007-.013-.073.013-.158.053m-75.884-25.997c.152-.097.61-.32.988-.639 4.414-3.722 8.65-7.646 13.216-11.201 2.187-1.702 4.467-3.25 7.067-3.863 5.226-1.231 9.322-4.615 14.036-6.796 2.273-1.052 3.461-3.113 4.267-5.378.63-1.767-.136-2.681-2.07-3.549-1.636-.735-2.993-.415-4.595.016-4.87 1.31-9.309 3.646-13.928 5.551-.651.268-1.308.673-1.786 1.181-1.854 1.968-3.801 3.811-5.345 6.11-3.917 5.831-8.116 11.472-12.182 17.203-.19.268-.187.672-.278 1.011-.101.379-.007.525.61.354m-4.494-9.685.402-.718c-.348.092-.932.021-.402.718m-12.501 17.208c-.016.503.174 1.092.465 1.502.273.384.776.69 1.237.818.226.063.623-.318.874-.567.249-.247.554-.566.59-.881.565-4.964 1.95-9.8 2.289-14.798.06-.892-.075-1.927.329-2.641.97-1.712.397-3.56.654-4.667 0-1.894.035-3.158-.016-4.419-.023-.58-.458-.934-1.008-1.091-.861-.245-1.723-.491-2.594-.696-.451-.106-1.587.654-1.666 1.122-.118.696-.232 1.403-.235 2.105-.023 4.696-.008 9.392-.024 14.088-.004 1.083.255 2.335-.189 3.216-1.144 2.267-.632 4.601-.706 6.909m-60.136 29.775c-.697 4.933.679 10.809 1.185 16.738.12 1.413.663 2.785.907 4.194.274 1.586.482 3.18.776 4.765 1.022 5.506 3.139 10.657 4.709 15.979 1.47 4.982 3.021 9.946 4.731 14.85 1.241 3.561 2.53 7.154 4.289 10.472 1.928 3.638 4.393 6.994 6.674 10.44 2.09 3.155 4.398 6.156 6.633 9.206 1.36 1.856 2.899 3.136 4.846 4.134 1.603.822 3.368 1.398 4.626 2.777 2.639 2.894 5.874 3.226 9.443 2.302 2.425-.628 4.905-1.073 7.29-1.824 5.987-1.885 12.145-3.203 17.777-6.237 2.831-1.525 5.744-2.874 8.381-4.741 7.077-5.01 14.781-8.982 22.286-13.269 2.673-1.527 5.009-3.405 7.382-5.276 1.554-1.225 2.784-2.824 4.647-3.715.77-.368 1.54-1.135 1.891-1.911 1.319-2.913 4.827-3.799 6.064-6.737 2.85-1.407 4.79-3.876 6.869-6.12 4.431-4.783 8.596-9.774 9.606-16.576.073-.491.431-1.034.818-1.365.873-.747.441-1.433.284-2.327-.278-1.587-.067-3.253-.19-4.876-.103-1.362.836-2.522.221-4.096-.553-1.414-.407-3.301.001-4.826.305-1.138-.099-2.038-.055-3.018.107-2.419-.738-4.633-1.337-6.85-1.091-4.037-2.962-7.715-6.049-10.733-2.149-2.101-4.847-3.048-7.447-4.256-1.3-.603-2.691-1.057-3.893-1.813-5.154-3.243-11.625-5.82-17.899-6.988-1.512-1.29-3.055.565-4.574-.046-1.758.876-3.288-1.851-5.146-.316-.309.256-1.106.223-1.512.01-2.257-1.188-4.725-.888-6.93-.431-1.949.404-3.898.562-5.835.895s-3.753 1.27-5.803 1.165c-.488-.025-1.041.242-1.487.505-2.815 1.658-6.061 2.132-9.039 3.336-.529.214-1.064.339-1.519-.055-1.873-1.621-4.441-2.491-5.387-5.13-.23-.642-1.066-1.067-1.299-1.709-.713-1.96-2.396-2.82-4.086-3.304-3-.86-5.618-2.47-8.404-3.743a60 60 0 0 1-5.301-2.729c-1.875-1.092-4.159-1.216-5.891-2.618-1.584-1.284-3.693-1.339-5.44-2.255-.437-.229-.891-.856-1.401-.41-1.314 1.149-2.622-.532-4.09.168-1.217.581-2.85.261-4.291.414-.521.055-1.13.193-1.512.515-2.749 2.324-6.225 3.62-8.691 6.37-3.97 4.427-6.875 9.267-6.845 15.445.003.72.109 1.555-.203 2.14-1.007 1.888-.702 3.9-.765 5.871-.068 2.174-.015 4.355-.015 7.609M172.067 453.265c-.637-.299-1.371-.387-2.058-.583-.547-.156-.804-.519-1.01-1.077-1.161-3.144-1.235-3.165-3.857-1.873-.805.397-1.613.799-2.371 1.276-1.438.904-2.003 2.578-1.692 4.522.198 1.236.279 2.491.417 3.737.144 1.301 1.104 1.127 1.972 1.115.362-1.005 1.044-1.336 1.953-.657.812.606 1.555.876 2.391.174.56-.47.939-.024 1.401.163.312.126.881.287.984.157 1.068-1.361 2.136-2.733 3.05-4.199.458-.736-.274-2.33-1.18-2.755m-9.757-20.766c1.34 1.205 2.309-.45 3.429-.34 3.052.301 4.489-1.895 6.124-3.775.308-.354.284-.996.383-1.384-.157-.476-.18-.886-.393-1.132a32 32 0 0 0-2.23-2.337c-.767-.721-1.603-1.369-2.409-2.049-.884.748-1.984.715-3.039.91-.494.091-.909.566-1.383.825-1.782.97-2.481 2.729-1.879 4.772.15.511.342 1.016.426 1.538.169 1.043.035 2.13.971 2.972m1.167 27.927-.044.046.136.075a.6.6 0 0 0-.049-.167l-.051.001c-.011.032-.025.058-.036.091zm.796.507-.703-.386c.064.361.002.893.703.386m393.022-15.526c-.287-.023-.707.188-.879.425-.524.726-.87 1.594-1.45 2.262-.574.662-.588 1.179-.175 1.904.258.453.278 1.038.432 1.555a1.63 1.63 0 0 0 2.093 1.09c1.258-.446 2.138-1.324 2.861-2.38.191-.279.251-.671.295-1.021.188-1.494-1.624-3.709-3.177-3.835m16.202-4.305c.209-.173.161-.655.276-1.244-.087-.45-.137-1.156-.37-1.797-.239-.659-.825-1.376-1.473-1.217-.555.137-1.141.854-1.374 1.448-.551 1.402.184 2.874 1.636 3.342.354.115.951-.237 1.305-.532m34.014 22.063c-.794.656-1.266 1.729-1.808 2.658-1.45 2.484-4.204 3.35-6.256 5.085-.245.207-.685.292-1.022.267-2.827-.211-5.233 1.149-7.769 2.031-4.75 1.651-9.699 2.361-14.644 3.092-1.295-.593-2.341.616-3.618.475-1.253-.138-2.568-.154-3.803.07-2.828.513-5.747.68-8.483 1.384-2.16.556-4.44.121-6.368.936-1.97.832-3.899.657-5.854.813a24 24 0 0 0-4.219.716c-2.062.536-4.309.531-6.469.464-1.727-.053-3.275.888-5.208.193-1.772-.637-3.946-.148-5.943-.168-1.814-.019-3.634.028-5.439-.115-1.181-.094-2.226-.681-3.571-.257-.862.272-2.02-.541-3.07-.68-1.254-.166-2.548-.039-3.801-.214-1.053-.147-2.056-.686-3.108-.799-1.62-.175-3.283.008-4.889-.228-1.37-.201-2.635-.794-4.081-.123-.585.271-1.521.199-2.136-.077-2.608-1.17-5.341-.801-8.04-.825-7.445-.067-14.893-.18-22.336-.078-1.602.022-3.047-.726-4.722-.399-1.13.22-2.445-.357-3.646-.69-1.972-.548-3.565-1.59-4.35-3.617-.445-1.148-.141-2.803.87-3.393 1.08-.63 2.218-1.4 3.404-1.558 3.013-.402 5.933-1.565 9.072-1.087 1.243.189 2.538.031 3.81.031 5.875-.047 11.7-.657 17.471-1.732.616-.115 1.014.149 1.517.221 2.861.406 5.698.636 8.547-.301 1.167-.384 2.495-.339 3.754-.372 2.722-.071 5.448-.033 8.17-.105 1.608-.042 3.205.084 4.783-.67.915-.437 2.147-.411 3.208-.308 4.396.424 8.56-1.312 12.905-1.291.383.002.777-1.036.54-1.347-.107-.141-.199-.312-.339-.406-2.203-1.467-3.566-3.699-4.28-6.047-.824-2.708-2.014-5.413-1.765-8.393.106-1.262.148-2.564-.042-3.808-.432-2.832.49-5.497 1.619-7.83 1.558-3.217 2.42-6.802 4.724-9.659.207-.257.21-.677.317-1.018.192-.614-.368-1.683-.924-1.69-1.996-.027-3.993.005-5.988-.048-1.805-.048-3.662.024-5.01-1.567-.217-.255-.623-.492-.944-.494-2.818-.022-3.563-2.233-4.327-4.236-.96-2.516.718-5.038 3.419-5.718 3.187-.802 6.404-1.015 9.668-.906 1.267.042 2.539-.02 3.806-.082 1.042-.051 1.532-.826.985-1.876-.824-1.581-.768-3.513-2.218-4.886-.528-.5-.469-1.688-.551-2.573-.099-1.082.789-1.486 1.529-2.009.694-.49.675-1.697 1.853-1.773 1.449-.094 2.913-.394 4.224.492 1.194.807 2.421 1.59 3.503 2.534 1.365 1.191 2.598 2.533 3.886 3.812 2.239 2.221 2.259 2.245 4.714-.03 3.194-2.959 6.996-5.037 10.606-7.392.75-.489 1.737-.686 2.359-1.284 1.145-1.1 2.464-1.255 3.941-1.48 5.183-.79 8.673 1.982 11.566 5.571 1.357 1.683 2.692 3.389 4.159 4.975 2.47 2.67 4.176 5.874 6.268 8.806 1.879 2.635 3.951 5.296 5.059 8.274 1.278 3.434 3.503 6.271 4.938 9.556 1.437 3.29 2.923 6.559 4.271 9.885.333.823.479 1.668 1.075 2.42 2.036 2.566 3.104 5.654 4.424 8.602.29.648.312 1.545.782 1.958 1.432 1.257 1.341 2.86 1.428 4.497.122 2.265-.23 4.249-2.133 5.821m-13.429-4.557c-.295-2.609-2.667-4.262-3.035-6.846-.091-.639-.752-1.184-1.103-1.8-.624-1.096-1.391-2.153-1.78-3.331-1.128-3.416-2.561-6.706-3.901-10.034-1.34-3.327-2.173-6.848-3.855-10.042.077-2.008-1.79-3.041-2.356-4.794-1.959-6.072-5.797-11.16-9.08-16.529-1.082-1.769-3.453-2.142-5.214-.851-.885.649-1.677 1.236-2.796 1.514-2.87.714-5.208 2.563-7.425 4.342-5.445 4.369-9.28 9.52-12.47 16.116-1.247 2.577-2.201 5.298-3.468 7.864-1.81 3.666-2.384 7.504-2.139 11.534.221 3.624 1.503 6.772 4.599 8.745 3.332 2.123 6.745 4.245 10.384 5.726 3.621 1.473 7.421 2.747 11.51 2.531 2.35-.124 4.83-.391 7.049.186 3.412.888 6.814.628 9.725.822 2.133 0 3.786-.158 5.397.032 3.499.413 6.323-1.118 9.106-2.858.799-.5.957-1.401.852-2.327M572.345 418.7c-.079-.933-1.812-2.062-2.465-1.567-.847.643-1.669 1.369-2.325 2.198-.483.61-.204 1.381.291 1.968.65.773 2.419 1.221 2.916.666.834-.931 1.559-1.964 1.583-3.265m-117.507 16.31c-1.76 2.497-3.692 4.873-5.547 7.303-1.988.678-2.781 2.778-4.358 3.789-1.683 1.078-2.738 2.864-4.719 3.612-1.109.419-1.922 1.615-2.875 2.455-1.348 1.189-2.656 2.371-4.22 3.351-2.427 1.519-4.713 3.281-6.722 5.431-2.322 2.485-4.627 5.031-8.044 6.295-1.792.663-3.27 2.165-4.901 3.274-1.505 1.023-3.028 1.978-4.968 1.945-.506-.009-1.26.124-1.485.465-1.216 1.842-3.261.854-4.819 1.508-.841.354-1.666.477-2.101 1.442-.568 1.259-1.614 1.998-3.021 1.922-1.687-.091-3.146.709-4.722 1.005-1.581.297-3.253.015-4.75.91-.426.255-1.051.208-1.588.24-2.154.126-4.264.152-6.378.972-1.797.697-3.916-.066-5.847.829-1.953.906-4.208.588-6.315 1.282-1.812.597-3.873 1.087-5.766 1.132-1.948.047-3.763 1.318-5.741.533-1.831 1.121-3.947.39-5.841.875-2.64.677-5.436.543-7.956 1.297-2.179.652-4.277.715-6.413.716-2.388.002-4.458 1.411-6.916 1.166-2.154-.215-4.356.031-6.536.117-1.734.068-3.355 1.676-5.193.384-1.568.202-3.131.494-4.706.583-1.812.103-3.634.029-5.452.029-6.724.001-13.448.043-20.172-.035-1.418-.017-2.863.262-4.296-.351-1.337-.573-2.657.512-4.107.324-1.953-.252-3.892-.403-5.852-.777-2.133-.408-4.383-1.848-6.692-.425-.134.082-.371.069-.535.018-2.428-.738-4.785-1.346-7.363-.276-2.149.892-4.71-.055-6.882 1.262-.551.334-1.423.182-2.147.182-7.997.001-15.996-.1-23.99.049-1.761.033-3.369-1.749-5.167-.331-3.328-1.327-6.801-.501-10.205-.654-3.448-.155-6.906-.079-10.358-.151-1.304-.027-2.526.098-3.606.923-.279.213-.664.284-.99.441-1.952.946-3.821 2.187-5.876 2.765-1.876.527-3.931.447-5.781 1.256-4.878-.007-9.598 1.628-14.524 1.303-2.314-.153-4.693-.342-6.937.765-.587.29-1.526.284-2.142.028-2.594-1.08-5.449-.394-7.979-1.148-2.509-.747-5.062-.409-7.475-1.014-3.483-.874-7.059-1.32-10.485-2.353-1.23-.371-2.412-.671-3.678-.753-1.793-.117-3.533-.292-5.322-.798-2.037-.577-4.327-.231-6.504-.347-2.145-.114-4.314.327-6.419-.741-.885-.449-2.141-.203-3.228-.213-7.27-.062-14.54-.11-21.809-.157-1.09-.007-2.182.049-3.27.006-1.082-.043-2.315.122-3.199-.342-1.063-.557-1.999.08-3.058-.229-1.689-.493-3.576-.297-5.377-.414-1.968-.128-3.882-.129-5.868-.774-1.991-.647-4.311-.321-6.488-.351-2.901-.041-5.827.004-8.345-1.734-1.172-.809-2.41 1.078-3.48-.224-4.186-.153-8.06-1.731-12.076-2.66-.693-.16-1.366-.704-2.025-.667-4.378.242-8.548-1.529-12.921-1.263-1.83.111-3.55-.311-5.262-1.006-2.336-.948-4.919-.979-7.326-1.662-2.241-.636-4.366-1.668-6.733-1.883-.719-.065-1.13-.667-.945-1.076.255-.563.729-.63 1.24-.776 5.133-1.473 10.419-.975 15.645-1.243 2.322-.119 4.677.357 6.926-.808.729-.378 1.789-.088 2.694-.157 2.68-.207 5.453.356 8.006-.939 4.007.998 7.575-1.755 11.522-1.362.495.049 1.038-.236 1.54-.419 2.552-.928 5.166-1.415 7.876-1.769 3.17-.414 6.291-1.395 9.345-2.401 1.238-.408 2.425-.614 3.687-.705 1.792-.129 3.579.118 5.389-.431 1.429-.433 3 .118 4.579-.443 1.234-.439 3.073-.874 4.06.426.676.891.879 1.471 1.776.425.638-.744 1.44-1.088 2.401-1.015 1.786.137 3.554-.087 5.354.623 1.649.651 3.561.494 5.35.129.206-.042.52-.637.438-.833a35 35 0 0 0-1.612-3.389c-.601-1.104-1.463-2.09-1.921-3.242-2.386-6.006-5.306-11.826-6.516-18.255-.065-.347-.394-.655-.424-.996-.308-3.595-.767-7.157-1.96-10.591-.05-.144.344-.531.602-.677 1.269-.715.377-.906-.257-1.207-.464-.221-.517-.56-.113-.795.58-.336 1.393-.492.755-1.451-.548-.823-.263-1.749-.341-2.636-.09-1.031 1.14-1.837.295-3.021-.619-.867.188-1.69.618-2.465-1.01-2.033.683-3.715.716-5.513.036-1.967.578-3.823.775-5.73.177-1.712.729-3.492 1.203-5.216.523-1.9 1.128-3.793 1.883-5.612 2.347-5.655 4.552-11.348 7.919-16.561 2.542-3.937 4.907-7.996 7.625-11.823 3.346-4.712 6.718-9.395 10.407-13.865 2.043-2.475 4.14-4.962 5.65-7.914 3.949-7.719 10.577-12.085 18.816-14.223 1.391-.361 2.776-.826 4.193-.988 1.8-.206 3.629-.194 5.446-.197 3.634-.008 7.269.04 10.903.059 1.622.009 3.173.113 4.8.573 1.859.525 3.942.28 5.928.31.263.004.532-.344.798-.529-.126-.131-.236-.286-.382-.388-1.031-.726-1.978-1.682-3.122-2.117-3.712-1.414-6.275-4.237-8.965-6.922-2.186-2.182-4.402-4.341-6.479-6.625-2.187-2.404-4.516-4.758-6.251-7.474-1.935-3.029-3.304-6.425-4.853-9.693-.536-1.13-.852-2.361-1.308-3.531-.196-.504-.713-.975-.704-1.454.066-3.274-1.941-6.236-1.379-9.589.147-.874-.521-1.766-.992-1.644-.494.127-1.034.275-1.422.581-4.239 3.347-8.453 6.726-13.302 9.189-1.91 2.127-4.815 2.321-7.134 3.662-1.368.791-2.752.883-3.922-.458-.119-.136-.248-.297-.407-.359-1.761-.689-2.099-2.125-2.362-3.831-.384-2.489-.592-2.499.252-3.973.986-1.722 2.115-3.362 3.124-5.071.577-.977 1.378-1.596 2.354-2.158.92-.53 1.66-1.38 2.46-2.109.371-.338.355-.693-.042-.832-1.009-.353-2.035-.656-3.055-.979-2.332 1.573-4.499-.307-6.753-.403-2.486-.106-4.98-.717-7.403-1.362-1.755-.467-3.514-1.372-4.36-3.047-.878-1.738-1.721-3.572-1.738-5.628-.013-1.559.841-2.753 1.622-3.954.649-.998 1.766-1.155 2.887-1.249 1.788-.151 3.436-.924 5.3-.969 1.613-.039 3.145.406 4.727.471 1.538.063 3.174.416 4.777.544 1.795.143 3.544.167 5.339.774 1.651.558 3.592.253 5.404.347 2.69.139 5.46-.415 8.014.95.296.158.719.15 1.073.117 3.881-.36 7.518.47 11.021 2.113.424.199 1.131.147 1.56-.074 1.767-.91 3.555-1.818 5.189-2.939 1.824-1.25 3.685-2.191 5.915-2.503 1.403-.196 2.752-.791 4.119-1.227.685-.219 1.363-.709 2.033-.69 3.825.107 7.422-1.572 11.285-1.288 2.333.172 4.516-1.151 6.93-1.004 2.17.132 4.364-.149 6.539-.049 1.686.077 3.021-1.167 4.749-.941 1.428.187 2.91.104 4.356-.007 5.1-.391 10.067.587 14.984 1.631 3.245.689 6.507 1.367 9.664 2.412l-.003-.003.078-.276c.177-.142.452-.15.452-.15.099.133.099.133-.255.418q-.058.047-.094.072.743.249 1.477.527c.069-.067.161-.146.291-.252.531-.434 1.084-.462.552-.026 0 0 .099.132.475.249.277-.015.454-.162.631-.309s.177-.147.277-.017c.177-.147.177-.147.078-.277 0 0 .255-.422.432-.568s.532-.438.432-.566q.116-.409.532-.437c.416-.028.455-.165.709-.582.077-.271.431-.561.431-.561.078-.064.154-.131.215-.217l-.472-.572c-.27.288-.648.592-.951.739-.907.321-.907.319-.608.702.377.11.299.382.2.255-.177.145-.454.162-.554.033q-.598-.767-1.128-.342c-.353.284-.056.675.497.645.453-.159.453-.16-.078.273-.354.289-.807.447-1.083.46-.099-.131-.276.013-.63.3-.255.419-.255.419-.099-.132.078-.275-.021-.406-.12-.538-.219-.669-.537-1.464-.361-1.603l.352-.279c.177-.14.229-.805.134-.936-.366-.125.243-.803.609-.681l.271-.008c-.095-.129-.015-.396.161-.533l.095.129c-.081.267.543-.018 1.071-.432.13-.102.26-.201.469-.203-.183-.233-.36-.471-.542-.705.003.045.014.09.041.125.017.39-.336.667-1.15.692l-.366-.121.176-.136c-.096-.128-.446.143-.797.415-.877.68-.877.68-.797.413.081-.267-.014-.396-.459-.258s-.445.138-.431.537c.094.132 0 0-.364-.129-.552-.395-.645-.529-.565-.795.255-.399.16-.529-.457-.265-.349.265-.63-.136-.108-.53.174-.131.174-.131-.094-.133l-.188-.265.348-.261c.329-.653-.638-.532-1.33-.017-.347.259-.521.388-.437.124-.09-.135-.263-.006-.61.251-.431.523-.431.523-.436.121.084-.265.084-.265-.178-.273-.173.128-.435.12-.524-.018l.519-.383c.524.017.781-.377.858-1.035.083-.262.338-.649.51-.775.345-.253.254-.386-.18-.268l-.344.252c.007.395-.166.522-.434.117-.089-.135-.096-.529-.096-.529.172-.125.172-.125.082-.259l-.686.499-.77.761.509-.772c.254-.385.679-.892.931-1.273.424-.504.423-.503.081-.257-.342.247-.952.089-.611-.156.171-.123.171-.123.081-.257s-.179-.268-.349-.146l-.081.256c.089.135.089.135-.081.257 0 0-.171.122-.26-.013-.09-.135-.177-.27-.347-.149l-.256-.015c.255-.379.083-.651-.256-.409l-.34.242c-.085-.137.255-.378.594-.619l.34-.241c-.254.377-.082.649.172.271.34-.242.51-.363.596-.228l-.17.121c-.17.121-.084.256.002.392l.341-.243c.084-.256.254-.377.254-.377l-.173-.269-.513-.028c-.17.12-.426.106-.851.21-.51-.032-.51-.033-.171-.272.169-.12.167-.51.081-.645-.086-.136-.003-.389.334-.626s.506-.355.592-.221l.337-.237c.169-.118.082-.252-.005-.385-.168.118-.087-.133.337-.236.425-.105.827-1.352.562-1.744-.062-.093-.04-.242-.023-.322l-.422-.625c-.048-.02-.101-.021-.171.027-.42.096-.737 1.084-.557 1.734.007.383-.074.632-.492 1.118-.499.738-.501.741-1.094.569-.422.099-.928.06-1.095.176-.168.117-.42.096-.42.096-.252-.021-.085-.137.418-.486.588-.212.587-.212.082-.253-.171-.272-.589-.179-.589-.179-.167.115-.167.115-.252-.022.082-.252.082-.252.415-.481.586-.209.412-.479-.001-.388-.748.319-.492-.824.252-1.138.58-.203 1.079-.16 1.08.224.171.655.602.941.848.576.334-.231.334-.231-.086-.134.167-.115.08-.249-.007-.382-.174-.267-.005-.382.161-.496l.499-.343-.169-.267c-.332.228-.5-.041-.253-.401l-.497.339c-.663.453-1.161.408-1.411-.382l-.251-.788-.657.443c-.164.111-.657.443-.903.417-.41.084-.409.083-.164-.275.246-.358.245-.357-.245-.027-.327.22-.572.192-.572.192-.245-.028-.162-.276-.081-.138.245.028.327-.219.001-.386-.163-.276-.244-.414.082-.631l.163-.109c.082.137.082.137-.081.246 0 0-.081.247.082.138.245.028.896-.791.73-1.062l.325-.216c.083.136.162-.108-.083-.136 0 0-.327-.164-.651.051-.405.078-.404.077-.16-.275l.162-.107c-.242-.03-.321-.168-.4-.305-.159-.275-.238-.413.083-.625.322-.212.484-.697.643-1.179.239-.723.073-1.366-.324-.92-.159.104-.319.208-.24-.032-.08-.136-.002-.376.157-.479.24.032.159-.103-.003-.374-.161-.271-.165-.645-.088-.882.152-.473-.171-1.013-.325-.914-.156.1-.079.237.001.373.162.27.085.507-.072.609-.235.339-.473.305-.71.27-.08-.136-.157.101-.235.34.002.375-.157.478-.315.58l-.158.102c.079.138.237.035.395-.067.316-.204.636.342.556.582l-.636.414c-.397.069-.476-.069-.869-.76-.315-.552-.471-.829-.389-1.07.157-.101.004-.378-.073-.517-.233-.039-.153-.277.08-.239.389-.062.466.076.543.214s.077.138.234.037c.237-.339.081-.614-.073-.889-.233-.038-.233-.038-.389.062.077.138-.079.238-.235.338-.389.061-.389.061-.618-.355.003-.376-.229-.416-.153-.277 0 0-.155.099-.462-.081-.231-.041-.461-.082-.615.016-.155.098-.154.098.079-.237.234-.336.391-1.183.238-1.46-.076-.139-.229-.042-.306.193-.306.193-.46.29-.535.15s-.151-.279-.378-.323q-.341-.066-.225-.419c.076-.235.307-.565.385-.8 0 0-.074-.14-.45-.091l-.521-.233.302-.188c.453-.282.452-.281.078-.234-.297-.187-.447-.094-.597 0l.078-.234c-.073-.141.004-.374.154-.467.073.14.15-.093 0 0l-.146-.28.149-.093c.073.14.223.047.372-.045.15-.093.076-.232.002-.372 0 0 .076-.232.224-.324l.298-.184c-.074-.139-.149-.278-.446-.094-.149.092-.224.323-.373.415.148.278-.826 1.066-.97.785 0 0 .077-.233.375-.417.076-.232.076-.232-.146-.281-.073-.14-.366-.33-.439-.471-.365-.331-.437-.472-.29-.562 1.031-.632 1.398-1.041 1.25-1.319 0 0-.221-.049-1.172.347-.293.179-.658.217-.727.075l.076-.23c.146-.089.146-.089.076-.23s.075-.23.221-.318c.291-.177.291-.177.365-.406-.142-.281.437-.633.509-.493.144.28.581.014.58-.352q.108-.34-.218-.417s-.072-.139-.001-.365c-.002-.365-.218-.417-.433-.104-.287.54-1.297.784-1.437.501l-.144.087c-.144.087-.214-.054-.355-.337-.211-.424-.281-.565.002-.368.427.11.427.109.144-.453l-.212-.422c.213.056.355-.03.497-.115.284-.17.498-.116.498-.116.214.055.357-.032 1.494-.714q.077-.087.129-.168c-.053-.118-.111-.234-.164-.352-.016.008-.028.012-.045.022-.142.085-.142.085-.215-.053.141-.085-.215-.053-.638.2-.069.223-.141.085-.214-.054 0 0-.145-.278-.358-.333-.072-.139-.212-.056-.209.307-.069.224-.138.448-.067.588.144.279-.354.395-.849.142-.212-.056-.423-.113-.564-.029l-.141.084c-.07-.141.141-.45.282-.534l.281-.168c-.42-.114-.972-.515-.833-.598.071-.225.004-.731-.34-1.073-.344-.343-.615-.911-.479-.991.137-.081.137-.081.068-.222-.137-.283.135-.443.41-.242.137-.08.137-.081.204-.302-.002-.362-.003-.361-.48-.262-.341.019-.409-.123-.477-.264s-.137-.283-.272-.204c-.271.159-.474-.267-.337-.709.202-.299.135-.44-.133-.284l.067-.22c.201-.298.2-.298.133-.439 0 0 .066-.219.199-.297.397-.592.395-.591-.069-.501-.2-.064-.332.012-.464.089-.065.219-.066.219-.199-.065-.201-.425-.794-.984-.859-.767.066.143-.131.076-.131.076-.066-.143-.001-.361.13-.436 0 0 .064-.218-.068-.502-.066-.142-.003-.359.127-.434s.13-.075.063-.216c-.198-.067-.655-.704-.525-.778.128-.074-.065-.142-.258-.212-.385-.139-.448-.283-.386-.498l-.191-.07c-.127.073-.191-.07-.064-.143s.189-.288.125-.431c-.193-.429-.136-1 .18-1 .317-.001.31-.356-.07-.498s-.379-.143-.25.142c-.06.214-.06.214-.185.285l-.064-.143c-.064-.143-.069-.499-.069-.499-.065-.143-.129-.285-.253-.215s-.248.141-.312-.002l.124-.07c.124-.07.248-.141.43-.423l.117-.424-.504-.43-.434-.291.239-.492.115-.422c-.121.068-.242.136-.306-.006-.063-.143-.063-.143.057-.211.305.007.113-.421-.191-.428-.184-.075-.303-.008-.423.06-.057.211-.057.211-.063-.143.057-.211-.007-.353-.251-.573-.182-.076-.363-.154-.244-.22q.261-.414-.187-.43c-.118.066-.118.066.055-.209.055-.209.29-.341.408-.406.063.143.117-.066-.063-.143l-.181-.077c-.117.066-.117.066-.18-.078-.063-.143-.009-.351.108-.416.298.012.231-.129-.241-.221-.178-.079-.178-.079-.062-.143.295.013.161-.623-.255-.925-.3-.366-.545-.941-.37-.86.062.143.114-.063-.062-.143-.062-.143-.01-.35.103-.412.051-.206.164-.268.113-.063.124.286.363.509.3.366.051-.206.051-.206-.137-.634-.062-.143-.012-.348.1-.41l.063.143.126.285c.127.118.359.026.574-.125l-.175-.388c-.155-.098-.314-.243-.314-.243l-.063-.142q.095.213-.336.186c-.224.124-.336.186-.274.329s.062.143-.05.205l-.062-.143c.05-.205-.124-.286-.348-.162-.05.205-.051.206.123.287-.164.268-.459-.101-.358-.512.05-.205-.012-.348-.295-.369l.222-.122.222-.122c.012.348.236.224.333-.184-.014-.347-.015-.346.285.02.053.12.196.184.503.058l-.143-.316c-.029-.021-.056-.035-.09-.067-.285-.02-.285-.02-.189-.427.008-.035.005-.076.004-.115-.138-.31-.282-.618-.42-.929-.007.015-.014.02-.02.046-.264.322-1.03.743-1.199.659s-.228-.229-.288-.373c0 0-.228-.229-.287-.374-.226-.23-.226-.23.048-.204.167.085.276.026.383-.033.048-.203.215-.118.662-.009.197.017.386.015.562-.019q-.052-.116-.105-.232l-.024.013c.008-.013.007-.028.012-.041-.064-.145-.132-.288-.195-.433-.103-.07-.217-.086-.279.02-.107.059-.215.118-.276-.026-.229-.228-.229-.228-.336-.17-.046.202-.154.261-.154.261-.06-.144-.014-.346.093-.404q.229-.39.32-.175l.045-.201c-.061-.143-.017-.344.089-.402.01-.005.014-.009.022-.014-.187-.43-.366-.863-.551-1.293-.012.012-.023.02-.023.02s-.104.057-.164-.087c0 0 .024-.109.078-.188l-.043-.1q-.044.056-.096.145c-.192.457-.297.515-.46.427-.327-.175-.501-.609-.457-.809.103-.056.044-.2-.015-.345 0 0 .044-.2.146-.255.205-.111.248-.311.109-.94-.06-.143-.12-.287-.221-.232s-.16-.089-.16-.089l-.119-.288c-.1.054-.201.109-.142.253s.059.144-.042.199c-.202.109-.201.109-.159-.09.101-.055.042-.199-.017-.343l-.1.054c.059.144-.042.199-.142.253-.101.055-.274-.38-.133-.632s.082-.396-.058-.144c-.182.451-.283.505-.241.306l-.116-.29c-.099.053-.158-.091-.073-.489.042-.199.14-.252.14-.252l.197-.106-.115-.29c-.196.106-.31-.185-.172-.435.097-.053.04-.197-.155-.092-.154-.093-.308-.186-.365-.331s-.057-.145-.153-.093l.113.291-.153-.093c-.209-.239-.209-.239-.169-.436.232-.301.27-.496-.073-.488-.247-.043-.207-.24.172-.444.153.094.17-.443-.076-.486-.151-.094-.265-.385-.077-.485.094-.05.151.094.209.239s.152.094.246.043c.049-.026.071-.041.074-.067l-.064-.157c-.265-.267-.459-.832-.458-1.133-.232-.575-.468-1.147-.697-1.723-.083-.046-.181-.162-.306-.35-.291-.195-.346-.341-.368-.679-.135-.628-.133-.629-.364-.682-.175.093-.229-.053-.391-.492l-.215-.586c.094.067.279-.225.377-.472-.043-.119-.082-.238-.125-.357-.037-.037-.076-.074-.096-.129-.055-.146-.248-.393-.333-.348-.169.089-.169.089-.054-.146-.022-.303.046-.362.161-.298q-.166-.477-.328-.953c-.027.284-.101.31-.21.227-.053-.147-.053-.147-.023-.337.112-.234.111-.233.029-.19s-.135-.104-.078-.483q.003-.034.008-.066c-.123-.38-.248-.76-.366-1.141l-.067.036c.107.293-.055.378-.372.022-.212-.063-.263-.21-.105-.294.079-.042.079-.042.027-.189-.131-.105-.105-.294.184-.271.042-.022.073-.041.104-.061q-.114-.37-.224-.74c-.162.001-.434-.336-.35-.522l-.129-.107c-.154.081-.307-.362-.231-.402s.128.107.128.107c.051.147.128.107.205.067.036-.019.087.005.141.052q-.3-1.039-.586-2.081l-.006.001c-.222.116-.422.046-.621-.547-.05-.148-.027-.334.046-.372l.101.296c.051.148.05.148.124.11.055-.029.166.02.247.101a226 226 0 0 1-.606-2.286c-.056-.029-.096-.014-.135.006-.07.037-.141.073-.172-.259-.05-.148-.099-.297-.119-.112-.07.036-.14.073-.189-.076s-.097-.298-.167-.262c-.069.036-.139.072-.187-.078-.048-.149-.048-.149.138-.072.235.227.514.082.345-.179-.111-.107.008-.166.221.014q-.269-1.054-.531-2.11c-1.039-4.168-2.062-8.366-2.416-12.702-.203-2.478-1.014-4.907-1.557-7.357-.039-.175-.17-.335-.188-.51-.707-6.635-2.046-13.221-1.408-19.961.125-1.319.478-2.512 1.147-3.57.816-1.291 1.159-2.579.984-4.106-.122-1.069.21-2.193.071-3.257-.225-1.724.118-3.281 1.091-4.645 1.744-2.445 1.179-4.72-.196-7.071-1.004-1.717-1.786-3.563-2.778-5.287-1.829-3.177-2.185-6.836-3.449-10.195-.508-1.351 1.073-2.699.131-4.104.534-.946.996-1.941 1.615-2.828 1.428-2.046 3.27-3.354 5.939-3.078 3.033.314 6.182-.669 9.112.812 1.918-.412 3.853-.758 5.75-1.252 3.089-.803 4.762-.156 6.186 2.563.931 1.777 1.739 3.591 1.618 5.675-.075 1.29.329 2.467.743 3.687.749 2.208 1.233 4.505 1.87 6.753 1.343 4.741 3.548 9.153 6.526 12.973 2.234 2.866 3.796 6.133 6.099 8.913.455.549.659 1.336 1.172 1.8 3.784 3.421 6.624 7.678 10.136 11.342 1.742 1.817 3.258 3.857 4.808 5.85 1.991 2.56 3.881 5.198 5.878 7.753.891 1.14 1.896 2.201 2.92 3.227 7.832 7.844 15.612 15.742 23.56 23.466 2.967 2.883 6.278 5.394 10.131 7.152 3.95 1.803 7.76 3.913 11.636 5.878 4.032 2.044 7.836 4.417 11.534 7.048 3.215 2.287 6.855 3.982 10.635 5.32 4.92 1.742 9.784 3.645 14.634 5.574 1.155.46 2.13 1.355 3.241 1.949 2.554 1.365 5.19 2.583 7.705 4.015 4.9 2.789 10.192 4.529 15.633 5.771 2.661.607 5.182 1.495 7.708 2.458 2.01.766 4.126 1.285 6.075 2.174 1.551.708 3.125.766 4.741.956 3.394.399 6.805.788 10.139 1.505 1.243.267 2.459.49 3.716.571 1.088.07 2.24-.065 3.252.25 6.242 1.946 12.604.729 18.913.843 2.217-.911 4.562-1.025 6.911-1.114.854-.032 1.267-.612 1.523-1.321.365-1.012.641-2.057 1.036-3.057.873-2.211 1.984-4.216 4.177-5.476 2.383-1.368 4.263-3.256 5.642-5.697 1.135-2.009 3.049-2.508 5.101-1.425 1.913 1.01 3.726 2.211 5.578 3.336 3.393 2.061 6.746 4.192 10.19 6.163 1.468.84 2.019 1.964 1.967 3.55-.065 1.983.056 3.932-1.024 5.804-2.436 4.224-3.887 8.879-5.529 13.445-.427 1.186-.673 2.524-1.397 3.499-2.402 3.237-3.718 7.031-5.661 10.498-.617 1.102-1.32 2.215-1.637 3.415-1.771 6.704-6.527 11.04-11.727 15.042-.561.431-1.337.622-1.814 1.117-3.779 3.915-8.444 6.86-12.014 11.002-.591.686-1.283 1.287-1.948 1.907-2.509 2.339-6.772 4.228-10.589 4.801-1.581.238-3.127.73-4.711.933-1.607.205-3.179.341-4.777.814-1.869.553-3.963.577-5.874-.157-1.619-.622-3.115-.621-4.721.056-.801.338-1.759.328-2.651.415-.899.088-1.848-.051-2.696.189-.991.281-1.812 1.258-2.989.481-1.142-.754-1.875.696-2.956.581-1.629-.174-3.266-.155-4.702.862-.133.094-.366.12-.53.081-.691-.163-1.364-.432-2.062-.532-.928-.134-.908 1.489-1.298 1.23-1.743-1.156-3.1.469-4.654.418a65 65 0 0 0-4.358.006c-1.252.043-2.551-.172-3.698.614-.661.453-1.358.293-2.06-.007-.484-.206-1.196-.588-1.496-.4-1.902 1.196-3.742 1.115-5.627.051-3.287 1.52-6.77.586-10.16.776-1.587.089-3.27.528-4.766-.556-.173-.125-.602.091-.909.164-2.845.673-5.634.912-8.419-.417-.747-.357-1.789-.196-2.684-.125-4.185.335-8.229-.585-12.296-1.311-.963-1.176-1.979.161-2.937-.064-.859-.201-1.685-.843-2.514-.823-3.143.077-6.044-.723-8.852-2.017-1.409.34-2.528-1.347-4.014-.557-1.369.728-2.267-.841-3.58-.756-1.42.091-2.91.093-4.215-.736-.057-.036-.35.131-.368.233-.059.333-.189.868-.031.992 1.697 1.327 3.366 2.715 5.195 3.84 2.795 1.72 5.227 3.85 7.687 5.993 2.166 1.888 4.563 3.522 6.931 5.164 4.012 2.781 8.192 5.293 12.57 7.465.65.322 1.344.599 1.914 1.033 3.247 2.48 7.221 3.071 10.966 4.235 1.012.314 2.16.232 3.247.255 1.998.042 3.998.031 5.997.036 1.818.005 3.635.001 5.453.001v.008c2.181 0 4.378-.167 6.541.034 4.594.427 8.955-.946 13.42-1.493 1.602-1.175 3.656-.323 5.25-1.066 1.579-.736 3.145-.727 4.758-.887.878-.087 1.727-.446 2.604-.576 3.011-.446 5.914-1.353 8.965-1.748 3.037-.393 6.038-.893 9.117-.941 1.785-.027 3.589.109 5.349-.677.933-.417 2.138-.286 3.222-.295 7.269-.06 14.541.013 21.805-.182 2.972-.08 5.724.779 8.493 1.448 2.237.541 4.197 2.245 6.435 2.762 1.995.46 3.747 1.311 5.58 2.051-.033-.184.124-.603.286-.724.072.033.161.528.069.586.007-.004-.195-.023-.196-.001.037.049.037.121.011.209.101.04.199.084.301.123.248.096.488.205.734.305.054-.295.173-.569.408-.467l-.217.546.094.039c.101-.076.36-.333.344-.321.154-.118.192.28.104.507l.21.087a.13.13 0 0 1 .123.024c-.008.001-.018.014-.026.017q.127.053.254.105c.192-.072.364-.116.274.096-.001.003-.01.008-.013.012l.451.199c.01-.015.019-.039.029-.045.033-.019.031.015.017.066.14.063.277.131.417.195l.005-.004.002.007q.28.128.558.26c.044-.15.09-.295.122-.413.043-.161-.219.014-.195-.094.097-.458.542.484.429.673q.178.082.356.166c.284-.167.617-.276.691-.244-.137.218-.117.342-.149.501.18.089.356.184.536.274.042-.021.086-.004.121.033q-.006.01-.014.022l.147.075c.117-.25.377-.792.307-.856.139.126.036.643-.141.941l.515.263c.06-.09.102-.04.104.053.314.163.629.323.941.49.137-.024.248-.062.246-.123a.5.5 0 0 1-.068.221q.196.107.392.216a1 1 0 0 1 .012-.094c.202-1.052.385-.106.31-.099a.6.6 0 0 0-.116-.123c-.064.091-.075.235-.075.388q.386.21.771.424c.039-.008.068-.003.071.039.197.11.395.214.592.326.092-.23-.04-.174-.002-.431.028-.192.243-.255.256-.129.006.061-.042.399-.09.656.219.125.428.251.643.376.032-.187-.085-.218-.309-.339-.149-.081.039-.322.138-.533.116-.248.211.394.249.44.086.102.718-.513.673-.417-.348.73.049.038.207-.003a.56.56 0 0 0 .034.261q.104.066.242-.033c.133.065-.048.38-.062.425-.056.178.257.151.185.297-.11.224-.62.235-.691.112-.035-.06-.089-.007-.148.093q.381.227.755.454c.067-.126.139-.297.147-.336.057-.282.032-.135.222-.146.057-.003.421-.401.391-.111-.02.193-.237.445.021.396.284-.054.774.161.291.59-.028.025-.1.103-.168.175l.088.055c.153-.169.274-.195.453-.422.014-.018-.072.43-.072.454.002-.138.794-1.422.688-.768.105-.143.328-.279.412-.201.098.091.106.265.179.375.048.073.204-.174.294-.037.064.097-.386.284-.407.299-.147.102.029.142-.048.288-.207.396-.28-.453-.118-.368-.094-.049-.042-.162.026-.293-.143-.004-.982.561-.727.694.161-.502.307-.34.126.117-.009.021.361-.37.359-.222-.003.177-.127.616-.256.684l.252.172c-.086-.125.036-.578.036-.578.07.093.163.311.341.081.103-.134.519-.788.404-.208-.059.112-.11.659.068.405.164-.233-.028-.844.415-.613-.061.036-.527.841-.762 1.257.086.06.176.118.261.178.087-.104.18-.206.273-.327a6 6 0 0 0-.13.428c.074.053.146.111.22.165.025-.021.049-.037.069-.038.163-.096.11-.005.02.105l.188.14c.071-.205.226-.423.367-.449q.032.08-.02.203c.008.271.048.119.178.119.242.001.188.3.019.533q.58.444 1.151.911a1 1 0 0 1 .091-.135c.156-.158.477.123.587.146.532.108.783-.577.298-.704.106-.178.712-.679.739-.371.01.119-.259.129-.299.372-.044.268-.053.566.118.655-.175.283-.455.003-.56.23-.199.431-.056.349.115.342.235-.01.375.136.289.447-.049.078-.089.088-.129.078l.197.177c.041-.011.035.03.144.013.102-.016.264-.158.341-.085-.008.222-.09.199-.197.196.05.042.059.109.054.183.18.164.36.318.54.486.123-.148.195-.312.07-.395.081-.124.428-.119.466-.022.059.148-.141.508-.254.693.193.185.388.379.581.57.046-.065.091-.122.138-.127.062-.007.016.155.181.168a.36.36 0 0 0-.218.058l.185.181c.187-.415.378-.887.222-.989-.253.59-.763.348-.769-.019.489-.055.602-.603.818-.926.279-.227.109.096.052.246-.102.267.363.362.498.4.312.098.575-.986.628-.415.097 1.086-.469.333-.657.606.079.086.242.191.333.24q-.019.238.2.144c.36-.155.029.083.115.136.2.124 1.05-1.264 1.008-.688-.013.172.195.268.255.394.063.132-.207.309-.279.218-.079-.098-.01-.258-.141-.313-.267-.111-.608 1.343-.43 1.472-.022.232.231.448.008.719-.035.042-.18.203-.337.371.1.109.198.207.298.317.154-.198.251-.378.129-.329-.373.156-.03-.288.116-.42.246-.15.543-.682.114-.42-.318.237-.05-.204.031-.313a.28.28 0 0 0 .062-.182c.158.192.362.392.432.204-.194-.053-.519-.674-.341-.918.008.078.088.398.235.288a.26.26 0 0 1 .091-.164c.098-.059.079.399.079.399.054.214.277.076.451.047.097-.016-.075.439-.286.178-.169.222-.075.235-.265.484-.228.299.094.28-.057.476-.177.23-.081.303-.103.474-.018.141-.26.412-.399.575l.014.021c.057-.036.12-.072.124-.08a1.3 1.3 0 0 0-.058.177l.083.123c.077-.068.157-.22.07-.288.134-.079.607-.56.478-.662.192.153.436-.472.336-.435.202-.077.317-.075.536-.269.088-.078.489-.647.586-.57-.13.544.068.402.288.576.248.197-.847.757-.847.757-.028-.103.16-.298.227-.382-.124-.014-.304.279-.383.217-.538-.089-.072.516-.101.55-.106.132-.252-.031-.357.042-.268.188.176.133.173.198q-.108.18-.267.161c-.163.203.457.197.634-.017-.258-.167.167-.112.258-.264.086-.144-.25-.131-.031-.402.053-.067.584-.32.697-.336-.091.054-.461.278-.454.398.012.209.17-.033-.047.368-.151.278.304 0 .356.009.336.058.331-.167.08-.306.114.091.18-.204.254-.146.13.106.162.297.28.405.108.094.004.494.116.531.17.057.327-.324.221-.417-.389-.341.667-.4.896-.661.178-.207.219.068.06.189-.125.095-.55.339-.643.318.015.003.312-.013.286.046-.098.22-.602.368-.557.64.051.321.864-.632.817-.087-.014.15-.245.072-.283.06.259.268-1.002 1.111-1.002 1.111-.091.098-.182.23-.274.374.091.081.173.17.259.256.47-.492.377.078.176.175q.03.03.061.06c.199-.185.457-.398.497-.459.138-.215-.208-.23.001-.564-.137.219.373.214.429.25.092.059.093.652.029.65.353.012.319-.325.319-.438 0-.166.178-.462-.13-.369.052-.203.245-.348.346-.54.261-.496-.565.141-.526-.204.016-.163.961-.946 1.021-.915l-.067.643c-.004-.238.517-.749.435-.382-.027.12-.34.397-.245.48.127.112.402-.271.474-.245.201.072-.578.47-.391.635.213.193-.318.507-.277.299.109-.571-.477.056-.432.334.052.322.57-.316.562.094.001-.055.202-.329.122-.373.075.041.549.117.56.088-.131.36-.358.223-.578.457-.148.156-.112-.028-.223.036-.106.061-.273.364-.363.469-.205.24.129.215-.14.497-.334.353-.322.799.137.324.163-.169.367-.405.444-.609.051-.136-.125-.158.011-.313.24-.275.714-.247 1.023-.48l.898-.081c-.183.185-.422.538-.598.366-.294-.288-.524.387-.682.546-.093.094-.525-.029-.6.293-.272.281.106.474.35.342.127-.129.383.209.463-.118-.005.024-.136-.704.111-.462.127-.148.472-.579.578-.377.106.203-.665.672-.475.858.171-.222.3-.531.53-.718-.086.069.449-.1.449-.1.104-.033-.06.233.041.28.144.067.45-.108.64-.064.478.13-.072.541-.385.666-.439.177-.625.568-.842.876-.222.319-.377-.265.208-.566-.217.112-.327.123-.443.01.12-.077.492-.17.549-.319.066-.175-.367-.139-.445-.087.11-.072.417-.226.301-.34-.14-.137-.335.314-.432.422-.231.263-.134.599-.62.464-.112-.03-.127.844-.113.827.185.197.404-.183.519-.133.135.062-.261.574-.384.669.364-.193.702-.515.94-.853-.036.051-.016.258-.047.336-.082.211-.279.331-.41.515-.043.06.008.139-.033.209-.087.146-.261.245-.353.39-.077.121.064.232.189.117.184-.17-.112-.113.067-.279.105-.098.255-.292.381-.464l.231-.327c.071.078.524-.126.468-.28-.034-.094-.062-.129-.08-.14.018-.008.049-.034.098-.102.051-.073-.385-.136-.169-.341.063.085.189.047.267.09.088-.082-.233-.536.169-.62.176-.167.032.508-.008.573-.172.291-.004.578.235.181.148-.247.508-.522.724-.722-.353.441-.418.619-.111.803.372.223-.431.569-.196.826a.25.25 0 0 0 .134-.147c.162-.074.241.383.536.124-.081.157-.283.689.123.336.399-.344-.214.489-.309.533q.063.027.132-.034c-.043.072-.002.123.036.17.077.094.396-.228.467-.288.276-.235.455-.213.766-.423-.238.162-.093.516-.24.638-.189.157-.43-.499-.628.09-.183.156-.025.653.05.621.167-.068.75-.93.946-.688-.076.063-.837.675-.745.706.074.022 1.501-.459 1.171.034-.058.071-.654.705-.745.592-.066-.082.297-.437.297-.633 0-.097-.265.225-.265.225-.11.074-.098-.166-.141-.19-.31-.17-.814 1.234-.263.788.04.004.044.076.091.085.12.025.295-.257.384-.147.361-.045.255-.237.537-.329.245-.079.052.288.088.332-.085-.105-.11-.147-.361.106.121-.095.492.159.529.221-.279.212-.812.057-.825.069-.417.324.421.217.509.197.018-.009 1.126-.42.795-.065a3 3 0 0 1-.318.122.5.5 0 0 1-.195.224c.348-.262.489-.103.178.181.146-.134.297.074.411-.205-.025-.198.104-.53.388-.393.356.174-.257.551-.556.749-.108.07-1.313.844-1.221.973.158.221.861-.198.653-.49.279.39.637-.38.931-.568-.162.213.642.745.102 1.254.568-.283-.144.525.106.676-.211-.245.254-.423.554-.628.129.525.332-.023.547-.17.008.027.089.172.151.143.516-.242.893-.598.59.07.054-.117.347-.163.252.042-.157.191.041.418.067.363.86-.554-.039.707-.029.723.123-.059.206-.183.275-.073a3.4 3.4 0 0 0-.733.559c.439-.191.463.422.093.566.055-.021-.189-.849-.265-.263.074.118-.049.709-.275.844-.142-.228-.242-.359-.361-.406a5 5 0 0 0-.422.691c.111-.112.338-.347.493-.418.245-.112.089.297-.053.382.656-.398 1-.058.208.306.168.27.779-.626.826-.722-.034.064.217.237.27.264.213.108.112-.046.265-.099.101-.034-.088.245-.106.259-.211.164-.289-.097-.491.068-.263.214-.212.276-.498.391-.129.052-.041.3-.139.386.143-.125.12-.143.205-.271.123.194-.26.431-.495.566 1.076-.618.491.568.506.75-.003-.033-.368.542-.265.485-.011.018-.021.024-.032.039l.14.215c.316-.099.749-.168.749-.168s-.276.166-.615.374l.253.389c.483-.22.991-.465 1.368-.831.261-.255.215-.211.494-.243.361-.041.225-.163.392-.299.323-.265.625.317.723-.197.192.226-.244.307-.304.498-.032.1.115.175.016.285-.112.125-.649.345-.723.206-.281.359.164.248.415.176.434-.126.268.362.531.388-.15-.017 1.041-.328.51-.071-.012-.006-.221.225.02.166.066-.016.22-.114.22-.114.115.251-.504.308-.59.357-.114.064-.686.625-.686.625.166-.004.486-.261.597-.36-.399.366-.5.631-.248.885.072.073-.383.371-.271.376.292.012.547-.231.677-.428.113-.171.187-.36.14-.511-.22-.026-.325-.223-.188-.41.37-.509.887.055.358.237.285-.098.276-.258.453-.341.229-.106.086.336-.404.448-.061.014.427.048.427.048-.006.025-.417.367-.391.358.33-.11.399-.092.159.119-.056.049.403-.088.403-.088-.414.136-.065.591.043.669.1.072.39.075.395.181.003.059-.037.442.122.376-.452.187.158.355-.178.628-.33.266.256.066-.386.323a2.4 2.4 0 0 0-.602.329c.353-.152.74-.35.847-.07-.078.102.229.387.208.543-.108.218-.693.65-.597.695.453.214.533.3 1.194.06-.928.336.262.162.457.038-.096.102-.49.306-.453.403.192-.033.418-.315.492-.293.24.072-.385.432-.471.462.242-.085.69-.321.606-.03-.022.095-.099.424-.328.468-.129.025-.083-.147-.123-.14-.288.098-.702-.02-.874.04-.158.055-.307.092-.456.07-.306-.044-.126.127-.406.18-.204.04.063-.399.124-.421-.305.108-.603.128-.905.243l.016.058c.149.075.477-.142.531-.002.03.079-.235.156-.47.191q.026.07.053.139c.372-.101.885-.205 1.118-.158-.07-.014-.301.163-.322.188-.086.099.379.141.432.169.162.082-.214.264-.184.362.037.12.388-.013.355-.118.059-.019.976-.518.598-.08-.255.293-1.046.348-1.469.597q.033.042.068.083c.222-.043.606-.231.704-.253.347-.08.196.334.343.399.032.015.844-.521.671-.098.309-.086.183-.144.232-.304 0 0 .4-.457.295-.424.065-.021.319.041.331.081.048.154-.643.187-.259.439.084.056-.067.288-.082.363-.043.21.101.002.149.156-.148.044-.446.387-.226.36.11-.013.817-.41.634.038-.172.419-.511.064-.676.114.184.268-.617.227-.829.25-.041.004-.097.015-.146.021.075.086.151.173.219.263.15-.086.306-.15.332-.067.056.179.709-.067.658.108-.057.194-.401.307-.732.35q.032.051.063.104c.091.008.17.047.229.14a.3.3 0 0 0-.118.076c.043.084.088.168.127.255.151-.035.295-.076.339-.088.1.013-.064.271.19.203.157.047.137-.638.094-.706.265.072.159-.082.348-.135.311-.087.154.325.194.392.287.414.23.393-.597.608.184-.049.146.142.252.179.251.088.391.006.619-.012.124-.009.081 1.049-.082 1.066l-.807.116.109.406c.009.034.023.066.032.099.081-.046.167-.096.211.084.032.13.129.209.323.178.04.164-.381.171-.417.011l-.024.013q.084.277.178.551c.28-.013.535-.035.551.035.357-.115.111-.277.34-.327.308-.067.072.481-.434.515.212-.045.228.399.523.306-.382.121-.645.563-.103.443.048.263-.255.21-.467.153l.097.238c.085.022.165.047.201.102.119.183.466.318.628.508-.191.034-.389-.017-.595-.039l.045.111c.078-.037.142-.032.163.082-.008.029-.041.065-.083.104l.044.103c.025-.014.034-.035.068-.046.728-.13.292.189-.017.164l.064.149c.2-.033.382-.056.458-.069-.311.054-.066.154-.026.203.101.125-.24.134-.363.023l.116.268c.276.037.576.312.228.369-.03.005-.048-.004-.072-.007.067.157.128.315.193.472.205.076.582.239.17.301a1 1 0 0 0-.082-.076c.136.336.276.67.396 1.011.647 1.849 1.122 3.76 1.615 5.659.078.301-.067.732-.248 1.013-.566.878-.607 1.685.193 2.415 1.033.943 1.016 2.2 1.282 3.448.344 1.614-.761 2.994-.244 4.671.464 1.506.224 3.234.256 4.865.032 1.635-.077 3.279.042 4.906.216 2.967-.601 5.742-1.796 8.329-1.04 2.252-1.168 4.972-3.245 6.721-1.191 4.633-4.33 8.2-6.608 12.243-1.045 1.854-2.001 3.791-2.759 5.846-.796 2.158-2.274 4.046-2.122 6.534.053.875-1.123.95-1.352 1.497-1.757 4.175-4.508 7.718-7.08 11.366m16.652-90.722q.096.202.216.396c.277-.061.538-.133.667-.206-.139.078-.413-.374-.527-.365-.074.005-.207.081-.356.175m-5.262-10.02q.169.242.335.487c.034-.156.081-.325.193-.395.123-.076.088-.184.269-.301l.572-.357c-.195-.037-.456.126-1.016.444-.035-.057-.201.022-.353.122m-7.912-10.2zl.011-.013c-.002.004-.009.009-.012.012m-4.105-3.619.053.057c.022-.022.035-.043.002-.047a.06.06 0 0 0-.055-.01m-1.061-1.11c.049.049.097.094.146.144.302-.4.874-1.21.53-1.185-.263.379-.438.711-.676 1.041m.337.34q.061.065.123.131a1 1 0 0 0 .038-.07c.064-.175-.035-.146-.161-.061m-6.967-5.876q.19.128.378.258c.1-.139.18-.277.143-.334-.085-.131-.25.016-.38-.052-.07-.037-.079.125-.141.128m-.801-.548c.124.082.243.168.366.25-.046-.102-.172-.441-.314-.353-.019.013-.037.054-.052.103m-1.207-.76q.24.15.477.3c.062-.286-.229-.314-.477-.3m-10.697-5.52.173.072a3 3 0 0 1 .011-.476c-.038.079-.119.242-.184.404M207.389 105.4c.137.242.519.346.789.512-.165 1.303.194 2.435.766 3.638 2.319 4.877 4.353 9.863 5.981 15.037 1.021 3.244 2.505 6.393 4.168 9.37 1.918 3.434 3.277 7.139 5.496 10.436 2.323 3.452 4.478 6.997 7.487 9.926 2.083 2.028 4.123 4.1 6.187 6.148 9.744 9.671 9.731 9.68 17.124 20.189a13.1 13.1 0 0 0 2.636 2.742c3.275 2.553 6.442 5.317 9.989 7.431 4.823 2.874 9.313 6.219 13.883 9.42a71.4 71.4 0 0 0 10.78 6.235c1.462.684 3.033 1.141 4.482 1.849 7.295 3.561 15.003 6.198 22.22 9.934 1.279.662 2.667.969 4.13 1.196 2.665.414 5.354.752 7.989 1.256 4.052.775 8.016 2.003 12.195 1.998 2.556 1.08 5.414.599 7.954 1.412 1.974.631 3.891.872 5.863.752 2.671-.163 5.299.813 7.968.202 5.219 1.742 10.331.275 15.463-.53.13-.02.232-.223.348-.341-.13-.127-.248-.346-.391-.365-.862-.111-1.447-.757-2.456-.805-5.049-.241-9.857-1.666-14.392-3.855-2.776-1.34-5.622-2.396-8.562-3.291-8.127-2.475-16.037-5.617-23.273-10.021-5.456-3.321-11.246-5.673-17.145-7.864a81.4 81.4 0 0 1-15.927-7.971c-3.45-2.228-6.587-5.118-10.805-6.015-.324-.069-.572-.441-.888-.611-2.546-1.368-5.043-2.845-7.664-4.051-4.738-2.18-10.025-5.24-13.266-8.182a958 958 0 0 1-14.756-13.678 189 189 0 0 1-8.075-8.118 206 206 0 0 1-7.9-8.959c-2.075-2.495-3.89-5.204-5.949-7.712-3.438-4.187-6.441-8.74-10.266-12.594a53 53 0 0 1-6.819-8.432c-.987-1.513-1.883-3.085-2.872-4.595-.382-.583-.771-1.258-1.641-1.24-.028-.337.003-.693-.1-1.004-.094-.284-.28-.621-.523-.75-.318-.169-.559.715-.228 1.301m-19.86 30.224c1.501 3.458 3.126 6.926 4.056 10.553 1.488 5.807 3.704 11.266 6.337 16.614 3.02 6.134 7.097 11.638 10.297 17.677 1.835 3.463 3.326 7.246 6.277 10.053 1.728 4.011 4.845 7.14 6.906 10.962 2.299 4.264 5.304 8.169 7.362 12.533 1.554 3.295 3.54 6.2 5.659 9.07 1.605 2.174 3.507 4.142 4.989 6.392a77 77 0 0 0 4.944 6.693c.127.029.282.058.414.179.668.012.808.438.526.483l-.24.191c.191.224.395.439.589.661.254-.04.477-.069.316.062-.113.091-.103.166-.032.257l.082.092c.028.027.054.053.088.084.187-.032.165.024.082.106l.23.258c.174-.07.209-.07.056.062q.098.11.195.219c.222-.133.344-.041.207.232q.076.087.154.172c.091-.003.134.032.112.122.519.556 1.042 1.117 1.557 1.685l.344.295c-.02.017-.02.036-.031.054 1.299 1.454 2.531 2.968 3.487 4.623 2.405 4.161 6.149 6.551 10.164 8.647 1.724.9 3.784 1.141 5.541 1.993 1.763.854 3.36 2.015 5.317 2.508 2.597.655 5.148 1.488 7.739 2.166 2.785.728 5.425 1.891 8.167 2.702 4.981 1.473 10.12 2.443 15.244 3.131 3.909.525 7.797 1.512 11.795 1.379.723-.024 1.548-.125 2.158.164 2.249 1.066 4.619.759 6.951.782 5.088.051 10.178.016 15.267.016v.033c2.18 0 4.359.024 6.539-.005 5.96-.079 11.956.563 17.849-.9.519-.129 1.093-.131 1.63-.078 4.57.451 8.919-1.411 13.457-1.274.179.005.367-.022.539-.073 6.195-1.827 12.587-2.998 18.587-5.471 2.829-1.166 5.825-2.146 8.334-3.824 4.78-3.197 10.178-5.606 13.915-10.235.224-.277.517-.551.838-.686 1.715-.722 2.56-2.305 2.61-3.845.111-3.397 1.879-6.188 2.855-9.255.944-2.964 2.724-5.466 5.012-7.618 1.718-1.615 3.34-3.336 4.953-5.058.569-.607.418-1.348-.099-1.953-1.809-2.119-4.157-3.41-6.782-4.189-.398-.118-1.121.185-1.416.53a8.6 8.6 0 0 0-1.395 2.295c-.964 2.361-3.027 3.582-5.1 4.538-1.13.522-2.191 1.127-3.295 1.668-4.659 2.286-8.919 5.43-14.112 6.59-2.962.662-6.021 1.018-8.719 2.62-.417.247-1.072.073-1.612.135a15.4 15.4 0 0 0-3.136.72c-3.566 1.19-7.366 1.4-10.999 2.414-1.529.427-3.267.04-4.88.25-1.923.25-3.774.591-5.735.017-.992-.29-2.35-.329-3.211.135-1.902 1.025-3.729.096-5.573.233-.504.037-1.179-.355-1.507-.14-2.03 1.335-4.08.109-6.104.13-1.228.013-2.716-.056-3.632-.718-1.425-1.029-2.342.445-3.56.232-1.076-.188-2.094-.621-3.103-.77-1.645-.243-3.244-1.489-5.083-.399-.445.264-1.348-.364-2.046-.386-4.412-.138-8.671-1.454-13.067-1.679-2.714-.139-5.216-1.134-7.788-1.849-1.426-1.578-3.537-1.887-5.359-2.354-2.136-.549-3.514-2.308-5.831-2.647-2.406-.352-4.642-1.857-6.957-2.846-2.316-.989-4.643-1.952-6.955-2.949-2.476-1.068-4.889-2.309-7.428-3.193-1.489-.519-1.983-2.284-3.341-2.527-2.121-.379-3.215-2.346-5.162-2.871-4.009-3.672-8.606-6.601-13.144-9.48-6.538-4.149-11.76-9.608-17.01-15.11-.74-.775-1.26-1.758-1.901-2.631-3.638-4.956-7.291-9.895-11.753-14.174-2.228-2.137-4.276-4.463-6.523-6.579-4.811-4.529-8.202-10.064-11.378-15.758-4.07-7.298-6.477-15.18-8.34-23.288-.798-3.472-1.075-7.085-2.9-10.354-.922-1.652-1.149-3.792-1.315-5.744-.305-3.577-1.615-7.045-1.122-10.707.123-.915-.22-1.757-.74-2.554-2.268-3.474-1.308-7.355-1.339-11.109 1.388-2.175.706-4.584.754-6.904.021-.995-.719-1.48-1.781-1.585-2.596-.256-4.915 1.061-7.442 1.215-1.244.076-1.821 1.106-1.47 2.347 1.314 4.638 2.965 9.179 3.798 13.958.165.948.268 1.685-.193 2.548-.22.411-.306 1.126-.092 1.491.6 1.024.785 1.853.085 2.981-2.11 3.401-3.189 7.162-4.156 11.057-1.008 4.057-1.677 8.062-1.849 12.231-.17 4.094.769 7.831 2.374 11.529m29.559 308.189c1.859-2.014 3.053-4.345 4.069-6.888 1.936-4.847 3.087-9.91 4.602-14.874a26.2 26.2 0 0 0 1.134-7.99c-.011-1.084-.013-2.151.599-3.152.496-.812.456-1.722-.038-2.575-.091-.156-.153-.329-.242-.487-.659-1.164.438-2.035.504-3.069.067-1.04-1.2-1.892-.466-3.053.394-.623.734-1.289.281-2.001-.839-1.321-.663-2.8-.7-4.234-.037-1.455-.384-2.801-.75-4.214-.943-3.636-3.087-6.497-5.258-9.375-2.391-3.169-4.73-6.393-7.341-9.374-1.711-1.953-2.564-4.36-4.077-6.392-2.153-2.891-4.361-5.757-6.297-8.791-2.386-3.738-5.826-6.435-8.861-9.534-.367-.374-.904-.585-1.37-.858-1.241-.729-2.602-1.309-3.697-2.214-1.193-.986-2.742-.085-3.894-1.051-.536-.45-1.277-.674-1.949-.936-.329-.128-.727-.068-1.072-.168-.513-.148-1.011-.351-1.507-.551-.808-.325-1.582.35-2.515-.162-1.582-.868-3.635.12-5.252-1.015-.106-.074-.327-.054-.465 0-.337.131-.645.398-.986.443-.548.073-1.035-.13-1.36-.641-.247-.388-.263-1.079-1.052-.814-.674.227-1.358.507-2.055.567-1.263.11-2.6.188-3.692-.578-1.535-1.077-2.667.969-4.098.411-.162-.063-.385.009-.532-.07-2.045-1.103-4.125-1.144-6.27-.3-.275.108-.679.016-.982-.094-2.656-.965-5.388-.406-8.07-.305-1.761.067-3.411 1.054-5.236 1.104-.322.009-.682.267-.945.501-1.75 1.552-3.968 2.442-5.538 4.302-3.145 3.727-6.371 7.401-9.776 10.889a33 33 0 0 0-5.716 7.867c-2.175 4.174-4.402 8.334-6.298 12.636-1.29 2.925-2.741 5.812-3.303 9.059-.362 2.092-1.531 4.039-1.939 6.13-.444 2.271.191 4.706-.895 6.919.815 1.8-.701 3.411-.387 5.231.242 1.405.034 2.896-.049 4.345-.081 1.425-.054 2.819-.466 4.274-.348 1.228.71 2.663.524 4.141-.506 4.028 1.297 7.826 1.276 11.819-.003.493.496.97.591 1.485.727 3.924 3.702 7.054 3.928 11.153.009.162.141.347.267.468 1.48 1.423 1.93 3.468 3.049 5.081 1.64 2.364 3.093 4.901 5.421 6.736 1.838 1.449 3.724 2.869 5.37 4.52 2.215 2.222 4.806 3.79 7.569 5.174 2.592 1.298 5.341 2.13 8.104 2.942 5.344 1.57 10.718 2.962 16.35 2.929 2.18-.013 4.36-.002 6.54-.002v.007c3.268 0 6.537.023 9.805-.013 1.081-.012 2.296.104 3.209-.337 1.576-.761 3.189-.535 4.787-.756 1.589-.22 3.131-.858 4.721-.986 2.534-.204 4.894-1.065 7.317-1.662 5.403-1.33 9.622-4.712 13.744-8.243 4.544-3.89 7.628-9.031 11.635-13.374m87.691 15.671c-.12-.134-.197-.307-.322-.434-2.683-2.708-5.281-5.51-8.082-8.09-2.915-2.685-5.492-5.696-8.799-8.027-2.452-1.729-4.283-4.349-6.353-6.607-3.791-4.135-7.273-8.518-9.518-13.7-1.356-3.13-2.437-6.389-3.49-9.639-2.723-8.401-5.759-16.675-9.808-24.537-1.9-3.688-4.094-7.224-6.008-10.905-2.188-4.208-5.086-7.903-8.227-11.379-3.282-3.634-6.848-7.014-10.327-10.467-2.304-2.287-4.521-4.688-7.722-5.829-.803-.286-1.46-.982-2.184-1.49-.935.79-1.688.085-2.437-.337-1.242-.7-2.381-1.895-3.685-2.096-1.797-.276-2.733-1.73-4.245-2.283-.67-.245-1.28-.665-1.957-.877-.26-.081-.632.196-.952.309.077.16.123.346.234.478 3.263 3.861 7.338 6.991 10.092 11.313 2.133 3.348 5.246 5.967 7.172 9.465 1.248 2.266 3.099 3.997 4.825 5.849 1.112 1.193 2.498 2.236 3.27 3.62 2.593 4.654 6.499 8.625 7.309 14.239.224 1.551 1.656 2.83 1.638 4.536-.017 1.558 1.302 3.034.27 4.643 1.346 2.923.758 6.038.908 9.081.053 1.082-.13 2.268.256 3.219.521 1.284.611 2.327-.019 3.592-.517 1.039.05 2.112.533 3.097-1.18 2.209-.618 4.609-.76 6.932-.078 1.266.062 2.589-.263 3.788-1.166 4.299-2.502 8.553-3.678 12.85-.529 1.931-1.377 3.637-2.539 5.271-1.244 1.751-2.182 3.717-3.347 5.529-1.747 2.717-3.252 5.688-5.444 7.997-3.204 3.375-5.218 7.764-9.114 10.509-1.276 2.699-3.629 4.469-5.617 6.557-.153.161-.09.577-.04.859.019.105.287.234.443.236 1.27.019 2.54.011 3.81.011l.003.172c1.45-.064 2.986.155 4.331-.254 2.458-.748 4.938-.912 7.456-1.02.532-.023 1.136-.051 1.572-.307 1.51-.888 3.187-.802 4.779-.742 2.795.105 5.336-.701 7.812-1.769 4.307-1.858 8.918-2.957 13.049-5.253.46-.256 1.013-.365 1.535-.485 3.655-.841 7.059-2.738 10.945-2.605 5.605-2.223 11.675-1.621 17.462-2.831 2.617-.547 5.441-.359 8.144-.156 2.444.183 4.592-.726 6.858-1.216.501-.11.556-.453.231-.817m152.693-72.118c.398-1.057.659-2.058.618-3.139-.052-1.364.374-2.477 1.403-3.379.519-.455.274-.913-.078-1.358-.334-.422-1.003-1.106-.898-1.266.939-1.436.136-2.724-.137-4.073-.049-.244.262-.641.507-.847.35-.294 1.211-.31.793-1.003-.61-1.011-.964-2.229-.498-3.107.899-1.696.312-3.05-.419-4.448-.528-1.01-.607-2.063-.672-3.157-.063-1.075-.113-2.179-.393-3.209-1.378-5.073-3.424-9.864-6.43-14.196-3.391-4.888-6.48-10.052-11.635-13.415-.391-1.243-1.648-1.357-2.56-1.81-2.414-1.198-5.015-2.04-7.363-3.345-2.379-1.322-4.979-2.024-7.462-2.997-5.481-2.147-10.948-4.754-17.093-4.027-1.57.186-3.03-1.371-4.567-.113-1.334-.458-2.552-.494-3.995.012-1.292.453-2.868.093-4.318.092-2.176-.003-4.354-.067-6.527.013a36 36 0 0 0-4.266.435c-1.504.236-3.021.69-4.587.657-1.448-.03-2.898.04-4.347.066-2.303 1.709-5.209.995-7.772 1.947-2.633.978-5.581 1.225-8.461 1.47-1.718.147-3.379.965-5.066 1.482-2.049-1.166-3.299.75-4.917 1.259-.505.159-1.081.333-1.576.24-2.633-.491-5.2 1.093-7.831.208-.956.488-2.035.164-2.941.346-1.266.255-2.37.655-3.636.053-.889-.423-2.026.502-2.889-.431-.079-.086-.363-.036-.529.02-.976.329-1.862 1.251-3.003.466-1.053-.724-2.032.944-2.991.143-.955-.798-2.054.45-3.012-.39-.264-.231-.988.023-1.49.114-.52.095-1.221.547-1.508.352-1.734-1.18-3.851-.684-5.713-1.491-1.801-.781-3.698-1.337-5.447-2.305-1.897-1.049-4.174-1.6-5.756-2.977-1.589-1.383-3.617-1.465-5.22-2.701-3.418-2.635-7.107-4.915-10.58-7.483-1.87-1.383-3.776-2.728-5.594-4.201-2.532-2.051-4.794-4.416-7.423-6.329-4.519-3.289-9.272-6.242-13.806-9.516-1.6-1.155-3.471-1.933-5.084-3.073-2.055-1.451-3.96-3.114-5.956-4.65-1.714-1.319-3.422-2.653-5.22-3.85-.718-.478-1.74-.487-2.493-.93a7.4 7.4 0 0 1-2.03-1.796c-.725-.922-1.662.352-2.381-.398-.624-.652-1.399-1.156-2.053-1.783-.849-.813-1.883.001-2.92-.533-2.872-1.48-5.941-2.581-8.937-3.819-.655-.271-1.316-.642-1.999-.709a32.2 32.2 0 0 1-10.344-2.787c-.482-.221-1-.441-1.518-.494-4.445-.453-8.984.734-13.37-.774-3.676 1.478-7.52.315-11.266.716-.895.096-1.959-.157-2.659.246-1.238.714-2.341.484-3.543.151-.691.578-1.319.281-1.936-.153-1.786 1.274-3.888.57-5.815.945-.696.135-1.38.792-2.011.718-2.989-.353-4.893 2.041-7.422 2.872-2.257.741-3.273 3.187-3.788 5.604-.338 1.588 1.195 3.084.134 4.697-.139.211.069.68.169 1.014 1.077 3.61 1.718 7.37 3.652 10.688.17 2.181 1.685 3.539 3.057 4.981 2.501 2.629 5.289 4.91 8.143 7.154 1.867 1.468 3.736 2.786 5.855 3.86 2.585 1.31 5.347 2.109 7.993 3.216 2.075.868 4.233.83 6.339 1.267 3.167.657 6.14 1.95 9.169 3.039 6.601 2.373 13.286 4.545 19.477 7.933 1.104.605 2.234 1.436 3.415 1.559 1.53.159 2.693 1.04 4.078 1.44 1.363.393 2.938.851 3.845 1.82 1.174 1.254 2.598.497 3.811 1.143 3.692 1.965 7.244 4.06 10.157 7.139 2.121 2.242 4.427 4.307 6.572 6.528 3.519 3.642 7.318 7.028 10.18 11.275 1.103 1.636 2.395 3.144 3.605 4.708 1.326 1.713 2.427 3.694 4.047 5.06 1.693 1.427 1.686 3.523 2.832 5.109 3.367 4.657 6.712 9.334 8.864 14.73.26.653.689 1.272 1.159 1.801 2.169 2.445 2.833 5.763 4.857 8.285.091 2.288 2.108 3.739 2.562 5.833.269 1.24.476 2.447 1.061 3.606.563 1.116.852 2.368 1.327 3.533.541 1.33 1.154 2.63 1.735 3.943-1.04 1.596.828 2.108 1.199 3.18.235.678.745 1.283.88 1.969.703 3.575 2.987 6.114 5.44 8.559 1.414 1.41 2.818 2.83 4.235 4.237 2.052 2.038 4.019 4.109 5.736 6.486 1.789 2.477 4.18 4.52 6.304 6.756.124.131.268.275.318.439.563 1.84 2.529 2.634 3.265 4.273.886 1.974 3.084 2.403 4.27 4.039.826 1.138 2.211 1.657 3.628 2.187 3.871 1.448 7.598 3.28 11.378 4.97.826.369 1.599.912 2.459 1.144 4.72 1.273 9.085 3.448 13.612 5.211 2.5.975 5.069 1.818 7.668 2.482 1.898.485 3.936-.006 5.85.925 1.766.859 3.955.076 5.779 1.213.478.297 1.41.017 2.083-.175 3.515-1.001 6.434-3.164 9.503-5.017 2.32-1.4 4.651-2.647 7.289-3.44 4.152-1.248 8.11-3.112 11.787-5.379 2.223-1.37 4.758-2.22 6.672-4.221 1.234-1.29 2.601-2.381 3.619-3.934 1.07-1.632 2.451-3.104 4.313-4.001 1.896-.913 2.221-3.227 3.882-4.431 3.064-2.222 5.975-4.654 9.029-6.891 2.898-2.123 5.612-4.434 8.012-7.103.592-.659 1.18-1.385 1.533-2.185 1.597-3.62 2.848-7.42 4.739-10.873 1.384-2.527 2.247-5.276 3.771-7.721 3.238-5.187 6.309-10.464 8.482-16.225m97.261 45.356c1.544-1.484 3.812-1.986 5.117-3.775.178-.244.363-.718.249-.901-.841-1.351-1.705-2.697-2.684-3.949-.266-.34-1.003-.573-1.432-.471-.847.203-1.837.482-2.391 1.08-.814.878-1.782 1.95-1.51 3.272.281 1.367.896 2.672 1.429 3.977.121.296.509.484.774.721.153.019.378.113.448.046m21.201 17.543c-1.331-1.126-3.171-.839-4.089.678-.165.273-.283.738-.165.994.604 1.303 1.474 2.381 2.876 2.873.341-.124.773-.146.932-.365.409-.566.726-1.206 1.027-1.841.416-.872.193-1.684-.581-2.339m-138.25-142.558-.107.25c.386.165.274-.638.107-.25m-4.628-1.558c.108.049.17-.049.244-.187q-.077-.093-.188.063zm34.294 23.085-.109.081c.214.299.389-.287.109-.081m-4.734-5.72q-.054-.128-.218-.023l-.096.096c.098.096.194.028.314-.073m-11.945-9.424q-.092.033-.134.178c-.152.256.232.096.134-.178m-4.756-2.182.018.037.041.088c.046.065 0-.539-.057-.382a.9.9 0 0 0-.002.257m-4.52-1.992c.107-.108.095-.065.185-.215q-.078-.072-.129.091zm24.542 17.198a.33.33 0 0 0-.164.101c-.657.535.533.106.164-.101m-9.907-8.904c.037-.125.003-.155-.055-.208-.161.219-.131.293.055.208m-6.139-4.315c-.093-.081-.179-.02-.28.155.093.029.169.037.28-.155m-5.198-2.398c.052.2.332-.178.113-.285l-.12.244a.2.2 0 0 0 .007.041m-9.503-4.261.017.155c.122-.32.244-.177.357-.439-.122-.154-.268.04-.374.284m-.367-.305c-.118.27.179.157.263-.034-.062-.072-.188-.139-.263.034m33.296 23.847c.103-.013.244-.218.076-.362-.239.164.156.203-.076.362m-.345-.484-.111.078c.148-.036.117-.005.272-.087q-.035-.106-.161.009m-8.008-9.077-.09.102-.027.158c.189-.048.243-.149.117-.26m-20.105-11.92q.02.007.031 0c.115-.016.406-.251.326-.345-.11-.129-.293.2-.357.345m31.874 27.234-.121.061c-.129.238.194.076.121-.061m-7.751-11.195-.201.183c.306.335.514-.467.201-.183m.143-.246c-.118-.074-.3-.04-.472.088.117.073.299.039.472-.088m-1.661-1.349c-.059-.058-.11-.133-.181-.177-.182.182.055.201.181.177m-5.926-4.921-.001.087c.141.035.461-.435.429-.561-.04-.151-.55.589-.427.425-.052.143-.025.101-.001.049m-7.933-5.8c-.044.054-.397.078-.418.001a.5.5 0 0 0-.031.179c-.017-.076-.041.321.008.084-.125.594.452-.086.441-.264m-5.261-2.406q-.043.123-.012.207c-.018-.011.044.183.032.058q.025.189.161.225c.179-.12-.057-.645-.181-.49m-4.411-1.568-.054.125c.027.012.257-.009.238-.175-.015-.122-.137-.058-.184.05m31.678 25.112c.32-.183-.231-.52-.535-.376-.166.318.478.122.535.376m-3.009-3.914c-.191.512.409-.29 0 0m-2.3-3.722q-.09-.004-.185.075l-.286.16c.012-.011.594-.168.471-.235m-.185.075c.103-.089-.364.199 0 0m-.666-.544c.033-.368-.044.152 0 0m.376.008c-.011-.029.091.161.056.143.085.042.188-.169.185-.215-.006-.111-.226-.071-.269-.186-.008-.021.065-.421-.098-.29-.165.134-.237.404-.249.54-.101.338.203.158.375.008m-1.574-1.319c.072-.272-.088.119-.037.059a.4.4 0 0 0-.049.124c.211-.042.445-.493.613-.212.226-.212-.375-.549-.527.029m-2.307-2.102c.094.092.668-.108.555-.219.04-.195-.319-.027-.484.131.001-.025-.017-.022-.071.088m-1.504-1.338-.026.158c.188-.049.241-.15.116-.26zm-17.288-10.685c.012-.13-.025-.152-.089-.191-.112.246-.07.312.089.191m32.315 33.578c.16.04.444-.695.223-.601-.225.097-.252.241-.169.352-.133.044-.138.229-.054.249m-2.95-6.886c.19.028.279-.044.209-.196l-.122.06zm-.056-.311c.151.102 1.15-.704.113-.186q-.128.093-.113.186m-5.435-8.633c-.157.124.169.338.265.327.17-.13-.097-.459-.265-.327m-7.83-8.207a.2.2 0 0 1-.036.066l-.172.211c.086.068.16-.079.208-.277m-.018-.673c-.403.333.037.446.025.641.069-.31.072-.721-.025-.641m-4.23-2.385a.34.34 0 0 0-.087.172c.223.33.404-.638.087-.172m-1.244-.82-.074.114-.005.16c.177-.076.217-.184.079-.274m11.855 10.304a.5.5 0 0 1-.02.173l.005.056.005.087c.029.106.251-.399.238-.356.021-.085-.094-.152-.08-.2-.015.049.022.188-.024.228q-.094.065-.124.012m-9.434-8.652c-.091-.163-.172-.099-.311.098l-.1.151c-.05.112.475-.135.411-.249m-.686-.67-.292.133a.5.5 0 0 0-.071.063c-.461.424.326.381.363-.196m-3.749-2.125c-.071-.107-.199.185-.23.237l.009.125s.278-.277.221-.362m24.183 31.313c.106-.116-.237.154 0 0m.475.175c.178-.215-.2-.478-.475-.175-.354.228.425.234.475.175m-14.324-23.338-.037.078-.001.004-.002.005c-.131.323.343-.162.442-.264.245-.488-.296.066-.402.177m-4.073-3.958c.118-.428-.283-.428-.331.02-.139 1.192 1.203-.414.778-.598.063.271-.53.872-.447.578m-4.468-2.707q-.067-.086-.142.069l-.074.114c.122-.088.104-.048.216-.183m-2.233-1.375c.055-.143.415-.541.42-.493-.037-.4-.272.158-.295.157-.045-.001.053-.602.164-.661-.125.067-.237.28-.37.367-.269.176.402-.789.207-.56.03.017-.607.46-.619.472-.059.056.111.147.032.284a4 4 0 0 0-.171.222c.185.007.531-.289.663-.146.101.105-.166.276-.031.358m-1.149-.6c.263-.272.051-.441-.059-.247-.31.298-.21.526.059.247m-.059-.247c.067-.119-.205.196 0 0m-.843-.161c.039.54.242-.44 0 0m27.339 35.363q-.15-.002-.21.073c.127.095.624.221.599-.038-.013-.142-.157-.231-.188-.357.016.063.081.414-.201.322m-6.095-15.548c.203-.12-.073-.194.251-.387.152-.09.336-.156.496-.251-.156.093-.358.114-.53.216-.707.288-.346.194-.217.422m.218-.421c.234-.14-.512.207 0 0m-2.031-2.861a.5.5 0 0 0-.129.113c.011-.007.002.011-.054.082a.6.6 0 0 0-.175.223c.228-.006.619-.382.358-.418m-.182.195a.4.4 0 0 1 .054-.082c-.023.013-.13.134-.054.082m7.576 18.249c.151.02.11.037.284.017q.009-.108-.152-.048zm-1.792-6.607c.013-.039.663-.171.571-.413-.02-.053-.455.131-.443.127l-.255.095c.204.038.173.058.127.191m-21.204-26.395c-.14.058 0 .25.021.286-.092-.076-.168-.002-.267.154.313.2.638-.597.246-.44M468.7 333.69l-.116.07c.192-.116.157.073.229.11.279-.166.034-.547.529-.437-.067-.108.287-.283.372-.335-.099.06-.182.185-.163.262.012.05.344-.26.29-.347-.078-.126-.341.161-.435.009-.188-.301-.567.588-.706.668m-15.445-16.592c-.147-.169-.25.161-.425.045l.15-.227c-.221-.211-.252.222-.3.454v.074c.008.522.44-.435.575-.346m-3.687-1.669c-.255.434.24.189 0 0m24.488 30.856q-.206.027-.237.154c.41.099.745-.301.237-.154m-22.678-30.513c-.028-.017-.476.615-.55.718l-.011.015a.04.04 0 0 0 .024.007c.2.044.652-.671.537-.74m-2.161-.385c-.129.222.099.176.212.119.095-.162-.102-.309-.212-.119m24.211 28.423-.257.088-.257.088c.033.109.557-.039.514-.176m-13.912-21.183c-.076-.129-.156-.074-.306.093q-.144.19-.059.31zm-3.611-2.542c-.004.008-.004.028.005.07.253.201.457.098.381-.334-.056-.308-.377.003-.386.264m-3.241-2.237-.076.113c.249.165.27-.401.076-.113m-.486-.869a.9.9 0 0 0-.193.26l-.148.228c.331.053.491-.505.341-.488m-.952.092c.184.112.31-.49 0 0m8.345 7.649c.207.202.498-.5.506-.646-.193.202-.101.224-.318.45zm9.851 12.164q-.11-.066-.29.056c-.629.328.315.208.29-.056m-8.334-11.061-.22.213.122-.118zm9.41 9.065c-.01-.056-.084-.25-.17-.231l-.306.207c-.141-.259.48-1.123-.418-.569-.219.138-.928.939-1.078.659-.432.423-.026.238.076.426.072.133.869-.397.986-.463-.047.259-.431.64-.659.872-.122.124-.202.145-.335.257-.123.103.059.14-.122.24-.649.353.539.428.498.351.161.3.424-.035.623.127.055.046.49-.414.585-.465.117-.061.535-.426.612-.441.071-.014.392.081.429.06.058-.033-.451-.636-.492-.63-.293.037-.746.783-1.108.929.146-.06.22-.292.044-.301.297-.276.699-.488 1.035-.737.066-.049.194-.135.16-.199-.31-.018-.117.137-.268.219-.667.366-.257-.617-.092-.311m-15.377-15.656.198.252c-.005-.13-.12-.224-.198-.252M424.542 54.844c-.361-.249-.426.42 0 0m14.395 61.159c-.182.167.287-.029 0 0m-3.621-48.001c.171-.099-.013-.317-.073-.376.127.136-.245.354-.162.512zm6.781 25.229a.3.3 0 0 0 .133.212.46.46 0 0 0 .271.103c.002-.179-.212-.308-.404-.315M426.58 56.364l-.173.346c-.006.055.319-.483.173-.346m9.49 12.464c-.119.066.171.031 0 0m0 0c.419.077-.169-1.195-.504-.445-.21.463-.001.722.504.445m-.19.368c-.075.35.627.158.517-.046.024-.406-.449-.282-.517.046m.516-.047c.052.097.016-.258 0 0m.083.789s.01.008.038.013a1 1 0 0 0 .095-.014 1.4 1.4 0 0 0 .319-.077c-.071-.133-.648-.058-.637-.038a.32.32 0 0 0 .185.116m-6.494-8.549c.211-.139.383-.188.599-.346a.4.4 0 0 0 .053-.037c.108-.187.251-.338.115-.505q-.036-.158-.174-.086c-.104.125-.567.527-.688.455.21.125.478.273.095.519m.579.029c.091-.094.468.134.558-.247.247-.426-.283-.308-.263-.135.032.283-.11.192-.295.382m.558-.247c-.039.167.146-.252 0 0m1.477 1.733c.064-.233-.336-.3-.389-.102-.038.136.318.359.389.102m3.078 4.636.117-.068c-.252-.401-.417.244-.117.068m5.586 13.961-.001.002c.041-.009.034-.009.001-.002m1.566 12.298c-.268-.261-.436.099-.201.287.224.178.325-.166.201-.287m-17.094-39.103q.005-.032.003-.045l.006-.093s-.358.177-.307.292c.062.145.254-.112.298-.154m3.11 3.338c-.073-.116-.255-.203-.417-.059.083.183.222.23.417.059m5.139 7.079.002.004c.036-.024.029-.022-.002-.004m-1.306-.813c-.027-.038-.077-.033-.138.001.073-.007.13-.012.138-.001"/></svg>