<svg width="1157" height="676" viewBox="0 0 1157 676" fill="none" xmlns="http://www.w3.org/2000/svg">
<path d="M624.73 278.82C636.61 289.53 649.14 299.47 662.28 308.62C663.6 309.54 664.91 309.81 666.09 309.63C666.81 310.6 667.84 311.06 668.9 311.11C671.96 314.65 677.68 311.24 675.47 306.74C666.69 288.85 653.62 273.54 637.56 262.03C637.41 261.75 637.27 261.48 637.12 261.19C622.18 250.36 612.25 240.12 596.06 228.94C584.32 217.51 547.62 205.45 569.06 230.98C586.91 246.1 605.33 263.94 624.73 278.82Z" fill="black"/>
<path d="M278.81 337.2C265.64 342.56 400.72 486.31 365.28 429.84C339.39 401.29 321.38 339.83 278.81 337.2Z" fill="black"/>
<path d="M562.21 272.89C595.12 300.17 623.78 333.39 656.13 361.37C644.62 319.18 609.84 295.95 576.56 266.7C559.27 246.37 535.21 254.48 562.21 272.89Z" fill="black"/>
<path d="M234.59 360.36C244.72 363.95 348.6 490.28 318.44 437.44C311.97 422.15 240.84 316.29 234.59 360.36Z" fill="black"/>
<path d="M345.74 338.99C300.19 316.78 363.98 383.17 373.14 390.83C426.86 457.49 403.39 408.71 384.93 380.98C373.03 366.85 358.92 352.05 345.75 338.99H345.74Z" fill="black"/>
<path d="M587.11 354.57C648.79 429.63 569.8 286.38 535.69 287.72C524.2 298.36 579.59 340.37 587.11 354.57Z" fill="black"/>
<path d="M446.17 405.61C438.19 386.54 426.57 368.87 411.99 352.84C405.26 338.41 363.67 315.71 384.97 346.6C408.69 367.74 426.55 392.68 442.86 419.43C457.57 426.14 455.48 411.71 446.17 405.6V405.61Z" fill="black"/>
<path d="M554.39 359.69C543.82 347.13 523.52 293.94 503.76 311.92C506.51 321.35 576.4 403.72 554.39 359.69Z" fill="black"/>
<path d="M1134.35 186.48C1120.39 174.51 1104.85 174.68 1087.34 175.09C1071.53 175.46 1055.72 175.83 1039.91 176.19C1073.36 137.57 1119.96 106.85 1030.35 132.57C1028.95 133.1 1026.43 134.75 1025.2 134.16C1015.45 118.8 997.69 130.23 982.92 132.91C970.95 135.7 902.61 176.56 938.4 145.85C960.9 111.41 891.02 151.08 884.57 158.91C870.82 166.36 848.22 193.87 838.09 200.62C848.79 192.28 851.61 165.73 832.5 176.69C825.55 180.73 811.64 201.4 804.05 197.51C800.35 187.24 796.24 177.06 790.19 167.96C782.42 156.27 772.2 146.47 761.7 137.25C739.79 118.01 715.45 101.7 690.73 86.34C690.18 86 689.64 85.77 689.11 85.62C642.26 56.86 588.79 39.37 535.64 23.7C452.13 -6.18001 349.31 15.6 400.15 123.69C421.18 153.85 468.01 139.01 498.99 144.83C524.61 162.14 516.07 204.06 514.66 232.81C503.2 249.6 485.58 268.1 464.82 276.52C434.22 295.5 394.95 289.4 360.79 287.71C276.32 276.24 193.18 307.91 123.78 353.36C83.61 301.45 2.34003 364.08 23.67 417.59C28.41 431.98 45.34 430.65 57.06 434.91C122.04 442.92 137.79 507.35 189.18 543.23C269.34 600.35 316.44 594.48 384.66 521.96C410.76 506.06 436.08 483.77 465.79 474.69C483.22 467.49 577.28 470.59 532.44 473.44C525.53 477.04 496.55 477.15 498.95 490.32C502.47 516.47 494.18 546.63 498.86 573.86C497.57 608.1 546.36 599.94 567.62 615.16C597.19 624.43 620.05 645.44 645.52 662.1C678.77 673.65 712.78 633.32 744.81 631.02C781.83 612.1 850.18 617.14 840.54 558.19C838.84 535.07 856.55 505.26 823.04 500.32C805.37 495.92 787.7 486.15 769.61 483.42C760.67 481.54 751.89 478.42 754.8 461.59C793.38 451.79 819.81 412.86 824.35 375.84C828.25 361.06 874.56 368.44 879.7 349.32C884.71 338.6 867.37 336.53 871.8 333.43C894.98 331.07 993.68 306.84 991.76 279.03C1029.84 273.33 1062.97 251.54 1095.86 232.9C1105.04 215.47 1068.56 223.61 1059.58 215.74C1064.93 211.61 1120.95 208.1 1132.16 195.96C1135.85 194.48 1138.17 189.74 1134.34 186.46L1134.35 186.48ZM808 250.17C821.44 258.5 832.59 224.03 843.14 217.32C855.9 202.3 869.79 188.02 885.12 175.76C890.27 172.87 898.57 163.33 904.72 162.71C849.12 246.22 948.88 156.94 978.12 152.02C979.11 151.73 990.91 145.19 992.67 145.78C994.52 147.66 978.95 155.79 977.71 158.13C975.38 189.04 1017.48 150.03 1031.83 148.88C1059.58 138.91 1023.58 162.64 1013.57 185.38C1001.58 186.96 983.39 190.51 970.27 194.92C912 211.88 863.15 239.8 815.21 275.41C795.71 281.61 716.88 367.16 736.68 328.22C757.95 290.56 778.96 255.04 808.17 220.61C827.37 201.8 801.84 241.54 807.99 250.17H808ZM747.32 214.86C740.73 212.24 733.66 211.59 727.01 213.52C715.98 215.51 706.41 224.65 711.96 238.01C713.23 239.32 714.62 239.95 716.1 240.11C717.02 241 718.24 241.64 719.8 241.8C723.67 242.19 727.49 242.32 731.22 241C734.92 239.69 737.54 237.72 741.19 237.09C741.21 237.11 741.23 237.13 741.25 237.16C741.32 237.12 741.38 237.09 741.45 237.05C742.25 236.93 743.09 236.85 744.01 236.89C750.81 237.14 754 241.18 754.94 246.26C751.83 256.97 740.52 271.2 723.8 273.61C690.76 252.72 695.2 195.44 741.39 199.26C758.33 205.16 796.05 224.33 771.45 241.58C767.13 231.41 759.14 213.02 747.33 214.87L747.32 214.86ZM510.75 121.15C497.61 119.17 468.2 121.37 456.44 120.41C374.69 124.66 405.15 11.8 480.22 36.17C536.71 40.74 453.03 49.08 452.03 71.78C485.98 58.83 526.07 38.16 561.71 57.29C518.48 51.28 459.81 112.56 512.34 79C538.44 65.72 581.43 57.45 606.06 73.99C589.91 73.57 563.44 80.28 556.1 95.07C616.19 70.84 629.9 77.11 683.21 112.59C711.08 130.31 754.52 145.87 770.85 175.23C777.41 181.13 798.7 209.95 792.24 217.04C776.38 164.6 685.49 161.94 681.49 222.39C679.87 229.11 680.64 236.78 682.68 243.31C667.72 227.49 654.84 213.59 643.06 196.74C604.59 162.81 563.76 128.22 510.77 121.16L510.75 121.15ZM258.39 505.44C247.39 514.85 256.65 553.62 246.46 541.95C225.51 532.03 232.11 503.75 218.62 491.64C210.21 503.17 224.25 531.03 228.92 544.7C211.18 540.95 207.56 520.13 198.42 507.64C194.69 499 192.21 489.93 192.24 480.17C192.25 475.95 186.85 475.21 184.95 477.96C184.82 478.09 184.69 478.2 184.55 478.36C184.54 478.53 184.52 478.7 184.51 478.87C184.38 479.26 184.29 479.69 184.29 480.18C184.29 481.27 184.33 482.35 184.38 483.42C184.66 504.11 195.53 527.83 174.22 502.36C92.13 376.15 32.4 440.7 29.89 399.22C76.28 321.19 98.99 357.01 143.76 410.26C166.98 430.32 205.68 457.88 228.5 471.31C246.2 485.7 280.74 482.28 258.41 505.43L258.39 505.44ZM355.06 523.79C297.21 598.06 229.98 532.34 295.99 500.68C327.48 473.03 248.49 463.52 234.1 449.12C210.07 431.32 179.31 412.7 158.67 394.62C146.65 384.95 143.9 377.67 135.27 366.77C131.14 360.3 124.03 355.97 135.38 353.48C190.54 333.54 246.01 307.31 306.46 306.45C352.93 304.08 399.6 317.25 445.72 310.21C498.34 298.85 549.04 257.59 542.94 199.19C546.72 141.8 522.28 144.34 583.11 181.94C603.22 199.56 617.82 206.52 634.08 229.3C658.13 253.34 678.28 289.14 714.1 296.24C757.14 291.72 726.85 309.82 721.74 338.52C718.92 359.71 712.33 358.08 701.91 372.68C692.62 399.47 671.13 407.31 644.52 403.52C530.06 400.26 614.43 457.65 548.83 443.33C476.08 436.07 407.57 475.83 355.07 523.79H355.06ZM719.38 462.06C724.44 463.84 741.84 452.61 740.02 462.81C726.76 475 708.26 468.08 694.02 477.97C705.03 492.07 728.48 478.29 742.11 485.34C720.38 497.95 692.74 510.36 664.7 505.82C644.66 503.57 591.28 509.33 587.81 486.02C596.84 490.8 641.06 495.03 629.67 477.96C620.86 472.52 592.92 479.52 578.47 465.63C579.62 449.59 588.65 469.12 597.44 468.77C607.65 470.75 644.15 479.38 640.79 461.7C626.32 451.77 588.87 463.7 586.54 439.7C621.86 456.71 660.04 449.68 697.62 445.83C711.47 444.2 725.73 441.73 739.21 438.48C734.75 450.5 668.83 457.07 719.38 462.05V462.06ZM600.85 427.94C618.58 413.63 648.94 418.77 670.9 415.36C662.23 445.88 624.66 433.58 600.85 427.94ZM729.33 423.94C709.73 425.16 645.78 448.26 683.88 415.56C689.62 416.8 738.69 413.56 729.33 423.94ZM822.86 556.65C822.69 568.86 823.83 583.93 809.91 589.33C780.47 597 747.41 608.54 718.28 617.7C632.15 663.57 666.29 643.62 587.48 602.11C565.46 593.48 541.6 585.51 519 579.66C510.87 568.31 518.14 523.29 515.77 509.43C527.72 516.23 528.36 517.41 540.35 523.82C569.71 546.53 605.82 558.81 639.9 572.91C641.85 584.76 635.76 608.29 651.08 605.28C657.27 549.07 648.66 570.25 703.31 555.06C728.42 557.59 771.18 544.34 801.74 540.37C824.95 532.34 826.6 529.74 822.85 556.64L822.86 556.65ZM755.99 499.36C821.73 511.7 771.25 519.97 736.5 528.15C715.59 532.76 694.7 543.07 675.41 552.26C653.73 562.39 658.59 561.57 639.59 549.42C619.41 539.94 588.77 528.85 571.59 516.61C540.81 494.66 513.89 488.35 569.47 477C587.96 490.59 559.38 507.16 605.17 518.2C639.88 525.11 678.99 531.1 713.17 520.44C728.85 516.71 740.71 497.79 755.99 499.36ZM798.42 402.49C787.25 418.98 772.6 437.85 752.61 444.7C755.7 434.49 753.4 431.86 751.31 420.59C741.64 411.85 679.78 410.39 700.07 396.94C717.18 375.28 754.49 384.52 780.94 378.74C817.45 371.21 812.1 373.44 798.42 402.49ZM1020.94 216.71C1063.59 233.78 1096.25 223.61 1032.35 252.23C994.69 272.83 947.63 265.28 906.74 262.81C863.29 276.71 947.36 284.61 959.8 286.03C982.88 292.61 890.29 319.09 876.11 317.9C857.39 321.34 833.56 318.77 814.84 322.3C805.18 340.9 833.2 338.25 843.22 343.04C897.46 350.55 786.31 359.15 773.57 363.09C747.41 366.98 710.82 374.96 749.66 346.24C784.41 316.41 823.31 289.04 861.88 265.41C909.05 238.08 961.91 215.41 1016.32 206.5C1046.39 197.17 1079.49 189.95 1111.07 192.06C1111.44 192.57 1119.26 192.77 1124.06 193.47C1124.68 193.93 1125.3 194.41 1125.91 194.92C1126.21 195.18 1126.52 195.39 1126.84 195.58C1126.08 195.95 1124.82 196.38 1122.92 196.87C1110.22 207.46 1011.6 197.68 1020.94 216.71Z" fill="black"/>
</svg>
