<svg xmlns="http://www.w3.org/2000/svg" xml:space="preserve" viewBox="0 0 372.259 411.494"><path d="M174.193 167.24c1.816-.01 3.635-.064 5.445.038.782.044 1.995-.493 2.222.72.089.477-.672 1.187-1.157 1.681-.757.771-1.715 1.36-2.399 2.182-1.902 2.287-3.267 4.815-2.737 7.948.446 2.635 2.873 4.516 5.468 4.188 1.251-.158 2.466-.586 3.715-.777 2.578-.395 5.1-2.014 7.785-.415-1.245 2.177-2.366 4.438-3.776 6.502-.976 1.428-1.484 2.871-1.468 4.556.016 1.634-.033 3.271.037 4.902.19 4.406 2.346 5.852 6.455 4.089 4.35-1.867 8.08-4.793 11.904-7.534 2.781-1.994 5.372-4.193 8.44-5.855 3.17-1.718 6.46-3.209 9.572-5.024 4.996-2.915 10.017-5.799 14.873-8.937 4.849-3.132 10.288-5.205 14.893-8.794 4.7-3.663 9.875-6.655 14.472-10.526 9.108-7.669 15.203-17.354 19.717-28.141 2.693-6.435 3.638-13.247 3.252-19.971 0-1.525-.059-2.799.01-4.066.433-7.962-2.882-14.366-8.342-19.814-1.125-1.123-2.594-1.952-4.008-2.727-5.083-2.788-10.531-2.432-15.925-1.404-1.476.281-3.039 1.387-4.041 2.559-1.381 1.617-2.511 3.558-3.316 5.536-1.706 4.191-3.048 8.529-4.698 12.745-1.316 3.363-2.424 6.936-4.42 9.876-2.938 4.325-6.336 8.364-10.342 11.856-3.968 3.457-8.232 6.499-12.439 9.632-2.907 2.165-6.052 4.119-8.57 6.679-7.124 7.241-16.1 10.904-25.483 13.856-4.304 1.354-8.707 2.391-13.033 3.679-1.936.576-3.532 1.786-4.99 3.209-1.546 1.51-1.462 3.285-.906 5.053.547 1.749 1.961 2.509 3.79 2.499m15.924-7.943c7.253-2.222 14.496-4.44 20.632-9.231 1.986-1.55 4.332-2.636 6.492-3.969 3.233-1.994 6.474-3.979 9.666-6.038 7.863-5.074 13.974-11.984 19.971-19.032 3.881-4.562 6.855-9.728 10.016-14.755 1.516-2.411 2.274-5.309 3.291-8.018.887-2.361 1.288-4.897 2.819-7.02.821-1.137 1.785-1.649 3.184-1.669 2.575-.038 5.07.396 7.436 1.319 4.685 1.828 7.201 5.631 7.693 10.351.542 5.201.536 10.507-.255 15.713-.376 2.476-1.131 4.954-2.105 7.266-1.473 3.497-3.361 6.817-4.937 10.274-1.915 4.202-4.702 7.703-8.13 10.742-3.389 3.004-6.703 6.098-10.174 9.004-3.191 2.671-6.545 5.147-9.836 7.698-.573.444-1.142.94-1.794 1.231-6.664 2.982-12.245 7.655-18.271 11.632-4.224 2.788-8.489 5.516-12.686 8.345-2.241 1.51-4.526 3.011-6.521 4.815-2.831 2.56-5.609 5.089-9.2 6.602-1.303.549-2.381 1.62-3.599 2.393-.239.151-.743.15-.964-.007-.245-.174-.4-.6-.428-.93-.13-1.487.162-2.862 1.048-4.124a721 721 0 0 0 6.78-9.839 61 61 0 0 0 2.579-4.124c1.251-2.209.758-2.123-.803-4.271-.593-.817-1.443-1.106-2.389-.925-1.782.341-3.536.835-5.323 1.14-3.032.517-6.078.953-9.125 1.373-.295.041-.874-.224-.914-.428-.094-.474-.135-1.201.145-1.468 1.701-1.625 3.52-3.127 5.257-4.716 1.335-1.221 2.674-2.449 3.887-3.786.823-.907.035-2.883-1.224-2.95a26.5 26.5 0 0 0-5.374.242c-2.077.318-4.11.786-6.887-.028 3.79-1.057 6.939-1.861 10.043-2.812m-53.37-23.075c.636-1.693 2.729-2.744 4.388-2.074 1.741.703 2.984 2.027 3.574 3.79.186.555-.084 1.438-.445 1.966-.868 1.273-2.19 1.8-3.454 1.703-2.637-.068-4.866-3.245-4.063-5.385m7.058 33.24c-.508.495-.968 1.07-1.552 1.451-1.855 1.209-3.654.372-3.879-1.845a11 11 0 0 1 .162-3.195c.27-1.355 1.321-1.994 3.407-1.97.425.365 1.171 1.027 1.939 1.662 1.735 1.432 1.809 2.057-.077 3.897m-77.646-15.81c1.818 1.103 1.843 2.817 1.429 4.75-.566 2.647-.94 5.341-1.291 8.028-.363 2.782.451 5.383 1.549 7.89.514 1.174 2.045 1.794 3.199 1.233 1.785-.869 3.619-1.73 5.198-2.909 2.536-1.893 4.963-1.84 7.55-.276 3.095 1.87 6.206 3.714 9.312 5.565 1.55.924 3.079 1.889 4.668 2.74 1.222.654 2.487.436 3.612-.3.75-.491 1.411-1.118 2.111-1.685.969-.785 1.206-1.838.779-2.923-.596-1.513-1.319-2.98-2.058-4.431-2.799-5.498-.914-8.144 3.162-11.755.257-.227.709-.226.986-.441 1.709-1.327 3.457-2.615 5.064-4.058 1.162-1.044 1.135-2.556.338-3.975-.907-1.615-2.405-2.178-4.069-2.307-3.07-.237-6.15-.349-9.227-.496-1.385-.067-2.415-.507-2.806-2.022-.63-2.441-1.364-4.855-2.055-7.281-.895-3.142-1.886-6.251-4.093-8.765-1.233-1.404-3.033-1.42-4.289-.053a8.2 8.2 0 0 0-1.44 2.238c-.864 1.988-1.534 4.062-2.442 6.028-.663 1.434-.634 3.498-2.337 4.066-1.052.351-2.419-.34-3.653-.417-1.443-.09-2.896-.021-4.345-.021v-.073c-1.087 0-2.181.076-3.261-.015-2.398-.202-3.583 1.167-4.543 3.112-.531 1.076-.536 1.957-.175 3.07.668 2.062 1.018 4.203 3.127 5.483m12.997 2.628c1.986-1.54 3.249-3.326 4.162-5.532a363 363 0 0 1 2.944-6.95c.117-.267.496-.556.774-.578.277-.022.706.208.846.453.355.622.627 1.302.858 1.983.523 1.543 1.045 3.089 1.488 4.656.913 3.225 2.665 5.4 6.328 5.456.409.006.81.526 1.33.887-.401.776-.612 1.502-1.067 2.011-2.287 2.559-3.422 5.464-3.188 8.942.101 1.497-.589 1.811-2.076 1.131-2.144-.98-4.404-1.792-6.369-3.056-2.768-1.781-5.475-2.692-8.683-1.333-.893.378-1.104-.102-1.123-1.171-.051-3.044 1.681-5.275 3.776-6.899m228.787-7.135c-.001-1.276 1.496-3.516 2.69-3.737 1.435-.265 2.901-.375 3.799 1.248.425.768 1.012 1.447 1.4 1.991-.134.89-3.029 3.966-3.615 4.091-2.425.515-4.272-1.038-4.274-3.593m1.611-28.631c-1.265-1.861-1.861-3.762-1.068-6.07 1.414-4.118 3.405-4.953 7.233-2.79 1.757.993 3.529 3.85 3.562 5.743.034 1.949-1.599 4.586-3.193 5.158-2.868 1.029-4.872.406-6.534-2.041m-38.665 5.196c4.195-3.586 7.186-8.104 6.827-13.149.118-4.486-.629-6.091-3.659-8.157-1.63-1.111-3.341-2.157-5.14-2.952-2.908-1.285-5.936-.03-7.157 2.84-.84 1.975-1.675 3.968-2.286 6.021-1.305 4.384-1.969 8.836.211 13.146 2.384 4.715 6.874 5.953 11.204 2.251m-7.674-14.971c.351-1.963 1.3-2.916 2.681-2.87 2.286.077 4.487 1.514 4.316 3.304-.334 3.503-.146 7.334-3.769 9.609-.789.495-1.689.236-2.317-.537-1.402-1.724-.734-3.844-1.301-5.965.109-1.031.169-2.301.39-3.541m-18.435 85.804c0 .092.071.315-.011.433-1.171 1.684-1.848 3.887-4.269 4.294-.462.078-1.069-.011-1.449-.264-1.612-1.075-1.782-2.955-2.383-4.586-.053-.143.046-.346.088-.518.372-1.514 2.337-2.807 4.169-2.746 1.288.042 3.629 2.057 3.855 3.387m125.444-70.333c-3.353-5.56-6.82-11.065-11.582-15.658-3.506-3.382-6.947-6.947-9.766-10.894-2.57-3.598-5.764-6.461-8.929-9.371-3.725-3.425-7.814-6.451-11.673-9.734-8.974-7.635-18.139-14.997-28.451-20.804-1.258-.708-2.382-1.656-3.555-2.51-3.795-2.761-7.463-5.718-11.404-8.25-5.488-3.527-11.36-6.377-17.256-9.187-4.298-2.048-5.013-1.787-2.505-6.756.459-.911.762-2.115.59-3.087-.405-2.287-3.123-4.475-5.416-4.552-2.541-.085-5.088-.011-7.63-.073-1.319-.032-1.752-.617-2.002-2.037-.753-4.278-1.427-8.576-2.404-12.804-.395-1.709-1.384-3.321-2.306-4.856-.831-1.383-2.46-1.639-3.801-.814-.456.281-.928.598-1.26 1.007-3.523 4.333-7.912 7.951-10.466 13.095-1.02 2.053-1.298 2.024-3.445 1.179-2.926-1.152-5.927-1.57-9.056-1.557a204 204 0 0 1-11.425-.281c-2.893-.15-5.769-.699-8.66-.778-7.062-.194-14.091-.433-21.081-1.739-5.416-1.013-10.854-.212-16.2 1.019-1.414.326-2.819.702-4.246.953-1.091.191-2.151.08-3.022-.79-2.418-2.415-5.584-3.3-8.746-4.15-3.673-.987-7.372-1.874-11.042-2.871-9.117-2.478-18.221-3.062-27.328.035-.858.292-1.722.585-2.605.783-1.113.25-2.172.114-2.993-.802-.842-.94-1.611-1.957-2.53-2.813-1.317-1.226-2.593-2.628-4.157-3.427-2.237-1.142-4.689-1.898-7.101-2.657-5.016-1.579-10.063-1.225-15.005.283-6.225 1.9-8.947 6.428-7.962 12.836.11.716.225 1.432.3 2.152.779 7.499 2.792 14.547 7.422 20.669.74.979 2.014 2.264 1.796 3.071-.253.938-1.842 1.566-2.914 2.225-5.869 3.608-10.927 8.284-16.401 12.412-4.174 3.148-8.533 6.136-12.277 9.748-5.317 5.13-10.19 10.726-15.165 16.203-2.91 3.203-5.395 6.764-8.104 10.131-3.666 4.556-6.634 9.471-9.01 14.772-.664 1.48-1.262 3.029-1.602 4.608-1.414 6.562-3.196 12.992-6.52 18.878-1.657 2.935-1.781 5.816-.285 8.827.563 1.133 1.105 2.31 1.414 3.529 1.465 5.779 3.154 11.474 4.97 17.164 3.197 10.019 5.995 20.135 10.877 29.527 2.005 3.858 3.755 7.848 5.689 11.744 2.334 4.702 4.481 9.525 7.193 14.002 2.561 4.229 4.453 8.763 6.277 13.258 2.538 6.258 5.83 12.016 9.356 17.707 1.996 3.222 3.796 6.567 5.671 9.865 1.877 3.302 3.756 6.603 5.599 9.924 2.021 3.642 4.106 7.254 5.978 10.972 2.687 5.335 5.153 10.78 7.823 16.124 1.046 2.095 2.486 3.991 3.572 6.068 2.76 5.279 5.848 10.374 8.136 15.92 1.717 4.161 4.32 7.949 6.205 12.052 3.247 7.068 6.217 14.264 9.358 21.382 1.184 2.684 2.055 5.392 2.143 8.374.047 1.601.298 3.336.989 4.751 1.661 3.4 3.121 6.881 5.707 9.838 3.325 3.801 6.177 8.017 9.23 12.055 3.713 4.911 7.229 9.968 11.759 14.225 3.716 3.492 7.809 6.302 12.575 8.128 2.862 1.096 5.741 2.158 8.56 3.357 4.733 2.012 9.652 3.216 14.778 3.412 5.035.192 10.077.191 15.117.275l-.003-.114c5.411-.142 10.832-.122 16.229-.473 5.216-.338 10.465-.754 15.35-2.95.826-.371 1.676-.717 2.547-.951 5.757-1.546 11.529-3.036 17.281-4.599 1.216-.33 2.379-.865 3.549-1.348 2.009-.829 3.967-1.797 6.013-2.517 4.594-1.619 9.048-3.468 13.277-5.952 6.328-3.716 11.74-8.381 16.371-14.058 3.585-4.395 6.102-9.381 8.577-14.411 1.279-2.6 3.005-5.106 3.642-7.86.636-2.747 1.958-5.027 3.149-7.443.635-1.288 1.294-2.565 1.905-3.864 1.921-4.081 3.871-8.152 4.916-12.576 3.922-6.932 5.832-14.722 9.381-21.846 2.251-4.519 4.213-9.163 6.834-13.519 1.856-3.083 3.376-6.404 4.722-9.75 3.431-8.531 6.677-17.136 10.007-25.707.458-1.178 1.107-2.297 1.443-3.505 1.738-6.262 3.798-12.345 7.061-18.055 2.856-4.998 4.991-10.393 7.201-15.73 3.179-7.678 7.465-14.864 9.971-22.856 1.73-5.517 3.966-10.875 5.705-16.39 1.895-6.01 3.875-11.959 6.971-17.482.352-.627.522-1.353.797-2.026 1.839-4.511 3.703-9.013 5.516-13.535.607-1.514 1.197-3.05 1.603-4.625.63-2.443 1.158-4.917 1.616-7.4.872-4.716 1.117-9.527-1.427-13.745m-24.455 39.303q.263-.65-.423-.31l-.141-.104c.141.104-.034.536-.351.866s-.457.225-.738.017c.035-.537-.281-.208-.737.016l.316-.328c.631-.657.49-.76.35-.864l-.422-.312c.315-.327.174-.431.033-.535-.455.223-.141-.104.488-.758.769-.55.77-.551.628-.654 0 0 .172-.43.314-.327.314-.327.283.206.11.636-.205.964-.065 1.068.251.74.457-.225.74-.019.881.084.045.262.151.372.312.38l-1.02 2.412c-.132-.23 0-.59.149-.959m-9.285-13.91.141.102c.06.044.151-.002.253-.082l-.43.484c-.152-.134-.183-.253.036-.504m11.116 10.192q-.007.002-.015.006c-.873.477-.879.481-.176.445l-.233.549c-.227 0-.55-.012-.642-.079-.71-.515-1.093-1.345-.363-1.93l.879-.479c.298-.341.44-.24.44-.24.142.102.548-.031.918-.257q-.389.998-.808 1.985M232.111 44.487c.778-1.631 1.639-3.223 2.45-4.839.24-.478.406-.992.628-1.544-.276-.468-.455-1.019-.827-1.356-1.742-1.582-2.825-3.291-1.445-5.653.13-4.135 2.187-7.609 3.96-11.149.51-1.019.94-2.433 2.498-2.573.121 1.07.267 2.138.359 3.211.199 2.341.29 4.695.575 7.026.31 2.529.974 4.951 2.629 7.014 1.016 1.266 2.262 1.846 3.811 1.456 2.103-.53 4.162-1.234 6.259-1.791 1.187-.315 2.085.677 1.83 1.92-.072.353-.14.71-.248 1.053a2337 2337 0 0 1-4.079 12.938c-.102.318-.411.827-.591.814-.484-.036-1.103-.174-1.397-.509-1.311-1.494-2.536-3.065-3.775-4.621-1.548-1.943-3.605-2.376-5.87-1.815-1.925.477-3.788 1.2-5.696 1.754-.25.072-.707-.137-.882-.361-.186-.24-.308-.726-.189-.975m-97.836 40.555c-3.179-1.699-6.381-3.455-8.782-6.203-2.735-3.129-5.404-6.297-8.68-8.894-.711-.563-.433-1.904.407-2.238.839-.334 1.69-.652 2.558-.9 3.821-1.088 7.641-2.181 11.477-3.212 7.229-1.943 12.875-6.317 17.896-11.631 2.827-2.993 5.448-6.158 7.636-9.667.214-.043.31-.014.31-.014.247.29.108.654-.407 1.089-.074.063.029.215.418.611.105.152.391.397.497.55.182.093.182.093.211.306-.154.119-.125.33-.125.33.211.303.647-.257.433-.567.077-.059.047-.274.123-.334.153-.12.261.036.369.192l-.154.119c-.077.059-.047.273-.047.273.107.155.215.309.137.367s-.155.116-.262-.038l-.078.058s.112.15.2.314c.079-.058.094.161 0 0-.078.058-.064.276.029.436l.014.217c.079-.057.158-.114.426.152.254.049.254.05.014.217l-.16.111.442.371a.54.54 0 0 1 .351.214c.014.215-.053.482-.041.694.019.209.096.377.259.492.164.115.246.283.327.451.082.167.165.117.332.017.001-.219.084-.27.167-.101.166.34.245 1.163.158 1.423-.087.262-.087.261-.002.214s.253.073.421.195c.255.289.326.251.326.251-.07-.176.086-.046.139.351.21.526.21.526.454.614.087-.044.174-.087.103-.264.087-.044.087-.044.245.089.142.355.285.712.181.973-.088.042-.088.042-.159-.135s-.142-.354-.387-.443c-.157-.132-.174.086-.017.219.07.175.212.527.124.568-.029.221.149.556.382 1.275.284.902.342 1.082.579 1.19l.361-.146c.032-.219-.199-.953-.378-.875-.09.039-.179.077-.236-.105l.09-.039c.089-.039.179-.077.154-.483.029-.222.036-.437.111-.26.166.136.3.287.425.02.091-.041.105-.26-.04-.622-.073-.181-.145-.361-.057-.403.081-.04.394.68.335 1.132-.031.226-.004.636.113 1.007s.176.557.027.408c-.09.037-.122.258-.063.442-.032.22.059.184.149.149.212-.294.358.489.263 1.143-.083.442-.188.884-.369.946-.184.064-.141.25-.052.622.044.186.089.372.226.529l-.093.029c-.141.245-.141.244.089.373.186-.058.369.289.369.289.138.16.09.375.045.188l-.186.055c.094.375-.292.88-.425.719-.092.026-.044-.185-.044-.185.093-.027.093-.027.048-.212l-.093.027c-.194.056-.125.233-.069.61.154.35.091.563-.034.401-.03-.187-.094.025.03.188 0 0 .125.163.313.114.283-.074.283-.074.125.164-.158.237-.158.236.061.378.125.165.409.096.504.072l.378-.094.062.983c.076.978.301 1.328.677 1.252l.287-.059c-.174.237-.138.63.053.593l.036.395-.287.054c-.096.018-.192.036-.156.428.018.196.036.392-.06.409.21.163.21.164.018.196-.174.227-.324-.341-.299-1.138a.84.84 0 0 0-.47-.896c-.4-.111-.698.919-.296 1.039.209.157.245.543-.061.402-.192.034-.192.034-.27.242.018.191.018.191.114.175 0 0 .209.159.245.544.228.354.228.355-.078.207-.288.045-.384.06-.27.236 0 0 .114.177.21.162s.324.341.535.508c.227.556.213.561.595.114.27-.236.347-.447.407-.855.023-.8.335-1.662.545-1.499.096-.018.114.182.132.381l.192-.034c.288-.052.726.488.553.723-.192.031-.288.047-.365.263-.096.015-.192.03-.21-.17s-.018-.2-.114-.184c0 0-.078.215-.059.414.078.599-.372 1.663-.581 1.488-.198-.173-.291.038-.194.025.004.198.009.396-.088.408l-.194.024c-.004-.197-.101-.185-.295-.161s-.286.231-.282.427-.083.597-.18.607c-.194.021-.194.02.009.39.198.175.3.362.397.353l.203.375.011.218-.001-.013s-.097.001-.188.091l-.193-.009c-.005-.089-.011-.177.086-.178l.097-.001c-.005-.094-.102-.09-.296-.085-.094.045-.144.023-.146-.017a.56.56 0 0 1 .137-.354l-.194.018c-.194.018-.387.036-.382.229l.194-.017c.097-.031.147.134.151.156.003.05-.041.11-.135.145l.102.081c.097.007.102.065.107.124-.008.056.086.072.086.072.095.015.102.016.107-.047l.092-.055c.09.007.116.081.092.147-.017.067-.017.067-.114.05-.192-.038-.047.187.137.246.181.068.201.011-.126.087-.253.16-.602.3-.855.461l-.507.321.539-.099.381.082c-.063.201-.063.201-.158.181 0 0-.221.382-.284.584-.188.604-.093.625.128.243l.191.041c.128.243.065.444-.126.403-.095-.021-.349.14-.506.321-.379.563-.632.724-.697.28l-.286-.062c-.063.201-.03.424.065.444.032.222.032.222-.126.403-.221.382-.221.382.128.243.191.041.286.062.223.263-.158.181-.063.201.128.243.381.082.574.769.162 1.11l-.191-.041-.125.403c.032.222.032.222-.063.201-.286-.062-.474.543-.284.584a.6.6 0 0 1 .115.186c.028.039.046.056.046.079.002.041-.055.064-.155.066-.11.04-.123.094-.114.432l.003.013c-.017.151-.069.207-.017.152.189-.056.195-.062.308.104.043.064.053.11.049.147l-.057.079a.3.3 0 0 1-.089.016c-.095.003-.115.011 0 .107-.117.16-.23.323-.35.482-.106-.06-.305-.012-.437.193-.152.147-.754.46-.828.397l-.148-.127c-.074-.064-.905.607-1.585 1.131-.152.147-.303.294-.528.377-.451.167-.451.167-.151.147.148.127.221.191.07.338-.078.211-.082.485.066.612.221.191.221.191.225-.083.155-.421.61-.862.758-.734q.222.191-.688 1.072c-.151.147-.229.357-.155.421-.151.147.074.064.303-.294.347-.336.428-.411.444-.186q-.53.611-1.072 1.216c-.085-.033-.104-.102-.056-.232q.117-.316-.221-.191c-.151.147-.299.02-.373-.044s-.373-.044-.373-.044c-.152.147-.152.147-.225.083.151-.147.151-.147.078-.21-.074-.064-.148-.127-.07-.338.229-.357.381-.504.381-.504.221.191.377-.23.155-.421-.148-.127-.221-.191-.299.02l-.454.441s-.078.21-.004.274l-.221-.191c-.594-.235-.82-.152-.602.313.144.401.14.675-.082.485-.074-.064-.299.02-.451.166s-.225.083-.299.02c-.148-.127-1.204.627-1.659 1.067-.303.294-.229.357-.082.485.295.254.295.254-.155.421-.451.167-.451.167-.303.294q.105.507-.455.441l-.295-.255c-.148-.127-.373-.044-.225.083.074.064-.078.211-.229.357-.151.147-.229.357-.004.274s.299-.02.373.044c-.004.274-.004.274-.303.294l.148.127c.148.127.144.401.066.612s-.229.357-.152.147c-.074-.064-.07-.338-.218-.465.004-.274-.221-.191-.373-.044-.303.294-.377.23-.451.167 0 0-.148-.127-.373-.044l-.524.103.07.338c.148.127.221.191.672.024.225-.083.451-.167.074.064l-.151.147c.074.064.148.127.299-.02.152-.147.225-.083.148.127-.229.357-.156.421.148.127.225-.083.225-.083.07.338-.233.631-.233.631-.455.441-.059-.077-.405-.014-.492.073-.236-.032-.355-.186-.203-.208.018.013.122-.078.161-.126.046-.055.068-.106.064-.144-.008-.076-.12-.103-.345-.02-.223.016-.236-.067-.279-.04-.025.01-.002.057.06.131.125.148.143.27.143.27-.043.046-.031.174.025.254l.171.238c.052.361-.344.359-.416.023a.75.75 0 0 0-.16-.275c-.166-.207-.338-.383-.346-.313.034.094-.018.104-.07.115l.056.189c-.058.011-.058.011-.083-.083-.05-.189-.073-.284-.028-.294.047-.01.093-.02.026-.208a.8.8 0 0 0-.098-.179c-.034.009-.009.103.018.198.029.094.007.199-.061.114.05-.087-.768.404-.606.873.042.19.063.285-.146.313-.021-.095-.461-.136-.67-.109s-.209.027-.23-.068c0 0-.23-.068-.44-.041-.419.054-.357-.639-.148-.666.188-.122.397-.149.376-.245-.021-.095-.23-.068-.44-.041-.114.115-.583.165-.941.212-.377.045-.377.045-.339.138s.04.093.444.143c.74-.09.731-.089.069.187l-.568.24-.074.05-.341.115c-.13.088-.214.097-.278.08l-.074-.039a.4.4 0 0 1-.078-.103l-.136-.262-.289.099c-3.499-1.849-7.049-3.594-10.535-5.456M93.546 32.285c-.065.087-.08.049-.077-.034l.261-.574-.011.052c.05.259-.091.608-.173.556m-3.661 8.419c.089-.333.171-.672.266-1.005q.004-.006.007-.012c.091-.094.084-.135.046-.161q.056-.191.121-.378a.6.6 0 0 0 .123-.3c.031-.072.056-.147.09-.217q.052-.11.103-.219c.048-.029.094-.09.143-.219.096-.085.091-.127.035-.162q.653-1.376 1.283-2.762c.037.041.063.1.064.207l.001.197c.087-.354.261-.267.179.276.005.387.185.463.181.272.083-.345.434-.178.445.199.094.228.095.227.178.08s-.006-.188-.094-.229c-.089-.041-.005-.19.078-.34s-.004-.192-.092-.235c-.172.109-.087-.042-.003-.194.254-.261.167-.304.081-.349-.081-.041-.186-.094-.074-.434.121-.537.22-.691.207-.493.085.047.17.094.351-.006-.17-.095-.156-.294.108-.345.18-.099.096-.149.013-.199-.084-.049-.073-.252.124-.342.191-.092.191-.091.216-.287-.165-.104-.164-.105.108-.144.082.052.271-.037.377-.18l.107-.143c.08.054.161.109.055.251s-.049.39.033.443c.081.053.081.053-.023.192l-.209.278c.083.051.27-.035.373-.172.413-.552.356-.804.118-.97-.081-.056-.13-.306-.13-.306-.219.281-.483.321-.538.067.033-.195.017-.211.417-.372.278-.025.552-.046.63.011.079.057.31-.212.655-.62.866-.905.746-.774.597-.901l-.125.13c-.125.13-.126.13-.224-.188-.075-.062-.022-.257.106-.389l-.221-.19c-.203.071-.204.072-.388.401a.8.8 0 0 1-.183.327c-.292.002-.639.439-.369.412.077.059.154.118-.042.199-.119.139-.316.221-.474.106-.213-.157-.582-.232-.745-.139l.307-.674c.046.051.111.106.212.181.278-.027.156.117.078.058-.201.085-.28.028-.201.086.078.058.157.115.357.031.321-.226.32-.225.365-.428-.076-.06-.229-.18-.429-.094s-.403.173-.279.027l.125-.146c.118-.151.387-.425.522-.562.134-.138.193-.338.118-.4-.284.019.255-.552.752-.627.432-.131.574.002.36.065-.361.191-.267.528-.049.717l.219.192s.274-.006.486-.062c.417-.119.486-.05.423.139-.125.378.021.507.215.198.4-.367.469-.3.679-.098.079.323.279.27.339.083.13-.12.13-.12.198-.052.135.135.266.02.269-.229.276-.477.145-.621-.134-.392l-.136-.14c-.136-.14-.136-.139-.277-.024-.142.114-.209.047-.347-.09-.067-.067-.141-.14.003-.256.143-.117.219-.304.295-.492s.445-.617.591-.737c.3-.228.303-.224.28.031q-.129.274.195.218c.065.073.13.146-.02.255 0 0-.141.117-.349.162-.208.046-.209.047-.151.376l.133.142.14-.116c.066.071.206-.044.206-.044.139-.117.344-.16.557-.191.421-.067.564-.173.501-.247s-.062-.075.208-.033c.207-.032.207-.032.351-.139.083-.182.025-.259-.539-.084-.483-.006-.462-.262.108-.441.292-.224.516-.238.635-.088.032-.253.127-.432.436-.635.251-.282.25-.281.059.078-.249.28-.248.28.059.078.307-.203.517-.226.517-.226.057.078.057.078-.095.18l-.457.302c-.094.178-.033.254.328.132.267.056.266.056.151-.1-.056-.075.182-.364.345-.451.158-.092.259-.265.204-.345.162-.095.961.109.857.283l.136-.081c.097-.057.255-.159.477-.26.449-.222.598-.298.5-.466.052-.244.056-.244.707-.469.36-.055.526-.107.763-.415.446-.283.572-.439.324-.548-.082-.176-.124-.264.003-.419.255-.312.427-.382.504-.204.154.353.156.358.85.142.522-.162.522-.163.556-.072.069.174 1.13-.056 1.62-.342.179-.042.179-.042.209.051s.058.186-.119.227c-.178.042-.356.083-.325.176.062.185.413.103.561-.032.12-.227.708-.168.557-.033.11.373.309.424.431.195.094-.328.307-.258.56-.005.204.065.203.065.538-.089l.157-.124-.36.06c-.024-.094-.024-.094.157-.124s.338-.155.498-.28c-.044-.189.139-.22.16-.125.225.159.586.097.547-.093 0 0 .184-.026.37-.042l.038.191s.02.096.222.173c.405.154.586.136.57.04l.367-.038c.199.077.186-.019-.234-.268-.22-.173-.033-.192.185-.019s.77.114.755.018c-.014-.096-.029-.192-.215-.172l-.015-.096c.186-.02.373-.039.387.057.202.088.202.089.174-.105-.014-.096-.014-.099-.203-.087-.187.02-.202-.076-.216-.172 0 0 .186-.029.377-.031 0 0 .19-.008.176-.104-.014-.097.177-.104.368-.112.776.065.976.153.997.346.011.097.209.185.209.185.188-.008.377-.017.386.08.197.077.763.104 1.129-.09.183-.094.179-.191-.226-.489q-.312-.296-.022-.292s.379-.091.767-.085c.382-.092.383-.092.388.005s.203.197.589.202c.387.011.387.023.39.117.003.098.198.209.39.223l.194.111q-.287-.02.005.292c.002.097.193.208.383.221 0 0 0-.097-.192-.208-.001-.097-.002-.097.381-.168.192.013.192-.084.192-.181-.195-.208.581-.349.773-.141l.001-.097c.001-.097.001-.097-.193-.11-.388-.027-.389-.124.002-.194.588-.157.587-.05.581.242-.004.195-.201.364-.396.549-.388.265-.577.35-.388.46-.001.097-.002.194-.192.279-.189.182-.19.182.188.11.188.014.567-.055.567-.055.188.024.376.048.568-.026s.219-.755.034-1.072c-.19-.122.003-.097.389-.049.386.049.774.097.962.218.375.242.373.241.58.071.393-.05.4-.134.214-.267-.181-.218-.176-.315.034-.484l.217-.262.174.328-.045.584c-.031.389-.23.452-.42.417-.583.024-.582.026-.206.169.368.249.351.446-.021.29l-.014.194-.014.194c.203-.17.391-.129.571 0 .359.262.93.266.762.038-.198.063-.197.063-.377-.068.017-.194.216-.257.396-.126l.189.034c.01-.097.01-.097-.18-.131-.189-.034-.18-.131-.162-.325q.314-.24.027-.291l.192.034s.393-.028.596-.09c.213-.159.214-.159.041-.387-.184-.132-.184-.132.194.035.174.228.297.841-.095.87l-.381-.068-.191-.034c-.01.097.171.228.36.262.57.102.571.101.749.232.19.033-.202.063-.58-.004-.179-.13-.189-.034-.011.097-.011.097.167.227.355.26.2-.063.377.067.188.033-.197.051.546.22 1.119.258.589-.061 1.325.21 1.104.358-.016.096-.017.096.187.043.426-.205.61-.143.39-.006-.017.096.148.246.331.3s.183.054.202-.042l.203-.042c.203-.042.368.108.184.054-.019.095-.058.287.105.435.143.244.142.244.163.149q.336-.205.548.159c-.021.095.182.053.388.011.391.006.57.075.726.233.336.221.335.221.18.063.024-.095.047-.189.252-.22.229-.125.774.067.543.191-.025.094-.025.094.156.158.181.063.206-.03.232-.124l.31.314.281.406a7 7 0 0 1 .59.017l.765.108.294.332c.116.258.084.35.054.442l-.031.092c.175.072.206-.02.237-.112s.207-.019.383.053c0 0 .32.237.496.309l.172.081c.033-.091.035-.094-.106-.264-.353-.145-.354-.146.065-.183.414-.024.724.241.484.338-.239.1.206.531.717.778.171.082.306.255.269.345s.134.172.17.082l.208-.008c.131.177.31.242.715.249.204.003.409.006.37.095-.04.089.827.461 1.036.466.166.092.167.092.125.18-.041.088.082.267.248.359.331.184.452.364.452.364-.043.087.071.276.228.377 0 0 .202.014.044-.087-.115-.189.768.146 1.249.451.319.203.32.203.207.016.047-.085.093-.171.301-.153.302-.153.305-.151.436.391-.048.085.064.27.064.27.152.112.153.112.206.392l.102.195c.099-.168.253-.056.304.222.203.388.656.717.761.553.052-.082.205.029.358.139s.306.221.566.17c.31-.127.309-.123.546.2.091.202.091.202.035.282-.345-.161-.454.001-.166.241.144.12.144.12.089.2s.519.557 1.011.837c.504.269.843.744.918.949-.058.073.534.399.936.526-2.071 2.334-4.11 4.698-6.264 6.953-4.024 4.213-8.303 8.111-13.94 10.118-.853.304-1.69.688-2.568.877-4.246.911-8.53 1.663-12.75 2.681-2.987.72-5.909 1.725-8.827 2.703-1.311.439-2.397.482-3.513-.496-2.024-1.774-4.328-3.267-6.162-5.211-2.589-2.743-4.849-5.796-7.268-8.701-1.395-1.683-1.687-3.567-1.14-5.624m4.558-10.589q.072-.152.144-.303c.027.093-.055.196-.144.303m-7.585 27.581c.165-.852.162-2.244.626-2.431 1.251-.506 1.729.836 2.324 1.669.409.573.64 1.299 1.122 1.787 1.088 1.102 2.54 1.951 2.172 3.858-1.377.231-2.747.547-4.134.669-1.415.125-1.875-.359-1.993-1.819-.072-.886-.088-1.777-.129-2.666.001-.357-.054-.724.012-1.067m4.411 16.472c3.879-1.832 8.123-1.731 12.249-2.178.75-.081 1.726.546 2.371 1.107 3.799 3.305 7.91 6.221 11.239 10.107 3.056 3.567 6.861 6.402 10.762 9.063.744.507 2.626.252 1.974 1.805-.231.55-1.914.525-2.945.691-.53.086-1.086.015-1.63.015-5.655.015-11.179-1.104-16.641-2.322-4.316-.962-7.997-3.302-10.687-7.004-2.338-3.218-4.801-6.346-7.177-9.537-.526-.706-.313-1.371.485-1.747m70.534 24.536c2.959-3.128 5.554-6.54 8.221-9.91 1.498-1.893 2.342-4.044 3.568-6.025 1.001-1.617 2.131-1.517 2.965-.405 2.046 2.728 4.401 5.257 6.176 8.146 1.601 2.605 2.2 5.697 2.414 8.778.079 1.141-.484 2.025-1.495 2.694-2.536 1.68-5.333 2.105-7.601 1.975-5.503-.074-9.818-1.901-14.069-3.9-.238-.111-.388-1.133-.179-1.353M72.904 15.962c.124-2.411.48-2.795 2.89-2.837.362-.006.725-.001 1.088-.001 3.808-.169 7.052 1.495 10.174 3.331 1.861 1.094 3.505 2.561 5.224 3.888.115.089.209.182.293.277-.545.257-.599.293-.97.869l-.476.561-.22-.193c-.108-.426-.629-.216-.591.143.041.361-.146.517-.47.577 0 0-.177.179-.276.418-.273.416-.604.477-.406-.002.124-.541-.027-.665-.487-.058-.356.364-.356.364-.199.481.336-.057.207.461-.281.728-.166.19-.246.134-.079-.057.256-.437.101-.554-.238-.17-.506.579-.426.932.23.473.491-.266.487-.263.397.282-.088.544-.326.67-.815.641l-.244-.163.081.352c0 .297.166.402.408.27.082.054.081.055.003.294-.163.182-.313.378-.313.378-.081-.051-.166-.106-.012-.299.162-.185-.087-.059-.317.09-.552.241-.622.492-.137.497.399-.042.399-.043-.067.247-.299.392-.617.491-.788.394-.085-.049-.17-.097-.321.103-.156.188-1.171.516-1.121.257l-.143.215c-.286.43-.339.688-.251.73l-.281.428c-.23.172-.35.404-.263.441-.089-.04-.218.184-.345.408 0 0 .179.078.232.376-.036.26.145.335.145.335.125-.22.125-.22.215-.181 0 0 .09.039-.034.257s-.371.656-.279.691c.093.038-.038.248-.324.409-.403.384-.949 1.531-.867 1.814 0 0-.189.204-.376.149-.656.337-.846.822-.374.682.094.025.283.077.191.311.003.26.287.331.469-.132-.007-.264.744-1.07.84-.778.125.04.117.432.002.807-.422.446-1.018.588-1.623.079-5.845-4.907-9.298-10.944-8.894-18.812M18.788 149.695c-2.005-4.457-4.391-8.742-6.573-13.122-.843-1.692-1.218-3.41.167-5.086 4.539-5.491 7.717-11.812 10.608-18.234 2.717-6.037 6.512-11.25 10.893-16.095 4.487-4.962 9.001-9.906 13.652-14.713 3.139-3.244 6.658-6.05 10.403-8.636 3.54-2.446 7.172-4.819 10.278-7.907 1.485-1.477 3.59-2.34 5.45-3.419.188-.109.88.173.901.333.096.708.048 1.438.025 2.159-.243 7.611 2.676 14.095 7.015 20.131 3.596 5.002 7.499 9.719 11.797 14.14 2.858 2.94 6.262 5.067 9.975 6.399 5.961 2.139 12.168 3.419 18.598 3.165 2.518-.1 5.052-.136 7.564.028 4.725.308 9.337-.737 14.005-1.068 2.641-.187 5.251-1.226 7.802-2.095 1.473-.502 2.718-.661 4.131.15 1.88 1.079 3.838 2.035 5.813 2.933 2.464 1.121 4.968 2.157 7.479 3.17 1 .403 2.213.425 3.074 1.001 3.607 2.412 7.591 2.065 11.588 1.873 3.842-.184 7.022-2.185 9.701-4.469 5.491-4.681 7.851-10.641 5.724-17.997-.864-2.988-1.843-5.744-3.71-8.336-3.938-5.466-8.186-10.627-13.47-14.791-1.877-1.479-2.299-2.977-2.126-5.124.218-2.711.237-5.442.256-8.166.04-5.576-1.381-10.746-4.327-15.511-1.332-2.154-2.507-4.407-3.717-6.634-.472-.869-2.042-1.516-1.165-2.64.576-.738 1.86-1.059 2.889-1.276 1.409-.297 2.895-.536 4.315-.418 5.24.438 10.498.837 15.688 1.642 3.397.527 6.703 1.505 10.202 1.029.988-.134 1.848.45 1.996 1.451.452 3.05 2.884 3.93 5.213 4.886 3.394 1.394 6.969 1.904 10.624 1.996 1.27.032 1.557.577 1.025 1.723-.915 1.971-1.774 3.975-2.815 5.878-1.312 2.399-2.04 5.03-3.13 7.479-1.221 2.743-.144 4.993.729 7.107 1.311 3.177 3.726 3.774 7.008 2.509 4.623-1.783 8.442-4.83 12.283-7.838.712-.557 1.307-1.262 2.01-1.832 1.398-1.134 2.772-1.065 3.679.507 1.291 2.237 3.028 4.047 4.814 5.834 1.986 1.988 3.806 1.872 6.117-.425 1.241-1.233 1.869-3.077 2.796-4.632.814-1.365 1.697-1.681 3.209-.995 1.146.52 2.182 1.28 3.321 1.82 1.302.617 2.644 1.486 4.003 1.554 1.622.081 2.657.605 3.714 1.757.698.76 1.794 1.319 2.812 1.595 5.5 1.491 9.923 4.957 14.665 7.834 3.237 1.964 6.254 4.364 9.654 5.962 3.24 1.523 6.338 3.279 9.53 4.857 5.062 2.502 9.518 5.898 14.085 9.089 5.91 4.13 11.472 8.76 17.152 13.214 1.271.997 2.423 2.148 3.608 3.252 3.566 3.322 7.059 6.726 10.706 9.955 2.001 1.771 3.185 3.839 3.623 6.445.269 1.602.724 3.174 1.121 4.753.394 1.565.003 2.861-1.238 3.902-.278.233-.5.541-.797.741-4.237 2.866-7.663 6.506-10.908 10.322-.242-.115-.278-.017-.365.243a2.4 2.4 0 0 0-.384.642l-.52.625c-.497-.026-1.328.236-1.677.636-.529.411-.508 1.203.062 1.309q-.729.886-1.461 1.768c-.112.036-.27.154-.466.379-.429.228-.429.228-.284-.201s.431-.757.718-1.086c.716-.557.717-1.085.287-.857-.859.456-3.43 3.404-4.154 5.025-.428.763-.439.755-1.462 1.071l-1.323.626.12.626c-.182.94-.785 1.568-1.042.835l-.022.523-.58.103c-.719-.003-.718-.004-1.041.834-.162.419-.162.419.278.211l-.602.627c-.902.94-1.203 1.254-1.479 1.04-.138-.107-.276-.214-.739.519-.3.313-.901.939-1.038.832s-.3.313-.464.734c-.027.529-.028.53-.901.94-.573.097-.872.409-1.037.831-.465.735-.465.736-.601.627 0 0-.178.136-.469.313l-1.051.663c-.943.889-1.707 1.37-2.155 1.555s-.448.184-.494.704c-.047.521-.047.521-.762.48-.581.071-1.027.254-1.521.959-.314.296-.941.888-1.073.775-.314.296-.627.592-.495.706.264.228.263.228-.314.296-.132-.114-.576.068-.89.364-.313.296-.94.888-1.071.773l-1.566 1.48c-.088.211-.376.527-.65.78-.27.258-.516.466-.516.466-.328.278-.655.556-.526.674l-.457.16c-.456.16-.912.32-.783.438-.071.515-1.182 1.232-1.636 1.391q-.872.059-.982.835c-.707-.081-1.36.474-1.108.715s.378.361.051.64c0 0-.454.158-.579.038-.377-.362-.377-.362-.453.158s-.732 1.078-.654.557c-.125-.121-.25-.242-.452.157-.654.557-.981.835-1.105.713s-.327.278-.53.679c-.722 1.096-1.287 1.735-1.877 1.741l-.369-.373c.216-.382-.925.267-1.701 1.293-.68.517-.899.902-1.24 1.161l-.22.385c-.22.385-.441.771-.782 1.031-.563.646-1.024.78-.802.393l-.239-.254-.681.519c.119.127.119.127-.222.387-.459.132-.682.52-.104.515s.578-.005-.341.26c-.459.132-.8.392-.8.392.118.128-.565.649-1.364 1.04-1.014.479-2.042 1.073-2.8 1.651-.753.587-1.229 1.17-1.177 1.554.229.264-.127.504-.469.108-.228-.264-.582-.025-1.644.693s-1.77 1.198-1.882 1.064l-.354.24s-.354.24-.243.374c.222.268.222.268-.487.748s-.709.48-.465.106l-.221-.269c-.11-.134-.354.24-.598.615-.379.885-1.909 1.713-1.771 1.201.144-.498-.686-.181-2.519.898-1.097.652-1.463.87-1.251 1.147.106.139.473-.08.473-.08l.367-.218c.214.276-.889.932-1.467.873l-1.1.655c-.262.358-.367.219-.576-.061.157-.497-.313-.419-.313-.419l-.73.435c.104.14-.262.358-.993.794-1.097.654-1.828 1.091-1.727 1.232s-.265.36-.732.437c-.346.059-.58.278-.908.66-2.641.911-5.248 1.934-7.866 2.923-.074-.11-.106-.101-.449.077l-.376.195.117-.012c-.703.262-1.404.529-2.111.777-8.887 3.127-17.731 6.402-26.727 9.185-4.467 1.382-9.232 1.792-13.857 2.671-10.582 2.011-12.287 2.163-26.35 1.835-7.029.067-17.725-.599-28.324-2.073-6.788-.944-13.613-1.981-20.198-4.108-2.232-.721-4.579-1.08-6.87-1.621-.882-.208-1.773-.403-2.626-.702-5.282-1.853-10.553-3.737-15.832-5.6-.854-.301-1.715-.737-2.591-.789-2.974-.176-5.581-1.502-8.324-2.42-6.201-2.074-12.06-4.888-17.792-8.003-2.221-1.207-4.502-2.311-6.786-3.397-3.117-1.482-6.007-3.336-8.806-5.328-4.153-2.956-8.906-4.778-13.402-7.063-5.668-2.88-11.183-5.868-15.864-10.267-2.313-2.173-4.955-3.892-7.644-5.546-.031-.027-.055-.051-.09-.08-.305-.256-.602-.498-.721-.416l-.32-.196-.039-.07c.194-.29-.134-.565-.328-.276-.237-.199-.346-.174-.27-.045q-.44-.27-.879-.54l.001-.002-.001.002a103 103 0 0 1-2.216-1.395c-2.268-1.477-4.654-2.885-6.574-4.75-1.773-1.722-3.56-3.513-4.652-5.941m7.613 25.763.058-.011c.2.28.485.533.917.897 1.155.69 1.157.69.167.574-.255.007-.631.212-.887.483q-.185-.487-.353-.977c-.099-.294-.012-.94.098-.966m146.897 223.706c-.712.099-1.448.027-2.174.027l-.042.241c-3.393-.558-6.864-.833-10.161-1.741-4.877-1.343-9.836-2.506-14.402-4.848-1.59-.815-3.402-1.183-5.063-1.875-5.192-2.162-9.081-5.921-12.258-10.429-4.38-6.215-9.172-12.102-14.43-17.565-2.415-2.509-4.077-5.475-6.168-8.166-1.082-1.392-.907-2.755.458-3.792 3.573-2.712 7.251-5.286 10.854-7.96 2.743-2.036 5.395-4.197 8.163-6.198 2.036-1.471 4.059-3.08 6.329-4.083 4.292-1.898 8.53-3.95 13.184-5.002 2.803-.633 5.44-1.971 8.189-2.876 1.594-.525 2.499.333 2.074 1.995-.535 2.089-1.268 4.128-1.947 6.179-.739 2.228-1.751 4.394-2.224 6.674-1.059 5.106-1.947 10.252-2.716 15.41-.29 1.945-.231 3.984-.037 5.95.467 4.729 2.159 9.188 3.975 13.482 2.394 5.66 5.365 11.099 9.752 15.576 2.793 2.85 5.785 5.466 9.122 7.672.276.183.475.483.71.729-.396.211-.773.542-1.188.6m36.61-16.542c-2.942 3.083-6.428 4.769-10.367 5.342-3.737.544-7.695.934-11.365.296-8.523-1.481-15.755-5.306-19.704-13.627-.155-.327-.227-.707-.432-.995-4.9-6.871-5.255-14.857-5.633-22.83-.162-6.576.864-13.016 2.194-19.405.239-1.147 1.028-2.316 1.87-3.173 1.97-2.004 4.491-3.019 7.299-3.148 1.806-.083 3.623-.01 5.432.052 2.512.087 2.817.445 1.483 2.311-2.339 3.271-2.904 6.956-3.093 10.799-.192 3.898.876 7.579 2.311 11.084 2.687 6.568 10.976 9.868 17.752 7.544 6.34-2.174 10.753-6.452 14.148-12.031 1.471-2.418 1.873-5.073 1.989-7.809.046-1.082-.143-2.18-.026-3.249.043-.397.603-.822 1.025-1.061.227-.128.759.003.985.206.67.602 1.205 1.355 1.882 1.947 6.794 5.944 7.896 13.489 6.141 21.822-1.478 7.014-4.495 13.372-8.606 19.188-1.639 2.32-3.273 4.629-5.285 6.737m62.759-26.887c-3.708 4.717-5.711 10.489-9.323 15.238-4.909 6.454-11.056 11.331-18.85 13.998a115 115 0 0 0-10.109 3.979c-5.299 2.394-10.923 3.705-16.47 5.281-.688.195-1.403.294-2.063.429-.222-.322-.565-.652-.505-.76.347-.625.717-1.266 1.209-1.777 6.766-7.02 10.721-15.829 15.472-24.139 3.334-5.832 4.437-12.221 4.609-18.741.171-6.477-1.782-12.447-5.865-17.611-.897-1.134-1.784-2.278-2.615-3.46-.146-.207-.027-.633.044-.94.023-.099.321-.24.434-.199 3.881 1.413 7.926 2.134 11.693 4.158 5.4 2.902 10.759 5.895 16.099 8.895 3.276 1.84 6.148 4.453 9.031 6.918 2.474 2.115 4.717 4.5 7.036 6.792.562.556.696 1.274.173 1.939m67.887-176.5c-.978 2.475-1.387 5.11-2.658 7.538-1.243 2.374-1.804 5.111-2.606 7.708-.797 2.579-1.38 5.231-2.309 7.759-1.31 3.565-2.828 7.055-4.3 10.559a2013 2013 0 0 1-7.44 17.52c-1.146 2.657-2.282 5.332-3.643 7.881-3.62 6.781-5.321 14.192-7.427 21.49-1.252 4.338-2.978 8.542-4.539 12.789-.997 2.714-2.141 5.374-3.114 8.096-2.079 5.812-4.859 11.297-7.629 16.794-2.196 4.359-4.556 8.657-6.414 13.158-2.134 5.17-3.599 10.614-5.715 15.792-2.056 5.032-2.925 10.412-4.948 15.433-.363.9-1.584 1.208-2.216.514-2.192-2.408-4.395-4.811-6.472-7.316-.335-.404-.126-1.33-.024-1.993.046-.302.41-.591.686-.818 4.199-3.466 5.891-8.156 6.439-13.36.433-4.108.738-8.23 1.122-12.598-3.114 2.588-4.573 6-6.477 9.031-1.778 2.829-3.82 5.265-6.463 7.255-1.879 1.415-3.718 2.881-5.575 4.324q-3.779-2.088-7.551-4.184c-.155-.086-.277-.231-.411-.352-.647-.587-.688-1.183-.079-1.842 2.23-2.411 4.071-5.12 5.361-8.112a22 22 0 0 0 1.66-6.245c.291-2.694.117-5.439.117-8.162 0-1.177-.373-1.425-1.26-.872-5.582 3.481-10.484 7.681-14.054 13.292-.292.459-.619.897-.945 1.334-3.444 4.61-3.422 4.546-8.599 2.652-2.539-.929-5.198-1.521-7.772-2.361-2.285-.746-2.446-1.335-1.068-3.217.64-.876 1.163-1.93 2-2.55 1.795-1.329 2.316-3.156 2.575-5.183.418-3.274.161-6.508-.56-9.714a90 90 0 0 0-.887-3.687c-.068-.254-.366-.634-.546-.627-.322.012-.744.192-.932.444-1.299 1.746-2.766 3.415-3.768 5.324-2.001 3.813-5.106 6.536-8.346 9.169-1.675 1.362-3.55 2.483-4.721 4.408-.62 1.019-1.672 1.372-2.844 1.146-4.856-.934-9.762-.636-14.657-.651-1.231-.004-1.635-.661-1.137-1.724.384-.819.754-1.659 1.254-2.408 3.571-5.349 4.862-11.225 4.192-17.584-.114-1.081-.083-2.177-.119-3.265-.882.725-1.833 1.382-2.635 2.187-5.538 5.558-9.99 11.887-13.496 18.909-.882 1.766-2.103 3.37-3.242 4.996-.28.4-.813.729-1.293.863-1.569.436-3.161 1.04-4.757 1.083-4.073.11-7.859 1.216-11.594 2.691-.823.325-1.745.435-2.634.541-.266.032-.596-.257-.848-.459-.063-.051.019-.361.107-.51.995-1.688 1.885-3.453 3.03-5.034 3.442-4.752 2.66-9.592.274-14.358-.99-1.976-2.051-3.818-1.918-6.113.018-.305-.273-.627-.42-.941-.451.256-1.078.398-1.329.785-4.56 7.015-8.104 14.538-10.863 22.419-.736 2.102-1.677 3.943-3.222 5.567-.979 1.029-1.621 2.38-2.4 3.596-1.597 2.493-3.614 4.48-6.309 5.832-1.925.966-3.69 2.248-5.548 3.354-.261.156-.742.259-.939.124-.235-.162-.471-.699-.37-.918 2.77-6.025 1.985-12.443 2.097-18.757.016-.889-.021-1.898-.421-2.645-.556-1.038-.771-2.586-2.388-2.657-1.356-.06-2.616.515-3.291 1.621-2.274 3.727-4.414 7.575-4.765 12.036-.634 8.047-4.148 14.901-8.56 21.41-.758 1.119-2.068 1.008-2.546-.173-.336-.831-.706-1.696-.798-2.573-.706-6.755-3.069-13.023-5.575-19.249-1.28-3.18-2.577-6.356-3.943-9.5-3.112-7.164-7.25-13.779-11.077-20.562a25 25 0 0 1-1.606-3.384c-1.787-4.717-4.064-9.197-6.219-13.747-1.858-3.922-3.943-7.71-5.843-11.599-3.266-6.687-6.941-13.111-10.999-19.353-3.046-4.685-5.761-9.574-7.978-14.767-2.197-5.146-4.831-10.091-7.997-14.8-3.512-5.223-6.518-10.835-9.257-16.512-1.239-2.567-2.596-5.051-3.999-7.509a.4.4 0 0 0-.045-.079 259 259 0 0 0-1.474-2.55c.05-.268.029-.558-.071-.721-.357-.281-.623-.71-.53-.858l.185-.296c-.289-.33-.504-.213-.646.071l-.216-.367a8 8 0 0 1-.279-.523c.114-.1.222-.262.349-.464-.077-.721.372-.589.279-.442.262.427.17.574.077.722l-.093.147c.356.28.897.264 1.082-.031.278-.443.724-.312 1.079-.034.355.279.629-.167.107-1.018-.614-.703-.614-.703-.446-.13.076.721-.632.164-.8-.409-.1-.162-.065-.412.034-.644.265.204.521.422.766.643q1.43 1.289 2.884 2.542l-.055.09c-.565.152.099.375.628.403q.38.323.762.643c-.499.177-.537.561-.072 1.092-.444-.129-.8-.408-.18.3l-.355-.279c-.8-.408-1.162.189-.54.899l.09-.15c-.086-.729.269-.45.801.409.266.429.177 1.462-.626 1.052-.446-.13-.984.77-.266 1.334.355.286.727.551.27.432-.622.166-.725.333.016.871.281.421.369.271.545-.031.088-.151-.105-.721-.017-.871-.643-.695-.461-.999.352-.601.455.119.543-.032.631-.182l.176-.301s.366.268.557.837c.458.963.303 1.266-.222.508.009.141.113.352.519.784q.29.857 1.102.807c.821.386.821.386.087-.152s-.647-.689-.02-.874c.713-.337.713-.337-.105-.721-1.185-.653-.102-.719 1.165-.221.729.534 1.266.497 1.266.497.086-.152.086-.152.364.266.642.685.643.685.021.875l-.342.609c.646.688.026.878-.794.493-.452-.116-.906-.234-.624.187q.424.632-.257.456c-.994-.084-1.08.069 1.587 1.806l.169-.306-.736-.539-.368-.27c.171-.304 1.273.502 1.757 1.501-.084.153-.168.307-.622.19l-.454-.117c.823.387.656.695-.623.188-.91-.236-1.08.068-.625.187.825.389.489 1.002-.424.764-.541.033-.542.033-.169.306.372.273.457.119.541-.034s.456.119.827.391c.372.272.455.118.539-.035-.287-.425.084-.153.455.118.656.699.747.536.828.385.083-.153.166-.306 1.007.057 1.302.467 1.68.724 1.22.62-.082.154-.164.308.134.72.163-.308.623-.205.84.362.298.413.38.258.46.103.081-.154.541-.052.839.361.298.412.299.413.758.515.16-.31.16-.31.379.258-.08.155.22.569.599.826l.379.258c-.079.156-.158.312-.538.054s-.919-.205-.999-.05-.08.155-.46-.103l-.761-.518c-.08.155.22.569.602.828 1.525 1.037 2.063.983 2.299.515.079-.156.616-.21.616-.21-.759-.516-.979-1.085-.442-1.139.458.101.457.101 1.057.928.222.57.445 1.141.367 1.297-.083.163.699.648 1.866 1.384 2.724 1.714 2.334 1.468 2.484 1.153l-.389-.244c-.389-.245-.388-.244.226-.472.075-.157.538-.071.925.172l.225-.473c-.312-.401-.311-.4-1.16-.729-.463-.086-.85-.33-.85-.33-.235-.557-1.394-1.286-1.161-.73-.077.156-.154.313-.464-.087-.387-.244-.697-.643-.542-.955.23-.465.169-1.35-.207-1.604-.376-.255-.831-.355-1.286-.455-.535.056-1.369-.302-1.289-.457-.377-.256.08-.155.536-.055s.911.2.535-.055-.672-.666-.672-.666c.161-.31 2.116.809 2.865 1.318.672.666.677.658.531-.058.078-.157-.513-.977-.887-1.231-.748-.508-1.122-.762-1.281-.451s-.239.466-.534.056c.08-.155-.67-.665-1.044-.919-.375-.255-.669-.664-.588-.818.081-.155-.293-.409-.667-.663q-1.123-.763-.876-1.224c.246-.461-.126-.714-.665-.661-.083.153-.456-.101-.83-.355-.291-.406-.371-.257-.456-.103.289.41-.168.308-.084.154-.365-.267-.645-.687-.561-.84.168-.307-.559-.839-1.093-.8.085-.153.534-.039.982.074q1.218.569 1.091.798c.283.415.289.409 1.489 1.018.911.2 1.282.452.537-.054-1.035-.913-.579-.812.909.198 1.116.758 1.115.758 1.326 1.32-.081.154-.243.464-.778.519-.536.055.212.563.747.508.454.099.827.352 1.2.606l-.453-.098c-.454-.099-.161.31.587.818.374.254.827.352.827.352.079-.156.159-.311.611-.214.825.35.823.352 1.492 1.011.304.396.609.792.532.948s-.077.156.305.397c.383.24.689.638.689.638l-.306.627c-.153.313-.537.072-.921-.17-.692-.639-.769-.483-1.078.141.231.555-.154.312-.077.156-.308-.398-.231-.554-.308-.398s-.155.312.154.711c.695.642.695.642 1.158.728.077-.157.229-.47-.079-.868-.308-.399-.616-.796-.231-.555l.385.242 1.538.967c.385.242.844.326.92.169-.232-.555 1.3.408 1.845 1.364.62.799.473 1.116.162.716-.695-.641-1.303-.41-1.527.064l-.224.474s.238.559.552.961c.627.803.555.963.093.877-.924-.171-1.073.145-.221.476 1.167.733 1.094.892.876 1.369-.609.232-.291.636.172.723.391.245.391.245.318.405-.147.322.249.562.794.472 1.342.376 1.481.057.684-.405l.142-.318c.142-.318.142-.318-.256-.548-.399-.23-.326-.39-.181-.709.073-.161.141-.313.538-.085.397.23.865.3 1.332.37s1.725.597 2.12.826c.791.458.792.458.257.549q-.7-.104-.208.48c-.069.16-.139.32-.536.09 0 0-.398-.23-.725-.619s-.326-.389-.935-.141l-.141.319.398.23c-.07.16.328.39.328.39.398.23.727.621 1.057 1.012.66.782 1.06 1.013 1.128.853.068-.161.068-.161.331.392.331.392.331.392.731.623.467.07.533-.092-.526-1.105-.591-.943-.056-1.033 1-.022q1.193.69.992 1.174c.532-.093.997-.025 1.792.434.877.27.878.27-.066.162-.862-.298-.863-.297-.066.162.814.43 1.156.807 1.156.807-.065.162-.065.162-.472-.054 0 0-.823-.419-1.215-.659-.464-.07-.535.097.203.712.278.539.278.539.408.216.065-.161.946.109 1.354.324s.88.269.944.107c.405.214 1.25 1.837.779 1.784l1.636.864c1.227.648 1.635.864 1.758.536.531-.112.53-.112 2.101.913.758.591 1.188.771 2.134.848 1.307.434 1.779.468 1.479-.06.115-.329.173-.494.644-.46q1.413.1 1.242.594c-.226.66-.226.661 1.435 1.455 1.245.595 1.245.595 1.191.761-.108.327 2.322 1.716 3.715 1.893.424.182.424.182.373.348-.051.167-.102.333-.527.151s-.849-.365-.901-.198c-.104.332.748.698 1.224.714.527-.151 1.7.729 1.225.714-.201.668.177 1.019.702.867.575-.319.949.03 1.23.716.378.351.379.351 1.28.548l.474.014-.852-.365c.048-.168.048-.168.474.014s.899.197 1.372.21c.094-.337.519-.155.472.013.331.519 1.183.884 1.275.546 0 0 .426.181.861.339l-.09.336s-.045.168.344.501c.78.666 1.215.832 1.259.663l.869.329c.392.334.433.164-.304-.671-.346-.502.087-.338.433.164.347.502 1.65.996 1.692.826.042-.169.084-.339-.349-.503l.042-.169c.433.164.865.328.824.497.392.334.392.334.474-.006.041-.17.041-.17-.391-.333-.432-.164-.39-.333-.348-.503l.864.327s.432.164.473-.006.472-.007.904.156c1.684.822 2.077 1.156 1.999 1.497-.039.17.355.505.355.505.43.171.872.312.834.481.403.315 1.728.751 2.68.699.476-.026.51-.197-.26-.997q-.548-.727.109-.511s.912.117 1.786.404c.91.116.909.116.875.287s.369.486 1.245.773.876.287.843.459.373.487.812.631l.407.316q-.66-.216-.095.516c-.032.172.377.488.818.633 0 0 .031-.172-.378-.489.031-.172.032-.172.941-.057.439.144.47-.029.5-.201-.383-.467 1.453-.313 1.84.153l.029-.172c.029-.172.029-.172-.415-.295-.889-.247-.858-.418.059-.343 1.388.026 1.358.197 1.274.713-.057.344-.558.565-1.062.784-.979.268-1.458.314-1.039.61-.029.172-.058.344-.537.39-.508.218-.508.218.42.297.449.125 1.376.202 1.376.202.449.125.898.249 1.374.201s.663-1.255.302-1.895c-.417-.295.028-.172.916.074.889.246 1.777.492 2.196.788.839.592.841.592 1.334.369.913.073.936-.101.516-.397-.395-.469-.37-.642.121-.866l.514-.398.37.642-.141 1.04c-.093.694-.562.744-1.007.621-1.361-.196-1.362-.197-.494.223.844.593.799.94-.072.52l-.048.346-.048.346c.496-.223.943-.099 1.368.198.845.617 2.237.735 1.824.289-.474.066-.479.079-.905-.215.043-.342.515-.401.948-.131l.453.103c.021-.173.021-.173-.432-.275s-.431-.275-.388-.62q.742-.365.066-.518l.451.102s.923.031 1.394-.04c.491-.244.49-.245.083-.692-.428-.274-.428-.274.449.101.407.447.741 1.588-.182 1.557l-.904-.204-.452-.102c-.021.173.41.448.863.55 1.358.307 1.357.306 1.791.582.453.102-.472.071-1.378-.133-.433-.275-.453-.102-.02.173-.02.173.414.449.869.551.473-.071.908.205.454.102-.474.071 1.346.481 2.724.614 1.395-.041 3.191.54 2.709.787-.015.174-.014.174.454.102.95-.319 1.402-.22.922.029-.016.182.432.433.892.513s.46.08.472-.094l.471-.094c.471-.094.918.159.459.08-.011.174-.034.522.415.775.439.428.44.428.45.254q.722-.402 1.382.239c-.009.174.461.08.93-.015.929-.015 1.388.064 1.841.318.914.333.914.333.46.079.007-.175.014-.349.48-.445.472-.27 1.846-.034 1.377.237-.006.175-.006.175.454.254.459.079.464-.096.469-.271 0 0 .45.271.912.49l.918.633 1.398-.182 1.856-.128.927.459c.465.404.466.579.467.754l.001.175c.466.055.464-.119.463-.294s.463-.12.927-.065c0 0 .931.285 1.396.34l.465.055c-.003-.175-.004-.175-.471-.405-.928-.11-.927-.11-.006-.35.919-.24 1.847.043 1.393.339-.455.285.941.845 2.35.905.468.03.943.235.95.409s.476.204.469.03l.461-.144c.476.204.946.235 1.863-.054.458-.144.915-.289.925-.115.01.175 2.337.149 2.79.003.467.029.467.029.48.204s.494.378.961.408c.935.065 1.419.249 1.419.249.015.173.501.351.972.355 0 0 .454-.169-.016-.173-.485-.177 1.829-.504 3.233-.493.937.007.937.007.449-.17-.019-.173-.038-.347.41-.517.409-.517.406-.517 1.421.184.021.174.509.35.509.35.468.003.468.003.98.354l.491.177c-.045-.347.423-.344.938.006.985.36 2.396.357 2.345-.01-.025-.172.443-.195.912-.218.468-.023.938-.047 1.351-.414.386-.54.384-.54 1.346-.414.495.149.495.149.524.321-.906.219-.851.563.087.516.469-.024.469-.024.498.148s1.908.077 3.282-.167c1.373-.246 2.811-.14 3.315-.003.035.17 1.835-.374 2.691-.817l.075.34c.037.17.58.459 1.048.408l-.038-.17c-.038-.17.39-.392.817-.613 1.32-.494 1.66-1.055.733-.953-.464.051-.967-.068-1.469-.187-.965-.068-1.001-.239-.539-.289.425-.221 1.348-.323 1.348-.323.462-.051.924-.102.423-.221-.118-.51.263-.901.302-.731.46-.051.46-.051.42-.221-.119-.51.836-.441 1.419.017.331 1.359.374 1.528-.049 1.75 0 0-.423.221-.341.561.041.17.083.34-.343.561l1.399-.155c1.864-.207 1.865-.207 1.018.236-.891.273-.424.222.977.066.934-.104 1.401-.156 1.356-.326l-.045-.169c.935-.104 1.575-1.308.522-1.642-.549-.258-.135-.504.826-.493.504.089.963.011.963.011q.617-.37 1.376-.236c.964.01 1.113.512.192.67-.46.079-.27.75.654.591.51.088.511.088.609.423.049.167.098.335.562.255s.464-.08.514.088l.514.087c.465-.08.826-.494.723-.828.155-1.082.562-1.328.562-1.328.919-.159 1.536.262 1.91 1.429.053.167.518.086 1.854-.321.467-.062 1.326-.447 1.783-.556.401-.272.401-.272.915-.215.114.329.63.386.63.386.917-.215.052-1.258-.858-1.044-.057-.165-.569-.222-.625-.387-.113-.329.341-.436.795-.543l.114.329c.057.165.57.222.57.222.455-.107.91-.214.969-.05s.117.328-.339.436l.058.164.914-.215c-.059-.164.457-.108 0 0 .059.164.576.221 1.033.113l.518.056c-.061-.164-.12-.328.732-.707.334-.435.333-.435.518.056l.123.327 1.247-.651c.331-.435.787-.542.787-.542.519.055 1.103.273 1.626.328.52.048.984-.039 1.367-.341.385-.296.834-.431 1.283-.566s.382-.296.249-.617c-.515-.026-.581-.187-.134-.322.894-.269 2.889-.327 3.479-.143.589.185.589.184.519.024s.309-.455.686-.75c.825-.43.753-.59.753-.59-.447.135-.072-.159.894-.27 1.341-.406 1.342-.406 1.641-.859-.074-.159-.147-.318-.593-.183-.073-.159-.073-.159.298-.453.888-.275 1.781-.526 2.369-.37.073.151.079.169-.366.306-.446.135-.891.27-1.189.723-.373.294.148.317.521.023.448-.131 1.339-.409 1.409-.267.513-.005 1.391-.329 3.144-.977 2.191-.81 2.629-.973 2.906-1.445l-.321-.62c-.516.006-2.257.651-2.101.963.078.156.157.312-.28.473l-.078-.156c-.078-.156-.156-.312-1.105-.145-.513.005-1.024.009-.589-.151.359-.317.715-.634.127-.786-.077-.156-.587-.152-1.452.168-.433.16-.866.32-.941.163s1.653-.796 2.672-.804c.51-.004 1.455-.169 2.321-.49s1.3-.482.946-.166c.08.155.594.15 1.028-.011.515-.006.434-.161.353-.316-.675-.304 1.134-.79 2.685-.812 1.032-.017 2.076-.023 2.24.268.169.304.595.116 1.447-.259.426-.188.852-.375 1.191-.714l.087.151c.599.115.6.114.851-.375-.174-.302.588-.828.588-.828.336-.338.849-.375.424-.187l.176.301c.848-.375 2.148-.001 1.811.337.089.15-.427.189-.427.189-.089-.15-.089-.15-.516.038l.089.15c.177.301.606.112 1.461-.266.765-.527 1.282-.567.946-.228-.428.189.091.149.428-.189 0 0 .337-.338.154-.637-.273-.448-.274-.448.335-.338s.611.109.853-.377c.334-.337.056-.783-.036-.932l-.369-.595 2.207-.793c2.152-.913 2.784-1.629 2.401-2.211l-.286-.437c.599.081 1.418-.341 1.225-.632l.817-.421.291.435c.097.145.194.29 1.014-.133.41-.211.819-.423.918-.279.213-.5.212-.5.41-.212.608.076-.525.857-2.267 1.56-.918.279-1.547.992-1.674 1.642-.034.797 2.423.311 2.45-.483.219-.503 1.044-.928.925-.282.196.289.196.289.708.22.415-.214.414-.214.316-.358 0 0 .217-.502 1.043-.929.627-.714.627-.714.513-.07.299.431.4.574.714.216 0 0 .314-.357.213-.5-.1-.143.526-.857.735-1.356 1.034-.925 1.03-.923-.197-1.069-.714-.216-1.223-.148-2.141.131-1.737.702-3.759.966-3.545.465-.097-.145.309-.355.715-.565l-.196-.289c-.112-.167-.059-.448.082-.725.382-.147.768-.285 1.147-.441l.184-.076c.113.064.263.083.515.05.099.144.199.287-.207.497s-.406.21-.307.354c0 0 .505-.066.912-.276 1.216-.628 3.76-.968 3.559-.474-.205.496.306.427.204.285.415-.202.801-.454.906-.308l.204.282c-.397.235-.295.376-.091.658s.705.187 1.103-.049 1.299-.568 1.403-.428c.207.28.208.28.798-.473.19-.516.484-.891.379-1.03l.585-.75.794-.471s.106.139.609.042l.212.277c-.398.236-.796.472-.902.333l-.106-.139c-.398.236-.292.375-.082.653.61.041-.189.515-.797.473l.21.279c.21.279.42.557.82.32l-.21-.278c-.21-.278.587-.751 1.199-.711l.293-.375c-.106-.138.292-.375.691-.612s.292-.375.292-.375c-.107-.138-.107-.138-.505.098l-.505.098c-.106-.138.291-.374.689-.61s.398-.236.505-.098c.215.276 1.194-.709.977-.983-.216-.275-.217-.274.506-.099.614.038 1.34.212 1.958.248l1.24.07-.95-.443-.439-.546c.398-.236.398-.236.508-.1l.503-.198c.28-.109.6-.262.789-.396 1.152-.775 1.04-.909.163-.527l-.221-.269c.162-.527.543-.784.765-.515.111.134.716.145 1.211.02 1.374-.507 1.986-.502 1.44.283l.337.4c.386-.26.659-.653.546-.786.272-.393.272-.392.771-.519.884-.387.884-.387.158-.524-.227-.265-.34-.398.043-.656.498-.127.384-.259.156-.523-.454-.53.232-1.829 1.34-1.949l.23.263.764-.516c.266-.389.266-.389.382-.258.348.393 1.497-.383 1.263-.643.032-.649.412-.906 1.029-.904.502-.125.894-.372 2.233-1.625.615-.684.981-.961.615-.683-.851.428-.851.428-.722-.105.129-.532.493-.809.978-.959s.485-.15-.112-.785a3 3 0 0 1-.138-.156q1.173-.753 2.335-1.522l-.012.02c-.608.679.238.907.848.227.365-.277 1.703-.858 1.826-.734l.244.25c.122.125 2.076-1.141 3.666-2.132.366-.279.733-.557 1.224-.713.951-.351.951-.351.351-.297-.249-.243-.373-.365-.023-.661.226-.418.326-.957.076-1.199-.375-.364-.374-.364-.474.174-.432.853-1.533 1.682-1.783 1.432-.135-.135-.014-.381.327-.756a162 162 0 0 0 3.719-2.881c.072.043.136.094.179.135.126.12.728.064.728.064.349-.296.349-.296.476-.176-.349.296-.35.296-.223.416s.253.24.029.657c-.575.714-.926 1.011-.926 1.011-.377-.362-.826.473-.451.836.251.242.376.362.602-.056l1.055-.893s.225-.418.099-.538l.379.36c1.111.422 1.593.24 1.309-.655-.157-.776-.061-1.311.321-.954.127.119.607-.06.958-.358.352-.298.48-.18.608-.061.255.238 2.629-1.32 3.687-2.219.705-.598.574-.715.313-.948-.522-.466-.522-.466.442-.83.965-.364.965-.365.703-.597-.055-.659.277-.974 1.006-.945l.524.458c.262.229.73.027.467-.201-.131-.114.205-.43.54-.746s.54-.745.072-.543c-.467.202-.599.087-.73-.027.072-.543.071-.542.67-.63l-.264-.227c-.264-.228-.194-.769.007-1.196s.534-.741.333-.314c.133.113.063.654.328.881-.07.542.397.34.732.025.67-.63.803-.517.936-.404 0 0 .266.226.735.022l1.072-.295-.065-.653c-.267-.224-.402-.336-1.338.069-.468.203-.936.404-.133-.113l.335-.315c-.134-.112-.267-.225-.601.09s-.467.202-.266-.225c.534-.741.4-.853-.266-.225-.467.201-.466.201-.067-.651.598-1.277.597-1.276.999-.94.134.112.735.022 1.068-.292.935-.405 1.206-.183.403.335-.802.517-.868 1.055.069.65 1.072-.295 1.408-.611 1.138-.833s-.07-.648-.07-.648c.334-.315.532-.74.397-.85l-.406-.332c.259-.959 1.996-1.881 2.073-1.238.072.643 2.098-.063 2.287-.497-.136-.108.182-.439.5-.769l-.273-.216c.318-.33.318-.33.454-.222.273.216.41.323.092.654s-.637.661-.365.878c.136.108.592-.115.592-.115.319-.331.183-.439.046-.547-.136-.108.045-.546.501-.77 1.094-.886 1.498-2.306.809-2.838-.276-.214-.413-.32-.097-.649.138.107.91-.445 1.227-.775.317-.329.317-.329.455-.223 0 0 .456-.224.773-.553.634-.659 1.292.408.973.739-.179.436-.498.767-.359.873s.458-.226.776-.557c.18-.437.498-.768.816-1.099s.318-.331.179-.436c-.14-.105-.14-.105-.597.121-.636.661-.636.661-.279-.21l.356-.87.317-.33c.177-.434.457-.226.597-.121l.42.313.075-.078c-.355.849-.712 1.697-1.055 2.55-1.138 2.836-2.195 5.702-3.317 8.543M215.986 98.271c.06-1.205 1.577-2.659 2.835-2.845.175-.026.423-.101.523-.017 1.195 1 2.369 2.025 3.451 2.96-.271.675-.325 1.055-.538 1.292-.471.524-.967 1.062-1.554 1.436-.856.546-1.787 1.458-2.852.786-1.252-.791-1.941-2.078-1.865-3.612m127.096 45.771-.288-.197c-.001-.525.284-.853.573-.656.144.098.289.197.002.525zm-1.415 27.487s-.318.331-.457.225l-.456.224c.636-.66 1.093-.885.913-.449m-6.065 5.681c-.198.425-.198.425-.533.741-.136-.11-.272-.22-.074-.645.062-.535.669-.63.607-.096m-1.467 2.335c-.065.537-.738 1.171-1.007.948-.135-.111-.135-.111-.47.205 0 0-.336.316-.47.204s.201-.427.536-.743c.67-.63 1.475-1.151 1.411-.614m-8.194 7.471c.126.11-.325.328-.816.503-.835.482-.835.482-.131-.116.699-.602 1.146-.824.947-.387m-10.235 8.036c.377.361.024.661-.58.718s-.603.056-.024-.661c.227-.419.226-.419.604-.057m-2.739 1.183c.122.119.255.251-.24.406l-.984.313.734-.558c.369-.278.366-.282.49-.161m-.726 1.212c.125.123.125.123-.244.403l-.493.157c-.124-.124.12-.527.12-.527.368-.28.368-.28.617-.033m-2.456 2.084-.738.56c-.491.155-.491.155.246-.405.369-.28.369-.28.492-.155m-2.942.928s.121.125-.247.405l-.489.153c-.121-.126.247-.405.247-.405.368-.279.368-.279.489-.153m-6.063 5.633-.385.26-.502.13.384-.26c.385-.259.385-.259.503-.13m.385-1.111c.12.132-.099.404-.738.722-.768.519-.768.519-1.237-.001.149-.519.148-.518.648-.647.753-.189 1.213-.197 1.327-.074m-2.694 2.671c-.385.26-.501.129-.849-.264s-.579-.655-.197-.913c0 0 .615.003.732.134 1.234.004 1.202.653.314 1.043m-6.938 4.676-.334-.401c.881-.385 1.106-.118.334.401m-18.766 6.447c-.409.211-.608-.076.107-.641l.407-.211c.508-.067.303.43-.514.852m-9.778 8.585-.428.189-.52.04.428-.189c.428-.189.428-.189.52-.04m-13.761 3.947c-.436.162-.873.324-.792.479-.082-.155-.244-.464.029-.935.543-.941.973-1.101 1.657-.8s.417.769-.894 1.256m-4.56.211s.079.156-.356.317c-.791.478-.869.321-.078-.156zm-59.224 13.437c-.471.024-1.492-.446-1.05-.642l.937-.047c.497.149.584.665.113.689m-8.526-.362s.021.174-.449.17l-.49-.177c-.02-.174.449-.17.449-.17.469.003.469.003.49.177m-18.229.953.006.174a7 7 0 0 1-.466.132l-.475-.23c-.004-.181.463-.11.935-.076m-1.917-1.961-.466-.055-.469-.23.465.055c.466.055.466.055.47.23m-28.941-6.361c-.02.173-.02.173-.475.07 0 0-.434-.276-.413-.449l.454.103c.454.103.454.103.434.276m-5.361-1.735s-.025.173-.473.049c0 0-.423-.297-.398-.47l.448.124c.447.124.423.297.423.297m-7.199-1.818c-.447-.128-.443-.14-.475.036-.031.172-.03.173-.946.055-.443-.145-.885-.29-.853-.462s-.41-.317-.852-.462c-.475.027-.409-.317.065-.344.479-.039 3.139.693 3.54 1.129-.001.001-.03.173-.479.048m-4.218-2.467c.78.803.749.975-.134.686-.441-.145-.882-.289-.916-.118l.034-.171.137-.685c.507-.199.506-.199.879.288m-3.386-.2c-.171-.056-.19-.062 0 0m1.452.477c.407.316-.58.539-1.467.248l.071-.341c.478-.025.477-.026.071-.341l.442.145c.001-.001.442.144.883.289m-1.002-1.97s-.403-.315-.366-.485l.438.144c.438.144.402.315.402.315s-.035.17-.474.026m-5.031-.648c-.039.17-.552.347-.552.347-.434-.164-.868-.328-.909-.158 0 0-.04.17-.475.006 0 0-.394-.334-.353-.504s.475-.006.909.159c.434.164.908.158.947-.012.512-.178.512-.178.433.162m-18.029-7.307c-.154.495-.641.491-.949-.049-.259-.7-.674-.898-1.2-.766-.472-.033-.89-.233-.836-.399s.526-.133.943.067l.108-.333c-.779-.564-1.667-.797-1.36-.266 0 0-.055.166-.472-.034-.835-.4-.668-.896.22-.663.472.034 1.303.431 2.028 1.162.363.366.78.565 1.197.764.477.021.426.184.321.517m-5.571-3.604s-.057.165-.473-.034l-.36-.364c.057-.165.473.034.473.034.417.199.417.199.36.364m-.7.626-.113.33s-.361-.365-.304-.53c-.361-.365-.36-.365.114-.33s.473.035.303.53m-5.216-3.152.408.215c-.06.164-.121.328-.529.113l-.348-.38zm-9.428-4.857-.067.162c.067-.162-.333-.393-.733-.624l-.4-.231c.068-.161.467.07.867.301s.399.23.333.392m-4.73-2.935s-.4-.231-.87-.303l-.8-.463c.071-.159.541-.087.941.144l.141-.319c-.328-.39.469.071.728.622.728.621.59.941-.14.319m-5.19-5.163s-.074.158-.463-.086c0 0-.314-.402-.24-.56s.463.086.463.086c.388.244.314.402.24.56m-.342-2.467c-.848-.328-1.083-.885-.621-.8s.461.085.846.327zm.12 2.942c.243.562-1.54.056-1.781-.506l-.465-.088c-.15.315-1.322-.422-1.246-.579s.466.088.466.088c.39.245.465.088.541-.069.151-.314 2.245.593 2.485 1.154m-3.117-8.114s-.452-.097-.826-.351l-.295-.41c.079-.156.452.098.826.351s.374.253.295.41m-9.648-.062c.299.413.3.414-1.307-.47-1.972-1.166-2.238-1.621-.675-.678.837.377 1.604.887 1.982 1.148m7.862-20.794.072.053a1 1 0 0 0-.072-.053m-.503-.367-.115-.084zm.503.367-.238-.174zm-.239-.175-.264-.193.229.168zm-13.962 13.623c-.087.151-.456-.119-.456-.119-.369-.27-.369-.27-.281-.421s.087-.151.456.119c0 0 .368.27.281.421m-2.932-2.183c-.089.151-.898-.264-1.167-.697l.359.282c.359.282.449.132.449.132l.089-.15c.359.282.359.282.27.433m-1.266-.774c-.051-.041-.057-.046 0 0m1.444-1.291c-.09.15-.269.45-.627.169 0 0-.268-.431-.177-.58.18-.299.627-.168.627-.168.357.279.267.429.177.579m15.229 14.718c.079.054.247.168 0 0m-.035-.023.035.024zm152.554 45.612c-.178.02-.151.017 0 0M34.951 185.518c.032-.055.042-.071 0 0m-.005.009a.34.34 0 0 0-.047.206l-.041-.056zm.005-.009-.005.009zm302.485-10.343c.318-.33.136.108 0 0M32.379 161.573l-.142.21.065-.096zm115.723-71.737s.209-.027.23.068l.23.068c-.417.054-.648-.014-.46-.136m2.17.023c.027.109.006.133-.026.099a.6.6 0 0 1-.094-.206l-.008-.032c-.011-.129-.012-.127.02-.164.048.088.099.173.108.303m-.152-.684c-.088-.189-.056-.233.072-.087.063.074.063.074.089.043.006-.005.012-.018.106.027.043.092.031.11-.005.15-.064.072-.178.059-.262-.133m3.071-2.872c-.074-.064.151-.147.377-.23.377-.23.377-.23.074.064-.303.293-.528.377-.451.166m4.464-3.922c-.221-.191-.07-.338.229-.357.299-.02.299-.02.07.338-.077.21-.077.21-.299.019m1.356-.773.451-.167-.303.294c-.152.147-.152.147-.225.083s-.148-.127.077-.21m.233-.632.225-.083c.074.064-.004.274-.004.274-.151.147-.151.147-.299.02-.073-.064-.073-.064.078-.211m.909-.881.303-.294c.225-.083.225-.083-.078.211-.151.147-.151.147-.225.083m1.352-.499s-.074-.064.078-.211l.225-.083c.074.064-.078.21-.078.21-.151.147-.151.147-.225.084m.523-1.414.008-.04.1-.009-.009.043c-.009.043-.009.043-.099.006m.721.286c-.317.078-.57-.079-.451-.176.022-.098.021-.095.391.022.169.119.167.126.06.154m-.498-1.039c.063-.201.158-.181.444-.119s.476.103.414.304c0 0-.253.16-.349.14-.507.321-.73.057-.509-.325m1.13-3.626.286.062c-.221.382-.412.341-.286-.062m2.919-6.706c-.018-.197.174-.228.306.155l.018.198c-.077.212-.288.041-.324-.353m-2.46-5.034-.031-.187.064-.211.031.188c.031.187.031.187-.064.21m-.545-6.176c.091-.035.271-.107.511.006.479.227.54.416.325.7-.214.284-.456.166-.63-.378-.058-.181-.116-.363-.206-.328m.257-1.759c-.205-.329-.116-.369.09-.039l.058.185s-.09.039-.148-.146M148.913 34.89c-.14-.122-.272-.598-.07-.564l.289.24c.089.202-.076.443-.219.324m-2.773-2.261-.112-.185c.047-.085.207.016.207.016.16.101.16.101.112.185.001 0-.048.085-.207-.016m-6.542-2.687-.035.091-.201.011-.131-.171c.034-.092.201-.011.367.069m-.499-1.32-.143-.163.175.072c.171.081.17.082.137.174.001-.001.001-.001-.169-.083m-11.422-4.416.188.034c.188.034.188.034.177.13-.011.097-.011.097-.198.063.001 0-.176-.13-.167-.227m-2.25-.552.19.023c.19.023.184.12.184.12s-.006.097-.195.074c-.001 0-.184-.12-.179-.217m-3.98-.277c.185-.084 1.325-.101 1.514.106 0 0-.001.097-.19.084s-.189-.013-.189.084 0 .097-.375.169c-.188-.013-.375-.026-.377-.124-.002-.097-.19-.111-.378-.124-.186.084-.192-.111-.005-.195m-.949-.129-.018-.388c.181-.192.183-.192.381.005.392.298.393.394.015.388-.189-.002-.378-.005-.374.092zm-.938.084.188.003.377.005c.193.099-.167.386-.54.381l-.013-.194c.182-.095.183-.095-.012-.195m-.061-.874s-.199-.1-.207-.197l.193.003c.193.003.199.1.199.1s.007.097-.185.094m-2.935.947c-.013-.097.174-.104.361-.112s.362-.112.351-.209c.165-.201.166-.201.188-.008.011.097-.153.298-.153.298-.187.008-.373.016-.361.112 0 0 .012.097-.173.104-.001 0-.199-.089-.213-.185m-8.425.848c.134-.143.48-.251.888-.177.205.041.368-.026.548-.06.145-.133.177-.041.239.144.093.278-.049.41-.287.266-.263-.222-.435-.166-.536.069-.134.144-.301.197-.336.106s.099-.235.269-.288l-.068-.182c-.376.017-.681.214-.44.342 0 0 .035.091-.133.143-.335.103-.45-.166-.144-.363m-1.011.339-.202-.022c-.04-.088.123-.155.123-.155.163-.067.163-.067.202.022.001.001.039.089-.123.155m.158.355.078.177s-.198-.024-.238-.112c-.2-.024-.201-.023-.08-.177s.122-.154.24.112m-2.086.785-.197-.009.102-.161.151-.077c.047.086.093.171-.056.247m-3.992 2.259c-.059-.073.078-.188.232-.282.151-.099.151-.099.211-.022l.06.077c-.06-.076-.211.021-.36.121zm-1.822.903c-.205.044.073-.186.342-.157.341-.156.469-.011.131.144 0 0-.137.114-.208.298l-.273.225c-.067-.07.003-.254.141-.367zm-2.575 1.265c-.073-.064.053-.195.053-.195.127-.131.206-.06.276.003 0 0 .07.063-.059.19 0 0-.197.066-.27.002m-1.086-.69.222.189c-.186.332-.467.342-.411.145s.057-.198.189-.334m1.058 1.837c.122-.126.048-.189-.027-.251-.148-.119.319-.903.602-.892.267.005-.02.695-.281.7l-.048.19c.148.127-.216.503-.292.441-.077-.062.046-.188.046-.188m-13.439-.345c-.091-.036.035-.259.035-.259l.126-.223c.09.037.18.075.055.297.001-.001-.125.221-.216.185m10.038 4.52c.067-.351.284-.628.37-.777.18-.099.179-.095-.112.525-.338.784-.499.896-.258.252M82.528 31.47l.142-.499c.382-.679.383-.679.474-.642s.181.075.054.299-.253.449-.161.484l-.091-.035c-.096-.038-.307.157-.418.393m-.526-.471-.024.05zm-.192.397c-.079.164-.127.263-.039.08zm.168-.347-.168.347.077-.159zm.141 2.176c.11-.232.22-.463.203-.202 0 0 .093.03-.016.26-.11.23-.201.203-.201.203-.185.211-.101-.032.014-.261m12.772-.949c.024-.028.049-.056 0 0m-.018.022.018-.021zm-11.334-2.271.04-.071zm0 0c-.017.029-.014.025 0 0m66.345 59.852c-.052.011-.028-.094 0 0"/></svg>