<svg width="686" height="548" viewBox="0 0 686 548" fill="none" xmlns="http://www.w3.org/2000/svg">
<g clip-path="url(#clip0_177_1055)">
<path d="M24.33 389.73C26.31 401.15 33.22 417.97 41.53 426.8C37.38 426.23 33.12 423.81 30.97 420.37C26.45 413.16 24.86 420.82 9.52004 394.5C-20.22 358.69 30.89 230.53 13.3 312.65C11.12 338.66 14.72 365.36 24.34 389.73H24.33Z" fill="black"/>
<path d="M652.75 291.38C643.78 257.98 640.33 229.25 624.83 199.88C621.82 193.6 613.45 175.73 608.16 171.2C606.94 169.68 594.07 154.93 599.66 156.32C642.63 188.96 665.58 246.16 652.75 291.37V291.38Z" fill="black"/>
<path d="M63.9701 416.58C37.8701 395.75 24.2101 352.52 43.2101 323.42C27.9401 366.44 104.59 448.85 63.9701 416.58Z" fill="black"/>
<path d="M679.11 297.81C672.08 319.41 675.54 270.93 674.19 262.23C674.96 242.78 668.46 218.73 662.87 200.05C682.28 227.23 692.84 265.21 679.11 297.81Z" fill="black"/>
<path d="M392.06 544.08C319.15 535.45 266.75 480.71 204.64 447.79C182.49 435.47 160.86 446.26 132.64 437.83C63.2198 404.69 57.1999 335.65 77.4099 270.25C84.7399 221.66 49.1198 183.13 56.1198 134.07C64.1098 34.4004 190.65 -12.3896 277.61 2.81035C286.92 7.13035 307.16 8.49036 313.45 17.6804C322.03 30.9204 333.05 41.9004 345.11 52.1104C353.91 63.0304 366.27 75.3004 378.72 81.7604C427.92 110.3 493.44 101.54 537.79 142.45C647.19 219.65 653.27 393.81 552.41 481.66C510.74 522.76 452.14 555.16 392.07 544.08H392.06ZM261.55 14.4704C255.31 12.6404 250.86 12.2304 245.11 12.9104C254.49 21.2104 249.86 23.8104 261.55 14.4704ZM160.48 33.7404C113.91 51.6304 156.06 72.6404 178.61 87.9304C202.77 126.97 230.35 115.07 242.42 76.3504C251.2 56.3504 245.77 62.2004 245.67 48.5004C251.96 1.54036 195.94 10.1704 183.47 44.4104C157.06 78.7404 229.8 95.5904 222.55 57.4104C210.3 38.9804 205.32 75.3904 198.56 59.4504C206.45 15.8104 257.2 62.7004 223.27 84.3804C179.41 108.12 149.71 60.7904 181.89 25.3704C176.02 25.4804 165.97 31.7704 160.47 33.7304L160.48 33.7404ZM266.3 55.9104C254.22 42.1704 276.51 24.3204 288.07 38.2004C290.08 40.3704 291.51 44.6204 288.73 46.5104C283.45 50.1004 278.97 39.9704 273.9 44.3704C268.97 49.8004 279.88 55.1504 284.57 55.6504C318.92 52.1704 317.79 38.2304 288.06 21.3104C279.28 16.3004 262.41 21.5504 257.9 30.4604C259.77 39.7304 260.73 54.3304 257.65 64.1604C267.47 91.2104 334 68.3504 319.16 48.9904C309.46 66.2204 280.17 71.5904 266.3 55.9004V55.9104ZM332.05 61.8104C330.17 57.9604 328.04 61.1404 326.45 63.3004C328.69 63.8104 330.05 63.2704 332.05 61.8104ZM290.82 235.04C294.24 238.53 296.56 241.82 299.79 246.08C295.9 216.88 98.8998 3.85036 99.8498 90.5104C174.46 122.09 236.44 175.89 290.83 235.05L290.82 235.04ZM318.56 107.76C305.38 86.9704 341.61 71.4304 341.72 96.3504C332.92 107.85 333.25 88.4304 326.94 95.9204C325.23 120.01 378.25 98.3404 345.66 76.7804C334.27 65.3804 313.33 79.1004 303.36 87.4004C297.81 96.7104 300.91 118.97 311.14 123.25C329.1 132.88 356.88 124.73 371.28 114.57C389.5 103.52 382.79 101.35 366.51 94.8404C364.85 115 328.58 125.75 318.56 107.76ZM268.77 93.0704C270.06 103.19 257.07 101.51 256.22 93.0704C255.73 86.8504 263.89 84.7504 263.89 81.4504C257.91 79.4204 253.16 82.6304 250.12 86.6304C235.43 106.47 279.26 115.19 281.83 101.13C284.01 94.1004 272.82 89.8304 268.77 93.0704ZM291.26 84.1704C287.26 84.3704 284.71 86.4404 290.11 89.0804C290.91 89.4804 292.2 84.0204 291.26 84.1704ZM107.87 116.95C126.73 111.55 101.43 107.98 91.7099 100.97C79.1498 108.59 77.9699 145.38 79.2899 161.34C80.2899 138.87 86.1199 125.43 107.86 116.94L107.87 116.95ZM230.21 141.03C234.06 129.96 240.28 121.77 249.77 115.14C238.22 102.9 239.75 108.06 228.12 115.51C221.84 125.92 217.77 132.99 230.21 141.03ZM291.92 114.89L289.75 109.2C286.66 111.72 288.17 114.57 291.92 114.89ZM422 169.64C449.75 152.43 392.99 133.89 395.72 167.82C390.19 227.11 483.35 185.65 471 145.6C461.87 123.75 440.68 120.12 418.58 115.18C379.13 102.77 359.01 149.96 367.3 182.64C368.85 201.85 376.23 201.11 392.32 196.64C370.02 167.74 400.77 117.18 433.18 147.36C457.9 174.04 400.68 196.78 409.83 160.49C420.1 151.33 414.18 169.49 422 169.64ZM135.69 154.14C168.69 190.76 95.2899 228.6 80.5699 186.06C85.9099 196.31 87.7798 210.37 90.2698 221.28C104.63 212.24 121 213.34 136.96 215.15C168.94 200.63 190.49 147.73 152.85 128.87C106.5 97.2103 63.6399 166.62 103.32 195.24C136.86 199.9 147.98 149.67 112.4 161.59C107.64 165.38 105.89 175.7 112.27 179.17C117.76 183.2 134.93 166.56 123.5 182.51C83.6998 204.64 97.5499 127.55 135.69 154.14ZM216.02 127.77L220.99 119.73C213.41 122.44 203.15 117.49 216.02 127.77ZM293.49 169C291.69 179.03 283.93 184.95 274.75 188.96C293.64 228.46 325.42 168.48 311.13 145.79C293.7 115.84 245.01 110.72 237.7 150.41C246 156.03 251.93 164.37 259.16 171.06C253.99 137.73 289.43 143.24 293.48 169.01L293.49 169ZM480.09 130.85C476.64 130.34 474.86 129.57 471.23 128.15C475.11 131.07 476.55 140.77 480.09 130.85ZM353.39 157.9C348.62 168.14 333.3 165.25 325.23 159.67C321.47 183.33 341.49 155.18 358 174.51C358.11 160.15 356.63 144.08 363.19 130.72C351.9 133.59 341.01 137.75 328.93 138.96C322.17 147.82 328.94 157.92 339.14 157.2C346.86 159.8 350.05 148.44 343.21 147.47C341.51 150.55 338.14 154.34 335.05 150.16C329.19 128.28 364.85 140.11 353.38 157.89L353.39 157.9ZM523.05 153.54L507.64 142.66C508.77 150.75 505.8 163.11 495.52 161.27C483.16 159.14 486.69 141.62 497.46 151.95C501.43 149.18 499.1 139.23 491.9 136.65C477.01 136.88 482.19 167.44 498.48 164.82C507.05 160.96 513.76 159.19 501.9 167.91C514.28 177.11 506.03 160.83 523.06 153.54H523.05ZM324.99 137.59C318.89 137.06 319.81 137.56 321.61 142.68L324.99 137.59ZM195.94 199.91C205.34 176.7 205.38 158.37 181.19 147.56C182.91 167.58 181.91 186.28 168.69 203.11C178.3 199.09 187.16 197.64 195.94 199.91ZM284.04 166.63C264.28 142.39 275.6 173.99 259.57 171.09L267.91 181C268.77 182.02 283.89 177.31 284.03 166.63H284.04ZM544.15 170.05C535.06 160.64 524.75 179.97 538.78 181.62C538.71 178 539.36 175.73 542.42 175.63C544.15 175.57 547.1 176.22 547.42 178.88C548 212.82 504.75 172.81 530.76 160.85C522.31 149.25 511.68 178.03 519.33 186.62C520.6 194.99 523.9 205.76 535.27 201.85C567.32 195.51 564.35 190.41 544.15 170.05ZM246.48 202.25C237.52 191.19 226.22 182.58 215.76 173.11C211.27 169.23 212.78 177.29 212.06 183.11C210.05 208.56 227.98 209.89 246.48 202.24V202.25ZM341.19 200.36C336.68 199.08 339.43 193.87 340.69 191.28C317.96 196.14 348.1 215.77 356.82 201.46C363.21 188.85 350.62 170.36 336.71 175.22C318.76 179.91 326.45 178.46 315.92 194.99C313.96 202.65 318.4 205.94 325.65 206.05C317.09 193.73 334.82 176.16 346.84 185.25C351.07 189.45 348.56 200.57 341.19 200.38V200.36ZM471.73 178.85C466.51 190.37 460.74 204.29 477.49 206.23C495.45 218.33 517.2 229.88 510 193.36C510.9 175.02 474.46 170.48 482.67 192.34C487.37 201.13 504.04 195.41 488.18 192.96C485.37 191.72 487.48 187.91 488.53 186.27C499.43 178.23 509.91 195.25 501.97 204.13C488.9 213.02 467.5 198.43 471.71 178.84L471.73 178.85ZM431.71 213.79C446.24 204.82 462.46 209.35 460.04 191.48C445.12 201.14 429.89 209.88 411.58 207.78C420.8 217.81 422.2 217.17 431.71 213.79ZM571.07 204.33C569.19 199.19 567.95 196.64 564.27 201.47C566.98 202.99 568.07 203.5 571.07 204.33ZM217.67 214.37C212.72 211.81 206.63 195.78 206.42 206.69C209.42 209.58 212.51 216.96 217.67 214.37ZM366.25 209.09C370.05 198.13 357.41 211.43 355.52 212.71C359.19 211.9 362.66 210.61 366.25 209.09ZM138.58 237.5C112.38 230.45 92.1298 240.16 91.0598 269.39C86.8298 295.61 76.7998 325.73 81.0198 350.81C85.6198 382.26 110.81 413.02 139.32 425.64C161.62 431.18 184.03 422.56 205.66 433.18C248.7 450.51 282.42 484.47 324.25 505.4C355.69 515.59 390.42 527.68 423.75 524.01C462.87 515.36 504.07 498.91 530.13 468.39C567.72 436.05 592.98 391.15 606.75 343.79C607.84 315.76 612.68 271.19 595.91 245.94C580.42 224.75 547.22 214.02 525.32 233.48C492.07 257.33 481.92 209.93 441.02 224.45C420.7 235.68 409.24 214.03 386.99 212.96C374.25 215.02 368.1 230.92 354 229.38C335.18 230.69 319.71 212.53 299.48 224.31C301.31 232.81 306.15 239.66 306.92 245.79C312.02 251.22 327.84 240.73 335.84 266.53C344.33 283.01 332.67 295.75 352.8 297.35C372.14 316.43 355.26 316.67 366.22 327.6C393.52 350.57 403.5 388.65 387.57 420.27C370.03 454.7 323.58 465.51 304.06 428.1C293.65 412.33 293.08 396.26 278.46 383.53C274.95 374.89 264.52 371.39 261.8 363.42C267.26 350.76 299.93 353.8 312.22 355.09C321.86 357.29 334.38 366.52 331.66 378.31C330.04 380.41 319.81 378.76 314.78 381.71C337.3 425.96 362.99 387.23 346.16 351.68C345.09 345.25 338.11 334.31 337.89 328.1C332.93 330.3 329.49 327.76 326.6 324.8C323.18 321.3 324.57 317.06 325.45 312.55C313.74 305.22 304.6 302.13 294.73 290.58C287.18 281.66 285.26 263.99 295.92 256.75L286.1 242.68C240.64 192.1 232.21 242.02 205.01 227.19C173.13 205.5 170.4 226.28 138.58 237.5ZM325.29 271.79C315.95 236.62 280.2 278.59 309.24 291.8C299.16 273.74 311.71 262.65 325.29 271.79ZM330.58 301.65C325.33 296.66 320.88 278.05 313.79 278.14C311.2 283.79 318.23 289.52 319.79 292.49C319.67 294.93 333.69 316.64 330.58 301.65ZM343.61 310C350.32 297.26 330.54 316.13 331.94 319.09C338.19 320.14 338.12 315.87 343.61 310ZM352.77 316.89C352.96 315.82 349.32 315.41 348.52 316.1C336.24 329.46 349.35 332.58 352.77 316.89ZM300.13 386.29C322.99 508.34 434.27 411.45 366.34 342.12L353.65 332.39L349.05 336.61C353.43 342.18 357.46 349.9 358.8 356.65C366.46 377.26 358.07 417.89 329.16 407.87C319.68 402.17 318.4 394.88 312.77 387.59C299.02 378.38 301.32 367.41 318.86 371.68C312.69 360.29 292.42 363.38 281.11 365.03C288.07 371.09 294.22 379.07 300.1 386.29H300.13Z" fill="black"/>
<path d="M488.38 422.56C440.96 414.47 460.35 341.75 504.6 354.15C537.79 367.79 524.51 425.27 488.38 422.56ZM511.08 396.09C517.33 367.79 487.72 343.93 470.6 382.16C462.76 408.21 504.84 427.6 511.08 396.09Z" fill="black"/>
<path d="M445 302.21C421.51 315.46 400.71 276.23 429.52 265.31C456.39 255.5 466.37 290.67 445 302.21ZM437.22 296.42C448.94 293.63 443.42 277.07 439.36 271.81C424.05 272.05 420.34 292.55 437.22 296.42Z" fill="black"/>
<path d="M212.91 315.26C187.1 304.59 213.86 263.75 234.88 281.93C255.54 295.81 234.04 326.34 212.91 315.26ZM230.59 304.61C239.03 292.68 217.47 283.88 212.33 296.55C208.28 307.58 224.4 312.19 230.59 304.61Z" fill="black"/>
<path d="M228.41 368.69C219.68 382.14 195.93 371.65 208.72 357.53C216.35 350.81 215.12 357.83 222.62 356.64C229.41 355.56 229.32 366.76 228.42 368.69H228.41Z" fill="black"/>
<path d="M499.72 299.48C484.18 312.41 474.05 284.52 491.2 280.65C499.83 278.85 509.68 293.32 499.72 299.48ZM499.28 293.13C501.3 284.62 489.41 284.78 491.42 293.14C492.68 296.04 497.82 296.37 499.28 293.13Z" fill="black"/>
<path d="M153.78 295.15C149.51 290.5 153.76 282.44 157.97 289.55C162.65 290.43 166.33 283.61 168.69 284.46C174.9 291.25 162.22 301.16 153.77 295.15H153.78Z" fill="black"/>
<path d="M432.77 452.56C423.4 453.37 428.48 446.05 431.89 442.56C432.6 439.61 427.79 437.1 429.33 435.18C439.7 429.21 442.78 450.2 432.77 452.57V452.56Z" fill="black"/>
<path d="M513.02 319.92C522.98 318.86 520.48 326.69 512.28 326.58C498.74 323.7 516.83 302.2 513.02 319.92Z" fill="black"/>
<path d="M363.33 417.97C366.56 404.08 372.62 402.71 376.36 386.23C378.17 378.25 386.37 394.05 372.86 410.98C371.46 415.33 368.03 417.8 363.33 417.98V417.97Z" fill="black"/>
<path d="M497.66 383.56C495.18 392.54 485.42 380.35 489.75 375.7C496.83 368.39 493.98 379.17 497.66 383.56Z" fill="black"/>
</g>
<defs>
<clipPath id="clip0_177_1055">
<rect width="685.33" height="547.87" fill="white"/>
</clipPath>
</defs>
</svg>
