<svg width="518" height="388" viewBox="0 0 518 388" fill="none" xmlns="http://www.w3.org/2000/svg">
<g clip-path="url(#clip0_177_932)">
<path d="M470.38 134.41C419.01 123.02 438.92 177.38 383.47 140.09C379.25 135.47 371.84 136.32 366.14 137.03C354.31 138.42 344.05 146.37 332.59 149.38C318.28 151.35 312.39 127.02 297.32 130.44C275.78 130.9 268.25 152.67 245.77 148.28C230.83 139.86 211.58 130.27 196.96 146.05C169.96 106.4 134.83 71.0995 96.5601 42.3795C71.5101 29.8495 46.5801 -1.26047 17.4801 0.0395297C11.0301 16.9895 72.0901 41.2195 84.3801 53.7395C113.78 69.7695 137.33 94.1895 160.5 118.53C239.45 208.66 116.93 81.8195 89.7101 71.2495C73.9901 56.7895 -55.4099 7.03953 27.5301 48.8895C64.4201 62.3995 96.3101 87.2695 126.89 111.9C161.64 144.44 153.62 127.97 126.89 145.59C114.63 156.05 107.63 128.91 92.8501 132.38C74.9301 131.39 61.2501 144.68 45.6601 150.88C40.8301 151.78 33.1801 143.87 25.1001 151.16C12.4101 163.57 34.9501 164.63 42.9501 165.81C58.4001 167.93 67.1201 148.48 82.8601 148.29C100.48 140.58 105.12 164.91 121.62 160.44C137.87 154.12 134.1 148.01 148.58 148.14C169.22 153.85 188.39 169.83 199.59 188.19C196.01 198.41 189.25 213.49 199.87 224.94C205.7 232.24 224.76 244.25 231.13 246.4C231.35 248.13 226.14 255.61 235 261.72C240.86 265.76 239.9 262.11 243.01 263.22C245.88 271.1 252.04 284.91 254.73 293.66C265.16 326.53 242.56 359.15 220.1 316.52C234.21 315.02 245.33 312.44 232.21 299.07C226.09 281.61 138.44 285.62 177.11 309.42C201.61 331.39 202.6 376.45 237.33 386.12C283.89 398.63 316.57 327.78 294.92 293.6C289.21 278.87 280.48 270.16 269.59 259.67C265.06 252.29 272.98 244.35 264.11 238.16C260.36 237.79 260.42 233.84 258.92 231.69C254.18 228.16 252.14 230.11 247.39 230.98C245.4 216.53 245.17 208.14 239.13 194.14C233.12 185.42 225.4 178.02 214.29 182.09C210.09 176.71 208.3 168.1 206.09 160.88C202.31 156.77 202.53 151.22 207.65 148.51C222.83 140.44 229.69 154.72 242.52 158.03C295.67 160.74 271.79 115.46 326.92 160.15C330.71 161.28 347.87 154.81 350.26 153.18C377.72 130.54 401.95 181.99 429.81 162.37C439.99 152.84 449.07 138.5 465.13 145.33C480.36 152.42 505.83 158.19 517.16 144.46C501.43 145.55 484.31 144.07 470.37 134.41H470.38ZM195.71 160.34C198.31 160.6 200.82 169.26 201.88 171.01C200.68 170.76 190.92 161.88 195.71 160.34ZM295.52 326.26C293.93 360.89 251.83 403.88 223.33 366.41C211.92 350.41 212.82 328.94 199.58 314.21C196.42 310.09 190.42 303.31 186.49 299.7C197.05 298.32 219.35 295.15 224.1 306.71C211.93 301.57 202.56 312.24 215.27 319.57C224.42 328.46 232.27 352.34 248.7 343.27C273.03 334.35 269.99 298.63 259.86 279.45C244.74 240.49 303.24 308.09 295.51 326.25L295.52 326.26ZM259.07 251.13C258.18 252.96 252.25 265.7 250.12 262.48C247.55 255.1 254.1 247.8 259.07 251.13ZM239.84 248.44C243.81 243.72 258.02 232.96 246.06 248.22C244.15 254.39 233.77 256.76 239.84 248.44ZM237.2 237.92C235.59 249.74 213.75 212.57 220.23 211.86C228.53 217.82 230.79 229.92 237.2 237.92ZM211.34 194.16C221.38 186.79 228.8 196.62 230.63 206.47C225.59 203.76 217.39 198.34 213.53 205.74C209.2 212.5 210.95 219.08 214.41 225.88C202.41 219.87 198.32 201.92 211.33 194.16H211.34Z" fill="black"/>
<path d="M409.68 302C364.18 314.44 385.91 389.14 429.05 366.45C462.11 352.53 447.95 289.31 409.68 302ZM417.59 361.04C381.69 359.5 390.52 309.75 420.67 309C438.01 319.59 444.41 357.05 417.59 361.04Z" fill="black"/>
<path d="M348.04 215.81C325.06 227.9 346.13 260.99 367.4 250.58C392.84 235.46 376.5 197.52 348.04 215.81ZM360.77 243.99C344.99 239.88 345.45 222.61 361.08 218.75C368 223.21 371.85 240.63 360.77 243.99Z" fill="black"/>
<path d="M99.4099 215.11C77.6299 227.98 86.4999 259.83 112.56 253.59C140.18 245.36 125.22 206.33 99.4099 215.11ZM108.67 244.86C100.81 246.09 94.2399 241.58 96.4899 233.01C105.46 215.62 129.41 239.66 108.67 244.86Z" fill="black"/>
<path d="M97.8601 291.76C72.1101 303.41 110.5 325.93 113.12 301.45C112.72 291.54 104.35 294.6 97.8601 291.76ZM101.38 301.77C99.7101 300.87 100.28 297.65 102.5 298.12C104.01 299.2 104.22 301.98 101.38 301.77Z" fill="black"/>
<path d="M426.46 243.7C433.9 228.21 405.76 221.12 405.61 239.06C405.16 250.5 417.34 254.8 426.46 243.7ZM419.04 233.36C422.31 234.14 426.06 241.99 420.15 242.85C412.75 243.49 414.1 235.3 419.04 233.36Z" fill="black"/>
<path d="M276.91 335.73C274.99 341.05 268.11 347.63 270.05 353.51C289.46 350.53 291.31 291.59 276.91 335.73Z" fill="black"/>
</g>
<defs>
<clipPath id="clip0_177_932">
<rect width="517.17" height="387.59" fill="white"/>
</clipPath>
</defs>
</svg>
