<svg xmlns="http://www.w3.org/2000/svg" viewBox="0 0 213.886 211.806"><g data-name="Layer 2"><path d="M213.047 94.1c-.389 2.891.976 8.249.828 13.686a93.2 93.2 0 0 1-6.64 33.325c-4.523 11.006-11.887 19.883-20.267 27.969a69.5 69.5 0 0 1-11.747 8.705 220 220 0 0 1-27.445 14.287c-12.332 5.433-25.174 9.169-37.927 13.215-7.753 2.459-15.734 4.319-23.971 4.491-7.988.167-15.8 2.378-23.851 1.977-4.6-.229-9.063-.893-13.1-3.14-6.462-3.593-13.435-6.148-19.617-10.358-6.521-4.437-11.13-10.457-14.876-17.057a105.8 105.8 0 0 1-12.662-34.528 100.7 100.7 0 0 1-1.714-21.047c.243-5.99.789-11.886 1.466-17.833a102.7 102.7 0 0 1 12.953-38.925C20.082 58.9 27.806 50.463 36.206 42.6c10.269-9.609 21.956-17.286 33.655-24.8 12.2-7.837 25.506-13.88 39.959-16.541a68 68 0 0 1 36.357 2.791c4.043 1.492 7.769 3.883 11.56 6.005a98.2 98.2 0 0 1 23.763 17.92c8.782 9.316 17.4 18.834 23.712 30.235 5.803 10.482 8.576 21.451 7.835 35.89m-78.13-25.244c0 2.816.032 4.991-.007 7.164-.092 5.134-.113 5.5 5.111 6.437 5.885 1.054 11.736 2.244 17.6 3.4 10.154 2 20.114 4.487 29.66 8.635 3.488 1.516 6.983 3.023 10.442 4.609 1.619.743 2.259.19 2.337-1.577a51.7 51.7 0 0 0-2.06-18.28 99.6 99.6 0 0 0-5.976-13.922 88.86 88.86 0 0 0-31.35-35.422c-11.728-7.733-24.318-12.881-38.488-13.707-3-.175-3.328.039-2.161 2.854 2.5 6.027 5.006 12.058 7.78 17.96 3.019 6.422 5.685 12.834 6.555 20.031.506 4.185.024 8.329.557 11.82Zm-116.874 46.4c.108.573-.019 1.895.5 2.234 1.088.714 1.913-.556 2.762-1.125 1.2-.8 2.336-1.721 3.474-2.622 6.982-5.528 14.707-9.928 22.344-14.42 6.867-4.039 14.32-6.943 21.8-9.669a4.01 4.01 0 0 0 3-3.33c1.027-4.967 2.185-9.909 3.377-14.841a233 233 0 0 1 9.422-30.567c2.248-5.726 4.526-11.459 8.263-16.457a2.37 2.37 0 0 0 .416-1.969c-.415-.879-1.359-.366-1.875.01-4.417 3.225-9.706 4.891-14.226 7.848a198.6 198.6 0 0 0-24.319 18.086A128.5 128.5 0 0 0 30.9 74.367c-2.614 4.037-3.967 8.512-5.932 12.759-4.068 8.794-5.737 18.251-6.925 28.131Zm4.174 29.531c-3.067-.9-2.377.538-2.128 1.854 2.2 11.6 7.539 21.783 13.922 31.54 3.018 4.613 6.349 8.833 11.536 11.117a63 63 0 0 0 19.208 5.494 131 131 0 0 0 21.7.439c1.769-.12 4.159.808 5.172-.568 1.393-1.892-1.429-2.9-2.079-4.473a17.2 17.2 0 0 0-1.888-3.865c-7.145-9.409-11.051-20.255-14.151-31.473-.764-2.763-.578-6.438-2.773-7.973-2.388-1.669-5.981-.583-9.038-.551-13.409.14-26.813.272-39.481-1.54Zm168.388-16.929a15 15 0 0 1-1.485.62 276 276 0 0 1-29.468 7.559c-7.49 1.411-15.04 2.354-22.545 3.618-2.165.365-3.6.875-3.71 3.631-.329 8.325-1.315 16.6-4.01 24.537-1.164 3.428-2.625 6.765-4.107 10.074-1.547 3.452-3.3 6.811-4.923 10.23-.571 1.205-.588 2.2 1.236 1.789a40.7 40.7 0 0 0 6.349-1.523A123.9 123.9 0 0 0 161 168.74c11.872-9.838 20.54-22.388 28.8-35.219a22.5 22.5 0 0 0 1.922-4.484c.338-.913-.196-1.275-1.117-1.178Zm-69.7-12.822c-.781-5.206.018-10.49-1.047-15.708-1.073-5.263-.9-5.29-6.019-4.8a18.6 18.6 0 0 1-2.708.122c-8.785-.447-17.264 1.236-25.725 3.367-2.2.553-3.141 1.567-3.252 3.569-.221 3.963-.459 7.932-.47 11.9-.017 5.964-.588 11.946.716 17.876.875 3.982.76 4.035 4.963 3.634q4.053-.387 8.091-.929c7.337-.989 14.659-2.1 22.007-2.988 2.332-.283 3.095-1.468 3.12-3.559.044-4.158.877-8.304.319-12.483Zm12.654-2.143c0 3.355-.081 7.158.022 10.956.106 3.926.182 3.826 3.934 3.72 4.961-.14 9.533-2.116 14.364-2.84a172 172 0 0 0 34.014-8.987c3.052-1.125 6.2-1.992 9.285-3.026.652-.218 1.716-.6 1.753-.989.1-1.036-.947-1.372-1.775-1.745a16 16 0 0 0-1.458-.723c-7.721-2.549-15.316-5.659-23.208-7.473-10.917-2.509-22.056-4.056-33.107-5.973-2.8-.487-3.006-.287-3.482 2.525-.801 4.687-.201 9.408-.347 14.556ZM116.5 78.469c-.133-1.632-.14-3.1-.386-4.52-1.721-9.984-3.238-20.014-5.346-29.917-1.2-5.628-1.538-11.475-3.806-16.856-.312-.74-.239-1.991-1.305-2.044-1-.05-1.418 1.021-1.865 1.786a139 139 0 0 0-9.449 19.514c-4.3 11-6.577 22.553-9.322 33.977a13.5 13.5 0 0 0-.376 2.688c-.036 1.035.244 1.641 1.591 1.26 9.121-2.586 18.5-3.312 27.917-3.669 1.795-.069 2.869-.319 2.347-2.219m-75.927 58.84c8.344.187 16.643-.732 24.967-1.019 3.848-.132 4.069-.313 3.9-4.077a160 160 0 0 1 .459-22.23 27.5 27.5 0 0 0-.25-4.866 1.442 1.442 0 0 0-1.9-1.365 11.6 11.6 0 0 0-2.617.68 168 168 0 0 0-24.992 13.029 127.3 127.3 0 0 0-19.355 14.868 27 27 0 0 0-1.983 1.854c-.877 1.016-.924 2.08.61 2.362a41 41 0 0 0 6.467.731c4.903.105 9.8.033 14.697.033Zm74.738 5.564c-8.82.847-17.265 1.669-25.714 2.464-4.24.4-4.725 1.016-3.561 4.915.257.858.787 1.633 1.062 2.487 1.441 4.482 3.89 8.563 5.408 12.973 2.759 8.015 7.918 14.556 12.346 21.558a2.53 2.53 0 0 0 2.135 1.473c1.38-.072 1.521-1.318 1.8-2.347 1.789-6.622 3.806-13.193 5.289-19.883S116.5 153 117.7 146.237c.6-3.326.542-3.427-2.386-3.364Z" data-name="Layer 1"/></g></svg>