<svg xmlns="http://www.w3.org/2000/svg" viewBox="0 0 188.639 200.81"><g data-name="Layer 2"><path d="M109.082 17.108c-.069.905-.1 1.814-.216 2.714a3.586 3.586 0 0 0 1.984 3.988c3.734 2.251 7.7 4.067 11.444 6.251 9.089 5.293 18.036 10.83 27.04 16.269.777.47 1.546.951 2.329 1.41 4.353 2.554 4.354 2.553 7.831-.97 6.213-6.3 12.089-6.784 19.516-1.885 7 4.619 8.16 15 4.9 20.254-2.336 3.767-4.921 6.674-9.122 7.933-2.065.618-2.765 1.663-2.725 3.87q.363 20.136.414 40.275c.009 2.082.383 3.033 2.716 3.674 11.615 3.194 14.133 9.9 13.3 20.4-.446 5.6-3.881 9.889-8.964 12.146-6.751 3-13.419 2.546-19.436-2.243-2.881-2.294-2.905-2.3-5.858-.045-9.21 7.029-18.378 14.113-27.633 21.082-2.484 1.87-3.834 3.377-2.769 7.1 2.17 7.589-1.783 16.025-8.548 20.1a7.9 7.9 0 0 1-4.062 1.378c-6.347-.32-12.2-1.835-15.91-7.741a11.5 11.5 0 0 1-1.612-7.322c.278-2.984-1.135-3.9-3.669-4.882-13.006-5.03-25.957-10.233-37.939-17.483-1.994-1.206-3.548-1.321-5.375.231a19 19 0 0 1-3.785 2.129 16.33 16.33 0 0 1-21.448-5.688c-2.853-4.383-3.3-9.143-.512-13.877 1.571-2.665 3.093-5.577 5.748-7.125s2.147-3.245 1.487-5.422c-2.1-6.929-4.683-13.7-6.677-20.67-1.6-5.583-2.659-11.272-4.1-16.879-.657-2.557-1.7-3.976-4.47-4.593a16.4 16.4 0 0 1-7.319-3.446c-6.674-5.8-7.109-13.665-2.97-21.316 3.128-5.794 8.407-9.875 15.765-10.15a14.7 14.7 0 0 1 7.757 2.075c2.224 1.218 3.534 1.17 5.572-.58 8.665-7.442 17.207-15.037 26.4-21.863 4.09-3.037 8.4-5.72 12.674-8.441 2.2-1.4 3.2-2.888 2.167-5.253-1.889-4.3-.433-8.239 1.318-12.014C78.373 1.764 87.836-1.832 95.575.893c1.708.6 3.456 1.092 5.181 1.646 6.036 1.938 8.636 6.219 8.453 12.4-.022.723 0 1.447 0 2.171ZM52.16 140.03a23 23 0 0 0 2.7-.345 125 125 0 0 1 19.87-2.906c8.859-.716 17.662-1.874 26.442-3.035 15.446-2.043 30.8-4.776 46.176-7.337 2.529-.422 5.057-.44 7.579-.709 1.377-.146 1.95-.859 1.378-2.2a22 22 0 0 0-1.261-2.409c-7.02-12.055-14.144-24.02-22.157-35.489-9.967-14.252-19.923-28.509-30.254-42.5-1.831-2.48-3.419-5.152-5.365-7.534-1.63-2-4.159-1.8-5.323.37-4.026 7.493-8.386 14.851-11.789 22.624-9.531 21.769-19.3 43.419-29.847 64.718-1.769 3.574-3.357 7.239-5 10.875-.441.975-1.158 2.3.012 2.939 2.164 1.175 4.006 3.259 6.839 2.938m96.949-1.637c-5.543.836-11.451 1.777-17.375 2.612-21.031 2.966-42.1 5.606-63.287 7.2a540 540 0 0 1-10.327.7c-2.282.128-3.057 1.552-3.359 3.541-.278 1.829-.636 3.342 1.674 4.5 7.133 3.571 14.017 7.628 21.365 10.79a79 79 0 0 0 18.269 5.232c1.337.225 2.394.41 3.51-.5a13.85 13.85 0 0 1 12.8-2.621 6.32 6.32 0 0 0 6.033-1.41c9.618-8 19.3-15.92 28.922-23.913a60 60 0 0 0 4.286-4.175c.355-.361.833-.834.425-1.406a1.5 1.5 0 0 0-.92-.423c-.536-.091-1.087-.077-2.016-.127m-67.43-106.6c-.539.269-1.2.556-1.818.916-4.084 2.375-7.845 5.233-11.759 7.859-11.343 7.61-21.425 16.711-31.502 25.847-2.154 1.952-3.506 4.054-2.985 7.091.253 1.478-.451 2.825-.864 4.219-1.118 3.775-3.46 6.766-6.073 9.539a4.03 4.03 0 0 0-1.042 4.821c1.128 3.043 1.717 6.285 2.544 9.441 1.84 7.017 3.5 14.091 5.647 21.014.593 1.912.338 4.464 2.575 5.726a20.6 20.6 0 0 0 2.287-6.043 153.5 153.5 0 0 1 10.242-26.3c4.759-9.547 10.1-18.8 15.158-28.2q8.481-15.772 16.888-31.584a32 32 0 0 0 1.323-2.98c.21-.527.122-1.013-.621-1.368Zm81.556 61.386c0-5.448.037-10.9-.017-16.344-.025-2.562-.281-4.8-3.087-6.38-2.844-1.605-5.163-4.4-5.248-7.841-.081-3.319-1.743-4.9-4.327-6.2a49 49 0 0 1-4.216-2.449c-10.252-6.524-20.479-13.086-30.742-19.592-2.9-1.84-5.9-3.544-8.869-5.273a1.37 1.37 0 0 0-.992.05c-.413.149-.453.543-.063.846 1.779 1.384 2.366 3.6 3.769 5.272a222 222 0 0 1 16.325 21.663c2.47 3.792 4.8 7.688 7.46 11.342 5.969 8.2 11.31 16.813 16.725 25.369 4.155 6.563 7.865 13.409 11.8 20.115.259.441.716 1.074 1.09 1.081 1.069.019.69-.978.781-1.572 1.024-6.697.115-13.393-.389-20.089Z" data-name="Layer 1"/></g></svg>