<svg width="1487" height="1069" viewBox="0 0 1487 1069" fill="none" xmlns="http://www.w3.org/2000/svg">
<g clip-path="url(#clip0_177_1095)">
<path d="M1128.84 868.94C1125.79 862.27 1120.88 860.09 1114.93 857.31C1105.61 852.95 1088.17 847.62 1079.21 852.42C1078.2 852.96 1075.09 853.05 1075.14 852.05L1075.31 848.23C1076.9 811.72 1074.13 775.52 1065.7 740.19C1061.95 724.48 1048.03 704.17 1037.83 691.84L1025.12 676.49C1014.7 663.9 1002.85 653.01 990.95 642.07C977.2 629.42 956.24 614.29 940.55 604.09C910.09 584.29 897.43 582.17 864.93 567.97C854.3 563.32 842.17 559.69 834 550.96C832.23 547.05 829.87 541.12 827.88 537.3C821.2 524.45 827.83 510.7 839.21 503.51C843.06 501.08 846.67 499.61 850.82 497.82L880.75 484.94C888.36 481.67 895.37 478.07 903.68 476.03L934.67 468.43C948.79 464.97 962 461.13 973.71 452.52C1010.35 435.92 1025.55 395.19 1024.04 356.85L1021.21 284.94C1030.34 292.89 1041.29 298.13 1052.29 295.06C1060.25 292.84 1069.04 291.32 1075.25 285.96C1084.67 277.83 1093.42 266.19 1093.19 253.28C1093.05 245.55 1089.59 237.11 1087.06 229.94C1082.68 217.56 1071.85 210.26 1061.77 203.15L1048.94 194.1C1044.45 190.94 1039.74 187.17 1034.05 185.95C1013.42 181.54 993.1 180.78 972.01 179.47L904.74 175.29C882.87 173.93 862.01 172.81 840.1 174.43C816.13 176.21 793.11 174.29 769.17 175L730.44 176.15L638.92 177.24C612.93 177.55 588.18 181.96 563.18 188.29C549.06 191.86 527.56 195.87 515.32 203.61C510.86 206.43 506.04 208.65 502.27 212.82C496.17 219.56 489.27 225.75 484.18 233.53C477.61 243.58 471.51 255.42 469.52 267.58C467.07 282.53 473.75 298.41 481.79 310.39C484.7 314.73 521.5 321.65 529.84 306.19C530.93 312.57 531.09 317.66 531.44 323.57C533.32 355.96 538.79 389.88 558.21 417C576.09 441.98 582.68 444.06 609.34 455.85L621.66 461.3C640.51 469.64 658.5 477.01 676.13 487.75C679.77 489.97 683.63 491.23 687.02 494.01C695.65 501.1 704.64 508.81 708.68 519.03C711.38 525.87 710.1 530.13 707.59 535.6C704.4 542.56 700 545.37 694.03 549.69L676.28 562.56C666.82 569.42 665.53 567.85 651.97 573.92L633.85 582.02C624.67 586.13 615.01 589.42 606.4 594.53L592.46 602.82C582.59 608.69 573.41 616.05 564.59 623.79C558.67 628.98 553.91 635.93 548.66 641.95C545.83 645.19 543.86 649.21 541.44 652.42C535.03 660.93 531.19 669.26 526.61 678.81L518.01 696.77L510.2 718.92L505.75 735.34L500.69 755.32L497.69 772.79C496.1 782.05 493.71 790.76 491.73 799.94L488.35 815.61L485.5 831.85C483.52 843.13 482.54 860.18 482.58 873.6C478.96 867.66 473.22 863.43 465.99 862.27C446.28 859.12 427.59 876.84 415.01 889.81C413.22 891.66 412.97 893.83 413.62 895.7C406.79 907.7 402.89 921.78 403.72 935.5C404.26 944.42 411.23 951.63 414.05 959.31C419.41 973.94 420.67 969.36 430.42 983C436.3 985.44 441.32 987.87 446.23 991.61C456.49 999.42 468.26 1003.54 480 1008.77C493.35 1014.71 507.54 1016.94 522.17 1018.49L544.05 1020.82C562.43 1022.77 577.87 1022.98 595.79 1022.88L623.42 1022.73C629.38 1022.7 634.77 1023.3 640.79 1023.41C655.23 1023.67 669.3 1023.93 683.5 1025.01C685.67 1025.17 687.78 1025.33 689.86 1025.48C727.01 1030.61 764.04 1037.2 801.67 1034.22C802.61 1034.15 803.44 1033.9 804.15 1033.52C832.75 1034.31 861.29 1038.24 889.95 1037.31C899.03 1037.01 908.12 1036.38 917.14 1035.28C921.17 1034.79 925.22 1034.24 929.07 1032.89C933.06 1031.5 936.61 1029.77 940.86 1029.33C958.29 1027.54 975.52 1026.04 992.73 1022.51C994.7 1022.11 996.65 1021.67 998.61 1021.24C1001.3 1021.19 1004.01 1021.17 1006.74 1021.22C1013.9 1021.33 1021.05 1017.08 1028.02 1015.33C1057.23 1007.97 1068.52 1004.92 1095.36 991.59C1098.02 990.27 1101.87 986.62 1104.63 984.78C1112.05 979.85 1116.21 971.47 1121.45 964.75C1127.44 957.08 1131.46 949.77 1134.47 940.52C1137.12 932.38 1140.88 923.61 1141.1 914.85C1141.52 898.66 1135.3 883.14 1128.81 868.98L1128.84 868.94ZM460.47 918.42C453.66 936.12 448.62 955.68 455.27 975.41C451.2 976.31 434.66 959.43 434.24 956.28C431.54 936.2 438.17 916.38 448.88 899.89L460.04 895.19C460.99 894.76 459.86 891.43 458.9 891.09C439.15 884.16 427.29 916.48 424.51 932.04C422.21 925.22 424.24 918.28 424.21 911.9C424.17 900.68 429.43 893.95 438.18 887.46C443.12 883.79 452.66 876.94 458.92 883.65C463.2 888.24 465.75 895.98 473.69 899.27C473.41 900.53 473.1 901.78 472.78 903.02C469.52 907.54 465.14 909.3 459.37 909.36C457.53 911.68 461.23 916.41 460.45 918.42H460.47ZM491.5 967.11L494.16 992.66L470.51 984.27C462.24 964.89 462.48 943.82 469.16 923.87C473.72 923.18 477.62 925.14 481.81 925.75C487.83 926.63 493.68 926.58 499.18 929.75C491.85 941.37 490.15 954.17 491.49 967.1L491.5 967.11ZM1125.75 924.22C1125.23 925.47 1124.98 926.9 1124.77 928.38C1123.8 929.05 1122.99 930.05 1122.5 931.42C1121.87 933.21 1120.74 934.78 1119.45 936.24C1116.24 923.83 1110.33 911.44 1099.33 904.64L1095.42 902.23C1093.1 900.8 1099.44 895.48 1094.8 891.09C1090.7 887.21 1083.81 896.26 1079.27 894.4C1082.25 890.37 1084.35 887.19 1086.92 884.19C1092.02 878.24 1100.87 881.18 1106.84 884.45C1114.56 888.67 1118.31 896.36 1123.33 903.12C1128.4 909.95 1129.2 915.98 1125.75 924.22ZM669.64 743.94C670.14 742.64 674.26 742.06 675.51 741.48L693.45 733.25C694.89 732.59 696.36 729.08 697.92 728.98C701.74 728.73 718.89 735.43 724 739.06C722.56 740.4 720.73 741.42 720.88 742.55L721.63 748.1C721.81 749.42 722.25 751.57 722.51 752.67C722.74 753.64 724.98 753.81 726.05 753.66C727.2 753.5 728.55 751.36 728.72 750.1L729.49 744.3C730.93 745.3 732.54 746.41 733.16 747.22C733.12 747.17 726.36 775.12 723.97 775.84C720.03 776.31 715.12 777.45 711 778.69C700.7 781.81 689.07 781.35 678.67 780.24C664.39 778.71 669.94 753.75 669.65 743.93L669.64 743.94ZM745.91 693.53C741.37 692.63 736.7 691.04 732.54 689.28C737.25 678.38 741.25 668.85 745.07 658.26C748.47 648.83 787.58 638.91 802.58 646.49L819.02 654.79C821.01 655.79 827.32 655.75 827.35 657.96C827.41 661.75 823.63 664.61 820.79 667.31L813.34 659.24C807.7 653.13 797.5 648.61 788.82 648.63C783.48 648.64 777.5 652.46 772.96 653.7L771.18 650.31C770.77 649.53 768.09 651.2 767.62 652.12C763.24 660.77 754.55 659.6 749.16 663.75C748.18 664.5 748.45 667.1 747.98 668.52C745.29 676.78 745.58 683.75 745.91 693.51V693.53ZM715.25 628.45L743.87 592.73C751.16 583.63 756.73 573.16 767.73 566.81C769.92 575.81 774.47 582.89 778.39 590.38C781.27 595.89 784.02 600.05 788.44 604.53C792.92 609.06 796.79 615.38 803.23 617.46L850.94 632.86C851.86 637.4 850.19 641.44 848.48 645.43L844.22 655.37C841.84 660.93 832.27 682.08 825.72 681.57C823.84 681.42 822.45 675.6 823.8 674.25C827.41 670.62 839.34 658.8 839.5 655.62C839.83 649.37 827.19 646.4 821.61 644.86C807.19 640.87 791.9 633.99 776.52 636.32C766.03 637.91 754.56 643.01 745.48 647.85C736.84 652.45 736.31 665.35 729.77 672.27C725.28 670.52 725.18 663.34 722.92 659.96C714.99 648.14 728.49 649.32 715.25 628.45ZM855.34 603.31C852.74 601.17 854.16 593.73 856.9 592.78C861.1 591.32 864.41 596.05 865.34 599.33L869.28 611.17C864.36 608.96 859.64 606.84 855.34 603.31ZM871.44 650.18C867.12 648.41 860.73 645.48 857.3 642.83C856.21 641.99 856.53 637.11 857.77 636.62C859.44 635.96 874.08 641.11 871.44 650.18ZM878.12 701.36C884.49 703.49 888.47 708.57 888.65 714.7C888.78 719.28 884.06 728.73 878.36 728.45C867.76 721.35 858.33 712.73 846.96 706.55C849.93 694.65 870.41 698.78 878.12 701.36ZM889.67 733.61C895.7 736.69 899.66 742.29 899.77 749.29C899.78 750.17 895.93 750.5 895.22 749.74L886.86 740.83C886.06 739.98 885.75 737.13 885.92 736.02C886.08 734.91 888.56 733.04 889.68 733.61H889.67ZM760.69 965.55C763.63 976.54 766.13 989.82 766.59 1002.17L739.27 1001.5L739.04 986.76C738.84 973.82 742.46 959.66 744.87 947.14C748.37 944.86 753.84 944.97 758.2 945.44C754.67 953.88 758.9 958.81 760.7 965.55H760.69ZM707.36 973.03L713.28 945.53L731.68 945.26C732.2 949.65 730.91 954.07 730.67 958.52L729.28 984.6C729.03 989.21 731.87 994.15 732.52 999.86L707.01 998.68C707.5 989.61 705.59 981.24 707.36 973.03ZM718.67 903.25C709.48 896.61 701.2 889.43 696.07 879.82C694.17 876.26 689.67 868.1 694.44 865.46C699.47 864.67 709.81 867.1 713.99 870.4L734.37 886.48C736.12 887.86 741.05 887.88 743.86 888.39C745.65 895.09 747.92 900.85 751.02 906.5C740.01 913.21 728.22 910.14 718.67 903.24V903.25ZM696.67 998.96L675.9 999.86L674.33 984.95C673.65 978.45 673.24 973.9 674.31 967.44L678.17 944.06C685.45 945.73 700.07 941.83 698.61 947.48C694.23 964.4 691.64 980.79 696.67 998.96ZM746.09 872.17C742.27 875.66 737.81 868.36 735.02 866.76C729.42 863.54 723.64 860.05 721 853.59C720.34 851.98 715.93 851.14 714.26 850.34C710.23 848.42 706.38 848.22 701.98 847.8C696.94 847.32 692.43 844.8 686.44 843.22L689.95 833.76C704.08 841.93 701.6 825.01 709.88 835.84C712.97 839.88 720.2 834.22 723.62 835.45C732.7 838.72 746.35 850.01 745.65 849.82C750.32 851.05 749.29 842.59 766.44 839.3C768.87 838.83 775.06 835.8 775.85 840.21C775.4 842.7 772.28 848.21 769.84 850.45L746.08 872.18L746.09 872.17ZM729.47 824.66L717.63 827.91L714.65 828.87C714.16 829.03 712.82 827.81 713.1 827.37C715.49 823.52 721.39 817.75 717.24 814.56C710.07 809.04 706.03 830.95 695.6 826.93C697.13 813.86 711.29 805.63 722.56 804.06C751.84 799.98 776.14 801.28 805.21 800.37C810.43 809.05 817.54 808.95 818.79 815.65C819.03 816.93 815.37 818.76 814.47 818.01L810.66 814.85C807.69 812.38 802.45 814.9 798.57 814.36C744.95 806.87 742.37 821.1 729.46 824.65L729.47 824.66ZM808.57 769.94C804.45 768.06 802.49 759.72 805.22 755.66C807.27 758.07 809.13 760.67 810.58 761.94C812.21 763.37 816.96 763.1 818.53 761.76C822.68 758.23 821.92 750.13 816.37 748.42C813.7 747.6 809.75 749.22 806.44 750.26C804.59 744.87 805.33 738.08 810.63 734.43C811.73 739.03 812.62 743.92 816.76 744.71C828.8 747.01 814.25 733.75 818.99 729.52L829.73 736.83C835.41 740.7 840.54 735.33 844.23 731.21C847.15 727.95 853.14 727.51 857.56 727.15C857.63 729.65 855.92 734.52 853.91 734.52C851.93 734.52 849.2 734.22 847.85 734.41C845.99 734.68 842.87 742.46 847.74 745.76C850.03 747.31 852.76 744.02 854.58 743.82L869.62 742.16C864.51 754.57 843.53 769.03 829.46 769.5C823.01 769.72 815.15 772.91 808.57 769.92V769.94ZM835.59 716.09C835.02 714.43 832.17 712.38 830.66 711.31C830.12 710.92 830.73 708.51 831.32 708.9C831.9 709.29 833.21 710.8 833.86 711.19L845.42 718.03L840.83 725.95C839.94 727.49 835.29 729.7 833.41 729.38C828.8 727.53 822.64 724.58 819.16 721.35C817.6 718.54 824.41 713.09 826.24 713.38L827.39 721.62C827.65 723.51 832.06 724.12 834.2 723.13C835.79 722.39 836.25 717.95 835.61 716.12L835.59 716.09ZM859.17 726.68C862.72 728.99 865.14 731.23 866.78 734.93C867.77 737.17 860.89 738.64 860.47 736.73C859.68 733.12 859.38 730.33 859.17 726.67V726.68ZM877.57 744.72C877.11 751.13 875.42 755.75 873.46 761.96C871.76 763.26 870.19 764.44 869.11 765.05C867.9 765.73 864.19 764.34 863.59 762.87L877.58 744.72H877.57ZM759.13 667.06L764.34 677.59C765.12 679.17 770.12 679.72 771.3 678.39C776.88 672.1 762.16 666.86 767.63 663.42L772.29 660.49C776.74 657.69 783.74 657.78 786.1 661.11C787.04 662.44 786.94 665.98 786.01 666.79C783.05 669.38 783.47 666.94 778.03 669.69C777.35 670.03 777.99 672.28 778.68 672.62C779.36 672.96 780.8 673.55 781.77 673.84L784.62 674.7C785.35 674.92 786.4 676.76 785.76 677.17L782.8 679.1C781.97 679.64 780.71 681.53 780.63 682.5C780.54 683.66 783.18 684.95 784.35 684.71C789.98 683.57 791.08 678.98 792.4 674.23C792.89 672.45 796.44 669.55 795.35 667.54C794.04 665.11 791.42 660.24 793.23 658.9C796.09 656.78 800.13 660.7 802.34 662.09C808.68 666.07 812.77 670.31 815.92 676.8C820.31 685.84 817.66 697 807.49 700.8C804.08 702.08 799.25 704.2 795.6 704.58C785.48 705.64 775.99 705.26 765.89 703.65C761.85 703.01 756.01 697.91 755.4 693.76L752.04 671.02C752.19 668.91 757.79 666.97 759.1 667.05L759.13 667.06ZM792.54 778.74L805 794.03C802.05 797.16 798.73 794.99 795.23 794.46C786.29 793.12 776.96 795.09 767.96 795.18L751.42 795.35C742.14 795.44 733.34 795.93 723.98 797.96C718.2 790.47 712.12 789.91 713.11 785.6C713.56 783.65 717.42 780.69 719.89 781.75C743.45 791.84 769.54 790.82 792.53 778.73L792.54 778.74ZM686.3 849.35C681.56 857.26 678.12 874.48 682.85 882.95L690.68 896.99C692.59 900.41 676.63 906.22 675.02 906.71C668.18 908.8 660.23 906.95 653.04 907.28C646.55 907.58 639.79 909.43 633.41 907.89C616.23 903.74 623.23 903.45 613.24 896.92L617.82 891.56C632.12 874.84 644.2 861.23 664.34 850.1C675.88 843.72 672.99 860.16 686.3 849.34V849.35ZM665.85 989.31L668.83 1000.06L640.3 1002.87L639.05 981.78C638.67 975.39 645.64 948.56 651.66 941.55L665.78 943.56L663.25 971.52C662.64 978.24 664.09 982.99 665.84 989.3L665.85 989.31ZM774.47 968.7C774.39 961.93 775.17 954.81 770.6 948.72C770.23 946.76 790.15 945.12 791.84 949.32C800.47 970.72 801.09 979.15 802.98 1003.94L772.16 1002.29C775.93 990.91 774.61 980.17 774.47 968.69V968.7ZM806.28 948.63C812.78 948.69 825.11 945.53 826.86 949.79C831 959.8 833.62 978.22 835.29 990.05L837.6 1006.43L805.85 1004.59C810.78 990.72 810.04 963.6 806.28 948.64V948.63ZM845.57 948.83C848.44 948.35 860.87 946.84 861.52 947.27C870.74 953.46 875.3 995.56 874.02 1007.6C864.03 1008.02 854.97 1008.02 844.82 1007.13C845.63 995.39 845.63 985.72 846.05 974.66L846.39 965.82C845.28 960.64 844.43 954.05 845.57 948.82V948.83ZM882.68 963.8L880.59 946.48L894.92 945.45L905.77 965.94C908.59 979 909.63 991.23 909.34 1006.26L881.58 1008.77C884.63 993.01 884.51 978.99 882.68 963.81V963.8ZM1025.41 871.95C1024.83 869.44 1023.76 863.72 1025.11 861.38C1029.08 858.7 1034.76 856.22 1039.39 854.34C1037.39 867.77 1048.39 884.73 1043.76 890.87C1039.31 896.76 1030.93 897.88 1024.02 899.35C1007.12 902.95 990.59 904.77 973.36 907.35C961.4 909.14 949.02 910.22 936.57 908.88C933.79 908.58 934.73 893.89 967.93 896.34C974.33 896.81 981.81 893.86 987.77 891.88C997.63 888.6 1007.28 885.92 1017.45 883.64C1023.21 882.35 1026.96 878.57 1025.42 871.96L1025.41 871.95ZM978.6 1004.48C971.7 1005.32 964.76 1005.99 957.8 1006.56C956.35 1006.51 954.69 1006.53 952.73 1006.64C957.87 992.86 956.5 958.01 948.98 946.41C948.18 945.18 947.61 940.84 949.23 940.52C954.57 939.47 960.48 939.69 965.82 940.41C984.32 957.05 983.89 981.12 978.59 1004.48H978.6ZM1011.59 998.8C1003.4 1000.71 995.12 1002.2 986.77 1003.39C992.93 985.54 995.35 967.3 991.38 949.02C990.64 945.59 987.51 941.75 988.91 938.44C994.24 937.81 998.68 937.04 1003.55 935.61C1009.93 941.34 1011.91 949.83 1013.56 957.79C1016.52 972.06 1016.58 985.25 1011.6 998.79L1011.59 998.8ZM937.94 954.46C945.38 971.3 947.82 987.9 945.47 1006.37C937.31 1007.04 923.14 1008.31 916.44 1007.11L919.14 989.25C920.85 977.93 919.42 965.95 917.85 954.54C917.34 950.82 914.7 947.05 914.54 943.1C920.37 943.21 926.21 941.62 931.46 943.04C935.58 944.15 936.46 951.15 937.93 954.48L937.94 954.46ZM1049.21 986.31C1039.44 990.71 1029.45 994.15 1019.31 996.88C1028.41 977.65 1027.09 951.46 1020.86 932.45C1025.51 930.71 1033.18 928.31 1038.53 931.1C1046.95 935.48 1050.44 942.79 1053.92 952.36C1057.21 961.4 1055.63 974.37 1052.64 984.71C1051.5 985.25 1050.36 985.79 1049.21 986.31ZM1106.95 948.5C1102.62 952.46 1098.14 956.25 1093.49 959.83C1094.05 947.05 1091.55 933.24 1087.48 923.66C1085.76 919.62 1079.73 916.09 1079.17 911.87C1078.65 907.97 1084.05 911.25 1086.07 911.35C1092.37 911.65 1098.27 914 1102.03 919.47C1106.1 925.38 1112.66 933.83 1114.4 941.33C1111.97 943.78 1109.49 946.17 1106.94 948.5H1106.95ZM1087.06 865.4C1092.79 863.47 1101.38 862.46 1107.34 864.45C1111.36 865.79 1120.25 875.9 1121.46 882.4C1122.41 887.5 1100.89 857.78 1077.5 877.44C1079.08 872.79 1082.7 866.87 1087.06 865.4ZM1066.11 920.75C1069.23 921.9 1074.99 925.71 1076.59 928.5C1084.41 942.15 1086.97 952.17 1086.81 964.77C1078.15 970.91 1069.07 976.45 1059.63 981.3C1060.95 975.81 1066.54 965.73 1063.2 948.58C1061.43 939.53 1059.16 931.6 1052.15 924.49C1055.78 922.03 1062.02 919.25 1066.11 920.76V920.75ZM832.39 568.46C855.18 585.32 883.52 590.69 905.59 601.66C941.95 619.75 974.19 644.32 1003.24 672.48C998.81 672.99 997.78 668.55 994.95 666.6C982.69 658.17 971.69 653.81 959.28 664.49C946.09 675.84 935.83 688.74 924.91 702.32C916.41 712.89 908.97 725.25 911.26 739.61C912.5 747.37 918.18 753.46 923.07 760.21L908.28 765.53L911.79 774.02C912.74 776.32 910.78 783.05 912.93 784.5L927.67 794.45C928.24 791.11 929.2 785.32 927.31 782.81C923.91 778.27 918.98 778.39 914.9 773.8L928.07 768.32C929.32 763.58 929.63 757.27 929.7 751.96C925.51 747.72 917.38 741.59 917.93 735.26C926.98 719.07 939.37 709.28 949.99 692.44C955.43 683.82 960.03 674.96 967.69 668.16C978.32 658.72 989.52 672.35 996.82 677.88C1001.03 681.07 1006.42 685.59 1007.34 690.9C1007.46 691.6 1006.4 693.4 1005.73 693.47C1005.06 693.54 1003.2 693.43 1002.41 692.93L981.85 679.99C979.53 678.53 973.2 676.9 972.38 679.19C970.82 683.52 977.17 686.57 979.82 688.64C984.48 692.29 988.78 695.2 993.34 698.28C998.78 701.96 1003.75 705.16 1009.17 700.8C1019.36 692.62 1008.41 682.01 1011.28 682.22C1011.79 682.26 1013.58 682.68 1013.97 683.18L1023.42 695.09C1040.43 716.52 1055.53 731.89 1056.97 763.39C1057.49 774.75 1059.51 785.36 1060.65 796.73C1063.69 827.15 1064.27 867.9 1062.2 898.25C1060.99 900.67 1055.3 902.98 1052.76 902.9C1052.86 899.54 1055.73 896 1055.62 892.9C1055.2 880.95 1052.21 869.79 1048.87 858.58C1047.58 854.24 1049.21 852.01 1051.93 849.17C1055.22 845.75 1050.45 840 1051.57 835.87C1052.87 831.07 1053.03 824.64 1054.5 820.58C1061.04 802.51 1058.6 790.35 1049.44 774.41C1050.64 761.99 1050.69 748.1 1040.01 738.25L1036.89 725.69C1035.21 718.94 1029.46 711.62 1022.23 710.9C1017.27 710.41 1012.63 710.41 1007.87 708.69C1004.16 707.35 1000.37 707.9 998.3 711.57C993.27 720.48 984.8 710.04 976.95 721.18C976.14 722.87 977.2 726.95 977.59 728.94C971.32 728.7 966.26 731.43 964.46 736.34C959.41 750.16 972.6 751.83 967.32 756.27C964.16 758.93 959.72 749.75 954.4 746.89C947.99 756.99 961.61 761.9 961.46 767.77C961.3 774.09 960.71 780.51 963.78 785.64C968.19 793.03 975.21 794.19 984.28 796.41L956.22 813.7C954.43 814.81 954.64 820.19 955.65 822.46C972.19 812.38 987.64 802.55 1001.89 790.24C1005.4 787.21 1009.79 781.85 1014.64 782.95C1020 784.16 1024.62 788.72 1027.01 793.42C1035.26 809.61 1040.85 826.41 1044.58 844.7C1029.43 847 1030.71 849.59 1017.81 851.98C1014.19 845.7 1012.06 840.42 1010.55 833.8L1007.96 822.5C1007.68 821.26 1006.26 818.31 1005.2 818.68C1004.14 819.05 1002.33 820.52 1001.53 821.63L992.57 834.08L972.42 862.73C968.5 868.3 965.64 873.65 962.8 880.79C953.88 874.47 944.22 870.54 933.57 867.83L918.53 864C917.55 863.75 914.94 864.09 914.16 864.59C913.23 865.19 912.8 867.65 913.41 868.58C916.04 872.59 947.91 878 955.58 887.38C945.98 885.84 939.95 887.27 932.75 892.08C927.06 895.89 925.38 902.41 923.58 909.91C901.58 913.99 904.56 905.75 893.45 908.71L900.48 886.75C906.28 868.63 904.15 822.64 902.79 802.88L901.74 787.61C898.16 792.02 898.96 796.64 898.47 801.88C894.93 840.4 895.43 878.08 876.59 911.5L857.71 914.61L824.07 919.39C824.68 909.63 825.53 894.55 834.98 889.59C838.8 887.59 842.2 884.97 845.81 884.26L876.39 878.2C878.88 877.71 878.93 870.6 878.67 868.07L852.27 869.36C845.17 869.71 839.25 872.02 832.5 875.57L827.49 869.11C817.25 873.24 808.79 880.07 798.59 883.76L778.24 891.13C771.32 893.64 766.41 898.82 759.83 903.19C756.57 897.66 753.11 891.44 753.54 884.98C753.74 882.01 759.9 879.82 761.84 877.89C767.61 872.14 773.36 867.66 779.16 862.2L793.53 848.67L807.84 837.82C810.82 835.56 815.42 833.74 818.74 832C826.19 828.1 832.99 829.66 839.89 833.66L876.69 854.95C877.66 855.51 880.05 855.85 881.03 855.77C882.02 855.69 882.82 853.08 882.92 851.91L887.08 805.38C887.51 800.6 888.04 797.7 888.6 792.5L889.92 780.16C890.2 777.58 883.39 777.34 880.2 776.06C877.85 775.11 878.64 770.03 879.73 767.85L886.96 753.28C890.58 755.38 894.61 761.03 899.48 758.23C906.5 754.19 907.1 740.56 900.89 735.06C898.14 732.62 893.92 731.6 890.34 729.6C895.04 722.47 896.18 715.61 893.14 707.38C886.88 690.45 870.37 694.88 874.95 686.21C879.7 677.21 876.26 662.21 881.48 669.33C885.72 675.11 895.65 676.59 900.02 670.36C906.28 661.43 906.35 635.47 895.35 626.44C890.2 622.21 882.11 620.41 878.46 614.43C871.03 602.26 871.51 589.16 858.51 586.09C856 585.5 850.92 585.56 849.13 587.78C847.62 589.65 847.16 593.21 846.05 597.56C840.34 591.8 832.24 585.77 829.01 578.18L821.58 560.71C826.34 562.27 828.83 565.82 832.35 568.42L832.39 568.46ZM976.41 743.3L979.39 745.71C980.05 746.25 978.92 748.86 978.12 748.55C976.18 747.81 970.65 743.64 970.99 740.72C971.65 735.08 979.57 732.99 980.93 733.34C981.57 733.5 989.51 739.1 986.88 742.33C985.64 743.85 982.18 745.36 982.01 743.79C981.68 740.79 981.44 738.54 980.65 737.58C979.86 736.62 976.95 737.07 976.15 738.03C975.35 738.99 975.46 742.54 976.41 743.31V743.3ZM972.26 756.44C972.5 755.33 974.26 753.48 975.33 753.42C979.05 753.2 976.17 758.11 980.7 762.54C982.01 763.83 987.22 764.71 987.54 762.94C987.96 760.62 984.47 757.2 984.54 755.1C984.67 751.03 988.69 747.69 991.85 746.23C991.52 749.32 990.71 752.67 990.96 754.56C991.7 760.22 997.61 762.98 1002.06 763.17C1007.45 763.39 1011.27 760.46 1014.63 755.21C1017.75 761.65 1015.04 766.78 1011.12 771.35C1002.13 781.82 990.34 788.39 976.31 786.24C971.14 785.45 966.72 781.3 967.35 774.73C967.94 768.59 970.91 762.82 972.27 756.45L972.26 756.44ZM996.47 742.6C995.54 743.08 992.98 743.3 992.77 742.31C992.56 741.31 992.77 737.96 993.71 737.61C995.03 737.12 997.5 737.81 997.55 738.83C997.62 740.09 997.35 742.15 996.46 742.6H996.47ZM998.42 744.36C1001.76 741.32 1010.54 744.56 1010.05 749.74C1009.76 752.81 1006.45 755.35 1004.51 755.9C1002.1 756.58 998.35 755.29 997.33 753.53C995.94 751.13 996.16 746.42 998.42 744.36ZM875.74 636.96L880.7 623.28C884.93 626.47 889.24 628.81 891.87 632.78C897.99 642.06 896.45 663.33 890.09 664.19C882.99 665.15 880.81 640.61 875.74 636.96ZM824.78 487.52C811.8 499.78 807.8 512.12 801.87 514.07C799.86 514.73 795.03 513.65 794.5 511.58C791.4 499.6 797.43 489.24 804.63 480.07C807.4 480 831.35 481.32 824.78 487.52ZM898.03 460.31C896.86 459.85 898.44 466.05 882.22 465.82C877.88 465.76 880.36 460.13 879.99 457.88L876.98 439.65L873.65 427.47C879.07 425.22 883.8 421.77 888.72 420.43C891.5 420.03 897.73 422.15 899.99 422.66C897.54 427.7 889.58 430.61 890.27 436.27C891.28 444.55 901.46 448.6 908.58 450.28L927.18 454.68C916.99 460.26 907.05 463.91 898.04 460.32L898.03 460.31ZM965.68 443.97C964.93 444.85 962.18 442.55 962.74 441.06C963.48 439.08 966.85 439.04 969.01 440.04L965.69 443.97H965.68ZM978.46 418.63C977.72 424.6 967.28 427.97 959.66 428.33L932.88 429.62C930.24 429.75 925.13 432.13 922.81 433.25C921.66 433.81 921.42 437.08 922.03 438.16C922.63 439.23 925 440.56 926.76 440.46L950.15 439.07C962.17 438.35 940.94 452.74 915.76 443.64C910.32 441.67 900.4 441.5 898.44 435.81C898.57 431.35 907.72 425.21 912.36 425.24C921.33 425.31 949.68 427.65 948.52 419.96C948.16 417.58 945.46 415.86 942.71 416.14C928.2 417.62 914.43 418.84 899.9 418.14C894.94 417.9 890.35 415.78 885.79 414.62C881.15 413.44 876.95 419.24 872.59 419.9C870.36 420.24 869.01 411.88 871.26 411.97L893.36 410.11C900.74 409.49 907.76 416.76 916.87 412.15C921.97 409.57 927.81 404.15 930.47 396.53C938.27 395.97 979.63 409.18 978.45 418.64L978.46 418.63ZM989.19 425.7C989.45 418.36 988.93 412.19 982.69 408.07C970.44 399.98 955.98 394.52 941.06 394.51H937.1C936.19 394.51 937.34 390.71 938.46 390.42C949.38 387.62 975.98 385.23 987 390.94C991.49 393.27 988.57 400.65 988.44 404.07C988.22 409.6 993.57 411.86 999.82 412.41C997.51 417.43 994.25 421.98 989.2 425.7H989.19ZM1001.9 382.73C995.25 395.08 1001.36 389.85 999.23 401.13C999.01 402.31 995.84 403.73 994.98 402.79L990.68 384.62C976.53 379.44 962.28 380.36 947.47 382.65C949.52 375.67 950.99 369.91 950.88 363.05L987.89 369.98C992.32 370.81 999.09 375.1 1002.5 369.85C1006.74 363.33 998.1 347.23 1003.42 346.61C1011.86 350.29 1005.49 376.05 1001.89 382.73H1001.9ZM1068.51 278.1C1061.86 282.73 1053.2 286.36 1044.71 287.54C1033.56 289.08 1015.91 276.68 1019.71 266.59C1028.73 280.35 1042.46 285.84 1057.8 279.63C1067.98 275.51 1074.35 265.35 1079.94 255.4C1085 259.15 1072.93 275.04 1068.52 278.11L1068.51 278.1ZM1067.57 222.54C1073.51 223.4 1074.86 229.45 1077.42 233.61C1082.27 241.5 1081.17 249.2 1074.73 255.56C1068.63 261.58 1063.65 270.25 1055.46 274.16C1046.04 278.65 1034.81 275.62 1030.79 267.24C1031.22 262.46 1045.63 273.24 1053.77 265.27C1064.84 254.44 1069.93 237.96 1067.57 222.54ZM1037.83 200.42C1043.81 203.76 1053.14 206.86 1055.77 213.08C1065.68 236.55 1047.42 270.65 1038.81 262.59L1031.07 255.35C1045.36 241.86 1046.43 218.05 1037.83 200.43V200.42ZM1027.96 197.61C1029.2 203.82 1030.51 208.4 1032.13 213.89C1037.48 232.01 1026.56 260.52 1020.72 252.04C1018.34 248.59 1015.85 250.83 1013.44 250.54C1009.34 250.04 1005.05 248.64 1000.12 247.22C1015.95 232.43 1013.4 213.03 1007.69 193.35L1027.95 197.6L1027.96 197.61ZM979.38 192.89C984.13 192.85 991.59 191 995.22 193.81C1000.67 198.03 999.8 206.84 1001.24 212.7C1003.72 222.76 1002.34 231.26 996.86 240.19C995.11 243.04 993.87 246.35 989.77 245.5L974.9 242.44C983.44 232.72 987.01 203.92 979.38 192.89ZM953.51 192.56C957.58 192.37 963.14 192.14 966.33 192.91C975.9 200.76 973.82 230.58 966.89 241.29L947.96 238.86C955.92 228.38 959.83 203 953.52 192.57L953.51 192.56ZM941.84 193.48C948.57 201.34 947.83 226.83 944.53 237.33L926.54 235.21C929.87 228.79 930.96 223.33 931.06 216.32C931.35 196.55 930.06 208.23 926.3 192.65L941.83 193.48H941.84ZM913.85 194.02C920.81 206.59 922.47 220.39 919.46 234.95L900.45 232.83C904.75 219.41 903.79 207.34 894.97 194.66L913.85 194.02ZM888.77 194.29C889.54 194.24 891.69 194.96 892.36 195.34C889.64 193.8 901.15 217.8 885.51 232.18C883 234.49 876.86 234.07 873.89 233.41C875.15 225.45 877.65 217.1 874.27 210.09L867.31 195.66L888.76 194.29H888.77ZM847.64 195.03C851.36 194.6 857.94 195.07 862.2 195.73C868.35 218.65 868.59 209.48 864.62 233.16L847.33 232.17C852.56 222.01 851.68 210.21 847.51 200.93C846.9 199.57 846.38 195.24 847.65 195.02L847.64 195.03ZM838.08 195.09C840.4 215.67 842.59 211.94 836.88 232.16C831.59 232.33 826.7 232.14 822 231.45C822.3 223.95 824.38 216.65 821.96 210.11L816.3 194.81C823.77 194.42 830.28 194.43 838.08 195.09ZM812.24 194.6L814.45 211.66C815.07 216.47 812.94 224.96 812.08 230.33C810.47 232.18 804.4 232.06 802.65 231.77C797.11 216.38 792.66 213.8 789.71 194.61H812.23L812.24 194.6ZM785.94 194.8C785.66 204.93 784.79 224.38 791.97 232.18L774.92 232.45C766.89 220.82 761.14 208.65 761.21 193.76L785.93 194.8H785.94ZM759.45 194.41C756.58 207.4 757.6 219.27 762.93 232.2C757.01 233.67 751.39 234.05 745.88 232.59C739.69 220.08 735.4 208.53 730.58 195.11L759.44 194.41H759.45ZM711.7 194.97C716.63 194.63 721.77 194.31 726.23 195.52C726.87 208.95 728.27 219.87 731.86 233.33C727.89 234.04 719.68 236.24 716.34 232.87C706.6 223.03 703.78 208.84 700.58 195.73L711.7 194.97ZM695.41 194.85C694.26 209.69 697.92 221.09 702.46 234.92C699.85 235.37 693.64 237.26 691.22 235.49C675.5 224.05 675.5 214.19 671.15 196.25L695.41 194.84V194.85ZM667.01 195.5C664.57 210.36 666.26 223.91 673.92 236.83C669.12 237.25 661.42 238.54 657.81 236.56C645.1 223.16 642.13 214.25 640 195.62L667.01 195.5ZM612.37 192.93C624.33 191.67 623.59 194.67 635.28 195.7C632.23 210.01 635.89 224.54 644.73 237.77C640.16 237.87 633.2 240.38 628.41 238.7C611.32 232.7 611.31 207.8 612.37 192.94V192.93ZM586.28 194.75C593.34 193.62 599.81 193.16 607.03 193.2C603.09 208.88 600.68 225.26 609.99 240.17C605.47 241.04 597.63 243.41 593.71 241.6C581.74 227.58 580.69 212.32 586.28 194.75ZM549.66 202.67C563.86 197.89 565.37 201.47 581.07 196.83L575.91 209.16C570.91 221.11 576.05 234.08 581.58 246.12L565.53 249.53C543.55 237.06 547.87 223.12 549.66 202.67ZM513.53 223.7C513.08 236.15 516.9 255.28 528.31 263.15C517.73 277.43 497.33 252.47 493.66 242.46C499.57 235.25 504.98 228.55 513.53 223.7ZM499.33 306.77C491.3 305.65 487.22 296.33 483.96 290.64C481.17 285.76 477.36 282.09 478.68 275.62L489.86 291.5C497.55 302.42 517.4 299.16 520.81 299.69C526.64 300.6 505.55 307.65 499.34 306.78L499.33 306.77ZM523.16 288.52C515.8 293.32 505.26 292.41 498.45 286.89C493.09 282.54 488.6 277.14 484.64 271.81C481.25 267.25 482.05 263.13 483.96 258.38C485.53 254.5 485.95 250.04 490.17 247.52C493.85 259.41 501.18 268.23 511.98 273.69L509.33 278.82C508.92 279.62 509.3 282.13 509.88 282.83C513.32 287.06 520.71 276.88 529.56 278.72C527.87 282.77 526.16 286.55 523.16 288.5V288.52ZM519.13 219.68L542.13 205.22C549.78 200.41 543.35 208.45 541.68 218.17C539.52 230.81 541.89 243.33 552.36 252.95C548.29 254.68 544.35 256.39 540.8 257.04C528.86 259.22 516.6 230.31 519.13 219.68ZM557.95 363.15C559.25 376.05 562.16 391.84 566.61 402.91C566.98 403.83 566.57 405.67 566.4 406.27C566.24 406.85 564.16 405.89 563.54 404.89C553.37 388.37 545.09 367.63 541.56 347.88C538.73 332.02 535.81 317.18 534.89 301.31C534.39 292.61 538.75 284.46 536.65 275.65C543.69 271.82 549.77 270.79 556.92 269.68L588.36 264.8C602.54 262.6 616.43 261.9 630.85 260.96L665.51 258.69L693.83 257.13C712.61 256.09 730.44 253.36 749.27 252.8C764.66 252.35 779.31 251.32 794.73 250.37L819.74 248.84L845.53 246.58C867.08 244.69 887.1 245.27 908.71 246.83C943.36 249.32 976.95 253.08 1011.1 259.67C1012.16 280.57 1014.25 268.43 1013.96 287.48L1013.06 347.58C1009.72 344.56 1007.12 340.17 1003.58 340.02C998.09 339.79 996.13 345.93 995.8 350.14L994.71 364.08C977.99 358.18 961.3 356.69 943.61 357.09C940.83 357.15 939.25 355.91 938.65 353.78C937.65 350.19 941.22 350.49 943.03 348.58C948.13 343.2 946.74 332.91 939.13 329.49C940.55 340.46 933.02 347.58 931.56 356.52L928.45 375.54C927.05 384.08 926.11 392.46 921.1 399.32C915.41 407.13 905.05 409.2 898.78 402.6C878.75 381.51 893.36 369.72 876.18 371.53C872.66 371.9 871.12 367.95 871.21 364.59C871.26 362.82 871.97 359.31 873.27 358.5C876.68 356.38 880.88 359.58 885.06 360.73C886.43 361.11 889.63 358.98 890.16 357.51C896.05 340.89 916.43 353.28 914.43 312.29C910.94 313.32 907.98 315.79 905.58 317.1C900.86 315.57 892.74 314.49 889.24 318.36C888.28 319.42 886.75 323.2 885.52 323.02L871.8 321.03C866.43 320.25 863.94 325.9 862.11 328.88C859.3 333.47 866.68 337.74 865.98 340.96L860.34 352.88C855.02 357.36 843.71 358.65 838.32 363.77C816.46 384.56 826.71 388.85 820.59 396.44C816.98 400.92 809.71 403.65 805 407.78C793.95 397.76 768.65 377.25 755.48 387.97C751.55 391.17 750.08 395.31 749.65 401.44C749.51 403.39 744.92 404.44 742.98 405.33L710.94 420.07L723.73 421C718.44 427.11 715.03 433.31 714.53 440.3L699.09 435.74C704.68 429.7 706.35 420.64 711.41 414.28C718.73 405.07 728.78 399.24 737.25 391.61C739.57 389.53 745.45 391.35 750.72 390.74C751.54 390.65 750.11 387.6 749.32 387.38L740.22 384.77C737.72 380.59 734.38 375.85 730.03 375.15C714.33 372.65 711.16 389.45 710.98 377.15C710.89 370.75 707.98 362.91 712.12 357.23C715.35 352.8 721.34 350.18 722.78 343.97C723.07 342.71 723.28 339.19 722.21 338.48C718.75 336.19 718.25 338.22 711.92 335.77C711.01 335.42 712.77 332.4 713.52 331.71L721.16 324.68C722 323.91 722.67 321.1 722.61 319.99C722.53 318.69 719.36 317.13 717.96 317.5L691.92 324.28C688.55 325.16 685.1 324.82 680.61 325.09C678.2 306.39 684.2 310.35 669.77 296.73C659 286.57 640.47 285.26 637.81 294.08C635.09 303.08 648.11 312.35 655.16 314.41C655.93 314.63 656.21 317.7 655.48 318.04C654.76 318.39 652.96 319.01 652.07 318.81L642.02 316.48C634.8 314.81 618.37 304.59 605.95 303.24C594.24 301.97 588.1 310.02 583.75 317.92C578.86 320.43 571.38 321.65 568.09 325.95C559.17 337.58 556.53 348.95 557.96 363.13L557.95 363.15ZM868.81 452.58L850.62 442.81C844.27 441.49 842.54 437.03 840.67 432.06C837.92 424.77 832.85 417.12 832.5 409.14L831.84 394.27C831.6 388.83 832.27 383.49 836.6 379.64C843.77 387.64 852.81 393.97 857.79 403.24C865.72 417.98 866.71 435.91 868.79 452.59L868.81 452.58ZM760.27 454.37C751.25 455.83 740.08 452.31 736.69 443.98C732.69 434.14 730.39 424.38 733.61 415.79C734.02 414.7 737.83 414.31 737.77 415.38C737.29 418.22 735.79 424.18 737.12 426.54C737.63 427.45 741.11 427.17 741.39 426.21L742.91 421.13C743.37 419.57 744.95 416.59 746.39 416.55C747.81 416.5 749.99 418.65 750.97 419.95L753.02 422.66C753.57 423.39 756.36 422.84 756.5 421.67C757.11 416.6 752.01 411.8 746.14 410.51C747.47 405.97 753.09 404.33 757.46 406.64C761.4 408.72 764.97 411.79 768.64 414.94L760.34 421.74C759.75 422.23 759.2 423.74 759.43 424.39C761.06 429.16 769.04 415.34 776.46 421.84C781.63 426.37 781.08 429.75 778.71 436C775.41 444.71 769.73 452.83 760.28 454.37H760.27ZM772.69 461.14C761.55 471.33 750.5 466.92 740.31 457.61C744.32 456.93 747.88 457.69 751.05 458.95C762.68 463.59 766.79 456.33 772.98 457.33C773.95 457.49 773.43 460.46 772.69 461.14ZM757.52 404.28C756.76 401.01 756.17 394.93 757.89 392.22C769.76 383.21 803.68 417.39 810.27 426.82C812.79 430.94 815.38 434.26 819.33 439.27L799.38 444.39C788.22 426.4 778.69 412.42 757.51 404.28H757.52ZM811.04 414.9C811.67 411.97 816.46 408.22 820.08 407.98C821.66 419.54 828.31 431.02 830.02 438.73C830.12 439.16 827.17 439.28 826.6 439.12C820.86 429.46 819.39 423.45 811.04 414.9ZM661.74 308.28L657.53 311.26C655.07 310.69 640.52 296.72 644.29 294.26C651.06 289.84 659.88 296.77 664.92 301.22C669.75 305.49 671.8 309.33 672.64 316.01L674.31 329.3C667.87 327.55 665.3 327.46 657.46 327.64L665.51 310.26C665.96 309.14 662.65 307.64 661.74 308.29V308.28ZM694.31 420.48C685.25 420.35 679.6 394.49 678.21 387.06C677.98 385.85 674.52 384.6 673.45 385.09C669.39 386.95 669.85 393.48 665.82 394.64C664.82 383.73 659.71 377.58 650.12 372.3L667.91 360.12C672.27 357.13 679.74 354.36 685.16 355.2C691.12 356.13 695.01 363.71 695.84 369.15L699.16 390.85C699.56 393.43 701.97 396.46 704.2 396.34C711.46 395.95 707.9 386.12 724.9 380.83C728.44 379.73 730.67 382.47 730.94 384.48C731.53 388.87 727.51 388.35 725.62 390.2C721.66 394.08 717.62 397.85 713.01 401.26C697.29 412.86 701.05 420.59 694.31 420.49V420.48ZM568.41 363.47C567.66 361.13 572.43 359.84 573.46 357.93C575.73 353.7 578.53 351.76 582.72 348.68C586.02 346.26 590.86 340.16 593.94 337.14C594.72 336.37 591.78 333.59 591.64 332.51C591.15 324.54 606.94 322.4 610.43 323.76C611.81 324.3 612.92 326.75 613.57 328.24C607.08 328.59 601.03 326.46 597.34 332.8C603.36 334.84 610.83 334.09 615.52 330.32L623.29 337.95C626.31 340.91 628.89 344.96 626.99 349.4L623.04 358.61C620.14 365.36 614.28 371.11 608.77 376.36C601.15 383.62 591.15 381.73 584.73 374C574.93 362.2 571.54 373.25 568.4 363.45L568.41 363.47ZM584.44 419.38C581.67 406.48 577.93 393.63 582.62 380.38C591.33 389.29 602.89 389.49 612.24 382.21C621.77 374.79 628.03 363.85 633.25 352.51C639.69 347.57 647.03 343.11 654.04 339.5L655.69 334.02C659.38 334.74 668.35 335.04 670.58 339.09C673.98 345.27 667.37 350.5 663.05 353.29C649.37 362.09 638.32 372.88 627.75 385.07C610.71 395.47 596.97 409.33 585.72 426.11C583.09 425.13 584.96 421.76 584.45 419.38H584.44ZM659.54 455.35C651.87 461.15 641.35 452.74 633.97 450.27L600.76 439.16C596.42 437.71 594.04 432.83 588.53 431.85C607.14 410.32 604.23 408.73 628.8 391.01C634.39 386.98 638.73 379.79 645.11 376.75L657.34 386.81C660.15 389.13 662.11 397.47 660.34 400.71C656.21 408.25 649.28 413.82 644.16 420.59C625.84 444.84 606.42 420.3 606.27 433.43C606.17 442.17 637.97 442.07 649.03 425.45L674.04 435.21C674.94 435.56 676.23 437.1 676.56 437.67C676.88 438.23 675.11 440.16 674.33 440.37C668.16 442.03 664.05 451.94 659.53 455.36L659.54 455.35ZM706.25 478.83C693.43 468.42 673.43 467.35 668.57 454.85C665.51 446.97 682.57 436.62 695.97 441.01C704.58 443.83 713.66 448.31 721.37 452.36C722.61 453.01 724.25 456.19 725.47 455.97C727.34 455.62 730.8 455.38 732.25 455.98C733.86 456.65 734.23 460.88 735.47 462.58C746.05 477.15 769.24 478.6 780.71 464.31C783 461.46 784.44 460.41 787.22 458.28C803.65 445.69 825.05 441.65 844.91 448.97C850.2 450.92 864.94 455.01 863.7 463.5C863.4 465.56 860.62 468.85 858.07 469.82L832.18 479.67L815.14 473.22L828.18 467.39C829.16 466.95 830.69 465.03 830.26 464.1C829.82 463.17 826.7 461.82 825.73 462.31C805.65 472.61 804.11 469.27 790.38 491.8C786.79 497.7 786 506.9 787.72 513.92C790.31 524.54 807.94 518.32 802.69 528.57C794.68 524.81 785.4 525.35 776.87 525.68C767.77 526.04 759.71 526.22 751.08 528.1L736.01 531.4C735.16 531.59 732.78 531.66 732.61 530.83C730.61 520.74 741.3 533.65 748.79 521.07C758.8 504.25 748.36 489.87 735.69 478.36C705.5 450.94 708.17 464.88 709.86 466.29L725.56 479.34C721.4 481.37 718.66 482.6 714.41 483.87C711.83 484.64 708.26 480.46 706.25 478.83ZM730.67 511.49L718.41 491.11C723.27 488.46 728.75 486.59 734.58 487.22C739.42 493.66 743.86 500.93 744.27 509.1C744.4 511.76 742.12 518.21 739.65 519.2C735.77 520.75 732.29 514.19 730.67 511.49ZM509.57 881.93C511 887.65 516.23 892.39 516.84 897.96C517.33 902.39 509.99 903.36 507.16 902.38C502.8 900.86 502.11 896.47 502.11 892.04C502.09 875.23 502.49 858.73 506.24 842.32C506.86 839.62 510 836.79 511.9 835.88C514.54 834.61 518.85 834.29 521.41 837.43C513.47 846.89 507.39 857.83 504.13 869.56C507.07 873.36 508.34 876.93 509.59 881.94L509.57 881.93ZM531.44 940.25C527.97 953.96 524.57 985.82 529.88 999.25L509.15 996.45C503.74 975.49 498.65 949.29 510.67 930.36L530.97 933.62C532.32 934.23 531.82 938.76 531.44 940.25ZM511.84 864.33C515.34 857.52 518.53 851.67 523.17 845.07L529.07 877.37C529.28 878.54 531.2 881.19 532.31 881.17L538.13 881.07C538.82 890.42 541.33 898.99 549.43 905.79C533.08 920.53 515.8 874.63 511.84 864.33ZM562.4 1001.84C557.39 1002.26 550.31 1002.88 546.66 1000.09C541.19 995.9 540.71 987.05 540.83 980.89L541.07 968.88C541.29 957.72 541 946.53 545.02 935.56L568.57 937.41C564.98 947.77 563.8 956.6 562.3 966.27C560.46 978.11 559.24 988.75 562.41 1001.84H562.4ZM557.31 901.23C548.2 897.51 543.47 885.23 540.66 876.18L552.63 864.04L569.03 901.94C564.37 899.16 559.77 902.23 557.3 901.22L557.31 901.23ZM593.65 993.26L596.98 1002.8L577.18 1002.98C575.77 997.86 573.6 993.74 573.54 989.4L573.16 961.13C573.06 953.38 574.02 945.25 575.78 937.77C584.9 940.47 596 935.7 597.35 940.87C593.76 949.64 591.31 986.56 593.65 993.26ZM590.84 910.62C591.23 906.69 593.14 903.27 592.99 899.98L591.58 869.29C584.25 872.64 591.51 897.2 583.8 908.72C581.17 910.13 575.53 909.05 573.04 908.31C574.52 905.17 575.56 902.19 574.62 899.44L564.05 868.65L559.71 856.65C558.1 852.19 556.92 848.82 556.8 843.87L555.52 790.28C554.96 766.72 567.37 743.88 558.51 739.82C555.71 738.54 552.06 739.1 549.15 742.53C528.54 766.82 519.73 799.06 522.92 832C516.42 829.6 511.8 828.09 504.93 829.81C509.75 814.73 512.45 800.69 515.17 785.79L519.83 760.26L525.81 737.71C528.26 728.47 534.15 702.8 541.69 697.29L546.74 703.19L554.14 698.82C556.67 700.87 572.58 707.37 570.68 701.42C569.07 696.36 564.59 703.06 560.61 689.82C556.83 677.24 587.87 671.59 583.83 663.8L570.89 670.98C566.22 673.57 563.12 677.65 559.13 681.23C556.55 683.54 549.35 680.72 546.41 684.32C545.71 677.17 549.85 673.67 553.1 669.23L566.63 650.7L574.62 640.72C580.98 632.77 593.78 624.33 602.6 618.67L617.26 609.27C637.45 596.33 683.39 583.15 700.01 568C705.66 562.85 712.25 558.59 718.89 554.18C715.44 572.51 708.41 571.08 709.92 590.77L713.38 589.31C714.16 588.98 715.75 591.55 715.88 592.39C716.85 598.62 713.96 604.79 711.11 610.22C706.14 619.66 703 617.95 703.59 620.47C703.86 621.62 705.13 623.76 705.88 624.94C708.66 629.31 703.92 632.11 700.48 633.66L687.97 639.3C683.84 641.16 680.32 645.46 676.76 648.81C681.22 652.32 690.64 646.26 692.15 648.02C695.4 651.8 687.55 668.13 690.54 679.77C669.04 683.86 647.94 687.03 625.39 687.39C633.82 671.65 645.71 660.33 658.42 649.62L687.94 624.75C694.5 619.22 699.82 611.47 705.84 604.69C699.05 603.24 698.32 610.05 694.63 612.77L647.36 647.65C641.46 652 637.04 657.75 632 663.09C626.47 668.94 621.69 674.81 617.97 682.11C613.45 691 603.05 686.74 593.08 686.39C602.65 664.73 618.87 647.99 638.69 636.03C645.35 632.01 650.33 627.14 656 622.33L684.86 597.88C688.81 594.53 693.12 590.8 694.87 584.71L638.09 627.13C633.16 630.81 628.18 633.25 623.08 636.54C611.59 643.94 601.23 656.01 593.35 667.33C589.44 672.95 587.04 679.47 583.43 685.78L571.59 685.19C573.51 688.66 576.87 688.95 581.32 689.23L573.11 716.01L555.74 713.34C554.82 713.2 552.96 713.52 552.21 713.81C546.61 715.94 563.68 723.72 570.99 722.03C563.09 763.72 561.8 806.19 565.99 848.32C566.2 850.38 568.26 852.65 569.94 852.79C571.09 844.16 572.27 836.37 572.33 828.19L572.43 813.47C572.57 793.36 573.84 773.84 575.37 753.7C576.16 743.36 577.53 734.74 580.42 724.04C587.2 724.14 593.12 724.24 599.04 725.57C596.32 731.85 593.42 756.22 591.47 757.08C590.33 757.59 587.54 757.9 586.03 757.97L583.5 758.09C582.91 758.12 582.73 759.56 583.01 760.08C583.29 760.6 584.25 760.96 585.09 761.14L591.41 762.48L591.66 781.92C591.7 784.94 592.67 788.02 594.56 789.94C599.93 781.37 600.73 771.99 601.29 762.22C608.45 763.38 614.99 762.24 621.88 761.4C627.99 760.65 634.37 762.09 638.35 755.94C636.18 754.32 632.4 753.27 628.9 753.69L613.39 755.52C610.61 755.85 604.09 757.99 602.77 755.02L608.18 726.05C613.55 725.21 618.67 725.15 623.96 725.51C640.43 726.62 655.62 722.85 671.21 718.37C676.64 716.81 681.05 714.92 685.49 711.59C689.79 708.37 695.88 707.88 698.47 701.17C691.91 701.44 685.28 702.84 679.2 705.36C657.81 714.23 635.75 717.07 612.39 715.52C614.94 707.4 617.87 700.35 621.56 693.8L637.08 693.97C657.09 694.19 676.48 691.03 696.19 686.51C700.84 685.44 704.72 685.38 707.59 680.57C707.86 680.24 708.54 679.64 708.83 679.35C709.27 678.93 708.8 676.91 708.2 677.02L705.23 677.58C704.08 677.8 701.13 677.94 699.92 677.67C698.79 677.42 697.94 675.59 697.2 674.21L711.35 674C717.13 680.47 713.73 687.54 709.11 693.1C708.25 694.14 707.96 697.22 706.98 697.94C705.83 698.78 703.29 699 700.68 699.45L706.17 706.77L692.99 714.77C692.35 716.78 696.64 719.63 698.63 719.53C703.39 719.28 704.1 715.78 709.67 713.45C710.76 712.99 712.79 714.68 714.23 715.37C724.63 720.29 735.29 725.15 744.09 732.63L753.84 740.92C764.3 749.81 768.57 764.07 772.77 776.45L761.33 779.36C758.98 779.96 734.31 781.91 730.34 776.87C737.01 769.37 736.1 760.77 737.57 752.45C738.6 746.59 739.98 743.25 734.87 738.5C731.49 735.36 728.13 732.14 723.27 730.22C694.88 719.02 691.6 730.2 658.91 737.96C656.38 738.56 654.02 740 653.21 741.92C652.4 743.86 653.16 748.98 655.83 748.78C659.21 748.53 662.72 747.57 666.06 746.8L662.87 767.18C652.27 764.99 643.84 769.29 635.3 775.11C634.2 774.82 634.17 771.05 634.36 769.38C631.22 769.45 628.25 769.19 625.3 767.6C622.53 766.11 613.91 765.25 613.7 769.39C613.41 775.02 614.39 780.25 612.1 785.98C600.82 814.18 601.14 793.44 597.48 809.9C595.79 802.87 597.49 806.94 590 798.14C589.42 797.46 587.42 796.87 586.94 797.62C584.06 802.13 587.64 813.13 583.04 832.69C582.47 835.1 579.81 847.88 581.86 848.32C585.09 849 592.75 845.04 593.76 848.33C595.09 852.66 596.36 855.81 597.88 859.5C602.06 869.68 593.43 876.29 603.57 894.08C605.28 897.08 610.85 908.03 604.46 909.2C599.72 910.07 596.02 910.35 590.78 910.59L590.84 910.62ZM711.09 655.89L698.3 657.07C695.46 648.48 702.07 640.78 710.54 635.29L711.09 655.88V655.89ZM609.68 693.4C608.31 701.82 604.19 709.05 601.66 716.53C595.15 715.91 589.96 715.9 583.18 716.48C584.4 708.4 586.19 699.39 590.6 692.53C592.79 689.12 599.2 692.39 602.03 692.07C603.91 691.86 610.06 691.1 609.68 693.4ZM611.38 1002.61C605.45 980.91 604.38 961.79 608.13 939.84C616.39 939.57 624.47 939.56 632.37 940.97C629.72 953.19 628.88 963.18 628.59 974.81C628.21 990.26 633 991.13 634.21 1003.15L611.38 1002.61Z" fill="black"/>
<path d="M904.85 375.4C924.43 365.78 937.49 328.16 935.05 309.05L930.26 271.48C929.4 264.75 928.8 258.32 927.55 251.2C924.02 255.49 925.12 260.18 925.2 265.05L925.85 303.34C926.11 318.64 922.59 332.89 915.94 346.67C911.43 356.01 905.92 364.38 904.86 375.4H904.85Z" fill="black"/>
<path d="M965.2 288.09L962.67 262.43L960.57 285.45C962.06 295.41 961.55 305.05 960.53 315.34C959.93 321.43 957.26 327.66 961.28 333.74C970.48 326.84 968.69 296.92 965.2 288.08V288.09Z" fill="black"/>
<path d="M916.82 378.611C911.98 382.511 904.44 385.381 898.1 380.471C895.3 385.781 896.51 390.071 900.12 393.301C903.26 396.111 907.39 397.581 912.49 395.441C915.34 394.251 916.99 389.941 918.4 385.481L919.76 381.181C920.04 380.301 917.58 378.011 916.82 378.611Z" fill="black"/>
<path d="M901 363.07C901.53 361.39 900.75 357.96 898.71 357.39C895.93 356.62 893.71 359.06 893.07 361.22C892.64 362.69 893.4 366.09 895.53 366.84C898.19 367.77 900.39 364.98 901 363.07Z" fill="black"/>
<path d="M943.08 740.011C942.86 739.411 940.92 740.721 940.67 741.751C937.63 754.091 936.62 770.131 937.95 783.381C938.54 789.231 937.22 794.971 937.33 800.901L937.58 813.691L935.84 828.181C935.94 827.361 930.29 868.191 935.3 861.671C951.95 839.991 944.65 786.511 942.41 759.271C941.8 751.841 944.83 744.801 943.09 740.011H943.08Z" fill="black"/>
<path d="M913.99 842.63C919.55 840.75 920.87 830.22 923.03 831.29L925.77 832.64C928.94 821.02 930.59 808.59 927.9 796.45C926.26 798.39 923.8 802.17 921.96 801.99C918.94 800.21 915.51 796.16 912.78 793.58C909.01 799.82 913.99 805.59 913.99 811.61V842.63Z" fill="black"/>
<path d="M937.889 728.77C940.569 725.02 945.279 728.05 948.209 730.48C957.729 721.37 964.429 710.52 970.609 699.1C972.599 695.42 976.089 691.71 972.869 687.63L965.349 695.57C955.869 705.58 947.699 716.46 937.569 725.77C933.919 729.12 929.409 732.77 932.809 738.78C934.689 735.28 935.989 731.45 937.899 728.77H937.889Z" fill="black"/>
<path d="M953.12 848.161C955.71 849.561 960.56 849.761 961.18 845.981C961.57 843.581 956.7 838.711 954.54 839.741C952.2 840.861 952.28 846.061 953.12 848.171V848.161Z" fill="black"/>
<path d="M639.31 747.12C642.37 745.71 644.26 736.78 644.57 732.92C644.37 730.4 638.56 732.43 637.82 734.92C636.96 737.85 635.51 742.09 634.97 744.71C634.73 745.91 638.21 747.61 639.3 747.11L639.31 747.12Z" fill="black"/>
<path d="M615.91 746.861C620.03 748.671 623.54 748.521 627.13 745.951C624.38 744.201 622.32 743.281 620.57 743.321C619.17 743.361 617.14 745.241 615.91 746.861Z" fill="black"/>
<path d="M686.74 777.92C702.62 775.56 702.58 770.67 716.99 771.03C718.5 771.07 721.18 769.94 721.34 768.71C722.27 761.4 695.39 761.2 690.53 761.68C686.1 762.11 681.16 765.82 679.55 769.65C677.88 773.62 682.85 778.5 686.75 777.92H686.74Z" fill="black"/>
<path d="M715.94 754.26C719.39 749.82 717.55 742.53 713.81 739.22C712.08 737.69 708.239 738.42 707.419 740.02C704.779 745.24 714.43 746.18 712.52 751C710.66 755.69 701.759 752.35 699.729 757.23C704.659 760.48 712.77 758.33 715.94 754.26Z" fill="black"/>
<path d="M691.37 752.21C693.18 752.44 695.08 750.19 695.53 748.4L698.37 737.07C692.22 738.76 688.17 740.79 683.01 743.93L687.96 747.71C688.9 749.71 690.01 752.04 691.36 752.21H691.37Z" fill="black"/>
<path d="M594.26 374.13C596.81 377.1 602.49 374.68 604 371.03C609.35 358.1 622.51 360.89 620.74 355.03C620.28 353.5 617.8 351.81 615.96 351.23C607.34 348.52 599.83 350.89 596.05 359.49C594.18 363.76 590.25 369.47 594.25 374.13H594.26Z" fill="black"/>
<path d="M607.489 346.53C609.889 346.58 612.579 345.02 612.879 343.57C613.189 342.05 613.009 338.61 611.669 338.03C610.519 337.53 607.959 337.45 606.259 337.59C603.339 337.84 601.509 340.18 601.879 342.72C602.179 344.79 604.329 346.46 607.489 346.53Z" fill="black"/>
<path d="M595.75 352.2C597.65 350.99 598.11 347.34 596.77 345.89C595.69 344.72 592.6 344.23 590.89 345.04C588.53 346.16 587.43 349.59 588.26 351.38C589.4 353.85 592.77 354.09 595.75 352.2Z" fill="black"/>
<path d="M753.41 436.561C757.81 434.291 756.01 429.211 753.01 427.641C750.25 426.201 745.77 425.621 744.34 429.961C743.71 431.861 744.93 435.331 746.47 436.161C747.9 436.941 751.81 437.381 753.41 436.561Z" fill="black"/>
<path d="M751.34 448.321C755 450.691 755.51 446.651 768.05 444.101C768.99 443.911 771.04 442.671 770.78 441.831C768.77 435.321 747.46 445.801 751.34 448.321Z" fill="black"/>
<path d="M766.82 426.66C764.55 427.89 764.299 431.65 765.799 432.81C767.179 433.89 770.28 434.27 771.82 433.6C773.62 432.82 774.309 429.58 773.429 428.23C772.199 426.35 769.23 425.35 766.82 426.65V426.66Z" fill="black"/>
<path d="M784 699.61L800.79 693.37C802.59 692.7 801.44 688.22 800.08 687.2C798.82 686.25 795.79 684.75 794.09 685.07L779.58 687.78C775.04 688.63 773.23 692.63 774.38 695.95C775.69 699.7 779.63 701.24 783.98 699.62L784 699.61Z" fill="black"/>
<path d="M991.36 776.15C992.55 776.08 992.85 772.18 992.11 771.32C988.76 767.48 979.16 769.88 973.88 771.32C971.74 771.9 971.11 776.09 972.12 777.91C974.74 782.64 978.17 776.91 991.35 776.15H991.36Z" fill="black"/>
<path d="M1002.69 752.691C1003.54 752.221 1003.52 750.061 1003.33 749.021C1003.15 748.061 1000.61 746.941 999.8 747.521C998.79 748.241 998.52 751.091 999.12 751.851C999.72 752.621 1001.85 753.161 1002.7 752.681L1002.69 752.691Z" fill="black"/>
<path d="M1162.01 270C1156.85 282.25 1155.9 305.33 1164.17 311.99C1196.82 353.42 1227.27 304.88 1275.09 345.55C1293.69 358.72 1284 470.34 1296.87 406.03C1315.33 279.04 1185.28 328.52 1190.87 290.06C1210.71 258.55 1219.8 218.38 1203.55 183.17C1166.23 86.1201 1056.5 107.71 973.61 96.2002C982.68 91.7502 991.84 87.4902 1001.26 84.0202C1006.86 81.9602 1012.57 80.1402 1018.32 78.4502C1030.81 76.9402 1043.46 77.4102 1056.17 76.4502C1122.21 70.2902 1196.61 74.8302 1235.28 142.05C1266.15 196.27 1213.25 265 1254.7 274.67C1257.27 276.01 1260.24 276.47 1263.01 275.4C1263.6 275.17 1264.15 274.92 1264.69 274.64C1264.85 274.69 1265.01 274.73 1265.19 274.74C1265.39 274.52 1265.56 274.28 1265.76 274.05C1274.1 269.05 1276.57 257.98 1277.07 247.74C1282.62 217.96 1275 175.66 1261.63 138.05C1233.47 74.0702 1159.19 39.5302 1093.9 39.7402C1036.35 36.1802 982.42 42.8302 933.55 58.6702C912.37 70.8502 905.27 100.69 925.41 119.89C949.73 134.72 980.89 132.54 1009.08 133.19C1102.86 120.29 1217.7 166.85 1162 269.99L1162.01 270Z" fill="black"/>
<path d="M205.18 428.109C209.04 417.57 210.44 405.88 213.42 395.109C214.1 393.68 214.81 392.259 215.56 390.859C218.91 384.549 222.8 378.48 227.26 372.9C232.34 366.549 237.69 360.37 241.56 353.18C245.17 346.48 248.08 339.579 252.5 333.329C256.81 327.249 261.7 321.61 265.87 315.42C274.44 302.73 280.98 287.8 280.71 272.23C280.39 254.22 271.55 238.09 262.63 222.98C262.09 222.06 261.46 221.29 260.79 220.63C257.02 212.34 252.22 204.59 246.41 198.92C198.06 152.82 124.73 184.55 90.6999 234.77C83.5699 250.16 69.2299 275.67 64.3199 296.93C64.4299 298.72 64.3699 300.59 64.1999 302.5C61.0899 311.6 58.4699 320.88 56.8199 330.25C54.1399 345.5 54.2099 360.93 60.5199 375.299C61.8599 378.35 63.4599 381.22 65.2799 383.91C65.8599 385.72 66.6399 387.92 67.6899 390.63C71.6299 410.85 107.72 428.97 122.6 421.17C126.26 420.69 129.71 418.479 131.22 414.049C135.05 402.859 131.17 390.99 125.02 381.42C119.72 373.18 113.11 366.06 112.07 355.92C110.93 344.92 112.04 332.789 113.49 321.859C114.86 311.549 118.25 301.99 123.38 292.99C128.44 284.13 134.57 275.9 140.94 267.94C147.05 260.29 153.56 252.57 161.33 246.54C167.57 241.71 175.04 237.85 183.01 237.21C193.37 236.38 203.68 240.01 212.62 244.96C215.63 246.63 218.52 248.43 220.35 251.27C221.03 252.84 221.65 254.44 222.24 256.06C223.13 260.23 222.7 264.82 222.23 268.9C220.85 280.65 217.85 292.399 213.92 303.579C208.54 313.1 203.39 323.669 196.9 330.549C181.35 353.4 171.85 381.7 169.7 409.34C152.96 532.44 111.64 437.72 29.3799 559.19C25.2899 569.96 -23.3401 621.32 14.0199 592.71C118.32 452.92 186.31 565.089 205.18 428.109Z" fill="black"/>
<path d="M418.56 1050.67C327.17 994.94 288.76 962.66 301.78 852.03C308.59 822.85 310.37 786.52 310.55 760.92C316.22 728.35 309.81 720.56 307.44 708.58C298.89 671.1 270.51 596.68 233.24 576.27C232.51 575.55 231.67 574.92 230.71 574.47C222.37 570.52 213.68 570.56 205.39 574.78C198.06 578.52 192.98 585.35 188.55 592.06C179.41 605.9 170.5 619.91 161.48 633.84C154 640.91 146.31 647.83 139.68 655.62C135.33 660.73 131.35 666.16 129.7 672.78C127.95 679.8 128.85 687.32 130.68 694.23C133.05 703.15 137.2 711.51 142.65 718.92C160.59 753.39 198 796.35 233.6 785.1C236.34 784.9 239.04 783.71 241.46 781.74C249.46 775.23 248.85 764.2 246.05 754.84C245.75 742.54 239.27 735.67 230.57 729.6C228.03 726.72 225.48 723.91 223.15 721.11C219.01 716.12 210.46 716.83 206.18 721.11C202.93 724.36 202.17 728.52 203.21 732.41C193.76 755.91 168.89 717.58 182.05 701.98C206.71 686.95 212.24 664.43 232.12 645.59C271.12 703.05 278.44 771.35 259.5 837.08C257.27 870.05 244.36 905 258.41 937.57C290.34 991.55 349.84 1032.76 406.1 1058.24C437.09 1073.99 465.75 1072.02 418.56 1050.67Z" fill="black"/>
<path d="M1267.26 561.91C1271.4 552.77 1273.7 542.84 1274.08 532.76C1274.32 526.3 1273.59 519.63 1272.14 513.34C1271.15 509.05 1269.61 504.93 1268.31 500.74C1268 499.6 1267.68 498.46 1267.34 497.33C1267.02 496.11 1266.73 494.88 1266.5 493.64C1266.21 492.05 1265.51 490.63 1264.54 489.42C1249.52 452.17 1212.43 428.02 1167.51 453.1C1158.63 458.9 1154.15 464.8 1151.53 470.18C1146.43 476.21 1142.59 483.48 1139.48 491C1139.27 491.05 1139.06 491.11 1138.84 491.16C1139.02 491.21 1139.18 491.26 1139.35 491.32C1138.96 492.27 1138.58 493.22 1138.21 494.17C1135.47 501.28 1134.19 508.96 1135.69 516.34C1133.92 522.32 1133.18 528.49 1136.28 534.18C1139.46 540.01 1145.39 542.6 1151.8 543.71C1160.8 549.05 1174.13 548.44 1185.46 547.34C1186.68 546.63 1187.67 546.03 1188.48 545.51C1192.44 544.52 1195.87 541.94 1196.79 537.42C1197.9 532.01 1198.71 526.48 1199.02 520.96C1199.31 515.71 1198.72 510.45 1199.02 505.21C1199.42 498.25 1203.28 493.87 1209.39 491.04C1210.08 490.72 1210.7 490.32 1211.26 489.86C1231.98 498.81 1256.47 573.16 1169.89 618.99C1133.01 636.92 1153.68 515.23 1071.35 530.7C980.91 542 1088.89 528.96 1128.01 449.92C1141.23 423.59 1152.28 385.25 1139.92 356.04C1137.4 409.17 1116.12 447.94 1071.6 475.34C1046.24 498.51 1010.41 501.98 978.52 511.62C961.46 520.95 963.04 549.89 973.83 563.6C988.91 571.18 1009.14 577.24 1025.49 572.38C1101.91 565.13 1086.98 557.47 1117.35 634.29C1164.98 703.24 1252.85 615.84 1267.25 561.94L1267.26 561.91Z" fill="black"/>
<path d="M1381.81 657.58C1372.48 635.48 1340.6 628.38 1315.69 630.81C1279.33 639.1 1254.65 675.35 1231.76 700.2C1223.47 707.95 1202.03 710.32 1193.11 721.78C1151.08 766.86 1219.95 830.47 1212.58 886.67C1211.77 929.41 1174.51 958.79 1154.28 988.62C1149.56 995.33 1138.03 996.18 1139.36 1003.7C1139.33 1006.81 1142.11 1008.3 1144.37 1007.89C1145.44 1008.84 1147.07 1009.13 1148.34 1007.79C1150.91 1005.09 1153.72 1002.73 1156.86 1000.71C1157.71 1000.16 1158.12 999.39 1158.22 998.6C1263.67 904.14 1241.09 881.76 1217.09 758.81C1244.35 743.19 1277.67 719.2 1293.98 692.86C1354.71 626.53 1367.37 731.28 1341.99 766.49C1334.38 776.15 1332.99 778.93 1323.92 782.17C1329.55 777.42 1333.74 771.28 1335.06 763.18C1336.5 754.34 1333.99 745.09 1327.4 738.81C1320.36 732.1 1309.51 730.72 1300.25 731.76C1283.26 733.66 1266.47 742.75 1257.09 757.32C1250.89 766.94 1249.3 779.05 1252.66 789.65C1256.87 852.11 1351.91 825.83 1376.44 773.52C1402.66 741.19 1398.74 691.38 1381.84 657.58H1381.81Z" fill="black"/>
<path d="M660.84 7.21998C635.3 -3.77002 495.35 -11.25 505.98 55.59C508.58 81.95 529.36 81.03 548.56 85.01C555.65 85.78 562.43 88.8 575.44 89.3C592.74 89.96 617.45 92.17 618.78 69.31C621.57 46.79 588.15 59.24 575.66 53C531.98 48.79 563.69 36.98 586.74 35.22C620.78 28.13 726.89 39.66 690.26 91.82C647.18 112.36 588.46 98.39 541.9 110.55C494.08 112.57 438.01 90.9 402.26 135.56C392.79 146.02 369.21 175.14 368.73 189.2C368.49 189.93 368.56 190.62 368.82 191.22C368.95 192.07 369.2 192.84 369.57 193.52C369.87 193.3 370.14 193.07 370.38 192.83C371.65 193.47 373.26 193.31 374.12 191.69C376.81 186.6 379.12 181.34 381.05 175.92C381.09 175.8 381.11 175.68 381.14 175.57C426 107.75 456.92 122.65 530.2 135.18C563.01 137.38 590.61 130.07 623.85 129.52C647.94 128.72 674.64 131.72 696.76 120.39C759.14 82.24 717.65 21.46 660.83 7.20998L660.84 7.21998Z" fill="black"/>
<path d="M251.84 378.99C248.53 382.56 246.72 386.85 245.62 391.34C243.87 394.75 242.12 398.16 240.41 401.59C232.26 417.9 226.04 435.86 230.53 454.21C239.49 490.79 286.29 497.16 317.3 490.58C325.92 488.75 334.2 485.84 342.07 482.07C348.99 479.97 355.57 477.46 361.34 474.68C368.05 464.33 376.5 469.56 387.1 455.7C393.84 437.12 391.1 415.29 387.36 396.85C379.7 365.91 319.65 356.62 312.03 389.08C310.08 424.77 324.45 412.59 349.64 413.11C379.31 439.48 310.33 440.69 306.97 442.25C301.44 446.79 291.66 441.42 287.65 436.34C285 434.21 282.96 431.29 281.9 427.28C278.15 413.12 286 398.05 288.06 384.21C288.41 381.88 289.88 380.02 291.82 378.76C297.42 359.77 307.13 338.15 323.86 323.18C341.17 308.1 344.28 306.58 354.71 306.98C363.3 284.22 296.02 312.36 288.54 322.91C268.21 336.95 261.96 358.29 251.83 379L251.84 378.99Z" fill="black"/>
<path d="M1334.69 480.39C1332.51 484.75 1331.97 489.37 1332.16 493.99C1331.43 497.75 1330.71 501.52 1330.02 505.29C1326.74 523.23 1325.78 542.21 1335.22 558.57C1354.04 591.2 1400.75 584.24 1428.7 569.27C1436.46 565.11 1443.6 560 1450.11 554.19C1456.17 550.24 1461.79 546 1466.55 541.71C1470.1 529.9 1479.68 532.56 1485.99 516.29C1487.28 496.57 1478.55 476.37 1469.82 459.7C1453.83 432.13 1393.57 439.97 1395.32 473.27C1403.41 508.08 1413.81 492.38 1438.14 485.85C1473.99 502.89 1408.09 523.31 1405.3 525.75C1401.26 531.65 1390.37 529.23 1385.1 525.47C1381.97 524.17 1379.19 521.93 1377.05 518.37C1369.5 505.82 1372.82 489.16 1370.94 475.29C1370.62 472.96 1371.52 470.76 1373.03 469.01C1373.11 449.21 1376.4 425.74 1388.29 406.69C1400.7 387.38 1403.26 385.05 1413.39 382.52C1415.29 358.27 1358.54 404.07 1354.3 416.28C1338.7 435.44 1338.66 457.67 1334.7 480.39H1334.69Z" fill="black"/>
<path d="M549.48 498.76C549.02 498.73 548.57 498.75 548.12 498.79C490.64 484.27 437.98 458.4 437.92 393.59C416.49 440.99 449.71 504.37 497.24 522.08C466.21 528.68 439.65 543.03 427.25 572.17C427.25 572.4 427.23 572.63 427.19 572.85C426.36 574.1 425.53 575.36 424.73 576.62C422.61 578.49 420.1 579.87 421.4 582.1C419.74 584.98 418.19 587.93 416.79 590.96C416.6 591.28 416.45 591.58 416.37 591.88C414.96 595.02 413.71 598.25 412.67 601.62C409.68 611.34 408.19 621.44 407.26 631.6C400.24 653.1 392.31 666.9 383.52 627.98C383.08 627.07 382.78 626.09 382.61 625.09C385.75 613.4 392.18 601.99 396.52 591.55C403.35 575.09 407.47 555 395.99 540.17C389.13 528.29 369.55 524.26 359.07 534.01C347.82 537.57 341.42 550.03 337.91 561.01C333.23 575.67 331.64 591.34 331.18 606.66C331.12 608.5 331.1 610.37 331.09 612.24C330.66 612.48 330.2 612.68 329.71 612.81C330.18 612.72 330.64 612.67 331.09 612.66C331.09 626.21 332.62 640.33 337.33 653.03C337.61 656.18 339.49 659.27 341.56 662.37C342.81 664.67 344.2 666.91 345.74 669.05C346.31 670.18 346.79 671.31 347.08 672.46C358.58 699.68 399.85 708.17 420.4 697.14C436.99 689.67 444.43 674.99 449.45 659.51C457.58 643.12 459.43 624.6 466.53 607.72C473.37 591.48 485.21 577.29 499.87 567.55C500.7 567 501.45 566.35 502.13 565.65C519.86 559.9 538.73 555.61 549.73 543.26C551.29 541.56 553.68 540.98 555.7 539C558.64 537.19 561.32 535.01 563.55 532.11C573.65 518.95 566.71 499.73 549.46 498.75L549.48 498.76Z" fill="black"/>
</g>
<defs>
<clipPath id="clip0_177_1095">
<rect width="1486.11" height="1068.6" fill="white"/>
</clipPath>
</defs>
</svg>
