<svg width="984" height="1152" viewBox="0 0 984 1152" fill="none" xmlns="http://www.w3.org/2000/svg">
<g clip-path="url(#clip0_177_1071)">
<path d="M966.67 926.85C962.6 917.96 956.05 915.06 948.12 911.35C935.69 905.54 912.45 898.43 900.5 904.83C899.16 905.55 895.01 905.67 895.07 904.33L895.29 899.24C897.41 850.58 893.71 802.31 882.48 755.22C877.48 734.27 858.92 707.2 845.32 690.77L828.38 670.31C814.48 653.52 798.69 639.01 782.84 624.42C764.51 607.56 736.58 587.39 715.66 573.79C675.05 547.39 658.18 544.58 614.86 525.64C600.69 519.45 584.52 514.6 573.63 502.97C571.27 497.76 568.13 489.86 565.48 484.76C556.58 467.62 565.41 449.31 580.58 439.72C585.72 436.48 590.52 434.53 596.06 432.14L635.95 414.97C646.09 410.61 655.43 405.81 666.52 403.09L707.83 392.95C726.66 388.33 744.25 383.22 759.86 371.75C808.71 349.62 828.97 295.32 826.95 244.23L823.18 148.37C835.34 158.97 849.95 165.95 864.61 161.86C875.22 158.9 886.93 156.88 895.22 149.72C907.77 138.88 919.44 123.36 919.14 106.16C918.96 95.86 914.35 84.6 910.96 75.05C905.12 58.55 890.69 48.81 877.26 39.34L860.16 27.28C854.18 23.06 847.9 18.04 840.32 16.42C812.82 10.54 785.73 9.51998 757.62 7.77998L667.95 2.20998C638.8 0.399977 611 -1.10002 581.78 1.06998C549.83 3.43998 519.14 0.889977 487.24 1.82998L435.61 3.35998L313.62 4.81998C278.97 5.22998 245.99 11.11 212.66 19.54C193.84 24.3 165.18 29.65 148.86 39.96C142.92 43.71 136.49 46.67 131.47 52.23C123.34 61.22 114.14 69.46 107.36 79.84C98.6101 93.23 90.4701 109.01 87.8201 125.23C84.5501 145.16 93.4601 166.32 104.17 182.29C108.05 188.07 157.1 197.31 168.23 176.69C169.68 185.19 169.9 191.98 170.36 199.86C172.87 243.04 180.16 288.25 206.04 324.4C229.87 357.7 238.66 360.47 274.2 376.18L290.63 383.45C315.76 394.57 339.74 404.39 363.23 418.7C368.08 421.66 373.23 423.34 377.75 427.05C389.25 436.5 401.24 446.77 406.63 460.4C410.23 469.51 408.52 475.2 405.18 482.49C400.93 491.76 395.06 495.51 387.11 501.27L363.46 518.43C350.86 527.57 349.13 525.48 331.05 533.57L306.9 544.37C294.66 549.85 281.78 554.23 270.31 561.05L251.73 572.1C238.57 579.92 226.34 589.73 214.57 600.05C206.68 606.97 200.33 616.23 193.34 624.25C189.57 628.58 186.95 633.92 183.72 638.2C175.17 649.54 170.06 660.65 163.96 673.38L152.49 697.32L142.08 726.85L136.15 748.74L129.41 775.37L125.41 798.65C123.29 810.99 120.1 822.6 117.46 834.84L112.96 855.73L109.16 877.37C106.52 892.41 105.22 915.13 105.27 933.02C100.45 925.1 92.7901 919.46 83.1501 917.92C56.8801 913.73 31.9701 937.35 15.2001 954.63C12.8101 957.09 12.4801 959.98 13.3501 962.48C4.24005 978.48 -0.949948 997.24 0.150052 1015.54C0.870052 1027.44 10.1701 1037.04 13.9201 1047.27C21.0701 1066.77 22.7401 1060.67 35.7401 1078.84C43.5701 1082.09 50.2701 1085.33 56.8101 1090.32C70.4801 1100.73 86.1801 1106.22 101.82 1113.19C119.61 1121.11 138.53 1124.07 158.03 1126.15L187.19 1129.25C211.69 1131.86 232.27 1132.12 256.16 1132L292.99 1131.8C300.94 1131.76 308.12 1132.56 316.15 1132.71C335.4 1133.06 354.15 1133.41 373.08 1134.84C375.97 1135.06 378.79 1135.27 381.56 1135.46C431.09 1142.3 480.44 1151.08 530.6 1147.11C531.86 1147.01 532.96 1146.68 533.91 1146.18C572.04 1147.24 610.07 1152.48 648.28 1151.23C660.38 1150.84 672.5 1149.99 684.52 1148.53C689.89 1147.88 695.29 1147.14 700.42 1145.34C705.73 1143.48 710.47 1141.18 716.14 1140.6C739.38 1138.22 762.34 1136.21 785.28 1131.51C787.9 1130.97 790.51 1130.39 793.12 1129.81C796.71 1129.74 800.31 1129.72 803.96 1129.78C813.51 1129.93 823.04 1124.26 832.32 1121.92C871.25 1112.1 886.31 1108.04 922.09 1090.27C925.63 1088.51 930.77 1083.64 934.44 1081.2C944.33 1074.62 949.88 1063.46 956.87 1054.51C964.85 1044.28 970.21 1034.54 974.22 1022.21C977.75 1011.36 982.76 999.67 983.06 987.99C983.62 966.41 975.33 945.72 966.68 926.84L966.67 926.85ZM75.7501 992.8C66.6701 1016.4 59.9601 1042.46 68.8201 1068.76C63.4001 1069.96 41.3501 1047.46 40.7901 1043.27C37.1901 1016.5 46.0301 990.08 60.3001 968.11L75.1801 961.84C76.4401 961.27 74.9401 956.83 73.6601 956.38C47.3301 947.15 31.5301 990.22 27.8201 1010.96C24.7601 1001.87 27.4601 992.62 27.4301 984.12C27.3701 969.17 34.3801 960.19 46.0601 951.54C52.6501 946.65 65.3701 937.51 73.7101 946.46C79.4201 952.58 82.8201 962.89 93.4001 967.28C93.0201 968.96 92.6101 970.63 92.1901 972.28C87.8401 978.31 82.0101 980.65 74.3201 980.73C71.8601 983.82 76.8 990.13 75.7701 992.81L75.7501 992.8ZM117.11 1057.71L120.65 1091.77L89.1301 1080.59C78.11 1054.76 78.4201 1026.67 87.34 1000.08C93.4201 999.16 98.6201 1001.77 104.21 1002.59C112.24 1003.77 120.04 1003.7 127.37 1007.92C117.61 1023.41 115.33 1040.48 117.12 1057.71H117.11ZM962.55 1000.54C961.85 1002.2 961.53 1004.11 961.24 1006.09C959.94 1006.98 958.86 1008.31 958.22 1010.14C957.38 1012.52 955.88 1014.62 954.15 1016.56C949.87 1000.01 941.99 983.5 927.33 974.44L922.12 971.22C919.03 969.31 927.48 962.22 921.3 956.37C915.83 951.2 906.64 963.27 900.59 960.78C904.57 955.4 907.36 951.16 910.79 947.17C917.59 939.24 929.39 943.16 937.34 947.52C947.63 953.15 952.63 963.4 959.32 972.41C966.08 981.52 967.15 989.55 962.55 1000.53V1000.54ZM354.57 760.23C355.23 758.5 360.72 757.72 362.39 756.96L386.3 746C388.22 745.12 390.18 740.44 392.25 740.31C397.35 739.97 420.2 748.91 427.01 753.74C425.1 755.52 422.65 756.89 422.86 758.39L423.87 765.79C424.11 767.55 424.69 770.42 425.04 771.89C425.35 773.18 428.33 773.41 429.75 773.21C431.28 773 433.08 770.15 433.3 768.46L434.32 760.73C436.24 762.06 438.39 763.54 439.21 764.62C439.15 764.55 430.15 801.8 426.96 802.77C421.71 803.39 415.17 804.91 409.68 806.57C395.95 810.74 380.45 810.12 366.59 808.63C347.55 806.59 354.95 773.32 354.57 760.23ZM456.23 693.03C450.17 691.84 443.95 689.71 438.41 687.36C444.69 672.83 450.03 660.13 455.11 646.01C459.64 633.44 511.78 620.22 531.76 630.32L553.67 641.39C556.32 642.73 564.73 642.67 564.78 645.62C564.87 650.68 559.82 654.48 556.03 658.08L546.1 647.33C538.58 639.19 524.99 633.16 513.42 633.19C506.3 633.21 498.33 638.3 492.28 639.95L489.9 635.44C489.35 634.4 485.78 636.63 485.16 637.86C479.32 649.39 467.74 647.83 460.55 653.37C459.25 654.38 459.6 657.83 458.98 659.73C455.39 670.75 455.78 680.04 456.22 693.04L456.23 693.03ZM415.36 606.27L453.51 558.66C463.23 546.53 470.65 532.58 485.31 524.11C488.23 536.11 494.29 545.55 499.52 555.53C503.37 562.88 507.02 568.42 512.92 574.39C518.89 580.43 524.05 588.85 532.64 591.63L596.23 612.16C597.46 618.21 595.23 623.6 592.95 628.92L587.27 642.17C584.1 649.58 571.35 677.78 562.62 677.09C560.12 676.89 558.27 669.14 560.06 667.33C564.87 662.49 580.77 646.73 580.99 642.5C581.43 634.17 564.58 630.21 557.14 628.16C537.92 622.85 517.53 613.67 497.04 616.77C483.06 618.88 467.76 625.69 455.66 632.14C444.14 638.28 443.43 655.47 434.72 664.69C428.74 662.35 428.61 652.79 425.59 648.28C415.02 632.52 433.02 634.09 415.37 606.27H415.36ZM602.1 572.76C598.64 569.91 600.53 559.99 604.18 558.73C609.78 556.79 614.19 563.08 615.43 567.46L620.68 583.24C614.13 580.3 607.82 577.47 602.1 572.76ZM623.55 635.24C617.79 632.89 609.27 628.97 604.7 625.44C603.25 624.32 603.67 617.81 605.33 617.16C607.56 616.28 627.08 623.15 623.55 635.23V635.24ZM632.46 703.47C640.96 706.32 646.26 713.09 646.5 721.25C646.68 727.35 640.38 739.95 632.78 739.58C618.65 730.12 606.08 718.62 590.93 710.38C594.88 694.52 622.19 700.02 632.46 703.46V703.47ZM647.86 746.46C655.9 750.57 661.17 758.02 661.32 767.36C661.34 768.53 656.2 768.98 655.25 767.96L644.11 756.08C643.04 754.94 642.64 751.14 642.86 749.66C643.08 748.18 646.38 745.69 647.87 746.45L647.86 746.46ZM475.93 1055.62C479.84 1070.27 483.18 1087.97 483.8 1104.44L447.38 1103.54L447.08 1083.9C446.81 1066.65 451.63 1047.77 454.85 1031.08C459.51 1028.04 466.81 1028.19 472.61 1028.81C467.9 1040.06 473.54 1046.63 475.94 1055.62H475.93ZM404.85 1065.61L412.74 1028.96L437.27 1028.61C437.96 1034.46 436.24 1040.36 435.92 1046.29L434.07 1081.05C433.74 1087.2 437.52 1093.78 438.39 1101.39L404.38 1099.81C405.04 1087.72 402.49 1076.56 404.84 1065.62L404.85 1065.61ZM419.91 972.59C407.66 963.74 396.62 954.17 389.79 941.36C387.26 936.62 381.25 925.73 387.62 922.22C394.33 921.16 408.1 924.4 413.69 928.81L440.86 950.24C443.2 952.08 449.77 952.11 453.5 952.79C455.88 961.72 458.91 969.41 463.04 976.94C448.36 985.88 432.64 981.79 419.92 972.59H419.91ZM390.59 1100.16L362.91 1101.36L360.82 1081.49C359.91 1072.83 359.37 1066.77 360.79 1058.15L365.94 1026.99C375.64 1029.22 395.13 1024.02 393.19 1031.54C387.35 1054.09 383.9 1075.94 390.6 1100.16H390.59ZM456.46 931.16C451.37 935.82 445.42 926.08 441.71 923.94C434.24 919.65 426.54 915 423.02 906.38C422.14 904.23 416.26 903.11 414.04 902.05C408.66 899.49 403.53 899.22 397.67 898.66C390.95 898.02 384.94 894.67 376.96 892.55L381.64 879.94C400.48 890.83 397.17 868.28 408.2 882.71C412.31 888.09 421.95 880.54 426.52 882.19C438.62 886.55 456.82 901.59 455.88 901.34C462.1 902.98 460.74 891.7 483.59 887.32C486.83 886.7 495.08 882.65 496.13 888.53C495.53 891.84 491.38 899.2 488.13 902.17L456.46 931.13V931.16ZM434.31 867.83L418.52 872.17L414.55 873.46C413.89 873.67 412.11 872.05 412.48 871.47C415.67 866.34 423.52 858.64 418 854.39C408.45 847.04 403.05 876.23 389.16 870.88C391.2 853.46 410.07 842.49 425.1 840.4C464.14 834.97 496.52 836.7 535.27 835.48C542.23 847.04 551.7 846.91 553.37 855.84C553.69 857.54 548.81 859.98 547.61 858.99L542.54 854.78C538.58 851.49 531.6 854.85 526.43 854.13C454.96 844.15 451.52 863.12 434.31 867.84V867.83ZM539.76 794.89C534.27 792.39 531.66 781.27 535.3 775.86C538.03 779.07 540.52 782.54 542.44 784.24C544.61 786.15 550.95 785.79 553.04 784.01C558.57 779.3 557.55 768.51 550.16 766.23C546.6 765.13 541.34 767.3 536.92 768.68C534.45 761.49 535.45 752.45 542.5 747.58C543.97 753.71 545.15 760.23 550.67 761.29C566.72 764.35 547.32 746.68 553.64 741.05L567.95 750.8C575.53 755.96 582.36 748.79 587.28 743.3C591.18 738.95 599.16 738.36 605.05 737.89C605.15 741.22 602.86 747.72 600.19 747.72C597.54 747.72 593.91 747.32 592.11 747.58C589.62 747.94 585.47 758.31 591.97 762.71C595.02 764.77 598.67 760.39 601.08 760.12L621.12 757.91C614.31 774.46 586.34 793.72 567.59 794.36C558.99 794.65 548.52 798.91 539.75 794.91L539.76 794.89ZM575.77 723.11C575 720.89 571.22 718.17 569.19 716.73C568.46 716.22 569.29 712.99 570.06 713.52C570.84 714.04 572.58 716.06 573.44 716.57L588.85 725.68L582.73 736.23C581.54 738.28 575.34 741.23 572.83 740.8C566.69 738.33 558.47 734.4 553.83 730.09C551.75 726.34 560.83 719.08 563.27 719.47L564.8 730.45C565.15 732.96 571.03 733.78 573.87 732.46C575.99 731.47 576.6 725.55 575.75 723.11H575.77ZM607.2 737.22C611.94 740.3 615.16 743.28 617.34 748.22C618.66 751.21 609.49 753.17 608.93 750.62C607.88 745.81 607.48 742.08 607.2 737.22ZM631.73 761.27C631.11 769.82 628.87 775.97 626.25 784.25C623.98 785.99 621.89 787.55 620.45 788.37C618.84 789.28 613.89 787.42 613.09 785.46L631.74 761.26L631.73 761.27ZM473.85 657.75L480.8 671.79C481.84 673.89 488.51 674.63 490.08 672.86C497.51 664.48 477.9 657.48 485.19 652.9L491.41 648.99C497.35 645.26 506.67 645.37 509.82 649.82C511.08 651.59 510.94 656.31 509.71 657.39C505.77 660.84 506.32 657.58 499.08 661.25C498.17 661.71 499.03 664.7 499.94 665.15C500.85 665.6 502.77 666.38 504.06 666.77L507.86 667.91C508.83 668.2 510.23 670.65 509.38 671.2L505.44 673.77C504.33 674.5 502.65 677.01 502.55 678.3C502.43 679.85 505.95 681.57 507.51 681.25C515.02 679.73 516.48 673.62 518.24 667.28C518.9 664.91 523.62 661.04 522.17 658.37C520.42 655.14 516.94 648.64 519.35 646.85C523.16 644.02 528.55 649.25 531.49 651.1C539.94 656.4 545.4 662.06 549.6 670.71C555.45 682.76 551.92 697.63 538.37 702.71C533.82 704.41 527.38 707.25 522.52 707.75C509.03 709.17 496.38 708.66 482.91 706.51C477.53 705.65 469.75 698.85 468.93 693.33L464.45 663.01C464.65 660.2 472.11 657.62 473.86 657.72L473.85 657.75ZM518.38 806.62L534.99 827.01C531.06 831.18 526.63 828.29 521.97 827.59C510.06 825.81 497.62 828.42 485.62 828.55L463.57 828.77C451.2 828.89 439.47 829.55 426.99 832.25C419.29 822.27 411.18 821.52 412.5 815.78C413.1 813.18 418.24 809.24 421.54 810.65C452.94 824.1 487.72 822.74 518.37 806.63L518.38 806.62ZM376.77 900.74C370.45 911.28 365.87 934.24 372.17 945.53L382.61 964.25C385.16 968.82 363.88 976.55 361.74 977.2C352.62 979.99 342.03 977.52 332.44 977.96C323.79 978.36 314.78 980.82 306.27 978.77C283.37 973.24 292.7 972.85 279.38 964.15L285.48 957.01C304.54 934.72 320.64 916.58 347.49 901.75C362.88 893.25 359.02 915.15 376.76 900.73L376.77 900.74ZM349.51 1087.3L353.49 1101.63L315.46 1105.38L313.79 1077.27C313.28 1068.75 322.58 1032.99 330.6 1023.65L349.43 1026.33L346.06 1063.6C345.25 1072.56 347.18 1078.9 349.51 1087.31V1087.3ZM494.3 1059.83C494.19 1050.8 495.23 1041.31 489.15 1033.2C488.65 1030.58 515.21 1028.4 517.46 1034C528.97 1062.52 529.79 1073.77 532.3 1106.81L491.21 1104.62C496.24 1089.45 494.48 1075.13 494.29 1059.83H494.3ZM536.7 1033.07C545.37 1033.15 561.79 1028.94 564.14 1034.61C569.66 1047.96 573.15 1072.51 575.37 1088.27L578.45 1110.1L536.12 1107.64C542.69 1089.15 541.7 1053 536.69 1033.06L536.7 1033.07ZM589.07 1033.35C592.89 1032.71 609.46 1030.69 610.33 1031.28C622.61 1039.54 628.7 1095.65 626.99 1111.7C613.67 1112.27 601.6 1112.26 588.07 1111.08C589.14 1095.43 589.14 1082.55 589.71 1067.8L590.16 1056.01C588.68 1049.11 587.54 1040.32 589.07 1033.35ZM638.54 1053.29L635.76 1030.2L654.86 1028.83L669.32 1056.14C673.09 1073.55 674.46 1089.85 674.08 1109.88L637.08 1113.22C641.15 1092.21 640.98 1073.52 638.55 1053.29H638.54ZM828.8 930.86C828.02 927.51 826.6 919.88 828.4 916.77C833.69 913.2 841.27 909.89 847.43 907.38C844.77 925.29 859.43 947.89 853.25 956.07C847.32 963.92 836.15 965.41 826.94 967.37C804.42 972.17 782.38 974.59 759.41 978.04C743.46 980.43 726.97 981.86 710.37 980.08C706.66 979.68 707.92 960.1 752.17 963.36C760.71 963.99 770.67 960.05 778.61 957.41C791.76 953.04 804.61 949.46 818.17 946.42C825.84 944.7 830.84 939.67 828.8 930.86ZM766.4 1107.52C757.2 1108.64 747.95 1109.53 738.67 1110.3C736.73 1110.23 734.52 1110.25 731.92 1110.4C738.77 1092.03 736.95 1045.58 726.93 1030.12C725.86 1028.48 725.1 1022.69 727.27 1022.27C734.39 1020.87 742.27 1021.16 749.38 1022.13C774.03 1044.31 773.47 1076.39 766.41 1107.53L766.4 1107.52ZM810.38 1099.96C799.46 1102.5 788.42 1104.49 777.29 1106.08C785.51 1082.29 788.73 1057.97 783.44 1033.61C782.45 1029.04 778.28 1023.92 780.14 1019.51C787.24 1018.68 793.17 1017.65 799.65 1015.74C808.15 1023.37 810.79 1034.7 812.99 1045.3C816.93 1064.32 817.02 1081.91 810.37 1099.95L810.38 1099.96ZM712.19 1040.85C722.11 1063.3 725.36 1085.43 722.23 1110.04C711.36 1110.93 692.46 1112.62 683.54 1111.02L687.14 1087.21C689.42 1072.12 687.52 1056.16 685.42 1040.94C684.74 1035.98 681.22 1030.95 681.01 1025.69C688.78 1025.83 696.57 1023.71 703.57 1025.6C709.06 1027.08 710.24 1036.41 712.2 1040.85H712.19ZM860.53 1083.3C847.5 1089.17 834.19 1093.75 820.67 1097.38C832.79 1071.75 831.04 1036.84 822.73 1011.5C828.93 1009.18 839.15 1005.99 846.28 1009.7C857.5 1015.54 862.16 1025.29 866.8 1038.04C871.18 1050.09 869.08 1067.38 865.09 1081.17C863.57 1081.89 862.05 1082.61 860.52 1083.3H860.53ZM937.49 1032.9C931.72 1038.18 925.74 1043.22 919.55 1048C920.29 1030.96 916.96 1012.55 911.53 999.78C909.24 994.39 901.2 989.7 900.45 984.07C899.76 978.87 906.95 983.25 909.65 983.38C918.05 983.78 925.91 986.92 930.93 994.21C936.35 1002.09 945.1 1013.35 947.42 1023.35C944.18 1026.61 940.87 1029.8 937.48 1032.9H937.49ZM910.97 922.12C918.61 919.54 930.06 918.2 938 920.85C943.36 922.64 955.21 936.11 956.82 944.78C958.09 951.58 929.41 911.97 898.23 938.17C900.33 931.97 905.16 924.09 910.97 922.13V922.12ZM883.05 995.91C887.21 997.44 894.89 1002.52 897.02 1006.24C907.44 1024.44 910.86 1037.8 910.64 1054.58C899.1 1062.76 886.99 1070.14 874.41 1076.61C876.17 1069.29 883.63 1055.85 879.17 1033C876.82 1020.93 873.79 1010.36 864.44 1000.88C869.28 997.6 877.59 993.9 883.05 995.91ZM571.5 526.31C601.88 548.79 639.65 555.94 669.07 570.57C717.54 594.68 760.51 627.43 799.24 664.98C793.34 665.67 791.96 659.74 788.19 657.15C771.85 645.92 757.18 640.1 740.64 654.33C723.06 669.46 709.38 686.65 694.82 704.76C683.49 718.85 673.57 735.33 676.62 754.46C678.27 764.81 685.84 772.93 692.36 781.92L672.64 789.01L677.32 800.33C678.59 803.4 675.97 812.37 678.83 814.3L698.48 827.56C699.24 823.11 700.51 815.4 698 812.04C693.47 805.98 686.9 806.15 681.46 800.03L699.02 792.72C700.69 786.41 701.1 778 701.19 770.91C695.61 765.25 684.76 757.09 685.5 748.65C697.57 727.07 714.08 714.01 728.24 691.57C735.49 680.07 741.62 668.28 751.83 659.2C765.99 646.62 780.92 664.79 790.66 672.16C796.27 676.41 803.46 682.44 804.69 689.52C804.85 690.45 803.43 692.85 802.54 692.95C801.65 693.05 799.17 692.9 798.11 692.23L770.71 674.98C767.62 673.04 759.18 670.85 758.08 673.92C756.01 679.69 764.46 683.75 767.99 686.51C774.21 691.37 779.94 695.25 786.02 699.37C793.27 704.27 799.9 708.54 807.12 702.74C820.71 691.83 806.11 677.7 809.93 677.97C810.61 678.02 813 678.59 813.52 679.25L826.12 695.12C848.8 723.68 868.92 744.17 870.84 786.16C871.53 801.3 874.23 815.44 875.74 830.6C879.79 871.15 880.56 925.46 877.8 965.92C876.19 969.15 868.61 972.23 865.22 972.11C865.36 967.62 869.18 962.91 869.04 958.78C868.48 942.85 864.5 927.98 860.05 913.03C858.33 907.24 860.5 904.27 864.14 900.49C868.53 895.93 862.17 888.27 863.66 882.76C865.39 876.37 865.61 867.79 867.57 862.38C876.28 838.29 873.03 822.09 860.82 800.84C862.42 784.29 862.49 765.77 848.25 752.64L844.09 735.9C841.85 726.9 834.19 717.14 824.55 716.19C817.94 715.54 811.76 715.54 805.41 713.24C800.47 711.46 795.41 712.19 792.65 717.08C785.95 728.95 774.65 715.04 764.2 729.89C763.12 732.14 764.54 737.59 765.06 740.23C756.7 739.9 749.96 743.54 747.56 750.1C740.83 768.52 758.41 770.75 751.37 776.67C747.16 780.21 741.23 767.97 734.15 764.17C725.6 777.63 743.77 784.17 743.57 792C743.35 800.42 742.57 808.98 746.66 815.83C752.53 825.68 761.9 827.22 773.98 830.19L736.58 853.23C734.19 854.7 734.47 861.88 735.82 864.91C757.87 851.48 778.46 838.37 797.46 821.97C802.13 817.93 807.99 810.79 814.46 812.25C821.6 813.87 827.76 819.95 830.95 826.21C841.95 847.79 849.4 870.18 854.37 894.56C834.17 897.63 835.88 901.08 818.68 904.27C813.85 895.9 811.02 888.86 809 880.04L805.55 864.97C805.17 863.32 803.29 859.39 801.87 859.88C800.45 860.38 798.04 862.34 796.98 863.81L785.04 880.41L758.18 918.6C752.96 926.02 749.14 933.16 745.36 942.68C733.47 934.26 720.6 929.02 706.4 925.4L686.35 920.29C685.04 919.96 681.56 920.41 680.52 921.08C679.28 921.88 678.71 925.15 679.52 926.39C683.02 931.73 725.51 938.94 735.73 951.45C722.94 949.4 714.9 951.3 705.3 957.72C697.71 962.8 695.47 971.49 693.08 981.49C663.75 986.93 667.73 975.94 652.91 979.9L662.28 950.63C670.01 926.48 667.18 865.17 665.36 838.84L663.96 818.49C659.19 824.37 660.25 830.53 659.61 837.51C654.88 888.86 655.56 939.08 630.44 983.63L605.27 987.77L560.43 994.15C561.24 981.14 562.38 961.04 574.97 954.43C580.06 951.76 584.6 948.27 589.4 947.32L630.16 939.24C633.48 938.58 633.54 929.11 633.2 925.74L598.02 927.46C588.55 927.92 580.67 931.01 571.66 935.74L564.99 927.12C551.34 932.63 540.06 941.73 526.46 946.65L499.33 956.48C490.1 959.82 483.56 966.73 474.79 972.56C470.44 965.19 465.83 956.9 466.41 948.29C466.68 944.33 474.89 941.42 477.47 938.83C485.16 931.16 492.83 925.2 500.56 917.92L519.71 899.88L538.79 885.41C542.77 882.39 548.89 879.97 553.31 877.66C563.24 872.47 572.31 874.55 581.5 879.87L630.55 908.25C631.85 909 635.02 909.45 636.34 909.35C637.66 909.25 638.72 905.77 638.86 904.21L644.41 842.19C644.98 835.81 645.69 831.95 646.43 825.03L648.19 808.59C648.56 805.15 639.48 804.83 635.24 803.12C632.11 801.86 633.16 795.09 634.61 792.17L644.25 772.75C649.07 775.55 654.45 783.08 660.94 779.34C670.29 773.95 671.1 755.79 662.81 748.46C659.14 745.21 653.52 743.85 648.75 741.18C655.01 731.67 656.53 722.53 652.48 711.56C644.14 688.99 622.13 694.9 628.23 683.34C634.56 671.34 629.97 651.35 636.94 660.83C642.59 668.53 655.83 670.51 661.65 662.2C669.99 650.29 670.09 615.69 655.43 603.65C648.56 598.01 637.78 595.61 632.92 587.64C623.02 571.42 623.66 553.96 606.33 549.86C602.98 549.07 596.21 549.16 593.83 552.11C591.82 554.6 591.2 559.35 589.72 565.15C582.11 557.48 571.31 549.43 567.01 539.31L557.11 516.02C563.46 518.1 566.77 522.83 571.47 526.3L571.5 526.31ZM763.48 759.37L767.45 762.58C768.33 763.29 766.82 766.77 765.76 766.37C763.18 765.39 755.8 759.83 756.25 755.93C757.13 748.42 767.68 745.63 769.49 746.09C770.34 746.31 780.92 753.77 777.42 758.08C775.77 760.11 771.15 762.12 770.92 760.02C770.49 756.02 770.16 753.03 769.11 751.74C768.06 750.45 764.18 751.06 763.11 752.33C762.05 753.6 762.2 758.35 763.46 759.37H763.48ZM757.95 776.89C758.27 775.41 760.62 772.95 762.04 772.86C767 772.56 763.16 779.11 769.19 785.02C770.94 786.73 777.88 787.91 778.3 785.55C778.86 782.46 774.21 777.9 774.3 775.1C774.48 769.67 779.84 765.23 784.05 763.27C783.61 767.39 782.53 771.85 782.86 774.38C783.85 781.93 791.73 785.6 797.65 785.85C804.84 786.15 809.93 782.24 814.41 775.24C818.58 783.82 814.96 790.67 809.73 796.75C797.75 810.7 782.03 819.46 763.32 816.6C756.43 815.55 750.54 810.01 751.37 801.25C752.15 793.06 756.12 785.37 757.93 776.88L757.95 776.89ZM790.22 758.44C788.98 759.08 785.57 759.38 785.29 758.06C785.01 756.72 785.29 752.27 786.55 751.8C788.31 751.14 791.6 752.06 791.67 753.42C791.76 755.1 791.4 757.84 790.22 758.45V758.44ZM792.82 760.79C797.27 756.73 808.98 761.06 808.32 767.96C807.93 772.05 803.52 775.43 800.93 776.17C797.72 777.08 792.72 775.35 791.37 773.02C789.52 769.82 789.81 763.54 792.82 760.8V760.79ZM629.28 617.63L635.89 599.4C641.53 603.66 647.27 606.77 650.77 612.07C658.93 624.44 656.88 652.8 648.4 653.94C638.93 655.21 636.03 622.51 629.28 617.64V617.63ZM561.36 418.42C544.06 434.76 538.73 451.22 530.82 453.81C528.14 454.69 521.7 453.25 520.99 450.5C516.85 434.54 524.89 420.73 534.49 408.49C538.18 408.4 570.1 410.16 561.35 418.42H561.36ZM659 382.16C657.45 381.54 659.55 389.81 637.92 389.5C632.14 389.42 635.44 381.91 634.95 378.92L630.93 354.62L626.5 338.38C633.73 335.39 640.02 330.78 646.58 329C650.28 328.47 658.59 331.29 661.61 331.97C658.34 338.69 647.73 342.57 648.65 350.11C650 361.14 663.57 366.54 673.06 368.79L697.85 374.65C684.27 382.08 671.01 386.96 659 382.17V382.16ZM749.18 360.37C748.18 361.55 744.52 358.48 745.26 356.5C746.24 353.87 750.73 353.81 753.62 355.14L749.19 360.38L749.18 360.37ZM766.21 326.59C765.22 334.55 751.31 339.03 741.15 339.52L705.45 341.23C701.93 341.4 695.12 344.57 692.03 346.06C690.49 346.8 690.18 351.17 690.99 352.6C691.8 354.03 694.95 355.8 697.3 355.66L728.48 353.8C744.5 352.85 716.2 372.03 682.64 359.89C675.39 357.27 662.17 357.04 659.55 349.45C659.73 343.5 671.91 335.32 678.11 335.36C690.07 335.45 727.86 338.58 726.31 328.32C725.83 325.15 722.23 322.85 718.57 323.23C699.23 325.21 680.88 326.83 661.5 325.9C654.89 325.58 648.76 322.75 642.69 321.21C636.5 319.64 630.9 327.37 625.09 328.24C622.11 328.69 620.32 317.55 623.32 317.67L652.78 315.2C662.62 314.37 671.98 324.07 684.12 317.91C690.91 314.47 698.7 307.25 702.25 297.09C712.65 296.34 767.78 313.96 766.21 326.56V326.59ZM780.52 336.02C780.86 326.23 780.18 318.01 771.85 312.52C755.52 301.74 736.24 294.46 716.36 294.44H711.08C709.86 294.44 711.4 289.37 712.9 288.99C727.45 285.25 762.91 282.07 777.6 289.68C783.59 292.78 779.7 302.62 779.51 307.18C779.21 314.55 786.35 317.57 794.67 318.3C791.59 324.99 787.24 331.06 780.51 336.02H780.52ZM797.46 278.74C788.6 295.2 796.74 288.23 793.9 303.26C793.6 304.83 789.38 306.73 788.24 305.47L782.51 281.25C763.65 274.34 744.66 275.57 724.91 278.62C727.65 269.32 729.6 261.63 729.46 252.5L778.79 261.74C784.7 262.85 793.72 268.57 798.27 261.57C803.92 252.88 792.41 231.42 799.5 230.59C810.75 235.5 802.26 269.83 797.46 278.74ZM886.24 139.27C877.38 145.44 865.84 150.29 854.51 151.85C839.65 153.9 816.11 137.37 821.18 123.92C833.21 142.27 851.5 149.58 871.96 141.3C885.52 135.81 894.02 122.27 901.47 109C908.21 114 892.13 135.18 886.24 139.27ZM884.99 65.22C892.9 66.36 894.71 74.43 898.12 79.98C904.58 90.49 903.12 100.76 894.53 109.23C886.4 117.25 879.76 128.82 868.85 134.02C856.29 140.01 841.32 135.96 835.97 124.8C836.54 118.42 855.75 132.8 866.6 122.18C881.36 107.74 888.14 85.78 884.99 65.22ZM845.35 35.73C853.32 40.19 865.76 44.31 869.26 52.6C882.47 83.88 858.14 129.33 846.65 118.59L836.33 108.93C855.37 90.94 856.8 59.21 845.35 35.72V35.73ZM832.19 31.97C833.85 40.24 835.59 46.35 837.75 53.68C844.89 77.83 830.32 115.84 822.55 104.54C819.38 99.94 816.06 102.93 812.85 102.54C807.38 101.87 801.66 100 795.09 98.12C816.2 78.4 812.8 52.55 805.18 26.31L832.19 31.97ZM767.44 25.69C773.77 25.63 783.71 23.17 788.55 26.91C795.82 32.53 794.65 44.27 796.58 52.09C799.89 65.5 798.04 76.83 790.74 88.74C788.41 92.54 786.75 96.95 781.29 95.82L761.47 91.74C772.85 78.78 777.62 40.39 767.45 25.69H767.44ZM732.95 25.25C738.37 25 745.79 24.69 750.03 25.72C762.79 36.18 760.01 75.93 750.78 90.21L725.54 86.96C736.15 72.99 741.37 39.16 732.95 25.25ZM717.41 26.47C726.38 36.95 725.39 70.92 721 84.92L697.02 82.09C701.46 73.53 702.91 66.26 703.04 56.91C703.43 30.55 701.71 46.13 696.69 25.36L717.4 26.47H717.41ZM680.09 27.19C689.36 43.95 691.59 62.34 687.57 81.75L662.23 78.93C667.96 61.04 666.68 44.95 654.92 28.05L680.09 27.19ZM646.66 27.56C647.69 27.49 650.56 28.46 651.45 28.96C647.82 26.91 663.16 58.9 642.32 78.07C638.98 81.14 630.79 80.6 626.83 79.71C628.51 69.11 631.84 57.96 627.34 48.62L618.06 29.38L646.65 27.55L646.66 27.56ZM591.83 28.54C596.78 27.96 605.56 28.6 611.24 29.47C619.44 60.02 619.76 47.8 614.46 79.37L591.41 78.06C598.38 64.52 597.21 48.79 591.64 36.42C590.82 34.61 590.14 28.84 591.82 28.55L591.83 28.54ZM579.09 28.62C582.18 56.06 585.11 51.08 577.49 78.04C570.43 78.27 563.93 78.02 557.66 77.1C558.06 67.1 560.84 57.37 557.61 48.65L550.06 28.25C560.02 27.73 568.7 27.74 579.09 28.62ZM544.64 27.96L547.59 50.7C548.42 57.11 545.57 68.43 544.44 75.58C542.29 78.05 534.2 77.89 531.87 77.5C524.49 56.98 518.56 53.54 514.63 27.97H544.65L544.64 27.96ZM509.59 28.24C509.21 41.74 508.06 67.67 517.63 78.07L494.91 78.43C484.2 62.93 476.55 46.7 476.64 26.86L509.59 28.25V28.24ZM474.28 27.71C470.45 45.03 471.82 60.85 478.92 78.08C471.02 80.05 463.54 80.54 456.2 78.6C447.96 61.93 442.24 46.52 435.81 28.64L474.29 27.71H474.28ZM410.63 28.46C417.21 28.01 424.05 27.57 430 29.2C430.86 47.11 432.72 61.66 437.5 79.6C432.2 80.55 421.26 83.47 416.82 78.98C403.84 65.86 400.08 46.95 395.81 29.48L410.63 28.46ZM388.92 28.3C387.39 48.08 392.26 63.28 398.32 81.72C394.84 82.32 386.57 84.84 383.33 82.48C362.37 67.23 362.37 54.09 356.58 30.18L388.92 28.3ZM351.05 29.17C347.79 48.98 350.05 67.05 360.26 84.26C353.87 84.82 343.6 86.54 338.79 83.89C321.85 66.03 317.88 54.14 315.05 29.32L351.05 29.16V29.17ZM278.23 25.75C294.18 24.07 293.19 28.07 308.77 29.44C304.7 48.51 309.58 67.88 321.37 85.52C315.28 85.65 306 89 299.61 86.76C276.82 78.77 276.82 45.57 278.23 25.76V25.75ZM243.45 28.17C252.86 26.66 261.48 26.05 271.1 26.1C265.85 47.01 262.63 68.84 275.05 88.71C269.02 89.86 258.58 93.03 253.35 90.62C237.4 71.93 235.99 51.59 243.45 28.17ZM194.63 38.72C213.56 32.35 215.58 37.12 236.5 30.93L229.62 47.37C222.95 63.3 229.81 80.59 237.17 96.63L215.78 101.18C186.48 84.55 192.24 65.98 194.63 38.72ZM146.47 66.76C145.87 83.36 150.97 108.85 166.17 119.34C152.06 138.38 124.88 105.1 119.98 91.76C127.86 82.15 135.07 73.22 146.47 66.75V66.76ZM127.54 177.48C116.83 175.99 111.39 163.57 107.06 155.97C103.35 149.47 98.26 144.57 100.02 135.94L114.92 157.1C125.17 171.66 151.63 167.31 156.17 168.02C163.94 169.23 135.83 178.63 127.55 177.47L127.54 177.48ZM159.3 153.16C149.48 159.55 135.43 158.35 126.36 150.99C119.21 145.19 113.23 137.99 107.95 130.89C103.43 124.81 104.5 119.32 107.05 112.99C109.14 107.82 109.71 101.87 115.32 98.52C120.22 114.36 130 126.12 144.39 133.4L140.86 140.24C140.31 141.3 140.82 144.65 141.59 145.59C146.17 151.23 156.03 137.66 167.83 140.12C165.58 145.51 163.3 150.56 159.3 153.16ZM153.93 61.39L184.58 42.12C194.77 35.71 186.2 46.43 183.99 59.38C181.11 76.22 184.27 92.91 198.23 105.74C192.8 108.05 187.55 110.32 182.82 111.19C166.9 114.1 150.56 75.57 153.93 61.39ZM205.68 252.64C207.41 269.83 211.29 290.89 217.22 305.64C217.71 306.86 217.17 309.32 216.95 310.12C216.73 310.89 213.96 309.61 213.14 308.28C199.58 286.25 188.55 258.62 183.84 232.29C180.06 211.14 176.18 191.37 174.95 170.21C174.28 158.61 180.1 147.75 177.29 136C186.67 130.9 194.78 129.52 204.31 128.04L246.22 121.54C265.12 118.61 283.64 117.68 302.85 116.42L349.06 113.39L386.8 111.3C411.84 109.92 435.6 106.27 460.7 105.53C481.21 104.93 500.75 103.55 521.3 102.29L554.64 100.24L589.02 97.23C617.74 94.71 644.43 95.48 673.24 97.56C719.43 100.89 764.21 105.89 809.73 114.68C811.14 142.54 813.93 126.36 813.55 151.74L812.36 231.85C807.91 227.83 804.44 221.97 799.72 221.77C792.41 221.46 789.78 229.65 789.35 235.26L787.9 253.84C765.61 245.97 743.37 243.98 719.78 244.52C716.07 244.6 713.96 242.95 713.17 240.11C711.83 235.33 716.6 235.73 719.01 233.18C725.8 226.01 723.96 212.29 713.81 207.73C715.7 222.36 705.67 231.85 703.72 243.76L699.58 269.11C697.72 280.49 696.45 291.66 689.79 300.81C682.2 311.22 668.39 313.98 660.04 305.18C633.35 277.07 652.81 261.36 629.91 263.76C625.22 264.25 623.17 258.99 623.29 254.51C623.35 252.16 624.31 247.47 626.03 246.39C630.57 243.56 636.18 247.83 641.75 249.37C643.58 249.88 647.85 247.04 648.54 245.07C656.4 222.92 683.56 239.43 680.89 184.79C676.23 186.16 672.29 189.46 669.09 191.2C662.8 189.16 651.98 187.72 647.31 192.89C646.03 194.31 643.99 199.35 642.35 199.11L624.06 196.46C616.9 195.42 613.58 202.95 611.14 206.93C607.39 213.04 617.23 218.74 616.29 223.03L608.78 238.91C601.69 244.88 586.61 246.6 579.42 253.43C550.28 281.14 563.94 286.86 555.78 296.98C550.97 302.95 541.27 306.59 535 312.1C520.27 298.74 486.55 271.41 468.99 285.7C463.75 289.96 461.79 295.49 461.21 303.65C461.03 306.25 454.9 307.65 452.32 308.84L409.61 328.49L426.67 329.74C419.61 337.88 415.07 346.15 414.41 355.47L393.83 349.4C401.28 341.35 403.5 329.27 410.25 320.79C420.01 308.51 433.4 300.75 444.7 290.57C447.79 287.79 455.63 290.22 462.65 289.41C463.74 289.28 461.84 285.23 460.78 284.93L448.64 281.45C445.31 275.88 440.86 269.56 435.06 268.63C414.14 265.3 409.9 287.7 409.67 271.29C409.55 262.76 405.67 252.3 411.19 244.74C415.5 238.84 423.48 235.34 425.4 227.06C425.79 225.38 426.06 220.68 424.64 219.74C420.03 216.69 419.36 219.39 410.93 216.12C409.72 215.65 412.06 211.63 413.06 210.71L423.25 201.34C424.37 200.31 425.26 196.57 425.18 195.09C425.08 193.36 420.85 191.28 418.98 191.77L384.27 200.8C379.78 201.97 375.18 201.53 369.19 201.88C365.98 176.95 373.97 182.24 354.73 164.08C340.37 150.53 315.67 148.8 312.12 160.55C308.5 172.55 325.85 184.9 335.25 187.65C336.27 187.95 336.65 192.03 335.68 192.49C334.72 192.95 332.32 193.79 331.14 193.51L317.74 190.41C308.11 188.18 286.22 174.56 269.66 172.76C254.05 171.07 245.87 181.8 240.06 192.32C233.54 195.67 223.58 197.3 219.19 203.02C207.3 218.53 203.78 233.68 205.68 252.59V252.64ZM620.05 371.85L595.8 358.82C587.34 357.06 585.03 351.11 582.54 344.48C578.88 334.76 572.12 324.56 571.65 313.93L570.77 294.1C570.45 286.85 571.35 279.73 577.12 274.6C586.67 285.26 598.72 293.7 605.37 306.06C615.94 325.7 617.26 349.61 620.04 371.84L620.05 371.85ZM475.37 374.23C463.35 376.18 448.45 371.49 443.94 360.38C438.61 347.27 435.54 334.26 439.83 322.8C440.37 321.35 445.46 320.83 445.37 322.25C444.73 326.03 442.73 333.98 444.5 337.13C445.18 338.34 449.82 337.97 450.2 336.69L452.22 329.92C452.84 327.85 454.93 323.87 456.86 323.81C458.75 323.75 461.66 326.61 462.97 328.34L465.7 331.95C466.44 332.92 470.15 332.18 470.33 330.63C471.14 323.88 464.35 317.48 456.52 315.75C458.29 309.7 465.78 307.51 471.61 310.59C476.86 313.36 481.62 317.46 486.51 321.65L475.45 330.72C474.66 331.37 473.94 333.39 474.23 334.25C476.4 340.61 487.04 322.19 496.93 330.85C503.82 336.89 503.09 341.39 499.93 349.72C495.53 361.33 487.97 372.16 475.36 374.21L475.37 374.23ZM491.92 383.25C477.07 396.84 462.34 390.96 448.76 378.54C454.11 377.63 458.85 378.64 463.08 380.33C478.59 386.52 484.06 376.83 492.31 378.17C493.6 378.38 492.91 382.35 491.93 383.25H491.92ZM471.71 307.46C470.69 303.11 469.91 294.99 472.21 291.38C488.03 279.37 533.25 324.94 542.04 337.51C545.39 343 548.86 347.43 554.11 354.1L527.52 360.93C512.65 336.95 499.94 318.32 471.71 307.46ZM543.04 321.62C543.89 317.72 550.26 312.72 555.09 312.4C557.2 327.81 566.06 343.12 568.34 353.38C568.47 353.96 564.54 354.11 563.78 353.9C556.13 341.02 554.17 333.02 543.04 321.62ZM344.03 179.5L338.42 183.47C335.14 182.7 315.74 164.09 320.77 160.81C329.8 154.92 341.56 164.16 348.27 170.09C354.71 175.78 357.44 180.9 358.56 189.8L360.78 207.51C352.19 205.18 348.77 205.05 338.32 205.29L349.05 182.13C349.65 180.64 345.24 178.64 344.03 179.5ZM387.45 329.06C375.37 328.89 367.85 294.42 365.99 284.51C365.69 282.9 361.07 281.24 359.65 281.89C354.23 284.37 354.85 293.07 349.48 294.61C348.15 280.07 341.34 271.87 328.55 264.84L352.27 248.6C358.09 244.62 368.04 240.92 375.26 242.05C383.2 243.29 388.38 253.39 389.5 260.64L393.93 289.56C394.46 293 397.68 297.03 400.64 296.87C410.32 296.34 405.57 283.24 428.23 276.2C432.94 274.73 435.92 278.39 436.28 281.06C437.06 286.91 431.71 286.22 429.19 288.69C423.91 293.87 418.53 298.89 412.38 303.43C391.42 318.9 396.44 329.19 387.46 329.07L387.45 329.06ZM219.63 253.07C218.63 249.95 224.99 248.24 226.36 245.68C229.38 240.04 233.11 237.46 238.7 233.35C243.1 230.12 249.55 221.99 253.66 217.96C254.71 216.94 250.78 213.22 250.6 211.79C249.95 201.16 271 198.32 275.65 200.13C277.48 200.85 278.96 204.12 279.83 206.1C271.18 206.56 263.11 203.72 258.19 212.18C266.22 214.9 276.18 213.9 282.43 208.87L292.79 219.05C296.81 223 300.26 228.4 297.72 234.32L292.45 246.6C288.59 255.6 280.77 263.26 273.43 270.26C263.27 279.94 249.94 277.42 241.38 267.12C228.31 251.39 223.8 266.11 219.62 253.06L219.63 253.07ZM240.99 327.59C237.3 310.39 232.31 293.27 238.56 275.61C250.17 287.49 265.58 287.76 278.04 278.05C290.74 268.15 299.09 253.57 306.04 238.46C314.62 231.87 324.41 225.93 333.75 221.12L335.95 213.81C340.87 214.77 352.83 215.17 355.8 220.56C360.33 228.79 351.53 235.77 345.76 239.48C327.53 251.21 312.79 265.6 298.71 281.84C275.99 295.7 257.68 314.18 242.69 336.54C239.19 335.24 241.68 330.74 241 327.57L240.99 327.59ZM341.1 375.54C330.88 383.27 316.85 372.06 307.02 368.77L262.75 353.96C256.97 352.03 253.8 345.52 246.45 344.22C271.25 315.52 267.38 313.4 300.13 289.78C307.58 284.41 313.36 274.82 321.87 270.77L338.17 284.18C341.92 287.27 344.53 298.39 342.17 302.7C336.67 312.75 327.43 320.17 320.61 329.2C296.18 361.52 270.31 328.82 270.11 346.32C269.98 357.97 312.37 357.84 327.11 335.68L360.45 348.7C361.65 349.17 363.38 351.23 363.81 351.98C364.24 352.72 361.88 355.29 360.84 355.57C352.61 357.78 347.14 370.99 341.11 375.55L341.1 375.54ZM403.37 406.84C386.28 392.96 359.62 391.53 353.15 374.87C349.07 364.37 371.81 350.57 389.68 356.42C401.15 360.18 413.26 366.15 423.54 371.55C425.19 372.42 427.38 376.66 429 376.36C431.49 375.9 436.1 375.57 438.04 376.37C440.19 377.26 440.68 382.9 442.33 385.17C456.43 404.59 487.35 406.53 502.63 387.48C505.68 383.68 507.6 382.28 511.31 379.44C533.21 362.66 561.74 357.27 588.21 367.03C595.26 369.63 614.91 375.08 613.26 386.4C612.86 389.15 609.15 393.53 605.76 394.82L571.25 407.95L548.54 399.36L565.92 391.59C567.22 391.01 569.27 388.44 568.69 387.2C568.11 385.96 563.94 384.16 562.66 384.82C535.9 398.55 533.84 394.1 515.54 424.13C510.75 431.99 509.71 444.26 511.99 453.61C515.45 467.76 538.94 459.47 531.95 473.13C521.27 468.11 508.91 468.83 497.53 469.28C485.4 469.76 474.66 469.99 463.15 472.51L443.06 476.9C441.93 477.15 438.75 477.24 438.53 476.13C435.86 462.68 450.11 479.89 460.09 463.12C473.44 440.7 459.51 421.53 442.62 406.19C402.38 369.64 405.94 388.23 408.19 390.1L429.12 407.5C423.57 410.21 419.92 411.84 414.25 413.54C410.81 414.57 406.05 409 403.37 406.83V406.84ZM435.91 450.37L419.56 423.2C426.04 419.67 433.34 417.18 441.11 418.02C447.56 426.6 453.48 436.29 454.03 447.19C454.21 450.73 451.17 459.34 447.87 460.65C442.69 462.72 438.06 453.97 435.9 450.37H435.91ZM141.19 944.17C143.09 951.79 150.07 958.11 150.88 965.53C151.53 971.44 141.74 972.73 137.98 971.42C132.17 969.39 131.25 963.54 131.24 957.64C131.21 935.23 131.75 913.24 136.74 891.36C137.56 887.77 141.75 883.99 144.28 882.77C147.8 881.08 153.54 880.65 156.95 884.83C146.37 897.44 138.26 912.02 133.91 927.66C137.83 932.72 139.52 937.48 141.18 944.16L141.19 944.17ZM170.35 1021.91C165.72 1040.19 161.19 1082.66 168.26 1100.55L140.63 1096.81C133.41 1068.86 126.64 1033.95 142.66 1008.72L169.72 1013.07C171.53 1013.88 170.85 1019.93 170.35 1021.91ZM144.22 920.7C148.88 911.63 153.13 903.83 159.32 895.03L167.19 938.08C167.48 939.64 170.02 943.17 171.51 943.14L179.26 943C180.18 955.46 183.53 966.89 194.33 975.95C172.53 995.6 149.5 934.42 144.23 920.69L144.22 920.7ZM211.61 1104C204.94 1104.56 195.49 1105.38 190.63 1101.66C183.34 1096.07 182.7 1084.28 182.86 1076.07L183.17 1060.06C183.46 1045.18 183.08 1030.27 188.44 1015.65L219.83 1018.11C215.05 1031.92 213.47 1043.69 211.47 1056.59C209.02 1072.37 207.4 1086.55 211.62 1104H211.61ZM204.82 969.89C192.68 964.94 186.37 948.56 182.63 936.5L198.59 920.32L220.45 970.85C214.24 967.14 208.1 971.23 204.82 969.9V969.89ZM253.28 1092.57L257.72 1105.29L231.32 1105.53C229.44 1098.71 226.54 1093.21 226.47 1087.42L225.97 1049.74C225.83 1039.41 227.12 1028.57 229.46 1018.6C241.61 1022.2 256.41 1015.84 258.22 1022.74C253.43 1034.43 250.16 1083.64 253.29 1092.57H253.28ZM249.53 982.41C250.05 977.16 252.6 972.62 252.39 968.23L250.51 927.32C240.74 931.79 250.41 964.52 240.14 979.88C236.64 981.75 229.11 980.32 225.79 979.34C227.76 975.15 229.15 971.18 227.89 967.51L213.8 926.47L208.01 910.48C205.86 904.54 204.29 900.04 204.13 893.44L202.42 822C201.67 790.59 218.22 760.15 206.41 754.74C202.67 753.03 197.81 753.78 193.93 758.36C166.45 790.74 154.71 833.71 158.97 877.63C150.31 874.42 144.14 872.42 134.99 874.71C141.41 854.61 145.01 835.89 148.63 816.04L154.84 782.01L162.81 751.95C166.07 739.63 173.93 705.41 183.98 698.08L190.71 705.95L200.58 700.12C203.96 702.85 225.16 711.52 222.63 703.58C220.49 696.84 214.52 705.76 209.21 688.12C204.17 671.35 245.55 663.81 240.17 653.44L222.92 663.01C216.7 666.46 212.56 671.9 207.24 676.67C203.8 679.75 194.2 675.99 190.29 680.78C189.35 671.25 194.88 666.59 199.2 660.67L217.23 635.98L227.88 622.68C236.36 612.09 253.41 600.84 265.18 593.29L284.72 580.77C311.63 563.52 372.87 545.96 395.03 525.76C402.56 518.9 411.35 513.22 420.19 507.34C415.59 531.78 406.22 529.87 408.23 556.12L412.85 554.18C413.89 553.74 416.01 557.16 416.18 558.29C417.47 566.59 413.63 574.82 409.82 582.06C403.2 594.64 399 592.37 399.8 595.72C400.16 597.26 401.86 600.11 402.85 601.67C406.56 607.49 400.24 611.22 395.66 613.29L378.98 620.8C373.47 623.28 368.78 629.01 364.04 633.48C369.99 638.15 382.54 630.08 384.56 632.42C388.9 637.46 378.43 659.22 382.41 674.75C353.75 680.2 325.63 684.43 295.57 684.9C306.81 663.92 322.65 648.83 339.6 634.55L378.95 601.4C387.7 594.03 394.79 583.7 402.81 574.66C393.76 572.73 392.78 581.8 387.87 585.43L324.86 631.93C317 637.73 311.11 645.39 304.38 652.51C297.01 660.3 290.63 668.13 285.68 677.87C279.65 689.72 265.79 684.05 252.51 683.58C265.26 654.71 286.88 632.39 313.31 616.45C322.19 611.1 328.82 604.59 336.38 598.19L374.85 565.6C380.12 561.14 385.86 556.16 388.2 548.05L312.52 604.6C305.95 609.51 299.31 612.76 292.51 617.14C277.2 627 263.39 643.1 252.88 658.18C247.66 665.67 244.47 674.36 239.66 682.77L223.88 681.98C226.43 686.61 230.91 686.99 236.85 687.37L225.91 723.07L202.75 719.51C201.53 719.32 199.04 719.75 198.04 720.13C190.57 722.97 213.33 733.33 223.07 731.09C212.54 786.66 210.82 843.28 216.41 899.44C216.68 902.19 219.44 905.21 221.67 905.4C223.2 893.9 224.78 883.52 224.86 872.6L225 852.98C225.19 826.17 226.89 800.15 228.92 773.31C229.97 759.53 231.8 748.03 235.65 733.77C244.69 733.9 252.58 734.04 260.47 735.81C256.85 744.18 252.97 776.66 250.38 777.81C248.86 778.49 245.14 778.91 243.13 779L239.76 779.16C238.97 779.2 238.74 781.12 239.11 781.81C239.48 782.5 240.76 782.98 241.89 783.22L250.32 785.01L250.66 810.92C250.71 814.95 252.01 819.05 254.52 821.61C261.68 810.19 262.74 797.68 263.49 784.67C273.04 786.22 281.75 784.69 290.93 783.57C299.07 782.58 307.57 784.49 312.89 776.29C310 774.14 304.95 772.73 300.29 773.28L279.61 775.72C275.9 776.16 267.22 779.01 265.45 775.06L272.66 736.44C279.82 735.32 286.64 735.25 293.69 735.72C315.65 737.2 335.89 732.18 356.68 726.2C363.91 724.12 369.79 721.6 375.71 717.16C381.44 712.87 389.55 712.22 393.01 703.27C384.27 703.63 375.42 705.5 367.32 708.86C338.81 720.69 309.4 724.47 278.26 722.4C281.66 711.57 285.56 702.18 290.49 693.44L311.18 693.66C337.86 693.95 363.7 689.74 389.97 683.72C396.17 682.3 401.34 682.21 405.17 675.8C405.54 675.35 406.43 674.55 406.82 674.17C407.4 673.6 406.78 670.91 405.98 671.07L402.02 671.82C400.49 672.11 396.56 672.3 394.95 671.94C393.44 671.6 392.31 669.17 391.32 667.32L410.19 667.04C417.89 675.66 413.37 685.08 407.2 692.51C406.05 693.89 405.67 698 404.36 698.96C402.83 700.08 399.45 700.37 395.97 700.97L403.29 710.73L385.73 721.39C384.88 724.06 390.6 727.87 393.25 727.73C399.59 727.4 400.54 722.74 407.97 719.63C409.43 719.02 412.12 721.28 414.05 722.19C427.92 728.75 442.12 735.22 453.86 745.19L466.86 756.24C480.8 768.08 486.5 787.1 492.09 803.61L476.84 807.49C473.71 808.29 440.83 810.89 435.53 804.17C444.43 794.17 443.21 782.7 445.17 771.62C446.55 763.81 448.39 759.35 441.58 753.02C437.07 748.83 432.59 744.54 426.11 741.98C388.27 727.05 383.89 741.95 340.32 752.3C336.95 753.1 333.8 755.02 332.73 757.58C331.65 760.17 332.67 766.99 336.23 766.73C340.74 766.39 345.41 765.12 349.86 764.09L345.6 791.25C331.47 788.33 320.23 794.06 308.85 801.82C307.38 801.44 307.34 796.41 307.6 794.18C303.41 794.28 299.45 793.92 295.53 791.81C291.83 789.82 280.35 788.68 280.07 794.2C279.68 801.71 280.99 808.68 277.94 816.32C262.91 853.92 263.32 826.26 258.45 848.21C256.2 838.84 258.47 844.27 248.49 832.53C247.72 831.63 245.05 830.83 244.41 831.84C240.57 837.85 245.34 852.52 239.22 878.59C238.46 881.8 234.91 898.84 237.65 899.42C241.96 900.33 252.17 895.05 253.52 899.44C255.29 905.21 256.99 909.41 259.01 914.33C264.58 927.9 253.08 936.71 266.6 960.42C268.88 964.42 276.3 979.01 267.79 980.57C261.47 981.73 256.54 982.1 249.56 982.42L249.53 982.41ZM409.82 642.86L392.77 644.44C388.98 632.99 397.8 622.72 409.09 615.41L409.82 642.86ZM274.64 692.86C272.81 704.09 267.32 713.72 263.96 723.69C255.28 722.87 248.37 722.85 239.32 723.63C240.95 712.86 243.33 700.85 249.2 691.71C252.12 687.17 260.66 691.52 264.43 691.1C266.94 690.82 275.13 689.81 274.63 692.87L274.64 692.86ZM276.9 1105.03C268.99 1076.1 267.57 1050.61 272.57 1021.36C283.58 1021 294.35 1020.99 304.88 1022.87C301.35 1039.16 300.22 1052.47 299.84 1067.98C299.33 1088.58 305.72 1089.73 307.34 1105.75L276.9 1105.04V1105.03Z" fill="black"/>
<path d="M668.1 268.97C694.2 256.14 711.6 206 708.35 180.52L701.96 130.44C700.82 121.47 700.02 112.89 698.34 103.4C693.64 109.12 695.1 115.37 695.21 121.87L696.07 172.91C696.42 193.3 691.73 212.3 682.86 230.67C676.85 243.12 669.51 254.27 668.09 268.97H668.1Z" fill="black"/>
<path d="M748.54 152.58L745.17 118.38L742.37 149.06C744.35 162.33 743.67 175.19 742.32 188.9C741.52 197.02 737.96 205.32 743.32 213.43C755.59 204.23 753.19 164.35 748.55 152.57L748.54 152.58Z" fill="black"/>
<path d="M684.05 273.25C677.6 278.45 667.55 282.27 659.09 275.73C655.36 282.8 656.96 288.53 661.78 292.83C665.97 296.58 671.47 298.53 678.27 295.69C682.07 294.1 684.27 288.36 686.15 282.41L687.97 276.67C688.34 275.49 685.06 272.44 684.05 273.25Z" fill="black"/>
<path d="M662.96 252.54C663.67 250.3 662.62 245.73 659.9 244.97C656.2 243.94 653.23 247.2 652.39 250.08C651.81 252.03 652.83 256.58 655.67 257.57C659.21 258.81 662.15 255.09 662.96 252.54Z" fill="black"/>
<path d="M719.06 754.98C718.77 754.18 716.18 755.92 715.84 757.29C711.79 773.73 710.44 795.12 712.22 812.78C713 820.58 711.25 828.23 711.4 836.14L711.73 853.18L709.41 872.5C709.54 871.4 702.01 925.84 708.68 917.15C730.87 888.25 721.15 816.96 718.15 780.65C717.33 770.75 721.37 761.36 719.05 754.98H719.06Z" fill="black"/>
<path d="M680.28 891.77C687.7 889.26 689.45 875.23 692.33 876.65L695.98 878.45C700.21 862.95 702.41 846.39 698.82 830.21C696.63 832.79 693.36 837.84 690.9 837.6C686.88 835.23 682.3 829.83 678.66 826.39C673.64 834.71 680.27 842.4 680.27 850.42V891.76L680.28 891.77Z" fill="black"/>
<path d="M712.14 740C715.71 735 721.99 739.04 725.9 742.28C738.58 730.13 747.53 715.68 755.75 700.45C758.4 695.55 763.06 690.59 758.76 685.16L748.74 695.75C736.11 709.09 725.21 723.6 711.71 736C706.85 740.46 700.83 745.33 705.36 753.34C707.87 748.67 709.6 743.57 712.14 740Z" fill="black"/>
<path d="M732.44 899.15C735.89 901.01 742.36 901.28 743.18 896.24C743.7 893.04 737.2 886.54 734.32 887.92C731.2 889.41 731.31 896.35 732.43 899.15H732.44Z" fill="black"/>
<path d="M314.13 764.46C318.21 762.58 320.73 750.67 321.14 745.53C320.87 742.18 313.12 744.88 312.14 748.2C310.99 752.11 309.06 757.76 308.35 761.26C308.02 762.85 312.67 765.13 314.13 764.46Z" fill="black"/>
<path d="M282.94 764.12C288.43 766.53 293.11 766.33 297.9 762.91C294.23 760.58 291.48 759.35 289.15 759.41C287.28 759.46 284.58 761.98 282.94 764.13V764.12Z" fill="black"/>
<path d="M377.36 805.52C398.53 802.37 398.48 795.86 417.69 796.34C419.7 796.39 423.27 794.89 423.48 793.25C424.72 783.51 388.9 783.24 382.4 783.88C376.49 784.46 369.91 789.4 367.77 794.5C365.54 799.79 372.17 806.3 377.36 805.53V805.52Z" fill="black"/>
<path d="M416.28 773.99C420.88 768.07 418.43 758.35 413.44 753.94C411.13 751.9 406.01 752.87 404.93 755.01C401.41 761.97 414.27 763.22 411.73 769.64C409.25 775.89 397.38 771.44 394.68 777.94C401.25 782.28 412.07 779.41 416.28 773.98V773.99Z" fill="black"/>
<path d="M383.52 771.25C385.94 771.55 388.47 768.56 389.07 766.17L392.85 751.07C384.66 753.32 379.25 756.03 372.38 760.21L378.98 765.25C380.23 767.92 381.72 771.02 383.52 771.25Z" fill="black"/>
<path d="M254.09 267.28C257.49 271.24 265.06 268.02 267.08 263.15C274.22 245.91 291.76 249.64 289.4 241.83C288.78 239.79 285.48 237.54 283.03 236.77C271.55 233.16 261.53 236.31 256.49 247.78C253.99 253.47 248.76 261.08 254.09 267.29V267.28Z" fill="black"/>
<path d="M271.72 230.49C274.92 230.56 278.51 228.48 278.9 226.54C279.31 224.51 279.07 219.92 277.29 219.15C275.76 218.49 272.34 218.37 270.07 218.57C266.18 218.9 263.74 222.02 264.23 225.41C264.63 228.17 267.49 230.4 271.71 230.49H271.72Z" fill="black"/>
<path d="M256.06 238.04C258.59 236.43 259.2 231.56 257.42 229.63C255.98 228.07 251.86 227.42 249.59 228.5C246.44 229.99 244.97 234.56 246.08 236.95C247.6 240.24 252.1 240.56 256.06 238.04Z" fill="black"/>
<path d="M466.22 350.5C472.09 347.47 469.69 340.7 465.69 338.61C462.02 336.69 456.04 335.92 454.13 341.7C453.3 344.23 454.92 348.85 456.97 349.97C458.88 351.01 464.09 351.6 466.22 350.5Z" fill="black"/>
<path d="M463.47 366.18C468.35 369.34 469.02 363.96 485.74 360.56C486.99 360.31 489.72 358.65 489.38 357.54C486.7 348.86 458.29 362.84 463.47 366.19V366.18Z" fill="black"/>
<path d="M484.1 337.29C481.07 338.93 480.75 343.94 482.74 345.49C484.59 346.93 488.71 347.44 490.76 346.55C493.16 345.5 494.08 341.19 492.91 339.39C491.27 336.88 487.31 335.55 484.1 337.29Z" fill="black"/>
<path d="M507 701.13L529.39 692.81C531.8 691.92 530.25 685.94 528.45 684.58C526.77 683.32 522.73 681.31 520.47 681.74L501.13 685.36C495.08 686.49 492.66 691.83 494.2 696.25C495.94 701.25 501.2 703.3 507 701.14V701.13Z" fill="black"/>
<path d="M783.41 803.16C785 803.07 785.4 797.86 784.41 796.73C779.94 791.61 767.15 794.81 760.11 796.73C757.25 797.51 756.42 803.09 757.77 805.51C761.27 811.81 765.84 804.18 783.41 803.16Z" fill="black"/>
<path d="M798.51 771.89C799.64 771.26 799.61 768.38 799.36 767C799.12 765.72 795.74 764.23 794.66 765C793.31 765.97 792.95 769.75 793.75 770.78C794.55 771.8 797.38 772.52 798.52 771.89H798.51Z" fill="black"/>
</g>
<defs>
<clipPath id="clip0_177_1071">
<rect width="983.08" height="1151.43" fill="white"/>
</clipPath>
</defs>
</svg>
