<svg xmlns="http://www.w3.org/2000/svg" viewBox="0 0 202.164 175.587"><g data-name="Layer 2"><path d="M133.12 173.589c-8.5.7-17 1.262-25.529 1.311-10.819.062-21.632 1.375-32.461.2a20.6 20.6 0 0 0-3.265.031 225.2 225.2 0 0 1-47.142-2.839c-7.734-1.233-15.078-3.984-19.827-11.139-2.624-3.954-3.5-8.317-3.915-12.839-1.27-13.906-1.064-27.838-.681-41.78.2-7.58.164-15.182-.162-22.756C-.348 72.512.6 61.287.723 50.04c.09-8.165.624-16.325.88-24.489a21.4 21.4 0 0 0-.152-5.959 8.34 8.34 0 0 1 .49-4.821C3 11.876 4.62 9.962 8.183 9.825c14.317-.548 28.452-3.006 42.691-4.41C62.6 4.259 74.291 2.739 86.02 1.6c5.4-.524 10.848-.555 16.277-.75 9.058-.325 18.134-1.084 27.173-.779 11.369.383 22.747-.07 34.123.817 6.344.5 12.652.594 18.8 2.479 7.257 2.225 10.132 6.217 10.635 13.826.393 5.941 1.39 11.85 2.277 17.749 1.188 7.891 2.828 15.724 3.735 23.644 1.379 12.041 2.8 24.082 3.07 36.237a340 340 0 0 1-1.366 34.2c-.537 6.841-.792 13.706-1.408 20.5-.588 6.489-2.1 13.347-8.691 17.234-3.7 2.186-7.9 2.777-11.968 3.431a173 173 0 0 1-23.277 2.262c-7.43.181-14.853.744-22.28 1.139M16.509 108.824h-.115l1 23.368a27 27 0 0 0 .277 3.254 5.2 5.2 0 0 0 .73 1.414 5 5 0 0 0 1.269-.809 16 16 0 0 0 1.13-1.851c5.382-8.584 10.83-17.088 17.483-24.816 7.573-8.8 16.262-15.966 26.919-20.615 4.226-1.843 8.8-3.056 13.191-1.189a42.1 42.1 0 0 1 18.818 15.036c3.975 5.842 7.633 11.961 12.419 17.16 7.138 7.755 4.923 6.835 14.662 2.9 7.729-3.123 15.381-6.426 23.433-8.521 8.228-2.14 16.459-2.245 24.109 2.428 1.083.662 2.273 1.147 3.352 1.813a55.8 55.8 0 0 1 9.041 6.933c1.435 1.355 2.119 1.1 2.468-.732a19 19 0 0 0 .34-3.247c.144-8.877 1.078-17.738.3-26.635-.68-7.773-.576-15.654-1.793-23.332-2.6-16.423-5.042-32.886-8.468-49.173-.707-3.363-1.179-4.328-4.381-4.349-4.385-.029-8.625-1.076-12.961-1.255-11.228-.463-22.465-.02-33.706-.611a199.5 199.5 0 0 0-27.167.59c-11.729.987-23.486 1.6-35.169 3.182-6.633.9-13.325 1.663-19.976 2.12-9.22.632-18.287 2.834-27.634 2.315-4.358-.242-4.65.46-4.409 4.774.333 5.981.89 11.948 1.256 17.928.486 7.973.909 15.946 1.173 23.936.422 12.675 1.57 25.324 2.409 37.984m126.054 51.6.018.28c2.533-.156 5.077-.214 7.6-.487 8.084-.873 16.157-1.852 24.241-2.729 1.981-.215 4-.16 5.89-.9 3.61-1.414 4.943-5.423 2.534-8.4-3.531-4.36-6.964-8.911-11.11-12.632-4.1-3.68-8.659-7.2-14.854-6.8a52 52 0 0 0-8.023 1.412c-8.7 1.933-16.967 5.248-25.4 7.995-7.481 2.437-13.811.63-19.021-4.468a72.3 72.3 0 0 1-10.9-13.458c-3.894-6.262-7.829-12.586-13.424-17.605-3.829-3.433-6.921-4.038-11.385-1.7a68.7 68.7 0 0 0-18.587 14.828c-4.506 4.918-8.2 10.571-12.518 15.674-5.763 6.81-9.493 14.976-15.075 21.913-3.974 4.941-3.748 5.124 2.557 6.758.351.091.7.186 1.055.259a186 186 0 0 0 30.185 3.252c12.843.485 25.7.965 38.582.374 13.389-.615 26.754-1.295 40.051-3.044 2.507-.328 5.055-.356 7.584-.524ZM115.071 62.9c-.425-5.413 1.555-10.521 4.793-15.336 5.622-8.361 17.6-12.693 27.414-8.267 4.65 2.1 9.557 4.048 12.911 7.856 7.27 8.252 12 21.705.993 32.737-4.894 4.9-10.181 9.376-17.547 10.122-17.365 1.759-29.158-8.227-28.7-25.561.005-.363.059-.724.136-1.551m12.029-6.154c.1 5.972.964 8.865 2.694 12.361a8.61 8.61 0 0 0 6.248 4.722C143.5 75.422 155 67.563 151.58 57.882A19.71 19.71 0 0 0 141.146 46.1c-4.9-2.358-9.775-.662-12.8 3.677-1.603 2.307-1.125 4.84-1.246 6.969" data-name="Layer 1"/></g></svg>