<svg xmlns="http://www.w3.org/2000/svg" data-name="Layer 1" viewBox="0 0 75 75"><path d="M46.082 35.01a8.03 8.03 0 0 1-2.309 5.53 9.2 9.2 0 0 1-3.841 2.524c-.357.1-.323.289-.236.567a2.2 2.2 0 0 1 .113.759 17 17 0 0 0 .993 5.873c.906 2.961 1.436 6 2.131 9 .217.938.343 1.9.594 2.827a4.4 4.4 0 0 1 .191 1.33 1.447 1.447 0 0 1-1.318 1.434 17.3 17.3 0 0 0-3.251.395c-1.965.324-3.939.6-5.892.988-.58.114-1.151.122-1.726.183s-1.159.07-1.732.153a1.394 1.394 0 0 1-1.726-1.273 4 4 0 0 1 .051-.967 66.4 66.4 0 0 1 2.619-10.263c1.036-2.773 2.02-5.566 3.025-8.352.109-.3.181-.621.311-.913.122-.275.135-.45-.18-.6a9.4 9.4 0 0 1-3.162-2.472 6.3 6.3 0 0 1-1.393-4.309 8.16 8.16 0 0 1 .981-3.7 16.5 16.5 0 0 1 3.353-4.229 8.97 8.97 0 0 1 5.186-2.336 6.6 6.6 0 0 1 6.226 3.5 11.6 11.6 0 0 1 .992 4.351m-2.408-.02a10 10 0 0 0-.006-1.118 3.42 3.42 0 0 0-1.968-3.094c-.118-.051-.234-.111-.349-.169A3.83 3.83 0 0 0 38 30.547a8.25 8.25 0 0 0-2.9 2.226 11.8 11.8 0 0 0-2.832 4.791 2.7 2.7 0 0 0 .413 2.551 6.8 6.8 0 0 0 1.738 1.785c.381.242.748.508 1.14.732a.79.79 0 0 1 .38.817 2.6 2.6 0 0 1-.071.574c-.656 2.485-1.321 4.967-2.127 7.41A61.8 61.8 0 0 0 30.76 63.2c-.045.363.076.446.363.465a27 27 0 0 0 4.605-.519c1.658-.173 3.278-.651 4.96-.693.544-.014.708-.242.582-.729-.227-.871-.522-1.729-.682-2.612-.426-2.348-1.062-4.642-1.7-6.936-.5-1.8-.946-3.611-1.5-5.39a13.2 13.2 0 0 1-.373-3.45 1.58 1.58 0 0 1 1.047-1.685 11 11 0 0 0 2.962-1.776c1.631-1.159 2.869-2.624 2.65-4.885M8.487 36.731a17 17 0 0 1 .113 2.125 21 21 0 0 0 .162 3.68 27.8 27.8 0 0 0 2.25 7.372c.694 1.293 1.521 2.409 3.14 2.58a4 4 0 0 1 .544.2c.425.121.636-.068.524-.464a25 25 0 0 0-1.261-4.024 24.4 24.4 0 0 1-2.039-9.571 32.7 32.7 0 0 1 .261-6.568 32 32 0 0 1 1.129-4.881 55 55 0 0 1 3.55-7.742 23.7 23.7 0 0 1 2.747-4.212c1.7-2.114 3.414-4.213 5.117-6.323.068-.085.14-.262.1-.316a.56.56 0 0 0-.336-.155 2.52 2.52 0 0 0-1.782.622 26.4 26.4 0 0 0-4.818 4.189 25.3 25.3 0 0 0-3.969 5.222 50 50 0 0 0-3.608 7.492 26 26 0 0 0-1.69 8.876 8 8 0 0 0-.134 1.898m55.805-3.576c0 .259-.014.519 0 .776a17.5 17.5 0 0 1-1.241 7.177c-.29.786-.607 1.562-.933 2.334a2.46 2.46 0 0 0-.139 1.519 1.359 1.359 0 0 0 2.237.8 4.56 4.56 0 0 0 1.4-1.824 22.6 22.6 0 0 0 1.822-7.455 44 44 0 0 0-.663-10.389 59 59 0 0 0-1.618-6.932 17.5 17.5 0 0 0-2.89-5.431 8.4 8.4 0 0 0-3.208-2.43 2 2 0 0 0-.56-.125.72.72 0 0 0-.7.237.82.82 0 0 0-.1.909 3.1 3.1 0 0 0 .576.764 14 14 0 0 1 1.7 2.108 23 23 0 0 1 3.1 7.451c.113.5.149 1.012.248 1.518.358 1.823.677 3.66.882 5.506a32 32 0 0 1 .024 3.487Zm-9.307-2.342c-.041-.508-.223-1-.3-1.512a8.5 8.5 0 0 0-2.8-5.166 4.4 4.4 0 0 0-1.3-.827 1.52 1.52 0 0 0-1.309.052.74.74 0 0 0-.325 1.122 1.9 1.9 0 0 0 .465.608c1.357.842 1.744 2.364 2.557 3.584a1.5 1.5 0 0 1 .179.546 14.5 14.5 0 0 1-.169 7.819c-.277.782-.466 1.6-.812 2.365a1.8 1.8 0 0 0 .1 1.676.72.72 0 0 0 .831.291c.4-.192.835-.339 1.036-.813.176-.415.457-.79.606-1.212A16.6 16.6 0 0 0 55 32.812c0-.705.037-1.356-.015-1.999M24.256 28.1a11.4 11.4 0 0 0-2.792 4.343 27.6 27.6 0 0 0-.934 3.916 5.54 5.54 0 0 0 1.675 5.6 1.2 1.2 0 0 0 .339.167 1.1 1.1 0 0 0 .141-.346c.024-1.031.05-2.061.042-3.091a17.8 17.8 0 0 1 1.17-7.167 19 19 0 0 1 1.888-3.355 2.6 2.6 0 0 0 .326-.68c.022-.07-.122-.193-.193-.3a3.55 3.55 0 0 0-1.662.913"/></svg>