<svg xmlns="http://www.w3.org/2000/svg" data-name="Layer 1" viewBox="0 0 75 75"><path d="M21.551 23.564c-.893 1.162-1.973 2.171-2.88 3.338a35.6 35.6 0 0 0-4.923 8.3A72 72 0 0 0 11.1 42.86a16.3 16.3 0 0 0-.707 4.762 9.8 9.8 0 0 1-.46 3.693 4 4 0 0 1-.284.589.86.86 0 0 1-1.163.189 3.34 3.34 0 0 1-1.272-2.248 14.3 14.3 0 0 1-.492-4.271 12.1 12.1 0 0 1 .64-4.629 49 49 0 0 1 2.914-7.819c.525-1.045 1.137-2.047 1.738-3.052.565-.945 1.136-1.89 1.762-2.8.666-.963 1.355-1.917 2.113-2.809a53 53 0 0 1 5.381-5.831 29 29 0 0 1 5.717-4.446 3.1 3.1 0 0 1 1.469-.378 1.21 1.21 0 0 1 1.23.751 1.31 1.31 0 0 1-.306 1.612c-1.344.922-2.408 2.158-3.664 3.171a25 25 0 0 0-4.165 4.22m46.2 9.3a7.5 7.5 0 0 0-.761-2.052 2.95 2.95 0 0 0-1.32-1.432.723.723 0 0 0-1.01.509 5.2 5.2 0 0 0 .247 2.172 2.93 2.93 0 0 1 .048 1.953 9.3 9.3 0 0 0-.26 2.621 14.5 14.5 0 0 1-.109 1.983 40.7 40.7 0 0 1-2.955 9.636 17.6 17.6 0 0 1-1.227 2.339c-.883 1.348-1.877 2.623-2.769 3.965a26.9 26.9 0 0 1-6.938 7.02 19.5 19.5 0 0 0-2.124 1.571 1.62 1.62 0 0 0-.382 2.188 6 6 0 0 0 .47.741 1.25 1.25 0 0 0 1.4.414 8.8 8.8 0 0 0 1.782-.856 27.5 27.5 0 0 0 6.3-5.135c.811-.948 1.675-1.857 2.414-2.859 1.131-1.536 2.26-3.086 3.237-4.721a31 31 0 0 0 3.924-10.681 14.3 14.3 0 0 0 .53-4.652c.273-1.565-.369-3.117-.494-4.728Zm-22.962 3.829a6.9 6.9 0 0 1 .452 6.34 19.3 19.3 0 0 1-2.951 5.136 8.43 8.43 0 0 1-4.136 2.779 4.25 4.25 0 0 1-3.627-.392c-1.1-.723-2.12-1.561-3.156-2.373a1.16 1.16 0 0 1-.281-.572c-.169-.561-.268-1.146-.478-1.69a5.8 5.8 0 0 1-.415-2.7c-.139-2.29.721-4.262 1.351-6.283a1.36 1.36 0 0 1 .334-.56c1.436-1.361 2.831-2.752 4.872-3.247a4.67 4.67 0 0 1 2.8.006 16 16 0 0 0 1.667.537 5.75 5.75 0 0 1 3.568 3.019M42.133 40a2.775 2.775 0 0 0-1.858-2.949 11 11 0 0 0-1.244-.434 2.32 2.32 0 0 0-2.629.548 2.6 2.6 0 0 1-.7.529c-1.6.856-2.117 2.572-3.113 3.906a.9.9 0 0 0-.111.421 5.56 5.56 0 0 0 3.022 5.653 2.3 2.3 0 0 0 2.3-.089 5.7 5.7 0 0 0 2.172-2.128 31 31 0 0 0 1.528-2.923A5.3 5.3 0 0 0 42.133 40m-11.6-11.653a.394.394 0 0 0-.556-.164 8 8 0 0 0-.986.481 14.6 14.6 0 0 0-3.67 3.116 15.07 15.07 0 0 0-4.048 9.92c0 .44-.009.88 0 1.32.007.293.035.586.066.878.077.734.164 1.5.969 1.806.557.215 1.269-.5 1.6-1.528a3 3 0 0 0 .1-.424c.159-.861.326-1.719.47-2.582a19.7 19.7 0 0 1 2.734-7.345 47 47 0 0 1 2.9-4.124 2.8 2.8 0 0 0 .476-.729.94.94 0 0 0-.055-.623Zm20.261 24.077a4 4 0 0 0 .468-.47 15.24 15.24 0 0 0 3.754-9.413c.02-.441 0-.884 0-1.327h.017c0-.957.027-1.915-.013-2.87a2.6 2.6 0 0 0-.3-1.043.84.84 0 0 0-.941-.413.71.71 0 0 0-.595.572 14.5 14.5 0 0 0-.432 4.365 7.5 7.5 0 0 1-.538 3.455A15.1 15.1 0 0 1 49.6 49.6a5.2 5.2 0 0 0-1.059 1.4 1.01 1.01 0 0 0-.036.838 1.34 1.34 0 0 0 2.289.586"/></svg>