<svg xmlns="http://www.w3.org/2000/svg" viewBox="0 0 177.8 244.2"><path d="m177 160-6-20-12-49c-4-14-8-28-10-43 0-2-1-4-4-4a16 16 0 0 0-4-1c-5 1-5 1-6-3A68 68 0 0 0 85 1c-5-1-10-2-14 0a76 76 0 0 0-39 26c-8 10-13 21-13 34 0 3 0 5-3 7a3 3 0 0 0-2 2c0 5-4 8-6 12l-8 18a7 7 0 0 0 0 4l3 14 13 57 9 39 5 17a43 43 0 0 0 4 10c2 3 5 3 8 3 11 0 20-4 29-6l27-8a213 213 0 0 0 38-12l23-12a11 11 0 0 0 5-4 113 113 0 0 0 7-15l6-18zM29 59c3-16 11-28 24-37a84 84 0 0 1 15-7c4-2 8-2 13-1a73 73 0 0 1 31 14c4 3 11 11 13 17l-19 2c-8-12-20-19-36-16-15 3-25 12-28 29l-14 3a23 23 0 0 1 1-4m65-9-38 7c6-14 23-19 38-7M36 217a33 33 0 0 1-2-4l-14-58-10-42c-1-3-1-6 2-10l5-9 3 15 4 26c4 20 7 41 13 61 3 8 1 14-1 21m122-23a5 5 0 0 1-2 2l-21 9-24 8-48 13-19 4a26 26 0 0 1 1-3l3-14c1-3 2-4 4-4l20-3 14-3 25-6a345 345 0 0 0 48-17 46 46 0 0 1 4-1zm-107 1-3-9-8-36-11-64-2-14c37-7 74-15 112-16l26 106c-36 16-75 26-114 33m63-80a42 42 0 0 0 6-24c0-10-9-18-19-18l-8 1c-5 0-9 2-12 5a56 56 0 0 1-6 5c-6 4-11 13-8 20q3 9 9 15c2 2 4 4 3 7l-1 9-3 27a13 13 0 0 0 2 6c2 3 4 4 9 2l43-14c5-2 6-4 3-9zm-26 47a18 18 0 0 1 0-3l4-28c1-7 0-12-4-17a39 39 0 0 1-5-8 17 17 0 0 1 3-21c2-2 5-2 8-2a19 19 0 0 1 4 0c8 2 9 4 10 12a25 25 0 0 1-4 15c-2 3-1 6 1 10l12 19 7 12c-12 5-23 9-36 11"/></svg>