<svg width="395" height="397" viewBox="0 0 395 397" fill="none" xmlns="http://www.w3.org/2000/svg">
<g clip-path="url(#clip0_177_1130)">
<path d="M123.57 83.6199C116.21 83.0399 113.91 83.8899 107.15 83.2299C104.51 82.9699 102.17 83.1699 99.5401 83.2299L83.57 83.5299C80.8 83.5799 78.04 84.0599 75.77 81.6799C75.26 81.1499 75.7901 79.4899 76.6201 79.0399C80.0301 77.1599 90.51 75.3799 94.81 74.7399C102.63 73.5799 110.17 72.1099 118.09 71.5299L124.87 71.0299C131.25 70.5599 137.35 69.4799 143.74 70.0099C145.76 70.1799 148.02 71.2699 149.15 72.9499C152.78 78.3199 154.8 84.4499 155.27 90.9499L155.79 98.1399C155.94 100.17 155.87 102.04 155.81 104.12C155.72 107.4 156.31 110.79 156.4 114.13C156.5 117.76 156.19 125.03 161.26 125.08L183.77 125.29C185.78 125.31 193.79 128.2 195.61 122.38C196.78 118.63 196.74 114.77 196.96 110.78L197.25 105.32C197.52 100.3 197.63 95.2899 197.11 90.3199C196.61 85.5499 195.62 80.7399 198.71 76.5399C203.56 69.9699 213.72 71.5799 217.54 70.9999C232.08 68.8099 241.68 68.7699 256.37 69.1699C257.87 69.2099 259.23 69.3399 260.71 69.1999C268.25 68.4899 269.62 69.9799 275.19 69.2599C277.94 68.8999 280.58 69.1899 283.36 69.3599L290.1 69.7699C293.77 69.9899 297.16 69.9299 300.75 70.6599C304.34 71.3899 309.93 71.2099 312.06 71.6399L325.34 74.2999C328.06 74.8399 330.56 76.3199 331.39 79.2399C332.36 82.6399 332.93 86.4999 332.6 90.0999C332.27 93.6199 332.87 96.8199 332.55 100.24L332 106.08L333 114.65C333.4 118.07 333.44 121.51 334.27 124.88C335.38 129.42 335.39 133.94 335.98 138.51C336.56 143 337.55 147.11 337.53 151.73C337.53 153.15 337.73 154.87 337.88 156.34C338.32 160.65 338.54 164.7 338.8 169L339.1 174.06L340.79 190.91L341.32 198.06L341.99 206.97L343.48 224.36L344.38 233.15L344.61 241.14C344.85 249.4 346.23 258.16 339.59 265.27C338.12 266.84 337.58 268.88 337.7 271.03L338.05 277.4L338.46 307.25C338.53 312.33 339.65 316.97 339.65 322.09C339.65 325.13 340.58 328.24 340.35 331.35C340.04 335.53 340.74 339.47 340.96 343.59L341.48 353.25L341.85 360.04C342.08 364.26 341.98 368.47 341.99 372.67C341.99 374.74 343.33 375.65 345.37 375.68L352.49 375.8C356.83 375.87 360.82 375.65 365.18 375.92C366.76 376.02 371.92 375.76 372.49 373.22C374.09 366.14 375.16 355.76 374.06 348.67C374.79 343.31 374.66 338.13 373.84 332.87C373.34 329.67 373.75 326.46 373.88 323.2C374.21 315.12 374.17 307.19 373.86 299.07C373.61 292.53 373.39 286.06 373.82 279.5C374.11 275.1 374.71 271.13 374.3 266.7C373.85 261.91 373.92 256.97 374.18 252.1L374.59 244.46L374.88 238.59L375.16 232.23C375.31 228.77 375.7 225.14 375.49 221.76L374.67 208.43L374.24 198.35L373.85 187.34L373.4 181.06L372.49 171.53L372.21 160.23C372.15 157.98 371.84 155.94 372.21 153.71C372.19 153.86 372.13 134.92 372.21 133.36L372.87 121.32C373.22 114.98 372.64 108.79 372.95 102.48C373.08 99.7799 374.12 97.2099 373.49 94.4699C372.78 91.3699 372.81 88.3099 372.65 85.0899L372.19 76.1899C372.03 73.0199 372.19 69.6499 371.73 66.5299L369.76 52.9799L365.4 28.4499C364.92 25.7699 363.46 24.0899 360.75 24.0499L347.02 23.8399C344.67 23.7999 342.43 23.3099 340.11 23.7399C337.79 24.1699 335.47 23.6699 333.12 23.6299L314.81 23.3199C308.41 23.2099 302.08 22.8399 295.71 23.3199L278.19 24.6099L266.53 24.9399C264.74 24.9899 263.19 24.9699 261.39 24.9199L249.63 24.6199C247.84 24.5699 232.88 23.5899 230.64 23.3899L220.22 22.4599C218.56 22.3099 216.72 22.1699 215.07 22.2799C211.2 22.5499 207.96 21.5699 204.3 20.8699C201.28 20.2899 187.99 19.3999 187.64 15.2699C187.56 14.3299 188.4 13.0099 189.39 12.6499C195.43 10.4599 199.78 12.8499 203.3 12.8799L240.96 13.1999C245.34 13.2399 249.48 13.4999 253.84 13.2799L259.74 12.9999L266.46 12.7199C271.49 12.5099 276.24 12.3499 281.21 11.8399L289.26 11.0299L297.66 10.4299C301.55 10.1499 305.21 10.2099 309.07 10.2299L318.37 10.2899C321.72 10.3099 324.99 9.75988 328.31 10.2299C329.62 10.4199 330.95 10.1399 332.3 10.1299L359.24 9.93988L364.75 9.50988L372.35 9.07988C375.96 8.87988 379.43 10.2099 380.57 14.0799C381.39 16.8699 381.8 20.0199 382.01 23.0899C382.89 35.4799 386.28 43.1599 387.66 54.4699L389.49 69.4999L389.72 77.8799C389.72 77.5999 390.96 92.7199 391 93.0999C391.3 95.6899 391.16 98.0899 391.03 100.68L390.64 108.5L390.33 131.41C390.31 132.97 390.04 134.45 390.22 135.93C390.66 139.43 390.33 142.66 390.1 146.27C389.98 148.09 390.68 150.28 390.94 152.14C391.87 158.89 390.18 162.26 391.05 169.34C391.46 172.69 391.66 175.77 391.87 179.16L392.74 192.59L392.96 199.35L393.27 207.34L393.65 214.23L393.98 223.36C394.03 224.78 394.06 226.15 393.98 227.59L393.53 236.02L393.11 243.61C392.9 247.31 393.03 250.93 392.51 254.61C392.03 257.96 392.4 260.99 392.43 264.33L392.69 293.37C392.7 294.58 392.93 296 393.09 297.21C393.76 302.32 392.45 319.75 393.15 328.29L393.69 334.86C394.09 339.72 393.93 344.57 393.72 349.51L393.36 357.96L392.56 366.81L391.39 376.02C390.79 380.75 391.26 385.52 388.85 389.72C386.61 393.63 382.23 395.27 377.84 395.56L371.48 395.99C370.16 396.08 368.6 396.32 367.36 396.16C360.31 395.25 360.35 396.85 352.95 396.16C350.04 395.89 347.31 395.97 344.44 396C341.35 396.03 338.28 395.72 335.12 396.1C325.47 397.23 322.46 394.09 313.79 395.18C312.67 395.32 311.5 395.15 310.31 395.14L287.17 394.89C284.11 394.86 281.34 394.45 278.26 394.93C275.64 395.34 272.91 394.38 270.26 394.31L260.58 394.05L253.4 393.61C250.86 393.45 248.41 393.33 245.83 393.32C243.25 393.31 241.06 393.07 238.62 393.03L223.09 392.75L211.31 391.92C208.5 391.72 205.66 390.55 204.37 388.03C203 385.34 202.43 382.02 202.96 379.09C204.23 372.1 213.14 372.58 218.42 372.92L231.48 373.76L254.57 374.1L259.87 374.65L276.88 374.98C281.95 375.08 287.03 375.44 292.06 374.98C297.03 374.53 301.6 375.09 306.59 375.45C309.71 375.68 312.97 374.77 316.19 375.34C318.26 375.71 320.91 375.92 322.65 374.32C323.76 373.3 323.77 370.85 323.86 369.34L324.19 364.19C324.62 357.58 324.41 351.09 324.07 344.56C323.87 340.78 324.01 337.22 324.07 333.44C324.14 329.28 323.57 325.17 324.07 321.05C324.4 318.38 324.36 315.7 324.05 313.03C323.48 308.14 324.2 303.4 324.61 298.46L325.03 293.4L327.82 270.62C327.93 269.75 327.56 268.16 327.08 267.65C326.6 267.14 325.17 266.7 324.31 266.78C318.02 267.42 312.17 267.91 305.92 267.49C303.94 267.36 301.76 267.9 299.68 267.94L285.85 268.19C277.77 268.34 269.75 269.82 261.78 268C258.76 267.31 257.86 263.17 257.61 260.55C257.14 255.61 260.39 251.97 265.26 251.7L271.95 251.34L278.29 250.98C283.57 250.68 288.61 250.55 293.89 250.09C295.83 249.92 297.85 249.77 299.77 249.67L314.97 248.87L322.91 248.22C324.96 248.05 326.65 246.57 326.71 244.37C327.09 230.48 326.58 236.07 325.32 224.47L324.47 216.6C323.57 208.26 323.78 200.13 322.71 191.79L321.42 181.62L321.2 175.36C321.15 173.84 321.03 172.15 320.81 170.69C319.84 164.25 319.63 158.2 319.53 151.66C319.46 146.97 318.06 142.45 317.62 137.79C316.45 125.49 313.9 116.32 313.52 103.73L313.4 99.8199C313.33 97.5999 313.56 95.1299 312.82 93.0899C311.81 90.2999 302.29 90.2799 299.77 90.0099L282.11 88.1099L268.63 87.8699C266.69 87.8399 265.01 87.8499 263.05 87.8699L235.09 88.2199L224.77 88.5999C221.86 88.7099 218.9 89.6199 216.03 90.3699C214.51 90.7699 214.22 93.3099 214.2 94.6899L214.03 104.32C213.92 110.65 214.01 116.46 213.11 122.68C212.71 125.4 212.87 128.06 211.73 130.71C210.96 132.49 210.3 134.53 209.93 136.37C208.94 141.19 204.96 143.57 200.25 143.36L191.05 142.95L182.6 142.53L170.49 142.25L162.36 141.64C153.33 140.96 148.37 141.69 143.89 130.98C142.44 127.52 141.96 124.19 141.52 120.51C140.75 114.11 140.33 108.02 140.31 101.5C140.31 99.9199 140.01 98.0999 139.89 96.4799C139.56 91.8499 140.11 87.6599 138.17 85.8199C137.13 84.8299 135.68 84.5799 134.17 84.4599L123.55 83.6299L123.57 83.6199Z" fill="black"/>
<path d="M267.59 210.3C264.95 212.77 261.39 212.7 258.09 212.93C252.53 213.32 247.23 213.42 241.65 212.81C239.13 212.53 236.71 212.33 234.25 212.59C233.06 212.71 231.87 212.53 230.67 212.52L215.12 212.44C214.43 212.44 213.06 213.17 212.74 213.72C212.36 214.36 212.27 215.71 212.43 216.7C213.77 224.94 215.01 232.89 215.71 241.21L216.59 251.67C216.98 256.3 217.89 260.59 218.76 265.18C219.64 269.8 218.28 272 219.33 276.05C220.54 280.73 220.31 285.24 220.84 289.92C221.33 294.27 222.55 298.18 222.39 302.69C222.31 304.79 222.92 307.22 223.05 309.37L223.44 315.79C223.53 317.27 223.59 320.85 225.79 321.01C231.13 321.41 236.52 321.14 241.88 321.01L256.77 320.65C260.77 320.55 269.81 320.67 273.37 321.58C277.61 322.66 278.31 327.69 278.42 331.33C278.54 335.49 275.84 339.28 271.56 339.68C270.17 339.81 268.37 339.86 267.03 339.63C262.3 338.83 257.87 338.64 253.19 338.28L241.96 337.4L231.3 337.04L223.15 336.63C221.15 336.53 219.2 336.33 217.19 336.75C214.14 337.39 211.27 337.46 208.4 336.31C204.65 334.8 200.84 334.07 196.81 333.58L181.02 331.63C177.69 331.22 174.65 330.57 171.36 330.25L162.7 329.4L151.83 328.1C149.82 327.86 142.22 328.08 141.72 324.36C141.29 321.2 148.94 320.8 150.99 320.65L163.21 319.78C165.4 319.62 167.42 319.74 169.61 319.79L185.02 320.16C190.82 320.3 196.54 320.4 202.36 320.34C204.24 320.32 204.48 317.97 204.63 316.6C205.53 308.59 204.15 309.42 204.76 300.71C204.89 298.8 204.28 296.61 204.25 294.59L204.04 278.2C204.01 276.15 203.6 273.91 203.76 271.89C203.99 268.98 202.23 267.4 199.46 267.12L185.69 265.76L176.3 264.95L171.23 264.54C168.83 264.34 166.5 264.5 164.08 264.48L149.73 264.41L140.06 264.52L130.13 264.91L113.94 265.26C111.57 265.31 109.29 265.69 106.95 265.3C103.69 264.76 100.75 265.31 97.3999 265.89C95.9499 266.14 92.6299 266.1 92.5699 268.21L92.2299 279.39C92.1699 281.33 92.0299 283.06 92.2099 284.96L92.6199 289.41C92.9299 292.82 92.7499 296.22 92.6499 299.66L92.5099 304.36C92.3999 308.22 92.0899 312.24 92.5899 316.06C93.1599 320.39 93.5599 324.44 93.8799 328.79L94.6999 339.73L95.4999 349.4L95.8899 354.93C96.1299 358.39 96.1099 361.32 95.5299 364.77C95.1399 367.09 95.4599 369.76 95.1999 372.16C94.9799 374.27 94.7999 376.28 95.1299 378.33C95.3799 379.9 97.0199 380.92 98.5699 380.85C101.81 380.7 104.86 380.78 108.12 380.89L117.64 381.23L122.77 381.53C125.97 381.71 129.24 382.27 132.42 382.22C135.6 382.17 143.55 380.8 144.96 384C146.16 386.74 140.77 388.18 138.11 388.44L128.49 389.41C124.78 389.78 121.44 390.5 117.67 390.38C115.57 390.32 113.48 390.5 111.39 390.64L104.63 391.1L99.5399 391.45L92.3099 392.26C88.1099 392.73 77.8899 392.31 72.4999 392.32L37.1499 392.35C34.7299 392.35 32.3899 391.94 29.9699 392.04C26.4499 392.19 23.2599 391.49 19.7899 391.37L9.46987 391.02C6.46987 390.92 3.58987 389.44 2.78987 386.41C1.35987 380.93 4.95987 377.69 5.32987 369.03L5.64987 361.68L6.07987 355.8C6.19987 354.19 6.22987 352.72 6.05987 351.08C5.83987 348.96 6.14987 346.52 5.76987 344.47C4.84987 339.42 4.95987 334.73 4.57987 329.59L3.64987 317.08C3.49987 315.05 3.68987 313.12 3.54987 311.07C3.24987 306.76 1.86987 298.37 1.84987 297.1L1.52987 275.44L1.13987 263.87C1.08987 262.25 1.12987 260.77 1.14987 259.14L1.37987 243.96L2.49987 234.33C2.81987 231.63 2.61987 229 2.96987 226.34C3.60987 221.54 3.09987 217.11 3.08987 212.35L3.05987 188.32C3.05987 185.25 3.77987 182.27 3.19987 179.24C2.68987 176.63 3.25987 174.1 3.28987 171.44C3.40987 161.59 3.60987 151.93 3.19987 142.18L2.75987 131.67L2.32987 121.96L1.96987 110.77C1.90987 109.02 1.92987 107.39 1.96987 105.64L2.33987 89.8702C2.49987 83.0702 2.74987 76.3202 2.33987 69.5002L1.56987 56.7502L0.509868 46.6702L0.209868 38.9202C-0.110132 30.2602 -0.0201322 21.7702 0.159868 12.9602C0.199868 11.0302 2.82987 1.79019 6.32987 1.72019L19.7999 1.42019C22.1699 1.37019 24.1999 1.20019 26.6399 1.49019C28.8099 1.75019 31.1499 1.06019 33.3599 0.850192L37.5899 0.440192L50.2399 0.190192C53.6799 0.120192 56.8799 -0.269808 60.3299 0.350192C62.3899 0.720192 64.3499 0.770192 66.3899 0.510192C72.2899 -0.249808 79.5099 1.35019 83.5899 1.31019C88.7499 1.25019 93.6699 1.06019 98.8599 1.36019C105.53 1.75019 112.16 1.65019 118.88 1.45019C120.66 1.40019 122.36 1.09019 124.09 1.39019C129.03 2.24019 134.18 1.65019 137.76 6.32019C139.43 8.49019 139.29 11.3302 138.93 13.8602C138.11 19.6402 133.52 22.1802 127.7 22.6702L119.84 23.3302L110.67 22.4102C107.63 22.1002 104.53 22.1702 101.49 22.4602C98.1999 22.7702 95.0399 22.4602 91.7099 22.4202L68.7799 22.1202C67.7499 22.1102 66.4399 21.8602 65.3799 21.7202C61.2199 21.1602 57.3399 21.4402 53.1299 21.7202C50.6999 21.8802 48.0199 20.5402 45.5399 20.9602C39.1599 22.0302 33.0499 22.3902 26.6399 22.2602C19.2599 22.1102 23.4699 34.7402 23.1599 37.4202L22.4399 43.7102L23.2999 53.4702C23.6499 57.4602 24.2199 61.2002 24.0799 65.2502C23.8599 71.7302 25.2299 71.6102 24.6799 80.8402L23.8799 94.3502C23.7299 96.8902 24.2699 99.6002 23.8799 102.16C23.5599 104.25 23.6799 106.15 23.9599 108.35C24.0499 109.06 23.6999 110.41 23.6899 111.23L23.5299 137.29C23.5199 139.21 23.0999 141.04 23.4499 142.95C23.7999 144.86 24.3799 147.12 24.4099 149.15C24.5199 157.52 24.6199 165.63 24.2999 173.89C24.1699 177.33 23.7999 180.65 24.2199 184.05C24.4599 185.98 24.2199 187.73 24.1899 189.69L23.9399 209.03C23.9099 211.75 23.6299 214.32 23.6499 217.05C23.6699 220.21 23.5299 223.2 23.3199 226.32L22.9399 231.82C22.5899 236.84 22.5999 241.64 21.5399 246.58C22.0599 251.88 21.9899 257.01 21.7199 262.31C21.3699 269.03 21.4299 275.64 21.6499 282.42C21.7199 284.53 21.9899 286.61 21.9299 288.74C21.8199 292.95 22.1299 296.88 22.5699 301.02L23.9199 313.65L24.1799 322.02C24.2699 324.76 25.0699 327.31 24.8999 330.07C24.6399 334.15 25.2999 337.91 25.5299 341.94C25.8499 347.64 25.9599 353.41 25.5199 359.09L24.7399 369.25C24.5599 371.63 23.6999 374.02 24.1599 376.46C24.4299 377.89 26.7099 378.73 28.0499 378.8L35.6699 379.24L56.6699 379.64L70.7699 379.99C72.8199 380.04 75.7299 380.53 77.0199 378.34C78.7299 375.45 78.2499 371.72 78.5699 368.42C78.9999 363.96 78.8599 359.8 78.6099 355.37L77.8699 341.88C77.4399 334.05 77.1599 326.77 75.6699 319.04C75.2299 316.78 75.2599 313.9 75.2299 311.51L74.9099 285.15L74.4499 276.3C74.1599 270.79 74.1399 265.32 74.4499 259.79C74.6199 256.64 75.3999 253.44 77.7999 251.34C79.9899 249.43 83.1399 248.18 86.1599 247.98C91.3099 247.64 96.3599 247.79 101.5 248.01L112.4 248.48L128.83 248.85L139.66 249.72L151.44 250.58L159.87 251.37C166.38 251.98 172.54 252.58 178.93 253.95C182.96 254.81 186.8 255.36 190.76 256.52C194.29 257.55 197.97 258.2 201.57 258.6C203.44 258.81 204.13 256.42 204.16 255.03L204.37 245.44C204.52 238.44 205.13 219.43 203.3 213.52C202.79 211.86 199.71 211.65 198.33 211.58L190.66 211.22L183.93 210.73L172.91 209.79L164.52 208.64L157.78 208.28L149.32 207.83L143.86 207.4L119.42 207.37C117.4 207.37 115.08 208.23 113.11 208.06C102.36 207.11 101.39 209.37 91.1199 206.93C87.1699 205.99 84.2899 203.59 81.9399 200.49C80.1899 198.19 78.5299 195.86 78.1399 192.93L76.3999 179.89L74.8599 166.34C74.6599 164.58 74.4299 162.72 74.3899 160.93L74.1799 150.81C74.0799 146.07 73.2999 141.35 74.5899 136.7C75.9199 131.9 80.7499 129.01 85.6399 129.3C88.5599 129.47 90.9699 131.38 91.5799 134.34C96.1799 156.66 90.0699 156.52 92.6899 176.13C93.2799 180.51 92.1899 185.42 94.1499 189.53C95.6699 192.73 99.5899 192.35 102.53 192.31L120.68 192.07C122.01 192.05 123.55 191.75 124.9 191.59C127.38 191.29 129.63 191.5 132.11 191.55L152.49 191.97L162.85 192.26C172.33 192.53 181.45 193.66 190.86 194.07L200.56 194.49L214.88 194.89C220.02 195.03 225.13 195.25 230.26 194.9C234.74 194.6 238.89 194.67 243.43 194.98C245.27 195.11 247.51 194.59 249.36 194.39C251.74 194.14 253.4 192.65 253.98 190.34C255.15 185.67 255 180.93 255.35 176.09L255.74 170.58L256.23 161.77L257.57 148.36C258.01 144 258.92 139.88 259.82 135.59C260.04 134.55 261.41 133.31 262.26 133.15C266.9 132.28 266.96 146.65 267.13 149.12L267.55 155.42L267.84 161.33L268.12 168.05C268.35 173.69 268.54 178.96 269.52 184.52C270.67 191.06 268.97 193.7 269.69 201.35C269.98 204.41 270.16 207.87 267.63 210.23L267.59 210.3Z" fill="black"/>
</g>
<defs>
<clipPath id="clip0_177_1130">
<rect width="394.09" height="396.33" fill="white"/>
</clipPath>
</defs>
</svg>
