<svg xmlns="http://www.w3.org/2000/svg" viewBox="0 0 52 87"><path fill-rule="nonzero" d="M28.417 74.732c.401-1.13.01-2.142-.669-3.01a5.6 5.6 0 0 0-1.595-1.386c-1.788-1.011-4.225.404-4.34 2.463-.125 2.239 1.34 3.782 3.573 3.767 1.389-.008 2.645-.751 3.03-1.834m-2.14-62.828c-2.52.125-5.044.204-7.556.425-.378.032-.872.677-.99 1.124-.113.429.033 1.14.343 1.427.928.86 2.073 1.564 3.346 1.589 3.43.064 6.865.05 10.29-.1 1.148-.048 1.813-1.047 2.187-2.137.301-.886-.256-2.052-1.12-2.074-2.162-.056-4.329-.02-6.492-.02q-.005-.116-.007-.234m-.449 40.756c3.589-3.53 6.701-7.55 10.912-10.438.74-.51.36-1.331-.084-1.914-.988-1.3-2.39-1.405-3.718-.142a530 530 0 0 0-9.277 9.082c-.626.626-1.218 1.37-1.558 2.174-.254.602-.192 1.41-.052 2.08.1.479.508.954 1.262.913 1.064-.147 1.749-1 2.515-1.755m-9.997.099c6.393-6.392 12.805-12.764 19.191-19.163 1.345-1.346 1.607-2.382 1.021-3.324-.655-1.057-2.047-1.054-3.833.133-3.193 2.119-5.828 4.883-8.24 7.795a47 47 0 0 1-4.841 5.02c-2.396 2.153-4.357 4.794-6.45 7.27-.318.376-.384.993-.486 1.513-.145.729.974 1.762 1.747 1.656.757-.032 1.354-.363 1.891-.9m-8.925-9.316h-.152c0 5.629-.011 11.258.004 16.887.012 4.54.152 9.082.066 13.619-.112 5.778 1.16 6.115 5.81 5.827 2.894-.18 5.819.126 8.71-.07 2.776-.186 5.358.767 8.063.974 2.96.226 5.693-.944 8.618-.906 6.173.077 5.46.719 5.572-5.483.104-5.811-.108-11.653.443-17.421.449-4.7.63-9.382.721-14.082.113-5.81.136-11.623.288-17.432.051-1.976.843-4.036.474-5.895-.645-3.257-.316-6.513-.65-9.75-.143-1.4-.607-1.935-2.041-1.932-5.447.01-10.893.068-16.34.112-5.264.042-10.53.08-15.795.14-.716.009-1.446.062-2.143.216-.756.167-1.324.732-1.471 1.456-.18.873-.17 1.794-.17 2.694-.012 10.349-.007 20.697-.007 31.046M1.182 58.997c0-4.538.017-9.076-.01-13.614-.01-1.805-.383-3.591-.555-5.363-.402-4.13-.231-8.315-.292-12.478 1.316-2.345-.07-4.9.649-7.401.628-2.194.232-4.683.277-7.042.055-2.904.037-5.81.166-8.71C1.523 2.035 3.16.376 5.547.118c1.259-.136 2.537-.12 3.806-.115 5.082.016 10.164.112 15.246.06 2.732-.03 5.382.702 8.05.796 3.948.14 7.903.476 11.864.3.723-.031 1.46-.045 2.173.06 2.358.347 4.33 2.189 4.72 4.553.235 1.425.306 2.893.295 4.34-.065 7.623.277 15.286-.378 22.86-1.078 12.493-.613 24.996-1.04 37.487-.142 4.145-.64 8.28-1.062 12.413-.116 1.148-.93 1.933-2.032 2.33-3.675 1.325-7.503 1.488-11.244.742-1.991-.397-3.932-.544-5.911-.55-6.172-.016-12.343.027-18.513.037-1.453.002-2.907.007-4.357-.058-3.906-.175-5.288-1.327-5.299-5.26-.009-3.07-.77-6.052-.577-9.14.19-3.072.006-6.167-.01-9.253-.005-.908 0-1.816 0-2.723z"/></svg>