<svg xmlns="http://www.w3.org/2000/svg" viewBox="0 0 181.407 177.024"><g data-name="Layer 2"><path d="M59.892 14.78c7.36.944 13.962-.714 20.637-1.243a31.64 31.64 0 0 1 13.887 1.8 5.88 5.88 0 0 1 3.684 4.28c1.7 5.569.776 10.678-1.509 15.834-2.374 5.361-5.791 10.067-9.191 14.73-4.819 6.619-8.5 13.932-13.257 20.562-1.9 2.651-3.955 5.2-6.071 7.687-1.4 1.641-1.757 2.543.4 4.15 4.249 3.162 8.536 6.129 13.511 8.02a10.9 10.9 0 0 1 2.4 1.273c2.007 1.426 2.415 3.593 2.212 5.81-.185 2.032-2.03 3.418-4.715 3.822A17.55 17.55 0 0 1 71.275 99.8c-4.366-2.2-8.984-3.9-12.99-6.842-2.754-2.023-3.049-1.866-5.547.558a80.7 80.7 0 0 1-23.747 16.061 20.5 20.5 0 0 1-5.776 1.476c-3.471.417-6.593-1.555-7.329-4.327-.924-3.479.43-6.119 4.364-7.613 7.079-2.689 12.988-7.191 18.857-11.772a41 41 0 0 0 3.081-3.056c1.352-1.309 1.13-2.405-.218-3.624-4.24-3.832-6.822-8.911-9.908-13.592a11.46 11.46 0 0 1-2.2-6.6 6.3 6.3 0 0 1 4.233-6.31c2.473-1.006 5.253-.189 7.274 2.175a13 13 0 0 1 1.531 2.252c2.46 4.577 6.844 7.367 10.241 11.072 1.21 1.319 2.437 1.227 3.683-.148a114.7 114.7 0 0 0 13.689-18.191c4.07-6.829 7.68-13.933 11.467-20.93 1.287-2.377 1.04-2.922-1.591-2.955-12.668-.161-25.354-1.415-38 0-8.1.906-16.116 2.477-24.2 3.536-5.118.671-10.141.189-14.714-2.611A6.39 6.39 0 0 1 .062 21.6c.238-2.062 1.268-3.122 3.059-3.075 3.832.1 7.531-1.107 11.387-.835 3.443.242 6.821-.635 10.226-1.137a79.4 79.4 0 0 1 11.311-1.244c3.532-.013 3.594-.367 3.693-3.8.058-2-.005-4 .128-5.994.219-3.3 1.6-5.007 4.225-5.457 2.474-.424 5.378 1.415 6.365 4.093a8.55 8.55 0 0 1 .361 4.825 28 28 0 0 0-.62 3.182c-.141 1.492.473 2.433 2.144 2.418 1.447-.013 2.9.024 4.343.065 1.269.038 2.536.11 3.208.139m121.314 151.145a15.8 15.8 0 0 0-1.015-3.089 117 117 0 0 1-8.294-24.644c-.691-3.187-1.411-6.384-2.387-9.492-2.5-7.969-3.919-16.193-5.914-24.28-1.387-5.625-2.405-11.351-4.018-16.908-2.223-7.655-4.9-15.175-6.348-23.049a8.74 8.74 0 0 0-1.891-4.456c-3.2-3.5-7.877-2.9-10.4 1.464-4.261 7.358-7.118 15.39-10.956 22.977-6.923 13.685-13.973 27.328-19.909 41.511-4.746 11.34-10.233 22.371-14.381 33.965a89 89 0 0 0-3.431 10.851c-.7 3.218.777 4.919 4.153 5.924 2.863.852 5.115.072 6.142-2.86 1.209-3.453 3.154-6.527 4.476-9.893 4.249-10.818 9.711-21.052 14.905-31.419 1.018-2.032 2.278-3.131 4.552-3.118 2.175.012 4.353-.159 6.526-.111 5.8.13 11.587.429 17.382.483 6.3.06 6.3-.028 8.158 5.971.107.345.182.7.259 1.055 2.187 10.067 4.412 20.119 7.727 29.9 1.219 3.6 5.167 6.676 8.984 6.536 4.194-.153 6.618-3.243 5.68-7.318m-49.52-47.063c-1.8.02-2.277-.741-1.51-2.323 2.452-5.054 4.887-10.116 7.385-15.146 2.094-4.218 4.256-8.4 6.418-12.585.326-.631.846-1.684 1.224-1.661.943.056 1.352 1.089 1.617 1.915a52 52 0 0 1 2.263 7.8c.884 5.752 2.833 11.215 4.149 16.844.165.705.338 1.413.437 2.129.353 2.57.161 2.833-2.373 2.866-3.268.043-6.537.01-9.806.01v.146c-3.267-.005-6.536-.031-9.804.005" data-name="Layer 1"/></g></svg>