<svg xmlns="http://www.w3.org/2000/svg" viewBox="0 0 74.395 65.604"><g data-name="Layer 2"><path d="M48.84 44.954c-3.776.279-14.188.221-15.615.169-3.086-.113-6.178-.058-9.266-.127-4.217-.094-6.948-1.844-8.248-5.747-1.136-3.409-1.938-6.937-2.758-10.442-1.315-5.624-2.495-11.28-3.8-16.906a22.3 22.3 0 0 0-1.3-3.557c-1-2.372-2.62-3.879-5.4-3.743a2.9 2.9 0 0 1-1.569-.292A2 2 0 0 1 .008 3.05a1.76 1.76 0 0 1 .55-1.4A7.98 7.98 0 0 1 7.789.357c2.075.614 3.856 1.68 4.555 4.2.62 2.238 1.92 4.267 2.157 6.683a2.02 2.02 0 0 0 2.286 1.866 18.3 18.3 0 0 0 3.805-.141c6.287-1.3 12.656-.723 18.988-.965 3.793-.144 24.79-1.034 31.512-1.012 2.26.007 3.361 1.28 3.3 3.432a14.2 14.2 0 0 1-.674 4.275c-2.172 6.329-4.187 12.711-6.377 19.033-1.671 4.822-5.112 7.155-10.328 7.219-2.724.035-5.449.007-8.173.007m-15.03-4.875a97 97 0 0 0 9.79.121c2.805.079 8.656-.728 13-.793a7.8 7.8 0 0 0 3.7-.688 4.09 4.09 0 0 0 2.249-2.2c1.223-3.4 2.535-6.766 3.747-10.168.466-1.307-.36-2.317-1.646-1.932a28.3 28.3 0 0 1-9.7.778c-2.153-.11-16.506.05-22.615.482a63 63 0 0 1-7.53.707c-1.27.025-2.543-.061-3.813-.033-2.214.048-2.824.892-2.21 3.153.8 2.961 1.667 5.906 2.525 8.851.459 1.573.945 1.936 2.772 1.916 3.251-.029 6.491-.124 9.731-.194m15.2-23.553c-7.959-.563-17.5.959-27.1 1.277a20.7 20.7 0 0 0-4.71 1.111 1.06 1.06 0 0 0-.5.842 3.04 3.04 0 0 0 2.9 3.158c.727 0 1.455-.005 2.18-.044 5.389-.294 10.774-.682 16.166-.871 5.082-.178 10.176-.04 15.257-.244 4.692-.188 9.373-.634 14.057-.992.913-.07 1.415-1.049 1.419-2.581a1.45 1.45 0 0 0-1.652-1.647c-5.447-.021-10.897-.009-18.022-.009Zm-18.86 34.75a8.63 8.63 0 0 1 5.732 1.687 6.243 6.243 0 0 1 1.5 8.592c-2.7 4.017-7.306 4.443-10.483 3.812a6.235 6.235 0 0 1-5.011-5.646 8.25 8.25 0 0 1 2.761-7.27c1.458-1.366 3.324-1.131 5.496-1.175Zm-.311 4.674a2.39 2.39 0 0 0-2.426 1.778 2.476 2.476 0 0 0 1.006 2.8 4.9 4.9 0 0 0 3.618.546 2.59 2.59 0 0 0 1.777-2.428 1.71 1.71 0 0 0-1-1.721 5.68 5.68 0 0 0-2.98-.975Zm28.1 1.184c-.081 3.612-1.563 5.4-4.9 6.643-1.408.526-2.8 1.019-4.2.472-2-.783-4.195-1.342-5.623-3.121a2.97 2.97 0 0 1-.62-2c.4-3.174 1.673-5.835 4.587-7.565 3.832-2.275 8.9.256 10.423 3.784a7 7 0 0 1 .331 1.787Zm-7.29 3.074c1.605-.031 2.545-.65 2.773-1.64a3.04 3.04 0 0 0-1.122-3.343 3.51 3.51 0 0 0-3.961.707c-1.168 1.009-1.6 2.007-1.181 2.727.73 1.256 1.948 1.486 3.246 1.548.176.008.356.001.243.001Z" data-name="Layer 2 Image"/></g></svg>