<svg xmlns="http://www.w3.org/2000/svg" viewBox="0 0 463.502 523.607"><g data-name="Layer 2"><path d="M333.469 49.777q-.57 16.787-1.125 33.573a40 40 0 0 0 .2 4.262c.285 3.728 1 4.8 4.948 4.019a24 24 0 0 1 6.093 0c4.582.3 6 1.518 7.1 6.054a9.8 9.8 0 0 1 .377 3.605c-.368 2.46.89 3.292 2.978 3.607a9 9 0 0 1 1.764.491c4.437 1.631 5.764 3.389 5.765 8.2 0 4.475-.129 8.954-.365 13.423-.513 9.75-.908 19.466.48 29.209.856 6.007-1.51 8.717-7.63 9.178-6.062.457-12.157.852-18.228-.166-.631-.106-1.691-.626-1.893.536-.066.378.572 1.057 1.043 1.324 5.475 3.111 10.635 6.779 16.442 9.305a44 44 0 0 1 4.389 2.124c5.195 2.987 6.151 6.129 3.655 11.708-2.666 5.959-2.653 5.9 3.95 7.292a33.9 33.9 0 0 1 8.688 2.79c2.214 1.147 4.937 2.613 5.25 4.806.624 4.37 3.66 4.28 6.573 4.767a63.5 63.5 0 0 1 33.814 16.872c15.763 14.828 27.751 32.327 37.021 51.715a46.7 46.7 0 0 1 4.739 19.446c.129 8.172 2.69 16.039 3.291 24.165a273 273 0 0 1 .437 32.132c-.541 12.4-2.817 24.5-4.756 36.66-1.276 7.994-3.645 15.819-5.638 23.69-2.939 11.606-5.95 23.193-9.5 34.633a34.4 34.4 0 0 1-4.8 10.487c-4.43 6.015-11.388 5.887-15.7-.241-2.413-3.429-3.241-7.416-4.247-11.354-3.791-14.843-3.238-29.782-1.4-44.832 1.257-10.29 2.075-20.634 4.031-30.83.534-2.789 1.285-5.536 1.846-8.321.244-1.209-.2-2.047-1.632-1.539a66.3 66.3 0 0 1-16.688 3.313c-1.708.146-1.914.932-.968 2.4 4.887 7.554 3.636 11.568-4.93 15.4-1.919.859-2.061 1.88-1.854 3.767 2.813 25.564-4.437 47.8-22.354 66.387a81.4 81.4 0 0 1-14.262 12.383 4.61 4.61 0 0 0-2.469 3.866c-.471 6.91-5.082 11.6-9.97 15.44-7.032 5.53-15.575 7.691-24.5 7.98-7.74.251-13.068-3.854-16.8-10.131-1.161-1.955-2.167-3.159-4.5-3.352-12.437-1.034-23.605-5.882-34.3-11.906a110 110 0 0 1-11.593-7.9c-1.894-1.413-3.515-2.21-6.071-1.709-9.32 1.824-17.446-.93-23.713-7.938-4.551-5.088-7.786-10.974-5.7-18.34a11.6 11.6 0 0 0 .4-3.616c-.314-7.18 3.581-11.77 9.819-13.823 4.216-1.388 5.294-3.719 6.131-7.613a87.3 87.3 0 0 1 16.4-35.081c2.117-2.757 2.673-4.737.783-7.992-4.336-7.468-2.544-14.4 2.973-20.688a11.92 11.92 0 0 1 8.444-4.307c.813-.058 1.624-.151 2.437-.175a21.7 21.7 0 0 0 14.754-5.947c5.418-4.959 12.049-8.231 19.11-10.512 4.106-1.326 4.292-1.739 3.765-5.564-1.31-9.489-2.451-18.981-.091-28.474.462-1.858.051-2.909-1.815-3.841a46 46 0 0 1-7.142-4.643c-3.146-2.388-4.667-5.541-3.829-9.606a45 45 0 0 1 2.289-8.818 105 105 0 0 0 4.1-12.126c2.205-7.655 4.911-15.113 9.075-21.91 1.658-2.707 1.037-4.438-1.053-6.2-3.567-3.009-7.012-6.183-10.754-8.958-3.771-2.8-7.127-6.039-10.675-9.073-3.226-2.759-3.752-6.117-2.263-9.929a28.2 28.2 0 0 1 4.441-7.256c5.2-6.528 10.422-13.027 16.782-18.5.587-.5 1.489-.922 1.185-1.883-.317-1.006-1.326-.717-2.064-.738-7.517-.217-15.061.093-22.518-1.217-1.4-.247-2.812-.474-4.177-.858-3.848-1.084-6.342-3.2-6.63-7.616a204 204 0 0 1 .6-34.73c.021-.2.053-.4.079-.606 1.27-10.013 1.262-10.057 11.015-12 1.612-.322 2.641-.68 2.581-2.574a10.8 10.8 0 0 1 .5-2.984c1.9-7.275 3.292-8.438 10.813-9.12 4.261-.387 4.187-.387 4.2-4.529.04-15.87.677-31.708 2.148-47.522.484-5.208.076-10.5.089-15.752a136 136 0 0 1 1.35-20.649c.525-3.377 1.794-4.917 3.662-4.781s2.923 1.879 2.889 5.282c-.116 11.786.256 23.612-.62 35.344-.892 11.948-2.214 23.876-2.927 35.846-.254 4.261-.137 8.543-.233 12.814-.052 2.32.929 3.262 3.317 3.1 3.65-.255 7.318-.393 10.976-.347 2.377.029 3.211-1.042 3.4-3.232.962-10.906 2.1-21.779 1.531-32.779-.623-11.984-.948-23.991-1.078-35.991a126 126 0 0 1 1.176-15.18c.179-1.613-.172-4.22 2.411-4.141 2.178.066 2.5 2.319 2.893 4.12a49.2 49.2 0 0 1 1.517 10.238l.174 34.684ZM448.28 309.468c.675-8.8-1.087-16.527-3.319-24.119a73.2 73.2 0 0 0-5.99-14.62c-1.271-2.318-2.636-2.777-4.9-1.8-3.352 1.446-6.678 2.994-10.13 4.156-4.923 1.658-6.679.658-8.192-4.159-.243-.773-.349-1.589-.553-2.375-1.251-4.82-2.211-5.641-7.225-5.319-3.647.235-7.264.9-10.906 1.262-6.979.688-10.368-2.571-9.928-9.539a34 34 0 0 1 .742-3.577c1.025-5.867 3.583-11.2 5.91-16.594.882-2.042 1.087-3.337-1.127-4.426C386.846 225.5 381 222.7 375.3 219.6c-2.476-1.345-3.977-.836-5.8 1.065-4.356 4.55-8.9 8.922-13.4 13.335-14.432 14.161-27.551 29.336-36.752 47.537-.844 1.67-1.788 3.5-3.545 4.028-3.558 1.06-3.946 3.724-3.945 6.653a92.4 92.4 0 0 0 2.76 23.506c.844 3.219 1.241 3.432 3.888 1.292 7.837-6.338 17.036-9.354 26.742-10.99 6.792-1.146 13.257-.368 19.19 3.823 8.7 6.142 14.195 13.755 13.734 24.934-.087 2.094-.921 4.971.962 6.328 1.055.761 3.453-.445 5.26-.6a15.2 15.2 0 0 1 9.314 2.39c4.279 2.606 5.451 7.609 3.209 12.853-1.262 2.95-1.043 3.322 2.064 3 2.819-.293 5.62-.746 8.432-1.111 11.4-1.481 21.11-6.522 28.292-15.33 7.878-9.646 12.373-20.913 12.575-32.845m-60.035 94.87c-.255-5.872-.549-11.743-.742-17.618a3.494 3.494 0 0 0-2.623-3.623 86 86 0 0 1-12.36-5.182c-1.564-.784-2.467-.921-2.783 1.345-.391 2.8-.761 5.818-2.106 8.2-1.53 2.7-.966 3.952 1.407 5.288 6.48 3.65 9.737 9.416 11.24 16.571 2.394 11.388-2.81 18.061-14.421 18.816a16.5 16.5 0 0 1-3.605-.374 39.3 39.3 0 0 1-17.558-7.991c-7.972-6.031-9.846-16.019-4.737-24.386.8-1.318 3.049-2.315 2.284-3.874-.722-1.474-2.978-.677-4.542-.972a24 24 0 0 0-2.425-.244 386 386 0 0 1-47.616-6.982c-2.985-.631-6.064-1.186-7.838-4.141-.876-1.46-2.389-1.522-3.769-1.529-3.347-.019-6.364-1.162-9.4-2.349-3.715-1.45-3.77-1.435-5.672 1.718a230 230 0 0 0-11.86 22.689c-1.273 2.767-2.431 5.6-3.46 8.462s-.663 3.435 2.447 4.081a82.7 82.7 0 0 1 12.356 3.215c1.264.475 2.365.677 3.217-.594 4.209-6.285 10.738-9 17.446-11.554 8.271-3.146 16.254-2.286 24.25 1.03 5.418 2.247 9.289 6.5 13.6 10.126 8.6 7.231 12.631 16.676 12.486 27.91-.015 1.21.079 2.423.158 3.633.3 4.712.309 4.723 4.724 4.872 6.384.215 11.746 2.993 16.392 7.048 3.156 2.754 2.946 3.009 6.375.64a32.6 32.6 0 0 0 6.721-6.182c3.218-3.931 6.373-7.916 9.529-11.9 8.394-10.587 12.387-22.722 12.885-36.149m-96.822 8.082c-7.736.3-14.51 3.477-21.053 7.228-3.382 1.939-3.367 2.1-1.313 5.549 3.883 6.52 3.771 13.089.374 19.713-1.548 3.018-4.43 4.674-6.978 6.686-2.2 1.737-2.178 2.559.248 4.018 6.437 3.873 12.7 8.179 19.506 11.254a107 107 0 0 0 20.233 6.659c2.269.519 3.5-.169 4.033-2.366a16 16 0 0 1 .844-2.926c2.658-5.742 5.642-11.229 11.219-14.8 2.193-1.4 5.834-1.26 6.571-3.853.656-2.312-.447-5.142-.86-7.729a36 36 0 0 0-.893-3.542c-2.6-9.769-9.8-15.667-17.825-20.707-4.271-2.68-8.636-5.495-14.106-5.184m59.732-277.06-.311-.019c.18-5.283.3-10.569.566-15.847.13-2.554-.708-3.8-3.434-3.63-3.849.248-7.712.275-11.563.5-10.543.628-21.039 1.758-31.66 1.044-7.063-.474-14.183.25-21.253-.972-3.074-.531-3.209-.158-3.3 3.428-.1 4.065-.178 8.133-.159 12.2.03 6.3-.169 12.6.332 18.909.211 2.669 1.121 3.572 3.621 3.6 2.84.027 5.684.487 8.515.4 11.177-.358 22.347-.919 33.524-1.268a39.3 39.3 0 0 1 9.717.5c4.452 1 8.912.7 13.361 1.057 2.291.183 2.684-.929 2.6-2.89-.254-5.667-.38-11.341-.556-17.012m71.89 268.873c-.663 11.011.585 21.932 1.786 32.832.485 4.41 1 8.9 2.655 13.118.312.794.818 1.7 1.563 1.646.426-.032.846-1.2 1.129-1.917 4.889-12.324 7.915-25.2 10.742-38.086 3.219-14.67 6.538-29.335 8.406-44.279 1.21-9.685 2.054-19.392 2.738-29.12.048-.673.441-1.806-.792-1.878-.4-.023-.933.652-1.24 1.117-3.7 5.592-7.129 11.487-12.758 15.375-4.414 3.049-6.861 7.031-8.466 12.066-4.065 12.757-4.978 25.921-5.763 39.126m-74.07-198.013c-7.433-1.288-14.136.447-19.044 5.71-2.2 2.363-3.959 5.139-6 7.66-1.731 2.136-1.826 3.95.642 5.577a10.98 10.98 0 0 1 4.448 5.644 4.13 4.13 0 0 1-1.375 4.915 3.54 3.54 0 0 1-4.522.06c-.839-.574-1.631-1.215-2.46-1.8-3.468-2.462-3.685-2.576-5.821 1.33-3.014 5.514-5.684 11.217-8.477 16.851a53.8 53.8 0 0 0-4.524 14.493c-.844 4.689-.1 6.052 4.066 8.418 1.22.692 2.645 1.011 3.908 1.637 2.04 1.01 3.386.47 4.494-1.484 7.258-12.8 16.885-23.864 25.888-35.389 1.382-1.768 2.9-3.377 4.421-5.019a309 309 0 0 1 22.457-21.5c.881-.778 2.5-1.465 2.138-2.705-.4-1.381-2.2-1.8-3.491-1.853-5.923-.249-11.472-2.878-16.748-2.545m1.827-18.879c.361-2.5-1.094-2.714-2.131-3.158-9.71-4.158-19.525-8.09-28.841-13.1-1.772-.953-2.888-.68-4.307.548-7.419 6.422-13.585 14.012-20.065 21.31-1.386 1.561-1.588 2.876-.033 4.731 4.586 5.473 9.848 10.273 14.925 15.237 4.151 4.06 3.693 5.062 8-.409 7-8.9 14.649-17.11 27.41-16.807a2.02 2.02 0 0 0 1.949-1.225c1.134-2.604 2.261-5.211 3.091-7.127Zm.594 195.925c.494.061 1.1.155 1.7.206 6.744.565 7.686-.443 6.914-7.4a11 11 0 0 0-.2-1.2q-2.58-11.529-5.171-23.056a6 6 0 0 0-.191-.578c-1.067-3.076-1.107-3.186-4.251-2.041-8.378 3.055-16.911 5.786-25.029 9.43-12.148 5.453-25.184 9.086-36.114 17.114-.613.451-1.635.676-1.193 1.729.372.889 1.349.709 2.106.787q11.811 1.23 23.629 2.419c2.008.2 4.338 1.159 5.943.454 2.01-.883.841-3.662 1.283-5.574.137-.592.174-1.212.35-1.791a2.536 2.536 0 0 1 2.675-2.015 2.665 2.665 0 0 1 2.514 2.259 9.84 9.84 0 0 1-.212 4.817c-.49 2.174 0 3.552 2.585 3.488 1-.026 2.013.218 3.024.293 2.3.172 3.931-.349 3.889-3.2a19.3 19.3 0 0 1 .664-4.816c.529-2.157 1.907-3.713 4.246-3.663 2.223.047 3.038 1.918 3.393 3.737a13 13 0 0 1 .133 4.823c-.6 3.106-.018 3.826 3.547 3.91 1.216.029 2.435-.081 3.77-.132Zm22.5-46.459c.038-4.087-.143-8.121-2.372-11.762-.85-1.389-1.8-2.157-3.448-1.195-3.043 1.783-6.416 2.345-9.856 2.869-3.687.562-4.583 2.094-4.4 6.252a6.3 6.3 0 0 1-.163 2.366 3.02 3.02 0 0 1-2.73 2.1c-1.269.083-1.79-.764-1.887-1.873-.188-2.143-1.991-1.559-3.212-1.983s-2.272-1.172-2.025-2.6a2.29 2.29 0 0 1 2.221-1.783c5.114-.29 6.669-3.675 7.222-8.045a17 17 0 0 1 .821-3.523c1.932-5.449 1.731-5.874-3.912-6.5a21.4 21.4 0 0 0-4.223.2c-9.682.879-17.564 5.847-25.341 11.1-2.285 1.544-1.907 3.155-.755 5.156 3.669 6.377 8.545 11.823 13.211 17.438a4.97 4.97 0 0 0 5.932 1.664c4.454-1.376 8.945-2.7 13.5-3.668 6.692-1.427 7.71-.73 10.319 5.777.076.188.2.356.27.546.566 1.6 1.282 2.605 2.867.853a11.5 11.5 0 0 1 2.573-2.566c4.356-2.386 5.327-6.353 5.392-10.823ZM247.673 450.993c2.085-.174 4.548-.208 6.947-.615a12.15 12.15 0 0 0 10.318-11.2c.55-5.382-1.544-9.765-4.466-14.147-3.063-4.592-7.087-5.811-12.084-4.93a91 91 0 0 0-8.89 2.124c-5.542 1.569-10.443 8.722-10.016 14.512a5.3 5.3 0 0 0 .583 2.337c4.017 6.461 9.029 11.533 17.608 11.919m55.206-90.713a13 13 0 0 0 1.518-.562 132 132 0 0 1 19.568-8.229c2.425-.768 1.492-1.934.369-2.995-5.934-5.61-11.071-11.805-14.454-19.319-.73-1.622-1.871-1.97-3.409-1.076-5.955 3.46-11.93 6.887-17.854 10.4-.918.543-1.419 1.474-.112 2.3 1.025.651 2.013 1.379 3.093 1.924 4.674 2.358 7.329 6.253 8.62 11.19.409 1.561.711 3.151 1.021 4.735.167.852.472 1.523 1.64 1.632m22.137 125.659c7.251.371 14.379-2.518 18.565-7.056 4.07-4.412 3.921-8.447-.5-12.367-1.669-1.48-3.353-2.95-5.123-4.305a5 5 0 0 0-3.307-1.4c-6.373.454-12.611 1.472-16.86 6.9-2.618 3.343-3.845 7.2-1.838 11.384a12.7 12.7 0 0 0 9.063 6.844m-47.453-116.433c5.876.35 7.608.143 10.16-1.1a10.52 10.52 0 0 0 5.7-10.573c-.35-4.2-3.6-9.137-7.057-9.818-6.809-1.341-13.379-.678-18.953 3.986-2.959 2.475-4.1 5.973-4.684 9.663-.3 1.877.76 3.055 2.2 4a21.86 21.86 0 0 0 12.634 3.842m120.31-117.728c-.427 1.193.521 1.88 2.248 1.98a73 73 0 0 1 12.077 1.576 8.1 8.1 0 0 1 5.8 3.989c1.056 1.9 1.118 4.92 3.3 5.48 2.062.529 4.035-1.534 6.047-2.459.368-.17.776-.25 1.145-.416 3.877-1.735 3.946-1.805.818-5.08a192 192 0 0 0-16.531-15.25 48 48 0 0 0-8.553-5.769c-1.4-.725-2.247-.584-2.648 1.049-1.164 4.73-2.349 9.455-3.703 14.9M371.48 412.761c-.041-.4-.068-1.007-.172-1.6-1.061-6.116-9.326-14.563-15.492-15.847-4.531-.943-7.37.546-9.814 5.148-1.89 3.559-1.579 6.017 2.039 9.024a43.4 43.4 0 0 0 9.159 5.814 30.5 30.5 0 0 0 8.713 2.374c3.587.503 5.476-1.327 5.567-4.913m-61.408-312.384c-3.685-.126-9.375-.4-15.066-.477-3.019-.039-5.415 4.458-3.862 7.075a2.28 2.28 0 0 0 1.489.838 17 17 0 0 0 3.041.116c11.355-.325 22.712-.592 34.062-1.046a112 112 0 0 0 11.5-1.248c2.327-.336 2.914-1.639 2.6-4.554-.25-2.3-1.814-1.664-3.163-1.5-9.511 1.19-19.052 1.08-30.601.796M378.2 370.492a9 9 0 0 0-1.677-.175c-.683.091-1.794-.538-1.842.765a2.09 2.09 0 0 0 .936 1.393c5.575 3.829 11.376 7.145 18.433 7.086 1.533-.013 3.7.442 4.079-1.6.288-1.548-1.636-2.307-2.849-2.8-5.647-2.274-11.334-4.509-17.08-4.669m-3.429-14.976a26.1 26.1 0 0 0 10.934-1.675c1.111-.385 2.7-.584 2.756-1.955.055-1.45-1.308-2.4-2.489-3.1a6.57 6.57 0 0 0-4.115-.56 16.1 16.1 0 0 0-7.819 2.924c-1.359.98-3.951 1.579-3.313 3.626.493 1.58 2.865.476 4.047.74Zm42.6-206.164c-2.105-.776-4.27-.036-5.76 2.14a20 20 0 0 0-1.631 3.238c-2.145 4.818-3.375 9.933-4.743 15a13.3 13.3 0 0 0-.358 4.205c.139 2.346 1.006 4.392 3.526 5.093a5.11 5.11 0 0 0 5.822-3.29 149 149 0 0 0 6.038-21.2 4.92 4.92 0 0 0-2.897-5.186Zm18.82 16.532a73 73 0 0 0-11.978 10.3 11.5 11.5 0 0 0-1.949 3.051c-1.389 3.143.583 5.834 3.987 5.348a9.25 9.25 0 0 0 5.017-2.035c3.327-2.973 6.852-5.745 9.678-9.237a19 19 0 0 0 2.441-3.475c1.427-2.94-.139-5.409-3.432-5.433-1.414-.136-2.589.644-3.767 1.481Zm-77.766 116.8c-.848-2.761-3.908-5.1-6.427-4.293-4.452 1.419-7.992 4.045-9.179 8.864a5.842 5.842 0 0 0 5.579 7.6c5.602.71 11.274-8.104 10.024-12.168Zm44.71 34.741c-4.145.912-7.841 5.54-7.841 9.817 0 4.878 4.772 8.145 8.8 5.687 3.319-2.029 5.931-4.956 6.414-8.458.501-4.954-3.054-7.994-7.376-7.043Zm-70.176-170.652c-7.44-.053-11.33-5.834-8.688-12.934.353-.95.794-1.867 1.212-2.791 2.037-4.508 5.249-6.779 9.23-6.535a11.33 11.33 0 0 1 9.632 7.294c1.591 4.462.509 8.233-3.257 11.353-3.401 2.817-5.238 3.633-8.129 3.613m.368-4.944c.864-.051 1.991.242 2.494-.9.378-.859-.328-1.522-.764-2.156a28 28 0 0 0-2.551-3.351c-.987-1.056-1.423-3.5-3.353-2.59-1.868.882-1.407 3.185-1.18 4.923.313 2.402 2.203 3.723 5.354 4.074m7.845-5.767c.273-4.133-2.168-7.087-5.948-7.575a2.34 2.34 0 0 0-1.654.515c-.81.716-.175 1.357.328 1.989 1.508 1.9 2.955 3.845 4.491 5.72.435.531.763 1.748 1.783.963a4.5 4.5 0 0 0 1-1.612m-44.742 9.027c-4.012-.158-7.877-5.234-7.716-10.136a9.42 9.42 0 0 1 9.971-9.288c5.2.336 9.922 4.375 9.411 8.575-.836 6.876-4.972 10.787-11.666 10.849m8.133-10.487a3.7 3.7 0 0 0-2.383-3.83c-1.033-.511-2.435-1.53-3.359-.586-1.316 1.343.672 1.916 1.259 2.752a18.4 18.4 0 0 0 2.51 2.653c.426.4 1.036.661 1.534.126a3.4 3.4 0 0 0 .439-1.117Zm-9.9-.826c-.455-.25-.665-.07-.867.448-.994 2.541 1.905 6.839 4.536 6.632a1.06 1.06 0 0 0 .712-.717c.096-.72-3.7-6.107-4.383-6.363ZM191.005 263.024c0 1.747-.006 3.491 0 5.236.029 6.72-.115 13.325 1.594 20.055 3.947 15.539-.453 29.673-9.03 42.766a108.7 108.7 0 0 1-19.769 22.542 35 35 0 0 0-3.356 3.1c-1.253 1.415-.389 2.912.256 4.261.545 1.143 1.631 1.257 2.8 1 11.147-2.443 19.475 3.275 27.006 10.061 5.551 5 7.029 11.861 5.323 19.22-2.089 9.006-5.829 16.935-14.618 21.326-2.494 1.246-2.977 3.092-3.215 5.755-1.047 11.722-.568 23.538-2.265 35.21a6.53 6.53 0 0 0 .791 4.372c6.239 11.105 4.764 22.71 2.026 34.359-.5 2.118-1.323 4.159-1.846 6.272-2.508 10.143-9.226 16.578-18.4 20.739-2.751 1.248-5.357 2.908-8.5 3.279-7.476.883-13.289-1.676-17.207-8.153-1.024-1.693-1.9-2.631-4.126-1.768-13.628 5.282-27.733 5.251-41.886 3.1-8.364-1.273-16.916-1.961-24.751-5.655-1.484-.7-2.5-.289-2.911 1.363-.052.212-.112.423-.147.638-.789 4.891-3.189 8.431-8.033 10.224a18.27 18.27 0 0 1-14.606-.5c-6.05-2.8-10.8-7.314-15.31-12.063-7.306-7.692-11.331-16.987-12.762-27.407-1.1-7.981-.206-15.691 4.336-22.589a8.93 8.93 0 0 0 1.614-5.483c-.17-4.778.423-9.557-.725-14.335a29.2 29.2 0 0 1-.339-7.826c.108-2.809 1.347-5.831.633-8.345-.8-2.809-4.873-2.276-6.984-4.176C1.494 415.009-.086 408.966 0 402.5c.124-8.982 3.507-17 8.423-24.381 1.69-2.539 3.785-4.811 5.441-7.369 3.112-4.807 7.535-7.552 13.122-7.2 5.154.325 6.932-3.9 10.143-6.173.982-.7.085-1.552-.521-2.09-3.1-2.748-6.373-5.308-9.324-8.2-9.451-9.26-16.109-19.912-16.822-33.635-.358-6.885.987-13.487 2.765-19.983a26.3 26.3 0 0 0 .959-8.332c-.574-12.682-.153-25.289 2.815-37.714 1.323-5.538 2.974-10.893 6.154-15.738a19.7 19.7 0 0 1 7.175-6.545c5.178-2.8 10.181-1.622 14.649 1.871 3.778 2.954 7.536 5.959 11.05 9.214 2.157 2 3.852 2.077 6.309.536 12.882-8.081 27.207-11.125 42.2-11.965 11.263-.632 21.453 3.127 31.642 7.073a26 26 0 0 1 2.949 1.405c2.1 1.137 3.563.71 4.884-1.382a64.6 64.6 0 0 1 11.867-13.875 24.46 24.46 0 0 1 15.982-6.542c5.142-.138 8.708 2.042 11.106 6.551a69.4 69.4 0 0 1 8.448 37.154c-.149 2.62-.276 5.229-.411 7.844M94.662 363.286a134.4 134.4 0 0 0 39.976-6.818 91 91 0 0 0 28.02-15.156 71.6 71.6 0 0 0 17.37-20.224c2.78-4.709 1.45-8.2-1-11.979a8.6 8.6 0 0 0-2.357-2.238c-7.148-4.944-14.712-8.478-23.78-7.04-2.145.341-4.368.175-6.518.492-7.663 1.128-14.091-1.737-20.127-6a29.69 29.69 0 0 0-25.506-4.724 77.2 77.2 0 0 0-19.492 7.462c-7.133 4.119-14.729 6.368-23.089 5.7a31 31 0 0 0-23.991 8.3c-1.455 1.307-2.75 2.79-4.153 4.158-9.168 8.937-9.2 9.564-.834 19.372.848.993 1.673 2.014 2.6 2.926a80.7 80.7 0 0 0 21.539 15.634c13.6 6.537 27.78 10.123 41.342 10.135m10.949 53.751C87.6 416 74.121 425.056 62.85 437.465c-6.095 6.712-9.848 15.322-12.036 24.4a11 11 0 0 0 .648 7.473c4.018 9.385 8.395 18.714 8.467 29.249a3.56 3.56 0 0 0 2.776 3.827 111.5 111.5 0 0 0 29.422 5.471c10.294.38 20.349-1.395 30.3-3.9 5.282-1.33 5.282-1.28 6.146-7.218.282-1.937.64-3.863.982-5.79 1.569-8.845 3.729-17.486 9.2-24.869 1.423-1.919 1.468-4.037 1.487-6.215.08-9.508-2.4-18.593-5.385-27.434-2.938-8.707-9.313-14.025-18.809-14.854-3.468-.305-6.957-.386-10.437-.568m2.056-182.757c-8.242 1.316-17.753 2.452-27.076 4.767-6.124 1.521-12.528 2.377-17.895 5.914-13.575 8.947-25.788 19.288-33.919 33.787-4.738 8.449-8.516 17.172-9.59 26.878-.135 1.223-.477 3.051.617 3.636 1.46.78 2-1.116 2.83-1.987.9-.944 1.72-1.976 2.658-2.884 6.479-6.281 13.778-10.51 23.263-10a70.3 70.3 0 0 1 11.667 1.416c6.853 1.543 12.869-.237 18.78-3.508 5.519-3.056 10.931-6.278 16.816-8.714 13.063-5.407 24.885-5.208 35.349 5.676 3.917 4.074 8.764 6.349 14.793 4.067 2.411-.912 5.171-.862 7.657-1.628 6.238-1.922 11.962-.419 17.768 1.885a33.8 33.8 0 0 1 11.252 7.595c.438.429.9 1.228 1.583.781a2.18 2.18 0 0 0 .647-1.628c-.007-2.833-.044-5.655-1.442-8.279-2.454-4.606-4.756-9.249-7.908-13.5-3.525-4.753-7.843-8.68-11.76-13.018-10.517-11.65-22.595-21.013-37.134-27.024a49.3 49.3 0 0 0-18.956-4.232m59.818 194.055c0-3.053-.129-6.114.037-9.158.156-2.876-.58-4.869-3.353-6.356-5.224-2.8-8.314-7.465-10.408-12.955-3.155-8.276-3.249-8.241-12.233-6.04-1.057.26-2.111.535-3.167.8-8.443 2.137-16.824 4.608-25.638 4.744a9.15 9.15 0 0 0-6.888 3.026c-3.188 3.284-4.744 3.268-8.3.067-1.729-1.557-3.375-1.59-5.329-1.592-14.555-.015-28.6-2.555-41.795-8.881-2.247-1.078-3.173-.24-4.093 1.476-1.443 2.689-2.828 5.41-4.336 8.061-3.248 5.707-6.515 11.954-12 15.267-5.214 3.148-6.624 6.836-6.577 12.141.017 1.948-.41 3.9-.556 5.851a100 100 0 0 0-.146 13.717c.153 2.444 1.174 3.463 3.52 3.662a40 40 0 0 1 7.1 1.026c2.986.809 5.315 2.9 7.737 4.752 1.376 1.053 2.78 1.663 3.307-.8 2.167-10.121 9.033-17.782 13.912-26.475a21.4 21.4 0 0 1 6.052-6.813c12.613-9.163 26.04-15.594 42.332-14.276 20.8 1.683 32.446 11.45 38.972 29.51 1.744 4.824 1.525 9.87 1.37 14.885-.065 2.09.55 2.934 2.59 1.694 3.755-2.283 7.622-4.494 12.165-4.2 3.37.22 4.044-1.573 4.378-4.256.779-6.266 1.732-12.522 1.347-18.877m-55.842-34.408a12 12 0 0 0 2.92-.706c7.426-3.347 15.378-4.7 23.255-6.4a44.3 44.3 0 0 0 9.936-3.168c1.5-.72 2.535-1.561 2.692-3.319A36.4 36.4 0 0 1 153 369.572c.627-1.513.109-2.979-.517-4.414-.8-1.844-1.635-2.773-3.917-1.574-5.828 3.063-12.166 4.746-18.564 6.185-4.461 1-8.943 1.932-13.365 3.088a85.5 85.5 0 0 1-40.144.721 94.7 94.7 0 0 1-26.861-9.89c-2.494-1.408-3.971-.577-5.693 1.1-2.035 1.976-.778 3.468.484 5.012a20.54 20.54 0 0 1 4.951 10.518c.376 3.373 2.282 4.214 4.9 5.127 10.314 3.593 21.022 5.551 31.655 7.821 1.7.363 3.454.477 5.185.683a5.46 5.46 0 0 0 5.538-2.382c2.749-3.542 5.485-3.626 8.932-1a7.6 7.6 0 0 1 1.807 1.868c.828 1.275 1.988 1.59 4.252 1.492m22.957 99.887a38.4 38.4 0 0 0 .748 10.256 37 37 0 0 0 1.657 6.294c2.73 6.982 9.938 9.713 16.56 6.328A26.67 26.67 0 0 0 166.34 503.2c2.725-6.4 5.069-12.965 7.45-19.5a34.6 34.6 0 0 0 1.779-12.213 9.86 9.86 0 0 0-3.865-7.93c-5.547-4.5-16.168-4.551-21.837-.175-10.141 7.825-15.648 17.933-15.267 30.432m-84.633 12.68c.791-3.062-.137-6.313-.648-9.474-.83-5.138-2.955-10.007-4.312-15.019-2.1-7.746-7.256-12.735-13.36-17.059-7.11-5.037-13.673-2.47-15.492 5.874a24 24 0 0 0-.373 3.239c-1.4 18.474 7.373 31.611 21.907 41.719a9.25 9.25 0 0 0 5.564 1.544c4.733-.045 6.308-1.389 6.694-6.019.13-1.513.024-3.044.024-4.805ZM9.136 400.923c.4 4.906.207 9.807 4.507 12.127 4.623 2.5 8.744-.46 12.557-3.089a6 6 0 0 0 .485-.435 49.9 49.9 0 0 0 12.381-16.539 14.97 14.97 0 0 0-.013-13.239c-3.864-8.228-15.627-9.679-21.132-2.425-5.385 7.094-7.683 15.413-8.785 23.6m178.49-14.318a12.57 12.57 0 0 0-2.965-8.406 34.5 34.5 0 0 0-7.732-6.912c-4.391-2.8-10.029-2.7-13.835.7-4.646 4.151-7.327 9.227-5.523 15.664a29.15 29.15 0 0 0 6.3 12.015c2.648 2.883 5.965 5.355 10.321 4.4 6.918-1.512 13.601-10.341 13.434-17.461m-4.165-131.767h.152c-.153-3.045-.216-6.1-.484-9.132-.306-3.465-.667-6.935-1.239-10.364a31 31 0 0 0-3.616-11.106c-2.418-4.026-4.447-4.895-8.588-2.837-7.21 3.582-12.48 9.35-16.946 15.919-.515.758-.94 1.662-.34 2.388a12.3 12.3 0 0 0 5.949 3.839c1.722.526 1.64-1.622 2.422-2.5 2.669-2.992 5.76-4.651 9.839-3.532 4.17 1.145 5.875 4.368 6.258 8.273.3 3.014.587 6.216-.108 9.1-1.133 4.688 1.169 7.413 4.293 10.017.477.4.905.993 1.645.7.715-.284.746-.991.751-1.609.027-3.057.012-6.107.012-9.156M29.6 256.818a26.9 26.9 0 0 1 1.128-9c2.641-7.455 7.929-9.57 14.8-5.832a26 26 0 0 1 3.123 2.309 2.146 2.146 0 0 0 2.959-.125c1.11-1.071.091-1.893-.629-2.672-3.629-3.927-8.219-6.41-13.1-8.294-3.414-1.317-5.007-.681-7.184 2.527a33 33 0 0 0-3.636 6.862c-2.425 6.388-3.068 13.072-3.944 19.737-.374 2.846-1.708 5.707.2 8.5 2.377-1.64 3.4-4.364 5.177-6.486 1.875-2.256 1.133-4.958 1.106-7.526m12.241-8.018c-.415-.468-.636-.937-.988-1.078-2.826-1.134-4.363-.211-5.605 3.5-.4 1.195-1.547 2.911-.565 3.637 1.286.949 1.855-1.117 2.766-1.821 1.208-.932 2.326-1.98 3.509-2.946.496-.407 1.051-.735.883-1.292m128.375 2.045c.024-2.443-1.349-4.673-2.88-4.376a2.97 2.97 0 0 0-1.8 1.687c-.424 1.121 2.148 3.756 3.623 3.917.926.1.902-.648 1.057-1.229Zm-66.259 146.373c.094-.928-.148-1.764-1.165-1.867a1.317 1.317 0 0 0-1.556 1.479c.035.869.318 1.841 1.221 1.992.981.164 1.227-.842 1.5-1.604m-5.589-98.938c-5.85.2-7.1 2.039-4.843 7.277a31.2 31.2 0 0 0 7.495 10.579c1.551 1.439 1.542 2.7.5 4.542-1.887 3.316-4.77 4.784-8.263 5.77-2.8.791-3.828 2.6-3.18 4.747.752 2.5 2.591 3.271 5.064 3a10.7 10.7 0 0 0 6.344-2.991c2.933-2.724 3.081-2.681 5.6.233 2.232 2.58 4.837 4.437 8.32 4.569 1.79.067 3.617-.441 4.147-2.461.544-2.073-.637-3.267-2.59-3.781a9.5 9.5 0 0 1-1.89-.481c-3.376-1.709-4.915-4.792-5.943-8.207-.843-2.8 1.216-4.43 2.66-6.276 2.011-2.572 4.177-5.029 6.082-7.674 2.893-4.016 2.144-5.97-2.655-7.6a29.7 29.7 0 0 0-10.577-1.263c-2.788.008-4.531-.042-6.271.017m41.561-20.843c3.64.15 7.91-4.135 8.038-8.066.137-4.218-3.573-8.72-7.194-8.727-3.215-.007-7.251 4.514-7.194 8.057.068 4.208 3.267 8.608 6.35 8.736m-69.969.812c4-.06 8.291-4.014 8.392-7.735.121-4.482-2.888-8.061-6.737-8.014-4.015.05-6.915 3.378-6.93 7.952s2.205 7.842 5.275 7.797m86.49 222.27c.256-2.734-2.329-5.036-6.14-5.385a10.05 10.05 0 0 0-6.167 1.655c-3.368 2.072-3.195 6.422.29 8.444a22 22 0 0 0 3.829 1.45 7.26 7.26 0 0 0 8.188-6.164m7.931-25.118c-2.273.821-4.915 4.807-4.805 7.254a3.48 3.48 0 0 0 2.417 3.509 3.445 3.445 0 0 0 4.093-1.174c1.468-1.967 1.872-4.369 2.377-6.665a3.063 3.063 0 0 0-4.082-2.925Zm-11.958-2.655a2.7 2.7 0 0 0-3.061.277c-1.977 1.5-3.126 5.565-2.182 7.758a3.61 3.61 0 0 0 2.916 2.35 2.914 2.914 0 0 0 3.064-2.009 30 30 0 0 0 1.025-3.915c.029-2.465-.554-3.819-1.762-4.461M43.372 500.991c-.176-3.422-2.065-5.2-5.388-5.068-4.4.172-7.31 2.489-7.379 5.864-.067 3.263 2.441 5.581 5.948 5.5 4.107-.096 7.001-2.768 6.819-6.296M22.866 485.93a2.6 2.6 0 0 0 2.838 1.111c1.538-.363 1.944-1.6 1.874-2.985a8.77 8.77 0 0 0-2.533-5.818c-.716-.735-1.569-1.636-2.782-1.139-1.2.49-1.141 1.694-1.28 2.749a9.68 9.68 0 0 0 1.883 6.082m8.169-11.908c-.332 2.547-.3 5.12 1.1 7.393a2.41 2.41 0 0 0 2.705 1.251 2.56 2.56 0 0 0 1.918-2.309 8.61 8.61 0 0 0-2.615-6.943c-.374-.4-1.123-.458-1.777-.7-.496.463-1.266.839-1.331 1.308" data-name="Layer 1"/></g></svg>