<svg width="957" height="1208" viewBox="0 0 957 1208" fill="none" xmlns="http://www.w3.org/2000/svg">
<g clip-path="url(#clip0_177_906)">
<path d="M927.93 153.16C900.04 138.63 875.03 158.64 867.36 172.58C867.13 172.88 866.91 173.19 866.7 173.55C861.98 181.93 859.01 191.42 859.26 201.12C859.36 204.99 860.3 208.15 861.91 210.88C862.16 211.72 862.49 212.58 862.93 213.45C865.48 218.52 868.55 226.72 874.91 228.7C886.48 232.31 909.13 221.76 903.71 212.95C900.72 208.1 893.22 212.62 891.17 209.82C888.37 205.99 894.18 195.24 903.87 194.67C909.9 194.31 914.58 197.41 918.72 202.44C928.99 214.89 926.17 233.68 913.29 243.75C897.1 256.41 895.25 256.93 876.94 263.48C869.62 266.1 862.57 265.96 855.09 264.68L827.49 259.94C811.48 257.19 795 255.97 780.53 264.86C772.6 269.73 765.26 277.59 761.02 285.88L754.03 299.54C751.88 303.74 752 307.53 755.06 311.15C756.26 312.57 759.75 314.3 761.46 313.97C768.35 312.65 769.37 300.68 780.32 290.64C783.92 287.34 791.22 282.79 796.01 284.79C823.44 296.21 831.07 307.94 859.69 309.93C883.88 311.62 897.85 304.68 917.11 291.29C937 277.46 946.83 258.47 952.41 235.45C954.27 227.76 955.97 221.26 956.59 212.92C958.32 189.34 949.91 164.6 927.95 153.17L927.93 153.16Z" fill="black"/>
<path d="M719.25 306.68C720.84 309.85 725.9 307.82 727.83 306C737.98 296.41 723.45 289.74 750.43 261.75C757.65 254.25 766.63 247.88 776.1 243.21C781.5 240.55 788.96 240.41 796.77 239.4C806.92 239.03 817.25 238.03 825.77 233.24C825.82 233.21 825.86 233.18 825.9 233.16C831.17 230.74 835.45 226.37 839.09 220.96C847.73 208.1 850.43 193.67 852.74 178.46C855.14 162.61 862.4 138.33 846.78 124.94C829.95 110.51 807.13 105.29 785.57 113.04C774.51 117.02 764.23 125.33 757.04 134.14C747.36 146 749.51 160.31 757.5 171.79C761.87 178.07 766.45 182.45 775.21 181.94C781.96 181.55 799.94 176.19 797.76 169.18C796.05 163.67 787.52 166.3 779.57 162.52C773.76 159.75 775.92 152.86 778.3 149.26C785.46 138.43 795.39 137.02 806.8 140.89C819.63 145.25 827.97 157.23 822.29 171.78C814.68 191.25 798.7 199.86 781.14 208.9L768.68 215.31C762.7 218.39 757.02 223.4 751.49 227.35C749.34 228.89 747.71 230.72 746.33 232.73C731.96 244.6 723.85 263.36 719.13 282.04C718.01 285.42 717.21 288.8 716.89 292.1C716.83 292.38 716.78 292.66 716.72 292.94C716.53 293.96 716.55 294.9 716.72 295.77C716.77 299.59 717.53 303.27 719.25 306.69V306.68Z" fill="black"/>
<path d="M947.71 1128.97C947.56 1122 939.32 1118.43 933.14 1118.72L899.78 1120.26C897.26 1120.38 893.12 1120.78 891.74 1119.31C887.38 1114.65 888.34 1079.72 888.78 1071.02L890.01 1046.61L891.04 1023.58C891.11 1022 892.28 1018.61 893.53 1017.82C894.6 1017.14 897.03 1017.47 898.81 1017.47L927.28 1017.53C930.98 1017.53 934.95 1013.77 936.38 1011.28C937.95 1008.55 938.61 1002.46 935.47 1000.63C927.09 995.74 906.61 996.05 896.62 996.95C895.28 997.07 892.66 994.97 892.69 993.57L893.28 960.88L892.21 910.67L892.08 875.85C892.05 868.18 926.13 876.55 934.05 866.72C936.13 864.14 937.36 858.68 935.6 856.03C931.55 849.96 924.37 851.04 918.27 850.21L897.13 847.33C893.78 846.87 889.69 845.31 889.65 841.16L889.35 812.46C889.31 808.32 889.21 801.72 886.18 798.71C881.89 794.44 868.69 788.05 862.5 792.83C860.72 794.21 858.45 798.3 858.47 800.84L858.68 821.86C858.75 828.76 861.66 836.21 857.81 842.86C852.01 844.24 844.9 844.21 838.61 844.35C834.89 844.43 826.96 845.51 827.23 839.68C827.59 831.79 827.22 824.32 825.1 816.39C821.89 804.39 813.26 809.8 813.58 803.59L814.44 787.03C814.54 785.12 819.67 783.66 821.74 783.38C827.3 782.62 832.8 777.16 830.97 769.98C827.71 757.2 836.26 753.06 828.65 747.23L811.81 734.32C801.44 726.37 790.52 722.08 777.01 723.01L754.14 724.59C742.45 725.4 731.69 727.68 719.7 729.19C712.4 730.11 714.34 714.69 714.55 709.66C714.94 700.2 734.51 709.37 754.86 697.44C757.07 696.14 759.09 691.78 758.86 689.55C757.95 680.86 743.29 679.72 735.89 679.24L723.37 678.43C717.4 678.04 714.43 675.39 714.24 669.12L713.44 643.04L712.4 619.73L711.26 591.84L710.31 561.48C710.05 553.11 708.68 545.1 711.65 536.93C712.47 534.68 718.4 533.87 720.79 533.95C731.73 534.3 755.2 529.55 749.66 518.79C746.07 511.82 734.94 510.86 728.19 510.95L716.21 511.1C712.95 511.14 710.29 507.63 710.5 504.39L711.18 493.91C711.81 484.23 711.79 475.03 711.15 465.33C710.71 458.71 711.73 445.95 702.89 443.59C699.76 442.75 693.78 443.35 692.48 446.78C689.86 453.74 690.4 461.31 689.75 468.73L688.32 484.95C673.21 494.92 685.94 515.09 670.28 509.04C671.14 481.99 654.68 497.54 646.22 463.47C643.25 451.51 639.96 441.09 634.86 429.84C634.07 428.1 634.26 423.79 635.78 422.74L651.58 411.83C666.31 401.66 658.8 414 683.4 408.35C700.66 404.39 703.97 392.56 705.24 375.84C705.97 366.26 708.03 356.8 707.14 347.15C705.86 333.35 696.76 321.39 685.83 313.86C680.49 310.18 680.02 307.53 679.66 301.02C679.13 291.4 667.52 280.08 671.52 273.72C673.17 271.1 674.94 267.18 673.99 264.61C673.3 262.75 669.93 260.77 668.2 259.1C665.68 248.61 666.67 237.75 665.54 227.04C664.57 217.77 663.27 209.07 663.02 199.67C662.16 166.65 662.09 134.14 662.95 101.08C663.09 95.7704 663.89 90.5804 664.33 85.3704C665.41 72.7904 665.56 53.7304 664.27 41.4704L660.79 8.49038C660.29 3.78038 655.75 -0.289624 650.97 0.0303755C637.31 0.950376 625.07 6.15038 612.17 9.92038L564.94 23.7204L482.58 47.0804C468.1 51.1904 455.16 57.5004 440.89 62.3304L388.49 80.0504L373.21 85.5704C371.79 86.0804 368.08 86.1404 367.29 84.9804C364.65 81.0904 366.17 75.8204 362.33 72.4104C360.93 71.1604 356.3 70.2004 354.21 70.5504L333.43 74.0304C324.72 75.4904 315.01 75.4904 307.69 80.5304C302.81 83.8904 305.9 90.4404 305.89 95.0204C305.85 109.85 306.79 123.47 310.14 137.87C311.34 143.04 311.56 149.55 315.43 153.66C318.68 157.12 326.52 157.69 331.37 156.74C343.27 154.42 354.34 151.84 365.97 148.78C372.65 147.02 368.03 131.64 369.2 127.25C373.74 124.51 379.47 122.99 383.87 124.46C382.48 136.87 381.47 147.43 381.22 159.05L380.64 186.66C380.54 191.38 379.18 193.48 374.15 194.37C370.07 195.09 366.87 200.61 366.84 205.01L366.67 235.88C366.65 239.63 363.6 242.62 359.92 242.69L337.97 243.13C334.71 243.19 332.33 240.44 332.21 237.24L331.42 216.49C331.21 210.99 330.48 190.16 322.89 191.14C312.94 192.43 318.9 230.48 317.11 242.56C316.73 245.14 311.21 244.32 308.97 244.43L287.87 245.4L269.28 245.36C266.87 245.36 263.15 244.29 262.98 241.44L260.93 206.86L259.98 184.7C259.72 178.54 255.8 174.79 250.53 175.21C245.66 175.59 241.64 179.56 241.61 185.6L241.43 220.95L243.09 240.53C243.39 244 240.7 246.43 237.55 246.45C226.1 246.55 215.4 247.48 204.61 250.1C200.05 251.21 197.66 255.18 198.11 259.56C199.33 271.37 227.83 269.26 236.29 268.62C240.06 268.34 242.8 271.26 242.85 274.97L243.57 328.92L243.87 356.42L243.57 374.77C243.54 376.7 242.65 382.12 240.64 382.27L209.46 384.52C205.04 384.84 201.83 388.8 201.76 392.49C201.71 395.12 204.71 400.15 208.34 400.39L241.6 402.63C243.57 418.11 243.1 432.75 242.75 448.04L242.3 467.6C242.08 477.14 241.91 486.68 242.27 496.28C242.58 504.73 243.26 511.99 242.42 520.94L212.97 523.37C206.95 523.87 200.85 526.4 198.73 532.11C196.81 537.29 198.98 542.58 204.63 543.89C209.93 545.12 215.62 543.71 221.38 543.5C227.94 543.26 234.36 544.42 241.16 545.17C243.58 545.44 245.28 548.73 245.32 551.02C245.82 574.24 249.51 577.56 238.38 578.81L221.34 580.72L183.96 581.58L161.67 582.63C154.1 582.99 146.59 583.92 138.85 584.99C130.18 586.19 107.17 608.61 101.35 616.65C96.9901 622.68 97.5001 628.07 98.9401 634.3C103.78 655.36 118.06 640.62 120.18 654.79C122.47 670.1 107.77 662.06 104.87 677.68L102.33 691.38C95.7501 693.97 79.6901 693.58 75.3201 690.96C74.5101 690.47 74.5801 687.79 74.5701 686.61L74.3601 664.74C74.2801 655.9 74.7201 647.24 73.9001 638.3C73.4601 633.53 71.6901 630.2 66.7201 628.85C64.2401 628.17 59.4801 627.9 57.2101 629.21C48.7601 634.06 49.6501 661.91 49.0801 672.83L48.2201 689.12C48.1301 690.86 46.0901 693.68 44.4301 693.9L17.8701 697.52C11.2801 698.42 -2.82993 703.76 0.530072 711.73C1.38007 713.75 5.51007 716.55 8.00007 716.47L42.6301 715.26C43.8001 715.22 46.4001 716.13 47.2001 716.96C48.0001 717.8 48.5401 720.54 48.5201 721.95L47.9001 765.1C47.8301 770.32 48.1901 776.16 48.5801 781.68L50.9901 815.85L51.9501 866.67C51.9901 868.92 49.3201 871.94 47.1601 871.97L29.7801 872.16C23.7601 872.22 17.3801 873.26 12.0701 876.09C8.87007 877.8 10.3201 882.97 12.8001 884.68C18.3001 888.47 24.2901 890.38 31.0401 889.58L45.8101 887.84C49.0601 887.46 52.6601 888.99 52.7501 892.82L53.4001 923.37L54.6001 956.62L56.8701 990.81L57.6701 1012.33C58.0401 1022.19 33.6101 1010.42 26.0801 1022.76C24.5301 1025.3 23.5601 1029.87 25.5401 1032.31C36.0401 1045.28 52.5301 1035.89 59.1801 1041.33C60.3101 1048.76 59.0201 1057.04 59.2401 1064.34L60.2001 1095.71L61.0601 1110.9C61.4701 1118.05 63.0601 1125.67 59.4101 1132.48C57.3701 1136.28 49.5601 1131.55 36.6001 1133.06C23.8101 1134.55 16.0201 1144 15.6401 1156.5C15.4001 1164.55 19.0401 1169.6 22.1901 1176.58C25.8401 1184.67 26.5101 1194.73 32.6901 1201.77C37.2101 1206.92 44.2501 1206.91 50.4601 1205.95L72.3701 1202.57C79.1101 1201.53 86.4501 1202.14 93.3201 1201.68C103.16 1201.02 112.54 1199.99 122.78 1200.24C128.05 1200.37 133.88 1199.17 137.23 1195.17C143.21 1188.03 144.29 1178.88 142.5 1169.99C140.21 1158.62 142.52 1140.15 132.4 1136.7C124.46 1134 110.76 1137.96 108.87 1134.01C107.01 1130.13 125.68 1119.35 129.11 1117.18L144.73 1107.26L157.37 1099.77C162.82 1096.54 166.69 1095.86 172.13 1099.15L198.37 1114.98L217.96 1126.39C222.68 1129.14 226.6 1131.81 230.99 1135.53L218.43 1142.22C203.31 1150.27 208.77 1177.7 214.97 1190.42C217.61 1195.84 218.82 1203.84 226.16 1205.68C248.2 1205.72 250.13 1203.48 274.07 1205.7C289.99 1207.17 306.16 1208.63 321.63 1205.28C328.86 1203.72 328.95 1195.22 328.36 1189.62C326.69 1173.75 331.35 1157.72 322.69 1152.56C312.66 1146.59 302.56 1143.36 290.93 1140.85C289.11 1134.22 289.6 1127.7 289.76 1121.09L290.6 1087.24L290.06 1056.68C290.04 1055.42 291.19 1052.89 292.21 1052.29C293.23 1051.69 296.36 1052.36 297.4 1053.28L321.42 1074.42C326.06 1078.51 328.16 1081.11 328.49 1087.56C329.23 1102.07 330.97 1116.24 333.8 1131.13C336.08 1130.78 337.03 1128.57 337.03 1126.75L336.98 1095.8C336.98 1094.62 337.99 1092.48 338.92 1092.21C339.62 1092.01 342.02 1092.57 342.73 1093.18L357.1 1105.54C365.61 1112.85 373.07 1119.83 381.86 1126.61C384.35 1128.53 383.96 1132.52 381.72 1134.56L370.29 1144.95C363.19 1151.4 347.53 1163.55 352.89 1172.91C354.13 1175.08 357.96 1178.36 360.88 1177.92C366.61 1177.07 371.62 1173.55 375.5 1169.71L394.47 1150.85C396.49 1148.84 400.42 1142.79 404.39 1145.3C412.41 1150.39 419.81 1155.92 427.42 1161.49C433.98 1166.29 441.93 1169 449.86 1165.93C454.4 1164.18 456.61 1158.45 454.12 1154.19C450.73 1148.39 446.13 1143.91 441.13 1139.71L427.94 1128.63C426.94 1127.79 425.52 1126 425.19 1124.94C424.86 1123.88 426.19 1121.23 427.13 1120.4L454.44 1096.6C455.24 1095.9 458.28 1095.25 458.68 1096.09C458.98 1096.72 459.57 1098.52 459.59 1099.24L460.28 1122.65C460.43 1127.89 465.71 1133.95 470.44 1131.92C476.72 1129.22 475.5 1122.23 475.26 1116.99L474.17 1093.52C473.95 1088.79 472.67 1082.67 475.82 1078.71C480.18 1073.22 486.31 1070.31 491.37 1065.44L514.81 1042.87C515.76 1041.95 518.8 1041.53 519.69 1041.86C520.58 1042.19 521.7 1044.28 521.7 1045.3L521.93 1098.12C521.96 1104.46 526.46 1131.75 509.19 1130.19C496.82 1129.07 486.71 1133.46 478.29 1141.97C465.68 1154.72 474.6 1155.52 471.36 1174.81C469.98 1183.02 473.44 1189.9 476.87 1196.22C480.84 1203.54 485.47 1203.55 492.68 1202.26C503.58 1200.32 515.03 1198.8 526.45 1198.37L558.57 1197.17C569.96 1196.74 580.91 1196.92 592.18 1195.04C603.76 1193.11 601.43 1174.48 601.35 1167.99C601.21 1156.73 600.79 1145.18 593.74 1135.8C584.98 1124.15 569.61 1129.24 563.98 1128.78C563.28 1128.72 562.83 1125.7 563.63 1125.11L595.13 1102.08L610.7 1091.15C615.69 1087.65 619.3 1088.57 623.55 1092.33C643.15 1109.7 668.23 1126.82 691.23 1139.1C693.05 1144 688 1146.89 685.35 1149.66L663.57 1172.42C660.15 1176 658.18 1181.86 661.84 1186.38C666.48 1192.11 679.7 1179.99 683.75 1176.43C692.47 1168.75 701.02 1161.91 710.43 1154.95C712.81 1153.19 716.19 1152.73 718.44 1154.4C724.46 1158.87 730.45 1161.53 737 1164.81C744.28 1168.45 750.91 1172.89 759.09 1174.66C763.32 1175.58 770.1 1171.98 768.99 1166.9C768.23 1163.43 764.89 1158.19 761.94 1156.03L738.71 1139.04C737.64 1138.26 736.41 1135.44 736.84 1134.39C737.27 1133.34 738.69 1131.65 739.81 1130.81C748.63 1124.27 756.42 1117.83 764.59 1110.69C767.33 1108.29 770.85 1106.07 773.4 1103.53C778.92 1098.06 784.55 1093.3 792.19 1090.39L850.16 1121.62C851.19 1122.18 852.88 1124.74 852.36 1125.76C849.78 1130.9 841.26 1130.78 839.7 1137.21C837.27 1147.24 839.84 1156.45 841.89 1165.97C842.92 1170.77 843.28 1175.18 845.82 1179.52C848.06 1183.34 852.57 1186.94 857.45 1186.18C885.04 1181.92 911.98 1180.46 939.94 1180.5C946.67 1180.5 950.87 1171.37 950.17 1165.78C948.56 1153.05 948.02 1141.6 947.75 1129.03L947.71 1128.97ZM353.73 136.73C345.8 139.71 337.65 141.07 328.4 141.91C324.22 136.85 324.87 129.59 324.17 123.66C323.33 116.52 322.26 109.92 320.93 102.9C320.4 100.12 319.42 96.0604 322.86 94.7104C331.04 91.4804 338.53 89.5304 347.53 87.9004C349.37 87.5704 351.72 90.8304 351.77 92.4804C352.3 111 355.31 121.46 353.73 136.72V136.73ZM375.3 993.03L377.23 1004.18C377.47 1005.57 376.28 1008.93 375.1 1009.7C371.99 1011.76 347.05 1012.81 340.1 1011.9C340.86 1008.05 343.26 1005.8 346.34 1004.06L369.25 991.1C370.68 990.29 375 991.33 375.29 993.02L375.3 993.03ZM370.82 678.1C371.44 692.05 362.08 683.83 336.92 686.02C334.82 686.2 331.77 685.35 330.75 684.01C329.73 682.68 329.51 677.59 330.75 676.36C333.51 673.61 338.96 670.97 342.61 668.96L362.68 657.91C363.7 657.35 366.09 656.73 367.17 656.79C368.46 656.87 370.03 660.04 370.1 661.49L370.83 678.1H370.82ZM364.98 902.11L337.21 887C336.67 886.71 335.31 885.68 334.83 885.32C334.22 884.86 336.77 882.89 337.64 882.81L360.66 880.81C363.45 880.57 369.14 880.3 369.74 884.13C370.31 887.79 374.1 907.07 364.99 902.11H364.98ZM370.48 751.54C370.5 752.88 369.31 755.91 368.24 756.16C366.96 756.45 364.16 755.64 362.93 754.8L329.69 731.83C328.91 724.8 328.55 718.15 329.95 711.46C330.84 707.21 363.06 709.84 368.62 710.9C369.6 717.45 370.14 722.72 370.21 728.9L370.46 751.55L370.48 751.54ZM364.24 628.52L347.54 638.17C342.25 641.23 338.38 644.97 332.16 646.55C330.49 646.97 328.82 642.41 329.07 640.73C330.21 633.04 329.57 626.3 329.7 618.87L329.99 601.44C330.01 600.42 330.45 598.08 331.26 597.7C335.96 595.51 360.34 612.54 365.78 616.27C367.28 617.3 368.37 621.28 368.27 622.86C368.16 624.66 366.16 627.41 364.23 628.53L364.24 628.52ZM328.96 548.73C327.76 538.55 353.97 540.59 360.58 541.45C364.12 551.24 363.43 560.62 362.83 570.72C362.68 573.22 362.87 575.68 361.05 579.17C353.65 576.02 347.51 572.9 340.65 569.16C328.81 562.7 330.76 564.01 328.95 548.73H328.96ZM340.97 338.37C339.59 339.2 335.8 339.59 334.76 338.7C333.72 337.81 332.84 334.86 332.91 333.31L334.06 309.45C335.93 307.3 340.81 308.47 343.47 309.86C354.88 315.82 364.24 316.89 366.37 323.02L340.97 338.37ZM334.4 263.83C335.21 261.56 341.39 261.28 343.81 261.46L358.96 262.58C360.97 262.73 364.3 263.35 365.18 264.69C368 268.97 368 286.69 366.51 292.18C366.25 293.13 363.08 293.99 362.15 293.7L340.98 287.18C331.33 284.21 331.58 271.82 334.4 263.83ZM337.21 369.2C355.33 360.2 356.88 351.87 365.43 353.44C365.27 361.35 368.93 379.91 359.07 380.28L346.78 380.73C342.89 380.87 336.01 383.1 333.12 381.05C328.17 377.52 333.24 371.17 337.21 369.2ZM329.01 409.94C329.03 407.53 331.16 403.96 333.82 403.73C345.76 402.71 350.64 402.4 362.81 404.11C364.79 405.49 364.74 411.04 364.88 413.64C365.35 422.42 366.64 430.84 363.3 439.17C362.57 441 357.08 439.6 355.21 438.8L332.75 429.24C331.08 428.53 328.88 424.95 328.9 423.18L329.01 409.93V409.94ZM330.1 448.6C330.56 448.11 332.72 448.08 333.41 448.43L347.63 455.67C348.51 456.12 349.95 458.17 349.96 459.07C349.96 460.19 348.46 462.07 347.4 462.67L334.7 469.92C333.97 470.34 332.12 470.64 331.34 470.44C330.57 470.24 329.09 468.08 329.08 467.18L328.75 451.73C328.73 451 329.64 449.09 330.1 448.6ZM331.05 504.31L357.07 486.78C358.07 486.11 361.2 485.83 362.2 486.34C363.2 486.85 364.36 489.12 364.42 490.42C365.37 511.53 367.16 499.95 361.49 520.11C363.46 522.78 331.38 524.82 330.86 522.93C328.32 518.36 327.34 508.13 331.04 504.31H331.05ZM328.59 781.58L329.04 766.86C329.07 766.02 329.73 764.34 330.06 763.71C330.39 763.08 333.27 762.97 333.92 763.43L358.44 780.48C361.22 782.41 362.6 783.81 365.33 787.12C355.98 793.61 348.97 798.62 340.8 805.06C337.81 807.41 334.29 808.98 329.88 809.55C326.93 799.94 328.28 791.31 328.58 781.59L328.59 781.58ZM317.05 264.22C320.81 265.34 320.05 275.65 315.61 275.41C306.72 274.92 298.51 270.1 290.35 265.92C293.17 260.78 314.41 263.43 317.06 264.22H317.05ZM264.13 296.73L264.75 273.64C264.78 272.52 265.32 270.5 265.94 269.8C266.56 269.1 269.56 269.25 270.53 269.84L283.55 277.87L317.15 297.29C320.38 301.76 319.19 308.8 319.06 313.93L318.3 343.35C318.19 347.53 316.14 351.77 311.96 353.89L276.69 371.73C275.6 372.28 272.45 372.42 271.35 372.14C270.25 371.86 269.76 369.34 269.71 367.86C269.51 361.72 268.35 356.39 267.7 350.4C265.75 332.51 263.64 314.77 264.13 296.73ZM316.27 655.22C314.94 659.95 308.3 663.16 304.33 665.13C297.33 668.61 291.62 671.58 284.43 675.71C282.3 676.94 278.85 676.01 278.71 673.95L276.6 642.97L275.51 615.53L274.38 601.66C273.57 591.77 269.27 567.7 271.98 562.11C272.39 561.26 275.47 561.18 276.32 561.73L294.92 573.7C302.21 578.4 309.3 581.56 316.53 586.86L316.27 655.23V655.22ZM313.63 718.44C308.74 717.95 304.48 714.77 302.06 710.41C304.98 707.16 312.88 707.58 315.91 711.74C316.95 713.17 315.67 718.64 313.62 718.43L313.63 718.44ZM271.19 430.26C270.67 424.73 270.31 420.53 274.32 415.47L293.5 426.11C300.37 429.92 308.54 432.94 313.95 439.19L314.57 465.19C314.7 470.84 315.78 477.38 312.7 482.53C311.65 484.29 276.91 504.53 270.37 506.32C268.55 501.93 270.03 498.63 270.11 494.62L271.03 444.76C271.12 439.91 271.63 434.91 271.2 430.28L271.19 430.26ZM315.33 547.61C315.71 548.94 314.85 552.15 313.8 553.33C309.64 552.4 305.59 549.8 303.08 545.23C307.45 543.55 314.09 543.25 315.33 547.61ZM298.49 522.79L307.84 515.41C308.92 514.56 312.86 514.08 313.89 514.85C315.16 515.8 315.36 519.85 314.72 521.42C312.83 526.06 301.41 526 298.49 522.79ZM312.23 419.91C303.63 417.29 296.68 414.57 288.95 411.3L278.04 406.69C277.43 406.43 276.32 404.48 276.01 403.9C273.53 399.27 292.42 401.77 294.55 401.93C300.25 402.37 307.29 401.68 311.98 404.48C316.85 407.39 316.17 415.02 312.24 419.9L312.23 419.91ZM260.1 899.93L260.77 916.8L261 935.29C261.15 947.99 263.03 958.94 261.93 969C261.4 973.83 261.82 978.75 261.71 983.97L261.36 999.92C258.9 1001.64 254.96 1000.01 252.53 997.96C233.03 981.58 210.4 967.15 188.25 954.54C186.79 953.71 184.81 951.92 184.55 950.65C184.29 949.38 185.91 946.47 187.02 945.65L227.09 916.01L254.32 897.32C255.17 896.74 257.5 896.26 258.31 896.56C259.12 896.86 260.06 898.9 260.1 899.93ZM84.2101 993.99C83.3701 988.53 82.5901 983.25 82.1901 977.69L80.9701 960.7L79.7301 914.13C79.6701 911.91 79.1901 906.4 82.4201 906.19C88.5001 909.24 93.8101 912.53 99.2301 916.17L115.71 927.22L151.12 951.02C147.57 956.84 143.43 959.3 139.37 963.39C134.02 968.78 128.75 974.19 122.85 979.59L109.41 991.87C102.1 998.55 95.5001 1005.35 87.2201 1011.96C82.7401 1005.82 85.1301 999.97 84.2101 994V993.99ZM118.06 887.52L140.22 886.43L167.39 884.48L185.73 884.07L209.78 883.18C216.39 882.94 223.65 881.98 230.23 883.87C230.8 885.42 229.26 888.15 227.91 889.05C220.73 893.78 215.2 898.97 208.79 904.41L190.22 920.19C182.1 927.09 175.04 934.38 165.23 939.26C145.51 929.27 137.92 921.82 118.19 910.55C114.4 908.38 86.0901 893.35 89.5801 889.92C90.3701 889.14 92.6301 888.24 93.9101 888.21L118.08 887.52H118.06ZM110.57 868.97C113.84 860.15 120.67 855.54 125.61 848.78C131.36 840.92 137.47 834.21 143.77 826.86L155.98 812.6C158.67 809.45 162.03 805.96 166.2 809.18L185.06 823.73L233.5 858.7C241.27 864.31 219.36 863.22 211.11 863.87L197.66 864.93L176.6 866.43C161.02 867.54 146.28 869.07 130.74 869.22C124.07 869.28 117.65 870.69 110.57 868.96V868.97ZM129.55 993.77L156.63 970.28C160.08 967.29 163.9 963.79 168.59 962.54L206.04 987.12L242.83 1011.16C245.15 1012.67 247.02 1015.14 248.88 1017.65C245.16 1019.49 241.64 1020.66 237.74 1020.74L189.81 1021.73C181.81 1021.9 174.87 1022.33 167.38 1021.37C156.52 1019.97 146.24 1019.98 135.26 1019.92L111.62 1019.8C110.72 1019.8 108.58 1018.66 107.85 1018.1C104.34 1015.42 126.53 996.36 129.54 993.75L129.55 993.77ZM250.94 726.57L252.12 747.23L255.33 784.17L257.39 806.97L258.26 827.46C258.56 834.45 259.41 840.49 258.47 847.74C258.22 849.68 253.88 848.66 252.36 847.38C246.07 842.1 240.36 838.34 234.32 833.84L211.44 816.77L195.03 804.58C188.99 800.09 183.72 795.51 178.45 789.71C179.79 785.36 183.53 782.86 186.46 779.93L230.04 736.59C233.31 733.34 250.18 713.32 250.93 726.57H250.94ZM143.54 599.69L190.25 598.92L200.95 598.73L219.09 598.01L244.27 596.78C245.66 596.71 247.96 599.85 247.69 601.1C247.42 602.35 245.21 604.63 243.82 604.73L230.49 605.63L198.37 607.73L165.65 608.97L144.42 609.98C139.29 610.23 134.6 611.43 128.98 611C132.04 605.82 137.7 599.78 143.54 599.68V599.69ZM114.52 631.95C111.08 619.67 144.52 621.36 153.7 620.98L206.37 618.78L243.49 618.41C245.01 618.4 247.69 620.76 248.37 622.03C249.05 623.29 247.52 627.18 245.88 627.42C219.66 631.15 200.71 627.74 168.22 633.39C162.67 634.35 156.97 634.72 150.82 635.33C142.82 636.13 116.93 640.51 114.53 631.94L114.52 631.95ZM246.51 655.45C241.66 656.46 236.11 657.24 231.03 657.36L184.2 658.44L154.78 661.09C149.5 661.57 143.99 661.67 138.71 661.78C133.21 661.89 130.66 654.13 132.41 649.25C137.76 648.33 142.61 647.7 147.91 647.24L165 645.75L189.23 643.74L206.41 642.98L247.22 642.96C250.24 645.82 250.33 653.86 246.5 655.45H246.51ZM120.26 683.34C121.46 681.13 124.97 679.6 128.28 679.34L172.06 675.84L192.13 674.16L204.16 674.68L243.19 671.15C245.62 670.93 248.83 672.68 249.44 674.8C250.19 677.43 248.13 679.54 245.33 680.7L234.04 685.39C219.73 684.86 206.76 686.4 192.65 687.65L174.43 689.26C160.5 690.49 134.57 695.51 121.03 691.34C119.08 690.74 119.27 685.14 120.26 683.33V683.34ZM106.76 712.87L141.69 712.27L168.64 711.42C180.06 711.06 191.72 709.91 202.81 708.11C212.77 706.5 221.4 702.09 232.12 706.13C231.25 708.76 229.4 711.26 227.38 713.17L210.91 728.72C205.65 733.68 198.99 737.24 193.89 742.7C188.16 748.83 181.26 752.73 175.34 758.7L163.08 771.07C161.75 772.42 156.95 773.08 155.5 771.96C143.63 762.83 132.69 752.63 122.11 742.1L98.3701 718.46C99.4901 715.01 103.44 712.92 106.77 712.87H106.76ZM75.7601 735.27C76.1401 734.44 79.1601 734.59 79.9801 735.31L139.65 787.33C143.07 790.31 140.24 793.72 138.48 796.3C134.71 801.85 131.15 807.04 126.72 812.02L105.53 835.82L84.1701 858.4C83.4901 859.12 80.4501 860.24 79.9501 859.5C77.3601 855.62 79.1001 845.68 78.5001 834.36L76.3901 794.3L76.1001 783.87L75.1201 767.7L74.5201 739.33C74.5001 738.31 75.3801 736.11 75.7701 735.27H75.7601ZM124 1153.21L128.82 1174.43C129.66 1178.15 128.13 1185.91 123.19 1185.64L103.02 1184.54L63.6101 1186.88C59.0101 1187.15 51.2901 1191.01 47.8901 1185.16C45.5101 1181.07 38.0801 1159.79 38.3801 1157.64C38.5801 1156.17 41.3401 1153.48 42.8901 1153.37L53.8901 1152.59L75.1601 1152.11C91.3901 1151.75 107.39 1151.89 123.99 1153.2L124 1153.21ZM141.72 1085.86L122.21 1097.97L97.1901 1114.9C94.9701 1116.4 92.2801 1117.69 89.6501 1117.46C89.4001 1110.72 89.6801 1104.49 89.1201 1098.13L86.5901 1069.47C86.3101 1066.29 84.2801 1044.23 92.6501 1048.89C99.5901 1052.75 143.75 1078.39 144.04 1082.52C144.11 1083.47 142.56 1085.34 141.72 1085.86ZM168.21 1070.23C164 1073 160.38 1071.24 156.65 1068.77L137.99 1056.41L119.68 1044.2C107.94 1036.37 141.48 1038.75 143.24 1038.81L163.78 1039.48L188.12 1040.72C194.61 1041.05 201.55 1041.77 208.07 1042.45C209.01 1043.92 207.2 1047.24 205.28 1048.29C192.23 1055.4 180.28 1062.31 168.23 1070.24L168.21 1070.23ZM184.92 1085.79C184.55 1084.68 186.6 1082.39 187.69 1081.82L227.54 1060.68L257 1045.67C257.65 1045.34 260.05 1045.34 260.36 1045.91C260.77 1046.68 261.45 1048.8 261.44 1049.77C261.31 1062.05 262.81 1073.4 263.12 1085.4L264.01 1120.69C264.1 1124.17 265.57 1127.53 260.51 1129.59C248.53 1124.06 187.25 1092.73 184.93 1085.78L184.92 1085.79ZM307.87 1159.29C312.26 1160.05 314.15 1164 314.15 1167.88L314.17 1185.32C314.18 1195.1 299.37 1192.53 287.53 1191.59L247.53 1188.4C242.35 1187.99 234.79 1189.84 232.49 1183.07C230.64 1177.62 230.7 1169.2 232.66 1163.37C233.78 1160.05 240.12 1160.26 242.89 1159.78C252.47 1158.12 260.98 1157.38 270.56 1157.69C295.94 1158.53 278.14 1154.16 307.86 1159.29H307.87ZM289.02 828.71L288.08 810.34L286.87 794.26L285.01 775.6L282.18 747.25C281.53 740.78 281.72 735.14 282.7 727.82C291.32 732.2 296.6 736.81 303.43 741.91C307.38 744.86 313.25 748.04 315.82 752.45C316.73 766.82 316.07 780 315.56 794.38C315.26 802.81 318.71 813.13 313.74 821.4C309.04 828.27 300.03 832.79 293.57 838.12C290.15 836.26 289.22 832.23 289.03 828.71H289.02ZM314.76 858.51C313.96 859.75 309.41 860.19 308.81 858.77C307.63 855.99 312.1 852.32 314.21 852.91C315.62 853.31 315.57 857.26 314.76 858.5V858.51ZM293.34 1008.2C292.75 1007.43 292.26 1005.4 292.26 1004.08L292.31 946.72L291.74 931.79C291.37 922.02 292.34 913.09 291.02 903.08C290.83 901.64 291.7 898.16 292.48 897C293.39 895.65 297.33 896.78 298.75 897.91C310.23 907.01 316.5 901.99 317.1 914.99L318.61 947.89L321.78 984.75C322.24 990.12 321.81 993.61 316.89 996.6L297.89 1008.14C296.93 1008.72 293.92 1008.98 293.33 1008.21L293.34 1008.2ZM323.55 1053.78C316.9 1050.63 311.01 1046.75 305.18 1042.01C311.14 1037.76 318.3 1036.94 324.1 1040.09C328.2 1042.32 328.23 1050.51 323.56 1053.78H323.55ZM331.04 837.93C336.83 832.23 344.17 829.45 350.05 824.57C356.07 819.57 360.92 814.66 369.43 812.39C371.06 821.33 370.24 828.98 369.27 838.05C368.97 840.87 372.59 856.05 367.51 856.54L351.33 858.1C345.03 858.71 336.99 861.85 330.93 856.98C326.8 853.66 326.96 841.93 331.03 837.92L331.04 837.93ZM334.22 985.39C333.14 985.17 332.59 982.66 332.47 981.15L329.06 939.84C328.45 932.42 328.8 924.79 329.39 917.33C341 914.83 346.34 926.32 361.47 932.3C367.03 934.5 371.38 937.43 372.07 944.07C373.76 960.27 374.01 963.04 365.3 968.36L338.75 984.57C337.62 985.26 335.09 985.57 334.22 985.4V985.39ZM382.87 1092.28C377.47 1093.39 375.76 1089.25 372.39 1086.74L357.55 1075.67L340.07 1065.09C333.85 1061.33 337.15 1042.05 338.13 1040.46C339.99 1037.46 346.22 1037.6 349.47 1037.47C361.04 1037.01 376.71 1033.43 378.84 1041C379.95 1044.94 379.07 1050.42 379.66 1054.49C381.53 1067.26 383.49 1079.36 382.86 1092.29L382.87 1092.28ZM688.33 884.61C693.17 884.28 692.12 906.13 692.11 908.99L692.05 934.93C692.04 938.97 692.43 967.03 688.46 968.9C671 958.18 664.62 951.68 647.68 940.82C645.58 939.47 642.74 935.61 642.94 933.05C649.04 925.73 653.72 917.8 660.91 911.69C669.54 904.36 679.36 895.81 685.47 886.3C685.9 885.64 687.67 884.66 688.33 884.62V884.61ZM548.01 922.63C547.98 919.09 550.52 913.99 549.78 910.63C548.42 904.39 547.16 898.09 551.88 892.81C556.45 893.01 560.68 897.62 563.98 900.72L575.29 911.37L587.55 921.92L599.02 932.41C600.17 933.46 601.83 936.53 601.75 938.04C601.66 939.77 599.53 942.82 597.91 943.85C591.72 947.79 587.35 952.05 582.07 957.4L571 968.61C565.38 974.3 559 978.9 551.97 984.27C547.11 978.7 548.41 972.16 548.36 965.7L548.01 922.61V922.63ZM546.94 808.95C548.57 796.74 548.63 784.56 545.97 772.6C547.11 764.01 546.82 755.79 545.85 747.17L547.15 722.05C547.18 721.45 547.65 719.78 547.82 719.26C548.04 718.56 550.43 719.63 550.98 720.17L587.24 755.86C590.83 759.4 604.24 771.17 605.57 777.14C590.13 798.41 573.22 813.32 557 833.53L551.59 840.27C544.18 838.61 551.18 820.63 546.94 808.95ZM546.09 654.55C545 647.18 544.44 641.18 545.25 633.6C547.45 613.12 544.82 613.21 546.27 597.95C546.53 595.2 545.68 591.03 545.69 588C545.7 579.24 545.43 571.4 544.54 562.71C544.19 559.3 544.73 556.16 546.97 553.4C552.67 557.3 554.85 562.75 559.06 567.73L583.18 596.23L601.19 616.35C596.46 622.9 592.76 628.37 587.9 633.78C578.18 644.62 569.31 655.18 560.19 666.74C557.04 670.74 550.45 679.77 546.34 679.64C541.57 679.49 546.73 658.86 546.09 654.53V654.55ZM628.04 848.31L619.14 849.21L592.6 849.5C586.41 849.57 580.22 851.1 574.15 849.5C574.07 846.09 575.93 842.74 578.15 840.55C592.41 826.46 605.31 812.28 617.55 796.28C618.99 794.4 623.32 793.17 625.01 794.99C636.76 807.66 649.55 817.52 662.01 829.25L673.13 839.72C673.83 840.38 674.91 842.22 675.17 843.03C676.44 846.99 631.86 847.93 628.04 848.31ZM675.75 875.15C673.81 881.09 670.93 884.2 666.69 886.66C656.57 892.53 647.87 899.72 638.79 906.95C634.73 910.18 630.23 912.83 626.9 916.79C623.75 920.53 618.97 922.22 613.92 918.71L598.2 907.78L560.8 883.54C560.1 883.08 559.01 881.44 558.65 880.77C558.2 879.93 561.67 878.22 562.98 878.2L602.35 877.36L635.09 876.33C648.84 875.9 661.32 873.02 675.75 875.15ZM623.91 756.76C622.93 758.25 619.77 760.23 617.86 760.81C612.41 758.39 607.35 753.76 602.53 750.14L587.79 739.06L576.68 730.95L559.95 717.47C559.34 716.98 558.28 715 558.54 714.5C558.9 713.83 560.91 712.47 561.79 712.44L592.52 711.29L616.74 710.24L635.1 709.57L663 709C664.02 708.98 666.04 709.92 666.56 710.47C667.21 711.15 665.8 713.53 665.07 714.18L649.32 728.2C639.73 736.74 631.04 745.97 623.9 756.77L623.91 756.76ZM644.23 681.29L620.61 682.18L606.19 682.42C598.07 682.55 589.13 683.45 581.35 684.16C579.93 684.29 576.68 682.11 576.94 680.84C584.69 669.79 588.8 666.08 597.29 654.29L609.68 637.09C611.81 634.13 615.72 631.7 618.94 635.05L656.44 674.14C657.24 674.97 658 677.7 657.92 678.8C657.56 683.69 646.53 681.22 644.24 681.3L644.23 681.29ZM580.37 997.7L601.24 974.73L621.17 952.97C629.81 955.01 634.61 961.01 640.67 966.39C647.92 972.83 655.69 978.95 663.6 984.52C668.92 988.26 673.67 990.86 677.08 997.47C671.44 999.9 666.16 1000.56 660.29 1000.46L645.87 1000.21C628.42 999.91 618.21 1000.7 601.05 1002.25C599.08 1002.43 573.63 1005.14 580.38 997.71L580.37 997.7ZM681.21 723.19C681.98 723.63 683.15 725.65 683.16 726.59L683.55 766.19C683.64 775.69 683.59 784.49 684 794.3L684.62 808.92C684.65 809.56 683.57 811.54 683.28 812.01C682.98 812.48 681.24 811.95 680.52 811.41L655.13 792.64C648.43 787.68 641.97 783.28 636.58 776.37C636.51 773.92 638.79 770.72 640.38 768.74L659.92 744.44C662.64 741.06 678.12 721.44 681.23 723.21L681.21 723.19ZM677.89 549.01C678.1 549.72 678.48 551.41 678.51 552.24L679.15 572.88C678.43 580.63 679.31 588.07 679.37 596L679.86 661.23C679.86 661.73 679.31 663.51 678.83 663.61C678.12 663.75 675.69 663.29 675.14 662.75L650.05 638.27L639.97 627.76L628.55 616.47C631.55 608.34 636 602.67 640.33 595.79C643.9 590.13 646.91 585.53 651.34 579.82L674.66 549.72C675.09 549.16 677.74 548.57 677.88 549.03L677.89 549.01ZM671.97 538.24C670.87 543.7 667.19 545.18 664.11 548.43L645.27 568.27L629.38 586.86L618.74 599.32C618 600.19 615.87 601.61 614.76 601.87C613.43 602.18 610.54 600.86 609.09 599.54L575.68 569.33L564.45 558.61L552.17 546.3C551.65 545.78 551.2 543.32 551.57 542.78C551.94 542.24 553.57 541.17 554.46 541.15L577.62 540.53L597.99 539.28L613.38 539L641.95 538.32L652.1 537.98C658.9 537.75 665.1 536.73 671.97 538.24ZM613.75 491.49C613.53 489.49 616.76 485.79 618.61 484.95C621.96 487.42 622.83 491.02 622.34 495.86C619.09 496.86 614.17 495.33 613.75 491.49ZM644.72 491.31C648.2 497.45 657.17 495.87 660.42 501.94C657.81 505.93 652.99 505.37 648.89 505.58C629.12 506.59 642.51 483.47 622.38 467.17C620.24 465.44 616.34 464.01 614.46 464.54C611.99 465.24 609.28 468.19 608.74 470.83C604.42 491.81 595.54 496.08 609.56 505.67C603.57 508.39 597.83 509.54 591.86 509.71C590.05 509.76 587.12 505.94 587.71 504.39C595.68 483.75 602.83 482.28 602.11 461.81L601.25 437.26C601.02 430.73 597.03 405.53 607.55 410.59C619.15 416.17 624.24 406.82 634.16 409.69L612.05 425.07C610.94 425.84 609.78 428.94 610.08 430.16C610.37 431.38 612.92 432.94 614.28 433.03L621.06 433.48C631.71 454.92 632.72 470.17 644.73 491.32L644.72 491.31ZM591.64 383.31C589.44 383.13 588.5 377.83 589.28 375.66C589.94 373.82 592.69 371.97 595.3 371.4C597.44 370.94 601.74 374.22 601.02 376.88C599.97 380.77 595.31 383.61 591.64 383.31ZM603.26 390.04C604.73 389.27 608.05 389.97 608.85 391.08C609.78 392.37 609.59 395.77 608.45 396.97C607.31 398.16 603.68 397.35 602.62 396.16C601.44 394.84 601.44 390.99 603.26 390.04ZM624.33 397.94C626.38 394.65 628.29 393.45 631.6 393.13C631.56 394.63 630.78 397.04 629.88 397.7C629 398.34 627.15 398.36 624.33 397.94ZM653.81 370.49C652.6 371.44 649.21 371.27 648.04 370.26C646.84 369.21 646.1 365.19 647.32 364.2C649.13 362.73 655.08 362.81 656.1 365.25C656.62 366.49 654.86 369.68 653.81 370.49ZM660.44 377.43L659.16 380.22C658.89 380.81 657.41 379.8 656.97 379.32C656.38 378.68 657.32 376.37 658.17 376.24C658.81 376.14 660.71 376.84 660.44 377.43ZM652.37 351.03C661.57 345.17 679.56 342.9 688.43 347.06C695.37 350.31 656.82 356.59 652.37 351.03ZM696.85 358.99C697.03 370.48 697.8 385.39 691.22 395.22C684.96 401.52 674.26 400.05 665.51 399.65C661.35 384.17 679.83 377.39 669.75 367.56C669.13 366.96 668.24 364.76 668.39 363.91C668.54 363.06 670.5 362.53 671.64 362.33C678.38 361.13 683.84 359.83 690.43 357.67C691.9 357.19 695.6 357.58 696.86 359L696.85 358.99ZM674.53 318.33C680.24 321.36 689.75 331.12 689.92 337.34C690 340.54 675.02 336.87 660.35 339.45C656.56 340.12 653.54 340.49 649.6 339.27C652.76 331.66 655.66 325.94 661.09 320.26C663.74 317.49 670.82 316.36 674.54 318.33H674.53ZM385.78 106.91L373.45 112.85C372.3 113.4 368.55 113.84 368.14 112.71C367.74 111.58 367.11 109.15 366.84 107.78C365.51 101.03 368.7 97.5504 374.61 95.7304L411.16 84.5004L440.68 75.0504L496.21 56.0804L519.77 49.9404L536.36 45.6304L596.71 29.3304L619.45 23.0804L643.71 15.2104C644.65 14.9004 647.02 15.9404 647.63 16.7404C648.24 17.5304 646.31 20.2604 645.2 20.5604C633.07 23.8404 620.96 28.8204 609.07 33.4504C593.27 39.6104 577.92 45.1504 561.77 50.0104L544.88 55.0904L516.82 63.7204L492.44 71.1304L457.88 82.6904C443.47 87.5104 430.22 92.9904 417.14 100.62C412 103.62 408.23 106.82 408.16 113.6L407.9 139.7C407.84 145.88 408.77 151.9 408.89 158.03L409.77 201.11C410.03 213.68 410.67 225.9 410.45 238.35C410.22 242.85 399.57 243.15 398.04 239.52C395.94 234.56 397.18 229.35 397.39 223.69C397.98 207.26 398.55 191.36 397.09 175.57L395.05 153.49C393.75 139.4 392.45 126.38 393.26 112.01C393.33 110.83 392.32 108.23 391.39 107.61C390.28 106.87 387.02 106.28 385.75 106.89L385.78 106.91ZM390.17 298.73L389.9 270.54C389.86 266.56 393.03 264.65 396.52 264.63L425.42 264.54C428.76 264.53 435 265.06 436.96 267.56C438.4 272.62 438.28 278.59 437.01 283.56C435.96 287.7 430.16 288.53 426.56 290.39L401.18 303.53C397.54 305.41 390.21 303.05 390.17 298.72V298.73ZM395.45 478.28C396.5 478 398.79 478.5 399.91 479L415.82 485.99C424.22 489.68 432.51 492.47 440.96 496.87C443.63 501.96 443.98 509.28 443.35 515.34C442.65 522.12 429.37 517.54 413.86 520.3C406.7 521.57 400.55 521.57 393.21 518.78L393.25 482.66C393.25 481.24 394.42 478.57 395.47 478.29L395.45 478.28ZM394.29 405.6C394.27 403.3 399.1 401.93 401.06 401.86L415.65 401.33L436.76 400.57C438.06 405.62 439.59 412.24 436.84 416.17C433.51 420.93 426.49 422.12 421.44 424.66C411.42 429.71 394.52 440.54 394.44 428.24L394.29 405.59V405.6ZM434.29 470.6L411.92 461.11C410.87 460.67 408.95 458.9 409.07 457.83C409.19 456.76 410.76 454.68 411.84 454.05L432.72 441.78C441.8 436.44 439.5 464.93 440.42 469.83C439.53 470.92 435.77 471.23 434.28 470.6H434.29ZM433.07 373.25C422.5 373.83 412.94 375.11 402.27 377.04C399.91 377.47 394.53 376.65 393.42 374.49L393.05 348.2C392.99 343.95 390.94 337.37 395.48 334.28C398.42 332.27 405.03 335.1 408.82 336.05C413.71 337.26 439.99 344.07 440.03 348.28L440.21 366.23C440.26 370.7 436.74 373.06 433.06 373.26L433.07 373.25ZM432.36 311.3C432.47 310.55 435.4 310.14 436.13 310.3C436.86 310.46 437.37 312.78 436.67 313.06L434.08 314.09C433.39 314.37 432.24 312.12 432.36 311.3ZM393.62 573.06L392.38 546.67C392.23 543.56 394.59 540.95 397.7 540.93L425.35 540.77C431.37 540.74 437.87 541.23 443.48 543.11C444.51 548.9 447.41 571.67 442.72 574.9L408.39 598.49C405.94 600.17 401.81 601.18 399.22 600.03C397.07 599.07 394.6 595.35 394.48 592.69L393.63 573.07L393.62 573.06ZM445.82 623.21C441.84 623.17 435.54 619.94 433.43 616.47C433.11 612.63 440.74 607.72 444.28 609.35C448.16 611.15 448.18 619.16 445.82 623.2V623.21ZM398.99 638.13C402.08 638.35 405.46 639.47 407.81 641.03C418.5 648.09 428.82 653.52 440.46 658.99C450.6 663.76 453.36 672.1 450.94 684.01C447.3 685.32 443.67 686.55 440.37 686.55L405.74 686.57C400.49 686.57 396.32 682.75 396.92 677.29C399.58 653.08 393.64 655.41 398.99 638.14V638.13ZM513.24 428.48L513.42 476.76L512.93 489.44L513.02 499.95C513.1 509.79 498.32 497.17 482.35 490.94C477.19 488.93 459.61 483.2 458.9 476.39L454.98 438.85C454.71 436.22 454.96 429.89 457.04 428.38C461.75 424.96 467.56 421.43 472.56 418.88C484.51 412.76 495.27 406.92 506.7 399.86C507.83 399.16 511.08 398.85 512.1 399.65C513.12 400.45 513.23 403.19 512.9 404.85C511.33 412.85 513.21 420.47 513.24 428.48ZM480.3 516.21C479.85 516.59 478.3 517.97 477.71 517.97H463.12C461.62 517.96 460.66 514.12 460.41 512.73C460.12 511.12 462.23 506.75 464.01 507.33C467.1 508.34 482.59 514.26 480.3 516.22V516.21ZM453.88 984.92C455.96 986.22 459.94 1004.91 453.17 1006.7C448.69 1007.89 442.73 1007.16 437.35 1007.77C425.7 1009.1 415.92 1010.28 404.61 1009.74C402.46 1009.64 400.34 1006.11 400.22 1004.27L399.17 988.04C398.97 984.99 398.46 978.08 400.62 976.07C405.59 971.43 411.52 967.82 417.76 965.51C421.97 963.95 425.96 969.57 429.07 971.26C437.71 975.94 445.43 979.64 453.88 984.92ZM450.86 944.69C451.64 944.24 453.8 945.43 454.04 946.3C454.34 947.38 453.55 950.35 452.43 950.41C451.31 950.47 449.26 949.51 448.38 948.59C447.6 947.77 449.61 945.41 450.86 944.69ZM457.49 399.05L472.38 398.05C472.97 398.01 475.1 399.16 475.65 399.4C478.77 400.78 465.1 406.95 458.1 407.73C453.55 408.24 454.25 399.27 457.49 399.05ZM458.27 351.82C471.01 356.32 483.15 361.18 496.26 367.34C492.11 371.13 462.35 371.1 456.57 370.94C454.55 368.33 453.71 353.59 458.28 351.82H458.27ZM512.14 292.71L511.76 311.79L511.24 336.85C511.22 337.65 510.34 339.86 509.78 340.43C509.08 341.14 506.6 341.05 505.13 340.46L484.1 332.01L454.26 320.51C453.05 317.31 452.76 312.79 452.3 309.7C451.27 302.84 452.44 298.95 458.64 295.36L506.91 267.43C507.57 267.05 509.74 266.81 510.41 266.97C511.31 267.18 512.42 269.34 512.41 270.39L512.14 292.71ZM483.95 267.02L461.17 275.37C458.56 276.33 454.42 277.99 452.29 276.96C449.4 273.32 450.19 266.11 454.49 263.73L483.19 263.37C483.63 263.37 485.32 264.45 485.69 264.53C486.24 264.65 484.74 266.73 483.95 267.01V267.02ZM397.45 737.11C397.42 732.68 397.15 728.63 397.33 724.26L397.72 714.76C397.79 713.14 400.34 710.44 402.33 710.45L452.31 710.73C454.94 717.7 456.81 725.6 453.47 732.3C450.89 737.49 443.51 740.37 438.37 742.79C432.21 745.69 428 750.11 422 753.6L403.48 764.4C402.61 764.91 400.46 765.58 399.57 765.47C398.45 765.33 397.61 762.45 397.6 761.21L397.44 737.1L397.45 737.11ZM398.3 816.53L398.22 811.43C398.2 810.29 401.45 808.24 402.75 808.99L443.82 832.68C450.31 836.42 454.65 839.76 453.86 848.41C453.74 849.7 453.38 852.21 452.91 853.27C452.44 854.34 449.57 855.03 448.29 855.05L407.61 855.47C405.66 855.49 402.02 856.15 400.68 855.26C399.34 854.38 397.68 851.17 397.75 849.43L398.51 832.1L398.29 816.52L398.3 816.53ZM453.74 801.96C453.73 802.83 453.01 804.49 452.61 805.06C452.08 805.83 448.73 806.17 447.81 805.64L418.3 788.88C417.33 788.33 415.89 786.44 416.01 785.6C416.16 784.54 417.51 782.34 418.49 781.68C432.4 772.42 435.06 773.3 448.05 763.53C448.92 762.88 451.19 762.24 452.1 762.31C453.23 762.4 454.19 765.21 454.18 766.66L453.74 801.95V801.96ZM398.03 885.03C398.1 883.15 401.5 881.05 403.27 881.28C408.02 881.87 412.72 879.97 416.84 880.01L447.14 880.28C450.7 880.31 454.8 882.07 454.82 886L454.91 900.84C454.92 903.32 451.04 907.01 449.01 908.22C437.54 915.02 434.84 929.53 418.25 931.82C415.53 932.2 398.79 923.33 398.49 919.91C397.4 907.8 397.61 897.2 398.03 885.05V885.03ZM459.17 1067.69C448.84 1080.38 436.73 1087.11 423.01 1100.51C419.4 1104.03 413.53 1108.12 408.34 1110.01C403.35 1111.82 399.3 1103.9 399.22 1100.26L398.65 1072.84C398.56 1068.6 398.4 1064.48 398.53 1060.29L399.14 1040.54C399.22 1037.95 404.45 1036.34 406.78 1036.22L425.22 1035.25C436.57 1034.65 446.68 1034.95 458.6 1035.03C459.85 1041.16 462.28 1063.9 459.18 1067.7L459.17 1067.69ZM461.84 558.69C460.48 554.68 459.46 545.99 463.29 542.34C464.83 541.89 490.43 540.23 481.41 547.3L466.65 558.87C465.83 559.52 462.14 559.57 461.84 558.69ZM463.33 626.97C463.31 605.61 458.68 597.95 468.44 592.18L493.11 577.59L507.82 568.27C508.89 567.59 512.37 569.47 512.39 570.68L512.7 598.27C512.78 605.45 513.85 611.89 512.75 619.02L512.14 649.44C512.11 650.91 510.07 654.56 508.9 654.08L483.56 643.69L468.88 636.1C465.26 634.23 463.34 631.13 463.33 626.97ZM487.75 713.99C487.49 714.45 485.97 716.31 485.45 716.56L471.31 723.45C467.39 721.38 467.57 713.26 471.8 712.48C476.62 711.59 481.72 711.7 486.88 711.73C487.39 712.64 488.01 713.52 487.75 713.99ZM467.26 675.78C473.35 677.39 477.06 679.02 482.41 684.01C477.61 685.88 473.49 686.02 468.7 684.94C466.15 684.36 465.84 678.4 467.27 675.78H467.26ZM468.08 780.43L468.76 758.6C468.88 754.84 469.98 751.3 473.32 749.75C479.01 747.12 483.9 744.32 489.36 741.39C495 738.36 500.91 735.51 505.36 731.38C506.92 729.94 512.5 728.19 512.89 730.08C514.55 738.04 514.33 761.19 514.16 770.19C513.89 784.92 516.82 804.58 516.25 814.64C515.93 820.18 514.51 825.4 515.89 830.91C516.24 832.29 515.81 835.51 514.85 836.25C513.89 836.99 511.02 836.73 509.83 836.16L471.46 818.02C468.96 816.84 467.56 813.04 467.6 810.41L468.07 780.44L468.08 780.43ZM471.78 881.31C473.86 880.05 479.69 880.37 479.53 883.17C479.33 886.68 473.2 890.63 470.87 888.99C467.51 886.61 469.38 882.77 471.78 881.31ZM469 850.15C469.04 848.88 472.53 847.99 473.66 848.53C474.8 849.07 476.95 851.25 476.94 852.78C476.94 854.08 473.4 855.15 472.17 854.73C470.94 854.31 468.92 852.14 468.99 850.15H469ZM471.27 1003.32C469.56 1000.89 469.64 996.86 472.82 994.69L485.57 1001.73C483.81 1005.3 474.78 1008.31 471.27 1003.32ZM473.42 1052.11L472.55 1040.87C472.18 1036.05 475.27 1033.61 479.74 1033.17C488.16 1032.35 496.47 1031.66 505.35 1034.62C500.4 1038.13 474.1 1061.04 473.41 1052.1L473.42 1052.11ZM510.98 981.97C506.22 978.5 501.84 977.73 497.24 975.42L477.76 965.68C470.29 961.94 467.83 957.28 468.68 948.66C469.14 944.05 465.63 936.55 469.48 932.23C475.5 925.49 483.72 921.37 491.29 916.17L509.85 903.43C510.84 902.75 514.41 902.63 514.89 903.51C517.54 908.34 516.85 926.66 517.02 932.99L517.48 950.16L517.78 965.03L518.18 982.67C516.83 983.72 512.81 983.29 510.98 981.95V981.97ZM521.61 171.2C511.98 178.24 517.84 220.49 514.21 235.73L492.9 237.2L456.1 239.54C454.83 239.62 451.92 239.03 450.9 238.44C449.88 237.85 449.34 235.26 449.3 233.8L447.98 193.86C447.92 191.97 444.62 189.03 442.89 188.85C441.16 188.67 437.78 191.21 437.52 193.24C435.91 205.96 435.6 217.43 435.86 230.39C435.9 232.52 435.12 234.66 433.58 236.08C428.88 230.02 425.4 198.89 425.71 193.71C426.19 185.47 426.96 177.77 425.13 169.58C421.28 152.31 418.88 135.52 421.5 117.35C434.9 109.09 449.92 104.74 464.83 99.9604L477.84 95.7904L522.26 81.9304L548.21 73.4504C572 65.6704 595.06 57.8104 618.21 48.1704C628.88 43.7204 638.49 38.4804 649.65 35.3804C653.2 38.0904 651.9 42.6504 651.75 46.4104L650.52 75.4104L648.29 111.09C647.76 119.62 647.71 127.75 648.24 136.26L650.78 177.42L653.08 204.97L654.22 224.5L655.31 239.45C656.51 255.93 661.48 258.83 656.73 264.42C653.83 267.83 653.78 271.89 657.5 274.46C661.47 277.21 663.65 281.31 665.57 286.06C667.07 289.77 669.84 295.08 670.3 298.49C664.49 306.65 658.26 295.85 652.15 298.43C646.55 300.8 654.02 307.94 649.06 317.57C645.25 324.96 643.1 334.02 638.67 340.81C633.23 349.14 629.46 356.46 635.79 366.69C637.33 369.18 637.35 373.95 634.34 376.3L623.62 384.65C623.04 385.1 620.4 385.04 619.68 384.9C618.96 384.76 618.48 381.94 618.85 381.3C622.48 375.1 625.74 375.46 624.7 370.9C623.64 366.23 613.97 372.78 610.83 369.23C602.77 360.11 588.5 358.7 581.02 368.75C577.47 373.52 579.21 380.45 580.25 385.86C583.32 401.9 596 395.85 593.4 406.34C589 424.08 586.27 441.88 588.92 460.01C589.63 464.86 590.22 469.02 588.71 473.73C586.94 479.23 585.07 484.35 582.26 489.32C573.27 505.22 581.51 512.75 571.75 513.98L552.71 516.37C550.93 516.59 547.29 515.54 546.02 514.51C544.75 513.49 544.4 509.87 544.4 507.77L544.42 473.67L544.37 457.06L543.79 442.66L543.34 400.99C543.32 399.15 543.21 395.74 543.85 394.46C546.47 389.22 572.97 393.5 570.95 377.65C570.03 370.45 558.08 366.81 550.47 366.18C539.32 365.25 541.33 345.26 541.46 336.85L541.6 327.98L541.78 317.22L541.7 286.43L542.37 265.81C542.64 257.49 547.59 261.81 560.91 257.91C564.87 256.75 569.23 257.31 573.3 257.08L606.56 255.18C611.9 254.88 619.88 248.19 620.58 242.97C621.58 235.59 613.35 231.32 607.12 230.71C588.19 228.84 570.24 230.93 551.25 233.41C549.61 233.62 546.56 233.15 545.51 232.28C542.11 229.47 543.48 218.36 543.88 213.19C544.49 205.32 544.45 197.97 543.8 190.07C543.1 181.48 540.77 173.26 532.08 169.03C529.24 167.65 524.25 169.29 521.65 171.19L521.61 171.2ZM576.86 1152.82C585.89 1152.86 578.74 1169.31 577.72 1176.1C567.37 1177.39 558.38 1178.05 547.9 1178.94L522.61 1181.08L501.97 1182.94C499.43 1183.17 494.1 1182.75 493.6 1180.14L489.38 1158.11C496.26 1155.5 502.21 1153.49 508.87 1153.33L542.27 1152.49L561.86 1152.77L576.85 1152.83L576.86 1152.82ZM595.64 1080.42L581.13 1089.86L553.09 1107.66C552.26 1108.19 549.67 1108.62 549.06 1107.91C548.3 1107.02 547.99 1104.29 548.39 1103.08C551.08 1094.85 550.87 1087.18 551.14 1079.14C551.36 1072.67 552.74 1066.82 551.2 1060.49C549.34 1052.86 549.23 1044.52 553.46 1037.48L574.18 1053.56L598.32 1072.94C600.62 1074.78 597.78 1079.03 595.63 1080.43L595.64 1080.42ZM621.25 1062.34C615.96 1065.14 611.85 1059.69 607.87 1057.4C593.88 1049.35 578.34 1042.21 564.52 1036.08C563.56 1035.65 561.93 1033.94 562.01 1033.2C562.11 1032.28 564.69 1030.8 565.75 1030.8C577.55 1030.73 619.14 1028.46 630.49 1026.89C634.79 1026.29 638.91 1026.26 643.14 1026.24L665.07 1026.14C671.1 1026.11 676.4 1025.24 683.14 1028.13C677.85 1033.98 671.98 1036.23 665.69 1039.33L650.63 1046.75L621.24 1062.34H621.25ZM703.54 1114.68C702.82 1115.55 699.94 1114.89 698.91 1114.3L682.65 1105.06L662.56 1093.2C658.4 1090.74 639.78 1078.92 639.43 1075.51C639.31 1074.39 640.62 1072.14 641.66 1071.46L665.41 1056.03C676.71 1048.69 682.28 1040.19 692.79 1035.38C695.26 1041.43 695.7 1046.7 696.33 1052.88C697.34 1062.72 698.67 1072.08 700.2 1082.01L704.61 1110.72C704.77 1111.76 704.1 1113.97 703.53 1114.67L703.54 1114.68ZM850.88 882.79C852.21 880.84 858.81 878.66 858.96 881.89L860.06 906.65C860.45 915.41 860.59 923.84 860.47 932.39L861.22 961.52C861.32 965.5 862.45 967.64 860.07 972.91C852.79 968.71 847.75 965.32 841.68 961.13L803.81 934.98C800.97 933.02 800.19 928.92 802.93 926.46L837.81 895.05C842.41 890.91 847.2 888.17 850.87 882.79H850.88ZM842.79 990.24C841.47 992.06 838.77 993.39 836.87 993.48L817.28 994.47C807.9 994.94 799.16 993.82 789.83 994.49L775.94 995.49L752.39 996.58C745.84 996.88 739.31 997.12 732.63 997.08C731.86 994.18 733.41 991.71 735.54 989.95C745.77 981.51 754.94 972.97 764.46 963.86L780.27 948.72C783.29 945.83 786.28 945.13 789.82 948.07C798.4 955.21 807.15 961.93 816.1 968.54L827.94 977.28C833.27 981.22 838.38 984.84 842.78 990.25L842.79 990.24ZM840.29 874.68C837.53 880.54 832.57 882.08 828.41 885.63L790.51 918.03C785.87 922 782.75 920.2 778.92 917.45L746.22 893.96L729.8 881.68C726.83 879.46 724.75 878.42 722.57 873.63L755.92 872.86L772.63 871.91L795.39 872.62C813 873.17 800.98 870.85 818.43 871.83C826.12 872.26 833.51 871.82 840.28 874.67L840.29 874.68ZM718.79 741.36C741.09 737.76 762.53 734.16 785.25 733.57C792.84 733.37 800.28 738.14 804.85 744C805.87 745.3 801.73 747.63 800.2 747.57C772.73 746.41 746.88 748.98 719.21 754.21C715.59 754.89 714.1 749.8 714.14 747.79C714.18 745.63 715.98 741.83 718.8 741.37L718.79 741.36ZM722.27 765.61L748.5 761.79C768.92 758.82 788.49 756.92 809.29 757.61C812.56 757.72 815.66 758.16 817.41 760.23C818.92 762.02 819.09 768.48 816.31 769.2C806.08 771.83 796.41 773.29 785.99 774.57L721.41 782.51C719.29 782.77 716.57 782.75 715.57 782.04C714.37 781.19 713.93 777.79 713.85 776.19C713.55 769.6 716.32 766.47 722.27 765.6V765.61ZM800.08 804.73C797.78 806.68 793.05 806.64 789.81 806.82L772.58 807.76L755.95 808.77L737.03 809.91C728.74 810.41 717.9 813.18 716.01 811.31C713.27 808.6 713.56 799.82 715.07 794.91L738.22 792.8L751.53 791.43C767.63 789.77 783.5 790.47 799.8 790.99C803.11 794.01 803.82 801.56 800.09 804.72L800.08 804.73ZM717.34 827.28C729.62 824.39 741.65 824.61 754.21 823.93L785.15 822.24C789.79 821.99 794.22 822.51 799.02 821.71C803.74 820.92 810.37 820.1 814.21 823.86C815.12 827.52 818.08 843.5 809.92 843.5H766.85C760.04 843.5 753.81 843.78 747.32 844.31C739.32 842.51 717.71 845.56 715.25 842.81C713.63 841 712.45 828.42 717.34 827.27V827.28ZM713.99 978.76L714.65 939.27L715.71 908.19L715.37 885.57C716.4 883.88 720.47 885.74 721.99 887.22L754.48 918.92L766.59 929.92C768.4 931.56 770.46 935.41 768.21 937.58L754.39 950.91L732.97 970.19C731.01 971.95 713.81 989.14 713.99 978.76ZM737.53 1103.08L722.84 1114.68C722.1 1115.26 719.98 1116.29 719.14 1116.52C718.09 1116.8 716.48 1114.17 716.49 1112.95C716.73 1088.38 716.45 1065.13 715.43 1040.7C715.38 1039.45 716.22 1036.61 717.27 1036.29C718.54 1035.9 721.35 1036.96 722.54 1037.85L742.23 1052.54L757.66 1064.77C761.8 1068.06 765.06 1070.57 768.67 1075.14C761.66 1080.34 740.14 1101 737.54 1103.05L737.53 1103.08ZM795.93 1055.89C791.31 1061.4 785.42 1061.21 779.21 1058.07L745.71 1041.2C739.54 1038.09 733.88 1035.31 727.39 1032.88C724.24 1031.7 721.97 1029.96 719.32 1026.45C733.06 1020.96 735.13 1024.03 750.93 1022.79L767.93 1021.46L783.04 1020.52C802.37 1019.32 820.81 1018.73 840.19 1016.47C841.21 1016.35 843.96 1017.27 843.93 1018.21C843.9 1019.15 842.91 1021.37 842.1 1021.87C832.64 1027.79 801.75 1048.95 795.94 1055.88L795.93 1055.89ZM842.27 1090.22C834.84 1086.25 828.43 1082.6 820.46 1079.69C817.36 1078.56 813.09 1075.74 811.72 1073.07C812.47 1068.17 816.97 1066.03 820.03 1062.83L859.69 1021.48C860.53 1020.61 862.62 1019.77 863.49 1020.02C864.36 1020.27 865.4 1022.53 865.49 1023.59L867.14 1043.88L870.54 1078.3L872.92 1097.67C873.1 1099.1 873.03 1101.52 872.87 1102.68C872.71 1103.84 868.7 1104.35 867.63 1103.78L842.26 1090.22H842.27ZM928.92 1162.98C920.19 1164.08 912.18 1164.22 903.26 1164.55L885.54 1165.22L865.17 1166.02C862.43 1166.13 858.89 1164.22 858.14 1161.59L855.11 1150.86C854.73 1149.52 855.11 1146.07 856.08 1145.36C860.82 1141.92 878.73 1143.36 882.38 1143C891.36 1142.11 899.79 1141.02 908.85 1140.93C915.12 1140.87 922.64 1139.73 928.5 1141.37C932.17 1148.3 930.7 1155.39 928.92 1162.98Z" fill="black"/>
</g>
<defs>
<clipPath id="clip0_177_906">
<rect width="956.79" height="1207.27" fill="white"/>
</clipPath>
</defs>
</svg>
