<svg width="980" height="1072" viewBox="0 0 980 1072" fill="none" xmlns="http://www.w3.org/2000/svg">
<g clip-path="url(#clip0_177_904)">
<path d="M373.23 1041.23C368.68 1042.48 365.21 1038.8 363.63 1036C355.61 1021.84 396.21 999.36 395.53 992.63C395.42 991.58 394.16 989.68 393.25 988.87L367.59 966.31L352.4 953.31C351.86 952.84 349.96 952.19 349.34 952.18C348.51 952.16 347.5 954.34 347.46 955.22L346.49 981.79C346.34 986 349.63 990.34 344.2 993.97C340.71 977.16 339.13 961.04 338.07 944.05C337.84 940.31 334.78 937.52 332.01 935.31C319.53 925.31 314.74 918.81 302.4 910.03C296.79 914.62 298.92 919.46 299.07 924.73C299.51 939.45 299.28 953.96 298.85 968.65L298 997.94C297.91 1000.99 300.37 1003.72 303.27 1004.23C311 1005.61 317.62 1008.4 324.8 1011.12C345.25 1018.85 335.15 1032.06 338.36 1056.24C338.84 1059.86 337.92 1064.15 335.8 1066.79C331.22 1072.5 305.03 1072.12 298.87 1071.55L278.81 1069.72C254.57 1067.51 255.38 1070.43 234.68 1070.31C227.6 1070.27 224.14 1062.19 222.39 1056.56C221.18 1052.66 218.04 1048.39 217.48 1044.86L214.96 1028.91C212.69 1014.53 221.95 1002.86 234.92 1000.01C235.45 999.89 236.7 999.21 237.05 999.03C237.59 998.75 237.12 996.23 236.26 995.72L198.41 973.03L175.98 959.45C171.86 956.96 167.8 957.09 163.73 959.6L135.19 977.17C130.76 979.9 110.58 991.87 111.47 996.16C112.01 998.77 127.24 997.74 135.17 998.36C139.36 998.69 142.7 1005.37 143.66 1009C144.96 1013.98 144.47 1019.14 145.19 1024.14C146.39 1032.46 148.01 1040.59 146.47 1048.68C144.41 1059.53 136.01 1065.32 125.13 1064.62C115.76 1064.02 106.9 1064.89 97.5201 1066.17C96.0301 1066.37 92.6101 1065.95 90.9401 1065.99L78.2201 1066.27C63.0101 1066.61 41.6201 1077.01 32.6401 1065.25C26.9601 1057.81 26.2601 1047.78 22.4801 1039.78C19.1601 1032.75 15.6401 1027.69 15.8101 1019.62C16.0801 1006.49 24.6101 996.41 38.0201 995.15C54.1801 993.64 52.1901 998.41 60.9301 995.57C64.5001 988.18 63.0101 980.28 62.6501 972.54L61.2401 942.85L60.9401 901.44C60.9201 899.26 55.1801 897.63 52.9101 898.11C43.8601 900.01 33.5801 899.21 26.5901 892.27C24.1001 889.8 24.7201 884.91 26.1701 882.06C32.2801 870 54.5501 878.5 58.5201 873.3C59.4901 872.03 59.4401 868.75 59.3301 866.76L58.1901 845.84L55.9101 811.59L54.7601 779.31L54.0801 746.55C54.0301 744.19 50.9801 741.7 48.6701 741.95L28.7101 744.13C23.0701 744.75 16.6601 741.58 11.9501 738.36C10.3101 737.24 9.72011 731.48 11.5201 730.45C15.2601 728.31 20.9701 726.29 25.3001 726.23L47.3501 725.91C50.3201 725.87 53.3101 723.7 53.2501 720.5L52.3201 668.28L49.7901 632.08C49.4701 627.54 49.0101 622.43 49.0901 617.98L49.8301 572.4C49.8601 570.38 49.2001 564.79 47.1001 564.7C37.6601 564.31 29.0901 564.31 19.9601 564.83C13.7201 565.18 6.30011 567.18 1.35011 561.99C-1.96989 558.5 1.39011 552.02 5.67011 550.09C11.5101 547.46 17.8301 545.58 24.2401 544.83L43.8801 542.53C47.6001 542.09 49.3901 539.57 49.5801 535.78L50.3801 519.67C51.0001 507.22 50.9401 494.61 53.6401 482.83C55.2101 475.98 60.7201 473.88 66.5501 474.75C73.0101 475.72 75.5501 479.08 76.0401 485.42C76.7101 494.14 76.3801 502.66 76.2501 511.59C76.1401 518.87 77.5601 526.26 76.0201 533.4C73.4701 545.22 98.6101 541 105.26 539.81L107.88 525.37C110.82 509.18 127.03 517.57 123.44 500.93C120.31 486.45 103.88 504.39 100.6 473.57C99.3301 461.64 120.47 445.12 129.39 437.7C133.33 434.42 138.39 429.9 143.55 429.41L165.44 427.34L190.1 426.22L228.35 425.29C231.34 425.22 250.23 422.9 251.68 421.95C253.06 421.05 253.88 417.48 253.75 415.47L252.09 390.55C249.26 388.28 244.62 388 240.94 387.55C221.41 385.19 212.32 391.36 205.51 384.14C203.45 381.95 203.66 376.28 205.15 373.57C206.48 371.14 209.98 367.9 213.63 367.21C224.36 365.19 234.38 364.87 245.44 364.57C247.98 364.5 250.35 361.84 250.28 359.31L249.47 331.36C249.19 321.78 249.67 312.57 249.72 302.87L250 246.68C250 245.32 249.15 242.81 248.29 242.05C247.43 241.29 244.87 241.05 243.31 240.96L215 239.32C211.05 239.09 207.93 234.17 207.83 231.14C207.69 226.9 211.32 223.04 215.88 222.78L244.4 221.11C248.18 220.89 251.19 218.81 251.17 214.54L250.9 149.72L250.74 134.29L249.88 109.08C249.77 105.75 247.81 103.32 244.54 103.32L219.07 103.27C216.14 103.27 203.83 100.98 203.91 92.4399C203.94 88.8899 206.45 85.2499 210.52 84.2299C221.82 81.3899 233.93 80.5699 245.38 80.4999C253.65 80.4499 249.05 64.5099 249.03 57.6199L248.92 17.3899C248.91 13.4699 251.15 9.10988 253.94 8.08988C257.73 6.69988 263.37 5.96988 265.47 10.0699C268.55 16.0899 268.11 23.2199 268.41 29.9599L269.16 47.1499L271.21 78.5399C282.77 80.0199 298.89 79.4099 309.94 78.7799L327.02 77.7999L326.78 40.2999C326.75 35.4399 327.53 23.3399 333.16 23.1899C339.46 23.0299 341.15 40.8099 341.29 45.3799L342.08 71.1299C342.13 72.8599 344.62 77.0699 346.35 77.0399L371.14 76.5999C375.81 76.5199 377.71 73.0499 377.55 69.0599C377.24 61.3299 378.7 53.6799 377.95 46.1799C377.06 37.3799 378.43 27.7699 388.07 24.4999C394.08 22.4599 398.88 28.1799 399.6 34.1399L402.44 57.5799C402.99 62.0899 402.22 69.6399 405.39 72.7199C411.28 78.4599 419.52 74.5699 426.55 75.0199C434.29 75.5099 442.27 76.5599 449.33 71.6399L449.75 38.0599C449.83 31.3699 450.27 21.4099 455.92 20.9199C458.06 20.7399 461.75 24.4899 461.78 27.2199L462.32 65.5699C462.35 67.7299 463.84 72.6999 465.87 73.1999L492.85 71.9299L512.6 70.8399L525.39 70.1599C528.06 70.0199 530.73 68.5199 530.83 65.7499L531.32 52.9199L531.4 39.1399C531.45 30.2699 531.86 17.2199 533.78 8.62988C535.3 1.83988 544.57 -2.45012 550.51 1.60988C553.52 3.65988 557.78 8.75988 558.6 12.2699C566.06 44.3799 551.96 68.4899 567.53 66.8899L597.9 63.7799C608.66 62.6799 619.26 63.1299 630.03 65.1299C635.68 66.1799 642.11 72.9899 639.08 78.7799C637.33 82.1199 632.83 86.3499 629.65 88.1699C623.9 91.4599 617.4 89.8499 611.2 89.8899C597.71 89.9799 597.66 92.6899 582.9 91.2199C575.91 92.9499 569.99 94.0899 563.23 94.6299C558.42 95.0099 558.85 100.4 558.8 103.8L558.4 133.2L558.01 178.66C557.94 186.21 556.96 203.74 567.49 204.15C574.67 204.43 581.75 206.09 586.22 212.2C588.26 214.99 587.41 222.14 584.64 224.64C576.16 232.28 563.28 227.69 560.22 233.28C558.42 236.58 560.57 241.22 560.39 244.5C558.74 274.25 561.33 281.42 561.25 306.25L561.16 331.66L560.93 353.38C560.83 362.62 577.69 357.23 583.91 357.72C594.53 358.55 604.16 357.14 614.8 356.1C626.06 355.01 637.57 355.38 648.97 356.13C659.11 356.8 668.68 356.55 678.67 356.23C683.41 356.08 687.91 357 692.14 354.51C694.21 353.29 699.55 351.75 699.93 349.44C704.89 319.16 695.59 293.42 712.19 284.5C715.59 282.67 722.46 282.79 725.98 284.37C731.35 286.78 732.49 292.98 732.72 298.22L733.56 317.84C734.3 335.02 728.34 353.45 738.32 353.41L753.56 353.34C759.77 353.31 770.49 355.46 772.91 361.85C775.45 368.57 766.89 373.52 761.85 374.56C743.29 378.38 745.38 374.44 733.35 379.3C730.73 389.4 731.86 399.23 732.24 409.52L733.26 437.39L734.35 466.65L735.41 489.94L736.2 515.16C736.29 518.1 737 524.98 740.53 525.35L768.77 528.3C773.09 528.75 779.41 531.03 781.19 534.81C784.44 541.7 778.47 546.59 772.88 548.55C753.18 555.46 742.59 551.23 738.49 554.73C734.24 558.35 737.52 577.39 737.23 588.53C737.11 593.19 735.57 598.15 736.95 602.42C742.59 619.78 731.76 618.41 737.72 638.56C738.33 640.63 736.53 644.79 736.36 647.08C735.72 655.9 736.64 664.57 736.62 673.25C736.6 681.35 735.31 688.15 736.86 696.89L761.17 697.03C767.09 697.06 772.65 697.14 778.63 696.74C801.28 695.21 805.74 698.63 830.17 696.4C840.73 695.44 876.99 700.77 885.88 694.49C888.99 683.32 876.09 637.57 897.54 642.64C902.8 643.88 909.48 645.94 913.15 649.9C917.69 654.8 916.88 662.5 916.91 668.66L917.03 691.73C917.05 696.19 918.65 699.74 923.24 700.33L944.7 703.12C951.26 703.97 958.71 703.46 963.86 708.21C966.63 710.77 965.45 716.94 963.33 719.82C954.65 731.57 919.38 720.79 919.46 730.5L919.7 761.37L920.31 791.38C920.48 799.8 921.09 808.03 920.96 816.38L920.41 853.26C933.4 856.88 948.19 851.44 963.91 858.25C967.89 859.97 966.94 866.66 965.26 869.68C963.69 872.49 959.86 875.84 955.79 875.94C945.81 876.19 936.62 876.15 926.73 875.85C924.99 875.8 922.37 875.68 921.2 876.24C919.83 876.9 918.71 880.22 918.63 881.93L917.45 907.17C917.2 912.45 917.45 918.07 916.89 923.33C915.1 940.03 915.35 955.85 917.07 972.6C917.4 975.81 917.73 979.24 919.68 981.97C933.86 982.06 947.68 981.79 961.85 980.54C969.63 979.85 977.86 984.83 977.62 993.2C977.26 1005.52 977.91 1017.03 979.52 1029.23C980.05 1033.23 977.73 1038.42 975.46 1040.8C971.79 1044.64 967.02 1044.85 961.75 1044.67C935.92 1043.8 910.77 1046.24 885.19 1049.62C871.9 1051.37 869.86 1038.3 868.29 1030.41C865.57 1016.71 858.44 996.85 875.38 991.36C876.9 990.87 879.9 987.35 878.95 986.1C876.19 982.43 871.96 980.85 868.25 978.86L834.73 960.85L823.04 954.32C814.67 949.64 811.7 951.99 801.85 960.42L788.78 971.61L761.66 993.68C760.68 994.48 759.22 996.21 759.06 997.24C758.9 998.27 760.3 1000.46 761.2 1001.12L785.16 1018.77C788.62 1021.32 792.63 1027.01 792.79 1030.9C793.01 1036.15 786.32 1038.9 782.11 1037.96C774.09 1036.17 767.86 1032.09 760.9 1028.36C755.06 1025.23 748.81 1022.97 743.4 1019.12C741.48 1017.76 738.59 1015.5 736.81 1015.84C730.95 1016.96 708.43 1036.52 702.11 1041.99C697.17 1046.26 692.47 1050.94 685.39 1051.85C683.57 1052.08 680.69 1048.78 680.31 1047.03C679.88 1045.06 680.3 1040.33 681.67 1038.81L693.74 1025.44C699.14 1019.46 704.44 1014.4 710.54 1008.84C711.73 1007.75 713.39 1004.57 713.24 1003.06C713.06 1001.2 710.1 999.55 707.91 998.56C697.55 993.89 688.97 987.21 679.37 981.1C665.4 972.21 653.05 962.04 640.43 951.25C637.44 948.7 633.32 949.34 630.21 951.49L614.27 962.51L581.87 986.03C581.01 986.65 580.2 988.8 580.02 989.47C578.9 993.8 592.76 987.8 600.17 990.58C603.77 991.93 608.15 994.41 611.25 996.43C614.96 1002.61 618.88 1010.01 619.12 1017.19L619.98 1043.58C620.21 1050.5 616.79 1058.13 609.45 1059.23C592.14 1061.84 574.92 1060.38 557.31 1061.41C540.71 1062.38 524.8 1064.17 508.38 1066.09C504.97 1066.49 501.64 1068.37 498.13 1066.92C492.33 1064.53 485.67 1052.04 485.85 1041.76L486.31 1016.02C486.43 1009.06 493.14 1004.57 497.86 1000.27C515.28 984.4 532.91 1000.08 536.85 984.13C538.85 976.05 539.44 968.38 537.84 959.96C536.97 955.38 537.49 950.83 537.54 946.29L537.94 904.93C537.95 903.73 536.81 901.07 535.81 900.55C534.81 900.02 531.91 900.88 530.9 901.85L505.3 926.21C500.04 931.22 493.32 934.82 488.7 940.91C488.03 956.06 489.23 970.63 490.18 985.48C490.48 990.18 486.08 995.23 481.9 994.26C475.57 992.79 474.63 986.16 474.43 980.66L473.71 960.99C473.63 958.84 473.16 956.7 471.21 955.1L440.35 981.8C439.51 982.53 438.1 984.98 437.92 986.08C437.71 987.4 439.53 989.49 440.81 990.56L453.3 1001.01C458.99 1005.77 464.36 1010.61 468.04 1017.24C470.56 1021.78 468.24 1027.12 463.54 1029.01C447.49 1035.45 435.24 1018.45 415.75 1007.41C412.36 1005.49 408.46 1011.43 406.36 1013.51L386.91 1032.83C383.27 1036.44 378.73 1039.75 373.23 1041.26V1041.23ZM374.86 129.61C381.33 131.56 378.17 102.27 376.71 98.3599C369.04 97.2599 349.01 93.2199 344.47 98.3299C343.36 99.5699 338.73 118.74 351.36 122.54L374.86 129.61ZM327.33 109.58C330.4 107.81 329.98 99.1099 326.15 98.4299C323.03 97.8799 301.34 95.5399 298.49 100.2C305.3 104.18 321.86 112.73 327.33 109.58ZM499.12 101.71C499.9 101.43 500.9 100.16 501.22 99.6399C501.54 99.1199 499.06 97.5899 498.2 97.6099L469.52 97.9899C465.17 98.0499 463.83 104.84 464.57 107.63L465.68 111.8C465.92 112.7 469.11 112.51 470.05 112.17L499.13 101.71H499.12ZM451.28 113.89C451.67 109.86 452.07 103.43 449.02 100.79C440.07 97.3399 431.2 99.0899 422.09 99.3799C416.57 99.5499 409.28 97.2699 404.76 100.63C400.16 109.1 402.33 118.27 402.13 127.23C402.05 130.91 401.25 134.92 403.51 137.35C409.43 143.71 418.47 137.15 424.62 133.59C443.76 122.49 450.2 125.24 451.28 113.9V113.89ZM521.6 177.89C522.48 178.25 525.67 177.87 526.22 177.15C526.63 176.61 527.18 175.05 527.2 174.19L527.83 144.8C528.08 133.36 527.76 131.92 528.03 120.57L528.36 106.66C528.4 105.08 527.74 102.01 526.49 101.49C525.45 101.06 522.86 101.75 521.76 102.38L508 110.32L471.33 131.7C465.64 135.02 465.36 138.87 466.11 144.98L467.53 156.56L499.78 169.04L521.61 177.88L521.6 177.89ZM313.07 195.6C332.88 185.73 326.56 187.71 329.06 149.21C329.38 144.2 329.16 138.23 327.87 133.33L284.21 108.18C281.31 106.51 277.08 101.42 273.61 105.18C270.57 108.48 272.88 115.21 272.59 119.52C271 143.42 273.95 176.71 277.52 200.77C278.02 204.12 277.43 207.83 279.53 211.04C286.25 209.53 291.92 206.16 297.98 203.14L313.07 195.62V195.6ZM362.14 169L377.99 158.8C373.46 152.64 367.47 152.37 361.77 149.64C356.28 147.02 351.77 144.36 344.74 143.06L342.8 168.9C342.63 171.16 343.69 175.09 345.5 176.59C351.37 175.52 356.91 172.35 362.14 168.99V169ZM446.23 146.02C445.13 146.25 444.98 149.93 446.07 149.9L449.73 149.8C450.61 149.78 450.93 147.05 450.2 146.55C449.47 146.05 447.27 145.79 446.22 146.02H446.23ZM434.08 212.22C440.07 211.35 447.7 213.17 451.71 208.84C454.62 205.69 455.76 184.31 451.16 182.49C446.56 180.67 442.25 178.7 437.65 177.4L411.41 170.03C409.01 169.35 404.8 171.82 404.87 174.46L405.3 190.55L404.92 207.9C404.88 209.52 405.46 212.49 406.35 213.5C407.25 214.51 410.3 215.67 411.86 215.45L434.09 212.22H434.08ZM512.11 205.05L474.45 189.52C466.77 186.35 469.22 204.84 469.39 208.6C474.52 209.01 509.37 208.94 512.11 205.06V205.05ZM361.68 218.64C366.42 218.78 372.08 219.18 375.43 216.11C377.46 208.07 377.71 199.24 376.78 191.26C374.27 189.83 370.05 190.83 368.17 192.64C354.53 205.78 345.88 205.33 341.58 212.64C340.63 214.26 341.27 219.14 343.06 219.73C349.29 221.76 355.22 218.45 361.68 218.64ZM471.93 246.79C478.96 246.27 485.11 243.17 490.99 239.76C488.8 236.56 485.77 236.53 482.37 236.84L470.52 237.93C468.2 238.96 467.68 247.1 471.93 246.78V246.79ZM529.16 321.59C529.99 312.53 529.14 304.01 529.23 294.86L529.31 287.03C529.37 281.3 529.64 276.27 529.24 270.52L527.92 251.48C527.61 247.09 528.87 242.06 528.42 238.17C523.92 236.59 521.01 239.67 517.72 241.47L474.7 265.09C469.78 267.79 468.26 271.93 468.85 277.71L472.89 317.46C473.39 322.35 479.74 325.55 483.6 327.16L497.67 333C506.37 336.61 516.2 341.92 524.17 345.96C531.1 349.47 528 334.17 529.16 321.6V321.59ZM408.4 275.32C418.83 272.01 425.68 268.66 434 264.46C439.48 261.7 447.3 260.76 450.72 254.95C453.2 250.74 451.88 243.95 450.07 239.24L424.04 240.27C418.75 240.48 413.21 240.89 407.64 241.4C404.69 243.44 405.9 270.27 408.39 275.31L408.4 275.32ZM322.43 257.64C326.13 254.82 325.51 245.09 321.61 243.27C315.1 240.23 307.53 241.34 300.71 240.61C294.86 239.99 289.35 238.79 283.69 241.76C284.17 243.7 286.62 246.1 288.56 246.88L309.92 255.53C313.22 256.87 318.76 259.45 322.43 257.63V257.64ZM372.11 281.3C374.53 279.05 376.35 275.98 376.34 273.31L376.21 247.79C376.19 244.26 372.92 241.95 369.47 242L344.35 242.3C341.73 242.33 339.54 245.45 339.4 247.51L338.6 259.12C338.14 265.83 341.25 268.59 346.53 270.77L372.11 281.31V281.3ZM318.66 326.96C320.52 325.99 324.09 322.72 324.19 320.66C324.65 310.85 324.42 301.45 323.91 291.64C327.92 275.48 314.52 272.3 301.33 265.05C295.45 261.82 289.74 258.21 283.25 255.48C281.82 254.88 279.07 259.21 279.06 260.84L278.75 312.03L277.24 342.53C277.15 344.38 277.06 346.13 277.52 347.16C279.33 351.17 311.97 330.43 318.66 326.95V326.96ZM447.99 311.92C449.17 312.42 452.34 312.42 453.02 311.72C453.7 311.02 454.51 308.64 454.37 307.47L451.49 282.69C451.31 281.1 446.96 281.23 445.67 281.99L424.1 294.72C422.87 295.45 421 297.51 421.14 298.68C421.26 299.65 423.1 301.39 424.11 301.82L447.99 311.92ZM345.68 310.71L359.54 302.43C360.28 301.99 361.49 299.72 361.09 299.03C360.69 298.34 359.38 296.88 358.63 296.48L344.32 288.94C343.53 288.52 341.47 288.3 340.66 288.46C337.05 289.16 337.32 309.95 341.71 311.67C342.49 311.98 344.37 311.49 345.68 310.7V310.71ZM455.08 360.64C459.06 356.38 457.99 339.69 451.95 337.17L433.28 329.39L407.55 318.51C402.92 324.24 406.01 330.09 405.53 336.07C404.87 344.33 404.29 353.44 405.61 361.43C412.5 365.38 420.59 363.4 427.8 362.83L442.62 361.65C446.2 361.37 451.88 364.06 455.08 360.64ZM366.8 365.32C368.68 365.23 372.24 364.13 372.62 362.8L374.32 356.88C376.66 348.72 377.73 334.25 373.82 328.3C369.47 325.32 364.61 330.35 361.45 332.82C354.85 337.99 347 341.04 341.09 346.93C336.69 351.31 338.37 361.52 341.43 366.53L366.8 365.31V365.32ZM495.74 359.66C494.99 355.13 479.72 348.75 476.28 350.23C473.3 351.52 474.15 360.46 477.35 360.7C483.31 361.15 488.61 360.47 495.74 359.66ZM323.41 365.41C325.16 363.96 325.03 357.89 323.18 357.08C320.61 355.95 316.97 357.84 314.98 359.42L307.22 365.59C312.52 368.95 318.87 369.15 323.4 365.41H323.41ZM590.76 411.05L628.14 445.12C629.35 446.22 633.61 448.15 634.89 447.05C637.31 444.98 640.73 441.27 642.78 438.85L658.03 420.8C662.38 415.65 666.81 410.45 671.5 405.62L683.84 392.92C687.25 389.41 691.17 387.09 692.97 382.14C686.82 378.98 681.56 380.5 675.38 380.81L659.3 381.61L630.61 382.27L615.67 382.49C603.04 382.68 601.49 383.96 585.56 383.84C582.8 383.82 567.1 383.56 568.03 387.09C568.22 387.82 569.05 389.82 569.61 390.38L590.75 411.04L590.76 411.05ZM373.96 419.45L374.36 404.85C374.46 401.06 374.21 387.34 371.05 385.21C368.08 383.22 346.54 383.49 339.89 387.14C339.07 403.85 337.72 406.57 349.28 412.5L370.72 423.5C371.77 424.04 373.92 420.91 373.96 419.45ZM457.23 418.75C460.19 414.8 458.77 390.92 456.81 386.36C452.7 385.16 447.93 384.06 443.96 384.09L407.32 384.36C403.86 386.45 404.35 391.45 404.49 394.8L406.16 434.86C406.29 438.03 407.17 441.71 409.04 443.58C410.46 445 415.3 447.12 417.02 445.96L457.23 418.74V418.75ZM496.55 390.63C497.36 390 498.2 387.08 497.42 386.58C496.84 386.2 494.85 385.27 493.95 385.29L477.17 385.58C473.9 388.99 473.57 400.61 476.91 403.27C477.55 403.78 480.08 403.48 480.9 402.84L496.56 390.64L496.55 390.63ZM323.11 388.28C319.69 386.95 315.46 387.33 312.07 389.06C314.62 392.67 318.88 397.06 323.44 396.57C326.39 396.25 325.6 389.26 323.11 388.28ZM699.36 512.83C702.2 505.62 700.9 500.77 700.83 494.42L700.26 438.16L699.98 416.43C699.89 409.33 699.46 402.7 700.1 395.57C700.18 394.66 699.56 392.53 698.71 392.29C697.86 392.05 695.5 392.97 694.92 393.73L669.61 426.71C666.06 431.33 663.4 435.82 660.3 440.62C655.7 447.76 651.15 453.78 647.88 462.41L661.69 476.02L683.39 497.75L699.35 512.83H699.36ZM563.27 528.43C568.76 524.86 571.54 521.59 574.81 517.51L588.02 501.04L603.93 482.57C609.6 475.99 614.2 469.8 619.82 462.2L606.1 446.63C595.69 434.81 585.44 423.23 575.55 410.91C571.5 405.87 569.49 399.74 563.11 396.89C560.5 402.1 560.93 407.37 561.77 413.03C562.89 420.55 562.52 455.73 562.11 452.17L563.31 462.64C563.17 461.4 561.45 491.2 561.52 491.56C566.05 515.07 556.32 517.82 563.28 528.45L563.27 528.43ZM325.98 499.84L326.13 465.81C326.15 461.38 326.48 457.25 326.28 452.88C325.47 435.04 329.01 432.17 319.81 426.98L304.88 418.55L284.61 405.5C283.85 405.01 281.42 404.86 280.78 405.08C276.31 406.59 281.37 434.28 281.92 440.24C283.04 452.46 284.12 464.03 284.48 476.02C284.74 484.65 284.62 492.7 285.65 501.26C287.26 514.64 284.83 528.13 292.18 523.92L301.51 518.58L321.53 508.24C323.71 507.11 325.97 502.77 325.99 499.84H325.98ZM500.2 490.99L511.94 495.97L523.17 500.72C524.09 501.11 526.81 501.06 526.99 500.17C527.12 499.5 527.38 497.71 527.42 496.88L528.34 480.42L528.42 415.88C528.42 414.82 527.67 412.98 527.38 412.42C527.09 411.86 524.67 411.7 523.98 412.13L506.83 422.83L485.81 435.43C483.37 436.89 477.49 439.68 477.24 442.6C476.43 451.9 477.13 460.11 477.84 469.13L478.7 480.07C485.92 483.85 492.57 487.75 500.2 490.98V490.99ZM157.77 455.07L188.28 453.91L215.6 452.65L232.22 451.47L249.87 450.44C252.48 450.29 255.1 447.86 255.06 445.51C255.01 443.21 251.84 441.25 249.07 441.46L223.42 443.4L169.98 444.22C166.95 444.27 162.62 445.27 159.95 444.69C142.04 440.81 131.11 455.84 132.64 456.58C134.81 457.62 148.77 455.42 157.77 455.07ZM375.47 474.57C377.67 473.33 379.84 470.32 379.78 468.56C379.54 461.39 367.88 455.55 360.62 451.21C356.21 448.57 339.68 436.73 339.65 446.72L339.51 491.88C341.71 493.9 345.77 492.77 348 491.27C357.08 485.17 365.46 480.21 375.47 474.56V474.57ZM459.71 469.11C462.07 465.27 461.88 456.72 458.37 455.03C454.05 452.95 446.79 457.73 446.08 462.2C448.88 465.46 455.41 469.15 459.71 469.12V469.11ZM133.61 483.69C145.64 482.71 156.35 481.89 167.7 480.31C185.84 477.78 202.98 475.63 221.5 475.68C231.28 475.7 240.68 474.81 250.43 474.26C253.39 474.09 256.26 471.24 256.02 468.83C255.84 467.05 252.98 464.05 250.94 464.08L214.54 464.48L158.49 466.73C150.48 467.05 116.26 465.8 117.16 476.54C117.69 482.84 129.52 484.04 133.62 483.71L133.61 483.69ZM617.88 530.54L656.74 529.42C662.29 529.26 667.21 529.21 673.07 529.72C674.59 529.85 678.2 528.39 678.53 526.95C678.81 525.71 677.78 522.75 676.79 521.72L636.38 479.46C632.7 479.23 630.09 481 628.12 483.78L617.14 499.26C612.94 505.19 608.85 510.4 604.16 516.18L595.72 526.57C594.99 527.47 594.62 530.81 595.5 531.19C596.38 531.57 598.36 531.96 599.43 531.88L617.88 530.54ZM464.87 531.99C468.05 514.47 461.56 508.77 447.13 502.61C438.89 499.09 431.85 494.64 424.22 490.01L415.61 484.78C414.8 484.29 412.44 484.08 411.69 484.52C409.38 485.9 408.67 495.73 408.81 497.8C409.44 507.29 409.75 515.93 409.28 525.39C409.02 530.61 411.93 534.56 417.46 534.56H454.21C457.58 534.55 461.2 533.34 464.88 531.98L464.87 531.99ZM165.53 507.63C177.6 506.79 188.83 505.34 200.36 505.15L236.4 504.56C240.29 504.5 245.05 503.33 248.93 503.54C253.73 503.79 256.77 501.47 256.97 496.46C257.04 494.84 256.54 491.86 255.8 490.67C255.06 489.48 251.68 488.61 250.2 488.79C240.54 489.96 232.06 488.85 222.58 489.22L200.78 490.07L181.31 491.23L165.31 492.57L140.35 494.94C138.98 495.07 136.66 495.93 135.97 496.87C134.11 499.44 136.89 506.44 139.67 508.35C141.3 509.47 145.41 509.03 147.6 508.88L165.53 507.63ZM381.94 531.2C382.03 523.83 382.95 508.09 379.47 504.01C378.72 503.13 375.73 503.75 374.65 504.34L364.84 509.63L344.36 520.94C340.9 522.85 338.7 526.6 339.96 529.97C341.24 533.4 344.69 534.53 348.42 534.09C362.86 532.36 381.87 537.16 381.94 531.2ZM180.36 537.32L198.58 535.68C213.07 534.38 226.38 532.88 241.11 533.44L252.38 528.69C255.5 527.37 257.43 525.89 257.08 522.49C256.89 520.66 253.79 518.09 251.39 518.32L214.56 521.79C204.77 522.71 194.74 521.19 185.07 522.46C178.35 523.35 172.11 524.05 165.45 524.54L130.53 527.09C127.3 527.33 124.19 529.75 123.25 532.13C122.5 534.04 122.94 539.51 125 540.07C137.55 543.5 166.89 538.52 180.36 537.31V537.32ZM496.97 533.02C496.16 530.94 494.93 528.67 493.98 528.25L482.04 522.99C479.44 525.81 479.54 531.89 483.32 532.89C487.41 533.97 491.79 533.49 496.97 533.01V533.02ZM151.77 616.18C155.6 619.54 159.64 622.41 163.53 624.01C170.82 620.37 174.17 613.49 180.17 608.94L191.78 600.14C200.94 593.2 208.5 585.89 216.99 578.02L237.39 559.12C238.27 558.3 239.12 555.72 238.7 554.88C236.47 550.45 213.92 554.67 208.76 557.09C194.8 558.33 181.56 560.04 167.73 560.31L152.71 560.61L112.6 561.14C108.88 561.19 103.71 563.04 101.24 565.78C102.44 570.33 106.52 573.13 109.77 576.32C123.61 589.88 136.86 603.11 151.77 616.18ZM324.55 567.05C326.69 566.46 325.95 559.14 323.87 558.26C320.4 556.79 314.62 556.95 310.91 558.61C313.18 563.35 318.82 568.64 324.55 567.04V567.05ZM381.26 577.19L380.37 559.74C375.49 558.37 340.57 555.28 339.89 559.77C339.06 567.15 339.21 573.82 339.76 581.2L374.94 605.69C375.83 606.31 378.51 606.65 379.55 606.37C383.83 605.22 381.54 582.61 381.26 577.18V577.19ZM628.79 606.39C630.81 607.99 634.95 610.39 637.49 611.01C641.28 611.93 651.99 593.66 659.79 586.52L686.24 562.31C687 561.62 687.73 559.87 687.89 559.28C688.05 558.69 685.94 557.43 685.14 557.45L664.05 558.07L651.15 558.27L617.58 559.52L604.27 560.26L580.38 561C578.8 561.05 575.17 562.4 575.56 563.61C575.89 564.62 577.26 566.8 578.2 567.54L599.29 584.01L612.74 593.66L628.79 606.39ZM457.21 589.71C470.8 583.34 469.43 579.22 468.58 565.88C468.31 561.71 464.9 558.83 460.8 559.06C452.52 559.51 444.53 559.67 436.24 559.19C431.76 558.93 413.17 558.08 410.87 560.85C409.84 562.08 409.34 565.84 409.36 567.65L409.69 591.28C409.8 599.23 409.05 606.48 409.95 614.78C410.15 616.58 415.63 615.77 417.06 614.47C421.98 609.99 429.06 607.8 434.3 604.21C441.82 599.05 448.25 593.93 457.21 589.72V589.71ZM485.73 572.85L501.32 564.77C502.04 564.4 503.84 562.08 503.25 561.55C502.81 561.16 500.98 560.07 500.38 560.12L486.3 561.31C481.86 561.68 481.44 570.51 485.73 572.85ZM572.28 688.82C581.3 676.51 591.5 666.54 601.35 655.7C609.11 647.15 616.52 638.19 623.29 629.39C624.57 627.73 622.47 623.37 621.21 622.03L611.77 611.95C600.02 599.41 587.02 588.79 575.23 576.29C571.95 572.81 569.54 570.47 564.56 567.05L562.44 594.86L563.57 610.12C564.2 618.69 562.62 626.38 564.62 634.78C566.52 642.74 563.82 651.37 564.33 659.5C564.93 669.27 565.43 677.85 564.81 687.56C564.7 689.23 566.58 693.1 568.06 692.9C569.33 692.72 570.96 690.63 572.29 688.83L572.28 688.82ZM248.01 691.27L261.1 701.25C261.91 701.86 264.74 702.55 265.34 701.85C267.18 699.71 266.94 691.78 266.72 688.29L264.75 657.16L263.41 636.74L260.48 604.52L259.38 588.49C258.93 581.94 259.13 576.58 256.55 569.96C251.33 572.38 247.73 575.09 243.95 578.88L200.55 622.47L186.33 635.81C185.1 636.96 183.2 641.28 184.47 642.44C190.99 648.37 196.47 653.37 203.29 658.34L216.61 668.06L234.16 681.34C238.66 684.74 243.02 687.43 248.03 691.25L248.01 691.27ZM703.96 665.08C708.37 658.8 705.31 654.41 705.27 649.08L704.74 589.67L704.07 575.81C704.02 574.77 703.02 572.85 702.32 572.24C699.53 569.85 683.01 590.78 680.72 593.62L659.08 620.37C657.85 621.89 655.68 624.93 656.1 626.54C657.28 631 670.11 640.19 674.44 643.37L703.96 665.07V665.08ZM318.36 678.9C320.81 676.99 324.96 673.22 325.21 670.56C326.15 660.58 325.28 651.6 325.46 642.01C325.7 628.9 325.97 616.6 325.37 603.29C325.19 599.43 318.8 595.98 315.96 593.9L295.49 578.86C287.54 573.02 290.09 592.48 290.57 597.23L293.35 624.89L295.33 645.42L297.07 669.94C297.32 673.52 296.89 690.44 301.52 690.48C302.38 690.48 304.27 689.91 305.08 689.28L318.36 678.91V678.9ZM526.43 689.41C527.64 689.99 529.88 690.11 530.68 689.44C531.48 688.77 532.3 685.82 532.05 684.63C529.26 671.29 534.13 673.09 531.49 649.57C530.61 641.76 530.06 634.68 530.02 627.1L529.76 583.68C529.75 581.97 528.87 579.11 527.63 578.57C526.39 578.03 523.23 578.86 522.21 579.75C516.86 584.44 511.3 587.3 505.21 590.52L488.92 599.13C485.92 600.72 483.11 603.14 483.02 606.95L482.27 637.67C482.12 643.96 482.08 649.52 482.28 656.17C482.4 660 480.09 667.38 485.28 669.86L526.41 689.42L526.43 689.41ZM108.19 689.08L126.37 668.61L136.65 656.08L143.75 645.98C144.67 644.67 145.78 643.03 145.93 641.94C146.05 641.06 144.63 639.11 143.76 638.36L119.96 617.83L80.5201 583.31C76.8201 584.23 76.1301 588.58 76.2701 591.87L77.3201 617.18L78.5601 648.14L79.9001 666.07L80.7201 710.58C80.7401 711.47 82.5401 713.84 83.3701 713.54C83.9901 713.32 85.7201 712.49 86.4101 711.78L108.21 689.08H108.19ZM464.69 658.77C466.16 657.01 467.72 654.84 467.73 653.68L468.14 617.04C468.15 615.73 467.2 612.68 466.08 612.6C464.96 612.52 462.48 613.3 461.54 614.02C455.34 618.76 449.52 622.14 442.7 625.56C440.62 626.6 423.18 635.35 430.17 639.52C440.15 645.48 452.35 652.37 464.68 658.77H464.69ZM350.81 657.03L377.05 637.74C371.38 633.11 366.49 629.2 361.02 625.4L344.89 614.2C344.1 613.65 341.32 613.19 340.49 613.66C339.66 614.13 338.55 616.43 338.55 617.61L338.25 657.24C338.25 658.43 339.6 660.94 340.61 661.39C343.25 662.56 347.98 659.13 350.82 657.04L350.81 657.03ZM691.52 698.68C692.66 698.71 695.61 697.7 695.97 696.62C696.33 695.54 694.96 693.37 694.06 692.52L682.79 681.82C670.11 669.78 656.59 659.64 644.67 646.55C642.84 644.54 639.01 644.71 637.46 646.62L626.01 660.78C619.03 669.41 611.47 677.36 603.89 685.45C598.93 690.74 592.79 694.17 590.95 702.86C599.41 703.47 607.43 702.23 615.75 702.27L637.35 702.39C643.86 702.43 649.41 701.22 655.73 701.25C674.72 701.34 673.36 698.16 691.51 698.68H691.52ZM180.77 720.23L201.92 718.85L215.82 717.63C225.24 716.8 238.91 717.57 242.06 715.24C242.58 714.86 241.25 712.69 240.72 712.31L189.79 675.38L171.12 660.9C167.05 657.74 163.98 660.54 161.29 663.66L147.56 679.61C141.84 686.25 136.92 692.39 131.28 699.15L115.8 717.7C115.22 718.4 114.43 720.08 114.1 720.76C113.78 721.45 115.57 723.81 116.54 723.77L135.34 723.05C150.79 722.46 164.79 721.27 180.76 720.23H180.77ZM467.92 700.7C468.08 691.44 464.17 689.15 457.82 685.45L418.96 662.85C417.02 661.72 411.1 658.88 411.02 662.05L410.26 690.33C410.09 696.76 408.72 703.68 412.34 708.92L463.17 708.58C467.28 708.55 467.87 703.67 467.92 700.69V700.7ZM375.37 710.74C386.22 709.99 379.84 697.99 380.8 689.4C381.77 680.75 382.86 672.81 380.62 664.21C371.57 666.51 366.34 672.15 359.95 677.6C353.92 682.75 345.46 684.87 340.29 691.59C337.03 695.82 337.27 706.35 340.08 710.35C346.25 715.15 354.74 712.15 361.37 711.7L375.36 710.74H375.37ZM491.85 706.54C492.53 705.24 489.64 702.31 488.36 701.6C487.06 700.88 483.82 701.34 483.3 703.5C482.91 705.12 484.73 707.45 486.11 707.8C487.26 708.09 491.3 707.59 491.85 706.54ZM317.26 711.76C317.05 713.9 322.31 713.8 324.14 712.43C325.81 711.17 326.52 706.19 323.6 705.82C321.22 705.52 317.53 709.07 317.26 711.76ZM832.84 758.1L844.95 747.66C850.2 743.13 855.18 739.11 861 735.15C863.7 733.31 865.52 731.16 866.56 727.79C858.27 726.05 851.73 725.96 843.76 725.66C823.44 724.92 837.68 727.12 820.82 726.5L796.72 725.61C791.89 725.43 786.04 726.39 780.94 726.51L768.05 726.82L748.62 727.1C747.57 727.12 744.92 727.78 745.14 728.67C745.3 729.34 746.19 731.2 746.86 731.7L765.65 745.81L803.57 773.14C807.5 775.98 810.52 777.35 814.78 773.67L832.86 758.08L832.84 758.1ZM631.64 773.37C637.18 777.48 642.91 776.96 646.72 771.9C649.49 768.22 653.69 765.87 657.44 762.94C665.81 756.4 673.67 749.59 682.78 743.88C688.87 740.06 694.45 737.23 696.84 729.35C694.28 728.69 690.88 728.03 688.09 728.17L670.78 729.04L654.75 730.19L621.37 731.3L583.58 731.84C580.45 731.88 577.57 732.89 574.76 735.58L610.98 759.32C617.89 763.85 624.72 768.23 631.64 773.37ZM463.25 762.89C467.22 760.54 469.17 757.02 469.08 752.55L468.84 740.75C468.78 737.83 466.36 734.35 462.92 734.32L428.86 733.98C423.68 736.16 412.2 734.29 411.23 736.57C408.73 742.4 409.45 769.5 411.37 778.02L431.09 788.56C453.15 780.53 449.29 771.15 463.25 762.89ZM882.43 827.88C883.74 828.78 886.91 829.65 887.47 828.69C887.92 827.92 888.41 825.75 888.37 824.64L887.72 806.03L886.83 765.21L885.82 735.98C885.78 734.82 882.18 733.43 881.25 734.01C880.32 734.59 878.43 735.89 877.59 736.86C873.68 741.36 869.33 744.61 864.95 748.54L827.13 782.48C825.06 784.34 825.55 788.65 827.87 790.26L882.42 827.87L882.43 827.88ZM382.16 753.07L381.74 739.79C381.65 736.78 378.32 734.59 375.09 734.81L348.18 736.69C347.17 736.76 344.56 738.53 345.07 739.23C345.45 739.76 346.63 741.11 347.43 741.51C356.83 746.19 367.42 751.98 376.95 757.41C377.76 757.87 379.93 757.89 380.51 757.25C381.09 756.61 382.19 754.13 382.16 753.06V753.07ZM495.34 736.24C491.51 734.71 487.53 734.37 484.87 736.15C482.83 737.52 483.55 744.37 485.9 744.14C490.49 743.69 493.6 740.17 495.34 736.23V736.24ZM140.84 777.64C145.9 781.01 168.12 796.16 171.45 794.47C177.21 791.56 181.98 787.94 186.53 784L210.49 763.23C219.15 755.72 226.92 748.34 236.57 742.15C247.02 733.65 207.37 737.77 203.15 737.88L185.94 738.31C151.78 739.16 130.64 742.62 95.4801 742.27C94.3801 742.26 91.6601 743.81 91.8301 744.84C91.9701 745.67 92.8701 748.08 93.7401 748.69C109.33 759.63 123.5 766.09 140.85 777.65L140.84 777.64ZM712.47 817.29L713.29 797.12L713.61 779.91V755.75C713.63 750.51 713.65 741.21 709.97 738.53C709.43 738.14 707.46 739.25 707.08 739.83C700.21 750.17 690.3 759.12 680.9 766.96C674.88 771.98 671.41 778.89 665.91 784.31C664.23 785.96 661.99 789.99 663.09 791.87C666.45 797.61 671.94 799.34 676.7 802.81C687.65 810.79 697.94 818.55 709.38 825.8C711.65 823.64 712.33 820.74 712.47 817.29ZM751.15 831.44L760.77 822.79L791.01 794.72C792.09 793.71 793.5 791.05 793.36 789.76C793.25 788.69 791.75 787.04 790.74 786.11L778.73 775.05C766.67 763.94 755.43 752.93 743.95 741.09C742.55 739.65 739.46 738.14 737.42 739.37C737.06 745.94 737.51 753.6 737.9 760.5C738.06 763.3 737.53 766.78 737.44 769.63L736.66 795.35L735.97 836.2C735.95 837.1 737.07 839.4 737.94 839.61C740.76 840.28 748.18 834.09 751.13 831.44H751.15ZM589.19 825.08L599.73 814.43C605.12 808.98 609.71 804.22 616.46 800.03C618.04 799.05 620.19 795.91 620.34 794.18C620.48 792.45 618.68 789.07 617.25 787.8L604.99 776.91L583.28 757.32C578.82 753.29 575.03 748.38 568.71 747.08C560.87 759.93 569.51 757.03 565 777.45C563.6 783.79 564.93 790.61 565 797.14L565.28 826.93C565.33 832.32 564.83 837 568.77 841.91C576.14 836.35 582.88 831.48 589.2 825.09L589.19 825.08ZM306.33 866.69L331.39 851.08C331.62 845.39 331.23 840.19 330.82 834.94L327.43 790.95C325.57 766.79 330.89 763.1 316.56 757.73C312.51 756.21 307.29 752.3 303.3 750.19C297.36 753.59 300.3 759.19 300.36 764.25L300.89 809.67L301.04 820.12L301.22 832.81C301.31 839.03 301.2 844.83 301.01 851.18L300.64 863.55C300.61 864.5 301.75 866.42 302.48 866.95C303.03 867.34 305.51 867.21 306.34 866.7L306.33 866.69ZM269.48 858.74L269.6 839.5L270.2 817.69C270.36 811.85 269.11 805.49 269.06 799.54L268.91 782.07L268.31 755.75C268.29 754.8 267.54 752.75 267.13 751.92C266.72 751.09 263.42 750.88 262.6 751.45L227.67 775.58L192.12 802.1C191.12 802.85 189.41 805.5 189.7 806.68C189.99 807.86 191.81 809.88 192.99 810.57C217.53 824.86 238.36 837.65 260.21 855.9C262.97 858.2 265.71 859.46 269.48 858.74ZM526.46 839.31C527.85 840.64 534.03 841.74 534 839.86L533.84 830.46L533.6 816.64L532.69 792.33C533.09 788.92 534.37 755.4 528.77 757.34C521.13 759.99 515.17 765.62 508.48 769.96C499.94 775.49 492.03 780.44 484.09 787.24C481.64 789.34 482.24 796.27 482.45 799.31L483.48 814C483.82 818.85 490.52 821.56 494.28 823.48L512.34 832.72C516.54 834.87 522.84 835.84 526.46 839.31ZM128.85 834.69L144.16 819.48L154.52 809.74C155.29 809.02 153.35 805.57 152.37 804.92L119.1 782.8L102.34 771.56L87.2301 762.03C86.2401 761.4 83.4201 761.26 82.7401 761.91C82.2301 762.4 81.5601 764.25 81.5801 764.99L82.1801 784.05L83.0601 814.32L84.0701 829.23L84.8301 841.61L86.2901 851.99C87.2101 858.53 85.8001 864.11 89.3101 870.21C98.1701 863.85 104.44 857.05 111.86 850.26L128.86 834.68L128.85 834.69ZM376.21 825.45C379.38 823.52 383.71 821.35 384 817.77C384.61 810.45 384.16 803.33 382.46 796.56C381.05 790.95 375.29 789.61 370.9 787.33C357.41 780.31 349.68 771.03 339.35 771.92C338.13 778.92 338.41 785.62 338.93 792.66L340.68 816.66L342.26 838.38C342.34 839.54 343.2 841.83 344.04 842.52C344.88 843.21 347.82 842.77 348.76 842.21L376.22 825.46L376.21 825.45ZM463.5 800.98C462.44 801.74 461.96 805.04 462.58 806.18C463.21 807.32 466.66 807.63 467.36 806.53C468.06 805.43 468.46 803.24 468.23 801.96C468.04 800.89 464.4 800.33 463.5 800.98ZM846.74 851.94L864.55 850.94C878.85 850.13 850.52 832.11 845.61 828.47L833.79 819.71L813.38 803.53C810.73 801.43 807.34 802.13 805.17 804.22L788.69 820.05C778.25 830.08 767.29 840.02 756.37 849.35C755.37 850.2 753.76 852.98 754.56 853.7C755.2 854.28 757.53 855.45 758.62 855.39L796.84 853.22L846.74 851.95V851.94ZM648.48 858.31L688.09 857.99C691.35 857.96 694.95 856.78 698.25 855.48C695.16 848.88 689.91 845.85 684.28 841.91C676.56 836.52 668.96 830.67 661.93 824.36C656.41 819.4 651.29 814.28 644.99 810.51C640.79 807.99 638.27 810.95 635.89 813.75C631.61 818.8 627.52 823.88 623.02 828.53L612.34 839.55L600.96 852.4C599.01 854.6 596.58 856.96 597.58 860C604.12 860.36 611.02 860.87 617.21 860.39L635.2 859L648.45 858.32L648.48 858.31ZM246.45 879.24C249.87 879.17 253.59 877.91 256.38 876.48C255.11 873.88 252.86 871.21 250.72 869.81L212.7 844.94L177.37 821.6C175.18 820.15 171.01 819.16 168.69 821.05C148.63 837.32 130.08 853.82 111.59 871.81C110.7 872.67 109.91 875.36 110.61 876.18C111.17 876.84 113.38 878.36 114.56 878.37L139.96 878.48C150.32 878.53 159.78 878.48 169.92 879.81C180.08 881.14 189.52 880.48 199.66 880.26L246.42 879.25L246.45 879.24ZM471.21 857.98L469.33 842.98L446.89 830.75C442.9 828.58 439.13 825.64 435.21 823.06C429.41 819.23 416.7 829.92 411.71 833.89C411.21 845.62 411.65 856.03 413.59 867.35C425.67 869.38 435.96 867.65 447.44 866.28C457.54 865.07 472.52 868.52 471.2 857.97L471.21 857.98ZM387.84 866.74C389.55 860.42 388.31 854.13 385.27 848.64C381.33 848.12 377.46 850.34 373.99 852.27C368.99 855.05 350.37 864.6 349.86 868.75C349.43 872.26 386.78 870.67 387.85 866.74H387.84ZM501.44 860.31L486.72 851.89C483.58 856.01 483.89 862.21 488.57 863.62C492.61 864.83 497.87 863.41 501.44 860.32V860.31ZM771.96 902.16L789.51 910.78L804.77 918.7C810.38 921.61 816.25 921.08 820.49 915.86C823.31 912.39 827.06 909.84 830.91 906.84C842.97 897.42 855.43 888.36 868.63 880.35C869.44 879.86 870.45 877.65 870.47 876.72C870.49 875.79 867.72 874.75 866.74 874.86C846.23 877.18 826.67 877.82 806.32 879.08L792.28 879.95L775.03 881.26C759.98 882.4 752.06 880.34 741.33 884.96C743.48 887.94 745.37 889.75 747.71 890.84L771.96 902.16ZM895.44 965.34C896.13 965.7 898.42 965.72 898.94 965.27C899.46 964.82 900.28 962.75 900.17 961.79L897.43 937.32L892.34 881.85C892.21 880.46 891.44 878.59 890.51 878.31C889.82 878.1 887.34 878.86 886.76 879.47L846.4 921.9C842.88 925.61 837.79 927.38 837.09 932.95C836.8 935.24 841.37 938.44 843.73 939.31C854.03 943.13 862.58 948.13 872.11 953.12L895.43 965.34H895.44ZM626.03 916.94C630.09 919.3 633.97 923.27 638.52 923.42L670.65 906.22L686.02 898.76C692.45 895.64 698.5 892.56 704.81 887.8C698.5 882.75 692.23 885.04 685.61 885.04H668.49C657.46 885.04 647.1 886.22 636.21 886.9L620.58 887.87C611.77 888.42 602.96 889.55 594.13 889.78C588.87 889.92 583.7 887.03 578.69 892.03C579.73 893.76 582.44 895.71 584.94 896.76C599.12 902.69 612.5 909.05 626.04 916.94H626.03ZM519.78 894.79C522.5 890.12 490.46 890.49 487.66 894.2C487.36 899.42 487.31 907.42 487.53 912.42C487.91 921.11 517.96 896.11 519.78 894.79ZM455.92 944.47C461.94 939.35 467.42 934.16 473.39 928.43C475.92 925.53 475.09 897.81 472.31 893.74C461.34 893.67 451.85 893.34 441.49 893.89L422.03 894.93C419.3 895.08 415.79 895.98 413.74 898.01L416.47 952.96C416.81 959.87 416.01 965.72 419.66 972.38C426.75 968.99 433.16 965.17 437.96 959.81C443.4 953.74 449.8 949.66 455.92 944.45V944.47ZM367.89 935.51C374.72 940.56 379.31 945.67 388.39 948.09L388.73 898.37C385.32 894.56 379.5 894.82 374.93 895.5C364.6 897.04 349.1 895.85 348.12 899.64C346.35 906.49 344.71 916.18 348.32 922.28C352.44 929.25 361.66 930.9 367.9 935.51H367.89ZM710.51 970.22L725.16 978.2C726.78 970.59 725.55 965.73 724.5 958.98L721.82 941.72C720.37 932.38 719.1 923.23 718.15 913.8C717.46 906.95 717.15 901.07 714.19 894.2C702.89 899.57 700.83 905.7 688.06 914.13L661.72 931.53C660.62 932.26 658.71 935.07 659.08 936.32C660.44 940.83 691.39 959.49 697.67 963.01L710.51 970.21V970.22ZM775.98 949.61L787.62 940.32C789.16 939.09 791.35 936.89 791.37 935.35C791.38 934.03 789.56 931.49 788.49 930.63L772.61 917.89L758.34 906.79C752.87 902.54 746.58 898.36 740.81 894.47C739.46 895.01 737.36 898.01 737.41 899.32C738.47 924.51 738.73 948.51 738.49 973.81C738.48 975.22 739.09 978.04 740.19 978.2C741.29 978.36 743.76 977.43 744.65 976.73L760.26 964.55L775.97 949.6L775.98 949.61ZM332.62 913.59C339.17 910.73 338.32 901.9 334.03 899.2C326.96 894.76 309.63 899.25 316.97 903.82L332.62 913.58V913.59ZM598.11 951.37L614.6 940.46C615.86 939.63 617.97 936.8 617.94 935.34C617.92 934.09 616.02 932.25 614.79 931.27L595.59 916.03L570.03 896.18C562.79 918.09 570.23 910.73 568.1 939.41C567.46 948.05 567.78 955.98 565.15 964.66C564.64 966.33 566.44 971.2 568.09 970.16L598.12 951.37H598.11ZM210.53 908.31C212.95 907.01 214.84 904.07 214.69 901.75C197.53 898.74 187.39 900.21 171.83 898.28L124.03 897.93C123.12 897.93 120.85 898.97 120.68 899.78C120.51 900.59 121.71 902.74 122.41 903.2L137.62 913.28L161.82 929.25C165.47 931.66 168.83 933.44 172.9 930.74C185.13 922.61 197.22 915.47 210.54 908.31H210.53ZM267.64 991.04C269.85 992.06 272.17 988.95 272.14 987.58L271.33 951.94C271 937.5 269.28 924.1 269.56 909.42C269.58 908.42 268.97 906.26 268.5 905.47C268.03 904.68 265.22 904.8 264.26 905.26L249.44 912.45L192.72 942.55C191.63 943.13 190.12 945.55 190.34 946.67C190.52 947.56 191.76 949.52 193.02 950.31C216.35 964.88 241.65 979.07 267.62 991.04H267.64ZM146.41 946.12C148.33 944.95 148.5 941.57 146.93 940.51C129.01 928.37 111.44 917.17 91.6901 906.35C87.1401 914.63 88.7601 922.86 89.2701 931.29C89.7401 939.05 89.4301 946.7 90.9301 954.13C97.8001 988.23 72.4301 991.16 146.41 946.13V946.12ZM896.01 1029.23L912.67 1028.46L932.02 1027.7C941.1 1027.35 948.81 1027.21 957.99 1026.18C959.39 1020.56 962.01 1002.18 953.99 1002.56L938.98 1003.27C932.01 1003.6 924.56 1003.08 917.93 1004.45C901.69 1007.8 901.21 1002.42 882.28 1007.28C879.95 1011.86 884.14 1025.79 887.42 1028.24C889.24 1029.6 893.01 1029.36 896.01 1029.23ZM121.81 1049.45C124.33 1049.9 129.14 1049.42 130.48 1047.77C131.68 1046.3 133.48 1042.1 133.06 1040.22L128.91 1021.78C128.18 1018.56 128.05 1015.32 123.91 1015.25L90.7601 1014.69L79.4001 1014.75L45.5401 1015.43C43.7501 1015.47 40.3701 1018.21 39.5801 1019.82C38.7501 1021.5 40.1801 1024.9 40.8701 1027.04L46.7901 1045.3C48.4101 1050.31 51.9101 1052.84 57.7601 1051.91C70.3301 1049.92 110.03 1047.32 121.81 1049.44V1049.45ZM560.92 1042.98L589.47 1040.66C593.86 1040.3 596.33 1038.6 597.15 1034.32L599.4 1022.62C599.76 1020.74 598.95 1016.36 597.18 1015.9C595.41 1015.44 592.34 1015.62 590.21 1015.6L570.01 1015.45C561.74 1015.39 553.96 1015.37 545.7 1015.65L519.42 1016.54C514.44 1016.71 509.67 1019.06 504.35 1021.04L508.24 1042.56C508.82 1045.79 512.83 1047.27 515.89 1046.98L543.19 1044.37L560.91 1042.99L560.92 1042.98ZM296.87 1055.81C305.08 1056.5 323.75 1059.16 323.67 1050.69C323.58 1042.19 323.71 1034.96 323 1026.61C322.69 1022.99 315.4 1021.9 312.17 1021.18C305.85 1019.78 297.79 1020.19 290.21 1020.4L260.58 1021.19L244.57 1023.44C234.6 1024.84 237.74 1043.91 239.88 1047.82C243.53 1054.48 249.91 1051.87 255.49 1052.34L296.88 1055.81H296.87Z" fill="black"/>
</g>
<defs>
<clipPath id="clip0_177_904">
<rect width="979.6" height="1071.85" fill="white"/>
</clipPath>
</defs>
</svg>
