<svg xmlns="http://www.w3.org/2000/svg" viewBox="0 0 26 18"><path d="M20.4 2.4c.6 1.3.6 1.9.6 2.5v4c1-.1 1.7 0 2.2.3l1.3.8a2.5 2.5 0 0 1 1 3.4 4.5 4.5 0 0 1-3.9 2.8c-1.9.2-2.4-.4-3-1-.2-.2-.3-.6-.3-.9 0-1 0-2 .2-3v-1l.1-1.1v-3c0-1 .2-2 .4-2.9.3-.5.5-.7.7-.8.3-.2.6-.2.8 0zm2 8.2c-.5-.3-1.1-.5-2.3 1.3 0 .8 0 1.6.8 3a6 6 0 0 0 1.2-.3c.4 0 .8-.2 1.1-.5l.7-1c.2-.5.2-.8.2-1.1-.1-.3-.3-.5-.7-.8zM11.9 6.4c.2.1.4.4.6.8a18 18 0 0 1 1 3.4l.4 1.3c.2.5.5.9 1 1.1.6-.2.7-.3.7-.4l.7-.8c1.5 1.6 1 2.6.4 3.4a2.3 2.3 0 0 1-2.6.4c-.6-.3-1-.7-1.5-1.2l-1.4 1a3 3 0 0 1-2.9.1c-1-.5-1.8-1.5-1.9-2.8v-1a6 6 0 0 1 3.4-5c.4-.3.7-.5 1.1-.5.5 0 .8 0 1 .2m-1.6 1.2-1 1a4.7 4.7 0 0 0-1 4.6 1.2 1.2 0 0 0 1.2.8 2 2 0 0 0 1.7-1.5c.3-.7.4-1.5.4-2.3v-.8c-.2-.6-.3-1.1-1.4-1.8zM3.093 4.314l.57-2.554.372-.665.775.282c.376.241.335.639.303.937l-.177 1.691-.393.864-.45 4.276-.533 1.251-.8 4.743-.424 1.162-.063.596c-.13.288-.02.2-.35.466-.34.367-1.016.095-1.183-.225-.189-.12.073-.696.094-.895l.345-3.282.659-2.444.356-1.471c.041-.398.497-1.858.408-1.968l.303-2.884z"/></svg>