<svg width="929" height="973" viewBox="0 0 929 973" fill="none" xmlns="http://www.w3.org/2000/svg">
<g clip-path="url(#clip0_177_1226)">
<path d="M928.22 789.71L926.7 786.7C924.89 783.1 927.74 784.89 924.64 776.76C922.63 771.51 919.85 767.39 915.99 763.5L910.17 757.63C907.58 755.02 904.21 754.53 900.88 753.31C897.73 752.15 895.08 750.99 891.47 751.18C885.5 751.5 884.39 753.87 883.62 751.84C880.9 744.68 876.93 737.58 871.3 732.73C870.67 732.19 869.76 731.19 869.82 730.56C869.89 729.92 870.55 728.53 870.98 728.04C873.64 725.04 870.55 721.41 870.23 718.74C869.59 713.37 869.28 709.11 866.25 704.54C863.73 700.73 862.1 694.54 857.33 692.48C854.07 691.08 850.49 687.87 847.45 687.06L832.14 683.02L819.02 682.33C815.96 679.69 813.52 675.45 810.02 673.32C807.68 671.9 805.99 670.93 806.51 667.73C807.26 663.06 805.38 658.32 801.48 655.98C800.88 654.5 800.15 651.67 799.13 650.7L792.05 644.02C790.36 642.43 786.47 639.56 784.3 638.74C780.83 637.68 777.38 636.57 773.95 635.29C769.82 633.75 764.31 634.12 759.69 633.05C757.83 633.44 755.45 634.03 753.7 634.31L746.54 635.45C744.17 635.82 737.83 630.43 733.19 627.76C729.27 625.5 724.23 625.65 720.05 624.41C716.62 623.4 714.43 619.24 711.62 617.57C702.94 612.4 706.76 612.74 701.09 610.36L690.03 605.73L682.72 602.3C681.22 601.6 677.97 601.82 676.22 601.72C669.4 601.33 665.45 601.31 659.95 603.8C656.99 605.14 653.64 605.89 651.41 608.2C650.74 608.89 649.53 610.4 648.95 609.96C648.47 609.59 647.22 608.62 646.64 608.23C642.55 608.19 637.89 607.37 633.96 605.43C628.94 604.51 623.55 607.06 620.77 602.94C618.94 600.23 616.97 597.48 614.39 595.82L605.3 589.95L599.76 588.08C596.97 587.14 594.86 586.34 591.94 586.08C583.64 585.35 577.14 585.11 569.44 588.11C566.16 589.39 564.37 591.21 562.07 593.74C559.74 596.3 556.57 597.75 556.04 601.98L548.42 601.18C544.92 600.81 540.71 599.95 537.48 601.01C533.85 602.21 531.17 602.13 528.12 599.66C523.37 595.8 517.85 593.4 512.15 591.35C509.16 590.27 506.37 589.03 502.92 590.59C496.52 593.49 497.32 589.51 486.85 592.72C482.95 595.24 478.54 597.19 474.14 598.94C471.23 600.1 469.57 604.49 466.15 605.06C462.81 605.61 459.43 604.77 456.08 603.4C456.26 602.92 456.46 602.46 456.7 602.01C455.85 601.02 455.27 599.75 454.88 598.38V588.28C455.7 585.94 457.27 584.06 459.64 582.86C461.87 582.53 464.4 581.6 466.43 581.2C471 580.3 475.89 581.09 480.5 580.62C482.59 580.41 484.77 580.27 486.65 580.69C489.55 581.34 491.7 580.51 494.01 579.6C497.18 579.42 500.44 579.17 503.78 578.74C505.51 578.52 507.21 578.33 508.9 578.15C509.82 578.12 510.71 578.04 511.59 577.88C511.65 577.88 511.73 577.86 511.79 577.85C517.18 577.33 522.5 576.92 527.92 576.44C528.16 576.44 528.39 576.46 528.59 576.48C533.27 576.87 536.62 576.7 540.92 575.17L546.44 574.61C549.4 574.8 552.47 575.3 554.9 574.22C555.56 573.93 556.19 573.7 556.8 573.53L562.65 572.9C563.36 572.9 564.11 572.9 564.91 572.89L575.66 572.71C578.76 572.66 581.52 572.48 584.43 571.99C586.25 572.04 588.08 572.12 589.91 572.22L594.67 573.73L601.56 571.72C602.3 571.62 603.03 571.54 603.78 571.46L615.57 571C615.99 570.99 616.39 570.97 616.77 570.97C618.44 571.06 620.11 571.21 621.77 571.45C623.14 571.75 624.54 572.18 626.29 572.75C629.46 573.78 633.99 573.82 637.41 574.63L649.15 577.41C651.67 578.01 654.41 578.15 657.19 578.34C657.57 578.37 657.94 578.39 658.3 578.41C659.35 578.51 660.39 578.55 661.41 578.54C666.65 578.64 670.97 577.91 675.74 574.7C676.43 574.37 677.11 574.01 677.78 573.65C679.32 573.05 681.12 572.51 681.96 571.76C684.26 569.69 685.85 568.31 688.48 567C690.5 565.99 691.38 563.71 692.25 561.56C694.7 557.45 694.87 554.17 700.79 550.77C701.48 550.57 702.17 550.35 702.82 550.1C704.07 549.62 705.57 548.71 707.11 547.59C707.05 547.46 707 547.32 706.95 547.18C708.76 545.85 710.4 544.28 711.48 542.44C713.32 539.29 711.21 535.38 710.11 532.46C709.59 531.09 709.1 529.82 708.61 528.6C708.27 526.74 707.56 524.74 706.1 522.75C705 520.36 703.97 518.39 703.02 516.74C701.97 512.98 699.95 511.17 697.54 509.87C693.75 506.82 691.02 507.76 687.57 500.62C687.39 500.26 687.21 499.92 687.03 499.59L686.97 498.1C683.93 494.1 680.05 492.53 676.08 491.85C669.83 490.29 663.52 490.1 661.36 480.69L654.44 450.62C652.58 442.52 650.17 436.05 650.53 427.44C650.75 421.77 648.91 414.62 653.35 409.77C653.93 409.15 654.52 408.54 655.11 407.93C656.88 406.8 658.73 405.63 659.92 404.35L668.6 395.07C670.1 393.47 670.33 390.31 671.3 388.33C674.89 380.96 673.24 373.23 666.76 367.84C666.45 364.76 670.19 364.18 672.35 362.86C675.99 360.65 682.14 353.25 684.3 349.14C686.58 344.79 685.84 341.62 683.82 337.43C682.47 334.63 681.28 332.32 678.84 330.21C676.1 327.84 673.49 324.72 669.83 323.71C667.46 323.06 664.9 323.29 662.58 323.61C662.41 322.98 662.08 322.37 661.52 321.8C659.81 320.06 658.84 318.12 658.31 315.73C658.1 314.76 657.47 313.98 656.67 313.46C656.99 300.1 660.03 290.3 661.66 275.32L665.5 240.13L669.34 208.05C669.9 203.29 669.97 199.04 670.8 194.25C671.75 188.81 672.97 181.85 669.41 176.84C665.81 171.77 659.61 167.75 654.05 165.1L633.59 155.36C619.15 148.48 610.65 140.16 599.64 129.04C595.61 124.97 592.47 120.94 589.32 116.14L582.34 105.44L571.87 90.4097C563.96 79.0397 552.91 80.3197 540.13 80.9997L504.75 82.8697L487.04 83.7697L437.45 84.0997L402.85 84.3297L375.45 83.9897L341.58 84.4497C321.22 84.7297 308.1 87.5397 288.62 86.8097C282.9 86.5997 276.7 88.9097 271.17 88.1197L255.04 85.8397C248.92 84.9697 243.26 87.9997 239.99 93.0397C234.99 100.73 230.88 108.56 226.63 116.78C224.66 120.58 222.31 124.17 220.15 127.84C215.41 135.89 209.4 142.23 202.32 148.22L187.86 160.44C183.61 164.04 179.05 166.99 174.55 170.21C159.81 180.77 156.67 179.15 139.3 192.24C122.1 205.21 122.97 197.3 112.71 210.69C109.04 215.48 109.14 220.21 111.11 225.54C115.77 238.2 120.64 251.1 121.88 264.72L123.52 282.72L122.29 295.72C120.81 311.23 127.16 326.65 127.47 342.54L127.93 365.59C128.07 372.8 130.17 379.64 129.2 386.84C129.15 387.21 129.06 387.56 128.96 387.9C128.81 388.17 128.7 388.46 128.63 388.77C128.54 388.96 128.45 389.15 128.34 389.33C128.41 389.36 128.48 389.4 128.54 389.44C128.54 390.12 128.75 390.86 129.25 391.61C129.31 391.71 129.38 391.79 129.44 391.89C129.24 392.42 129.04 392.95 128.81 393.47C128.68 393.49 128.54 393.5 128.41 393.51C124.07 393.81 122.87 396.29 121.31 399.52C119.84 402.55 118.28 405.33 118.47 408.98C118.9 417.19 119.35 419.13 123.96 426C124.72 427.14 128.15 428.12 128.43 429.43C129.16 432.79 128.37 435.63 128.33 438.88C128.28 443.79 133.19 444.78 131.1 458.96C130.93 460.09 129.8 462.17 129.83 463.27C129.88 465.51 129.8 468.01 129.69 470.28C129.36 477.7 129.34 485.04 129.66 492.48C129.85 496.92 130.81 502.91 127.05 507.35L126.37 514.1C118.78 517.82 115.03 515.47 109.39 520.65L105.2 528.13C104.87 532.86 104.92 540.02 105.05 544.47C105.08 545.31 111.83 555.69 119.7 553.29C120.39 553.09 120.97 553.01 121.47 553.06C121.42 553.34 121.4 553.63 121.44 553.93C121.72 556.41 122 558.9 122.29 561.38C122.29 561.41 122.29 561.44 122.3 561.47C121.93 561.47 121.55 561.46 121.18 561.45C121.3 567.77 118.33 576.17 117.54 582.31L115.59 597.5C114.89 603.03 115.07 608.46 118 613.31C125.03 624.97 142.92 615.02 152.35 611.18C170.54 603.77 189.27 598.63 208.8 596.04L233.1 592.84L248.79 590.65C250.63 590.4 252.56 590.09 254.49 589.9C254.42 590 254.34 590.09 254.27 590.19C256.02 590.23 257.39 590.62 261.28 589.95C261.95 590.06 262.61 590.2 263.26 590.4C265.17 590.98 266.66 591.92 267.86 593.13C268.41 593.06 268.95 592.99 269.5 592.93C270.03 593.89 270.52 594.83 271.03 595.46C272.84 597.72 274.87 599.6 274.71 602.54C274.49 606.73 276.06 610.03 278.38 613.12C280.05 615.34 281.43 617.89 283.69 619.39C290.6 623.98 297.16 628.79 305.39 630.89C308.42 631.66 312.74 631.1 315.97 630.86L321.84 627.77C323.04 627.14 325.52 629.48 326.83 630.09C329.35 631.29 332.07 633.15 333.78 635.95L335.6 636.41C335.33 636.72 335.06 637.03 334.78 637.33C335.51 638.21 336.08 639.17 336.37 640.21C336.09 640.22 335.81 640.26 335.51 640.33C294.81 650.14 245.42 658.2 217.94 692.73C210.41 700.48 204.34 709.44 200.01 719.78C197.05 726.84 195.21 733.31 195.5 741.29C195.89 751.99 194.66 763.12 198.08 773.51C202.59 787.21 211.68 798.26 220.74 809.02C228.54 818.28 236.87 825.25 247.08 831.46L262.58 840.91C277.28 849.87 293.54 853.82 310.2 858.03C318.97 860.24 327.08 862.91 336.1 863.96L359.28 866.64C377.75 868.79 376.57 867.22 392.51 868.24C414.69 869.67 436.33 867.91 458.48 867.4C486.92 866.75 489.15 863.38 514.69 858.3C517.79 857.7 521.69 860.17 522.49 863.34C524.52 871.38 525.44 881.94 527.86 890.04C529.82 896.65 532.12 903.52 535.45 909.63C544.32 925.89 559.22 942.82 573.18 955.25C583.93 964.83 608.98 971.48 623.31 972C636.52 972.49 649.23 973.3 662.32 972.06L676.42 970.71C680.86 970.3 685.06 970.04 689.36 969.36L709.89 966.08C718.32 964.73 725.44 961.86 733.18 958.37C744.76 953.15 755.63 947.66 766.84 941.51C774.11 937.5 780.83 933.68 785.52 926.24C790.35 918.59 795.16 910.53 799.47 902.45C802.15 897.41 804.79 893.99 811.64 895.3C814.24 895.8 816.91 896.11 819.6 896.19C819.58 895.96 819.57 895.73 819.55 895.5L820.03 895.55L830.39 894.24C833.1 893.9 837.83 892.45 839.59 890.39L845.2 883.84C847.28 881.41 849.13 879.48 848.69 876.36C847.84 870.33 855.99 876.63 861.15 875.34L872.95 872.38C875 870.79 877.9 868.08 879.73 866.06C880.72 864.96 880.74 862.98 882.54 863.36C888.11 864.54 894.99 863.83 898.36 858.73C909.06 842.53 909.11 849.03 913.92 842.32L918.45 836C921.24 832.11 922.03 828.73 922.54 824.11C922.91 820.77 923.82 817.65 922.51 814.36C923.08 815.6 920.87 807.31 920.69 806.71C920.44 804.99 926.56 802.07 926.46 793.17C926.62 792.3 928.59 790.55 928.19 789.76L928.22 789.71ZM687.55 520.26C689.28 519.45 690.98 519.7 692.5 520.57C693.22 521.77 694.2 523.11 696.18 524.18C696.48 524.63 696.75 525.1 697 525.56L698.45 531.34C698.45 531.34 698.46 531.42 698.48 531.46C698.36 533.94 697.26 536.07 695.35 537.22C692.57 538.91 688.69 538.5 686.07 535.63C682.41 531.63 682.02 522.87 687.55 520.26ZM860.64 744.78C864.7 745.69 865.85 747.97 866.82 751.83C867.42 754.26 870.29 757.7 867.35 760.54C866.21 761.63 862.83 759.33 861.8 758L854.96 749.13C853.78 747.61 852.11 744.64 850.99 742.9C850.54 742.2 851.53 740.3 852.24 740.13C853.08 739.93 854.99 740.16 855.67 740.71L860.64 744.77V744.78ZM828.89 695.76C831.78 696.5 835.92 696.66 838.51 697.55C847.37 704.14 852.92 700.39 854.92 715.97C856.59 718.03 857.53 721.46 856.43 723.58C856.09 724.23 854.53 724.91 853.93 724.73C848.47 723.07 856.59 719.36 839.76 708.55C830.9 702.86 826.76 708.34 826.36 703.11L825.75 695.38C825.91 694.99 827.78 695.47 828.9 695.75L828.89 695.76ZM824.71 717.82L827.48 712.17L835.43 719.76C837.75 721.98 840.57 723.84 841.22 727.5C837.04 730.6 817.9 722.69 824.72 717.82H824.71ZM814.13 726.58C815.18 730.41 816.62 732.53 819.74 734.92C821.3 736.11 822.67 739.43 824.87 739.56C828.38 739.76 831.44 740.43 834.22 741.95C837.5 743.73 841.32 740.25 842.61 745.29C843.04 746.98 843.15 749.29 842.56 750.69C839.2 758.7 822.61 748.54 818.04 745.26L811.71 740.72C806.45 736.94 803.56 730.23 805.85 723.97C808.12 722.5 813.37 723.79 814.14 726.59L814.13 726.58ZM795.4 681.68C798.28 683.42 802.62 684.66 804.54 687.29L811.31 696.53C812.76 698.51 812.2 703.64 811.66 706.29C808.7 709.5 805.85 702.26 801.13 698.96L795.59 695.1L789.65 689.98C787.62 688.23 781.13 682.29 785.48 679.88C788.57 678.17 792.5 679.91 795.41 681.67L795.4 681.68ZM751.95 644.21C754.47 640.83 761.19 644.43 765.28 645.64C767.53 646.3 769.55 646.46 771.26 647.87C779.74 651.7 783.28 651.89 788.69 659.81C789.19 660.54 788.89 662.74 788.38 663.41C787.77 664.18 785.25 664.71 784.31 664.06C775.98 658.34 773.46 656.33 764.53 652.35C761.78 652.63 753.62 649.74 752.61 648.77C751.81 648.02 751.26 645.16 751.95 644.22V644.21ZM751.34 664.43L754.08 658.5C754.52 657.54 757.03 657.26 757.84 657.95L764.15 663.31C766.22 665.08 772.98 669.45 773.13 672.76C773.18 673.75 772.08 675.8 771.04 676.31C768.26 677.66 765.2 675.6 762.91 674.22L756.47 670.35C754.57 669.21 749.74 667.9 751.35 664.44L751.34 664.43ZM746.35 676.72C747.01 678.1 749.41 679.71 750.52 680.98C752.47 683.2 754.2 684.51 756.63 685.98C765.9 691.58 763.76 690.98 777.35 692.42L780.16 698.62C779.3 699.41 777.55 699.63 775.76 699.71L765.16 700.12C762.15 700.24 759.1 697.9 756.28 697.16C751.53 695.92 747.64 694.4 744.33 690.42C742.65 688.41 738.91 686.68 737.46 684.72C735.43 681.97 735.58 678.08 732.6 675.88L733.62 669.54L742.46 668.6L746.35 676.71V676.72ZM711.6 638.04C720.53 637.71 720.46 637.07 728.23 640.94L732.1 642.86C734.88 644.24 737.01 645.19 737.6 648.58C739.26 649.8 740.72 653.14 738.14 654.91C736.83 655.81 733.12 655.79 731.59 655.2L721.01 651.17C719.28 650.51 716.62 647.82 714.97 646.68L710.77 643.77C710.04 643.27 708.95 641.8 708.86 640.95C708.76 639.98 710.53 638.07 711.59 638.03L711.6 638.04ZM666.7 613.81C671.11 613.56 675.45 612.59 679.57 614.8L691.81 621.35L697.03 623.93C694.3 626.71 693.05 624.33 691.13 623.62C688.29 622.57 685.28 621.72 682.21 620.82C677.91 619.57 667.07 620.42 662.97 623.25C660.66 622.41 657.71 619.5 656.22 616.85C658.2 614.1 664.44 613.94 666.7 613.81ZM687.49 637.82C669.72 638.1 675.26 634.16 664.99 630.62C664.37 630.4 663.28 629.43 662.86 628.96C662.35 628.4 662.86 626.21 663.64 625.7C670.63 627.16 675.28 628.62 681.81 631.74L687.7 634.55C688.24 634.81 689.02 635.71 689.26 636.16C689.5 636.62 688.08 637.8 687.5 637.82H687.49ZM654 644.4C657.61 644.64 659.82 640.15 663.51 644.44C665.47 646.72 667.85 648.23 670.33 649.85C672.72 651.41 674.58 652.23 677.55 652.27L685.02 652.37C688.11 652.41 690.67 653.11 693.33 650.81C694.56 649.74 696.96 648.56 698.73 648.14C699.62 647.92 701.56 649.2 701.78 650.03C702.22 651.72 696.55 658.94 691.79 658.94H676.06C672.43 658.94 668.61 656.7 665.23 655.89C663.14 655.39 661 655.12 659.19 654.29L648.09 649.15C647.08 648.68 644.43 647.07 645.01 646.21C647.08 643.14 650.9 644.2 654.01 644.41L654 644.4ZM613.06 623.33L622.3 620.07C623.74 619.57 625.44 619.35 626.89 618.95C634.98 616.71 629.51 620.57 642.26 621.75C646.08 622.1 649.67 625.58 650.86 629.28C651.33 630.74 649.84 632.85 648.77 633.38C647.08 634.22 645.11 633.14 643.26 632.8C640.21 632.24 625.58 632.35 623.51 631.41L614.63 627.35C614.06 627.09 613.12 626.43 612.71 626.14C612.2 625.78 612.37 623.57 613.06 623.33ZM567.02 601.31C574.5 595.56 576.47 598.52 588.59 599.29C590.72 599.43 592.99 600.62 594.99 601.32C599.48 602.9 606.67 605.72 608.2 610.92C608.7 612.65 605.94 616.48 604.11 616.53C599.86 616.67 596.5 613.8 592.84 611.92C589.75 610.33 585.32 611.97 582.05 611.52C578.85 611.07 575.96 611.4 573.38 613.07C571.8 613.31 568.28 612.78 567.32 611.77C564.7 604.38 563.88 608.43 563.32 603.44C563.2 602.33 566.11 602.01 567.02 601.31ZM587.27 623.17C585.71 627.11 583.38 626.1 580.66 625.52L575.98 624.53C572.46 622.25 567.9 623.5 568.82 620.71C569.87 617.52 576.36 621.15 581.03 622.01L587.27 623.17ZM589.65 637.45C596.65 635.54 599.12 637.86 601.34 632.78C601.74 631.87 603.73 630.63 604.52 631.18L609.66 634.78C609.9 640.9 599.44 643.91 594.48 644.47C593.7 644.56 592.24 646.27 591.58 645.95L588.25 644.34C586.42 643.71 583.25 644.21 581.31 643.76L574.52 642.17C571.92 641.57 569.11 639.26 566.6 638.28C563.12 636.92 560.04 635.69 557.17 633.25C562.21 624.2 575.67 641.26 589.65 637.46V637.45ZM525.29 617.71C527.19 614.92 530.94 614.84 535.05 611.39L551.88 611.51L557.13 613.94C558.35 614.5 558.71 617.28 558.14 618.61C557.6 619.87 555.61 621.55 554.03 621.55L535.04 621.52C532.59 619.54 524.06 619.54 525.29 617.72V617.71ZM473.61 609.69C475.76 605.14 482.72 609.41 487.53 605.47C490.1 603.35 492.72 604.21 495.59 604.08C500.96 603.84 515.52 603.43 517.38 610.83C502.14 608.79 513.84 608.07 495.79 607.7C494.22 607.67 491.12 609.59 489.5 610.08C484.85 609.24 481.57 610.9 478.18 613.59C476.73 614.74 472.65 611.73 473.62 609.7L473.61 609.69ZM500.91 621.58C500.22 624.77 496.3 626.96 492.9 626.42C490.64 628.4 487.27 629.59 484.59 627.46C483.12 626.28 481.75 622.44 482.22 620.58C482.8 618.32 485.88 618.83 487.3 619.57C496.28 624.24 498.13 617.92 500.91 621.58ZM472.62 637.26C473.46 634.59 478.66 632.35 480.78 633.55C486 638.97 485.14 635.99 491.51 639.61C494.49 641.3 495.74 639.72 498.28 638.73C504.65 636.22 511.36 633.87 515.62 627.97C516.26 627.09 517.67 625.6 518.58 625.35C519.49 625.08 521.35 626.11 522.17 626.7L526.56 629.85L523.23 636.22L517.19 639.94L507.74 645.97L491.99 646.14C490.52 646.15 488.42 644.97 487.06 644.6C484.64 643.95 471.67 640.31 472.62 637.29V637.26ZM456.66 637C456.78 636.54 456.93 636.14 457.14 635.83C457.62 635.1 459.54 635.63 460.65 635.97C466.59 637.77 464.35 641.5 469.36 645.55C465.61 645.66 461.86 645.76 458.1 645.87C457.98 645.87 457.86 645.88 457.75 645.9C457.67 645.7 457.59 645.49 457.52 645.28C457.19 643.91 457.15 642.52 457.66 641.37C457.12 640.04 456.78 638.6 456.66 637.01V637ZM455.52 616.35C458.77 614.54 472.96 623.1 467.15 624.32L458.7 626.09C458.41 625.68 458.16 625.24 457.96 624.78C456.68 621.86 455.87 619.19 455.45 616.51C455.48 616.45 455.5 616.39 455.52 616.35ZM485.9 549.82C482.81 550.66 477.78 550.63 474.89 549.89L461.8 546.56C457.8 545.54 454.31 542.64 450.59 541.1C450.59 541.17 443.72 539.88 442.14 537.35C442.11 537.23 442.09 537.11 442.07 536.99C442.03 536.7 441.94 536.43 441.83 536.17C441.83 536 441.86 535.83 441.93 535.65C442.52 533.96 443.86 535.89 450.51 533.05C452.36 532.26 456.4 532.28 458.48 532.96C463.6 534.63 468.27 535.6 473.4 536.64C482.32 538.45 476.47 535.83 487.82 535.79L493.71 530.1C497.22 529.39 501.9 531.24 503.11 534.42L498.45 541.09C495.78 544.92 490.61 548.56 485.92 549.82H485.9ZM231.14 515.01C230.13 514.76 229.08 513.39 229.17 512.5C229.43 509.83 233.9 511.13 236.73 511.34C240.44 511.6 243.55 511.88 247.36 512.45C248.3 517.26 246.28 521.48 250.02 525.08C250.82 525.85 251.4 528.47 250.67 529.04C248.3 530.87 245.3 530.11 242.84 530.12C239.81 530.12 236.44 531.28 234.3 528.05C233.42 526.72 234.69 524.08 235.45 522.46C236.88 519.4 234.32 515.81 231.14 515.01ZM250.98 502.41L241.5 502.53L235.75 503.35C231.88 503.9 228.08 503.87 225.92 506.87C222.54 511.57 218.93 506.09 213.99 507.13L205.6 508.92C205 509.05 203.33 507.93 203.01 507.43C202.13 506.05 215.44 494.73 225.36 497.26C232.37 499.05 237.8 501.26 245.59 498.06L250.55 496.03L258.67 490.4C260.62 490.66 263.54 491.83 265.49 493.05C267.64 494.4 263.63 497.66 264.06 498.16L265.5 499.82C265.85 500.21 266.49 501.27 266.7 501.74C266.97 502.32 265.33 503.21 264.66 503.28L257 503.99C255.52 504.13 252.49 502.39 250.98 502.41ZM192.59 437.08C195.44 437.06 199.9 439.13 202 440.8C205.58 443.63 208.6 452.4 208.65 454.46C208.71 457.59 195.94 453.29 195.36 452.97C192.77 451.56 191.47 448.08 188.41 447.03C185.27 445.96 182.72 443.67 181.61 440.09C185.18 438.89 188.88 437.11 192.59 437.08ZM187.85 412.34C188.69 413.47 189.47 414.64 190.24 415.83C189.28 414.8 188.48 413.63 187.85 412.34ZM534.21 382.5C534.45 382.74 534.69 382.99 534.92 383.26C537.14 385.89 535.4 390.05 533.24 392.24C532 393.5 530.98 394.78 530.2 396.13C529.34 396.95 528.05 397.92 527.7 398.71C527.5 399.15 527.7 399.93 527.93 400.71C527.34 402.34 526.8 403.98 526.29 405.63C525.6 407.49 525.05 409.4 524.7 411.37C524.6 411.93 524.6 412.44 524.69 412.92C524.61 412.92 524.52 412.91 524.43 412.9C524.97 411.12 524.12 409.3 522.58 408.21C521.01 407.09 519.37 406.1 517.68 405.23C517.03 404.53 515.63 403.78 515.04 403.59L510.6 402.16C509.97 401.73 509.19 401.33 508.23 400.98C496.54 396.65 484.5 394.9 472.03 392.97C460.07 391.11 448.9 389.63 436.86 389.16C433.79 389.04 429.15 386.62 428.82 383.4C428.34 378.8 427.45 363.66 433.82 363.18C458.63 361.3 499.05 369.4 522.91 377.43C526.81 378.74 530.96 379.49 534 382.29C533.95 382.32 533.9 382.34 533.85 382.36C533.98 382.41 534.11 382.46 534.23 382.5H534.21ZM637.34 352.95C631.92 355.04 631.27 358.87 625.12 363.55C623.92 364.89 623.16 367.95 621.74 369.96C620.07 371.64 615.92 371.23 613.58 370.14C614.16 368.05 615.22 365.69 615.95 363.79C617.19 360.58 618.18 358.94 621.05 357.11C627.7 352.85 628.63 349.73 638.4 349.48C639.45 349.45 638.37 352.55 637.34 352.95ZM640.48 367.31C642.97 366.79 645.82 368.42 647.96 370.17C645.87 372.77 643.56 373.63 640.44 375.06C638.77 375.82 635.57 377.9 634.91 374.79C634.32 371.94 637.47 367.95 640.48 367.31ZM621.38 386.27C623.72 387.85 619.87 391.05 618.36 391.86L612.3 395.12C609.09 396.85 606.13 397.64 602.95 398.4C602.78 398.03 602.62 397.65 602.48 397.27C599.67 397.53 597.34 397.07 596.35 395.57C596.29 395.48 596.23 395.38 596.18 395.28C595.17 396.08 594.16 396.88 593.14 397.67L591.64 396.81C591.15 396.54 592.18 395.19 592.63 394.78C595.2 392.41 597.32 390.02 599.82 387.43C602.1 385.07 605.83 383.56 608.68 381.39C609.73 380.59 612.34 380.13 613.28 380.76L621.37 386.26L621.38 386.27ZM602.59 411.07C604.01 417.65 600.5 423.61 596.57 428.27C593.86 431.47 591.35 432.95 587.5 434.58L578.1 438.56C575.56 439.63 572.19 438.26 569.44 437.61L564.89 438.75L558.15 435.94C557.11 435.51 557.38 432.58 558.08 431.73C561.58 427.51 561.99 432.92 570.66 429.21C581.19 424.7 573.49 426.25 583.13 421.5C585.44 420.36 588.42 415.92 587.63 413.53C585.84 410.63 582.09 413.26 580 413.77C576.55 414.63 573.46 415.59 570.4 417.09C567.53 418.5 564.91 417.67 563.96 415.01C562.83 411.87 564.35 410.8 567.17 409.06L574.63 404.48C575.68 403.83 578.19 401.75 579.2 402.5L585.53 407.2C594.95 414.19 594.26 406.54 602.58 411.07H602.59ZM572.84 514.96L566.67 511.74L549.92 511.54C547.4 514.14 539.15 514.69 538.94 511.92C538.66 508.15 548.07 507.5 551.2 507.35C555.26 504.95 560.22 504.5 564.41 507.39C572.68 507.19 576.27 510.37 586.03 513.31C588.86 514.16 591.54 514.3 591.39 518.71C588.76 519.51 585.46 520.26 582.6 520.52C579.02 518.39 576.3 516.76 572.85 514.96H572.84ZM578.09 529.29C569.44 533.7 567.28 532.6 556.59 532.58C554.42 532.58 553.15 530.62 553.18 528.46C553.19 527.35 553.3 525.48 553.87 524.91C556.36 522.47 565.04 522.81 568.54 523.48C574.05 524.53 577.96 524.34 578.95 525.55C579.47 526.2 578.84 528.9 578.09 529.29ZM580.73 495.77C580.21 496.37 578.19 496.53 577.41 496.15C572.97 493.98 558.65 492 554.67 492.62C551 493.19 548.09 491.28 545.06 490.95C538.98 490.27 533.35 489.86 527.36 488.73C521.98 487.72 516.69 489.5 514.07 487.38C513.53 486.95 515.23 485.19 515.93 484.97C523.33 482.6 529.55 477.92 533.72 470.87C536.5 466.15 541.88 465.51 541.85 453.74C541.84 447.54 537.45 447.07 538.38 444.16C538.61 443.43 539.96 442.6 540.82 442.42C541.72 442.24 542.4 442.98 543.62 444.03C543.83 444.56 544.2 445.07 544.77 445.54C551.44 451.03 559.31 454.68 567.88 456.01C568.48 456.11 569.1 456.19 569.72 456.27C569.49 457.28 569.68 458.88 569.9 459.62L572.9 469.67C576.04 480.13 575.35 483.42 580.61 492.4C581.02 493.09 581.26 495.17 580.74 495.78L580.73 495.77ZM474.76 502.38C471.07 501.37 459.58 503.13 456.8 504.05C454.41 504.83 453.41 505.95 451.09 504.25L446.78 501.1C462.87 492.9 462.53 496.44 476.45 497.06C480.24 497.22 483.16 497.88 486.64 499.34C490.6 501 496.18 502.78 497.41 507.68C497.14 510.51 492.47 510.52 490.42 509.22C479.73 502.44 484.06 504.9 474.76 502.38ZM489.35 519.62C488.77 521.19 486.73 522.59 485.14 522.82L476.25 524.12C472.27 524.7 467.25 524.5 462.98 524.3C462.01 524.26 460.99 522.13 460.83 521.21C460.63 520.05 461.39 517.84 462.51 517.5L469.33 515.45C471.46 514.81 486.82 514.25 488.78 516.01C489.4 516.57 489.67 518.75 489.34 519.62H489.35ZM417.4 465.38C406.71 464.29 406.62 471.54 398.09 468.91C396.74 463.4 400.7 464.92 407.22 459.89C408.66 458.78 410.18 455.78 412.01 455.48C420.45 454.08 422.61 455.27 428.23 452.56C428.62 452.37 430.23 452.29 430.23 452.68C430.16 455.36 426.21 457.66 423.06 461.84C421.42 464.01 420.53 465.69 417.4 465.37V465.38ZM421.81 478.42C419 477.35 416.96 476.39 414.9 475.18C414.12 472.66 416.78 470.17 419.46 470.02L421.8 478.41L421.81 478.42ZM429.67 487.57C429.76 486.88 431.55 486.35 432.25 486.43L438.46 487.2C438.93 487.25 439.89 487.57 440.25 487.74C440.74 487.96 440.28 489.57 439.9 489.98C437.24 492.8 434.37 496.87 433.4 496.72C430.48 496.27 433.2 494.06 430.29 489.84C429.94 489.34 429.59 488.11 429.66 487.56L429.67 487.57ZM435.82 473.94C435.1 473.46 433.86 471.91 433.83 471.05C433.79 470.19 434.87 468.54 435.61 467.91C437.87 466.01 439.31 463.2 441.29 461.34C443.3 459.46 447.04 458.6 448.93 456.09C449.81 454.91 453.21 453.21 454.5 453.98C457.12 455.54 459.57 457.64 461.99 459.61C464.25 461.46 467.36 460.49 467.86 463C468.39 465.64 465.46 464.59 459.74 468.36C459.47 468.54 447.83 472.85 446.22 473.39C442.92 474.5 439.34 476.27 435.83 473.93L435.82 473.94ZM496.17 430.67C492.62 430.24 489.58 431.31 486.42 432.23C482.32 433.43 479.37 434.36 476.54 437.54C469.76 445.18 474.17 446.54 471.4 448.29C468.78 449.95 468.12 441.69 463 443.96C462 444.39 459.92 443.84 459.67 443.1C459.42 442.35 460 440.51 460.61 439.91L469.11 431.54C470.02 430.65 472.57 429.49 473.64 428.67L480.36 423.5C486.37 418.88 499.95 421.37 507.29 422.91C506.44 428.57 501.3 431.28 496.15 430.66L496.17 430.67ZM507.48 444.96L500 448.67C496.72 450.3 493.26 451.84 489.45 453.41C486.34 454.69 482.24 453.13 479.34 454.62C476.97 455.84 474.17 454.21 473.84 452.04C476.5 451.69 478.65 451.1 480.72 449.89L493.31 442.55C495.93 441.03 498.86 438.76 502.38 439.77C504.15 440.27 506.26 443.11 507.47 444.96H507.48ZM489.78 477.07C487.05 477.87 485.37 478.99 482.71 477.34C477.99 474.39 472.51 479.47 470.87 474.84C481.56 465.98 479.1 471.88 488.18 467.66C499.18 466.08 500.41 463.25 506.73 455.47C508.35 453.48 509.38 451.67 509.96 449.14L510.39 447.26C510.86 445.19 517.35 451.38 526.04 448.4C526.53 448.24 527.83 448.4 528.16 448.65C530.24 450.29 526.95 455.83 525.94 456.88C518.02 465.06 520.06 463.81 510.61 468.74L503.92 472.23C502.67 472.88 500.59 473.95 499.37 474.3L489.79 477.07H489.78ZM509.8 415.41C510.34 415.88 510.89 416.35 511.43 416.81C510.82 416.44 510.25 415.95 509.8 415.41ZM520.8 500.34C522.4 500.46 526.5 501.07 526.88 502.56C528.13 507.38 522.92 509.34 519.34 508.87L511.09 507.81C510.14 505.82 509.41 502.82 508.93 499.42L520.8 500.33V500.34ZM584.36 386.3C579.74 390.49 581.74 391.89 579.36 395.19C578.93 395.79 576.92 396.01 576.23 395.69C571.92 393.75 567.3 397.67 563.45 397.61C555.61 397.49 548.84 402.44 548.47 410.03C548.41 411.19 546.21 412.68 545.22 412.52L536.81 411.18C536.85 410.6 536.95 410.09 537.08 409.64C537.93 408.36 538.83 407.11 539.77 405.91C540.14 405.52 540.52 405.11 540.87 404.65L541.65 403.62C541.72 403.54 541.79 403.45 541.87 403.36C541.91 403.3 541.94 403.24 541.99 403.18L546.69 396.97C548.85 394.13 550.35 391.8 553.24 389.77L562.06 383.59C564.09 382.17 565.64 379.72 567.9 378.25C568.67 377.88 569.42 377.56 570.16 377.27C570.67 377.14 571.22 377.07 571.81 377.07L587.81 376.96C593.68 376.91 585.62 385.14 584.36 386.28V386.3ZM537.97 420.86C541.76 419.07 546.53 418.69 550.92 418.02C551.84 417.88 553.34 419.39 553.38 420.28C553.58 424.28 547.48 422.23 541.55 429.2C539.61 431.48 536.8 432.46 533.94 433.16L520.88 436.37C519.57 436.7 517.04 435.19 516.67 434.18C516.3 433.18 516.91 430.84 518.05 430.18C522 427.86 525.9 424.02 530.1 422.98C533.09 422.24 535.26 422.16 537.97 420.87V420.86ZM443.13 404.08C443.13 404.08 443.2 404.09 443.24 404.09C446.58 405.47 449.83 407.22 453.12 408.53C456.42 409.83 459.96 410.49 462.89 412.57C464.8 413.92 466.43 415.66 467.96 417.46C465.98 419.26 464.62 420.66 459.57 422.94L453.49 430.03C452.46 431.23 451.37 433.88 450.57 435.2C447.57 436.9 446.68 439.21 446.57 442.89L440.54 446.41C437.75 448.05 434.56 449.9 431.94 446.64L431.34 440.96C431.21 439.77 428.4 438.53 427.2 438.66C422.94 439.15 419.64 444.19 419.11 441.51C419.11 441.49 419.12 441.46 419.13 441.44C419.46 440.5 419.92 439.67 420.54 438.79C421.57 437.34 421.21 435.6 420.21 434.32C422.87 431.43 428.32 428.03 423.34 421.26C419.9 424.17 417.11 426.85 414.23 429.78C413.46 429.94 412.71 430.32 412.1 430.92C411.92 428.43 411.76 425.52 410.88 423.84C409.98 422.13 405.85 419.81 404.14 420.73C399.68 423.13 399.22 429.02 400.96 433.04L410.06 434.05C409.64 434.85 409.25 435.66 408.91 436.5C408.48 437.31 408.11 438.03 407.77 438.67C407.91 438.62 408.04 438.58 408.18 438.54C408 439.11 407.83 439.69 407.68 440.27C406.88 441.3 406.12 442.36 405.42 443.5C403.56 444.89 400.55 445.77 398.81 445.53C398.04 443.78 397.4 440.78 396.18 439.95C395.58 439.54 395.09 439.13 394.68 438.74C394.62 438.75 394.55 438.77 394.49 438.79C393.93 438.41 393.25 438.1 392.42 437.82L392.03 427.71C391.95 425.7 388.14 422.23 386.04 422.23C381.51 422.23 376.76 425.43 374 428.75C373.31 429.59 373.63 432.83 374.58 433.24C375.68 433.74 377.96 433.19 379.02 432.33L382.17 429.77C382.93 429.15 385.3 430.42 385.83 431.07L380.92 436.73C380.1 437.68 379.81 441.22 380.35 442.34C380.71 443.11 381.85 444.1 382.89 444.49C385 445.72 386.4 443.46 388.28 443.73C388.41 443.82 388.51 443.91 388.58 444C388.8 444.33 388.69 445.05 388.43 445.73C388.06 445.91 387.69 446.16 387.34 446.48C386.82 446.96 386.31 447.45 385.79 447.92C385.76 447.95 385.75 447.97 385.72 447.99C381.62 449.5 379.36 446.3 376.54 447.72C376.28 447.85 376.09 448.11 375.94 448.45C375.91 448.55 375.87 448.64 375.83 448.74C375.71 448.78 375.58 448.82 375.46 448.87C375.41 448.37 375.34 447.89 375.24 447.42C375.31 447.19 375.4 446.96 375.46 446.72C375.34 446.79 375.24 446.87 375.13 446.94C375.04 446.59 374.93 446.24 374.82 445.9C375.06 445.12 375.16 444.37 375.06 443.66C374.19 439.06 369.29 436.11 365.48 433.81L358.49 433.43C359.14 431.05 360.86 429.94 363.08 429.77L369.24 429.31C369.84 424.85 366.64 420.59 362.11 420.71C351.43 420.95 348.01 432.77 349.88 442.67C353.15 443.79 356.96 443.33 360.54 442.3C361.82 441.93 364.22 444.52 363.99 445.79C362.88 451.75 353.73 446.26 350.66 447.5C349.44 448.44 349.35 452.56 350.27 454C350.79 454.82 351.91 455.69 353.12 456.37C353.98 457.08 354.91 457.6 355.91 457.97C356.56 458.94 357.62 459.64 359.09 459.7C360.15 459.75 361.29 459.84 362.47 459.89C362.47 460.01 362.49 460.13 362.5 460.25C362.49 460.37 362.47 460.48 362.45 460.6C360.97 463.1 360.57 466.23 361.44 469.03C357.5 469.78 353.13 468.21 353.03 473.6C353.02 474.41 352.49 476.41 351.83 476.79C351.08 477.25 349.54 477 348.45 476.77C345.13 476.08 344.77 474.61 343.44 471.85C341.72 468.27 338.63 463.65 335.31 461.35L325.47 454.53C324.06 453.55 315.49 451.15 315.27 450.98C313.47 449.55 310.29 448.12 307.41 448.14C301.8 448.17 303.5 444.49 284.36 445.86C281.02 446.1 277.62 448.37 274.46 449.21C271.95 449.88 270.05 450.24 267.87 451.77C263.51 454.86 264.19 445.39 261.11 441.6L255.6 434.78C254.74 433.71 252.89 433.05 251.48 432.11C262.25 424.89 273.73 418.82 285.78 414.07L289.5 412.82C294.28 411.21 299.51 410.29 304.47 408.96C316.17 405.82 327.85 404.2 339.95 402.57C360.35 399.8 373.36 398.82 393.99 399.89L420.93 401.3C428.45 401.69 435.57 402.95 443.08 404.07L443.13 404.08ZM375.66 456.55C375.5 456.71 375.33 456.85 375.14 456.98C374.85 456.52 374.47 456.11 374.03 455.78C374.05 455.74 374.08 455.71 374.1 455.66C374.5 456.04 375.02 456.35 375.66 456.54V456.55ZM348.08 527.32C347.28 529.96 331.22 529.97 331.28 527.39C331.33 524.64 337.34 523.32 341.46 517.88C342.4 516.64 342.23 513.59 344.65 515.13C343.89 523.37 348.74 525.14 348.08 527.32ZM341.55 499.58L327.54 495.13C325.4 494.45 326.04 488.56 328.32 487.82C331.62 486.76 335.84 485.39 339.24 485.92C349.72 487.56 353.25 491.58 361.13 495.94C362.39 496.64 363.3 498.24 363.18 499.62C363.08 500.68 361.17 502.27 359.88 502.18C349.09 501.42 355.4 500.35 347.67 501.6L341.55 499.58ZM311.24 468.71C308.56 467.93 306.22 467.47 303.28 467.2L293.47 466.33C289.27 465.96 285.28 465.74 281.11 466.89C280.44 467.07 279.09 466.75 278.89 466.11C278.61 465.29 279.4 463.8 280.15 463.49L285.57 461.23C289.63 459.54 294.76 461.03 299.18 461.12C302.16 461.18 304.38 461.81 307.05 462.86L313.92 465.54C318.55 464.69 321.78 466.03 324.96 468.89C327.65 471.32 333.37 469.25 333.55 474.37L328.83 475.16C325.7 475.68 322.58 475.57 320.52 473.19C317.96 470.22 314.82 469.76 311.24 468.71ZM316.19 482.75C315.37 485.22 314.4 488.17 313.7 490.92C312.65 495.04 302.78 492.55 299.07 491.17L291.84 488.47C290.12 487.83 287.98 487.27 286.48 486.18C284.55 484.77 285.81 479.2 288.36 479.14L309.29 478.65C311.69 478.6 317.33 479.25 316.18 482.75H316.19ZM271.42 482.37C266.62 481.48 262.18 479.76 258.38 477.05L253.85 473.83C252.61 472.94 252.92 469.09 253.28 467.68C256.32 465.31 259.64 467.52 262.58 468.54C266.1 469.77 268.21 470.88 270.44 473.92C271.51 475.39 273.25 476.99 274.59 479.09C275.19 480.02 272.5 482.58 271.42 482.38V482.37ZM252.85 453.08C252.04 454.62 247.88 456.37 246.1 454.83L241.01 450.44L232.74 446.14C220.9 439.98 219.07 445.47 217.2 443.32C217.22 443.32 211.18 435.52 212.9 435.56C217.63 436.25 221.94 436.04 226.03 437.46L237.94 441.59C242.55 443.19 247.16 443.92 249.98 448.79C250.62 449.89 254.04 450.83 252.85 453.08ZM243.1 458.74L240.15 465.93C234.28 466.49 229.59 465.05 224.64 462.46C223.37 461.79 221.41 461.41 220.83 460.5C220.14 459.43 220.18 456.02 221.41 455.62C227.77 453.54 230.29 458.13 240.24 455.9C241.3 455.66 243.69 457.31 243.1 458.73V458.74ZM215.37 466.99C217.52 468.31 220.32 470.25 221.84 471.9C224.86 475.19 227.69 475.26 231.71 476.88L241.63 480.86C242.85 481.35 245.97 480.13 247.44 479.83C248.01 479.71 249.25 480.87 249.14 481.39C249.03 481.91 248.49 483.25 248.01 483.57L240.66 488.37C231.11 488.08 223.81 486.55 216.84 479.93C212.05 475.37 210.41 475.27 206.82 472.01C207.02 471.97 207.3 471.91 207.66 471.82C207.66 471.8 207.66 471.79 207.66 471.77C207.35 471.83 207.04 471.88 206.74 471.93C205.84 471.11 204.81 470.08 203.57 468.74C204.41 466.09 206.96 466.87 209.16 467.14C210.63 467.32 214.03 466.19 215.37 467V466.99ZM209.99 489.56C209.87 491.65 206.48 492.85 204.98 493.96L201.7 500.5C198.08 507.7 198.34 492.26 199.12 489.52L201.34 481.78C205.44 481.24 210.27 484.93 210 489.56H209.99ZM188.27 476.75C188.39 477.64 188.7 478.48 189.17 479.17C188.82 482.08 187.75 484.39 187.52 490.07C181.68 491.61 174.19 486.18 168.86 486.49C164.46 486.75 160 487.95 156.13 489.3L147.78 492.23C146.24 487.52 147.64 484.13 148.06 479.81L149.45 465.54C151.32 464.53 152.92 466.42 154.51 467.48C164.67 474.22 170.49 477.29 183.58 475.96L188.17 473.57C188.11 474.62 188.13 475.67 188.27 476.74V476.75ZM179.88 434.31C179.81 434.13 179.72 433.94 179.61 433.75C176.02 427.5 169.83 423 162.69 421.8C162.34 421.74 162.01 421.73 161.69 421.75C159.91 414.18 155.64 415.6 156.68 412.76C158.36 408.15 172.69 416.37 176.3 419.15L186.43 426.92C186.11 430.07 183.07 433.05 179.88 434.31ZM168.62 437.09C169.87 438.35 170.88 439.71 171.61 441.2C168.43 440.53 163.27 439.36 162.03 437.67C160.29 435.3 161.76 432.57 162.27 430.04C165.35 430.85 168.03 432.38 170.17 434.63L170.47 435.05C170.76 435.44 171.1 435.81 171.47 436.17C171.86 436.71 172.23 437.26 172.57 437.86C172.88 438.4 173.26 438.81 173.66 439.12C173.73 439.43 173.76 439.77 173.71 440.14C172.46 438.41 171.26 436.65 170.09 434.87C169.42 435.28 168.89 435.69 168.42 436.05C168.47 436.39 168.55 436.76 168.62 437.08V437.09ZM162.04 447.8C171.88 457.99 175.28 449.46 181.4 452.05C182.26 452.42 186.35 455.83 185.9 458.09C185.73 458.98 184.18 460.08 183.6 460.84C181.06 464.17 178.63 464.3 174.68 463.65C172.13 463.23 169.53 462.93 167.31 461.45L159.24 456.09C153.57 452.33 148.73 448.96 143.24 443.45C161.35 444.5 154.38 439.88 162.03 447.8H162.04ZM154.83 503.85C156.9 502.93 160.12 502.83 162.32 501.61C164.23 500.56 165.77 501.1 167.7 501.51L175.73 503.22C177.84 503.67 180.72 503.21 182.13 504.8L188.03 511.49C188.58 512.12 189.17 513.6 188.87 514.28C187.53 517.32 182.49 513.79 179.08 513.67C161.72 513.08 167.78 513.29 151.57 519.6C145.07 518.69 141.83 515.5 134.95 514.48C134.9 514.3 135.96 512.98 136.52 512.56L141.6 508.81C146.21 507.75 150.35 505.84 154.83 503.85ZM157.78 525.21C160.68 524.31 163.6 523.1 165.96 523.47L174.89 524.88L182.89 526.95L184.39 531.94C184.7 532.64 186.29 534.42 185.72 534.94C185.15 535.46 183.6 536.04 182.4 536.41L173.73 539.05C169.67 540.29 165.94 541.28 161.49 540.48C160.44 540.29 159.94 537.99 160.44 537.11C164.08 530.73 158.59 528.49 157.79 525.21H157.78ZM156.64 545.26C162.48 548.76 168.64 547.99 175.02 547.78L186.45 547.41C190.75 547.27 193.76 544.87 197.52 542.29C197.13 546.79 193.21 548.9 190.77 551.76C186.75 556.49 178.81 555.48 171.94 557.52C166.77 559.04 163.21 560.14 157.57 557.49C156.86 557.15 155.76 556.96 154.62 556.72C154.61 555.51 154.01 554.32 152.59 553.57C151.86 553.18 151.05 552.78 150.27 552.33C150.18 550.26 149.98 547.95 149.77 546.1C149.65 542.87 154.83 544.16 156.65 545.26H156.64ZM195.4 528.48C194.87 526.64 195.6 523.46 196.87 522.02C201 517.31 200.03 521.56 207.3 518.2C211.72 516.15 215.52 516.98 219.65 519.18C220.84 519.81 222.78 521 223.15 522.35C221.89 524.5 219.53 525.84 217.44 527.01C212.28 529.92 208.8 529.77 200.67 531.61C198.92 532.01 195.84 530.03 195.39 528.48H195.4ZM259.03 515.77C259.89 514.37 262.59 513.71 264.48 513.55C272.91 512.84 279.99 515.3 286.53 520.16C287.94 521.21 289.89 521.53 290.32 523.66L286.49 525.03C281.2 526.92 275.95 527.59 271.33 524.35C267.15 524.74 263.1 524.45 259.71 521.73C258.36 520.66 258.09 517.33 259.04 515.77H259.03ZM289.28 508.62C286.25 506.72 273.93 499.47 274.16 495.26C274.69 493.15 279.28 491.68 280.92 493.07C287.13 498.32 291.42 500.49 298.66 503.55C306.01 506.66 307.33 507.7 317.02 505.47C318.05 504.96 319.82 503.04 320.92 502.92C322.06 502.8 324.2 503.63 325.23 504.35L332.24 509.33C331.27 511.71 329.07 512.69 327.37 513.96C317.93 521.04 317.53 517.27 308.4 515.6C301.28 514.3 295.36 512.43 289.27 508.62H289.28ZM301.96 527.27C304.94 528.03 308.8 528.68 311.51 529.83C315.95 531.72 319.59 533.19 324.18 534.3L338.88 537.88C343.12 538.91 346.1 538.53 350.11 536.6C352.57 535.41 354.13 534.51 355.59 531.76C356.24 530.55 358.97 531.48 359.12 532.84C359.34 534.84 358.04 535.29 356.73 536.47C352.57 540.19 348.15 543.23 343.23 545.22C334.48 547.05 325.46 546.91 316.76 544.66C316.35 543.7 315.56 542.89 314.33 542.44C312.19 541.68 309.94 541.63 307.74 541.41C306.1 540.61 304.52 539.69 303.05 538.64C300.59 535.93 298.86 533.66 297.97 533.71C297.07 532.47 296.31 531.11 295.75 529.62C295.51 528.98 295.17 528.46 294.76 528.06C296.81 526.96 299.31 526.61 301.96 527.28V527.27ZM357.77 521.6C354.11 520.08 350.21 519.76 347.97 515.07C356 513.99 358.25 517.86 366.11 513.87C367.25 513.29 369.94 514.82 370.9 515.79C374.84 519.76 380.42 519.83 385.44 521.48L391.38 523.44C397.85 525.57 405.63 522.56 408.5 527.89C402.53 533.53 394.99 531.8 387.86 530.95C382.16 530.27 378.26 530.37 373.34 527.8C371.23 526.69 367.93 525.82 365.53 524.82L357.78 521.6H357.77ZM378.65 501.56C383.93 501.97 388.39 502.05 393.73 502.03C395.52 502.03 399.07 501.77 400.03 504.28C400.57 505.69 398.46 508.11 397.22 508.81C395.58 509.73 393.2 508.9 391.31 508.61C388.58 508.19 377.21 506.52 376.58 504.38C376.24 503.26 377.42 501.47 378.65 501.57V501.56ZM403.28 493.82L398.05 491.05C396.53 490.25 393.32 488.85 391.7 488.71L379.94 487.64C378.05 487.47 376.07 488.24 373.95 488.66C374.4 488.12 374.85 487.59 375.28 487.04C374.5 487.04 373.73 487.02 372.98 486.97C372.55 487.19 372.12 487.41 371.69 487.62C371.76 488.05 371.84 488.48 371.91 488.91C369.33 488.99 366.51 488.07 363.36 484.15C362.84 483.5 364.41 481.87 365.15 481.79L371.93 481.12L380.63 480.04C382.05 479.86 385.14 481.24 386.73 481.09C393.06 480.53 398.71 481.79 403.99 484.94C408.96 487.9 410.92 485.88 419.34 492.67C405.84 499.3 406.52 495.55 403.27 493.83L403.28 493.82ZM415.64 505.62C428.72 504.82 424.19 505.87 433.08 508.07C439.33 509.61 448.13 511.21 447.82 520.13C434.5 525.51 438.5 522.03 434.16 521.41C423.81 519.96 414.53 523.25 409.11 517.69C411.31 510.23 409.94 510.63 415.63 505.61L415.64 505.62ZM521.41 555.97L507.93 557.37C505.49 557.62 503.09 557.76 500.63 557.38C503.8 553.4 507.03 551.24 508.75 547.19C510.15 543.88 511.87 539.78 516.07 538.74C517.57 538.37 521.1 540.22 521.49 541.7C523.38 548.73 525.89 547.5 530.22 555.33L521.4 555.97H521.41ZM521.69 528.8C517.32 527.49 513.77 525.97 509.01 526.48C504.99 526.91 500.52 524.44 500.9 522.07C501.02 521.32 502.2 520.19 502.9 519.81C507.32 517.47 511.07 518.59 515.48 519.22L525.72 520.67C529.89 521.26 534 522.12 537.47 524.56C538.84 525.53 540.45 528.14 539.12 529.88C538.18 531.1 535.39 529.76 533.95 529.43C530.05 528.53 525.42 529.91 521.68 528.78L521.69 528.8ZM588.01 554.42C585.2 557.99 575.92 555.42 570.24 555.14C566.52 554.96 562.2 557.22 558.78 555.42L552.4 552.06L540.54 548.07C538.07 547.23 535.27 546.84 534.19 543.78C547.99 544.48 542.2 545.08 552.57 538.97C556.18 543.24 560.24 544.96 565.5 544.8C577.79 544.42 570.88 548.49 582.02 541.03C583.88 539.78 585.04 542.12 586.27 542.96C588.32 544.37 590.43 545.74 592.34 547.45C590.8 550.15 589.59 552.41 588 554.42H588.01ZM622.85 536.12C616.48 535.19 611.79 537.03 606.23 537.74C603.42 538.1 600.46 536.78 597.21 538.21L590.23 536.26C589.07 535.93 587.55 534.64 587.4 533.5C587.24 532.22 588.8 530.69 590.06 530.21L598.58 527C600.71 526.2 604.32 526.54 606.88 526.45C612.71 526.23 619.83 528.03 624.45 532.13C624.02 533.48 623.49 534.81 622.85 536.11V536.12ZM631.54 500.57L629.08 501.87L628.02 504.38C626.83 505.73 625.77 507.16 624.73 508.55C622.27 510.92 620.52 513.61 619.42 517.54C616.07 517.5 612.94 516.75 609.48 515.76L603.63 517.01C600.62 516.28 596.91 507.39 596.64 505.73C596.46 504.7 599.19 504 600.11 503.19C602.15 501.41 603.13 496.86 602.52 494.26L600.99 487.71C596.12 483.3 595 478.06 590.32 471.85C589.69 460.11 582.46 461.76 581.7 456.39C585.36 455.86 588.88 454.68 591.95 452.5C593.81 451.19 594.08 449.09 593.43 447.41L594.22 447.18L600.92 442.78C606.99 438.79 605.72 438.25 609.82 432.16C611.37 430.1 612.68 427.91 613.72 425.6C614.05 424.93 614.37 424.25 614.68 423.57C614.88 423.12 615.03 422.52 615.14 421.85C616.15 418.51 616.58 414.97 616.31 411.25C616.43 411.13 616.56 411.01 616.71 410.88C617.5 410.25 620.23 411.97 620.51 413.04C622.82 421.87 623.51 431.53 623.62 440.81C623.69 447.57 626.77 453.51 628.11 459.92L634.15 488.64C635.18 493.54 634.24 497.16 631.55 500.59L631.54 500.57ZM676.15 553.17C678.19 556.94 667.1 564.83 651.13 561.39C649.93 561 648.68 560.67 647.41 560.41C644.41 559.46 641.51 558 639.68 555.45C639.91 555.22 640.14 554.98 640.39 554.75L638.6 553.32C638.4 552.12 638.65 550.12 639.12 549.36C639.77 548.32 642.31 546.8 643.65 547.05L644.32 547.17C647.9 548.54 652.24 550.9 657.78 551.44L665.47 552.19C667.26 552.37 669.35 551.65 671.46 550.91C673.54 551.08 675.29 551.6 676.14 553.17H676.15ZM650.2 534.27C650.78 532.84 651.64 531.71 652.67 530.84C653.08 530.58 653.52 530.28 653.97 529.92C655.43 529.08 657.12 528.66 658.86 528.53L666.93 530.17C669.77 531.67 671.38 534.11 671.38 536.97C671.38 540.39 669.4 543.18 665.41 544.62C665.35 544.64 665.29 544.66 665.23 544.67C663.21 544.98 661.11 544.8 659.23 544.11L657.18 544.65C656.2 544.29 655.3 543.79 654.56 543.13C654.12 542.74 653.61 542.24 653.08 541.66C653.04 540.1 652.95 538.51 652.15 537.93C651.57 537.52 650.93 537.33 650.27 537.28C649.9 536.23 649.81 535.19 650.19 534.26L650.2 534.27ZM654.54 509.93L658.05 510.98C658.93 511.24 659.92 509.02 660.74 508.38C665.8 507.56 668.87 506.88 671.15 510.54C672.35 512.45 671.77 515.54 669.91 517.61C667.58 520.19 663.28 521.04 659.76 520.49C658.4 520.29 657.11 520.14 655.87 520.05C653.08 519.66 650.17 519.44 647.29 520H647.22C642.19 520.31 638.81 520.9 637.15 519.59C635.29 518.12 638.69 510.65 646.56 509.31C646.95 509.31 647.36 509.31 647.78 509.35C649.83 509.51 652.75 509.4 654.54 509.93ZM653.38 392.19C649.99 395.51 646.56 398.1 641.56 398.1L630.16 398.07C629.72 398.07 628.6 397.65 628.24 397.47C627.89 397.29 628.02 395.7 628.32 395.4L634.92 388.87L643.31 388.37C646.68 386.7 649.04 383.42 651.68 381.13C654.7 378.51 656.78 376.15 656.66 371.45C656.61 369.44 661.19 366.76 662.82 367.94C670.37 373.38 657.66 388 653.38 392.2V392.19ZM659.29 338.97L663.99 340.16C667.34 341.01 670.53 341.23 671.82 345.67C668.56 352.81 660.98 356.59 653.61 356.3C651.46 352.52 653.51 349.04 654.77 345.43C655.64 342.93 655.69 339.44 659.3 338.97H659.29ZM547.21 104.33C556.16 114.96 565.47 125.28 575.1 135.3C576.4 136.5 577.64 137.76 578.81 139.12C583.04 144.04 576.25 151.08 571.6 146.33C570.23 144.92 568.85 143.51 567.49 142.1C566.63 141.33 565.76 140.57 564.83 139.88C564.36 139.53 563.94 139.13 563.58 138.68C562.01 139.2 560.21 138.96 558.69 137.42C550.85 129.5 544.25 120.44 539.2 110.51C536.7 105.6 543.31 99.6997 547.21 104.33ZM524.55 132.39C525.28 128.76 530.14 126.64 533.15 129.7C536.89 133.51 540.13 137.79 542.73 142.45C545.94 148.19 537.13 153.32 533.93 147.6C533.57 146.95 533.2 146.32 532.81 145.7C532.77 145.67 532.73 145.65 532.69 145.62C531.95 145.38 531.26 144.97 530.64 144.44C529.11 143.1 527.84 141.54 526.81 139.83C526.33 139.33 525.84 138.82 525.35 138.32C523.56 136.46 523.56 134.16 524.55 132.39ZM499.37 134.91C502.03 133.26 505.49 133.65 507.74 135.79C509.97 137.92 510.17 141.61 508.56 144.16C506.96 146.69 503.77 148.34 500.78 147.33C499.67 146.96 498.75 146.3 498.12 145.47C497.18 144.79 496.48 143.77 496.15 142.66C495.23 139.63 496.8 136.51 499.39 134.91H499.37ZM447.92 182.96C448.27 182.53 448.7 182.16 449.19 181.84C450.11 181.73 451.03 181.63 451.96 181.51C453.78 181.29 455.59 180.71 457.17 179.8C457.67 179.77 458.14 179.75 458.58 179.73L470.3 179.25L509.16 177.37L593.58 176.5C605.55 176.36 617.18 175.95 628.98 176.7C634.12 177.03 638.21 178.4 643.45 176.77C651.78 174.19 662.2 179.32 663.21 188.56C661.5 196.36 649.43 235.5 648.6 239.41L643.92 261.4C642.66 267.31 640.84 272.52 639.42 278.36L633.89 301.03C632.54 306.56 631.44 311.92 630.38 317.42C630.24 317.35 630.09 317.28 629.95 317.2C629.63 318.88 629.54 320.52 629.49 322.05C629.33 322.89 629.17 323.74 629.01 324.59C628.14 329.16 624.16 332.85 620.36 335.46C621.08 335.28 621.81 335.13 622.53 334.99C622.2 335.34 621.89 335.7 621.59 336.05C615.54 339.01 608.53 343.17 606.92 350.47L605.51 356.87L603.63 366.24L605.6 372.3C602.81 372.95 599.76 373.52 597.36 374.28C596.19 374.65 593.3 376.77 592.7 375.31C590.23 369.36 587.41 367.92 583.9 367.59C582.82 367.06 581.65 366.57 580.33 366.18C577.38 365.3 574.72 362.85 574.55 359.48C574.53 359.05 574.51 358.62 574.5 358.2C574.55 356.72 574.62 355.24 574.71 353.72C574.61 353.88 574.51 354.04 574.42 354.2C574.41 338.56 577.85 328.57 579.5 311.93L583.13 275.38C583.82 268.52 583.89 262.66 586.5 256.27C588.24 251.99 589.3 248.16 592.51 244.42C593.45 243.32 594.18 240.48 593.64 239.26C593.04 237.9 590.44 235.65 588.82 235.44L561.4 231.83C558.97 231.51 555.19 232.12 552.97 231.5C545.89 229.52 539.42 229.56 532.18 229.01C522.05 228.25 512.31 227.51 502.09 227.27L492.04 227.03C487.21 226.92 482.21 226.09 478.37 222.95C453.95 203 465.12 206.9 450.61 193.1C448.22 190.84 445.39 186.16 447.95 182.97L447.92 182.96ZM128.91 243.87C127.23 235.21 120.4 221.29 132.19 216.32C136.13 214.66 140.45 212.11 144.65 211.13C155.17 208.69 165.12 205.94 175.7 204.32L197.52 200.97C206.1 199.66 214.44 199.61 222.91 198.65L236.41 197.12C249.51 195.64 262.05 194.93 275.14 194.26C281.42 193.93 311.76 187.52 304.42 198.15C293.25 214.3 278.59 213.95 276.17 229.13C275.33 234.38 271.01 237.14 266.01 237.73L252.16 239.35C243.58 240.36 235.6 241.06 226.93 242.87C227.12 242.84 196.12 248.95 202.66 251.12C207.38 252.69 210.22 248.71 224.86 250.24C228.6 250.63 232.85 248.97 236.52 249.04C248.2 249.28 260.12 247.6 271.59 249.34C278.93 250.44 284.71 252.07 292.32 251.12C297.85 250.41 304.65 252.26 308.88 246.72C320.64 231.37 328.6 215.69 336.21 197.83C336.83 196.37 337.56 194.66 338.34 192.78C366.16 190.66 393.94 188.08 421.67 185.04L425.8 200.05C427.45 206.06 430.44 211.51 432.43 217.25C436.22 228.14 440.19 237.69 447.89 246.46C450.89 249.87 452.21 255.51 456.45 257.99C461.36 260.87 466.96 259.24 472.03 257.88C488.1 253.55 481.74 241.43 493.07 241.6L510.1 241.87L523.29 242.07L550.78 242.8L575.16 243.75C578.93 243.9 584.55 247.03 583.63 251.39C579.42 271.37 570.3 281.51 569.75 296.79C569.21 311.72 562.23 332.3 561.78 345.49L561.13 364.45C561 368.22 557.93 371.56 555.07 373.18C552.01 374.92 547.83 373.93 544.53 371.87C534.09 365.33 523.38 360.37 512.19 355.37C503.98 351.71 496.09 349.85 487.24 348.21C477.55 346.42 468.61 345.49 458.67 345.76C445.46 346.12 432.92 346.58 419.75 347.67C408.74 348.58 398.53 351.06 387.75 353.01C375.06 355.3 363.3 358.95 350.91 362.16C339.23 365.18 328.6 367.88 317.78 373.28C309.81 377.26 301.67 380.29 293.98 385.07L263.26 404.18C262.13 404.88 261.09 405.61 260.1 406.35C251.45 411.67 243.29 417.9 235.36 424.25C235.29 424.22 235.22 424.18 235.15 424.14C233.49 423.2 231.41 422.66 229.42 422.22C227.88 421.87 226.62 421.64 225.55 421.49C226.01 421.52 226.47 421.53 226.92 421.56C222.89 420.58 218.87 420.18 215.25 419.92C214.9 419.74 214.52 419.54 214.11 419.31C213.55 419.28 212.77 419.45 211.94 419.69C205.27 419.24 200.82 418.78 202.06 414.67C203.97 408.25 204.58 402.43 204.55 395.77L204.29 347.12L202.54 327.57L201.33 313.89C200.11 300.06 199.75 283.48 192.47 271.08C190.51 272.69 190.1 274.39 190.44 276.2C191.43 281.7 190.64 286.72 190.75 292.14C190.91 298.58 191.11 304.44 190.77 310.86C190.51 315.75 191.67 320.95 191.9 325.96C192.48 338.93 192.53 351.71 191.8 364.68C190.96 379.71 191.58 388.82 190.83 404.07C190.78 405.15 189.57 407.38 188.91 408.26C188.05 409.41 186.8 409.55 185.17 409.08C186.02 409.99 186.81 410.96 187.57 411.97C187.39 411.9 187.2 411.83 187 411.76C185.49 410.67 183.58 407.67 181.88 406.88L172.12 402.38C168.37 400.65 166.05 400.28 162.12 400.36C159.29 400.43 157.05 400.51 154.26 401.66L152.15 402.53C152.14 402.46 152.15 402.39 152.13 402.32C151.35 397.39 149.96 392.61 148.41 387.87C148.09 386.89 147.74 385.98 147.32 385.17C147.34 384.96 147.37 384.74 147.39 384.52C147.82 379.84 148.62 374.9 148.61 370.09C148.6 360.85 146.14 352.09 145.06 343.04C144.15 335.43 142.52 328.52 141.21 320.97L138.31 304.21C136.96 296.41 136.09 289.41 135.22 281.51C133.84 268.8 131.35 256.4 128.92 243.88L128.91 243.87ZM143.06 404.61H143.04C143.04 404.61 143.05 404.61 143.06 404.61ZM136.58 401.53L136.31 401.4C135.77 401.14 135.22 400.7 134.82 400.24C135.21 400.39 135.59 400.55 135.98 400.71C136.18 400.98 136.38 401.26 136.58 401.53ZM129.1 414.56L128.67 409.57C128.62 408.94 129.54 407.42 130.14 407.19C131.83 406.56 135.84 409.26 137.9 410.68L146.05 416.27C149.31 418.5 150.92 423.65 152.67 427.16C152.18 428.74 151.07 431.42 150.09 432.28C148.35 433.8 145.4 431.98 143.75 431.52C139.12 430.22 136.53 427.07 133.81 423.55C131.59 420.68 129.44 418.54 129.1 414.56ZM130 544.61C127.8 545.71 125.43 548.01 123.2 546.24C119.05 542.94 119.24 537.34 119.84 532.66C120.26 529.27 121.26 527.79 124 526.43C129.87 523.52 135.69 524 141.88 526.11C144.54 527.02 149.89 528.12 151.08 531.74C151.39 532.69 150.14 535.01 149.1 535.11C144.34 535.59 141.53 538.79 137.38 540.88L130 544.6V544.61ZM285.39 591.02C285.15 591.61 283.47 592.48 282.7 592.34C282.1 592.23 281.32 591.86 280.77 591.44C282.33 591.24 283.88 591.04 285.44 590.84C285.43 590.91 285.42 590.98 285.39 591.03V591.02ZM304.93 617.58C296.35 613.88 301.27 615.17 294.84 611.82C291.77 610.22 287.82 609.41 288.04 604.94L296.58 602.34C297.74 607.35 300.34 610.13 304.08 612.66C306.02 613.98 307.49 615.7 310.17 615.47C311.58 615.35 313.77 616.29 314.37 617.78C311.64 621.38 307.72 618.77 304.94 617.58H304.93ZM297.69 591.1C298.27 591.27 299.2 591.81 299.91 592.3L308.7 598.42C310.51 599.68 311.86 599.83 312.42 603.29C306.47 605.96 306.39 600.05 297.79 598.44C295.38 595.29 296.15 590.64 297.68 591.09L297.69 591.1ZM312.11 568.79C309.09 568.87 306.52 569.12 304.29 569.43C295.94 570.09 287.29 571.1 277.63 572.68C270.36 573.88 263.25 575.52 256 576.36H255.59C255.59 576.36 255.59 576.39 255.6 576.41C252.22 576.78 248.8 576.98 245.32 576.86C239.29 576.66 233.63 576.47 227.62 577.03L218.7 577.87C206.18 579.03 194.69 581.13 182.67 584.42C170.97 587.61 160.08 590.87 149.03 596.32C147.31 597.16 143.8 596.94 142.48 595.67C141.28 594.51 140.87 591.59 141.32 589.63C142.54 584.36 143.49 579.86 144.41 574.6C144.68 573.07 145.38 571.6 146.38 570.45C146.58 570.61 146.79 570.78 146.98 570.96C147.03 570.55 147.08 570.14 147.12 569.72C148.65 568.42 150.68 567.8 152.98 568.55C155.45 569.36 157.89 569.88 160.31 570.17C163.86 571.31 167.07 572.24 173.63 570.73C190.9 566.77 197.21 570.12 207.74 551.15C209.91 547.23 211.12 543.76 210.48 539.19L215.41 537.87C218.12 535.12 220.75 535.82 223.4 537.71C228.81 541.56 241.89 542.03 248.73 538.53L258.5 533.54C263.28 535.9 268.27 533.32 269.69 535.93C271.8 539.8 265.43 544.14 262.57 546.89C255.27 548.68 255.37 551.63 246.96 550.35C244.19 549.93 240.45 550.67 238.09 549.6C227.33 544.71 233.01 551.22 220.87 542.43C218.81 540.94 215.77 540.51 213.6 541.08C213.49 546.27 216.94 548.55 220.24 551.19C221.86 552.49 223.85 555.04 225.62 555.73L233.54 558.83C235.48 559.59 238.83 561.22 240.88 561.43C247.89 562.14 261.88 562.9 267.52 558.93L273.32 554.86C275.96 553 279.06 550.29 281.26 548.14L284.67 536.03L286.89 535.24C286.89 536.14 287.22 537.08 287.98 537.93C290.94 541.23 294.1 544.58 297.97 546.83C299.4 549.43 301.09 550.3 305.79 554.52C310.17 558.44 315.52 556.1 323.08 558.9C323.95 559.02 326.09 558.53 327.07 558.34C330.45 560.32 333.76 558.22 336.85 557.62C342.04 556.62 346.7 556.81 351.14 553.09C352.61 551.85 355.65 550.99 357.32 549.81C361.38 546.96 364.01 542.67 367.47 539.01C368.84 537.56 370.83 539.61 372.11 540.52C373.85 541.75 381.8 544.34 385.49 544.14C388.38 543.98 390.49 545.05 393.23 545.78C396.27 546.59 401.07 546.59 404.18 545.75C406.91 545.02 409.59 542.94 412.16 542.43C415.69 541.73 417.25 540.32 419 537.18C420.01 535.37 423.34 533.13 425.31 532.67C429.78 531.63 432.95 533.64 433.97 537.77C434.02 538 434.09 538.26 434.14 538.52C434.14 538.72 434.15 538.93 434.18 539.14C434.26 539.73 434.42 540.3 434.61 540.87C434.84 541.95 435.11 542.99 435.48 543.71C436.3 545.29 437.5 546.46 438.85 547.43C439.48 548.19 440.09 548.94 440.64 549.67C443.26 553.13 445.78 556.44 449.5 558.8C449.97 559.09 450.45 559.37 450.93 559.64C450.08 560.56 448.77 561.41 447.94 561.49L421.97 563.88L402.87 565.25L382.09 567.29L353.18 567.81C353.21 567.68 353.24 567.55 353.28 567.43C352.3 567.51 351.3 567.67 350.3 567.86C345.23 567.95 340.43 568.02 335.8 568.1C334.26 567.99 332.71 567.96 331.02 568.07L327.89 568.27C324.11 568.37 320.4 568.49 316.7 568.66L312.11 568.79ZM338.27 593.39C338.04 593 337.81 592.6 337.57 592.2C337.98 592.79 338.36 593.4 338.68 594.04C339.56 595.28 340.22 596.7 340.59 598.35C340.92 599.83 341.23 601.41 341.48 603.05C341.23 603.25 340.98 603.4 340.82 603.43C337.67 604.01 340.64 597.38 338.27 593.39ZM318.35 589.81C320.91 589.68 324.3 589.05 326.34 590.52C328.35 591.97 334.56 599.07 333.12 600.71C332.77 601.12 331.84 601.51 330.97 601.7C326.78 602.63 324.76 601.46 323.19 598.21C321.42 594.59 317.73 594.19 318.34 589.8L318.35 589.81ZM323.51 610.22C323.96 609.05 326.4 606.77 327.48 607.42C330.63 609.32 333.13 610.52 336.83 611.46L341.42 616.52L341.32 623.96C341.25 624.31 341.16 624.66 341.08 625C339.27 624.82 338.45 624.12 337 623.18C331.71 619.74 321.52 615.38 323.51 610.22ZM341.24 682.25C344.94 673.8 348.33 660.49 350.5 647.07C350.82 647.2 351.14 647.32 351.46 647.45C351.16 647.1 350.88 646.72 350.62 646.34C352.86 632.18 353.73 617.99 352.16 609.35L349.71 595.84C349.13 592.67 350.64 588.51 352.62 586.65C354.67 584.71 359.14 583.71 362.13 584.33C374.45 586.87 385.61 586.11 397.83 584.81C408.36 583.69 418.74 584.38 429.54 584.18C431.56 584.14 434.81 585.3 435.77 586.61C437.05 588.36 437.47 591.59 437.6 594.08L438.61 613.65L440.96 644.69C442.51 659.45 448.52 672.63 454.24 686.14L462.69 706.06C464.35 709.97 461.72 714.68 459.02 717.68C452.99 724.37 445.01 727.88 436.84 732.22C427.72 737.05 419.25 739.29 409.02 739.49L393.43 739.8C381.14 740.05 368.66 738.66 357 734.53C348.97 731.68 326.52 715.87 331.27 705.04L341.25 682.24L341.24 682.25ZM462.05 749.66C462.18 752.55 459.6 754.56 456.95 754.76C455.98 754.83 455.01 754.9 454.04 754.97C453.65 755.45 453.21 755.91 452.73 756.36C450.99 757.94 448.63 758.26 446.55 757.16C444.65 756.16 443.51 753.45 444.21 751.4C444.66 750.08 445.27 748.97 446.07 748.01C446.91 746.11 448.31 744.88 450.37 744.16C451.7 743.69 453.15 744 454.36 744.76C455.22 744.69 456.09 744.63 456.96 744.57C459.81 744.36 461.94 747.07 462.06 749.67L462.05 749.66ZM512.2 845.34L486.16 850.93C475.46 853.23 465.17 853.34 454.22 853.76L404.47 855.7L382.53 854.93C373.79 854.62 365.53 855.35 356.81 854.65C344.36 853.66 332.84 851.48 320.96 848.02L291.43 839.42C278.39 835.61 266.94 829.42 255.84 821.74C234.96 807.27 231.76 804.93 217.75 783.64C214.17 778.18 211.93 772.5 210.44 766.02C204.91 741.92 205.61 733.03 215.18 711.01C215.48 710.32 215.82 709.62 216.18 708.92C216.81 708.61 217.38 708.09 217.82 707.32C220.76 702.26 224.13 697.71 227.89 693.59C236.82 684.6 248.18 676.75 257.1 673.37L287.89 661.67L306.79 656.72C312.41 655.25 318.32 654.75 324.07 653.35C327.05 652.62 330.45 653.29 331.52 656.82C333 661.69 332.21 668.13 328.43 672.17C324.44 676.45 300.49 676.76 286.59 688.67C278.6 695.51 273.17 705.55 269.31 715.29C267.4 720.07 266.58 725.61 265.94 730.55C264.13 744.34 274.56 761.68 286.76 768.87C293.37 772.76 299.61 778.3 307.2 780.18L331.14 786.14C340.85 788.57 350.61 789.88 360.5 791.62C375.15 794.21 394.03 794.51 409.17 793.49C427.17 792.28 444.05 787.53 461.37 782.94C470.62 780.49 478.33 777.14 487.03 773.12L501.1 766.62C508.94 763 515.28 757.38 522.87 753.09C537.87 744.61 547.01 714.97 527.08 696.41C496.72 668.12 476.57 683.91 470.02 677.41C468.21 675.62 466.48 673.37 465.07 670.93C465.35 670.92 465.63 670.9 465.91 670.9C465.61 670.34 465.32 669.78 465.06 669.23L462.4 663.53C462.28 663.27 462.17 663.01 462.05 662.73C461.91 661.81 461.85 660.89 461.87 660C461.92 658.1 462.05 656.53 461.92 655.06C464.41 654.88 466.32 656.47 468.7 657.17C471.36 657.96 474.45 657.58 477.43 657.53L484.38 658.66C485.37 658.94 486.38 659.16 487.23 659.12L495.98 660.53C496.35 660.59 496.73 660.65 497.1 660.71C497.57 660.85 498.05 660.95 498.55 661.01C499.07 661.08 499.64 661.15 500.24 661.23C524.82 665.39 553.7 672.07 572.19 688.63C578.31 694.11 579.71 702.33 582.24 709.62C587.41 724.44 575.38 722.29 562.67 736.27C556.05 743.56 549.99 751.47 544.96 760.03C535.99 775.3 533.96 780.56 528.21 797.3C521.35 817.28 527.52 842.06 512.18 845.34H512.2ZM483.1 722.76C484.49 718.89 485.89 715.02 487.29 711.15C487.3 709.53 487.2 707.93 487.13 706.44C486.97 702.95 489.79 701.32 492.49 701.55C498.89 697.58 505.46 703.94 506.72 710.09C507.54 714.11 504.57 717.06 502.34 720.05C500.08 723.09 497.87 726.17 495.52 729.14C490.99 734.88 485.5 739.04 478.5 741.29C472.23 743.3 469.57 733.46 475.79 731.46C478.88 730.47 481.43 728.85 483.68 726.87C482.86 725.76 482.53 724.33 483.1 722.76ZM797.42 850.85C797.34 852.61 795.58 855.78 795.73 857.88C796.33 866.17 793.12 872.93 790.44 879.71C789.34 882.5 789.24 886.75 787.84 889.42C785.84 893.2 784.17 896.58 782.67 900.53C781.12 904.61 777.95 908.36 776.09 912.14C771.8 920.82 765.77 925.84 757.13 930.06L748.74 934.17C746.27 935.39 743.64 937.3 741.01 938.46L730.39 943.13C726.98 944.63 724.02 945.34 720.87 947.08C733.55 935 743.35 920.03 752.71 905.2C753.41 904.1 753.27 903.03 752.71 902.23C753.68 900.36 754.4 898.38 754.08 896.8C750.8 894.93 747.88 898.17 746.25 900.38L739.11 910.11C737.92 911.73 735.22 914.57 733.53 916.12L724.33 924.58C718.32 930.1 713.94 930.84 711.77 934.8C710.07 937.91 707.35 938.52 704.9 940.22L691.12 949.73C684.53 954.26 679.25 956.57 672.63 957.01C675.87 954.2 678.79 950.96 681.58 947.66C685.13 943.45 688.64 939.33 692.75 935.66C696.08 932.68 698.43 929.92 697.28 925.27C697.01 924.21 695.99 923.32 694.87 923.12C694.85 923.04 694.84 922.96 694.82 922.89C694.68 922.94 694.56 923.02 694.43 923.08C694.15 923.07 693.87 923.1 693.6 923.2C692.73 923.51 691.85 923.83 690.98 924.14C690.01 923.69 688.85 923.79 687.91 924.87C684.36 928.98 680.56 932.86 676.53 936.5L673.37 938.49C663 945.04 649.45 955.35 636.57 956.64C621.37 958.16 606.74 954.72 592.51 950.16C587.6 948.59 584.53 945.43 580.77 942.06L570.63 932.99L556.65 916.89C552.55 912.17 549.28 906.39 546.04 901.04C539.68 890.56 537.63 878.96 535.34 867.1C532.68 853.36 532 840.07 534.77 826.11C537.86 810.51 532.25 819.31 541.64 795.06C545.23 785.79 549.52 777.59 554.59 769C558.6 762.22 562.07 755.8 567.38 749.81C573.37 743.04 579.1 735.79 587.63 732.17L595.36 728.87C606.76 724.02 617.83 716.69 630.65 715.98C650.14 714.91 674.16 714.78 693.06 719.39C703.43 721.93 713.27 725.28 723.28 729.1C737.78 734.62 758.43 750.05 767.38 762.59C772.52 769.8 773.69 774.02 779.49 781.61C780.96 783.53 783.25 786.29 784.27 788.3L792.05 803.53C794.81 808.96 795.62 816.11 796.99 822.49C798.87 831.34 797.83 841.35 797.4 850.87L797.42 850.85ZM723.1 935.81C723.42 935.57 723.77 935.33 724.15 935.08C723.89 935.37 723.63 935.67 723.36 935.96C723.27 935.91 723.19 935.85 723.1 935.81ZM829.72 878.74C825.65 879.26 821.74 879.1 816.94 878.79C816.73 878.78 816.48 878.72 816.23 878.63C811.94 876.56 810.65 871.94 811.43 867.33L814.29 850.52C814.6 848.71 816.6 846.27 817.93 845.31C819.98 843.85 822.79 844.01 825.67 845.36C825.7 845.19 825.74 845.01 825.78 844.84C833.15 849 832.13 850.74 836.47 858.64C838.37 862.11 838.79 865.74 835.83 869.1C836.24 872.72 833.91 878.19 829.71 878.72L829.72 878.74ZM855.63 862.68C852.2 857.05 856.02 852.04 860.96 849.24C863.27 847.93 864.93 848.51 866.61 850.19C868.9 852.49 870.09 854.52 869.98 858.09C869.76 864.91 861.15 862.26 855.63 862.68ZM863.6 841.62C856.8 841.01 851.68 844.71 846.92 849.75C845.92 849.53 843.88 847.5 843.52 846.31C842.22 841.9 839.18 840.38 835.86 837.96C832.76 835.7 829.94 834.52 826.08 833.47C821.97 832.36 820.74 833.65 819.58 834.68C817.52 833.85 815.9 830.89 815.45 828.86L811.05 808.61C809.26 800.36 806.03 793.14 801.73 785.91C798.62 780.68 796.61 774.59 792.87 769.89C788.73 764.67 786.09 759.25 781.93 754.12L769.78 739.09C760.56 727.69 737.48 713.64 723.05 709.42L688.14 699.23C665.35 696.18 642.89 695.77 620.02 698.8C610.23 700.09 606.3 707.83 601.04 706.72C595.84 705.62 591.57 693.92 588.39 688.33C585.3 682.87 580.64 678.72 575.42 675.41C575.77 675.32 576.12 675.24 576.47 675.16L568.96 671.09C565.89 669.43 561.76 668.81 559 666.71C556.09 664.49 553.75 663.28 549.76 663.62L543.81 660.17C542.88 660.8 542.09 661 541.38 660.97L539.55 660.37C538.58 659.81 537.64 659 536.5 658.57C534.3 657.74 531.36 657.17 528.65 656.61C528 656.18 527.3 655.51 526.76 654.84C525.18 654.76 523.59 654.65 522 654.53C521.48 654.14 521.23 653.69 521.34 653.15C522 650.19 526.74 649.91 529.35 647.41L534.71 642.3C537.07 640.05 537.37 635.61 539.06 633.33C541.3 630.33 546.17 633.38 547.53 636.06C549 638.98 550.67 640.9 552.78 643.2C558.36 649.25 567.18 651.65 572.44 653.79L581.2 657.34C587.21 659.78 594.54 657.85 601.42 657.31C611.34 652.01 608.03 655.3 616.16 647.68C617.28 646.63 618.59 644.49 619.63 643.21C624.51 641.76 629.45 642.72 633.73 644.75C634.77 649.38 636.67 654.49 640.51 657.07L649.14 662.88C650.73 663.95 652.21 664.71 654.1 665.59C655.76 666.36 658.22 668.42 659.86 668.8L667.31 670.54C669.17 670.97 671.75 672.23 673.51 673.1L696.99 673.17C702.03 668.81 707.33 669.64 710.44 662.55C710.65 662.06 711.52 660.95 712.01 661.05C712.49 661.15 713.36 661.54 714.02 661.84L719.78 664.42C721.29 665.09 723.02 666.55 722.68 668.12C722 671.19 722.11 673.58 721.97 676.56C721.82 679.6 722.77 681.26 723.64 683.81C725.09 688.1 725.61 692.01 729.73 695.23C733.98 698.57 738.21 702.58 742.87 705.53C745.53 707.21 749.19 708.23 751.91 709.57C758.26 712.69 764.33 713.46 771.31 713.5C775.73 713.53 784.91 714.34 788.2 709.84L789.81 707.64C790.17 707.16 792.19 707.4 792.57 707.97L797.4 715.26C793.59 720.9 791.67 734.24 794.53 739.8C796.28 743.22 798.66 747.58 801.8 749.79L816.66 760.22C818.92 761.81 822.17 763.27 825 764.88C829.04 767.18 840.99 767.33 846.45 766.53C847.88 766.32 849.73 765.52 850.83 765.8C852.43 766.2 853.53 768.74 852.41 770.03C850.36 772.38 849.14 774.88 847.68 777.34C844.45 782.76 844.8 787.47 846.71 793.27C847.79 796.55 849 798.76 851.28 801.73C855.28 806.96 860.53 812.93 865.36 817.5L872.78 824.51C874 825.66 877.36 826.01 879.2 826.14L890.18 826.93C891.51 829.46 888.47 832.22 885.41 832.42C879.93 832.77 878.27 842.97 863.6 841.64V841.62ZM891.07 849.52C890.36 851.01 887.89 852.94 886.36 851.33C884.35 849.21 885.59 841.39 887.8 842.22C888.98 842.66 892.39 846.81 891.07 849.53V849.52ZM890.63 813.26C885.04 814.67 879.4 813.47 876.3 809.54C870.61 802.34 867.39 800.41 860.86 792.7C859.62 791.23 858.37 787.25 858.52 785.35L859.03 778.45C859.08 777.75 860.21 776.08 860.92 775.99C862.23 775.83 867.91 778.75 868.23 781.85C868.6 785.45 868.45 789.56 871.05 792.04C879.07 799.73 872.93 798.16 883.75 804.54L888.86 807.54C889.94 808.17 890.89 808.91 891.46 809.52C892.02 810.12 891.5 813.03 890.64 813.25L890.63 813.26ZM890.77 792.5C888.53 790.88 873.01 774.29 879.14 772.55C880.06 772.29 881.15 773.38 882.09 774.45C886.54 779.52 891.49 784.39 894.27 791.1C893.96 792.16 891.46 793 890.77 792.5ZM910.48 825.26C906.99 831.66 909.43 833.67 903.07 838.22C900.72 837.39 898.9 835.41 898.94 832.79L899.06 824.68C899.11 820.92 905.61 822.69 907.37 814.99C907.5 814.43 908.5 813.42 908.83 813.09C909.17 812.75 910.57 814.1 910.57 814.64L910.48 825.25V825.26ZM904.02 804.82C905.11 805.19 906.05 806.03 907.35 807.79C905.41 808.78 902.63 808.99 901.57 806.89C901.18 806.11 903.24 804.57 904.02 804.82ZM912.39 791.15C912.18 793.18 908.8 792.78 907.56 791.6C902.76 787.02 909.85 781.57 888.01 767.09C886.82 766.3 884.18 765.96 883.71 764.85C883.12 763.46 883.27 760 884.71 759.65C886.83 759.13 889.43 760.23 891.18 761.21L900.78 766.52C906.65 769.78 909.5 777.21 912.48 783.3C912.98 785.09 912.66 788.68 912.4 791.14L912.39 791.15Z" fill="black"/>
<path d="M763.52 812.05C761.45 813.83 760.2 815.42 758.69 817.56L751.41 827.92C748.04 832.71 747.69 838.56 751.42 843.32C754.32 847.01 756.35 850.95 758.19 855.33C759.2 857.76 762.3 860.71 764.97 859.67C766.8 858.96 770.15 855.27 769.56 853.23C765.87 840.34 757.92 836.73 761.05 833.34L766.38 827.58C771.14 813.42 769.49 827.5 774.69 808.98C774.89 808.26 774.51 806.53 774.05 805.99C772.12 803.71 765.34 810.48 763.5 812.07L763.52 812.05Z" fill="black"/>
<path d="M755.49 778.07L747.3 778.76L734.81 793.64C733.72 794.95 731.66 796.41 731.39 798.17C730.06 806.74 722.89 809.69 726.37 812.06C729.1 813.92 732.32 807.12 737.1 807.4C738.81 807.5 741.04 810.24 742.27 811.87C741.3 817.74 735.26 822.68 737.67 827.74C738.53 829.54 741.14 830.38 743.01 830.11C744.44 829.89 746.47 828.27 747.37 826.47L756.78 807.51C759.27 802.47 757.51 793.81 759.68 789.11C762.12 783.84 756.33 777.98 755.49 778.06V778.07ZM748.05 803.69C746.52 805.42 741.95 803.34 741.16 800.9L747.73 794.28C750.13 796.84 750.31 801.13 748.04 803.69H748.05Z" fill="black"/>
<path d="M734.66 842.35C731.47 838.81 729.35 835.1 726.01 831.73L719.95 825.61C716.04 821.67 711.05 817.71 705.53 820.08C704.17 822.35 703.95 827.38 706.3 828.91C708.54 830.38 710.6 831.57 712.14 833.48L716.97 839.52C717.74 840.49 718.87 843.17 717.83 843.83C714.13 846.15 713.73 849.93 712.46 853.68L708.22 866.21C707.93 867.08 706.58 869.17 706.87 870.13C707.54 872.33 705.17 875.23 705.04 876.98C704.5 884.65 704.71 892.32 704.76 899.88L706.62 903.5C708.05 906.29 709.96 908.31 713.08 907.37C715.59 906.6 717.57 904.07 716.66 901.01C715.74 897.88 716.88 894.91 717.29 891.74L718.21 884.7C718.54 882.2 718.14 879.26 718.54 877.12C720.34 867.65 720.77 868.6 722.79 860.16L724.83 851.67C727.08 852.17 729.36 858.04 731.35 861.31L734.71 866.85C735.84 868.71 738.16 870.74 740.18 872.28C741.64 873.39 745.94 871.77 746.51 869.66C748.2 863.45 744.77 855.94 739.62 850.87C737.41 848.7 736.69 844.62 734.64 842.35H734.66Z" fill="black"/>
<path d="M711.09 801.82C713.37 803.7 717.3 802.91 718.13 800.26C719.07 797.28 717.91 794.9 716.77 792.31C713.93 785.82 716.2 784.81 715.02 777.57C714.71 775.65 716.97 773.68 717.77 771.77C719.09 768.63 720.46 764.27 724.52 763.85C728.18 763.46 730.57 767.18 731.07 770.42C731.59 773.84 733.2 780.68 737.05 780.64C739.72 780.61 743.81 774.5 743.05 772.76L739.45 762.59C738.55 760.96 736.21 758.04 734.86 756.6C730.94 754.81 726.09 752.99 721.82 754.32C717.56 755.65 712.88 758.67 710.44 762.29C709.74 763.32 704.87 773.35 704.87 773.37C704.43 774.89 703.91 778.31 703.99 779.89L704.39 788.7C704.72 796.1 704.1 796.04 711.11 801.82H711.09Z" fill="black"/>
<path d="M713.09 908.65C713.35 908.64 713.63 908.54 713.95 908.41C713.3 908.49 712.65 908.57 711.99 908.63C712.38 908.68 712.74 908.69 713.08 908.66L713.09 908.65Z" fill="black"/>
<path d="M704.48 745.99L703.96 738.34C703.92 737.75 703.48 736.52 702.97 736.42C699.24 735.71 697.57 743.04 696.98 745.92C696.37 748.92 693.85 752.24 693.4 755.29L692.09 764.22C690.82 772.84 691.44 766.93 688.68 776.96L686.65 784.35C686.34 785.48 686.65 787.8 687.39 788.62C688.02 789.32 689.97 789.99 691.3 790.12C695.77 790.57 698.14 788.33 698.65 784.48C698.96 782.16 702.51 774.16 702.71 772.8L704.21 762.5C704.97 757.27 704.84 751.33 704.47 745.98L704.48 745.99Z" fill="black"/>
<path d="M691.3 81.0303C696.83 81.7803 701.58 79.0504 701.92 73.2304C702.42 65.0004 697 61.0604 691.85 56.3104C673.32 39.1604 666.09 25.3704 656.15 2.67035C655.62 1.47035 653.34 -0.109646 652.15 0.0103537C650.97 0.130354 649.04 2.21035 648.79 3.50035C644.32 27.1204 658.28 50.9404 672.99 68.2904C678 74.1804 683.27 79.9503 691.29 81.0303H691.3Z" fill="black"/>
<path d="M690.99 804.451C686.38 802.571 684.1 798.041 680.56 796.211C671.91 791.741 656.23 788.821 651.19 797.401C648.57 801.871 651.65 806.32 652.94 810.11C648.59 820.31 651.37 835.62 651.28 845.68L651.18 856.461C651.15 859.531 651.21 862.111 651.85 865.211L653.49 873.18C653.88 875.08 656.12 874.151 654.89 884.821C654.56 887.661 654.84 889.881 654.92 892.651L655.38 909.581C655.43 911.391 659.46 925.14 667.16 923.6L674.97 922.04C678.24 921.39 683.34 918.361 685.77 915.531C689.35 911.361 691.23 906.091 692.91 901.321C694.21 897.611 692.08 893.54 692 889.93C691.91 886.26 691.03 883.661 689.99 880.331C686.53 869.251 682.64 872.541 682.45 869.001C682.42 868.421 683.24 867.59 683.9 867.04C687.29 864.21 691.5 857.82 694.04 853.91C695.83 851.17 697.88 848.891 698.19 845.191C698.41 842.641 699.92 839.821 700.31 837.401C701.39 830.641 696.63 809.771 690.98 804.441L690.99 804.451ZM677.71 908.16C676.17 909.65 672.97 910.391 671.36 911.501C670.27 912.251 668.78 913.101 667.85 913.081C664.27 912.981 663.64 902.061 662.99 898.401C662.3 894.551 662.63 890.541 663.15 886.591C662.35 883.671 662.09 879.781 664.69 877.62C666.89 875.8 670.45 877.16 672.64 878.43C673.46 878.91 675.93 879.28 676.62 879.99C684.29 887.97 684.48 899.03 677.73 908.16H677.71ZM682.53 851.941L675.43 858.99L671.22 859.771C669.2 861.991 665.33 863.9 662.75 861.97L662.27 847.831C662.2 845.771 661.84 844.09 661.67 841.99L660.83 831.691L660.16 825.451L658.23 814.591C657.69 811.541 657.25 807.97 659.97 805.6C661.44 804.32 664.88 805.5 666.55 805.41C671.99 805.14 674.92 807.951 678.68 810.391C681.83 812.431 683.46 813.39 684.1 817.87C684.37 819.81 687.07 822.921 687.08 825.261L687.12 840.36C687.12 844.01 683.69 847.05 682.54 851.93L682.53 851.941Z" fill="black"/>
<path d="M692.89 922.34C693.61 922.2 694.34 922.06 695.07 921.94C694.61 921.67 693.68 921.91 692.89 922.34Z" fill="black"/>
<path d="M655.99 775.84C656.51 777.05 658.31 778.66 659.49 778.5C660.7 778.34 662.5 776.87 663.37 775.48C668.57 767.15 657.43 758.99 664.66 758.33C666.47 761.09 669.75 765.73 670.25 769.03L671.79 779.35C672.29 782.69 674.23 785.26 677.96 785.29C685.25 785.34 683.74 771.23 683.61 764.77C683.49 758.56 686.89 765.29 685.39 745.49C685.13 742.08 686.97 737.96 686.01 734.7C685.15 731.78 681.2 732.16 679.06 732.7C677.28 733.15 674.27 735.03 674.24 737.67L674.1 749.66C674.1 750.1 673.44 751.34 673.07 751.26C671.32 750.89 668.4 747.04 664.21 743.53C660.47 740.4 661.25 735.93 653.72 736.22C651.3 736.32 648.64 736.58 647.36 738.4C644.76 742.09 648.43 751.8 648.62 753.07L649.41 758.52C649.76 760.93 650.74 763.75 651.61 765.76L655.99 775.84Z" fill="black"/>
<path d="M611.02 78.4701C617.04 94.3101 630.12 113.32 642.71 124.92C649.6 131.24 658.23 134.71 667.36 133.69C672.04 133.17 675.2 129.41 675.6 125.53C676.06 121.12 673.09 117.27 668.45 115.86C660.25 113.36 655.22 108.63 649.94 102.83C638.25 90.0001 628.37 76.4501 621.78 60.1301L607.28 24.1801C605.19 18.9601 605.98 12.8201 599.72 9.37012C597.44 13.8901 597.31 19.3901 598.09 24.5801C600.88 43.0301 604.3 60.8501 611.01 78.4701H611.02Z" fill="black"/>
<path d="M646.74 765.69C645.16 761.25 642.02 757.51 639.26 753.7C637.49 751.23 636.22 747.96 634.14 745.78C632.98 744.56 630.4 743.45 629.84 742.1C629.17 740.45 628.52 738.12 626.65 738.52C624.96 738.89 624.12 742.2 624.7 743.66L627.95 751.94C629.45 755.77 627.86 758.32 624.7 760.32C624.07 760.72 623.12 762.09 622.5 761.87C618.87 760.54 622.15 757.89 613.37 752.37C612.05 751.54 610.57 750.6 609.41 750.44C608.51 750.32 606.43 751.7 606.47 752.66C606.58 755.55 609.92 759.08 610.36 761.61C611.23 766.56 612.85 769.81 615.62 773.81L619.52 779.43L624.23 785.74C625.26 786.66 628.46 784.92 629.71 783.92C632.41 781.76 632.04 779.26 630.85 776.4L627.42 768.14C626.57 766.09 632.57 764.34 633.4 766.14L637.35 774.59C638.32 776.66 638.98 778.29 641.45 778.72C643.88 779.15 646.21 778.7 647.55 777.28C649.34 775.38 649.31 772.99 648.51 770.73L646.72 765.7L646.74 765.69Z" fill="black"/>
<path d="M639.76 905.13L629.21 903.03L626.11 897.5C627.56 889.69 625.19 890.03 628.02 883.02L626.01 877.81L627.57 869.42C627.73 868.56 628.76 866.99 629.47 866.5C630.08 866.08 632.15 867.02 632.92 866.81C635.4 866.13 638.6 864.75 641.18 863.58C644.44 862.11 646.05 857.67 644.26 854.91C642.45 852.12 638.73 851.1 635.61 852.54C629.24 855.48 627.03 860.14 626.71 854.67L626.15 845.01C625.61 835.68 622.47 835.52 622.85 831.51C623.14 828.43 626.45 825.76 627.51 823.04C630.75 814.75 632.37 816.96 639.68 807.14C641.25 805.03 642.83 801.15 640.6 799.04C636.48 795.13 626.49 803.12 623.94 806.87C608.14 830.14 616.69 813.04 616.63 832.46L616.58 850.05L616.5 872.74C616.5 873.83 615.85 876.04 615.93 876.91C616.21 879.89 617.17 883.95 615.88 886.53C612.55 893.18 616.15 890.23 614.02 902.53C613.54 905.33 611.53 909.38 614.37 911.71C623.73 919.38 624.29 919.08 635.58 922.24C640.67 923.67 643.36 920.96 645.53 916.95C647.19 913.89 647.77 911.55 645.18 908.47C643.77 906.79 642.11 905.6 639.74 905.13H639.76Z" fill="black"/>
<path d="M604.55 796.1C611.52 792.41 618.25 791.79 617.99 784.58C617.9 782.17 617.45 780.69 615.14 780.07C611.29 779.05 611.23 783.19 607.14 785.74C602.43 784.69 598.22 781.33 597.22 777.51C595.77 771.99 597.03 767.7 600.66 763.98C602.75 761.85 604.26 758.16 601.61 755.79C600.63 754.91 597.92 756.24 596.7 756.52C592.77 757.42 590.47 759.59 588.56 762.88C587.93 763.95 585.3 765.54 585.28 766.77C585.11 780.62 583.91 777.67 589.42 787.01C593.42 793.81 597.76 792.21 604.55 796.1Z" fill="black"/>
<path d="M609.16 850.67C607.64 847.39 607.01 844.22 604.11 841.66C602.19 839.97 599.88 837.76 597.59 836.81C595.76 837.96 592.89 839.45 591.72 840.75C589.87 842.8 587.38 845.55 586.21 847.78L582.46 854.97C581.26 857.26 580.18 859.5 578.77 861.62C576.82 867.36 573.38 872.22 570.5 877.69L566.72 884.85C564.99 888.14 567.28 890.76 568.51 893.53C569.69 896.15 570.79 897.29 573.24 898.55C575.97 899.95 578.33 902 581.95 901.38C585.68 905.02 590.01 903.39 593.84 902.11C597.72 900.81 600.23 899 602.84 895.88C605.16 893.11 607.97 890.52 609.77 887.26C612.6 882.07 612.39 876.11 613.47 870.49C615.17 861.61 612.91 858.75 609.16 850.67ZM604.51 872.56L600.86 883.8C599.79 887.08 597.56 888.55 594.49 889.64C591.8 890.59 589.17 891.24 586.76 888.37L581.85 889.14C579.76 885.43 581.75 881.28 584.16 878.76C585.1 877.77 585.08 874.95 585.56 873.7C586.32 871.73 588.73 869.6 589.33 867.68C590.51 863.96 591.08 860.23 593.27 857.15C597.23 851.58 593.7 855.59 596.32 850.5C597.5 848.2 604.28 863.37 604.62 864.15C605.45 866.09 605.14 870.63 604.51 872.54V872.56Z" fill="black"/>
<path d="M573.57 815.89C578.25 818.39 582.64 820.74 587.64 822.88C590.28 824.01 595.37 820.92 596.41 818.6C596.84 817.62 597.18 815.39 597.76 814.71C601.67 810.03 605.45 804.85 600.26 799.34C599.66 798.69 597.38 797.87 596.61 798.29C595.84 798.72 594.78 799.83 593.98 800.78C587.6 808.33 590.95 813.41 584.81 810.02C583.48 809.29 581.82 808.27 581.75 807.22C581.68 806 582.26 804.26 582.78 803.31L586.25 797.07C587.25 795.27 587.46 793.86 585.96 791.95C585.33 791.15 583.7 789.8 582.8 789.92C580.31 790.24 574.67 795.14 573.72 800.08C567.48 796.56 580.65 785.22 577.22 779.74C574.78 775.83 565.33 785.89 562.59 791.12C558.48 798.94 561.8 803.49 567.14 809.44C569.18 811.72 570.69 814.35 573.57 815.89Z" fill="black"/>
<path d="M583.47 836.81C584.59 832.36 579.32 829.42 576.2 828.24L569.15 825.58C565.41 824.17 562.44 822.26 558.04 822.45C559.47 812.58 556.58 813.32 559.83 806.73C560.94 804.48 557.21 800.76 554.98 801.68L550.11 812.09C548.91 814.65 547.81 817.09 547.08 819.84C545.13 827.26 542.1 842.96 550.91 846.86C552.09 847.39 554.63 846.32 555.39 845.34C558.33 841.53 555.39 836.99 557.42 832.33C558.63 831.83 560.38 833.48 561.5 834.18L571.99 840.75C575.26 842.8 582.45 840.92 583.48 836.81H583.47Z" fill="black"/>
<path d="M465.13 294.58L441.65 276.37C437.88 273.45 432.94 270.72 428.26 269.72C422.1 268.41 408.69 272.35 408.96 281.99C409.25 292.07 427.51 298.29 437.52 298.97C445.57 299.52 452.43 300.72 460.96 302.85C462.87 303.33 465.77 301.45 466.19 300.14C466.62 298.82 466.23 295.44 465.12 294.59L465.13 294.58ZM421.67 279.88C427.63 279.16 432.59 280.96 436.69 283.9L440.86 286.88C437.54 287.55 424.58 284.6 421.67 279.87V279.88Z" fill="black"/>
<path d="M338.21 242.13L361.79 240.27C368.45 239.75 385.65 240.88 397.59 240.51L413.65 239.99C415.62 239.93 419.04 239.47 419.58 237.2C420.61 232.78 416.79 226.01 411.85 225.87C399.26 225.5 387.08 225.17 374.54 225.91L339.5 228C333.87 228.34 329.26 233.44 331.13 239.15C331.89 241.42 335.85 242.32 338.19 242.13H338.21Z" fill="black"/>
<path d="M338.76 283.35C338.09 280.33 335.84 276.47 332.41 275C328.89 273.48 324.72 274.52 321.43 276.03C313.42 279.75 305.79 283.64 299.12 289.3C294.02 293.62 279.87 308.51 286.77 313.7C288.01 314.64 291.16 315.16 292.87 314.39C300.71 310.83 307.84 307.41 316.16 304.25C324.61 301.04 341.48 295.71 338.77 283.36L338.76 283.35ZM330.42 287.86L324.17 291C320.69 291.41 316.4 291.16 314.4 294.92L310.49 291.98L318.69 284.91L326.69 283.11C327.61 282.9 329.8 283.86 330.46 284.46C331.12 285.06 331.25 287.45 330.44 287.86H330.42Z" fill="black"/>
<path d="M167.93 436.44C168.07 436.56 168.19 436.69 168.32 436.81C168.21 436.66 168.11 436.53 167.99 436.4C167.97 436.41 167.95 436.43 167.93 436.44Z" fill="black"/>
<path d="M93.55 626.84C89.6 619.56 85.97 613.14 80.02 607.32C68.64 596.19 65.71 597.5 51.56 587.22C47.85 584.54 43.34 583.5 39.14 585.71C36.5 587.1 34.47 589.77 34.04 592.62C32.85 600.45 47.29 607.14 54.08 612C60.96 616.92 66.76 622.7 73.51 628.15C83.24 642.99 92.56 657.64 100.19 673.77L104.49 682.84C106.38 686.82 117.44 686.44 107.17 655.58C103.74 645.27 98.68 636.32 93.55 626.84Z" fill="black"/>
<path d="M51.9 676.35C48.34 670.7 45.55 664.52 41.25 659.45C35.36 652.48 30.37 645.77 25.07 638.29C20.73 632.16 4.88997 629.15 0.849972 638.47C-0.520028 641.65 -0.270028 645.76 1.85997 648.49L27.42 681.22C31.77 686.79 36.44 690.97 39.4 697.59C42.44 704.42 45.14 711.09 46.82 718.5L52.44 743.21C53.89 749.61 55.67 755.37 57.58 761.85C57.94 763.09 60.24 764.77 61.42 764.6C67.32 763.66 66.34 743.03 66.5 737.87C67.02 721.56 65.45 706.23 60.39 690.57C58.69 685.32 54.87 681.09 51.89 676.37L51.9 676.35Z" fill="black"/>
</g>
<defs>
<clipPath id="clip0_177_1226">
<rect width="928.28" height="972.66" fill="white"/>
</clipPath>
</defs>
</svg>
