<svg width="1138" height="1145" viewBox="0 0 1138 1145" fill="none" xmlns="http://www.w3.org/2000/svg">
<g clip-path="url(#clip0_177_1192)">
<path d="M1109.47 961.73L1107.95 958.72C1106.14 955.12 1108.99 956.91 1105.89 948.78C1103.88 943.53 1101.1 939.41 1097.24 935.52L1091.42 929.65C1088.83 927.04 1085.46 926.55 1082.13 925.33C1078.98 924.17 1076.33 923.01 1072.72 923.2C1066.75 923.52 1065.64 925.89 1064.87 923.86C1062.15 916.7 1058.18 909.6 1052.55 904.75C1051.92 904.21 1051.01 903.21 1051.07 902.58C1051.14 901.94 1051.8 900.55 1052.23 900.06C1054.89 897.06 1051.8 893.43 1051.48 890.76C1050.84 885.39 1050.53 881.13 1047.5 876.56C1044.98 872.75 1043.35 866.56 1038.58 864.5C1035.32 863.1 1031.74 859.89 1028.7 859.08L1013.39 855.04L1000.27 854.35C997.21 851.71 994.77 847.47 991.27 845.34C988.93 843.92 987.24 842.95 987.76 839.75C988.51 835.08 986.63 830.34 982.73 828C982.13 826.52 981.4 823.69 980.38 822.72L973.3 816.04C971.61 814.45 967.72 811.58 965.55 810.76C962.08 809.7 958.63 808.59 955.2 807.31C951.07 805.77 945.56 806.14 940.94 805.07C939.08 805.46 936.7 806.05 934.95 806.33L927.79 807.47C925.42 807.84 919.08 802.45 914.44 799.78C910.52 797.52 905.48 797.67 901.3 796.43C897.87 795.42 895.68 791.26 892.87 789.59C884.19 784.42 888.01 784.76 882.34 782.38L871.28 777.75L863.97 774.32C862.47 773.62 859.22 773.84 857.47 773.74C850.65 773.35 846.7 773.33 841.2 775.82C838.24 777.16 834.89 777.91 832.66 780.22C831.99 780.91 830.78 782.42 830.2 781.98C829.72 781.61 828.47 780.64 827.89 780.25C823.8 780.21 819.14 779.39 815.21 777.45C810.19 776.53 804.8 779.08 802.02 774.96C800.19 772.25 798.22 769.5 795.64 767.84L786.55 761.97L781.01 760.1C778.22 759.16 776.11 758.36 773.19 758.1C764.89 757.37 758.39 757.13 750.69 760.13C747.41 761.41 745.62 763.23 743.32 765.76C740.99 768.32 737.82 769.77 737.29 774L729.67 773.2C726.17 772.83 721.96 771.97 718.73 773.03C715.1 774.23 712.42 774.15 709.37 771.68C704.62 767.82 699.1 765.42 693.4 763.37C690.41 762.29 687.62 761.05 684.17 762.61C677.77 765.51 678.57 761.53 668.1 764.74C664.2 767.26 659.79 769.21 655.39 770.96C652.48 772.12 650.82 776.51 647.4 777.08C644.06 777.63 640.68 776.79 637.33 775.42C637.51 774.94 637.71 774.48 637.95 774.03C637.1 773.04 636.52 771.77 636.13 770.4V760.3C636.95 757.96 638.52 756.08 640.89 754.88C643.12 754.55 645.65 753.62 647.68 753.22C652.25 752.32 657.14 753.11 661.75 752.64C663.84 752.43 666.02 752.29 667.9 752.71C670.8 753.36 672.95 752.53 675.26 751.62C678.43 751.44 681.69 751.19 685.03 750.76C686.76 750.54 688.46 750.35 690.15 750.17C691.07 750.14 691.96 750.06 692.84 749.9C692.9 749.9 692.98 749.88 693.04 749.87C698.43 749.35 703.75 748.94 709.17 748.46C709.41 748.46 709.64 748.48 709.84 748.5C714.52 748.89 717.87 748.72 722.17 747.19L727.69 746.63C730.65 746.82 733.72 747.32 736.15 746.24C736.81 745.95 737.44 745.72 738.05 745.55L743.9 744.92C744.61 744.92 745.36 744.92 746.16 744.91L756.91 744.73C760.01 744.68 762.77 744.5 765.68 744.01C767.5 744.06 769.33 744.14 771.16 744.24L775.92 745.75L782.81 743.74C783.55 743.64 784.28 743.56 785.03 743.48L796.82 743.02C797.24 743.01 797.64 742.99 798.02 742.99C799.69 743.08 801.36 743.23 803.02 743.47C804.39 743.77 805.79 744.2 807.54 744.77C810.71 745.8 815.24 745.84 818.66 746.65L830.4 749.43C832.92 750.03 835.66 750.17 838.44 750.36C838.82 750.39 839.19 750.41 839.55 750.43C840.6 750.53 841.64 750.57 842.66 750.56C847.9 750.66 852.22 749.93 856.99 746.72C857.68 746.39 858.36 746.03 859.03 745.67C860.57 745.07 862.37 744.53 863.21 743.78C865.51 741.71 867.1 740.33 869.73 739.02C871.75 738.01 872.63 735.73 873.5 733.58C875.95 729.47 876.12 726.19 882.04 722.79C882.73 722.59 883.42 722.37 884.07 722.12C885.32 721.64 886.82 720.73 888.36 719.61C888.3 719.48 888.25 719.34 888.2 719.2C890.01 717.87 891.65 716.3 892.73 714.46C894.57 711.31 892.46 707.4 891.36 704.48C890.84 703.11 890.35 701.84 889.86 700.62C889.52 698.76 888.81 696.76 887.35 694.77C886.25 692.38 885.22 690.41 884.27 688.76C883.22 685 881.2 683.19 878.79 681.89C875 678.84 872.27 679.78 868.82 672.64C868.64 672.28 868.46 671.94 868.28 671.61L868.22 670.12C865.18 666.12 861.3 664.55 857.33 663.87C851.08 662.31 844.77 662.12 842.61 652.71L835.69 622.64C833.83 614.54 831.42 608.07 831.78 599.46C832 593.79 830.16 586.64 834.6 581.79C835.18 581.17 835.77 580.56 836.36 579.95C838.13 578.82 839.98 577.65 841.17 576.37L849.85 567.09C851.35 565.49 851.58 562.33 852.55 560.35C856.14 552.98 854.49 545.25 848.01 539.86C847.7 536.78 851.44 536.2 853.6 534.88C857.24 532.67 863.39 525.27 865.55 521.16C867.83 516.81 867.09 513.64 865.07 509.45C863.72 506.65 862.53 504.34 860.09 502.23C857.35 499.86 854.74 496.74 851.08 495.73C848.71 495.08 846.15 495.31 843.83 495.63C843.66 495 843.33 494.39 842.77 493.82C841.06 492.08 840.09 490.14 839.56 487.75C839.35 486.78 838.72 486 837.92 485.48C838.24 472.12 841.28 462.32 842.91 447.34L846.75 412.15L850.59 380.07C851.15 375.31 851.22 371.06 852.05 366.27C853 360.83 854.22 353.87 850.66 348.86C847.06 343.79 840.86 339.77 835.3 337.12L814.84 327.38C800.4 320.5 791.9 312.18 780.89 301.06C776.86 296.99 773.72 292.96 770.57 288.16L763.59 277.46L753.12 262.43C745.21 251.06 734.16 252.34 721.38 253.02L686 254.89L668.29 255.79L618.7 256.12L584.1 256.35L556.7 256.01L522.83 256.47C502.47 256.75 489.35 259.56 469.87 258.83C464.15 258.62 457.95 260.93 452.42 260.14L436.29 257.86C430.17 256.99 424.51 260.02 421.24 265.06C416.24 272.75 412.13 280.58 407.88 288.8C405.91 292.6 403.56 296.19 401.4 299.86C396.66 307.91 390.65 314.25 383.57 320.24L369.11 332.46C364.86 336.06 360.3 339.01 355.8 342.23C341.06 352.79 337.92 351.17 320.55 364.26C303.35 377.23 304.22 369.32 293.96 382.71C290.29 387.5 290.39 392.23 292.36 397.56C297.02 410.22 301.89 423.12 303.13 436.74L304.77 454.74L303.54 467.74C302.06 483.25 308.41 498.67 308.72 514.56L309.18 537.61C309.32 544.82 311.42 551.66 310.45 558.86C310.4 559.23 310.31 559.58 310.21 559.92C310.06 560.19 309.95 560.48 309.88 560.79C309.79 560.98 309.7 561.17 309.59 561.35C309.66 561.38 309.73 561.42 309.79 561.46C309.79 562.14 310 562.88 310.5 563.63C310.56 563.73 310.63 563.81 310.69 563.91C310.49 564.44 310.29 564.97 310.06 565.49C309.93 565.51 309.79 565.52 309.66 565.53C305.32 565.83 304.12 568.31 302.56 571.54C301.09 574.57 299.53 577.35 299.72 581C300.15 589.21 300.6 591.15 305.21 598.02C305.97 599.16 309.4 600.14 309.68 601.45C310.41 604.81 309.62 607.65 309.58 610.9C309.53 615.81 314.44 616.8 312.35 630.98C312.18 632.11 311.05 634.19 311.08 635.29C311.13 637.53 311.05 640.03 310.94 642.3C310.61 649.72 310.59 657.06 310.91 664.5C311.1 668.94 312.06 674.93 308.3 679.37L307.62 686.12C300.03 689.84 296.28 687.49 290.64 692.67L286.45 700.15C286.12 704.88 286.17 712.04 286.3 716.49C286.33 717.33 293.08 727.71 300.95 725.31C301.64 725.11 302.22 725.03 302.72 725.08C302.67 725.36 302.65 725.65 302.69 725.95C302.97 728.43 303.25 730.92 303.54 733.4C303.54 733.43 303.54 733.46 303.55 733.49C303.18 733.49 302.8 733.48 302.43 733.47C302.55 739.79 299.58 748.19 298.79 754.33L296.84 769.52C296.14 775.05 296.32 780.48 299.25 785.33C306.28 796.99 324.17 787.04 333.6 783.2C351.79 775.79 370.52 770.65 390.05 768.06L414.35 764.86L430.04 762.67C431.88 762.42 433.81 762.11 435.74 761.92C435.67 762.02 435.59 762.11 435.52 762.21C437.27 762.25 438.64 762.64 442.53 761.97C443.2 762.08 443.86 762.22 444.51 762.42C446.42 763 447.91 763.94 449.11 765.15C449.66 765.08 450.2 765.01 450.75 764.95C451.28 765.91 451.77 766.85 452.28 767.48C454.09 769.74 456.12 771.62 455.96 774.56C455.74 778.75 457.31 782.05 459.63 785.14C461.3 787.36 462.68 789.91 464.94 791.41C471.85 796 478.41 800.81 486.64 802.91C489.67 803.68 493.99 803.12 497.22 802.88L503.09 799.79C504.29 799.16 506.77 801.5 508.08 802.11C510.6 803.31 513.32 805.17 515.03 807.97L516.85 808.43C516.58 808.74 516.31 809.05 516.03 809.35C516.76 810.23 517.33 811.19 517.62 812.23C517.34 812.24 517.06 812.28 516.76 812.35C476.06 822.16 426.67 830.22 399.19 864.75C391.66 872.5 385.59 881.46 381.26 891.8C378.3 898.86 376.46 905.33 376.75 913.31C377.14 924.01 375.91 935.14 379.33 945.53C383.84 959.23 392.93 970.28 401.99 981.04C409.79 990.3 418.12 997.27 428.33 1003.48L443.83 1012.93C458.53 1021.89 474.79 1025.84 491.45 1030.05C500.22 1032.26 508.33 1034.93 517.35 1035.98L540.53 1038.66C559 1040.81 557.82 1039.24 573.76 1040.26C595.94 1041.69 617.58 1039.93 639.73 1039.42C668.17 1038.77 670.4 1035.4 695.94 1030.32C699.04 1029.72 702.94 1032.19 703.74 1035.36C705.77 1043.4 706.69 1053.96 709.11 1062.06C711.07 1068.67 713.37 1075.54 716.7 1081.65C725.57 1097.91 740.47 1114.84 754.43 1127.27C765.18 1136.85 790.23 1143.5 804.56 1144.02C817.77 1144.51 830.48 1145.32 843.57 1144.08L857.67 1142.73C862.11 1142.32 866.31 1142.06 870.61 1141.38L891.14 1138.1C899.57 1136.75 906.69 1133.88 914.43 1130.39C926.01 1125.17 936.88 1119.68 948.09 1113.53C955.36 1109.52 962.08 1105.7 966.77 1098.26C971.6 1090.61 976.41 1082.55 980.72 1074.47C983.4 1069.43 986.04 1066.01 992.89 1067.32C995.49 1067.82 998.16 1068.13 1000.85 1068.21C1000.83 1067.98 1000.82 1067.75 1000.8 1067.52L1001.28 1067.57L1011.64 1066.26C1014.35 1065.92 1019.08 1064.47 1020.84 1062.41L1026.45 1055.86C1028.53 1053.43 1030.38 1051.5 1029.94 1048.38C1029.09 1042.35 1037.24 1048.65 1042.4 1047.36L1054.2 1044.4C1056.25 1042.81 1059.15 1040.1 1060.98 1038.08C1061.97 1036.98 1061.99 1035 1063.79 1035.38C1069.36 1036.56 1076.24 1035.85 1079.61 1030.75C1090.31 1014.55 1090.36 1021.05 1095.17 1014.34L1099.7 1008.02C1102.49 1004.13 1103.28 1000.75 1103.79 996.13C1104.16 992.79 1105.07 989.67 1103.76 986.38C1104.33 987.62 1102.12 979.33 1101.94 978.73C1101.69 977.01 1107.81 974.09 1107.71 965.19C1107.87 964.32 1109.84 962.57 1109.44 961.78L1109.47 961.73ZM868.8 692.27C870.53 691.46 872.23 691.71 873.75 692.58C874.47 693.78 875.45 695.12 877.43 696.19C877.73 696.64 878 697.11 878.25 697.57L879.7 703.35C879.7 703.35 879.71 703.43 879.73 703.47C879.61 705.95 878.51 708.08 876.6 709.23C873.82 710.92 869.94 710.51 867.32 707.64C863.66 703.64 863.27 694.88 868.8 692.27ZM1041.89 916.8C1045.95 917.71 1047.1 919.99 1048.07 923.85C1048.67 926.28 1051.54 929.72 1048.6 932.56C1047.46 933.65 1044.08 931.35 1043.05 930.02L1036.21 921.15C1035.03 919.63 1033.36 916.66 1032.24 914.92C1031.79 914.22 1032.78 912.32 1033.49 912.15C1034.33 911.95 1036.24 912.18 1036.92 912.73L1041.89 916.79V916.8ZM1010.14 867.77C1013.03 868.51 1017.17 868.67 1019.76 869.56C1028.62 876.15 1034.17 872.4 1036.17 887.98C1037.84 890.04 1038.78 893.47 1037.68 895.59C1037.34 896.24 1035.78 896.92 1035.18 896.74C1029.72 895.08 1037.84 891.37 1021.01 880.56C1012.15 874.87 1008.01 880.35 1007.61 875.12L1007 867.39C1007.16 867 1009.03 867.48 1010.15 867.76L1010.14 867.77ZM1005.96 889.84L1008.73 884.19L1016.68 891.78C1019 894 1021.82 895.86 1022.47 899.52C1018.29 902.62 999.15 894.71 1005.97 889.84H1005.96ZM995.38 898.6C996.43 902.43 997.87 904.55 1000.99 906.94C1002.55 908.13 1003.92 911.45 1006.12 911.58C1009.63 911.78 1012.69 912.45 1015.47 913.97C1018.75 915.75 1022.57 912.27 1023.86 917.31C1024.29 919 1024.4 921.31 1023.81 922.71C1020.45 930.72 1003.86 920.56 999.29 917.28L992.96 912.74C987.7 908.96 984.81 902.25 987.1 895.99C989.37 894.52 994.62 895.81 995.39 898.61L995.38 898.6ZM976.65 853.69C979.53 855.43 983.87 856.67 985.79 859.3L992.56 868.54C994.01 870.52 993.45 875.65 992.91 878.3C989.95 881.51 987.1 874.27 982.38 870.97L976.84 867.11L970.9 861.99C968.87 860.24 962.38 854.3 966.73 851.89C969.82 850.18 973.75 851.92 976.66 853.68L976.65 853.69ZM933.2 816.23C935.72 812.85 942.44 816.45 946.53 817.66C948.78 818.32 950.8 818.48 952.51 819.89C960.99 823.72 964.53 823.91 969.94 831.83C970.44 832.56 970.14 834.76 969.63 835.43C969.02 836.2 966.5 836.73 965.56 836.08C957.23 830.36 954.71 828.35 945.78 824.37C943.03 824.65 934.87 821.76 933.86 820.79C933.06 820.04 932.51 817.18 933.2 816.24V816.23ZM932.59 836.44L935.33 830.51C935.77 829.55 938.28 829.27 939.09 829.96L945.4 835.32C947.47 837.09 954.23 841.46 954.38 844.77C954.43 845.76 953.33 847.81 952.29 848.32C949.51 849.67 946.45 847.61 944.16 846.23L937.72 842.36C935.82 841.22 930.99 839.91 932.6 836.45L932.59 836.44ZM927.6 848.74C928.26 850.12 930.66 851.73 931.77 853C933.72 855.22 935.45 856.53 937.88 858C947.15 863.6 945.01 863 958.6 864.44L961.41 870.64C960.55 871.43 958.8 871.65 957.01 871.73L946.41 872.14C943.4 872.26 940.35 869.92 937.53 869.18C932.78 867.94 928.89 866.42 925.58 862.44C923.9 860.43 920.16 858.7 918.71 856.74C916.68 853.99 916.83 850.1 913.85 847.9L914.87 841.56L923.71 840.62L927.6 848.73V848.74ZM892.85 810.05C901.78 809.72 901.71 809.08 909.48 812.95L913.35 814.87C916.13 816.25 918.26 817.2 918.85 820.59C920.51 821.81 921.97 825.15 919.39 826.92C918.08 827.82 914.37 827.8 912.84 827.21L902.26 823.18C900.53 822.52 897.87 819.83 896.22 818.69L892.02 815.78C891.29 815.28 890.2 813.81 890.11 812.96C890.01 811.99 891.78 810.08 892.84 810.04L892.85 810.05ZM847.95 785.83C852.36 785.58 856.7 784.61 860.82 786.82L873.06 793.37L878.28 795.95C875.55 798.73 874.3 796.35 872.38 795.64C869.54 794.59 866.53 793.74 863.46 792.84C859.16 791.59 848.32 792.44 844.22 795.27C841.91 794.43 838.96 791.52 837.47 788.87C839.45 786.12 845.69 785.96 847.95 785.83ZM868.74 809.84C850.97 810.12 856.51 806.18 846.24 802.64C845.62 802.42 844.53 801.45 844.11 800.98C843.6 800.42 844.11 798.23 844.89 797.72C851.88 799.18 856.53 800.64 863.06 803.76L868.95 806.57C869.49 806.83 870.27 807.73 870.51 808.18C870.75 808.64 869.33 809.82 868.75 809.84H868.74ZM835.25 816.41C838.86 816.65 841.07 812.16 844.76 816.45C846.72 818.73 849.1 820.24 851.58 821.86C853.97 823.42 855.83 824.24 858.8 824.28L866.27 824.38C869.36 824.42 871.92 825.12 874.58 822.82C875.81 821.75 878.21 820.57 879.98 820.15C880.87 819.93 882.81 821.21 883.03 822.04C883.47 823.73 877.8 830.95 873.04 830.95H857.31C853.68 830.95 849.86 828.71 846.48 827.9C844.39 827.4 842.25 827.13 840.44 826.3L829.34 821.16C828.33 820.69 825.68 819.08 826.26 818.22C828.33 815.15 832.15 816.21 835.26 816.42L835.25 816.41ZM794.31 795.35L803.55 792.09C804.99 791.59 806.69 791.37 808.14 790.97C816.23 788.73 810.76 792.59 823.51 793.77C827.33 794.12 830.92 797.6 832.11 801.3C832.58 802.76 831.09 804.87 830.02 805.4C828.33 806.24 826.36 805.16 824.51 804.82C821.46 804.26 806.83 804.37 804.76 803.43L795.88 799.37C795.31 799.11 794.37 798.45 793.96 798.16C793.45 797.8 793.62 795.59 794.31 795.35ZM748.27 773.33C755.75 767.58 757.72 770.54 769.84 771.31C771.97 771.45 774.24 772.64 776.24 773.34C780.73 774.92 787.92 777.74 789.45 782.94C789.95 784.67 787.19 788.5 785.36 788.55C781.11 788.69 777.75 785.82 774.09 783.94C771 782.35 766.57 783.99 763.3 783.54C760.1 783.09 757.21 783.42 754.63 785.09C753.05 785.33 749.53 784.8 748.57 783.79C745.95 776.4 745.13 780.45 744.57 775.46C744.45 774.35 747.36 774.03 748.27 773.33ZM768.52 795.19C766.96 799.13 764.63 798.12 761.91 797.54L757.23 796.55C753.71 794.27 749.15 795.52 750.07 792.73C751.12 789.54 757.61 793.17 762.28 794.03L768.52 795.19ZM770.9 809.47C777.9 807.56 780.37 809.88 782.59 804.8C782.99 803.89 784.98 802.65 785.77 803.2L790.91 806.8C791.15 812.92 780.69 815.93 775.73 816.49C774.95 816.58 773.49 818.29 772.83 817.97L769.5 816.36C767.67 815.73 764.5 816.23 762.56 815.78L755.77 814.19C753.17 813.59 750.36 811.28 747.85 810.3C744.37 808.94 741.29 807.71 738.42 805.27C743.46 796.22 756.92 813.28 770.9 809.48V809.47ZM706.54 789.72C708.44 786.93 712.19 786.85 716.3 783.4L733.13 783.52L738.38 785.95C739.6 786.51 739.96 789.29 739.39 790.62C738.85 791.88 736.86 793.56 735.28 793.56L716.29 793.53C713.84 791.55 705.31 791.55 706.54 789.73V789.72ZM654.86 781.71C657.01 777.16 663.97 781.43 668.78 777.49C671.35 775.37 673.97 776.23 676.84 776.1C682.21 775.86 696.77 775.45 698.63 782.85C683.39 780.81 695.09 780.09 677.04 779.72C675.47 779.69 672.37 781.61 670.75 782.1C666.1 781.26 662.82 782.92 659.43 785.61C657.98 786.76 653.9 783.75 654.87 781.72L654.86 781.71ZM682.16 793.6C681.47 796.79 677.55 798.98 674.15 798.44C671.89 800.42 668.52 801.61 665.84 799.48C664.37 798.3 663 794.46 663.47 792.6C664.05 790.34 667.13 790.85 668.55 791.59C677.53 796.26 679.38 789.94 682.16 793.6ZM653.87 809.28C654.71 806.61 659.91 804.37 662.03 805.57C667.25 810.99 666.39 808.01 672.76 811.63C675.74 813.32 676.99 811.74 679.53 810.75C685.9 808.24 692.61 805.89 696.87 799.99C697.51 799.11 698.92 797.62 699.83 797.37C700.74 797.1 702.6 798.13 703.42 798.72L707.81 801.87L704.48 808.24L698.44 811.96L688.99 817.99L673.24 818.16C671.77 818.17 669.67 816.99 668.31 816.62C665.89 815.97 652.92 812.33 653.87 809.31V809.28ZM637.91 809.01C638.03 808.55 638.18 808.15 638.39 807.84C638.87 807.11 640.79 807.64 641.9 807.98C647.84 809.78 645.6 813.51 650.61 817.56C646.86 817.67 643.11 817.77 639.35 817.88C639.23 817.88 639.11 817.89 639 817.91C638.92 817.71 638.84 817.5 638.77 817.29C638.44 815.92 638.4 814.53 638.91 813.38C638.37 812.05 638.03 810.61 637.91 809.02V809.01ZM636.77 788.36C640.02 786.55 654.21 795.11 648.4 796.33L639.95 798.1C639.66 797.69 639.41 797.25 639.21 796.79C637.93 793.87 637.12 791.2 636.7 788.52C636.73 788.46 636.75 788.4 636.77 788.36ZM667.15 721.83C664.06 722.67 659.03 722.64 656.14 721.9L643.05 718.57C639.05 717.55 635.56 714.65 631.84 713.11C631.84 713.18 624.97 711.89 623.39 709.36C623.36 709.24 623.34 709.12 623.32 709C623.28 708.71 623.19 708.44 623.08 708.18C623.08 708.01 623.11 707.84 623.18 707.66C623.77 705.97 625.11 707.9 631.76 705.06C633.61 704.27 637.65 704.29 639.73 704.97C644.85 706.64 649.52 707.61 654.65 708.65C663.57 710.46 657.72 707.84 669.07 707.8L674.96 702.11C678.47 701.4 683.15 703.25 684.36 706.43L679.7 713.1C677.03 716.93 671.86 720.57 667.17 721.83H667.15ZM412.39 687.03C411.38 686.78 410.33 685.41 410.42 684.52C410.68 681.85 415.15 683.15 417.98 683.36C421.69 683.62 424.8 683.9 428.61 684.47C429.55 689.28 427.53 693.5 431.27 697.1C432.07 697.87 432.65 700.49 431.92 701.06C429.55 702.89 426.55 702.13 424.09 702.14C421.06 702.14 417.69 703.3 415.55 700.07C414.67 698.74 415.94 696.1 416.7 694.48C418.13 691.42 415.57 687.83 412.39 687.03ZM432.23 674.43L422.75 674.55L417 675.37C413.13 675.92 409.33 675.89 407.17 678.89C403.79 683.59 400.18 678.11 395.24 679.15L386.85 680.94C386.25 681.07 384.58 679.95 384.26 679.45C383.38 678.07 396.69 666.75 406.61 669.28C413.62 671.07 419.05 673.28 426.84 670.08L431.8 668.05L439.92 662.42C441.87 662.68 444.79 663.85 446.74 665.07C448.89 666.42 444.88 669.68 445.31 670.18L446.75 671.84C447.1 672.23 447.74 673.29 447.95 673.76C448.22 674.34 446.58 675.23 445.91 675.3L438.25 676.01C436.77 676.15 433.74 674.41 432.23 674.43ZM373.84 609.1C376.69 609.08 381.15 611.15 383.25 612.82C386.83 615.65 389.85 624.42 389.9 626.48C389.96 629.61 377.19 625.31 376.61 624.99C374.02 623.58 372.72 620.1 369.66 619.05C366.52 617.98 363.97 615.69 362.86 612.11C366.43 610.91 370.13 609.13 373.84 609.1ZM369.1 584.36C369.94 585.49 370.72 586.66 371.49 587.85C370.53 586.82 369.73 585.65 369.1 584.36ZM715.46 554.51C715.7 554.75 715.94 555 716.17 555.27C718.39 557.9 716.65 562.06 714.49 564.25C713.25 565.51 712.23 566.79 711.45 568.14C710.59 568.96 709.3 569.93 708.95 570.72C708.75 571.16 708.95 571.94 709.18 572.72C708.59 574.35 708.05 575.99 707.54 577.64C706.85 579.5 706.3 581.41 705.95 583.38C705.85 583.94 705.85 584.45 705.94 584.93C705.86 584.93 705.77 584.92 705.68 584.91C706.22 583.13 705.37 581.31 703.83 580.22C702.26 579.1 700.62 578.11 698.93 577.24C698.28 576.54 696.88 575.79 696.29 575.6L691.85 574.17C691.22 573.74 690.44 573.34 689.48 572.99C677.79 568.66 665.75 566.91 653.28 564.98C641.32 563.12 630.15 561.64 618.11 561.17C615.04 561.05 610.4 558.63 610.07 555.41C609.59 550.81 608.7 535.67 615.07 535.19C639.88 533.31 680.3 541.41 704.16 549.44C708.06 550.75 712.21 551.5 715.25 554.3C715.2 554.33 715.15 554.35 715.1 554.37C715.23 554.42 715.36 554.47 715.48 554.51H715.46ZM818.6 524.96C813.18 527.05 812.53 530.88 806.38 535.56C805.18 536.9 804.42 539.96 803 541.97C801.33 543.65 797.18 543.24 794.84 542.15C795.42 540.06 796.48 537.7 797.21 535.8C798.45 532.59 799.44 530.95 802.31 529.12C808.96 524.86 809.89 521.74 819.66 521.49C820.71 521.46 819.63 524.56 818.6 524.96ZM821.73 539.32C824.22 538.8 827.07 540.43 829.21 542.18C827.12 544.78 824.81 545.64 821.69 547.07C820.02 547.83 816.82 549.91 816.16 546.8C815.57 543.95 818.72 539.96 821.73 539.32ZM802.63 558.29C804.97 559.87 801.12 563.07 799.61 563.88L793.55 567.14C790.34 568.87 787.38 569.66 784.2 570.42C784.03 570.05 783.87 569.67 783.73 569.29C780.92 569.55 778.59 569.09 777.6 567.59C777.54 567.5 777.48 567.4 777.43 567.3C776.42 568.1 775.41 568.9 774.39 569.69L772.89 568.83C772.4 568.56 773.43 567.21 773.88 566.8C776.45 564.43 778.57 562.04 781.07 559.45C783.35 557.09 787.08 555.58 789.93 553.41C790.98 552.61 793.59 552.15 794.53 552.78L802.62 558.28L802.63 558.29ZM783.84 583.09C785.26 589.67 781.75 595.63 777.82 600.29C775.11 603.49 772.6 604.97 768.75 606.6L759.35 610.58C756.81 611.65 753.44 610.28 750.69 609.63L746.14 610.77L739.4 607.96C738.36 607.53 738.63 604.6 739.33 603.75C742.83 599.53 743.24 604.94 751.91 601.23C762.44 596.72 754.74 598.27 764.38 593.52C766.69 592.38 769.67 587.94 768.88 585.55C767.09 582.65 763.34 585.28 761.25 585.79C757.8 586.65 754.71 587.61 751.65 589.11C748.78 590.52 746.16 589.69 745.21 587.03C744.08 583.89 745.6 582.82 748.42 581.08L755.88 576.5C756.93 575.85 759.44 573.77 760.45 574.52L766.78 579.22C776.2 586.21 775.51 578.56 783.83 583.09H783.84ZM754.09 686.97L747.92 683.75L731.17 683.55C728.65 686.15 720.4 686.7 720.19 683.93C719.91 680.16 729.32 679.51 732.45 679.36C736.51 676.96 741.47 676.51 745.66 679.4C753.93 679.2 757.52 682.38 767.28 685.32C770.11 686.17 772.79 686.31 772.64 690.72C770.01 691.52 766.71 692.27 763.85 692.53C760.27 690.4 757.55 688.77 754.1 686.97H754.09ZM759.34 701.31C750.69 705.72 748.53 704.62 737.84 704.6C735.67 704.6 734.4 702.64 734.43 700.48C734.44 699.37 734.55 697.5 735.12 696.93C737.61 694.49 746.29 694.83 749.79 695.5C755.3 696.55 759.21 696.36 760.2 697.57C760.72 698.22 760.09 700.92 759.34 701.31ZM761.98 667.79C761.46 668.39 759.44 668.55 758.66 668.17C754.22 666 739.9 664.02 735.92 664.64C732.25 665.21 729.34 663.3 726.31 662.97C720.23 662.29 714.6 661.88 708.61 660.75C703.23 659.74 697.94 661.52 695.32 659.4C694.78 658.97 696.48 657.21 697.18 656.99C704.58 654.62 710.8 649.94 714.97 642.89C717.75 638.17 723.13 637.53 723.1 625.76C723.09 619.56 718.7 619.09 719.63 616.18C719.86 615.45 721.21 614.62 722.07 614.44C722.97 614.26 723.65 615 724.87 616.05C725.08 616.58 725.45 617.09 726.02 617.56C732.69 623.05 740.56 626.7 749.13 628.03C749.73 628.13 750.35 628.21 750.97 628.29C750.74 629.3 750.93 630.9 751.15 631.64L754.15 641.69C757.29 652.15 756.6 655.44 761.86 664.42C762.27 665.11 762.51 667.19 761.99 667.8L761.98 667.79ZM656.01 674.4C652.32 673.39 640.83 675.15 638.05 676.07C635.66 676.85 634.66 677.97 632.34 676.27L628.03 673.12C644.12 664.92 643.78 668.46 657.7 669.08C661.49 669.24 664.41 669.9 667.89 671.36C671.85 673.02 677.43 674.8 678.66 679.7C678.39 682.53 673.72 682.54 671.67 681.24C660.98 674.46 665.31 676.92 656.01 674.4ZM670.6 691.63C670.02 693.2 667.98 694.6 666.39 694.83L657.5 696.13C653.52 696.71 648.5 696.51 644.23 696.31C643.26 696.27 642.24 694.14 642.08 693.22C641.88 692.06 642.64 689.85 643.76 689.51L650.58 687.46C652.71 686.82 668.07 686.26 670.03 688.02C670.65 688.58 670.92 690.76 670.59 691.63H670.6ZM598.65 637.4C587.96 636.31 587.87 643.56 579.34 640.93C577.99 635.42 581.95 636.94 588.47 631.91C589.91 630.8 591.43 627.8 593.26 627.5C601.7 626.1 603.86 627.29 609.48 624.58C609.87 624.39 611.48 624.31 611.48 624.7C611.41 627.38 607.46 629.68 604.31 633.86C602.67 636.03 601.78 637.71 598.65 637.39V637.4ZM603.06 650.43C600.25 649.36 598.21 648.4 596.15 647.19C595.37 644.67 598.03 642.18 600.71 642.03L603.05 650.42L603.06 650.43ZM610.93 659.58C611.02 658.89 612.81 658.36 613.51 658.44L619.72 659.21C620.19 659.26 621.15 659.58 621.51 659.75C622 659.97 621.54 661.58 621.16 661.99C618.5 664.81 615.63 668.88 614.66 668.73C611.74 668.28 614.46 666.07 611.55 661.85C611.2 661.35 610.85 660.12 610.92 659.57L610.93 659.58ZM617.07 645.95C616.35 645.47 615.11 643.92 615.08 643.06C615.04 642.2 616.12 640.55 616.86 639.92C619.12 638.02 620.56 635.21 622.54 633.35C624.55 631.47 628.29 630.61 630.18 628.1C631.06 626.92 634.46 625.22 635.75 625.99C638.37 627.55 640.82 629.65 643.24 631.62C645.5 633.47 648.61 632.5 649.11 635.01C649.64 637.65 646.71 636.6 640.99 640.37C640.72 640.55 629.08 644.86 627.47 645.4C624.17 646.51 620.59 648.28 617.08 645.94L617.07 645.95ZM677.42 602.69C673.87 602.26 670.83 603.33 667.67 604.25C663.57 605.45 660.62 606.38 657.79 609.56C651.01 617.2 655.42 618.56 652.65 620.31C650.03 621.97 649.37 613.71 644.25 615.98C643.25 616.41 641.17 615.86 640.92 615.12C640.67 614.37 641.25 612.53 641.86 611.93L650.36 603.56C651.27 602.67 653.82 601.51 654.89 600.69L661.61 595.52C667.62 590.9 681.2 593.39 688.54 594.93C687.69 600.59 682.55 603.3 677.4 602.68L677.42 602.69ZM688.73 616.97L681.25 620.68C677.97 622.31 674.51 623.85 670.7 625.42C667.59 626.7 663.49 625.14 660.59 626.63C658.22 627.85 655.42 626.22 655.09 624.05C657.75 623.7 659.9 623.11 661.97 621.9L674.56 614.56C677.18 613.04 680.11 610.77 683.63 611.78C685.4 612.28 687.51 615.12 688.72 616.97H688.73ZM671.03 649.09C668.3 649.89 666.62 651.01 663.96 649.36C659.24 646.41 653.76 651.49 652.12 646.86C662.81 638 660.35 643.9 669.43 639.68C680.43 638.1 681.66 635.27 687.98 627.49C689.6 625.5 690.63 623.69 691.21 621.16L691.64 619.28C692.11 617.21 698.6 623.4 707.29 620.42C707.78 620.26 709.08 620.42 709.41 620.67C711.49 622.31 708.2 627.85 707.19 628.9C699.27 637.08 701.31 635.83 691.86 640.76L685.17 644.25C683.92 644.9 681.84 645.97 680.62 646.32L671.04 649.09H671.03ZM691.05 587.43C691.59 587.9 692.14 588.37 692.68 588.83C692.07 588.46 691.5 587.97 691.05 587.43ZM702.05 672.36C703.65 672.48 707.75 673.09 708.13 674.58C709.38 679.4 704.17 681.36 700.59 680.89L692.34 679.83C691.39 677.84 690.66 674.84 690.18 671.44L702.05 672.35V672.36ZM765.62 558.32C761 562.51 763 563.91 760.62 567.21C760.19 567.81 758.18 568.03 757.49 567.71C753.18 565.77 748.56 569.69 744.71 569.63C736.87 569.51 730.1 574.46 729.73 582.05C729.67 583.21 727.47 584.7 726.48 584.54L718.07 583.2C718.11 582.62 718.21 582.11 718.34 581.66C719.19 580.38 720.09 579.13 721.03 577.93C721.4 577.54 721.78 577.13 722.13 576.67L722.91 575.64C722.98 575.56 723.05 575.47 723.13 575.38C723.17 575.32 723.2 575.26 723.25 575.2L727.95 568.99C730.11 566.15 731.61 563.82 734.5 561.79L743.32 555.61C745.35 554.19 746.9 551.74 749.16 550.27C749.93 549.9 750.68 549.58 751.42 549.29C751.93 549.16 752.48 549.09 753.07 549.09L769.07 548.98C774.94 548.93 766.88 557.16 765.62 558.3V558.32ZM719.22 592.88C723.01 591.09 727.78 590.71 732.17 590.04C733.09 589.9 734.59 591.41 734.63 592.3C734.83 596.3 728.73 594.25 722.8 601.22C720.86 603.5 718.05 604.48 715.19 605.18L702.13 608.39C700.82 608.72 698.29 607.21 697.92 606.2C697.55 605.2 698.16 602.86 699.3 602.2C703.25 599.88 707.15 596.04 711.35 595C714.34 594.26 716.51 594.18 719.22 592.89V592.88ZM624.38 576.09C624.38 576.09 624.45 576.1 624.49 576.1C627.83 577.48 631.08 579.23 634.37 580.54C637.67 581.84 641.21 582.5 644.14 584.58C646.05 585.93 647.68 587.67 649.21 589.47C647.23 591.27 645.87 592.67 640.82 594.95L634.74 602.04C633.71 603.24 632.62 605.89 631.82 607.21C628.82 608.91 627.93 611.22 627.82 614.9L621.79 618.42C619 620.06 615.81 621.91 613.19 618.65L612.59 612.97C612.46 611.78 609.65 610.54 608.45 610.67C604.19 611.16 600.89 616.2 600.36 613.52C600.36 613.5 600.37 613.47 600.38 613.45C600.71 612.51 601.17 611.68 601.79 610.8C602.82 609.35 602.46 607.61 601.46 606.33C604.12 603.44 609.57 600.04 604.59 593.27C601.15 596.18 598.36 598.86 595.48 601.79C594.71 601.95 593.96 602.33 593.35 602.93C593.17 600.44 593.01 597.53 592.13 595.85C591.23 594.14 587.1 591.82 585.39 592.74C580.93 595.14 580.47 601.03 582.21 605.05L591.31 606.06C590.89 606.86 590.5 607.67 590.16 608.51C589.73 609.32 589.36 610.04 589.02 610.68C589.16 610.63 589.29 610.59 589.43 610.55C589.25 611.12 589.08 611.7 588.93 612.28C588.13 613.31 587.37 614.37 586.67 615.51C584.81 616.9 581.8 617.78 580.06 617.54C579.29 615.79 578.65 612.79 577.43 611.96C576.83 611.55 576.34 611.14 575.93 610.75C575.87 610.76 575.8 610.78 575.74 610.8C575.18 610.42 574.5 610.11 573.67 609.83L573.28 599.72C573.2 597.71 569.39 594.24 567.29 594.24C562.76 594.24 558.01 597.44 555.25 600.76C554.56 601.6 554.88 604.84 555.83 605.25C556.93 605.75 559.21 605.2 560.27 604.34L563.42 601.78C564.18 601.16 566.55 602.43 567.08 603.08L562.17 608.74C561.35 609.69 561.06 613.23 561.6 614.35C561.96 615.12 563.1 616.11 564.14 616.5C566.25 617.73 567.65 615.47 569.53 615.74C569.66 615.83 569.76 615.92 569.83 616.01C570.05 616.34 569.94 617.06 569.68 617.74C569.31 617.92 568.94 618.17 568.59 618.49C568.07 618.97 567.56 619.46 567.04 619.93C567.01 619.96 567 619.98 566.97 620C562.87 621.51 560.61 618.31 557.79 619.73C557.53 619.86 557.34 620.12 557.19 620.46C557.16 620.56 557.12 620.65 557.08 620.75C556.96 620.79 556.83 620.83 556.71 620.88C556.66 620.38 556.59 619.9 556.49 619.43C556.56 619.2 556.65 618.97 556.71 618.73C556.59 618.8 556.49 618.88 556.38 618.95C556.29 618.6 556.18 618.25 556.07 617.91C556.31 617.13 556.41 616.38 556.31 615.67C555.44 611.07 550.54 608.12 546.73 605.82L539.74 605.44C540.39 603.06 542.11 601.95 544.33 601.78L550.49 601.32C551.09 596.86 547.89 592.6 543.36 592.72C532.68 592.96 529.26 604.78 531.13 614.68C534.4 615.8 538.21 615.34 541.79 614.31C543.07 613.94 545.47 616.53 545.24 617.8C544.13 623.76 534.98 618.27 531.91 619.51C530.69 620.45 530.6 624.57 531.52 626.01C532.04 626.83 533.16 627.7 534.37 628.38C535.23 629.09 536.16 629.61 537.16 629.98C537.81 630.95 538.87 631.65 540.34 631.71C541.4 631.76 542.54 631.85 543.72 631.9C543.72 632.02 543.74 632.14 543.75 632.26C543.74 632.38 543.72 632.49 543.7 632.61C542.22 635.11 541.82 638.24 542.69 641.04C538.75 641.79 534.38 640.22 534.28 645.61C534.27 646.42 533.74 648.42 533.08 648.8C532.33 649.26 530.79 649.01 529.7 648.78C526.38 648.09 526.02 646.62 524.69 643.86C522.97 640.28 519.88 635.66 516.56 633.36L506.72 626.54C505.31 625.56 496.74 623.16 496.52 622.99C494.72 621.56 491.54 620.13 488.66 620.15C483.05 620.18 484.75 616.5 465.61 617.87C462.27 618.11 458.87 620.38 455.71 621.22C453.2 621.89 451.3 622.25 449.12 623.78C444.76 626.87 445.44 617.4 442.36 613.61L436.85 606.79C435.99 605.72 434.14 605.06 432.73 604.12C443.5 596.9 454.98 590.83 467.03 586.08L470.75 584.83C475.53 583.22 480.76 582.3 485.72 580.97C497.42 577.83 509.1 576.21 521.2 574.58C541.6 571.81 554.61 570.83 575.24 571.9L602.18 573.31C609.7 573.7 616.82 574.96 624.33 576.08L624.38 576.09ZM556.91 628.57C556.75 628.73 556.58 628.87 556.39 629C556.1 628.54 555.72 628.13 555.28 627.8C555.3 627.76 555.33 627.73 555.35 627.68C555.75 628.06 556.27 628.37 556.91 628.56V628.57ZM529.33 699.33C528.53 701.97 512.47 701.98 512.53 699.4C512.58 696.65 518.59 695.33 522.71 689.89C523.65 688.65 523.48 685.6 525.9 687.14C525.14 695.38 529.99 697.15 529.33 699.33ZM522.8 671.6L508.79 667.15C506.65 666.47 507.29 660.58 509.57 659.84C512.87 658.78 517.09 657.41 520.49 657.94C530.97 659.58 534.5 663.6 542.38 667.96C543.64 668.66 544.55 670.26 544.43 671.64C544.33 672.7 542.42 674.29 541.13 674.2C530.34 673.44 536.65 672.37 528.92 673.62L522.8 671.6ZM492.5 640.73C489.82 639.95 487.48 639.49 484.54 639.22L474.73 638.35C470.53 637.98 466.54 637.76 462.37 638.91C461.7 639.09 460.35 638.77 460.15 638.13C459.87 637.31 460.66 635.82 461.41 635.51L466.83 633.25C470.89 631.56 476.02 633.05 480.44 633.14C483.42 633.2 485.64 633.83 488.31 634.88L495.18 637.56C499.81 636.71 503.04 638.05 506.22 640.91C508.91 643.34 514.63 641.27 514.81 646.39L510.09 647.18C506.96 647.7 503.84 647.59 501.78 645.21C499.22 642.24 496.08 641.78 492.5 640.73ZM497.44 654.77C496.62 657.24 495.65 660.19 494.95 662.94C493.9 667.06 484.03 664.57 480.32 663.19L473.09 660.49C471.37 659.85 469.23 659.29 467.73 658.2C465.8 656.79 467.06 651.22 469.61 651.16L490.54 650.67C492.94 650.62 498.58 651.27 497.43 654.77H497.44ZM452.67 654.39C447.87 653.5 443.43 651.78 439.63 649.07L435.1 645.85C433.86 644.96 434.17 641.11 434.53 639.7C437.57 637.33 440.89 639.54 443.83 640.56C447.35 641.79 449.46 642.9 451.69 645.94C452.76 647.41 454.5 649.01 455.84 651.11C456.44 652.04 453.75 654.6 452.67 654.4V654.39ZM434.1 625.1C433.29 626.64 429.13 628.39 427.35 626.85L422.26 622.46L413.99 618.16C402.15 612 400.32 617.49 398.45 615.34C398.47 615.34 392.43 607.54 394.15 607.58C398.88 608.27 403.19 608.06 407.28 609.48L419.19 613.61C423.8 615.21 428.41 615.94 431.23 620.81C431.87 621.91 435.29 622.85 434.1 625.1ZM424.35 630.76L421.4 637.95C415.53 638.51 410.84 637.07 405.89 634.48C404.62 633.81 402.66 633.43 402.08 632.52C401.39 631.45 401.43 628.04 402.66 627.64C409.02 625.56 411.54 630.15 421.49 627.92C422.55 627.68 424.94 629.33 424.35 630.75V630.76ZM396.62 639.01C398.77 640.33 401.57 642.27 403.09 643.92C406.11 647.21 408.94 647.28 412.96 648.9L422.88 652.88C424.1 653.37 427.22 652.15 428.69 651.85C429.26 651.73 430.5 652.89 430.39 653.41C430.28 653.93 429.74 655.27 429.26 655.59L421.91 660.39C412.36 660.1 405.06 658.57 398.09 651.95C393.3 647.39 391.66 647.29 388.07 644.03C388.27 643.99 388.55 643.93 388.91 643.84C388.91 643.82 388.91 643.81 388.91 643.79C388.6 643.85 388.29 643.9 387.99 643.95C387.09 643.13 386.06 642.1 384.82 640.76C385.66 638.11 388.21 638.89 390.41 639.16C391.88 639.34 395.28 638.21 396.62 639.02V639.01ZM391.24 661.57C391.12 663.66 387.73 664.86 386.23 665.97L382.95 672.51C379.33 679.71 379.59 664.27 380.37 661.53L382.59 653.79C386.69 653.25 391.52 656.94 391.25 661.57H391.24ZM369.52 648.76C369.64 649.65 369.95 650.49 370.42 651.18C370.07 654.09 369 656.4 368.77 662.08C362.93 663.62 355.44 658.19 350.11 658.5C345.71 658.76 341.25 659.96 337.38 661.31L329.03 664.24C327.49 659.53 328.89 656.14 329.31 651.82L330.7 637.55C332.57 636.54 334.17 638.43 335.76 639.49C345.92 646.23 351.74 649.3 364.83 647.97L369.42 645.58C369.36 646.63 369.38 647.68 369.52 648.75V648.76ZM361.13 606.32C361.06 606.14 360.97 605.95 360.86 605.76C357.27 599.51 351.08 595.01 343.94 593.81C343.59 593.75 343.26 593.74 342.94 593.76C341.16 586.19 336.89 587.61 337.93 584.77C339.61 580.16 353.94 588.38 357.55 591.16L367.68 598.93C367.36 602.08 364.32 605.06 361.13 606.32ZM349.87 609.11C351.12 610.37 352.13 611.73 352.86 613.22C349.68 612.55 344.52 611.38 343.28 609.69C341.54 607.32 343.01 604.59 343.52 602.06C346.6 602.87 349.28 604.4 351.42 606.65L351.72 607.07C352.01 607.46 352.35 607.83 352.72 608.19C353.11 608.73 353.48 609.28 353.82 609.88C354.13 610.42 354.51 610.83 354.91 611.14C354.98 611.45 355.01 611.79 354.96 612.16C353.71 610.43 352.51 608.67 351.34 606.89C350.67 607.3 350.14 607.71 349.67 608.07C349.72 608.41 349.8 608.78 349.87 609.1V609.11ZM343.29 619.82C353.13 630.01 356.53 621.48 362.65 624.07C363.51 624.44 367.6 627.85 367.15 630.11C366.98 631 365.43 632.1 364.85 632.86C362.31 636.19 359.88 636.32 355.93 635.67C353.38 635.25 350.78 634.95 348.56 633.47L340.49 628.11C334.82 624.35 329.98 620.98 324.49 615.47C342.6 616.52 335.63 611.9 343.28 619.82H343.29ZM336.09 675.87C338.16 674.95 341.38 674.85 343.58 673.63C345.49 672.58 347.03 673.12 348.96 673.53L356.99 675.24C359.1 675.69 361.98 675.23 363.39 676.82L369.29 683.51C369.84 684.14 370.43 685.62 370.13 686.3C368.79 689.34 363.75 685.81 360.34 685.69C342.98 685.1 349.04 685.31 332.83 691.62C326.33 690.71 323.09 687.52 316.21 686.5C316.16 686.32 317.22 685 317.78 684.58L322.86 680.83C327.47 679.77 331.61 677.86 336.09 675.87ZM339.04 697.22C341.94 696.32 344.86 695.11 347.22 695.48L356.15 696.89L364.15 698.96L365.65 703.95C365.96 704.65 367.55 706.43 366.98 706.95C366.41 707.47 364.86 708.05 363.66 708.42L354.99 711.06C350.93 712.3 347.2 713.29 342.75 712.49C341.7 712.3 341.2 710 341.7 709.12C345.34 702.74 339.85 700.5 339.05 697.22H339.04ZM337.89 717.27C343.73 720.77 349.89 720 356.27 719.79L367.7 719.42C372 719.28 375.01 716.88 378.77 714.3C378.38 718.8 374.46 720.91 372.02 723.77C368 728.5 360.06 727.49 353.19 729.53C348.02 731.05 344.46 732.15 338.82 729.5C338.11 729.16 337.01 728.97 335.87 728.73C335.86 727.52 335.26 726.33 333.84 725.58C333.11 725.19 332.3 724.79 331.52 724.34C331.43 722.27 331.23 719.96 331.02 718.11C330.9 714.88 336.08 716.17 337.9 717.27H337.89ZM376.65 700.5C376.12 698.66 376.85 695.48 378.12 694.04C382.25 689.33 381.28 693.58 388.55 690.22C392.97 688.17 396.77 689 400.9 691.2C402.09 691.83 404.03 693.02 404.4 694.37C403.14 696.52 400.78 697.86 398.69 699.03C393.53 701.94 390.05 701.79 381.92 703.63C380.17 704.03 377.09 702.05 376.64 700.5H376.65ZM440.28 687.79C441.14 686.39 443.84 685.73 445.73 685.57C454.16 684.86 461.24 687.32 467.78 692.18C469.19 693.23 471.14 693.55 471.57 695.68L467.74 697.05C462.45 698.94 457.2 699.61 452.58 696.37C448.4 696.76 444.35 696.47 440.96 693.75C439.61 692.68 439.34 689.35 440.29 687.79H440.28ZM470.54 680.64C467.51 678.74 455.19 671.49 455.42 667.28C455.95 665.17 460.54 663.7 462.18 665.09C468.39 670.34 472.68 672.51 479.92 675.57C487.27 678.68 488.59 679.72 498.28 677.49C499.31 676.98 501.08 675.06 502.18 674.94C503.32 674.82 505.46 675.65 506.49 676.37L513.5 681.35C512.53 683.73 510.33 684.71 508.63 685.98C499.19 693.06 498.79 689.29 489.66 687.62C482.54 686.32 476.62 684.45 470.53 680.64H470.54ZM483.21 699.29C486.19 700.05 490.05 700.7 492.76 701.85C497.2 703.74 500.84 705.21 505.43 706.32L520.13 709.9C524.37 710.93 527.35 710.55 531.36 708.62C533.82 707.43 535.38 706.53 536.84 703.78C537.49 702.57 540.22 703.5 540.37 704.86C540.59 706.86 539.29 707.31 537.98 708.49C533.82 712.21 529.4 715.25 524.48 717.24C515.73 719.07 506.71 718.93 498.01 716.68C497.6 715.72 496.81 714.91 495.58 714.46C493.44 713.7 491.19 713.65 488.99 713.43C487.35 712.63 485.77 711.71 484.3 710.66C481.84 707.95 480.11 705.68 479.22 705.73C478.32 704.49 477.56 703.13 477 701.64C476.76 701 476.42 700.48 476.01 700.08C478.06 698.98 480.56 698.63 483.21 699.3V699.29ZM539.02 693.62C535.36 692.1 531.46 691.78 529.22 687.09C537.25 686.01 539.5 689.88 547.36 685.89C548.5 685.31 551.19 686.84 552.15 687.81C556.09 691.78 561.67 691.85 566.69 693.5L572.63 695.46C579.1 697.59 586.88 694.58 589.75 699.91C583.78 705.55 576.24 703.82 569.11 702.97C563.41 702.29 559.51 702.39 554.59 699.82C552.48 698.71 549.18 697.84 546.78 696.84L539.03 693.62H539.02ZM559.9 673.58C565.18 673.99 569.64 674.07 574.98 674.05C576.77 674.05 580.32 673.79 581.28 676.3C581.82 677.71 579.71 680.13 578.47 680.83C576.83 681.75 574.45 680.92 572.56 680.63C569.83 680.21 558.46 678.54 557.83 676.4C557.49 675.28 558.67 673.49 559.9 673.59V673.58ZM584.53 665.83L579.3 663.06C577.78 662.26 574.57 660.86 572.95 660.72L561.19 659.65C559.3 659.48 557.32 660.25 555.2 660.67C555.65 660.13 556.1 659.6 556.53 659.05C555.75 659.05 554.98 659.03 554.23 658.98C553.8 659.2 553.37 659.42 552.94 659.63C553.01 660.06 553.09 660.49 553.16 660.92C550.58 661 547.76 660.08 544.61 656.16C544.09 655.51 545.66 653.88 546.4 653.8L553.18 653.13L561.88 652.05C563.3 651.87 566.39 653.25 567.98 653.1C574.31 652.54 579.96 653.8 585.24 656.95C590.21 659.91 592.17 657.89 600.59 664.68C587.09 671.31 587.77 667.56 584.52 665.84L584.53 665.83ZM596.89 677.64C609.97 676.84 605.44 677.89 614.33 680.09C620.58 681.63 629.38 683.23 629.07 692.15C615.75 697.53 619.75 694.05 615.41 693.43C605.06 691.98 595.78 695.27 590.36 689.71C592.56 682.25 591.19 682.65 596.88 677.63L596.89 677.64ZM702.66 727.98L689.18 729.38C686.74 729.63 684.34 729.77 681.88 729.39C685.05 725.41 688.28 723.25 690 719.2C691.4 715.89 693.12 711.79 697.32 710.75C698.82 710.38 702.35 712.23 702.74 713.71C704.63 720.74 707.14 719.51 711.47 727.34L702.65 727.98H702.66ZM702.94 700.82C698.57 699.51 695.02 697.99 690.26 698.5C686.24 698.93 681.77 696.46 682.15 694.09C682.27 693.34 683.45 692.21 684.15 691.83C688.57 689.49 692.32 690.61 696.73 691.24L706.97 692.69C711.14 693.28 715.25 694.14 718.72 696.58C720.09 697.55 721.7 700.16 720.37 701.9C719.43 703.12 716.64 701.78 715.2 701.45C711.3 700.55 706.67 701.93 702.93 700.8L702.94 700.82ZM769.27 726.43C766.46 730 757.18 727.43 751.5 727.15C747.78 726.97 743.46 729.23 740.04 727.43L733.66 724.07L721.8 720.08C719.33 719.24 716.53 718.85 715.45 715.79C729.25 716.49 723.46 717.09 733.83 710.98C737.44 715.25 741.5 716.97 746.76 716.81C759.05 716.43 752.14 720.5 763.28 713.04C765.14 711.79 766.3 714.13 767.53 714.97C769.58 716.38 771.69 717.75 773.6 719.46C772.06 722.16 770.85 724.42 769.26 726.43H769.27ZM804.11 708.14C797.74 707.21 793.05 709.05 787.49 709.76C784.68 710.12 781.72 708.8 778.47 710.23L771.49 708.28C770.33 707.95 768.81 706.66 768.66 705.52C768.5 704.24 770.06 702.71 771.32 702.23L779.84 699.02C781.97 698.22 785.58 698.56 788.14 698.47C793.97 698.25 801.09 700.05 805.71 704.15C805.28 705.5 804.75 706.83 804.11 708.13V708.14ZM812.79 672.58L810.33 673.88L809.27 676.39C808.08 677.74 807.02 679.17 805.98 680.56C803.52 682.93 801.77 685.62 800.67 689.55C797.32 689.51 794.19 688.76 790.73 687.77L784.88 689.02C781.87 688.29 778.16 679.4 777.89 677.74C777.71 676.71 780.44 676.01 781.36 675.2C783.4 673.42 784.38 668.87 783.77 666.27L782.24 659.72C777.37 655.31 776.25 650.07 771.57 643.86C770.94 632.12 763.71 633.77 762.95 628.4C766.61 627.87 770.13 626.69 773.2 624.51C775.06 623.2 775.33 621.1 774.68 619.42L775.47 619.19L782.17 614.79C788.24 610.8 786.97 610.26 791.07 604.17C792.62 602.11 793.93 599.92 794.97 597.61C795.3 596.94 795.62 596.26 795.93 595.58C796.13 595.13 796.28 594.53 796.39 593.86C797.4 590.52 797.83 586.98 797.56 583.26C797.68 583.14 797.81 583.02 797.96 582.89C798.75 582.26 801.48 583.98 801.76 585.05C804.07 593.88 804.76 603.54 804.87 612.82C804.94 619.58 808.02 625.52 809.36 631.93L815.4 660.65C816.43 665.55 815.49 669.17 812.8 672.6L812.79 672.58ZM857.4 725.19C859.44 728.96 848.35 736.85 832.38 733.41C831.18 733.02 829.93 732.69 828.66 732.43C825.66 731.48 822.76 730.02 820.93 727.47C821.16 727.24 821.39 727 821.64 726.77L819.85 725.34C819.65 724.14 819.9 722.14 820.37 721.38C821.02 720.34 823.56 718.82 824.9 719.07L825.57 719.19C829.15 720.56 833.49 722.92 839.03 723.46L846.72 724.21C848.51 724.39 850.6 723.67 852.71 722.93C854.79 723.1 856.54 723.62 857.39 725.19H857.4ZM831.45 706.29C832.03 704.86 832.89 703.73 833.92 702.86C834.33 702.6 834.77 702.3 835.22 701.94C836.68 701.1 838.37 700.68 840.11 700.55L848.18 702.19C851.02 703.69 852.63 706.13 852.63 708.99C852.63 712.41 850.65 715.2 846.66 716.64C846.6 716.66 846.54 716.68 846.48 716.69C844.46 717 842.36 716.82 840.48 716.13L838.43 716.67C837.45 716.31 836.55 715.81 835.81 715.15C835.37 714.76 834.86 714.26 834.33 713.68C834.29 712.12 834.2 710.53 833.4 709.95C832.82 709.54 832.18 709.35 831.52 709.3C831.15 708.25 831.06 707.21 831.44 706.28L831.45 706.29ZM835.79 681.94L839.3 682.99C840.18 683.25 841.17 681.03 841.99 680.39C847.05 679.57 850.12 678.89 852.4 682.55C853.6 684.46 853.02 687.55 851.16 689.62C848.83 692.2 844.53 693.05 841.01 692.5C839.65 692.3 838.36 692.15 837.12 692.06C834.33 691.67 831.42 691.45 828.54 692.01H828.47C823.44 692.32 820.06 692.91 818.4 691.6C816.54 690.13 819.94 682.66 827.81 681.32C828.2 681.32 828.61 681.32 829.03 681.36C831.08 681.52 834 681.41 835.79 681.94ZM834.64 564.21C831.25 567.53 827.82 570.12 822.82 570.12L811.42 570.09C810.98 570.09 809.86 569.67 809.5 569.49C809.15 569.31 809.28 567.72 809.58 567.42L816.18 560.89L824.57 560.39C827.94 558.72 830.3 555.44 832.94 553.15C835.96 550.53 838.04 548.17 837.92 543.47C837.87 541.46 842.45 538.78 844.08 539.96C851.63 545.4 838.92 560.02 834.64 564.22V564.21ZM840.54 510.99L845.24 512.18C848.59 513.03 851.78 513.25 853.07 517.69C849.81 524.83 842.23 528.61 834.86 528.32C832.71 524.54 834.76 521.06 836.02 517.45C836.89 514.95 836.94 511.46 840.55 510.99H840.54ZM728.47 276.34C737.42 286.97 746.73 297.29 756.36 307.31C757.66 308.51 758.9 309.77 760.07 311.13C764.3 316.05 757.51 323.09 752.86 318.34C751.49 316.93 750.11 315.52 748.75 314.11C747.89 313.34 747.02 312.58 746.09 311.89C745.62 311.54 745.2 311.14 744.84 310.69C743.27 311.21 741.47 310.97 739.95 309.43C732.11 301.51 725.51 292.45 720.46 282.52C717.96 277.61 724.57 271.71 728.47 276.34ZM705.8 304.41C706.53 300.78 711.39 298.66 714.4 301.72C718.14 305.53 721.38 309.81 723.98 314.47C727.19 320.21 718.38 325.34 715.18 319.62C714.82 318.97 714.45 318.34 714.06 317.72C714.02 317.69 713.98 317.67 713.94 317.64C713.2 317.4 712.51 316.99 711.89 316.46C710.36 315.12 709.09 313.56 708.06 311.85C707.58 311.35 707.09 310.84 706.6 310.34C704.81 308.48 704.81 306.18 705.8 304.41ZM680.62 306.93C683.28 305.28 686.74 305.67 688.99 307.81C691.22 309.94 691.42 313.63 689.81 316.18C688.21 318.71 685.02 320.36 682.03 319.35C680.92 318.98 680 318.32 679.37 317.49C678.43 316.81 677.73 315.79 677.4 314.68C676.48 311.65 678.05 308.53 680.64 306.93H680.62ZM629.17 354.98C629.52 354.55 629.95 354.18 630.44 353.86C631.36 353.75 632.28 353.65 633.21 353.53C635.03 353.31 636.84 352.73 638.42 351.82C638.92 351.79 639.39 351.77 639.83 351.75L651.55 351.27L690.41 349.39L774.83 348.52C786.8 348.38 798.43 347.97 810.23 348.72C815.37 349.05 819.46 350.42 824.7 348.79C833.03 346.21 843.45 351.34 844.46 360.58C842.75 368.38 830.68 407.52 829.85 411.43L825.17 433.42C823.91 439.33 822.09 444.54 820.67 450.38L815.14 473.05C813.79 478.58 812.69 483.94 811.63 489.44C811.49 489.37 811.34 489.3 811.2 489.22C810.88 490.9 810.79 492.54 810.74 494.07C810.58 494.91 810.42 495.76 810.26 496.61C809.39 501.18 805.41 504.87 801.61 507.48C802.33 507.3 803.06 507.15 803.78 507.01C803.45 507.36 803.14 507.72 802.84 508.07C796.79 511.03 789.78 515.19 788.17 522.49L786.76 528.89L784.88 538.26L786.85 544.32C784.06 544.97 781.01 545.54 778.61 546.3C777.44 546.67 774.55 548.79 773.95 547.33C771.48 541.38 768.66 539.94 765.15 539.61C764.07 539.08 762.9 538.59 761.58 538.2C758.63 537.32 755.97 534.87 755.8 531.5C755.78 531.07 755.76 530.64 755.75 530.22C755.8 528.74 755.87 527.26 755.96 525.74C755.86 525.9 755.76 526.06 755.67 526.22C755.66 510.58 759.1 500.59 760.75 483.95L764.38 447.4C765.07 440.54 765.14 434.68 767.75 428.29C769.49 424.01 770.55 420.18 773.76 416.44C774.7 415.34 775.43 412.5 774.89 411.28C774.29 409.92 771.69 407.67 770.07 407.46L742.65 403.85C740.22 403.53 736.44 404.14 734.22 403.52C727.14 401.54 720.67 401.58 713.43 401.03C703.3 400.27 693.56 399.53 683.34 399.29L673.29 399.05C668.46 398.94 663.46 398.11 659.62 394.97C635.2 375.02 646.37 378.92 631.86 365.12C629.47 362.86 626.64 358.18 629.2 354.99L629.17 354.98ZM310.16 415.88C308.48 407.22 301.65 393.3 313.44 388.33C317.38 386.67 321.7 384.12 325.9 383.14C336.42 380.7 346.37 377.95 356.95 376.33L378.77 372.98C387.35 371.67 395.69 371.62 404.16 370.66L417.66 369.13C430.76 367.65 443.3 366.94 456.39 366.27C462.67 365.94 493.01 359.53 485.67 370.16C474.5 386.31 459.84 385.96 457.42 401.14C456.58 406.39 452.26 409.15 447.26 409.74L433.41 411.36C424.83 412.37 416.85 413.07 408.18 414.88C408.37 414.85 377.37 420.96 383.91 423.13C388.63 424.7 391.47 420.72 406.11 422.25C409.85 422.64 414.1 420.98 417.77 421.05C429.45 421.29 441.37 419.61 452.84 421.35C460.18 422.45 465.96 424.08 473.57 423.13C479.1 422.42 485.9 424.27 490.13 418.73C501.89 403.38 509.85 387.7 517.46 369.84C518.08 368.38 518.81 366.67 519.59 364.79C547.41 362.67 575.19 360.09 602.92 357.05L607.05 372.06C608.7 378.07 611.69 383.52 613.68 389.26C617.47 400.15 621.44 409.7 629.14 418.47C632.14 421.88 633.46 427.52 637.7 430C642.61 432.88 648.21 431.25 653.28 429.89C669.35 425.56 662.99 413.44 674.32 413.61L691.35 413.88L704.54 414.08L732.03 414.81L756.41 415.76C760.18 415.91 765.8 419.04 764.88 423.4C760.67 443.38 751.55 453.52 751 468.8C750.46 483.73 743.48 504.31 743.03 517.5L742.38 536.46C742.25 540.23 739.18 543.57 736.32 545.19C733.26 546.93 729.08 545.94 725.78 543.88C715.34 537.34 704.63 532.38 693.44 527.38C685.23 523.72 677.34 521.86 668.49 520.22C658.8 518.43 649.86 517.5 639.92 517.77C626.71 518.13 614.17 518.59 601 519.68C589.99 520.59 579.78 523.07 569 525.02C556.31 527.31 544.55 530.96 532.16 534.17C520.48 537.19 509.85 539.89 499.03 545.29C491.06 549.27 482.92 552.3 475.23 557.08L444.51 576.19C443.38 576.89 442.34 577.62 441.35 578.36C432.7 583.68 424.54 589.91 416.61 596.26C416.54 596.23 416.47 596.19 416.4 596.15C414.74 595.21 412.66 594.67 410.67 594.23C409.13 593.88 407.87 593.65 406.8 593.5C407.26 593.53 407.72 593.54 408.17 593.57C404.14 592.59 400.12 592.19 396.5 591.93C396.15 591.75 395.77 591.55 395.36 591.32C394.8 591.29 394.02 591.46 393.19 591.7C386.52 591.25 382.07 590.79 383.31 586.68C385.22 580.26 385.83 574.44 385.8 567.78L385.54 519.13L383.79 499.58L382.58 485.9C381.36 472.07 381 455.49 373.72 443.09C371.76 444.7 371.35 446.4 371.69 448.21C372.68 453.71 371.89 458.73 372 464.15C372.16 470.59 372.36 476.45 372.02 482.87C371.76 487.76 372.92 492.96 373.15 497.97C373.73 510.94 373.78 523.72 373.05 536.69C372.21 551.72 372.83 560.83 372.08 576.08C372.03 577.16 370.82 579.39 370.16 580.27C369.3 581.42 368.05 581.56 366.42 581.09C367.27 582 368.06 582.97 368.82 583.98C368.64 583.91 368.45 583.84 368.25 583.77C366.74 582.68 364.83 579.68 363.13 578.89L353.37 574.39C349.62 572.66 347.3 572.29 343.37 572.37C340.54 572.44 338.3 572.52 335.51 573.67L333.4 574.54C333.39 574.47 333.4 574.4 333.38 574.33C332.6 569.4 331.21 564.62 329.66 559.88C329.34 558.9 328.99 557.99 328.57 557.18C328.59 556.97 328.62 556.75 328.64 556.53C329.07 551.85 329.87 546.91 329.86 542.1C329.85 532.86 327.39 524.1 326.31 515.05C325.4 507.44 323.77 500.53 322.46 492.98L319.56 476.22C318.21 468.42 317.34 461.42 316.47 453.52C315.09 440.81 312.6 428.41 310.17 415.89L310.16 415.88ZM324.31 576.62H324.29C324.29 576.62 324.3 576.62 324.31 576.62ZM317.83 573.54L317.56 573.41C317.02 573.15 316.47 572.71 316.07 572.25C316.46 572.4 316.84 572.56 317.23 572.72C317.43 572.99 317.63 573.27 317.83 573.54ZM310.35 586.57L309.92 581.58C309.87 580.95 310.79 579.43 311.39 579.2C313.08 578.57 317.09 581.27 319.15 582.69L327.3 588.28C330.56 590.51 332.17 595.66 333.92 599.17C333.43 600.75 332.32 603.43 331.34 604.29C329.6 605.81 326.65 603.99 325 603.53C320.37 602.23 317.78 599.08 315.06 595.56C312.84 592.69 310.69 590.55 310.35 586.57ZM311.25 716.63C309.05 717.73 306.68 720.03 304.45 718.26C300.3 714.96 300.49 709.36 301.09 704.68C301.51 701.29 302.51 699.81 305.25 698.45C311.12 695.54 316.94 696.02 323.13 698.13C325.79 699.04 331.14 700.14 332.33 703.76C332.64 704.71 331.39 707.03 330.35 707.13C325.59 707.61 322.78 710.81 318.63 712.9L311.25 716.62V716.63ZM466.64 763.04C466.4 763.63 464.72 764.5 463.95 764.36C463.35 764.25 462.57 763.88 462.02 763.46C463.58 763.26 465.13 763.06 466.69 762.86C466.68 762.93 466.67 763 466.64 763.05V763.04ZM486.18 789.6C477.6 785.9 482.52 787.19 476.09 783.84C473.02 782.24 469.07 781.43 469.29 776.96L477.83 774.36C478.99 779.37 481.59 782.15 485.33 784.68C487.27 786 488.74 787.72 491.42 787.49C492.83 787.37 495.02 788.31 495.62 789.8C492.89 793.4 488.97 790.79 486.19 789.6H486.18ZM478.94 763.12C479.52 763.29 480.45 763.83 481.16 764.32L489.95 770.44C491.76 771.7 493.11 771.85 493.67 775.31C487.72 777.98 487.64 772.07 479.04 770.46C476.63 767.31 477.4 762.66 478.93 763.11L478.94 763.12ZM493.36 740.81C490.34 740.89 487.77 741.14 485.54 741.45C477.19 742.11 468.54 743.12 458.88 744.7C451.61 745.9 444.5 747.54 437.25 748.38H436.84C436.84 748.38 436.84 748.41 436.85 748.43C433.47 748.8 430.05 749 426.57 748.88C420.54 748.68 414.88 748.49 408.87 749.05L399.95 749.89C387.43 751.05 375.94 753.15 363.92 756.44C352.22 759.63 341.33 762.89 330.28 768.34C328.56 769.18 325.05 768.96 323.73 767.69C322.53 766.53 322.12 763.61 322.57 761.65C323.79 756.38 324.74 751.88 325.66 746.62C325.93 745.09 326.63 743.62 327.63 742.47C327.83 742.63 328.04 742.8 328.23 742.98C328.28 742.57 328.33 742.16 328.37 741.74C329.9 740.44 331.93 739.82 334.23 740.57C336.7 741.38 339.14 741.9 341.56 742.19C345.11 743.33 348.32 744.26 354.88 742.75C372.15 738.79 378.46 742.14 388.99 723.17C391.16 719.25 392.37 715.78 391.73 711.21L396.66 709.89C399.37 707.14 402 707.84 404.65 709.73C410.06 713.58 423.14 714.05 429.98 710.55L439.75 705.56C444.53 707.92 449.52 705.34 450.94 707.95C453.05 711.82 446.68 716.16 443.82 718.91C436.52 720.7 436.62 723.65 428.21 722.37C425.44 721.95 421.7 722.69 419.34 721.62C408.58 716.73 414.26 723.24 402.12 714.45C400.06 712.96 397.02 712.53 394.85 713.1C394.74 718.29 398.19 720.57 401.49 723.21C403.11 724.51 405.1 727.06 406.87 727.75L414.79 730.85C416.73 731.61 420.08 733.24 422.13 733.45C429.14 734.16 443.13 734.92 448.77 730.95L454.57 726.88C457.21 725.02 460.31 722.31 462.51 720.16L465.92 708.05L468.14 707.26C468.14 708.16 468.47 709.1 469.23 709.95C472.19 713.25 475.35 716.6 479.22 718.85C480.65 721.45 482.34 722.32 487.04 726.54C491.42 730.46 496.77 728.12 504.33 730.92C505.2 731.04 507.34 730.55 508.32 730.36C511.7 732.34 515.01 730.24 518.1 729.64C523.29 728.64 527.95 728.83 532.39 725.11C533.86 723.87 536.9 723.01 538.57 721.83C542.63 718.98 545.26 714.69 548.72 711.03C550.09 709.58 552.08 711.63 553.36 712.54C555.1 713.77 563.05 716.36 566.74 716.16C569.63 716 571.74 717.07 574.48 717.8C577.52 718.61 582.32 718.61 585.43 717.77C588.16 717.04 590.84 714.96 593.41 714.45C596.94 713.75 598.5 712.34 600.25 709.2C601.26 707.39 604.59 705.15 606.56 704.69C611.03 703.65 614.2 705.66 615.22 709.79C615.27 710.02 615.34 710.28 615.39 710.54C615.39 710.74 615.4 710.95 615.43 711.16C615.51 711.75 615.67 712.32 615.86 712.89C616.09 713.97 616.36 715.01 616.73 715.73C617.55 717.31 618.75 718.48 620.1 719.45C620.73 720.21 621.34 720.96 621.89 721.69C624.51 725.15 627.03 728.46 630.75 730.82C631.22 731.11 631.7 731.39 632.18 731.66C631.33 732.58 630.02 733.43 629.19 733.51L603.22 735.9L584.12 737.27L563.34 739.31L534.43 739.83C534.46 739.7 534.49 739.57 534.53 739.45C533.55 739.53 532.55 739.69 531.55 739.88C526.48 739.97 521.68 740.04 517.05 740.12C515.51 740.01 513.96 739.98 512.27 740.09L509.14 740.29C505.36 740.39 501.65 740.51 497.95 740.68L493.36 740.81ZM519.53 765.4C519.3 765.01 519.07 764.61 518.83 764.21C519.24 764.8 519.62 765.41 519.94 766.05C520.82 767.29 521.48 768.71 521.85 770.36C522.18 771.84 522.49 773.42 522.74 775.06C522.49 775.26 522.24 775.41 522.08 775.44C518.93 776.02 521.9 769.39 519.53 765.4ZM499.6 761.82C502.16 761.69 505.55 761.06 507.59 762.53C509.6 763.98 515.81 771.08 514.37 772.72C514.02 773.13 513.09 773.52 512.22 773.71C508.03 774.64 506.01 773.47 504.44 770.22C502.67 766.6 498.98 766.2 499.59 761.81L499.6 761.82ZM504.76 782.24C505.21 781.07 507.65 778.79 508.73 779.44C511.88 781.34 514.38 782.54 518.08 783.48L522.67 788.54L522.57 795.98C522.5 796.33 522.41 796.68 522.33 797.02C520.52 796.84 519.7 796.14 518.25 795.2C512.96 791.76 502.77 787.4 504.76 782.24ZM522.5 854.27C526.2 845.82 529.59 832.51 531.76 819.09C532.08 819.22 532.4 819.34 532.72 819.47C532.42 819.12 532.14 818.74 531.88 818.36C534.12 804.2 534.99 790.01 533.42 781.37L530.97 767.86C530.39 764.69 531.9 760.53 533.88 758.67C535.93 756.73 540.4 755.73 543.39 756.35C555.71 758.89 566.87 758.13 579.09 756.83C589.62 755.71 600 756.4 610.8 756.2C612.82 756.16 616.07 757.32 617.03 758.63C618.31 760.38 618.73 763.61 618.86 766.1L619.87 785.67L622.22 816.71C623.77 831.47 629.78 844.65 635.5 858.16L643.95 878.08C645.61 881.99 642.98 886.7 640.28 889.7C634.25 896.39 626.27 899.9 618.1 904.24C608.98 909.07 600.51 911.31 590.28 911.51L574.69 911.82C562.4 912.07 549.92 910.68 538.26 906.55C530.23 903.7 507.78 887.89 512.53 877.06L522.51 854.26L522.5 854.27ZM643.3 921.67C643.43 924.56 640.85 926.57 638.2 926.77C637.23 926.84 636.26 926.91 635.29 926.98C634.9 927.46 634.46 927.92 633.98 928.37C632.24 929.95 629.88 930.27 627.8 929.17C625.9 928.17 624.76 925.46 625.46 923.41C625.91 922.09 626.52 920.98 627.32 920.02C628.16 918.12 629.56 916.89 631.62 916.17C632.95 915.7 634.4 916.01 635.61 916.77C636.47 916.7 637.34 916.64 638.21 916.58C641.06 916.37 643.19 919.08 643.31 921.68L643.3 921.67ZM693.45 1017.36L667.41 1022.95C656.71 1025.25 646.42 1025.36 635.47 1025.78L585.72 1027.72L563.78 1026.95C555.04 1026.64 546.78 1027.37 538.06 1026.67C525.61 1025.68 514.09 1023.5 502.21 1020.04L472.68 1011.44C459.64 1007.63 448.19 1001.44 437.09 993.76C416.21 979.29 413.01 976.95 399 955.66C395.42 950.2 393.18 944.52 391.69 938.04C386.16 913.94 386.86 905.05 396.43 883.03C396.73 882.34 397.07 881.64 397.43 880.94C398.06 880.63 398.63 880.11 399.07 879.34C402.01 874.28 405.38 869.73 409.14 865.61C418.07 856.62 429.43 848.77 438.35 845.39L469.14 833.69L488.04 828.74C493.66 827.27 499.57 826.77 505.32 825.37C508.3 824.64 511.7 825.31 512.77 828.84C514.25 833.71 513.46 840.15 509.68 844.19C505.69 848.47 481.74 848.78 467.84 860.69C459.85 867.53 454.42 877.57 450.56 887.31C448.65 892.09 447.83 897.63 447.19 902.57C445.38 916.36 455.81 933.7 468.01 940.89C474.62 944.78 480.86 950.32 488.45 952.2L512.39 958.16C522.1 960.59 531.86 961.9 541.75 963.64C556.4 966.23 575.28 966.53 590.42 965.51C608.42 964.3 625.3 959.55 642.62 954.96C651.87 952.51 659.58 949.16 668.28 945.14L682.35 938.64C690.19 935.02 696.53 929.4 704.12 925.11C719.12 916.63 728.26 886.99 708.33 868.43C677.97 840.14 657.82 855.93 651.27 849.43C649.46 847.64 647.73 845.39 646.32 842.95C646.6 842.94 646.88 842.92 647.16 842.92C646.86 842.36 646.57 841.8 646.31 841.25L643.65 835.55C643.53 835.29 643.42 835.03 643.3 834.75C643.16 833.83 643.1 832.91 643.12 832.02C643.17 830.12 643.3 828.55 643.17 827.08C645.66 826.9 647.57 828.49 649.95 829.19C652.61 829.98 655.7 829.6 658.68 829.55L665.63 830.68C666.62 830.96 667.63 831.18 668.48 831.14L677.23 832.55C677.6 832.61 677.98 832.67 678.35 832.73C678.82 832.87 679.3 832.97 679.8 833.03C680.32 833.1 680.89 833.17 681.49 833.25C706.07 837.41 734.95 844.09 753.44 860.65C759.56 866.13 760.96 874.35 763.49 881.64C768.66 896.46 756.63 894.31 743.92 908.29C737.3 915.58 731.24 923.49 726.21 932.05C717.24 947.32 715.21 952.58 709.46 969.32C702.6 989.3 708.77 1014.08 693.43 1017.36H693.45ZM664.35 894.78C665.74 890.91 667.14 887.04 668.54 883.17C668.55 881.55 668.45 879.95 668.38 878.46C668.22 874.97 671.04 873.34 673.74 873.57C680.14 869.6 686.71 875.96 687.97 882.11C688.79 886.13 685.82 889.08 683.59 892.07C681.33 895.11 679.12 898.19 676.77 901.16C672.24 906.9 666.75 911.06 659.75 913.31C653.48 915.32 650.82 905.48 657.04 903.48C660.13 902.49 662.68 900.87 664.93 898.89C664.11 897.78 663.78 896.35 664.35 894.78ZM978.67 1022.87C978.59 1024.63 976.83 1027.8 976.98 1029.9C977.58 1038.19 974.37 1044.95 971.69 1051.73C970.59 1054.52 970.49 1058.77 969.09 1061.44C967.09 1065.22 965.42 1068.6 963.92 1072.55C962.37 1076.63 959.2 1080.38 957.34 1084.16C953.05 1092.84 947.02 1097.86 938.38 1102.08L929.99 1106.19C927.52 1107.41 924.89 1109.32 922.26 1110.48L911.64 1115.15C908.23 1116.65 905.27 1117.36 902.12 1119.1C914.8 1107.02 924.6 1092.05 933.96 1077.22C934.66 1076.12 934.52 1075.05 933.96 1074.25C934.93 1072.38 935.65 1070.4 935.33 1068.82C932.05 1066.95 929.13 1070.19 927.5 1072.4L920.36 1082.13C919.17 1083.75 916.47 1086.59 914.78 1088.14L905.58 1096.6C899.57 1102.12 895.19 1102.86 893.02 1106.82C891.32 1109.93 888.6 1110.54 886.15 1112.24L872.37 1121.75C865.78 1126.28 860.5 1128.59 853.88 1129.03C857.12 1126.22 860.04 1122.98 862.83 1119.68C866.38 1115.47 869.89 1111.35 874 1107.68C877.33 1104.7 879.68 1101.94 878.53 1097.29C878.26 1096.23 877.24 1095.34 876.12 1095.14C876.1 1095.06 876.09 1094.98 876.07 1094.91C875.93 1094.96 875.81 1095.04 875.68 1095.1C875.4 1095.09 875.12 1095.12 874.85 1095.22C873.98 1095.53 873.1 1095.85 872.23 1096.16C871.26 1095.71 870.1 1095.81 869.16 1096.89C865.61 1101 861.81 1104.88 857.78 1108.52L854.62 1110.51C844.25 1117.06 830.7 1127.37 817.82 1128.66C802.62 1130.18 787.99 1126.74 773.76 1122.18C768.85 1120.61 765.78 1117.45 762.02 1114.08L751.88 1105.01L737.9 1088.91C733.8 1084.19 730.53 1078.41 727.29 1073.06C720.93 1062.58 718.88 1050.98 716.59 1039.12C713.93 1025.38 713.25 1012.09 716.02 998.13C719.11 982.53 713.5 991.33 722.89 967.08C726.48 957.81 730.77 949.61 735.84 941.02C739.85 934.24 743.32 927.82 748.63 921.83C754.62 915.06 760.35 907.81 768.88 904.19L776.61 900.89C788.01 896.04 799.08 888.71 811.9 888C831.39 886.93 855.41 886.8 874.31 891.41C884.68 893.95 894.52 897.3 904.53 901.12C919.03 906.64 939.68 922.07 948.63 934.61C953.77 941.82 954.94 946.04 960.74 953.63C962.21 955.55 964.5 958.31 965.52 960.32L973.3 975.55C976.06 980.98 976.87 988.13 978.24 994.51C980.12 1003.36 979.08 1013.37 978.65 1022.89L978.67 1022.87ZM904.35 1107.83C904.67 1107.59 905.02 1107.35 905.4 1107.1C905.14 1107.39 904.88 1107.69 904.61 1107.98C904.52 1107.93 904.44 1107.87 904.35 1107.83ZM1010.97 1050.75C1006.9 1051.27 1002.99 1051.11 998.19 1050.8C997.98 1050.79 997.73 1050.73 997.48 1050.64C993.19 1048.57 991.9 1043.95 992.68 1039.34L995.54 1022.53C995.85 1020.72 997.85 1018.28 999.18 1017.32C1001.23 1015.86 1004.04 1016.02 1006.92 1017.37C1006.95 1017.2 1006.99 1017.02 1007.03 1016.85C1014.4 1021.01 1013.38 1022.75 1017.72 1030.65C1019.62 1034.12 1020.04 1037.75 1017.08 1041.11C1017.49 1044.73 1015.16 1050.2 1010.96 1050.73L1010.97 1050.75ZM1036.88 1034.69C1033.45 1029.06 1037.27 1024.05 1042.21 1021.25C1044.52 1019.94 1046.18 1020.52 1047.86 1022.2C1050.15 1024.5 1051.34 1026.53 1051.23 1030.1C1051.01 1036.92 1042.4 1034.27 1036.88 1034.69ZM1044.85 1013.64C1038.05 1013.03 1032.93 1016.73 1028.17 1021.77C1027.17 1021.55 1025.13 1019.52 1024.77 1018.33C1023.47 1013.92 1020.43 1012.4 1017.11 1009.98C1014.01 1007.72 1011.19 1006.54 1007.33 1005.49C1003.22 1004.38 1001.99 1005.67 1000.83 1006.7C998.77 1005.87 997.15 1002.91 996.7 1000.88L992.3 980.63C990.51 972.38 987.28 965.16 982.98 957.93C979.87 952.7 977.86 946.61 974.12 941.91C969.98 936.69 967.34 931.27 963.18 926.14L951.03 911.11C941.81 899.71 918.73 885.66 904.3 881.44L869.39 871.25C846.6 868.2 824.14 867.79 801.27 870.82C791.48 872.11 787.55 879.85 782.29 878.74C777.09 877.64 772.82 865.94 769.64 860.35C766.55 854.89 761.89 850.74 756.67 847.43C757.02 847.34 757.37 847.26 757.72 847.18L750.21 843.11C747.14 841.45 743.01 840.83 740.25 838.73C737.34 836.51 735 835.3 731.01 835.64L725.06 832.19C724.13 832.82 723.34 833.02 722.63 832.99L720.8 832.39C719.83 831.83 718.89 831.02 717.75 830.59C715.55 829.76 712.61 829.19 709.9 828.63C709.25 828.2 708.55 827.53 708.01 826.86C706.43 826.78 704.84 826.67 703.25 826.55C702.73 826.16 702.48 825.71 702.59 825.17C703.25 822.21 707.99 821.93 710.6 819.43L715.96 814.32C718.32 812.07 718.62 807.63 720.31 805.35C722.55 802.35 727.42 805.4 728.78 808.08C730.25 811 731.92 812.92 734.03 815.22C739.61 821.27 748.43 823.67 753.69 825.81L762.45 829.36C768.46 831.8 775.79 829.87 782.67 829.33C792.59 824.03 789.28 827.32 797.41 819.7C798.53 818.65 799.84 816.51 800.88 815.23C805.76 813.78 810.7 814.74 814.98 816.77C816.02 821.4 817.92 826.51 821.76 829.09L830.39 834.9C831.98 835.97 833.46 836.73 835.35 837.61C837.01 838.38 839.47 840.44 841.11 840.82L848.56 842.56C850.42 842.99 853 844.25 854.76 845.12L878.24 845.19C883.28 840.83 888.58 841.66 891.69 834.57C891.9 834.08 892.77 832.97 893.26 833.07C893.74 833.17 894.61 833.56 895.27 833.86L901.03 836.44C902.54 837.11 904.27 838.57 903.93 840.14C903.25 843.21 903.36 845.6 903.22 848.58C903.07 851.62 904.02 853.28 904.89 855.83C906.34 860.12 906.86 864.03 910.98 867.25C915.23 870.59 919.46 874.6 924.12 877.55C926.78 879.23 930.44 880.25 933.16 881.59C939.51 884.71 945.58 885.48 952.56 885.52C956.98 885.55 966.16 886.36 969.45 881.86L971.06 879.66C971.42 879.18 973.44 879.42 973.82 879.99L978.65 887.28C974.84 892.92 972.92 906.26 975.78 911.82C977.53 915.24 979.91 919.6 983.05 921.81L997.91 932.24C1000.17 933.83 1003.42 935.29 1006.25 936.9C1010.29 939.2 1022.24 939.35 1027.7 938.55C1029.13 938.34 1030.98 937.54 1032.08 937.82C1033.68 938.22 1034.78 940.76 1033.66 942.05C1031.61 944.4 1030.39 946.9 1028.93 949.36C1025.7 954.78 1026.05 959.49 1027.96 965.29C1029.04 968.57 1030.25 970.78 1032.53 973.75C1036.53 978.98 1041.78 984.95 1046.61 989.52L1054.03 996.53C1055.25 997.68 1058.61 998.03 1060.45 998.16L1071.43 998.95C1072.76 1001.48 1069.72 1004.24 1066.66 1004.44C1061.18 1004.79 1059.52 1014.99 1044.85 1013.66V1013.64ZM1072.32 1021.54C1071.61 1023.03 1069.14 1024.96 1067.61 1023.35C1065.6 1021.23 1066.84 1013.41 1069.05 1014.24C1070.23 1014.68 1073.64 1018.83 1072.32 1021.55V1021.54ZM1071.88 985.28C1066.29 986.69 1060.65 985.49 1057.55 981.56C1051.86 974.36 1048.64 972.43 1042.11 964.72C1040.87 963.25 1039.62 959.27 1039.77 957.37L1040.28 950.47C1040.33 949.77 1041.46 948.1 1042.17 948.01C1043.48 947.85 1049.16 950.77 1049.48 953.87C1049.85 957.47 1049.7 961.58 1052.3 964.06C1060.32 971.75 1054.18 970.18 1065 976.56L1070.11 979.56C1071.19 980.19 1072.14 980.93 1072.71 981.54C1073.27 982.14 1072.75 985.05 1071.89 985.27L1071.88 985.28ZM1072.02 964.52C1069.78 962.9 1054.26 946.31 1060.39 944.57C1061.31 944.31 1062.4 945.4 1063.34 946.47C1067.79 951.54 1072.74 956.41 1075.52 963.12C1075.21 964.18 1072.71 965.02 1072.02 964.52ZM1091.73 997.28C1088.24 1003.68 1090.68 1005.69 1084.32 1010.24C1081.97 1009.41 1080.15 1007.43 1080.19 1004.81L1080.31 996.7C1080.36 992.94 1086.86 994.71 1088.62 987.01C1088.75 986.45 1089.75 985.44 1090.08 985.11C1090.42 984.77 1091.82 986.12 1091.82 986.66L1091.73 997.27V997.28ZM1085.27 976.83C1086.36 977.2 1087.3 978.04 1088.6 979.8C1086.66 980.79 1083.88 981 1082.82 978.9C1082.43 978.12 1084.49 976.58 1085.27 976.83ZM1093.65 963.16C1093.44 965.19 1090.06 964.79 1088.82 963.61C1084.02 959.03 1091.11 953.58 1069.27 939.1C1068.08 938.31 1065.44 937.97 1064.97 936.86C1064.38 935.47 1064.53 932.01 1065.97 931.66C1068.09 931.14 1070.69 932.24 1072.44 933.22L1082.04 938.53C1087.91 941.79 1090.76 949.22 1093.74 955.31C1094.24 957.1 1093.92 960.69 1093.66 963.15L1093.65 963.16Z" fill="black"/>
<path d="M944.77 984.06C942.7 985.84 941.45 987.43 939.94 989.57L932.66 999.93C929.29 1004.72 928.94 1010.57 932.67 1015.33C935.57 1019.02 937.6 1022.96 939.44 1027.34C940.45 1029.77 943.55 1032.72 946.22 1031.68C948.05 1030.97 951.4 1027.28 950.81 1025.24C947.12 1012.35 939.17 1008.74 942.3 1005.35L947.63 999.59C952.39 985.43 950.74 999.51 955.94 980.99C956.14 980.27 955.76 978.54 955.3 978C953.37 975.72 946.59 982.49 944.75 984.08L944.77 984.06Z" fill="black"/>
<path d="M936.74 950.08L928.55 950.77L916.06 965.65C914.97 966.96 912.91 968.42 912.64 970.18C911.31 978.75 904.14 981.7 907.62 984.07C910.35 985.93 913.57 979.13 918.35 979.41C920.06 979.51 922.29 982.25 923.52 983.88C922.55 989.75 916.51 994.69 918.92 999.75C919.78 1001.55 922.39 1002.39 924.26 1002.12C925.69 1001.9 927.72 1000.28 928.62 998.48L938.03 979.52C940.52 974.48 938.76 965.82 940.93 961.12C943.37 955.85 937.58 949.99 936.74 950.07V950.08ZM929.3 975.7C927.77 977.43 923.2 975.35 922.41 972.91L928.98 966.29C931.38 968.85 931.56 973.14 929.29 975.7H929.3Z" fill="black"/>
<path d="M915.92 1014.36C912.73 1010.82 910.61 1007.11 907.27 1003.74L901.21 997.62C897.3 993.68 892.31 989.72 886.79 992.09C885.43 994.36 885.21 999.39 887.56 1000.92C889.8 1002.39 891.86 1003.58 893.4 1005.49L898.23 1011.53C899 1012.5 900.13 1015.18 899.09 1015.84C895.39 1018.16 894.99 1021.94 893.72 1025.69L889.48 1038.22C889.19 1039.09 887.84 1041.18 888.13 1042.14C888.8 1044.34 886.43 1047.24 886.3 1048.99C885.76 1056.66 885.97 1064.33 886.02 1071.89L887.88 1075.51C889.31 1078.3 891.22 1080.32 894.34 1079.38C896.85 1078.61 898.83 1076.08 897.92 1073.02C897 1069.89 898.14 1066.92 898.55 1063.75L899.47 1056.71C899.8 1054.21 899.4 1051.27 899.8 1049.13C901.6 1039.66 902.03 1040.61 904.05 1032.17L906.09 1023.68C908.34 1024.18 910.62 1030.05 912.61 1033.32L915.97 1038.86C917.1 1040.72 919.42 1042.75 921.44 1044.29C922.9 1045.4 927.2 1043.78 927.77 1041.67C929.46 1035.46 926.03 1027.95 920.88 1022.88C918.67 1020.71 917.95 1016.63 915.9 1014.36H915.92Z" fill="black"/>
<path d="M892.34 973.84C894.62 975.72 898.55 974.93 899.38 972.28C900.32 969.3 899.16 966.92 898.02 964.33C895.18 957.84 897.45 956.83 896.27 949.59C895.96 947.67 898.22 945.7 899.02 943.79C900.34 940.65 901.71 936.29 905.77 935.87C909.43 935.48 911.82 939.2 912.32 942.44C912.84 945.86 914.45 952.7 918.3 952.66C920.97 952.63 925.06 946.52 924.3 944.78L920.7 934.61C919.8 932.98 917.46 930.06 916.11 928.62C912.19 926.83 907.34 925.01 903.07 926.34C898.81 927.67 894.13 930.69 891.69 934.31C890.99 935.34 886.12 945.37 886.12 945.39C885.68 946.91 885.16 950.33 885.24 951.91L885.64 960.72C885.97 968.12 885.35 968.06 892.36 973.84H892.34Z" fill="black"/>
<path d="M894.34 1080.66C894.6 1080.65 894.88 1080.55 895.2 1080.42C894.55 1080.5 893.9 1080.58 893.24 1080.64C893.63 1080.69 893.99 1080.7 894.33 1080.67L894.34 1080.66Z" fill="black"/>
<path d="M885.73 918L885.21 910.35C885.17 909.76 884.73 908.53 884.22 908.43C880.49 907.72 878.82 915.05 878.23 917.93C877.62 920.93 875.1 924.25 874.65 927.3L873.34 936.23C872.07 944.85 872.69 938.94 869.93 948.97L867.9 956.36C867.59 957.49 867.9 959.81 868.64 960.63C869.27 961.33 871.22 962 872.55 962.13C877.02 962.58 879.39 960.34 879.9 956.49C880.21 954.17 883.76 946.17 883.96 944.81L885.46 934.51C886.22 929.28 886.09 923.34 885.72 917.99L885.73 918Z" fill="black"/>
<path d="M872.24 976.47C867.63 974.59 865.35 970.06 861.81 968.23C853.16 963.76 837.48 960.84 832.44 969.42C829.82 973.89 832.9 978.34 834.19 982.13C829.84 992.33 832.62 1007.64 832.53 1017.7L832.43 1028.48C832.4 1031.55 832.46 1034.13 833.1 1037.23L834.74 1045.2C835.13 1047.1 837.37 1046.17 836.14 1056.84C835.81 1059.68 836.09 1061.9 836.17 1064.67L836.63 1081.6C836.68 1083.41 840.71 1097.16 848.41 1095.62L856.22 1094.06C859.49 1093.41 864.59 1090.38 867.02 1087.55C870.6 1083.38 872.48 1078.11 874.16 1073.34C875.46 1069.63 873.33 1065.56 873.25 1061.95C873.16 1058.28 872.28 1055.68 871.24 1052.35C867.78 1041.27 863.89 1044.56 863.7 1041.02C863.67 1040.44 864.49 1039.61 865.15 1039.06C868.54 1036.23 872.75 1029.84 875.29 1025.93C877.08 1023.19 879.13 1020.91 879.44 1017.21C879.66 1014.66 881.17 1011.84 881.56 1009.42C882.64 1002.66 877.88 981.79 872.23 976.46L872.24 976.47ZM858.96 1080.18C857.42 1081.67 854.22 1082.41 852.61 1083.52C851.52 1084.27 850.03 1085.12 849.1 1085.1C845.52 1085 844.89 1074.08 844.24 1070.42C843.55 1066.57 843.88 1062.56 844.4 1058.61C843.6 1055.69 843.34 1051.8 845.94 1049.64C848.14 1047.82 851.7 1049.18 853.89 1050.45C854.71 1050.93 857.18 1051.3 857.87 1052.01C865.54 1059.99 865.73 1071.05 858.98 1080.18H858.96ZM863.78 1023.95L856.68 1031L852.47 1031.78C850.45 1034 846.58 1035.91 844 1033.98L843.52 1019.84C843.45 1017.78 843.09 1016.1 842.92 1014L842.08 1003.7L841.41 997.46L839.48 986.6C838.94 983.55 838.5 979.98 841.22 977.61C842.69 976.33 846.13 977.51 847.8 977.42C853.24 977.15 856.17 979.96 859.93 982.4C863.08 984.44 864.71 985.4 865.35 989.88C865.62 991.82 868.32 994.93 868.33 997.27L868.37 1012.37C868.37 1016.02 864.94 1019.06 863.79 1023.94L863.78 1023.95Z" fill="black"/>
<path d="M874.14 1094.36C874.86 1094.22 875.59 1094.08 876.32 1093.96C875.86 1093.69 874.93 1093.93 874.14 1094.36Z" fill="black"/>
<path d="M837.24 947.851C837.76 949.061 839.56 950.671 840.74 950.511C841.95 950.351 843.75 948.881 844.62 947.491C849.82 939.161 838.68 931.001 845.91 930.341C847.72 933.101 851 937.741 851.5 941.041L853.04 951.361C853.54 954.701 855.48 957.271 859.21 957.301C866.5 957.351 864.99 943.241 864.86 936.781C864.74 930.571 868.14 937.301 866.64 917.501C866.38 914.091 868.22 909.971 867.26 906.711C866.4 903.791 862.45 904.171 860.31 904.711C858.53 905.161 855.52 907.041 855.49 909.681L855.35 921.671C855.35 922.111 854.69 923.351 854.32 923.271C852.57 922.901 849.65 919.051 845.46 915.541C841.72 912.411 842.5 907.941 834.97 908.231C832.55 908.331 829.89 908.591 828.61 910.411C826.01 914.101 829.68 923.811 829.87 925.081L830.66 930.531C831.01 932.941 831.99 935.761 832.86 937.771L837.24 947.851Z" fill="black"/>
<path d="M827.99 937.7C826.41 933.26 823.27 929.52 820.51 925.71C818.74 923.24 817.47 919.97 815.39 917.79C814.23 916.57 811.65 915.46 811.09 914.11C810.42 912.46 809.77 910.13 807.9 910.53C806.21 910.9 805.37 914.21 805.95 915.67L809.2 923.95C810.7 927.78 809.11 930.33 805.95 932.33C805.32 932.73 804.37 934.1 803.75 933.88C800.12 932.55 803.4 929.9 794.62 924.38C793.3 923.55 791.82 922.61 790.66 922.45C789.76 922.33 787.68 923.71 787.72 924.67C787.83 927.56 791.17 931.09 791.61 933.62C792.48 938.57 794.1 941.82 796.87 945.82L800.77 951.44L805.48 957.75C806.51 958.67 809.71 956.93 810.96 955.93C813.66 953.77 813.29 951.27 812.1 948.41L808.67 940.15C807.82 938.1 813.82 936.35 814.65 938.15L818.6 946.6C819.57 948.67 820.23 950.3 822.7 950.73C825.13 951.16 827.46 950.71 828.8 949.29C830.59 947.39 830.56 945 829.76 942.74L827.97 937.71L827.99 937.7Z" fill="black"/>
<path d="M821.01 1077.15L810.46 1075.05L807.36 1069.52C808.81 1061.71 806.44 1062.05 809.27 1055.04L807.26 1049.83L808.82 1041.44C808.98 1040.58 810.01 1039.01 810.72 1038.52C811.33 1038.1 813.4 1039.04 814.17 1038.83C816.65 1038.15 819.85 1036.77 822.43 1035.6C825.69 1034.13 827.3 1029.69 825.51 1026.93C823.7 1024.14 819.98 1023.12 816.86 1024.56C810.49 1027.5 808.28 1032.16 807.96 1026.69L807.4 1017.03C806.86 1007.7 803.72 1007.54 804.1 1003.53C804.39 1000.45 807.7 997.78 808.76 995.06C812 986.77 813.62 988.98 820.93 979.16C822.5 977.05 824.08 973.17 821.85 971.06C817.73 967.15 807.74 975.14 805.19 978.89C789.39 1002.16 797.94 985.06 797.88 1004.48L797.83 1022.07L797.75 1044.76C797.75 1045.85 797.1 1048.06 797.18 1048.93C797.46 1051.91 798.42 1055.97 797.13 1058.55C793.8 1065.2 797.4 1062.25 795.27 1074.55C794.79 1077.35 792.78 1081.4 795.62 1083.73C804.98 1091.4 805.54 1091.1 816.83 1094.26C821.92 1095.69 824.61 1092.98 826.78 1088.97C828.44 1085.91 829.02 1083.57 826.43 1080.49C825.02 1078.81 823.36 1077.62 820.99 1077.15H821.01Z" fill="black"/>
<path d="M785.8 968.12C792.77 964.43 799.5 963.81 799.24 956.6C799.15 954.19 798.7 952.711 796.39 952.091C792.54 951.071 792.48 955.21 788.39 957.76C783.68 956.71 779.47 953.351 778.47 949.531C777.02 944.011 778.28 939.72 781.91 936C784 933.87 785.51 930.18 782.86 927.81C781.88 926.93 779.17 928.26 777.95 928.54C774.02 929.44 771.72 931.611 769.81 934.901C769.18 935.971 766.55 937.56 766.53 938.79C766.36 952.64 765.16 949.691 770.67 959.031C774.67 965.831 779.01 964.23 785.8 968.12Z" fill="black"/>
<path d="M790.41 1022.69C788.89 1019.41 788.26 1016.24 785.36 1013.68C783.44 1011.99 781.13 1009.78 778.84 1008.83C777.01 1009.98 774.14 1011.47 772.97 1012.77C771.12 1014.82 768.63 1017.57 767.46 1019.8L763.71 1026.99C762.51 1029.28 761.43 1031.52 760.02 1033.64C758.07 1039.38 754.63 1044.24 751.75 1049.71L747.97 1056.87C746.24 1060.16 748.53 1062.78 749.76 1065.55C750.94 1068.17 752.04 1069.31 754.49 1070.57C757.22 1071.97 759.58 1074.02 763.2 1073.4C766.93 1077.04 771.26 1075.41 775.09 1074.13C778.97 1072.83 781.48 1071.02 784.09 1067.9C786.41 1065.13 789.22 1062.54 791.02 1059.28C793.85 1054.09 793.64 1048.13 794.72 1042.51C796.42 1033.63 794.16 1030.77 790.41 1022.69ZM785.76 1044.57L782.11 1055.81C781.04 1059.09 778.81 1060.56 775.74 1061.65C773.05 1062.6 770.42 1063.25 768.01 1060.38L763.1 1061.15C761.01 1057.44 763 1053.29 765.41 1050.77C766.35 1049.78 766.33 1046.96 766.81 1045.71C767.57 1043.74 769.98 1041.61 770.58 1039.69C771.76 1035.97 772.33 1032.24 774.52 1029.16C778.48 1023.59 774.95 1027.6 777.57 1022.51C778.75 1020.21 785.53 1035.38 785.87 1036.16C786.7 1038.1 786.39 1042.64 785.76 1044.55V1044.57Z" fill="black"/>
<path d="M754.82 987.901C759.5 990.401 763.89 992.75 768.89 994.89C771.53 996.02 776.62 992.93 777.66 990.61C778.09 989.63 778.43 987.4 779.01 986.72C782.92 982.04 786.7 976.86 781.51 971.35C780.91 970.7 778.63 969.88 777.86 970.3C777.09 970.73 776.03 971.84 775.23 972.79C768.85 980.34 772.2 985.421 766.06 982.031C764.73 981.301 763.07 980.28 763 979.23C762.93 978.01 763.51 976.27 764.03 975.32L767.5 969.08C768.5 967.28 768.71 965.87 767.21 963.96C766.58 963.16 764.95 961.81 764.05 961.93C761.56 962.25 755.92 967.151 754.97 972.091C748.73 968.571 761.9 957.23 758.47 951.75C756.03 947.84 746.58 957.9 743.84 963.13C739.73 970.95 743.05 975.5 748.39 981.45C750.43 983.73 751.94 986.361 754.82 987.901Z" fill="black"/>
<path d="M764.73 1008.82C765.85 1004.37 760.58 1001.43 757.46 1000.25L750.41 997.59C746.67 996.18 743.7 994.27 739.3 994.46C740.73 984.59 737.84 985.33 741.09 978.74C742.2 976.49 738.47 972.77 736.24 973.69L731.37 984.1C730.17 986.66 729.07 989.1 728.34 991.85C726.39 999.27 723.36 1014.97 732.17 1018.87C733.35 1019.4 735.89 1018.33 736.65 1017.35C739.59 1013.54 736.65 1009 738.68 1004.34C739.89 1003.84 741.64 1005.49 742.76 1006.19L753.25 1012.76C756.52 1014.81 763.71 1012.93 764.74 1008.82H764.73Z" fill="black"/>
<path d="M646.38 466.6L622.9 448.39C619.13 445.47 614.19 442.74 609.51 441.74C603.35 440.43 589.94 444.37 590.21 454.01C590.5 464.09 608.76 470.31 618.77 470.99C626.82 471.54 633.68 472.74 642.21 474.87C644.12 475.35 647.02 473.47 647.44 472.16C647.87 470.84 647.48 467.46 646.37 466.61L646.38 466.6ZM602.92 451.9C608.88 451.18 613.84 452.98 617.94 455.92L622.11 458.9C618.79 459.57 605.83 456.62 602.92 451.89V451.9Z" fill="black"/>
<path d="M519.46 414.15L543.04 412.29C549.7 411.77 566.9 412.9 578.84 412.53L594.9 412.01C596.87 411.95 600.29 411.49 600.83 409.22C601.86 404.8 598.04 398.03 593.1 397.89C580.51 397.52 568.33 397.19 555.79 397.93L520.75 400.02C515.12 400.36 510.51 405.46 512.38 411.17C513.14 413.44 517.1 414.34 519.44 414.15H519.46Z" fill="black"/>
<path d="M520.01 455.37C519.34 452.35 517.09 448.49 513.66 447.02C510.14 445.5 505.97 446.54 502.68 448.05C494.67 451.77 487.04 455.66 480.37 461.32C475.27 465.64 461.12 480.53 468.02 485.72C469.26 486.66 472.41 487.18 474.12 486.41C481.96 482.85 489.09 479.43 497.41 476.27C505.86 473.06 522.73 467.73 520.02 455.38L520.01 455.37ZM511.67 459.87L505.42 463.01C501.94 463.42 497.65 463.17 495.65 466.93L491.74 463.99L499.94 456.92L507.94 455.12C508.86 454.91 511.05 455.87 511.71 456.47C512.37 457.07 512.5 459.46 511.69 459.87H511.67Z" fill="black"/>
<path d="M349.18 608.46C349.32 608.58 349.44 608.71 349.57 608.83C349.46 608.68 349.36 608.55 349.24 608.42C349.22 608.43 349.2 608.45 349.18 608.46Z" fill="black"/>
<path d="M235.05 531.191C217.76 457.041 188.33 373.691 145.37 312.011C161.73 358.841 187.16 407.311 201.11 456.371C213.31 496.271 220.59 539.471 229.37 579.961C243.55 625.821 198.7 668.391 154.17 664.361C112.36 650.211 87.59 617.481 63.3 585.141C30.1 539.541 6.81 447.101 94.04 458.001C121.81 465.751 117.95 506.401 139.16 523.551C147.19 541.511 190.5 565.601 171.7 584.821C146.77 603.621 121.12 574.101 121.77 552.901C100.45 531.671 99.14 578.281 112.78 589.331C134.23 631.221 219.08 607.851 193.02 559.691C167.14 525.571 138.33 493.811 123.52 453.791C48.11 397.081 -17.46 488.521 27.69 561.521C53.07 611.421 101.06 681.001 162.45 683.101C244.94 681.421 263.84 595.591 235.04 531.211L235.05 531.191Z" fill="black"/>
<path d="M869.04 281.2C896.47 295.86 909.3 342.15 942.61 340.27C971.91 337.79 1000.92 334.62 1021.31 310.46C1031.16 303.47 1058.98 264.46 1045.92 261.72C1033.19 305.16 970.72 334.62 933.46 317.77C906.6 287.11 879.46 256.77 842.58 238.08C723.18 170.81 865.99 50.81 935.8 130.58C949.42 156.4 959.19 189.29 957.41 218.51C933.12 249.14 875.63 200.22 900.42 168.36C841.52 148.48 885.4 255.75 929.39 247.4C1009.83 261.1 974.05 150.39 946.72 112.12C880.66 30.65 713.7 138.29 796.78 226.54C815.45 251.41 846.31 261.12 869.05 281.21L869.04 281.2Z" fill="black"/>
<path d="M997.89 472.471C943.18 484.391 941.92 568.131 966.86 607.101C995.19 633.311 1040.28 553.411 999.17 548.591C983.65 620.681 967.39 575.241 974.05 530.451C981.03 470.751 1049.29 483.291 1044.8 542.131C1057.83 592.651 1059.67 649.931 995.97 665.691C918.08 697.681 924.24 585.921 925.27 537.781C962.72 298.181 840.32 716.951 981.8 687.551C1091.55 664.061 1074.79 590.121 1055.68 501.381C1051.31 475.471 1015.79 466.821 997.88 472.471H997.89Z" fill="black"/>
<path d="M631.42 99.3203C642.74 60.9803 573.78 61.4303 608.56 98.5503C606.02 140.6 538.53 117.39 540.34 84.6403C549.27 33.6203 625.14 12.0903 669.18 25.7003C718.51 50.1303 688.58 113.38 676.98 151.84C674.72 177.77 597.88 173.57 579.74 185.05C591.56 194.89 620.29 182.66 637.04 184.88C662.93 185.78 691.2 181 695.61 150.69C766 7.8503 637.21 -46.2597 535.33 44.7303C469.68 113.22 615.38 194.86 631.43 99.3403L631.42 99.3203Z" fill="black"/>
<path d="M292.87 218.24C318.68 196.91 285.86 139.91 262.03 167.78C257.15 183.39 283.35 181.33 280.06 196.45C221.15 253.73 195.67 200.06 236.82 144.65C313.58 80.6104 387 177.4 312.6 242.22C293.37 267.52 268.61 289.04 249.15 312.8C262.74 310.44 270.24 297.17 281.16 290.19C451.74 167.06 306.27 39.8204 214.92 138.65C165.36 214.55 213.5 283.8 292.87 218.25V218.24Z" fill="black"/>
<path d="M233.52 836.21C153 851.48 159.4 963.54 192.87 1019.28C231.35 1067.9 164.41 955.68 191.5 894.13C213.29 829.94 312.59 838.07 307.56 913.77C319.72 967.54 251.47 969.43 258.23 924.3C286.65 928.01 283.04 890.79 255.47 894.74C169.81 985.04 390.38 1034.4 310.42 858.26C296.91 829.76 259.23 830.74 233.53 836.21H233.52Z" fill="black"/>
<path d="M1137.74 369.28C1120.43 323.64 1046.83 370.93 1084.17 406.71C1100.75 409.74 1093.04 392.91 1098.65 379.46C1118.39 359.83 1114.83 388.7 1107.73 401.19C1106.74 421.13 1068.34 414.08 1061.31 401.19C1052.85 372.27 1077.71 350.99 1090.89 331.23C1067.9 328.95 1050.08 363.03 1045.27 383.35C1031.86 418.8 1065.65 431.37 1094.59 433.66C1121.46 442.78 1124.58 424.91 1127.74 403.48C1131.74 393.13 1138.17 380.65 1137.72 369.3L1137.74 369.28Z" fill="black"/>
<path d="M100.56 309.66C96.89 285.48 83.88 267.3 68.58 249.84C68.76 264.55 78.66 270.14 82.58 286.29C122.63 356.49 -19.58 379.79 32.08 307.06C41.61 300.04 41.04 311.86 43.79 317.68C68.06 336.21 74.58 291.33 50.82 285.71C15.08 271.6 -10.56 325.55 4.32 353.73C36.39 389.85 112.87 361.88 100.57 309.66H100.56Z" fill="black"/>
<path d="M502.28 189.55C522.17 165.87 487.53 129.25 464.96 152.84C456.18 165.92 470.76 182.94 480.36 185.17C475.36 199.89 449.49 187.6 444.74 176.05C431.77 156 441.43 128.21 449.13 107.8C482.62 41.63 425.03 118.74 423.49 143.17C411.2 189.34 473.23 240.49 502.28 189.56V189.55Z" fill="black"/>
<path d="M1077.25 719.41C1060.23 705.87 1049.89 717.111 1039.72 718.301C1024.31 721.351 992.6 717.901 991.52 740.071C978.76 772.561 1040.76 821.141 1055.89 797.741C1035.12 790.061 999.43 769.46 1009.58 743.23C1016.26 736.82 1030.35 738.631 1038.71 736.751C1053.34 732.631 1072.82 727.721 1062.52 742.131C997.96 756.931 1110.87 785.271 1077.26 719.401L1077.25 719.41Z" fill="black"/>
<path d="M227.29 746.531C208.8 721.261 152.1 745.851 163.4 775.961C175.29 801.161 215.86 786.421 185.72 767.991C206.86 732.831 249.02 783.931 176.77 807.601C97.31 836.761 276.55 822.761 227.28 746.541L227.29 746.531Z" fill="black"/>
</g>
<defs>
<clipPath id="clip0_177_1192">
<rect width="1137.76" height="1144.67" fill="white"/>
</clipPath>
</defs>
</svg>
