<svg width="1088" height="1100" viewBox="0 0 1088 1100" fill="none" xmlns="http://www.w3.org/2000/svg">
<g clip-path="url(#clip0_177_1253)">
<path d="M1011.52 1007.33C1007.12 1003.52 997.97 1007.52 993.78 1009.33L981.28 1014.74L974.78 1018.37C970.61 1020.7 964.97 1020.68 960.94 1023.34C956.1 1026.54 942.46 1031.36 936.63 1033.4L926.25 1037.03C923.51 1037.99 920.7 1038.86 917.63 1040.09L904.04 1045.52L894 1047.79C874.48 1052.21 879.96 1050.16 862.32 1050.87L847.18 1051.48C842.33 1051.67 835.95 1050.28 831.35 1049L820.29 1045.92C815.09 1044.47 806.07 1037.02 802.48 1041.25C799.64 1044.59 804.8 1053.38 809.95 1056.61L821.98 1064.14C824.84 1065.93 828.09 1066.99 831.51 1067.71L840.74 1069.65C846.78 1070.92 882.25 1071.83 888.69 1070.85C898.96 1069.3 909.44 1067.1 919.01 1063.74L936.43 1057.63L943.61 1055.4C948.8 1053.79 953.14 1051.37 958.36 1049.8C964.26 1048.02 969.72 1044.91 975.17 1042.82C983.41 1039.66 994.22 1036.09 1000.51 1030.18C1006.31 1024.74 1013.04 1024.16 1012.38 1012.33C1012.28 1010.55 1012.55 1008.2 1011.52 1007.31V1007.33Z" fill="black"/>
<path d="M217.53 89.5898C223.65 88.3698 223.8 80.4598 239.46 77.0998C251.09 74.6098 262.01 72.7098 273.77 71.0298C278.76 70.3198 284.67 72.2998 289.52 72.2298L297.04 72.1298C311.45 71.9298 305.57 73.8198 320.28 71.2398C322.02 70.2198 325.27 67.2798 326.33 65.9798L327.1 60.5098C324.85 52.8198 324.61 52.3898 318.26 46.8398C315.02 47.1798 311.61 47.9798 308.81 47.9898L293.29 48.0098L283.12 48.3198C279.09 48.4398 275.81 49.0698 271.8 50.3898C265.23 52.5498 258.04 53.4898 251.68 56.5298C243.09 60.6398 239.06 62.0798 231.28 66.0898L223.15 73.6398C215.74 80.5098 214.4 90.2098 217.53 89.5898Z" fill="black"/>
<path d="M253.9 14.8299L279.73 13.2299C298.18 12.0899 318.24 18.0099 334.85 25.3299C342.21 28.5699 349.67 29.8199 357.2 26.0499C360.65 24.3199 359.38 15.9599 358.43 12.9199C358.01 11.5599 354.98 10.7199 353.32 9.92986C347.65 7.22986 342.07 6.03986 336.08 4.65986C331.83 3.67986 327.51 2.28986 323.21 1.83986C312.9 0.769856 295.8 -1.57014 285.6 1.56986L270.65 6.16986L261.15 8.83986L250.37 11.8699C248.93 12.2699 246.35 14.1799 247.82 15.4999C248.88 16.4599 252.39 14.9199 253.9 14.8199V14.8299Z" fill="black"/>
<path d="M977.67 1066.23C975.26 1067.42 971.56 1068.24 969.81 1069.54C952.43 1082.46 949.4 1080.83 934.52 1089.68C932.88 1090.66 931.32 1091.47 929.54 1091.99L920.34 1094.67C918.97 1095.07 917.78 1095.62 917.3 1096.21C916.83 1096.8 917.71 1099.4 918.51 1099.3C923.47 1098.51 932.42 1097.95 937.62 1096.3L959.94 1089.23C972.53 1085.24 978.54 1080.43 983.23 1079.09C988.77 1077.51 991.47 1069.39 987.87 1064.67C985.13 1062.64 980.52 1064.82 977.67 1066.22V1066.23Z" fill="black"/>
<path d="M364.29 296.65L380.01 298.18C383.15 298.49 386.53 297.91 389.65 297.64C406.38 296.17 421.57 287.6 434.04 276.87L438.04 273.42L447.26 264.71C449.02 263.04 451.49 259.01 452.84 256.42C454.34 253.54 454.83 248.11 454.83 244.69C454.83 242.4 449.91 239.3 447.59 239.38C439.22 239.67 437.65 250.57 423.19 261.49L409.82 271.58C407.48 273.35 403.78 274.33 400.86 275.63C394.36 278.51 387.9 281.23 380.71 281.76L359.71 283.33C353.65 283.78 341.93 284.87 337.73 279.45C336.52 279.28 334.39 281.39 334.41 282.66C334.59 293.38 355.88 295.84 364.28 296.66L364.29 296.65Z" fill="black"/>
<path d="M359.42 254.5C368 257.05 375.65 254.04 382.7 252.05C389.41 250.16 394.7 247.46 400.71 243.91L409 239.01C410.53 238.1 421.29 229.3 424.81 226.58C429.44 223.01 430.82 216.75 433.61 211.92C438.47 203.51 436.84 195.98 433.45 194.49C432.61 194.12 422.48 194.08 418.63 201.91C409.32 220.85 415.61 208.76 402.29 223.85L398.31 226.14L393.23 229.74L386.51 234.3C378.72 239.59 371.08 245.65 361.68 247.54C359.79 247.92 357.55 248.51 356.94 249.75C356.39 250.86 357.99 254.09 359.41 254.51L359.42 254.5Z" fill="black"/>
<path d="M568.44 286.9C570.98 285.8 573.46 281.31 573.71 278.87C574.39 272.33 578.25 260.7 581.94 257.94C583.99 256.4 585.3 254.03 584.81 251.85C583.6 246.49 573.66 248.63 566.35 255.46C557.25 263.95 556.74 271.08 556.34 283.42L558.76 287.79C561.76 287.82 565.8 288.04 568.44 286.9Z" fill="black"/>
<path d="M476.67 771.24C470.92 764.81 462.01 764.34 453.72 763.07C440.38 764.4 429.72 771.84 418.48 779.09L407.27 786.31C403.35 788.83 397.5 800.97 396.47 806.13C393.24 822.42 409.2 836.64 425.14 835.57C434.02 839.33 436.85 841.29 447.36 839.54C461.34 837.21 478.15 830.3 483.96 816.58C488.01 807.01 486.2 800.46 483.9 791.21C482.27 784.65 481.39 776.52 476.67 771.24ZM431.53 818.36C428.4 820.44 425.3 821.91 421.04 821.51C414.76 820.92 412.41 818.07 410.31 813.08C407.82 807.15 408.77 799.47 411.8 793.85C421.47 796.7 426.34 789.98 433.84 795.84C437.03 798.33 437.45 802.36 437.61 806.52C437.81 811.91 436 815.38 431.53 818.35V818.36ZM467.39 814.64C463.32 818.26 459.33 820.18 453.67 822.09C450.56 823.14 448.29 825.43 444.41 823.97C448.9 818.58 451.28 812.11 450.96 804.68C450.81 801.07 450.83 796.54 449.01 793.38C447.96 791.55 445.68 788.25 443.96 786.98L434.56 780.06L443.36 777.63C450.08 775.77 457.88 774.51 464.34 778.45C468.32 780.88 468.93 786.75 470.09 791.04C472.2 798.88 473.84 808.9 467.39 814.64Z" fill="black"/>
<path d="M366.66 768.84C349.64 761.58 338.5 774.9 327.25 783.03C322.23 786.66 316.47 788.9 314.38 794.29C311.8 800.94 311.77 806.34 314.58 812.97C317.74 820.43 320.62 823.36 328.12 826.4C332.69 828.25 339.24 828.9 343.92 827.53C347.28 826.55 348.05 826.98 350.99 827.9C357.1 829.81 364.63 829.87 371.11 828.77C380.24 827.22 385.79 818.89 388.13 810.26C390.08 803.08 388.37 797.27 386.36 790.78C383.18 780.55 376.44 772.99 366.67 768.83L366.66 768.84ZM346.22 809.94C344.92 813.03 342.75 813.86 340.18 814.47C333.4 816.08 328.81 813.05 325.76 807.14C324.56 804.81 323.09 800.7 323.48 797.72C323.79 795.32 326.73 791.67 329.11 790.74L342.38 795.81C347.09 797.61 347.85 806.07 346.22 809.93V809.94ZM373.5 809.76C372.39 812.39 360.62 817.5 358.42 813.95L358.44 799.59C358.44 797.41 356.64 793.13 355.89 790.99C352.25 787.53 347.95 784.88 343.16 782.65C343.62 779.77 353.2 779.33 356.91 779.34C362.99 779.35 369.79 784.11 372.25 789.16C375.63 796.11 376.48 802.66 373.49 809.75L373.5 809.76Z" fill="black"/>
<path d="M529.49 813.59C524.93 809.83 520.5 806.26 514.34 806.94C498.6 808.67 495.16 825.46 497.78 830.53C500.37 835.53 507.39 838.82 512.79 839.62C522.1 840.99 528.97 837.17 533.48 829.56C534.92 827.12 534.98 823.82 534.72 821.05C534.37 817.3 532.09 815.74 529.5 813.59H529.49Z" fill="black"/>
<path d="M512.91 793.34C516.66 794.88 523.38 794.12 527.12 791.01C531.91 787.04 535.95 779.95 534.44 774.63C531.55 764.45 521.21 757.87 511.36 760.99C504.63 763.12 501.86 771.18 501.89 777.61C501.92 784.1 506.03 790.53 512.91 793.35V793.34Z" fill="black"/>
<path d="M379.33 578.87L385.9 562.22L391.35 547.39C392.21 545.04 393.04 541.11 394.04 539.45L398.89 531.38C400.52 528.66 406.86 517.03 406.47 515.9L407.71 513.43C408.05 512.76 406.42 510.83 405.76 510.35C398.38 504.96 398.28 501.81 392.98 505.09C391.34 506.1 387.38 507.88 386.56 509.64C375.12 534.18 366.87 569.02 362.36 596.05C361.62 600.48 362.54 604.64 366.17 608.46C372.24 597.84 375.24 589.2 379.32 578.86L379.33 578.87Z" fill="black"/>
<path d="M392.32 592.25C388.59 597.72 385.91 602.64 383.78 608.91C383.25 610.48 382.35 612.62 382.63 613.81C382.91 614.99 385.26 616.71 386.48 616.71C389.57 616.71 397.9 604.49 404.23 600.53L421.05 590.02L429.54 584.8C433.32 582.47 436.96 582.37 438.56 577.16C439.16 575.2 441.1 571.29 439.86 569.03C438.37 566.3 433.05 563.18 430.33 563.79C426.21 564.71 421.79 565.76 418.62 566.93C408.98 576.42 400.13 580.8 392.32 592.25Z" fill="black"/>
<path d="M542.99 142.94C545.38 144.99 551.95 144.5 553.69 141.67C557.07 136.17 557.44 130.31 554.15 125.56L544.79 122.34C537.37 122.9 533.59 129.83 535.33 136.35L542.99 142.92V142.94Z" fill="black"/>
<path d="M509.6 127.24C512.15 127.42 517.39 125.82 519.9 124.37C523.31 118.2 519.52 111.88 513.34 110.31C508.63 109.11 504.22 113.04 503.53 117.16C502.8 121.51 504.48 126.89 509.61 127.25L509.6 127.24Z" fill="black"/>
<path d="M290.82 716.6L299.33 698.09L303.09 689.9C304.92 685.91 312.14 675.79 315.33 672.14L323.23 663.11C324.06 662.16 324.95 659.63 324.55 658.52C322.94 654.05 312.43 654.6 305.17 660.02C294.14 668.25 295.24 665.1 287.31 675.65L280.67 684.48C275.8 690.97 272.49 697.99 268.88 705.15C267.27 708.34 266.31 712.42 266.81 715.93C267.12 718.11 271.25 719.61 272.62 720.92C275.77 723.94 279.39 724.59 283.9 722.73C287.7 721.16 289.31 719.88 290.81 716.6H290.82Z" fill="black"/>
<path d="M1087.91 731.51L1087.63 723.25L1087.51 719.73C1087.49 719.17 1084.07 700.73 1084.08 698.81C1084.11 692.47 1082.16 687.12 1080.22 681.31C1076.46 670.06 1073.56 658.93 1069.12 648.03L1064.11 635.74C1062.16 630.96 1059.66 627.09 1058.37 622.02C1056.32 613.96 1053.48 613.02 1050.52 605.71L1044.93 591.88C1042.11 584.92 1038.49 578.94 1033.98 572.72C1031.74 569.64 1030.87 565.07 1027.16 562.6L1023.38 555.54C1020.6 553.12 1018.96 551.2 1017.21 548.25C1014.15 543.07 1010.25 538.52 1006.57 533.78L997.74 522.42C994.87 518.72 991.56 515.72 988.38 511.9C981.04 503.08 973.24 495.7 964.97 486.93C967.05 479.63 970.39 475.96 974.84 468.12C979.66 459.63 983.7 451.18 987.34 442.01C990.78 433.34 995.36 425.67 997.93 416.25C997.53 413.69 994.1 409.67 991.88 408.78L983.12 405.26C978.92 403.57 972.88 404.29 968.11 404.07L960.16 403.7L951.04 403.25C945.78 402.99 941.21 403.14 935.92 404.26C933.25 404.82 929.46 403.82 926.79 403.98C917.71 404.54 914.41 405.84 908.14 406.07L906.72 391.59L905 359.88C904.14 344.08 907.95 335.09 897.22 329.4C893.53 327.44 891.6 328.6 888.17 330.1C883.88 331.98 879.75 333.54 875.85 336.52C871.92 339.53 867.49 341.12 862.81 342.78C861.28 343.32 859.24 346.84 856.75 345.84C855.6 343.76 855.69 340.06 856.05 337.2C856.73 331.78 856.35 326.61 856.83 321.45L857.57 313.66C857.92 310.01 857.63 304.28 858.49 301.17C860.32 294.58 860.51 289.12 861.74 282.78L865.81 261.95C866.19 260.01 866.16 257.22 865.29 256.03C864.25 254.62 856 249.79 853.95 250.36L837.07 261.48L821.09 272.54C817.06 275.33 812.94 277.82 809 280.91C801.79 286.56 797.41 288.03 794.14 292.64C793.89 293 792.07 293.75 791.99 293.39L791.69 291.91L797.03 275.77L800.44 264.58L803.91 255.06L811.09 235.09L814.82 224.54L821.08 206.38L825.34 195.42C829.51 184.7 832.82 173.93 836.23 162.84L841.13 146.88L843.74 139.32L847.62 124.9C850.38 114.64 855.31 105.32 858.19 94.9396L860.91 85.1196C864.35 72.7196 868.94 65.8596 860.77 61.2696C856.16 58.6796 853.52 58.5696 849.4 61.7996C842.06 67.5596 839.57 70.5096 832.12 76.1896L801.88 99.2596L786.45 111.6L779.02 117.25L771.6 122.91L761.85 130.12C754.99 135.19 748.46 140.21 741.86 145.66C734.56 151.69 732.85 154.62 725.32 158.23L720.8 163.78C715.43 166.18 711.54 169.08 707.57 173.18C705.24 175.59 702.49 177.29 700.07 179.51L689.09 189.64L684.77 180.91C683.72 178.79 683.58 174.51 682.85 171.68L680.87 164.03L678.05 138.43C676.65 125.78 676.04 127.47 674.81 112.85L672.85 89.5896L672.09 78.4096C671.9 75.5396 673.36 71.3596 670.48 69.4696C660 62.5696 663.64 61.3596 658.23 63.7796C653.75 65.7796 652.32 69.0396 649.57 73.2596C649.24 73.7696 633.23 96.2796 633.42 96.0596C630.79 99.1396 628.91 101.98 626.53 105.25L620.99 112.87C618.25 116.65 615.7 120.26 613.07 124.23L607.79 132.2C604.12 137.75 600.4 143.63 595.08 147.45C588.06 129.08 579.05 111.05 564.11 98.0096C562.16 96.3096 559.77 94.8096 558.08 92.8996C551.98 86.0196 542.01 80.7196 533.84 76.8296L526.8 73.4696C524.11 72.1896 521.6 71.4996 518.53 70.5796L509 67.7196L507.19 59.7296C506.66 57.3696 505.39 53.8396 503.72 52.2996L495.13 54.0096C492.19 57.0296 491.9 60.6796 491.42 65.5196L474.29 64.5396C473.58 53.4196 477.56 57.8396 474.88 45.0296C472.03 43.3296 465.52 43.9396 463.92 46.8896C460.75 52.7496 463.64 58.3896 465.4 64.7596L450.9 65.3196C449.08 65.3896 446.12 66.3696 443.77 66.7496C438.71 58.7796 439.49 55.0296 433.28 46.7796C431.11 43.8996 421.77 45.0096 421.38 49.4196C420.71 56.9296 426.83 63.6996 432.39 68.3896C430.21 68.7396 426.96 69.0896 424.8 69.7796C414.82 73.0196 407.25 73.2496 396.63 77.9496L386.6 82.3896L379.3 85.8796L373.2 88.2196C367.17 90.5396 361.42 93.6496 355.91 96.9396L346.32 102.65L337.88 107.57L324.52 102.79C321.72 101.79 318.94 100.62 315.77 100.55L299.86 100.2C293.17 100.05 287.38 100.71 280.93 102.24C268.29 105.24 266.66 105.14 254.05 110.81C248.42 113.34 244.42 116.78 239.45 120.74L232.24 126.47C225.32 131.98 209.35 152.33 208.22 154.88L204.81 162.52C202.28 168.2 199.55 172.58 197.47 178.15C194.65 185.71 192.25 192.88 192.54 201.08L192.69 205.24L190.99 215C189.88 221.34 191.21 227.78 191.83 234.27L193.09 247.26L195.45 261.82L188.36 255.98C183.71 252.15 179.65 248.26 174.65 244.75C172.2 243.04 170.1 241.17 167.95 239.28L158.51 230.99C156.76 229.46 154.13 227.58 152.19 226.1L144.28 220.07L129.35 209.4L122.49 204.4L115.77 199.79L104.22 191.61C102.44 190.35 99.8901 188.67 98.3301 187.39L86.5101 177.64C84.8801 176.29 82.8301 173.33 81.0601 172.24C68.4301 164.42 72.1901 164.57 60.6201 157.7C58.8301 156.64 54.0401 157.16 52.2601 158.79C50.4201 160.48 48.1301 166.03 49.2101 168.31L60.8801 193.04L69.4701 211.59L74.7701 224C76.3601 227.72 77.9701 231.6 79.3801 235.43L85.8401 252.99L89.2501 262.7L91.9601 271.18L95.1701 282.34C96.0801 285.51 97.9201 288.2 98.8901 291.26L104.33 308.42L109.23 321.51L117.45 342.22L120.65 349.44L123.62 356.58L130.95 374.6L135.83 386.47L141.11 398.88C143.83 405.26 145.66 411.81 147.71 418.47L150.92 428.9C145.4 428.22 142.36 427.99 138.29 426.99L123.23 423.28L112.67 421.05C98.5101 418.07 102.94 420.13 89.8801 415.36C86.6501 414.18 82.5701 413.1 79.0901 412.26L57.8801 407.12C54.6101 406.33 51.3501 405.86 47.9401 405.33L34.9201 403.3L16.1801 400.1C13.5901 399.66 11.4601 399.19 8.96008 399.72C6.99008 400.14 4.74008 400.42 3.67008 401.31C2.47008 402.31 -0.429924 411.74 0.130076 413.89C0.540076 415.45 2.98008 417.15 4.46008 418.66L10.3701 424.7C12.5401 426.92 20.4401 436.61 22.2201 439.15L36.8301 460.03C39.2401 463.47 41.4001 468.08 43.5601 471.72L49.1201 481.11L54.2001 489.35C57.6601 494.97 60.9001 500.59 65.1901 505.57C69.6901 510.79 72.2901 517.23 75.8301 522.94C80.8701 531.06 82.5601 535.41 86.7401 541.2C89.1901 544.6 91.0401 547.78 93.4301 551.31L97.9401 557.97C99.7001 560.57 100.74 562.74 102.49 566.33C103.36 568.11 99.2801 570.8 97.4801 571.84L89.0301 576.73C86.4201 578.24 84.2301 579.12 81.3201 580.27C75.5401 582.56 69.9401 585.49 64.3501 588.41C61.3301 589.98 58.0601 592.44 55.1501 593.77C46.0301 597.93 23.4501 607.35 18.2301 614.64C15.2401 618.83 18.5601 624.61 22.1201 626.99C29.8701 632.16 39.8201 631.19 49.6801 632.57L57.9601 633.73L70.9901 635.36L87.8601 637.12L101.62 639.44C108.35 640.57 114 640.87 121.05 641.33C119.37 644.63 117.31 646.33 115.21 648.53L85.0901 680.01L74.6901 691.11L64.1301 702.88L58.8601 708.87L52.4001 716.52C49.5001 719.95 46.3401 723.09 44.0701 727.14C42.3401 730.23 44.1601 735.82 47.3201 737.21C48.9201 737.91 52.5601 738.97 54.2001 738.99C60.8001 738.62 66.4801 735.21 72.4501 733.01C75.6301 731.84 79.5001 731.29 82.5501 729.76C89.2201 726.43 95.5801 723.76 102.5 721.15L121.87 713.83L128.76 711.35L153.8 701.24L170.21 694.29C172.64 693.26 174.98 692.17 177.2 691.07L195.22 682.17C189.88 701.36 188.2 697.62 183.24 718.59L181.09 727.68L178.4 738.58C176.07 748.03 172.82 756.21 182.67 763.86C184.34 764.55 188.52 762.86 190.11 761.77L207.86 749.63L214.7 745.15C218.52 742.65 221.53 739.95 225.09 736.9C233.08 730.07 229.79 743.33 238.13 752.12L243.08 757.34L251.57 765.76L256.44 769.21C260.98 772.43 265.72 774.81 271.2 776L278.7 777.63C276.86 782.6 277.46 795.98 278.65 800.81L281.44 812.12L284.78 825.67C263.3 826.73 256.23 832.7 236.5 835.85C226.97 837.37 212.21 845.69 211.56 854.26C211.39 856.47 213.73 860.04 214.52 862.14C213.78 867.24 213.1 873.12 213.19 878.08L213.37 887.79C213.53 896.54 218.71 903.13 227.84 905.48L239.38 908.45C246 910.15 252.78 911.23 259.52 911.88L281.79 914.01L289.48 914.22C299.3 914.48 308.61 915.36 318.42 915.06L329.89 914.71C332.89 914.62 336.1 914.63 339.13 914.71L350.78 914.99C363.76 915.3 378.38 918.06 390.84 921.07L404.65 924.41C409.11 925.49 413.63 926.34 417.92 927.64C427.09 930.42 435.14 930.79 436.61 931.23L450.12 935.34L458.12 937.65L465.94 940.38L483.27 947.57L498.1 953.36L508.45 957.21L523.88 963.64C533.3 967.56 542.2 971.84 552.02 974.53L558.61 976.33C565.54 978.23 573.91 979.33 581.3 979.95C599.5 981.49 603.78 975.28 615.32 973.95C619.28 973.49 631.24 968.49 635.57 967.01L647.48 962.94L655.51 958.9L665.59 953.79C672.68 950.19 680.03 947.27 687.54 944.17C692.39 942.17 697.4 941.21 702.31 939.87C708.28 938.24 713.14 936.56 719.65 937C725.15 937.37 718.78 938.94 725.53 944.68C729.88 948.38 735.74 960.65 737.01 967.3L743.2 975.91C746.16 980.02 751.11 983.86 755.02 987.15L761.79 992.84C764.53 995.15 781.26 1003.46 782.27 1003.79C785.69 1004.88 790.8 1006.02 794.45 1007.62L800.54 1010.29C804.03 1011.82 807.34 1012.67 811.09 1013.32L826.63 1015.99L832.01 1018.2L849.14 1020.05C851.57 1020.31 854.39 1019.47 857.34 1020.5C859.58 1021.28 863.51 1019.89 865.86 1020.16L871.22 1020.79C874.21 1019.79 877.19 1020.01 880.15 1019.56L904.52 1015.86C920.46 1013.44 917.57 1010.15 929.97 1008.51C933.74 1008.01 936.7 1005.81 939.9 1004.14C943.28 1002.37 946.88 1000.65 950.52 999.06C953.54 997.74 956.19 995.87 958.72 994.53C965.68 990.85 971.06 986.71 976.96 981.46C981.31 977.58 986.5 974.46 990.56 969.76C993.53 966.32 997.15 964.05 1000.81 961.22C1002.45 959.95 1004.6 956.46 1006.11 954.72C1012.78 947.05 1012.26 951.03 1020.73 939.28L1025.38 932.83C1028.56 928.43 1030.41 924.16 1034.33 920.16C1035.6 918.87 1036.72 914.87 1038 913.3C1045.89 903.71 1042.86 903.95 1050.52 890.42C1056.27 880.27 1059.84 869.07 1063.76 857.97L1066.26 854.44C1066.83 849.51 1068.99 845.34 1070.75 840.79C1071.25 839.51 1074.25 824.71 1075.48 821.86C1076.38 819.77 1078.34 817.27 1078.77 815.04L1080.94 803.59L1083.29 791.02L1084.95 783.96C1086.15 778.85 1086.95 772.39 1086.65 767.36C1085.51 748.47 1088.65 750.69 1087.99 731.5L1087.91 731.51ZM915.55 426.85C921.45 424.91 928.57 425.62 934.7 424.43C941.52 423.11 969.99 422.19 976.57 424.68L970.19 437.58C969.33 439.31 969.11 443.72 967.81 445.37C964.54 449.53 962.3 454.29 959.55 458.99L950.85 473.84C941.26 467.12 936.3 459.73 927.31 455.17C921.5 449.68 915.65 445.5 909.16 440.36L898.44 431.89C895.99 429.95 893.82 429.86 892.24 426.84C900.68 430.67 907.76 429.4 915.54 426.84L915.55 426.85ZM940.31 696.21C940.35 697.27 940.41 698.33 940.49 699.4C941.09 707.19 944.37 713.68 951.82 716.64C951.8 716.72 951.78 716.8 951.76 716.88C958.74 722.63 979.99 727.23 982.93 733.58C984.4 736.75 965.28 739.74 963.39 739.85C957.11 740.21 951.71 735.7 941.46 739.49L934.69 742C932.01 742.31 927.48 739.44 924.67 740.24L916.33 742.62C911.19 747.37 905.08 750.28 898.06 751.42C894.44 752.01 865.1 756.79 864.51 752.04L872.43 744.53C875.89 741.25 875.07 734.21 870.46 732.82C864.93 731.16 859.71 734.31 855.13 736.89C845.98 742.07 847.05 749.43 832 756.74L821.66 761.76C819.24 762.93 816.36 763.88 813.88 763.52C812.82 759.93 816.38 757.64 817.58 754.94L826.54 734.7C827.47 732.6 828.59 728.43 828.62 726.34C828.81 709.66 834.41 709.85 829.44 693.41C827.59 687.28 825.29 683.88 822.08 679.09C819.42 675.12 817.4 670.66 812.9 668.81C811.33 653.92 802.29 640.24 789.81 632.89L783.14 628.97C782.42 626.94 790.41 619.44 791.44 618.75L801.59 611.92L812.82 622.18C818.44 627.32 824.15 633.23 827.3 640.15C829.45 644.87 832.79 649.38 838.56 647.95C839.91 647.62 841.88 646.46 842.33 645.5C844.71 640.41 828.06 624.52 824.47 619.5C831.33 620.05 836.27 623.37 841.52 626.86C852.82 634.39 864.19 642.62 870.28 655.2C872.62 660.03 873.75 666 879.93 668.05C882.5 668.9 887.07 666.7 889.1 664.48C884.83 648.46 879.1 646.91 870.63 636.17C866.34 630.72 862.71 624.93 857.63 620.5L844.94 609.46C839.79 604.98 832 599.63 824.88 600.21C809.69 601.43 811.02 607.47 805.68 603.96C801.03 600.91 796.2 599.64 790.89 598.93C789.24 596.74 786.86 593.85 785.33 591.52L777.96 580.3L767.01 563.4C762.75 556.83 758.57 550.13 756.48 542.78C755.77 540.28 756.1 538.21 753.35 536.85C747.18 533.79 740.31 550.63 738.64 555.4C733.66 569.57 729.49 591.74 726.97 607.1C726.63 609.17 727.84 611.37 726.12 613.72C722.61 608.67 719.85 603.63 717.43 597.79L713.86 589.15L708.74 579.43L704.45 571.28C703.02 568.57 701.87 566.32 700.9 563.47L692.29 538.17C691.4 535.57 690.73 532.04 690.19 529.6C701.6 526.45 704.04 526.29 707.79 516.99C710.56 510.14 711.85 502.76 708.92 495.89C707.14 491.71 705.85 486.77 702.72 483.67C701.1 482.07 698.8 480.24 698.96 478.32C699.37 473.09 698.78 468.98 698.67 464.2C698.09 438.27 701.71 429.15 721.89 412.68C724.27 414.16 726.1 415.57 728.1 417.13L742.8 428.59C745.84 430.96 748.8 433.9 751.38 436.68L782.84 470.68C789.53 477.91 789.71 476.8 796.34 483.42L806.1 493.17C807.79 494.86 809.34 496.02 811.14 497.73L822.98 508.92L831.23 515.78C833.69 517.82 837.01 518.95 838.87 521.98C841.22 525.81 844.58 527.32 848.63 529.37C850.71 530.42 852.71 534.55 854.35 536.41C858.26 540.86 861.27 545.06 864.72 549.84C869.78 556.86 875.05 559.67 877.85 562.6C879.11 563.92 879.86 566.04 881.84 567.04C883.78 568.02 884.62 569.82 885.42 571.77C886.69 574.85 888.85 577.55 890.88 580.54C892.88 583.49 894.16 588.08 896.3 590.8C901.03 596.81 900.84 601.95 906.39 611.7C907.56 613.74 908.76 614.78 908.95 616.94C909.39 621.92 913.1 624.81 915.69 628.47C920.01 634.57 929.1 649.29 930.6 655.55L940.34 696.18L940.31 696.21ZM761.01 653.39C758.64 653.58 756.44 653.39 754.17 654.13C746.79 656.53 739.21 655.87 731.46 656.05C723.25 656.24 715.41 656.51 707.24 655.97L686.94 654.62C694.7 648.19 704.31 644.44 715.04 643.07L734.83 640.55L741.76 639.98L753.34 638.77C758.61 638.22 763.44 637.65 768.26 635.49C775.22 641.5 782.08 643.67 786.23 647.59C789.88 651.03 793.63 654.03 793.98 659.59L785.9 654.69C781.33 651.92 776.62 652.13 771.72 652.53L761.02 653.4L761.01 653.39ZM766.85 721.08C766.89 730.65 762.38 738.64 753.16 742.01L740.17 746.76C739.32 747.07 737.13 747.03 736.31 746.66C731.61 744.56 729.71 702.64 732.58 695.7C736.19 693.7 741.37 691.34 745.38 691.45C752.49 691.64 757.17 697.13 760.82 702.04C765.16 707.87 766.83 713.87 766.86 721.08H766.85ZM685.57 726.92L677.69 717.53C680.73 713.17 691.57 718.06 692.74 725.12C693.78 731.37 693.88 736.68 692.87 743.01C691.88 749.19 691.13 755.26 689.7 761.36C688.15 767.97 674.41 766.86 673.07 763.52C684.01 754.17 686.23 739.98 685.57 726.92ZM668.25 704.7C656.25 713.13 638.15 716.49 632.46 730.36C628.51 739.99 625.81 751.36 632.84 761C636.15 765.54 642.45 769.43 647.67 770.93L658.04 773.91C666.6 776.37 675.87 778.49 684.76 780.5L686.28 784.79L676.17 784.06L659.56 783.05L641 781.25L635.66 784.38L627.71 775.9C625.21 773.24 613.88 754.38 613.43 749.65C611.19 726.41 613.23 713.28 626.76 694.67L635.65 682.44C641.08 674.97 647.3 669.53 655.52 665.58C658.84 663.99 661.05 664.13 664.76 664.49L687.65 666.74C674.53 682.06 673.72 685.81 668.24 704.7H668.25ZM657.27 760.61C653.08 763.67 647.61 761.54 643.68 759.17C640.16 757.05 637.63 752.71 637.45 747.92C636.96 735.39 648.62 724.82 660.49 724.21L664.47 732.84C665.38 734.81 666.06 739.29 666.33 741.86C667.06 748.78 662.72 756.63 657.27 760.61ZM203.95 394.28C215.7 394.35 218.78 395.24 229.82 396.71L235.03 402.56L225.61 408.7C222.15 416.1 224.44 423.94 228.61 430.64C236.13 442.71 235.31 434.5 232.63 440.85C229.85 447.42 233.05 453.04 236.16 460.46L230.48 457.87C224.41 456.64 218.28 460.28 215.19 465.36L209.9 462.82C200.8 447.4 201.96 450.88 197.86 432.78C196 424.56 199.66 402.83 203.95 394.28ZM202 377.79C202.49 371.84 223.06 368.62 227.02 373.86C228.03 374.98 226.31 378.09 225.25 379.17C223.8 380.64 220.25 378.83 217.97 378.7L202 377.79ZM234.3 288.65C234.59 285.26 235.02 282.14 235.02 279.05V271.72C235.03 267.06 235.1 262.91 235.52 258.47L237.64 236.27L240.96 204.25C245.8 207.78 261.32 222.42 262.25 225.7C263.76 231 267.09 229.71 270.71 231.11C277.01 233.54 282.18 237.65 288.66 241.82C285.24 244.28 281.77 246.1 278.03 248.24C273.34 250.92 269.01 255.04 264.02 257.11C260.42 258.6 257.63 260.64 254.51 262.79C249.69 266.11 246.37 269.18 248.07 275.75C250.31 284.41 257.56 284.21 267.35 287.11L263.55 296.25C261.71 300.67 261.07 308.43 265.08 312.09C270.21 316.78 278.22 315.53 284.36 314.49L291.9 313.21C293.67 317.71 295.84 321.38 299.11 325.13L307.75 335.04C298.91 334.05 292.14 334.2 284.11 335.28C276.39 336.32 268.53 336.33 260.63 336.47L250.29 336.66L239.16 337.06C238.43 337.09 236.76 337.56 236.11 337.64C235.46 337.72 235.06 335.58 234.95 334.91C233.05 323.78 229.52 322.23 227.39 308.89C239.12 298.17 233.48 298.29 234.3 288.64V288.65ZM294.41 186.7L286.86 177.84C289.54 174.69 292.81 173.74 297.22 173.23L299.81 188.11C300.09 189.73 304.18 200.14 303.65 203.49L291.15 207.83C282.39 210.87 274.27 216 272.56 211.5L265.62 193.19C265 191.55 263.94 188.77 264.67 187.71C265.39 186.67 268.2 186.08 269.38 185.43L280.69 179.1L284.68 194.53C285.25 196.76 291.15 197.63 292.77 196.3C294.96 194.49 296.1 188.69 294.42 186.72L294.41 186.7ZM291.35 293.36C291.87 295.98 289.75 298.3 287.19 298.89L276.21 301.39L286.9 284.84C288.59 282.22 286.11 277.62 284.51 275.57C282.23 272.66 277.95 272.72 273.52 272.06L277.79 268.36L295.23 253.69C293.93 259.89 293.37 264.87 292.64 270.81C291.73 278.22 289.76 285.41 291.34 293.35L291.35 293.36ZM292.27 232.56C290.26 229.54 287.61 226.62 284.89 224.33L300.11 219.45L299.59 230.8C299.46 233.67 298.89 235.72 296.03 238.21L292.27 232.56ZM310.08 228.15L308.15 217.15C312.45 214.69 330.19 209.55 335.09 208.64C337.79 208.14 342.73 207.65 344.06 204.95C346.27 200.45 343.96 195.08 342.55 190.68L338.33 177.54L332.32 157.89C335.01 156.58 339.08 155.43 342.69 154.63L352 152.59L355.36 152.02C356.08 151.9 356.72 153.94 356.89 154.76C358.33 161.71 360.14 168.03 362.18 174.83L364.45 182.41C366.08 187.86 367.11 193.39 369.21 198.77C370.25 201.43 377.17 203.07 379.93 202.49C383.73 201.69 387.63 200.09 391.02 198.71L408.82 191.41C414.46 189.1 420.22 186.87 426.21 185.21L432.94 183.35C438.94 181.69 447.67 180.76 451.67 175.36C455.07 170.77 453.15 162.25 451.74 157.53L445.67 137.19L466.02 151.47C477.02 159.19 486.8 163.22 500.05 172.25L507.95 177.63L536.25 197.04C537.9 198.17 542.33 200.14 541.72 202.39C539.91 209.12 536.55 215.24 537.91 221.96L540.41 234.24C541 237.15 542.24 240.53 543.15 243.5C540.67 248.03 532.79 267.36 542.3 268.71C545.6 258.97 551.78 246.65 558.87 240.2L565.72 233.96C571.96 228.27 578.52 227.49 586.7 228.13C591.83 228.53 595.6 228.57 599.29 233.27C600.88 235.3 605.01 238.29 605 241.42C604.98 249.31 601.71 256.15 599.13 263.45C593.5 279.44 595.07 280.8 589.57 295.17C586.13 304.16 583.27 321.44 570.68 321.01C568.81 320.08 568.18 316.08 567.38 313.81C566.33 310.85 561.02 307.6 557.87 307.54L550.32 307.39C544.41 312 544.99 320.21 549.65 325.2C554.34 330.22 553.12 336.06 551.79 341.66L548.33 356.26C547.03 361.76 540.61 378.57 537.57 383.95L529.75 397.81L524.29 406.57L519.71 413.77C517.45 417.32 515.4 420.74 513.02 424.18C505.33 435.31 506.31 432.06 498.67 442.58C496.54 445.51 493.55 450.47 489.64 451.38C482.36 451.08 476.06 446.89 469.67 444.02L454.68 437.28C458.96 432.64 463.25 431.11 468.39 428.95L481.27 423.53C484.04 422.37 482.63 414.59 480.08 413.27C473.34 409.8 467 413.12 461.24 416.25C454.43 419.95 448.3 423.46 444.14 430.74L433.81 425.65C441.46 409.47 444.31 418.31 450.25 397.53C451.88 391.81 452.1 386.11 451.66 380.22C458.21 381.09 463.87 381.58 470.18 381.44C468.07 393.77 471.73 395.87 480.07 404.41C488.37 407.62 495.26 409.43 504.29 406.64C507.17 405.75 508.16 398.7 506.46 396.56C502.96 392.16 496.47 392.72 491.2 392.01C485.02 391.18 479.89 382.56 481.4 377.32C487.71 371.87 494.73 367.78 499.23 361C500.23 359.49 502.46 357.02 503.1 355.57L510.03 339.97C512.14 335.21 511.85 330.4 512.07 324.86C512.31 318.71 513.88 311.31 510.45 305.82C502.44 292.99 508.18 299.01 498.07 289.33C493.37 284.82 488.25 283.08 481 279.89L486.94 272.89C493.44 265.22 490.41 255.74 487.39 255.71C476.5 255.6 473.3 258.99 465.55 269.18L458.62 278.29L446.95 293.66L437.07 307.3C431.1 315.54 414.31 327.69 405.29 321.16C402.95 319.47 400.75 314.34 399.01 312.17C398.32 311.61 395.57 312.84 395.59 313.75L395.66 317.86C395.8 325.68 399.28 331.7 406.33 335.26C403.79 344.31 404.7 351.07 407.34 359.75C407.96 361.8 411.74 365.45 411.14 367.47L409.28 373.75C408.4 376.74 404.77 387.75 409.11 389.64L419.58 390.61C425.71 385.31 424.83 377.07 430.48 374.49C431.77 373.9 434.98 375.5 435.83 376.75C441.24 384.72 437.15 399 430 404.93C426.7 407.67 424.56 412.04 421.67 414.96L414.39 422.31C410.54 426.2 405.56 433.65 398.94 433.02C386.43 431.84 385.4 398.16 384.73 388.4L383.53 370.79L381.31 324.97C381.05 319.59 383.92 314.77 381.83 309.26C369.91 306.56 365.78 316.45 356.95 319.74C343.15 324.88 314.62 326.27 309.09 309.89C308.18 307.18 306.48 303.53 306.58 300.84L307.26 283.55L310.56 268.86C311.27 265.71 310.6 262.34 311.21 259.32C313.39 248.57 311.88 238.65 310.04 228.16L310.08 228.15ZM392.15 160.21C395.41 160.53 398.01 158.15 397.39 153.51C396.97 150.3 394.02 146.82 391.87 143.9L403.68 140.04L407.76 138.71C411.76 137.4 405.91 152.4 414.75 158.92C416.09 159.91 419.57 160.36 420.97 159.69C425.4 157.59 424.51 149.64 422.33 145.33L417.61 136.01L430.79 130.52L438.72 158.12C439.51 160.87 442.8 164.75 440.31 167.65L427.06 170.86L418.57 172.89C411.59 174.55 405.14 177.98 398.45 180.42L390.12 183.47L379.56 187.63L371.21 163.91C369.75 159.77 368.43 154.86 367.96 151.06L379.73 147.26C381.68 146.63 383.37 146.26 386.15 145.54C388.65 152.41 384.14 159.43 392.14 160.21H392.15ZM550.29 230.21L551.08 220.89C551.32 218.09 553.92 214.39 555.31 210.92C559.06 211.83 562.46 213.9 564.81 216.9L550.29 230.21ZM656.39 515.84C648.63 515.19 640.87 511.98 633.75 509.04L632.94 502.04C630.35 497.13 630.86 487.82 637.54 486.18C646.3 484.03 656.09 486.22 664.84 487.56L684.28 490.54C693.62 491.88 699.35 507.21 693.58 513.24C691.89 515 687.36 515.55 684.4 516C679.6 517.18 675.8 517.48 671.51 517.12L656.39 515.85V515.84ZM665.94 652.85C650.01 642.27 648.57 641.22 629.18 642.15C633 635.74 635.41 630.33 637.88 623.21C642.15 625.94 646.02 629.52 649.14 633.37L657.13 643.24C659.85 646.6 663.05 649.7 665.94 652.84V652.85ZM654.98 428.04L652.77 435.24C649.19 446.92 645.63 458.34 643.45 470.18C637.82 470.11 631.2 469.42 626.75 473.66C620.47 479.64 618.06 488.95 618.62 497.82L619.74 515.58C620.86 518.34 626.15 521.06 628.84 522.66L622.23 535.32C620.2 539.2 618.75 543.4 618.15 547.77L597.9 546.12C592.32 545.67 586.63 545.81 581.22 545.07C570.44 543.59 560.24 542.13 549.29 542.41L521.3 543.13C515.54 543.28 510.45 544.73 503.33 545.6C501.83 542.35 500.41 538.28 499.67 534.87C504.35 535.13 508.36 537.36 510.83 535.07C513.59 532.52 513.45 527.11 514.7 523.84C516.6 518.88 517.7 514.27 519.11 509.14L522.47 496.89L527.43 480.86C530.97 492.12 547.56 501.66 549.65 509.21C552.19 518.37 558.6 525.99 568.85 524.52C574.79 521.51 579.18 508.13 581.58 502L587.34 487.33C588.83 483.54 590.31 479.89 592.22 476.29L599.95 461.68L611.76 439.77L619.42 426.88L639.14 394.91L646.25 383.51L651.25 385.58C654.96 387.11 657.99 388.85 661.32 391.46L670.19 393.68C662.96 405.08 658.7 415.89 654.98 428.03V428.04ZM601.96 662.75C600.15 664.75 594.55 667.13 592.03 665.44C585.37 660.99 584.48 652.11 587.37 645.22C590.79 645.43 594.06 646.01 596.58 647.38L609.5 654.38L601.96 662.75ZM583.02 621.36C582.27 622.24 581.86 623.46 582 625.02C582.02 625.19 582.02 625.36 582.02 625.54C581.96 625.86 581.89 626.18 581.84 626.5C562.72 643.23 563.99 653.11 538.05 665.16C539.04 659.23 541.33 653.2 539.38 647.95C536.43 640.03 528.73 636.24 521.77 633.43C526.29 626.91 532.12 621.01 538.32 615.33C544.51 622.39 555.15 629.41 564.49 625.35C573.74 621.33 584.95 611.87 581 600.97L573.67 593.14C580.59 592.41 591.78 595.6 596.65 600.44C590.13 606.69 585.38 613.42 583.01 621.35L583.02 621.36ZM477.39 493.45C480.1 496.24 484.33 506.33 486.33 509.93L469.16 510.3C465.46 510.38 463.33 510.93 459.88 512.38C456.87 513.33 452.39 512.91 448.07 512.94L445.18 504.64C444.6 502.97 442.85 498.95 444.44 497.66C451.98 491.52 467.33 492.26 477.39 493.46V493.45ZM470.77 460.81C487.98 466.05 494.07 468.99 506.85 455.06L513.05 458.75C512.72 461.91 512.7 465.96 511.9 468.8L507.15 485.6L505.22 492.42C503.96 496.89 504.03 500.87 501.18 505.31L486.59 481.12C477.99 466.86 473.11 469.26 470.76 460.81H470.77ZM479.91 608.83C477.06 612.34 474.82 615.12 472.23 618.71L466 627.33L460.32 626.43C456.35 625.8 450.76 622.4 452.21 617.32C457.93 611.52 471.72 608.79 479.92 608.81L479.91 608.83ZM468.96 646.56L478.43 631.24C483.98 633.82 493.78 640.24 493.96 646.3C494.35 659.36 477.58 659.08 468.81 660.26C463.66 656.1 466.49 650.57 468.97 646.56H468.96ZM483.09 624.13C486.87 618.47 502.99 602.7 508.66 601.48C513.23 606.83 521.72 610.51 529.38 610.21L502.41 638.17C492.81 626.38 493.57 630.57 483.09 624.13ZM517.06 595.71C524.13 590.11 527.23 590.32 536.19 589.73L530.29 597.45C527.52 601.08 519.98 599.45 517.06 595.71ZM511.04 646.5L517.98 637.82C523.03 640.08 528.09 643.88 530.17 649.7C530.88 651.69 529.43 656.16 528.44 658L524.44 665.45C521.89 670.2 510.6 667.49 507.86 663.85C504.7 659.66 508.97 649.1 511.04 646.51V646.5ZM561.28 603.17C561.78 604.92 565.06 605.87 566.33 604.76C568.28 603.06 570.1 602.41 571.21 603.31C573.11 604.86 573.07 607.39 571.45 608.95C565.62 614.58 559.6 618.24 552.9 615.26C550.71 614.29 548.31 610.11 548.14 607.22C551.58 602.72 556.43 599.88 561.21 597.59C561.07 599.88 560.91 601.88 561.28 603.16V603.17ZM543.33 597.95L542.13 590.53C545.14 590.68 547.14 591.05 550.28 592.2L543.33 597.95ZM638.87 369.87C633.96 375.46 630.04 381.69 626.45 387.97L616.8 404.81L598.84 436.19L590.36 451.84L587.21 458.14L579.7 472.94C577.94 476.41 576.8 480.65 574.88 483.96C569.61 493.06 571.54 495.82 565.17 506.37C563.42 503.24 561.28 499.59 560.91 496.92C559.11 483.75 559.14 489.82 549.32 477.3L543.98 470.49C542.23 468.26 540.65 466.26 539.22 463.85L535.46 457.49C534.97 456.67 534.28 454.54 534.25 453.59C534.22 452.5 536.65 451.63 537.51 450.71L549.44 438.07L565.87 420.88L571.42 415.27L578.66 407.57L590.36 394.95L604.26 379.11C605.43 377.77 607.15 376.16 608.21 374.68L616.53 363.08C617.63 361.54 618.02 357.92 620.14 357.85C622.33 357.78 624.23 359.03 626.39 360.03L638.39 365.57C638.95 365.83 640.11 367.09 640.01 367.64C639.91 368.19 639.29 369.36 638.86 369.86L638.87 369.87ZM572.58 389.67C568.55 395.87 563.73 399.61 558.68 404.68L542.55 420.87C538.32 425.12 534.95 430.04 529.93 434.21L523.41 439.63L520.11 438.15C522.36 435.41 523.82 433.18 525.76 430.27L543.61 403.52L551.34 391.59C553.14 388.81 555.12 385.15 556.5 381.94L561.91 369.38C563.21 366.36 564.01 363.41 564.92 360.39L567.99 350.24L574.76 353.55L586.15 358.88L594.51 362.47C592.5 369.63 573.94 387.58 572.57 389.68L572.58 389.67ZM443.1 357.43C448.06 359.9 453.94 358.61 459.28 358.43C463.94 358.27 467.47 357.15 471.06 354.23C478.97 347.79 484.36 344.48 484.92 331.45L485.33 321.94C485.79 311.09 476.2 301.53 465.7 296.78L477.18 296.69C486.02 296.62 497.47 308.78 497.73 315.65C497.91 320.42 497.86 326.13 496.79 330.69C493.41 345.11 481.6 360.61 466.79 365.93C461.13 367.96 453.9 367.85 448.02 367.66L436.51 358.5L428.7 358.06C427.97 355.13 426.97 353.77 423.37 353.84C420.29 348.77 417.87 343.18 417.12 336.79C418.57 336.02 422.14 336.07 423.41 337.07C429.7 352.19 430.28 351.04 443.11 357.43H443.1ZM435.38 331.51L442.87 325.8C444.72 324.39 447.26 321.63 448.75 319.86L457.06 309.99C466.19 311.67 468.99 316.1 474.67 323C476.25 328.3 473.5 334.26 469.5 337.17C465.23 325.15 467.04 326.39 454.97 323.5C446.55 325.78 446.61 331.44 446.59 340.46C443.01 339.46 439.78 337.3 436.67 334.78L434.93 333.37C434.59 333.09 434.94 331.84 435.37 331.51H435.38ZM321.91 435.02C322.25 435.5 322.41 438.13 321.96 437.88C316.11 434.6 308.75 423.82 301.98 420.37C293.64 416.13 285.78 412.56 277.95 407.43C267.04 400.27 274.37 394.52 258 392.08L253.01 376.39C252.1 373.53 246.92 371.29 244.59 370.36C243.62 359.85 241.71 363.43 240.21 354.35L262.07 351.24L276.17 349.15L303.95 343.15C299.98 365.73 301.88 353.19 303.03 369.59C303.47 375.84 306.94 380.46 310.32 385.55L315.2 392.91C317.99 397.12 323.67 399.61 328.15 402.35C336.4 407.38 346.31 408.43 355.84 408.43C354.56 409.32 352.75 410.98 352.06 412.39L347.81 421.09C346.16 424.47 345.9 428.4 342.57 430.68L332.05 421.65C330.98 420.73 328.18 419.58 326.9 419.9C323.38 420.77 317.56 428.76 321.92 435.01L321.91 435.02ZM258.86 405C262.79 407.14 262.83 412.35 263.1 416.05L263.97 427.89C264 428.29 263.86 429.71 263.47 429.74L261.31 429.9C254.62 432.78 248.47 434.44 241.15 434.43L235.2 416.46C241.2 411.41 250.96 405.62 258.86 404.99V405ZM234.77 384.45C234.31 383.1 236.68 381.37 237.84 381.3C239 381.23 241.77 382.35 242.08 383.52L244.69 393.26C244.97 394.3 244.07 397.22 243.13 397.53C242.19 397.84 240.17 398.19 239.42 398.17L234.76 384.46L234.77 384.45ZM255.93 502.34C253.33 503.7 251.39 504.66 250.31 505.95C248.95 507.58 248.75 512.39 250.4 513.6C252.93 515.45 256.25 512.85 259.1 515.04C259.97 515.7 259.93 519.02 259.17 519.87C257.55 521.7 253.61 522.68 251.13 522.01C249.03 521.44 246.09 518.84 244.94 516.22C241.9 509.33 245.77 502.36 252.09 498.36L255.93 502.34ZM268.15 523.99L269.34 513.24L278.36 520.42C271.51 523.03 265.79 532.91 265.21 539.73L264.53 547.83C261.06 546.02 258.95 544.96 256.89 542.82L246.18 531.68C255.24 534.08 263.59 531.74 268.14 523.98L268.15 523.99ZM338.74 389.58L329.28 384.09C325.1 381.67 320.91 376.56 318.08 372.35C315.38 368.32 314.09 363.1 312.73 358.09C311.54 353.74 312.93 346.22 313.8 342.38L315.18 337.24L319.98 339.23C315.38 344.81 319.09 360.3 321.37 365.71C323.97 371.85 327.9 376.17 333.12 379.54C343.75 386.41 355.67 389.22 368.32 382.89C368.89 382.98 369.32 386.61 368.52 387.42C362.73 393.22 347.72 394.79 338.74 389.58ZM368.88 355.85C364.95 350.34 356.59 347.51 350.5 351.83C345.19 355.59 346.42 364.35 350.16 371.57C336.82 367.1 329.38 355.3 329.68 340.47C336.07 338.31 348.97 340.3 354.37 338.39C360.55 336.2 365.48 333.84 372.04 331.12L368.89 355.85H368.88ZM212.13 506.55C215.2 498.14 213.47 506.55 221.25 495.28L224.62 486.12C226.34 481.46 226.28 475.4 229.71 471.35C231.59 469.12 234.96 473.15 236.16 475.01L244.51 487.83L250.13 496.09C239.04 503.72 237.48 502.78 234.94 516.75L230.26 507.55C229.77 506.59 226.88 506.07 225.9 506.3C224.92 506.54 224.34 509.31 224.8 510.49L229.75 523.13C223.43 521.61 217.73 521.5 213.89 527.32C208.91 521.21 209.48 513.78 212.12 506.55H212.13ZM216.55 532.54C220.22 528.03 227.51 528.77 231.38 532.56C233.84 534.97 233.13 540.85 231.57 543.39C231.19 544.01 229.05 544.57 228.6 544.01C226.38 541.24 230.83 537.42 227.69 534.22C226.68 533.19 223.22 533.84 222.31 535.08L218.89 539.69C217.67 537.79 215.47 533.94 216.55 532.54ZM231.63 552.31C238.06 551.97 239.25 545.6 240.23 539.42L247.72 551.18C242.09 555.13 239.19 559.5 235.3 566.31L224.79 552.67L231.64 552.3L231.63 552.31ZM254.78 558.9C260.48 564.1 266.35 568.88 273.28 571.19C271.14 580.43 257.7 583.67 251.45 579.73C248.64 577.96 244.71 575.31 242.03 573.25C240.3 570.19 249.69 557.36 254.78 558.91V558.9ZM274.31 585.12L282.48 571.03C283.99 571.11 289.04 587.18 288.82 589.42C284.6 592.87 280.52 596.4 275.6 599.18C269.68 602.53 263.03 597.39 258.7 593.79C266.22 593.41 271.03 590.76 274.3 585.12H274.31ZM286.88 555.41C282.52 556.43 277.68 555.7 275 552.79C274.44 544.55 278.3 530.52 285.44 526.16C289.45 534.11 300.02 540.16 294.73 548.26C292.42 551.8 289.75 554.73 286.87 555.4L286.88 555.41ZM287.95 432.21L276.45 427.9C275.65 423.09 275.42 418.84 275.96 414.05C278.41 416.59 279.86 418.98 281.7 420.52L289.37 426.9C294.39 431.08 298.04 435.58 302.42 440.32L313.75 452.61C312.06 456.4 311.79 459.28 311.65 463.82L304.6 466.17L299.62 452.11C297.01 444.76 293.55 437.93 287.96 432.21H287.95ZM334 489.22C342.96 493.75 349.89 502.15 354.27 511.39C356.5 516.1 355.76 522.12 355.3 527.85C345.67 521.24 334.94 522.23 324.6 523.53L326.92 510.67C327.13 509.51 325.73 506.52 324.57 506.53C323.4 506.54 322.03 508.21 320.63 510.15L310.29 477.9C323.01 482.01 323.41 483.87 334.01 489.23L334 489.22ZM343.56 534.44L351.48 539.33C352.71 541.31 344.25 553.91 340.58 555.14C333.48 557.53 325.79 551.22 325.16 543.69L324.17 531.9C330.16 531.7 338.17 531.11 343.56 534.43V534.44ZM357.39 553.45C364.42 541.43 366.72 527.64 365.34 513.68C364.64 506.59 360.93 501.33 357.71 495.35C352.99 486.58 345.92 479.55 336.87 475.02C337.73 467.95 328.8 466.19 322.48 458.91C328.38 456.81 334.64 452.87 335.95 447.96C340.2 448.3 346.37 448.57 351.06 448.16C356.36 442.96 359.85 437.01 363.29 430.85L366.73 424.71L371.3 415.43L375.83 434.84C376.89 439.4 385.65 446.99 389.74 448.34C398.3 451.17 408.49 450.28 415.77 444.52C424.53 437.58 422.5 433.12 429.83 432.63L439.04 440.88C438.35 442.55 437.6 444.09 437.65 444.89C437.71 445.85 439.29 447.1 440.51 448.21C437.83 450.73 438.81 453.23 439.14 456.8L440.61 473L442.79 483.42C436.7 483.17 434.14 487.1 431.31 490.9C426.62 497.18 429.69 503.82 430.58 510.49C431.73 519.14 435.56 527.28 445.93 527.05C445.65 540.94 445.69 554.85 448.78 568.64L450.84 577.81L453.55 592.14L455.39 600.83C444.75 604.03 438.18 608.92 436.79 621.34L445.48 634.35C438.78 634.52 432.47 633.95 425.97 633.12C416.39 631.91 405.25 632.73 395.41 633.88L385.38 635.05L382.82 627.54C381.71 624.29 377.44 622.59 374.06 621.59C370.52 620.54 367.54 618.19 364.42 616.43L356.69 612.05C354.36 610.73 350.62 609.9 347.67 608.76C345.99 593.43 349.02 587.32 342.79 574.36L339.5 567.52C346.26 568.32 354.45 558.53 357.41 553.47L357.39 553.45ZM383.37 648.24L406.42 645.68C418.63 644.33 422.57 646.01 439.6 643.37L456.78 640.71C451.88 647.99 451.24 656.94 454.99 664.38C456.53 667.44 461.96 672.32 465.32 672.61C477.77 673.68 482.13 671.8 493.13 668.59C496.4 677.61 500.32 678.55 509.68 681.34C519.99 684.42 531.35 681.74 541.21 678.92C551.96 675.84 559.54 669.64 567.95 662.23L571.24 659.34C571.24 661.87 571.68 664.37 572.79 666.77C575.56 672.73 581.04 676.53 587.31 678.48C584.64 680.98 578.08 685.38 574.86 688.84C566.64 697.67 559.15 705.8 554.32 717.36C551.25 717.36 547.85 717.29 544.72 716.83L527.06 714.25L511.62 712.64L494.89 710.54C488.59 709.75 482.63 709.41 476.38 708.51L469.77 707.56L458.86 705.67L437.55 701.05C429.67 699.34 421.74 697.99 413.68 697.46L396.53 696.34L363.37 692.56L356.38 692.08L341.75 690.79L345.02 685.95L352.52 674.72L358.81 665.09C360.97 661.77 363.38 659.36 366.32 656.79C371.43 652.32 376.22 649.03 383.37 648.24ZM583.57 809.73C585.99 806.04 588.28 804.17 592.84 803.5C597.08 802.89 601.17 803.61 604.04 806.87C606.95 810.18 606.73 814.69 604.07 818.73C603.95 825.05 600.66 830.31 594.77 833.45C589.4 836.31 582.75 834.73 580.25 829.5C576.87 822.44 579.65 815.7 583.57 809.74V809.73ZM592.78 637.95C599.57 621.81 589.56 625.96 609.03 609.92C611.21 608.13 616.02 609.1 618.64 610.15C621.37 611.25 630.7 628.11 620.98 635.05C618.45 636.85 617.09 638.66 615.21 642.68C607.18 644.63 607.95 636.77 592.78 637.95ZM742.75 627.2L744.14 613.76C744.97 605.75 744.71 598.9 745.96 590.93L747.58 580.61L752.57 558.05L759.55 574L764.35 584.54C766.82 589.96 770.1 595.47 773.57 600.37L779.92 609.35C774.64 613.44 770.07 619.64 767.76 624.07C767.21 625.13 764.58 625.92 763.47 626.41C753.68 630.77 754.75 626.82 742.74 627.2H742.75ZM912.43 576.3C901.29 562.32 904.5 561.53 891.96 547.49C887.99 543.05 883.16 539.63 879.26 534.29C871.24 523.3 863.61 514.14 852.64 506.24C850.7 504.84 848.01 501.96 846.03 500.16L837.73 492.64L821.82 478.47C819.19 476.13 816.94 473.45 814.51 471.08C807.84 464.59 800.94 458.91 794.36 452.55L782.6 441.18C780.7 439.35 779.01 438.02 777.24 436.22L766.53 425.35C764.8 423.59 762.22 421.82 760.47 420.24C750.07 410.85 759.19 416.83 742.09 408.78C737.08 406.42 731.8 403.37 727.26 400.74C726.99 397.72 726.83 393.41 725.63 391.56C721.77 385.63 714.8 386.6 709.46 385.2C698.59 382.35 678.45 372.91 674.18 384.6C671.83 382.52 668.7 379.26 666.34 378.39L654.43 374.02C657.54 370.37 658.04 365.44 657.21 361.38C656.14 356.16 652.15 353.27 647.52 350.86L640.97 347.45C633.43 343.53 627.7 338.48 620.13 337.67C618.03 337.45 614.62 338.48 612.01 338.82C607.72 339.39 608.33 348.65 603.16 348.88C600.99 348.57 575.45 338.61 577.48 337.41C581.2 335.22 586.07 334.55 588.5 332.52C602.11 321.17 602.84 307.51 607.84 292.46L612.92 277.18L616.55 266.25L624.85 284.07C630.49 296.17 640.11 307.79 649.96 316.77L656.88 323.08C662.83 328.51 664.49 331.14 670.86 336.01L677.2 340.87C680.62 343.49 684.38 346.29 687.99 348.53L696.25 353.65L702.56 357.66C703.92 358.52 706.52 359.67 708.17 360.39L721.07 365.99L734.56 372.02L745.55 376.9L764.71 385.69C768.92 387.62 773.05 388.59 776.83 391.83C778.97 393.67 782.05 394.25 784.61 395.29C786.46 396.04 788.86 397.49 790.72 398.51L799.93 403.56L806.99 407.39C812.45 410.35 817.66 413.19 823.81 414.95L828.67 419.2L841.24 425.37C843.94 426.69 846.51 427.91 849.03 429.5L856.54 434.23C865.11 439.63 861.84 439 872.55 443.67L873.36 445.35C876.36 445.65 878.5 447.19 879.79 449.27C882.78 450.18 884.62 453.26 887.1 455.21C890.47 457.87 894.32 458.93 896.83 463.33C897.44 464.39 912.06 475.69 914.42 477.27C917.52 479.36 919.45 481.06 922.01 483.98C931.81 495.17 938.52 492.85 934.33 500.83C931.17 506.85 928.31 512.84 924.86 518.66C920.18 526.55 916.03 533.12 913.3 542.61C912.69 544.74 912.87 550.42 915.02 551.13C917.56 551.97 921.57 553.42 923.93 553.3L937.85 552.58C936.96 555.29 934.28 555.14 932.91 556.44L926.8 562.26L912.4 576.28L912.43 576.3ZM632.37 124.05C634.4 121.38 636.26 119.23 638.49 117C644.04 111.47 648.12 105.62 653.52 98.6396L656.87 121.29C657.19 123.44 657.74 126.2 658.25 128.42C664.13 154.04 657.96 158.1 669.82 192.99L674.68 207.3C676.03 211.29 682.54 214.85 686.32 214.55C692.6 214.04 694.53 207.77 698.1 204.81L720.65 186.12L736.47 173.72C743.03 168.58 749.24 163.17 755.99 158C762.21 153.24 767.81 148.13 773.55 142.82C775.8 141.73 778.98 140.14 781.13 138.5L793.38 129.09L805.09 119.4L812.52 113.83L829.08 101.36L840.34 92.4096C838.92 97.9696 837.79 102.22 836.2 106.61C832.61 116.48 829.37 126.02 826.3 136.19L823.11 146.75L816.32 167.13C814.67 172.08 812.71 176.92 810.88 181.95L804.07 200.66C802.71 204.39 801.02 208.03 800.04 211.96C799.27 215.08 798.4 217.76 797.31 220.64L785.75 251.12C784.02 255.68 782.74 260.16 781.21 264.7L776.02 280.09C773.33 288.08 770.86 295.86 768.88 304.03C767.3 310.58 765.08 316.55 764.61 323.66C767.63 325.3 770.39 327.02 773.32 328.08C777.02 329.42 781.78 326.15 784.41 323.89L790.43 318.71L796.73 313.65L809.94 303.51L826.83 291.35L842.6 281.07C842.62 285.58 841.28 289.25 840.69 293.62L836.88 321.93C836.2 326.95 836.34 331.57 836.02 336.77L835.31 348.28L835.6 358.2C835.71 361.92 836.23 367.71 839.02 369.96C845.48 375.17 852.64 373.85 858.22 369.52L865.22 364.1L875.81 359.27C879.35 357.65 881.5 355.53 885.14 354.18L885.61 360.34C885.85 363.48 886.39 366.6 886.23 369.96C885.9 377.07 885.86 383.8 886.15 390.82L886.73 404.78C886.87 408.22 887.03 412.34 887.82 415.32L890.49 425.32L882.41 421.33L877.13 416.83C873.78 413.97 869.46 412.15 865.4 410.57C859.45 408.27 855.16 405.49 849.68 401.94C846.43 399.83 841.8 397.8 838.16 396.07C832.31 393.29 827.25 390.44 821.65 387.32L813.87 382.99L801.31 377L783.58 368.14L775.18 364.99L768.65 361.86L758.9 357.98L749.39 354.53L736.17 349.16L725.38 344.65L710.84 337.94C708.58 336.9 705.11 335.62 703.18 334.45L688.83 325.74C680.54 320.71 673.68 314.06 666.13 308.29C659.86 303.49 653.51 299.04 647.92 293.5C635.45 281.15 629.62 269.76 620.44 254.57C622.81 238.24 623.42 241.7 617.57 226.43C626.95 219.97 642.25 219.45 643.59 206.22C645.18 190.6 640.83 198.42 645.96 188.3L652.42 175.56C653.19 174.05 653.84 161.99 651.97 159.9C648.57 156.1 637.83 156.96 631.27 159.2L622.93 162.05C622.91 159.01 623.12 154.56 622.68 151.44C621.22 141.16 625.08 147.86 619.14 139.32C625.14 131.49 625.14 133.65 632.4 124.08L632.37 124.05ZM596.51 170.45L605.4 163.23C602.87 172.82 603.11 181.13 609.34 187.52L619.43 188.39C623.38 188.73 624.93 179.86 629.29 181.27L624.16 189.45C622.02 192.86 623.7 198.42 624.56 202.32L605.5 207.92C602.59 208.78 599.04 208.87 596.05 209.43C594.35 210.41 590.76 212.77 589.33 211.43C586.63 208.92 584.69 207.06 582.11 205.41L566.32 195.38C576.87 183.74 571.7 189 581.51 181.67L596.52 170.45H596.51ZM351.89 121.26L368.23 112.05C370.22 110.93 372.94 109.91 375.13 108.88L387.33 103.16C389.81 102 392.93 99.4296 395.42 98.8096C406.28 96.0896 413.97 91.3496 428.64 88.6996L439.05 86.8196C447.66 85.2696 456.34 84.6196 465.15 83.9096C471.94 83.3596 478.93 85.2896 485.78 85.4496C501.4 85.7996 520.96 90.1096 533.82 99.1296L548.75 109.6C552.05 111.91 554.47 114.04 557.31 117.13C559.43 119.43 562.03 121.73 564.08 124.25L587.74 153.51C586.34 157.82 582.32 159.47 578.95 162.09L564.11 173.6C561.44 175.67 558.6 178.87 556.27 181.36L551.64 186.31C546.83 183.09 543.32 181.06 538.44 178.56C529.01 173.73 531.86 172.65 522.16 167.85L526.98 167.38C528.52 167.23 534.97 152.91 524.11 148.07C522.54 147.37 518.76 147.39 517.53 148.38C512.66 152.33 515.43 158.81 516.53 164.49L506.35 158.64C502.96 156.69 500.05 155.06 496.38 153.52C477.91 145.77 460.46 136.8 442.8 126.92C441.88 123.45 441.58 118.25 438.52 116.05C435.03 113.55 429.04 116.31 425.74 118.29C418.66 122.55 411.67 124.51 403.87 126.37C397.24 127.95 390.84 129.81 384.28 131C367.73 134 363.51 138.1 350.21 141.71C343.1 143.64 336.85 146.4 330.24 150.05L322.93 147.79C326.3 139.99 345.92 124.62 351.88 121.26H351.89ZM326.19 176.36L331.98 196.49L315.91 200.09L307.78 183.81C305.71 179.66 304.38 175.19 302.6 170.69L311.2 166.21C314.39 164.55 317.19 163.31 321.01 161.56C323.5 166.43 324.64 171.02 326.19 176.37V176.36ZM213.36 195.38L216.66 183.83C217.42 181.19 218.96 178.7 220.31 176.28C222.53 172.31 223.96 167.6 226.72 164.04C229.9 159.95 232.1 155.03 235.78 151.34L249.16 137.91C252.57 134.49 255.9 132.1 260.18 130.02L268.59 125.93C280.08 120.35 287.37 120.71 300.11 119.7C306.98 119.15 312.87 119.7 318.67 123.52L313.27 130.86C308.97 136.72 303.42 147.04 303.79 154.18L294.94 157.79C282.93 162.68 274.68 163.53 264.17 168.78L255.96 172.88C247.98 176.87 255.42 189.05 254.2 193.22L249.95 188.69L244.95 183.5C242.19 180.64 233.63 173.59 229.29 179.09C226.91 182.11 225.74 187.56 225.97 191.84C226.72 205.86 224.51 227.7 222.73 241.98C222.37 244.86 221.95 248.03 221.8 250.78L220.28 277.66C217.34 271.89 217.54 265.77 216.09 259.95C214.49 253.56 214.1 247.62 213.81 241.2L213.35 231.04C213.11 225.76 211.31 220.11 211.4 214.77C211.5 208.24 211.65 201.37 213.37 195.36L213.36 195.38ZM226.37 721.36C213.41 727.56 210.06 732.78 196.45 737.46L198.82 726.26L202.96 711.98C204.64 706.18 206.23 700.93 208.71 695.42C210.39 691.7 211.21 687.74 211.9 683.58C213.08 676.43 219.47 672.83 216.97 662.86C215.75 657.96 208.09 654.63 204.49 657.45L195.96 664.16C195.27 664.7 174.81 674.65 172.99 675.44L153.31 684.08C141.84 689.11 145.92 686.82 137.6 690.14L125.52 694.96L115.08 698.77L102.96 703.49L75.0201 714.73C80.9401 707.47 86.6201 701.5 92.8201 695.25L121.55 666.29L136.56 651.29L146.87 641.82C149.42 639.48 152.03 636.28 151.15 632.29C150.55 629.57 146.63 624.57 143.93 624.62C137.28 624.73 131.12 625.43 124.8 624.62L104.55 622.04L93.4001 620.88L84.5701 619.9L63.2501 617.17L56.5601 616.25L49.6801 615.24L65.0201 607.51L77.2001 601.14L83.3201 598.56L97.0801 592.05L108.82 586.13L124.02 582.14C125.66 581.71 125.52 577.24 126 575.61C127.15 571.69 125.83 570.09 123.77 566.75L118.38 558.02L111.97 547.67L96.1601 523.2C94.8301 521.14 93.7201 519.35 92.5601 517.14C85.4701 503.64 82.7001 501.73 76.0601 490.96L66.4401 475.37L52.6001 452.61L43.1001 437.48C40.1501 432.79 36.0201 429.42 33.2401 423.14C40.5601 424.28 47.2601 425.22 54.3001 426.89L74.6701 431.7L85.8701 434.56C89.4001 435.46 93.0801 436.75 96.7501 437.43C102.7 438.53 108.27 439.61 114.02 440.98L124.89 443.58L136.51 445.9C143.33 447.26 149.65 448.98 156.66 450.85C160.07 451.76 165.16 454.12 168.64 452.58C169.14 452.36 176.18 443.85 173.23 440.47C170.63 437.48 170.24 435.1 168.78 431.56L163.08 417.73C158.31 406.18 154.22 394.79 149.5 383.11L140.56 360.96L137.79 354.19L130.27 336.76L125.08 323.71L120.27 310.74L117.7 303.49L106.84 270.36C103.32 259.62 99.4501 249.44 95.4401 238.97L91.2101 227.93C89.1101 222.45 86.4301 217.07 83.9801 211.71L80.2601 203.54L74.9001 190.21L81.7701 196.53C85.5101 199.97 89.4101 203.15 93.6001 206.05C94.1101 206.48 95.5201 207.89 96.1001 208.19C106.8 213.63 104.25 213.7 112.21 219.1C117.21 222.49 121.73 225.52 126.3 229.37C131.42 233.67 136.92 236.79 142.06 240.88L151.22 248.17C154.8 251.02 158.15 253.78 161.66 256.67L172.35 265.44L192.37 281.22C194.98 283.28 197.84 285.18 200.84 286.89L207.39 308.09L211.84 323.04L217.64 347.5C218.73 352.09 211.96 355.97 208.44 356.67C194.83 359.35 182.02 369.59 182.13 383.71L193.67 392.65L190.22 399.3C185.39 408.6 183.58 417.99 182.38 428.35C181.45 436.41 182.06 441.92 184.98 450.17C186 453.05 186.16 457.73 187.69 460.18L195.42 472.57C196.91 474.96 200.49 476.94 202.58 478.49L208 482.51C200.35 497.14 198.44 489.21 195.84 510.78C195.07 517.17 198.1 530.25 199.99 536.6C200.93 539.75 202.6 542.17 204.11 545.22L210.56 558.25L217.09 568.71C219.17 572.04 222.61 575.57 225.77 578.58C235.09 587.47 244.86 583.3 249.1 595.58C253 606.89 265.13 614.76 277.34 612.28C279.79 611.47 283.53 609.16 285.39 607.66L291.15 603.01L295.72 599.32C298.21 603.72 300.09 607.67 301.97 612.22C298.55 613.62 295.76 614.34 293.47 615.61L282.95 621.46C279.18 623.56 275.64 628.19 271.99 630.57L256.63 630.21C253.72 630.14 250.47 631.31 247.59 632.37C232.62 637.85 234.28 637.66 232.12 648.61C231.51 651.72 234.31 655.57 236.55 657.03C239.89 659.21 243.29 659.27 247.72 658.59L240.56 672.28C234.77 683.34 227.03 708.34 226.39 721.37L226.37 721.36ZM265.96 753.93C261.29 750.49 251.53 740.18 249.79 736.42L245.25 726.55C242.11 719.73 241.01 714.58 242.21 707.59C245.58 688.09 250.68 670.52 263.7 654.76C266.88 650.91 272.6 651.69 277.57 651.4L292.35 650.54L303.7 651.57C304.69 651.66 307.12 650.31 307.56 649.49C309.87 645.24 301.67 637.85 299.29 637L287.09 632.67C290.48 629.46 310.57 622.28 312.18 622.29C313.19 622.29 315.15 623.91 315.73 624.85C318.43 629.25 322.94 631.35 327.01 634.24C331.54 637.45 335.65 642.62 342.32 640.03L347.14 635.33L348.24 623.53L365.13 631.63C367.81 632.92 371.57 636.19 370.96 638.87L361.99 645.85C353.22 652.66 346.86 661.14 340.25 670.07L326.78 688.24C324.88 690.81 323.25 692.55 322.08 695.81C320.96 698.92 317.77 701.65 316.12 704.45L306.28 721.07C301.09 729.83 297.85 740.03 292.86 748.2L286 759.43C276.06 758.62 273.8 759.69 265.97 753.93H265.96ZM245.95 895.49L228.87 891L226.83 872.79L225.55 868.49L238.13 868.26L245.81 868.12C248.51 879.5 245 882.8 245.96 895.5L245.95 895.49ZM298.91 887.79L297.86 900.35L261.8 898.03L259.16 885.37L255.99 869.75L288.71 875.96L299.98 877.81L298.92 887.79H298.91ZM357.22 900.29C347.24 899.55 339.49 900.23 330.71 900.27L313.04 900.35L310.7 888.52L308.92 879.55C314.37 880.01 318.86 880.54 324 881.35L342.34 884.23L359.06 886.64L357.23 900.28L357.22 900.29ZM412.88 910.49L403.39 908.54L391.59 905.93L384.49 904.36C380.79 903.54 374.26 904.94 371.69 900.91C369.54 897.54 368.69 892.74 367.82 888.27L383.4 890.84L399.25 894.15C401.46 894.61 403.51 894.81 405.66 895.34L414.49 897.52L412.88 910.5V910.49ZM476.8 927.61C465.08 923.09 460.67 921.34 449.11 918.7L437.01 915.93C434.47 915.35 431 914.59 428.82 913.75L425.38 901.55C429.62 901.05 433.24 901.96 437.49 902.76L446.73 904.5L460.39 907.08C462.86 907.55 466.47 908.07 468.82 908.1L478.89 908.23L476.81 927.61H476.8ZM527.91 947.14L516.46 942.61L503.55 937.69L493.94 933.71C492.9 930.91 491.16 926.56 490.63 924.05L488.24 912.72C488.1 912.06 487.37 909.93 487.98 909.8C490.19 909.33 507.74 912.22 512.25 913.43L522.02 916.05C524.87 916.81 527.86 917.06 530.94 916.83L527.9 947.14H527.91ZM577.57 934.08L576.38 945.41L574.59 961.88C570.58 961.53 568.12 961.09 564.76 960.15L558.11 958.29C553.91 957.12 549.27 956.03 545.8 954.05L543.2 944.03L538.95 919.38C543.71 917.55 548.24 921.04 552.54 921.3L572.49 922.46L580.01 922.59C578.67 927.21 578.01 929.9 577.57 934.07V934.08ZM632.13 923.89C631.37 928.94 630.95 934.08 630.53 939.2L629.61 950.29L621.81 953.66L593.75 961.91C590.71 955.74 591.4 948.95 590.51 942.16L589.11 931.42C588.76 928.77 588.5 925.72 588.61 923.37C596.47 921.69 603.61 920.81 610.69 918.65L633.97 911.56L632.12 923.89H632.13ZM623.17 853.16C601.45 861.41 595.25 866.4 568.93 864.43C561.39 863.87 554.31 863.42 546.86 862.02C539.5 860.64 531.68 860.37 523.92 859.85L512.05 859.06C509.04 858.86 507.23 858.74 504.2 857.61C501.98 856.79 497.98 857.25 495.41 856.91L483.17 855.27L471.69 854.1L452.31 851.52C448.34 850.99 442.93 851.16 439.39 850.03C423.04 844.82 399.54 839.53 382.48 837.09C373.47 835.8 376.42 835.15 368.38 834.34L350.03 832.49L320.78 828.69L301.77 826.14C301.16 824.77 299.19 821.07 298.85 819.27L296.13 804.54L293.92 792.5C291.64 780.06 297.29 773.79 302.54 762.5L306.46 754.07C308.47 749.75 311.11 746.12 313.14 741.73L319.67 727.63C320.47 725.9 321.53 723.92 322.54 722.27L333 705.25L340.02 705.7L354.77 707.25L366.46 708.66L372.87 709.64C378.39 710.49 384.07 711 389.78 711.25L403.19 711.85C413.36 712.31 427.52 713.56 437.28 715.23L463.31 719.68C465.01 719.97 468.37 720.28 470.06 720.31L491.39 720.71L498.87 721.01L522.2 721.78L546 722.18L552.43 722.25C549.83 729.84 549.59 737.25 549.15 745.33C548.98 748.54 548.19 752.35 548.6 755.68C550.43 770.6 550.64 784.88 550.04 799.72C549.9 803.13 550.13 806.7 549.57 809.98C547.62 821.26 548.07 842.81 551.44 854.23L560.62 855.15L579.22 856.17C593.55 856.96 606.51 850.25 619.42 845.34L635.84 839.09C659.96 829.91 664.99 826.35 692.97 827.88C694.4 827.96 696.42 830.54 696.49 831.89C696.85 839.06 682.29 834.81 667.3 837.53C657.49 839.31 648.34 843.59 639 847.14L623.2 853.15L623.17 853.16ZM670.06 919.26C669.47 923.65 668.99 928.32 668.09 932.22L658.31 937.81C654.41 940.04 650.32 941.42 645.91 943.28C645.06 940.94 643.62 937.98 643.47 936.16L641.79 916.85C641.56 914.24 641.26 911.41 641.37 908.7C649.03 906.16 656.1 905.3 663.64 903.55L672.47 901.5L670.06 919.28V919.26ZM720.5 916.89C709.55 920.27 707.19 917.49 693.24 923.1C689.66 924.54 687.19 925.4 683.34 925.46L678.93 900.44L693.23 899.73C698.8 899.45 704.06 897.79 709.75 897.68L716.58 897.55L724.12 896.78C723.78 909.23 721.74 906.15 720.5 916.89ZM718.67 787.47C701.2 786.38 707.44 786.98 693.45 776.8C705.56 768.35 706.53 754.37 708.56 739.99C709.2 735.46 708.81 721.39 706.59 717.11C700.96 706.27 694.08 703.62 682.54 700.97L685.33 687.91C687.07 679.78 693.59 673.07 698.8 667.22L708.91 667.65L721.27 668.23C724.46 668.38 727.72 668.01 731.18 668.4C719.64 680.79 714.61 698.04 716.29 715.29C717.77 730.49 717.4 738.02 724.45 752.6C733.29 770.9 731.6 768.06 744.29 783.21C746.43 785.76 750.52 787.88 752.71 789.6L718.69 787.48L718.67 787.47ZM743.65 915.2L735.74 916.13L732.85 896.49C734.66 895.2 738.08 895.59 740.84 895.4C747.85 894.94 754.66 894.26 761.57 893.19C765.93 892.51 770.18 892.27 774.09 893.53C772.68 900.54 771.84 905.71 771.31 912.91C768.24 913.46 763.61 914.31 759.81 914.48L743.65 915.19V915.2ZM1061.93 760.4L1059.72 777.09L1055.22 798.73L1051.12 818.35C1050.83 819.73 1049.16 821.82 1048.71 823.08C1043.04 838.79 1046.69 841.14 1038.27 854.42C1036.43 857.32 1035.23 861.17 1034.2 864.23C1033.74 865.59 1031.78 867.96 1031.46 869.53C1030.76 872.98 1028.97 875.2 1027.75 877.9C1026.01 881.74 1024.37 885.02 1022.45 888.59L1014.57 903.27C1013.49 905.28 1009.42 911.48 1008.14 910.23L1010.11 912.16C999.73 916.17 1006.38 919.41 994.38 929.59C989.52 933.71 986.78 939.5 981.98 943.54L974.4 949.91L967.22 956.93C964.98 959.12 961.31 961.09 958.57 963.06L950.11 969.12L932.28 980C929.96 981.41 925.04 982.35 922.11 983.65L911.53 988.33C910.49 988.79 897.48 991.66 890.47 993.98C886.73 995.22 881.14 993.45 877.27 995C874.25 996.22 871.96 996.19 868.77 996.12L861.34 995.97L848.81 995.56C844.17 995.41 839.43 994.41 835.01 993.82C829.16 993.04 824.36 992.2 818.84 990.12C813.96 988.28 807.79 989.27 802.96 986.04C801.38 984.98 799.19 984.11 797.32 983.38L784.98 978.58L778 974.32C775.6 972.85 774.25 972.55 772.29 970.76L763.79 962.98C760.48 959.95 756.66 954.46 754.74 950.05L748 934.54L758.65 933.65L773.65 932.76L810.72 931.05C821.94 930.53 832.68 920.4 838.57 911.32L843.74 903.35C846.13 899.66 854.95 887.97 855.77 883.93C855.86 883.46 855.85 882.98 855.76 882.48C865.61 866.65 857.51 847.95 844.74 835.69C842.49 833.53 839.73 833.78 837.74 835.17C830.36 835.1 822.7 836.41 815.4 835.23C802.77 833.19 790.69 831.78 777.73 831.42C771.61 831.25 765.2 830.45 759.37 829.52L728.83 824.64C728.4 816.85 729.16 806.22 730.54 798.33L758.84 795.2C763.84 794.65 773.02 798.76 779.93 796.47C789.61 793.25 799.82 783.22 803.03 781.6C812.66 776.72 825.26 784.19 842.61 771.48C857.82 760.33 854.74 764.17 861.1 765.47C869.98 767.28 879.37 767.59 888.45 766.82L901.66 765.7C906.9 765.26 911.79 765.43 916.56 763.49C925.96 759.68 932.99 760.42 937.64 753.38L954.57 755.98C960.43 756.88 965.78 756.57 971.61 756.16C988.79 754.97 984.12 752.88 999.81 748.23C1005.23 742.43 1007.82 734.4 1007.63 726.52C992.76 710.12 994.98 716.95 984.87 714.27C979.16 712.76 975.16 711.96 968.64 711.48C967.45 702.64 969.64 700.05 967.95 689.04C965.01 669.8 963.57 674.58 959.22 662.37L955.81 652.82L948.78 635.29C947.32 631.66 943.85 628.35 941.79 624.98C939.28 620.86 936.77 617.04 934.05 613.25L922.39 597.01C928.58 586.39 937.37 577.51 947.33 568.85L958.04 559.54C960.53 557.38 962.18 550.53 962.46 547.17C958.43 539.17 948.69 533.02 939.17 533.63C938.43 529.61 940.8 526.16 943.75 523.16C944.69 521.23 945.84 517.9 946.87 516.05L950.59 509.37C953.64 513.46 958.58 518.34 962.07 521.58C964.59 523.92 966.73 528.68 969.61 530.47C976.69 534.85 975.99 539.18 984.68 549.07L990.04 555.17C999.39 565.82 1004.1 575.24 1011.85 586.55L1017.26 594.45C1022.18 601.64 1024.32 610.71 1028.49 618.42C1030.98 623.01 1037.33 636.61 1038.82 640.95C1042.47 651.57 1044.26 651.57 1046.15 658.98C1047.46 664.09 1049.41 668.92 1051.3 673.94L1053.64 680.14C1054.61 682.7 1055.23 685.83 1055.91 688.58L1058.21 697.93L1061.26 711.5C1061.46 712.39 1063.27 714.34 1062.61 714.82L1061.65 715.52C1061.87 716.25 1062.01 717 1062.06 717.76L1062.55 717.9L1063.22 738.77C1063.1 735 1061.61 763.15 1061.97 760.41L1061.93 760.4ZM780.04 892.48L792.76 891.8L803.08 891.39L799.73 908.04C798.35 914.89 794.68 910.16 783.97 912.94C782.01 906.69 780.64 899.45 780.04 892.48ZM811.41 891.98L821.01 891.6C823.17 891.51 824.82 891.52 827.21 891.66L819.44 902.85C817.55 905.58 816.31 907.85 813.24 909.63C810.7 904.08 810.31 898.04 811.4 891.99L811.41 891.98Z" fill="black"/>
</g>
<defs>
<clipPath id="clip0_177_1253">
<rect width="1088" height="1099.3" fill="white"/>
</clipPath>
</defs>
</svg>
