<svg width="630" height="711" viewBox="0 0 630 711" fill="none" xmlns="http://www.w3.org/2000/svg">
<g clip-path="url(#clip0_177_1251)">
<path d="M623.37 181.44C621.54 180.38 619.14 180.22 617.09 181.9C616.23 182.6 615.39 183.32 614.54 184.02C611.45 186 608.13 188.89 604.84 192.19C589.22 205.58 574.22 219.66 559.87 234.4C551.54 233.72 541.43 229.79 545.48 227.79C580.87 186.51 603.99 129.97 527 174.56C526.61 174.94 526.21 175.32 525.79 175.67C525.24 176.13 524.66 176.47 524.05 176.7C513.56 188.29 503.22 206.6 497.41 221.12C495.07 221.89 493.23 222.34 491.79 222.53C491.2 222.18 490.56 221.97 489.88 221.94C489.22 221.79 488.57 221.81 487.91 221.98C485.17 219.65 490.9 211.62 490.25 206.47C499.07 157.4 517.71 104.58 526.5 53.2601C543.71 -14.5899 499.69 21.0701 458.96 5.40007C418.76 -4.44993 423.04 -4.36993 409.37 36.7601C404.5 45.8901 403.43 58.8601 399.77 68.8301C388.3 104.9 403.18 101.65 358.64 112.22C331.16 118.5 301.86 128.76 274.77 136.24C272.97 136.96 270.91 137.38 269.11 137.24C270.28 129.29 268.15 121.28 262.72 115.16C256.43 108.08 246.65 105.75 237.51 105.96C223.02 106.3 206.31 113.57 201.52 127.4C188.67 145.46 208.8 157.02 178.07 163.36C152.4 169.12 128.68 175.14 102.53 183.66C91.7002 189.38 80.4402 176.75 67.5902 181.54C49.1003 191.95 33.3903 212.31 27.4203 232.82C18.6003 275.95 47.2103 330.51 42.4403 377.08C37.3102 398.32 18.6803 411.08 9.78025 429.75C6.47025 443.6 3.34025 456.94 3.39025 471.03C2.69025 474.44 2.11025 477.9 1.67025 481.42C1.61025 481.9 1.56025 482.39 1.50025 482.87C0.700252 485.8 0.430252 489.02 0.630252 492.12C-0.509748 508.43 0.180252 524.88 0.640252 541.2C1.20025 561.02 1.71025 580.9 4.05025 600.6C5.82025 615.51 8.68025 630.19 13.4203 644.33C13.4003 645.29 13.3903 646.09 13.4103 646.65C21.3503 662.76 10.3903 687.96 37.0603 686.97C78.2503 674.99 123.66 703.05 163.67 710.21C182.41 710.75 203.08 695.55 221.78 690.18C224.99 688.05 228.65 686.91 232.49 686.21C234.29 685.41 236.13 684.73 238 684.11C250.93 678.56 263.11 671.86 277.22 669.77C282.54 667.66 287.95 666.08 293.14 665.29C331.9 649.09 378.89 634.96 422.17 619.39C427.59 616.35 433.19 613.78 438.79 610.95C447.3 606.65 456.1 601.78 465.88 601.7C466.92 601.39 467.96 601.1 468.99 600.78C475.77 598.72 482.76 596.71 489.05 593.38C494.83 590.32 499.79 585.85 502.46 579.8C503.4 577.67 504.02 575.46 504.41 573.22C514.33 551.89 503.15 508.37 506.17 490.23C508.92 466.92 507.3 441.64 505.91 417.62C507.26 403.86 508.81 390.11 510.6 376.4C512.6 361.08 514.02 346.53 511.03 331.23C508.36 317.58 503.32 304.57 498.12 291.71C506.92 289.94 538.57 306.35 574.24 294.23C574.82 293.58 575.67 293.1 576.85 292.94C577.4 292.86 577.93 292.77 578.47 292.67C578.77 292.55 579.08 292.44 579.38 292.32C579.38 292.32 580 292.22 580.87 292.08C584.16 291.13 587.14 289.61 589.89 287.71C591.17 286.67 592.7 285.47 594.36 284.15C600.75 278.37 605.96 270.78 611.27 264.3C611.27 264.2 611.29 264.09 611.28 263.99C621.13 250.62 627.58 219.47 629.8 203.46C630.41 188.72 627.74 182.52 623.37 181.46V181.44ZM513.82 216.26C514.3 211.47 517.55 206.73 521.26 203.61C534.7 184.73 574.56 159.62 550.25 196.13C544.79 205.84 536.58 213.8 530.53 223.4C525.77 231.26 521.09 224.08 511.95 224.3C511.47 219.77 512.53 217.59 513.83 216.26H513.82ZM490.85 250.7C497 251.85 491.53 258.2 487.62 257.25C481.11 254.86 484.95 247.92 490.85 250.7ZM406.65 107.75C413.04 93.9001 404.38 86.1901 423.78 86.4901C422.8 87.8601 421.91 89.3101 421.13 90.8201C420.46 92.1301 419.87 93.4601 419.34 94.8101C416.57 99.7401 414.52 105.07 413.41 110.67C412.7 114.27 412.15 118.26 412.19 122.2C411.76 123.51 411.21 124.92 410.45 126.45C410.02 126.26 409.6 126.07 409.17 125.89C400.62 118.66 406.83 115.98 406.65 107.73V107.75ZM445.17 92.3601C448.44 91.5401 451.88 92.0101 455.73 94.4701C458.84 96.4501 461.07 99.0701 462.52 102.07C462.65 102.97 462.82 103.86 463.14 104.64C463.18 107.16 462.83 109.76 462.18 112.15C461.52 113.93 460.81 115.62 460.1 117.33C455.21 126.49 447.36 136.28 436.1 133.57C425.81 124.13 433.04 101.5 445.17 92.3701V92.3601ZM392.77 183.02C399.74 182.77 407.37 189.42 417.87 182.01C418.31 178.24 420.2 171.26 415.36 169.46C395.05 168.05 389.86 159.53 396.43 140.68C397.6 137.35 400.21 135.92 402.82 134.61C404.84 135.31 406.81 136.15 408.73 137.17C411.42 138.59 413.97 137.51 415.4 135.61C416.39 137.88 417.35 140.22 418.59 141.92C423.38 148.69 430.46 157.49 440.44 155.52C440.17 155.67 439.81 155.82 439.42 155.94C440.78 155.77 442.54 155.81 444.31 155.76C458.92 157.27 469.68 146.72 475.47 133.57C483.34 118.2 484.49 98.0101 475.05 85.6301C473.48 82.4901 471.46 79.6301 469 77.3001C461.28 69.9801 450.66 71.3101 441.12 73.4201C439.75 73.7201 438.78 74.3801 438.14 75.2301C434.66 76.5601 431.43 78.5701 428.61 81.1001C426.34 68.9601 419.85 75.7601 414.66 69.1701C416.68 62.6301 415.03 47.9101 424.06 48.2801C450.73 60.9201 456.28 28.8401 421.38 36.6901C421.57 20.9001 438.78 18.7301 450.47 26.1201C469.25 32.6501 489.8 31.2601 508.52 35.6201C506.88 90.7401 485.73 149.51 471.37 204.39C470.99 209.29 469.99 215.28 468.57 219.56C464.54 221.25 454.47 231.48 453.58 233.74C450.51 237.94 447.95 242.57 445.74 247.16C442.3 254.31 439.38 261.72 435.46 268.62C431.61 275.39 426.58 281.2 421.52 287.06C416.54 292.83 411.57 298.72 407.86 305.42C404.56 311.37 402.06 317.71 399.08 323.83C396.11 328.15 393.15 332.48 390.18 336.8C386.7 341.88 383.38 347.13 379.62 352.02C376.2 356.47 371.84 360 369.13 364.99C369.01 365.21 368.91 365.42 368.83 365.63C366.24 366.32 363.35 366.09 360.09 364.6C334.64 369.42 353.47 336.49 356.12 322.55C357.59 322.94 391.31 324.83 383.38 309.22C380.89 306.55 377.5 305.58 373.94 306.44C367.03 308.12 370.11 302.84 360.77 303.55C361.95 293.11 366.69 283.61 373.12 275.81C377.66 274.16 395.81 285.81 399.47 274.76C401.07 261.56 379.8 258.57 370.67 262.24C368.07 256.71 372.45 247.51 374.42 241.56C374.37 242.08 375.1 238.13 376.64 235.5C382.73 236.37 388.85 236.83 395.06 235.97C396.48 235.77 397.9 235.5 399.31 235.16C402.43 235.91 404.97 236.73 406.56 236.67C420.09 236.38 433.03 250.8 446.59 241.16C451.89 223.07 424.71 222.7 419.03 209.22C412.5 201.77 373.65 193.87 392.79 183.07L392.77 183.02ZM333.56 284.76C331.92 271.01 326.25 257.66 323.65 244.46C325.73 239.8 329.62 237.3 334.19 235.93C335.62 235.78 337.06 235.62 338.5 235.48C338.96 235.63 339.46 235.73 340.02 235.75C345.43 235.94 350.84 235.99 356.25 235.88C355.67 239.81 351.52 244.62 351.74 252.66C348.21 265.9 348.37 281.74 342.92 294.6C340.79 298.9 339.67 309.02 332.92 306.45C330.28 300.73 336.94 291.59 333.57 284.76H333.56ZM305.7 307.91C305.64 308.85 305.92 309.86 306.65 310.89C318.4 327.32 316.95 348.5 320.43 367.57C321.15 373.99 322.28 380.28 324.03 386.26C311.68 403.36 309.89 386.21 308.22 374.55C308.18 358.55 297.64 346.2 300.47 330.07C301.05 322.07 296.93 309.06 305.7 307.9V307.91ZM264.27 161.45C267.21 148.97 285.14 152.59 293.61 146.41C309.39 146.08 324.11 135.7 339.31 134.3C354.71 128.64 369.82 125.29 385.1 124.72C386.79 122.08 378.06 150.01 379.57 147.61C370.4 165.8 381.43 165.33 358.05 168.11C338.43 175.21 332.37 162.04 310.14 163.54C299.54 155.38 260.03 178.29 264.27 161.45ZM260.58 195.76C261.71 196.05 263 195.88 264.31 195.02C270.68 190.8 277.53 187.51 284.65 185.13C297.66 182.3 310.65 180.53 324.22 183.09C333.14 184.77 341.7 187.6 350.05 191C351.09 191.47 352.13 191.92 353.2 192.31C356.51 193.72 359.78 195.2 363.04 196.73C372.15 202.99 380.13 203.94 389.07 209.91C413.59 220.07 322.27 211.13 319.45 214.07C316.51 214.35 314.1 215.71 312.06 217.65C306.51 221.62 302.79 228.34 301.87 235.3C299.85 250.5 307.01 266.6 312.07 280.59C312.25 281.08 312.48 281.52 312.74 281.91C311.93 288.15 302.94 285.43 288.73 286.8C283.16 258.9 252.77 238.51 260.04 208.86C259.9 203.67 259.79 199.3 260.58 195.76ZM271.82 294.56C274.35 300.01 284.93 306 288.43 311.51C286.93 315.08 285.93 318.86 285.47 322.83C285.14 325.7 285.17 328.58 285.43 331.46C285.1 331.57 284.73 331.68 284.33 331.78C261.87 333.16 251.13 337.65 256.54 314.39C261.11 303.82 258.91 253.96 271.82 294.58V294.56ZM206.77 425.65C207.49 417.56 227.27 421.54 224.2 410.35C218.23 395.41 201.75 411.57 206.79 384.75C218.64 383.44 241.93 381.42 255.79 374.97C257.14 374.19 258.58 374.17 259.18 376.03C259.57 379.74 265.65 388.13 262.88 391.44C258.27 396.3 266.66 399.82 262.94 402.9C262.43 403.32 261.91 403.64 261.38 403.89C260.41 403.82 259.45 403.76 258.51 403.68C255.74 403.45 252.98 403.16 250.22 403.12C249.19 402.6 247.95 402.39 246.55 402.69C245.13 402.99 244.06 403.46 242.76 404.12C236.89 407.1 241.22 415.23 246.99 414.15C247.16 414.12 247.35 414.1 247.52 414.08C247.38 414.54 247.23 415.02 247.1 415.53C233.9 418.44 220.88 421.98 208.04 426.16C207.61 426.02 207.19 425.86 206.78 425.66L206.77 425.65ZM210.08 240.3C203.53 254.07 201.99 261.98 187.79 257.09C187.2 257.19 186.63 257.24 186.07 257.27C183.53 255.63 181.28 253.66 179.8 252.11C173.66 245.71 171.66 237.55 171.39 228.9C171.18 221.94 170.59 212.63 175.81 207.19C177.47 205.46 179.55 204.41 181.83 203.82C188.38 204.5 196.66 209.61 204.02 212.12C218.1 212.41 214.04 231.55 210.08 240.31V240.3ZM249.9 345.73L258.44 349.66C262.33 359.86 244.08 358.63 237.79 361.38C224.95 366.16 219.26 368.67 227.26 354.55C233.77 359.24 244.31 351.47 249.9 345.72V345.73ZM216.22 141.86C225.67 131.25 250.02 133.1 248.6 146.64C250.53 153.8 248.5 162.58 243.34 167.3C242.09 180.07 243.17 190.99 241.39 201.8C244.39 222.04 243.65 242.59 243.03 263.05C242.94 266.95 242.82 270.84 243.19 274.3C243.11 274.67 243.07 275.05 243.06 275.46C243.14 276.99 242.98 278.49 242.58 279.97C242.36 280.99 242.42 281.92 242.66 282.75C242.64 282.87 242.62 282.98 242.61 283.1C242.61 283.26 242.61 283.42 242.61 283.58C242.61 284.06 242.51 284.48 242.37 284.86C241.42 291.92 240.71 300.32 239.52 307.63C238.95 309.58 238.29 311.49 237.38 313.24C236.66 314.63 235.34 317.07 233.56 317.35C232.49 317.52 230.93 316.39 229.73 315.44C229.63 315.22 229.54 314.99 229.47 314.74C228.24 309.78 227.77 304.78 227.64 299.75C226.4 290.02 225.36 280.33 226.6 270.41C227.42 263.86 227.99 257.52 228.11 250.91C228.22 244.85 228.64 238.85 230.75 233.13C231.22 220.88 232.27 208.8 234.73 196.41C238.94 168.08 212.04 165.1 216.23 141.85L216.22 141.86ZM151.45 185.43C167.88 181.52 184.34 178.12 199.98 171.58C216.73 175.01 224 202.82 195.12 190.41C175.33 168.87 159.18 197.91 152.72 214.85C152.52 215.73 146.97 218.1 142.75 218.75C136.95 222.93 129.88 223.63 123.03 224.8C122.88 224.83 122.75 224.82 122.6 224.83C114.59 231.48 114.68 210.33 107.26 199.83C121.72 194.16 136.25 189.04 151.43 185.42L151.45 185.43ZM163.81 260.83C155.39 271.98 137.34 279.31 126.7 290.13C104.01 316.65 109.26 289.49 114.14 271.89C123.74 240.19 107.52 234.52 151.9 235.49C154.49 246 154.76 253.79 163.82 260.83H163.81ZM151.89 353.78C163.99 321.62 140.47 342.53 133 357.48C128.28 368.1 124.03 381.77 123.48 391.9C98.8303 411.13 122.03 364.98 123.29 354.71C119.01 339.8 109.56 354.82 105.92 363.4C98.1803 372.73 94.4603 384.47 95.1003 396.52C88.0403 391.91 85.6202 375.29 80.2402 369.84C59.3802 357.23 126.39 317.81 136.56 301.87C148.18 289.76 144.27 290.45 159.3 284.32C168.19 280.87 170.86 279.23 188.38 280.23C198.24 288.54 195.12 295.14 198.4 309.69C201.76 323.55 207.52 330.84 207.82 346.01C191.12 363.17 163.94 367.78 144.91 379.99C141.76 377 149.2 357.27 151.88 353.79L151.89 353.78ZM161.07 411.37C160.2 407.22 148.11 404.12 153.08 401.15C163.84 396.38 169.19 385.97 174.47 405.14C175.35 415.59 195.44 438.2 175.45 438.96C174.77 437.65 174.03 436.37 173.25 435.1C168.83 425.19 168.12 419.25 161.08 411.37H161.07ZM490.25 382.39C482.44 426.36 488.13 480.83 484.44 524.67C486.48 528.36 485.29 558.22 485.77 562.95C485.81 563.33 485.8 563.69 485.76 564.03C442.95 580.4 400.15 596.77 357.34 613.14C358.88 610.28 361.61 606.42 365.81 601.32C392.24 574.64 370.33 562.4 350.39 592.68C339.09 609.74 335.46 617.79 332.74 622.54L277.96 643.49C278.89 642.42 279.79 641.33 280.67 640.22C281.17 639.76 281.7 639.28 282.27 638.77C284.02 637.32 284.91 635.39 285.66 633.35C287.64 630.36 289.44 627.26 291.07 624.06C291.14 624.01 291.2 623.95 291.28 623.9C305.78 605.32 318.05 586.93 332.79 570.12C333.53 569.23 331.49 566.53 345.73 550.59C348.68 547.29 345.15 541.73 341.71 540.13C328.49 544.57 334.38 544.79 327.04 549.04C317.16 559.1 305.76 568.44 295.78 578.88C286.51 586.82 278.05 595.6 271.33 605.93C261.68 615.36 254.07 629.39 245.42 639.15C241.04 648.49 233.01 651.95 230.53 661.62C224.08 664.08 217.64 666.55 211.19 669.01C200.21 673.21 189.08 677.82 177.23 678.59C178.33 676.88 180.06 674.72 182.55 672C204.61 639.09 232.88 607.96 257.25 576.36C262.58 572.73 268.36 563.1 270 556.97C270.06 556.83 278.54 547.47 278.63 542.36C280.47 525.2 259.94 530.01 252.14 538.26C245.5 547.77 238.82 557.04 233.01 566.73C226.32 574.62 220.45 583.17 215.52 592.32C215.23 592.85 215.05 593.38 214.94 593.9C212.4 598.04 210.01 602.3 207.79 606.7C200.41 615.39 195.07 626.3 187.85 635.05C148.83 714.59 171.02 628.94 174.44 598.03C176.52 587.42 176.63 571.97 176.81 556.99C176.91 556.03 177.02 555.07 177.13 554.11C178.78 538.9 180.43 523.69 182.08 508.49C183.67 493.82 185.19 479.04 183.22 464.32C182.9 461.96 182.49 459.62 181.99 457.3C187.22 451.07 199.83 450.9 211.97 447.18C242.41 436.71 267.79 428.17 297.58 418.51C307.43 414.91 317.63 412.46 326.73 407.52C336 405 348.98 404.42 356.03 397.66C379.08 391.63 402.44 382.63 426.39 375.08C440.15 371.52 449.86 363.01 465.49 359.8C493 341.44 492.31 357.94 490.27 382.35L490.25 382.39ZM611.98 214.57C595.58 339.16 479.98 245.31 472.26 286.52C469.16 302.32 452.55 313.08 446.1 327.87C439.94 336.36 435.28 356.29 422.95 356.81C418.13 359.74 410.94 362.53 404.73 363.55C404.01 363.12 403.16 362.88 402.21 362.9C402.56 361.51 402.86 360.04 403 359.57C403.81 356.86 404.8 354.18 405.84 351.55C407.99 346.08 410.58 340.79 413.36 335.61C419.65 325.68 425.87 315.55 433.95 306.65C438.42 297.55 445.13 288.02 452.14 280.12C459.83 269.82 468.1 226.58 488.09 234.98C482.79 235.43 477.76 238.05 474.63 242.87C472.26 246.53 471.64 250.4 472.33 254.04C472.32 254.27 472.33 254.5 472.35 254.71C472.58 262.63 482.1 271.25 490.36 269.42C497.04 269.94 503.64 266.93 507.05 260.4C510.85 253.13 508.09 243.92 501.57 239.36C501.16 238.7 500.57 238.11 499.75 237.62C499.48 237.46 499.2 237.33 498.93 237.19C498.93 237.17 498.94 237.16 498.95 237.14C523.8 238.28 539.77 245.58 566.59 250.54C576.05 251.99 583.69 230.87 593.05 225.37C596.86 221.27 616.92 196.31 612 214.57H611.98Z" fill="black"/>
</g>
<defs>
<clipPath id="clip0_177_1251">
<rect width="629.89" height="710.2" fill="white"/>
</clipPath>
</defs>
</svg>
