<svg xmlns="http://www.w3.org/2000/svg" viewBox="0 0 74.457 71.192"><g data-name="Layer 2"><path d="M74.438 33.994c.224 4.7-1.551 8.8-3.547 12.9-1.855 3.807-4.636 6.926-7.313 10.08a15.2 15.2 0 0 1-9.657 5.542c-2.677.364-5.291 1.142-8.028 1.128-2.351-.012-4.667.12-6.951-.819a6.25 6.25 0 0 0-5.727.581c-3.438 2-6.97 3.83-10.467 5.724-.956.518-1.907 1.05-2.892 1.507-2.124.988-3.279.7-4.7-1.166a2.6 2.6 0 0 1-.556-2.5c.828-2.765 1.349-5.633 3.329-7.924a15 15 0 0 0 1.034-1.9 1.157 1.157 0 0 0-.465-1.789c-2.813-1.628-5.618-3.276-8.5-4.77a15 15 0 0 1-6.235-5.869C1.5 40.775-.561 36.639.139 31.9a37.7 37.7 0 0 1 5.632-15.067C11.092 8.562 21.441 2.27 31.651.444a28.15 28.15 0 0 1 14.964 1.385c5.565 2.1 11.1 4.406 15.783 8.252a34.95 34.95 0 0 1 11.768 19.035 25 25 0 0 1 .272 4.878M38.062 6.869c-5.6-.016-9.814.724-13.8 2.636-1.46.7-3.008 1.214-4.506 1.838-4.461 1.856-8.328 4.371-10.187 9.143-.327.84-.881 1.591-1.2 2.433-2.524 6.656-2.6 13.042 2.076 18.933.89 1.121 1.521 2.361 2.886 3.133 2.982 1.686 5.818 3.628 8.76 5.388a4.04 4.04 0 0 1 2.142 4.061 21 21 0 0 1-.482 3.2c-.454 1.928-1.024 3.829-1.481 5.758-.062.261.222.631.411.907.055.081.368.074.5 0 1.256-.7 2.509-1.409 3.743-2.149 2.324-1.4 4.62-2.835 6.955-4.212a5.14 5.14 0 0 1 4.612-.446 15.7 15.7 0 0 0 9.109 0 61 61 0 0 0 7.012-2.844c4.363-1.791 7.44-5.179 10.193-8.755a19.5 19.5 0 0 0 3.034-6.866c.811-2.991.3-5.645-.1-8.512-1.15-8.157-5.724-14.036-12.4-18.192a39.24 39.24 0 0 0-17.277-5.454m2.479 18.662c.136-2.063-.647-3.885-1.331-5.728a1.63 1.63 0 0 0-1.235-.822 1.9 1.9 0 0 0-1.341.745 10.97 10.97 0 0 0-1.714 6.116c-.294 6.082 1.1 12.117.415 18.209-.055.484.73 1.2 1.281 1.581.694.482 1.421.043 1.877-.515a3.45 3.45 0 0 0 .97-1.841c-.008-4.324 1.737-8.5 1.056-12.06 0-2.438-.085-4.068.022-5.685M27.529 37.28c.076.647 1.882 2.011 2.508 1.786a3.2 3.2 0 0 0 1.639-1.278c.974-1.743.884-7.071-.1-9.349a2.1 2.1 0 0 0-1.214-.909 1.57 1.57 0 0 0-1.847.759A9.7 9.7 0 0 0 27.3 34.04c.072 1.081.1 2.166.229 3.24m19.446-7.175a5.5 5.5 0 0 0-.865-1.918 1.62 1.62 0 0 0-2.34-.23c-1.667 1.972-1.786 7.571-.206 9.629a1.643 1.643 0 0 0 2.7-.127 5.27 5.27 0 0 0 .747-3.246 36 36 0 0 0-.036-4.108m-24.593 5.714a4.12 4.12 0 0 0 1.442-2.771c.2-1.655-1.5-3.6-2.736-3.294a3.48 3.48 0 0 0-2.154 3.33 4.27 4.27 0 0 0 1.482 2.757 3.4 3.4 0 0 0 .987.338 3.3 3.3 0 0 0 .979-.36m31.062-3.889a1.63 1.63 0 0 0-1.562-1.244 1.54 1.54 0 0 0-1.649 1.093 23 23 0 0 0-.656 2.61c-.129.714.775 1.693 1.618 1.864a1.98 1.98 0 0 0 2.191-1.135c.131-.519.189-1.057.285-1.613a13 13 0 0 0-.227-1.575" data-name="Layer 2 Image"/></g></svg>