<svg xmlns="http://www.w3.org/2000/svg" viewBox="0 0 75 72"><path fill-rule="nonzero" d="M53.971 31.93c-.204-.773-.821-1.206-1.561-1.244-.738-.038-1.409.309-1.649 1.093a23 23 0 0 0-.656 2.61c-.129.714.775 1.693 1.618 1.864.886.178 2-.38 2.19-1.135.131-.52.19-1.057.286-1.613-.071-.515-.091-1.061-.228-1.575m-31.062 3.889c.872-.705 1.317-1.718 1.443-2.771.197-1.655-1.502-3.595-2.736-3.294-1.113.272-2.392 2.102-2.155 3.33.201 1.036.574 2.078 1.483 2.758.264.198.655.229.987.337.33-.116.723-.153.978-.36m24.594-5.714c-.092-.668-.506-1.315-.865-1.918-.439-.736-1.825-.84-2.34-.23-1.667 1.972-1.786 7.572-.206 9.63.73.95 2.024.815 2.702-.128.926-1.286.704-2.731.747-3.246 0-1.966.107-3.054-.038-4.108M28.057 37.28c.076.647 1.882 2.01 2.508 1.786.629-.227 1.323-.711 1.639-1.278.974-1.743.884-7.07-.105-9.35-.178-.41-.75-.753-1.214-.908-.759-.254-1.427.119-1.847.759-1.149 1.752-1.247 3.736-1.209 5.75.072 1.082.101 2.167.228 3.24m13.012-11.748c.136-2.063-.648-3.885-1.33-5.728-.147-.393-.806-.814-1.237-.822-.45-.01-1.063.356-1.34.745-1.294 1.82-1.607 3.889-1.714 6.116-.294 6.082 1.097 12.117.415 18.209-.054.484.73 1.198 1.281 1.58.694.483 1.421.044 1.878-.513.436-.534.97-1.222.969-1.842-.008-4.324 1.738-8.503 1.056-12.06 0-2.438-.085-4.068.022-5.685m-2.48-18.663c-5.603-.015-9.813.725-13.8 2.637-1.46.7-3.007 1.215-4.506 1.838-4.46 1.857-8.328 4.37-10.187 9.143-.327.84-.881 1.59-1.199 2.433-2.525 6.656-2.604 13.042 2.075 18.933.89 1.12 1.52 2.36 2.886 3.133 2.982 1.686 5.818 3.628 8.759 5.388 1.584.947 2.28 2.284 2.143 4.06a21 21 0 0 1-.481 3.198c-.455 1.928-1.025 3.83-1.482 5.757-.062.262.223.632.411.908.055.08.367.074.502-.001a137 137 0 0 0 3.742-2.15c2.325-1.394 4.622-2.834 6.956-4.211 1.45-.855 2.848-1.037 4.612-.445 2.955.992 6.131.81 9.108.003 2.417-.655 4.677-1.885 7.014-2.844 4.362-1.791 7.439-5.18 10.192-8.755 1.49-1.934 2.35-4.35 3.033-6.866.812-2.991.305-5.645-.099-8.512-1.151-8.157-5.724-14.036-12.404-18.192C50.3 8.862 43.949 7.307 38.589 6.868m36.377 27.126c.225 4.695-1.551 8.802-3.548 12.899-1.854 3.807-4.635 6.926-7.312 10.08-2.476 2.917-5.661 4.999-9.656 5.542-2.677.365-5.291 1.142-8.03 1.128-2.35-.012-4.666.12-6.95-.82-1.911-.784-3.846-.511-5.728.583-3.437 1.996-6.969 3.829-10.466 5.723-.956.518-1.908 1.05-2.892 1.508-2.124.987-3.278.695-4.697-1.167-.559-.734-.86-1.488-.556-2.503.828-2.765 1.349-5.633 3.329-7.924.46-.534.652-1.291 1.034-1.903.497-.794.2-1.404-.465-1.79-2.813-1.627-5.618-3.275-8.502-4.77-2.66-1.377-4.781-3.34-6.235-5.868C2.026 40.775-.034 36.638.667 31.9c.797-5.394 2.644-10.423 5.632-15.07C11.62 8.562 21.969 2.27 32.179.445a28.15 28.15 0 0 1 14.964 1.385c5.564 2.103 11.097 4.407 15.783 8.252 6.094 5.002 9.858 11.47 11.769 19.035.39 1.55.196 3.248.271 4.878"/></svg>