<svg xmlns="http://www.w3.org/2000/svg" viewBox="0 0 78.728 75.464"><g data-name="Layer 2"><path d="M.008 22.82c0-1.816-.021-3.631 0-5.447a8.41 8.41 0 0 1 3.758-6.893 17 17 0 0 1 6.765-3.331C16.72 5.937 22.823 4.36 29.09 3.445 34.791 2.613 40.551 2.134 46.2.8A42 42 0 0 1 60.291.4c3.435.366 5.856 2.545 7.6 5.554 1.769 3.052 2.421 6.431 3.031 9.792.931 5.136 1.7 10.3 2.417 15.481a146 146 0 0 0 3.826 19.631c.591 2.092.433 4.305 1.313 6.366a6.8 6.8 0 0 1 .114 3.231c-.372 3.373-2.48 5.96-5.808 6.252-3.781.331-7.45 1.3-11.3 1.371a89 89 0 0 0-13.454 1.547c-5.505.954-10.958 2.185-16.379 3.6-3.467.905-7.141 1.018-10.725 1.465a11.6 11.6 0 0 0-2.7.253c-2.731 1.073-5.335.213-8.01-.191-3.075-.464-4.782-2.36-5.818-5.042a9.7 9.7 0 0 1-.962-3.654c.213-5.294-1.4-10.411-1.358-15.676a11.5 11.5 0 0 0-.6-4.828 3.8 3.8 0 0 1-.25-1.6C1.444 36.875.162 29.88.008 22.82M71 55.737c-.12-1.405-.113-2.325-.288-3.208-1.3-6.54-2.915-13.023-3.287-19.722a9.7 9.7 0 0 0-.871-3.105 1.79 1.79 0 0 0-1.24-.8 5.3 5.3 0 0 0-2.156.11c-4.368 1.231-8.908 1.377-13.361 1.788a105 105 0 0 0-11.775 1.637c-6.012 1.257-12.1 1.836-18.146 2.764-3.9.6-7.8 1.544-11.8 1.437A1.326 1.326 0 0 0 6.7 38.03c.023 3.442-.068 6.905.267 10.322.423 4.3 1.258 8.551 1.845 12.834.433 3.157.614 3.545 3.736 4.226a26.7 26.7 0 0 0 9.729 0c3.916-.59 7.811-1.361 11.745-1.781 3.581-.384 7.122-1.042 10.689-1.495 7.164-.908 14.278-2.128 21.535-1.959a9 9 0 0 0 2.168-.059 11 11 0 0 0 2.5-.949 1.15 1.15 0 0 0 .711-1.322c-.225-.871-.515-1.726-.625-2.11M6.712 25.694H6.65c0 1.991-.021 3.982.01 5.972a1.16 1.16 0 0 0 1.531 1.041 17 17 0 0 1 2.609-.677c7.757-.511 15.288-2.473 22.928-3.7 6.383-1.023 12.82-1.726 19.17-2.959a63.3 63.3 0 0 1 10.185-1.29 8.2 8.2 0 0 0 2.051-.646c.553-.175 1.008-.524.9-1.113-.8-4.228-.985-8.543-2.651-12.65a5.43 5.43 0 0 0-4.311-3.558 11.6 11.6 0 0 0-4.322-.01c-4.073.71-8.119 1.585-12.17 2.423-2.46.508-4.89 1.389-7.368 1.542-6.89.425-13.453 2.5-20.18 3.725a21.3 21.3 0 0 0-5.984 2.457A4.24 4.24 0 0 0 6.7 20.263c.048 1.81.012 3.621.012 5.431m49.545 10.689c-2.779 1.025-5.685.876-8.551 1.114a25 25 0 0 0-2.656.42 242 242 0 0 1-25.6 3.864 7.3 7.3 0 0 0-1.617.127 22 22 0 0 0-2.961 1.237 1.02 1.02 0 0 0-.319.9c.061.3.385.734.634.762a12.8 12.8 0 0 0 3.214.124c1.414-.2 2.732-.833 4.231-.8 4.718.117 9.26-1.137 13.875-1.861 4.082-.641 8.2-1.069 12.315-1.476a35.6 35.6 0 0 1 5.426-.066 10.67 10.67 0 0 0 5.665-1.537 2.4 2.4 0 0 0 .817-.691c.191-.268.423-.729.315-.939a2.5 2.5 0 0 0-1.03-1.091c-.464-.218-1.06-.156-.778-.124-1.546.003-2.343-.198-2.98.037M28.517 54.95c0 .725.022 1.45 0 2.173-.051 1.376-.426 1.726-1.809 2.3a19.9 19.9 0 0 1-8.537 1.077 3.707 3.707 0 0 1-3.716-4.251 16.6 16.6 0 0 1 1.006-3.641 2.05 2.05 0 0 1 1.145-1.033c1.871-.658 3.775-1.221 5.674-1.8a6.35 6.35 0 0 1 4.236.267c1.617.619 2.009 1.052 2.035 2.732.011.724 0 1.448 0 2.171Zm-2.5.332c-.031-1.935-.427-2.4-2.084-2.391a12 12 0 0 0-2.629.239c-1.278.3-2.575 2.817-2.064 3.825a2.79 2.79 0 0 0 2.88.838 28 28 0 0 0 3.061-.877 1.37 1.37 0 0 0 .834-1.634Zm6.572-2.351c0-.543-.039-1.09.008-1.629a3.16 3.16 0 0 1 2.774-2.894c2.7-.161 5.423-.166 8.135-.147a2.6 2.6 0 0 1 2.272 2.039 14.6 14.6 0 0 1-.1 3.764 2.29 2.29 0 0 1-1.384 1.521c-2.974.646-5.839 1.9-8.99 1.643-1.884-.155-2.551-.731-2.68-2.667-.036-.54-.006-1.085-.006-1.628Zm4.611.769c2.376.026 3.976-.162 5.4-1.051.452-.283.868-.723.591-1.311a1.16 1.16 0 0 0-.8-.611c-2.148-.013-4.3 0-6.439.142-.294.019-.738.786-.749 1.216a1.68 1.68 0 0 0 .671 1.324 3.1 3.1 0 0 0 1.326.291M54.183 55c-1.033 0-1.573.018-2.111 0a1.86 1.86 0 0 1-1.994-1.421 20 20 0 0 0-.522-2.082c-1.06-2.891-.727-4.318 2.956-4.369 1.97-.028 3.726-1.366 5.781-1.069a2.21 2.21 0 0 1 1.769 1.022 8.06 8.06 0 0 1 1.181 5.155 1.72 1.72 0 0 1-1.258 1.564c-2.065.573-4.08 1.417-5.802 1.2m-1.3-2.573c1.64-.346 3.361-.676 5.064-1.081.871-.208.4-.828.208-1.238-.269-.583-.393-1.412-1.372-1.231-1.38.255-2.757.524-4.139.767a1.224 1.224 0 0 0-1.161 1.425 1.36 1.36 0 0 0 1.4 1.359ZM15.3 20.051a3.44 3.44 0 0 0-3.84 1.051 3.5 3.5 0 0 0 .237 4.387 2.73 2.73 0 0 0 1.848.813 3.42 3.42 0 0 0 3.109-3.633c-.003-1.43-.47-2.332-1.354-2.618m14.2-1.13c-.36 1.081-.027 2.541.726 2.883a3.77 3.77 0 0 0 4.368-.779c.592-.656 1.171-1.281.791-2.314-.549-1.493-1.29-2.111-2.692-2.073a3.1 3.1 0 0 0-3.193 2.283m-6.354-.133a3.26 3.26 0 0 0-3.409 2.751c-.14 1.2 2.07 2.921 3.431 2.678 1.112-.2 2.083-1.823 2.043-3.418a2.05 2.05 0 0 0-2.07-2.011Z" data-name="Layer 1 Image"/></g></svg>