<svg width="1451" height="1162" viewBox="0 0 1451 1162" fill="none" xmlns="http://www.w3.org/2000/svg">
<g clip-path="url(#clip0_177_1271)">
<path d="M1139.18 683.97C1130.05 678.95 1110.21 666.54 1101.37 660.62C1095.58 656.81 1088.84 653.92 1087.58 646.84C1071.57 605.21 1069.8 558.63 1052.32 517.88C1050.79 509.43 1068.3 510.13 1071.09 481.86C1075.4 465 1064.94 468.47 1069.13 451.57C1071.33 442.69 1065.68 432.34 1057.83 428.58C1053.38 416.52 1050.5 410.66 1037.18 408.57C1033.15 389.83 1029.59 367.9 1025.99 349.15C1020.3 326.86 1013.61 303.45 1010.42 280.56C1018.46 247.08 1027.8 214.81 1033.49 181.47C1034.52 177.37 1035.49 173.26 1036.37 169.13C1037.5 163.86 1039.58 157.66 1037.69 152.35C1035.94 147.41 1030.92 143.77 1027.23 140.31C1011.46 125.54 994.61 111.93 976.95 99.4897C976.34 99.0597 975.64 98.8197 974.93 98.7497C952.47 58.9197 899.58 42.4097 857.05 33.8297C798.17 27.7897 740.65 53.6697 690.04 80.5497C635.13 105.34 584.4 143.2 541.79 184.72C541.86 191.73 562.63 175 568.29 171.45C589.12 154.93 609.81 143.69 631.73 129.49C680.91 102.14 737.7 88.1697 794.18 85.1897C844.83 84.1597 885.85 91.6697 917.91 127.33C917.12 147.91 893.72 177.47 904.76 195C914.95 208.72 926.13 223.9 937.21 238.68C947.14 244.81 948.44 262.16 949.89 272.29C929.49 295.48 876.8 300.35 845.73 299.88C820.68 299.13 793.61 296.89 769.05 292.6C778.28 273.75 788.78 269.56 803.78 261.07C834.05 246.27 896.19 180.19 870.65 147.69C816.57 169.44 780.87 212.67 723.8 221.88C689.58 226.26 661.63 238.8 648.27 274.55C647.66 288.09 629.78 281.33 620.79 281.94C593.2 280.56 564.28 279.75 537.15 283.3C448.75 283.31 379.82 381.2 398.95 466.96C405.65 542.11 477.46 620.32 554.45 623.12C564.95 623.35 577.18 625.1 587.88 624.11C583.86 644.04 563.55 679.9 577.41 696.81C592.8 697.4 590.99 685.23 602.7 675.6C606.58 704.77 605.61 738.21 611.52 767.68C612.42 779.35 632.07 815.03 642.84 789.07C646.99 781.32 645.68 770.79 652.61 765.27C656.92 791.88 662.43 823.39 674.38 847.87C641.68 852.17 609.31 858.74 577.45 863.03C572.62 854.49 582.6 822.43 583.24 810.95C583.81 798.41 602.98 767.39 577.3 774.15C500.89 797.36 431.02 729.58 354.13 751.4C295.55 766.79 260.96 816.73 230.17 864.5C235.04 798.95 270.77 739.54 309.67 688.76C335.24 659.06 371.11 634.39 401.53 608.78C423.17 591.61 428.16 621.24 414.21 633.29C408.94 643.93 393.08 649.35 390.11 659.61C394.64 668.64 395.75 658.22 406.75 653.57C419.08 647.47 428.35 638.66 433.66 625.94C438.1 601.91 452.76 631.76 458.13 641.18C461.97 653.65 454.74 664.35 465.07 672.03C468.44 668.96 473.44 654.74 473.01 647.28L480.75 649.81C508.29 658.41 544.75 672.8 572.86 663.7C571.56 657.53 570.51 662.36 558.78 660.33C549.08 658.86 539.12 656.32 529.61 653.69C505.33 645.46 477.22 643.53 461.59 620.4C453.08 609.89 444.05 609.18 439.01 606.04C419.09 578.83 397.29 591.73 377.07 609.94C359.45 619.57 369.06 611.57 368.12 599.51C372.27 586.93 375.55 572.95 387.06 565.14C411.75 541.4 402.98 500.54 368.65 529.02C370.66 513.89 372.29 494.63 374.88 479.57C383.81 432.03 350.3 415.79 339.39 470.49C336.34 497.27 333.37 470.19 320.54 475.05C307.14 483.27 311.11 507.04 311.88 520.61C312.2 523.88 310.98 526.78 307.25 527.56C273.97 544.98 296.82 599.89 302 629.28C304.46 639.88 308.22 651.51 313.51 662.21C298.15 677.91 282.3 699.2 269.93 717.37C241.52 767.54 204.13 828.57 219.18 887.92C234.48 915.54 256.25 841.37 269.64 832.58C335.13 740.38 406.47 757.46 499.44 789.43C524.84 797.38 548.83 794.84 574.43 789.97L569.87 803.54C546.07 903.8 584.04 851.42 464.84 895.94C409.16 923.23 365.03 952.41 320.45 1001.2C281.41 1059.29 248.65 1119.34 349.16 1123.58C364.48 1124.57 383.08 1125.76 398.29 1126.09C446.24 1133.97 490.73 1167.13 541.14 1161.16C592.75 1157.25 613.16 1118.48 659.37 1124.01C729.78 1137.75 796.58 1180.78 859.71 1122.07C878.91 1102.39 883.88 1087.17 885.04 1059.26C888.05 1038.02 883.47 1016.29 888.82 995.3C891.6 984.42 894.42 973.75 896.34 962.67C898.12 952.4 899.84 942.03 903.44 932.21C907.2 921.96 914.74 913.53 917.09 902.86C928.7 884.15 943.36 867.56 961.52 854.35C982.3 836.36 1004.08 817.2 1017.22 792.57C1032.75 792.49 1050.12 794.08 1065.73 795.4C1072.25 796.33 1086.74 797 1093.04 798.74C1097.49 811.81 1105.29 830.09 1110.1 843C1123.26 872.69 1133.89 904.39 1147.38 933.84C1156.01 957.04 1169.19 979.66 1179.67 1002.06C1192.77 1029.82 1197.02 1012.67 1184.26 1040.03C1188.36 1040.05 1194.45 1035.32 1197.86 1034.18C1210.32 1048.19 1213.94 1074.84 1234.05 1079.24C1250.5 1069.7 1225.09 1032.4 1223.44 1017.35C1219.01 1004.7 1221.01 1011.28 1230.02 993.61C1232.06 985.11 1243.87 970.2 1246.04 961.87C1263.58 919.5 1266.36 875.51 1258.04 831.89C1237.77 750.01 1211.07 724.19 1139.15 683.94L1139.18 683.97ZM312.49 633.24C307.6 605.31 283.52 495.57 340.45 556.37C329.05 555.83 312.98 560.17 318.1 574.3C322.36 578.92 327.37 574.04 329.99 571.31C342.98 567.32 359.19 579.12 352.67 553.38C348.26 541.02 328.45 527.76 317.71 524.25C320.24 518.3 318.48 473.05 328.43 493.43C335.95 552.53 353.68 513.17 349.83 479.97C352.52 447.29 369.65 435.44 362.95 478.62C362.61 489.08 345.55 567.14 367.96 554.49C377.39 542.49 372.05 540.34 386.77 532.73C387.29 532.36 388.42 533.46 388.68 534.11C387.37 556.44 371.72 550.27 361.44 578.64C356.5 591.83 350.72 606.98 353.56 621.3C361.56 627.47 328.46 647.29 326.65 650.97C314.05 666.68 315.52 642.67 312.5 633.24H312.49ZM1060.76 468.77C1064.67 477.53 1057.62 501.01 1046.81 503.5C1040.13 494.76 1036.75 498.02 1039.48 487.12C1041.67 478.92 1052.63 464.05 1060.77 468.76L1060.76 468.77ZM1055.02 439.39C1060.88 446.6 1038.01 476.94 1027.49 472.59C1021.62 449.8 1043.19 452.06 1055.02 439.39ZM1016.94 432.89C1022.89 421.94 1051.49 416.71 1044.79 434.13C1035.75 439.37 1007.2 458.16 1016.94 432.89ZM1011.3 556.35C1015.36 565.91 1019.48 585.59 1023.83 595.71C1014.1 592.81 1002.11 570.74 996.47 561.46C997.61 545.61 1000.21 529.21 995.11 513.23C992.46 487.28 978.57 459.15 985.48 433.94C991.46 475.79 1004.25 514.08 1011.31 556.35H1011.3ZM915.64 112.71C876.83 75.6197 818.07 68.9397 767.71 75.3797C755.77 73.6797 690.93 92.7697 717.28 78.9697C791.77 41.4197 868.27 26.8197 940.27 78.3497C929.17 77.6897 930.74 87.0697 928.28 86.5697C917.96 79.5097 898.46 64.6397 882.29 64.3997C828.87 62.8997 918.06 73.6397 927.28 96.9497C921.68 106.58 924.9 120.82 915.64 112.71ZM948.53 232.39C913.4 173.68 909.15 204.53 930.72 136.5C937.33 118.6 935.61 88.4897 959.7 114.23C970.7 122.41 985.7 135.02 996.46 143.52C1003.3 149.07 1010.61 158.87 1017.1 164.95C1019.01 194.21 1004.6 226.75 999.98 256.22L999.13 259.03C998.28 261.84 987.5 254.52 982.28 253.53C984.28 242.06 990.46 226.6 995.33 215.58C1005.16 169.67 976.63 212.48 975.33 230.58C975.33 227.47 973.28 176.1 965.41 198.3L960.75 211.44C964.72 225.01 965.07 233.9 971.05 249.37C959.84 247.24 952.77 242.24 948.54 232.38L948.53 232.39ZM951.71 291.26C961.21 335.34 972.05 379.6 982.46 423.97C952.28 459.67 992.94 513.02 982.28 554.82C938.55 559.76 954.48 586.48 922.4 594.48C904.74 582.07 883.75 575.5 862.77 571.3C837.28 566.23 806.32 565.39 785.83 582.07C775.66 570.01 794.68 572.97 804.65 555.98C821.07 529.45 849.91 501.93 847.14 468.76C835.38 463.15 854.68 441.57 850.74 432.57C846.29 416.49 864.88 395.86 868.03 377.44C875.36 370.92 871.92 355.13 861.03 364.36C841.56 383.12 828.6 392.29 801.09 397.41C783.25 395.77 775.91 401.54 762.11 407.21C761.06 390.82 763.09 374.64 762.21 356.71C762.53 344.69 777.05 348.68 785.86 348.45C846.35 346.31 905.95 331.81 951.71 291.25V291.26ZM815.14 606.56L799.49 605.5C796.05 596.43 793.45 595.58 790.92 588.7C814.85 582.03 848.33 579.1 872.56 586C892.92 591.67 943.97 599.1 900.88 619.36C857.05 641.6 876.31 607.87 815.15 606.55L815.14 606.56ZM854.96 633.48C840.84 635.75 820.59 638.54 806.27 639.42C796.12 613.94 826.88 621.66 842.9 625.28C845.1 626.77 862.34 628.25 854.95 633.48H854.96ZM816.64 501.58C805.04 494.6 790.61 522.14 776.71 524.74C744.83 545.52 759.52 522.22 755.21 499.35C748.06 490.44 784.52 494.26 790.21 487.08C810.91 470.81 802.46 465.87 772.11 479.3C757.59 483.21 743.23 476.97 732.46 467.33C700.39 428.59 779.77 412.82 806.99 408.67C823.03 407.05 838.99 398.39 852.79 390.35C848.45 415.1 820.32 428.79 812.09 449.17C818.82 462.72 831.25 440.07 838.47 436.73C837.23 447.22 834.62 452.28 829.15 458.89C814.66 473.89 811.26 496.63 835.76 476.62C836.73 495.54 794.43 557.73 776.18 567.13C765.26 559.64 762.52 560.39 774.59 551.78C785.43 536.62 818.3 520.59 816.63 501.56L816.64 501.58ZM495.53 516.84C496.97 524.36 507.37 529.62 503.41 537.38C422.19 449.02 508.97 374.04 601.63 356.96C608.79 356.22 632.48 346.97 624.48 361.13C618.46 380.01 611.93 391.93 605.42 410.16C588.88 452.71 594.13 430.06 579.3 402.72C577.15 397.64 571.4 385.14 565.3 385.7C558.82 386.3 557.4 413.36 557.14 419.58C556.85 426.64 549.09 419.9 541.54 418.7C519.82 422.96 547.4 479.58 553.34 492.1C568.85 516.35 564.37 504.61 549.79 518.79C539.64 531.72 592.75 561.93 551.89 547.16C527.6 539.31 518.94 513.21 498.43 500.4C484.69 494.79 493.48 517.08 495.53 516.84ZM655.54 503.5C643.7 523.4 632.35 546.62 628.23 569.19C620.99 555.4 610.55 555.76 610.17 537C602.41 514.89 609.26 490.93 606.98 467.98C638.94 459.78 679.54 458.78 712.1 457.09C719.93 477.85 730.67 482.96 745.63 492.05C743.5 546.51 743.69 537.67 693.88 542.66C660.83 540.64 635.75 617.2 643.3 561.86C644.29 554.06 670.32 497.64 655.53 503.51L655.54 503.5ZM578.29 513.31C570.78 487.14 544.9 464.12 547.75 435.78C563.69 440.55 569.09 426.53 570 409.82C575.3 418.82 581.79 429.57 586.21 439.03C595.03 448.5 583.34 465.85 598.47 470.8C602.31 473.36 597.34 479.9 596.86 483.04L593.79 502.89C592.17 519.58 595.59 538.45 601.58 554.2C585.99 557.08 576.09 538.01 567.1 527.93C574.46 525.14 579.26 521.32 578.3 513.32L578.29 513.31ZM607.88 565.53C617.51 571.9 615.19 563.37 626.54 569.98C623.1 579.11 615.1 582.55 606.59 584.94C576.06 592.28 530.67 572.52 521.9 542.97C545.64 566.07 578.01 569.19 607.88 565.53ZM627.48 589.59C635.18 599.22 638.76 599.56 650.72 595.25C656.14 606.31 654.63 608.6 669.88 612.37C680.75 613.5 693.2 600.94 682.71 590.89C699.6 594.19 694.36 590.56 709.65 588.86C707.25 645.81 708.21 612.03 687.51 618.13C674.97 623.41 679.06 637.43 666.66 643.46C655.93 634.81 649.5 610.75 629.32 617.91C625.5 617.93 617.17 600.72 614.88 596.88L627.48 589.57V589.59ZM708.14 575.83C694.59 586.1 656.22 572.2 680.71 559.74C699.92 551.14 723.06 552.58 744.24 551.38C786.33 537.86 723.55 570.61 708.14 575.83ZM573.05 617.03C501.52 611.76 441.62 555.94 412.91 492.3C395.18 440.17 416.83 380.8 453.12 341.68C505.38 284.72 591.83 296.36 661.7 296.14C746.46 295.13 822.75 323.99 904.95 302.8C916.22 300.91 926.86 293.57 938.27 292.22C920.31 307.41 895.97 315.16 873.58 321.95C842.08 333.37 802.89 335.79 773.37 334.21C706.49 340.17 635.69 327.21 571.02 349.54C452.53 384.56 403.35 489.44 522.81 563.22C532.1 578.57 552.16 593.26 569.53 595.41C577.3 596.76 593.46 599.7 601.33 598.6C589.95 616.93 593.26 620.12 573.06 617.01L573.05 617.03ZM671.49 783.51C667.66 770.89 669.39 727.79 646.99 745.94C626.82 773.88 630.61 796.54 622.12 747.58C622.55 725.04 617.95 703.03 616.52 680.55C620.4 664.89 611.71 641.95 597.2 663.54C573.74 697.11 605.48 606.51 610.91 597.49C616 625.19 622.7 623.33 642.65 629.65C658.65 665.57 674.71 669.22 692.71 631.97C723.41 669.57 721.13 599.91 724.75 581.81L756.17 566.02C756.44 578.34 772.28 585.19 776.08 597.23C778.57 603.19 786.7 612.33 782.48 619.45C791.82 625.57 789.93 640.15 788.4 649.66C791.89 654.61 794.82 669.01 791.59 673.44C788.42 667.76 784.58 661.96 780.22 657.38C765.38 649.42 765.6 675.17 763.48 683.58C754.92 705.56 731.99 719.24 720.88 742.23C707.96 764.03 700.29 788.99 694.43 813.32C693.7 880.44 675 805.55 671.46 783.52L671.49 783.51ZM995.15 810.82C993.5 812.28 991.82 813.75 990.13 815.21C990 815.28 989.87 815.35 989.74 815.44C973.94 826.73 957.54 837.77 942.28 850.07C941.74 849.99 941.15 850.09 940.55 850.47C908.9 870.6 884.55 901.24 871.61 936.41C869.33 942.61 867.43 948.93 865.92 955.35C865.18 956.03 864.33 956.63 863.32 957.09C860.6 985.08 855 1001.43 858.46 1029.98C870.35 1071.29 840.95 1107.57 806.42 1126.61C773.05 1144.41 745.82 1130.8 716.7 1121.13C690.7 1115.22 661.42 1101.81 634.46 1106.51C619.29 1111.04 605.28 1118.8 591.1 1126.13C590.6 1126.25 590.11 1126.47 589.68 1126.79C589.56 1126.88 589.44 1126.96 589.32 1127.04C580.29 1131.68 571.16 1136.08 561.58 1139.3C548.33 1142.38 534.23 1142.61 521.2 1140.91C495.78 1137.6 473.62 1123.59 450.4 1113.82C440.36 1109.59 430.03 1106.18 419.32 1104.54C412.2 1101.38 404.81 1098.54 395.94 1096.82C343.78 1089.99 269.15 1111.62 327.58 1032.8C404.24 927.64 533.38 885.62 656.3 861.25C663.62 859.46 671.84 859.91 679.24 857.6C682.8 865.96 707.65 883.43 706.07 861.17C697.45 840.03 776.95 835.99 793.15 827.83C809.93 822.44 826.77 813.56 842.34 805.71C859.27 801.47 871.68 779.58 888.98 784.09C906.14 787.67 926.58 789.33 944.02 791.06C946.85 791.22 938.68 800.54 946.15 803.57C947.46 802.94 948.24 801.46 948.84 799.67C949.01 799.58 949.18 799.47 949.34 799.34C952.21 797.01 954.77 794.39 957.06 791.51C964.87 791.02 976.38 793.18 981.08 792.23C1004.44 791.99 1022.9 788.63 995.15 810.8V810.82ZM828.09 798.3C813.34 782.96 798.5 763.02 792.89 742.08C814.85 757.42 842.04 772.01 867.76 779.52C855.78 786.69 841.29 793.43 828.09 798.3ZM1235.55 952.82C1206.27 1018.59 1215.2 983.46 1192.26 940.74C1177.39 905.11 1159.21 864.93 1144.11 829.46C1125.26 793.18 1170.8 827.32 1180.84 835.7C1212.8 866.5 1238.29 906.68 1235.55 952.83V952.82ZM1249.37 896.41C1236.54 989.58 1260.18 832.14 1126.9 794.12C1049.76 770.96 966.38 787.14 888.49 769.31C852.76 761.98 830.14 749.51 799.11 729.04C797.64 728.43 784.54 720.18 782.68 722.59C773.77 751.6 795.26 783.71 815.01 804.22C784.23 819.66 750.24 820.68 719.2 831.13C693.26 848.67 719.45 789.49 721.62 778.94C729.23 743.92 768.71 717.74 780.04 687.87C808.82 721.74 812.07 683.1 807.51 654.71C829.83 652.02 852.98 648.66 874.78 643.01C879.99 641.99 898.96 635.07 903.73 634.29L897.89 652.09C901.69 678.09 921.14 619.19 924.91 614.78C942.84 579.52 931.13 621.94 944.4 633.19C946.14 637.34 950.59 638.99 953.62 635.9C955.75 623.12 942.74 613.66 949.28 601.88C955.01 578.23 963.18 564.88 984.69 560.91C993.92 563.71 996.99 577.19 1000.23 581.56C1007.09 591.54 1017.49 604.53 1025.76 613.14C1059.58 653.51 1108.83 676.74 1151.37 706.06C1190.23 725.66 1223.64 756.24 1235.64 799.6C1246.64 830.22 1254.91 863.73 1249.38 896.39L1249.37 896.41Z" fill="black"/>
<path d="M1418 442.9C1411.5 416.66 1426.03 393.26 1427.18 366.93C1430.12 338.19 1411.29 306.79 1383.8 297.07C1341.67 282.14 1292.68 318.66 1285.92 361.25C1282.97 391.36 1278.01 418.05 1260.4 441.75C1257.38 445.71 1254.18 450.21 1257.54 455.09C1276.15 467.63 1291.14 390.21 1332.83 394.64C1360.83 394.17 1367.06 449.5 1361.38 469.32C1328.08 490.67 1301.92 434.89 1276.21 528.1C1258.52 559.38 1235.77 486.6 1179.87 527.5C1174.81 534.42 1137.21 553.95 1152.95 561.17C1164.23 562.45 1176.03 537.96 1191.89 540.5C1237.55 527.96 1251.79 603.69 1296.65 584.4C1319.75 570 1322.74 547.14 1344.54 527.78C1395.04 569.23 1448.44 574.95 1450.14 495.82C1444.05 476.02 1427.21 461.24 1418.01 442.9H1418Z" fill="black"/>
<path d="M321.42 910.68C281 909.25 252.96 909.64 216.64 933.39C187.76 950.49 174.04 986.33 143.38 1000.47C100.31 1028.46 70.1404 980.95 110.76 969.37C134.51 972.98 157.66 966.18 134.24 943.65C127.24 940.61 110.48 933.37 103.36 931.02C76.1704 907.74 58.7104 925.85 40.2904 947.2C19.3904 961.31 -5.41961 981.96 1.05039 1011.11C14.1104 1051.19 42.9604 1023.69 77.5304 1040.18C101.68 1053.48 120.62 1074.3 150.02 1074.22C175.71 1064.63 198.4 1050.33 208.96 1024.56C219.7 996.72 224.28 961.24 254.54 947.71C271.84 938.24 287.82 928.29 305.44 928.31C321.53 930.77 356.66 914.86 321.43 910.69L321.42 910.68Z" fill="black"/>
<path d="M1159.29 359.57C1165.79 331.65 1148.71 339.58 1163.91 320.08C1168.78 311.55 1177.62 313.04 1185.23 316.85C1191.52 336.99 1161.36 346.63 1178.23 367.07C1209.95 381.9 1211.81 414.29 1201.01 444.34C1171.11 507.92 1228.9 436.48 1230.79 408.63C1236.17 365.36 1195.24 361.94 1237.99 315.16C1265.32 284.76 1237.07 249.18 1200.25 257.48C1160.73 264.67 1114.09 310.26 1137.01 351.62C1141.03 358.55 1153.1 370.89 1159.28 359.58L1159.29 359.57Z" fill="black"/>
<path d="M1011.84 915.18C985.67 949.98 960.77 1031.6 992.44 1068.33C1006.71 1072.06 990.99 997.23 1001.21 979.19C1002.63 971.72 1010.59 940.41 1013.21 935.69C1017.64 928.18 1036.81 897.59 1011.85 915.19L1011.84 915.18Z" fill="black"/>
<path d="M697.17 40.8305C723.75 27.7705 753.46 11.9804 782.09 4.45045C793.71 -7.25955 737.21 7.65045 733.3 9.42045C703.39 20.0805 668.25 32.8804 646.48 55.7505C635.58 84.2005 686.12 42.1105 697.16 40.8405L697.17 40.8305Z" fill="black"/>
<path d="M618.15 78.2496C615.17 59.8596 538.24 117.54 547.64 129.54C574.41 125.79 595.29 92.1896 618.15 78.2496Z" fill="black"/>
<path d="M938.73 1005.32C935.28 1015.75 930.45 1037.65 931.45 1048.61C927.79 1049.79 930.52 1089.35 944.23 1068.26C946.77 1051.71 946.45 1024.51 947.16 1007.11C952.63 993.61 940.77 993.37 938.73 1005.32Z" fill="black"/>
<path d="M961.19 922.29C960.36 922.9 959.69 923.8 959.3 925.03C957.93 929.36 956.08 933.38 953.73 937.27C951.2 941.46 949.55 945.13 950.34 950.11C950.54 951.38 951.35 952.4 952.41 953.08C952.37 953.53 952.32 953.97 952.28 954.42C965.89 958.07 967.26 949.92 970.16 939.1C974.16 924.95 980.88 909.14 989.67 897.24C1009.8 869.12 977.88 887.06 961.18 922.29H961.19Z" fill="black"/>
<path d="M1052.18 141.3C1067.75 130.1 1094.84 114.59 1097.77 94.5005C1093.99 84.2505 1083.74 98.6805 1079.83 101.22C1074.94 105.59 1064.86 114.93 1060.03 119.47C1060.11 119.4 1046.07 138.95 1052.17 141.31L1052.18 141.3Z" fill="black"/>
<path d="M1046.53 64.4304C1036.2 64.0404 1018.96 106.39 1025.13 116.34C1035.47 115.88 1061.4 71.0904 1046.53 64.4304Z" fill="black"/>
<path d="M1074.01 172.82C1072.06 184.39 1113.35 177.76 1114.72 173.99C1125.54 160.65 1072.79 160.85 1074.01 172.82Z" fill="black"/>
<path d="M411.86 1079.39C416.16 1088.39 433.52 1049.04 440.2 1045.47C459.54 1025.97 481.34 1005.39 504.83 990.98C542.99 961.27 596.58 945.89 631.26 914.08C576.72 923.75 409.95 1019.77 411.85 1079.39H411.86Z" fill="black"/>
<path d="M575.52 1002.5C547.04 1018.69 489.25 1046.97 491.73 1084.1C506.77 1069.87 510.65 1060.57 527.2 1047C540.98 1033.69 653.26 971.67 575.53 1002.5H575.52Z" fill="black"/>
<path d="M930.989 805.28C928.699 803.68 919.879 811.71 913.419 819.04C891.659 836.78 867.859 851.98 846.809 870.59C844.789 871.89 842.74 873.15 840.64 874.34C839.02 875.65 837.81 876.76 836.89 877.71C831.66 880.85 826.429 883.98 821.249 887.12C818.279 888.92 820.989 893.59 823.979 891.78C825.349 890.95 826.729 890.11 828.109 889.28C831.899 893.48 847.599 882.4 858.189 875.72C860.689 874.37 863.169 872.98 865.619 871.54C866.059 871.36 866.44 871.24 866.78 871.16C866.78 871.16 868.579 869.91 870.499 868.58C882.289 861.25 893.39 852.84 903.65 843.49C919.4 831.07 938.08 811.09 931.01 805.27L930.989 805.28Z" fill="black"/>
<path d="M748.55 1006.51C730.18 1027.13 721.42 1055.38 724.88 1082.66C738.62 1084.24 732.25 1042.48 742.08 1028.29C744.04 1021.68 768.43 983.6 748.55 1006.51Z" fill="black"/>
<path d="M530.28 324.64C502.61 325.68 476.4 351.26 459.48 372.47C451.61 377.96 418.54 454.64 443.75 432.49C455.6 415.42 461.01 396.28 472.65 378.2C486.14 355.17 509.04 339.66 530.28 324.63V324.64Z" fill="black"/>
<path d="M655.96 321.44C667.27 318.19 700 330.31 702.08 316.76C666.02 311.39 627.42 311.28 591.74 319.15C589.11 319.64 586.37 321.46 584.37 323.01C581.16 320.59 574.37 323.78 577.34 327.42C602.62 323.85 630.01 320.16 655.96 321.44Z" fill="black"/>
<path d="M683.22 704.81C690.24 704.77 690.7 696.9 690.12 692.21C689.63 684.49 694.8 673.11 691.77 666.01C682.06 656.18 675.32 704.79 683.21 704.81H683.22Z" fill="black"/>
<path d="M708.82 732.64C713.65 737.31 722.76 715.37 722.99 705.99C725.31 679.95 714.03 694.12 712.19 710.51C711.75 714.4 703.35 729.54 708.82 732.63V732.64Z" fill="black"/>
<path d="M640.79 661.21C629.56 649.78 624.18 697.31 634.73 697.64C638.92 695.89 638.25 690.3 638.95 687.12C639.79 674.54 644.38 672.94 640.79 661.21Z" fill="black"/>
<path d="M689.56 755.08C689.88 740.37 673.08 731.04 678.95 751.34C680.56 759.99 682.02 778.82 691.7 779.37C695.15 772.59 689.12 762.29 689.56 755.08Z" fill="black"/>
<path d="M741.24 682.84C747.15 685.04 748.47 677.97 749.08 674.44C760.84 619.47 732.78 671.04 741.24 682.84Z" fill="black"/>
<path d="M767.48 611.55C762.16 614.94 770.88 628.08 771.66 632C788.62 662.51 781.6 607.75 767.48 611.55Z" fill="black"/>
<path d="M740.03 621.58C750.28 617.19 742.37 600.6 740.88 592.75C728.29 588.64 733.61 618.56 740.03 621.58Z" fill="black"/>
<path d="M718.11 674.17C727.27 674.9 723.81 656.84 724.44 651.34C714.3 648.62 713.08 670.2 718.11 674.17Z" fill="black"/>
<path d="M603.6 642.74C598.2 663.08 619.52 643.27 614.8 628.76C607.02 630.91 606.3 637.16 603.6 642.74Z" fill="black"/>
<path d="M645.25 718.04C641.27 728.56 639.84 731.55 647.63 740.73C651.09 735.13 656.17 707.17 645.25 718.04Z" fill="black"/>
<path d="M632.63 482.07C623.73 479.96 615.98 483.74 612.74 491.83C608.65 498.5 612.79 499.79 618.43 496.23C628.19 492.03 640.56 501.63 643.93 493.95C646.9 486.33 638.39 482.76 632.62 482.06L632.63 482.07Z" fill="black"/>
<path d="M705.61 492.99C712.72 485.61 702.12 478.45 695.46 475.99C690.72 473.01 669.97 483.17 678.04 491.72C693.33 481.49 689.86 495.54 705.61 492.99Z" fill="black"/>
<path d="M625 520.75C615.45 520.34 615.47 538.13 620.09 543.12C635.9 551.26 641.14 521.29 625 520.75Z" fill="black"/>
<path d="M689.86 513.71C675.13 511.83 676.87 538.97 690.93 537.02C699.21 536.22 701.32 516.87 689.86 513.71Z" fill="black"/>
<path d="M789.96 494.3C785.71 492.58 782.78 499.79 774.87 503.38C751.81 528.73 807.35 510.08 789.96 494.3Z" fill="black"/>
<path d="M755.4 447.989C760.22 443.159 772.67 437.97 783.91 434.03C805.2 411.43 738.99 440.769 755.4 447.989Z" fill="black"/>
<path d="M771.28 455.48C773.47 462.4 802.52 452.9 794.78 443.57C786.95 443.5 768.69 452.23 771.28 455.48Z" fill="black"/>
<path d="M820.25 417.16C814.1 411.95 790.68 425.29 808.51 427.52C812.36 425.83 824.98 424.12 820.25 417.16Z" fill="black"/>
<path d="M987 172.04C999.07 174.17 987.58 158.9 984.62 154.44C979.49 148.14 945.56 105.53 942.48 129.95C941.06 159.49 952.92 222.05 956.06 148.34C967.12 151.21 978.17 164.39 987 172.05V172.04Z" fill="black"/>
<path d="M580.2 479.29C583.15 473.42 579.6 446.53 569.74 451.05C568.56 458.93 572.3 483.57 580.2 479.29Z" fill="black"/>
<path d="M579.75 526.95C576.8 532.17 584.33 543.2 590.33 539.13C596.68 533.13 586.18 519.8 579.75 526.95Z" fill="black"/>
<path d="M586.13 504.98C590.5 506.79 589.28 482.26 585.27 485.88C581.13 489.62 580.97 502.83 586.13 504.98Z" fill="black"/>
<path d="M850.1 828.39C850.6 828.23 851.1 828.06 851.59 827.89C851.95 828.06 852.38 828.15 852.9 828.1C854.3 827.97 855.66 827.7 856.98 827.34C857 827.43 857.01 827.52 857.04 827.62C857.04 827.62 857.97 827.1 858.16 826.99C861.33 825.97 864.32 824.44 867.31 822.87C872.04 820.39 876.62 817.66 881.05 814.68C889.67 808.88 897.68 802.2 904.95 794.78C907.38 792.3 903.57 788.47 901.13 790.96C900.96 791.14 900.78 791.31 900.6 791.49C899.9 791.11 899.02 791.05 898.12 791.56C881.07 801.11 867.66 817.13 848.68 823.18C845.38 824.23 846.79 829.45 850.12 828.39H850.1Z" fill="black"/>
</g>
<defs>
<clipPath id="clip0_177_1271">
<rect width="1450.14" height="1161.92" fill="white"/>
</clipPath>
</defs>
</svg>
