<svg width="647" height="659" viewBox="0 0 647 659" fill="none" xmlns="http://www.w3.org/2000/svg">
<g clip-path="url(#clip0_177_1313)">
<path d="M645.32 532.47C644.74 525.87 642.12 518.94 640.66 512.52C637.84 500.11 636.39 487.04 630.88 475.49L624.58 462.27C617.86 448.16 597.5 430.48 582.55 423.41L568.24 416.66C562.07 413.74 555.73 411.91 549.11 409.92C539.16 406.93 530 403.42 519.63 401.74C516.59 401.24 481.73 392.63 477.99 391.46C473.14 389.96 453.04 382.95 449.58 382.37L416.7 376.78C411.18 375.84 404.19 375.6 398.82 374.22L375.28 368.16C375.75 363.06 373.86 360.27 369.84 358.03C360.98 353.1 352.85 347.68 342.69 348.4L338.43 330.96C338.2 330.02 335.44 328.12 335.79 327.38C338.43 321.69 347.26 329.12 363 316.02C367.34 312.4 372.66 309.61 374.87 304.57L379.97 292.94C385.58 295.34 392.16 294.19 397.84 292.04C402.19 290.37 407 286.71 407.94 281.97L408.6 281.01C410.64 278.02 411.89 271.6 410.34 267.85C409.2 265.12 405.59 262.41 401.96 259.34C401.56 257.33 405.56 253.38 406.53 251.2L412.85 237.16C429.6 245.3 445.46 237.97 454.78 224.6C461.6 214.83 465.24 205.23 467.12 193.01C485.79 186.52 494.64 194.44 511.41 178.16C523.3 166.6 526.23 140.77 514.45 129.67C505.65 121.36 501.13 120.22 487.96 119.94L475.45 119.69C471.33 119.61 464.97 113.37 463.04 109.59C458.11 99.9104 453.69 90.1404 442.76 85.4604C431.75 80.7504 417.11 89.1504 405.47 91.4904C393.31 82.9504 405.54 59.8804 389.67 42.1504C385.21 37.1604 379.9 34.0504 371.79 35.9804C359.28 38.9604 355.15 54.7304 350.01 55.6804C349.49 55.7804 348.83 53.1304 348.91 52.5104L350.91 37.8304C351.79 31.3104 352.6 24.2204 348.51 19.0104C343.37 12.4904 338.01 4.82043 330.06 1.82043C315.46 -3.68957 295.8 3.51043 289.9 19.5404C286.54 17.3504 274.77 13.1304 272.09 13.7004C264.86 15.1904 259.13 23.2304 255.11 29.1404L247.91 39.7704C247.08 41.0004 243.63 42.7204 242.56 41.8204C236.6 36.7804 242.64 32.0004 229.05 22.6204C217.53 14.6604 211.07 13.1704 197.33 15.0604C189.71 16.1204 183.32 18.4904 176.5 21.7404C161.72 28.8104 156.94 41.6704 153.77 57.5704C152.87 62.0204 152.99 71.5704 148.85 73.9204L137.71 79.1804L124.76 85.6304C116.81 89.5804 113.15 95.1904 109.61 102.81C104.09 114.68 105.67 125.62 116.26 134.52C121.26 138.72 122.94 148.49 126.11 154.54C129.4 160.78 133.84 168.96 127.98 174.71C121.62 180.96 115.25 187.49 114.95 197.34C114.72 204.65 115.65 214.5 124.1 216.94L137.09 220.69C143.61 222.58 156.72 218.04 163.15 217.92C155.22 236.23 142.64 238.54 145.96 264.92C146.65 270.33 149.49 273.75 154.06 276.68C168.08 285.68 186.74 284.41 197.37 272.88C204.13 275.3 209.93 276.97 216.68 278.49C218.87 281.01 219.31 286.6 220.01 290.75C222.06 303.07 229.61 313.14 239.42 320.71C248.39 327.64 259.95 328.26 271.79 329.55C272.71 337.21 269.46 344.92 267.35 351.55C263.07 365.1 254.99 349.65 236.16 376.29L212.62 373.08C207.73 372.42 202.55 372.5 197.62 372.91L178.18 374.54C159.75 376.08 123.12 387.08 107.14 396.62C102.77 399.24 98.0799 401.65 93.8899 404.62L70.5799 421.21C63.8999 425.95 59.4599 433.37 53.9899 438.92C50.0899 442.89 46.4099 446.15 43.2999 450.5L28.4899 471.25L22.3199 480.27C14.7999 491.29 10.8699 504.03 6.26987 516.57C-0.700131 535.61 -1.11013 549.38 1.33987 569C3.52987 586.51 4.55987 590.28 13.7899 603.15C25.3099 619.18 48.9999 627.26 67.9999 628.9L79.0499 629.85C94.1999 631.14 93.5099 631.03 108.43 629.3L131.44 626.63C133.49 627.4 136.29 632.59 138.19 633.97L147.71 640.86C157.78 648.16 177.48 654.32 187.67 654.75L214.79 655.91C219.4 656.1 223.39 655.37 228.21 656.72C235.43 658.73 243.47 656.31 250.53 656.22L265.45 656.03L278.55 655.86C297.17 655.63 295.16 658.11 317.41 657.18C331.54 656.6 346.34 658.65 349.67 658.5C355.46 658.24 360.14 658.24 365.41 658.25L381.28 658.28L391.98 658.16L407.27 658.35C415.22 658.45 423.43 657.3 432.07 657.77C439.81 658.18 448.3 657.77 455.85 656.67L466.1 655.17C478.19 653.41 487.04 644 491.78 633.5L501.45 632.16C503.08 631.94 506.53 632.35 508.26 632.34L528.41 629.09L557.49 626.21L571.95 624.76L595.46 622.28C622.9 619.4 641.54 594.96 645.12 569.24C646.76 557.46 646.35 544.47 645.3 532.45L645.32 532.47ZM341.16 365.73L347.28 361.36C351.37 362.28 356.5 366.35 356.95 369.75C350.87 376.47 345.74 383.1 341 390.15L329.9 405.41C323.77 398.52 318.78 393.41 311.73 387.27L341.17 365.73H341.16ZM285.29 329.02L321.46 328.7C325.96 339.05 322.52 342.14 329 358.65L306.17 378.87C300.84 377.44 281.33 368.57 281.04 364.17C280.5 355.73 289.93 349.39 285.28 329.02H285.29ZM397.82 276.39C394.35 278.21 389.32 278.25 384.49 278.06L383.61 267.48L394.38 264.83C396.17 264.39 399.09 267.36 399.66 268.89C400.31 270.68 399.66 275.43 397.83 276.38L397.82 276.39ZM399.66 227.5C399.91 235.78 397.36 242.74 389.77 248.55C387.84 250.04 382.08 249.38 379.56 247.88L379.33 222.48C381.66 220.29 385.56 216.89 387.94 216.31L398.62 213.71C402.28 217.46 402.33 222.83 399.67 227.51L399.66 227.5ZM198.52 250.42C194.04 259.2 179.95 268.47 172.37 268.16C166.87 267.94 162.3 264.81 160.7 260.76C159.18 256.88 159.8 251.56 162.42 247.51L175.42 227.4C179.92 220.44 178.13 208.34 170.5 203.46C166.67 201.01 157.15 201.82 153.25 203.74C146.02 207.31 140.15 208.56 133.04 203.55C129.38 200.95 130.37 194.76 133.27 191.21C139.83 183.21 144.33 181.46 144.03 175.38C143.74 169.39 145.24 161.47 143.44 156.43C139.38 145.02 134.66 135.31 129.61 124.62L121.48 116.12C122.91 111.74 124.48 106.11 126.74 103.07C137.4 88.8104 163.51 91.1504 165.9 74.7904L167.92 60.9904C169.38 51.0604 169.99 39.5004 181.02 34.7804C186.32 32.5104 192.67 30.6204 199.22 29.2804C207.06 27.7004 220.3 29.7304 223.12 37.7104C226.65 47.6104 229.92 55.6304 241.98 57.1904C256.71 59.1004 262.57 41.8904 270.55 30.6904C273.47 26.5804 280.34 30.9504 281.36 35.3904C282.71 41.2904 289.13 47.1804 295.63 43.2304C300.85 40.0804 299.97 22.3704 309.61 16.9304C315.01 13.8904 321.53 12.0104 327.59 15.1704C331.52 17.2204 338.75 24.2804 338.07 28.7904L334.86 50.1404C333.59 58.6004 332.55 67.3204 339.03 73.9404C342.78 77.7704 349.49 77.6004 354.72 74.6604C365.55 68.5704 366.47 54.9304 372.79 51.1704C374.31 50.2604 378.85 50.5204 379.8 52.2004C388.57 67.5004 378.68 76.0604 389.32 99.1504C390.51 101.73 396.04 105.38 399.16 106.41C414.02 111.4 421.3 97.2404 438.06 100.36L445.69 106.44C443.72 117.13 458.67 133.14 466.86 136.29C481.97 142.09 482.7 131.74 498.54 136.62C502.44 137.82 508.09 144.98 507.81 149.21C507.51 154 505.5 159.25 503.93 163.33C501.13 170.67 495.4 173.37 488.21 174.21L470 176.33C466.02 177.13 458.72 181.51 455.48 183.48C452.61 194.28 447.96 212.13 440.86 219.06C431.26 228.44 425.32 230.56 413.53 228.55L411.11 214.88C410.71 212.59 409.53 209.07 408.37 207.32C404.2 201.04 385.56 205.83 377.65 211.2C375.72 202.99 388.56 208.36 388.67 199.34C388.71 195.44 384.78 194.41 380.9 195L378.56 195.34C377.91 195.45 376.47 194.32 376.78 193.73C379.04 189.47 382.47 193.12 387.18 186.37C388.72 184.15 388.93 177.98 387.39 176.02C382.87 175.47 379.01 177.33 374.63 179.44C367.11 171.74 382.9 168.32 383.89 153.47C384.36 146.54 385.76 139.23 382.32 133.33C380.21 129.73 372.28 125.4 368.21 125.22C351.73 124.48 344.79 136.94 331.64 136.35C327.23 124.16 339.26 122.37 332.99 106.44C329.66 97.9704 322.22 92.3504 311.67 97.0304C311.44 95.1404 310.6 93.3204 309.23 91.7504C307.05 89.2704 303.99 90.5804 302.8 92.8804C300.9 94.2904 300.28 96.7004 299.43 98.8004C298.69 100.65 297.94 102.49 297.2 104.34C281.7 107.36 266.98 97.7704 258.11 105.22C254.67 108.11 252.68 113.79 252.59 118.66L252.4 129.24C243.16 130.4 236.97 126.83 228.51 125.41C220.69 124.12 210.05 128.17 203.09 132.75C200.28 134.6 196.63 141.76 196.67 145.13C196.77 152.27 197.84 163.33 203.49 167.74C206.07 169.75 211.69 170.03 214.91 169.79L216.05 197.46C211.56 197.89 206.33 196.55 200.47 194.28C197.98 197.61 194.24 202.31 191.91 206.87C189.28 212.02 189.8 222.9 192.96 227.75C195.95 232.36 200.78 237.65 201.87 242.64C202.27 244.5 199.34 248.71 198.48 250.38L198.52 250.42ZM220.83 242.57L219.3 260.74C219.12 262.81 214.41 264.71 212.54 264.21C210.65 263.71 206.34 261.12 206.49 258.87C206.68 255.89 208.5 250.15 210.65 249.36L218.32 246.52C212.04 239.33 215.15 237.47 207.38 225.88C203.03 219.41 198.98 213.39 203.41 205.31L217.34 209.4C217.51 221.38 221.62 233.22 220.83 242.56V242.57ZM246.36 306.64C243.81 304.45 240.49 299.74 238.3 297.11C229.8 286.93 231.63 274.17 230.08 262.08C229.1 254.5 228.84 247.77 228.66 240.03L228.25 222.77L240.15 223.71L254.05 221.88C258.07 221.34 263.31 220.56 267.07 219.33C275.18 216.64 279 204.85 275.94 197.52C270.68 184.94 257.36 180.12 244.68 182.06C241 180.19 236.63 177.28 232.19 177.13C230.52 177.07 231.78 181.68 233.15 184.33C232.38 184.55 228.18 184.58 226.68 184.05C223.51 182.95 223.99 166.53 222.09 155.52L219.64 141.3C227.86 141.48 236.63 143.46 244.49 146.15L249.6 143.89C256.03 146.12 262.25 142.94 266.27 138.28C270.35 133.57 268.1 126.6 266.6 119.89C270.07 114.85 275.83 123.27 293.85 119.6C298.12 118.73 305.06 113.95 307.32 110.63C309.19 107.9 310.34 103.92 312.42 103.71C314.72 103.48 319.43 105.86 319.8 107.97C320.74 113.49 319.47 118.34 317.33 122.75C311.99 133.77 315.24 144.64 326.89 150.15C319.77 155.62 313.61 150.52 304.81 162.42C303.58 164.06 303.89 169.64 304.71 171.18C308.1 171.44 310.43 169.53 313.25 168.37L329.56 161.7C330.94 161.14 333.64 157.51 332.91 156.42L329.81 151.85C350.14 151.84 347.76 144.12 364 141.38C364.41 151.13 363.53 158.23 362.57 166.44C362.97 170.32 367.85 177.53 365.74 182.02C364.8 184 358.18 184 357.6 182.61C358.56 178.7 359.68 174.79 359.17 172.42C358.52 169.44 351.8 166.84 349.76 169.43C345.28 175.11 341.45 182.3 333.62 183.22C325.3 184.21 316.03 186.83 313.56 196.4C311.99 202.45 315.42 212.08 320.89 215.4C329.72 220.73 339.58 219.64 349.27 219.85C355.81 220 360.92 219.85 366.13 213.35L367.54 225.98C368.57 235.29 367.79 243.41 366.64 252.65C365.79 259.52 366.83 266.87 365.15 273.6C362.93 282.49 362.79 291.8 357.46 300.35C354.29 305.43 346.04 309.95 340.78 310.6C335.92 311.18 331.04 312.65 326.85 312.72L273.7 313.68C264.66 313.83 253.6 312.85 246.36 306.61V306.64ZM228.12 210.58C228.38 207.8 231.92 204.35 234.43 202.43L236.62 214.77L231.47 216.22C230.02 216.62 227.97 212.24 228.12 210.59V210.58ZM253.05 198.38C255.2 198.05 260.12 200.17 261.29 202.35L263.54 206.58C263.91 207.27 262.07 208.72 261.29 208.89C260.27 209.12 258 207.88 257.45 206.84L253.06 198.38H253.05ZM354.7 206.02L351.6 207.95L344.15 195.57C346.62 196.27 351.96 198.63 354.08 200.29C355 201.02 355.69 205.4 354.7 206.02ZM334.92 195.03L328.18 208.12C328.07 210.39 323.52 205.99 322.94 203.93C322.35 201.82 324.99 196.77 327.14 196.39L334.91 195.03H334.92ZM255.6 369.95L269.06 376.53L295.47 390.7L286.47 403.48C285.42 404.97 280.19 404.76 278.84 403.67L256.87 385.91C255.15 384.52 250.26 382.89 248.89 381.27C248.28 377.18 252.35 371.28 255.6 369.93V369.95ZM117.9 483.36L117.82 488.64C116.87 500.51 115.49 512.31 114.83 524.11C111.46 523.83 107.81 522.26 105.46 522.46L86.8499 523.93C82.4099 524.29 79.4799 525.47 79.0499 529.62C78.6799 533.08 81.5999 537.54 86.0599 537.55L114.45 537.66C114.51 544.99 115 552.34 116.25 559.71C116.28 559.9 116.32 560.07 116.36 560.25C116.42 577.55 119.72 594.52 125.99 610.52L106.59 612.38L88.8099 614.53C84.7699 615.03 77.2799 612.22 72.6799 612.27C61.4099 612.42 51.9199 609.5 41.9699 604.65C26.7299 597.21 17.4099 578.28 17.2399 561.95L17.0999 549.68C16.7299 514.69 43.7299 472.87 66.9799 448.18C70.5599 444.39 73.6699 439.89 77.6799 436.55C80.1999 434.46 83.6999 430.27 86.0799 428.71L106.88 415.18C128.47 401.14 120.96 405.39 143.22 397.56C173.31 386.98 202.76 385.23 234.34 386.9C243.2 398.8 251.1 395.83 258.41 407.32L243.44 407.04C238.85 408.64 234.49 409.06 230.01 407.12L224.97 408.11C215.13 408.59 205.97 409.45 196.19 410.45L175.21 412.61C166.01 413.56 158.32 416.27 150.62 421.66C144.68 425.81 141.09 424.04 132.74 439.03C125.58 451.91 118.08 468.66 117.88 483.35L117.9 483.36ZM484.37 547.72C483.93 557.23 483.41 566.72 482.84 576.22C482.58 580.74 482.3 585.26 482.03 589.78C481.75 594.31 482.35 600.03 479.98 604.04C478.73 606.16 478.53 608.23 479.03 610.05L475.93 622.26C470.82 631.27 461.19 635.87 449.6 636.3C443.73 636.52 437.84 636.56 431.95 636.63C414.39 636.86 396.82 636.99 379.26 637.14C335.66 637.48 292.06 637.75 248.48 638.13C233.31 638.25 218.13 638.34 202.98 638.67C196.57 638.15 190.2 637.42 183.85 636.45C177.98 635.55 172.46 633.42 166.88 631.31C149.48 624.72 148.24 620.96 145.31 600.34L140.86 569.04L136.3 531.1C135.27 522.52 134.77 513.76 134.85 505.12C135.03 487.69 133.65 481.21 139.41 465.31C141.41 459.83 143.75 453.78 146.28 449.28C154.67 434.39 172.26 429.72 187.99 428.66C209.73 427.21 222.07 422.76 249.13 422.64L272.75 422.53L325.36 421.77C329.93 421.71 334.66 420.7 339.33 420.43L359.74 419.25C376.44 418.29 384.96 416.34 403.39 418.37L445.63 422.98C448.74 423.32 451.88 423.88 454.98 424.62C456 425.21 457.18 425.61 458.55 425.75C458.89 425.78 459.27 425.83 459.67 425.93C461.92 426.63 464.12 427.46 466.26 428.41C472.14 431.29 478.85 435.93 481.29 439.68C485.4 445.99 484.61 456.42 484.94 463.59C485.39 473.08 485.62 482.57 485.67 492.08C485.78 510.64 485.23 529.19 484.38 547.73L484.37 547.72ZM631.27 565.22C627.77 587.88 614.37 606.9 589.94 609.05L566.42 611.13L534.96 613.57C520.59 614.69 506.6 618.69 497.05 616.85C500.95 602.48 506.65 580.04 506.27 568.83C505.98 560.34 505.15 551.21 508.13 543.36C509.91 538.69 518.53 540.3 522.3 539.61C538.11 536.73 544.4 539.03 547.56 534.33C548.58 532.8 547.99 527.99 546.2 527.26C541.94 525.57 535.5 527.05 531.02 526.98L521.32 526.83L506.84 526.93L506.63 518.97L506.52 501.38C508.17 485.48 508.99 469.49 508.52 453.51C508.41 449.27 507.94 445.16 506.81 441.3C506.15 436.07 504.58 431.04 501.15 426.82C498.97 424.16 496.27 422.48 493.46 421.02C483.33 409.45 469 406.51 454.46 405.19C454.28 405.15 454.09 405.09 453.9 405.05C449.24 404.09 444.35 404.07 439.46 404.09C438.36 404.01 437.27 403.92 436.2 403.83C435.13 403.73 434.17 403.83 433.32 404.05C430.95 404 428.61 403.84 426.32 403.49C409.78 400.97 396.63 407.91 384.83 407.2C371.56 406.39 359.66 406.19 346.23 408.1C352.21 399.63 357.02 391.03 363.67 384.13L371.48 376.02C377.51 377.78 384.84 381.89 391.47 383.17L451.72 394.81C455.62 395.55 460.41 397.44 464.19 398.82L475.33 402.91C489.26 408.02 503.31 410.51 517.54 414.51L531.33 418.38C557.71 425.79 588.22 437.86 605.03 459.98C606.99 462.56 610.24 467.02 611.38 469.53L617.19 482.37C619.2 486.82 621.1 491.97 622.07 497.19L624.33 509.33C627.28 525.09 630.92 538.8 631 554.68C631.01 558.01 631.77 561.97 631.26 565.23L631.27 565.22Z" fill="black"/>
<path d="M346.68 530.69L335.77 533.35C331.8 520.13 342.46 510.04 335.66 504.61C334.23 503.47 330.84 503.19 328.43 503.69L313.8 506.68C308.79 503.28 326.39 485.04 328.48 477.85C328.01 474.57 323.34 470.01 320.57 469.1C308.67 474.18 309.25 490.91 302.95 491.15C298.83 491.32 298.21 481.04 291.46 479.83C287.88 479.18 283.42 480.19 279.83 482.17C276.33 484.11 272.43 492.53 273.87 496.28L278.2 507.55C272.95 511.89 266.89 516.55 265.04 522.68C261.32 535.06 266.29 546.68 272.44 557.08C279.75 569.46 288.87 576.05 302.73 581.06C314.74 585.41 329.61 576.43 338.77 565.44C343.25 560.05 348 555.18 351.28 548.94C354.71 542.38 353.26 534.46 346.68 530.7V530.69ZM284.7 492.12C284.92 490.65 289.3 491.46 290.21 492.6L296.24 500.25C297 501.21 298.03 503.6 298 504.62C297.99 505.64 295.6 507.42 294.78 506.82L291.06 504.11C287.66 501.62 284.01 496.67 284.7 492.13V492.12ZM329.07 559.93C324.28 565.74 317.68 571.64 308.9 570.73C303.03 570.12 297.69 565.05 293.14 561.65C288.68 558.33 284.75 555.57 281.93 550.41C277.94 543.12 272.01 531.9 276.54 523.59C280.81 515.75 293.76 519.97 298.13 526.19C301.01 530.32 308.34 529.77 311.16 527.14C314.16 524.37 316.66 522.28 319.62 520.27C319.23 530.05 319.61 538.41 326.22 545.02C328.24 546.66 332.98 548.05 337.41 549.83L329.08 559.93H329.07Z" fill="black"/>
<path d="M166.99 134.34C163.76 127.75 169.69 110.55 175.36 105.22C178.72 102.06 182.58 99.3203 178.35 94.7803L173.15 101.11C160.08 106.58 147.31 128 154.82 142.88C157.04 147.28 179.36 158.47 171.73 167.62C170.05 169.63 165.33 171.26 164.05 173.31C162.88 175.18 162.62 181.1 164.73 182.14C174.5 186.93 187.59 181.98 188.52 171.6C191.29 140.53 170.18 140.81 167.01 134.34H166.99Z" fill="black"/>
<path d="M207.1 90.3897C210.42 87.0897 215.06 82.2997 219.54 84.3897C221.64 85.3697 224.43 89.7897 225.98 92.2297C232.13 101.89 242.52 104.84 252.55 98.8797C260.35 94.2397 262.15 83.9497 265.89 75.6597C269.03 68.6997 282.69 80.0897 283.85 72.1997C284.9 65.0797 278.35 60.6197 269.24 59.9397C245.32 58.1497 256.17 83.0097 241.23 87.0797L230.83 77.1597C228.12 74.5697 223.25 72.7497 219.05 73.3497C215.45 73.8697 201.27 85.7897 207.09 90.3997L207.1 90.3897Z" fill="black"/>
<path d="M419.49 164.44C418.33 166.84 415.3 169.81 413.02 172C408.96 175.89 409.29 185.01 414.41 188.55C417.68 190.81 421.28 185.96 423.59 183.03C427.49 178.08 433.28 174.17 433.65 167.65C433.94 162.62 432.01 152.36 428.34 148.93L413.5 135.08L419.08 119.16C417.74 118.09 413.28 116.72 412.15 117.79L407.43 122.27C403.38 126.11 400.05 130.55 398.91 135.49C395.2 151.66 415.69 150.58 419.49 164.43V164.44Z" fill="black"/>
<path d="M299 260.47C299.92 259.2 299.22 254.48 297.7 254.1C279.83 249.67 285.52 252.62 269.41 248.88C267.58 248.46 265.5 243.41 267.19 242.12C278.26 233.68 289.36 219.58 294.31 207.19C296.4 201.96 300.08 197.17 296.94 191.22L285.52 205.21C277.21 215.39 270.02 224.95 260.18 233.9C257.5 236.33 251.9 242.77 253.22 246.2C254.67 249.97 256.39 253.77 257.73 256.77C267.17 261.59 292.03 270.11 299.01 260.46L299 260.47Z" fill="black"/>
<path d="M272.03 286.09C272.11 292.4 283 297.63 293.91 296.91C305.1 296.17 318.14 292.11 324.61 285.09C325.91 283.68 324.33 279.08 322.44 277.49L299.31 285.34C285.03 290.19 271.96 281.02 272.03 286.08V286.09Z" fill="black"/>
<path d="M261.57 152.56C253.98 150.42 245.87 150.93 239.64 155.31C236.64 157.42 236.72 166.93 240.54 166.3L266.09 162.09C267.82 158.82 264.86 153.49 261.56 152.56H261.57Z" fill="black"/>
</g>
<defs>
<clipPath id="clip0_177_1313">
<rect width="646.24" height="658.53" fill="white"/>
</clipPath>
</defs>
</svg>
